<svg width="1681" height="182" viewBox="0 0 1681 182" fill="none" xmlns="http://www.w3.org/2000/svg">
<path fill-rule="evenodd" clip-rule="evenodd" d="M1680.88 39.3164L1538.3 181.876L1517.42 181.876L1680.88 18.4434L1680.88 39.3164ZM1478.51 181.876L1660.28 0.124641L1639.41 0.124639L1457.64 181.876L1478.51 181.876ZM1600.5 0.124635L1418.72 181.876L1397.85 181.876L1579.62 0.124634L1600.5 0.124635ZM1358.96 181.876L1540.71 0.12463L1519.84 0.124628L1338.07 181.876L1358.96 181.876ZM1480.93 0.124625L1299.17 181.876L1278.3 181.876L1460.05 0.124623L1480.93 0.124625ZM1239.39 181.876L1421.16 0.12462L1400.29 0.124618L1218.52 181.876L1239.39 181.876ZM1361.37 0.124615L1179.6 181.876L1158.73 181.876L1340.5 0.124613L1361.37 0.124615ZM1119.84 181.876L1301.59 0.124609L1280.72 0.124608L1098.94 181.876L1119.84 181.876ZM1241.8 0.124604L1060.05 181.876L1039.16 181.876L1220.93 0.124602L1241.8 0.124604ZM1000.27 181.876L1182.02 0.124599L1161.15 0.124597L979.395 181.876L1000.27 181.876ZM1122.25 0.124594L940.482 181.876L919.609 181.876L1101.36 0.124592L1122.25 0.124594ZM880.696 181.876L1062.47 0.124588L1041.59 0.124587L859.823 181.876L880.696 181.876ZM1002.68 0.124583L820.911 181.876L800.038 181.876L981.809 0.124581L1002.68 0.124583ZM761.145 181.876L942.896 0.124578L922.023 0.124576L740.253 181.876L761.145 181.876ZM883.111 0.124573L701.36 181.876L680.486 181.876L862.238 0.124571L883.111 0.124573ZM641.576 181.876L823.345 0.124568L802.452 0.124566L620.696 181.876L641.576 181.876ZM763.56 0.124562L581.786 181.876L560.916 181.876L742.687 0.12456L763.56 0.124562ZM522.006 181.876L703.774 0.124557L682.902 0.124555L501.126 181.876L522.006 181.876ZM643.986 0.124552L462.236 181.876L441.346 181.876L623.116 0.12455L643.986 0.124552ZM402.456 181.876L584.206 0.124547L563.326 0.124545L381.576 181.876L402.456 181.876ZM524.436 0.124541L342.666 181.876L321.796 181.876L503.546 0.12454L524.436 0.124541ZM282.886 181.876L464.656 0.124536L443.776 0.124534L262.006 181.876L282.886 181.876ZM404.866 0.124531L223.116 181.876L202.226 181.876L383.996 0.124529L404.866 0.124531ZM163.326 181.876L345.086 0.124526L324.206 0.124524L142.436 181.876L163.326 181.876ZM285.296 0.124521L103.546 181.876L82.676 181.876L264.426 0.124519L285.296 0.124521ZM43.756 181.876L225.526 0.124515L204.636 0.124513L22.886 181.876L43.756 181.876ZM144.876 0.124722L165.746 0.124724L0.875969 164.994L0.87597 144.121L144.876 0.124722ZM105.956 0.124444L85.0859 0.124442L0.875973 84.335L0.875972 105.208L105.956 0.124444ZM46.176 0.124759L25.306 0.124757L0.875975 24.5498L0.875975 45.4229L46.176 0.124759ZM1598.08 181.876L1680.88 99.1019L1680.88 78.2289L1577.21 181.876L1598.08 181.876ZM1680.88 158.868L1657.87 181.876L1636.99 181.876L1680.88 137.995L1680.88 158.868Z" fill="#F2F2F2"/>
</svg>
