<svg width="182" height="1680" viewBox="0 0 182 1680" fill="none" xmlns="http://www.w3.org/2000/svg">
<path fill-rule="evenodd" clip-rule="evenodd" d="M39.1919 9.1239e-07L181.751 142.579V163.452L18.3189 0L39.1919 9.1239e-07ZM181.751 202.366L0.00012989 20.5947L0.000128977 41.4677L181.751 223.239V202.366ZM0.000127276 80.3799L181.751 262.151V283.024L0.000126364 101.253L0.000127276 80.3799ZM181.751 321.916L0.000124663 140.165L0.000123751 161.038L181.751 342.809V321.916ZM0.00012205 199.95L181.751 381.701V402.574L0.000121137 220.823L0.00012205 199.95ZM181.751 441.487L0.000119437 259.716L0.000118525 280.589L181.751 462.36V441.487ZM0.000116824 319.502L181.751 501.273V522.146L0.000115912 340.375L0.000116824 319.502ZM181.751 561.038L0.000114211 379.287L0.000113298 400.16L181.751 581.931V561.038ZM0.000111597 439.072L181.751 620.823V641.716L0.000110685 459.945L0.000111597 439.072ZM181.751 680.608L0.000108984 498.857L0.000108072 519.73L181.751 701.481V680.608ZM0.000106372 558.623L181.751 740.394V761.267L0.000105458 579.516L0.000106372 558.623ZM181.751 800.18L0.000103758 618.409L0.000102846 639.282L181.751 821.053V800.18ZM0.000101145 678.194L181.751 859.965V880.838L0.000100233 699.067L0.000101145 678.194ZM181.751 919.731L9.85317e-05 737.98L9.76193e-05 758.853L181.751 940.623V919.731ZM9.59184e-05 797.765L181.751 979.516V1000.39L9.5006e-05 818.638L9.59184e-05 797.765ZM181.751 1039.3L9.33059e-05 857.531L9.23926e-05 878.424L181.751 1060.18V1039.3ZM9.06926e-05 917.316L181.751 1099.09V1119.96L8.97802e-05 938.189L9.06926e-05 917.316ZM181.751 1158.87L8.80793e-05 977.102L8.71669e-05 997.974L181.751 1179.75V1158.87ZM8.5466e-05 1036.89L181.751 1218.64V1239.53L8.45536e-05 1057.76L8.5466e-05 1036.89ZM181.751 1278.42L8.28527e-05 1096.67L8.19403e-05 1117.55L181.751 1299.3V1278.42ZM8.02403e-05 1156.44L181.751 1338.21V1359.08L7.9327e-05 1177.33L8.02403e-05 1156.44ZM181.751 1397.99L7.7627e-05 1216.22L7.67146e-05 1237.1L181.751 1418.87V1397.99ZM7.50137e-05 1276.01L181.751 1457.76V1478.65L7.41013e-05 1296.88L7.50137e-05 1276.01ZM181.751 1517.55L7.24004e-05 1335.79L7.1488e-05 1356.67L181.751 1538.44V1517.55ZM6.9787e-05 1395.58L181.751 1577.33V1598.2L6.88747e-05 1416.45L6.9787e-05 1395.58ZM181.751 1637.12L6.71746e-05 1455.35L6.62614e-05 1476.24L181.751 1657.99V1637.12ZM0.000277272 1536L0.000278184 1515.13L164.869 1680H143.996L0.000277272 1536ZM9.13002e-07 1574.92L0 1595.79L84.2105 1680H105.083L9.13002e-07 1574.92ZM0.000318734 1634.7L0.000317822 1655.57L24.4253 1680H45.2984L0.000318734 1634.7ZM181.751 82.7937L98.9774 3.5257e-06L78.1044 2.61331e-06L181.751 103.667V82.7937ZM158.743 6.13813e-06L181.751 23.0082V43.8813L137.87 5.22574e-06L158.743 6.13813e-06Z" fill="#F2F2F2"/>
</svg>
