<svg width="296" height="92" viewBox="0 0 296 92" fill="none" xmlns="http://www.w3.org/2000/svg">
<path d="M295.72 0H0V78H295.72V0Z" fill="#231815"/>
<path d="M103.13 25.11C103.35 24.83 103.43 24.3301 103.43 24.3301H90.0801C90.0801 24.3301 90.2401 24.88 90.3801 25.11H103.12H103.13Z" fill="#D3A100"/>
<path d="M102.361 26.2401C102.611 26.0201 102.861 25.5801 102.861 25.5801H90.6406C90.6406 25.5801 90.7806 25.9101 91.0806 26.2401H102.361Z" fill="#D3A100"/>
<path d="M101.39 27.2598C101.69 27.0898 101.94 26.7598 101.94 26.7598H91.4902C91.4902 26.7598 91.7402 27.0398 91.9802 27.2598H101.38H101.39Z" fill="#D3A100"/>
<path d="M100.17 28.2299C100.47 28.1199 100.81 27.8398 100.81 27.8398H92.6602C92.6602 27.8398 92.6601 27.8999 93.2401 28.2299H100.18H100.17Z" fill="#D3A100"/>
<path d="M94.1702 28.8398C94.1702 28.8398 95.0301 29.3398 96.7101 29.3398C98.3901 29.3398 99.4702 28.8398 99.4702 28.8398H94.1602H94.1702Z" fill="#D3A100"/>
<path d="M94.0305 29.9697C94.0305 29.9697 95.0506 30.0197 95.6606 30.4897C96.2406 30.9897 96.6906 31.8198 96.6906 31.8198C96.6906 31.8198 97.0505 31.0197 97.6305 30.6097C98.2105 30.1597 99.1505 29.9697 99.1505 29.9697H109.681L111.751 33.0397H102.291C102.291 33.0397 101.631 33.0697 100.631 33.6497C100.101 33.9497 99.7105 34.4797 99.7105 34.4797C99.7105 34.4797 99.6305 34.7297 99.5205 34.8597C99.4105 34.9997 99.3306 35.1097 99.1906 35.1697C99.0506 35.2297 99.0806 35.1998 99.0806 35.1998H94.1606C94.1606 35.1998 93.9605 35.1198 93.8605 34.9498C93.7505 34.7798 93.8306 34.8398 93.7206 34.7098C93.6406 34.5698 93.4405 34.2098 92.7005 33.7098C91.9305 33.2098 91.1805 33.1597 91.1805 33.1597H81.5605L83.6606 29.9797H94.0305V29.9697Z" fill="#D3A100"/>
<path d="M86.5898 34.3096V50.0096C86.5898 50.0096 86.6498 51.3996 87.8098 53.2696C88.9698 55.1496 90.6498 56.0096 90.6498 56.0096L91.9798 53.9396C91.9798 53.9396 90.8198 53.2496 89.9298 51.9196C89.0798 50.5996 89.0798 49.4596 89.0798 49.4596V34.3096H86.5898Z" fill="#D3A100"/>
<path d="M104.4 34.2598V49.4097C104.4 49.4097 104.21 50.9298 103.49 52.0098C102.77 53.1098 101.58 53.9998 101.58 53.9998L102.86 56.0397C102.86 56.0397 104.79 54.6298 105.73 53.1398C106.67 51.6498 106.9 49.4097 106.9 49.4097V34.2598H104.41H104.4Z" fill="#D3A100"/>
<path d="M82.6504 34.3096V50.0696C82.6504 50.0696 82.8104 52.5096 84.3304 55.0496C85.8604 57.5896 88.6204 59.3596 88.6204 59.3596L89.9204 57.2896C89.9204 57.2896 88.1504 56.3496 86.7404 54.1896C85.3004 52.0096 85.2204 50.0196 85.2204 50.0196V34.3196H82.6504V34.3096Z" fill="#D3A100"/>
<path d="M94.0292 35.9697V52.6097C94.0292 52.6097 93.9692 52.6697 93.9492 52.9097C93.9192 53.1597 93.7592 53.3298 93.7592 53.3298L88.1992 62.5397H105.229L99.6692 53.1398L99.4992 52.7197L99.4392 52.2797V35.9998H97.3692V52.8997C97.3692 52.8997 97.3692 53.1397 97.4492 53.3397C97.4992 53.5297 97.6192 53.8298 97.6192 53.8298L101.039 59.4697H92.3592L95.7292 53.8597C95.7292 53.8597 95.8392 53.6698 95.9192 53.3898C95.9792 53.1398 95.9992 52.8997 95.9992 52.8997V35.9697H94.0092H94.0292Z" fill="#D3A100"/>
<path d="M108.24 34.26V49.74C108.24 49.74 108.22 51.73 106.75 54.02C105.29 56.32 103.6 57.28 103.6 57.28L104.85 59.38C104.85 59.38 107.39 57.78 109 55.23C110.58 52.69 110.77 49.73 110.77 49.73V34.25H108.25L108.24 34.26Z" fill="#D3A100"/>
<path d="M90.0002 23.89C90.0002 23.89 89.1402 19.22 92.5702 16.89C92.5702 16.89 94.1202 15.46 96.6302 15.46C99.3102 15.46 100.86 16.8699 100.86 16.8699C104.59 19.6099 103.49 23.89 103.49 23.89H90.0002V23.89Z" fill="#D3A100"/>
<path d="M206.739 25.11C206.959 24.83 207.039 24.3301 207.039 24.3301H193.689C193.689 24.3301 193.859 24.88 193.999 25.11H206.739Z" fill="white"/>
<path d="M205.96 26.2401C206.21 26.0201 206.46 25.5801 206.46 25.5801H194.24C194.24 25.5801 194.38 25.9101 194.68 26.2401H205.96V26.2401Z" fill="white"/>
<path d="M205 27.2598C205.3 27.0898 205.55 26.7598 205.55 26.7598H195.1C195.1 26.7598 195.35 27.0398 195.59 27.2598H204.99H205Z" fill="white"/>
<path d="M203.78 28.2299C204.08 28.1199 204.42 27.8398 204.42 27.8398H196.27C196.27 27.8398 196.27 27.8999 196.85 28.2299H203.79H203.78Z" fill="white"/>
<path d="M197.78 28.8398C197.78 28.8398 198.64 29.3398 200.32 29.3398C202 29.3398 203.08 28.8398 203.08 28.8398H197.77H197.78Z" fill="white"/>
<path d="M197.64 29.9697C197.64 29.9697 198.66 30.0197 199.27 30.4897C199.85 30.9897 200.3 31.8198 200.3 31.8198C200.3 31.8198 200.66 31.0197 201.24 30.6097C201.82 30.1597 202.76 29.9697 202.76 29.9697H213.29L215.36 33.0397H205.9C205.9 33.0397 205.24 33.0697 204.24 33.6497C203.71 33.9497 203.32 34.4797 203.32 34.4797C203.32 34.4797 203.24 34.7297 203.13 34.8597C203.02 34.9997 202.94 35.1097 202.8 35.1697C202.66 35.2297 202.69 35.1998 202.69 35.1998H197.77C197.77 35.1998 197.57 35.1198 197.47 34.9498C197.36 34.7798 197.44 34.8398 197.33 34.7098C197.25 34.5698 197.05 34.2098 196.31 33.7098C195.54 33.2098 194.79 33.1597 194.79 33.1597H185.17L187.27 29.9797H197.64V29.9697Z" fill="white"/>
<path d="M190.199 34.3096V50.0096C190.199 50.0096 190.259 51.3996 191.419 53.2696C192.579 55.1496 194.259 56.0096 194.259 56.0096L195.589 53.9396C195.589 53.9396 194.429 53.2496 193.539 51.9196C192.689 50.5996 192.689 49.4596 192.689 49.4596V34.3096H190.199V34.3096Z" fill="white"/>
<path d="M208.009 34.2598V49.4097C208.009 49.4097 207.819 50.9298 207.099 52.0098C206.379 53.1098 205.189 53.9998 205.189 53.9998L206.469 56.0397C206.469 56.0397 208.399 54.6298 209.339 53.1398C210.279 51.6498 210.509 49.4097 210.509 49.4097V34.2598H208.019H208.009Z" fill="white"/>
<path d="M186.25 34.3096V50.0696C186.25 50.0696 186.41 52.5096 187.93 55.0496C189.46 57.5896 192.22 59.3596 192.22 59.3596L193.52 57.2896C193.52 57.2896 191.75 56.3496 190.34 54.1896C188.9 52.0096 188.82 50.0196 188.82 50.0196V34.3196H186.25V34.3096Z" fill="white"/>
<path d="M197.641 35.9697V52.6097C197.641 52.6097 197.581 52.6697 197.561 52.9097C197.531 53.1597 197.371 53.3298 197.371 53.3298L191.811 62.5397H208.841L203.281 53.1398L203.111 52.7197L203.051 52.2797V35.9998H200.981V52.8997C200.981 52.8997 200.981 53.1397 201.061 53.3397C201.111 53.5297 201.231 53.8298 201.231 53.8298L204.651 59.4697H195.971L199.341 53.8597C199.341 53.8597 199.451 53.6698 199.531 53.3898C199.591 53.1398 199.611 52.8997 199.611 52.8997V35.9697H197.621H197.641Z" fill="white"/>
<path d="M211.849 34.26V49.74C211.849 49.74 211.829 51.73 210.359 54.02C208.899 56.32 207.209 57.28 207.209 57.28L208.459 59.38C208.459 59.38 210.999 57.78 212.609 55.23C214.189 52.69 214.379 49.73 214.379 49.73V34.25H211.859L211.849 34.26Z" fill="white"/>
<path d="M193.6 23.89C193.6 23.89 192.74 19.22 196.17 16.89C196.17 16.89 197.72 15.46 200.23 15.46C202.91 15.46 204.46 16.8699 204.46 16.8699C208.19 19.5999 207.09 23.89 207.09 23.89H193.6Z" fill="white"/>
<path d="M82.9508 88.9496V91.2496H82.2908V88.9396L80.0508 85.5596H80.8208L82.6308 88.3596L84.4408 85.5596H85.1908L82.9508 88.9496Z" fill="#231815"/>
<path d="M85.7598 85.5493H89.3598V86.0893H86.4098V88.0693H89.1998V88.6193H86.4098V90.6893H89.3598V91.2293H85.7598V85.5293V85.5493Z" fill="#231815"/>
<path d="M90.459 85.5498H91.119V90.6898H93.979V91.2498H90.469V85.5498H90.459Z" fill="#231815"/>
<path d="M94.8203 85.5498H95.4803V90.6898H98.3403V91.2498H94.8303V85.5498H94.8203Z" fill="#231815"/>
<path d="M99.8997 90.9593C99.5097 90.7293 99.2097 90.3893 98.9997 89.9493C98.7897 89.5093 98.6797 88.9892 98.6797 88.3992C98.6797 87.8092 98.7797 87.2792 98.9897 86.8492C99.1997 86.4092 99.4997 86.0792 99.8897 85.8392C100.28 85.6092 100.74 85.4893 101.27 85.4893C101.8 85.4893 102.26 85.6092 102.65 85.8392C103.04 86.0792 103.34 86.4092 103.55 86.8492C103.76 87.2892 103.86 87.7993 103.86 88.3893C103.86 88.9793 103.75 89.5093 103.54 89.9393C103.33 90.3793 103.03 90.7093 102.64 90.9493C102.25 91.1893 101.79 91.3093 101.26 91.3093C100.73 91.3093 100.27 91.1893 99.8797 90.9593H99.8997ZM102.68 90.1393C103.02 89.7293 103.18 89.1492 103.18 88.3992C103.18 87.6492 103.01 87.0692 102.68 86.6592C102.35 86.2492 101.88 86.0493 101.27 86.0493C100.66 86.0493 100.19 86.2492 99.8497 86.6592C99.5097 87.0692 99.3497 87.6493 99.3497 88.3893C99.3497 89.1293 99.5197 89.7193 99.8497 90.1293C100.19 90.5393 100.66 90.7493 101.27 90.7493C101.88 90.7493 102.34 90.5393 102.68 90.1293V90.1393Z" fill="#231815"/>
<path d="M112.87 85.5498L110.88 91.2498H110.32L108.7 86.5898L107.07 91.2498H106.52L104.52 85.5498H105.19L106.81 90.3098L108.47 85.5498H108.97L110.6 90.3298L112.23 85.5498H112.88H112.87Z" fill="#231815"/>
<path d="M195.58 85.5498L193.59 91.2498H193.03L191.41 86.5898L189.78 91.2498H189.23L187.23 85.5498H187.9L189.52 90.3098L191.18 85.5498H191.68L193.31 90.3298L194.94 85.5498H195.59H195.58Z" fill="#231815"/>
<path d="M201.281 85.5498V91.2498H200.621V88.6298H197.201V91.2498H196.551V85.5498H197.201V88.0798H200.621V85.5498H201.281Z" fill="#231815"/>
<path d="M202.689 85.5498H203.349V91.2498H202.689V85.5498Z" fill="#231815"/>
<path d="M206.13 86.1098H204.15V85.5498H208.78V86.1098H206.8V91.2498H206.14V86.1098H206.13Z" fill="#231815"/>
<path d="M209.58 85.5493H213.18V86.0893H210.23V88.0693H213.02V88.6193H210.23V90.6893H213.18V91.2293H209.58V85.5293V85.5493Z" fill="#231815"/>
</svg>
