<svg width="740" height="237" viewBox="0 0 740 237" fill="none" xmlns="http://www.w3.org/2000/svg">
<path d="M70.84 0H0V75.98H70.84V0Z" fill="#48BB88"/>
<path d="M141.68 0H70.8398V75.98H141.68V0Z" fill="#3A96DB"/>
<path d="M70.85 148.24H0V224.22H70.85V148.24Z" fill="#76236C"/>
<path d="M141.69 148.24H70.8398V224.22H141.69V148.24Z" fill="#CB9700"/>
<path d="M337.161 148.24H195.471V224.22H337.161V148.24Z" fill="#BF065F"/>
<path d="M461.779 0H390.939V75.98H461.779V0Z" fill="#EB6100"/>
<path d="M532.83 0H461.99V75.98H532.83V0Z" fill="#006532"/>
<path d="M657.66 0H586.82V75.98H657.66V0Z" fill="#D70B18"/>
<path d="M728.5 0H657.66V75.98H728.5V0Z" fill="#CBC9C8"/>
<path d="M266.311 0H195.471V75.98H266.311V0Z" fill="#00662F"/>
<path d="M337.16 0H266.32V75.98H337.16V0Z" fill="#AD6C14"/>
<path d="M728.51 148.24H586.82V224.22H728.51V148.24Z" fill="#004998"/>
<path d="M533.029 148.24H390.939V224.22H533.029V148.24Z" fill="#9F2842"/>
<path d="M0.699219 82.1291H2.97922C3.56922 82.1291 4.01922 82.2691 4.34922 82.5491C4.67922 82.8291 4.83922 83.2191 4.83922 83.7191C4.83922 84.2191 4.66922 84.6091 4.33922 84.8891C4.00922 85.1691 3.54922 85.3191 2.96922 85.3191H1.35922V87.8191H0.699219V82.1191V82.1291ZM2.91922 84.7791C3.33922 84.7791 3.65922 84.6891 3.86922 84.5091C4.07922 84.3291 4.18922 84.0691 4.18922 83.7291C4.18922 83.3891 4.07922 83.1291 3.86922 82.9491C3.65922 82.7691 3.33922 82.6791 2.91922 82.6791H1.35922V84.7791H2.91922Z" fill="#231815"/>
<path d="M9.04 86.3699H6.06L5.43 87.8299H4.75L7.25 82.1299H7.83L10.33 87.8299H9.66L9.04 86.3699ZM8.81 85.8299L7.55 82.8999L6.29 85.8299H8.8H8.81Z" fill="#231815"/>
<path d="M15.7497 82.1299V87.8299H15.2397L11.7997 83.2499V87.8299H11.1797V82.1299H11.6797L15.1197 86.7099V82.1299H15.7397H15.7497Z" fill="#231815"/>
<path d="M18.5288 82.6899H16.5488V82.1299H21.1788V82.6899H19.1988V87.8299H18.5388V82.6899H18.5288Z" fill="#231815"/>
<path d="M22.6399 87.5393C22.2499 87.3093 21.9499 86.9693 21.7399 86.5293C21.5299 86.0893 21.4199 85.5693 21.4199 84.9793C21.4199 84.3893 21.5199 83.8593 21.7299 83.4293C21.9399 82.9893 22.2399 82.6593 22.6299 82.4193C23.0199 82.1893 23.4799 82.0693 24.0099 82.0693C24.5399 82.0693 24.9999 82.1893 25.3899 82.4193C25.7799 82.6593 26.0799 82.9893 26.2899 83.4293C26.4999 83.8693 26.5999 84.3793 26.5999 84.9693C26.5999 85.5593 26.4899 86.0893 26.2799 86.5193C26.0699 86.9593 25.7699 87.2893 25.3799 87.5293C24.9899 87.7693 24.5299 87.8893 23.9999 87.8893C23.4699 87.8893 23.0099 87.7693 22.6199 87.5393H22.6399ZM25.4199 86.7193C25.7599 86.3093 25.9199 85.7293 25.9199 84.9793C25.9199 84.2293 25.7499 83.6493 25.4199 83.2393C25.0899 82.8293 24.6199 82.6293 24.0099 82.6293C23.3999 82.6293 22.9299 82.8293 22.5899 83.2393C22.2499 83.6493 22.0899 84.2293 22.0899 84.9693C22.0899 85.7093 22.2599 86.2993 22.5899 86.7093C22.9299 87.1193 23.3999 87.3293 24.0099 87.3293C24.6199 87.3293 25.0799 87.1193 25.4199 86.7093V86.7193Z" fill="#231815"/>
<path d="M32.3786 82.1299V87.8299H31.8686L28.4286 83.2499V87.8299H27.8086V82.1299H28.3086L31.7486 86.7099V82.1299H32.3686H32.3786Z" fill="#231815"/>
<path d="M33.7793 82.1294H37.3793V82.6694H34.4293V84.6494H37.2193V85.1994H34.4293V87.2694H37.3793V87.8094H33.7793V82.1094V82.1294Z" fill="#231815"/>
<path d="M43.8191 85.3998C43.9991 85.6298 44.0791 85.9298 44.0791 86.2898C44.0791 86.7898 43.9091 87.1798 43.5791 87.4598C43.2491 87.7398 42.7891 87.8898 42.2091 87.8898C41.8391 87.8898 41.4891 87.8298 41.1491 87.7098C40.8091 87.5898 40.5191 87.4098 40.2891 87.1898L40.5491 86.6898C41.0791 87.1298 41.6291 87.3498 42.1991 87.3498C42.6091 87.3498 42.9091 87.2598 43.1191 87.0798C43.3291 86.8998 43.4391 86.6298 43.4391 86.2798C43.4391 85.5798 42.9991 85.2299 42.1291 85.2299H41.4691V84.6798H41.9991C42.4191 84.6798 42.7391 84.5898 42.9691 84.3998C43.1991 84.2098 43.3091 83.9498 43.3091 83.5998C43.3091 83.2898 43.2191 83.0498 43.0291 82.8898C42.8491 82.7198 42.5891 82.6398 42.2491 82.6398C41.7091 82.6398 41.1691 82.8599 40.6291 83.2999L40.3791 82.7999C40.6091 82.5799 40.8891 82.4098 41.2191 82.2798C41.5491 82.1598 41.8991 82.0898 42.2591 82.0898C42.7691 82.0898 43.1791 82.2199 43.4891 82.4799C43.7991 82.7399 43.9491 83.0898 43.9491 83.5398C43.9491 83.8698 43.8691 84.1498 43.7091 84.3998C43.5491 84.6498 43.3291 84.8198 43.0491 84.9298C43.3891 85.0298 43.6391 85.1898 43.8191 85.4298V85.3998Z" fill="#231815"/>
<path d="M49.1986 86.5899H48.3386V87.8299H47.6786V86.5899H45.0586V86.0899L47.7986 82.1299H48.3386V86.0399H49.1986V86.5799V86.5899ZM47.6786 86.0499V83.2499L45.7386 86.0499H47.6786Z" fill="#231815"/>
<path d="M53.0284 84.4796C53.2984 84.6296 53.5084 84.8496 53.6584 85.1196C53.8084 85.3896 53.8784 85.7096 53.8784 86.0596C53.8784 86.4096 53.7984 86.7296 53.6384 86.9996C53.4784 87.2796 53.2584 87.4996 52.9884 87.6496C52.7184 87.7996 52.3984 87.8896 52.0484 87.8896C51.3584 87.8896 50.8284 87.6496 50.4584 87.1696C50.0884 86.6896 49.8984 86.0096 49.8984 85.1196C49.8984 84.4796 49.9884 83.9296 50.1584 83.4696C50.3284 83.0096 50.5784 82.6596 50.9084 82.4196C51.2384 82.1796 51.6284 82.0596 52.0884 82.0596C52.4184 82.0596 52.7384 82.1196 53.0484 82.2396C53.3584 82.3596 53.6384 82.5396 53.8684 82.7596L53.6184 83.2596C53.3484 83.0396 53.0984 82.8696 52.8484 82.7596C52.5984 82.6496 52.3484 82.5996 52.0984 82.5996C51.6084 82.5996 51.2284 82.8196 50.9584 83.2596C50.6884 83.6996 50.5484 84.3096 50.5484 85.0996V85.2196C50.6684 84.9196 50.8684 84.6796 51.1484 84.4996C51.4284 84.3196 51.7384 84.2396 52.0984 84.2396C52.4584 84.2396 52.7484 84.3196 53.0184 84.4696L53.0284 84.4796ZM52.8984 86.9896C53.1184 86.7596 53.2384 86.4496 53.2384 86.0696C53.2384 85.6896 53.1284 85.3896 52.8984 85.1496C52.6684 84.9196 52.3784 84.7996 52.0184 84.7996C51.6584 84.7996 51.3384 84.9196 51.1084 85.1496C50.8784 85.3796 50.7584 85.6896 50.7584 86.0596C50.7584 86.4296 50.8784 86.7496 51.1084 86.9796C51.3484 87.2096 51.6484 87.3296 52.0284 87.3296C52.4084 87.3296 52.6884 87.2096 52.9084 86.9796L52.8984 86.9896Z" fill="#231815"/>
<path d="M55.4997 87.3196C55.1197 86.9296 54.9297 86.3596 54.9297 85.5996V82.1396H55.5797V85.6597C55.5797 86.2097 55.7197 86.6296 55.9897 86.9196C56.2597 87.1996 56.6597 87.3396 57.1997 87.3396C57.7397 87.3396 58.1297 87.1996 58.3997 86.9196C58.6697 86.6396 58.7997 86.2197 58.7997 85.6597V82.1396H59.4597V85.5996C59.4597 86.3496 59.2697 86.9196 58.8797 87.3096C58.4997 87.6996 57.9397 87.8896 57.1997 87.8896C56.4597 87.8896 55.8897 87.6996 55.5097 87.3096L55.4997 87.3196Z" fill="#231815"/>
<path d="M392.061 87.1503C391.721 86.6603 391.551 85.9303 391.551 84.9803C391.551 84.0303 391.721 83.3003 392.061 82.8103C392.401 82.3203 392.891 82.0703 393.541 82.0703C394.191 82.0703 394.691 82.3203 395.021 82.8103C395.361 83.3003 395.531 84.0203 395.531 84.9703C395.531 85.9203 395.361 86.6503 395.021 87.1503C394.681 87.6503 394.191 87.8903 393.541 87.8903C392.891 87.8903 392.391 87.6403 392.061 87.1503ZM394.551 86.7603C394.771 86.3803 394.871 85.7803 394.871 84.9703C394.871 84.1603 394.761 83.5703 394.551 83.1903C394.341 82.8103 394.001 82.6203 393.541 82.6203C393.081 82.6203 392.751 82.8103 392.541 83.1903C392.331 83.5703 392.221 84.1603 392.221 84.9703C392.221 85.7803 392.331 86.3703 392.541 86.7603C392.751 87.1503 393.091 87.3403 393.541 87.3403C393.991 87.3403 394.331 87.1503 394.541 86.7603H394.551Z" fill="#231815"/>
<path d="M397.681 87.5403C397.281 87.3103 396.981 86.9703 396.761 86.5303C396.551 86.0903 396.441 85.5703 396.441 84.9703C396.441 84.3703 396.551 83.8603 396.761 83.4203C396.971 82.9903 397.281 82.6503 397.681 82.4203C398.081 82.1903 398.551 82.0703 399.081 82.0703C399.471 82.0703 399.841 82.1303 400.161 82.2503C400.491 82.3703 400.771 82.5503 401.011 82.7903L400.761 83.2903C400.491 83.0603 400.221 82.8903 399.961 82.7903C399.701 82.6903 399.401 82.6403 399.081 82.6403C398.461 82.6403 397.971 82.8403 397.631 83.2503C397.291 83.6603 397.111 84.2303 397.111 84.9803C397.111 85.7303 397.281 86.3103 397.621 86.7203C397.961 87.1303 398.451 87.3303 399.081 87.3303C399.401 87.3303 399.691 87.2803 399.961 87.1803C400.221 87.0803 400.491 86.9103 400.761 86.6803L401.011 87.1803C400.771 87.4203 400.491 87.6003 400.161 87.7203C399.831 87.8403 399.471 87.9003 399.081 87.9003C398.541 87.9003 398.071 87.7803 397.681 87.5503V87.5403Z" fill="#231815"/>
<path d="M411.961 82.1299V82.6199L409.291 87.8299H408.591L411.251 82.6899H408.211V82.1399H411.971L411.961 82.1299Z" fill="#231815"/>
<path d="M416.062 84.4801C416.332 84.6301 416.542 84.8401 416.682 85.1201C416.822 85.3901 416.902 85.7101 416.902 86.0601C416.902 86.4101 416.822 86.7301 416.662 87.0101C416.502 87.2901 416.282 87.5001 415.992 87.6501C415.702 87.8001 415.362 87.8801 414.972 87.8801C414.622 87.8801 414.282 87.8201 413.952 87.6901C413.622 87.5601 413.332 87.3901 413.102 87.1701L413.352 86.6701C413.882 87.1101 414.422 87.3301 414.972 87.3301C415.372 87.3301 415.682 87.2201 415.912 86.9901C416.142 86.7601 416.252 86.4501 416.252 86.0701C416.252 85.6901 416.142 85.3901 415.912 85.1501C415.692 84.9201 415.392 84.8001 415.012 84.8001C414.472 84.8001 414.032 85.0201 413.712 85.4601H413.252V82.1201H416.672V82.6601H413.912V84.6901C414.222 84.3901 414.632 84.2301 415.122 84.2301C415.482 84.2301 415.792 84.3101 416.062 84.4601V84.4801Z" fill="#231815"/>
<path d="M423.37 82.1299V87.8299H422.76V83.5999L420.91 87.8299H420.45L418.59 83.6299V87.8299H417.99V82.1299H418.53L420.69 87.0399L422.83 82.1299H423.37Z" fill="#231815"/>
<path d="M395.34 97.2799V97.8299H392.16V97.2799H393.42V92.9499L392.25 93.6899V93.0599L393.71 92.1299H394.09V97.2699H395.35L395.34 97.2799Z" fill="#231815"/>
<path d="M396.86 97.1503C396.52 96.6603 396.35 95.9303 396.35 94.9803C396.35 94.0303 396.52 93.3003 396.86 92.8103C397.2 92.3203 397.69 92.0703 398.34 92.0703C398.99 92.0703 399.49 92.3203 399.82 92.8103C400.16 93.3003 400.33 94.0203 400.33 94.9703C400.33 95.9203 400.16 96.6503 399.82 97.1503C399.48 97.6503 398.99 97.8903 398.34 97.8903C397.69 97.8903 397.19 97.6403 396.86 97.1503ZM399.35 96.7603C399.57 96.3803 399.67 95.7803 399.67 94.9703C399.67 94.1603 399.56 93.5703 399.35 93.1903C399.14 92.8103 398.8 92.6203 398.34 92.6203C397.88 92.6203 397.55 92.8103 397.34 93.1903C397.13 93.5703 397.02 94.1603 397.02 94.9703C397.02 95.7803 397.13 96.3703 397.34 96.7603C397.55 97.1503 397.89 97.3403 398.34 97.3403C398.79 97.3403 399.13 97.1503 399.34 96.7603H399.35Z" fill="#231815"/>
<path d="M401.66 97.1503C401.32 96.6603 401.15 95.9303 401.15 94.9803C401.15 94.0303 401.32 93.3003 401.66 92.8103C402 92.3203 402.49 92.0703 403.14 92.0703C403.79 92.0703 404.29 92.3203 404.62 92.8103C404.96 93.3003 405.13 94.0203 405.13 94.9703C405.13 95.9203 404.96 96.6503 404.62 97.1503C404.28 97.6503 403.79 97.8903 403.14 97.8903C402.49 97.8903 401.99 97.6403 401.66 97.1503ZM404.15 96.7603C404.37 96.3803 404.47 95.7803 404.47 94.9703C404.47 94.1603 404.36 93.5703 404.15 93.1903C403.94 92.8103 403.6 92.6203 403.14 92.6203C402.68 92.6203 402.35 92.8103 402.14 93.1903C401.93 93.5703 401.82 94.1603 401.82 94.9703C401.82 95.7803 401.93 96.3703 402.14 96.7603C402.35 97.1503 402.69 97.3403 403.14 97.3403C403.59 97.3403 403.93 97.1503 404.14 96.7603H404.15Z" fill="#231815"/>
<path d="M408.3 95.5306V97.8306H407.64V95.5206L405.4 92.1406H406.17L407.98 94.9406L409.79 92.1406H410.54L408.3 95.5306V95.5306Z" fill="#231815"/>
<path d="M420.959 97.8299L418.019 95.1199V97.8299H417.359V92.1299H418.019V94.7499L420.819 92.1299H421.659L418.679 94.9099L421.809 97.8299H420.949H420.959Z" fill="#231815"/>
<path d="M422.651 97.1503C422.311 96.6603 422.141 95.9303 422.141 94.9803C422.141 94.0303 422.311 93.3003 422.651 92.8103C422.991 92.3203 423.481 92.0703 424.131 92.0703C424.781 92.0703 425.281 92.3203 425.611 92.8103C425.951 93.3003 426.121 94.0203 426.121 94.9703C426.121 95.9203 425.951 96.6503 425.611 97.1503C425.271 97.6503 424.781 97.8903 424.131 97.8903C423.481 97.8903 422.981 97.6403 422.651 97.1503ZM425.141 96.7603C425.361 96.3803 425.461 95.7803 425.461 94.9703C425.461 94.1603 425.351 93.5703 425.141 93.1903C424.931 92.8103 424.591 92.6203 424.131 92.6203C423.671 92.6203 423.341 92.8103 423.131 93.1903C422.921 93.5703 422.811 94.1603 422.811 94.9703C422.811 95.7803 422.921 96.3703 423.131 96.7603C423.341 97.1503 423.681 97.3403 424.131 97.3403C424.581 97.3403 424.921 97.1503 425.131 96.7603H425.141Z" fill="#231815"/>
<path d="M199.6 85.4296C199.81 85.6796 199.91 85.9796 199.91 86.3196C199.91 86.8096 199.73 87.1896 199.36 87.4696C198.99 87.7496 198.5 87.8896 197.87 87.8896C197.24 87.8896 196.75 87.7496 196.38 87.4696C196.01 87.1896 195.83 86.8096 195.83 86.3196C195.83 85.9696 195.94 85.6696 196.15 85.4196C196.36 85.1696 196.65 84.9996 197.02 84.8996C196.68 84.7996 196.42 84.6296 196.24 84.3996C196.06 84.1696 195.97 83.8896 195.97 83.5796C195.97 83.2696 196.05 83.0096 196.21 82.7796C196.37 82.5496 196.59 82.3796 196.89 82.2496C197.18 82.1296 197.51 82.0596 197.89 82.0596C198.27 82.0596 198.6 82.1196 198.89 82.2496C199.18 82.3796 199.41 82.5496 199.57 82.7796C199.73 83.0096 199.81 83.2696 199.81 83.5796C199.81 83.8896 199.72 84.1696 199.53 84.3996C199.35 84.6296 199.09 84.7996 198.76 84.8996C199.13 84.9996 199.42 85.1796 199.63 85.4196L199.6 85.4296ZM198.9 87.0696C199.14 86.8896 199.26 86.6196 199.26 86.2796C199.26 85.9696 199.13 85.7096 198.88 85.5196C198.63 85.3296 198.29 85.2096 197.87 85.1696C197.45 85.2096 197.11 85.3296 196.86 85.5196C196.61 85.7096 196.48 85.9596 196.48 86.2796C196.48 86.6296 196.6 86.8896 196.84 87.0696C197.08 87.2496 197.42 87.3396 197.87 87.3396C198.32 87.3396 198.66 87.2496 198.9 87.0696V87.0696ZM196.95 84.3696C197.18 84.5596 197.48 84.6796 197.87 84.7196C198.25 84.6796 198.56 84.5596 198.79 84.3696C199.02 84.1796 199.13 83.9296 199.13 83.6296C199.13 83.3296 199.02 83.0696 198.8 82.8896C198.58 82.7096 198.27 82.6196 197.88 82.6196C197.49 82.6196 197.18 82.7096 196.96 82.8896C196.74 83.0696 196.63 83.3196 196.63 83.6296C196.63 83.9396 196.74 84.1796 196.97 84.3696H196.95Z" fill="#231815"/>
<path d="M201.19 87.1493C200.85 86.6593 200.68 85.9293 200.68 84.9793C200.68 84.0293 200.85 83.2993 201.19 82.8093C201.53 82.3193 202.02 82.0693 202.67 82.0693C203.32 82.0693 203.82 82.3193 204.15 82.8093C204.49 83.2993 204.66 84.0193 204.66 84.9693C204.66 85.9193 204.49 86.6493 204.15 87.1493C203.81 87.6493 203.32 87.8893 202.67 87.8893C202.02 87.8893 201.52 87.6393 201.19 87.1493ZM203.68 86.7593C203.9 86.3793 204 85.7793 204 84.9693C204 84.1593 203.89 83.5693 203.68 83.1893C203.47 82.8093 203.13 82.6193 202.67 82.6193C202.21 82.6193 201.88 82.8093 201.67 83.1893C201.46 83.5693 201.35 84.1593 201.35 84.9693C201.35 85.7793 201.46 86.3693 201.67 86.7593C201.88 87.1493 202.22 87.3393 202.67 87.3393C203.12 87.3393 203.46 87.1493 203.67 86.7593H203.68Z" fill="#231815"/>
<path d="M206.801 87.5393C206.401 87.3093 206.101 86.9693 205.881 86.5293C205.671 86.0893 205.561 85.5693 205.561 84.9693C205.561 84.3693 205.671 83.8593 205.881 83.4193C206.091 82.9893 206.401 82.6493 206.801 82.4193C207.201 82.1893 207.671 82.0693 208.201 82.0693C208.591 82.0693 208.961 82.1293 209.281 82.2493C209.601 82.3693 209.891 82.5493 210.131 82.7893L209.881 83.2893C209.611 83.0593 209.341 82.8893 209.081 82.7893C208.821 82.6893 208.521 82.6393 208.201 82.6393C207.581 82.6393 207.091 82.8393 206.751 83.2493C206.411 83.6593 206.231 84.2293 206.231 84.9793C206.231 85.7293 206.401 86.3093 206.741 86.7193C207.081 87.1293 207.571 87.3293 208.201 87.3293C208.521 87.3293 208.811 87.2793 209.081 87.1793C209.341 87.0793 209.611 86.9093 209.881 86.6793L210.131 87.1793C209.891 87.4193 209.611 87.5993 209.281 87.7193C208.951 87.8393 208.591 87.8993 208.201 87.8993C207.661 87.8993 207.191 87.7793 206.801 87.5493V87.5393Z" fill="#231815"/>
<path d="M217.721 87.1493C217.381 86.6593 217.211 85.9293 217.211 84.9793C217.211 84.0293 217.381 83.2993 217.721 82.8093C218.061 82.3193 218.551 82.0693 219.201 82.0693C219.851 82.0693 220.351 82.3193 220.681 82.8093C221.021 83.2993 221.191 84.0193 221.191 84.9693C221.191 85.9193 221.021 86.6493 220.681 87.1493C220.341 87.6493 219.851 87.8893 219.201 87.8893C218.551 87.8893 218.051 87.6393 217.721 87.1493ZM220.211 86.7593C220.431 86.3793 220.531 85.7793 220.531 84.9693C220.531 84.1593 220.421 83.5693 220.211 83.1893C220.001 82.8093 219.661 82.6193 219.201 82.6193C218.741 82.6193 218.411 82.8093 218.201 83.1893C217.991 83.5693 217.881 84.1593 217.881 84.9693C217.881 85.7793 217.991 86.3693 218.201 86.7593C218.411 87.1493 218.751 87.3393 219.201 87.3393C219.651 87.3393 219.991 87.1493 220.201 86.7593H220.211Z" fill="#231815"/>
<path d="M227.7 82.1299V87.8299H227.09V83.5999L225.24 87.8299H224.78L222.92 83.6299V87.8299H222.32V82.1299H222.86L225.02 87.0399L227.16 82.1299H227.7V82.1299Z" fill="#231815"/>
<path d="M199.67 97.2799V97.8299H196.49V97.2799H197.75V92.9499L196.58 93.6899V93.0599L198.04 92.1299H198.42V97.2699H199.68L199.67 97.2799Z" fill="#231815"/>
<path d="M201.19 97.1503C200.85 96.6603 200.68 95.9303 200.68 94.9803C200.68 94.0303 200.85 93.3003 201.19 92.8103C201.53 92.3203 202.02 92.0703 202.67 92.0703C203.32 92.0703 203.82 92.3203 204.15 92.8103C204.49 93.3003 204.66 94.0203 204.66 94.9703C204.66 95.9203 204.49 96.6503 204.15 97.1503C203.81 97.6503 203.32 97.8903 202.67 97.8903C202.02 97.8903 201.52 97.6403 201.19 97.1503ZM203.68 96.7603C203.9 96.3803 204 95.7803 204 94.9703C204 94.1603 203.89 93.5703 203.68 93.1903C203.47 92.8103 203.13 92.6203 202.67 92.6203C202.21 92.6203 201.88 92.8103 201.67 93.1903C201.46 93.5703 201.35 94.1603 201.35 94.9703C201.35 95.7803 201.46 96.3703 201.67 96.7603C201.88 97.1503 202.22 97.3403 202.67 97.3403C203.12 97.3403 203.46 97.1503 203.67 96.7603H203.68Z" fill="#231815"/>
<path d="M205.99 97.1503C205.65 96.6603 205.48 95.9303 205.48 94.9803C205.48 94.0303 205.65 93.3003 205.99 92.8103C206.33 92.3203 206.82 92.0703 207.47 92.0703C208.12 92.0703 208.62 92.3203 208.95 92.8103C209.29 93.3003 209.46 94.0203 209.46 94.9703C209.46 95.9203 209.29 96.6503 208.95 97.1503C208.61 97.6503 208.12 97.8903 207.47 97.8903C206.82 97.8903 206.32 97.6403 205.99 97.1503ZM208.48 96.7603C208.7 96.3803 208.8 95.7803 208.8 94.9703C208.8 94.1603 208.69 93.5703 208.48 93.1903C208.27 92.8103 207.93 92.6203 207.47 92.6203C207.01 92.6203 206.68 92.8103 206.47 93.1903C206.26 93.5703 206.15 94.1603 206.15 94.9703C206.15 95.7803 206.26 96.3703 206.47 96.7603C206.68 97.1503 207.02 97.3403 207.47 97.3403C207.92 97.3403 208.26 97.1503 208.47 96.7603H208.48Z" fill="#231815"/>
<path d="M212.621 95.5306V97.8306H211.961V95.5206L209.721 92.1406H210.491L212.301 94.9406L214.111 92.1406H214.861L212.621 95.5306Z" fill="#231815"/>
<path d="M225.289 97.8299L222.349 95.1199V97.8299H221.689V92.1299H222.349V94.7499L225.149 92.1299H225.989L223.009 94.9099L226.139 97.8299H225.279H225.289Z" fill="#231815"/>
<path d="M229.64 94.4801C229.91 94.6301 230.12 94.8401 230.26 95.1201C230.4 95.3901 230.48 95.7101 230.48 96.0601C230.48 96.4101 230.4 96.7301 230.24 97.0101C230.08 97.2901 229.86 97.5001 229.57 97.6501C229.28 97.8001 228.94 97.8801 228.55 97.8801C228.2 97.8801 227.86 97.8201 227.53 97.6901C227.2 97.5601 226.91 97.3901 226.68 97.1701L226.93 96.6701C227.46 97.1101 228 97.3301 228.55 97.3301C228.95 97.3301 229.26 97.2201 229.49 96.9901C229.72 96.7601 229.83 96.4501 229.83 96.0701C229.83 95.6901 229.72 95.3901 229.49 95.1501C229.27 94.9201 228.97 94.8001 228.59 94.8001C228.05 94.8001 227.61 95.0201 227.29 95.4601H226.83V92.1201H230.25V92.6601H227.49V94.6901C227.8 94.3901 228.21 94.2301 228.7 94.2301C229.06 94.2301 229.37 94.3101 229.64 94.4601V94.4801Z" fill="#231815"/>
<path d="M234.44 94.4801C234.71 94.6301 234.92 94.8401 235.06 95.1201C235.2 95.3901 235.28 95.7101 235.28 96.0601C235.28 96.4101 235.2 96.7301 235.04 97.0101C234.88 97.2901 234.66 97.5001 234.37 97.6501C234.08 97.8001 233.74 97.8801 233.35 97.8801C233 97.8801 232.66 97.8201 232.33 97.6901C232 97.5601 231.71 97.3901 231.48 97.1701L231.73 96.6701C232.26 97.1101 232.8 97.3301 233.35 97.3301C233.75 97.3301 234.06 97.2201 234.29 96.9901C234.52 96.7601 234.63 96.4501 234.63 96.0701C234.63 95.6901 234.52 95.3901 234.29 95.1501C234.07 94.9201 233.77 94.8001 233.39 94.8001C232.85 94.8001 232.41 95.0201 232.09 95.4601H231.63V92.1201H235.05V92.6601H232.29V94.6901C232.6 94.3901 233.01 94.2301 233.5 94.2301C233.86 94.2301 234.17 94.3101 234.44 94.4601V94.4801Z" fill="#231815"/>
<path d="M0.699219 230.369H2.97922C3.56922 230.369 4.01922 230.509 4.34922 230.789C4.67922 231.069 4.83922 231.459 4.83922 231.959C4.83922 232.459 4.66922 232.849 4.33922 233.129C4.00922 233.409 3.54922 233.559 2.96922 233.559H1.35922V236.059H0.699219V230.359V230.369ZM2.91922 233.019C3.33922 233.019 3.65922 232.929 3.86922 232.749C4.07922 232.569 4.18922 232.309 4.18922 231.969C4.18922 231.629 4.07922 231.369 3.86922 231.189C3.65922 231.009 3.33922 230.919 2.91922 230.919H1.35922V233.019H2.91922V233.019Z" fill="#231815"/>
<path d="M9.04 234.609H6.06L5.43 236.069H4.75L7.25 230.369H7.83L10.33 236.069H9.66L9.04 234.609ZM8.81 234.069L7.55 231.139L6.29 234.069H8.8H8.81Z" fill="#231815"/>
<path d="M15.7497 230.369V236.069H15.2397L11.7997 231.489V236.069H11.1797V230.369H11.6797L15.1197 234.949V230.369H15.7397H15.7497Z" fill="#231815"/>
<path d="M18.5288 230.929H16.5488V230.369H21.1788V230.929H19.1988V236.069H18.5388V230.929H18.5288Z" fill="#231815"/>
<path d="M22.6399 235.78C22.2499 235.55 21.9499 235.21 21.7399 234.77C21.5299 234.33 21.4199 233.81 21.4199 233.22C21.4199 232.63 21.5199 232.1 21.7299 231.67C21.9399 231.23 22.2399 230.9 22.6299 230.66C23.0199 230.43 23.4799 230.31 24.0099 230.31C24.5399 230.31 24.9999 230.43 25.3899 230.66C25.7799 230.9 26.0799 231.23 26.2899 231.67C26.4999 232.11 26.5999 232.62 26.5999 233.21C26.5999 233.8 26.4899 234.33 26.2799 234.76C26.0699 235.2 25.7699 235.53 25.3799 235.77C24.9899 236.01 24.5299 236.13 23.9999 236.13C23.4699 236.13 23.0099 236.01 22.6199 235.78H22.6399ZM25.4199 234.96C25.7599 234.55 25.9199 233.97 25.9199 233.22C25.9199 232.47 25.7499 231.89 25.4199 231.48C25.0899 231.07 24.6199 230.87 24.0099 230.87C23.3999 230.87 22.9299 231.07 22.5899 231.48C22.2499 231.89 22.0899 232.47 22.0899 233.21C22.0899 233.95 22.2599 234.54 22.5899 234.95C22.9299 235.36 23.3999 235.57 24.0099 235.57C24.6199 235.57 25.0799 235.36 25.4199 234.95V234.96Z" fill="#231815"/>
<path d="M32.3786 230.369V236.069H31.8686L28.4286 231.489V236.069H27.8086V230.369H28.3086L31.7486 234.949V230.369H32.3686H32.3786Z" fill="#231815"/>
<path d="M33.7793 230.37H37.3793V230.91H34.4293V232.89H37.2193V233.44H34.4293V235.51H37.3793V236.05H33.7793V230.35V230.37Z" fill="#231815"/>
<path d="M44.1894 235.519V236.069H40.5294V235.569L42.5194 233.359C42.7894 233.059 42.9794 232.789 43.0994 232.549C43.2194 232.309 43.2794 232.069 43.2794 231.829C43.2794 231.519 43.1894 231.269 43.0094 231.109C42.8294 230.939 42.5694 230.859 42.2294 230.859C41.6894 230.859 41.1494 231.079 40.6094 231.519L40.3594 231.019C40.5794 230.809 40.8694 230.639 41.2094 230.509C41.5494 230.379 41.8994 230.319 42.2394 230.319C42.7594 230.319 43.1794 230.449 43.4794 230.719C43.7794 230.989 43.9394 231.349 43.9394 231.809C43.9394 232.139 43.8694 232.449 43.7194 232.749C43.5694 233.049 43.3294 233.389 42.9894 233.759L41.3694 235.519H44.1894V235.519Z" fill="#231815"/>
<path d="M48.2393 232.719C48.5093 232.869 48.7193 233.079 48.8593 233.359C48.9993 233.629 49.0793 233.949 49.0793 234.299C49.0793 234.649 48.9993 234.969 48.8393 235.249C48.6793 235.529 48.4593 235.739 48.1693 235.889C47.8793 236.039 47.5393 236.119 47.1493 236.119C46.7993 236.119 46.4593 236.059 46.1293 235.929C45.7993 235.799 45.5093 235.629 45.2793 235.409L45.5293 234.909C46.0593 235.349 46.5993 235.569 47.1493 235.569C47.5493 235.569 47.8593 235.459 48.0893 235.229C48.3193 234.999 48.4293 234.689 48.4293 234.309C48.4293 233.929 48.3193 233.629 48.0893 233.389C47.8693 233.159 47.5693 233.039 47.1893 233.039C46.6493 233.039 46.2093 233.259 45.8893 233.699H45.4293V230.359H48.8493V230.899H46.0893V232.929C46.3993 232.629 46.8093 232.469 47.2993 232.469C47.6593 232.469 47.9693 232.549 48.2393 232.699V232.719Z" fill="#231815"/>
<path d="M53.0401 232.719C53.3101 232.869 53.5201 233.079 53.6601 233.359C53.8001 233.629 53.8801 233.949 53.8801 234.299C53.8801 234.649 53.8001 234.969 53.6401 235.249C53.4801 235.529 53.2601 235.739 52.9701 235.889C52.6801 236.039 52.3401 236.119 51.9501 236.119C51.6001 236.119 51.2601 236.059 50.9301 235.929C50.6001 235.799 50.3101 235.629 50.0801 235.409L50.3301 234.909C50.8601 235.349 51.4001 235.569 51.9501 235.569C52.3501 235.569 52.6601 235.459 52.8901 235.229C53.1201 234.999 53.2301 234.689 53.2301 234.309C53.2301 233.929 53.1201 233.629 52.8901 233.389C52.6701 233.159 52.3701 233.039 51.9901 233.039C51.4501 233.039 51.0101 233.259 50.6901 233.699H50.2301V230.359H53.6501V230.899H50.8901V232.929C51.2001 232.629 51.6101 232.469 52.1001 232.469C52.4601 232.469 52.7701 232.549 53.0401 232.699V232.719Z" fill="#231815"/>
<path d="M55.9998 235.78C55.5998 235.55 55.2998 235.21 55.0798 234.77C54.8698 234.33 54.7598 233.81 54.7598 233.21C54.7598 232.61 54.8698 232.1 55.0798 231.66C55.2898 231.23 55.5998 230.89 55.9998 230.66C56.3998 230.43 56.8698 230.31 57.3998 230.31C57.7898 230.31 58.1598 230.37 58.4798 230.49C58.8098 230.61 59.0898 230.79 59.3298 231.03L59.0798 231.53C58.8098 231.3 58.5398 231.13 58.2798 231.03C58.0198 230.93 57.7198 230.88 57.3998 230.88C56.7798 230.88 56.2898 231.08 55.9498 231.49C55.6098 231.9 55.4298 232.47 55.4298 233.22C55.4298 233.97 55.5998 234.55 55.9398 234.96C56.2798 235.37 56.7698 235.57 57.3998 235.57C57.7198 235.57 58.0098 235.52 58.2798 235.42C58.5398 235.32 58.8098 235.15 59.0798 234.92L59.3298 235.42C59.0898 235.66 58.8098 235.84 58.4798 235.96C58.1498 236.08 57.7898 236.14 57.3998 236.14C56.8598 236.14 56.3898 236.02 55.9998 235.79V235.78Z" fill="#231815"/>
<path d="M587.52 82.1291H589.79C590.38 82.1291 590.83 82.2691 591.16 82.5491C591.49 82.8291 591.65 83.2191 591.65 83.7191C591.65 84.2191 591.48 84.6091 591.15 84.8891C590.82 85.1791 590.36 85.3191 589.78 85.3191H588.16V87.8191H587.5V82.1191L587.52 82.1291ZM589.74 84.7791C590.16 84.7791 590.48 84.6891 590.69 84.5091C590.9 84.3291 591.01 84.0691 591.01 83.7291C591.01 83.3891 590.9 83.1291 590.69 82.9491C590.48 82.7691 590.16 82.6791 589.74 82.6791H588.18V84.7791H589.74Z" fill="#231815"/>
<path d="M595.86 86.3699H592.88L592.25 87.8299H591.57L594.07 82.1299H594.65L597.15 87.8299H596.48L595.86 86.3699V86.3699ZM595.63 85.8299L594.37 82.8999L593.11 85.8299H595.62H595.63Z" fill="#231815"/>
<path d="M602.57 82.1299V87.8299H602.06L598.62 83.2499V87.8299H598V82.1299H598.5L601.94 86.7099V82.1299H602.56H602.57Z" fill="#231815"/>
<path d="M605.339 82.6899H603.359V82.1299H607.989V82.6899H606.009V87.8299H605.349V82.6899H605.339Z" fill="#231815"/>
<path d="M609.451 87.5393C609.061 87.3093 608.76 86.9693 608.55 86.5293C608.34 86.0893 608.23 85.5693 608.23 84.9793C608.23 84.3893 608.33 83.8593 608.54 83.4293C608.75 82.9893 609.05 82.6593 609.44 82.4193C609.83 82.1893 610.29 82.0693 610.82 82.0693C611.35 82.0693 611.821 82.1893 612.201 82.4193C612.591 82.6593 612.89 82.9893 613.1 83.4293C613.31 83.8693 613.41 84.3793 613.41 84.9693C613.41 85.5593 613.301 86.0893 613.091 86.5193C612.881 86.9493 612.58 87.2893 612.19 87.5293C611.8 87.7693 611.34 87.8893 610.81 87.8893C610.28 87.8893 609.82 87.7693 609.43 87.5393H609.451ZM612.23 86.7193C612.57 86.3093 612.73 85.7293 612.73 84.9793C612.73 84.2293 612.56 83.6493 612.23 83.2393C611.9 82.8293 611.43 82.6293 610.82 82.6293C610.21 82.6293 609.741 82.8293 609.401 83.2393C609.061 83.6493 608.901 84.2293 608.901 84.9693C608.901 85.7093 609.071 86.2993 609.401 86.7093C609.741 87.1193 610.21 87.3293 610.82 87.3293C611.43 87.3293 611.89 87.1193 612.23 86.7093V86.7193Z" fill="#231815"/>
<path d="M619.179 82.1299V87.8299H618.669L615.229 83.2499V87.8299H614.609V82.1299H615.109L618.549 86.7099V82.1299H619.169H619.179Z" fill="#231815"/>
<path d="M620.58 82.1294H624.18V82.6694H621.23V84.6494H624.02V85.1994H621.23V87.2694H624.18V87.8094H620.58V82.1094V82.1294Z" fill="#231815"/>
<path d="M630.869 87.2799V87.8299H627.689V87.2799H628.949V82.9499L627.779 83.6899V83.0599L629.239 82.1299H629.619V87.2699H630.879L630.869 87.2799Z" fill="#231815"/>
<path d="M635.6 85.4296C635.81 85.6796 635.91 85.9796 635.91 86.3196C635.91 86.8096 635.73 87.1896 635.36 87.4696C634.99 87.7496 634.5 87.8896 633.87 87.8896C633.24 87.8896 632.75 87.7496 632.38 87.4696C632.01 87.1896 631.83 86.8096 631.83 86.3196C631.83 85.9696 631.94 85.6696 632.15 85.4196C632.36 85.1696 632.65 84.9996 633.02 84.8996C632.68 84.7996 632.42 84.6296 632.24 84.3996C632.06 84.1696 631.97 83.8896 631.97 83.5796C631.97 83.2696 632.05 83.0096 632.21 82.7796C632.37 82.5496 632.59 82.3796 632.89 82.2496C633.18 82.1296 633.51 82.0596 633.89 82.0596C634.27 82.0596 634.6 82.1196 634.89 82.2496C635.18 82.3796 635.41 82.5496 635.57 82.7796C635.73 83.0096 635.81 83.2696 635.81 83.5796C635.81 83.8896 635.72 84.1696 635.53 84.3996C635.35 84.6296 635.09 84.7996 634.76 84.8996C635.13 84.9996 635.42 85.1796 635.63 85.4196L635.6 85.4296ZM634.9 87.0696C635.14 86.8896 635.26 86.6196 635.26 86.2796C635.26 85.9696 635.13 85.7096 634.88 85.5196C634.63 85.3296 634.29 85.2096 633.87 85.1696C633.45 85.2096 633.11 85.3296 632.86 85.5196C632.61 85.7096 632.48 85.9596 632.48 86.2796C632.48 86.6296 632.6 86.8896 632.84 87.0696C633.08 87.2496 633.42 87.3396 633.87 87.3396C634.32 87.3396 634.66 87.2496 634.9 87.0696ZM632.95 84.3696C633.18 84.5596 633.48 84.6796 633.87 84.7196C634.25 84.6796 634.56 84.5596 634.79 84.3696C635.02 84.1796 635.13 83.9296 635.13 83.6296C635.13 83.3296 635.02 83.0696 634.8 82.8896C634.58 82.7096 634.27 82.6196 633.88 82.6196C633.49 82.6196 633.18 82.7096 632.96 82.8896C632.74 83.0696 632.63 83.3196 632.63 83.6296C632.63 83.9396 632.74 84.1796 632.97 84.3696H632.95Z" fill="#231815"/>
<path d="M639.851 84.4791C640.121 84.6291 640.331 84.8391 640.471 85.1191C640.611 85.3891 640.691 85.7091 640.691 86.0591C640.691 86.4091 640.611 86.7291 640.451 87.0091C640.291 87.2891 640.071 87.4991 639.781 87.6491C639.491 87.7991 639.151 87.8791 638.761 87.8791C638.411 87.8791 638.071 87.8191 637.741 87.6891C637.411 87.5591 637.121 87.3891 636.891 87.1691L637.141 86.6691C637.671 87.1091 638.211 87.3291 638.761 87.3291C639.161 87.3291 639.471 87.2191 639.701 86.9891C639.931 86.7591 640.041 86.4491 640.041 86.0691C640.041 85.6891 639.931 85.3891 639.701 85.1491C639.481 84.9191 639.181 84.7991 638.801 84.7991C638.261 84.7991 637.821 85.0191 637.501 85.4591H637.041V82.1191H640.461V82.6591H637.701V84.6891C638.011 84.3891 638.421 84.2291 638.911 84.2291C639.271 84.2291 639.581 84.3091 639.851 84.4591V84.4791Z" fill="#231815"/>
<path d="M642.801 87.5393C642.401 87.3093 642.101 86.9693 641.881 86.5293C641.671 86.0893 641.561 85.5693 641.561 84.9693C641.561 84.3693 641.671 83.8593 641.881 83.4193C642.091 82.9893 642.401 82.6493 642.801 82.4193C643.201 82.1893 643.671 82.0693 644.201 82.0693C644.591 82.0693 644.961 82.1293 645.281 82.2493C645.601 82.3693 645.891 82.5493 646.131 82.7893L645.881 83.2893C645.611 83.0593 645.341 82.8893 645.081 82.7893C644.821 82.6893 644.521 82.6393 644.201 82.6393C643.581 82.6393 643.091 82.8393 642.751 83.2493C642.411 83.6593 642.231 84.2293 642.231 84.9793C642.231 85.7293 642.401 86.3093 642.741 86.7193C643.081 87.1293 643.571 87.3293 644.201 87.3293C644.521 87.3293 644.811 87.2793 645.081 87.1793C645.341 87.0793 645.611 86.9093 645.881 86.6793L646.131 87.1793C645.891 87.4193 645.611 87.5993 645.281 87.7193C644.951 87.8393 644.591 87.8993 644.201 87.8993C643.661 87.8993 643.191 87.7793 642.801 87.5493V87.5393Z" fill="#231815"/>
<path d="M71.5493 82.1301H73.8193C74.4093 82.1301 74.8593 82.2701 75.1893 82.5501C75.5193 82.8301 75.6793 83.2201 75.6793 83.7201C75.6793 84.2201 75.5093 84.6101 75.1793 84.8901C74.8493 85.1801 74.3893 85.3201 73.8093 85.3201H72.1893V87.8201H71.5293V82.1201L71.5493 82.1301ZM73.7693 84.7801C74.1893 84.7801 74.5093 84.6901 74.7193 84.5101C74.9293 84.3301 75.0393 84.0701 75.0393 83.7301C75.0393 83.3901 74.9293 83.1301 74.7193 82.9501C74.5093 82.7701 74.1893 82.6801 73.7693 82.6801H72.2093V84.7801H73.7693Z" fill="#231815"/>
<path d="M79.8896 86.3699H76.9096L76.2796 87.8299H75.5996L78.0996 82.1299H78.6796L81.1796 87.8299H80.5096L79.8896 86.3699V86.3699ZM79.6596 85.8299L78.3996 82.8999L77.1396 85.8299H79.6496H79.6596Z" fill="#231815"/>
<path d="M86.5993 82.1299V87.8299H86.0893L82.6493 83.2499V87.8299H82.0293V82.1299H82.5293L85.9693 86.7099V82.1299H86.5893H86.5993Z" fill="#231815"/>
<path d="M89.3784 82.6899H87.3984V82.1299H92.0284V82.6899H90.0484V87.8299H89.3884V82.6899H89.3784Z" fill="#231815"/>
<path d="M93.4895 87.5403C93.0995 87.3103 92.7995 86.9703 92.5895 86.5303C92.3795 86.0903 92.2695 85.5703 92.2695 84.9803C92.2695 84.3903 92.3695 83.8603 92.5795 83.4303C92.7895 82.9903 93.0895 82.6603 93.4795 82.4203C93.8695 82.1903 94.3295 82.0703 94.8595 82.0703C95.3895 82.0703 95.8595 82.1903 96.2395 82.4203C96.6295 82.6603 96.9295 82.9903 97.1395 83.4303C97.3495 83.8703 97.4495 84.3803 97.4495 84.9703C97.4495 85.5603 97.3395 86.0903 97.1295 86.5203C96.9195 86.9503 96.6195 87.2903 96.2295 87.5303C95.8395 87.7703 95.3795 87.8903 94.8495 87.8903C94.3195 87.8903 93.8595 87.7703 93.4695 87.5403H93.4895ZM96.2695 86.7203C96.6095 86.3103 96.7695 85.7303 96.7695 84.9803C96.7695 84.2303 96.5995 83.6503 96.2695 83.2403C95.9395 82.8303 95.4695 82.6303 94.8595 82.6303C94.2495 82.6303 93.7795 82.8303 93.4395 83.2403C93.0995 83.6503 92.9395 84.2303 92.9395 84.9703C92.9395 85.7103 93.1095 86.3003 93.4395 86.7103C93.7795 87.1203 94.2495 87.3303 94.8595 87.3303C95.4695 87.3303 95.9295 87.1203 96.2695 86.7103V86.7203Z" fill="#231815"/>
<path d="M103.218 82.1299V87.8299H102.708L99.2684 83.2499V87.8299H98.6484V82.1299H99.1484L102.588 86.7099V82.1299H103.208H103.218Z" fill="#231815"/>
<path d="M104.619 82.1303H108.219V82.6703H105.269V84.6504H108.059V85.2003H105.269V87.2703H108.219V87.8103H104.619V82.1104V82.1303Z" fill="#231815"/>
<path d="M115.039 87.2801V87.8301H111.379V87.3301L113.369 85.1201C113.639 84.8201 113.829 84.5501 113.949 84.3101C114.069 84.0701 114.129 83.8301 114.129 83.5901C114.129 83.2801 114.039 83.0301 113.859 82.8701C113.679 82.7001 113.419 82.6201 113.079 82.6201C112.539 82.6201 111.999 82.8401 111.459 83.2801L111.209 82.7801C111.429 82.5701 111.719 82.4001 112.059 82.2701C112.399 82.1401 112.749 82.0801 113.089 82.0801C113.609 82.0801 114.029 82.2101 114.329 82.4801C114.629 82.7501 114.789 83.1101 114.789 83.5701C114.789 83.9001 114.719 84.2101 114.569 84.5101C114.419 84.8101 114.179 85.1501 113.839 85.5201L112.219 87.2801H115.039V87.2801Z" fill="#231815"/>
<path d="M119.328 82.7901C119.698 83.2701 119.888 83.9501 119.888 84.8401C119.888 85.8101 119.698 86.5601 119.308 87.0901C118.918 87.6201 118.378 87.8901 117.688 87.8901C117.358 87.8901 117.048 87.8301 116.728 87.7101C116.418 87.5901 116.138 87.4101 115.898 87.1901L116.158 86.6901C116.428 86.9201 116.688 87.0901 116.938 87.1901C117.188 87.2901 117.428 87.3501 117.678 87.3501C118.168 87.3501 118.548 87.1301 118.818 86.6901C119.088 86.2501 119.218 85.6401 119.218 84.8501V84.7501C119.098 85.0501 118.898 85.2801 118.618 85.4601C118.338 85.6301 118.028 85.7201 117.668 85.7201C117.308 85.7201 117.018 85.6401 116.748 85.4901C116.478 85.3401 116.278 85.1201 116.128 84.8501C115.978 84.5801 115.908 84.2601 115.908 83.9101C115.908 83.5601 115.988 83.2401 116.148 82.9701C116.308 82.7001 116.528 82.4801 116.798 82.3201C117.078 82.1601 117.388 82.0801 117.738 82.0801C118.428 82.0801 118.958 82.3201 119.328 82.8001V82.7901ZM118.688 84.8101C118.928 84.5801 119.038 84.2701 119.038 83.9001C119.038 83.5301 118.918 83.2101 118.688 82.9801C118.458 82.7501 118.148 82.6301 117.768 82.6301C117.388 82.6301 117.108 82.7501 116.888 82.9801C116.668 83.2101 116.548 83.5201 116.548 83.9001C116.548 84.2801 116.658 84.5801 116.888 84.8201C117.108 85.0501 117.408 85.1701 117.778 85.1701C118.148 85.1701 118.458 85.0501 118.688 84.8201V84.8101Z" fill="#231815"/>
<path d="M124.639 87.2801V87.8301H120.979V87.3301L122.969 85.1201C123.239 84.8201 123.429 84.5501 123.549 84.3101C123.669 84.0701 123.729 83.8301 123.729 83.5901C123.729 83.2801 123.639 83.0301 123.459 82.8701C123.279 82.7001 123.019 82.6201 122.679 82.6201C122.139 82.6201 121.599 82.8401 121.059 83.2801L120.809 82.7801C121.029 82.5701 121.319 82.4001 121.659 82.2701C121.999 82.1401 122.349 82.0801 122.689 82.0801C123.209 82.0801 123.629 82.2101 123.929 82.4801C124.229 82.7501 124.389 83.1101 124.389 83.5701C124.389 83.9001 124.319 84.2101 124.169 84.5101C124.019 84.8101 123.779 85.1501 123.439 85.5201L121.819 87.2801H124.639V87.2801Z" fill="#231815"/>
<path d="M128.689 84.4801C128.959 84.6301 129.169 84.8401 129.309 85.1201C129.449 85.3901 129.529 85.7101 129.529 86.0601C129.529 86.4101 129.449 86.7301 129.289 87.0101C129.129 87.2901 128.909 87.5001 128.619 87.6501C128.329 87.8001 127.989 87.8801 127.599 87.8801C127.249 87.8801 126.909 87.8201 126.579 87.6901C126.249 87.5601 125.959 87.3901 125.729 87.1701L125.979 86.6701C126.509 87.1101 127.049 87.3301 127.599 87.3301C127.999 87.3301 128.309 87.2201 128.539 86.9901C128.769 86.7601 128.879 86.4501 128.879 86.0701C128.879 85.6901 128.769 85.3901 128.539 85.1501C128.319 84.9201 128.019 84.8001 127.639 84.8001C127.099 84.8001 126.659 85.0201 126.339 85.4601H125.879V82.1201H129.299V82.6601H126.539V84.6901C126.849 84.3901 127.259 84.2301 127.749 84.2301C128.109 84.2301 128.419 84.3101 128.689 84.4601V84.4801Z" fill="#231815"/>
<path d="M131.15 87.3206C130.77 86.9306 130.58 86.3606 130.58 85.6006V82.1406H131.23V85.6606C131.23 86.2106 131.37 86.6306 131.64 86.9206C131.91 87.2006 132.31 87.3406 132.85 87.3406C133.39 87.3406 133.78 87.2006 134.05 86.9206C134.32 86.6406 134.45 86.2206 134.45 85.6606V82.1406H135.11V85.6006C135.11 86.3506 134.92 86.9206 134.53 87.3106C134.15 87.7006 133.59 87.8906 132.85 87.8906C132.11 87.8906 131.54 87.7006 131.16 87.3106L131.15 87.3206Z" fill="#231815"/>
<path d="M466.19 87.2799V87.8299H463.01V87.2799H464.27V82.9499L463.1 83.6899V83.0599L464.56 82.1299H464.94V87.2699H466.2L466.19 87.2799Z" fill="#231815"/>
<path d="M467.709 87.1503C467.369 86.6603 467.199 85.9303 467.199 84.9803C467.199 84.0303 467.369 83.3003 467.709 82.8103C468.049 82.3203 468.539 82.0703 469.189 82.0703C469.839 82.0703 470.339 82.3203 470.669 82.8103C471.009 83.3003 471.179 84.0203 471.179 84.9703C471.179 85.9203 471.009 86.6503 470.669 87.1503C470.329 87.6503 469.839 87.8903 469.189 87.8903C468.539 87.8903 468.039 87.6403 467.709 87.1503ZM470.199 86.7603C470.419 86.3803 470.519 85.7803 470.519 84.9703C470.519 84.1603 470.409 83.5703 470.199 83.1903C469.989 82.8103 469.649 82.6203 469.189 82.6203C468.729 82.6203 468.399 82.8103 468.189 83.1903C467.979 83.5703 467.869 84.1603 467.869 84.9703C467.869 85.7803 467.979 86.3703 468.189 86.7603C468.399 87.1503 468.739 87.3403 469.189 87.3403C469.639 87.3403 469.979 87.1503 470.189 86.7603H470.199Z" fill="#231815"/>
<path d="M472.51 87.1503C472.17 86.6603 472 85.9303 472 84.9803C472 84.0303 472.17 83.3003 472.51 82.8103C472.85 82.3203 473.34 82.0703 473.99 82.0703C474.64 82.0703 475.14 82.3203 475.47 82.8103C475.81 83.3003 475.98 84.0203 475.98 84.9703C475.98 85.9203 475.81 86.6503 475.47 87.1503C475.13 87.6503 474.64 87.8903 473.99 87.8903C473.34 87.8903 472.84 87.6403 472.51 87.1503ZM475 86.7603C475.22 86.3803 475.32 85.7803 475.32 84.9703C475.32 84.1603 475.21 83.5703 475 83.1903C474.79 82.8103 474.45 82.6203 473.99 82.6203C473.53 82.6203 473.2 82.8103 472.99 83.1903C472.78 83.5703 472.67 84.1603 472.67 84.9703C472.67 85.7803 472.78 86.3703 472.99 86.7603C473.2 87.1503 473.54 87.3403 473.99 87.3403C474.44 87.3403 474.78 87.1503 474.99 86.7603H475Z" fill="#231815"/>
<path d="M478.119 87.5403C477.719 87.3103 477.419 86.9703 477.199 86.5303C476.989 86.0903 476.879 85.5703 476.879 84.9703C476.879 84.3703 476.989 83.8603 477.199 83.4203C477.409 82.9903 477.719 82.6503 478.119 82.4203C478.519 82.1903 478.989 82.0703 479.519 82.0703C479.909 82.0703 480.279 82.1303 480.599 82.2503C480.929 82.3703 481.209 82.5503 481.449 82.7903L481.199 83.2903C480.929 83.0603 480.659 82.8903 480.399 82.7903C480.139 82.6903 479.839 82.6403 479.519 82.6403C478.899 82.6403 478.409 82.8403 478.069 83.2503C477.729 83.6603 477.549 84.2303 477.549 84.9803C477.549 85.7303 477.719 86.3103 478.059 86.7203C478.399 87.1303 478.889 87.3303 479.519 87.3303C479.839 87.3303 480.129 87.2803 480.399 87.1803C480.659 87.0803 480.929 86.9103 481.199 86.6803L481.449 87.1803C481.209 87.4203 480.929 87.6003 480.599 87.7203C480.269 87.8403 479.909 87.9003 479.519 87.9003C478.979 87.9003 478.509 87.7803 478.119 87.5503V87.5403Z" fill="#231815"/>
<path d="M492.079 85.3998C492.259 85.6298 492.339 85.9298 492.339 86.2898C492.339 86.7898 492.169 87.1798 491.839 87.4598C491.509 87.7398 491.049 87.8898 490.469 87.8898C490.099 87.8898 489.749 87.8298 489.409 87.7098C489.069 87.5898 488.789 87.4098 488.549 87.1898L488.809 86.6898C489.339 87.1298 489.889 87.3498 490.459 87.3498C490.869 87.3498 491.169 87.2598 491.379 87.0798C491.589 86.8998 491.699 86.6298 491.699 86.2798C491.699 85.5798 491.259 85.2299 490.389 85.2299H489.729V84.6798H490.259C490.679 84.6798 490.999 84.5898 491.229 84.3998C491.449 84.2098 491.569 83.9498 491.569 83.5998C491.569 83.2898 491.479 83.0498 491.289 82.8898C491.099 82.7298 490.849 82.6398 490.509 82.6398C489.969 82.6398 489.429 82.8599 488.889 83.2999L488.639 82.7999C488.869 82.5799 489.149 82.4098 489.479 82.2798C489.809 82.1598 490.159 82.0898 490.519 82.0898C491.029 82.0898 491.439 82.2199 491.749 82.4799C492.059 82.7399 492.209 83.0898 492.209 83.5398C492.209 83.8698 492.129 84.1498 491.969 84.3998C491.809 84.6498 491.589 84.8198 491.309 84.9298C491.649 85.0298 491.899 85.1898 492.079 85.4298V85.3998Z" fill="#231815"/>
<path d="M493.84 87.1503C493.5 86.6603 493.33 85.9303 493.33 84.9803C493.33 84.0303 493.5 83.3003 493.84 82.8103C494.18 82.3203 494.67 82.0703 495.32 82.0703C495.97 82.0703 496.47 82.3203 496.8 82.8103C497.14 83.3003 497.31 84.0203 497.31 84.9703C497.31 85.9203 497.14 86.6503 496.8 87.1503C496.46 87.6503 495.97 87.8903 495.32 87.8903C494.67 87.8903 494.17 87.6403 493.84 87.1503ZM496.33 86.7603C496.55 86.3803 496.65 85.7803 496.65 84.9703C496.65 84.1603 496.54 83.5703 496.33 83.1903C496.12 82.8103 495.78 82.6203 495.32 82.6203C494.86 82.6203 494.53 82.8103 494.32 83.1903C494.11 83.5703 494 84.1603 494 84.9703C494 85.7803 494.11 86.3703 494.32 86.7603C494.53 87.1503 494.87 87.3403 495.32 87.3403C495.77 87.3403 496.11 87.1503 496.32 86.7603H496.33Z" fill="#231815"/>
<path d="M503.819 82.1299V87.8299H503.209V83.5999L501.359 87.8299H500.899L499.039 83.6299V87.8299H498.439V82.1299H498.979L501.139 87.0399L503.279 82.1299H503.819Z" fill="#231815"/>
<path d="M466.19 97.2799V97.8299H463.01V97.2799H464.27V92.9499L463.1 93.6899V93.0599L464.56 92.1299H464.94V97.2699H466.2L466.19 97.2799Z" fill="#231815"/>
<path d="M467.709 97.1503C467.369 96.6603 467.199 95.9303 467.199 94.9803C467.199 94.0303 467.369 93.3003 467.709 92.8103C468.049 92.3203 468.539 92.0703 469.189 92.0703C469.839 92.0703 470.339 92.3203 470.669 92.8103C471.009 93.3003 471.179 94.0203 471.179 94.9703C471.179 95.9203 471.009 96.6503 470.669 97.1503C470.329 97.6503 469.839 97.8903 469.189 97.8903C468.539 97.8903 468.039 97.6403 467.709 97.1503ZM470.199 96.7603C470.419 96.3803 470.519 95.7803 470.519 94.9703C470.519 94.1603 470.409 93.5703 470.199 93.1903C469.989 92.8103 469.649 92.6203 469.189 92.6203C468.729 92.6203 468.399 92.8103 468.189 93.1903C467.979 93.5703 467.869 94.1603 467.869 94.9703C467.869 95.7803 467.979 96.3703 468.189 96.7603C468.399 97.1503 468.739 97.3403 469.189 97.3403C469.639 97.3403 469.979 97.1503 470.189 96.7603H470.199Z" fill="#231815"/>
<path d="M472.51 97.1503C472.17 96.6603 472 95.9303 472 94.9803C472 94.0303 472.17 93.3003 472.51 92.8103C472.85 92.3203 473.34 92.0703 473.99 92.0703C474.64 92.0703 475.14 92.3203 475.47 92.8103C475.81 93.3003 475.98 94.0203 475.98 94.9703C475.98 95.9203 475.81 96.6503 475.47 97.1503C475.13 97.6503 474.64 97.8903 473.99 97.8903C473.34 97.8903 472.84 97.6403 472.51 97.1503ZM475 96.7603C475.22 96.3803 475.32 95.7803 475.32 94.9703C475.32 94.1603 475.21 93.5703 475 93.1903C474.79 92.8103 474.45 92.6203 473.99 92.6203C473.53 92.6203 473.2 92.8103 472.99 93.1903C472.78 93.5703 472.67 94.1603 472.67 94.9703C472.67 95.7803 472.78 96.3703 472.99 96.7603C473.2 97.1503 473.54 97.3403 473.99 97.3403C474.44 97.3403 474.78 97.1503 474.99 96.7603H475Z" fill="#231815"/>
<path d="M479.14 95.5306V97.8306H478.48V95.5206L476.24 92.1406H477.01L478.82 94.9406L480.63 92.1406H481.38L479.14 95.5306V95.5306Z" fill="#231815"/>
<path d="M491.809 97.8299L488.869 95.1199V97.8299H488.209V92.1299H488.869V94.7499L491.669 92.1299H492.509L489.529 94.9099L492.659 97.8299H491.799H491.809Z" fill="#231815"/>
<path d="M496.54 95.3998C496.72 95.6298 496.8 95.9298 496.8 96.2898C496.8 96.7898 496.63 97.1798 496.3 97.4598C495.97 97.7398 495.51 97.8898 494.93 97.8898C494.56 97.8898 494.21 97.8298 493.87 97.7098C493.53 97.5898 493.25 97.4098 493.01 97.1898L493.27 96.6898C493.8 97.1298 494.35 97.3498 494.92 97.3498C495.33 97.3498 495.63 97.2598 495.84 97.0798C496.05 96.8998 496.16 96.6298 496.16 96.2798C496.16 95.5798 495.72 95.2299 494.85 95.2299H494.19V94.6798H494.72C495.14 94.6798 495.46 94.5898 495.69 94.3998C495.91 94.2098 496.03 93.9498 496.03 93.5998C496.03 93.2898 495.94 93.0498 495.75 92.8898C495.56 92.7298 495.31 92.6398 494.97 92.6398C494.43 92.6398 493.89 92.8599 493.35 93.2999L493.1 92.7999C493.33 92.5799 493.61 92.4098 493.94 92.2798C494.27 92.1598 494.62 92.0898 494.98 92.0898C495.49 92.0898 495.9 92.2199 496.21 92.4799C496.52 92.7399 496.67 93.0898 496.67 93.5398C496.67 93.8698 496.59 94.1498 496.43 94.3998C496.27 94.6498 496.05 94.8198 495.77 94.9298C496.11 95.0298 496.36 95.1898 496.54 95.4298V95.3998Z" fill="#231815"/>
<path d="M498.299 97.1503C497.959 96.6603 497.789 95.9303 497.789 94.9803C497.789 94.0303 497.959 93.3003 498.299 92.8103C498.639 92.3203 499.129 92.0703 499.779 92.0703C500.429 92.0703 500.929 92.3203 501.259 92.8103C501.599 93.3003 501.769 94.0203 501.769 94.9703C501.769 95.9203 501.599 96.6503 501.259 97.1503C500.919 97.6503 500.429 97.8903 499.779 97.8903C499.129 97.8903 498.629 97.6403 498.299 97.1503ZM500.789 96.7603C501.009 96.3803 501.109 95.7803 501.109 94.9703C501.109 94.1603 500.999 93.5703 500.789 93.1903C500.579 92.8103 500.239 92.6203 499.779 92.6203C499.319 92.6203 498.989 92.8103 498.779 93.1903C498.569 93.5703 498.459 94.1603 498.459 94.9703C498.459 95.7803 498.569 96.3703 498.779 96.7603C498.989 97.1503 499.329 97.3403 499.779 97.3403C500.229 97.3403 500.569 97.1503 500.779 96.7603H500.789Z" fill="#231815"/>
<path d="M270.27 85.3998C270.45 85.6298 270.53 85.9298 270.53 86.2898C270.53 86.7898 270.36 87.1798 270.03 87.4598C269.7 87.7398 269.24 87.8898 268.66 87.8898C268.29 87.8898 267.94 87.8298 267.6 87.7098C267.26 87.5898 266.98 87.4098 266.74 87.1898L267 86.6898C267.53 87.1298 268.08 87.3498 268.65 87.3498C269.06 87.3498 269.36 87.2598 269.57 87.0798C269.78 86.8998 269.89 86.6298 269.89 86.2798C269.89 85.5798 269.45 85.2299 268.58 85.2299H267.92V84.6798H268.45C268.87 84.6798 269.19 84.5898 269.42 84.3998C269.64 84.2098 269.76 83.9498 269.76 83.5998C269.76 83.2898 269.67 83.0498 269.48 82.8898C269.29 82.7298 269.04 82.6398 268.7 82.6398C268.16 82.6398 267.62 82.8599 267.08 83.2999L266.83 82.7999C267.06 82.5799 267.34 82.4098 267.67 82.2798C268 82.1598 268.35 82.0898 268.71 82.0898C269.22 82.0898 269.63 82.2199 269.94 82.4799C270.25 82.7399 270.4 83.0898 270.4 83.5398C270.4 83.8698 270.32 84.1498 270.16 84.3998C270 84.6498 269.78 84.8198 269.5 84.9298C269.84 85.0298 270.09 85.1898 270.27 85.4298V85.3998Z" fill="#231815"/>
<path d="M272.039 87.1493C271.699 86.6593 271.529 85.9293 271.529 84.9793C271.529 84.0293 271.699 83.2993 272.039 82.8093C272.379 82.3193 272.869 82.0693 273.519 82.0693C274.169 82.0693 274.669 82.3193 274.999 82.8093C275.339 83.2993 275.509 84.0193 275.509 84.9693C275.509 85.9193 275.339 86.6493 274.999 87.1493C274.659 87.6493 274.169 87.8893 273.519 87.8893C272.869 87.8893 272.369 87.6393 272.039 87.1493ZM274.529 86.7593C274.749 86.3793 274.849 85.7793 274.849 84.9693C274.849 84.1593 274.739 83.5693 274.529 83.1893C274.319 82.8093 273.979 82.6193 273.519 82.6193C273.059 82.6193 272.729 82.8093 272.519 83.1893C272.309 83.5693 272.199 84.1593 272.199 84.9693C272.199 85.7793 272.309 86.3693 272.519 86.7593C272.729 87.1493 273.069 87.3393 273.519 87.3393C273.969 87.3393 274.309 87.1493 274.519 86.7593H274.529Z" fill="#231815"/>
<path d="M277.65 87.5393C277.25 87.3093 276.95 86.9693 276.73 86.5293C276.52 86.0893 276.41 85.5693 276.41 84.9693C276.41 84.3693 276.52 83.8593 276.73 83.4193C276.94 82.9893 277.25 82.6493 277.65 82.4193C278.05 82.1893 278.52 82.0693 279.05 82.0693C279.44 82.0693 279.81 82.1293 280.13 82.2493C280.45 82.3693 280.74 82.5493 280.98 82.7893L280.73 83.2893C280.46 83.0593 280.19 82.8893 279.93 82.7893C279.67 82.6893 279.37 82.6393 279.05 82.6393C278.43 82.6393 277.94 82.8393 277.6 83.2493C277.26 83.6593 277.08 84.2293 277.08 84.9793C277.08 85.7293 277.25 86.3093 277.59 86.7193C277.93 87.1293 278.42 87.3293 279.05 87.3293C279.37 87.3293 279.66 87.2793 279.93 87.1793C280.19 87.0793 280.46 86.9093 280.73 86.6793L280.98 87.1793C280.74 87.4193 280.46 87.5993 280.13 87.7193C279.8 87.8393 279.44 87.8993 279.05 87.8993C278.51 87.8993 278.04 87.7793 277.65 87.5493V87.5393Z" fill="#231815"/>
<path d="M291.22 84.4796C291.49 84.6296 291.7 84.8496 291.85 85.1196C292 85.3896 292.07 85.7096 292.07 86.0596C292.07 86.4096 291.99 86.7296 291.83 86.9996C291.67 87.2696 291.45 87.4996 291.18 87.6496C290.91 87.7996 290.59 87.8896 290.24 87.8896C289.55 87.8896 289.02 87.6496 288.65 87.1696C288.28 86.6896 288.09 86.0096 288.09 85.1196C288.09 84.4796 288.18 83.9296 288.35 83.4696C288.52 83.0096 288.77 82.6596 289.1 82.4196C289.43 82.1796 289.82 82.0596 290.28 82.0596C290.61 82.0596 290.93 82.1196 291.24 82.2396C291.55 82.3596 291.82 82.5396 292.06 82.7596L291.81 83.2596C291.54 83.0396 291.29 82.8696 291.04 82.7596C290.79 82.6496 290.54 82.5996 290.29 82.5996C289.8 82.5996 289.42 82.8196 289.15 83.2596C288.88 83.6996 288.74 84.3096 288.74 85.0996V85.2196C288.86 84.9196 289.06 84.6796 289.34 84.4996C289.62 84.3196 289.93 84.2396 290.29 84.2396C290.65 84.2396 290.94 84.3196 291.21 84.4696L291.22 84.4796ZM291.09 86.9896C291.31 86.7596 291.43 86.4496 291.43 86.0696C291.43 85.6896 291.32 85.3896 291.09 85.1496C290.86 84.9196 290.57 84.7996 290.21 84.7996C289.85 84.7996 289.53 84.9196 289.3 85.1496C289.07 85.3796 288.95 85.6896 288.95 86.0596C288.95 86.4296 289.07 86.7496 289.3 86.9796C289.53 87.2096 289.84 87.3296 290.22 87.3296C290.6 87.3296 290.88 87.2096 291.1 86.9796L291.09 86.9896Z" fill="#231815"/>
<path d="M293.369 87.1493C293.029 86.6593 292.859 85.9293 292.859 84.9793C292.859 84.0293 293.029 83.2993 293.369 82.8093C293.709 82.3193 294.199 82.0693 294.849 82.0693C295.499 82.0693 295.999 82.3193 296.329 82.8093C296.669 83.2993 296.839 84.0193 296.839 84.9693C296.839 85.9193 296.669 86.6493 296.329 87.1493C295.989 87.6493 295.499 87.8893 294.849 87.8893C294.199 87.8893 293.699 87.6393 293.369 87.1493ZM295.859 86.7593C296.079 86.3793 296.179 85.7793 296.179 84.9693C296.179 84.1593 296.069 83.5693 295.859 83.1893C295.649 82.8093 295.309 82.6193 294.849 82.6193C294.389 82.6193 294.059 82.8093 293.849 83.1893C293.639 83.5693 293.529 84.1593 293.529 84.9693C293.529 85.7793 293.639 86.3693 293.849 86.7593C294.059 87.1493 294.399 87.3393 294.849 87.3393C295.299 87.3393 295.639 87.1493 295.849 86.7593H295.859Z" fill="#231815"/>
<path d="M303.341 82.1299V87.8299H302.731V83.5999L300.881 87.8299H300.421L298.561 83.6299V87.8299H297.961V82.1299H298.501L300.661 87.0399L302.801 82.1299H303.341Z" fill="#231815"/>
<path d="M270.52 97.2799V97.8299H267.34V97.2799H268.6V92.9499L267.43 93.6899V93.0599L268.89 92.1299H269.27V97.2699H270.53L270.52 97.2799Z" fill="#231815"/>
<path d="M272.039 97.1503C271.699 96.6603 271.529 95.9303 271.529 94.9803C271.529 94.0303 271.699 93.3003 272.039 92.8103C272.379 92.3203 272.869 92.0703 273.519 92.0703C274.169 92.0703 274.669 92.3203 274.999 92.8103C275.339 93.3003 275.509 94.0203 275.509 94.9703C275.509 95.9203 275.339 96.6503 274.999 97.1503C274.659 97.6503 274.169 97.8903 273.519 97.8903C272.869 97.8903 272.369 97.6403 272.039 97.1503ZM274.529 96.7603C274.749 96.3803 274.849 95.7803 274.849 94.9703C274.849 94.1603 274.739 93.5703 274.529 93.1903C274.319 92.8103 273.979 92.6203 273.519 92.6203C273.059 92.6203 272.729 92.8103 272.519 93.1903C272.309 93.5703 272.199 94.1603 272.199 94.9703C272.199 95.7803 272.309 96.3703 272.519 96.7603C272.729 97.1503 273.069 97.3403 273.519 97.3403C273.969 97.3403 274.309 97.1503 274.519 96.7603H274.529Z" fill="#231815"/>
<path d="M276.84 97.1503C276.5 96.6603 276.33 95.9303 276.33 94.9803C276.33 94.0303 276.5 93.3003 276.84 92.8103C277.18 92.3203 277.67 92.0703 278.32 92.0703C278.97 92.0703 279.47 92.3203 279.8 92.8103C280.14 93.3003 280.31 94.0203 280.31 94.9703C280.31 95.9203 280.14 96.6503 279.8 97.1503C279.46 97.6503 278.97 97.8903 278.32 97.8903C277.67 97.8903 277.17 97.6403 276.84 97.1503ZM279.33 96.7603C279.55 96.3803 279.65 95.7803 279.65 94.9703C279.65 94.1603 279.54 93.5703 279.33 93.1903C279.12 92.8103 278.78 92.6203 278.32 92.6203C277.86 92.6203 277.53 92.8103 277.32 93.1903C277.11 93.5703 277 94.1603 277 94.9703C277 95.7803 277.11 96.3703 277.32 96.7603C277.53 97.1503 277.87 97.3403 278.32 97.3403C278.77 97.3403 279.11 97.1503 279.32 96.7603H279.33Z" fill="#231815"/>
<path d="M283.47 95.5306V97.8306H282.81V95.5206L280.57 92.1406H281.34L283.15 94.9406L284.96 92.1406H285.71L283.47 95.5306V95.5306Z" fill="#231815"/>
<path d="M296.129 97.8299L293.189 95.1199V97.8299H292.529V92.1299H293.189V94.7499L295.989 92.1299H296.829L293.849 94.9099L296.979 97.8299H296.119H296.129Z" fill="#231815"/>
<path d="M301.24 97.2801V97.8301H297.58V97.3301L299.57 95.1201C299.84 94.8201 300.03 94.5501 300.15 94.3101C300.27 94.0701 300.33 93.8301 300.33 93.5901C300.33 93.2801 300.24 93.0301 300.06 92.8701C299.88 92.7001 299.62 92.6201 299.28 92.6201C298.74 92.6201 298.2 92.8401 297.66 93.2801L297.41 92.7801C297.63 92.5701 297.92 92.4001 298.26 92.2701C298.6 92.1401 298.95 92.0801 299.29 92.0801C299.81 92.0801 300.23 92.2101 300.53 92.4801C300.83 92.7501 300.99 93.1101 300.99 93.5701C300.99 93.9001 300.92 94.2101 300.77 94.5101C300.62 94.8101 300.38 95.1501 300.04 95.5201L298.42 97.2801H301.24V97.2801Z" fill="#231815"/>
<path d="M302.629 97.1503C302.289 96.6603 302.119 95.9303 302.119 94.9803C302.119 94.0303 302.289 93.3003 302.629 92.8103C302.969 92.3203 303.459 92.0703 304.109 92.0703C304.759 92.0703 305.259 92.3203 305.589 92.8103C305.929 93.3003 306.099 94.0203 306.099 94.9703C306.099 95.9203 305.929 96.6503 305.589 97.1503C305.249 97.6503 304.759 97.8903 304.109 97.8903C303.459 97.8903 302.959 97.6403 302.629 97.1503ZM305.119 96.7603C305.339 96.3803 305.439 95.7803 305.439 94.9703C305.439 94.1603 305.329 93.5703 305.119 93.1903C304.909 92.8103 304.569 92.6203 304.109 92.6203C303.649 92.6203 303.319 92.8103 303.109 93.1903C302.899 93.5703 302.789 94.1603 302.789 94.9703C302.789 95.7803 302.899 96.3703 303.109 96.7603C303.319 97.1503 303.659 97.3403 304.109 97.3403C304.559 97.3403 304.899 97.1503 305.109 96.7603H305.119Z" fill="#231815"/>
<path d="M71.5493 230.369H73.8193C74.4093 230.369 74.8593 230.509 75.1893 230.789C75.5193 231.069 75.6793 231.459 75.6793 231.959C75.6793 232.459 75.5093 232.849 75.1793 233.129C74.8493 233.419 74.3893 233.559 73.8093 233.559H72.1893V236.059H71.5293V230.359L71.5493 230.369ZM73.7693 233.019C74.1893 233.019 74.5093 232.929 74.7193 232.749C74.9293 232.569 75.0393 232.309 75.0393 231.969C75.0393 231.629 74.9293 231.369 74.7193 231.189C74.5093 231.009 74.1893 230.919 73.7693 230.919H72.2093V233.019H73.7693V233.019Z" fill="#231815"/>
<path d="M79.8896 234.609H76.9096L76.2796 236.069H75.5996L78.0996 230.369H78.6796L81.1796 236.069H80.5096L79.8896 234.609V234.609ZM79.6596 234.069L78.3996 231.139L77.1396 234.069H79.6496H79.6596Z" fill="#231815"/>
<path d="M86.5993 230.369V236.069H86.0893L82.6493 231.489V236.069H82.0293V230.369H82.5293L85.9693 234.949V230.369H86.5893H86.5993Z" fill="#231815"/>
<path d="M89.3784 230.929H87.3984V230.369H92.0284V230.929H90.0484V236.069H89.3884V230.929H89.3784Z" fill="#231815"/>
<path d="M93.4895 235.78C93.0995 235.55 92.7995 235.21 92.5895 234.77C92.3795 234.33 92.2695 233.81 92.2695 233.22C92.2695 232.63 92.3695 232.1 92.5795 231.67C92.7895 231.23 93.0895 230.9 93.4795 230.66C93.8695 230.43 94.3295 230.31 94.8595 230.31C95.3895 230.31 95.8595 230.43 96.2395 230.66C96.6295 230.9 96.9295 231.23 97.1395 231.67C97.3495 232.11 97.4495 232.62 97.4495 233.21C97.4495 233.8 97.3395 234.33 97.1295 234.76C96.9195 235.19 96.6195 235.53 96.2295 235.77C95.8395 236.01 95.3795 236.13 94.8495 236.13C94.3195 236.13 93.8595 236.01 93.4695 235.78H93.4895ZM96.2695 234.96C96.6095 234.55 96.7695 233.97 96.7695 233.22C96.7695 232.47 96.5995 231.89 96.2695 231.48C95.9395 231.07 95.4695 230.87 94.8595 230.87C94.2495 230.87 93.7795 231.07 93.4395 231.48C93.0995 231.89 92.9395 232.47 92.9395 233.21C92.9395 233.95 93.1095 234.54 93.4395 234.95C93.7795 235.36 94.2495 235.57 94.8595 235.57C95.4695 235.57 95.9295 235.36 96.2695 234.95V234.96Z" fill="#231815"/>
<path d="M103.218 230.369V236.069H102.708L99.2684 231.489V236.069H98.6484V230.369H99.1484L102.588 234.949V230.369H103.208H103.218Z" fill="#231815"/>
<path d="M104.619 230.37H108.219V230.91H105.269V232.89H108.059V233.44H105.269V235.51H108.219V236.05H104.619V230.35V230.37Z" fill="#231815"/>
<path d="M114.909 235.519V236.069H111.729V235.519H112.989V231.189L111.819 231.929V231.299L113.279 230.369H113.659V235.509H114.919L114.909 235.519Z" fill="#231815"/>
<path d="M119.709 235.519V236.069H116.529V235.519H117.789V231.189L116.619 231.929V231.299L118.079 230.369H118.459V235.509H119.719L119.709 235.519Z" fill="#231815"/>
<path d="M124.59 230.369V230.859L121.92 236.069H121.22L123.88 230.929H120.84V230.379H124.6L124.59 230.369Z" fill="#231815"/>
<path d="M126.84 235.78C126.44 235.55 126.14 235.21 125.92 234.77C125.71 234.33 125.6 233.81 125.6 233.21C125.6 232.61 125.71 232.1 125.92 231.66C126.13 231.23 126.44 230.89 126.84 230.66C127.24 230.43 127.71 230.31 128.24 230.31C128.63 230.31 129 230.37 129.32 230.49C129.64 230.61 129.93 230.79 130.17 231.03L129.92 231.53C129.65 231.3 129.38 231.13 129.12 231.03C128.86 230.93 128.56 230.88 128.24 230.88C127.62 230.88 127.13 231.08 126.79 231.49C126.45 231.9 126.27 232.47 126.27 233.22C126.27 233.97 126.44 234.55 126.78 234.96C127.12 235.37 127.61 235.57 128.24 235.57C128.56 235.57 128.85 235.52 129.12 235.42C129.38 235.32 129.65 235.15 129.92 234.92L130.17 235.42C129.93 235.66 129.65 235.84 129.32 235.96C128.99 236.08 128.63 236.14 128.24 236.14C127.7 236.14 127.23 236.02 126.84 235.79V235.78Z" fill="#231815"/>
<path d="M658.37 82.1301H660.64C661.23 82.1301 661.68 82.2701 662.01 82.5501C662.34 82.8301 662.5 83.2201 662.5 83.7201C662.5 84.2201 662.33 84.6101 662 84.8901C661.67 85.1701 661.21 85.3201 660.63 85.3201H659.01V87.8201H658.35V82.1201L658.37 82.1301ZM660.59 84.7801C661.01 84.7801 661.33 84.6901 661.54 84.5101C661.75 84.3301 661.86 84.0701 661.86 83.7301C661.86 83.3901 661.75 83.1301 661.54 82.9501C661.33 82.7701 661.01 82.6801 660.59 82.6801H659.03V84.7801H660.59Z" fill="#231815"/>
<path d="M666.7 86.3699H663.72L663.09 87.8299H662.41L664.91 82.1299H665.49L667.99 87.8299H667.32L666.7 86.3699V86.3699ZM666.47 85.8299L665.21 82.8999L663.95 85.8299H666.46H666.47Z" fill="#231815"/>
<path d="M673.42 82.1299V87.8299H672.91L669.47 83.2499V87.8299H668.85V82.1299H669.35L672.79 86.7099V82.1299H673.41H673.42Z" fill="#231815"/>
<path d="M676.189 82.6899H674.209V82.1299H678.839V82.6899H676.859V87.8299H676.199V82.6899H676.189Z" fill="#231815"/>
<path d="M680.3 87.5403C679.91 87.3103 679.61 86.9703 679.4 86.5303C679.19 86.0903 679.08 85.5703 679.08 84.9803C679.08 84.3903 679.18 83.8603 679.39 83.4303C679.6 82.9903 679.9 82.6603 680.29 82.4203C680.68 82.1903 681.14 82.0703 681.67 82.0703C682.2 82.0703 682.67 82.1903 683.05 82.4203C683.44 82.6603 683.74 82.9903 683.95 83.4303C684.16 83.8703 684.26 84.3803 684.26 84.9703C684.26 85.5603 684.15 86.0903 683.94 86.5203C683.73 86.9603 683.43 87.2903 683.04 87.5303C682.65 87.7703 682.19 87.8903 681.66 87.8903C681.13 87.8903 680.67 87.7703 680.28 87.5403H680.3ZM683.08 86.7203C683.42 86.3103 683.58 85.7303 683.58 84.9803C683.58 84.2303 683.41 83.6503 683.08 83.2403C682.75 82.8303 682.28 82.6303 681.67 82.6303C681.06 82.6303 680.59 82.8303 680.25 83.2403C679.91 83.6503 679.75 84.2303 679.75 84.9703C679.75 85.7103 679.92 86.3003 680.25 86.7103C680.59 87.1203 681.06 87.3303 681.67 87.3303C682.28 87.3303 682.74 87.1203 683.08 86.7103V86.7203Z" fill="#231815"/>
<path d="M690.029 82.1299V87.8299H689.519L686.079 83.2499V87.8299H685.459V82.1299H685.959L689.399 86.7099V82.1299H690.019H690.029Z" fill="#231815"/>
<path d="M691.43 82.1303H695.03V82.6703H692.08V84.6504H694.87V85.2003H692.08V87.2703H695.03V87.8103H691.43V82.1104V82.1303Z" fill="#231815"/>
<path d="M659.4 97.5403C659 97.3103 658.7 96.9703 658.48 96.5303C658.27 96.0903 658.16 95.5703 658.16 94.9703C658.16 94.3703 658.27 93.8603 658.48 93.4203C658.69 92.9903 659 92.6503 659.4 92.4203C659.8 92.1903 660.27 92.0703 660.8 92.0703C661.19 92.0703 661.56 92.1303 661.88 92.2503C662.2 92.3703 662.49 92.5503 662.73 92.7903L662.48 93.2903C662.21 93.0603 661.94 92.8903 661.68 92.7903C661.42 92.6903 661.12 92.6403 660.8 92.6403C660.18 92.6403 659.69 92.8403 659.35 93.2503C659.01 93.6603 658.83 94.2303 658.83 94.9803C658.83 95.7303 659 96.3103 659.34 96.7203C659.68 97.1303 660.17 97.3303 660.8 97.3303C661.12 97.3303 661.41 97.2803 661.68 97.1803C661.94 97.0803 662.21 96.9103 662.48 96.6803L662.73 97.1803C662.49 97.4203 662.21 97.6003 661.88 97.7203C661.55 97.8403 661.19 97.9003 660.8 97.9003C660.26 97.9003 659.79 97.7803 659.4 97.5503V97.5403Z" fill="#231815"/>
<path d="M664.349 97.63C664.059 97.46 663.839 97.22 663.679 96.9C663.519 96.58 663.439 96.22 663.439 95.8C663.439 95.38 663.519 95.01 663.679 94.7C663.839 94.39 664.059 94.14 664.349 93.97C664.639 93.8 664.969 93.71 665.349 93.71C665.729 93.71 666.059 93.8 666.349 93.97C666.639 94.14 666.859 94.38 667.019 94.7C667.179 95.02 667.259 95.38 667.259 95.8C667.259 96.22 667.179 96.59 667.019 96.9C666.859 97.21 666.639 97.46 666.349 97.63C666.059 97.8 665.729 97.89 665.349 97.89C664.969 97.89 664.639 97.81 664.349 97.63ZM666.269 96.95C666.479 96.69 666.589 96.3 666.589 95.79C666.589 95.28 666.479 94.92 666.259 94.65C666.039 94.38 665.739 94.25 665.349 94.25C664.959 94.25 664.649 94.38 664.429 94.65C664.209 94.92 664.099 95.3 664.099 95.79C664.099 96.28 664.209 96.68 664.419 96.95C664.629 97.22 664.939 97.35 665.339 97.35C665.739 97.35 666.049 97.22 666.259 96.95H666.269Z" fill="#231815"/>
<path d="M668.93 97.63C668.64 97.46 668.42 97.22 668.26 96.9C668.1 96.58 668.02 96.22 668.02 95.8C668.02 95.38 668.1 95.01 668.26 94.7C668.42 94.39 668.64 94.14 668.93 93.97C669.22 93.8 669.55 93.71 669.93 93.71C670.31 93.71 670.64 93.8 670.93 93.97C671.22 94.14 671.439 94.38 671.599 94.7C671.759 95.02 671.84 95.38 671.84 95.8C671.84 96.22 671.759 96.59 671.599 96.9C671.439 97.21 671.22 97.46 670.93 97.63C670.64 97.8 670.31 97.89 669.93 97.89C669.55 97.89 669.22 97.81 668.93 97.63ZM670.849 96.95C671.059 96.69 671.169 96.3 671.169 95.79C671.169 95.28 671.06 94.92 670.84 94.65C670.62 94.38 670.32 94.25 669.93 94.25C669.54 94.25 669.23 94.38 669.01 94.65C668.79 94.92 668.68 95.3 668.68 95.79C668.68 96.28 668.79 96.68 669 96.95C669.21 97.22 669.519 97.35 669.919 97.35C670.319 97.35 670.63 97.22 670.84 96.95H670.849Z" fill="#231815"/>
<path d="M672.84 91.9404H673.49V97.8304H672.84V91.9404Z" fill="#231815"/>
<path d="M681.421 94.8605V97.5005C681.201 97.6205 680.901 97.7105 680.541 97.7805C680.181 97.8505 679.811 97.8905 679.441 97.8905C678.871 97.8905 678.391 97.7706 677.981 97.5406C677.571 97.3106 677.261 96.9706 677.041 96.5406C676.821 96.1006 676.721 95.5806 676.721 94.9706C676.721 94.3606 676.831 93.8506 677.041 93.4106C677.261 92.9806 677.571 92.6406 677.971 92.4106C678.371 92.1806 678.851 92.0605 679.401 92.0605C679.801 92.0605 680.171 92.1205 680.501 92.2405C680.831 92.3605 681.121 92.5405 681.361 92.7805L681.101 93.2805C680.821 93.0505 680.551 92.8805 680.291 92.7705C680.031 92.6705 679.731 92.6105 679.401 92.6105C678.751 92.6105 678.261 92.8105 677.921 93.2105C677.581 93.6105 677.401 94.1905 677.401 94.9505C677.401 95.7105 677.581 96.3105 677.931 96.7105C678.281 97.1105 678.791 97.3105 679.471 97.3105C679.941 97.3105 680.401 97.2405 680.841 97.0905V95.3505H679.421V94.8306H681.441L681.421 94.8605Z" fill="#231815"/>
<path d="M684.921 93.7602L684.901 94.3502C684.781 94.3102 684.641 94.2902 684.481 94.2902C684.091 94.2902 683.801 94.4102 683.611 94.6502C683.421 94.8902 683.331 95.1902 683.331 95.5302V97.8302H682.681V94.9302C682.681 94.5102 682.661 94.1402 682.621 93.8002H683.241L683.301 94.5402C683.401 94.2702 683.561 94.0602 683.791 93.9202C684.011 93.7802 684.271 93.7002 684.561 93.7002C684.691 93.7002 684.821 93.7202 684.931 93.7502L684.921 93.7602Z" fill="#231815"/>
<path d="M689.04 93.81V97.83H688.4V97.1C688.28 97.35 688.11 97.54 687.87 97.68C687.63 97.82 687.36 97.88 687.04 97.88C686.68 97.88 686.37 97.8 686.1 97.62C685.83 97.45 685.62 97.21 685.48 96.9C685.33 96.59 685.26 96.22 685.26 95.81C685.26 95.4 685.34 95.03 685.48 94.71C685.63 94.39 685.84 94.15 686.11 93.97C686.38 93.79 686.69 93.71 687.04 93.71C687.35 93.71 687.63 93.78 687.86 93.92C688.09 94.06 688.27 94.25 688.4 94.5V93.8H689.04V93.81ZM688.08 96.95C688.29 96.68 688.4 96.3 688.4 95.8C688.4 95.3 688.29 94.92 688.08 94.66C687.87 94.39 687.56 94.26 687.17 94.26C686.78 94.26 686.47 94.4 686.25 94.67C686.03 94.94 685.92 95.33 685.92 95.82C685.92 96.31 686.03 96.69 686.25 96.96C686.47 97.23 686.78 97.36 687.18 97.36C687.58 97.36 687.88 97.23 688.09 96.96L688.08 96.95Z" fill="#231815"/>
<path d="M693.83 93.8105L691.95 98.2005C691.75 98.6605 691.5 98.9905 691.21 99.2105C690.92 99.4305 690.539 99.5706 690.109 99.6506L689.969 99.1506C690.349 99.0706 690.64 98.9505 690.83 98.8105C691.02 98.6705 691.19 98.4506 691.31 98.1606L691.469 97.8006L689.77 93.8205H690.45L691.81 97.1405L693.19 93.8205H693.84L693.83 93.8105Z" fill="#231815"/>
<path d="M700.54 96.5909H699.68V97.8309H699.02V96.5909H696.4V96.0909L699.14 92.1309H699.68V96.0409H700.54V96.5809V96.5909ZM699.02 96.0509V93.2509L697.08 96.0509H699.02Z" fill="#231815"/>
<path d="M702.541 97.5403C702.141 97.3103 701.841 96.9703 701.621 96.5303C701.411 96.0903 701.301 95.5703 701.301 94.9703C701.301 94.3703 701.411 93.8603 701.621 93.4203C701.831 92.9903 702.141 92.6503 702.541 92.4203C702.941 92.1903 703.411 92.0703 703.941 92.0703C704.331 92.0703 704.701 92.1303 705.021 92.2503C705.341 92.3703 705.631 92.5503 705.871 92.7903L705.621 93.2903C705.351 93.0603 705.081 92.8903 704.821 92.7903C704.561 92.6903 704.261 92.6403 703.941 92.6403C703.321 92.6403 702.831 92.8403 702.491 93.2503C702.151 93.6603 701.971 94.2303 701.971 94.9803C701.971 95.7303 702.141 96.3103 702.481 96.7203C702.821 97.1303 703.311 97.3303 703.941 97.3303C704.261 97.3303 704.551 97.2803 704.821 97.1803C705.081 97.0803 705.351 96.9103 705.621 96.6803L705.871 97.1803C705.631 97.4203 705.351 97.6003 705.021 97.7203C704.691 97.8403 704.331 97.9003 703.941 97.9003C703.401 97.9003 702.931 97.7803 702.541 97.5503V97.5403Z" fill="#231815"/>
<path d="M391.651 230.369H393.921C394.511 230.369 394.961 230.509 395.291 230.789C395.621 231.069 395.781 231.459 395.781 231.959C395.781 232.459 395.611 232.849 395.281 233.129C394.951 233.419 394.491 233.559 393.911 233.559H392.291V236.059H391.631V230.359L391.651 230.369ZM393.871 233.019C394.291 233.019 394.611 232.929 394.821 232.749C395.031 232.569 395.141 232.309 395.141 231.969C395.141 231.629 395.031 231.369 394.821 231.189C394.611 231.009 394.291 230.919 393.871 230.919H392.311V233.019H393.871V233.019Z" fill="#231815"/>
<path d="M399.981 234.609H397.001L396.371 236.069H395.691L398.191 230.369H398.771L401.271 236.069H400.601L399.981 234.609V234.609ZM399.751 234.069L398.491 231.139L397.231 234.069H399.741H399.751Z" fill="#231815"/>
<path d="M406.701 230.369V236.069H406.191L402.751 231.489V236.069H402.131V230.369H402.631L406.071 234.949V230.369H406.691H406.701Z" fill="#231815"/>
<path d="M409.47 230.929H407.49V230.369H412.12V230.929H410.14V236.069H409.48V230.929H409.47Z" fill="#231815"/>
<path d="M413.581 235.78C413.191 235.55 412.891 235.21 412.681 234.77C412.471 234.33 412.361 233.81 412.361 233.22C412.361 232.63 412.461 232.1 412.671 231.67C412.881 231.23 413.181 230.9 413.571 230.66C413.961 230.43 414.421 230.31 414.951 230.31C415.481 230.31 415.951 230.43 416.331 230.66C416.721 230.9 417.021 231.23 417.231 231.67C417.441 232.11 417.541 232.62 417.541 233.21C417.541 233.8 417.431 234.33 417.221 234.76C417.011 235.19 416.711 235.53 416.321 235.77C415.931 236.01 415.471 236.13 414.941 236.13C414.411 236.13 413.951 236.01 413.561 235.78H413.581ZM416.361 234.96C416.701 234.55 416.861 233.97 416.861 233.22C416.861 232.47 416.691 231.89 416.361 231.48C416.031 231.07 415.561 230.87 414.951 230.87C414.341 230.87 413.871 231.07 413.531 231.48C413.191 231.89 413.031 232.47 413.031 233.21C413.031 233.95 413.201 234.54 413.531 234.95C413.871 235.36 414.341 235.57 414.951 235.57C415.561 235.57 416.021 235.36 416.361 234.95V234.96Z" fill="#231815"/>
<path d="M423.32 230.369V236.069H422.81L419.37 231.489V236.069H418.75V230.369H419.25L422.69 234.949V230.369H423.31H423.32Z" fill="#231815"/>
<path d="M424.721 230.37H428.321V230.91H425.371V232.89H428.161V233.44H425.371V235.51H428.321V236.05H424.721V230.35V230.37Z" fill="#231815"/>
<path d="M435.01 235.519V236.069H431.83V235.519H433.09V231.189L431.92 231.929V231.299L433.38 230.369H433.76V235.509H435.02L435.01 235.519Z" fill="#231815"/>
<path d="M439.42 231.029C439.79 231.509 439.98 232.189 439.98 233.079C439.98 234.049 439.79 234.799 439.4 235.329C439.01 235.859 438.47 236.129 437.78 236.129C437.45 236.129 437.14 236.069 436.82 235.949C436.51 235.829 436.23 235.649 435.99 235.429L436.25 234.929C436.52 235.159 436.78 235.329 437.03 235.429C437.28 235.529 437.52 235.589 437.77 235.589C438.26 235.589 438.64 235.369 438.91 234.929C439.18 234.489 439.31 233.879 439.31 233.089V232.989C439.19 233.289 438.99 233.519 438.71 233.699C438.43 233.869 438.12 233.959 437.76 233.959C437.4 233.959 437.11 233.879 436.84 233.729C436.57 233.579 436.37 233.359 436.22 233.089C436.07 232.819 436 232.499 436 232.149C436 231.799 436.08 231.479 436.24 231.209C436.4 230.939 436.62 230.719 436.89 230.559C437.17 230.399 437.48 230.319 437.83 230.319C438.52 230.319 439.05 230.559 439.42 231.039V231.029ZM438.78 233.049C439.02 232.819 439.13 232.509 439.13 232.139C439.13 231.769 439.01 231.449 438.78 231.219C438.55 230.989 438.24 230.869 437.86 230.869C437.48 230.869 437.2 230.989 436.98 231.219C436.76 231.449 436.64 231.759 436.64 232.139C436.64 232.519 436.75 232.819 436.98 233.059C437.2 233.289 437.5 233.409 437.87 233.409C438.24 233.409 438.55 233.289 438.78 233.059V233.049Z" fill="#231815"/>
<path d="M444.941 234.829H444.081V236.069H443.421V234.829H440.801V234.329L443.541 230.369H444.081V234.279H444.941V234.819V234.829ZM443.421 234.289V231.489L441.481 234.289H443.421Z" fill="#231815"/>
<path d="M446.941 235.78C446.541 235.55 446.241 235.21 446.021 234.77C445.811 234.33 445.701 233.81 445.701 233.21C445.701 232.61 445.811 232.1 446.021 231.66C446.231 231.23 446.541 230.89 446.941 230.66C447.341 230.43 447.811 230.31 448.341 230.31C448.731 230.31 449.101 230.37 449.421 230.49C449.741 230.61 450.031 230.79 450.271 231.03L450.021 231.53C449.751 231.3 449.481 231.13 449.221 231.03C448.961 230.93 448.661 230.88 448.341 230.88C447.721 230.88 447.231 231.08 446.891 231.49C446.551 231.9 446.371 232.47 446.371 233.22C446.371 233.97 446.541 234.55 446.881 234.96C447.221 235.37 447.711 235.57 448.341 235.57C448.661 235.57 448.951 235.52 449.221 235.42C449.481 235.32 449.751 235.15 450.021 234.92L450.271 235.42C450.031 235.66 449.751 235.84 449.421 235.96C449.091 236.08 448.731 236.14 448.341 236.14C447.801 236.14 447.331 236.02 446.941 235.79V235.78Z" fill="#231815"/>
<path d="M199.801 235.519V236.069H196.141V235.569L198.131 233.359C198.401 233.059 198.591 232.789 198.711 232.549C198.831 232.309 198.891 232.069 198.891 231.829C198.891 231.519 198.801 231.269 198.621 231.109C198.441 230.939 198.181 230.859 197.841 230.859C197.301 230.859 196.761 231.079 196.221 231.519L195.971 231.019C196.191 230.809 196.481 230.639 196.821 230.509C197.161 230.379 197.511 230.319 197.851 230.319C198.371 230.319 198.791 230.449 199.091 230.719C199.391 230.989 199.551 231.349 199.551 231.809C199.551 232.139 199.481 232.449 199.331 232.749C199.181 233.049 198.941 233.389 198.601 233.759L196.981 235.519H199.801V235.519Z" fill="#231815"/>
<path d="M203.851 232.719C204.121 232.869 204.331 233.079 204.471 233.359C204.611 233.629 204.691 233.949 204.691 234.299C204.691 234.649 204.611 234.969 204.451 235.249C204.291 235.529 204.071 235.739 203.781 235.889C203.491 236.039 203.151 236.119 202.761 236.119C202.411 236.119 202.071 236.059 201.741 235.929C201.411 235.799 201.121 235.629 200.891 235.409L201.141 234.909C201.671 235.349 202.211 235.569 202.761 235.569C203.161 235.569 203.471 235.459 203.701 235.229C203.931 234.999 204.041 234.689 204.041 234.309C204.041 233.929 203.931 233.629 203.701 233.389C203.481 233.159 203.181 233.039 202.801 233.039C202.261 233.039 201.821 233.259 201.501 233.699H201.041V230.359H204.461V230.899H201.701V232.929C202.011 232.629 202.421 232.469 202.911 232.469C203.271 232.469 203.581 232.549 203.851 232.699V232.719Z" fill="#231815"/>
<path d="M206.801 235.78C206.401 235.55 206.101 235.21 205.881 234.77C205.671 234.33 205.561 233.81 205.561 233.21C205.561 232.61 205.671 232.1 205.881 231.66C206.091 231.23 206.401 230.89 206.801 230.66C207.201 230.43 207.671 230.31 208.201 230.31C208.591 230.31 208.961 230.37 209.281 230.49C209.601 230.61 209.891 230.79 210.131 231.03L209.881 231.53C209.611 231.3 209.341 231.13 209.081 231.03C208.821 230.93 208.521 230.88 208.201 230.88C207.581 230.88 207.091 231.08 206.751 231.49C206.411 231.9 206.231 232.47 206.231 233.22C206.231 233.97 206.401 234.55 206.741 234.96C207.081 235.37 207.571 235.57 208.201 235.57C208.521 235.57 208.811 235.52 209.081 235.42C209.341 235.32 209.611 235.15 209.881 234.92L210.131 235.42C209.891 235.66 209.611 235.84 209.281 235.96C208.951 236.08 208.591 236.14 208.201 236.14C207.661 236.14 207.191 236.02 206.801 235.79V235.78Z" fill="#231815"/>
<path d="M221.01 235.52V236.07H217.83V235.52H219.09V231.19L217.92 231.93V231.3L219.38 230.37H219.76V235.51H221.02L221.01 235.52Z" fill="#231815"/>
<path d="M222.52 235.39C222.18 234.9 222.01 234.17 222.01 233.22C222.01 232.27 222.18 231.54 222.52 231.05C222.86 230.56 223.35 230.31 224 230.31C224.65 230.31 225.15 230.56 225.48 231.05C225.82 231.54 225.99 232.26 225.99 233.21C225.99 234.16 225.82 234.89 225.48 235.39C225.14 235.89 224.65 236.13 224 236.13C223.35 236.13 222.85 235.88 222.52 235.39V235.39ZM225.01 235C225.23 234.62 225.33 234.02 225.33 233.21C225.33 232.4 225.22 231.81 225.01 231.43C224.8 231.05 224.46 230.86 224 230.86C223.54 230.86 223.21 231.05 223 231.43C222.79 231.81 222.68 232.4 222.68 233.21C222.68 234.02 222.79 234.61 223 235C223.21 235.39 223.55 235.58 224 235.58C224.45 235.58 224.79 235.39 225 235H225.01Z" fill="#231815"/>
<path d="M227.321 235.39C226.981 234.9 226.811 234.17 226.811 233.22C226.811 232.27 226.981 231.54 227.321 231.05C227.661 230.56 228.151 230.31 228.801 230.31C229.451 230.31 229.951 230.56 230.281 231.05C230.621 231.54 230.791 232.26 230.791 233.21C230.791 234.16 230.621 234.89 230.281 235.39C229.941 235.89 229.451 236.13 228.801 236.13C228.151 236.13 227.651 235.88 227.321 235.39V235.39ZM229.811 235C230.031 234.62 230.131 234.02 230.131 233.21C230.131 232.4 230.021 231.81 229.811 231.43C229.601 231.05 229.261 230.86 228.801 230.86C228.341 230.86 228.011 231.05 227.801 231.43C227.591 231.81 227.481 232.4 227.481 233.21C227.481 234.02 227.591 234.61 227.801 235C228.011 235.39 228.351 235.58 228.801 235.58C229.251 235.58 229.591 235.39 229.801 235H229.811Z" fill="#231815"/>
<path d="M237.3 230.37V236.07H236.69V231.84L234.84 236.07H234.38L232.52 231.87V236.07H231.92V230.37H232.46L234.62 235.28L236.76 230.37H237.3V230.37Z" fill="#231815"/>
<path d="M248.212 233.64C248.392 233.87 248.472 234.17 248.472 234.53C248.472 235.03 248.302 235.42 247.972 235.7C247.642 235.98 247.182 236.13 246.602 236.13C246.232 236.13 245.882 236.07 245.542 235.95C245.202 235.83 244.922 235.65 244.682 235.43L244.942 234.93C245.472 235.37 246.022 235.59 246.592 235.59C247.002 235.59 247.302 235.5 247.512 235.32C247.722 235.14 247.832 234.87 247.832 234.52C247.832 233.82 247.392 233.47 246.522 233.47H245.862V232.92H246.392C246.812 232.92 247.132 232.83 247.362 232.64C247.582 232.45 247.702 232.19 247.702 231.84C247.702 231.53 247.612 231.29 247.422 231.13C247.232 230.97 246.982 230.88 246.642 230.88C246.102 230.88 245.562 231.1 245.022 231.54L244.772 231.04C245.002 230.82 245.282 230.65 245.612 230.52C245.942 230.4 246.292 230.33 246.652 230.33C247.162 230.33 247.572 230.46 247.882 230.72C248.192 230.98 248.342 231.33 248.342 231.78C248.342 232.11 248.262 232.39 248.102 232.64C247.942 232.89 247.722 233.06 247.442 233.17C247.782 233.27 248.032 233.43 248.212 233.67V233.64Z" fill="#231815"/>
<path d="M253.19 233.67C253.4 233.92 253.5 234.22 253.5 234.56C253.5 235.05 253.32 235.43 252.95 235.71C252.58 235.99 252.09 236.13 251.46 236.13C250.83 236.13 250.34 235.99 249.97 235.71C249.6 235.43 249.42 235.05 249.42 234.56C249.42 234.21 249.53 233.91 249.74 233.66C249.95 233.41 250.24 233.24 250.61 233.14C250.27 233.04 250.01 232.87 249.83 232.64C249.65 232.41 249.56 232.13 249.56 231.82C249.56 231.51 249.64 231.25 249.8 231.02C249.96 230.79 250.18 230.62 250.48 230.49C250.77 230.37 251.1 230.3 251.48 230.3C251.86 230.3 252.19 230.36 252.48 230.49C252.77 230.62 253 230.79 253.16 231.02C253.32 231.25 253.4 231.51 253.4 231.82C253.4 232.13 253.31 232.41 253.12 232.64C252.94 232.87 252.68 233.04 252.35 233.14C252.72 233.24 253.01 233.42 253.22 233.66L253.19 233.67ZM252.49 235.31C252.73 235.13 252.85 234.86 252.85 234.52C252.85 234.21 252.72 233.95 252.47 233.76C252.22 233.57 251.88 233.45 251.46 233.41C251.04 233.45 250.7 233.57 250.45 233.76C250.2 233.95 250.07 234.2 250.07 234.52C250.07 234.87 250.19 235.13 250.43 235.31C250.67 235.49 251.01 235.58 251.46 235.58C251.91 235.58 252.25 235.49 252.49 235.31V235.31ZM250.54 232.61C250.77 232.8 251.07 232.92 251.46 232.96C251.84 232.92 252.15 232.8 252.38 232.61C252.61 232.42 252.72 232.17 252.72 231.87C252.72 231.57 252.61 231.31 252.39 231.13C252.17 230.95 251.86 230.86 251.47 230.86C251.08 230.86 250.77 230.95 250.55 231.13C250.33 231.31 250.22 231.56 250.22 231.87C250.22 232.18 250.33 232.42 250.56 232.61H250.54Z" fill="#231815"/>
<path d="M256.611 233.77V236.07H255.951V233.76L253.711 230.38H254.481L256.291 233.18L258.101 230.38H258.851L256.611 233.77Z" fill="#231815"/>
<path d="M269.282 236.07L266.342 233.36V236.07H265.682V230.37H266.342V232.99L269.142 230.37H269.982L267.002 233.15L270.132 236.07H269.272H269.282Z" fill="#231815"/>
<path d="M270.971 235.39C270.631 234.9 270.461 234.17 270.461 233.22C270.461 232.27 270.631 231.54 270.971 231.05C271.311 230.56 271.801 230.31 272.451 230.31C273.101 230.31 273.601 230.56 273.931 231.05C274.271 231.54 274.441 232.26 274.441 233.21C274.441 234.16 274.271 234.89 273.931 235.39C273.591 235.89 273.101 236.13 272.451 236.13C271.801 236.13 271.301 235.88 270.971 235.39V235.39ZM273.461 235C273.681 234.62 273.781 234.02 273.781 233.21C273.781 232.4 273.671 231.81 273.461 231.43C273.251 231.05 272.911 230.86 272.451 230.86C271.991 230.86 271.661 231.05 271.451 231.43C271.241 231.81 271.131 232.4 271.131 233.21C271.131 234.02 271.241 234.61 271.451 235C271.661 235.39 272.001 235.58 272.451 235.58C272.901 235.58 273.241 235.39 273.451 235H273.461Z" fill="#231815"/>
<path d="M587.52 230.369H589.79C590.38 230.369 590.83 230.509 591.16 230.789C591.49 231.069 591.65 231.459 591.65 231.959C591.65 232.459 591.48 232.849 591.15 233.129C590.82 233.419 590.36 233.559 589.78 233.559H588.16V236.059H587.5V230.359L587.52 230.369ZM589.74 233.019C590.16 233.019 590.48 232.929 590.69 232.749C590.9 232.569 591.01 232.309 591.01 231.969C591.01 231.629 590.9 231.369 590.69 231.189C590.48 231.009 590.16 230.919 589.74 230.919H588.18V233.019H589.74V233.019Z" fill="#231815"/>
<path d="M595.86 234.61H592.88L592.25 236.07H591.57L594.07 230.37H594.65L597.15 236.07H596.48L595.86 234.61V234.61ZM595.63 234.07L594.37 231.14L593.11 234.07H595.62H595.63Z" fill="#231815"/>
<path d="M602.57 230.37V236.07H602.06L598.62 231.49V236.07H598V230.37H598.5L601.94 234.95V230.37H602.56H602.57Z" fill="#231815"/>
<path d="M605.339 230.93H603.359V230.37H607.989V230.93H606.009V236.07H605.349V230.93H605.339Z" fill="#231815"/>
<path d="M609.451 235.78C609.061 235.55 608.76 235.21 608.55 234.77C608.34 234.33 608.23 233.81 608.23 233.22C608.23 232.63 608.33 232.1 608.54 231.67C608.75 231.23 609.05 230.9 609.44 230.66C609.83 230.43 610.29 230.31 610.82 230.31C611.35 230.31 611.821 230.43 612.201 230.66C612.591 230.9 612.89 231.23 613.1 231.67C613.31 232.11 613.41 232.62 613.41 233.21C613.41 233.8 613.301 234.33 613.091 234.76C612.881 235.19 612.58 235.53 612.19 235.77C611.8 236.01 611.34 236.13 610.81 236.13C610.28 236.13 609.82 236.01 609.43 235.78H609.451ZM612.23 234.96C612.57 234.55 612.73 233.97 612.73 233.22C612.73 232.47 612.56 231.89 612.23 231.48C611.9 231.07 611.43 230.87 610.82 230.87C610.21 230.87 609.741 231.07 609.401 231.48C609.061 231.89 608.901 232.47 608.901 233.21C608.901 233.95 609.071 234.54 609.401 234.95C609.741 235.36 610.21 235.57 610.82 235.57C611.43 235.57 611.89 235.36 612.23 234.95V234.96Z" fill="#231815"/>
<path d="M619.179 230.37V236.07H618.669L615.229 231.49V236.07H614.609V230.37H615.109L618.549 234.95V230.37H619.169H619.179Z" fill="#231815"/>
<path d="M620.58 230.37H624.18V230.91H621.23V232.89H624.02V233.44H621.23V235.51H624.18V236.05H620.58V230.35V230.37Z" fill="#231815"/>
<path d="M631 235.519V236.069H627.34V235.569L629.33 233.359C629.6 233.059 629.79 232.789 629.91 232.549C630.03 232.309 630.09 232.069 630.09 231.829C630.09 231.519 630 231.269 629.82 231.109C629.64 230.939 629.38 230.859 629.04 230.859C628.5 230.859 627.96 231.079 627.42 231.519L627.17 231.019C627.39 230.809 627.68 230.639 628.02 230.509C628.36 230.379 628.71 230.319 629.05 230.319C629.57 230.319 629.99 230.449 630.29 230.719C630.59 230.989 630.75 231.349 630.75 231.809C630.75 232.139 630.68 232.449 630.53 232.749C630.38 233.049 630.14 233.389 629.8 233.759L628.18 235.519H631V235.519Z" fill="#231815"/>
<path d="M635.6 233.67C635.81 233.92 635.91 234.22 635.91 234.56C635.91 235.05 635.73 235.43 635.36 235.71C634.99 235.99 634.5 236.13 633.87 236.13C633.24 236.13 632.75 235.99 632.38 235.71C632.01 235.43 631.83 235.05 631.83 234.56C631.83 234.21 631.94 233.91 632.15 233.66C632.36 233.41 632.65 233.24 633.02 233.14C632.68 233.04 632.42 232.87 632.24 232.64C632.06 232.41 631.97 232.13 631.97 231.82C631.97 231.51 632.05 231.25 632.21 231.02C632.37 230.79 632.59 230.62 632.89 230.49C633.18 230.37 633.51 230.3 633.89 230.3C634.27 230.3 634.6 230.36 634.89 230.49C635.18 230.62 635.41 230.79 635.57 231.02C635.73 231.25 635.81 231.51 635.81 231.82C635.81 232.13 635.72 232.41 635.53 232.64C635.35 232.87 635.09 233.04 634.76 233.14C635.13 233.24 635.42 233.42 635.63 233.66L635.6 233.67ZM634.9 235.31C635.14 235.13 635.26 234.86 635.26 234.52C635.26 234.21 635.13 233.95 634.88 233.76C634.63 233.57 634.29 233.45 633.87 233.41C633.45 233.45 633.11 233.57 632.86 233.76C632.61 233.95 632.48 234.2 632.48 234.52C632.48 234.87 632.6 235.13 632.84 235.31C633.08 235.49 633.42 235.58 633.87 235.58C634.32 235.58 634.66 235.49 634.9 235.31ZM632.95 232.61C633.18 232.8 633.48 232.92 633.87 232.96C634.25 232.92 634.56 232.8 634.79 232.61C635.02 232.42 635.13 232.17 635.13 231.87C635.13 231.57 635.02 231.31 634.8 231.13C634.58 230.95 634.27 230.86 633.88 230.86C633.49 230.86 633.18 230.95 632.96 231.13C632.74 231.31 632.63 231.56 632.63 231.87C632.63 232.18 632.74 232.42 632.97 232.61H632.95Z" fill="#231815"/>
<path d="M640.551 230.37V230.86L637.881 236.07H637.181L639.841 230.93H636.801V230.38H640.561L640.551 230.37Z" fill="#231815"/>
<path d="M642.31 235.55C641.93 235.16 641.74 234.59 641.74 233.83V230.37H642.39V233.89C642.39 234.44 642.53 234.86 642.8 235.15C643.07 235.43 643.47 235.57 644.01 235.57C644.55 235.57 644.94 235.43 645.21 235.15C645.48 234.87 645.61 234.45 645.61 233.89V230.37H646.27V233.83C646.27 234.58 646.08 235.15 645.69 235.54C645.31 235.93 644.75 236.12 644.01 236.12C643.27 236.12 642.7 235.93 642.32 235.54L642.31 235.55Z" fill="#231815"/>
<path d="M141.97 84.6396C147.97 84.6396 152.84 79.9296 152.84 74.1196C152.84 68.3096 147.97 63.5996 141.97 63.5996C135.97 63.5996 131.1 68.3096 131.1 74.1196C131.1 79.9296 135.97 84.6396 141.97 84.6396Z" fill="#E60012"/>
<path d="M146.1 68.1214L135.779 77.9326L137.846 80.1069L148.167 70.2958L146.1 68.1214Z" fill="white"/>
<path d="M137.838 68.1232L135.771 70.2979L146.094 80.1072L148.161 77.9325L137.838 68.1232Z" fill="white"/>
<path d="M141.97 232.88C147.97 232.88 152.84 228.17 152.84 222.36C152.84 216.55 147.97 211.84 141.97 211.84C135.97 211.84 131.1 216.55 131.1 222.36C131.1 228.17 135.97 232.88 141.97 232.88Z" fill="#E60012"/>
<path d="M146.096 216.363L135.775 226.174L137.842 228.348L148.163 218.537L146.096 216.363Z" fill="white"/>
<path d="M137.848 216.35L135.781 218.524L146.104 228.334L148.17 226.159L137.848 216.35Z" fill="white"/>
<path d="M532.909 84.6396C538.909 84.6396 543.779 79.9296 543.779 74.1196C543.779 68.3096 538.909 63.5996 532.909 63.5996C526.909 63.5996 522.039 68.3096 522.039 74.1196C522.039 79.9296 526.909 84.6396 532.909 84.6396Z" fill="#E60012"/>
<path d="M537.041 68.1127L526.721 77.9238L528.788 80.0981L539.108 70.287L537.041 68.1127Z" fill="white"/>
<path d="M528.762 68.1036L526.695 70.2783L537.018 80.0877L539.084 77.913L528.762 68.1036Z" fill="white"/>
<path d="M532.909 232.88C538.909 232.88 543.779 228.17 543.779 222.36C543.779 216.55 538.909 211.84 532.909 211.84C526.909 211.84 522.039 216.55 522.039 222.36C522.039 228.17 526.909 232.88 532.909 232.88Z" fill="#E60012"/>
<path d="M537.036 216.353L526.715 226.164L528.782 228.338L539.103 218.527L537.036 216.353Z" fill="white"/>
<path d="M528.77 216.34L526.703 218.515L537.026 228.324L539.092 226.149L528.77 216.34Z" fill="white"/>
<path d="M337.44 84.6396C343.44 84.6396 348.31 79.9296 348.31 74.1196C348.31 68.3096 343.44 63.5996 337.44 63.5996C331.44 63.5996 326.57 68.3096 326.57 74.1196C326.57 79.9296 331.44 84.6396 337.44 84.6396Z" fill="#E60012"/>
<path d="M341.563 68.1254L331.242 77.9365L333.309 80.1108L343.63 70.2997L341.563 68.1254Z" fill="white"/>
<path d="M333.301 68.1085L331.234 70.2832L341.557 80.0926L343.623 77.9179L333.301 68.1085Z" fill="white"/>
<path d="M337.44 232.88C343.44 232.88 348.31 228.17 348.31 222.36C348.31 216.55 343.44 211.84 337.44 211.84C331.44 211.84 326.57 216.55 326.57 222.36C326.57 228.17 331.44 232.88 337.44 232.88Z" fill="#E60012"/>
<path d="M341.567 216.366L331.246 226.177L333.313 228.351L343.634 218.54L341.567 216.366Z" fill="white"/>
<path d="M333.309 216.345L331.242 218.52L341.565 228.329L343.631 226.154L333.309 216.345Z" fill="white"/>
<path d="M728.38 84.6396C734.38 84.6396 739.25 79.9296 739.25 74.1196C739.25 68.3096 734.38 63.5996 728.38 63.5996C722.38 63.5996 717.51 68.3096 717.51 74.1196C717.51 79.9296 722.38 84.6396 728.38 84.6396Z" fill="#E60012"/>
<path d="M732.502 68.1156L722.182 77.9268L724.249 80.1011L734.569 70.2899L732.502 68.1156Z" fill="white"/>
<path d="M724.231 68.0909L722.164 70.2656L732.487 80.075L734.553 77.9003L724.231 68.0909Z" fill="white"/>
<path d="M728.38 232.88C734.38 232.88 739.25 228.17 739.25 222.36C739.25 216.55 734.38 211.84 728.38 211.84C722.38 211.84 717.51 216.55 717.51 222.36C717.51 228.17 722.38 232.88 728.38 232.88Z" fill="#E60012"/>
<path d="M732.508 216.346L722.188 226.157L724.254 228.332L734.575 218.52L732.508 216.346Z" fill="white"/>
<path d="M724.238 216.318L722.172 218.492L732.494 228.302L734.561 226.127L724.238 216.318Z" fill="white"/>
</svg>
