<svg width="276" height="69" viewBox="0 0 276 69" fill="none" xmlns="http://www.w3.org/2000/svg">
<path d="M21.5695 9.64987C21.7895 9.36987 21.8695 8.87988 21.8695 8.87988H8.51953C8.51953 8.87988 8.68953 9.42987 8.81953 9.64987H21.5595H21.5695Z" fill="#AA8420"/>
<path d="M20.7903 10.7791C21.0403 10.5591 21.2903 10.1191 21.2903 10.1191H9.07031C9.07031 10.1191 9.21031 10.4491 9.51031 10.7791H20.7903Z" fill="#AA8420"/>
<path d="M19.8297 11.7998C20.1297 11.6298 20.3797 11.2998 20.3797 11.2998H9.92969C9.92969 11.2998 10.1797 11.5798 10.4197 11.7998H19.8197H19.8297Z" fill="#AA8420"/>
<path d="M18.6096 12.7699C18.9096 12.6599 19.2496 12.3799 19.2496 12.3799H11.0996C11.0996 12.3799 11.0996 12.4399 11.6796 12.7699H18.6196H18.6096Z" fill="#AA8420"/>
<path d="M12.6096 13.3799C12.6096 13.3799 13.4696 13.8799 15.1496 13.8799C16.8296 13.8799 17.9096 13.3799 17.9096 13.3799H12.5996H12.6096Z" fill="#AA8420"/>
<path d="M12.47 14.5098C12.47 14.5098 13.49 14.5598 14.1 15.0298C14.68 15.5298 15.13 16.3598 15.13 16.3598C15.13 16.3598 15.49 15.5597 16.07 15.1497C16.65 14.6997 17.59 14.5098 17.59 14.5098H28.12L30.19 17.5798H20.73C20.73 17.5798 20.07 17.6098 19.07 18.1898C18.54 18.4898 18.15 19.0198 18.15 19.0198C18.15 19.0198 18.07 19.2697 17.96 19.3997C17.85 19.5397 17.77 19.6497 17.63 19.7097C17.49 19.7697 17.52 19.7398 17.52 19.7398H12.6C12.6 19.7398 12.4 19.6598 12.3 19.4898C12.19 19.3198 12.27 19.3798 12.16 19.2498C12.08 19.1098 11.88 18.7498 11.14 18.2498C10.37 17.7498 9.62 17.6998 9.62 17.6998H0L2.1 14.5198H12.47V14.5098Z" fill="#AA8420"/>
<path d="M5.0293 18.8496V34.5496C5.0293 34.5496 5.0893 35.9396 6.2493 37.8096C7.4093 39.6896 9.08929 40.5496 9.08929 40.5496L10.4193 38.4796C10.4193 38.4796 9.2593 37.7896 8.3793 36.4596C7.5193 35.1396 7.51929 33.9996 7.51929 33.9996V18.8496H5.0293V18.8496Z" fill="#AA8420"/>
<path d="M22.8395 18.7998V33.9498C22.8395 33.9498 22.6495 35.4698 21.9295 36.5498C21.2095 37.6598 20.0195 38.5398 20.0195 38.5398L21.2995 40.5798C21.2995 40.5798 23.2295 39.1698 24.1695 37.6798C25.1095 36.1898 25.3395 33.9498 25.3395 33.9498V18.7998H22.8495H22.8395Z" fill="#AA8420"/>
<path d="M1.08008 18.8496V34.6096C1.08008 34.6096 1.24008 37.0496 2.76008 39.5896C4.29008 42.1296 7.05008 43.8996 7.05008 43.8996L8.35008 41.8296C8.35008 41.8296 6.58008 40.8896 5.17008 38.7296C3.73008 36.5496 3.65008 34.5596 3.65008 34.5596V18.8596H1.08008V18.8496Z" fill="#AA8420"/>
<path d="M12.4706 20.5098V37.1497C12.4706 37.1497 12.4106 37.2098 12.3906 37.4498C12.3606 37.6998 12.2006 37.8698 12.2006 37.8698L6.64062 47.0798H23.6706L18.1106 37.6797L17.9506 37.2598L17.8906 36.8198V20.5398H15.8206V37.4398C15.8206 37.4398 15.8206 37.6798 15.9006 37.8798C15.9506 38.0798 16.0706 38.3698 16.0706 38.3698L19.5006 44.0098H10.8206L14.1906 38.3997C14.1906 38.3997 14.3006 38.2097 14.3806 37.9297C14.4406 37.6797 14.4606 37.4398 14.4606 37.4398V20.5098H12.4706V20.5098Z" fill="#AA8420"/>
<path d="M26.6791 18.8V34.28C26.6791 34.28 26.6591 36.27 25.1891 38.56C23.7291 40.86 22.0391 41.82 22.0391 41.82L23.2891 43.92C23.2891 43.92 25.8291 42.3201 27.4391 39.7701C29.0191 37.2201 29.2091 34.2701 29.2091 34.2701V18.79H26.6891L26.6791 18.8Z" fill="#AA8420"/>
<path d="M8.42964 8.42999C8.42964 8.42999 7.57965 3.75999 10.9997 1.42999C10.9997 1.42999 12.5496 0 15.0596 0C17.7396 0 19.2896 1.41 19.2896 1.41C23.0196 4.15 21.9196 8.42999 21.9196 8.42999H8.42964V8.42999Z" fill="#AA8420"/>
<path d="M83.0207 9.64987C83.2407 9.36987 83.3207 8.87988 83.3207 8.87988H69.9707C69.9707 8.87988 70.1307 9.42987 70.2707 9.64987H83.0107H83.0207Z" fill="#D3A100"/>
<path d="M82.2493 10.7791C82.4993 10.5591 82.7493 10.1191 82.7493 10.1191H70.5293C70.5293 10.1191 70.6693 10.4491 70.9693 10.7791H82.2493Z" fill="#D3A100"/>
<path d="M81.2789 11.7998C81.5789 11.6298 81.8289 11.2998 81.8289 11.2998H71.3789C71.3789 11.2998 71.6289 11.5798 71.8689 11.7998H81.2689H81.2789Z" fill="#D3A100"/>
<path d="M80.0608 12.7699C80.3608 12.6599 80.7008 12.3799 80.7008 12.3799H72.5508C72.5508 12.3799 72.5508 12.4399 73.1308 12.7699H80.0708H80.0608Z" fill="#D3A100"/>
<path d="M74.0608 13.3799C74.0608 13.3799 74.9208 13.8799 76.6008 13.8799C78.2808 13.8799 79.3608 13.3799 79.3608 13.3799H74.0508H74.0608Z" fill="#D3A100"/>
<path d="M73.9192 14.5098C73.9192 14.5098 74.9392 14.5598 75.5492 15.0298C76.1292 15.5298 76.5792 16.3598 76.5792 16.3598C76.5792 16.3598 76.9392 15.5597 77.5192 15.1497C78.0992 14.6997 79.0392 14.5098 79.0392 14.5098H89.5692L91.6392 17.5798H82.1792C82.1792 17.5798 81.5192 17.6098 80.5192 18.1898C79.9892 18.4898 79.5992 19.0198 79.5992 19.0198C79.5992 19.0198 79.5192 19.2697 79.4092 19.3997C79.2992 19.5397 79.2192 19.6497 79.0792 19.7097C78.9392 19.7697 78.9692 19.7398 78.9692 19.7398H74.0492C74.0492 19.7398 73.8492 19.6598 73.7492 19.4898C73.6392 19.3198 73.7192 19.3798 73.6092 19.2498C73.5292 19.1098 73.3292 18.7498 72.5892 18.2498C71.8192 17.7498 71.0692 17.6998 71.0692 17.6998H61.4492L63.5492 14.5198H73.9192V14.5098Z" fill="#D3A100"/>
<path d="M66.4805 18.8496V34.5496C66.4805 34.5496 66.5405 35.9396 67.7005 37.8096C68.8605 39.6896 70.5405 40.5496 70.5405 40.5496L71.8705 38.4796C71.8705 38.4796 70.7105 37.7896 69.8305 36.4596C68.9705 35.1396 68.9705 33.9996 68.9705 33.9996V18.8496H66.4805V18.8496Z" fill="#D3A100"/>
<path d="M84.2907 18.7998V33.9498C84.2907 33.9498 84.1007 35.4698 83.3807 36.5498C82.6607 37.6598 81.4707 38.5398 81.4707 38.5398L82.7507 40.5798C82.7507 40.5798 84.6807 39.1698 85.6207 37.6798C86.5607 36.1898 86.7907 33.9498 86.7907 33.9498V18.7998H84.3007H84.2907Z" fill="#D3A100"/>
<path d="M62.5391 18.8496V34.6096C62.5391 34.6096 62.6991 37.0496 64.2191 39.5896C65.7491 42.1296 68.5091 43.8996 68.5091 43.8996L69.8091 41.8296C69.8091 41.8296 68.0391 40.8896 66.6291 38.7296C65.1891 36.5496 65.1091 34.5596 65.1091 34.5596V18.8596H62.5391V18.8496Z" fill="#D3A100"/>
<path d="M73.9198 20.5098V37.1497C73.9198 37.1497 73.8598 37.2098 73.8398 37.4498C73.8098 37.6998 73.6498 37.8698 73.6498 37.8698L68.0898 47.0798H85.1198L79.5598 37.6797L79.3898 37.2598L79.3298 36.8198V20.5398H77.2598V37.4398C77.2598 37.4398 77.2598 37.6798 77.3398 37.8798C77.3898 38.0798 77.5098 38.3698 77.5098 38.3698L80.9298 44.0098H72.2498L75.6198 38.3997C75.6198 38.3997 75.7298 38.2097 75.8098 37.9297C75.8698 37.6797 75.8898 37.4398 75.8898 37.4398V20.5098H73.8998H73.9198Z" fill="#D3A100"/>
<path d="M88.1302 18.8V34.28C88.1302 34.28 88.1102 36.27 86.6402 38.56C85.1802 40.86 83.4902 41.82 83.4902 41.82L84.7402 43.92C84.7402 43.92 87.2802 42.3201 88.8902 39.7701C90.4702 37.2201 90.6602 34.2701 90.6602 34.2701V18.79H88.1402L88.1302 18.8Z" fill="#D3A100"/>
<path d="M69.8906 8.42999C69.8906 8.42999 69.0406 3.75999 72.4606 1.42999C72.4606 1.42999 74.0106 0 76.5206 0C79.2006 0 80.7506 1.41 80.7506 1.41C84.4806 4.15 83.3806 8.42999 83.3806 8.42999H69.8906V8.42999Z" fill="#D3A100"/>
<path d="M144.47 9.64987C144.69 9.36987 144.77 8.87988 144.77 8.87988H131.42C131.42 8.87988 131.58 9.42987 131.72 9.64987H144.46H144.47Z" fill="#003477"/>
<path d="M143.7 10.7791C143.95 10.5591 144.2 10.1191 144.2 10.1191H131.98C131.98 10.1191 132.12 10.4491 132.42 10.7791H143.7Z" fill="#003477"/>
<path d="M142.73 11.7998C143.03 11.6298 143.28 11.2998 143.28 11.2998H132.83C132.83 11.2998 133.08 11.5798 133.32 11.7998H142.72H142.73Z" fill="#003477"/>
<path d="M141.51 12.7699C141.81 12.6599 142.15 12.3799 142.15 12.3799H134C134 12.3799 134 12.4399 134.58 12.7699H141.52H141.51Z" fill="#003477"/>
<path d="M135.51 13.3799C135.51 13.3799 136.37 13.8799 138.05 13.8799C139.73 13.8799 140.81 13.3799 140.81 13.3799H135.5H135.51Z" fill="#003477"/>
<path d="M135.38 14.5098C135.38 14.5098 136.4 14.5598 137.01 15.0298C137.59 15.5298 138.04 16.3598 138.04 16.3598C138.04 16.3598 138.4 15.5597 138.98 15.1497C139.56 14.6997 140.5 14.5098 140.5 14.5098H151.03L153.1 17.5798H143.64C143.64 17.5798 142.98 17.6098 141.98 18.1898C141.45 18.4898 141.06 19.0198 141.06 19.0198C141.06 19.0198 140.98 19.2697 140.87 19.3997C140.76 19.5397 140.68 19.6497 140.54 19.7097C140.4 19.7697 140.43 19.7398 140.43 19.7398H135.51C135.51 19.7398 135.31 19.6598 135.21 19.4898C135.1 19.3198 135.18 19.3798 135.07 19.2498C134.99 19.1098 134.79 18.7498 134.05 18.2498C133.28 17.7498 132.53 17.6998 132.53 17.6998H122.91L125.01 14.5198H135.38V14.5098Z" fill="#003477"/>
<path d="M127.939 18.8496V34.5496C127.939 34.5496 127.999 35.9396 129.159 37.8096C130.319 39.6896 131.999 40.5496 131.999 40.5496L133.329 38.4796C133.329 38.4796 132.169 37.7896 131.279 36.4596C130.429 35.1396 130.429 33.9996 130.429 33.9996V18.8496H127.939V18.8496Z" fill="#003477"/>
<path d="M145.74 18.7998V33.9498C145.74 33.9498 145.55 35.4698 144.83 36.5498C144.11 37.6598 142.92 38.5398 142.92 38.5398L144.2 40.5798C144.2 40.5798 146.13 39.1698 147.07 37.6798C148.01 36.1898 148.24 33.9498 148.24 33.9498V18.7998H145.75H145.74Z" fill="#003477"/>
<path d="M123.99 18.8496V34.6096C123.99 34.6096 124.15 37.0496 125.67 39.5896C127.2 42.1296 129.96 43.8996 129.96 43.8996L131.26 41.8296C131.26 41.8296 129.49 40.8896 128.08 38.7296C126.64 36.5496 126.56 34.5596 126.56 34.5596V18.8596H123.99V18.8496Z" fill="#003477"/>
<path d="M135.381 20.5098V37.1497C135.381 37.1497 135.321 37.2098 135.301 37.4498C135.271 37.6998 135.111 37.8698 135.111 37.8698L129.551 47.0798H146.581L141.021 37.6797L140.851 37.2598L140.791 36.8198V20.5398H138.721V37.4398C138.721 37.4398 138.721 37.6798 138.801 37.8798C138.851 38.0798 138.971 38.3698 138.971 38.3698L142.391 44.0098H133.711L137.081 38.3997C137.081 38.3997 137.191 38.2097 137.271 37.9297C137.331 37.6797 137.351 37.4398 137.351 37.4398V20.5098H135.361H135.381Z" fill="#003477"/>
<path d="M149.589 18.8V34.28C149.589 34.28 149.569 36.27 148.099 38.56C146.639 40.86 144.949 41.82 144.949 41.82L146.199 43.92C146.199 43.92 148.739 42.3201 150.349 39.7701C151.929 37.2201 152.119 34.2701 152.119 34.2701V18.79H149.599L149.589 18.8Z" fill="#003477"/>
<path d="M131.34 8.42999C131.34 8.42999 130.48 3.75999 133.91 1.42999C133.91 1.42999 135.46 0 137.97 0C140.65 0 142.2 1.41 142.2 1.41C145.93 4.15 144.83 8.42999 144.83 8.42999H131.34Z" fill="#003477"/>
<path d="M205.929 9.64987C206.149 9.36987 206.229 8.87988 206.229 8.87988H192.879C192.879 8.87988 193.049 9.42987 193.189 9.64987H205.929Z" fill="#C9CACA"/>
<path d="M205.15 10.7791C205.4 10.5591 205.65 10.1191 205.65 10.1191H193.43C193.43 10.1191 193.57 10.4491 193.87 10.7791H205.15V10.7791Z" fill="#C9CACA"/>
<path d="M204.189 11.7998C204.489 11.6298 204.739 11.2998 204.739 11.2998H194.289C194.289 11.2998 194.539 11.5798 194.779 11.7998H204.179H204.189Z" fill="#C9CACA"/>
<path d="M202.969 12.7699C203.269 12.6599 203.609 12.3799 203.609 12.3799H195.459C195.459 12.3799 195.459 12.4399 196.039 12.7699H202.979H202.969Z" fill="#C9CACA"/>
<path d="M196.969 13.3799C196.969 13.3799 197.829 13.8799 199.509 13.8799C201.189 13.8799 202.269 13.3799 202.269 13.3799H196.959H196.969Z" fill="#C9CACA"/>
<path d="M196.829 14.5098C196.829 14.5098 197.849 14.5598 198.459 15.0298C199.039 15.5298 199.489 16.3598 199.489 16.3598C199.489 16.3598 199.849 15.5597 200.429 15.1497C201.009 14.6997 201.949 14.5098 201.949 14.5098H212.479L214.549 17.5798H205.089C205.089 17.5798 204.429 17.6098 203.429 18.1898C202.899 18.4898 202.509 19.0198 202.509 19.0198C202.509 19.0198 202.429 19.2697 202.319 19.3997C202.209 19.5397 202.129 19.6497 201.989 19.7097C201.849 19.7697 201.879 19.7398 201.879 19.7398H196.959C196.959 19.7398 196.759 19.6598 196.659 19.4898C196.549 19.3198 196.629 19.3798 196.519 19.2498C196.439 19.1098 196.239 18.7498 195.499 18.2498C194.729 17.7498 193.979 17.6998 193.979 17.6998H184.359L186.459 14.5198H196.829V14.5098Z" fill="#C9CACA"/>
<path d="M189.391 18.8496V34.5496C189.391 34.5496 189.451 35.9396 190.611 37.8096C191.771 39.6896 193.451 40.5496 193.451 40.5496L194.781 38.4796C194.781 38.4796 193.621 37.7896 192.731 36.4596C191.881 35.1396 191.881 33.9996 191.881 33.9996V18.8496H189.391V18.8496Z" fill="#C9CACA"/>
<path d="M207.199 18.7998V33.9498C207.199 33.9498 207.009 35.4698 206.289 36.5498C205.569 37.6598 204.379 38.5398 204.379 38.5398L205.659 40.5798C205.659 40.5798 207.589 39.1698 208.529 37.6798C209.469 36.1898 209.699 33.9498 209.699 33.9498V18.7998H207.209H207.199Z" fill="#C9CACA"/>
<path d="M185.439 18.8496V34.6096C185.439 34.6096 185.599 37.0496 187.119 39.5896C188.649 42.1296 191.409 43.8996 191.409 43.8996L192.709 41.8296C192.709 41.8296 190.939 40.8896 189.529 38.7296C188.089 36.5496 188.009 34.5596 188.009 34.5596V18.8596H185.439V18.8496Z" fill="#C9CACA"/>
<path d="M196.83 20.5098V37.1497C196.83 37.1497 196.77 37.2098 196.75 37.4498C196.72 37.6998 196.56 37.8698 196.56 37.8698L191 47.0798H208.03L202.47 37.6797L202.3 37.2598L202.24 36.8198V20.5398H200.17V37.4398C200.17 37.4398 200.17 37.6798 200.25 37.8798C200.3 38.0798 200.42 38.3698 200.42 38.3698L203.84 44.0098H195.16L198.53 38.3997C198.53 38.3997 198.64 38.2097 198.72 37.9297C198.78 37.6797 198.8 37.4398 198.8 37.4398V20.5098H196.81H196.83Z" fill="#C9CACA"/>
<path d="M211.04 18.8V34.28C211.04 34.28 211.02 36.27 209.55 38.56C208.09 40.86 206.4 41.82 206.4 41.82L207.65 43.92C207.65 43.92 210.19 42.3201 211.8 39.7701C213.38 37.2201 213.57 34.2701 213.57 34.2701V18.79H211.05L211.04 18.8Z" fill="#C9CACA"/>
<path d="M192.789 8.42999C192.789 8.42999 191.929 3.75999 195.359 1.42999C195.359 1.42999 196.909 0 199.419 0C202.099 0 203.649 1.41 203.649 1.41C207.379 4.14 206.279 8.42999 206.279 8.42999H192.789Z" fill="#C9CACA"/>
<path d="M267.38 9.64987C267.6 9.36987 267.68 8.87988 267.68 8.87988H254.33C254.33 8.87988 254.5 9.42987 254.64 9.64987H267.38Z" fill="#231815"/>
<path d="M266.599 10.7791C266.849 10.5591 267.099 10.1191 267.099 10.1191H254.879C254.879 10.1191 255.019 10.4491 255.319 10.7791H266.599V10.7791Z" fill="#231815"/>
<path d="M265.64 11.7998C265.94 11.6298 266.19 11.2998 266.19 11.2998H255.74C255.74 11.2998 255.99 11.5798 256.23 11.7998H265.63H265.64Z" fill="#231815"/>
<path d="M264.42 12.7699C264.72 12.6599 265.06 12.3799 265.06 12.3799H256.91C256.91 12.3799 256.91 12.4399 257.49 12.7699H264.43H264.42Z" fill="#231815"/>
<path d="M258.42 13.3799C258.42 13.3799 259.28 13.8799 260.96 13.8799C262.64 13.8799 263.72 13.3799 263.72 13.3799H258.41H258.42Z" fill="#231815"/>
<path d="M258.281 14.5098C258.281 14.5098 259.301 14.5598 259.911 15.0298C260.491 15.5298 260.941 16.3598 260.941 16.3598C260.941 16.3598 261.301 15.5597 261.881 15.1497C262.461 14.6997 263.401 14.5098 263.401 14.5098H273.931L276.001 17.5798H266.541C266.541 17.5798 265.881 17.6098 264.881 18.1898C264.351 18.4898 263.961 19.0198 263.961 19.0198C263.961 19.0198 263.881 19.2697 263.771 19.3997C263.661 19.5397 263.581 19.6497 263.441 19.7097C263.301 19.7697 263.331 19.7398 263.331 19.7398H258.411C258.411 19.7398 258.211 19.6598 258.111 19.4898C258.001 19.3198 258.081 19.3798 257.971 19.2498C257.891 19.1098 257.691 18.7498 256.951 18.2498C256.181 17.7498 255.431 17.6998 255.431 17.6998H245.811L247.911 14.5198H258.281V14.5098Z" fill="#231815"/>
<path d="M250.84 18.8496V34.5496C250.84 34.5496 250.9 35.9396 252.06 37.8096C253.22 39.6896 254.9 40.5496 254.9 40.5496L256.23 38.4796C256.23 38.4796 255.07 37.7896 254.18 36.4596C253.33 35.1396 253.33 33.9996 253.33 33.9996V18.8496H250.84V18.8496Z" fill="#231815"/>
<path d="M268.65 18.7998V33.9498C268.65 33.9498 268.46 35.4698 267.74 36.5498C267.02 37.6598 265.83 38.5398 265.83 38.5398L267.11 40.5798C267.11 40.5798 269.04 39.1698 269.98 37.6798C270.92 36.1898 271.15 33.9498 271.15 33.9498V18.7998H268.66H268.65Z" fill="#231815"/>
<path d="M246.891 18.8496V34.6096C246.891 34.6096 247.051 37.0496 248.571 39.5896C250.101 42.1296 252.861 43.8996 252.861 43.8996L254.161 41.8296C254.161 41.8296 252.391 40.8896 250.981 38.7296C249.541 36.5496 249.461 34.5596 249.461 34.5596V18.8596H246.891V18.8496Z" fill="#231815"/>
<path d="M258.279 20.5098V37.1497C258.279 37.1497 258.219 37.2098 258.199 37.4498C258.169 37.6998 258.009 37.8698 258.009 37.8698L252.449 47.0798H269.479L263.919 37.6797L263.749 37.2598L263.689 36.8198V20.5398H261.619V37.4398C261.619 37.4398 261.619 37.6798 261.699 37.8798C261.749 38.0798 261.869 38.3698 261.869 38.3698L265.289 44.0098H256.609L259.979 38.3997C259.979 38.3997 260.089 38.2097 260.169 37.9297C260.229 37.6797 260.249 37.4398 260.249 37.4398V20.5098H258.259H258.279Z" fill="#231815"/>
<path d="M272.49 18.8V34.28C272.49 34.28 272.47 36.27 271 38.56C269.54 40.86 267.85 41.82 267.85 41.82L269.1 43.92C269.1 43.92 271.64 42.3201 273.25 39.7701C274.83 37.2201 275.02 34.2701 275.02 34.2701V18.79H272.5L272.49 18.8Z" fill="#231815"/>
<path d="M254.24 8.42999C254.24 8.42999 253.38 3.75999 256.81 1.42999C256.81 1.42999 258.36 0 260.87 0C263.55 0 265.1 1.41 265.1 1.41C268.83 4.14 267.73 8.42999 267.73 8.42999H254.24Z" fill="#231815"/>
<path d="M9.12969 65.8693V68.5093C8.90969 68.6293 8.60969 68.7193 8.24969 68.7893C7.88969 68.8593 7.51969 68.8993 7.14969 68.8993C6.57969 68.8993 6.09969 68.7793 5.68969 68.5493C5.27969 68.3193 4.96969 67.9793 4.74969 67.5493C4.52969 67.1093 4.42969 66.5893 4.42969 65.9793C4.42969 65.3693 4.53969 64.8593 4.74969 64.4193C4.96969 63.9893 5.27969 63.6493 5.67969 63.4193C6.07969 63.1893 6.55969 63.0693 7.10969 63.0693C7.50969 63.0693 7.87969 63.1293 8.20969 63.2493C8.53969 63.3693 8.82969 63.5493 9.06969 63.7893L8.80969 64.2893C8.52969 64.0593 8.25969 63.8893 7.99969 63.7793C7.73969 63.6793 7.43969 63.6193 7.10969 63.6193C6.45969 63.6193 5.96969 63.8193 5.62969 64.2193C5.28969 64.6193 5.10969 65.1993 5.10969 65.9593C5.10969 66.7193 5.28969 67.3193 5.63969 67.7193C5.98969 68.1193 6.49969 68.3193 7.17969 68.3193C7.64969 68.3193 8.10969 68.2493 8.54969 68.0993V66.3593H7.12969V65.8393H9.14969L9.12969 65.8693Z" fill="#231815"/>
<path d="M11.4798 68.5501C11.0898 68.3201 10.7898 67.9801 10.5798 67.5401C10.3698 67.1001 10.2598 66.5801 10.2598 65.9901C10.2598 65.4001 10.3598 64.8701 10.5698 64.4401C10.7798 64.0001 11.0798 63.6701 11.4698 63.4301C11.8598 63.2001 12.3198 63.0801 12.8498 63.0801C13.3798 63.0801 13.8398 63.2001 14.2298 63.4301C14.6198 63.6701 14.9198 64.0001 15.1298 64.4401C15.3398 64.8801 15.4398 65.3901 15.4398 65.9801C15.4398 66.5701 15.3298 67.1001 15.1198 67.5301C14.9098 67.9701 14.6098 68.3001 14.2198 68.5401C13.8298 68.7801 13.3698 68.9001 12.8398 68.9001C12.3098 68.9001 11.8498 68.7801 11.4598 68.5501H11.4798ZM14.2598 67.7301C14.5998 67.3201 14.7598 66.7401 14.7598 65.9901C14.7598 65.2401 14.5898 64.6601 14.2598 64.2501C13.9298 63.8401 13.4598 63.6401 12.8498 63.6401C12.2398 63.6401 11.7698 63.8401 11.4298 64.2501C11.0898 64.6601 10.9298 65.2401 10.9298 65.9801C10.9298 66.7201 11.0998 67.3101 11.4298 67.7201C11.7698 68.1301 12.2398 68.3401 12.8498 68.3401C13.4598 68.3401 13.9198 68.1301 14.2598 67.7201V67.7301Z" fill="#231815"/>
<path d="M16.6504 63.1396H17.3104V68.2796H20.1704V68.8396H16.6604V63.1396H16.6504Z" fill="#231815"/>
<path d="M21.0098 63.1399H22.9198C23.8298 63.1399 24.5398 63.3899 25.0398 63.8799C25.5398 64.3699 25.7898 65.0699 25.7898 65.9799C25.7898 66.8899 25.5398 67.5999 25.0398 68.0899C24.5398 68.5799 23.8398 68.8299 22.9198 68.8299H21.0098V63.1299V63.1399ZM22.8798 68.2799C23.6198 68.2799 24.1698 68.0899 24.5398 67.6999C24.9098 67.3099 25.0998 66.7399 25.0998 65.9799C25.0998 64.4599 24.3598 63.6999 22.8798 63.6999H21.6598V68.2799H22.8798Z" fill="#231815"/>
<path d="M62.8394 66.5296V68.8297H62.1794V66.5197L59.9395 63.1396H60.7094L62.5194 65.9396L64.3295 63.1396H65.0795L62.8394 66.5296Z" fill="#231815"/>
<path d="M65.6504 63.1392H69.2504V63.6791H66.3004V65.6591H69.0904V66.2091H66.3004V68.2791H69.2504V68.8192H65.6504V63.1191V63.1392Z" fill="#231815"/>
<path d="M70.3594 63.1396H71.0194V68.2796H73.8794V68.8396H70.3694V63.1396H70.3594Z" fill="#231815"/>
<path d="M74.7207 63.1396H75.3807V68.2796H78.2407V68.8396H74.7307V63.1396H74.7207Z" fill="#231815"/>
<path d="M79.7903 68.5501C79.4003 68.3201 79.1003 67.9801 78.8903 67.5401C78.6803 67.1001 78.5703 66.5801 78.5703 65.9901C78.5703 65.4001 78.6703 64.8701 78.8803 64.4401C79.0903 64.0001 79.3903 63.6701 79.7803 63.4301C80.1703 63.2001 80.6303 63.0801 81.1603 63.0801C81.6903 63.0801 82.1503 63.2001 82.5403 63.4301C82.9303 63.6701 83.2303 64.0001 83.4403 64.4401C83.6503 64.8801 83.7503 65.3901 83.7503 65.9801C83.7503 66.5701 83.6403 67.1001 83.4303 67.5301C83.2203 67.9701 82.9203 68.3001 82.5303 68.5401C82.1403 68.7801 81.6803 68.9001 81.1503 68.9001C80.6203 68.9001 80.1603 68.7801 79.7703 68.5501H79.7903ZM82.5703 67.7301C82.9103 67.3201 83.0703 66.7401 83.0703 65.9901C83.0703 65.2401 82.9003 64.6601 82.5703 64.2501C82.2403 63.8401 81.7703 63.6401 81.1603 63.6401C80.5503 63.6401 80.0803 63.8401 79.7403 64.2501C79.4003 64.6601 79.2403 65.2401 79.2403 65.9801C79.2403 66.7201 79.4103 67.3101 79.7403 67.7201C80.0803 68.1301 80.5503 68.3401 81.1603 68.3401C81.7703 68.3401 82.2303 68.1301 82.5703 67.7201V67.7301Z" fill="#231815"/>
<path d="M92.7601 63.1396L90.7701 68.8396H90.2101L88.5901 64.1796L86.9601 68.8396H86.4102L84.4102 63.1396H85.0802L86.7001 67.8996L88.3602 63.1396H88.8602L90.4901 67.9196L92.1201 63.1396H92.7701H92.7601Z" fill="#231815"/>
<path d="M132.641 66.3999C132.821 66.6399 132.911 66.9299 132.911 67.2799C132.911 67.7799 132.741 68.1599 132.411 68.4299C132.081 68.6999 131.611 68.8299 131.011 68.8299H128.641V63.1299H130.931C131.511 63.1299 131.961 63.2599 132.291 63.5199C132.611 63.7799 132.771 64.1399 132.771 64.6199C132.771 64.9199 132.691 65.1899 132.531 65.4099C132.371 65.6299 132.151 65.7999 131.871 65.8999C132.201 65.9899 132.451 66.1499 132.631 66.3899L132.641 66.3999ZM129.301 65.6699H130.841C131.271 65.6699 131.591 65.5899 131.811 65.4099C132.031 65.2299 132.141 64.9899 132.141 64.6599C132.141 64.0099 131.711 63.6799 130.841 63.6799H129.301V65.6599V65.6699ZM131.951 68.0399C132.161 67.8699 132.271 67.6099 132.271 67.2699C132.271 66.5699 131.841 66.2199 130.971 66.2199H129.311V68.2899H130.971C131.421 68.2899 131.751 68.2099 131.961 68.0399H131.951Z" fill="#231815"/>
<path d="M134.09 63.1396H134.75V68.2796H137.61V68.8396H134.1V63.1396H134.09Z" fill="#231815"/>
<path d="M138.769 68.3196C138.389 67.9296 138.199 67.3596 138.199 66.5996V63.1396H138.849V66.6596C138.849 67.2096 138.989 67.6296 139.259 67.9196C139.529 68.2096 139.929 68.3396 140.469 68.3396C141.009 68.3396 141.399 68.1996 141.669 67.9196C141.939 67.6396 142.069 67.2196 142.069 66.6596V63.1396H142.729V66.5996C142.729 67.3496 142.539 67.9196 142.149 68.3096C141.769 68.6996 141.209 68.8896 140.469 68.8896C139.729 68.8896 139.159 68.6996 138.779 68.3096L138.769 68.3196Z" fill="#231815"/>
<path d="M144.08 63.1392H147.68V63.6791H144.73V65.6591H147.52V66.2091H144.73V68.2791H147.68V68.8192H144.08V63.1191V63.1392Z" fill="#231815"/>
<path d="M193.94 65.8693V68.5093C193.72 68.6293 193.42 68.7193 193.06 68.7893C192.7 68.8593 192.33 68.8993 191.96 68.8993C191.39 68.8993 190.91 68.7793 190.5 68.5493C190.09 68.3193 189.78 67.9793 189.56 67.5493C189.34 67.1093 189.24 66.5893 189.24 65.9793C189.24 65.3693 189.35 64.8593 189.56 64.4193C189.78 63.9893 190.09 63.6493 190.49 63.4193C190.89 63.1893 191.37 63.0693 191.92 63.0693C192.32 63.0693 192.69 63.1293 193.02 63.2493C193.35 63.3693 193.64 63.5493 193.88 63.7893L193.62 64.2893C193.34 64.0593 193.07 63.8893 192.81 63.7793C192.55 63.6793 192.25 63.6193 191.92 63.6193C191.27 63.6193 190.78 63.8193 190.44 64.2193C190.1 64.6193 189.92 65.1993 189.92 65.9593C189.92 66.7193 190.1 67.3193 190.45 67.7193C190.8 68.1193 191.31 68.3193 191.99 68.3193C192.46 68.3193 192.92 68.2493 193.36 68.0993V66.3593H191.94V65.8393H193.96L193.94 65.8693Z" fill="#231815"/>
<path d="M199.759 68.8396H199.059L198.359 66.9396C198.269 66.7096 198.159 66.5496 197.999 66.4696C197.839 66.3896 197.629 66.3496 197.359 66.3496H195.939V68.8396H195.289V63.1396H197.549C198.159 63.1396 198.629 63.2797 198.959 63.5497C199.289 63.8197 199.449 64.2096 199.449 64.7296C199.449 65.0996 199.349 65.4196 199.159 65.6696C198.969 65.9196 198.679 66.0996 198.319 66.2096C198.489 66.2396 198.629 66.3096 198.739 66.4196C198.859 66.5296 198.959 66.6996 199.039 66.9096L199.759 68.8396V68.8396ZM197.499 65.8096C198.369 65.8096 198.809 65.4497 198.809 64.7397C198.809 64.3897 198.699 64.1196 198.489 63.9496C198.279 63.7796 197.949 63.6896 197.499 63.6896H195.939V65.8096H197.499Z" fill="#231815"/>
<path d="M204.511 67.3699H201.531L200.901 68.8299H200.221L202.721 63.1299H203.301L205.801 68.8299H205.131L204.511 67.3699V67.3699ZM204.281 66.8299L203.021 63.8999L201.761 66.8299H204.271H204.281Z" fill="#231815"/>
<path d="M208.089 66.5296V68.8297H207.429V66.5197L205.189 63.1396H205.959L207.769 65.9396L209.579 63.1396H210.329L208.089 66.5296V66.5296Z" fill="#231815"/>
<path d="M252.65 66.3999C252.83 66.6399 252.92 66.9299 252.92 67.2799C252.92 67.7799 252.75 68.1599 252.42 68.4299C252.09 68.6999 251.62 68.8299 251.02 68.8299H248.65V63.1299H250.94C251.52 63.1299 251.97 63.2599 252.3 63.5199C252.62 63.7799 252.78 64.1399 252.78 64.6199C252.78 64.9199 252.7 65.1899 252.54 65.4099C252.38 65.6299 252.16 65.7999 251.88 65.8999C252.21 65.9899 252.46 66.1499 252.64 66.3899L252.65 66.3999ZM249.31 65.6699H250.85C251.28 65.6699 251.6 65.5899 251.82 65.4099C252.04 65.2299 252.15 64.9899 252.15 64.6599C252.15 64.0099 251.72 63.6799 250.85 63.6799H249.31V65.6599V65.6699ZM251.96 68.0399C252.17 67.8699 252.28 67.6099 252.28 67.2699C252.28 66.5699 251.85 66.2199 250.98 66.2199H249.32V68.2899H250.98C251.43 68.2899 251.76 68.2099 251.97 68.0399H251.96Z" fill="#231815"/>
<path d="M254.109 63.1396H254.769V68.2796H257.629V68.8396H254.119V63.1396H254.109Z" fill="#231815"/>
<path d="M262.079 67.3699H259.099L258.469 68.8299H257.789L260.289 63.1299H260.869L263.369 68.8299H262.699L262.079 67.3699V67.3699ZM261.849 66.8299L260.589 63.8999L259.329 66.8299H261.839H261.849Z" fill="#231815"/>
<path d="M265.06 68.5501C264.66 68.3201 264.36 67.9801 264.14 67.5401C263.93 67.1001 263.82 66.5801 263.82 65.9801C263.82 65.3801 263.93 64.8701 264.14 64.4301C264.35 63.9901 264.66 63.6601 265.06 63.4301C265.46 63.2001 265.93 63.0801 266.46 63.0801C266.85 63.0801 267.22 63.1401 267.54 63.2601C267.87 63.3801 268.15 63.5601 268.39 63.8001L268.14 64.3001C267.87 64.0701 267.6 63.9001 267.34 63.8001C267.08 63.7001 266.78 63.6501 266.46 63.6501C265.84 63.6501 265.35 63.8501 265.01 64.2601C264.67 64.6701 264.49 65.2401 264.49 65.9901C264.49 66.7401 264.66 67.3201 265 67.7301C265.34 68.1401 265.83 68.3401 266.46 68.3401C266.78 68.3401 267.07 68.2901 267.34 68.1901C267.6 68.0901 267.87 67.9201 268.14 67.6901L268.39 68.1901C268.15 68.4301 267.87 68.6101 267.54 68.7301C267.21 68.8501 266.85 68.9101 266.46 68.9101C265.92 68.9101 265.45 68.7901 265.06 68.5601V68.5501Z" fill="#231815"/>
<path d="M273.1 68.8396L270.16 66.1296V68.8396H269.5V63.1396H270.16V65.7596L272.96 63.1396H273.8L270.82 65.9196L273.95 68.8396H273.09H273.1Z" fill="#231815"/>
</svg>
