<svg width="296" height="92" viewBox="0 0 296 92" fill="none" xmlns="http://www.w3.org/2000/svg">
<path d="M295.72 0.259766H0V78.2598H295.72V0.259766Z" fill="#C9CACA"/>
<path d="M103.13 23.8296C103.35 23.5496 103.43 23.0596 103.43 23.0596H90.0801C90.0801 23.0596 90.2401 23.6096 90.3801 23.8296H103.12H103.13Z" fill="#003477"/>
<path d="M102.361 24.9598C102.611 24.7398 102.861 24.2998 102.861 24.2998H90.6406C90.6406 24.2998 90.7806 24.6298 91.0806 24.9598H102.361Z" fill="#003477"/>
<path d="M101.39 25.9893C101.69 25.8293 101.94 25.4893 101.94 25.4893H91.4902C91.4902 25.4893 91.7402 25.7693 91.9802 25.9893H101.38H101.39Z" fill="#003477"/>
<path d="M100.17 26.9496C100.47 26.8396 100.81 26.5596 100.81 26.5596H92.6602C92.6602 26.5596 92.6601 26.6196 93.2401 26.9496H100.18H100.17Z" fill="#003477"/>
<path d="M94.1702 27.5596C94.1702 27.5596 95.0301 28.0596 96.7101 28.0596C98.3901 28.0596 99.4702 27.5596 99.4702 27.5596H94.1602H94.1702Z" fill="#003477"/>
<path d="M94.0305 28.6895C94.0305 28.6895 95.0506 28.7394 95.6606 29.2094C96.2406 29.7094 96.6906 30.5395 96.6906 30.5395C96.6906 30.5395 97.0505 29.7395 97.6305 29.3295C98.2105 28.8795 99.1505 28.6895 99.1505 28.6895H109.681L111.751 31.7595H102.291C102.291 31.7595 101.631 31.7894 100.631 32.3694C100.101 32.6694 99.7105 33.1995 99.7105 33.1995C99.7105 33.1995 99.6305 33.4495 99.5205 33.5795C99.4105 33.7195 99.3306 33.8295 99.1906 33.8795C99.0506 33.9395 99.0806 33.9095 99.0806 33.9095H94.1606C94.1606 33.9095 93.9605 33.8295 93.8605 33.6595C93.7505 33.4995 93.8306 33.5495 93.7206 33.4195C93.6406 33.2795 93.4405 32.9195 92.7005 32.4195C91.9305 31.9195 91.1805 31.8694 91.1805 31.8694H81.5605L83.6606 28.6895H94.0305V28.6895Z" fill="#003477"/>
<path d="M86.5898 33.0293V48.7293C86.5898 48.7293 86.6498 50.1193 87.8098 51.9893C88.9698 53.8693 90.6498 54.7293 90.6498 54.7293L91.9798 52.6593C91.9798 52.6593 90.8198 51.9693 89.9298 50.6393C89.0798 49.3193 89.0798 48.1793 89.0798 48.1793V33.0293H86.5898V33.0293Z" fill="#003477"/>
<path d="M104.4 32.9795V48.1295C104.4 48.1295 104.21 49.6495 103.49 50.7295C102.77 51.8295 101.58 52.7195 101.58 52.7195L102.86 54.7595C102.86 54.7595 104.79 53.3495 105.73 51.8595C106.67 50.3695 106.9 48.1295 106.9 48.1295V32.9795H104.41H104.4Z" fill="#003477"/>
<path d="M82.6504 33.0293V48.7893C82.6504 48.7893 82.8104 51.2193 84.3304 53.7693C85.8604 56.3093 88.6204 58.0793 88.6204 58.0793L89.9204 56.0093C89.9204 56.0093 88.1504 55.0693 86.7404 52.9093C85.3004 50.7293 85.2204 48.7393 85.2204 48.7393V33.0393H82.6504V33.0293Z" fill="#003477"/>
<path d="M94.0292 34.6895V51.3295C94.0292 51.3295 93.9692 51.3895 93.9492 51.6295C93.9192 51.8795 93.7592 52.0495 93.7592 52.0495L88.1992 61.2595H105.229L99.6692 51.8595L99.4992 51.4395L99.4392 50.9995V34.7195H97.3692V51.6194C97.3692 51.6194 97.3692 51.8594 97.4492 52.0594C97.4992 52.2594 97.6192 52.5495 97.6192 52.5495L101.039 58.1895H92.3592L95.7292 52.5795C95.7292 52.5795 95.8392 52.3895 95.9192 52.1095C95.9792 51.8595 95.9992 51.6194 95.9992 51.6194V34.6895H94.0092H94.0292Z" fill="#003477"/>
<path d="M108.24 32.9797V48.4597C108.24 48.4597 108.22 50.4497 106.75 52.7397C105.29 55.0397 103.6 55.9997 103.6 55.9997L104.85 58.0997C104.85 58.0997 107.39 56.4997 109 53.9497C110.58 51.4097 110.77 48.4497 110.77 48.4497V32.9697H108.25L108.24 32.9797Z" fill="#003477"/>
<path d="M90.0002 22.6097C90.0002 22.6097 89.1402 17.9397 92.5702 15.6097C92.5702 15.6097 94.1202 14.1797 96.6302 14.1797C99.3102 14.1797 100.86 15.5897 100.86 15.5897C104.59 18.3297 103.49 22.6097 103.49 22.6097H90.0002V22.6097Z" fill="#003477"/>
<path d="M206.739 23.8296C206.959 23.5496 207.039 23.0596 207.039 23.0596H193.689C193.689 23.0596 193.859 23.6096 193.999 23.8296H206.739Z" fill="#231815"/>
<path d="M205.96 24.9598C206.21 24.7398 206.46 24.2998 206.46 24.2998H194.24C194.24 24.2998 194.38 24.6298 194.68 24.9598H205.96V24.9598Z" fill="#231815"/>
<path d="M205 25.9893C205.3 25.8293 205.55 25.4893 205.55 25.4893H195.1C195.1 25.4893 195.35 25.7693 195.59 25.9893H204.99H205Z" fill="#231815"/>
<path d="M203.78 26.9496C204.08 26.8396 204.42 26.5596 204.42 26.5596H196.27C196.27 26.5596 196.27 26.6196 196.85 26.9496H203.79H203.78Z" fill="#231815"/>
<path d="M197.78 27.5596C197.78 27.5596 198.64 28.0596 200.32 28.0596C202 28.0596 203.08 27.5596 203.08 27.5596H197.77H197.78Z" fill="#231815"/>
<path d="M197.64 28.6895C197.64 28.6895 198.66 28.7394 199.27 29.2094C199.85 29.7094 200.3 30.5395 200.3 30.5395C200.3 30.5395 200.66 29.7395 201.24 29.3295C201.82 28.8795 202.76 28.6895 202.76 28.6895H213.29L215.36 31.7595H205.9C205.9 31.7595 205.24 31.7894 204.24 32.3694C203.71 32.6694 203.32 33.1995 203.32 33.1995C203.32 33.1995 203.24 33.4495 203.13 33.5795C203.02 33.7195 202.94 33.8295 202.8 33.8795C202.66 33.9395 202.69 33.9095 202.69 33.9095H197.77C197.77 33.9095 197.57 33.8295 197.47 33.6595C197.36 33.4995 197.44 33.5495 197.33 33.4195C197.25 33.2795 197.05 32.9195 196.31 32.4195C195.54 31.9195 194.79 31.8694 194.79 31.8694H185.17L187.27 28.6895H197.64V28.6895Z" fill="#231815"/>
<path d="M190.199 33.0293V48.7293C190.199 48.7293 190.259 50.1193 191.419 51.9893C192.579 53.8693 194.259 54.7293 194.259 54.7293L195.589 52.6593C195.589 52.6593 194.429 51.9693 193.539 50.6393C192.689 49.3193 192.689 48.1793 192.689 48.1793V33.0293H190.199V33.0293Z" fill="#231815"/>
<path d="M208.009 32.9795V48.1295C208.009 48.1295 207.819 49.6495 207.099 50.7295C206.379 51.8295 205.189 52.7195 205.189 52.7195L206.469 54.7595C206.469 54.7595 208.399 53.3495 209.339 51.8595C210.279 50.3695 210.509 48.1295 210.509 48.1295V32.9795H208.019H208.009Z" fill="#231815"/>
<path d="M186.25 33.0293V48.7893C186.25 48.7893 186.41 51.2193 187.93 53.7693C189.46 56.3093 192.22 58.0793 192.22 58.0793L193.52 56.0093C193.52 56.0093 191.75 55.0693 190.34 52.9093C188.9 50.7293 188.82 48.7393 188.82 48.7393V33.0393H186.25V33.0293Z" fill="#231815"/>
<path d="M197.641 34.6895V51.3295C197.641 51.3295 197.581 51.3895 197.561 51.6295C197.531 51.8795 197.371 52.0495 197.371 52.0495L191.811 61.2595H208.841L203.281 51.8595L203.111 51.4395L203.051 50.9995V34.7195H200.981V51.6194C200.981 51.6194 200.981 51.8594 201.061 52.0594C201.111 52.2594 201.231 52.5495 201.231 52.5495L204.651 58.1895H195.971L199.341 52.5795C199.341 52.5795 199.451 52.3895 199.531 52.1095C199.591 51.8595 199.611 51.6194 199.611 51.6194V34.6895H197.621H197.641Z" fill="#231815"/>
<path d="M211.849 32.9797V48.4597C211.849 48.4597 211.829 50.4497 210.359 52.7397C208.899 55.0397 207.209 55.9997 207.209 55.9997L208.459 58.0997C208.459 58.0997 210.999 56.4997 212.609 53.9497C214.189 51.4097 214.379 48.4497 214.379 48.4497V32.9697H211.859L211.849 32.9797Z" fill="#231815"/>
<path d="M193.6 22.6097C193.6 22.6097 192.74 17.9397 196.17 15.6097C196.17 15.6097 197.72 14.1797 200.23 14.1797C202.91 14.1797 204.46 15.5897 204.46 15.5897C208.19 18.3297 207.09 22.6097 207.09 22.6097H193.6Z" fill="#231815"/>
<path d="M91.2891 89.2094C91.4691 89.4494 91.5591 89.7394 91.5591 90.0894C91.5591 90.5894 91.3891 90.9695 91.0591 91.2395C90.7291 91.5095 90.2591 91.6395 89.6591 91.6395H87.2891V85.9395H89.5791C90.1591 85.9395 90.6091 86.0695 90.9391 86.3295C91.2591 86.5895 91.4191 86.9494 91.4191 87.4294C91.4191 87.7294 91.3391 87.9995 91.1791 88.2195C91.0191 88.4395 90.7991 88.6094 90.5191 88.7094C90.8491 88.7994 91.0991 88.9595 91.2791 89.1995L91.2891 89.2094ZM87.9491 88.4795H89.4891C89.9191 88.4795 90.2391 88.3995 90.4591 88.2195C90.6791 88.0395 90.7891 87.7995 90.7891 87.4695C90.7891 86.8195 90.3591 86.4895 89.4891 86.4895H87.9491V88.4695V88.4795ZM90.5991 90.8495C90.8091 90.6795 90.9191 90.4195 90.9191 90.0795C90.9191 89.3795 90.4891 89.0294 89.6191 89.0294H87.9591V91.0995H89.6191C90.0691 91.0995 90.3991 91.0195 90.6091 90.8495H90.5991Z" fill="#231815"/>
<path d="M92.75 85.9492H93.41V91.0892H96.27V91.6492H92.76V85.9492H92.75Z" fill="#231815"/>
<path d="M97.4196 91.1292C97.0396 90.7392 96.8496 90.1692 96.8496 89.4092V85.9492H97.4996V89.4692C97.4996 90.0192 97.6396 90.4392 97.9096 90.7292C98.1796 91.0192 98.5796 91.1492 99.1196 91.1492C99.6596 91.1492 100.05 91.0092 100.32 90.7292C100.59 90.4492 100.72 90.0292 100.72 89.4692V85.9492H101.38V89.4092C101.38 90.1592 101.19 90.7292 100.8 91.1192C100.42 91.5092 99.8596 91.6992 99.1196 91.6992C98.3796 91.6992 97.8096 91.5092 97.4296 91.1192L97.4196 91.1292Z" fill="#231815"/>
<path d="M102.74 85.9497H106.34V86.4897H103.39V88.4697H106.18V89.0197H103.39V91.0897H106.34V91.6297H102.74V85.9297V85.9497Z" fill="#231815"/>
<path d="M192.01 89.2094C192.19 89.4494 192.28 89.7394 192.28 90.0894C192.28 90.5894 192.11 90.9695 191.78 91.2395C191.45 91.5095 190.98 91.6395 190.38 91.6395H188.01V85.9395H190.3C190.88 85.9395 191.33 86.0695 191.66 86.3295C191.98 86.5895 192.14 86.9494 192.14 87.4294C192.14 87.7294 192.06 87.9995 191.9 88.2195C191.74 88.4395 191.52 88.6094 191.24 88.7094C191.57 88.7994 191.82 88.9595 192 89.1995L192.01 89.2094ZM188.67 88.4795H190.21C190.64 88.4795 190.96 88.3995 191.18 88.2195C191.4 88.0395 191.51 87.7995 191.51 87.4695C191.51 86.8195 191.08 86.4895 190.21 86.4895H188.67V88.4695V88.4795ZM191.32 90.8495C191.53 90.6795 191.64 90.4195 191.64 90.0795C191.64 89.3795 191.21 89.0294 190.34 89.0294H188.68V91.0995H190.34C190.79 91.0995 191.12 91.0195 191.33 90.8495H191.32Z" fill="#231815"/>
<path d="M193.471 85.9492H194.131V91.0892H196.991V91.6492H193.481V85.9492H193.471Z" fill="#231815"/>
<path d="M201.44 90.1794H198.46L197.83 91.6395H197.15L199.65 85.9395H200.23L202.73 91.6395H202.06L201.44 90.1794V90.1794ZM201.21 89.6395L199.95 86.7094L198.69 89.6395H201.2H201.21Z" fill="#231815"/>
<path d="M204.42 91.3596C204.02 91.1296 203.72 90.7896 203.5 90.3496C203.29 89.9096 203.18 89.3896 203.18 88.7896C203.18 88.1896 203.29 87.6797 203.5 87.2397C203.71 86.7997 204.02 86.4697 204.42 86.2397C204.82 86.0097 205.29 85.8896 205.82 85.8896C206.21 85.8896 206.58 85.9496 206.9 86.0696C207.23 86.1896 207.51 86.3696 207.75 86.6096L207.5 87.1096C207.23 86.8796 206.96 86.7096 206.7 86.6096C206.44 86.5096 206.14 86.4596 205.82 86.4596C205.2 86.4596 204.71 86.6596 204.37 87.0696C204.03 87.4796 203.85 88.0497 203.85 88.7997C203.85 89.5497 204.02 90.1296 204.36 90.5396C204.7 90.9496 205.19 91.1496 205.82 91.1496C206.14 91.1496 206.43 91.0996 206.7 90.9996C206.96 90.8996 207.23 90.7296 207.5 90.4996L207.75 90.9996C207.51 91.2396 207.23 91.4196 206.9 91.5396C206.57 91.6596 206.21 91.7196 205.82 91.7196C205.28 91.7196 204.81 91.5996 204.42 91.3696V91.3596Z" fill="#231815"/>
<path d="M212.459 91.6492L209.519 88.9392V91.6492H208.859V85.9492H209.519V88.5692L212.319 85.9492H213.159L210.179 88.7292L213.309 91.6492H212.449H212.459Z" fill="#231815"/>
</svg>
