<svg width="259" height="58" viewBox="0 0 259 58" fill="none" xmlns="http://www.w3.org/2000/svg">
<path d="M152.069 17.4798H151.529V11.5898H142.579V17.4798H142.029V11.5898H133.079V17.4798H132.539V11.0498H152.069V17.4798Z" fill="#E50012"/>
<path d="M126.749 4.07973V4.48973H124.369V4.07973H125.309V0.829727L124.429 1.38973V0.919727L125.519 0.219727H125.799V4.07973H126.739H126.749Z" fill="#231815"/>
<path d="M127.068 4.82L128.608 0H129.058L127.508 4.82H127.068Z" fill="#231815"/>
<path d="M131.879 2.66992C132.009 2.84992 132.078 3.06992 132.078 3.33992C132.078 3.70992 131.949 4.00992 131.699 4.21992C131.449 4.42992 131.109 4.53992 130.669 4.53992C130.389 4.53992 130.129 4.48992 129.879 4.39992C129.629 4.30992 129.409 4.17992 129.229 4.00992L129.419 3.62992C129.819 3.95992 130.229 4.11992 130.659 4.11992C130.959 4.11992 131.189 4.04992 131.349 3.91992C131.509 3.78992 131.589 3.57992 131.589 3.31992C131.589 2.79992 131.258 2.52992 130.608 2.52992H130.118V2.11992H130.518C130.838 2.11992 131.079 2.04992 131.249 1.90992C131.419 1.76992 131.499 1.56992 131.499 1.30992C131.499 1.07992 131.429 0.899922 131.289 0.779922C131.149 0.659922 130.958 0.589922 130.708 0.589922C130.298 0.589922 129.899 0.749922 129.499 1.07992L129.309 0.699922C129.479 0.539922 129.689 0.409922 129.939 0.309922C130.189 0.209922 130.449 0.169922 130.719 0.169922C131.099 0.169922 131.409 0.269922 131.639 0.459922C131.869 0.659922 131.979 0.919922 131.979 1.24992C131.979 1.48992 131.918 1.70992 131.798 1.88992C131.678 2.06992 131.508 2.20992 131.298 2.28992C131.548 2.35992 131.739 2.48992 131.879 2.65992V2.66992Z" fill="#231815"/>
<path d="M137.939 4.48973H137.359L136.029 2.67973L134.709 4.48973H134.119L135.749 2.29973L134.199 0.219727H134.789L136.039 1.93973L137.289 0.219727H137.869L136.319 2.30973L137.949 4.48973H137.939Z" fill="#231815"/>
<path d="M148.79 4.18008V4.59008H146.41V4.18008H147.35V0.940078L146.47 1.50008V1.03008L147.56 0.330078H147.84V4.19008H148.78L148.79 4.18008Z" fill="#231815"/>
<path d="M149.1 4.93035L150.64 0.110352H151.09L149.54 4.93035H149.1Z" fill="#231815"/>
<path d="M153.91 2.77051C154.04 2.95051 154.11 3.17051 154.11 3.44051C154.11 3.81051 153.98 4.11051 153.73 4.32051C153.48 4.53051 153.14 4.64051 152.7 4.64051C152.42 4.64051 152.16 4.59051 151.91 4.50051C151.66 4.41051 151.44 4.28051 151.27 4.11051L151.46 3.73051C151.86 4.06051 152.27 4.22051 152.7 4.22051C153 4.22051 153.24 4.15051 153.39 4.02051C153.54 3.89051 153.63 3.68051 153.63 3.42051C153.63 2.90051 153.3 2.63051 152.65 2.63051H152.16V2.22051H152.56C152.88 2.22051 153.12 2.15051 153.29 2.01051C153.46 1.87051 153.54 1.67051 153.54 1.41051C153.54 1.18051 153.47 1.00051 153.33 0.880508C153.19 0.760508 153 0.690508 152.75 0.690508C152.34 0.690508 151.94 0.850508 151.54 1.18051L151.35 0.800508C151.52 0.640508 151.73 0.510508 151.98 0.410508C152.23 0.310508 152.49 0.270508 152.76 0.270508C153.14 0.270508 153.45 0.370508 153.68 0.560508C153.91 0.760508 154.02 1.02051 154.02 1.35051C154.02 1.59051 153.96 1.81051 153.84 1.99051C153.72 2.17051 153.55 2.31051 153.34 2.39051C153.59 2.46051 153.78 2.59051 153.92 2.76051L153.91 2.77051Z" fill="#231815"/>
<path d="M159.97 4.60008H159.39L158.06 2.79008L156.74 4.60008H156.15L157.78 2.41008L156.23 0.330078H156.82L158.07 2.05008L159.32 0.330078H159.9L158.35 2.42008L159.98 4.60008H159.97Z" fill="#231815"/>
<path d="M13.3496 54.6901H7.09961V26.6201H13.3496V27.1601H7.63962V54.1501H13.3496V54.6901Z" fill="#E50012"/>
<path d="M0.839996 37.4805H1.38L2.48999 39.2805L3.60999 37.4805H4.14001L2.76001 39.7205L4.23001 42.1005H3.69L2.48999 40.1605L1.29001 42.1005H0.75L2.22 39.7205L0.839996 37.4805V37.4805Z" fill="#231815"/>
<path d="M39.9306 34.1794H39.1406V28.5794H37.6406V27.8594H41.4306V28.5794H39.9306V34.1794Z" fill="#003477"/>
<path d="M45.8605 30.4094V27.8594H46.6406V34.1694H45.8605V31.1394H42.8506V34.1694H42.0605V27.8594H42.8506V30.4094H45.8605Z" fill="#003477"/>
<path d="M47.8691 27.8594H51.2592V28.5794H48.6491V30.3494H51.1791V31.0694H48.6491V33.4594H51.2592V34.1794H47.8691V27.8594Z" fill="#003477"/>
<path d="M58.5403 30.4094V27.8594H59.3203V34.1694H58.5403V31.1394H55.5302V34.1694H54.7402V27.8594H55.5302V30.4094H58.5403Z" fill="#003477"/>
<path d="M65.9296 31.0195C65.9296 29.6295 64.8896 28.4695 63.4096 28.4695C61.9296 28.4695 60.8896 29.6295 60.8896 31.0195C60.8896 32.4095 62.0396 33.5695 63.4096 33.5695C64.7796 33.5695 65.9296 32.4595 65.9296 31.0195ZM66.7196 31.0195C66.7196 32.8995 65.2396 34.3095 63.4096 34.3095C61.5796 34.3095 60.0996 32.8895 60.0996 31.0195C60.0996 29.1495 61.5996 27.7295 63.4096 27.7295C65.2196 27.7295 66.7196 29.2095 66.7196 31.0195" fill="#003477"/>
<path d="M67.4805 27.5596L72.2205 32.5296V27.8596H73.0105V34.4296L68.2704 29.4696V34.1796H67.4805V27.5596Z" fill="#003477"/>
<path d="M79.9593 30.9897V31.2397C79.9593 32.9697 78.7393 34.2997 76.9693 34.2997C75.1993 34.2997 73.7793 32.7797 73.7793 31.0297C73.7793 29.2797 75.2393 27.7197 77.0493 27.7197C78.0293 27.7197 78.9993 28.1597 79.6193 28.9397L79.0693 29.4697C78.6193 28.8497 77.8593 28.4397 77.0893 28.4397C75.6793 28.4397 74.5693 29.5897 74.5693 30.9997C74.5693 32.3197 75.6593 33.5797 77.0193 33.5797C77.9993 33.5797 79.0493 32.7297 79.0893 31.6997H77.4593V30.9797H79.9593V30.9897Z" fill="#003477"/>
<path d="M86.7901 27.8594H87.8201L84.9901 30.6994L87.8701 34.1794H86.8101L84.4301 31.2394L84.1201 31.5394V34.1794H83.3301V27.8594H84.1201V30.5994L86.7901 27.8594Z" fill="#003477"/>
<path d="M93.8203 31.0195C93.8203 29.6295 92.7802 28.4695 91.3002 28.4695C89.8202 28.4695 88.7802 29.6295 88.7802 31.0195C88.7802 32.4095 89.9302 33.5695 91.3002 33.5695C92.6702 33.5695 93.8203 32.4595 93.8203 31.0195ZM94.6102 31.0195C94.6102 32.8995 93.1302 34.3095 91.3002 34.3095C89.4702 34.3095 87.9902 32.8895 87.9902 31.0195C87.9902 29.1495 89.4902 27.7295 91.3002 27.7295C93.1102 27.7295 94.6102 29.2095 94.6102 31.0195" fill="#003477"/>
<path d="M95.3691 27.5596L100.109 32.5296V27.8596H100.899V34.4296L96.1591 29.4696V34.1796H95.3691V27.5596Z" fill="#003477"/>
<path d="M107.85 30.9897V31.2397C107.85 32.9697 106.63 34.2997 104.86 34.2997C103.09 34.2997 101.67 32.7797 101.67 31.0297C101.67 29.2797 103.13 27.7197 104.94 27.7197C105.92 27.7197 106.89 28.1597 107.51 28.9397L106.96 29.4697C106.51 28.8497 105.75 28.4397 104.98 28.4397C103.57 28.4397 102.46 29.5897 102.46 30.9997C102.46 32.3197 103.55 33.5797 104.91 33.5797C105.89 33.5797 106.94 32.7297 106.98 31.6997H105.35V30.9797H107.85V30.9897Z" fill="#003477"/>
<path d="M38.9091 37.9102V41.6302C38.9091 42.6602 39.2191 43.6102 40.4291 43.6102C41.6391 43.6102 41.9492 42.6602 41.9492 41.6302V37.9102H42.7391V41.9002C42.7391 43.2902 41.8791 44.3502 40.4291 44.3502C38.9791 44.3502 38.1191 43.2902 38.1191 41.9002V37.9102H38.9091Z" fill="#003477"/>
<path d="M43.8398 37.5996L48.5798 42.5696V37.9096H49.3598V44.4796L44.6299 39.5096V44.2196H43.8398V37.5996Z" fill="#003477"/>
<path d="M51.329 37.9102H50.5391V44.2202H51.329V37.9102Z" fill="#003477"/>
<path d="M54.6797 42.5802L56.5497 37.9102H57.4197L54.6797 44.5502L51.9297 37.9102H52.7897L54.6797 42.5802Z" fill="#003477"/>
<path d="M58.0293 37.9102H61.4193V38.6302H58.8193V40.3902H61.3493V41.1102H58.8193V43.5002H61.4193V44.2202H58.0293V37.9102Z" fill="#003477"/>
<path d="M63.2704 40.8894H63.5204C64.3204 40.8894 65.1905 40.7394 65.1905 39.7394C65.1905 38.7394 64.2505 38.6094 63.4705 38.6094H63.2605V40.8994L63.2704 40.8894ZM66.4105 44.2094H65.4604L63.6005 41.5394H63.2704V44.2094H62.4805V37.8994H63.4305C63.9905 37.8994 64.5905 37.8994 65.1005 38.1894C65.6305 38.4994 65.9305 39.0894 65.9305 39.6994C65.9305 40.5994 65.3305 41.3594 64.4105 41.4694L66.4005 44.2194L66.4105 44.2094Z" fill="#003477"/>
<path d="M69.9095 39.0995C69.6795 38.7095 69.3695 38.4995 68.8995 38.4995C68.3995 38.4995 67.8395 38.8395 67.8395 39.3995C67.8395 39.8895 68.3295 40.1495 68.7195 40.2995L69.1696 40.4795C70.0596 40.8295 70.7395 41.3295 70.7395 42.3795C70.7395 43.5295 69.8495 44.3495 68.7195 44.3495C67.6995 44.3495 66.8995 43.5995 66.7695 42.5795L67.5595 42.4095C67.5595 43.0995 68.0995 43.6095 68.7795 43.6095C69.4595 43.6095 69.9395 43.0395 69.9395 42.3795C69.9395 41.7195 69.3995 41.4095 68.8495 41.1795L68.4095 40.9995C67.6895 40.6895 67.0396 40.2795 67.0396 39.3995C67.0396 38.3795 67.9395 37.7695 68.8995 37.7695C69.5995 37.7695 70.1795 38.1095 70.5195 38.7195L69.8896 39.0995H69.9095Z" fill="#003477"/>
<path d="M72.4502 37.9102H71.6602V44.2202H72.4502V37.9102Z" fill="#003477"/>
<path d="M75.4089 44.2202H74.6189V38.6302H73.1289V37.9102H76.9089V38.6302H75.4089V44.2202Z" fill="#003477"/>
<path d="M76.959 37.9102H77.859L79.409 40.6002L80.959 37.9102H81.859L79.799 41.4702V44.2202H79.019V41.4702L76.959 37.9102Z" fill="#003477"/>
<path d="M90.3788 41.0595C90.3788 39.6695 89.3388 38.5095 87.8588 38.5095C86.3788 38.5095 85.3388 39.6695 85.3388 41.0595C85.3388 42.4495 86.4988 43.6095 87.8588 43.6095C89.2188 43.6095 90.3788 42.4995 90.3788 41.0595ZM91.1689 41.0595C91.1689 42.9395 89.6888 44.3495 87.8588 44.3495C86.0288 44.3495 84.5488 42.9295 84.5488 41.0595C84.5488 39.1895 86.0488 37.7695 87.8588 37.7695C89.6688 37.7695 91.1689 39.2495 91.1689 41.0595Z" fill="#003477"/>
<path d="M92.79 38.6302V40.4002H94.98V41.1202H92.79V44.2202H92V37.9102H95.06V38.6302H92.79Z" fill="#003477"/>
<path d="M101.37 39.0995C101.14 38.7095 100.83 38.4995 100.36 38.4995C99.8902 38.4995 99.3102 38.8395 99.3102 39.3995C99.3102 39.8895 99.8002 40.1495 100.19 40.2995L100.64 40.4795C101.53 40.8295 102.21 41.3295 102.21 42.3795C102.21 43.5295 101.32 44.3495 100.19 44.3495C99.1702 44.3495 98.3702 43.5995 98.2402 42.5795L99.0403 42.4095C99.0403 43.0995 99.5803 43.6095 100.26 43.6095C100.94 43.6095 101.42 43.0395 101.42 42.3795C101.42 41.7195 100.88 41.4095 100.33 41.1795L99.8903 40.9995C99.1703 40.6895 98.5202 40.2795 98.5202 39.3995C98.5202 38.3795 99.4202 37.7695 100.38 37.7695C101.08 37.7695 101.66 38.1095 102 38.7195L101.37 39.0995V39.0995Z" fill="#003477"/>
<path d="M107.739 39.1095C107.289 38.7095 106.669 38.4895 106.069 38.4895C104.649 38.4895 103.579 39.6695 103.579 41.0695C103.579 42.4695 104.649 43.6295 106.059 43.6295C106.679 43.6295 107.269 43.3995 107.739 42.9795V43.9095C107.249 44.1895 106.629 44.3495 106.079 44.3495C104.279 44.3495 102.789 42.9195 102.789 41.0895C102.789 39.2595 104.289 37.7695 106.149 37.7695C106.699 37.7695 107.259 37.8995 107.739 38.1995V39.1095V39.1095Z" fill="#003477"/>
<path d="M109.52 37.9102H108.73V44.2202H109.52V37.9102Z" fill="#003477"/>
<path d="M110.779 37.9102H114.169V38.6302H111.569V40.3902H114.099V41.1102H111.569V43.5002H114.169V44.2202H110.779V37.9102Z" fill="#003477"/>
<path d="M115.15 37.5996L119.89 42.5696V37.9096H120.68V44.4796L115.94 39.5096V44.2196H115.15V37.5996Z" fill="#003477"/>
<path d="M126.479 39.1095C126.029 38.7095 125.409 38.4895 124.809 38.4895C123.389 38.4895 122.319 39.6695 122.319 41.0695C122.319 42.4695 123.389 43.6295 124.799 43.6295C125.419 43.6295 126.009 43.3995 126.479 42.9795V43.9095C125.989 44.1895 125.369 44.3495 124.819 44.3495C123.019 44.3495 121.529 42.9195 121.529 41.0895C121.529 39.2595 123.029 37.7695 124.889 37.7695C125.439 37.7695 125.999 37.8995 126.479 38.1995V39.1095V39.1095Z" fill="#003477"/>
<path d="M127.5 37.9102H130.89V38.6302H128.28V40.3902H130.81V41.1102H128.28V43.5002H130.89V44.2202H127.5V37.9102Z" fill="#003477"/>
<path d="M40.5688 49.3999L39.4489 51.9499H41.6888L40.5688 49.3999ZM39.1188 52.6699L38.3988 54.2499H37.5488L40.5588 47.6699L43.5688 54.2499H42.7188L41.9988 52.6699H39.0988H39.1188Z" fill="#003477"/>
<path d="M44.1191 47.6494L48.8591 52.6094V47.9494H49.6491V54.5194L44.9091 49.5494V54.2594H44.1191V47.6494Z" fill="#003477"/>
<path d="M51.5693 53.5402H51.8493C53.4593 53.5402 54.8493 52.9402 54.8493 51.1002C54.8493 49.2602 53.4593 48.6702 51.8493 48.6702H51.5693V53.5402ZM50.7793 47.9502H52.0893C54.0193 47.9502 55.6293 48.9702 55.6293 51.0702C55.6293 53.1702 54.0593 54.2602 52.0593 54.2602H50.7793V47.9502V47.9502Z" fill="#003477"/>
<path d="M60.6999 54.2602H59.9199V48.6702H58.4199V47.9502H62.1999V48.6702H60.6999V54.2602Z" fill="#003477"/>
<path d="M62.9102 47.9502H66.3001V48.6702H63.6902V50.4302H66.2202V51.1502H63.6902V53.5402H66.3001V54.2602H62.9102V47.9502Z" fill="#003477"/>
<path d="M71.9503 49.1496C71.5003 48.7496 70.8802 48.5296 70.2802 48.5296C68.8602 48.5296 67.7802 49.7096 67.7802 51.1096C67.7802 52.5096 68.8503 53.6696 70.2603 53.6696C70.8803 53.6696 71.4702 53.4296 71.9402 53.0196V53.9496C71.4502 54.2396 70.8302 54.3896 70.2802 54.3896C68.4802 54.3896 66.9902 52.9596 66.9902 51.1296C66.9902 49.2996 68.4903 47.8096 70.3503 47.8096C70.9003 47.8096 71.4602 47.9396 71.9402 48.2396V49.1496H71.9503Z" fill="#003477"/>
<path d="M76.6904 50.4902V47.9502H77.4804V54.2602H76.6904V51.2302H73.6904V54.2602H72.9004V47.9502H73.6904V50.4902H76.6904Z" fill="#003477"/>
<path d="M78.6289 47.6494L83.3589 52.6094V47.9494H84.1489V54.5194L79.4089 49.5494V54.2594H78.6289V47.6494Z" fill="#003477"/>
<path d="M90.7401 51.0996C90.7401 49.7096 89.7002 48.5496 88.2202 48.5496C86.7402 48.5496 85.7002 49.7096 85.7002 51.0996C85.7002 52.4896 86.8602 53.6496 88.2202 53.6496C89.5802 53.6496 90.7401 52.5396 90.7401 51.0996ZM91.5302 51.0996C91.5302 52.9796 90.0502 54.3896 88.2202 54.3896C86.3902 54.3896 84.9102 52.9696 84.9102 51.0996C84.9102 49.2296 86.4102 47.8096 88.2202 47.8096C90.0302 47.8096 91.5302 49.2896 91.5302 51.0996Z" fill="#003477"/>
<path d="M93.1591 53.5402H95.0692V54.2602H92.3691V47.9502H93.1591V53.5402Z" fill="#003477"/>
<path d="M101.06 51.0996C101.06 49.7096 100.02 48.5496 98.5405 48.5496C97.0605 48.5496 96.0204 49.7096 96.0204 51.0996C96.0204 52.4896 97.1805 53.6496 98.5405 53.6496C99.9005 53.6496 101.06 52.5396 101.06 51.0996ZM101.85 51.0996C101.85 52.9796 100.37 54.3896 98.5405 54.3896C96.7105 54.3896 95.2305 52.9696 95.2305 51.0996C95.2305 49.2296 96.7305 47.8096 98.5405 47.8096C100.35 47.8096 101.85 49.2896 101.85 51.0996Z" fill="#003477"/>
<path d="M108.44 51.0796V51.3296C108.44 53.0596 107.22 54.3896 105.45 54.3896C103.68 54.3896 102.26 52.8696 102.26 51.1196C102.26 49.3696 103.72 47.8096 105.53 47.8096C106.51 47.8096 107.48 48.2496 108.1 49.0296L107.55 49.5596C107.1 48.9396 106.34 48.5296 105.57 48.5296C104.16 48.5296 103.05 49.6796 103.05 51.0896C103.05 52.4096 104.14 53.6696 105.5 53.6696C106.48 53.6696 107.53 52.8196 107.57 51.7896H105.94V51.0696H108.44V51.0796Z" fill="#003477"/>
<path d="M108.65 47.9502H109.55L111.1 50.6402L112.65 47.9502H113.55L111.49 51.5102V54.2602H110.71V51.5102L108.65 47.9502Z" fill="#003477"/>
<path d="M30.0206 54.4097L26.7906 49.0297C26.7906 49.0297 26.6906 48.9097 26.6906 48.6997V38.7197H25.4706V49.0197C25.5706 49.1197 27.6006 52.5897 27.6006 52.5897H22.5606C22.5606 52.5897 24.5906 49.1197 24.6906 49.0197V38.7197H23.4706V48.6997C23.4706 48.8997 23.3706 49.0297 23.3706 49.0297L20.1406 54.4097H30.0106H30.0206Z" fill="#A98320"/>
<path d="M29.0191 31.7398C29.0191 31.7398 29.6291 29.2198 27.4591 27.5798C27.4591 27.5798 26.5891 26.7998 24.9391 26.7998C23.4691 26.7998 22.5991 27.5798 22.5991 27.5798C20.6091 28.9698 21.1191 31.7398 21.1191 31.7398H29.0191Z" fill="#A98320"/>
<path d="M21.3687 32.43H28.7888C28.8488 32.29 28.8988 32.14 28.9388 32H21.2188C21.2587 32.15 21.3087 32.29 21.3687 32.43" fill="#A98320"/>
<path d="M28.6802 32.6895H21.4902C21.5602 32.8395 21.6502 32.9795 21.7402 33.1195H28.4302C28.5202 32.9795 28.6002 32.8395 28.6802 32.6895Z" fill="#A98320"/>
<path d="M22.2199 33.7299H27.9399C28.0499 33.6199 28.1499 33.5099 28.2399 33.3799H21.9199C22.0099 33.4999 22.1099 33.6199 22.2199 33.7299" fill="#A98320"/>
<path d="M22.84 34.2502H27.32C27.44 34.1702 27.55 34.0802 27.66 33.9902H22.5C22.61 34.0802 22.72 34.1702 22.84 34.2502" fill="#A98320"/>
<path d="M23.459 34.5996C23.959 34.8196 24.509 34.9496 25.079 34.9496C25.649 34.9496 26.199 34.8296 26.699 34.5996H23.459Z" fill="#A98320"/>
<path d="M32.7797 35.1396H26.7097C26.7097 35.1396 26.1497 35.1396 25.6997 35.4496C25.3497 35.6896 25.1097 36.2396 25.0897 36.2696C25.0897 36.2696 24.8297 35.6896 24.4797 35.4496C24.0297 35.1396 23.4697 35.1396 23.4697 35.1396H17.3997L16.1797 37.0797H21.7397C21.7397 37.0797 21.8997 37.0796 22.0097 37.0996C22.1697 37.1296 22.4597 37.2096 22.7597 37.4296C23.1697 37.7296 23.2897 37.8796 23.3897 37.9796L23.5697 38.2096H26.6097L26.7897 37.9796C26.8897 37.8796 27.0097 37.7296 27.4197 37.4296C27.7197 37.2096 28.0097 37.1296 28.1697 37.0996C28.2697 37.0796 28.4397 37.0797 28.4397 37.0797H33.9997L32.7797 35.1396V35.1396Z" fill="#003477"/>
<path d="M16.7891 37.6699V46.9099C16.7891 47.0099 16.7891 47.0999 16.8091 47.1799C16.9091 48.1599 17.2091 48.8799 17.7791 49.8299C18.6691 51.3199 20.2891 52.3599 20.2891 52.3599L21.049 51.1499C21.049 51.1499 20.0091 50.5999 19.1891 49.3299C19.0191 49.0799 18.859 48.8399 18.739 48.6099C18.629 48.3899 18.549 48.2099 18.489 48.0099C18.439 47.8699 18.3991 47.7399 18.3791 47.6299C18.3391 47.4599 18.3191 47.3299 18.3091 47.1699C18.3091 47.1099 18.299 46.8799 18.299 46.8799V37.6799H16.7891V37.6699Z" fill="#003477"/>
<path d="M19.0996 37.6699V46.9499C19.0996 46.9499 19.1096 47.0599 19.1196 47.1099L19.1396 47.2099C19.1696 47.3499 19.1996 47.4799 19.2596 47.6699C19.3596 47.9799 19.5496 48.3499 19.8096 48.7799C20.4896 49.8799 21.4796 50.3899 21.4796 50.3899L22.2396 49.1999C22.2396 49.1999 21.9896 49.0599 21.6796 48.7699C21.4796 48.5799 21.2396 48.3199 21.0296 48.0099C20.8296 47.6999 20.6996 47.3799 20.6296 47.1399C20.5696 46.9399 20.5596 46.7799 20.5596 46.6799C20.5596 46.5999 20.5596 46.5499 20.5596 46.5499V37.6699H19.0996V37.6699Z" fill="#003477"/>
<path d="M33.3889 37.6699V46.9099C33.3889 47.0099 33.3889 47.0999 33.3689 47.1799C33.2689 48.1599 32.9689 48.8799 32.3989 49.8299C31.5089 51.3199 29.8889 52.3599 29.8889 52.3599L29.1289 51.1499C29.1289 51.1499 30.1689 50.5999 30.9889 49.3299C31.1589 49.0799 31.3189 48.8399 31.4389 48.6099C31.5489 48.3899 31.6289 48.2099 31.6889 48.0099C31.7389 47.8699 31.7789 47.7399 31.7989 47.6299C31.8389 47.4599 31.8589 47.3299 31.8689 47.1699C31.8689 47.1099 31.8789 46.8799 31.8789 46.8799V37.6799H33.3889V37.6699Z" fill="#003477"/>
<path d="M31.0697 37.6699V46.9499C31.0697 46.9499 31.0597 47.0599 31.0497 47.1099L31.0297 47.2099C30.9997 47.3499 30.9697 47.4799 30.9097 47.6699C30.8097 47.9799 30.6197 48.3499 30.3597 48.7799C29.6797 49.8799 28.6897 50.3899 28.6897 50.3899L27.9297 49.1999C27.9297 49.1999 28.1797 49.0599 28.4897 48.7699C28.6897 48.5799 28.9297 48.3199 29.1397 48.0099C29.3397 47.6999 29.4697 47.3799 29.5397 47.1399C29.5997 46.9399 29.6097 46.7799 29.6097 46.6799C29.6097 46.5999 29.6097 46.5499 29.6097 46.5499V37.6699H31.0697V37.6699Z" fill="#003477"/>
<path d="M142.99 23.3203H142.42V57.9903H142.99V23.3203Z" fill="#003477"/>
<path d="M258.879 24.9297H147.619V56.3697H258.879V24.9297Z" fill="#C5C5C5"/>
<path d="M157.19 32.9594V37.9494C157.19 38.6994 157 39.2594 156.61 39.6494C156.23 40.0294 155.66 40.2294 154.92 40.2294C154.18 40.2294 153.49 40.0594 152.94 39.7094L153.08 39.0494C153.4 39.2294 153.7 39.3594 153.99 39.4394C154.27 39.5194 154.58 39.5594 154.93 39.5594C155.42 39.5594 155.78 39.4294 156.03 39.1794C156.28 38.9194 156.4 38.5394 156.4 38.0394V36.8494C156.25 37.1694 156.02 37.4194 155.73 37.5994C155.43 37.7794 155.08 37.8594 154.67 37.8594C154.23 37.8594 153.84 37.7594 153.5 37.5494C153.16 37.3394 152.89 37.0494 152.71 36.6694C152.52 36.2894 152.43 35.8494 152.43 35.3594C152.43 34.8694 152.52 34.4294 152.71 34.0494C152.9 33.6694 153.16 33.3794 153.5 33.1694C153.84 32.9594 154.23 32.8594 154.67 32.8594C155.07 32.8594 155.42 32.9494 155.71 33.1194C156.01 33.2894 156.23 33.5394 156.38 33.8494V32.9794H157.19V32.9594ZM155.97 36.6694C156.25 36.3494 156.38 35.8994 156.38 35.3394C156.38 34.7794 156.24 34.3294 155.97 34.0094C155.69 33.6894 155.31 33.5294 154.82 33.5294C154.33 33.5294 153.94 33.6894 153.65 34.0094C153.37 34.3294 153.22 34.7794 153.22 35.3394C153.22 35.8994 153.36 36.3494 153.65 36.6694C153.93 36.9894 154.32 37.1594 154.82 37.1594C155.32 37.1594 155.69 36.9994 155.97 36.6694Z" fill="#231815"/>
<path d="M161.55 32.8998L161.53 33.6398C161.38 33.5898 161.2 33.5598 161 33.5598C160.51 33.5598 160.15 33.7098 159.92 34.0198C159.68 34.3198 159.56 34.6898 159.56 35.1198V37.9898H158.75V34.3698C158.75 33.8498 158.72 33.3798 158.67 32.9598H159.44L159.52 33.8898C159.65 33.5498 159.85 33.2898 160.13 33.1098C160.41 32.9298 160.73 32.8398 161.09 32.8398C161.26 32.8398 161.41 32.8598 161.55 32.8998V32.8998Z" fill="#231815"/>
<path d="M166.699 32.9591V37.9891H165.899V37.0791C165.749 37.3891 165.529 37.6291 165.229 37.8091C164.929 37.9791 164.589 38.0591 164.189 38.0591C163.739 38.0591 163.349 37.9491 163.019 37.7391C162.679 37.5291 162.419 37.2291 162.239 36.8291C162.059 36.4391 161.959 35.9891 161.959 35.4691C161.959 34.9491 162.049 34.4891 162.239 34.0891C162.429 33.6891 162.689 33.3791 163.029 33.1591C163.369 32.9391 163.759 32.8291 164.199 32.8291C164.589 32.8291 164.939 32.9191 165.229 33.0891C165.519 33.2591 165.749 33.5091 165.899 33.8191V32.9491H166.699V32.9591ZM165.499 36.8791C165.769 36.5391 165.899 36.0691 165.899 35.4491C165.899 34.8291 165.769 34.3491 165.499 34.0191C165.229 33.6891 164.849 33.5191 164.359 33.5191C163.869 33.5191 163.479 33.6891 163.199 34.0291C162.919 34.3691 162.779 34.8491 162.779 35.4691C162.779 36.0891 162.919 36.5591 163.189 36.8891C163.459 37.2191 163.849 37.3891 164.349 37.3891C164.849 37.3891 165.219 37.2191 165.489 36.8791H165.499Z" fill="#231815"/>
<path d="M171.949 33.1698C172.289 33.3898 172.549 33.6998 172.739 34.0998C172.929 34.4998 173.019 34.9498 173.019 35.4798C173.019 36.0098 172.929 36.4498 172.739 36.8398C172.549 37.2298 172.289 37.5298 171.949 37.7498C171.609 37.9598 171.219 38.0698 170.779 38.0698C170.389 38.0698 170.039 37.9798 169.749 37.8098C169.459 37.6398 169.229 37.3898 169.079 37.0698V40.1598H168.269V34.3798C168.269 33.8598 168.239 33.3898 168.189 32.9698H168.959L169.039 33.9398C169.179 33.5898 169.399 33.3198 169.699 33.1298C169.999 32.9398 170.359 32.8398 170.779 32.8398C171.219 32.8398 171.609 32.9498 171.949 33.1698V33.1698ZM171.769 36.8898C172.039 36.5598 172.179 36.0798 172.179 35.4698C172.179 34.8598 172.039 34.3798 171.769 34.0298C171.499 33.6898 171.119 33.5198 170.629 33.5198C170.139 33.5198 169.749 33.6898 169.479 34.0198C169.209 34.3498 169.079 34.8298 169.079 35.4498C169.079 36.0698 169.209 36.5498 169.479 36.8798C169.749 37.2198 170.129 37.3898 170.629 37.3898C171.129 37.3898 171.509 37.2198 171.769 36.8898V36.8898Z" fill="#231815"/>
<path d="M178.59 34.8289V37.9889H177.78V34.8689C177.78 34.3989 177.69 34.0589 177.5 33.8489C177.31 33.6289 177.02 33.5189 176.62 33.5189C176.15 33.5189 175.78 33.6589 175.5 33.9489C175.22 34.2389 175.08 34.6189 175.08 35.1089V37.9889H174.27V30.6289H175.08V33.7789C175.24 33.4689 175.47 33.2389 175.77 33.0789C176.07 32.9189 176.399 32.8389 176.789 32.8389C177.999 32.8389 178.599 33.4989 178.599 34.8289H178.59Z" fill="#231815"/>
<path d="M181.029 30.8291V31.7491H180.039V30.8291H181.029ZM180.119 32.9591H180.929V37.9891H180.119V32.9591Z" fill="#231815"/>
<path d="M183.329 37.7391C182.969 37.5291 182.689 37.2291 182.489 36.8291C182.289 36.4391 182.199 35.9891 182.199 35.4691C182.199 34.9491 182.299 34.4891 182.499 34.0891C182.699 33.6891 182.989 33.3791 183.359 33.1591C183.729 32.9391 184.159 32.8291 184.649 32.8291C184.989 32.8291 185.319 32.8891 185.639 33.0091C185.959 33.1291 186.219 33.2891 186.429 33.4891L186.159 34.0891C185.909 33.8891 185.659 33.7391 185.429 33.6491C185.189 33.5591 184.949 33.5091 184.709 33.5091C184.199 33.5091 183.789 33.6791 183.499 34.0191C183.209 34.3591 183.059 34.8391 183.059 35.4591C183.059 36.0791 183.199 36.5391 183.489 36.8691C183.779 37.2091 184.189 37.3791 184.709 37.3791C184.959 37.3791 185.199 37.3291 185.429 37.2391C185.669 37.1491 185.909 36.9991 186.159 36.7991L186.429 37.3991C186.219 37.5991 185.949 37.7591 185.619 37.8691C185.299 37.9891 184.959 38.0491 184.619 38.0491C184.129 38.0491 183.709 37.9391 183.339 37.7291L183.329 37.7391Z" fill="#231815"/>
<path d="M193.741 33.1596C194.081 33.3696 194.341 33.6696 194.531 34.0696C194.721 34.4596 194.811 34.9096 194.811 35.4396C194.811 35.9696 194.721 36.4196 194.531 36.8196C194.341 37.2196 194.081 37.5197 193.741 37.7397C193.401 37.9597 193.011 38.0696 192.571 38.0696C192.181 38.0696 191.831 37.9797 191.541 37.8097C191.251 37.6397 191.021 37.3896 190.871 37.0696V37.9996H190.061V30.6396H190.871V33.8596C191.021 33.5296 191.241 33.2796 191.541 33.1096C191.841 32.9396 192.181 32.8496 192.581 32.8496C193.021 32.8496 193.411 32.9596 193.751 33.1696L193.741 33.1596ZM193.561 36.8696C193.831 36.5296 193.971 36.0396 193.971 35.4296C193.971 34.8196 193.841 34.3496 193.561 34.0196C193.291 33.6896 192.911 33.5196 192.411 33.5196C191.911 33.5196 191.531 33.6896 191.261 34.0196C190.991 34.3496 190.861 34.8296 190.861 35.4496C190.861 36.0696 190.991 36.5497 191.261 36.8797C191.531 37.2197 191.911 37.3896 192.411 37.3896C192.911 37.3896 193.281 37.2196 193.551 36.8696H193.561Z" fill="#231815"/>
<path d="M198.86 32.8998L198.841 33.6398C198.691 33.5898 198.51 33.5598 198.31 33.5598C197.82 33.5598 197.46 33.7098 197.22 34.0198C196.98 34.3198 196.87 34.6898 196.87 35.1198V37.9898H196.06V34.3698C196.06 33.8498 196.03 33.3798 195.98 32.9598H196.75L196.831 33.8898C196.961 33.5498 197.16 33.2898 197.44 33.1098C197.72 32.9298 198.041 32.8398 198.401 32.8398C198.571 32.8398 198.72 32.8598 198.86 32.8998V32.8998Z" fill="#231815"/>
<path d="M204.009 32.9591V37.9891H203.209V37.0791C203.059 37.3891 202.839 37.6291 202.539 37.8091C202.239 37.9791 201.899 38.0591 201.499 38.0591C201.049 38.0591 200.659 37.9491 200.329 37.7391C199.989 37.5291 199.729 37.2291 199.549 36.8291C199.369 36.4391 199.279 35.9891 199.279 35.4691C199.279 34.9491 199.369 34.4891 199.559 34.0891C199.749 33.6891 200.009 33.3791 200.349 33.1591C200.689 32.9391 201.069 32.8291 201.509 32.8291C201.899 32.8291 202.249 32.9191 202.539 33.0891C202.829 33.2591 203.059 33.5091 203.209 33.8191V32.9491H204.009V32.9591ZM202.809 36.8791C203.079 36.5391 203.209 36.0691 203.209 35.4491C203.209 34.8291 203.079 34.3491 202.809 34.0191C202.539 33.6891 202.159 33.5191 201.669 33.5191C201.179 33.5191 200.789 33.6891 200.519 34.0291C200.239 34.3691 200.099 34.8491 200.099 35.4691C200.099 36.0891 200.239 36.5591 200.509 36.8891C200.779 37.2191 201.169 37.3891 201.669 37.3891C202.169 37.3891 202.539 37.2191 202.809 36.8791Z" fill="#231815"/>
<path d="M209.9 34.8298V37.9898H209.09V34.8698C209.09 34.3998 209 34.0598 208.81 33.8498C208.62 33.6298 208.33 33.5198 207.93 33.5198C207.46 33.5198 207.09 33.6598 206.81 33.9498C206.53 34.2398 206.39 34.6198 206.39 35.1098V37.9898H205.58V34.3698C205.58 33.8498 205.55 33.3798 205.5 32.9598H206.27L206.35 33.8598C206.5 33.5298 206.73 33.2798 207.04 33.1098C207.35 32.9298 207.7 32.8398 208.09 32.8398C209.3 32.8398 209.9 33.4998 209.9 34.8298V34.8298Z" fill="#231815"/>
<path d="M215.859 30.6194V37.9794H215.059V37.0694C214.909 37.3794 214.689 37.6194 214.389 37.7994C214.089 37.9694 213.749 38.0494 213.349 38.0494C212.909 38.0494 212.519 37.9394 212.179 37.7194C211.839 37.4994 211.579 37.1894 211.389 36.7994C211.199 36.3994 211.109 35.9394 211.109 35.4194C211.109 34.8994 211.199 34.4394 211.379 34.0494C211.559 33.6594 211.829 33.3594 212.169 33.1394C212.509 32.9294 212.899 32.8194 213.339 32.8194C213.729 32.8194 214.079 32.8994 214.369 33.0794C214.659 33.2494 214.879 33.4894 215.029 33.7894V30.6094H215.839L215.859 30.6194ZM214.659 36.8694C214.929 36.5294 215.059 36.0594 215.059 35.4394C215.059 34.8194 214.929 34.3494 214.659 34.0194C214.389 33.6894 214.009 33.5194 213.519 33.5194C213.029 33.5194 212.639 33.6894 212.359 34.0194C212.079 34.3494 211.939 34.8194 211.939 35.4294C211.939 36.0394 212.079 36.5294 212.359 36.8694C212.639 37.2094 213.019 37.3894 213.519 37.3894C214.019 37.3894 214.389 37.2194 214.659 36.8794V36.8694Z" fill="#231815"/>
<path d="M220.949 30.8291V31.7491H219.959V30.8291H220.949ZM220.039 32.9591H220.849V37.9891H220.039V32.9591Z" fill="#231815"/>
<path d="M226.849 30.6194V37.9794H226.049V37.0694C225.899 37.3794 225.679 37.6194 225.379 37.7994C225.079 37.9694 224.739 38.0494 224.339 38.0494C223.899 38.0494 223.509 37.9394 223.179 37.7194C222.839 37.4994 222.579 37.1894 222.389 36.7994C222.199 36.3994 222.109 35.9394 222.109 35.4194C222.109 34.8994 222.199 34.4394 222.379 34.0494C222.559 33.6594 222.829 33.3594 223.169 33.1394C223.509 32.9294 223.899 32.8194 224.339 32.8194C224.729 32.8194 225.079 32.8994 225.369 33.0794C225.659 33.2494 225.879 33.4894 226.029 33.7894V30.6094H226.839L226.849 30.6194ZM225.649 36.8694C225.919 36.5294 226.049 36.0594 226.049 35.4394C226.049 34.8194 225.919 34.3494 225.649 34.0194C225.379 33.6794 224.999 33.5194 224.509 33.5194C224.019 33.5194 223.629 33.6894 223.359 34.0194C223.079 34.3494 222.939 34.8194 222.939 35.4294C222.939 36.0394 223.079 36.5294 223.359 36.8694C223.639 37.2094 224.019 37.3894 224.509 37.3894C224.999 37.3894 225.379 37.2194 225.649 36.8794V36.8694Z" fill="#231815"/>
<path d="M232.629 35.4491H228.939C228.939 36.0891 229.099 36.5691 229.389 36.8991C229.679 37.2291 230.099 37.3891 230.649 37.3891C231.239 37.3891 231.779 37.1891 232.269 36.7991L232.539 37.3891C232.319 37.5991 232.039 37.7591 231.699 37.8791C231.359 37.9991 230.999 38.0591 230.639 38.0591C229.849 38.0591 229.239 37.8291 228.789 37.3591C228.339 36.8991 228.119 36.2591 228.119 35.4491C228.119 34.9391 228.219 34.4791 228.419 34.0891C228.619 33.6891 228.899 33.3791 229.259 33.1591C229.619 32.9391 230.029 32.8291 230.489 32.8291C231.159 32.8291 231.679 33.0491 232.059 33.4891C232.439 33.9291 232.629 34.5291 232.629 35.2891V35.4391V35.4491ZM229.469 33.8491C229.209 34.0991 229.039 34.4591 228.969 34.9191H231.899C231.859 34.4491 231.719 34.0891 231.479 33.8391C231.239 33.5891 230.919 33.4691 230.499 33.4691C230.079 33.4691 229.739 33.5991 229.469 33.8491V33.8491Z" fill="#231815"/>
<path d="M238.179 34.8298V37.9898H237.369V34.8698C237.369 34.3998 237.279 34.0598 237.089 33.8498C236.899 33.6298 236.609 33.5198 236.209 33.5198C235.739 33.5198 235.369 33.6598 235.089 33.9498C234.809 34.2398 234.669 34.6198 234.669 35.1098V37.9898H233.859V34.3698C233.859 33.8498 233.829 33.3798 233.779 32.9598H234.549L234.629 33.8598C234.779 33.5298 235.009 33.2798 235.319 33.1098C235.629 32.9298 235.979 32.8398 236.369 32.8398C237.579 32.8398 238.179 33.4998 238.179 34.8298V34.8298Z" fill="#231815"/>
<path d="M240.79 33.5991V36.3491C240.79 36.7191 240.87 36.9791 241.02 37.1291C241.17 37.2791 241.39 37.3591 241.67 37.3591C241.86 37.3591 242.04 37.3291 242.21 37.2691V37.9591C242 38.0291 241.77 38.0591 241.51 38.0591C241.03 38.0591 240.65 37.9191 240.39 37.6491C240.12 37.3791 239.98 36.9791 239.98 36.4491V33.5891H239V32.9491H239.98V31.6591L240.79 31.3691V32.9491H242.23V33.5891H240.79V33.5991Z" fill="#231815"/>
<path d="M244.119 30.8291V31.7491H243.129V30.8291H244.119ZM243.209 32.9591H244.019V37.9891H243.209V32.9591Z" fill="#231815"/>
<path d="M246.669 33.5991V36.3491C246.669 36.7191 246.749 36.9791 246.899 37.1291C247.049 37.2791 247.269 37.3591 247.549 37.3591C247.739 37.3591 247.919 37.3291 248.089 37.2691V37.9591C247.879 38.0291 247.649 38.0591 247.389 38.0591C246.909 38.0591 246.539 37.9191 246.269 37.6491C245.999 37.3791 245.859 36.9791 245.859 36.4491V33.5891H244.879V32.9491H245.859V31.6591L246.669 31.3691V32.9491H248.109V33.5891H246.669V33.5991Z" fill="#231815"/>
<path d="M253.56 32.959L251.211 38.449C250.961 39.019 250.651 39.439 250.281 39.709C249.911 39.979 249.451 40.159 248.901 40.259L248.73 39.629C249.2 39.519 249.56 39.379 249.81 39.209C250.05 39.029 250.26 38.759 250.41 38.399L250.61 37.949L248.48 32.969H249.331L251.031 37.119L252.75 32.969H253.56V32.959Z" fill="#231815"/>
<path d="M157.138 44.9591V49.9891H156.338V49.0791C156.188 49.3891 155.968 49.6291 155.668 49.8091C155.368 49.9791 155.028 50.0591 154.628 50.0591C154.178 50.0591 153.788 49.9491 153.458 49.7391C153.118 49.5291 152.858 49.2291 152.678 48.8291C152.498 48.4391 152.408 47.9891 152.408 47.4691C152.408 46.9491 152.498 46.4891 152.688 46.0891C152.878 45.6891 153.138 45.3791 153.478 45.1591C153.818 44.9391 154.198 44.8291 154.638 44.8291C155.028 44.8291 155.378 44.9191 155.668 45.0891C155.958 45.2591 156.188 45.5091 156.338 45.8191V44.9491H157.138V44.9591ZM155.938 48.8791C156.208 48.5391 156.338 48.0691 156.338 47.4491C156.338 46.8291 156.208 46.3491 155.938 46.0191C155.668 45.6891 155.288 45.5191 154.798 45.5191C154.308 45.5191 153.918 45.6891 153.648 46.0291C153.368 46.3691 153.228 46.8491 153.228 47.4691C153.228 48.0891 153.368 48.5591 153.638 48.8891C153.908 49.2191 154.298 49.3891 154.798 49.3891C155.298 49.3891 155.668 49.2191 155.938 48.8791V48.8791Z" fill="#231815"/>
<path d="M163.029 46.8298V49.9898H162.219V46.8698C162.219 46.3998 162.129 46.0598 161.939 45.8498C161.749 45.6298 161.459 45.5198 161.059 45.5198C160.589 45.5198 160.219 45.6598 159.939 45.9498C159.659 46.2398 159.519 46.6198 159.519 47.1098V49.9898H158.709V46.3698C158.709 45.8498 158.679 45.3798 158.629 44.9598H159.399L159.479 45.8598C159.629 45.5298 159.859 45.2798 160.169 45.1098C160.479 44.9298 160.829 44.8398 161.219 44.8398C162.429 44.8398 163.029 45.4998 163.029 46.8298Z" fill="#231815"/>
<path d="M168.988 42.6194V49.9794H168.188V49.0694C168.038 49.3794 167.818 49.6194 167.518 49.7994C167.218 49.9694 166.878 50.0494 166.478 50.0494C166.038 50.0494 165.648 49.9394 165.318 49.7194C164.978 49.4994 164.718 49.1894 164.528 48.7994C164.338 48.3994 164.248 47.9394 164.248 47.4194C164.248 46.8994 164.338 46.4394 164.518 46.0494C164.698 45.6594 164.968 45.3594 165.308 45.1394C165.648 44.9294 166.038 44.8194 166.478 44.8194C166.868 44.8194 167.218 44.8994 167.508 45.0794C167.798 45.2494 168.018 45.4894 168.168 45.7894V42.6094H168.978L168.988 42.6194ZM167.788 48.8694C168.058 48.5294 168.188 48.0594 168.188 47.4394C168.188 46.8194 168.058 46.3494 167.788 46.0194C167.518 45.6794 167.138 45.5194 166.648 45.5194C166.158 45.5194 165.768 45.6894 165.498 46.0194C165.218 46.3494 165.078 46.8194 165.078 47.4294C165.078 48.0394 165.218 48.5294 165.498 48.8694C165.778 49.2094 166.158 49.3894 166.648 49.3894C167.138 49.3894 167.518 49.2194 167.788 48.8794V48.8694Z" fill="#231815"/>
<path d="M173.168 42.6191H173.978V49.9791H173.168V42.6191Z" fill="#231815"/>
<path d="M176.378 49.7398C176.018 49.5298 175.738 49.2198 175.538 48.8298C175.338 48.4398 175.248 47.9798 175.248 47.4498C175.248 46.9198 175.348 46.4598 175.538 46.0698C175.738 45.6798 176.018 45.3698 176.378 45.1598C176.738 44.9498 177.158 44.8398 177.628 44.8398C178.098 44.8398 178.518 44.9498 178.878 45.1598C179.238 45.3698 179.518 45.6798 179.708 46.0698C179.908 46.4598 180.008 46.9198 180.008 47.4498C180.008 47.9798 179.908 48.4398 179.708 48.8298C179.508 49.2198 179.238 49.5298 178.878 49.7398C178.518 49.9498 178.098 50.0598 177.628 50.0598C177.158 50.0598 176.738 49.9498 176.378 49.7398ZM178.778 48.8998C179.048 48.5698 179.178 48.0898 179.178 47.4498C179.178 46.8098 179.038 46.3598 178.768 46.0298C178.498 45.6998 178.118 45.5298 177.628 45.5298C177.138 45.5298 176.748 45.6998 176.478 46.0298C176.208 46.3598 176.068 46.8398 176.068 47.4498C176.068 48.0598 176.198 48.5698 176.478 48.8998C176.758 49.2298 177.138 49.3998 177.638 49.3998C178.138 49.3998 178.518 49.2298 178.788 48.8998H178.778Z" fill="#231815"/>
<path d="M185.749 44.9594V49.9494C185.749 50.6994 185.559 51.2594 185.179 51.6494C184.799 52.0294 184.229 52.2294 183.479 52.2294C182.729 52.2294 182.049 52.0594 181.499 51.7094L181.639 51.0494C181.959 51.2294 182.259 51.3594 182.549 51.4394C182.829 51.5194 183.139 51.5594 183.479 51.5594C183.969 51.5594 184.329 51.4294 184.579 51.1794C184.829 50.9194 184.949 50.5394 184.949 50.0394V48.8494C184.799 49.1694 184.569 49.4194 184.269 49.5994C183.969 49.7794 183.619 49.8594 183.219 49.8594C182.779 49.8594 182.389 49.7594 182.049 49.5494C181.709 49.3394 181.439 49.0494 181.249 48.6694C181.059 48.2894 180.969 47.8494 180.969 47.3594C180.969 46.8694 181.059 46.4294 181.249 46.0494C181.439 45.6694 181.699 45.3794 182.049 45.1694C182.389 44.9594 182.789 44.8594 183.219 44.8594C183.619 44.8594 183.969 44.9494 184.259 45.1194C184.559 45.2894 184.779 45.5394 184.939 45.8494V44.9794H185.749V44.9594ZM184.529 48.6694C184.809 48.3494 184.949 47.8994 184.949 47.3394C184.949 46.7794 184.809 46.3294 184.529 46.0094C184.249 45.6894 183.869 45.5294 183.389 45.5294C182.909 45.5294 182.509 45.6894 182.219 46.0094C181.939 46.3294 181.799 46.7794 181.799 47.3394C181.799 47.8994 181.939 48.3494 182.219 48.6694C182.499 48.9894 182.889 49.1594 183.389 49.1594C183.889 49.1594 184.259 48.9994 184.529 48.6694Z" fill="#231815"/>
<path d="M188.138 49.7398C187.778 49.5298 187.498 49.2198 187.298 48.8298C187.098 48.4398 187.008 47.9798 187.008 47.4498C187.008 46.9198 187.108 46.4598 187.298 46.0698C187.498 45.6798 187.778 45.3698 188.138 45.1598C188.498 44.9498 188.918 44.8398 189.388 44.8398C189.858 44.8398 190.278 44.9498 190.638 45.1598C190.998 45.3698 191.278 45.6798 191.468 46.0698C191.668 46.4598 191.768 46.9198 191.768 47.4498C191.768 47.9798 191.668 48.4398 191.468 48.8298C191.268 49.2198 190.998 49.5298 190.638 49.7398C190.278 49.9498 189.858 50.0598 189.388 50.0598C188.918 50.0598 188.498 49.9498 188.138 49.7398ZM190.538 48.8998C190.808 48.5698 190.938 48.0898 190.938 47.4498C190.938 46.8098 190.798 46.3598 190.528 46.0298C190.258 45.6998 189.878 45.5298 189.388 45.5298C188.898 45.5298 188.508 45.6998 188.238 46.0298C187.968 46.3598 187.828 46.8398 187.828 47.4498C187.828 48.0598 187.958 48.5698 188.238 48.8998C188.518 49.2298 188.898 49.3998 189.398 49.3998C189.898 49.3998 190.278 49.2298 190.548 48.8998H190.538Z" fill="#231815"/>
<path d="M194.099 45.5991V48.3491C194.099 48.7191 194.179 48.9791 194.329 49.1291C194.479 49.2791 194.699 49.3591 194.979 49.3591C195.169 49.3591 195.349 49.3291 195.519 49.2691V49.9591C195.309 50.0291 195.079 50.0591 194.819 50.0591C194.339 50.0591 193.959 49.9191 193.699 49.6491C193.429 49.3791 193.289 48.9791 193.289 48.4491V45.5891H192.309V44.9491H193.289V43.6591L194.099 43.3691V44.9491H195.539V45.5891H194.099V45.5991Z" fill="#231815"/>
<path d="M200.998 44.959L198.648 50.449C198.398 51.019 198.088 51.439 197.718 51.709C197.348 51.979 196.888 52.159 196.338 52.259L196.168 51.629C196.638 51.519 196.998 51.379 197.248 51.209C197.498 51.039 197.698 50.759 197.848 50.399L198.048 49.949L195.918 44.969H196.768L198.468 49.119L200.188 44.969H200.998V44.959Z" fill="#231815"/>
<path d="M205.569 45.1698C205.909 45.3898 206.169 45.6998 206.359 46.0998C206.549 46.4998 206.639 46.9498 206.639 47.4798C206.639 48.0098 206.549 48.4498 206.359 48.8398C206.169 49.2298 205.909 49.5298 205.569 49.7498C205.229 49.9598 204.839 50.0698 204.399 50.0698C204.009 50.0698 203.659 49.9798 203.369 49.8098C203.079 49.6398 202.849 49.3898 202.699 49.0698V52.1598H201.889V46.3798C201.889 45.8598 201.859 45.3898 201.809 44.9698H202.579L202.659 45.9398C202.799 45.5898 203.019 45.3198 203.329 45.1298C203.629 44.9398 203.989 44.8398 204.409 44.8398C204.849 44.8398 205.239 44.9498 205.579 45.1698H205.569ZM205.399 48.8898C205.669 48.5598 205.809 48.0798 205.809 47.4698C205.809 46.8598 205.669 46.3798 205.399 46.0298C205.129 45.6898 204.749 45.5198 204.259 45.5198C203.769 45.5198 203.379 45.6898 203.109 46.0198C202.839 46.3498 202.709 46.8298 202.709 47.4498C202.709 48.0698 202.839 48.5498 203.109 48.8798C203.379 49.2198 203.759 49.3898 204.259 49.3898C204.759 49.3898 205.139 49.2198 205.409 48.8898H205.399Z" fill="#231815"/>
<path d="M212.098 47.4491H208.408C208.408 48.0891 208.558 48.5691 208.858 48.8991C209.148 49.2291 209.568 49.3891 210.118 49.3891C210.708 49.3891 211.248 49.1891 211.738 48.7991L212.008 49.3891C211.788 49.5991 211.508 49.7591 211.168 49.8791C210.828 49.9991 210.468 50.0591 210.108 50.0591C209.318 50.0591 208.708 49.8291 208.258 49.3591C207.808 48.8991 207.588 48.2591 207.588 47.4491C207.588 46.9391 207.688 46.4791 207.888 46.0891C208.088 45.6891 208.368 45.3791 208.728 45.1591C209.088 44.9391 209.498 44.8291 209.958 44.8291C210.628 44.8291 211.148 45.0491 211.528 45.4891C211.908 45.9291 212.098 46.5291 212.098 47.2891V47.4391V47.4491ZM208.948 45.8491C208.688 46.0991 208.518 46.4591 208.438 46.9191H211.368C211.328 46.4491 211.188 46.0891 210.958 45.8391C210.718 45.5891 210.388 45.4691 209.968 45.4691C209.548 45.4691 209.208 45.5991 208.948 45.8491V45.8491Z" fill="#231815"/>
</svg>
