<svg width="270" height="55" viewBox="0 0 270 55" fill="none" xmlns="http://www.w3.org/2000/svg">
<path d="M15.0201 52.8504H7.58008V26.4404H15.0201V27.0904H8.23008V52.2104H15.0201V52.8504Z" fill="#E60012"/>
<path d="M199.54 20.9598H198.9V13.9498H188.22V20.9598H187.58V13.9498H176.91V20.9598H176.26V13.2998H199.54V20.9598Z" fill="#E60012"/>
<path d="M166.38 4.07973V4.48973H164V4.07973H164.94V0.829727L164.06 1.38973V0.919727L165.15 0.219727H165.43V4.07973H166.37H166.38Z" fill="#231815"/>
<path d="M166.689 4.82L168.229 0H168.679L167.129 4.82H166.689V4.82Z" fill="#231815"/>
<path d="M171.499 2.66992C171.629 2.84992 171.699 3.06992 171.699 3.33992C171.699 3.70992 171.569 4.00992 171.319 4.21992C171.069 4.42992 170.729 4.53992 170.289 4.53992C170.009 4.53992 169.749 4.48992 169.499 4.39992C169.249 4.30992 169.029 4.17992 168.859 4.00992L169.049 3.62992C169.449 3.95992 169.859 4.11992 170.289 4.11992C170.589 4.11992 170.829 4.04992 170.979 3.91992C171.129 3.78992 171.219 3.57992 171.219 3.31992C171.219 2.79992 170.889 2.52992 170.239 2.52992H169.749V2.11992H170.149C170.469 2.11992 170.709 2.04992 170.879 1.90992C171.049 1.76992 171.129 1.56992 171.129 1.30992C171.129 1.07992 171.059 0.899922 170.919 0.779922C170.779 0.659922 170.589 0.589922 170.339 0.589922C169.929 0.589922 169.529 0.749922 169.129 1.07992L168.939 0.699922C169.109 0.539922 169.319 0.409922 169.569 0.309922C169.819 0.209922 170.079 0.169922 170.349 0.169922C170.729 0.169922 171.039 0.269922 171.269 0.459922C171.499 0.659922 171.619 0.919922 171.619 1.24992C171.619 1.48992 171.559 1.70992 171.439 1.88992C171.319 2.06992 171.149 2.20992 170.939 2.28992C171.189 2.35992 171.379 2.48992 171.519 2.65992L171.499 2.66992Z" fill="#231815"/>
<path d="M177.56 4.48973H176.98L175.65 2.67973L174.33 4.48973H173.74L175.37 2.29973L173.82 0.219727H174.41L175.66 1.93973L176.91 0.219727H177.49L175.94 2.30973L177.57 4.48973H177.56Z" fill="#231815"/>
<path d="M192.64 4.19984V4.60984H190.26V4.19984H191.2V0.949844L190.32 1.50984V1.03984L191.41 0.339844H191.69V4.19984H192.63H192.64Z" fill="#231815"/>
<path d="M192.949 4.94012L194.489 0.120117H194.939L193.389 4.94012H192.949V4.94012Z" fill="#231815"/>
<path d="M197.759 2.79004C197.889 2.97004 197.959 3.19004 197.959 3.46004C197.959 3.83004 197.839 4.13004 197.579 4.34004C197.319 4.55004 196.989 4.66004 196.549 4.66004C196.269 4.66004 196.009 4.61004 195.759 4.52004C195.509 4.43004 195.289 4.30004 195.119 4.13004L195.309 3.75004C195.709 4.08004 196.119 4.24004 196.549 4.24004C196.849 4.24004 197.089 4.17004 197.239 4.04004C197.389 3.91004 197.479 3.70004 197.479 3.44004C197.479 2.92004 197.149 2.65004 196.499 2.65004H196.009V2.24004H196.409C196.729 2.24004 196.969 2.17004 197.139 2.03004C197.309 1.89004 197.389 1.69004 197.389 1.43004C197.389 1.20004 197.319 1.02004 197.179 0.900039C197.039 0.780039 196.849 0.710039 196.599 0.710039C196.189 0.710039 195.789 0.870039 195.389 1.20004L195.199 0.820039C195.369 0.660039 195.579 0.530039 195.829 0.430039C196.079 0.330039 196.339 0.290039 196.609 0.290039C196.989 0.290039 197.299 0.390039 197.529 0.580039C197.759 0.780039 197.869 1.04004 197.869 1.37004C197.869 1.61004 197.809 1.83004 197.689 2.01004C197.569 2.19004 197.399 2.33004 197.189 2.41004C197.439 2.48004 197.629 2.61004 197.769 2.78004L197.759 2.79004Z" fill="#231815"/>
<path d="M203.83 4.60984H203.25L201.92 2.79984L200.6 4.60984H200.01L201.64 2.41984L200.09 0.339844H200.68L201.93 2.05984L203.18 0.339844H203.76L202.21 2.42984L203.83 4.60984V4.60984Z" fill="#231815"/>
<path d="M0.12 36.8896H0.76L2.08 39.0396L3.42 36.8896H4.06L2.42 39.5597L4.17 42.3997H3.53L2.09 40.0896L0.65 42.3997H0L1.76 39.5597L0.12 36.8896Z" fill="#231815"/>
<path d="M188.33 24.7305H186.91V54.1305H188.33V24.7305Z" fill="#033263"/>
<path d="M202.581 32.3607V38.0307H200.691V32.3607H199.141V30.7607H204.131V32.3607H202.581Z" fill="#003064"/>
<path d="M206.861 33.5705H209.591V30.7705H211.481V38.0405H209.591V35.0405H206.861V38.0405H204.971V30.7705H206.861V33.5705Z" fill="#003064"/>
<path d="M219.04 38.0307H216.69L214.89 35.2407V38.0307H213V30.7607H215.94C216.35 30.7607 216.7 30.8207 217 30.9407C217.3 31.0607 217.55 31.2207 217.75 31.4307C217.95 31.6407 218.09 31.8707 218.19 32.1407C218.29 32.4107 218.34 32.7007 218.34 33.0107C218.34 33.5607 218.21 34.0107 217.94 34.3507C217.67 34.6907 217.28 34.9307 216.76 35.0507L219.04 38.0307ZM214.89 34.0107H215.25C215.62 34.0107 215.91 33.9307 216.11 33.7807C216.31 33.6307 216.41 33.4007 216.41 33.1107C216.41 32.8207 216.31 32.6007 216.11 32.4407C215.91 32.2807 215.63 32.2107 215.25 32.2107H214.89V34.0007V34.0107Z" fill="#003064"/>
<path d="M221.711 30.7607V34.7107C221.711 34.9207 221.711 35.1407 221.731 35.3607C221.751 35.5807 221.791 35.7807 221.871 35.9607C221.951 36.1407 222.081 36.2907 222.251 36.4007C222.421 36.5107 222.671 36.5707 222.981 36.5707C223.291 36.5707 223.541 36.5107 223.711 36.4007C223.881 36.2907 224.011 36.1407 224.091 35.9607C224.171 35.7807 224.221 35.5807 224.241 35.3607C224.261 35.1407 224.261 34.9207 224.261 34.7107V30.7607H226.141V34.9707C226.141 36.1007 225.881 36.9307 225.361 37.4507C224.841 37.9707 224.051 38.2307 222.981 38.2307C221.911 38.2307 221.111 37.9707 220.591 37.4507C220.071 36.9307 219.811 36.1007 219.811 34.9707V30.7607H221.701H221.711Z" fill="#003064"/>
<path d="M231.67 32.6203C231.46 32.4503 231.26 32.3303 231.05 32.2503C230.84 32.1703 230.65 32.1303 230.45 32.1303C230.21 32.1303 230.01 32.1903 229.85 32.3003C229.7 32.4203 229.62 32.5703 229.62 32.7503C229.62 32.8803 229.66 32.9803 229.74 33.0703C229.82 33.1503 229.92 33.2303 230.04 33.2903C230.16 33.3503 230.31 33.4003 230.46 33.4503C230.61 33.5003 230.77 33.5403 230.93 33.5903C231.55 33.8003 232 34.0703 232.28 34.4103C232.57 34.7503 232.71 35.2003 232.71 35.7503C232.71 36.1203 232.65 36.4603 232.52 36.7603C232.4 37.0603 232.21 37.3203 231.97 37.5403C231.73 37.7503 231.43 37.9203 231.08 38.0403C230.73 38.1603 230.33 38.2203 229.89 38.2203C228.97 38.2203 228.12 37.9503 227.34 37.4003L228.15 35.8803C228.43 36.1303 228.71 36.3203 228.99 36.4403C229.27 36.5603 229.54 36.6203 229.81 36.6203C230.12 36.6203 230.35 36.5503 230.5 36.4103C230.65 36.2703 230.73 36.1103 230.73 35.9303C230.73 35.8203 230.71 35.7303 230.67 35.6503C230.63 35.5703 230.57 35.5003 230.48 35.4303C230.39 35.3603 230.27 35.3003 230.13 35.2403C229.99 35.1803 229.81 35.1203 229.6 35.0503C229.36 34.9703 229.12 34.8903 228.88 34.8003C228.64 34.7103 228.44 34.5803 228.25 34.4303C228.07 34.2803 227.92 34.0803 227.81 33.8503C227.7 33.6203 227.64 33.3203 227.64 32.9603C227.64 32.6003 227.7 32.2703 227.82 31.9803C227.94 31.6903 228.11 31.4403 228.32 31.2303C228.54 31.0203 228.8 30.8603 229.11 30.7403C229.42 30.6203 229.77 30.5703 230.15 30.5703C230.51 30.5703 230.89 30.6203 231.28 30.7203C231.67 30.8203 232.05 30.9703 232.41 31.1603L231.66 32.6303L231.67 32.6203Z" fill="#003064"/>
<path d="M236.661 32.3607V38.0307H234.771V32.3607H233.221V30.7607H238.211V32.3607H236.661Z" fill="#003064"/>
<path d="M246.781 36.7707H244.081L243.651 38.0307H241.641L244.411 30.7607H246.471L249.241 38.0307H247.231L246.801 36.7707H246.781ZM246.281 35.3307L245.431 32.9107L244.581 35.3307H246.281Z" fill="#003064"/>
<path d="M256.091 38.0307H253.741L251.941 35.2407V38.0307H250.051V30.7607H252.991C253.391 30.7607 253.751 30.8207 254.051 30.9407C254.351 31.0607 254.601 31.2207 254.801 31.4307C255.001 31.6407 255.141 31.8707 255.241 32.1407C255.341 32.4107 255.391 32.7007 255.391 33.0107C255.391 33.5607 255.261 34.0107 254.991 34.3507C254.721 34.6907 254.331 34.9307 253.811 35.0507L256.091 38.0307ZM251.941 34.0107H252.301C252.671 34.0107 252.961 33.9307 253.161 33.7807C253.361 33.6307 253.461 33.4007 253.461 33.1107C253.461 32.8207 253.361 32.6007 253.161 32.4407C252.961 32.2907 252.671 32.2107 252.301 32.2107H251.941V34.0007V34.0107Z" fill="#003064"/>
<path d="M261.021 32.36H258.771V33.57H260.891V35.17H258.771V36.42H261.021V38.02H256.891V30.75H261.021V32.35V32.36Z" fill="#003064"/>
<path d="M266.8 36.7698H264.1L263.67 38.0298H261.66L264.43 30.7598H266.49L269.26 38.0298H267.25L266.82 36.7698H266.8ZM266.3 35.3298L265.45 32.9098L264.6 35.3298H266.3V35.3298Z" fill="#003064"/>
<path d="M200.78 44.5203H203.52V42.0303H204.48V48.3803H203.52V45.4103H200.78V48.3803H199.82V42.0303H200.78V44.5203Z" fill="#003064"/>
<path d="M206.96 42.0303V45.8603C206.96 46.4103 207.05 46.8103 207.23 47.0603C207.5 47.4303 207.87 47.6103 208.35 47.6103C208.83 47.6103 209.21 47.4303 209.48 47.0603C209.66 46.8203 209.75 46.4203 209.75 45.8603V42.0303H210.71V46.1203C210.71 46.7903 210.5 47.3403 210.09 47.7703C209.62 48.2503 209.05 48.4903 208.36 48.4903C207.67 48.4903 207.1 48.2503 206.64 47.7703C206.22 47.3403 206.02 46.7903 206.02 46.1203V42.0303H206.98H206.96Z" fill="#003064"/>
<path d="M212.221 48.39V42.04H213.181C213.601 42.04 213.941 42.07 214.201 42.14C214.461 42.21 214.671 42.32 214.851 42.47C215.031 42.63 215.171 42.83 215.271 43.07C215.381 43.31 215.431 43.56 215.431 43.81C215.431 44.27 215.261 44.65 214.911 44.97C215.251 45.09 215.511 45.29 215.711 45.57C215.911 45.86 216.011 46.19 216.011 46.57C216.011 47.07 215.831 47.49 215.481 47.83C215.271 48.04 215.031 48.19 214.771 48.27C214.481 48.35 214.121 48.39 213.691 48.39H212.241H212.221ZM213.181 44.77H213.481C213.841 44.77 214.101 44.69 214.261 44.53C214.431 44.37 214.511 44.14 214.511 43.83C214.511 43.52 214.431 43.3 214.261 43.15C214.091 43 213.841 42.92 213.521 42.92H213.181V44.77ZM213.181 47.49H213.771C214.201 47.49 214.521 47.41 214.731 47.24C214.941 47.06 215.051 46.82 215.051 46.54C215.051 46.26 214.951 46.04 214.741 45.85C214.541 45.67 214.181 45.57 213.671 45.57H213.181V47.49Z" fill="#003064"/>
<path d="M42.2298 53.8398L38.8798 48.2498C38.8798 48.2498 38.7798 48.1198 38.7798 47.9098V37.5498H37.5198V48.2398C37.6298 48.3498 39.7398 51.9398 39.7398 51.9398H34.5098C34.5098 51.9398 36.6198 48.3398 36.7198 48.2398V37.5498H35.4598V47.9098C35.4598 48.1198 35.3598 48.2498 35.3598 48.2498L32.0098 53.8398H42.2598H42.2298Z" fill="#B18B24"/>
<path d="M41.191 30.3097C41.191 30.3097 41.821 27.6997 39.571 25.9897C39.571 25.9897 38.671 25.1797 36.961 25.1797C35.431 25.1797 34.531 25.9897 34.531 25.9897C32.461 27.4297 33.001 30.3097 33.001 30.3097H41.191Z" fill="#B18B24"/>
<path d="M33.2496 31.0301H40.9496C41.0096 30.8801 41.0596 30.7301 41.1096 30.5801H33.0996C33.1396 30.7301 33.1896 30.8801 33.2496 31.0301Z" fill="#B18B24"/>
<path d="M40.8291 31.2998H33.3691C33.4491 31.4598 33.5291 31.6098 33.6291 31.7498H40.5791C40.6691 31.6098 40.7591 31.4598 40.8391 31.2998" fill="#B18B24"/>
<path d="M34.1401 32.3795H40.0801C40.1901 32.2695 40.3001 32.1495 40.3901 32.0195H33.8301C33.9301 32.1495 34.0301 32.2695 34.1401 32.3795Z" fill="#B18B24"/>
<path d="M34.7799 32.9204H39.4299C39.5499 32.8404 39.6699 32.7504 39.7799 32.6504H34.4199C34.5299 32.7504 34.6499 32.8404 34.7699 32.9204" fill="#B18B24"/>
<path d="M35.4202 33.2803C35.9302 33.5103 36.5002 33.6403 37.1002 33.6403C37.7002 33.6403 38.2702 33.5103 38.7802 33.2803H35.4102H35.4202Z" fill="#B18B24"/>
<path d="M45.0896 33.8398H38.7796C38.7796 33.8398 38.1996 33.8398 37.7296 34.1598C37.3696 34.4098 37.1096 34.9798 37.0996 35.0098C37.0996 35.0098 36.8296 34.4098 36.4696 34.1598C35.9996 33.8398 35.4196 33.8398 35.4196 33.8398H29.1096L27.8496 35.8598H33.6196C33.6196 35.8598 33.7896 35.8598 33.8996 35.8798C34.0696 35.9098 34.3696 35.9998 34.6796 36.2198C35.1096 36.5298 35.2296 36.6898 35.3296 36.7898C35.3796 36.8398 35.5196 37.0198 35.5196 37.0198H38.6696C38.6696 37.0198 38.8096 36.8398 38.8596 36.7898C38.9596 36.6798 39.0896 36.5298 39.5096 36.2198C39.8196 35.9998 40.1196 35.8998 40.2896 35.8798C40.3896 35.8598 40.5696 35.8598 40.5696 35.8598H46.3496L45.0896 33.8398Z" fill="#0A3271"/>
<path d="M28.4902 36.4697V46.0597C28.4902 46.1697 28.4902 46.2597 28.5102 46.3397C28.6102 47.3497 28.9302 48.0997 29.5202 49.0897C30.4502 50.6397 32.1202 51.7097 32.1202 51.7097L32.9102 50.4497C32.9102 50.4497 31.8302 49.8797 30.9802 48.5597C30.8102 48.2997 30.6402 48.0497 30.5202 47.8097C30.4102 47.5797 30.3302 47.3897 30.2602 47.1897C30.2102 47.0497 30.1702 46.9097 30.1402 46.7897C30.1002 46.6097 30.0802 46.4797 30.0702 46.3197C30.0702 46.2597 30.0602 46.0197 30.0602 46.0197V36.4697H28.5002H28.4902Z" fill="#0A3271"/>
<path d="M30.9006 36.4697V46.0197C30.9006 46.0197 30.9006 46.0597 30.9006 46.0997C30.9006 46.1497 30.9006 46.2197 30.9206 46.2697C30.9206 46.2997 30.9306 46.3497 30.9406 46.3697C30.9706 46.5197 31.0006 46.6497 31.0706 46.8497C31.1806 47.1697 31.3706 47.5597 31.6406 48.0097C32.3506 49.1497 33.3706 49.6797 33.3706 49.6797L34.1606 48.4497C34.1606 48.4497 33.9006 48.3097 33.5806 47.9997C33.3706 47.7997 33.1206 47.5297 32.9006 47.2097C32.6906 46.8897 32.5606 46.5597 32.4906 46.3097C32.4306 46.1097 32.4206 45.9397 32.4106 45.8297C32.4106 45.7397 32.4106 45.6897 32.4106 45.6897V36.4697H30.8906H30.9006Z" fill="#0A3271"/>
<path d="M45.7208 36.4697V46.0597C45.7208 46.1697 45.7208 46.2597 45.7008 46.3397C45.6008 47.3497 45.2808 48.0997 44.6908 49.0897C43.7608 50.6397 42.0908 51.7097 42.0908 51.7097L41.3008 50.4497C41.3008 50.4497 42.3808 49.8797 43.2308 48.5597C43.4008 48.2997 43.5708 48.0497 43.6908 47.8097C43.8008 47.5797 43.8808 47.3897 43.9508 47.1897C44.0008 47.0497 44.0408 46.9097 44.0708 46.7897C44.1108 46.6097 44.1308 46.4797 44.1408 46.3197C44.1408 46.2597 44.1508 46.0197 44.1508 46.0197V36.4697H45.7108H45.7208Z" fill="#0A3271"/>
<path d="M43.3205 36.4697V46.0197C43.3205 46.0197 43.3205 46.0597 43.3205 46.0997C43.3205 46.1497 43.3205 46.2197 43.3005 46.2697C43.3005 46.2997 43.2905 46.3497 43.2805 46.3697C43.2505 46.5197 43.2205 46.6497 43.1505 46.8497C43.0405 47.1697 42.8505 47.5597 42.5805 48.0097C41.8705 49.1497 40.8505 49.6797 40.8505 49.6797L40.0605 48.4497C40.0605 48.4497 40.3205 48.3097 40.6405 47.9997C40.8505 47.7997 41.1005 47.5297 41.3205 47.2097C41.5305 46.8897 41.6605 46.5597 41.7305 46.3097C41.7905 46.1097 41.8005 45.9397 41.8105 45.8297C41.8105 45.7397 41.8105 45.6897 41.8105 45.6897V36.4697H43.3305H43.3205Z" fill="#0A3271"/>
<path d="M53.2195 53.6003H52.3695V47.6003H50.7695V46.8203H54.8295V47.6003H53.2195V53.6003Z" fill="#0A3271"/>
<path d="M55.5801 46.8203H59.2201V47.6003H56.4201V49.4903H59.1401V50.2603H56.4201V52.8203H59.2201V53.6003H55.5801V46.8203Z" fill="#0A3271"/>
<path d="M65.2807 48.1202C64.7907 47.6902 64.1307 47.4602 63.4907 47.4602C61.9707 47.4602 60.8107 48.7302 60.8107 50.2302C60.8107 51.7302 61.9607 52.9802 63.4707 52.9802C64.1307 52.9802 64.7707 52.7302 65.2807 52.2802V53.2802C64.7607 53.5902 64.0907 53.7602 63.5007 53.7602C61.5707 53.7602 59.9707 52.2202 59.9707 50.2702C59.9707 48.3202 61.5807 46.7002 63.5707 46.7002C64.1607 46.7002 64.7607 46.8402 65.2807 47.1602V48.1402V48.1202Z" fill="#0A3271"/>
<path d="M70.3708 49.5503V46.8203H71.2208V53.6003H70.3708V50.3403H67.1508V53.6003H66.3008V46.8203H67.1508V49.5503H70.3708Z" fill="#0A3271"/>
<path d="M72.4492 46.5L77.5292 51.83V46.82H78.3692V53.88L73.2892 48.55V53.6H72.4492V46.5Z" fill="#0A3271"/>
<path d="M85.4397 50.2097C85.4397 48.7197 84.3297 47.4697 82.7397 47.4697C81.1497 47.4697 80.0397 48.7197 80.0397 50.2097C80.0397 51.6997 81.2797 52.9497 82.7397 52.9497C84.1997 52.9497 85.4397 51.7597 85.4397 50.2097ZM86.2797 50.2097C86.2797 52.2197 84.6897 53.7397 82.7297 53.7397C80.7697 53.7397 79.1797 52.2197 79.1797 50.2097C79.1797 48.1997 80.7897 46.6797 82.7297 46.6797C84.6697 46.6797 86.2797 48.2697 86.2797 50.2097Z" fill="#0A3271"/>
<path d="M88.0395 52.8203H90.0894V53.6003H87.1895V46.8203H88.0395V52.8203Z" fill="#0A3271"/>
<path d="M96.5098 50.2097C96.5098 48.7197 95.3998 47.4697 93.8098 47.4697C92.2198 47.4697 91.1098 48.7197 91.1098 50.2097C91.1098 51.6997 92.3498 52.9497 93.8098 52.9497C95.2698 52.9497 96.5098 51.7597 96.5098 50.2097ZM97.3598 50.2097C97.3598 52.2197 95.7698 53.7397 93.8098 53.7397C91.8498 53.7397 90.2598 52.2197 90.2598 50.2097C90.2598 48.1997 91.8698 46.6797 93.8098 46.6797C95.7498 46.6797 97.3598 48.2697 97.3598 50.2097Z" fill="#0A3271"/>
<path d="M104.441 50.1797V50.4497C104.441 52.3097 103.131 53.7397 101.231 53.7397C99.3306 53.7397 97.8105 52.1097 97.8105 50.2297C97.8105 48.3497 99.3705 46.6797 101.321 46.6797C102.371 46.6797 103.411 47.1597 104.081 47.9897L103.491 48.5497C103.001 47.8897 102.191 47.4497 101.361 47.4497C99.8405 47.4497 98.6606 48.6797 98.6606 50.1997C98.6606 51.6197 99.8306 52.9697 101.291 52.9697C102.341 52.9697 103.471 52.0597 103.511 50.9597H101.761V50.1897H104.441V50.1797Z" fill="#0A3271"/>
<path d="M104.66 46.8203H105.63L107.29 49.7203L108.95 46.8203H109.92L107.71 50.6503V53.6003H106.87V50.6503L104.66 46.8203Z" fill="#0A3271"/>
<path d="M52.6395 32.0503H51.7895V26.0503H50.1895V25.2803H54.2495V26.0503H52.6395V32.0503Z" fill="#0A3271"/>
<path d="M58.9997 28.0095V25.2695H59.8397V32.0495H58.9997V28.7995H55.7697V32.0495H54.9297V25.2695H55.7697V28.0095H58.9997Z" fill="#0A3271"/>
<path d="M61.1504 25.2803H64.7904V26.0503H62.0004V27.9403H64.7104V28.7203H62.0004V31.2803H64.7904V32.0503H61.1504V25.2803Z" fill="#0A3271"/>
<path d="M72.5991 28.0095V25.2695H73.4491V32.0495H72.5991V28.7995H69.3791V32.0495H68.5391V25.2695H69.3791V28.0095H72.5991Z" fill="#0A3271"/>
<path d="M80.5295 28.6599C80.5295 27.1699 79.4195 25.9199 77.8295 25.9199C76.2395 25.9199 75.1295 27.1699 75.1295 28.6599C75.1295 30.1499 76.3695 31.3999 77.8295 31.3999C79.2895 31.3999 80.5295 30.2099 80.5295 28.6599M81.3695 28.6599C81.3695 30.6699 79.7795 32.1899 77.8195 32.1899C75.8595 32.1899 74.2695 30.6699 74.2695 28.6599C74.2695 26.6499 75.8795 25.1299 77.8195 25.1299C79.7595 25.1299 81.3695 26.7199 81.3695 28.6599Z" fill="#0A3271"/>
<path d="M82.1992 24.9502L87.2892 30.2802V25.2702H88.1292V32.3302L83.0492 27.0002V32.0502H82.1992V24.9502Z" fill="#0A3271"/>
<path d="M95.5909 28.6299V28.8999C95.5909 30.7599 94.2809 32.1899 92.3809 32.1899C90.4809 32.1899 88.9609 30.5599 88.9609 28.6799C88.9609 26.7999 90.5209 25.1299 92.4709 25.1299C93.5209 25.1299 94.5609 25.6099 95.2309 26.4399L94.6409 27.0099C94.1509 26.3499 93.3409 25.8999 92.5109 25.8999C90.9909 25.8999 89.8109 27.1299 89.8109 28.6499C89.8109 30.0699 90.9809 31.4199 92.4409 31.4199C93.4909 31.4199 94.6209 30.5099 94.6609 29.4099H92.9109V28.6399H95.5909V28.6299Z" fill="#0A3271"/>
<path d="M102.919 25.2803H104.029L100.979 28.3203L104.079 32.0503H102.939L100.389 28.9003L100.049 29.2203V32.0503H99.1992V25.2803H100.049V28.2103L102.919 25.2803Z" fill="#0A3271"/>
<path d="M110.459 28.6599C110.459 27.1699 109.349 25.9199 107.759 25.9199C106.169 25.9199 105.059 27.1699 105.059 28.6599C105.059 30.1499 106.299 31.3999 107.759 31.3999C109.219 31.3999 110.459 30.2099 110.459 28.6599M111.299 28.6599C111.299 30.6699 109.709 32.1899 107.749 32.1899C105.789 32.1899 104.199 30.6699 104.199 28.6599C104.199 26.6499 105.809 25.1299 107.749 25.1299C109.689 25.1299 111.299 26.7199 111.299 28.6599Z" fill="#0A3271"/>
<path d="M112.131 24.9502L117.211 30.2802V25.2702H118.061V32.3302L112.971 27.0002V32.0502H112.131V24.9502Z" fill="#0A3271"/>
<path d="M125.521 28.6299V28.8999C125.521 30.7599 124.211 32.1899 122.311 32.1899C120.411 32.1899 118.891 30.5599 118.891 28.6799C118.891 26.7999 120.451 25.1299 122.401 25.1299C123.451 25.1299 124.491 25.6099 125.161 26.4399L124.571 27.0099C124.081 26.3499 123.271 25.8999 122.441 25.8999C120.921 25.8999 119.741 27.1299 119.741 28.6499C119.741 30.0699 120.911 31.4199 122.371 31.4199C123.421 31.4199 124.551 30.5099 124.591 29.4099H122.841V28.6399H125.521V28.6299Z" fill="#0A3271"/>
<path d="M51.5395 36.0498V40.0498C51.5395 41.1598 51.8695 42.1798 53.1695 42.1798C54.4695 42.1798 54.8095 41.1598 54.8095 40.0498V36.0498H55.6495V40.3298C55.6495 41.8198 54.7295 42.9598 53.1695 42.9598C51.6095 42.9598 50.6895 41.8198 50.6895 40.3298V36.0498H51.5295H51.5395Z" fill="#0A3271"/>
<path d="M56.9609 35.7305L62.0409 41.0505V36.0505H62.8809V43.1005L57.8009 37.7705V42.8205H56.9609V35.7305Z" fill="#0A3271"/>
<path d="M65.3693 36.0498H64.5293V42.8198H65.3693V36.0498Z" fill="#0A3271"/>
<path d="M68.9695 41.0598L70.9795 36.0498H71.8995L68.9695 43.1798L66.0195 36.0498H66.9395L68.9695 41.0598Z" fill="#0A3271"/>
<path d="M72.5703 36.0498H76.2003V36.8198H73.4103V38.7198H76.1203V39.4898H73.4103V42.0498H76.2003V42.8198H72.5703V36.0498Z" fill="#0A3271"/>
<path d="M78.1796 39.2598H78.4496C79.3096 39.2598 80.2496 39.0998 80.2496 38.0198C80.2496 36.9398 79.2396 36.8098 78.4096 36.8098H78.1796V39.2598V39.2598ZM81.5496 42.8198H80.5296L78.5396 39.9498H78.1896V42.8198H77.3496V36.0498H78.3696C78.9696 36.0498 79.6196 36.0498 80.1596 36.3698C80.7296 36.6998 81.0496 37.3398 81.0496 37.9898C81.0496 38.9598 80.3996 39.7698 79.4296 39.8898L81.5696 42.8398L81.5496 42.8198Z" fill="#0A3271"/>
<path d="M85.4401 37.3297C85.1901 36.9097 84.8701 36.6896 84.3501 36.6896C83.8101 36.6896 83.2201 37.0597 83.2201 37.6497C83.2201 38.1797 83.7401 38.4596 84.1601 38.6196L84.6501 38.8097C85.6101 39.1897 86.3301 39.7196 86.3301 40.8496C86.3301 42.0796 85.3801 42.9596 84.1701 42.9596C83.0701 42.9596 82.2201 42.1497 82.0801 41.0597L82.9301 40.8797C82.9301 41.6297 83.5101 42.1596 84.2401 42.1596C84.9701 42.1596 85.4901 41.5496 85.4901 40.8396C85.4901 40.1296 84.9101 39.7997 84.3201 39.5597L83.8501 39.3596C83.0801 39.0296 82.3801 38.5896 82.3801 37.6396C82.3801 36.5396 83.3501 35.8896 84.3701 35.8896C85.1201 35.8896 85.7401 36.2596 86.1101 36.9096L85.4401 37.3097V37.3297Z" fill="#0A3271"/>
<path d="M88.2895 36.0498H87.4395V42.8198H88.2895V36.0498Z" fill="#0A3271"/>
<path d="M91.6492 42.8198H90.8092V36.8198H89.1992V36.0498H93.2592V36.8198H91.6492V42.8198Z" fill="#0A3271"/>
<path d="M93.5605 36.0498H94.5305L96.2005 38.9398L97.8605 36.0498H98.8306L96.6206 39.8798V42.8198H95.7705V39.8798L93.5605 36.0498Z" fill="#0A3271"/>
<path d="M108.129 39.4402C108.129 37.9502 107.019 36.7002 105.429 36.7002C103.839 36.7002 102.729 37.9502 102.729 39.4402C102.729 40.9302 103.969 42.1802 105.429 42.1802C106.889 42.1802 108.129 40.9902 108.129 39.4402ZM108.969 39.4402C108.969 41.4502 107.379 42.9702 105.419 42.9702C103.459 42.9702 101.869 41.4502 101.869 39.4402C101.869 37.4302 103.479 35.9102 105.419 35.9102C107.359 35.9102 108.969 37.5002 108.969 39.4402Z" fill="#0A3271"/>
<path d="M110.84 36.8198V38.7298H113.19V39.4998H110.84V42.8198H109.99V36.0498H113.27V36.8198H110.84Z" fill="#0A3271"/>
<path d="M120.44 37.3297C120.19 36.9097 119.87 36.6896 119.35 36.6896C118.81 36.6896 118.22 37.0597 118.22 37.6497C118.22 38.1797 118.74 38.4596 119.16 38.6196L119.65 38.8097C120.61 39.1897 121.33 39.7196 121.33 40.8496C121.33 42.0796 120.38 42.9596 119.16 42.9596C118.06 42.9596 117.21 42.1497 117.07 41.0597L117.92 40.8797C117.92 41.6297 118.5 42.1596 119.23 42.1596C119.96 42.1596 120.48 41.5496 120.48 40.8396C120.48 40.1296 119.9 39.7997 119.31 39.5597L118.84 39.3596C118.07 39.0296 117.37 38.5896 117.37 37.6396C117.37 36.5396 118.34 35.8896 119.36 35.8896C120.11 35.8896 120.73 36.2596 121.1 36.9096L120.43 37.3097L120.44 37.3297Z" fill="#0A3271"/>
<path d="M127.47 37.3402C126.98 36.9102 126.32 36.6702 125.68 36.6702C124.16 36.6702 123 37.9402 123 39.4402C123 40.9402 124.15 42.1902 125.66 42.1902C126.32 42.1902 126.96 41.9402 127.47 41.4902V42.4902C126.95 42.8002 126.28 42.9702 125.69 42.9702C123.76 42.9702 122.16 41.4302 122.16 39.4802C122.16 37.5302 123.77 35.9102 125.76 35.9102C126.35 35.9102 126.95 36.0502 127.47 36.3702V37.3502V37.3402Z" fill="#0A3271"/>
<path d="M129.69 36.0498H128.85V42.8198H129.69V36.0498Z" fill="#0A3271"/>
<path d="M131.359 36.0498H134.999V36.8198H132.209V38.7198H134.919V39.4898H132.209V42.0498H134.999V42.8198H131.359V36.0498Z" fill="#0A3271"/>
<path d="M136.369 35.7305L141.449 41.0505V36.0505H142.289V43.1005L137.209 37.7705V42.8205H136.369V35.7305Z" fill="#0A3271"/>
<path d="M148.58 37.3402C148.09 36.9102 147.43 36.6702 146.79 36.6702C145.27 36.6702 144.11 37.9402 144.11 39.4402C144.11 40.9402 145.26 42.1902 146.77 42.1902C147.43 42.1902 148.07 41.9402 148.57 41.4902V42.4902C148.05 42.8002 147.38 42.9702 146.79 42.9702C144.86 42.9702 143.26 41.4302 143.26 39.4802C143.26 37.5302 144.87 35.9102 146.86 35.9102C147.45 35.9102 148.05 36.0502 148.57 36.3702V37.3502L148.58 37.3402Z" fill="#0A3271"/>
<path d="M149.801 36.0498H153.441V36.8198H150.651V38.7198H153.361V39.4898H150.651V42.0498H153.441V42.8198H149.801V36.0498Z" fill="#0A3271"/>
<path d="M160.599 37.64L159.399 40.38H161.809L160.609 37.64H160.599ZM159.049 41.15L158.279 42.85H157.369L160.599 35.79L163.829 42.85H162.919L162.149 41.15H159.039H159.049Z" fill="#0A3271"/>
<path d="M164.6 35.75L169.68 41.08V36.07H170.52V43.13L165.44 37.8V42.85H164.6V35.75Z" fill="#0A3271"/>
<path d="M172.651 42.0703H172.951C174.671 42.0703 176.161 41.4203 176.161 39.4603C176.161 37.5003 174.671 36.8503 172.951 36.8503H172.651V42.0803V42.0703ZM171.811 36.0703H173.211C175.281 36.0703 177.011 37.1703 177.011 39.4203C177.011 41.6703 175.321 42.8403 173.181 42.8403H171.811V36.0703V36.0703Z" fill="#0A3271"/>
<path d="M122.47 50.1897V50.4597C122.47 52.3197 121.16 53.7497 119.26 53.7497C117.36 53.7497 115.83 52.1097 115.83 50.2297C115.83 48.3497 117.39 46.6797 119.35 46.6797C120.4 46.6797 121.45 47.1597 122.11 47.9897L121.52 48.5597C121.03 47.8897 120.21 47.4497 119.39 47.4497C117.87 47.4497 116.68 48.6797 116.68 50.1997C116.68 51.6197 117.85 52.9697 119.32 52.9697C120.37 52.9697 121.51 52.0597 121.54 50.9497H119.78V50.1797H122.47V50.1897Z" fill="#0A3271"/>
<path d="M124.109 46.8203V50.8303C124.109 51.9403 124.439 52.9603 125.749 52.9603C127.059 52.9603 127.389 51.9303 127.389 50.8303V46.8203H128.239V51.1103C128.239 52.6003 127.309 53.7503 125.759 53.7503C124.209 53.7503 123.279 52.6103 123.279 51.1103V46.8203H124.129H124.109Z" fill="#0A3271"/>
<path d="M132.01 48.39L130.8 51.13H133.21L132 48.39H132.01ZM130.45 51.91L129.68 53.61H128.77L132.01 46.54L135.25 53.61H134.34L133.57 51.91H130.46H130.45Z" fill="#0A3271"/>
<path d="M135.82 46.5L140.91 51.83V46.82H141.76V53.89L136.66 48.55V53.61H135.82V46.5Z" fill="#0A3271"/>
<path d="M149.23 50.1897V50.4597C149.23 52.3197 147.92 53.7497 146.02 53.7497C144.12 53.7497 142.59 52.1097 142.59 50.2297C142.59 48.3497 144.16 46.6797 146.11 46.6797C147.16 46.6797 148.21 47.1597 148.87 47.9897L148.28 48.5597C147.79 47.8897 146.97 47.4497 146.15 47.4497C144.63 47.4497 143.44 48.6797 143.44 50.1997C143.44 51.6197 144.61 52.9697 146.08 52.9697C147.13 52.9697 148.27 52.0597 148.3 50.9497H146.55V50.1797H149.24L149.23 50.1897Z" fill="#0A3271"/>
<path d="M154.4 52.8303V53.6103H149.58L153.02 47.6003H150.07V46.8203H154.4L150.96 52.8303H154.4Z" fill="#0A3271"/>
<path d="M159.201 49.5603V46.8203H160.051V53.6103H159.201V50.3503H155.971V53.6103H155.131V46.8203H155.971V49.5603H159.201Z" fill="#0A3271"/>
<path d="M167.141 50.2099C167.141 48.7199 166.021 47.4699 164.431 47.4699C162.841 47.4699 161.721 48.7199 161.721 50.2099C161.721 51.6999 162.961 52.9499 164.431 52.9499C165.901 52.9499 167.141 51.7499 167.141 50.2099ZM167.991 50.2099C167.991 52.2299 166.401 53.7499 164.441 53.7499C162.481 53.7499 160.881 52.2299 160.881 50.2099C160.881 48.1899 162.491 46.6699 164.441 46.6699C166.391 46.6699 167.991 48.2599 167.991 50.2099Z" fill="#0A3271"/>
<path d="M169.619 46.8203V50.8303C169.619 51.9403 169.949 52.9603 171.259 52.9603C172.569 52.9603 172.899 51.9303 172.899 50.8303V46.8203H173.749V51.1103C173.749 52.6003 172.819 53.7503 171.269 53.7503C169.719 53.7503 168.789 52.6103 168.789 51.1103V46.8203H169.639H169.619Z" fill="#0A3271"/>
<path d="M114.74 46.2004C114.37 46.8904 114.11 47.4604 113.96 47.9004C113.71 48.6404 113.58 49.4104 113.58 50.2104C113.58 51.4904 113.96 52.8304 114.73 54.2004H114.11C113.69 53.6404 113.35 53.0004 113.07 52.2904C112.8 51.5804 112.67 50.8804 112.67 50.1804C112.67 49.2304 112.91 48.2904 113.39 47.3704C113.65 46.8804 113.89 46.4904 114.12 46.1904H114.74V46.2004Z" fill="#0A3271"/>
<path d="M177.35 50.22C177.35 51.17 177.11 52.1 176.62 53.03C176.38 53.49 176.14 53.88 175.89 54.21H175.27C175.64 53.52 175.9 52.96 176.05 52.52C176.3 51.78 176.43 51.01 176.43 50.2C176.43 48.91 176.05 47.58 175.28 46.21H175.9C176.32 46.76 176.66 47.4 176.93 48.13C177.2 48.85 177.34 49.55 177.34 50.23" fill="#0A3271"/>
</svg>
