<svg width="270" height="69" viewBox="0 0 270 69" fill="none" xmlns="http://www.w3.org/2000/svg">
<path d="M14.24 53.2105H8V21.4805H14.24V22.0205H8.54V52.6705H14.24V53.2105Z" fill="#E60012"/>
<path d="M134.889 17.4798H134.349V11.5898H125.399V17.4798H124.849V11.5898H115.899V17.4798H115.359V11.0498H134.889V17.4798Z" fill="#E60012"/>
<path d="M110.569 4.06996V4.47996H108.189V4.06996H109.129V0.819962L108.249 1.37996V0.909958L109.339 0.209961H109.619V4.06996H110.559H110.569Z" fill="#231815"/>
<path d="M110.889 4.82L112.429 0H112.879L111.329 4.82H110.889V4.82Z" fill="#231815"/>
<path d="M115.699 2.66016C115.829 2.84016 115.899 3.06016 115.899 3.33016C115.899 3.70016 115.769 4.00016 115.519 4.21016C115.269 4.42016 114.929 4.53016 114.489 4.53016C114.209 4.53016 113.949 4.48016 113.699 4.39016C113.449 4.30016 113.229 4.17016 113.049 4.00016L113.239 3.62016C113.639 3.95016 114.049 4.11016 114.479 4.11016C114.779 4.11016 115.009 4.04016 115.169 3.91016C115.329 3.78016 115.409 3.57016 115.409 3.31016C115.409 2.79016 115.079 2.52016 114.429 2.52016H113.939V2.11016H114.339C114.659 2.11016 114.899 2.04016 115.069 1.90016C115.239 1.76016 115.319 1.56016 115.319 1.30016C115.319 1.07016 115.249 0.890157 115.109 0.770157C114.969 0.650157 114.779 0.580162 114.529 0.580162C114.119 0.580162 113.719 0.74016 113.319 1.07016L113.129 0.690163C113.299 0.530163 113.509 0.400156 113.759 0.300156C114.009 0.200156 114.269 0.160156 114.539 0.160156C114.919 0.160156 115.229 0.260157 115.459 0.450157C115.689 0.650157 115.799 0.910158 115.799 1.24016C115.799 1.48016 115.739 1.70016 115.619 1.88016C115.499 2.06016 115.329 2.20016 115.119 2.28016C115.369 2.35016 115.559 2.48016 115.699 2.65016V2.66016Z" fill="#231815"/>
<path d="M121.759 4.48972H121.179L119.849 2.67973L118.529 4.48972H117.939L119.569 2.29972L118.019 0.219727H118.609L119.859 1.93973L121.109 0.219727H121.689L120.139 2.30972L121.769 4.48972H121.759Z" fill="#231815"/>
<path d="M131.601 4.17934V4.58933H129.221V4.17934H130.161V0.929337L129.281 1.48933V1.01933L130.371 0.319336H130.651V4.17934H131.591H131.601Z" fill="#231815"/>
<path d="M131.92 4.91961L133.46 0.0996094H133.91L132.36 4.91961H131.92V4.91961Z" fill="#231815"/>
<path d="M136.73 2.75977C136.86 2.93977 136.93 3.15976 136.93 3.42976C136.93 3.79976 136.8 4.09976 136.55 4.30976C136.3 4.51976 135.96 4.62976 135.52 4.62976C135.24 4.62976 134.98 4.57976 134.73 4.48976C134.48 4.39976 134.26 4.26976 134.08 4.09976L134.27 3.71976C134.67 4.04976 135.08 4.20976 135.51 4.20976C135.81 4.20976 136.04 4.13977 136.2 4.00977C136.36 3.87977 136.44 3.66976 136.44 3.40976C136.44 2.88976 136.11 2.61976 135.46 2.61976H134.97V2.20976H135.37C135.69 2.20976 135.93 2.13976 136.1 1.99976C136.27 1.85976 136.35 1.65977 136.35 1.39977C136.35 1.16977 136.28 0.989759 136.14 0.869759C136 0.749759 135.81 0.679764 135.56 0.679764C135.15 0.679764 134.75 0.839762 134.35 1.16976L134.16 0.789764C134.33 0.629764 134.54 0.499765 134.79 0.399765C135.04 0.299765 135.3 0.259766 135.57 0.259766C135.95 0.259766 136.26 0.359759 136.49 0.549759C136.72 0.749759 136.83 1.00976 136.83 1.33976C136.83 1.57976 136.77 1.79976 136.65 1.97976C136.53 2.15976 136.36 2.29976 136.15 2.37976C136.4 2.44976 136.59 2.57976 136.73 2.74976V2.75977Z" fill="#231815"/>
<path d="M142.791 4.58933H142.211L140.881 2.77934L139.561 4.58933H138.971L140.601 2.39934L139.051 0.319336H139.641L140.891 2.03934L142.141 0.319336H142.721L141.171 2.40933L142.801 4.58933H142.791Z" fill="#231815"/>
<path d="M114.38 61.46H14.2402V55.21H14.7902V60.92H113.83V55.21H114.38V61.46Z" fill="#E60012"/>
<path d="M269.22 61.46H137.02V55.21H137.56V60.92H268.67V55.21H269.22V61.46Z" fill="#E60012"/>
<path d="M3.82 38.4302H3.24L1.91 36.6202L0.59 38.4302H0L1.63 36.2402L0.08 34.1602H0.67L1.92 35.8802L3.17 34.1602H3.75L2.2 36.2502L3.83 38.4302H3.82Z" fill="#231815"/>
<path d="M64.5509 66.8799V68.6098H64.0609V66.8799L62.3809 64.3398H62.9609L64.3209 66.4398L65.6809 64.3398H66.2409L64.5609 66.8799H64.5509Z" fill="#231815"/>
<path d="M186.07 64.3301V68.6001H185.61V65.4301L184.22 68.6001H183.87L182.47 65.4501V68.6001H182.02V64.3301H182.43L184.05 68.0101L185.65 64.3301H186.06H186.07Z" fill="#231815"/>
<path d="M189.919 67.5098H187.689L187.219 68.6098H186.709L188.589 64.3398H189.019L190.899 68.6098H190.399L189.929 67.5098H189.919ZM189.749 67.0999L188.809 64.8998L187.869 67.0999H189.749Z" fill="#231815"/>
<path d="M194.779 68.6001H194.199L192.869 66.7901L191.549 68.6001H190.959L192.589 66.4101L191.039 64.3301H191.629L192.879 66.0501L194.129 64.3301H194.709L193.159 66.4201L194.789 68.6001H194.779Z" fill="#231815"/>
<path d="M195.35 64.3301H195.84V68.6001H195.35V64.3301Z" fill="#231815"/>
<path d="M200.939 64.3301V68.6001H200.479V65.4301L199.089 68.6001H198.739L197.339 65.4501V68.6001H196.889V64.3301H197.299L198.919 68.0101L200.519 64.3301H200.929H200.939Z" fill="#231815"/>
<path d="M202.389 68.2201C202.099 67.9301 201.959 67.5001 201.959 66.9301V64.3301H202.449V66.9701C202.449 67.3901 202.549 67.7001 202.759 67.9101C202.959 68.1201 203.269 68.2301 203.669 68.2301C204.069 68.2301 204.369 68.1201 204.569 67.9101C204.769 67.7001 204.869 67.3801 204.869 66.9701V64.3301H205.359V66.9301C205.359 67.4901 205.219 67.9201 204.929 68.2101C204.639 68.5001 204.219 68.6501 203.669 68.6501C203.119 68.6501 202.689 68.5101 202.399 68.2201H202.389Z" fill="#231815"/>
<path d="M210.419 64.3301V68.6001H209.959V65.4301L208.569 68.6001H208.219L206.819 65.4501V68.6001H206.369V64.3301H206.779L208.399 68.0101L209.999 64.3301H210.409H210.419Z" fill="#231815"/>
<path d="M215.659 68.1901V68.6001H213.279V68.1901H214.219V64.9401L213.339 65.5001V65.0301L214.429 64.3301H214.709V68.1901H215.649H215.659Z" fill="#231815"/>
<path d="M217.12 67.9805V68.6005H216.5V67.9805H217.12Z" fill="#231815"/>
<path d="M220.179 66.0901C220.379 66.2001 220.539 66.3601 220.639 66.5701C220.739 66.7801 220.799 67.0101 220.799 67.2801C220.799 67.5501 220.739 67.7901 220.619 67.9901C220.499 68.2001 220.329 68.3601 220.119 68.4701C219.899 68.5801 219.649 68.6401 219.359 68.6401C219.099 68.6401 218.839 68.5901 218.589 68.5001C218.339 68.4101 218.129 68.2801 217.949 68.1101L218.139 67.7301C218.539 68.0601 218.939 68.2201 219.359 68.2201C219.659 68.2201 219.889 68.1401 220.059 67.9701C220.229 67.8001 220.319 67.5701 220.319 67.2801C220.319 66.9901 220.239 66.7701 220.069 66.5901C219.899 66.4201 219.679 66.3301 219.399 66.3301C218.989 66.3301 218.669 66.5001 218.419 66.8301H218.079V64.3301H220.639V64.7401H218.569V66.2601C218.809 66.0301 219.109 65.9201 219.479 65.9201C219.749 65.9201 219.979 65.9801 220.189 66.0901H220.179Z" fill="#231815"/>
<path d="M223.16 66.8799V68.6098H222.67V66.8799L220.99 64.3398H221.57L222.93 66.4398L224.29 64.3398H224.85L223.17 66.8799H223.16Z" fill="#231815"/>
<path d="M43.3791 24.5197V25.7897H45.0691C44.3691 25.5197 43.8091 25.0897 43.3791 24.5197ZM41.4191 28.0297H44.7891V27.4297H41.4191V28.0297ZM44.7891 26.3597H41.4191V26.8797H44.7891V26.3597ZM41.1791 25.7797H42.7391V24.5197C42.3391 25.0897 41.8191 25.5097 41.1791 25.7797ZM45.4191 25.9397V28.9097H44.7791V28.5897H41.4191V28.9097H40.7791V25.9697C40.6691 26.0197 40.4691 26.0897 40.1991 26.1797L39.8691 25.5697C40.6991 25.3697 41.4191 25.0097 42.0391 24.4897H39.9291V23.9197H42.7391V23.3697C41.7091 23.3997 40.9791 23.4097 40.5291 23.4097L40.2991 22.7797C40.5591 22.7797 40.8791 22.7897 41.2591 22.7897C43.0791 22.7897 44.4591 22.6897 45.3891 22.4697L45.6791 23.0297C45.0591 23.1597 44.2891 23.2597 43.3691 23.3397V23.9097H46.2591V24.4797H44.0591C44.5791 24.9797 45.3291 25.3297 46.3191 25.5297L46.0191 26.1497C45.9291 26.1097 45.8291 26.0697 45.7191 26.0397C45.6091 26.0097 45.5091 25.9697 45.4191 25.9197" fill="#003875"/>
<path d="M51.8604 24.4795H53.1104V23.8095H51.8604V24.4795ZM52.0104 25.0495C51.9104 25.2795 51.7704 25.4895 51.6104 25.6695H53.3504C53.2004 25.4995 53.0604 25.2995 52.9304 25.0495H52.0104ZM51.4904 26.8795H53.0604V26.2095H51.4904V26.8795ZM50.3204 23.2295H51.2304V22.5195H51.8604V23.2295H53.1104V22.5195H53.7304V23.2295H54.8604V23.7695H53.7304V24.4795H54.9604V25.0495H53.6504C53.8304 25.4195 54.2904 25.7895 55.0304 26.1495L54.7404 26.7595C54.3204 26.5095 53.9704 26.2595 53.7004 26.0095V27.4095H51.5004V27.8495C51.5004 28.0095 51.5804 28.0895 51.7404 28.0895H53.7704C53.9604 28.0895 54.0804 28.0195 54.1104 27.8795C54.1504 27.7295 54.1804 27.4795 54.2104 27.1195L54.8704 27.3595C54.8004 27.9895 54.7004 28.3695 54.5804 28.4995C54.4604 28.6195 54.2304 28.6895 53.8804 28.6895H51.6604C51.3704 28.6895 51.1604 28.6295 51.0404 28.5195C50.9304 28.4095 50.8704 28.1895 50.8704 27.8795V26.3495C50.7604 26.4495 50.5504 26.5895 50.2404 26.7795L49.8504 26.1995C50.6104 25.8595 51.0904 25.4695 51.2904 25.0395H50.1904V24.4695H51.2404V23.7895H50.3304V23.4195L49.9104 23.9395C49.5404 23.5995 49.2004 23.3295 48.8904 23.1395L49.3404 22.6295C49.7304 22.8795 50.0604 23.0995 50.3304 23.3095V23.2195L50.3204 23.2295ZM49.6504 25.6695C49.2804 25.3595 48.9604 25.1095 48.6904 24.9295L49.1004 24.4195C49.4204 24.5895 49.7604 24.8195 50.1104 25.0795L49.6404 25.6695H49.6504ZM50.0704 26.7795C49.8804 27.5195 49.5904 28.1995 49.2004 28.8195L48.6504 28.2595C49.0504 27.6895 49.3304 27.0795 49.4704 26.4295L50.0704 26.7795V26.7795Z" fill="#003875"/>
<path d="M61.9002 24.3202C61.3902 23.9102 60.9802 23.6202 60.6702 23.4202L61.0802 22.9702C61.3802 23.1302 61.7902 23.4102 62.3302 23.8002L61.9002 24.3102V24.3202ZM61.7802 25.9802C61.3102 25.5902 60.9002 25.2902 60.5402 25.0702L60.9402 24.6102C61.2802 24.7902 61.7002 25.0702 62.2102 25.4502L61.7902 25.9802H61.7802ZM60.2902 27.3702V26.7302L62.5802 26.3902V22.4502H63.2202V26.3102L63.8402 26.2102V26.8302L63.2202 26.9302V28.8902H62.5802V27.0102L60.2902 27.3602V27.3702ZM58.7102 23.4502C58.4702 23.5002 58.1102 23.5302 57.6502 23.5702L57.5102 23.0002C58.5302 22.9502 59.4102 22.7802 60.1402 22.5102L60.3702 23.0702C60.0402 23.1802 59.7002 23.2802 59.3402 23.3502V24.3202H60.3802V24.9102H59.3402V24.9702C59.8502 25.4402 60.2402 25.8202 60.5002 26.1102L60.1202 26.7002C59.9802 26.5102 59.8502 26.3402 59.7102 26.1802C59.5902 26.0402 59.4702 25.8902 59.3502 25.7202V28.9002L58.7202 28.9302V26.1202C58.5502 26.5602 58.2402 27.0702 57.7902 27.6502L57.4102 27.0302C57.9902 26.3802 58.4202 25.6702 58.7002 24.9102H57.4502V24.3202H58.7202V23.4602L58.7102 23.4502Z" fill="#003875"/>
<path d="M68.7104 24.4897H67.9004V25.6997C68.2604 25.5797 68.5304 25.4797 68.7004 25.3997V26.0697C68.5604 26.1497 68.2904 26.2497 67.9004 26.3797V28.0597C67.9004 28.3797 67.8504 28.5997 67.7604 28.6997C67.6604 28.8097 67.4504 28.8597 67.1104 28.8597H66.5704L66.4104 28.1697L67.0104 28.1897C67.1604 28.1897 67.2304 28.1097 67.2304 27.9597V26.5597C66.8404 26.6597 66.5404 26.7397 66.3104 26.7897L66.1504 26.0497C66.5504 25.9997 66.9104 25.9297 67.2304 25.8397V24.4597H66.2204V23.8397H67.2304V22.4397H67.9004V23.8397H68.7104V23.3997H70.1804V22.4297H70.8604V23.3997H72.4804V24.0197H70.8604V24.9397H72.2404V25.5097C72.1804 25.7597 72.0304 26.0797 71.7904 26.4797C71.5504 26.8797 71.3004 27.1897 71.0404 27.4197C71.5004 27.7897 72.0104 28.0597 72.5904 28.2197L72.2404 28.8597C71.6404 28.6597 71.0704 28.3197 70.5404 27.8397C69.8204 28.3897 69.1304 28.7397 68.4704 28.8697L68.0904 28.2497C68.7504 28.0997 69.4004 27.8097 70.0604 27.3697C69.7104 27.0197 69.3604 26.5297 69.0304 25.9097L69.6004 25.6797C69.9204 26.2397 70.2304 26.6697 70.5404 26.9897C71.0104 26.6197 71.3404 26.1497 71.5304 25.5697H68.8104V24.9397H70.1604V24.0197H68.6904V24.4597L68.7104 24.4897Z" fill="#003875"/>
<path d="M79.0104 24.9097C79.1204 25.4697 79.3604 26.0497 79.7504 26.6597C80.1404 27.2697 80.6704 27.7997 81.3504 28.2497L80.8204 28.8797C79.5904 28.0697 78.7404 26.7497 78.2904 24.9097H78.1804C77.8704 26.5597 76.9604 27.8797 75.4204 28.8897L74.9004 28.2397C75.5504 27.8697 76.1104 27.3897 76.5704 26.7797C77.0304 26.1797 77.3204 25.5597 77.4204 24.9097H75.0604V24.1897H77.5404C77.6004 23.7697 77.6304 23.1997 77.6304 22.4697H78.3504C78.3504 23.2497 78.3304 23.8297 78.2904 24.1897H81.1904V24.9097H79.0004H79.0104Z" fill="#003875"/>
<path d="M87.0499 24.83C86.8399 24.98 86.5699 25.1 86.2499 25.21L85.9599 24.75C86.2699 24.68 86.5099 24.6 86.6699 24.5C86.5799 24.43 86.4299 24.32 86.2099 24.17L86.5699 23.87C86.6599 23.93 86.7399 23.98 86.8099 24.02C86.8999 24.08 86.9899 24.15 87.0999 24.23C87.2399 24.14 87.3899 24 87.5699 23.81L87.9299 24.12C87.7599 24.29 87.6099 24.43 87.4599 24.53C87.5899 24.65 87.7199 24.77 87.8499 24.89L87.4099 25.22C87.1999 24.95 87.0799 24.82 87.0499 24.82M87.0099 23.42C86.7799 23.57 86.5199 23.7 86.2099 23.84L85.8599 23.38C86.2399 23.28 86.4899 23.18 86.6099 23.1C86.4999 23.01 86.3399 22.9 86.1399 22.78L86.5099 22.46C86.6899 22.57 86.8699 22.7 87.0499 22.84C87.2499 22.71 87.3799 22.58 87.4699 22.47L87.8099 22.78C87.7099 22.92 87.5699 23.04 87.4099 23.15C87.4999 23.23 87.6199 23.35 87.7699 23.51L87.3499 23.82C87.1699 23.56 87.0499 23.43 86.9999 23.43M89.3699 25.89H84.4299V26.9H83.8199V25.35H84.1599L84.0899 22.72C84.6799 22.7 85.1899 22.64 85.5999 22.52L85.8999 23.03C85.6399 23.12 85.2399 23.18 84.6799 23.21L84.6999 23.56H85.7699V24.03H84.7199V24.42H85.7699V24.89H84.7399V25.35H89.0399V24.89H88.0899V24.42H89.0699V24.03H88.0899V23.56H89.0999V23.18H88.0199V22.64H89.7099L89.6399 25.34H89.9999V26.89H89.3799V25.88L89.3699 25.89ZM88.7699 26.18V26.68C88.3699 26.89 87.8699 27.09 87.2799 27.28H90.1199V27.83H87.2799V28.11C87.2799 28.6 87.0699 28.84 86.6599 28.84H85.6499L85.4899 28.29L86.4299 28.32C86.5699 28.32 86.6399 28.25 86.6399 28.12V27.84H83.6699V27.29H86.6399V26.99C86.9499 26.94 87.3499 26.84 87.8399 26.7H84.9599V26.19H88.7699V26.18Z" fill="#003875"/>
<path d="M41.8905 36.6003H41.2605V32.1503H40.0605V31.5703H43.0805V32.1503H41.8905V36.6003Z" fill="#003875"/>
<path d="M46.6098 33.6003V31.5703H47.2398V36.6003H46.6098V34.1903H44.2098V36.6003H43.5898V31.5703H44.2098V33.6003H46.6098Z" fill="#003875"/>
<path d="M48.2109 31.5703H50.9109V32.1503H48.8409V33.5503H50.8509V34.1303H48.8409V36.0303H50.9109V36.6003H48.2109V31.5703Z" fill="#003875"/>
<path d="M56.7195 33.6003V31.5703H57.3395V36.6003H56.7195V34.1903H54.3195V36.6003H53.6895V31.5703H54.3195V33.6003H56.7195Z" fill="#003875"/>
<path d="M62.6107 34.0897C62.6107 32.9797 61.7807 32.0597 60.6007 32.0597C59.4207 32.0597 58.5907 32.9897 58.5907 34.0897C58.5907 35.1897 59.5107 36.1197 60.6007 36.1197C61.6907 36.1197 62.6107 35.2297 62.6107 34.0897ZM63.2407 34.0897C63.2407 35.5797 62.0607 36.7097 60.6007 36.7097C59.1407 36.7097 57.9707 35.5797 57.9707 34.0897C57.9707 32.5997 59.1607 31.4697 60.6007 31.4697C62.0407 31.4697 63.2407 32.6497 63.2407 34.0897Z" fill="#003875"/>
<path d="M63.8496 31.3301L67.6196 35.2901V31.5701H68.2496V36.8101L64.4696 32.8501V36.6001H63.8496V31.3301Z" fill="#003875"/>
<path d="M73.7891 34.07V34.27C73.7891 35.65 72.8191 36.71 71.4091 36.71C69.9991 36.71 68.8691 35.5 68.8691 34.1C68.8691 32.7 70.0291 31.46 71.4791 31.46C72.2591 31.46 73.0291 31.81 73.5291 32.43L73.0891 32.85C72.7291 32.36 72.1191 32.03 71.5091 32.03C70.3791 32.03 69.4991 32.94 69.4991 34.07C69.4991 35.12 70.3691 36.13 71.4491 36.13C72.2291 36.13 73.0691 35.46 73.0991 34.64H71.7991V34.07H73.7891V34.07Z" fill="#003875"/>
<path d="M79.2307 31.5703H80.0607L77.7907 33.8303L80.0907 36.6003H79.2507L77.3507 34.2603L77.1007 34.5003V36.6003H76.4707V31.5703H77.1007V33.7503L79.2307 31.5703Z" fill="#003875"/>
<path d="M84.8295 34.0897C84.8295 32.9797 83.9995 32.0597 82.8195 32.0597C81.6395 32.0597 80.8094 32.9897 80.8094 34.0897C80.8094 35.1897 81.7295 36.1197 82.8195 36.1197C83.9095 36.1197 84.8295 35.2297 84.8295 34.0897ZM85.4594 34.0897C85.4594 35.5797 84.2795 36.7097 82.8295 36.7097C81.3795 36.7097 80.1895 35.5797 80.1895 34.0897C80.1895 32.5997 81.3795 31.4697 82.8295 31.4697C84.2795 31.4697 85.4594 32.6497 85.4594 34.0897Z" fill="#003875"/>
<path d="M86.0703 31.3301L89.8503 35.2901V31.5701H90.4803V36.8101L86.7003 32.8501V36.6001H86.0703V31.3301Z" fill="#003875"/>
<path d="M96.0196 34.07V34.27C96.0196 35.65 95.0496 36.71 93.6396 36.71C92.2296 36.71 91.0996 35.5 91.0996 34.1C91.0996 32.7 92.2596 31.46 93.7096 31.46C94.4896 31.46 95.2696 31.81 95.7596 32.43L95.3196 32.85C94.9596 32.36 94.3496 32.03 93.7396 32.03C92.6096 32.03 91.7296 32.94 91.7296 34.07C91.7296 35.12 92.5996 36.13 93.6796 36.13C94.4596 36.13 95.2996 35.46 95.3296 34.64H94.0296V34.07H96.0196V34.07Z" fill="#003875"/>
<path d="M41.0695 39.5703V42.5403C41.0695 43.3603 41.3195 44.1203 42.2795 44.1203C43.2395 44.1203 43.4895 43.3603 43.4895 42.5403V39.5703H44.1195V42.7503C44.1195 43.8603 43.4295 44.7103 42.2795 44.7103C41.1295 44.7103 40.4395 43.8603 40.4395 42.7503V39.5703H41.0695Z" fill="#003875"/>
<path d="M45 39.3301L48.78 43.2901V39.5701H49.4V44.8101L45.63 40.8601V44.6001H45V39.3301Z" fill="#003875"/>
<path d="M50.9698 39.5801H50.3398V44.6101H50.9698V39.5801Z" fill="#003875"/>
<path d="M53.6392 43.3003L55.1292 39.5703H55.8192L53.6392 44.8703L51.4492 39.5703H52.1392L53.6392 43.3003Z" fill="#003875"/>
<path d="M56.3105 39.5703H59.0205V40.1503H56.9405V41.5603H58.9605V42.1303H56.9405V44.0303H59.0205V44.6003H56.3105V39.5703Z" fill="#003875"/>
<path d="M60.4796 41.9601H60.6796C61.3196 41.9601 62.0096 41.8401 62.0096 41.0401C62.0096 40.2401 61.2596 40.1401 60.6396 40.1401H60.4696V41.9601H60.4796ZM62.9796 44.6101H62.2196L60.7396 42.4801H60.4796V44.6101H59.8496V39.5801H60.6096C61.0596 39.5801 61.5396 39.5801 61.9396 39.8101C62.3596 40.0601 62.5996 40.5301 62.5996 41.0101C62.5996 41.7301 62.1196 42.3301 61.3896 42.4201L62.9796 44.6101V44.6101Z" fill="#003875"/>
<path d="M65.7795 40.5297C65.5895 40.2197 65.3495 40.0597 64.9695 40.0597C64.5695 40.0597 64.1295 40.3297 64.1295 40.7697C64.1295 41.1597 64.5195 41.3697 64.8295 41.4897L65.1895 41.6297C65.8995 41.9097 66.4395 42.2997 66.4395 43.1397C66.4395 44.0497 65.7295 44.7097 64.8295 44.7097C64.0195 44.7097 63.3795 44.1097 63.2695 43.2997L63.8995 43.1697C63.8995 43.7197 64.3295 44.1197 64.8695 44.1197C65.4095 44.1197 65.7995 43.6697 65.7995 43.1397C65.7995 42.6097 65.3695 42.3697 64.9295 42.1897L64.5795 42.0397C64.0095 41.7897 63.4895 41.4697 63.4895 40.7697C63.4895 39.9597 64.2095 39.4697 64.9695 39.4697C65.5295 39.4697 65.9895 39.7397 66.2595 40.2297L65.7595 40.5297H65.7795Z" fill="#003875"/>
<path d="M67.7999 39.5801H67.1699V44.6101H67.7999V39.5801Z" fill="#003875"/>
<path d="M70.1599 44.6003H69.5398V40.1503H68.3398V39.5703H71.3598V40.1503H70.1599V44.6003Z" fill="#003875"/>
<path d="M71.4004 39.5703H72.1204L73.3504 41.7203L74.5904 39.5703H75.3104L73.6604 42.4203V44.6003H73.0404V42.4203L71.4004 39.5703Z" fill="#003875"/>
<path d="M82.0892 42.0897C82.0892 40.9797 81.2592 40.0597 80.0792 40.0597C78.8992 40.0597 78.0692 40.9897 78.0692 42.0897C78.0692 43.1897 78.9892 44.1197 80.0792 44.1197C81.1692 44.1197 82.0892 43.2297 82.0892 42.0897ZM82.7192 42.0897C82.7192 43.5897 81.5392 44.7097 80.0792 44.7097C78.6192 44.7097 77.4492 43.5797 77.4492 42.0897C77.4492 40.5997 78.6392 39.4697 80.0792 39.4697C81.5192 39.4697 82.7192 40.6497 82.7192 42.0897Z" fill="#003875"/>
<path d="M84.0109 40.1503V41.5603H85.7609V42.1403H84.0109V44.6003H83.3809V39.5703H85.8209V40.1503H84.0109Z" fill="#003875"/>
<path d="M90.8498 40.5297C90.6598 40.2197 90.4198 40.0597 90.0398 40.0597C89.6398 40.0597 89.1998 40.3297 89.1998 40.7697C89.1998 41.1597 89.5898 41.3697 89.8998 41.4897L90.2598 41.6297C90.9698 41.9097 91.5098 42.2997 91.5098 43.1397C91.5098 44.0497 90.7998 44.7097 89.8998 44.7097C89.0898 44.7097 88.4498 44.1097 88.3398 43.2997L88.9799 43.1697C88.9799 43.7197 89.4098 44.1197 89.9498 44.1197C90.4898 44.1197 90.8798 43.6697 90.8798 43.1397C90.8798 42.6097 90.4498 42.3697 90.0098 42.1897L89.6599 42.0397C89.0899 41.7897 88.5698 41.4697 88.5698 40.7697C88.5698 39.9597 89.2899 39.4697 90.0499 39.4697C90.6099 39.4697 91.0698 39.7397 91.3398 40.2297L90.8398 40.5297H90.8498Z" fill="#003875"/>
<path d="M95.9305 40.5397C95.5705 40.2197 95.0805 40.0497 94.6005 40.0497C93.4705 40.0497 92.6105 40.9897 92.6105 42.1097C92.6105 43.2297 93.4605 44.1497 94.5805 44.1497C95.0705 44.1497 95.5505 43.9597 95.9205 43.6297V44.3697C95.5305 44.5997 95.0405 44.7197 94.6005 44.7197C93.1705 44.7197 91.9805 43.5797 91.9805 42.1197C91.9805 40.6597 93.1705 39.4697 94.6605 39.4697C95.1005 39.4697 95.5505 39.5797 95.9305 39.8097V40.5397V40.5397Z" fill="#003875"/>
<path d="M97.3507 39.5801H96.7207V44.6101H97.3507V39.5801Z" fill="#003875"/>
<path d="M98.3496 39.5703H101.05V40.1503H98.9796V41.5603H101V42.1303H98.9796V44.0303H101.05V44.6003H98.3496V39.5703Z" fill="#003875"/>
<path d="M101.84 39.3301L105.61 43.2901V39.5701H106.24V44.8101L102.46 40.8601V44.6001H101.84V39.3301Z" fill="#003875"/>
<path d="M110.86 40.5397C110.5 40.2197 110.01 40.0497 109.53 40.0497C108.4 40.0497 107.54 40.9897 107.54 42.1097C107.54 43.2297 108.39 44.1497 109.51 44.1497C110 44.1497 110.48 43.9597 110.85 43.6297V44.3697C110.46 44.5997 109.97 44.7197 109.53 44.7197C108.1 44.7197 106.91 43.5797 106.91 42.1197C106.91 40.6597 108.1 39.4697 109.59 39.4697C110.03 39.4697 110.48 39.5797 110.86 39.8097V40.5397V40.5397Z" fill="#003875"/>
<path d="M111.67 39.5703H114.38V40.1503H112.3V41.5603H114.32V42.1303H112.3V44.0303H114.38V44.6003H111.67V39.5703Z" fill="#003875"/>
<path d="M42.3998 48.7401L41.5098 50.7701H43.2998L42.4098 48.7401H42.3998ZM41.2498 51.3501L40.6798 52.6101H40.0098L42.4098 47.3701L44.8098 52.6101H44.1398L43.5698 51.3501H41.2598H41.2498Z" fill="#003875"/>
<path d="M45.2305 47.3398L49.0005 51.2898V47.5798H49.6305V52.8098L45.8505 48.8598V52.6098H45.2305V47.3398Z" fill="#003875"/>
<path d="M51.1593 52.0303H51.3793C52.6593 52.0303 53.7693 51.5503 53.7693 50.0903C53.7693 48.6303 52.6593 48.1503 51.3793 48.1503H51.1593V52.0303ZM50.5293 47.5703H51.5693C53.1093 47.5703 54.3893 48.3803 54.3893 50.0603C54.3893 51.7403 53.1393 52.6003 51.5493 52.6003H50.5293V47.5703Z" fill="#003875"/>
<path d="M58.4391 52.6101H57.8191V48.1501H56.6191V47.5801H59.6391V48.1501H58.4391V52.6101Z" fill="#003875"/>
<path d="M60.1992 47.5801H62.8992V48.1501H60.8192V49.5601H62.8392V50.1301H60.8192V52.0301H62.8992V52.6101H60.1992V47.5801Z" fill="#003875"/>
<path d="M67.3992 48.5397C67.0392 48.2197 66.5492 48.0497 66.0692 48.0497C64.9392 48.0497 64.0792 48.9897 64.0792 50.1097C64.0792 51.2297 64.9292 52.1497 66.0492 52.1497C66.5392 52.1497 67.0192 51.9597 67.3892 51.6297V52.3697C66.9992 52.5997 66.5092 52.7197 66.0692 52.7197C64.6392 52.7197 63.4492 51.5797 63.4492 50.1197C63.4492 48.6597 64.6392 47.4697 66.1292 47.4697C66.5692 47.4697 67.0192 47.5797 67.3992 47.8097V48.5397V48.5397Z" fill="#003875"/>
<path d="M71.1802 49.6101V47.5801H71.8102V52.6101H71.1802V50.1901H68.7902V52.6101H68.1602V47.5801H68.7902V49.6101H71.1802Z" fill="#003875"/>
<path d="M72.7207 47.3398L76.5007 51.2898V47.5798H77.1307V52.8098L73.3507 48.8598V52.6098H72.7207V47.3398Z" fill="#003875"/>
<path d="M82.3802 50.0897C82.3802 48.9797 81.5502 48.0597 80.3702 48.0597C79.1902 48.0597 78.3602 48.9897 78.3602 50.0897C78.3602 51.1897 79.2802 52.1197 80.3702 52.1197C81.4602 52.1197 82.3802 51.2297 82.3802 50.0897ZM83.0102 50.0897C83.0102 51.5897 81.8302 52.7097 80.3702 52.7097C78.9102 52.7097 77.7402 51.5797 77.7402 50.0897C77.7402 48.5997 78.9302 47.4697 80.3702 47.4697C81.8102 47.4697 83.0102 48.6497 83.0102 50.0897Z" fill="#003875"/>
<path d="M84.3097 52.0301H85.8297V52.6101H83.6797V47.5801H84.3097V52.0301Z" fill="#003875"/>
<path d="M90.6009 50.0897C90.6009 48.9797 89.7709 48.0597 88.5909 48.0597C87.4109 48.0597 86.5809 48.9897 86.5809 50.0897C86.5809 51.1897 87.5009 52.1197 88.5909 52.1197C89.6809 52.1197 90.6009 51.2297 90.6009 50.0897ZM91.2309 50.0897C91.2309 51.5897 90.0509 52.7097 88.5909 52.7097C87.1309 52.7097 85.9609 51.5797 85.9609 50.0897C85.9609 48.5997 87.1509 47.4697 88.5909 47.4697C90.0309 47.4697 91.2309 48.6497 91.2309 50.0897Z" fill="#003875"/>
<path d="M96.4903 50.07V50.27C96.4903 51.65 95.5203 52.71 94.1103 52.71C92.7003 52.71 91.5703 51.5 91.5703 50.1C91.5703 48.7 92.7303 47.46 94.1803 47.46C94.9603 47.46 95.7403 47.81 96.2303 48.43L95.7903 48.85C95.4303 48.36 94.8203 48.03 94.2103 48.03C93.0803 48.03 92.2003 48.94 92.2003 50.07C92.2003 51.12 93.0703 52.13 94.1503 52.13C94.9303 52.13 95.7703 51.46 95.8003 50.64H94.5003V50.07H96.4903V50.07Z" fill="#003875"/>
<path d="M96.6504 47.5801H97.3704L98.6104 49.7301L99.8404 47.5801H100.56L98.9204 50.4201V52.6101H98.2904V50.4201L96.6504 47.5801Z" fill="#003875"/>
<path d="M31.5007 52.7702L27.8907 46.7602C27.8907 46.7602 27.7807 46.6202 27.7807 46.3902V35.2402H26.4207V46.7402C26.5307 46.8502 28.8007 50.7302 28.8007 50.7302H23.1707C23.1707 50.7302 25.4407 46.8602 25.5507 46.7402V35.2402H24.1907V46.3902C24.1907 46.6202 24.0807 46.7602 24.0807 46.7602L20.4707 52.7702H31.5007Z" fill="#A88236"/>
<path d="M30.3899 27.4399C30.3899 27.4399 31.0699 24.6299 28.6499 22.7899C28.6499 22.7899 27.6799 21.9199 25.8399 21.9199C24.1899 21.9199 23.2199 22.7899 23.2199 22.7899C20.9899 24.3399 21.5699 27.4399 21.5699 27.4399H30.3899V27.4399Z" fill="#A88236"/>
<path d="M21.8397 28.2205H30.1297C30.1897 28.0605 30.2497 27.9005 30.2997 27.7305H21.6797C21.7297 27.9005 21.7797 28.0605 21.8497 28.2205" fill="#A88236"/>
<path d="M30.0007 28.5098H21.9707C22.0507 28.6798 22.1407 28.8398 22.2507 28.9998H29.7207C29.8207 28.8498 29.9107 28.6798 30.0007 28.5098Z" fill="#A88236"/>
<path d="M22.7909 29.6703H29.1809C29.3009 29.5503 29.4109 29.4203 29.5209 29.2803H22.4609C22.5709 29.4203 22.6809 29.5403 22.8009 29.6703" fill="#A88236"/>
<path d="M23.4796 30.25H28.4896C28.6196 30.16 28.7496 30.06 28.8696 29.96H23.0996C23.2196 30.06 23.3496 30.16 23.4796 30.25Z" fill="#A88236"/>
<path d="M24.1699 30.6396C24.7199 30.8896 25.3399 31.0296 25.9799 31.0296C26.6199 31.0296 27.2399 30.8896 27.7899 30.6396H24.1699V30.6396Z" fill="#A88236"/>
<path d="M34.5795 31.25H27.7895C27.7895 31.25 27.1595 31.25 26.6595 31.59C26.2695 31.86 25.9895 32.47 25.9795 32.5C25.9795 32.5 25.6895 31.85 25.2995 31.59C24.7995 31.25 24.1695 31.25 24.1695 31.25H17.3795L16.0195 33.42H22.2395C22.2395 33.42 22.4195 33.42 22.5395 33.44C22.7195 33.47 23.0495 33.57 23.3795 33.81C23.8395 34.14 23.9695 34.31 24.0795 34.43C24.1395 34.49 24.2795 34.68 24.2795 34.68H27.6695C27.6695 34.68 27.8195 34.48 27.8695 34.43C27.9795 34.32 28.1095 34.15 28.5695 33.81C28.8995 33.57 29.2295 33.47 29.4095 33.44C29.5195 33.42 29.7095 33.42 29.7095 33.42H35.9195L34.5595 31.25H34.5795Z" fill="#003875"/>
<path d="M16.7209 34.0803V44.4003C16.7209 44.5103 16.7209 44.6103 16.7409 44.7003C16.8509 45.7903 17.1909 46.6003 17.8209 47.6603C18.8209 49.3203 20.6209 50.4803 20.6209 50.4803L21.4709 49.1203C21.4709 49.1203 20.3109 48.5003 19.3909 47.0903C19.2009 46.8103 19.0209 46.5403 18.8909 46.2803C18.7709 46.0303 18.6809 45.8303 18.6109 45.6103C18.5609 45.4503 18.5109 45.3103 18.4809 45.1803C18.4309 44.9903 18.4109 44.8503 18.4009 44.6703C18.4009 44.6103 18.3909 44.3503 18.3909 44.3503V34.0703H16.7109L16.7209 34.0803Z" fill="#003875"/>
<path d="M19.3008 34.0796V44.3596C19.3008 44.3596 19.3008 44.3996 19.3008 44.4496C19.3008 44.4996 19.3008 44.5696 19.3208 44.6296C19.3208 44.6696 19.3308 44.7096 19.3408 44.7396C19.3708 44.8996 19.4108 45.0396 19.4808 45.2496C19.6008 45.5996 19.8008 46.0096 20.1008 46.4896C20.8608 47.7196 21.9608 48.2796 21.9608 48.2796L22.8108 46.9596C22.8108 46.9596 22.5308 46.7996 22.1908 46.4696C21.9608 46.2496 21.6908 45.9696 21.4608 45.6196C21.2308 45.2696 21.1008 44.9196 21.0208 44.6496C20.9508 44.4296 20.9408 44.2496 20.9408 44.1296C20.9408 44.0396 20.9408 43.9796 20.9408 43.9796V34.0596H19.3108L19.3008 34.0796Z" fill="#003875"/>
<path d="M35.26 34.0803V44.4003C35.26 44.5103 35.26 44.6103 35.24 44.7003C35.13 45.7903 34.79 46.6003 34.15 47.6603C33.15 49.3203 31.35 50.4803 31.35 50.4803L30.5 49.1203C30.5 49.1203 31.66 48.5003 32.58 47.0903C32.77 46.8103 32.95 46.5403 33.08 46.2803C33.2 46.0303 33.29 45.8303 33.36 45.6103C33.41 45.4503 33.46 45.3103 33.49 45.1803C33.54 44.9903 33.56 44.8503 33.57 44.6703C33.57 44.6103 33.58 44.3503 33.58 44.3503V34.0703H35.26V34.0803Z" fill="#003875"/>
<path d="M32.6702 34.0796V44.3596C32.6702 44.3596 32.6702 44.3996 32.6702 44.4496C32.6702 44.4996 32.6702 44.5696 32.6502 44.6296C32.6502 44.6696 32.6402 44.7096 32.6302 44.7396C32.6002 44.8996 32.5602 45.0396 32.4902 45.2496C32.3702 45.5996 32.1702 46.0096 31.8702 46.4896C31.1102 47.7196 30.0102 48.2796 30.0102 48.2796L29.1602 46.9596C29.1602 46.9596 29.4402 46.7996 29.7802 46.4696C30.0102 46.2496 30.2802 45.9696 30.5102 45.6196C30.7402 45.2696 30.8702 44.9196 30.9502 44.6496C31.0202 44.4296 31.0302 44.2496 31.0302 44.1296C31.0302 44.0396 31.0302 43.9796 31.0302 43.9796V34.0596H32.6602L32.6702 34.0796Z" fill="#003875"/>
<path d="M125.381 21.5195H124.311V53.2195H125.381V21.5195Z" fill="#1C3663"/>
<path d="M137.53 35.2201C137.28 35.1401 137.04 35.0101 136.84 34.8401L137.06 34.4001C137.25 34.5501 137.46 34.6801 137.69 34.7501C137.93 34.8301 138.17 34.8701 138.42 34.8601C138.68 34.8801 138.93 34.8101 139.15 34.6801C139.31 34.5701 139.41 34.3901 139.41 34.1901C139.41 34.0201 139.32 33.8601 139.17 33.7801C138.93 33.6601 138.67 33.5801 138.41 33.5401C138.13 33.4901 137.86 33.4001 137.6 33.3001C137.41 33.2201 137.24 33.0901 137.11 32.9301C136.98 32.7601 136.92 32.5501 136.93 32.3401C136.92 32.1001 136.98 31.8701 137.11 31.6701C137.25 31.4801 137.44 31.3301 137.66 31.2401C137.92 31.1301 138.2 31.0801 138.48 31.0801C138.76 31.0801 139.04 31.1201 139.3 31.2101C139.54 31.2901 139.76 31.4201 139.94 31.5901L139.72 32.0301C139.54 31.8801 139.34 31.7601 139.13 31.6801C138.92 31.6001 138.7 31.5601 138.48 31.5701C138.23 31.5601 137.98 31.6201 137.77 31.7601C137.6 31.8801 137.51 32.0701 137.51 32.2801C137.51 32.4501 137.59 32.6101 137.73 32.7101C137.96 32.8401 138.2 32.9301 138.46 32.9701C138.75 33.0301 139.03 33.1101 139.3 33.2101C139.5 33.2801 139.68 33.4001 139.82 33.5601C139.95 33.7201 140.02 33.9301 140 34.1401C140 34.3701 139.94 34.5901 139.81 34.7701C139.67 34.9601 139.49 35.1001 139.27 35.1901C139 35.2901 138.71 35.3401 138.42 35.3401C138.11 35.3401 137.81 35.3001 137.52 35.2101" fill="#0F305C"/>
<path d="M143.329 33.4602V35.2902H142.739V33.4902C142.759 33.2902 142.699 33.0902 142.589 32.9302C142.459 32.8002 142.279 32.7402 142.099 32.7602C141.869 32.7602 141.659 32.8402 141.499 33.0002C141.349 33.1702 141.269 33.3902 141.289 33.6102V35.2902H140.699V30.9902H141.289V32.8002C141.379 32.6302 141.519 32.5002 141.689 32.4102C141.869 32.3202 142.069 32.2702 142.269 32.2802C142.969 32.2802 143.329 32.6702 143.329 33.4602" fill="#0F305C"/>
<path d="M144.88 32.9197C144.73 33.0697 144.63 33.2697 144.61 33.4897H146.17C146.17 33.2797 146.08 33.0797 145.94 32.9197C145.8 32.7897 145.61 32.7197 145.42 32.7297C145.22 32.7297 145.03 32.7897 144.88 32.9297M146.69 33.8497H144.59C144.61 34.5397 144.92 34.8797 145.53 34.8797C145.87 34.8797 146.2 34.7597 146.46 34.5497L146.64 34.9697C146.49 35.0997 146.32 35.1897 146.13 35.2497C145.93 35.3197 145.72 35.3497 145.51 35.3497C144.74 35.4197 144.06 34.8497 144 34.0797C144 33.9997 144 33.9097 144 33.8297C144 33.5497 144.06 33.2797 144.18 33.0297C144.29 32.8097 144.46 32.6197 144.67 32.4897C144.89 32.3597 145.14 32.2897 145.4 32.2997C145.76 32.2797 146.11 32.4197 146.35 32.6897C146.59 32.9897 146.72 33.3697 146.69 33.7597V33.8597V33.8497Z" fill="#0F305C"/>
<path d="M149.991 33.4603V35.2903H149.391V33.4903C149.411 33.2903 149.351 33.0903 149.241 32.9303C149.111 32.8003 148.931 32.7403 148.751 32.7603C148.521 32.7603 148.311 32.8403 148.151 33.0003C148.001 33.1703 147.931 33.3903 147.941 33.6103V35.2903H147.361V33.1803C147.361 32.9003 147.341 32.6303 147.311 32.3503H147.861L147.911 32.8603C148.001 32.6803 148.141 32.5303 148.321 32.4303C148.511 32.3303 148.711 32.2803 148.921 32.2803C149.631 32.2803 149.991 32.6703 149.991 33.4603" fill="#0F305C"/>
<path d="M151.4 34.8296H153.21V35.2896H150.68V34.8896L152.43 32.8096H150.72V32.3496H153.13V32.7696L151.4 34.8296Z" fill="#0F305C"/>
<path d="M156.501 33.4602V35.2902H155.911V33.4902C155.931 33.2902 155.871 33.0902 155.761 32.9302C155.631 32.8002 155.451 32.7402 155.271 32.7602C155.051 32.7602 154.831 32.8402 154.671 33.0002C154.521 33.1702 154.451 33.3902 154.461 33.6102V35.2902H153.891V30.9902H154.471V32.8002C154.561 32.6302 154.701 32.5002 154.861 32.4102C155.041 32.3202 155.241 32.2702 155.441 32.2802C156.151 32.2802 156.501 32.6702 156.501 33.4602" fill="#0F305C"/>
<path d="M158.05 32.9197C157.9 33.0697 157.81 33.2697 157.79 33.4897H159.35C159.35 33.2797 159.26 33.0797 159.12 32.9197C158.98 32.7897 158.79 32.7197 158.6 32.7297C158.4 32.7297 158.2 32.7897 158.05 32.9297M159.86 33.8497H157.76C157.78 34.5397 158.09 34.8797 158.7 34.8797C159.04 34.8797 159.37 34.7597 159.63 34.5497L159.81 34.9697C159.66 35.0997 159.49 35.1897 159.31 35.2497C159.11 35.3197 158.9 35.3497 158.69 35.3497C157.92 35.4197 157.24 34.8397 157.18 34.0697C157.18 33.9897 157.18 33.9097 157.18 33.8297C157.18 33.5497 157.23 33.2797 157.36 33.0297C157.47 32.8097 157.64 32.6197 157.85 32.4897C158.07 32.3597 158.32 32.2897 158.58 32.2997C158.93 32.2797 159.28 32.4197 159.52 32.6897C159.76 32.9897 159.88 33.3697 159.86 33.7597V33.8597V33.8497Z" fill="#0F305C"/>
<path d="M163.16 33.4603V35.2903H162.57V33.4903C162.59 33.2903 162.53 33.0903 162.42 32.9303C162.29 32.8003 162.11 32.7403 161.93 32.7603C161.7 32.7603 161.49 32.8403 161.33 33.0003C161.18 33.1703 161.1 33.3903 161.12 33.6103V35.2903H160.53V33.1803C160.53 32.9003 160.52 32.6303 160.48 32.3503H161.03L161.08 32.8603C161.17 32.6803 161.31 32.5303 161.49 32.4303C161.68 32.3303 161.89 32.2803 162.1 32.2803C162.8 32.2803 163.16 32.6703 163.16 33.4603Z" fill="#0F305C"/>
<path d="M167.249 33.0304C167.489 33.0504 167.729 32.9904 167.929 32.8504C168.219 32.5604 168.219 32.0804 167.929 31.7904C167.729 31.6604 167.489 31.6004 167.249 31.6204H166.219V33.0404H167.259L167.249 33.0304ZM168.959 35.2904H168.319L167.799 33.9004C167.759 33.7704 167.669 33.6604 167.559 33.5904C167.419 33.5304 167.269 33.5004 167.129 33.5104H166.219V35.2904H165.619V31.1304H167.329C167.709 31.1104 168.079 31.2104 168.379 31.4404C168.629 31.6604 168.759 31.9804 168.749 32.3104C168.749 32.5604 168.679 32.8004 168.529 33.0004C168.379 33.2004 168.159 33.3404 167.919 33.4004C168.179 33.4604 168.379 33.6604 168.449 33.9104L168.969 35.2804L168.959 35.2904Z" fill="#0F305C"/>
<path d="M170.339 32.92C170.189 33.07 170.099 33.27 170.069 33.49H171.629C171.629 33.28 171.539 33.08 171.399 32.92C171.259 32.79 171.069 32.72 170.879 32.73C170.679 32.73 170.479 32.79 170.329 32.93L170.339 32.92ZM172.149 33.84H170.049C170.069 34.53 170.379 34.87 170.989 34.87C171.329 34.87 171.649 34.75 171.909 34.54L172.089 34.96C171.939 35.08 171.769 35.18 171.579 35.24C171.379 35.31 171.169 35.34 170.959 35.34C170.189 35.41 169.509 34.83 169.449 34.06C169.449 33.98 169.449 33.9 169.449 33.82C169.449 33.54 169.509 33.27 169.629 33.02C169.739 32.79 169.919 32.61 170.129 32.48C170.349 32.35 170.599 32.28 170.859 32.29C171.209 32.27 171.559 32.41 171.799 32.68C172.049 32.98 172.169 33.36 172.149 33.75V33.85V33.84Z" fill="#0F305C"/>
<path d="M172.641 34.9599L172.821 34.5299C173.121 34.7599 173.501 34.8799 173.881 34.8799C174.041 34.8899 174.201 34.8499 174.341 34.7799C174.441 34.7199 174.501 34.6099 174.501 34.4899C174.501 34.3999 174.461 34.3099 174.391 34.2499C174.281 34.1699 174.161 34.1199 174.021 34.0999L173.531 33.9799C173.311 33.9399 173.111 33.8399 172.941 33.6899C172.811 33.5499 172.731 33.3599 172.741 33.1699C172.741 32.9199 172.851 32.6799 173.061 32.5299C173.311 32.3599 173.601 32.2699 173.911 32.2899C174.111 32.2899 174.321 32.3199 174.511 32.3899C174.691 32.4499 174.861 32.5399 175.001 32.6699L174.821 33.0799C174.571 32.8699 174.251 32.7499 173.921 32.7399C173.771 32.7399 173.611 32.7699 173.481 32.8499C173.381 32.9199 173.321 33.0299 173.321 33.1499C173.321 33.2399 173.351 33.3299 173.421 33.3899C173.511 33.4599 173.621 33.5099 173.731 33.5399L174.231 33.6599C174.451 33.6999 174.661 33.7999 174.831 33.9499C174.971 34.0899 175.041 34.2799 175.031 34.4699C175.031 34.7199 174.921 34.9599 174.711 35.0999C174.451 35.2699 174.151 35.3499 173.841 35.3299C173.411 35.3499 172.981 35.2199 172.631 34.9499" fill="#0F305C"/>
<path d="M176.431 32.92C176.281 33.07 176.181 33.27 176.161 33.49H177.721C177.721 33.28 177.631 33.08 177.491 32.92C177.351 32.79 177.161 32.72 176.971 32.73C176.771 32.73 176.581 32.8 176.441 32.93L176.431 32.92ZM178.241 33.84H176.141C176.161 34.53 176.471 34.87 177.081 34.87C177.421 34.87 177.751 34.75 178.011 34.54L178.191 34.96C178.041 35.08 177.871 35.18 177.691 35.24C177.491 35.31 177.281 35.34 177.071 35.34C176.301 35.41 175.621 34.84 175.561 34.07C175.561 33.99 175.561 33.9 175.561 33.82C175.561 33.54 175.621 33.27 175.741 33.02C175.851 32.8 176.021 32.61 176.241 32.48C176.461 32.35 176.711 32.28 176.971 32.29C177.321 32.27 177.671 32.41 177.911 32.68C178.151 32.98 178.271 33.36 178.241 33.75V33.85V33.84Z" fill="#0F305C"/>
<path d="M180.821 34.5902C180.981 34.3602 181.061 34.0902 181.041 33.8102C181.061 33.5302 180.981 33.2602 180.821 33.0302C180.521 32.6902 179.991 32.6502 179.651 32.9602C179.621 32.9802 179.601 33.0102 179.581 33.0302C179.421 33.2602 179.341 33.5402 179.361 33.8102C179.341 34.0902 179.421 34.3602 179.581 34.5802C179.731 34.7702 179.971 34.8702 180.211 34.8602C180.451 34.8802 180.681 34.7802 180.831 34.5902M181.631 32.3502V35.3002H181.041V34.8002C180.961 34.9702 180.831 35.1102 180.661 35.2002C180.481 35.3002 180.271 35.3502 180.071 35.3402C179.581 35.3602 179.131 35.0702 178.921 34.6202C178.811 34.3702 178.751 34.1002 178.761 33.8202C178.761 33.5402 178.811 33.2702 178.931 33.0102C179.031 32.7902 179.191 32.6002 179.391 32.4702C179.591 32.3402 179.831 32.2702 180.071 32.2802C180.281 32.2802 180.481 32.3202 180.661 32.4202C180.831 32.5102 180.961 32.6502 181.041 32.8202V32.3302H181.631V32.3502Z" fill="#0F305C"/>
<path d="M184.239 32.3195V32.8595C184.119 32.8195 183.999 32.7995 183.879 32.7995C183.649 32.7795 183.429 32.8695 183.269 33.0395C183.129 33.2095 183.059 33.4295 183.069 33.6495V35.2895H182.489V33.1695C182.489 32.8895 182.479 32.6095 182.439 32.3395H182.989L183.039 32.8695C183.109 32.6895 183.229 32.5295 183.399 32.4195C183.569 32.3195 183.759 32.2695 183.949 32.2695C184.049 32.2695 184.139 32.2795 184.229 32.3095" fill="#0F305C"/>
<path d="M185.139 35.1502C184.919 35.0302 184.739 34.8402 184.629 34.6202C184.509 34.3702 184.449 34.1002 184.449 33.8202C184.449 33.5402 184.509 33.2602 184.639 33.0102C184.759 32.7802 184.939 32.5902 185.159 32.4702C185.399 32.3402 185.659 32.2702 185.939 32.2802C186.139 32.2802 186.339 32.3202 186.529 32.3902C186.699 32.4502 186.859 32.5402 186.989 32.6702L186.809 33.1002C186.579 32.9002 186.279 32.7802 185.969 32.7702C185.719 32.7602 185.479 32.8502 185.309 33.0302C185.139 33.2502 185.049 33.5302 185.069 33.8102C185.059 34.0902 185.139 34.3602 185.309 34.5802C185.479 34.7702 185.719 34.8702 185.979 34.8502C186.289 34.8502 186.579 34.7302 186.819 34.5202L186.999 34.9502C186.859 35.0702 186.689 35.1702 186.509 35.2302C186.309 35.3002 186.109 35.3302 185.909 35.3302C185.639 35.3302 185.379 35.2702 185.149 35.1502" fill="#0F305C"/>
<path d="M190.181 33.4602V35.2902H189.591V33.4902C189.611 33.2902 189.551 33.0902 189.441 32.9302C189.311 32.8002 189.131 32.7402 188.951 32.7602C188.731 32.7602 188.511 32.8402 188.351 33.0002C188.201 33.1702 188.121 33.3802 188.131 33.6102V35.2902H187.551V30.9902H188.131V32.8002C188.221 32.6302 188.361 32.5002 188.531 32.4102C188.711 32.3202 188.911 32.2702 189.111 32.2802C189.811 32.2802 190.171 32.6702 190.171 33.4602" fill="#0F305C"/>
<path d="M193.231 31.1299H192.631V35.2899H193.231V31.1299Z" fill="#0F305C"/>
<path d="M196.77 33.4595V35.2895H196.18V33.4895C196.2 33.2895 196.14 33.0895 196.03 32.9295C195.91 32.7995 195.73 32.7395 195.56 32.7595C195.33 32.7595 195.12 32.8395 194.96 32.9995C194.8 33.1695 194.72 33.3895 194.73 33.6195V35.2995H194.14V33.1695C194.14 32.8895 194.13 32.6195 194.09 32.3395H194.64L194.69 32.8495C194.78 32.6695 194.92 32.5195 195.1 32.4195C195.29 32.3195 195.49 32.2695 195.7 32.2695C196.41 32.2695 196.76 32.6595 196.76 33.4495" fill="#0F305C"/>
<path d="M197.42 34.9599L197.6 34.5299C197.9 34.7599 198.28 34.8899 198.66 34.8799C198.82 34.8899 198.98 34.8499 199.12 34.7799C199.22 34.7199 199.28 34.6099 199.28 34.4899C199.28 34.3999 199.24 34.3099 199.17 34.2499C199.06 34.1699 198.94 34.1199 198.8 34.0999L198.31 33.9799C198.09 33.9399 197.88 33.8399 197.72 33.6899C197.59 33.5499 197.51 33.3699 197.52 33.1699C197.52 32.9199 197.63 32.6799 197.84 32.5299C198.09 32.3599 198.38 32.2699 198.69 32.2899C198.89 32.2899 199.1 32.3199 199.29 32.3899C199.47 32.4499 199.64 32.5399 199.78 32.6699L199.6 33.0799C199.35 32.8599 199.03 32.7499 198.7 32.7399C198.55 32.7399 198.39 32.7699 198.26 32.8499C198.16 32.9199 198.1 33.0299 198.1 33.1499C198.1 33.2399 198.13 33.3299 198.2 33.3899C198.29 33.4599 198.4 33.5099 198.51 33.5399L199.01 33.6599C199.24 33.6999 199.46 33.7999 199.63 33.9599C199.77 34.0999 199.84 34.2899 199.83 34.4799C199.83 34.7299 199.72 34.9699 199.51 35.1099C199.25 35.2799 198.95 35.3599 198.64 35.3399C198.2 35.3699 197.76 35.2299 197.41 34.9599" fill="#0F305C"/>
<path d="M201.26 32.8097V34.2897C201.24 34.4397 201.29 34.5997 201.39 34.7197C201.49 34.8097 201.62 34.8497 201.75 34.8497C201.86 34.8497 201.96 34.8297 202.06 34.7997V35.2897C201.92 35.3397 201.77 35.3597 201.62 35.3597C201.36 35.3797 201.1 35.2797 200.91 35.0997C200.73 34.8897 200.65 34.6197 200.67 34.3497V32.8197H200.1V32.3597H200.67V31.6297L201.25 31.4297V32.3697H202.06V32.8297H201.25L201.26 32.8097Z" fill="#0F305C"/>
<path d="M202.62 35.3003H203.21V32.3503H202.62V35.3003ZM202.57 31.6903H203.25V31.0703H202.57V31.6903Z" fill="#0F305C"/>
<path d="M204.83 32.8097V34.2897C204.81 34.4397 204.86 34.5997 204.96 34.7197C205.06 34.8097 205.19 34.8497 205.32 34.8497C205.43 34.8497 205.53 34.8297 205.63 34.7997V35.2897C205.49 35.3397 205.34 35.3597 205.19 35.3597C204.93 35.3797 204.67 35.2797 204.48 35.0997C204.3 34.8897 204.22 34.6197 204.24 34.3497V32.8197H203.67V32.3597H204.24V31.6297L204.83 31.4297V32.3697H205.64V32.8297H204.82L204.83 32.8097Z" fill="#0F305C"/>
<path d="M208.75 32.3498V35.2998H208.18V34.8098C208.09 34.9798 207.96 35.1098 207.8 35.2098C207.63 35.2998 207.44 35.3498 207.24 35.3498C206.53 35.3498 206.18 34.9498 206.18 34.1698V32.3598H206.76V34.1598C206.74 34.3498 206.8 34.5398 206.91 34.6898C207.03 34.8098 207.19 34.8798 207.36 34.8598C207.58 34.8598 207.79 34.7798 207.94 34.6198C208.09 34.4498 208.17 34.2298 208.16 33.9998V32.3398H208.75V32.3498Z" fill="#0F305C"/>
<path d="M210.38 32.8099V34.2899C210.36 34.4399 210.41 34.5999 210.51 34.7199C210.61 34.8099 210.75 34.8499 210.88 34.8399C210.98 34.8399 211.09 34.8199 211.19 34.7899V35.2799C211.05 35.3299 210.9 35.3499 210.75 35.3499C210.49 35.3699 210.23 35.2699 210.04 35.0899C209.86 34.8799 209.78 34.6099 209.8 34.3399V32.8099H209.23V32.3499H209.8V31.6199L210.39 31.4199V32.3599H211.2V32.8199H210.37L210.38 32.8099Z" fill="#0F305C"/>
<path d="M212.441 32.9197C212.291 33.0697 212.191 33.2697 212.171 33.4897H213.731C213.731 33.2797 213.641 33.0797 213.501 32.9197C213.361 32.7897 213.171 32.7197 212.981 32.7297C212.781 32.7297 212.581 32.7897 212.441 32.9297M214.251 33.8497H212.151C212.171 34.5397 212.481 34.8797 213.091 34.8797C213.431 34.8797 213.761 34.7597 214.021 34.5497L214.201 34.9697C214.051 35.0997 213.881 35.1897 213.691 35.2497C213.491 35.3197 213.281 35.3497 213.071 35.3497C212.301 35.4197 211.621 34.8497 211.561 34.0797C211.561 33.9997 211.561 33.9097 211.561 33.8297C211.561 33.5497 211.611 33.2797 211.741 33.0297C211.851 32.8097 212.021 32.6197 212.241 32.4897C212.461 32.3597 212.711 32.2897 212.971 32.2997C213.321 32.2797 213.671 32.4197 213.911 32.6897C214.151 32.9897 214.281 33.3697 214.251 33.7597V33.8597V33.8497Z" fill="#0F305C"/>
<path d="M139.981 47.71H140.581V51.88H139.981V50.01H137.651V51.88H137.051V47.71H137.651V49.51H139.981V47.71Z" fill="#0F305C"/>
<path d="M144.971 51.88H144.211L142.161 49.92V51.88H141.561V47.71H142.161V49.6L144.121 47.71H144.881L142.781 49.72L144.971 51.88Z" fill="#0F305C"/>
<path d="M145.69 51.49C145.38 51.14 145.23 50.68 145.26 50.22V47.71H145.85V50.26C145.82 50.58 145.92 50.89 146.13 51.13C146.35 51.34 146.65 51.45 146.95 51.43C147.25 51.45 147.55 51.34 147.77 51.13C147.97 50.89 148.07 50.57 148.05 50.26V47.71H148.65V50.22C148.68 50.68 148.53 51.14 148.22 51.49C147.88 51.8 147.42 51.95 146.96 51.92C146.5 51.95 146.05 51.8 145.7 51.49" fill="#0F305C"/>
<path d="M150.059 51.7897C149.799 51.7097 149.569 51.5697 149.369 51.3897L149.589 50.9497C149.779 51.1097 149.989 51.2297 150.219 51.3097C150.459 51.3897 150.699 51.4197 150.949 51.4197C151.209 51.4397 151.459 51.3797 151.679 51.2497C151.839 51.1397 151.939 50.9597 151.939 50.7597C151.939 50.5897 151.849 50.4297 151.699 50.3497C151.459 50.2297 151.199 50.1497 150.939 50.1097C150.659 50.0597 150.389 49.9697 150.129 49.8697C149.939 49.7897 149.769 49.6597 149.639 49.4997C149.509 49.3297 149.449 49.1197 149.459 48.9097C149.459 48.6797 149.519 48.4597 149.649 48.2697C149.789 48.0797 149.979 47.9297 150.189 47.8397C150.449 47.7297 150.729 47.6797 151.009 47.6897C151.289 47.6897 151.569 47.7297 151.829 47.8197C152.069 47.8997 152.289 48.0297 152.469 48.1997L152.249 48.6397C152.069 48.4897 151.869 48.3697 151.659 48.2897C151.449 48.2097 151.229 48.1697 151.009 48.1797C150.759 48.1697 150.509 48.2297 150.299 48.3697C150.129 48.4897 150.029 48.6797 150.039 48.8897C150.039 49.0597 150.119 49.2197 150.269 49.3197C150.499 49.4497 150.739 49.5397 150.999 49.5797C151.289 49.6397 151.569 49.7197 151.839 49.8197C152.039 49.8897 152.209 50.0097 152.349 50.1697C152.479 50.3297 152.549 50.5297 152.539 50.7397C152.539 50.9697 152.479 51.1897 152.349 51.3697C152.209 51.5597 152.019 51.6997 151.799 51.7897C151.529 51.8897 151.239 51.9397 150.949 51.9397C150.639 51.9397 150.339 51.8997 150.049 51.7997" fill="#0F305C"/>
<path d="M154.189 51.8797V48.2297H152.779V47.7197H156.199V48.2297H154.799V51.8797H154.189Z" fill="#0F305C"/>
<path d="M159.95 49.6199C160.19 49.6399 160.43 49.5799 160.63 49.4399C160.78 49.3099 160.87 49.1099 160.85 48.9099C160.87 48.7099 160.78 48.51 160.63 48.38C160.43 48.25 160.19 48.1899 159.95 48.2099H158.91V49.6199H159.95ZM161.66 51.88H161.02L160.5 50.49C160.46 50.36 160.37 50.2499 160.26 50.1799C160.12 50.1199 159.97 50.09 159.83 50.1H158.92V51.88H158.32V47.7099H160.03C160.41 47.6799 160.78 47.7899 161.08 48.0099C161.33 48.2299 161.46 48.55 161.45 48.88C161.45 49.13 161.38 49.3699 161.23 49.5799C161.08 49.7799 160.86 49.92 160.62 49.99C160.88 50.05 161.08 50.2499 161.15 50.4999L161.67 51.88H161.66Z" fill="#0F305C"/>
<path d="M165.79 51.1701C166.08 50.6901 166.08 50.0901 165.79 49.6101C165.48 49.2701 164.96 49.2301 164.61 49.5401C164.59 49.5601 164.56 49.5801 164.54 49.6101C164.38 49.8401 164.3 50.1201 164.32 50.4001C164.3 50.6801 164.38 50.9501 164.54 51.1701C164.69 51.3601 164.93 51.4601 165.17 51.4501C165.41 51.4601 165.64 51.3601 165.79 51.1801M166.59 48.9401V51.9001H166V51.3901C165.92 51.5601 165.79 51.7001 165.62 51.7901C165.44 51.8901 165.23 51.9401 165.03 51.9301C164.54 51.9401 164.09 51.6601 163.89 51.2101C163.78 50.9601 163.72 50.6901 163.73 50.4101C163.73 50.1301 163.78 49.8601 163.9 49.6001C164 49.3801 164.16 49.1901 164.37 49.0601C164.57 48.9301 164.81 48.8601 165.05 48.8701C165.26 48.8701 165.46 48.9101 165.64 49.0101C165.8 49.1001 165.94 49.2501 166.02 49.4201V48.9301H166.61L166.59 48.9401Z" fill="#0F305C"/>
<path d="M170.09 50.0303V51.8804H169.5V50.0804C169.52 49.8804 169.46 49.6804 169.35 49.5204C169.23 49.3904 169.05 49.3303 168.88 49.3403C168.65 49.3403 168.44 49.4204 168.28 49.5804C168.12 49.7504 168.04 49.9803 168.05 50.2103V51.8804H167.46V49.7603C167.46 49.4803 167.45 49.2003 167.41 48.9303H167.96L168.01 49.4404C168.1 49.2604 168.24 49.1103 168.42 49.0103C168.61 48.9103 168.82 48.8604 169.03 48.8604C169.74 48.8604 170.09 49.2403 170.09 50.0303" fill="#0F305C"/>
<path d="M172.809 51.1701C173.099 50.6901 173.099 50.0901 172.809 49.6101C172.659 49.4201 172.429 49.3201 172.189 49.3301C171.949 49.3201 171.719 49.4201 171.559 49.6001C171.399 49.8201 171.319 50.1001 171.329 50.3701C171.309 50.6501 171.389 50.9301 171.559 51.1601C171.859 51.5001 172.379 51.5401 172.729 51.2401C172.759 51.2201 172.779 51.1901 172.809 51.1601V51.1701ZM173.609 47.5801V51.8901H173.019V51.3801C172.939 51.5501 172.799 51.6901 172.639 51.7801C172.459 51.8801 172.249 51.9301 172.049 51.9201C171.809 51.9201 171.569 51.8601 171.369 51.7301C171.169 51.6001 171.009 51.4101 170.899 51.1901C170.679 50.6801 170.679 50.1001 170.899 49.5901C170.999 49.3701 171.159 49.1901 171.359 49.0601C171.569 48.9301 171.809 48.8701 172.049 48.8701C172.249 48.8701 172.459 48.9101 172.639 49.0101C172.809 49.1001 172.939 49.2401 173.019 49.4101V47.5901H173.609V47.5801Z" fill="#0F305C"/>
<path d="M177.52 51.3601C178.55 51.3601 179.06 50.8301 179.06 49.7801C179.06 48.7201 178.54 48.2001 177.51 48.2201H176.69V51.3901L177.52 51.3701V51.3601ZM176.1 47.7101H177.56C178.13 47.6701 178.7 47.8701 179.13 48.2501C179.87 49.1401 179.87 50.4301 179.13 51.3201C178.7 51.7101 178.14 51.9001 177.56 51.8701H176.1V47.7101Z" fill="#0F305C"/>
<path d="M182.84 51.66C182.54 51.49 182.3 51.24 182.15 50.93C181.83 50.21 181.83 49.39 182.15 48.67C182.3 48.36 182.54 48.11 182.84 47.94C183.16 47.77 183.52 47.68 183.89 47.7C184.16 47.7 184.43 47.74 184.68 47.83C184.91 47.91 185.12 48.04 185.3 48.21L185.09 48.65C184.92 48.5 184.72 48.39 184.51 48.3C184.31 48.23 184.1 48.19 183.89 48.19C183.51 48.17 183.14 48.32 182.89 48.61C182.63 48.95 182.51 49.38 182.53 49.81C182.5 50.25 182.63 50.68 182.89 51.03C183.14 51.32 183.51 51.48 183.89 51.45C184.1 51.45 184.31 51.42 184.51 51.34C184.72 51.26 184.91 51.14 185.09 50.99L185.3 51.39C185.13 51.56 184.92 51.69 184.68 51.77C184.43 51.86 184.16 51.9 183.89 51.9C183.52 51.91 183.16 51.83 182.84 51.65" fill="#0F305C"/>
<path d="M187.84 51.1703C188 50.9403 188.08 50.6603 188.06 50.3803C188.08 50.1003 188 49.8303 187.84 49.6003C187.69 49.4103 187.46 49.3103 187.22 49.3203C186.98 49.3103 186.75 49.4103 186.6 49.6003C186.31 50.0803 186.31 50.6903 186.6 51.1703C186.92 51.5103 187.47 51.5303 187.81 51.2103C187.82 51.2003 187.84 51.1903 187.85 51.1703H187.84ZM186.46 51.7203C186.24 51.6003 186.07 51.4103 185.96 51.1903C185.84 50.9403 185.77 50.6603 185.78 50.3803C185.78 50.1003 185.84 49.8203 185.96 49.5703C186.07 49.3503 186.25 49.1603 186.46 49.0303C186.94 48.7803 187.5 48.7803 187.97 49.0303C188.19 49.1603 188.36 49.3403 188.48 49.5703C188.6 49.8203 188.66 50.1003 188.66 50.3803C188.66 50.6603 188.6 50.9403 188.48 51.1903C188.37 51.4103 188.19 51.6003 187.97 51.7203C187.5 51.9703 186.93 51.9703 186.46 51.7203Z" fill="#0F305C"/>
<path d="M191.091 48.8897V49.4297C190.981 49.3897 190.861 49.3697 190.741 49.3697C190.511 49.3497 190.291 49.4397 190.141 49.6097C190.001 49.7797 189.931 49.9997 189.941 50.2197V51.8697H189.351V49.7497C189.351 49.4697 189.341 49.1897 189.301 48.9197H189.851L189.901 49.4497C189.971 49.2697 190.101 49.1097 190.261 48.9997C190.421 48.8997 190.611 48.8397 190.811 48.8497C190.901 48.8497 190.991 48.8497 191.081 48.8797" fill="#0F305C"/>
<path d="M193.59 51.1701C193.75 50.9501 193.83 50.6701 193.81 50.4001C193.83 50.1201 193.75 49.8401 193.59 49.6101C193.28 49.2701 192.76 49.2301 192.41 49.5401C192.38 49.5601 192.36 49.5801 192.34 49.6101C192.05 50.0901 192.05 50.6901 192.34 51.1801C192.65 51.5201 193.18 51.5501 193.52 51.2401C193.54 51.2201 193.56 51.2001 193.58 51.1801L193.59 51.1701ZM193.78 49.0401C193.98 49.1701 194.15 49.3601 194.24 49.5801C194.46 50.0901 194.46 50.6701 194.24 51.1901C194.14 51.4101 193.98 51.5901 193.78 51.7201C193.57 51.8501 193.34 51.9101 193.1 51.9101C192.89 51.9101 192.69 51.8601 192.51 51.7701C192.34 51.6801 192.21 51.5301 192.13 51.3601V53.1401H191.55V49.7601C191.55 49.4801 191.54 49.2001 191.5 48.9301H192.05L192.11 49.4801C192.18 49.2901 192.32 49.1301 192.49 49.0301C192.68 48.9201 192.89 48.8701 193.11 48.8701C193.35 48.8701 193.59 48.9301 193.79 49.0601" fill="#0F305C"/>
<path d="M197 51.1703C197.29 50.6903 197.29 50.0803 197 49.6003C196.85 49.4203 196.62 49.3103 196.38 49.3203C196.14 49.3103 195.91 49.4103 195.75 49.6003C195.46 50.0803 195.46 50.6903 195.75 51.1703C196.07 51.5103 196.61 51.5303 196.96 51.2103C196.97 51.2003 196.99 51.1803 197 51.1703ZM195.62 51.7203C195.4 51.6003 195.23 51.4103 195.11 51.1903C194.99 50.9403 194.93 50.6603 194.93 50.3803C194.93 50.1003 194.98 49.8203 195.11 49.5703C195.22 49.3503 195.4 49.1603 195.62 49.0303C196.09 48.7803 196.66 48.7803 197.13 49.0303C197.35 49.1503 197.52 49.3403 197.64 49.5703C197.76 49.8203 197.82 50.1003 197.82 50.3803C197.82 50.6603 197.77 50.9403 197.64 51.1903C197.53 51.4103 197.35 51.6003 197.13 51.7203C196.66 51.9703 196.09 51.9703 195.62 51.7203Z" fill="#0F305C"/>
<path d="M200.251 48.8897V49.4397C200.131 49.3997 200.011 49.3797 199.891 49.3797C199.661 49.3597 199.441 49.4497 199.291 49.6197C199.151 49.7897 199.081 50.0097 199.091 50.2297V51.8697H198.511V49.7497C198.511 49.4697 198.501 49.1897 198.461 48.9197H199.011L199.061 49.4497C199.131 49.2697 199.261 49.1097 199.421 48.9997C199.581 48.8997 199.781 48.8397 199.971 48.8497C200.061 48.8497 200.161 48.8497 200.251 48.8797" fill="#0F305C"/>
<path d="M202.53 51.1701C202.82 50.6901 202.82 50.0901 202.53 49.6101C202.22 49.2701 201.7 49.2301 201.35 49.5401C201.33 49.5601 201.3 49.5801 201.28 49.6101C201.12 49.8401 201.04 50.1201 201.05 50.4001C201.03 50.6801 201.11 50.9501 201.28 51.1701C201.43 51.3601 201.67 51.4601 201.91 51.4501C202.15 51.4701 202.38 51.3701 202.53 51.1801V51.1701ZM203.33 48.9301V51.8901H202.74V51.3801C202.66 51.5501 202.53 51.6901 202.36 51.7801C202.18 51.8801 201.97 51.9301 201.77 51.9201C201.53 51.9201 201.29 51.8601 201.08 51.7301C200.88 51.6001 200.72 51.4201 200.62 51.2001C200.4 50.6901 200.4 50.1101 200.62 49.6001C200.72 49.3801 200.88 49.1901 201.08 49.0601C201.28 48.9301 201.52 48.8601 201.76 48.8701C201.97 48.8701 202.17 48.9101 202.35 49.0101C202.51 49.1001 202.65 49.2501 202.73 49.4201V48.9301H203.32H203.33Z" fill="#0F305C"/>
<path d="M204.971 49.38V50.86C204.951 51.01 205.001 51.17 205.101 51.29C205.201 51.38 205.331 51.42 205.461 51.42C205.571 51.42 205.671 51.4 205.771 51.37V51.86C205.631 51.91 205.481 51.93 205.331 51.93C205.071 51.95 204.811 51.85 204.621 51.67C204.441 51.46 204.361 51.19 204.381 50.92V49.39H203.811V48.93H204.381V48.2L204.971 48V48.94H205.781V49.4H204.961L204.971 49.38Z" fill="#0F305C"/>
<path d="M206.32 48.9196V51.8696H206.9V48.9196H206.32ZM206.27 48.2596H206.95V47.6396H206.27V48.2596Z" fill="#0F305C"/>
<path d="M209.66 51.1703C209.95 50.6903 209.95 50.0803 209.66 49.6003C209.35 49.2603 208.82 49.2303 208.48 49.5403C208.46 49.5603 208.44 49.5803 208.42 49.6003C208.12 50.0803 208.12 50.6903 208.42 51.1703C208.74 51.5103 209.29 51.5303 209.63 51.2103C209.64 51.2003 209.66 51.1903 209.67 51.1703H209.66ZM208.28 51.7203C208.06 51.6003 207.89 51.4103 207.78 51.1903C207.66 50.9403 207.6 50.6603 207.6 50.3803C207.6 50.1003 207.65 49.8203 207.78 49.5703C207.89 49.3503 208.07 49.1603 208.28 49.0303C208.76 48.7803 209.32 48.7803 209.79 49.0303C210.01 49.1503 210.18 49.3403 210.3 49.5703C210.42 49.8203 210.48 50.1003 210.48 50.3803C210.48 50.6603 210.42 50.9403 210.3 51.1903C210.19 51.4103 210.01 51.6003 209.79 51.7203C209.32 51.9703 208.75 51.9703 208.28 51.7203Z" fill="#0F305C"/>
<path d="M213.799 50.0303V51.8804H213.209V50.0804C213.229 49.8804 213.169 49.6804 213.059 49.5204C212.929 49.3904 212.749 49.3303 212.569 49.3403C212.339 49.3403 212.129 49.4204 211.969 49.5804C211.819 49.7504 211.729 49.9803 211.749 50.2103V51.8804H211.169V49.7603C211.169 49.4803 211.159 49.2003 211.119 48.9303H211.669L211.719 49.4404C211.809 49.2604 211.949 49.1103 212.129 49.0103C212.309 48.9103 212.519 48.8604 212.729 48.8604C213.439 48.8604 213.799 49.2403 213.799 50.0303" fill="#0F305C"/>
<path d="M216.529 51.6397C216.419 51.2097 216.359 50.7697 216.359 50.3297C216.359 49.8897 216.419 49.4397 216.529 49.0197C216.649 48.5697 216.829 48.1297 217.059 47.7197H217.549C217.359 48.1597 217.209 48.6097 217.109 49.0797C216.949 49.8997 216.949 50.7497 217.109 51.5697C217.209 52.0397 217.359 52.4997 217.549 52.9497H217.059C216.829 52.5397 216.659 52.0997 216.529 51.6397Z" fill="#0F305C"/>
<path d="M218.68 51.7897C218.42 51.7097 218.19 51.5797 217.99 51.3997L218.21 50.9497C218.4 51.1097 218.61 51.2297 218.84 51.3097C219.08 51.3897 219.32 51.4197 219.57 51.4197C219.83 51.4397 220.08 51.3797 220.3 51.2497C220.46 51.1397 220.56 50.9597 220.56 50.7597C220.56 50.5897 220.47 50.4297 220.32 50.3497C220.08 50.2297 219.82 50.1497 219.56 50.1097C219.28 50.0497 219.01 49.9697 218.75 49.8697C218.56 49.7897 218.39 49.6597 218.26 49.4997C218.13 49.3297 218.07 49.1197 218.08 48.9097C218.08 48.6797 218.14 48.4597 218.27 48.2697C218.41 48.0797 218.6 47.9297 218.82 47.8397C219.08 47.7297 219.36 47.6797 219.63 47.6897C219.91 47.6897 220.19 47.7297 220.45 47.8197C220.69 47.8997 220.91 48.0297 221.09 48.1997L220.88 48.6397C220.7 48.4897 220.5 48.3697 220.29 48.2897C220.08 48.2097 219.86 48.1697 219.64 48.1797C219.39 48.1697 219.14 48.2297 218.93 48.3697C218.78 48.4897 218.69 48.6697 218.69 48.8697C218.69 49.0397 218.77 49.2097 218.91 49.2997C219.14 49.4297 219.39 49.5197 219.64 49.5597C219.93 49.6197 220.21 49.6997 220.48 49.7997C220.68 49.8697 220.85 49.9897 220.99 50.1497C221.12 50.3097 221.19 50.5097 221.18 50.7197C221.18 50.9497 221.12 51.1697 220.99 51.3497C220.85 51.5397 220.66 51.6897 220.44 51.7697C220.17 51.8697 219.88 51.9297 219.6 51.9197C219.29 51.9197 218.98 51.8797 218.68 51.7897" fill="#0F305C"/>
<path d="M224.48 50.0303V51.8803H223.89V50.0803C223.91 49.8803 223.85 49.6803 223.74 49.5203C223.61 49.3903 223.43 49.3303 223.25 49.3403C223.03 49.3403 222.81 49.4203 222.65 49.5803C222.49 49.7503 222.41 49.9803 222.42 50.2103V51.8803H221.84V47.5703H222.42V49.3803C222.51 49.2103 222.65 49.0803 222.82 48.9903C223 48.9003 223.2 48.8503 223.4 48.8603C224.11 48.8603 224.47 49.2503 224.47 50.0403" fill="#0F305C"/>
<path d="M226.021 49.4998C225.871 49.6498 225.78 49.8498 225.75 50.0698H227.31C227.31 49.8598 227.221 49.6598 227.081 49.4998C226.941 49.3698 226.75 49.2998 226.56 49.3098C226.36 49.2998 226.171 49.3698 226.021 49.4998ZM227.831 50.4298H225.73C225.75 51.1198 226.06 51.4598 226.67 51.4598C227.01 51.4598 227.341 51.3398 227.601 51.1298L227.78 51.5498C227.63 51.6698 227.461 51.7698 227.271 51.8298C227.071 51.8998 226.86 51.9298 226.65 51.9298C226.24 51.9498 225.84 51.8098 225.54 51.5198C225.26 51.2198 225.11 50.8198 225.14 50.4098C225.14 50.1298 225.201 49.8598 225.321 49.6098C225.431 49.3798 225.611 49.1998 225.821 49.0698C226.041 48.9398 226.291 48.8698 226.551 48.8798C226.901 48.8598 227.251 48.9998 227.491 49.2698C227.731 49.5698 227.851 49.9498 227.831 50.3398V50.4398V50.4298Z" fill="#0F305C"/>
<path d="M231.141 50.0303V51.8804H230.551V50.0804C230.571 49.8804 230.511 49.6804 230.401 49.5204C230.271 49.3904 230.091 49.3303 229.911 49.3403C229.691 49.3403 229.471 49.4204 229.311 49.5804C229.151 49.7504 229.071 49.9803 229.091 50.2103V51.8804H228.511V49.7603C228.511 49.4803 228.501 49.2003 228.461 48.9303H229.011L229.061 49.4404C229.151 49.2604 229.291 49.1103 229.461 49.0103C229.651 48.9103 229.861 48.8604 230.071 48.8604C230.781 48.8604 231.141 49.2403 231.141 50.0303" fill="#0F305C"/>
<path d="M232.56 51.4197H234.37V51.8797H231.83V51.4697L233.57 49.3897H231.86V48.9297H234.27V49.3497L232.56 51.4197Z" fill="#0F305C"/>
<path d="M237.65 50.0303V51.8803H237.06V50.0803C237.08 49.8803 237.02 49.6803 236.91 49.5203C236.78 49.3903 236.6 49.3303 236.42 49.3403C236.19 49.3403 235.98 49.4203 235.82 49.5803C235.66 49.7503 235.58 49.9803 235.6 50.2103V51.8803H235.02V47.5703H235.6V49.3803C235.69 49.2103 235.83 49.0803 236 48.9903C236.18 48.9003 236.38 48.8503 236.58 48.8603C237.29 48.8603 237.65 49.2503 237.65 50.0403" fill="#0F305C"/>
<path d="M239.2 49.4998C239.05 49.6498 238.95 49.8498 238.93 50.0698H240.49C240.49 49.8598 240.4 49.6598 240.26 49.4998C240.12 49.3698 239.93 49.2998 239.74 49.3098C239.54 49.2998 239.35 49.3698 239.2 49.4998ZM241.01 50.4298H238.91C238.93 51.1198 239.24 51.4598 239.85 51.4598C240.19 51.4598 240.52 51.3398 240.78 51.1298L240.96 51.5498C240.81 51.6798 240.64 51.7698 240.46 51.8298C240.26 51.8998 240.05 51.9298 239.84 51.9298C239.07 51.9998 238.39 51.4298 238.33 50.6598C238.33 50.5798 238.33 50.4998 238.33 50.4098C238.33 50.1298 238.38 49.8598 238.51 49.6098C238.62 49.3898 238.79 49.1998 239.01 49.0698C239.23 48.9398 239.48 48.8698 239.74 48.8798C240.09 48.8598 240.44 48.9998 240.68 49.2698C240.92 49.5698 241.05 49.9498 241.02 50.3398V50.4398L241.01 50.4298Z" fill="#0F305C"/>
<path d="M244.311 50.0303V51.8804H243.721V50.0804C243.741 49.8804 243.681 49.6804 243.571 49.5204C243.441 49.3904 243.261 49.3303 243.081 49.3403C242.851 49.3403 242.641 49.4204 242.481 49.5804C242.331 49.7504 242.241 49.9803 242.261 50.2103V51.8804H241.681V49.7603C241.681 49.4803 241.671 49.2003 241.631 48.9303H242.181L242.231 49.4404C242.321 49.2604 242.461 49.1103 242.641 49.0103C242.821 48.9103 243.031 48.8604 243.241 48.8604C243.951 48.8604 244.311 49.2403 244.311 50.0303" fill="#0F305C"/>
<path d="M244.9 52.94C245.09 52.49 245.23 52.03 245.34 51.56C245.51 50.74 245.51 49.9 245.34 49.08C245.24 48.61 245.09 48.15 244.9 47.71H245.39C245.62 48.12 245.79 48.55 245.92 49.01C246.14 49.87 246.14 50.77 245.92 51.63C245.8 52.09 245.62 52.53 245.39 52.94H244.91H244.9Z" fill="#0F305C"/>
<path d="M248.73 51.88V47.71H249.33V51.36H251.35V51.88H248.73Z" fill="#0F305C"/>
<path d="M251.9 48.9196V51.8696H252.48V48.9196H251.9ZM251.85 48.2596H252.53V47.6396H251.85V48.2596Z" fill="#0F305C"/>
<path d="M257.691 50.0304V51.8804H257.101V50.0704C257.111 49.8804 257.071 49.6804 256.971 49.5104C256.871 49.3804 256.711 49.3204 256.551 49.3304C256.341 49.3304 256.151 49.4104 256.011 49.5704C255.871 49.7504 255.801 49.9804 255.821 50.2104V51.8704H255.231V50.0604C255.251 49.8704 255.201 49.6704 255.101 49.5004C255.001 49.3704 254.841 49.3104 254.681 49.3204C254.471 49.3204 254.281 49.4004 254.141 49.5604C254.001 49.7404 253.931 49.9704 253.941 50.2004V51.8604H253.361V49.7404C253.361 49.4604 253.351 49.1804 253.311 48.9104H253.861L253.911 49.4004C253.991 49.2304 254.121 49.0804 254.281 48.9804C254.451 48.8804 254.651 48.8304 254.841 48.8404C255.231 48.8004 255.601 49.0304 255.731 49.4104C255.821 49.2404 255.961 49.0904 256.121 49.0004C256.301 48.9004 256.501 48.8504 256.711 48.8504C257.371 48.8504 257.691 49.2404 257.691 50.0204" fill="#0F305C"/>
<path d="M258.54 48.9196V51.8696H259.12V48.9196H258.54ZM258.49 48.2596H259.17V47.6396H258.49V48.2596Z" fill="#0F305C"/>
<path d="M260.76 49.38V50.86C260.74 51.01 260.79 51.17 260.89 51.29C260.99 51.38 261.12 51.42 261.26 51.42C261.36 51.42 261.47 51.4 261.57 51.37V51.86C261.43 51.91 261.28 51.93 261.13 51.93C260.87 51.95 260.61 51.85 260.42 51.67C260.24 51.46 260.15 51.19 260.18 50.92V49.39H259.6V48.93H260.17V48.2L260.76 48V48.94H261.57V49.4H260.76V49.38Z" fill="#0F305C"/>
<path d="M262.81 49.4998C262.66 49.6498 262.57 49.8498 262.54 50.0698H264.1C264.1 49.8598 264.01 49.6598 263.87 49.4998C263.73 49.3698 263.54 49.2998 263.35 49.3098C263.15 49.2998 262.96 49.3698 262.8 49.4998H262.81ZM264.62 50.4298H262.51C262.53 51.1198 262.84 51.4598 263.45 51.4598C263.79 51.4598 264.12 51.3398 264.38 51.1298L264.56 51.5498C264.41 51.6698 264.24 51.7698 264.05 51.8298C263.85 51.8998 263.64 51.9298 263.43 51.9298C263.02 51.9498 262.62 51.8098 262.32 51.5198C262.04 51.2198 261.89 50.8198 261.92 50.4098C261.92 50.1298 261.98 49.8598 262.1 49.6098C262.21 49.3898 262.38 49.1998 262.59 49.0698C262.81 48.9398 263.06 48.8698 263.32 48.8798C263.67 48.8598 264.02 48.9998 264.26 49.2698C264.5 49.5698 264.62 49.9498 264.6 50.3398L264.62 50.4398V50.4298Z" fill="#0F305C"/>
<path d="M267.19 51.1701C267.48 50.6901 267.48 50.0901 267.19 49.6101C267.04 49.4201 266.81 49.3201 266.57 49.3301C266.33 49.3201 266.1 49.4201 265.94 49.6001C265.78 49.8201 265.7 50.1001 265.72 50.3701C265.7 50.6501 265.78 50.9301 265.94 51.1601C266.24 51.5001 266.77 51.5401 267.11 51.2401C267.14 51.2201 267.16 51.1901 267.19 51.1601V51.1701ZM267.99 47.5801V51.8901H267.41V51.3801C267.33 51.5501 267.2 51.6901 267.03 51.7801C266.85 51.8801 266.64 51.9301 266.44 51.9201C266.2 51.9201 265.96 51.8601 265.76 51.7301C265.56 51.6001 265.4 51.4101 265.29 51.1901C265.18 50.9401 265.12 50.6601 265.13 50.3901C265.13 50.1201 265.18 49.8401 265.29 49.5901C265.49 49.1401 265.94 48.8501 266.43 48.8601C266.64 48.8601 266.84 48.9001 267.02 49.0001C267.18 49.0901 267.32 49.2301 267.4 49.4001V47.5801H267.99V47.5801Z" fill="#0F305C"/>
<path d="M142.12 24.46H141.09C140.98 24.46 140.87 24.42 140.79 24.34C140.71 24.27 140.66 24.16 140.66 24.05V23.06H141.18V23.87C141.18 23.87 141.19 23.91 141.21 23.93C141.22 23.95 141.25 23.96 141.27 23.96H142.12V24.46ZM142.16 23.44H141.63V22.83H138.94V23.45H138.4V22.32H142.16V23.44V23.44ZM140.03 23.08C140.06 23.94 139.63 24.47 138.74 24.68L138.38 24.24C138.71 24.19 139.03 24.05 139.28 23.83C139.46 23.62 139.54 23.34 139.5 23.07H140.03V23.08ZM142.32 26.84L141.99 27.25C141.41 26.88 140.92 26.39 140.55 25.82V27.57H140.01V25.84C139.59 26.39 139.09 26.87 138.52 27.25L138.17 26.84C138.79 26.49 139.32 25.99 139.71 25.4H138.32V24.88H140.02V24.41H140.56V24.88H142.27V25.4H140.88C141.24 25.99 141.74 26.49 142.33 26.84M138.25 23.08L137.86 23.49C137.63 23.18 137.36 22.89 137.06 22.64L137.42 22.21C137.74 22.46 138.02 22.75 138.27 23.07H138.25V23.08ZM138.25 25.64C138.07 26.33 137.8 26.99 137.44 27.61L136.98 27.27C137.33 26.67 137.6 26.03 137.77 25.36L138.25 25.64V25.64ZM138.25 24.52L137.9 24.95C137.62 24.68 137.32 24.44 136.99 24.24L137.32 23.8C137.66 24 137.97 24.25 138.25 24.52" fill="#0F305C"/>
<path d="M149.749 27.5004H149.229V22.1904H149.749V27.5004ZM148.559 27.1004H148.019V22.4704H148.549V27.1004H148.559ZM147.409 25.0204C147.409 25.9404 147.089 26.8304 146.479 27.5104L145.979 27.1904C146.269 26.9004 146.499 26.5604 146.659 26.1904C146.809 25.7904 146.879 25.3704 146.869 24.9504V22.1904H147.409V25.0204ZM146.599 25.9504C145.999 26.2504 145.379 26.5004 144.739 26.7004L144.609 26.1904C144.929 26.0904 145.179 26.0104 145.359 25.9304V24.1504H144.669V23.6304H145.359V22.2004H145.909V23.6304H146.569V24.1504H145.909V25.6804C146.139 25.5904 146.359 25.4904 146.579 25.3804L146.609 25.9404L146.599 25.9504Z" fill="#0F305C"/>
<path d="M156.269 22.8997H155.549V24.3096H156.269V22.8997ZM157.519 24.8496H156.819V27.5296H156.279V24.8496H155.559C155.589 25.9896 155.309 26.8896 154.709 27.5596L154.309 27.1396C154.549 26.9096 154.739 26.6296 154.839 26.3196C154.979 25.8496 155.039 25.3496 155.009 24.8596H154.379V24.3196H155.009V22.9096H154.519V22.3896H157.439V22.9096H156.809V24.3196H157.509V24.8596L157.519 24.8496ZM153.669 24.7496H153.219V26.4596H153.669V24.7496ZM154.299 22.9196H153.479C153.409 23.3596 153.299 23.7996 153.149 24.2296H154.189V27.2496H153.679V26.9896H153.229V27.3997H152.709V25.1897C152.649 25.2997 152.579 25.3996 152.499 25.4996L152.199 24.9697C152.589 24.3497 152.849 23.6596 152.969 22.9296H152.299V22.4096H154.329V22.9296L154.299 22.9196Z" fill="#0F305C"/>
<path d="M165.129 26.1802C165.129 26.5002 165.099 26.8102 165.029 27.1202C164.989 27.2402 164.899 27.3402 164.789 27.4002C164.559 27.4602 164.319 27.4902 164.079 27.4702C163.879 27.4702 163.679 27.4702 163.489 27.4302C163.399 27.4002 163.329 27.3402 163.279 27.2602C163.219 27.1402 163.199 27.0002 163.209 26.8602L163.269 25.6202H162.199C162.019 26.5202 161.349 27.1702 160.199 27.5702L159.839 27.1102C160.889 26.7402 161.489 26.2502 161.629 25.6202H160.129V25.1102H161.689C161.719 24.8702 161.739 24.6202 161.729 24.3802H162.299C162.299 24.6002 162.279 24.8502 162.259 25.1102H163.819L163.759 26.8002C163.759 26.8002 163.779 26.9002 163.819 26.9202C163.919 26.9502 164.019 26.9602 164.119 26.9502C164.229 26.9602 164.339 26.9502 164.449 26.9202C164.479 26.9002 164.499 26.8802 164.519 26.8502C164.559 26.7302 164.569 26.6102 164.579 26.4902C164.599 26.2702 164.609 26.0902 164.609 25.9602L165.129 26.1902V26.1802ZM164.969 23.8902H164.429V23.2102H163.359V24.0202C163.359 24.1002 163.399 24.1502 163.479 24.1502H164.729V24.6702H163.369C162.999 24.6702 162.819 24.5002 162.819 24.1602V23.2102H162.119C162.049 23.6902 161.799 24.1102 161.409 24.4002C161.009 24.6702 160.549 24.8402 160.069 24.9002L159.779 24.4002C160.209 24.3602 160.629 24.2302 161.009 24.0302C161.309 23.8502 161.509 23.5502 161.539 23.2002H160.479V23.8802H159.929V22.6802H162.099C162.029 22.5702 161.959 22.4602 161.869 22.3702L162.419 22.1602C162.549 22.3202 162.659 22.5002 162.759 22.6902H164.949V23.8902H164.969Z" fill="#0F305C"/>
<path d="M171.91 24.3099H170.17V23.7899H171.91V24.3099ZM172.61 24.0399H172.09V23.2899H169.99V24.0399H169.47V22.7699H170.72C170.67 22.5899 170.59 22.4199 170.49 22.2599L171.04 22.1699C171.14 22.3599 171.22 22.5599 171.28 22.7699H172.6V24.0499L172.61 24.0399ZM172.75 26.3199C172.75 26.8099 172.69 27.1099 172.57 27.2599C172.38 27.4299 172.13 27.5199 171.87 27.4799C171.69 27.4999 171.51 27.4599 171.35 27.3699C171.24 27.2699 171.19 27.1199 171.2 26.9699V25.3399H170.68C170.74 26.3299 170.13 27.2399 169.19 27.5599L168.86 27.1199C169.72 26.7899 170.15 26.2699 170.15 25.5499C170.15 25.4799 170.15 25.4099 170.15 25.3399H169.45V24.8399H172.65V25.3499H171.74V26.8599C171.74 26.9299 171.78 26.9699 171.85 26.9699C172.02 26.9699 172.12 26.9399 172.16 26.8799C172.22 26.6499 172.24 26.4199 172.22 26.1799L172.74 26.3199H172.75ZM168.83 24.0899C169.12 24.4699 169.29 24.9299 169.32 25.3999C169.33 25.6199 169.28 25.8299 169.16 26.0099C168.98 26.1799 168.74 26.2599 168.5 26.2299H168.34L168.19 25.7099C168.26 25.7099 168.32 25.7199 168.39 25.7199C168.57 25.7199 168.69 25.6899 168.73 25.6499C168.77 25.5999 168.8 25.5299 168.79 25.4599C168.77 24.9799 168.58 24.5299 168.27 24.1699C168.45 23.7199 168.6 23.2599 168.71 22.7899H168.12V27.4899H167.59V22.2699H169.25V22.7599C169.12 23.2299 168.98 23.6699 168.83 24.0899" fill="#0F305C"/>
<path d="M140.79 40.1398H139.73V40.7098H140.79V40.1398ZM140.98 41.7398C140.85 41.5698 140.73 41.3898 140.64 41.1998H139.87C139.76 41.3898 139.64 41.5798 139.5 41.7398H140.98V41.7398ZM140.81 42.2298H139.35V42.7298H140.81V42.2298ZM142.36 42.1698L142.1 42.6298C141.82 42.4898 141.57 42.3098 141.34 42.1098V43.2198H139.35V43.6098C139.35 43.6098 139.38 43.6998 139.41 43.7298C139.44 43.7598 139.48 43.7798 139.53 43.7898C140.71 43.7898 141.35 43.7898 141.44 43.7698C141.53 43.7498 141.6 43.5998 141.65 43.2998L142.15 43.4598C142.13 43.6698 142.07 43.8698 141.96 44.0398C141.81 44.2198 141.58 44.3098 141.34 44.2798H139.51C139.06 44.2798 138.83 44.0598 138.83 43.6298V42.3498C138.69 42.4598 138.54 42.5498 138.4 42.6398L138.09 42.1698C138.56 41.9498 138.97 41.6098 139.28 41.1998H138.32V40.7098H139.2V40.1398H138.38V39.6498H139.2V39.0498H139.74V39.6598H140.8V39.0498H141.35V39.6598H142.15V40.1498H141.35V40.7198H142.2V41.2098H141.23C141.5 41.6398 141.9 41.9698 142.37 42.1698M138.28 39.8398L137.92 40.2498C137.67 39.9298 137.39 39.6398 137.07 39.3998L137.44 39.0098C137.77 39.2398 138.05 39.5198 138.29 39.8398M138.25 41.2198L137.92 41.6698C137.63 41.4098 137.32 41.1798 136.98 40.9798L137.28 40.5098C137.63 40.7098 137.96 40.9498 138.26 41.2198M138.22 42.6198C138.01 43.2098 137.76 43.7898 137.46 44.3398L136.98 43.9998C137.29 43.4498 137.55 42.8798 137.74 42.2798L138.22 42.6198Z" fill="#0F305C"/>
<path d="M148.609 40.2598L148.249 40.6498C147.929 40.2798 147.569 39.9498 147.169 39.6498L147.549 39.2498C147.929 39.5398 148.289 39.8698 148.609 40.2398V40.2598ZM148.529 41.7298L148.169 42.1398C147.839 41.7398 147.459 41.3898 147.029 41.0898L147.379 40.6998C147.799 40.9998 148.189 41.3398 148.529 41.7298ZM149.899 42.8098L149.339 42.8998V44.3598H148.799V42.9698L146.969 43.2098L146.919 42.6798L148.799 42.4398V39.0598H149.339V42.3598L149.889 42.2898L149.909 42.8198L149.899 42.8098ZM147.099 39.4398C146.809 39.5398 146.499 39.6098 146.199 39.6598V40.4498H146.969V40.9598H146.199V41.1298C146.509 41.4498 146.779 41.7898 147.009 42.1698L146.629 42.5698C146.499 42.3198 146.359 42.0698 146.189 41.8398V44.3498H145.659V41.9398C145.449 42.3898 145.169 42.7998 144.839 43.1598L144.529 42.6698C144.999 42.1698 145.369 41.5998 145.629 40.9698H144.589V40.4598H145.659V39.7598C145.399 39.7998 145.129 39.8298 144.849 39.8498L144.619 39.3598C145.369 39.3298 146.109 39.2098 146.829 39.0098L147.089 39.4598L147.099 39.4398Z" fill="#0F305C"/>
<path d="M157.54 43.9498L157.21 44.3898C156.07 43.7098 155.22 42.6098 154.86 41.3298C154.46 42.5898 153.61 43.6598 152.49 44.3498L152.18 43.8798C153.42 43.0698 154.18 42.0698 154.45 40.8998H152.31V40.3498H154.53C154.57 39.9198 154.6 39.4898 154.6 39.0498H155.15C155.15 39.5798 155.12 40.0198 155.1 40.3498H157.48V40.8998H155.29C155.57 42.1898 156.39 43.2998 157.55 43.9598" fill="#0F305C"/>
<path d="M163.87 41.13V39.71H163.15V41.13H163.87ZM165.12 41.66H164.42V44.34H163.86V41.66H163.14C163.17 42.8 162.89 43.7 162.29 44.37L161.91 43.96C162.15 43.74 162.33 43.46 162.44 43.15C162.58 42.67 162.64 42.17 162.6 41.67H161.97V41.14H162.6V39.72H162.11V39.21H165.03V39.72H164.42V41.14H165.12L165.1 41.67L165.12 41.66ZM161.26 41.57H160.81V43.27H161.26V41.57ZM161.89 39.74H161.06C160.99 40.18 160.88 40.62 160.73 41.05H161.76V44.07H161.25V43.81H160.8V44.22H160.28V42.01C160.22 42.12 160.15 42.22 160.07 42.32L159.77 41.79C160.16 41.17 160.42 40.48 160.54 39.75H159.86V39.24H161.89V39.75V39.74Z" fill="#0F305C"/>
<path d="M172.74 43.0005C172.74 43.3205 172.71 43.6305 172.64 43.9405C172.6 44.0605 172.51 44.1605 172.4 44.2205C172.17 44.2805 171.93 44.3005 171.69 44.2905C171.49 44.2905 171.29 44.2905 171.1 44.2505C171.01 44.2205 170.93 44.1605 170.89 44.0705C170.83 43.9505 170.81 43.8105 170.82 43.6705L170.88 42.4305H169.82C169.64 43.3305 168.98 43.9805 167.82 44.3805L167.46 43.9205C168.51 43.5605 169.11 43.0605 169.25 42.4405H167.75V41.9305H169.32C169.35 41.6905 169.37 41.4405 169.36 41.2005H169.93C169.93 41.4205 169.91 41.6605 169.89 41.9305H171.45L171.38 43.6005C171.38 43.6005 171.4 43.6905 171.44 43.7205C171.54 43.7505 171.64 43.7605 171.74 43.7505C171.85 43.7605 171.96 43.7505 172.07 43.7205C172.1 43.7005 172.12 43.6805 172.14 43.6505C172.18 43.5305 172.19 43.4105 172.2 43.2905C172.22 43.0705 172.23 42.8905 172.23 42.7605L172.75 43.0005H172.74ZM172.58 40.7105H172.04V40.0305H170.97V40.8405C170.97 40.9305 171.01 40.9705 171.09 40.9705H172.34V41.4905H170.98C170.61 41.4905 170.43 41.3205 170.43 40.9805V40.0305H169.74C169.67 40.5105 169.41 40.9405 169.03 41.2205C168.63 41.4905 168.17 41.6605 167.69 41.7205L167.41 41.2305C167.84 41.1905 168.26 41.0605 168.64 40.8605C168.94 40.6805 169.14 40.3805 169.17 40.0305H168.11V40.7105H167.56V39.5005H169.73C169.66 39.3905 169.59 39.2805 169.5 39.1905L170.05 38.9805C170.18 39.1405 170.29 39.3205 170.39 39.5105H172.58V40.7105V40.7105Z" fill="#0F305C"/>
<path d="M178.539 41.2202V39.7001H176.829V41.2202H178.539ZM180.329 41.7301H179.079V44.3401H178.539V41.7301H176.809C176.799 42.7701 176.299 43.7401 175.469 44.3701L175.039 43.9801C175.799 43.4801 176.259 42.6401 176.279 41.7301H175.039V41.2101H176.299V39.6902H175.289V39.1602H180.129V39.6902H179.069V41.2101H180.319V41.7202L180.329 41.7301Z" fill="#0F305C"/>
<path d="M187.361 39.7198L186.971 40.0798C186.661 39.8398 186.321 39.6398 185.961 39.4798L186.341 39.0998C186.711 39.2698 187.051 39.4798 187.361 39.7298H187.351L187.361 39.7198ZM186.841 41.7698H185.041C185.291 42.1598 185.581 42.5198 185.921 42.8398C186.281 42.5298 186.591 42.1698 186.851 41.7698H186.841ZM188.061 43.9098L187.781 44.3998C187.131 44.1998 186.521 43.8998 185.961 43.5198C185.281 43.9598 184.531 44.2598 183.751 44.4298L183.471 43.9398C184.201 43.8098 184.901 43.5498 185.521 43.1498C185.141 42.7598 184.811 42.3398 184.531 41.8798C184.121 42.7098 183.611 43.4998 183.011 44.2098L182.631 43.7898C183.441 42.8898 184.041 41.8298 184.401 40.6798H182.771C183.001 40.1698 183.191 39.6398 183.341 39.0998L183.871 39.2098C183.801 39.4798 183.701 39.7998 183.571 40.1798H184.521C184.621 39.7998 184.691 39.4098 184.741 39.0098L185.281 39.0598C185.221 39.4698 185.151 39.8398 185.071 40.1798H187.971V40.6898H184.941C184.891 40.8698 184.841 41.0698 184.771 41.2598H187.481V41.7598C187.171 42.2798 186.791 42.7598 186.351 43.1798C186.881 43.5098 187.451 43.7498 188.061 43.8998" fill="#0F305C"/>
<path d="M191.33 44.6002C190.65 43.8302 190.29 42.8202 190.32 41.7902C190.3 40.7502 190.66 39.7402 191.33 38.9502H191.93C191.28 39.7502 190.92 40.7602 190.94 41.7902C190.93 42.8202 191.28 43.8102 191.93 44.6002H191.33Z" fill="#0F305C"/>
<path d="M199.041 41.2698H198.021C197.911 41.2698 197.811 41.2298 197.731 41.1598C197.651 41.0898 197.601 40.9798 197.601 40.8698V39.8698H198.121V40.6798C198.121 40.6798 198.131 40.7198 198.151 40.7398C198.171 40.7598 198.191 40.7698 198.211 40.7698H199.061L199.041 41.2598V41.2698ZM199.081 40.2498H198.551V39.6398H195.871V40.2598H195.331V39.1298H199.091V40.2498H199.081ZM196.931 39.8798C196.961 40.7398 196.531 41.2698 195.641 41.4798L195.281 41.0398C195.621 40.9998 195.931 40.8498 196.191 40.6298C196.371 40.4198 196.451 40.1398 196.411 39.8698H196.931V39.8798ZM199.231 43.6398L198.901 44.0598C198.331 43.6898 197.851 43.1998 197.481 42.6398V44.3898H196.941V42.6398C196.521 43.1898 196.021 43.6698 195.441 44.0598L195.091 43.6398C195.711 43.2898 196.241 42.7998 196.641 42.1998H195.251V41.6798H196.961V41.2098H197.491V41.6798H199.201V42.1998H197.821C198.181 42.7898 198.681 43.2898 199.271 43.6398H199.261H199.231ZM195.171 39.8798L194.791 40.2898C194.551 39.9798 194.281 39.6898 193.971 39.4398L194.331 39.0098C194.651 39.2698 194.931 39.5498 195.181 39.8698H195.171V39.8798ZM195.161 42.4398C194.981 43.1298 194.711 43.7898 194.351 44.4098L193.881 44.0698C194.231 43.4698 194.501 42.8298 194.671 42.1598L195.161 42.4398ZM195.161 41.3198L194.811 41.7598C194.531 41.4898 194.231 41.2498 193.901 41.0498L194.231 40.6098C194.571 40.8098 194.881 41.0498 195.171 41.3298" fill="#0F305C"/>
<path d="M206.689 44.33H206.159V39.01H206.689V44.33ZM205.489 43.92H204.959V39.29H205.489V43.92ZM204.329 41.84C204.329 42.75 204.009 43.64 203.409 44.32L202.909 44.01C203.189 43.72 203.419 43.38 203.579 43.01C203.729 42.61 203.799 42.19 203.789 41.77V39H204.319V41.83L204.329 41.84ZM203.529 42.77C202.929 43.07 202.309 43.33 201.669 43.52L201.539 43.01C201.859 42.91 202.109 42.83 202.289 42.77V40.99H201.599V40.45H202.289V39.02H202.839V40.45H203.489V40.97H202.839V42.5C203.069 42.41 203.289 42.31 203.499 42.2L203.519 42.76L203.529 42.77Z" fill="#0F305C"/>
<path d="M208.801 44.6002C209.461 43.8102 209.811 42.8202 209.801 41.7902C209.801 40.7602 209.461 39.7502 208.801 38.9502H209.401C210.071 39.7402 210.431 40.7602 210.411 41.7902C210.441 42.8202 210.081 43.8202 209.391 44.6002H208.801V44.6002Z" fill="#0F305C"/>
<path d="M217.13 42.6202V42.1402H214.48V42.6302H217.13V42.6202ZM217.13 41.6402V41.1602H214.48V41.6502H217.13V41.6402ZM218.1 40.1102H215.14C215.05 40.2902 214.94 40.4702 214.82 40.6302H217.69V43.9002C217.69 44.0102 217.66 44.1302 217.58 44.2102C217.49 44.2902 217.37 44.3302 217.25 44.3202H216.25L216.01 43.7802C216.27 43.7802 216.6 43.8002 217 43.8002C217.09 43.8002 217.13 43.7502 217.13 43.6602V43.1002H214.41C214.29 43.5502 214.08 43.9602 213.78 44.3202L213.26 44.0302C213.7 43.5402 213.92 43.0902 213.92 42.6802V41.7002C213.68 41.9602 213.41 42.1802 213.12 42.3802L212.73 41.9702C213.45 41.4902 214.05 40.8502 214.49 40.1102H212.78V39.5902H214.76C214.87 39.4002 214.97 39.2002 215.04 38.9902L215.6 39.0802C215.54 39.2502 215.47 39.4302 215.39 39.5902H218.07L218.09 40.1202L218.1 40.1102Z" fill="#0F305C"/>
<path d="M225.76 43.9496L225.45 44.3996C224.59 43.8896 223.98 43.0497 223.74 42.0797L224.23 41.9296C224.3 42.1696 224.4 42.3896 224.52 42.6096C224.81 42.3996 225.07 42.1497 225.29 41.8797L225.68 42.2296C225.42 42.5496 225.13 42.8396 224.8 43.0896C225.07 43.4296 225.39 43.7197 225.76 43.9397V43.9496ZM224.88 41.2197V40.6696H223.24V41.2096H224.88V41.2197ZM224.88 39.6496H223.24V40.2096H224.88V39.6496ZM225.42 41.6996H223.24V43.6496C223.55 43.5496 223.85 43.4296 224.14 43.2896L224.17 43.8596C223.73 44.0596 223.27 44.2197 222.79 44.3497L222.59 43.8996C222.67 43.8496 222.72 43.7497 222.71 43.6597V39.1696H225.42V41.7096V41.6996ZM221.93 40.8996C222.24 41.2996 222.41 41.7896 222.44 42.2896C222.44 42.8596 222.16 43.1396 221.6 43.1396H221.41L221.26 42.5896C221.35 42.6096 221.44 42.6096 221.53 42.6096C221.63 42.6196 221.73 42.5997 221.82 42.5497C221.88 42.4797 221.91 42.3896 221.9 42.3096C221.88 41.8096 221.69 41.3296 221.36 40.9496C221.47 40.6696 221.6 40.2396 221.78 39.6796H221.12V44.3596H220.58V39.1396H222.33V39.6796C222.2 40.1196 222.07 40.5296 221.93 40.8896" fill="#0F305C"/>
<path d="M233.4 41.4603L233.08 41.9503C232.29 41.3703 231.7 40.5503 231.39 39.6203H230.9V39.0903H231.78C232.03 40.0403 232.6 40.8803 233.4 41.4603ZM233 44.0703L232.51 44.4103C232.41 44.1703 232.3 43.9403 232.17 43.7303C231.23 43.9503 230.09 44.1503 228.73 44.3303L228.57 43.8603C229.09 43.4803 229.7 42.4503 230.4 40.7603L230.95 40.9303C230.55 41.9103 230.04 42.8403 229.43 43.7003C230.26 43.6103 231.08 43.4703 231.89 43.2703C231.7 42.9503 231.48 42.6403 231.26 42.3503L231.71 42.0603C232.21 42.6803 232.64 43.3603 233 44.0803V44.0703ZM230.28 39.2103C229.89 40.2703 229.22 41.2103 228.33 41.9103L227.98 41.4503C228.8 40.8403 229.41 39.9903 229.74 39.0303L230.28 39.2203V39.2103Z" fill="#0F305C"/>
<path d="M238.771 41.7197H236.681V42.7697H238.771V41.7197ZM239.321 43.2697H236.141V41.2197H239.321V43.2697ZM239.711 40.6496H235.781V40.1597H239.711V40.6496ZM240.761 43.6297C240.761 44.1097 240.531 44.3396 240.061 44.3396H239.161L239.001 43.7896C239.451 43.7896 239.761 43.8096 239.941 43.8096C240.121 43.8096 240.201 43.7596 240.201 43.6496V39.6297H235.641V39.1396H240.761V43.6196V43.6297Z" fill="#0F305C"/>
</svg>
