<svg width="230" height="51" viewBox="0 0 230 51" fill="none" xmlns="http://www.w3.org/2000/svg">
<path d="M122.309 17.4798H121.769V11.5898H112.819V17.4798H112.279V11.5898H103.329V17.4798H102.779V11.0498H122.309V17.4798Z" fill="#E50012"/>
<path d="M96.9991 4.07973V4.48972H94.6191V4.07973H95.5591V0.829727L94.6791 1.38972V0.919724L95.7691 0.219727H96.0491V4.07973H96.9891H96.9991Z" fill="#231815"/>
<path d="M97.3086 4.82L98.8486 0H99.2986L97.7486 4.82H97.3086V4.82Z" fill="#231815"/>
<path d="M102.119 2.66992C102.249 2.84992 102.319 3.06992 102.319 3.33992C102.319 3.70992 102.189 4.00992 101.939 4.21992C101.689 4.42992 101.349 4.53992 100.909 4.53992C100.629 4.53992 100.369 4.48993 100.119 4.39993C99.8687 4.30993 99.6488 4.17993 99.4688 4.00993L99.6588 3.62992C100.059 3.95992 100.469 4.11992 100.899 4.11992C101.199 4.11992 101.429 4.04992 101.589 3.91992C101.749 3.78992 101.829 3.57992 101.829 3.31992C101.829 2.79992 101.499 2.52992 100.849 2.52992H100.359V2.11992H100.759C101.079 2.11992 101.319 2.04992 101.489 1.90992C101.659 1.76992 101.739 1.56992 101.739 1.30992C101.739 1.07992 101.669 0.899922 101.529 0.779922C101.389 0.659922 101.199 0.58992 100.949 0.58992C100.539 0.58992 100.139 0.749926 99.7387 1.07993L99.5487 0.699921C99.7187 0.539921 99.9287 0.409921 100.179 0.309921C100.429 0.209921 100.689 0.169922 100.959 0.169922C101.339 0.169922 101.649 0.269923 101.879 0.459923C102.109 0.659923 102.219 0.919924 102.219 1.24992C102.219 1.48992 102.159 1.70992 102.039 1.88992C101.919 2.06992 101.749 2.20992 101.539 2.28992C101.789 2.35992 101.979 2.48992 102.119 2.65992V2.66992Z" fill="#231815"/>
<path d="M108.189 4.48972H107.609L106.279 2.67973L104.959 4.48972H104.369L105.999 2.29972L104.449 0.219727H105.039L106.289 1.93973L107.539 0.219727H108.119L106.569 2.30972L108.199 4.48972H108.189Z" fill="#231815"/>
<path d="M119.03 4.17934V4.58933H116.65V4.17934H117.59V0.929337L116.71 1.48933V1.01933L117.8 0.319336H118.08V4.17934H119.02H119.03Z" fill="#231815"/>
<path d="M119.34 4.91961L120.88 0.0996094H121.33L119.78 4.91961H119.34V4.91961Z" fill="#231815"/>
<path d="M124.15 2.76953C124.28 2.94953 124.35 3.16954 124.35 3.43954C124.35 3.80954 124.22 4.10953 123.97 4.31953C123.72 4.52953 123.38 4.63953 122.94 4.63953C122.66 4.63953 122.4 4.58953 122.15 4.49953C121.9 4.40953 121.68 4.27954 121.51 4.10954L121.7 3.72953C122.1 4.05953 122.51 4.21954 122.94 4.21954C123.24 4.21954 123.48 4.14953 123.63 4.01953C123.78 3.88953 123.87 3.67953 123.87 3.41953C123.87 2.89953 123.54 2.62953 122.89 2.62953H122.4V2.21954H122.8C123.12 2.21954 123.36 2.14954 123.53 2.00954C123.7 1.86954 123.78 1.66953 123.78 1.40953C123.78 1.17953 123.71 0.999532 123.57 0.879532C123.43 0.759532 123.24 0.689537 122.99 0.689537C122.58 0.689537 122.18 0.849535 121.78 1.17953L121.59 0.79953C121.76 0.63953 121.97 0.509531 122.22 0.409531C122.47 0.309531 122.73 0.269531 123 0.269531C123.38 0.269531 123.69 0.369532 123.92 0.559532C124.15 0.759532 124.26 1.01953 124.26 1.34953C124.26 1.58953 124.2 1.80953 124.08 1.98953C123.96 2.16953 123.79 2.30953 123.58 2.38953C123.83 2.45953 124.02 2.58954 124.16 2.75954L124.15 2.76953Z" fill="#231815"/>
<path d="M130.22 4.58933H129.64L128.31 2.77934L126.99 4.58933H126.4L128.03 2.39934L126.48 0.319336H127.07L128.32 2.03934L129.57 0.319336H130.15L128.6 2.40933L130.23 4.58933H130.22Z" fill="#231815"/>
<path d="M13.3496 50.07H7.09961V22H13.3496V22.55H7.63962V49.53H13.3496V50.07Z" fill="#E50012"/>
<path d="M0.839996 34H1.38L2.48999 35.8L3.60999 34H4.14001L2.76001 36.24L4.23001 38.62H3.69L2.48999 36.68L1.29001 38.62H0.75L2.22 36.24L0.839996 34V34Z" fill="#231815"/>
<path d="M229.07 22.3496H119.16V50.7396H229.07V22.3496Z" fill="#C5C5C5"/>
<path d="M128.331 28.4203V33.4103C128.331 34.1603 128.141 34.7203 127.761 35.1103C127.381 35.4903 126.811 35.6903 126.061 35.6903C125.311 35.6903 124.631 35.5203 124.081 35.1703L124.221 34.5103C124.541 34.6903 124.841 34.8203 125.131 34.9003C125.411 34.9803 125.721 35.0203 126.061 35.0203C126.551 35.0203 126.911 34.8903 127.161 34.6403C127.411 34.3803 127.531 34.0003 127.531 33.5003V32.3103C127.381 32.6303 127.151 32.8803 126.851 33.0603C126.551 33.2403 126.201 33.3203 125.801 33.3203C125.361 33.3203 124.971 33.2203 124.631 33.0103C124.291 32.8003 124.021 32.5103 123.831 32.1303C123.641 31.7503 123.551 31.3103 123.551 30.8203C123.551 30.3303 123.641 29.8903 123.831 29.5103C124.021 29.1303 124.281 28.8403 124.631 28.6303C124.971 28.4203 125.371 28.3203 125.801 28.3203C126.201 28.3203 126.551 28.4103 126.841 28.5803C127.141 28.7503 127.361 29.0003 127.521 29.3103V28.4403H128.331V28.4203ZM127.111 32.1303C127.391 31.8103 127.531 31.3603 127.531 30.8003C127.531 30.2403 127.391 29.7903 127.111 29.4703C126.831 29.1503 126.451 28.9903 125.971 28.9903C125.491 28.9903 125.091 29.1503 124.801 29.4703C124.521 29.7903 124.381 30.2403 124.381 30.8003C124.381 31.3603 124.521 31.8103 124.801 32.1303C125.081 32.4503 125.471 32.6203 125.971 32.6203C126.471 32.6203 126.841 32.4603 127.111 32.1303Z" fill="#231815"/>
<path d="M132.69 28.3598L132.67 29.0998C132.52 29.0498 132.34 29.0198 132.14 29.0198C131.65 29.0198 131.29 29.1698 131.06 29.4798C130.82 29.7798 130.71 30.1498 130.71 30.5798V33.4498H129.9V29.8298C129.9 29.3098 129.87 28.8398 129.82 28.4198H130.59L130.67 29.3498C130.8 29.0098 131 28.7498 131.28 28.5698C131.56 28.3898 131.88 28.2998 132.24 28.2998C132.41 28.2998 132.56 28.3198 132.7 28.3598H132.69Z" fill="#231815"/>
<path d="M137.841 28.42V33.45H137.041V32.54C136.891 32.85 136.671 33.09 136.371 33.27C136.071 33.44 135.731 33.52 135.331 33.52C134.881 33.52 134.491 33.41 134.161 33.2C133.821 32.99 133.561 32.69 133.381 32.29C133.201 31.9 133.111 31.45 133.111 30.93C133.111 30.41 133.201 29.95 133.391 29.55C133.581 29.15 133.841 28.84 134.181 28.62C134.521 28.4 134.901 28.29 135.351 28.29C135.741 28.29 136.091 28.38 136.381 28.55C136.671 28.72 136.901 28.97 137.051 29.28V28.41H137.851L137.841 28.42ZM136.641 32.34C136.911 32 137.041 31.53 137.041 30.91C137.041 30.29 136.911 29.81 136.641 29.48C136.371 29.15 135.991 28.98 135.501 28.98C135.011 28.98 134.621 29.15 134.341 29.49C134.061 29.83 133.921 30.31 133.921 30.93C133.921 31.55 134.061 32.02 134.331 32.35C134.601 32.68 134.991 32.85 135.491 32.85C135.991 32.85 136.361 32.68 136.631 32.34H136.641Z" fill="#231815"/>
<path d="M143.09 28.6298C143.43 28.8498 143.69 29.1598 143.88 29.5598C144.07 29.9598 144.16 30.4098 144.16 30.9398C144.16 31.4698 144.07 31.9098 143.88 32.2998C143.69 32.6898 143.43 32.9898 143.09 33.2098C142.75 33.4198 142.36 33.5298 141.91 33.5298C141.52 33.5298 141.17 33.4398 140.88 33.2698C140.59 33.0998 140.36 32.8498 140.21 32.5298V35.6198H139.4V29.8398C139.4 29.3198 139.37 28.8498 139.32 28.4298H140.09L140.17 29.3998C140.31 29.0498 140.53 28.7798 140.84 28.5898C141.14 28.3998 141.5 28.2998 141.91 28.2998C142.35 28.2998 142.74 28.4098 143.08 28.6298H143.09ZM142.92 32.3498C143.19 32.0198 143.32 31.5398 143.32 30.9298C143.32 30.3198 143.18 29.8398 142.91 29.4898C142.64 29.1498 142.26 28.9798 141.77 28.9798C141.28 28.9798 140.89 29.1498 140.62 29.4798C140.35 29.8098 140.22 30.2898 140.22 30.9098C140.22 31.5298 140.35 32.0098 140.62 32.3398C140.89 32.6798 141.27 32.8498 141.77 32.8498C142.27 32.8498 142.65 32.6798 142.92 32.3498V32.3498Z" fill="#231815"/>
<path d="M149.73 30.2898V33.4498H148.92V30.3298C148.92 29.8598 148.83 29.5198 148.64 29.3098C148.45 29.0898 148.16 28.9798 147.76 28.9798C147.29 28.9798 146.92 29.1198 146.64 29.4098C146.36 29.6998 146.22 30.0798 146.22 30.5698V33.4498H145.41V26.0898H146.22V29.2398C146.38 28.9298 146.61 28.6998 146.9 28.5398C147.2 28.3798 147.54 28.2998 147.91 28.2998C149.12 28.2998 149.72 28.9598 149.72 30.2898H149.73Z" fill="#231815"/>
<path d="M152.172 26.29V27.21H151.182V26.29H152.172ZM151.262 28.42H152.072V33.45H151.262V28.42Z" fill="#231815"/>
<path d="M154.47 33.2C154.11 32.99 153.83 32.69 153.63 32.29C153.43 31.9 153.34 31.45 153.34 30.93C153.34 30.41 153.44 29.95 153.64 29.55C153.84 29.15 154.12 28.84 154.49 28.62C154.86 28.4 155.29 28.29 155.79 28.29C156.13 28.29 156.46 28.35 156.77 28.47C157.09 28.59 157.35 28.75 157.56 28.95L157.29 29.55C157.04 29.35 156.79 29.2 156.55 29.11C156.31 29.02 156.07 28.97 155.83 28.97C155.32 28.97 154.91 29.14 154.62 29.48C154.33 29.82 154.18 30.3 154.18 30.92C154.18 31.54 154.33 32 154.62 32.33C154.91 32.67 155.32 32.84 155.83 32.84C156.08 32.84 156.32 32.79 156.55 32.7C156.79 32.61 157.03 32.46 157.29 32.26L157.56 32.86C157.35 33.06 157.08 33.22 156.76 33.33C156.44 33.45 156.1 33.51 155.75 33.51C155.26 33.51 154.84 33.4 154.48 33.19L154.47 33.2Z" fill="#231815"/>
<path d="M164.881 28.6196C165.221 28.8296 165.481 29.1296 165.671 29.5296C165.861 29.9196 165.951 30.3696 165.951 30.8996C165.951 31.4296 165.861 31.8796 165.671 32.2796C165.481 32.6796 165.221 32.9796 164.881 33.1996C164.541 33.4196 164.151 33.5296 163.711 33.5296C163.321 33.5296 162.971 33.4396 162.681 33.2696C162.391 33.0996 162.161 32.8496 162.011 32.5296V33.4596H161.201V26.0996H162.011V29.3196C162.161 28.9896 162.381 28.7396 162.681 28.5696C162.981 28.3996 163.321 28.3096 163.721 28.3096C164.161 28.3096 164.551 28.4196 164.891 28.6296L164.881 28.6196ZM164.701 32.3296C164.971 31.9896 165.111 31.4996 165.111 30.8896C165.111 30.2796 164.981 29.8096 164.711 29.4796C164.441 29.1496 164.061 28.9796 163.571 28.9796C163.081 28.9796 162.691 29.1496 162.421 29.4796C162.151 29.8096 162.021 30.2896 162.021 30.9096C162.021 31.5296 162.151 32.0096 162.421 32.3396C162.691 32.6796 163.071 32.8496 163.571 32.8496C164.071 32.8496 164.441 32.6796 164.711 32.3296H164.701Z" fill="#231815"/>
<path d="M170.001 28.3598L169.981 29.0998C169.831 29.0498 169.651 29.0198 169.451 29.0198C168.961 29.0198 168.601 29.1698 168.371 29.4798C168.131 29.7798 168.011 30.1498 168.011 30.5798V33.4498H167.201V29.8298C167.201 29.3098 167.171 28.8398 167.121 28.4198H167.891L167.971 29.3498C168.101 29.0098 168.301 28.7498 168.581 28.5698C168.861 28.3898 169.181 28.2998 169.541 28.2998C169.711 28.2998 169.861 28.3198 170.001 28.3598Z" fill="#231815"/>
<path d="M175.15 28.42V33.45H174.35V32.54C174.2 32.85 173.98 33.09 173.69 33.27C173.39 33.44 173.05 33.52 172.65 33.52C172.2 33.52 171.81 33.41 171.47 33.2C171.13 32.99 170.87 32.69 170.69 32.29C170.51 31.9 170.41 31.45 170.41 30.93C170.41 30.41 170.5 29.95 170.69 29.55C170.88 29.15 171.14 28.84 171.48 28.62C171.82 28.4 172.21 28.29 172.65 28.29C173.04 28.29 173.39 28.38 173.68 28.55C173.97 28.72 174.2 28.97 174.35 29.28V28.41H175.15V28.42ZM173.95 32.34C174.22 32 174.35 31.53 174.35 30.91C174.35 30.29 174.22 29.81 173.95 29.48C173.68 29.15 173.3 28.98 172.81 28.98C172.32 28.98 171.93 29.15 171.65 29.49C171.37 29.83 171.24 30.31 171.24 30.93C171.24 31.55 171.38 32.02 171.65 32.35C171.92 32.68 172.31 32.85 172.81 32.85C173.31 32.85 173.68 32.68 173.95 32.34V32.34Z" fill="#231815"/>
<path d="M181.041 30.2898V33.4498H180.231V30.3298C180.231 29.8598 180.141 29.5198 179.951 29.3098C179.761 29.0898 179.471 28.9798 179.071 28.9798C178.601 28.9798 178.231 29.1198 177.951 29.4098C177.671 29.6998 177.531 30.0798 177.531 30.5698V33.4498H176.721V29.8298C176.721 29.3098 176.691 28.8398 176.641 28.4198H177.411L177.491 29.3198C177.641 28.9898 177.871 28.7398 178.181 28.5698C178.491 28.3998 178.841 28.2998 179.231 28.2998C180.441 28.2998 181.041 28.9598 181.041 30.2898V30.2898Z" fill="#231815"/>
<path d="M187 26.0901V33.4501H186.2V32.5401C186.05 32.8501 185.83 33.0901 185.53 33.2701C185.23 33.4401 184.89 33.5201 184.49 33.5201C184.05 33.5201 183.66 33.4101 183.32 33.1901C182.98 32.9701 182.72 32.6601 182.53 32.2701C182.34 31.8701 182.25 31.4101 182.25 30.8901C182.25 30.3701 182.34 29.9101 182.53 29.5201C182.71 29.1301 182.98 28.8301 183.32 28.6101C183.66 28.4001 184.05 28.2901 184.49 28.2901C184.88 28.2901 185.23 28.3701 185.52 28.5501C185.81 28.7201 186.03 28.9601 186.18 29.2601V26.0801H186.99L187 26.0901ZM185.8 32.3401C186.07 32.0001 186.2 31.5301 186.2 30.9101C186.2 30.2901 186.07 29.8201 185.8 29.4901C185.53 29.1601 185.15 28.9901 184.66 28.9901C184.17 28.9901 183.78 29.1601 183.5 29.4901C183.22 29.8201 183.08 30.2901 183.08 30.9001C183.08 31.5101 183.22 32.0001 183.5 32.3401C183.78 32.6801 184.16 32.8601 184.66 32.8601C185.16 32.8601 185.53 32.6901 185.8 32.3501V32.3401Z" fill="#231815"/>
<path d="M192.092 26.29V27.21H191.102V26.29H192.092ZM191.182 28.42H191.992V33.45H191.182V28.42Z" fill="#231815"/>
<path d="M197.99 26.0901V33.4501H197.19V32.5401C197.04 32.8501 196.82 33.0901 196.53 33.2701C196.23 33.4401 195.89 33.5201 195.49 33.5201C195.05 33.5201 194.66 33.4101 194.32 33.1901C193.98 32.9701 193.72 32.6601 193.53 32.2701C193.34 31.8701 193.25 31.4101 193.25 30.8901C193.25 30.3701 193.34 29.9101 193.53 29.5201C193.71 29.1301 193.98 28.8301 194.32 28.6101C194.66 28.4001 195.05 28.2901 195.49 28.2901C195.88 28.2901 196.23 28.3701 196.52 28.5501C196.81 28.7201 197.03 28.9601 197.18 29.2601V26.0801H197.99V26.0901ZM196.79 32.3401C197.06 32.0001 197.19 31.5301 197.19 30.9101C197.19 30.2901 197.06 29.8201 196.79 29.4901C196.52 29.1501 196.14 28.9901 195.65 28.9901C195.16 28.9901 194.77 29.1601 194.49 29.4901C194.21 29.8201 194.08 30.2901 194.08 30.9001C194.08 31.5101 194.22 32.0001 194.49 32.3401C194.77 32.6801 195.15 32.8601 195.65 32.8601C196.15 32.8601 196.52 32.6901 196.79 32.3501V32.3401Z" fill="#231815"/>
<path d="M203.772 30.91H200.082C200.082 31.55 200.242 32.03 200.532 32.36C200.822 32.69 201.242 32.85 201.792 32.85C202.382 32.85 202.922 32.65 203.412 32.26L203.682 32.85C203.462 33.06 203.182 33.22 202.832 33.34C202.482 33.46 202.132 33.52 201.782 33.52C200.992 33.52 200.382 33.29 199.932 32.82C199.482 32.36 199.262 31.72 199.262 30.91C199.262 30.4 199.362 29.94 199.562 29.55C199.762 29.15 200.042 28.84 200.402 28.62C200.762 28.4 201.172 28.29 201.632 28.29C202.302 28.29 202.822 28.51 203.202 28.95C203.582 29.39 203.772 29.99 203.772 30.75V30.9V30.91ZM200.612 29.31C200.352 29.56 200.182 29.92 200.112 30.38H203.042C203.002 29.91 202.862 29.55 202.632 29.3C202.392 29.05 202.062 28.93 201.642 28.93C201.222 28.93 200.882 29.06 200.622 29.31H200.612Z" fill="#231815"/>
<path d="M209.32 30.2898V33.4498H208.51V30.3298C208.51 29.8598 208.42 29.5198 208.23 29.3098C208.04 29.0898 207.75 28.9798 207.35 28.9798C206.88 28.9798 206.51 29.1198 206.23 29.4098C205.95 29.6998 205.81 30.0798 205.81 30.5698V33.4498H205V29.8298C205 29.3098 204.97 28.8398 204.92 28.4198H205.69L205.77 29.3198C205.92 28.9898 206.15 28.7398 206.46 28.5698C206.77 28.3998 207.12 28.2998 207.51 28.2998C208.72 28.2998 209.32 28.9598 209.32 30.2898V30.2898Z" fill="#231815"/>
<path d="M211.931 29.0601V31.8101C211.931 32.1801 212.011 32.4401 212.161 32.5901C212.311 32.7401 212.531 32.8201 212.811 32.8201C213.001 32.8201 213.181 32.7901 213.351 32.7301V33.4201C213.141 33.4901 212.911 33.5201 212.651 33.5201C212.171 33.5201 211.801 33.3801 211.531 33.1101C211.261 32.8401 211.121 32.4401 211.121 31.9101V29.0501H210.141V28.4101H211.121V27.1201L211.931 26.8301V28.4101H213.371V29.0501H211.931V29.0601Z" fill="#231815"/>
<path d="M215.261 26.29V27.21H214.271V26.29H215.261ZM214.351 28.42H215.161V33.45H214.351V28.42Z" fill="#231815"/>
<path d="M217.802 29.0601V31.8101C217.802 32.1801 217.882 32.4401 218.032 32.5901C218.182 32.7401 218.402 32.8201 218.682 32.8201C218.872 32.8201 219.052 32.7901 219.222 32.7301V33.4201C219.012 33.4901 218.782 33.5201 218.522 33.5201C218.042 33.5201 217.662 33.3801 217.402 33.1101C217.132 32.8401 216.992 32.4401 216.992 31.9101V29.0501H216.012V28.4101H216.992V27.1201L217.802 26.8301V28.4101H219.242V29.0501H217.802V29.0601Z" fill="#231815"/>
<path d="M224.701 28.4199L222.351 33.9099C222.101 34.4799 221.791 34.8999 221.421 35.1699C221.051 35.4399 220.591 35.6199 220.041 35.7199L219.871 35.0899C220.341 34.9799 220.701 34.8399 220.941 34.6699C221.181 34.4899 221.391 34.2199 221.551 33.8599L221.751 33.4099L219.621 28.4299H220.471L222.171 32.5799L223.891 28.4299H224.701V28.4199Z" fill="#231815"/>
<path d="M128.281 40.42V45.45H127.481V44.54C127.331 44.85 127.111 45.0901 126.821 45.2701C126.521 45.4401 126.181 45.5201 125.781 45.5201C125.331 45.5201 124.941 45.41 124.601 45.2C124.261 44.99 124.001 44.69 123.821 44.29C123.641 43.9 123.541 43.45 123.541 42.93C123.541 42.41 123.631 41.95 123.821 41.55C124.011 41.15 124.271 40.84 124.611 40.62C124.951 40.4 125.341 40.29 125.781 40.29C126.171 40.29 126.521 40.38 126.811 40.55C127.101 40.72 127.331 40.97 127.481 41.28V40.41H128.281V40.42ZM127.081 44.34C127.351 44 127.481 43.53 127.481 42.91C127.481 42.29 127.351 41.81 127.081 41.48C126.811 41.15 126.431 40.98 125.941 40.98C125.451 40.98 125.061 41.1501 124.781 41.4901C124.501 41.8301 124.371 42.31 124.371 42.93C124.371 43.55 124.511 44.0201 124.781 44.3501C125.051 44.6801 125.441 44.8501 125.941 44.8501C126.441 44.8501 126.811 44.68 127.081 44.34V44.34Z" fill="#231815"/>
<path d="M134.172 42.2898V45.4498H133.361V42.3298C133.361 41.8598 133.271 41.5198 133.081 41.3098C132.891 41.0898 132.602 40.9798 132.202 40.9798C131.732 40.9798 131.361 41.1198 131.081 41.4098C130.801 41.6998 130.661 42.0798 130.661 42.5698V45.4498H129.852V41.8298C129.852 41.3098 129.821 40.8398 129.771 40.4198H130.542L130.621 41.3198C130.771 40.9898 131.001 40.7398 131.311 40.5698C131.621 40.3998 131.971 40.2998 132.361 40.2998C133.571 40.2998 134.172 40.9598 134.172 42.2898V42.2898Z" fill="#231815"/>
<path d="M140.131 38.0901V45.4501H139.331V44.5401C139.181 44.8501 138.961 45.0901 138.671 45.2701C138.371 45.4401 138.031 45.5201 137.631 45.5201C137.191 45.5201 136.801 45.4101 136.461 45.1901C136.121 44.9701 135.861 44.6601 135.671 44.2701C135.481 43.8701 135.391 43.4101 135.391 42.8901C135.391 42.3701 135.481 41.9101 135.671 41.5201C135.851 41.1301 136.121 40.8301 136.461 40.6101C136.801 40.4001 137.191 40.2901 137.631 40.2901C138.021 40.2901 138.371 40.3701 138.661 40.5501C138.951 40.7201 139.171 40.9601 139.321 41.2601V38.0801H140.131V38.0901ZM138.931 44.3401C139.201 44.0001 139.331 43.5301 139.331 42.9101C139.331 42.2901 139.201 41.8201 138.931 41.4901C138.661 41.1501 138.281 40.9901 137.791 40.9901C137.301 40.9901 136.911 41.1601 136.631 41.4901C136.351 41.8201 136.221 42.2901 136.221 42.9001C136.221 43.5101 136.361 44.0001 136.631 44.3401C136.911 44.6801 137.291 44.8601 137.791 44.8601C138.291 44.8601 138.661 44.6901 138.931 44.3501V44.3401Z" fill="#231815"/>
<path d="M144.311 38.0898H145.121V45.4498H144.311V38.0898V38.0898Z" fill="#231815"/>
<path d="M147.52 45.1998C147.16 44.9898 146.88 44.6798 146.69 44.2898C146.49 43.8998 146.4 43.4398 146.4 42.9098C146.4 42.3798 146.5 41.9198 146.69 41.5298C146.89 41.1398 147.16 40.8298 147.52 40.6198C147.88 40.4098 148.3 40.2998 148.77 40.2998C149.24 40.2998 149.66 40.4098 150.02 40.6198C150.38 40.8298 150.66 41.1398 150.86 41.5298C151.06 41.9198 151.15 42.3798 151.15 42.9098C151.15 43.4398 151.05 43.8998 150.86 44.2898C150.66 44.6798 150.39 44.9898 150.02 45.1998C149.66 45.4098 149.24 45.5198 148.77 45.5198C148.3 45.5198 147.88 45.4098 147.52 45.1998ZM149.92 44.3598C150.19 44.0298 150.32 43.5498 150.32 42.9098C150.32 42.2698 150.18 41.8198 149.91 41.4898C149.64 41.1598 149.26 40.9898 148.77 40.9898C148.28 40.9898 147.89 41.1598 147.62 41.4898C147.35 41.8198 147.21 42.2998 147.21 42.9098C147.21 43.5198 147.35 44.0298 147.62 44.3598C147.89 44.6898 148.27 44.8598 148.77 44.8598C149.27 44.8598 149.65 44.6898 149.92 44.3598V44.3598Z" fill="#231815"/>
<path d="M156.891 40.4203V45.4103C156.891 46.1603 156.701 46.7203 156.311 47.1103C155.931 47.4903 155.361 47.6903 154.621 47.6903C153.881 47.6903 153.191 47.5203 152.641 47.1703L152.781 46.5103C153.101 46.6903 153.401 46.8203 153.691 46.9003C153.971 46.9803 154.281 47.0203 154.631 47.0203C155.121 47.0203 155.481 46.8903 155.731 46.6403C155.981 46.3803 156.101 46.0003 156.101 45.5003V44.3103C155.951 44.6303 155.721 44.8803 155.431 45.0603C155.131 45.2403 154.781 45.3203 154.371 45.3203C153.931 45.3203 153.541 45.2203 153.201 45.0103C152.861 44.8003 152.591 44.5103 152.411 44.1303C152.221 43.7503 152.131 43.3103 152.131 42.8203C152.131 42.3303 152.221 41.8903 152.411 41.5103C152.601 41.1303 152.861 40.8403 153.201 40.6303C153.541 40.4203 153.931 40.3203 154.371 40.3203C154.771 40.3203 155.121 40.4103 155.411 40.5803C155.711 40.7503 155.931 41.0003 156.081 41.3103V40.4403H156.891V40.4203ZM155.671 44.1303C155.951 43.8103 156.081 43.3603 156.081 42.8003C156.081 42.2403 155.941 41.7903 155.671 41.4703C155.391 41.1503 155.011 40.9903 154.521 40.9903C154.031 40.9903 153.641 41.1503 153.351 41.4703C153.071 41.7903 152.921 42.2403 152.921 42.8003C152.921 43.3603 153.061 43.8103 153.351 44.1303C153.631 44.4503 154.021 44.6203 154.521 44.6203C155.021 44.6203 155.391 44.4603 155.671 44.1303Z" fill="#231815"/>
<path d="M159.28 45.1998C158.92 44.9898 158.64 44.6798 158.45 44.2898C158.25 43.8998 158.16 43.4398 158.16 42.9098C158.16 42.3798 158.26 41.9198 158.45 41.5298C158.65 41.1398 158.92 40.8298 159.28 40.6198C159.64 40.4098 160.06 40.2998 160.53 40.2998C161 40.2998 161.42 40.4098 161.78 40.6198C162.14 40.8298 162.42 41.1398 162.62 41.5298C162.82 41.9198 162.91 42.3798 162.91 42.9098C162.91 43.4398 162.81 43.8998 162.62 44.2898C162.42 44.6798 162.15 44.9898 161.78 45.1998C161.42 45.4098 161 45.5198 160.53 45.5198C160.06 45.5198 159.64 45.4098 159.28 45.1998ZM161.68 44.3598C161.95 44.0298 162.08 43.5498 162.08 42.9098C162.08 42.2698 161.94 41.8198 161.67 41.4898C161.4 41.1598 161.02 40.9898 160.53 40.9898C160.04 40.9898 159.65 41.1598 159.38 41.4898C159.11 41.8198 158.97 42.2998 158.97 42.9098C158.97 43.5198 159.11 44.0298 159.38 44.3598C159.65 44.6898 160.03 44.8598 160.53 44.8598C161.03 44.8598 161.41 44.6898 161.68 44.3598V44.3598Z" fill="#231815"/>
<path d="M165.241 41.0601V43.8101C165.241 44.1801 165.321 44.4401 165.471 44.5901C165.621 44.7401 165.841 44.8201 166.121 44.8201C166.311 44.8201 166.491 44.7901 166.661 44.7301V45.4201C166.451 45.4901 166.221 45.5201 165.961 45.5201C165.481 45.5201 165.111 45.3801 164.841 45.1101C164.571 44.8401 164.431 44.4401 164.431 43.9101V41.0501H163.451V40.4101H164.431V39.1201L165.241 38.8301V40.4101H166.681V41.0501H165.241V41.0601Z" fill="#231815"/>
<path d="M172.141 40.4199L169.791 45.9099C169.541 46.4799 169.231 46.8999 168.861 47.1699C168.491 47.4399 168.031 47.6199 167.481 47.7199L167.311 47.0899C167.781 46.9799 168.141 46.8399 168.381 46.6699C168.621 46.4899 168.831 46.2199 168.991 45.8599L169.191 45.4099L167.061 40.4299H167.911L169.611 44.5799L171.331 40.4299H172.141V40.4199Z" fill="#231815"/>
<path d="M176.711 40.6298C177.051 40.8498 177.311 41.1598 177.501 41.5598C177.691 41.9598 177.781 42.4098 177.781 42.9398C177.781 43.4698 177.691 43.9098 177.501 44.2998C177.311 44.6898 177.051 44.9898 176.711 45.2098C176.371 45.4198 175.981 45.5298 175.541 45.5298C175.151 45.5298 174.801 45.4398 174.511 45.2698C174.221 45.0998 173.991 44.8498 173.841 44.5298V47.6198H173.031V41.8398C173.031 41.3198 173.001 40.8498 172.951 40.4298H173.721L173.801 41.3998C173.941 41.0498 174.161 40.7798 174.471 40.5898C174.771 40.3998 175.131 40.2998 175.551 40.2998C175.991 40.2998 176.381 40.4098 176.721 40.6298H176.711ZM176.541 44.3498C176.811 44.0198 176.941 43.5398 176.941 42.9298C176.941 42.3198 176.801 41.8398 176.531 41.4898C176.261 41.1498 175.881 40.9798 175.391 40.9798C174.901 40.9798 174.511 41.1498 174.241 41.4798C173.971 41.8098 173.841 42.2898 173.841 42.9098C173.841 43.5298 173.971 44.0098 174.241 44.3398C174.511 44.6798 174.891 44.8498 175.391 44.8498C175.891 44.8498 176.271 44.6798 176.531 44.3498H176.541Z" fill="#231815"/>
<path d="M183.242 42.91H179.552C179.552 43.55 179.712 44.03 180.002 44.36C180.292 44.69 180.712 44.8501 181.272 44.8501C181.862 44.8501 182.402 44.65 182.892 44.26L183.162 44.8501C182.942 45.0601 182.662 45.22 182.322 45.34C181.982 45.46 181.622 45.5201 181.272 45.5201C180.482 45.5201 179.872 45.29 179.422 44.82C178.972 44.36 178.752 43.72 178.752 42.91C178.752 42.4 178.852 41.94 179.052 41.55C179.252 41.15 179.532 40.84 179.892 40.62C180.252 40.4 180.662 40.29 181.122 40.29C181.792 40.29 182.312 40.51 182.692 40.95C183.072 41.39 183.262 41.99 183.262 42.75V42.9L183.242 42.91ZM180.082 41.31C179.822 41.56 179.652 41.9201 179.582 42.3801H182.512C182.472 41.9101 182.332 41.55 182.092 41.3C181.852 41.05 181.522 40.93 181.102 40.93C180.682 40.93 180.342 41.06 180.072 41.31H180.082Z" fill="#231815"/>
<path d="M40.6007 24.3195V25.4495H42.1107C41.4907 25.2095 40.9907 24.8295 40.6007 24.3195ZM38.8507 27.4495H41.8507V26.9095H38.8507V27.4495ZM41.8507 25.9595H38.8507V26.4195H41.8507V25.9595ZM38.6407 25.4495H40.0307V24.3295C39.6807 24.8395 39.2107 25.2095 38.6407 25.4495ZM42.4207 25.5895V28.2395H41.8507V27.9595H38.8507V28.2395H38.2807V25.6195C38.1807 25.6695 38.0107 25.7295 37.7607 25.8095L37.4707 25.2695C38.2107 25.0895 38.8507 24.7695 39.4007 24.3095H37.5207V23.7995H40.0307V23.3095C39.1207 23.3295 38.4607 23.3495 38.0607 23.3495L37.8607 22.7895C38.0907 22.7895 38.3807 22.7995 38.7207 22.7995C40.3407 22.7995 41.5707 22.7095 42.4007 22.5195L42.6607 23.0195C42.1107 23.1295 41.4207 23.2295 40.6007 23.2895V23.7995H43.1707V24.3095H41.2107C41.6707 24.7595 42.3407 25.0695 43.2207 25.2395L42.9507 25.7895C42.8707 25.7495 42.7807 25.7195 42.6807 25.6895C42.5807 25.6595 42.4907 25.6195 42.4107 25.5795" fill="#003875"/>
<path d="M48.1606 24.2898H49.2705V23.6898H48.1606V24.2898ZM48.2906 24.7998C48.2006 25.0098 48.0805 25.1898 47.9305 25.3498H49.4905C49.3605 25.1998 49.2305 25.0198 49.1205 24.7998H48.3005H48.2906ZM47.8305 26.4298H49.2306V25.8298H47.8305V26.4298ZM46.7906 23.1798H47.6006V22.5498H48.1606V23.1798H49.2705V22.5498H49.8206V23.1798H50.8305V23.6598H49.8206V24.2898H50.9206V24.7998H49.7606C49.9206 25.1298 50.3305 25.4598 50.9905 25.7798L50.7306 26.3198C50.3606 26.0998 50.0505 25.8698 49.8005 25.6598V26.9098H47.8405V27.2998C47.8405 27.4398 47.9105 27.5098 48.0505 27.5098H49.8605C50.0305 27.5098 50.1306 27.4498 50.1606 27.3198C50.1906 27.1898 50.2205 26.9598 50.2505 26.6398L50.8405 26.8498C50.7705 27.4098 50.6905 27.7498 50.5805 27.8698C50.4705 27.9798 50.2706 28.0298 49.9506 28.0298H47.9706C47.7106 28.0298 47.5306 27.9798 47.4206 27.8798C47.3206 27.7798 47.2705 27.5898 47.2705 27.3098V25.9398C47.1705 26.0298 46.9805 26.1498 46.7105 26.3198L46.3605 25.8098C47.0405 25.5098 47.4606 25.1598 47.6406 24.7798H46.6606V24.2698H47.5905V23.6598H46.7805V23.3298L46.4106 23.7898C46.0806 23.4898 45.7705 23.2498 45.5005 23.0798L45.9005 22.6298C46.2505 22.8498 46.5405 23.0498 46.7805 23.2298V23.1498L46.7906 23.1798ZM46.1906 25.3598C45.8606 25.0798 45.5805 24.8598 45.3405 24.6998L45.7105 24.2398C46.0005 24.3998 46.3005 24.5898 46.6105 24.8298L46.2006 25.3498L46.1906 25.3598ZM46.5706 26.3498C46.4006 27.0098 46.1405 27.6098 45.8005 28.1698L45.3105 27.6698C45.6705 27.1598 45.9106 26.6198 46.0406 26.0398L46.5706 26.3498Z" fill="#003875"/>
<path d="M57.1098 24.1502C56.6598 23.7902 56.2899 23.5202 56.0099 23.3502L56.3799 22.9502C56.6399 23.1002 57.0198 23.3402 57.4998 23.6902L57.1198 24.1502H57.1098ZM56.9998 25.6302C56.5798 25.2802 56.2099 25.0102 55.8899 24.8202L56.2498 24.4102C56.5498 24.5702 56.9299 24.8202 57.3799 25.1602L56.9998 25.6302ZM55.6699 26.8702V26.3002L57.7098 26.0002V22.4902H58.2798V25.9302L58.8298 25.8402V26.4002L58.2798 26.4902V28.2402H57.7098V26.5602L55.6699 26.8702ZM54.2599 23.3802C54.0399 23.4202 53.7298 23.4602 53.3098 23.4802L53.1798 22.9702C54.0898 22.9202 54.8698 22.7802 55.5298 22.5302L55.7398 23.0302C55.4498 23.1302 55.1399 23.2202 54.8199 23.2802V24.1402H55.7498V24.6602H54.8199V24.7202C55.2799 25.1402 55.6199 25.4802 55.8499 25.7302L55.5099 26.2502C55.3899 26.0802 55.2699 25.9302 55.1399 25.7902C55.0299 25.6602 54.9299 25.5302 54.8199 25.3802V28.2102L54.2599 28.2302V25.7202C54.1099 26.1102 53.8298 26.5702 53.4298 27.0902L53.0898 26.5402C53.5998 25.9602 53.9898 25.3302 54.2398 24.6602H53.1198V24.1402H54.2498V23.3802H54.2599Z" fill="#003875"/>
<path d="M63.1804 24.2905H62.4604V25.3705C62.7804 25.2605 63.0204 25.1705 63.1704 25.1005V25.7005C63.0404 25.7705 62.8104 25.8605 62.4604 25.9805V27.4705C62.4604 27.7605 62.4204 27.9505 62.3404 28.0405C62.2504 28.1405 62.0604 28.1905 61.7604 28.1905H61.2804L61.1404 27.5705L61.6704 27.5905C61.8004 27.5905 61.8704 27.5205 61.8704 27.3905V26.1505C61.5204 26.2405 61.2504 26.3105 61.0504 26.3605L60.9004 25.7005C61.2504 25.6605 61.5704 25.5905 61.8604 25.5205V24.2905H60.9604V23.7305H61.8604V22.4805H62.4604V23.7305H63.1804V23.3405H64.4904V22.4805H65.0904V23.3405H66.5304V23.9005H65.0904V24.7205H66.3204V25.2305C66.2704 25.4505 66.1304 25.7405 65.9204 26.0905C65.7104 26.4405 65.4904 26.7205 65.2604 26.9305C65.6704 27.2605 66.1304 27.5005 66.6404 27.6405L66.3304 28.2105C65.7904 28.0405 65.2904 27.7305 64.8204 27.3005C64.1804 27.7905 63.5604 28.1005 62.9804 28.2205L62.6404 27.6705C63.2304 27.5405 63.8104 27.2805 64.4004 26.8805C64.0904 26.5605 63.7804 26.1305 63.4804 25.5805L63.9904 25.3805C64.2704 25.8805 64.5504 26.2605 64.8304 26.5405C65.2404 26.2105 65.5404 25.7905 65.7104 25.2805H63.2904V24.7205H64.5004V23.9005H63.1904V24.2905H63.1804Z" fill="#003875"/>
<path d="M72.3611 24.67C72.4511 25.17 72.6711 25.69 73.0211 26.23C73.3711 26.78 73.8412 27.25 74.4512 27.65L73.9812 28.21C72.8812 27.49 72.1312 26.31 71.7212 24.67H71.6212C71.3512 26.14 70.5312 27.32 69.1612 28.22L68.7012 27.64C69.2812 27.31 69.7712 26.88 70.1912 26.34C70.6012 25.8 70.8512 25.25 70.9512 24.68H68.8512V24.03H71.0612C71.1112 23.66 71.1412 23.15 71.1412 22.5H71.7812C71.7812 23.2 71.7612 23.71 71.7312 24.03H74.3212V24.68H72.3712L72.3611 24.67Z" fill="#003875"/>
<path d="M79.5298 24.5997C79.3398 24.7297 79.1098 24.8397 78.8198 24.9397L78.5598 24.5297C78.8398 24.4697 79.0498 24.3997 79.1898 24.3097C79.1098 24.2497 78.9698 24.1497 78.7798 24.0197L79.0998 23.7497C79.1798 23.7997 79.2498 23.8497 79.3098 23.8797C79.3898 23.9297 79.4698 23.9997 79.5698 24.0697C79.6898 23.9897 79.8297 23.8697 79.9897 23.6897L80.3098 23.9597C80.1598 24.1097 80.0197 24.2297 79.8997 24.3297C80.0197 24.4297 80.1298 24.5397 80.2498 24.6497L79.8597 24.9497C79.6697 24.7097 79.5698 24.5897 79.5398 24.5897M79.4998 23.3397C79.2998 23.4697 79.0598 23.5897 78.7898 23.7097L78.4798 23.2997C78.8198 23.2097 79.0397 23.1197 79.1497 23.0497C79.0497 22.9697 78.9098 22.8697 78.7298 22.7597L79.0598 22.4697C79.2198 22.5697 79.3798 22.6797 79.5398 22.8097C79.7098 22.6897 79.8398 22.5797 79.9098 22.4797L80.2097 22.7497C80.1197 22.8697 79.9998 22.9797 79.8498 23.0797C79.9298 23.1497 80.0398 23.2597 80.1698 23.3997L79.7997 23.6697C79.6397 23.4397 79.5297 23.3197 79.4897 23.3197M81.5998 25.5197H77.1998V26.4197H76.6598V25.0397H76.9597L76.8898 22.6997C77.4198 22.6797 77.8698 22.6197 78.2298 22.5197L78.4998 22.9697C78.2698 23.0497 77.9098 23.0997 77.4098 23.1297L77.4297 23.4397H78.3798V23.8597H77.4498V24.2097H78.3798V24.6297H77.4597V25.0397H81.2898V24.6297H80.4398V24.2097H81.3098V23.8597H80.4398V23.4397H81.3398V23.0997H80.3798V22.6197H81.8898L81.8198 25.0297H82.1398V26.4097H81.5898V25.5097L81.5998 25.5197ZM81.0598 25.7797V26.2297C80.6998 26.4197 80.2597 26.5997 79.7397 26.7597H82.2697V27.2497H79.7397V27.4997C79.7397 27.9297 79.5497 28.1497 79.1797 28.1497H78.2798L78.1398 27.6597L78.9798 27.6797C79.0998 27.6797 79.1598 27.6197 79.1598 27.4997V27.2497H76.5098V26.7597H79.1598V26.4997C79.4398 26.4497 79.7998 26.3597 80.2298 26.2397H77.6598V25.7897H81.0598V25.7797Z" fill="#003875"/>
<path d="M39.2804 35.0904H38.7204V31.1204H37.6504V30.6104H40.3404V31.1204H39.2804V35.0904Z" fill="#003875"/>
<path d="M43.481 32.4204V30.6104H44.041V35.0904H43.481V32.9404H41.351V35.0904H40.791V30.6104H41.351V32.4204H43.481Z" fill="#003875"/>
<path d="M44.9102 30.6104H47.3202V31.1204H45.4702V32.3704H47.2701V32.8804H45.4702V34.5804H47.3202V35.0904H44.9102V30.6104Z" fill="#003875"/>
<path d="M52.4908 32.4204V30.6104H53.0508V35.0904H52.4908V32.9404H50.3608V35.0904H49.8008V30.6104H50.3608V32.4204H52.4908Z" fill="#003875"/>
<path d="M57.7396 32.8498C57.7396 31.8598 56.9996 31.0398 55.9496 31.0398C54.8996 31.0398 54.1596 31.8698 54.1596 32.8498C54.1596 33.8298 54.9796 34.6598 55.9496 34.6598C56.9196 34.6598 57.7396 33.8698 57.7396 32.8498ZM58.2996 32.8498C58.2996 34.1798 57.2496 35.1898 55.9496 35.1898C54.6496 35.1898 53.5996 34.1898 53.5996 32.8498C53.5996 31.5098 54.6596 30.5098 55.9496 30.5098C57.2396 30.5098 58.2996 31.5598 58.2996 32.8498Z" fill="#003875"/>
<path d="M58.8496 30.3896L62.2096 33.9197V30.6096H62.7696V35.2697L59.3996 31.7496V35.0897H58.8496V30.3896Z" fill="#003875"/>
<path d="M67.7103 32.8298V33.0098C67.7103 34.2398 66.8403 35.1898 65.5903 35.1898C64.3403 35.1898 63.3203 34.1098 63.3203 32.8598C63.3203 31.6098 64.3503 30.5098 65.6403 30.5098C66.3403 30.5098 67.0203 30.8298 67.4703 31.3798L67.0803 31.7598C66.7603 31.3198 66.2203 31.0298 65.6703 31.0298C64.6703 31.0298 63.8803 31.8398 63.8803 32.8498C63.8803 33.7898 64.6503 34.6798 65.6203 34.6798C66.3203 34.6798 67.0603 34.0798 67.0903 33.3498H65.9303V32.8398H67.7103V32.8298Z" fill="#003875"/>
<path d="M72.5596 30.6104H73.2896L71.2796 32.6204L73.3296 35.0904H72.5696L70.8796 33.0004L70.6596 33.2204V35.0904H70.0996V30.6104H70.6596V32.5504L72.5596 30.6104Z" fill="#003875"/>
<path d="M77.5501 32.8498C77.5501 31.8598 76.8102 31.0398 75.7602 31.0398C74.7102 31.0398 73.9702 31.8698 73.9702 32.8498C73.9702 33.8298 74.7902 34.6598 75.7602 34.6598C76.7302 34.6598 77.5501 33.8698 77.5501 32.8498ZM78.1101 32.8498C78.1101 34.1798 77.0602 35.1898 75.7602 35.1898C74.4602 35.1898 73.4102 34.1898 73.4102 32.8498C73.4102 31.5098 74.4702 30.5098 75.7602 30.5098C77.0502 30.5098 78.1101 31.5598 78.1101 32.8498Z" fill="#003875"/>
<path d="M78.6504 30.3896L82.0204 33.9197V30.6096H82.5804V35.2697L79.2104 31.7496V35.0897H78.6504V30.3896Z" fill="#003875"/>
<path d="M87.5208 32.8298V33.0098C87.5208 34.2398 86.6508 35.1898 85.4008 35.1898C84.1508 35.1898 83.1309 34.1098 83.1309 32.8598C83.1309 31.6098 84.1609 30.5098 85.4509 30.5098C86.1509 30.5098 86.8409 30.8298 87.2809 31.3798L86.8909 31.7598C86.5709 31.3198 86.0309 31.0298 85.4809 31.0298C84.4809 31.0298 83.6909 31.8398 83.6909 32.8498C83.6909 33.7898 84.4608 34.6798 85.4308 34.6798C86.1308 34.6798 86.8708 34.0798 86.9008 33.3498H85.7408V32.8398H87.5208V32.8298Z" fill="#003875"/>
<path d="M38.5502 37.7402V40.3902C38.5502 41.1202 38.7702 41.8002 39.6302 41.8002C40.4902 41.8002 40.7102 41.1202 40.7102 40.3902V37.7402H41.2702V40.5802C41.2702 41.5702 40.6602 42.3202 39.6302 42.3202C38.6002 42.3202 37.9902 41.5602 37.9902 40.5802V37.7402H38.5502V37.7402Z" fill="#003875"/>
<path d="M42.0508 37.5303L45.4208 41.0503V37.7403H45.9808V42.4103L42.6108 38.8803V42.2203H42.0508V37.5303Z" fill="#003875"/>
<path d="M47.3705 37.7402H46.8105V42.2202H47.3705V37.7402Z" fill="#003875"/>
<path d="M49.7508 41.0602L51.0808 37.7402H51.6908L49.7508 42.4602L47.8008 37.7402H48.4108L49.7508 41.0602Z" fill="#003875"/>
<path d="M52.1309 37.7402H54.5409V38.2502H52.6909V39.5102H54.4908V40.0202H52.6909V41.7102H54.5409V42.2202H52.1309V37.7402Z" fill="#003875"/>
<path d="M55.851 39.8602H56.031C56.601 39.8602 57.221 39.7502 57.221 39.0402C57.221 38.3302 56.551 38.2402 56.001 38.2402H55.851V39.8602ZM58.081 42.2202H57.401L56.081 40.3202H55.851V42.2202H55.291V37.7402H55.971C56.371 37.7402 56.801 37.7402 57.151 37.9502C57.531 38.1702 57.741 38.5902 57.741 39.0202C57.741 39.6602 57.311 40.2002 56.661 40.2702L58.081 42.2202V42.2202Z" fill="#003875"/>
<path d="M60.5701 38.5904C60.4001 38.3104 60.1901 38.1704 59.8501 38.1704C59.4901 38.1704 59.1001 38.4104 59.1001 38.8104C59.1001 39.1604 59.4501 39.3404 59.7201 39.4504L60.0401 39.5704C60.6801 39.8204 61.1501 40.1704 61.1501 40.9204C61.1501 41.7304 60.5201 42.3204 59.7201 42.3204C58.9901 42.3204 58.4301 41.7904 58.3301 41.0704L58.8901 40.9504C58.8901 41.4404 59.2801 41.8004 59.7601 41.8004C60.2401 41.8004 60.5901 41.4004 60.5901 40.9304C60.5901 40.4604 60.2001 40.2404 59.8201 40.0804L59.5101 39.9504C59.0001 39.7304 58.5401 39.4404 58.5401 38.8104C58.5401 38.0804 59.1801 37.6504 59.8601 37.6504C60.3601 37.6504 60.7701 37.8904 61.0101 38.3304L60.5601 38.6004L60.5701 38.5904Z" fill="#003875"/>
<path d="M62.3705 37.7402H61.8105V42.2202H62.3705V37.7402Z" fill="#003875"/>
<path d="M64.4796 42.2202H63.9196V38.2502H62.8496V37.7402H65.5396V38.2502H64.4796V42.2202Z" fill="#003875"/>
<path d="M65.5703 37.7402H66.2203L67.3203 39.6502L68.4203 37.7402H69.0603L67.6003 40.2702V42.2202H67.0403V40.2702L65.5703 37.7402Z" fill="#003875"/>
<path d="M75.101 39.9796C75.101 38.9896 74.3609 38.1697 73.3109 38.1697C72.2609 38.1697 71.5209 38.9996 71.5209 39.9796C71.5209 40.9596 72.3409 41.7897 73.3109 41.7897C74.2809 41.7897 75.101 40.9996 75.101 39.9796ZM75.6609 39.9796C75.6609 41.3096 74.6109 42.3197 73.3109 42.3197C72.0109 42.3197 70.9609 41.3196 70.9609 39.9796C70.9609 38.6396 72.0209 37.6396 73.3109 37.6396C74.6009 37.6396 75.6609 38.6896 75.6609 39.9796Z" fill="#003875"/>
<path d="M76.8198 38.2502V39.5102H78.3698V40.0202H76.8198V42.2202H76.2598V37.7402H78.4297V38.2502H76.8198Z" fill="#003875"/>
<path d="M82.9099 38.5904C82.7399 38.3104 82.5299 38.1704 82.1899 38.1704C81.8299 38.1704 81.4399 38.4104 81.4399 38.8104C81.4399 39.1604 81.7799 39.3404 82.0599 39.4504L82.3799 39.5704C83.0199 39.8204 83.4899 40.1704 83.4899 40.9204C83.4899 41.7304 82.8599 42.3204 82.0599 42.3204C81.3299 42.3204 80.7699 41.7904 80.6699 41.0704L81.2399 40.9504C81.2399 41.4404 81.6299 41.8004 82.1099 41.8004C82.5899 41.8004 82.9399 41.4004 82.9399 40.9304C82.9399 40.4604 82.5499 40.2404 82.1699 40.0804L81.8599 39.9504C81.3499 39.7304 80.8899 39.4404 80.8899 38.8104C80.8899 38.0804 81.5299 37.6504 82.2099 37.6504C82.7099 37.6504 83.1199 37.8904 83.3599 38.3304L82.9099 38.6004V38.5904Z" fill="#003875"/>
<path d="M87.4299 38.6002C87.1099 38.3102 86.6699 38.1602 86.2499 38.1602C85.2399 38.1602 84.4799 39.0002 84.4799 39.9902C84.4799 40.9802 85.2399 41.8102 86.2399 41.8102C86.6799 41.8102 87.0999 41.6402 87.4399 41.3502V42.0102C87.0999 42.2102 86.6599 42.3302 86.2599 42.3302C84.9799 42.3302 83.9199 41.3102 83.9199 40.0202C83.9199 38.7302 84.9799 37.6602 86.2999 37.6602C86.6899 37.6602 87.0899 37.7502 87.4299 37.9602V38.6102V38.6002Z" fill="#003875"/>
<path d="M88.7006 37.7402H88.1406V42.2202H88.7006V37.7402Z" fill="#003875"/>
<path d="M89.5996 37.7402H91.9996V38.2502H90.1596V39.5102H91.9496V40.0202H90.1596V41.7102H91.9996V42.2202H89.5996V37.7402Z" fill="#003875"/>
<path d="M92.7012 37.5303L96.0612 41.0503V37.7403H96.6212V42.4103L93.2612 38.8803V42.2203H92.7012V37.5303Z" fill="#003875"/>
<path d="M100.74 38.6002C100.42 38.3102 99.9805 38.1602 99.5605 38.1602C98.5505 38.1602 97.7905 39.0002 97.7905 39.9902C97.7905 40.9802 98.5504 41.8102 99.5504 41.8102C99.9904 41.8102 100.41 41.6402 100.75 41.3502V42.0102C100.41 42.2102 99.9605 42.3302 99.5705 42.3302C98.2905 42.3302 97.2305 41.3102 97.2305 40.0202C97.2305 38.7302 98.2904 37.6602 99.6104 37.6602C100 37.6602 100.4 37.7502 100.74 37.9602V38.6102V38.6002Z" fill="#003875"/>
<path d="M101.471 37.7402H103.881V38.2502H102.031V39.5102H103.821V40.0202H102.031V41.7102H103.881V42.2202H101.471V37.7402Z" fill="#003875"/>
<path d="M39.7299 45.9097L38.9298 47.7197H40.5198L39.7198 45.9097H39.7299ZM38.6999 48.2297L38.1898 49.3497H37.5898L39.7299 44.6797L41.8698 49.3497H41.2698L40.7599 48.2297H38.6999V48.2297Z" fill="#003875"/>
<path d="M42.25 44.6602L45.62 48.1802V44.8701H46.18V49.5402L42.81 46.0102V49.3502H42.25V44.6602Z" fill="#003875"/>
<path d="M47.5405 48.8401H47.7404C48.8804 48.8401 49.8705 48.4101 49.8705 47.1101C49.8705 45.8101 48.8804 45.3801 47.7404 45.3801H47.5405V48.8401V48.8401ZM46.9805 44.8701H47.9105C49.2805 44.8701 50.4205 45.6001 50.4205 47.0901C50.4205 48.5801 49.3005 49.3501 47.8905 49.3501H46.9805V44.8701Z" fill="#003875"/>
<path d="M54.0302 49.3501H53.4702V45.3801H52.4102V44.8701H55.0901V45.3801H54.0302V49.3501Z" fill="#003875"/>
<path d="M55.5898 44.8701H57.9998V45.3801H56.1498V46.6401H57.9499V47.1501H56.1498V48.8401H57.9998V49.3501H55.5898V44.8701Z" fill="#003875"/>
<path d="M62.01 45.73C61.69 45.44 61.25 45.29 60.83 45.29C59.82 45.29 59.06 46.13 59.06 47.12C59.06 48.11 59.82 48.94 60.82 48.94C61.26 48.94 61.68 48.77 62.02 48.48V49.14C61.68 49.34 61.23 49.46 60.84 49.46C59.56 49.46 58.5 48.44 58.5 47.15C58.5 45.86 59.56 44.79 60.88 44.79C61.27 44.79 61.67 44.88 62.01 45.09V45.74V45.73Z" fill="#003875"/>
<path d="M65.3795 46.6801V44.8701H65.9395V49.3501H65.3795V47.2001H63.2495V49.3501H62.6895V44.8701H63.2495V46.6801H65.3795Z" fill="#003875"/>
<path d="M66.7598 44.6602L70.1198 48.1802V44.8701H70.6797V49.5402L67.3198 46.0102V49.3502H66.7598V44.6602Z" fill="#003875"/>
<path d="M75.3607 47.1095C75.3607 46.1195 74.6207 45.2995 73.5707 45.2995C72.5207 45.2995 71.7807 46.1295 71.7807 47.1095C71.7807 48.0895 72.6007 48.9195 73.5707 48.9195C74.5407 48.9195 75.3607 48.1295 75.3607 47.1095ZM75.9207 47.1095C75.9207 48.4395 74.8707 49.4495 73.5707 49.4495C72.2707 49.4495 71.2207 48.4495 71.2207 47.1095C71.2207 45.7695 72.2807 44.7695 73.5707 44.7695C74.8607 44.7695 75.9207 45.8195 75.9207 47.1095Z" fill="#003875"/>
<path d="M77.0795 48.8401H78.4395V49.3501H76.5195V44.8701H77.0795V48.8401Z" fill="#003875"/>
<path d="M82.6908 47.1095C82.6908 46.1195 81.9508 45.2995 80.9008 45.2995C79.8508 45.2995 79.1108 46.1295 79.1108 47.1095C79.1108 48.0895 79.9308 48.9195 80.9008 48.9195C81.8708 48.9195 82.6908 48.1295 82.6908 47.1095ZM83.2508 47.1095C83.2508 48.4395 82.2008 49.4495 80.9008 49.4495C79.6008 49.4495 78.5508 48.4495 78.5508 47.1095C78.5508 45.7695 79.6108 44.7695 80.9008 44.7695C82.1908 44.7695 83.2508 45.8195 83.2508 47.1095Z" fill="#003875"/>
<path d="M87.931 47.1003V47.2803C87.931 48.5103 87.061 49.4603 85.811 49.4603C84.561 49.4603 83.541 48.3803 83.541 47.1303C83.541 45.8803 84.571 44.7803 85.861 44.7803C86.561 44.7803 87.251 45.1003 87.691 45.6503L87.301 46.0203C86.981 45.5803 86.441 45.2903 85.891 45.2903C84.891 45.2903 84.101 46.1003 84.101 47.1103C84.101 48.0503 84.871 48.9403 85.841 48.9403C86.541 48.9403 87.281 48.3403 87.311 47.6103H86.151V47.1003H87.931V47.1003Z" fill="#003875"/>
<path d="M88.0801 44.8701H88.7201L89.8201 46.7901L90.9201 44.8701H91.5701L90.1001 47.4001V49.3501H89.5401V47.4001L88.0801 44.8701Z" fill="#003875"/>
<path d="M30.0197 49.4999L26.7997 44.1399C26.7997 44.1399 26.6997 44.0199 26.6997 43.8099V33.8799H25.4897V44.1299C25.5897 44.2299 27.6097 47.6799 27.6097 47.6799H22.5897C22.5897 47.6799 24.6097 44.2299 24.7097 44.1299V33.8799H23.4997V43.8099C23.4997 44.0099 23.3997 44.1399 23.3997 44.1399L20.1797 49.4999H30.0097H30.0197Z" fill="#A88236"/>
<path d="M29.0306 26.93C29.0306 26.93 29.6406 24.42 27.4706 22.78C27.4706 22.78 26.6106 22 24.9706 22C23.5006 22 22.6406 22.78 22.6406 22.78C20.6506 24.16 21.1706 26.93 21.1706 26.93H29.0306Z" fill="#A88236"/>
<path d="M21.4098 27.6204H28.7997C28.8597 27.4804 28.9098 27.3404 28.9498 27.1904H21.2598C21.2998 27.3404 21.3498 27.4804 21.4098 27.6204" fill="#A88236"/>
<path d="M28.6795 27.8799H21.5195C21.5895 28.0299 21.6795 28.1699 21.7695 28.3099H28.4295C28.5195 28.1699 28.5995 28.0299 28.6795 27.8799Z" fill="#A88236"/>
<path d="M22.261 28.9203H27.951C28.061 28.8103 28.1609 28.7003 28.2509 28.5703H21.9609C22.0509 28.6903 22.151 28.8103 22.261 28.9203Z" fill="#A88236"/>
<path d="M22.8693 29.4299H27.3293C27.4493 29.3499 27.5593 29.2599 27.6693 29.1699H22.5293C22.6393 29.2599 22.7493 29.3499 22.8693 29.4299" fill="#A88236"/>
<path d="M23.4904 29.7803C23.9804 30.0003 24.5305 30.1203 25.1005 30.1203C25.6705 30.1203 26.2204 30.0003 26.7104 29.7803H23.4805H23.4904Z" fill="#A88236"/>
<path d="M32.7702 30.3203H26.7202C26.7202 30.3203 26.1602 30.3203 25.7102 30.6303C25.3602 30.8703 25.1202 31.4203 25.1102 31.4403C25.1102 31.4403 24.8503 30.8603 24.5103 30.6303C24.0603 30.3203 23.5002 30.3203 23.5002 30.3203H17.4503L16.2402 32.2503H21.7802C21.7802 32.2503 21.9403 32.2503 22.0403 32.2703C22.2003 32.3003 22.4903 32.3803 22.7903 32.6003C23.2003 32.9003 23.3103 33.0503 23.4203 33.1503C23.4703 33.2003 23.6003 33.3703 23.6003 33.3703H26.6202C26.6202 33.3703 26.7502 33.2003 26.8002 33.1503C26.9002 33.0503 27.0202 32.9003 27.4302 32.6003C27.7302 32.3903 28.0202 32.3003 28.1802 32.2703C28.2802 32.2503 28.4402 32.2503 28.4402 32.2503H33.9803L32.7702 30.3203Z" fill="#003875"/>
<path d="M16.8496 32.8398V42.0398C16.8496 42.1398 16.8496 42.2298 16.8696 42.3098C16.9696 43.2798 17.2696 43.9998 17.8396 44.9398C18.7296 46.4198 20.3396 47.4598 20.3396 47.4598L21.0996 46.2498C21.0996 46.2498 20.0696 45.6998 19.2496 44.4398C19.0796 44.1898 18.9196 43.9498 18.8096 43.7198C18.6996 43.4998 18.6196 43.3198 18.5596 43.1298C18.5096 42.9898 18.4796 42.8698 18.4496 42.7498C18.4096 42.5798 18.3896 42.4498 18.3796 42.2898C18.3796 42.2298 18.3796 42.0098 18.3796 42.0098V32.8498H16.8796L16.8496 32.8398Z" fill="#003875"/>
<path d="M19.1504 32.8398V41.9998C19.1504 41.9998 19.1504 42.0398 19.1504 42.0798C19.1504 42.1298 19.1504 42.1898 19.1704 42.2398C19.1704 42.2698 19.1804 42.3098 19.1904 42.3398C19.2204 42.4798 19.2504 42.6098 19.3104 42.7998C19.4104 43.1098 19.6004 43.4798 19.8604 43.9098C20.5404 45.0098 21.5204 45.5098 21.5204 45.5098L22.2804 44.3298C22.2804 44.3298 22.0304 44.1898 21.7204 43.8998C21.5204 43.7098 21.2804 43.4498 21.0704 43.1398C20.8704 42.8298 20.7504 42.5198 20.6704 42.2798C20.6104 42.0798 20.6004 41.9198 20.6004 41.8198C20.6004 41.7398 20.6004 41.6898 20.6004 41.6898V32.8498H19.1504V32.8398Z" fill="#003875"/>
<path d="M33.3711 32.8398V42.0398C33.3711 42.1398 33.3711 42.2298 33.3511 42.3098C33.2511 43.2798 32.9511 43.9998 32.3811 44.9398C31.4911 46.4198 29.8811 47.4598 29.8811 47.4598L29.1211 46.2498C29.1211 46.2498 30.1511 45.6998 30.9711 44.4398C31.1411 44.1898 31.3011 43.9498 31.4111 43.7198C31.5211 43.4998 31.6011 43.3198 31.6611 43.1298C31.7111 42.9898 31.7411 42.8698 31.7711 42.7498C31.8111 42.5798 31.8311 42.4498 31.8411 42.2898C31.8411 42.2298 31.8411 42.0098 31.8411 42.0098V32.8498H33.3411L33.3711 32.8398Z" fill="#003875"/>
<path d="M31.0695 32.8398V41.9998C31.0695 41.9998 31.0695 42.0398 31.0695 42.0798C31.0695 42.1298 31.0694 42.1898 31.0494 42.2398C31.0494 42.2698 31.0394 42.3098 31.0294 42.3398C30.9994 42.4798 30.9695 42.6098 30.9095 42.7998C30.7995 43.1098 30.6194 43.4798 30.3594 43.9098C29.6794 45.0098 28.6995 45.5098 28.6995 45.5098L27.9395 44.3298C27.9395 44.3298 28.1895 44.1898 28.4995 43.8998C28.6995 43.7098 28.9394 43.4498 29.1494 43.1398C29.3494 42.8298 29.4694 42.5198 29.5494 42.2798C29.6094 42.0798 29.6194 41.9198 29.6194 41.8198C29.6194 41.7398 29.6194 41.6898 29.6194 41.6898V32.8498H31.0695V32.8398Z" fill="#003875"/>
<path d="M113.029 22.3496H112.369V49.9296H113.029V22.3496Z" fill="#003875"/>
</svg>
