<svg width="268" height="68" viewBox="0 0 268 68" fill="none" xmlns="http://www.w3.org/2000/svg">
<path d="M41.5707 27.5897H40.6707V21.2497H38.9707V20.4297H43.2707V21.2497H41.5707V27.5897Z" fill="#003875"/>
<path d="M48.3002 23.3197V20.4297H49.1902V27.5897H48.3002V24.1497H44.8802V27.5897H43.9902V20.4297H44.8802V23.3197H48.3002Z" fill="#003875"/>
<path d="M50.5801 20.4297H54.4301V21.2497H51.4701V23.2497H54.3401V24.0597H51.4701V26.7697H54.4301V27.5897H50.5801V20.4297Z" fill="#003875"/>
<path d="M62.7006 23.3197V20.4297H63.5906V27.5897H62.7006V24.1497H59.2906V27.5897H58.3906V20.4297H59.2906V23.3197H62.7006Z" fill="#003875"/>
<path d="M71.1007 24.0103C71.1007 22.4303 69.9207 21.1103 68.2407 21.1103C66.5607 21.1103 65.3807 22.4303 65.3807 24.0103C65.3807 25.5903 66.6907 26.9103 68.2407 26.9103C69.7907 26.9103 71.1007 25.6503 71.1007 24.0103ZM71.9907 24.0103C71.9907 26.1403 70.3107 27.7403 68.2307 27.7403C66.1507 27.7403 64.4707 26.1403 64.4707 24.0103C64.4707 21.8803 66.1707 20.2803 68.2307 20.2803C70.2907 20.2803 71.9907 21.9603 71.9907 24.0103Z" fill="#003875"/>
<path d="M72.8691 20.0898L78.2491 25.7198V20.4298H79.1391V27.8798L73.7591 22.2498V27.5898H72.8691V20.0898Z" fill="#003875"/>
<path d="M87.0393 23.9795V24.2595C87.0393 26.2295 85.6493 27.7295 83.6493 27.7295C81.6493 27.7295 80.0293 25.9995 80.0293 24.0195C80.0293 22.0395 81.6793 20.2695 83.7493 20.2695C84.8593 20.2695 85.9693 20.7695 86.6693 21.6595L86.0393 22.2595C85.5293 21.5595 84.6593 21.0895 83.7893 21.0895C82.1793 21.0895 80.9293 22.3895 80.9293 23.9995C80.9293 25.4995 82.1693 26.9195 83.7193 26.9195C84.8293 26.9195 86.0293 25.9595 86.0693 24.7895H84.2193V23.9695H87.0593L87.0393 23.9795Z" fill="#003875"/>
<path d="M94.7994 20.4297H95.9694L92.7494 23.6497L96.0294 27.5897H94.8194L92.1194 24.2497L91.7594 24.5997V27.5897H90.8594V20.4297H91.7594V23.5297L94.7994 20.4297Z" fill="#003875"/>
<path d="M102.78 24.0103C102.78 22.4303 101.6 21.1103 99.9202 21.1103C98.2402 21.1103 97.0602 22.4303 97.0602 24.0103C97.0602 25.5903 98.3702 26.9103 99.9202 26.9103C101.47 26.9103 102.78 25.6503 102.78 24.0103ZM103.67 24.0103C103.67 26.1403 101.99 27.7403 99.9202 27.7403C97.8502 27.7403 96.1602 26.1403 96.1602 24.0103C96.1602 21.8803 97.8602 20.2803 99.9202 20.2803C101.98 20.2803 103.67 21.9603 103.67 24.0103Z" fill="#003875"/>
<path d="M104.551 20.0898L109.931 25.7198V20.4298H110.821V27.8798L105.441 22.2498V27.5898H104.551V20.0898Z" fill="#003875"/>
<path d="M118.719 23.9795V24.2595C118.719 26.2295 117.329 27.7295 115.329 27.7295C113.329 27.7295 111.709 25.9995 111.709 24.0195C111.709 22.0395 113.359 20.2695 115.429 20.2695C116.539 20.2695 117.649 20.7695 118.349 21.6595L117.719 22.2595C117.209 21.5595 116.339 21.0895 115.469 21.0895C113.859 21.0895 112.609 22.3895 112.609 23.9995C112.609 25.4995 113.849 26.9195 115.399 26.9195C116.509 26.9195 117.709 25.9595 117.749 24.7895H115.899V23.9695H118.739L118.719 23.9795Z" fill="#003875"/>
<path d="M40.3998 31.8203V36.0403C40.3998 37.2103 40.7498 38.2903 42.1298 38.2903C43.5098 38.2903 43.8598 37.2103 43.8598 36.0403V31.8203H44.7498V36.3503C44.7498 37.9303 43.7698 39.1303 42.1298 39.1303C40.4898 39.1303 39.5098 37.9203 39.5098 36.3503V31.8203H40.3998Z" fill="#003875"/>
<path d="M46.0098 31.4805L51.3898 37.1005V31.8205H52.2798V39.2705L46.8998 33.6405V38.9705H46.0098V31.4805Z" fill="#003875"/>
<path d="M54.5091 31.8203H53.6191V38.9803H54.5091V31.8203Z" fill="#003875"/>
<path d="M58.3192 37.1103L60.4492 31.8203H61.4292L58.3192 39.3503L55.1992 31.8203H56.1792L58.3192 37.1103Z" fill="#003875"/>
<path d="M62.1289 31.8203H65.9789V32.6303H63.0189V34.6403H65.8989V35.4503H63.0189V38.1603H65.9789V38.9703H62.1289V31.8203Z" fill="#003875"/>
<path d="M68.0695 35.2103H68.3595C69.2695 35.2103 70.2595 35.0403 70.2595 33.9003C70.2595 32.7603 69.1894 32.6203 68.3094 32.6203H68.0695V35.2103V35.2103ZM71.6395 38.9803H70.5594L68.4494 35.9503H68.0795V38.9803H67.1895V31.8203H68.2694C68.9094 31.8203 69.5895 31.8303 70.1595 32.1503C70.7595 32.5003 71.0994 33.1803 71.0994 33.8603C71.0994 34.8903 70.4194 35.7403 69.3794 35.8603L71.6395 38.9703V38.9803Z" fill="#003875"/>
<path d="M75.6208 33.1704C75.3508 32.7204 75.0108 32.5004 74.4708 32.5004C73.9008 32.5004 73.2708 32.8904 73.2708 33.5204C73.2708 34.0804 73.8208 34.3704 74.2708 34.5504L74.7808 34.7504C75.8008 35.1504 76.5608 35.7104 76.5608 36.9104C76.5608 38.2104 75.5508 39.1404 74.2708 39.1404C73.1108 39.1404 72.2108 38.2904 72.0508 37.1404L72.9508 36.9504C72.9508 37.7404 73.5708 38.3104 74.3408 38.3104C75.1108 38.3104 75.6608 37.6604 75.6608 36.9204C75.6608 36.1804 75.0408 35.8204 74.4208 35.5604L73.9308 35.3504C73.1108 35.0004 72.3708 34.5304 72.3708 33.5404C72.3708 32.3804 73.4008 31.6904 74.4808 31.6904C75.2808 31.6904 75.9308 32.0804 76.3208 32.7704L75.6108 33.2004L75.6208 33.1704Z" fill="#003875"/>
<path d="M78.4994 31.8203H77.6094V38.9803H78.4994V31.8203Z" fill="#003875"/>
<path d="M81.8695 38.9703H80.9795V32.6303H79.2695V31.8203H83.5695V32.6303H81.8695V38.9703Z" fill="#003875"/>
<path d="M83.6289 31.8203H84.6589L86.4089 34.8703L88.1689 31.8203H89.1989L86.8589 35.8603V38.9703H85.9689V35.8603L83.6289 31.8203Z" fill="#003875"/>
<path d="M98.8702 35.3999C98.8702 33.8199 97.6902 32.4999 96.0102 32.4999C94.3302 32.4999 93.1502 33.8199 93.1502 35.3999C93.1502 36.9799 94.4602 38.2999 96.0102 38.2999C97.5602 38.2999 98.8702 37.0399 98.8702 35.3999ZM99.7602 35.3999C99.7602 37.5299 98.0802 39.1299 96.0002 39.1299C93.9202 39.1299 92.2402 37.5299 92.2402 35.3999C92.2402 33.2699 93.9402 31.6699 96.0002 31.6699C98.0602 31.6699 99.7602 33.3499 99.7602 35.3999Z" fill="#003875"/>
<path d="M101.609 32.6303V34.6503H104.099V35.4603H101.609V38.9703H100.709V31.8203H104.179V32.6303H101.609Z" fill="#003875"/>
<path d="M111.349 33.1704C111.079 32.7204 110.739 32.5004 110.199 32.5004C109.629 32.5004 108.999 32.8904 108.999 33.5204C108.999 34.0804 109.549 34.3704 109.999 34.5504L110.509 34.7504C111.529 35.1504 112.289 35.7104 112.289 36.9104C112.289 38.2104 111.279 39.1404 109.999 39.1404C108.839 39.1404 107.939 38.2904 107.779 37.1404L108.679 36.9504C108.669 37.7404 109.299 38.3104 110.069 38.3104C110.839 38.3104 111.389 37.6604 111.389 36.9204C111.389 36.1804 110.769 35.8204 110.149 35.5604L109.659 35.3504C108.839 35.0004 108.099 34.5304 108.099 33.5404C108.099 32.3804 109.129 31.6904 110.209 31.6904C111.009 31.6904 111.669 32.0804 112.059 32.7704L111.349 33.2004V33.1704Z" fill="#003875"/>
<path d="M118.59 33.1804C118.08 32.7204 117.37 32.4804 116.7 32.4804C115.09 32.4804 113.87 33.8204 113.87 35.4004C113.87 36.9804 115.09 38.3004 116.69 38.3004C117.39 38.3004 118.07 38.0304 118.6 37.5604V38.6104C118.05 38.9304 117.34 39.1104 116.72 39.1104C114.68 39.1104 112.98 37.4904 112.98 35.4204C112.98 33.3504 114.68 31.6504 116.79 31.6504C117.42 31.6504 118.05 31.8004 118.6 32.1404V33.1704L118.59 33.1804Z" fill="#003875"/>
<path d="M120.621 31.8203H119.721V38.9803H120.621V31.8203Z" fill="#003875"/>
<path d="M122.051 31.8203H125.901V32.6303H122.941V34.6403H125.811V35.4503H122.941V38.1603H125.901V38.9703H122.051V31.8203Z" fill="#003875"/>
<path d="M127.01 31.4805L132.39 37.1005V31.8205H133.29V39.2705L127.91 33.6405V38.9705H127.01V31.4805Z" fill="#003875"/>
<path d="M139.88 33.1804C139.37 32.7204 138.66 32.4804 137.99 32.4804C136.38 32.4804 135.16 33.8204 135.16 35.4004C135.16 36.9804 136.38 38.3004 137.98 38.3004C138.68 38.3004 139.36 38.0304 139.89 37.5604V38.6104C139.34 38.9304 138.63 39.1104 138.01 39.1104C135.97 39.1104 134.27 37.4904 134.27 35.4204C134.27 33.3504 135.97 31.6504 138.08 31.6504C138.71 31.6504 139.34 31.8004 139.89 32.1404V33.1704L139.88 33.1804Z" fill="#003875"/>
<path d="M141.039 31.8203H144.889V32.6303H141.929V34.6403H144.799V35.4503H141.929V38.1603H144.889V38.9703H141.039V31.8203Z" fill="#003875"/>
<path d="M42.379 44.8604L41.109 47.7604H43.659L42.379 44.8604V44.8604ZM40.739 48.5704L39.919 50.3604H38.959L42.379 42.9004L45.799 50.3604H44.839L44.019 48.5704H40.729H40.739Z" fill="#003875"/>
<path d="M46.4102 42.8604L51.7902 48.4904V43.2004H52.6902V50.6604L47.3102 45.0304V50.3604H46.4102V42.8604Z" fill="#003875"/>
<path d="M54.8805 49.5402H55.1905C57.0205 49.5402 58.5905 48.8602 58.5905 46.7802C58.5905 44.7002 57.0105 44.0202 55.1905 44.0202H54.8805V49.5402ZM53.9905 43.2002H55.4705C57.6705 43.2002 59.4905 44.3602 59.4905 46.7402C59.4905 49.1202 57.7005 50.3602 55.4405 50.3602H53.9805V43.2002H53.9905Z" fill="#003875"/>
<path d="M65.2504 50.3602H64.3604V44.0202H62.6504V43.2002H66.9504V44.0202H65.2504V50.3602Z" fill="#003875"/>
<path d="M67.75 43.2002H71.6V44.0202H68.64V46.0202H71.51V46.8402H68.64V49.5402H71.6V50.3602H67.75V43.2002Z" fill="#003875"/>
<path d="M78.0204 44.57C77.5104 44.11 76.8004 43.87 76.1304 43.87C74.5204 43.87 73.3004 45.21 73.3004 46.79C73.3004 48.37 74.5204 49.69 76.1104 49.69C76.8104 49.69 77.4904 49.42 78.0204 48.95V50C77.4704 50.32 76.7704 50.5 76.1404 50.5C74.1004 50.5 72.4004 48.88 72.4004 46.81C72.4004 44.74 74.1004 43.04 76.2104 43.04C76.8404 43.04 77.4704 43.19 78.0204 43.53V44.56V44.57Z" fill="#003875"/>
<path d="M83.4096 46.0902V43.2002H84.2996V50.3602H83.4096V46.9202H79.9996V50.3602H79.0996V43.2002H79.9996V46.0902H83.4096Z" fill="#003875"/>
<path d="M85.6094 42.8604L90.9894 48.4904V43.2004H91.8794V50.6604L86.4994 45.0304V50.3604H85.6094V42.8604Z" fill="#003875"/>
<path d="M99.3605 46.7798C99.3605 45.1998 98.1805 43.8798 96.5005 43.8798C94.8205 43.8798 93.6405 45.1998 93.6405 46.7798C93.6405 48.3598 94.9505 49.6798 96.5005 49.6798C98.0505 49.6798 99.3605 48.4198 99.3605 46.7798ZM100.25 46.7798C100.25 48.9098 98.5705 50.5098 96.4905 50.5098C94.4105 50.5098 92.7305 48.9098 92.7305 46.7798C92.7305 44.6498 94.4305 43.0498 96.4905 43.0498C98.5505 43.0498 100.25 44.7298 100.25 46.7798Z" fill="#003875"/>
<path d="M102.111 49.5402H104.291V50.3602H101.221V43.2002H102.111V49.5402Z" fill="#003875"/>
<path d="M111.089 46.7798C111.089 45.1998 109.909 43.8798 108.229 43.8798C106.549 43.8798 105.369 45.1998 105.369 46.7798C105.369 48.3598 106.679 49.6798 108.229 49.6798C109.779 49.6798 111.089 48.4198 111.089 46.7798ZM111.979 46.7798C111.979 48.9098 110.299 50.5098 108.219 50.5098C106.139 50.5098 104.459 48.9098 104.459 46.7798C104.459 44.6498 106.159 43.0498 108.219 43.0498C110.279 43.0498 111.979 44.7298 111.979 46.7798Z" fill="#003875"/>
<path d="M119.469 46.7498V47.0298C119.469 48.9998 118.079 50.5098 116.079 50.5098C114.079 50.5098 112.459 48.7798 112.459 46.7998C112.459 44.8198 114.109 43.0498 116.179 43.0498C117.289 43.0498 118.399 43.5498 119.099 44.4398L118.469 45.0398C117.959 44.3398 117.089 43.8698 116.219 43.8698C114.609 43.8698 113.359 45.1698 113.359 46.7698C113.359 48.2698 114.599 49.6898 116.149 49.6898C117.259 49.6898 118.459 48.7298 118.499 47.5598H116.649V46.7398H119.489L119.469 46.7498Z" fill="#003875"/>
<path d="M119.709 43.2002H120.739L122.499 46.2602L124.259 43.2002H125.279L122.939 47.2502V50.3602H122.049V47.2502L119.709 43.2002Z" fill="#003875"/>
<path d="M30.3101 50.5302L26.6401 44.4302C26.6401 44.4302 26.5201 44.2902 26.5201 44.0602V32.7402H25.1401V44.4202C25.2601 44.5402 27.5601 48.4702 27.5601 48.4702H21.8301C21.8301 48.4702 24.1401 44.5402 24.2501 44.4202V32.7402H22.8701V44.0602C22.8701 44.2902 22.7501 44.4302 22.7501 44.4302L19.0801 50.5302H30.3001H30.3101Z" fill="#A88236"/>
<path d="M29.1704 24.82C29.1704 24.82 29.8604 21.97 27.4004 20.1C27.4004 20.1 26.4104 19.21 24.5404 19.21C22.8704 19.21 21.8804 20.1 21.8804 20.1C19.6104 21.67 20.2104 24.82 20.2104 24.82H29.1804H29.1704Z" fill="#A88236"/>
<path d="M20.4805 25.6101H28.9105C28.9805 25.4501 29.0305 25.2901 29.0805 25.1201H20.3105C20.3605 25.2901 20.4105 25.4501 20.4805 25.6101" fill="#A88236"/>
<path d="M28.7791 25.9102H20.6191C20.6991 26.0802 20.7991 26.2402 20.8991 26.4002H28.4991C28.5991 26.2402 28.6991 26.0802 28.7791 25.9102Z" fill="#A88236"/>
<path d="M21.4496 27.0902H27.9396C28.0596 26.9702 28.1796 26.8302 28.2796 26.7002H21.0996C21.2096 26.8402 21.3196 26.9702 21.4396 27.0902" fill="#A88236"/>
<path d="M22.1495 27.6796H27.2395C27.3695 27.5896 27.4995 27.4896 27.6295 27.3896H21.7695C21.8895 27.4896 22.0195 27.5896 22.1595 27.6796" fill="#A88236"/>
<path d="M22.8594 28.0703C23.4194 28.3203 24.0494 28.4603 24.6994 28.4603C25.3494 28.4603 25.9794 28.3203 26.5394 28.0703H22.8594Z" fill="#A88236"/>
<path d="M33.4401 28.6797H26.5401C26.5401 28.6797 25.9001 28.6797 25.3901 29.0297C24.9901 29.2997 24.7101 29.9297 24.7001 29.9597C24.7001 29.9597 24.4101 29.2997 24.0101 29.0297C23.5001 28.6797 22.8601 28.6797 22.8601 28.6797H15.9601L14.5801 30.8797H20.9001C20.9001 30.8797 21.0901 30.8797 21.2001 30.8997C21.3901 30.9297 21.7101 31.0297 22.0501 31.2797C22.5201 31.6197 22.6501 31.7897 22.7601 31.8997C22.8201 31.9597 22.9701 32.1597 22.9701 32.1597H26.4201C26.4201 32.1597 26.5701 31.9597 26.6301 31.8997C26.7401 31.7797 26.8801 31.6097 27.3401 31.2797C27.6801 31.0397 28.0101 30.9397 28.1901 30.8997C28.3001 30.8797 28.4901 30.8797 28.4901 30.8797H34.8101L33.4301 28.6797H33.4401Z" fill="#003875"/>
<path d="M15.2795 31.5596V42.0296C15.2795 42.1496 15.2795 42.2496 15.2995 42.3396C15.4095 43.4496 15.7595 44.2596 16.3995 45.3396C17.4095 47.0296 19.2495 48.2096 19.2495 48.2096L20.1195 46.8296C20.1195 46.8296 18.9395 46.1996 17.9995 44.7696C17.8095 44.4796 17.6195 44.2096 17.4895 43.9496C17.3695 43.6996 17.2795 43.4896 17.1995 43.2696C17.1495 43.1096 17.0995 42.9696 17.0695 42.8396C17.0195 42.6496 16.9995 42.4996 16.9895 42.3196C16.9895 42.2596 16.9795 41.9996 16.9795 41.9996V31.5596H15.2695H15.2795Z" fill="#003875"/>
<path d="M17.9102 31.5596V41.9996C17.9102 41.9996 17.9102 42.0396 17.9102 42.0896C17.9102 42.1396 17.9102 42.2196 17.9302 42.2796C17.9302 42.3196 17.9402 42.3596 17.9502 42.3896C17.9802 42.5496 18.0202 42.6996 18.0902 42.9096C18.2102 43.2596 18.4202 43.6896 18.7202 44.1696C19.4902 45.4196 20.6102 45.9896 20.6102 45.9896L21.4702 44.6496C21.4702 44.6496 21.1802 44.4896 20.8402 44.1596C20.6102 43.9396 20.3302 43.6496 20.1002 43.2996C19.8702 42.9496 19.7302 42.5896 19.6502 42.3196C19.5802 42.0996 19.5702 41.9096 19.5702 41.7996C19.5702 41.6996 19.5702 41.6496 19.5702 41.6496V31.5796H17.9102V31.5596Z" fill="#003875"/>
<path d="M34.1291 31.5596V42.0296C34.1291 42.1496 34.1291 42.2496 34.1091 42.3396C33.9991 43.4496 33.6491 44.2596 33.0091 45.3396C31.9991 47.0296 30.1591 48.2096 30.1591 48.2096L29.2891 46.8296C29.2891 46.8296 30.4691 46.1996 31.4091 44.7696C31.5991 44.4796 31.7891 44.2096 31.9191 43.9496C32.0391 43.6996 32.1291 43.4896 32.2091 43.2696C32.2591 43.1096 32.3091 42.9696 32.3391 42.8396C32.3891 42.6496 32.4091 42.4996 32.4191 42.3196C32.4191 42.2596 32.4291 41.9996 32.4291 41.9996V31.5596H34.1391H34.1291Z" fill="#003875"/>
<path d="M31.4995 31.5596V41.9996C31.4995 41.9996 31.4995 42.0396 31.4995 42.0896C31.4995 42.1396 31.4995 42.2196 31.4795 42.2796C31.4795 42.3196 31.4695 42.3596 31.4595 42.3896C31.4295 42.5496 31.3895 42.6996 31.3195 42.9096C31.1995 43.2596 30.9895 43.6896 30.6895 44.1696C29.9195 45.4196 28.7995 45.9896 28.7995 45.9896L27.9395 44.6496C27.9395 44.6496 28.2295 44.4896 28.5695 44.1596C28.7995 43.9396 29.0795 43.6496 29.3095 43.2996C29.5395 42.9496 29.6795 42.5896 29.7595 42.3196C29.8295 42.0996 29.8395 41.9096 29.8395 41.7996C29.8395 41.6996 29.8395 41.6496 29.8395 41.6496V31.5796H31.4995V31.5596Z" fill="#003875"/>
<path d="M154.67 20.1699H153.51V50.9199H154.67V20.1699Z" fill="#1C3663"/>
<path d="M164.621 35.3597H165.021C165.991 35.3597 166.481 34.9897 166.481 34.2397C166.481 33.4897 165.981 33.1597 164.981 33.1597H164.631V35.3597H164.621ZM164.621 36.3397V39.1797H163.561V32.1797H164.761C165.351 32.1797 165.791 32.2197 166.091 32.2997C166.391 32.3797 166.661 32.5397 166.891 32.7597C167.291 33.1497 167.491 33.6497 167.491 34.2497C167.491 34.8897 167.281 35.3997 166.851 35.7697C166.421 36.1397 165.841 36.3297 165.111 36.3297H164.621V36.3397Z" fill="#003366"/>
<path d="M169.64 32.1904V36.4104C169.64 37.0104 169.74 37.4504 169.93 37.7304C170.22 38.1304 170.64 38.3304 171.17 38.3304C171.7 38.3304 172.12 38.1304 172.41 37.7304C172.61 37.4604 172.71 37.0204 172.71 36.4104V32.1904H173.77V36.7004C173.77 37.4404 173.54 38.0404 173.08 38.5204C172.56 39.0504 171.93 39.3204 171.17 39.3204C170.41 39.3204 169.78 39.0504 169.27 38.5204C168.81 38.0404 168.58 37.4404 168.58 36.7004V32.1904H169.64V32.1904Z" fill="#003366"/>
<path d="M176.509 38.1897H177.159C177.639 38.1897 177.989 38.0997 178.209 37.9097C178.449 37.7097 178.569 37.4497 178.569 37.1397C178.569 36.8297 178.459 36.5797 178.229 36.3797C178.009 36.1797 177.609 36.0797 177.049 36.0797H176.509V38.1997V38.1897ZM176.509 35.1897H176.839C177.229 35.1897 177.519 35.0997 177.699 34.9297C177.879 34.7597 177.979 34.4997 177.979 34.1597C177.979 33.8197 177.889 33.5797 177.699 33.4097C177.509 33.2397 177.239 33.1497 176.879 33.1497H176.509V35.1797V35.1897ZM175.449 39.1797V32.1797H176.499C176.969 32.1797 177.339 32.2197 177.619 32.2897C177.899 32.3597 178.139 32.4797 178.329 32.6597C178.529 32.8397 178.679 33.0597 178.799 33.3297C178.919 33.5997 178.979 33.8697 178.979 34.1497C178.979 34.6497 178.789 35.0797 178.399 35.4197C178.769 35.5497 179.069 35.7697 179.279 36.0897C179.499 36.3997 179.609 36.7697 179.609 37.1897C179.609 37.7397 179.419 38.1997 179.029 38.5797C178.799 38.8097 178.539 38.9697 178.249 39.0697C177.929 39.1597 177.529 39.1997 177.059 39.1997H175.459L175.449 39.1797Z" fill="#003366"/>
<path d="M181.999 32.1904V38.1904H184.069V39.1804H180.949V32.1904H181.999Z" fill="#003366"/>
<path d="M186.13 32.1904H185.07V39.1904H186.13V32.1904Z" fill="#003366"/>
<path d="M192.989 32.5598V33.8098C192.379 33.2998 191.749 33.0398 191.089 33.0398C190.369 33.0398 189.759 33.2998 189.269 33.8098C188.769 34.3198 188.529 34.9498 188.529 35.6998C188.529 36.4498 188.779 37.0498 189.269 37.5598C189.769 38.0698 190.369 38.3198 191.089 38.3198C191.459 38.3198 191.779 38.2598 192.039 38.1398C192.189 38.0798 192.339 37.9998 192.489 37.8998C192.649 37.7998 192.809 37.6698 192.979 37.5298V38.7998C192.379 39.1398 191.739 39.3098 191.069 39.3098C190.069 39.3098 189.209 38.9598 188.499 38.2598C187.789 37.5598 187.439 36.7098 187.439 35.7098C187.439 34.8198 187.729 34.0198 188.329 33.3298C189.059 32.4798 189.999 32.0498 191.149 32.0498C191.779 32.0498 192.389 32.2198 192.969 32.5598" fill="#003366"/>
<path d="M200.881 36.4902L199.841 34.1102L198.751 36.4902H200.881ZM201.311 37.4802H198.311L197.531 39.1802H196.391L199.861 31.7402L203.211 39.1802H202.051L201.311 37.4802Z" fill="#003366"/>
<path d="M207.58 33.1804H205.14V34.8604H207.5V35.8504H205.14V39.1804H204.08V32.1904H207.58V33.1804Z" fill="#003366"/>
<path d="M212.311 33.1804H209.871V34.8604H212.221V35.8504H209.871V39.1804H208.811V32.1904H212.311V33.1804Z" fill="#003366"/>
<path d="M216.76 36.4902L215.72 34.1102L214.63 36.4902H216.76ZM217.19 37.4802H214.19L213.41 39.1802H212.27L215.74 31.7402L219.09 39.1802H217.93L217.19 37.4802Z" fill="#003366"/>
<path d="M221.019 32.1904H219.959V39.1904H221.019V32.1904Z" fill="#003366"/>
<path d="M223.759 35.3997H224.099C225.099 35.3997 225.599 35.0197 225.599 34.2497C225.599 33.5297 225.109 33.1797 224.139 33.1797H223.759V35.3997ZM225.079 36.1997L227.249 39.1797H225.959L223.959 36.3197H223.769V39.1797H222.709V32.1797H223.949C224.879 32.1797 225.549 32.3497 225.959 32.6997C226.409 33.0897 226.639 33.5997 226.639 34.2297C226.639 34.7297 226.499 35.1497 226.209 35.5097C225.919 35.8697 225.549 36.0897 225.079 36.1897" fill="#003366"/>
<path d="M232.259 33.2298L231.399 33.7398C231.239 33.4598 231.089 33.2798 230.939 33.1998C230.789 33.0998 230.589 33.0498 230.359 33.0498C230.069 33.0498 229.819 33.1298 229.629 33.2998C229.439 33.4598 229.339 33.6698 229.339 33.9198C229.339 34.2598 229.589 34.5398 230.099 34.7398L230.799 35.0198C231.369 35.2498 231.789 35.5298 232.049 35.8598C232.309 36.1898 232.439 36.5998 232.439 37.0798C232.439 37.7198 232.229 38.2598 231.799 38.6698C231.369 39.0898 230.829 39.3098 230.189 39.3098C229.579 39.3098 229.079 39.1298 228.679 38.7698C228.289 38.4098 228.049 37.8998 227.949 37.2498L229.019 37.0198C229.069 37.4298 229.149 37.7098 229.279 37.8698C229.499 38.1698 229.819 38.3198 230.229 38.3198C230.559 38.3198 230.829 38.2098 231.049 37.9898C231.269 37.7698 231.379 37.4898 231.379 37.1498C231.379 37.0198 231.359 36.8898 231.319 36.7798C231.279 36.6698 231.219 36.5598 231.139 36.4698C231.059 36.3798 230.959 36.2898 230.829 36.1998C230.699 36.1198 230.549 36.0398 230.379 35.9598L229.699 35.6798C228.739 35.2798 228.259 34.6798 228.259 33.8998C228.259 33.3698 228.459 32.9298 228.859 32.5798C229.259 32.2198 229.759 32.0498 230.359 32.0498C231.169 32.0498 231.799 32.4398 232.249 33.2298" fill="#003366"/>
<path d="M237.3 35.6696C237.3 36.4396 237.56 37.0796 238.08 37.5796C238.6 38.0796 239.2 38.3296 239.87 38.3296C240.61 38.3296 241.23 38.0796 241.73 37.5696C242.24 37.0596 242.49 36.4296 242.49 35.6896C242.49 34.9496 242.24 34.3196 241.74 33.8096C241.24 33.2996 240.63 33.0496 239.9 33.0496C239.17 33.0496 238.55 33.2996 238.05 33.8096C237.55 34.3096 237.3 34.9296 237.3 35.6696M236.23 35.6596C236.23 34.6696 236.59 33.8296 237.31 33.1196C238.03 32.4096 238.9 32.0596 239.91 32.0596C240.92 32.0596 241.76 32.4196 242.48 33.1296C243.2 33.8396 243.56 34.6996 243.56 35.6996C243.56 36.6996 243.2 37.5596 242.48 38.2596C241.76 38.9596 240.88 39.3196 239.86 39.3196C238.96 39.3196 238.14 39.0096 237.42 38.3796C236.63 37.6896 236.23 36.7796 236.23 35.6596" fill="#003366"/>
<path d="M248.4 33.1804H245.95V34.8604H248.31V35.8504H245.95V39.1804H244.9V32.1904H248.4V33.1804Z" fill="#003366"/>
<path d="M253.119 33.1804H250.679V34.8604H253.039V35.8504H250.679V39.1804H249.619V32.1904H253.119V33.1804Z" fill="#003366"/>
<path d="M255.41 32.1904H254.35V39.1904H255.41V32.1904Z" fill="#003366"/>
<path d="M262.27 32.5598V33.8098C261.66 33.2998 261.03 33.0398 260.37 33.0398C259.65 33.0398 259.04 33.2998 258.55 33.8098C258.05 34.3198 257.81 34.9498 257.81 35.6998C257.81 36.4498 258.06 37.0498 258.55 37.5598C259.05 38.0698 259.65 38.3198 260.38 38.3198C260.75 38.3198 261.07 38.2598 261.33 38.1398C261.48 38.0798 261.63 37.9998 261.78 37.8998C261.94 37.7998 262.1 37.6698 262.27 37.5298V38.7998C261.66 39.1398 261.03 39.3098 260.36 39.3098C259.36 39.3098 258.5 38.9598 257.8 38.2598C257.09 37.5598 256.74 36.7098 256.74 35.7098C256.74 34.8198 257.04 34.0198 257.63 33.3298C258.36 32.4798 259.3 32.0498 260.45 32.0498C261.08 32.0498 261.69 32.2198 262.28 32.5598" fill="#003366"/>
<path d="M263.6 32.1904V39.1804H267.47V38.1904H264.66V35.8504H267.39V34.8604H264.66V33.1804H267.47V32.1904H263.6Z" fill="#003366"/>
<path d="M14.5898 50.9197H8.33984V19.2197H14.5898V19.7597H8.87984V50.3697H14.5898V50.9197Z" fill="#E60012"/>
<path d="M144.3 59.8904H14.5898V53.6504H15.1298V59.3504H143.75V53.6504H144.3V59.8904Z" fill="#E60012"/>
<path d="M267.47 59.8904H163.83V53.6504H164.37V59.3504H266.93V53.6504H267.47V59.8904Z" fill="#E60012"/>
<path d="M163.821 17.4798H163.281V11.5998H154.331V17.4798H153.791V11.5998H144.841V17.4798H144.301V11.0498H163.821V17.4798Z" fill="#E60012"/>
<path d="M140.509 4.07973V4.48973H138.129V4.07973H139.069V0.829726L138.189 1.38973V0.919726L139.279 0.219727H139.559V4.07973H140.499H140.509Z" fill="#231815"/>
<path d="M140.818 4.82L142.358 0H142.808L141.258 4.82H140.818V4.82Z" fill="#231815"/>
<path d="M145.629 2.66992C145.759 2.84992 145.829 3.06992 145.829 3.33992C145.829 3.70992 145.699 4.00992 145.449 4.21992C145.199 4.42992 144.859 4.53992 144.419 4.53992C144.139 4.53992 143.879 4.48992 143.629 4.39992C143.379 4.30992 143.159 4.17992 142.979 4.00992L143.169 3.62992C143.569 3.95992 143.979 4.11992 144.409 4.11992C144.709 4.11992 144.939 4.04992 145.099 3.91992C145.259 3.78992 145.339 3.57992 145.339 3.31992C145.339 2.79992 145.009 2.52992 144.359 2.52992H143.869V2.11992H144.269C144.589 2.11992 144.829 2.04992 144.999 1.90992C145.169 1.76992 145.249 1.56992 145.249 1.30992C145.249 1.07992 145.179 0.899922 145.039 0.779922C144.899 0.659922 144.709 0.589922 144.459 0.589922C144.049 0.589922 143.649 0.749922 143.249 1.07992L143.059 0.699923C143.229 0.539923 143.439 0.409922 143.689 0.309922C143.939 0.209922 144.199 0.169922 144.469 0.169922C144.849 0.169922 145.159 0.269922 145.389 0.459922C145.619 0.659922 145.729 0.919922 145.729 1.24992C145.729 1.48992 145.669 1.70992 145.549 1.88992C145.429 2.06992 145.259 2.20992 145.049 2.28992C145.299 2.35992 145.489 2.48992 145.629 2.65992V2.66992Z" fill="#231815"/>
<path d="M151.699 4.48973H151.119L149.789 2.67973L148.469 4.48973H147.879L149.509 2.29973L147.959 0.219727H148.549L149.799 1.93973L151.049 0.219727H151.629L150.079 2.30973L151.709 4.48973H151.699Z" fill="#231815"/>
<path d="M4.15984 35.8403H3.57984L2.24984 34.0303L0.929844 35.8403H0.339844L1.96984 33.6503L0.419844 31.5703H1.00984L2.25984 33.2903L3.50984 31.5703H4.08984L2.53984 33.6603L4.16984 35.8403H4.15984Z" fill="#231815"/>
<path d="M79.6798 65.3095V67.0395H79.1898V65.3095L77.5098 62.7695H78.0898L79.4498 64.8695L80.8098 62.7695H81.3698L79.6898 65.3095H79.6798Z" fill="#231815"/>
<path d="M198.589 62.7695V67.0395H198.129V63.8695L196.739 67.0395H196.389L194.989 63.8895V67.0395H194.539V62.7695H194.949L196.569 66.4495L198.169 62.7695H198.579H198.589Z" fill="#231815"/>
<path d="M202.448 65.9395H200.218L199.748 67.0395H199.238L201.118 62.7695H201.548L203.428 67.0395H202.928L202.458 65.9395H202.448ZM202.278 65.5295L201.338 63.3295L200.398 65.5295H202.278Z" fill="#231815"/>
<path d="M207.308 67.0395H206.728L205.398 65.2295L204.078 67.0395H203.488L205.118 64.8495L203.568 62.7695H204.158L205.408 64.4895L206.658 62.7695H207.238L205.688 64.8595L207.318 67.0395H207.308Z" fill="#231815"/>
<path d="M207.879 62.7695H208.369V67.0395H207.879V62.7695Z" fill="#231815"/>
<path d="M213.47 62.7695V67.0395H213.01V63.8695L211.62 67.0395H211.27L209.87 63.8895V67.0395H209.42V62.7695H209.83L211.45 66.4495L213.05 62.7695H213.46H213.47Z" fill="#231815"/>
<path d="M214.918 66.6498C214.628 66.3598 214.488 65.9298 214.488 65.3598V62.7598H214.978V65.3998C214.978 65.8198 215.078 66.1298 215.288 66.3398C215.488 66.5498 215.798 66.6598 216.198 66.6598C216.598 66.6598 216.898 66.5498 217.098 66.3398C217.298 66.1298 217.398 65.8098 217.398 65.3998V62.7598H217.888V65.3598C217.888 65.9198 217.748 66.3498 217.458 66.6398C217.168 66.9298 216.748 67.0798 216.198 67.0798C215.648 67.0798 215.218 66.9398 214.928 66.6498H214.918Z" fill="#231815"/>
<path d="M222.948 62.7695V67.0395H222.488V63.8695L221.098 67.0395H220.748L219.348 63.8895V67.0395H218.898V62.7695H219.308L220.928 66.4495L222.528 62.7695H222.938H222.948Z" fill="#231815"/>
<path d="M228.189 66.6198V67.0298H225.809V66.6198H226.749V63.3698L225.869 63.9298V63.4598L226.959 62.7598H227.239V66.6198H228.179H228.189Z" fill="#231815"/>
<path d="M229.64 66.4199V67.0399H229.02V66.4199H229.64Z" fill="#231815"/>
<path d="M232.709 64.5295C232.909 64.6395 233.069 64.7995 233.169 65.0095C233.279 65.2095 233.329 65.4495 233.329 65.7195C233.329 65.9895 233.269 66.2295 233.149 66.4295C233.029 66.6295 232.859 66.7995 232.649 66.9095C232.439 67.0195 232.179 67.0795 231.889 67.0795C231.629 67.0795 231.369 67.0295 231.119 66.9395C230.869 66.8495 230.659 66.7195 230.479 66.5495L230.669 66.1695C231.069 66.4995 231.469 66.6595 231.889 66.6595C232.189 66.6595 232.419 66.5795 232.589 66.4095C232.759 66.2395 232.849 66.0095 232.849 65.7195C232.849 65.4295 232.769 65.2095 232.599 65.0295C232.429 64.8595 232.209 64.7695 231.929 64.7695C231.519 64.7695 231.199 64.9395 230.949 65.2695H230.609V62.7695H233.169V63.1795H231.099V64.6995C231.339 64.4695 231.639 64.3595 232.009 64.3595C232.279 64.3595 232.509 64.4195 232.719 64.5295H232.709Z" fill="#231815"/>
<path d="M235.69 65.3095V67.0395H235.2V65.3095L233.52 62.7695H234.1L235.46 64.8695L236.82 62.7695H237.38L235.7 65.3095H235.69Z" fill="#231815"/>
<path d="M160.54 4.18031V4.59031H158.16V4.18031H159.1V0.930312L158.22 1.49031V1.02031L159.31 0.320312H159.59V4.18031H160.53H160.54Z" fill="#231815"/>
<path d="M160.85 4.93035L162.39 0.110352H162.84L161.29 4.93035H160.85V4.93035Z" fill="#231815"/>
<path d="M165.66 2.77051C165.79 2.95051 165.86 3.17051 165.86 3.44051C165.86 3.81051 165.73 4.11051 165.48 4.32051C165.23 4.53051 164.89 4.64051 164.45 4.64051C164.17 4.64051 163.91 4.59051 163.66 4.50051C163.41 4.41051 163.19 4.28051 163.02 4.11051L163.21 3.73051C163.61 4.06051 164.02 4.22051 164.45 4.22051C164.75 4.22051 164.99 4.15051 165.14 4.02051C165.29 3.89051 165.38 3.68051 165.38 3.42051C165.38 2.90051 165.05 2.63051 164.4 2.63051H163.91V2.22051H164.31C164.63 2.22051 164.87 2.15051 165.04 2.01051C165.21 1.87051 165.29 1.67051 165.29 1.41051C165.29 1.18051 165.22 1.00051 165.08 0.880507C164.94 0.760507 164.75 0.690508 164.5 0.690508C164.09 0.690508 163.69 0.850508 163.29 1.18051L163.1 0.800508C163.27 0.640508 163.48 0.510508 163.73 0.410508C163.98 0.310508 164.24 0.270508 164.51 0.270508C164.89 0.270508 165.2 0.370508 165.43 0.560508C165.66 0.760508 165.77 1.02051 165.77 1.35051C165.77 1.59051 165.71 1.81051 165.59 1.99051C165.47 2.17051 165.3 2.31051 165.09 2.39051C165.34 2.46051 165.53 2.59051 165.67 2.76051L165.66 2.77051Z" fill="#231815"/>
<path d="M171.73 4.60008H171.15L169.82 2.79008L168.5 4.60008H167.91L169.54 2.41008L167.99 0.330078H168.58L169.83 2.05008L171.08 0.330078H171.66L170.11 2.42008L171.74 4.60008H171.73Z" fill="#231815"/>
</svg>
