<svg width="216" height="55" viewBox="0 0 216 55" fill="none" xmlns="http://www.w3.org/2000/svg">
<path d="M15.0201 51.66H7.58008V25.25H15.0201V25.89H8.22006V51.01H15.0201V51.66Z" fill="#E60012"/>
<path d="M159.43 20.96H158.79V13.94H148.12V20.96H147.47V13.94H136.8V20.96H136.15V13.29H159.43V20.96Z" fill="#E60012"/>
<path d="M126.271 4.06973V4.47973H123.891V4.06973H124.831V0.829727L123.951 1.38973V0.919727L125.041 0.219727H125.321V4.07973H126.261L126.271 4.06973Z" fill="#231815"/>
<path d="M126.58 4.82L128.12 0H128.57L127.02 4.82H126.58Z" fill="#231815"/>
<path d="M131.39 2.66016C131.52 2.84016 131.59 3.06016 131.59 3.33016C131.59 3.70016 131.46 4.00016 131.21 4.21016C130.96 4.42016 130.62 4.53016 130.18 4.53016C129.9 4.53016 129.64 4.48016 129.39 4.39016C129.14 4.30016 128.92 4.17016 128.75 4.00016L128.94 3.62016C129.34 3.95016 129.75 4.11016 130.18 4.11016C130.48 4.11016 130.72 4.04016 130.87 3.91016C131.02 3.78016 131.11 3.57016 131.11 3.31016C131.11 2.79016 130.78 2.52016 130.13 2.52016H129.64V2.11016H130.04C130.36 2.11016 130.6 2.04016 130.77 1.90016C130.94 1.76016 131.02 1.56016 131.02 1.30016C131.02 1.07016 130.95 0.890156 130.81 0.770156C130.67 0.650156 130.48 0.580156 130.23 0.580156C129.82 0.580156 129.42 0.740156 129.02 1.07016L128.83 0.690156C129 0.530156 129.21 0.400156 129.46 0.300156C129.71 0.200156 129.97 0.160156 130.24 0.160156C130.62 0.160156 130.93 0.260156 131.16 0.450156C131.39 0.650156 131.51 0.910156 131.51 1.24016C131.51 1.48016 131.45 1.70016 131.33 1.88016C131.21 2.06016 131.04 2.20016 130.83 2.28016C131.08 2.35016 131.27 2.48016 131.41 2.65016L131.39 2.66016Z" fill="#231815"/>
<path d="M137.461 4.48973H136.881L135.551 2.67973L134.231 4.48973H133.641L135.271 2.29973L133.721 0.219727H134.311L135.561 1.93973L136.811 0.219727H137.391L135.841 2.30973L137.471 4.48973H137.461Z" fill="#231815"/>
<path d="M154.101 4.18984V4.59984H151.721V4.18984H152.661V0.949844L151.781 1.50984V1.03984L152.871 0.339844H153.151V4.19984H154.091L154.101 4.18984Z" fill="#231815"/>
<path d="M154.41 4.94012L155.95 0.120117H156.4L154.85 4.94012H154.41Z" fill="#231815"/>
<path d="M159.22 2.78027C159.35 2.96027 159.42 3.18027 159.42 3.45027C159.42 3.82027 159.29 4.12027 159.04 4.33027C158.79 4.54027 158.45 4.65027 158.01 4.65027C157.73 4.65027 157.47 4.60027 157.22 4.51027C156.97 4.42027 156.75 4.29027 156.57 4.12027L156.76 3.74027C157.16 4.07027 157.57 4.23027 158 4.23027C158.3 4.23027 158.53 4.16027 158.69 4.03027C158.85 3.90027 158.93 3.69027 158.93 3.43027C158.93 2.91027 158.6 2.64027 157.95 2.64027H157.46V2.23027H157.86C158.18 2.23027 158.42 2.16027 158.59 2.02027C158.76 1.88027 158.84 1.68027 158.84 1.42027C158.84 1.19027 158.77 1.01027 158.63 0.890274C158.49 0.770274 158.3 0.700274 158.04 0.700274C157.63 0.700274 157.23 0.860274 156.83 1.19027L156.64 0.810273C156.81 0.650273 157.02 0.520274 157.27 0.420274C157.52 0.320274 157.78 0.280273 158.05 0.280273C158.43 0.280273 158.74 0.380273 158.97 0.570273C159.2 0.770273 159.31 1.03027 159.31 1.36027C159.31 1.60027 159.25 1.82027 159.13 2.00027C159.01 2.18027 158.84 2.32027 158.63 2.40027C158.88 2.47027 159.07 2.60027 159.21 2.77027L159.22 2.78027Z" fill="#231815"/>
<path d="M165.281 4.60984H164.701L163.371 2.79984L162.051 4.60984H161.461L163.091 2.41984L161.541 0.339844H162.131L163.381 2.05984L164.631 0.339844H165.211L163.661 2.42984L165.291 4.60984H165.281Z" fill="#231815"/>
<path d="M0.110016 35.7002H0.75L2.07001 37.8502L3.41 35.7002H4.05002L2.41 38.3702L4.16 41.2102H3.52002L2.08002 38.9002L0.640015 41.2102H0L1.76001 38.3702L0.119995 35.7002H0.110016Z" fill="#231815"/>
<path d="M149.369 25.25H147.949V54.55H149.369V25.25Z" fill="#033263"/>
<path d="M163.59 36.2905V40.6505H162.12V36.2905H160.91V35.0605H164.79V36.2905H163.59V36.2905Z" fill="#003064"/>
<path d="M166.909 37.2205H169.029V35.0605H170.499V40.6505H169.029V38.3405H166.909V40.6505H165.439V35.0605H166.909V37.2205V37.2205Z" fill="#003064"/>
<path d="M176.37 40.6505H174.54L173.14 38.5005V40.6505H171.67V35.0605H173.95C174.26 35.0605 174.54 35.1105 174.77 35.2005C175 35.2905 175.2 35.4205 175.35 35.5705C175.5 35.7305 175.62 35.9105 175.69 36.1205C175.77 36.3305 175.81 36.5505 175.81 36.7905C175.81 37.2205 175.71 37.5605 175.5 37.8305C175.29 38.1005 174.99 38.2705 174.58 38.3705L176.35 40.6605L176.37 40.6505ZM173.15 37.5605H173.43C173.72 37.5605 173.94 37.5005 174.1 37.3805C174.25 37.2605 174.33 37.0905 174.33 36.8705C174.33 36.6505 174.25 36.4805 174.1 36.3605C173.94 36.2405 173.72 36.1805 173.43 36.1805H173.15V37.5605V37.5605Z" fill="#003064"/>
<path d="M178.45 35.0605V38.1005C178.45 38.2605 178.45 38.4305 178.47 38.6005C178.48 38.7705 178.52 38.9305 178.58 39.0605C178.64 39.2005 178.74 39.3105 178.87 39.4005C179 39.4905 179.19 39.5305 179.44 39.5305C179.69 39.5305 179.87 39.4905 180.01 39.4005C180.15 39.3105 180.24 39.2005 180.31 39.0605C180.37 38.9205 180.41 38.7705 180.43 38.6005C180.44 38.4305 180.45 38.2605 180.45 38.1005V35.0605H181.91V38.3005C181.91 39.1705 181.71 39.8105 181.31 40.2105C180.91 40.6105 180.29 40.8105 179.46 40.8105C178.63 40.8105 178.01 40.6105 177.6 40.2105C177.2 39.8105 176.99 39.1705 176.99 38.3005V35.0605H178.46H178.45Z" fill="#003064"/>
<path d="M186.18 36.4904C186.02 36.3604 185.86 36.2704 185.7 36.2004C185.54 36.1304 185.39 36.1104 185.24 36.1104C185.05 36.1104 184.9 36.1504 184.78 36.2404C184.66 36.3304 184.6 36.4504 184.6 36.5904C184.6 36.6904 184.63 36.7704 184.69 36.8304C184.75 36.8904 184.83 36.9504 184.93 37.0004C185.03 37.0504 185.14 37.0904 185.26 37.1204C185.38 37.1504 185.5 37.1904 185.62 37.2304C186.1 37.3904 186.45 37.6004 186.67 37.8604C186.89 38.1204 187 38.4704 187 38.9004C187 39.1904 186.95 39.4504 186.85 39.6804C186.75 39.9104 186.61 40.1104 186.42 40.2804C186.23 40.4504 186 40.5704 185.73 40.6704C185.46 40.7604 185.15 40.8104 184.81 40.8104C184.1 40.8104 183.43 40.6004 182.83 40.1804L183.46 39.0104C183.68 39.2004 183.9 39.3504 184.11 39.4404C184.32 39.5304 184.54 39.5804 184.75 39.5804C184.99 39.5804 185.17 39.5304 185.29 39.4204C185.41 39.3104 185.47 39.1904 185.47 39.0504C185.47 38.9704 185.46 38.8904 185.43 38.8304C185.4 38.7704 185.35 38.7104 185.28 38.6604C185.21 38.6104 185.12 38.5604 185.01 38.5204C184.9 38.4804 184.76 38.4304 184.6 38.3704C184.41 38.3104 184.22 38.2504 184.04 38.1704C183.86 38.1004 183.7 38.0004 183.55 37.8804C183.41 37.7604 183.29 37.6104 183.21 37.4304C183.12 37.2504 183.08 37.0204 183.08 36.7404C183.08 36.4604 183.13 36.2104 183.22 35.9904C183.31 35.7604 183.44 35.5704 183.61 35.4104C183.78 35.2504 183.98 35.1204 184.22 35.0304C184.46 34.9404 184.73 34.9004 185.03 34.9004C185.31 34.9004 185.6 34.9404 185.91 35.0204C186.21 35.1004 186.51 35.2104 186.79 35.3604L186.21 36.4904H186.18Z" fill="#003064"/>
<path d="M190.051 36.2905V40.6505H188.581V36.2905H187.371V35.0605H191.251V36.2905H190.051V36.2905Z" fill="#003064"/>
<path d="M197.9 39.6805H195.81L195.47 40.6505H193.91L196.06 35.0605H197.66L199.81 40.6505H198.25L197.91 39.6805H197.9ZM197.51 38.5705L196.85 36.7105L196.19 38.5705H197.51V38.5705Z" fill="#003064"/>
<path d="M205.139 40.6505H203.309L201.909 38.5005V40.6505H200.439V35.0605H202.719C203.029 35.0605 203.309 35.1105 203.539 35.2005C203.769 35.2905 203.969 35.4205 204.119 35.5705C204.269 35.7305 204.389 35.9105 204.459 36.1205C204.539 36.3305 204.579 36.5505 204.579 36.7905C204.579 37.2205 204.479 37.5605 204.269 37.8305C204.059 38.1005 203.759 38.2705 203.349 38.3705L205.119 40.6605L205.139 40.6505ZM201.919 37.5605H202.199C202.489 37.5605 202.709 37.5005 202.869 37.3805C203.029 37.2605 203.099 37.0905 203.099 36.8705C203.099 36.6505 203.019 36.4805 202.869 36.3605C202.719 36.2405 202.489 36.1805 202.199 36.1805H201.919V37.5605V37.5605Z" fill="#003064"/>
<path d="M208.96 36.2908H207.22V37.2208H208.87V38.4508H207.22V39.4108H208.96V40.6408H205.75V35.0508H208.96V36.2808V36.2908Z" fill="#003064"/>
<path d="M213.471 39.6796H211.38L211.04 40.6496H209.48L211.63 35.0596H213.23L215.38 40.6496H213.82L213.48 39.6796H213.471ZM213.081 38.5696L212.42 36.7096L211.76 38.5696H213.081V38.5696Z" fill="#003064"/>
<path d="M162.14 51.2101H164.18V49.3701H164.89V54.0601H164.18V51.8701H162.14V54.0601H161.43V49.3701H162.14V51.2101Z" fill="#003064"/>
<path d="M166.749 49.3701V52.2001C166.749 52.6001 166.819 52.9001 166.949 53.0801C167.149 53.3501 167.429 53.4801 167.789 53.4801C168.149 53.4801 168.429 53.3501 168.629 53.0801C168.759 52.9001 168.829 52.6101 168.829 52.2001V49.3701H169.539V52.3901C169.539 52.8801 169.389 53.2901 169.079 53.6101C168.729 53.9701 168.299 54.1501 167.789 54.1501C167.279 54.1501 166.849 53.9701 166.509 53.6101C166.199 53.2901 166.039 52.8801 166.039 52.3901V49.3701H166.749V49.3701Z" fill="#003064"/>
<path d="M170.67 54.0699V49.3799H171.38C171.7 49.3799 171.95 49.3999 172.14 49.4499C172.33 49.4999 172.49 49.5799 172.62 49.6999C172.75 49.8199 172.86 49.9699 172.94 50.1499C173.02 50.3299 173.06 50.5099 173.06 50.6999C173.06 51.0399 172.93 51.3199 172.67 51.5499C172.92 51.6299 173.12 51.7799 173.26 51.9999C173.41 52.2099 173.48 52.4599 173.48 52.7399C173.48 53.1099 173.35 53.4199 173.09 53.6699C172.93 53.8299 172.76 53.9299 172.56 53.9999C172.35 54.0599 172.08 54.0899 171.75 54.0899H170.67V54.0699ZM171.38 51.3899H171.6C171.87 51.3899 172.06 51.3299 172.18 51.2199C172.3 51.0999 172.37 50.9299 172.37 50.6999C172.37 50.4699 172.31 50.3099 172.18 50.1999C172.05 50.0899 171.87 50.0299 171.63 50.0299H171.38V51.3999V51.3899ZM171.38 53.3999H171.82C172.14 53.3999 172.38 53.3399 172.53 53.2099C172.69 53.0699 172.77 52.8999 172.77 52.6899C172.77 52.4799 172.69 52.3199 172.54 52.1799C172.39 52.0399 172.12 51.9799 171.74 51.9799H171.38V53.3999V53.3999Z" fill="#003064"/>
<path d="M164.3 32.8698C164.3 32.9598 164.29 33.0398 164.26 33.0998C164.23 33.1598 164.17 33.2198 164.09 33.2598C164 33.2998 163.88 33.3298 163.72 33.3498C163.56 33.3698 163.35 33.3798 163.09 33.3898C163.09 33.3198 163.06 33.2298 163.02 33.1298C162.98 33.0298 162.94 32.9398 162.88 32.8698C163.12 32.9098 163.3 32.9298 163.43 32.9398C163.56 32.9398 163.67 32.9398 163.74 32.9198C163.81 32.8998 163.86 32.8598 163.87 32.8098C163.89 32.7598 163.9 32.6798 163.9 32.5898V31.7998C163.52 31.7998 163.19 31.7998 162.94 31.7998C162.68 31.7998 162.46 31.7998 162.28 31.7998C162.09 31.7998 161.93 31.8098 161.78 31.8198C161.63 31.8298 161.48 31.8398 161.32 31.8498V31.3898C161.48 31.3998 161.64 31.4098 161.79 31.4198C161.94 31.4198 162.11 31.4298 162.3 31.4398C162.49 31.4398 162.71 31.4398 162.97 31.4398C163.22 31.4398 163.54 31.4398 163.92 31.4398V31.0398L164.91 30.2398H163.1C163 30.2398 162.91 30.2398 162.82 30.2398C162.73 30.2398 162.65 30.2398 162.56 30.2498C162.48 30.2498 162.39 30.2498 162.29 30.2598V29.8998C162.39 29.8998 162.49 29.8998 162.59 29.9098C162.69 29.9098 162.8 29.9098 162.93 29.9098C163.06 29.9098 163.21 29.9098 163.38 29.9098H164.6C164.77 29.9098 164.92 29.9098 165.04 29.9098C165.17 29.9098 165.28 29.9098 165.38 29.9098C165.48 29.9098 165.58 29.9098 165.68 29.8998V30.2598C165.5 30.2798 165.35 30.3298 165.24 30.4198L164.3 31.1798V31.4398C164.58 31.4398 164.84 31.4398 165.07 31.4398C165.31 31.4398 165.53 31.4398 165.73 31.4398C165.93 31.4398 166.12 31.4298 166.3 31.4198C166.48 31.4098 166.65 31.3998 166.81 31.3898V31.8498C166.65 31.8398 166.48 31.8298 166.3 31.8198C166.12 31.8098 165.93 31.8098 165.73 31.7998C165.53 31.7998 165.31 31.7998 165.07 31.7998C164.83 31.7998 164.57 31.7998 164.3 31.7998V32.8798V32.8698ZM165.34 28.8798C165.49 28.8798 165.63 28.8798 165.76 28.8798C165.88 28.8798 166 28.8798 166.1 28.8798C166.2 28.8798 166.29 28.8798 166.38 28.8798C166.46 28.8798 166.54 28.8798 166.61 28.8798V30.2598H166.21V29.2098H161.76V30.3198H161.36V28.8798C161.47 28.8798 161.56 28.8898 161.64 28.8998C161.72 28.8998 161.79 28.8998 161.86 28.9098C161.93 28.9098 162 28.9098 162.08 28.9098H164.94C165.09 28.7098 165.23 28.4898 165.37 28.2698C165.51 28.0498 165.62 27.8298 165.69 27.6098C165.77 27.6798 165.85 27.7398 165.92 27.7698C165.99 27.8098 166.07 27.8298 166.16 27.8398C166.21 27.8398 166.25 27.8798 166.25 27.9298C166.25 27.9898 166.22 28.0298 166.14 28.0498C166.09 28.0698 166.05 28.0898 166 28.1298C165.95 28.1698 165.9 28.2198 165.83 28.2898C165.77 28.3598 165.7 28.4398 165.62 28.5398C165.54 28.6398 165.45 28.7598 165.35 28.8998L165.34 28.8798ZM162.51 28.8098C162.45 28.7298 162.39 28.6598 162.33 28.5898C162.28 28.5198 162.22 28.4598 162.16 28.4098C162.1 28.3498 162.04 28.2898 161.97 28.2298C161.9 28.1698 161.82 28.1098 161.73 28.0298L161.99 27.7398C162.09 27.8198 162.18 27.8898 162.26 27.9498C162.34 28.0098 162.4 28.0698 162.47 28.1298C162.53 28.1898 162.59 28.2498 162.65 28.3098C162.71 28.3698 162.78 28.4498 162.86 28.5398L162.52 28.7898L162.51 28.8098ZM164 28.7598C163.95 28.6598 163.9 28.5698 163.85 28.4998C163.8 28.4198 163.75 28.3498 163.7 28.2798C163.65 28.2098 163.59 28.1398 163.52 28.0698C163.45 27.9998 163.38 27.9198 163.29 27.8398L163.6 27.5898C163.79 27.7898 163.94 27.9598 164.06 28.0998C164.18 28.2398 164.28 28.3898 164.38 28.5498L164 28.7698V28.7598Z" fill="#003064"/>
<path d="M168.461 29.6595C168.351 29.6595 168.251 29.6595 168.171 29.6595C168.091 29.6595 168.011 29.6595 167.951 29.6695C167.881 29.6695 167.821 29.6795 167.761 29.6895C167.701 29.6895 167.641 29.7095 167.581 29.7195V29.2895C167.641 29.2995 167.701 29.3095 167.761 29.3195C167.821 29.3195 167.881 29.3295 167.951 29.3395C168.021 29.3395 168.091 29.3495 168.171 29.3495C168.251 29.3495 168.351 29.3495 168.461 29.3495C168.461 29.0895 168.461 28.8595 168.461 28.6695C168.461 28.4795 168.461 28.3195 168.451 28.1895C168.441 28.0595 168.441 27.9495 168.431 27.8695C168.431 27.7895 168.421 27.7295 168.411 27.6795C168.501 27.7095 168.571 27.7295 168.651 27.7295C168.721 27.7295 168.801 27.7295 168.891 27.7295C168.951 27.7295 168.981 27.7295 168.991 27.7595C169.001 27.7895 168.971 27.8095 168.921 27.8395C168.861 27.8695 168.841 27.9195 168.841 27.9895V29.3395C168.981 29.3395 169.101 29.3195 169.191 29.3095C169.281 29.2995 169.381 29.2895 169.481 29.2695V29.6995C169.381 29.6795 169.291 29.6695 169.191 29.6595C169.101 29.6595 168.981 29.6395 168.841 29.6395V31.7295C168.941 31.6995 169.041 31.6595 169.141 31.6195C169.251 31.5795 169.361 31.5295 169.481 31.4695C169.481 31.5295 169.481 31.5895 169.511 31.6395C169.531 31.6895 169.551 31.7395 169.561 31.8095C169.371 31.8695 169.201 31.9195 169.051 31.9695C168.911 32.0195 168.761 32.0695 168.631 32.1195C168.501 32.1695 168.351 32.2195 168.201 32.2795C168.051 32.3395 167.881 32.3995 167.681 32.4795C167.671 32.3895 167.651 32.3195 167.621 32.2595C167.591 32.1995 167.541 32.1295 167.461 32.0395C167.671 32.0095 167.851 31.9795 168.011 31.9495C168.171 31.9195 168.321 31.8895 168.461 31.8495V29.6395V29.6595ZM171.381 31.6195C171.401 31.6795 171.411 31.7395 171.431 31.7895C171.441 31.8395 171.461 31.8995 171.481 31.9495C171.271 32.0295 171.101 32.0895 170.941 32.1495C170.791 32.2095 170.641 32.2595 170.491 32.3195C170.341 32.3695 170.191 32.4295 170.031 32.4895C169.871 32.5495 169.691 32.6195 169.491 32.6995C169.481 32.6095 169.461 32.5295 169.441 32.4495C169.421 32.3695 169.381 32.2995 169.341 32.2195C169.571 32.1895 169.771 32.1495 169.961 32.1095C170.151 32.0695 170.321 32.0195 170.491 31.9695C170.661 31.9195 170.811 31.8695 170.951 31.8095C171.101 31.7495 171.241 31.6895 171.381 31.6095V31.6195ZM170.971 29.0595C170.771 29.0595 170.601 29.0595 170.461 29.0595C170.321 29.0595 170.191 29.0595 170.081 29.0595C169.971 29.0595 169.871 29.0595 169.781 29.0695C169.691 29.0695 169.611 29.0795 169.521 29.0895V28.6795C169.601 28.6795 169.691 28.6995 169.781 28.6995C169.871 28.6995 169.971 28.7095 170.081 28.7195C170.191 28.7295 170.321 28.7195 170.461 28.7195H171.471C171.471 28.5295 171.451 28.3695 171.441 28.2395C171.441 28.1095 171.421 27.9995 171.411 27.9095C171.411 27.8195 171.391 27.7395 171.381 27.6795C171.371 27.6195 171.361 27.5595 171.351 27.5195C171.441 27.5495 171.531 27.5695 171.601 27.5795C171.681 27.5895 171.751 27.5895 171.831 27.5795C171.901 27.5795 171.941 27.5895 171.951 27.6195C171.961 27.6495 171.941 27.6895 171.881 27.7195C171.861 27.7295 171.841 27.7595 171.831 27.7995C171.821 27.8395 171.811 27.8895 171.801 27.9695C171.801 28.0495 171.801 28.1395 171.801 28.2595C171.801 28.3795 171.801 28.5295 171.811 28.7095C172.161 28.7095 172.461 28.7095 172.701 28.7095C172.941 28.7095 173.141 28.6895 173.291 28.6695V29.0795C173.141 29.0595 172.941 29.0495 172.701 29.0395C172.461 29.0395 172.161 29.0395 171.821 29.0395C171.841 29.4295 171.851 29.7595 171.871 30.0095C171.891 30.2595 171.901 30.4695 171.921 30.6495C171.941 30.8295 171.971 30.9695 171.991 31.0995C172.021 31.2195 172.051 31.3495 172.101 31.4895C172.271 31.2195 172.411 30.9395 172.541 30.6295C172.671 30.3195 172.771 29.9895 172.841 29.6295C172.901 29.6795 172.971 29.7195 173.041 29.7595C173.111 29.7895 173.161 29.8195 173.221 29.8195C173.291 29.8195 173.331 29.8495 173.331 29.8895C173.331 29.9295 173.311 29.9595 173.261 29.9795C173.231 29.9795 173.191 30.0295 173.151 30.0995C173.111 30.1695 173.061 30.2895 172.991 30.4495C172.881 30.7295 172.761 30.9795 172.641 31.2195C172.521 31.4495 172.391 31.6795 172.241 31.8795C172.311 32.0595 172.391 32.2095 172.471 32.3495C172.551 32.4895 172.631 32.5995 172.711 32.6795C172.771 32.7495 172.821 32.7995 172.861 32.8195C172.901 32.8395 172.941 32.8495 172.971 32.8195C173.001 32.7895 173.021 32.7395 173.031 32.6495C173.051 32.5695 173.061 32.4395 173.071 32.2895C173.161 32.3795 173.221 32.4395 173.281 32.4695C173.331 32.4995 173.391 32.5195 173.471 32.5295C173.421 32.7695 173.371 32.9495 173.321 33.0695C173.261 33.1895 173.201 33.2795 173.131 33.3095C173.061 33.3495 172.991 33.3495 172.901 33.3095C172.821 33.2695 172.731 33.2095 172.631 33.1095C172.391 32.8795 172.171 32.5695 171.991 32.1895C171.821 32.3895 171.641 32.5795 171.451 32.7595C171.261 32.9395 171.041 33.1095 170.811 33.2695C170.761 33.1895 170.721 33.1395 170.681 33.0995C170.641 33.0595 170.571 33.0195 170.481 32.9795C170.721 32.8595 170.961 32.6995 171.191 32.5095C171.421 32.3195 171.631 32.0895 171.831 31.8395C171.771 31.6695 171.721 31.4895 171.681 31.3095C171.641 31.1295 171.601 30.9295 171.571 30.6995C171.541 30.4695 171.521 30.2295 171.501 29.9595C171.481 29.6895 171.461 29.3795 171.451 29.0295H170.941L170.971 29.0595ZM171.221 29.5695C171.221 29.5695 171.201 29.6795 171.191 29.7595C171.191 29.8395 171.181 29.9195 171.171 30.0095C171.171 30.0995 171.171 30.1795 171.171 30.2695C171.171 30.3495 171.171 30.4195 171.171 30.4795V30.6995C171.171 30.7895 171.171 30.8795 171.171 30.9695C171.171 31.0595 171.171 31.1495 171.171 31.2295C171.171 31.3095 171.171 31.3695 171.181 31.4095C171.111 31.3995 171.011 31.3895 170.891 31.3795C170.761 31.3795 170.621 31.3795 170.451 31.3795C170.281 31.3795 170.141 31.3795 170.001 31.3795C169.871 31.3795 169.761 31.3895 169.671 31.3995C169.671 31.3595 169.671 31.2995 169.681 31.2295C169.681 31.1495 169.681 31.0595 169.691 30.9695C169.691 30.8795 169.691 30.7895 169.691 30.6995V30.2695C169.691 30.1795 169.691 30.0895 169.691 29.9995C169.691 29.9095 169.691 29.8195 169.681 29.7395C169.671 29.6595 169.681 29.6095 169.671 29.5695C169.761 29.5695 169.871 29.5895 170.001 29.5895C170.131 29.5895 170.281 29.5895 170.451 29.5895C170.621 29.5895 170.761 29.5895 170.891 29.5895C171.021 29.5895 171.131 29.5795 171.211 29.5695H171.221ZM170.831 29.8795H170.051V31.0895H170.831V29.8795ZM172.731 28.5695C172.661 28.4595 172.571 28.3495 172.471 28.2395C172.371 28.1295 172.241 28.0295 172.091 27.9195L172.311 27.6695C172.451 27.7695 172.571 27.8695 172.681 27.9795C172.791 28.0895 172.901 28.2095 173.031 28.3595L172.741 28.5795L172.731 28.5695Z" fill="#003064"/>
<path d="M164.3 32.8698C164.3 32.9598 164.29 33.0398 164.26 33.0998C164.23 33.1598 164.17 33.2198 164.09 33.2598C164 33.2998 163.88 33.3298 163.72 33.3498C163.56 33.3698 163.35 33.3798 163.09 33.3898C163.09 33.3198 163.06 33.2298 163.02 33.1298C162.98 33.0298 162.94 32.9398 162.88 32.8698C163.12 32.9098 163.3 32.9298 163.43 32.9398C163.56 32.9398 163.67 32.9398 163.74 32.9198C163.81 32.8998 163.86 32.8598 163.87 32.8098C163.89 32.7598 163.9 32.6798 163.9 32.5898V31.7998C163.52 31.7998 163.19 31.7998 162.94 31.7998C162.68 31.7998 162.46 31.7998 162.28 31.7998C162.09 31.7998 161.93 31.8098 161.78 31.8198C161.63 31.8298 161.48 31.8398 161.32 31.8498V31.3898C161.48 31.3998 161.64 31.4098 161.79 31.4198C161.94 31.4198 162.11 31.4298 162.3 31.4398C162.49 31.4398 162.71 31.4398 162.97 31.4398C163.22 31.4398 163.54 31.4398 163.92 31.4398V31.0398L164.91 30.2398H163.1C163 30.2398 162.91 30.2398 162.82 30.2398C162.73 30.2398 162.65 30.2398 162.56 30.2498C162.48 30.2498 162.39 30.2498 162.29 30.2598V29.8998C162.39 29.8998 162.49 29.8998 162.59 29.9098C162.69 29.9098 162.8 29.9098 162.93 29.9098C163.06 29.9098 163.21 29.9098 163.38 29.9098H164.6C164.77 29.9098 164.92 29.9098 165.04 29.9098C165.17 29.9098 165.28 29.9098 165.38 29.9098C165.48 29.9098 165.58 29.9098 165.68 29.8998V30.2598C165.5 30.2798 165.35 30.3298 165.24 30.4198L164.3 31.1798V31.4398C164.58 31.4398 164.84 31.4398 165.07 31.4398C165.31 31.4398 165.53 31.4398 165.73 31.4398C165.93 31.4398 166.12 31.4298 166.3 31.4198C166.48 31.4098 166.65 31.3998 166.81 31.3898V31.8498C166.65 31.8398 166.48 31.8298 166.3 31.8198C166.12 31.8098 165.93 31.8098 165.73 31.7998C165.53 31.7998 165.31 31.7998 165.07 31.7998C164.83 31.7998 164.57 31.7998 164.3 31.7998V32.8798V32.8698ZM165.34 28.8798C165.49 28.8798 165.63 28.8798 165.76 28.8798C165.88 28.8798 166 28.8798 166.1 28.8798C166.2 28.8798 166.29 28.8798 166.38 28.8798C166.46 28.8798 166.54 28.8798 166.61 28.8798V30.2598H166.21V29.2098H161.76V30.3198H161.36V28.8798C161.47 28.8798 161.56 28.8898 161.64 28.8998C161.72 28.8998 161.79 28.8998 161.86 28.9098C161.93 28.9098 162 28.9098 162.08 28.9098H164.94C165.09 28.7098 165.23 28.4898 165.37 28.2698C165.51 28.0498 165.62 27.8298 165.69 27.6098C165.77 27.6798 165.85 27.7398 165.92 27.7698C165.99 27.8098 166.07 27.8298 166.16 27.8398C166.21 27.8398 166.25 27.8798 166.25 27.9298C166.25 27.9898 166.22 28.0298 166.14 28.0498C166.09 28.0698 166.05 28.0898 166 28.1298C165.95 28.1698 165.9 28.2198 165.83 28.2898C165.77 28.3598 165.7 28.4398 165.62 28.5398C165.54 28.6398 165.45 28.7598 165.35 28.8998L165.34 28.8798ZM162.51 28.8098C162.45 28.7298 162.39 28.6598 162.33 28.5898C162.28 28.5198 162.22 28.4598 162.16 28.4098C162.1 28.3498 162.04 28.2898 161.97 28.2298C161.9 28.1698 161.82 28.1098 161.73 28.0298L161.99 27.7398C162.09 27.8198 162.18 27.8898 162.26 27.9498C162.34 28.0098 162.4 28.0698 162.47 28.1298C162.53 28.1898 162.59 28.2498 162.65 28.3098C162.71 28.3698 162.78 28.4498 162.86 28.5398L162.52 28.7898L162.51 28.8098ZM164 28.7598C163.95 28.6598 163.9 28.5698 163.85 28.4998C163.8 28.4198 163.75 28.3498 163.7 28.2798C163.65 28.2098 163.59 28.1398 163.52 28.0698C163.45 27.9998 163.38 27.9198 163.29 27.8398L163.6 27.5898C163.79 27.7898 163.94 27.9598 164.06 28.0998C164.18 28.2398 164.28 28.3898 164.38 28.5498L164 28.7698V28.7598Z" stroke="#003064" stroke-width="0.13" stroke-miterlimit="10"/>
<path d="M168.461 29.6595C168.351 29.6595 168.251 29.6595 168.171 29.6595C168.091 29.6595 168.011 29.6595 167.951 29.6695C167.881 29.6695 167.821 29.6795 167.761 29.6895C167.701 29.6895 167.641 29.7095 167.581 29.7195V29.2895C167.641 29.2995 167.701 29.3095 167.761 29.3195C167.821 29.3195 167.881 29.3295 167.951 29.3395C168.021 29.3395 168.091 29.3495 168.171 29.3495C168.251 29.3495 168.351 29.3495 168.461 29.3495C168.461 29.0895 168.461 28.8595 168.461 28.6695C168.461 28.4795 168.461 28.3195 168.451 28.1895C168.441 28.0595 168.441 27.9495 168.431 27.8695C168.431 27.7895 168.421 27.7295 168.411 27.6795C168.501 27.7095 168.571 27.7295 168.651 27.7295C168.721 27.7295 168.801 27.7295 168.891 27.7295C168.951 27.7295 168.981 27.7295 168.991 27.7595C169.001 27.7895 168.971 27.8095 168.921 27.8395C168.861 27.8695 168.841 27.9195 168.841 27.9895V29.3395C168.981 29.3395 169.101 29.3195 169.191 29.3095C169.281 29.2995 169.381 29.2895 169.481 29.2695V29.6995C169.381 29.6795 169.291 29.6695 169.191 29.6595C169.101 29.6595 168.981 29.6395 168.841 29.6395V31.7295C168.941 31.6995 169.041 31.6595 169.141 31.6195C169.251 31.5795 169.361 31.5295 169.481 31.4695C169.481 31.5295 169.481 31.5895 169.511 31.6395C169.531 31.6895 169.551 31.7395 169.561 31.8095C169.371 31.8695 169.201 31.9195 169.051 31.9695C168.911 32.0195 168.761 32.0695 168.631 32.1195C168.501 32.1695 168.351 32.2195 168.201 32.2795C168.051 32.3395 167.881 32.3995 167.681 32.4795C167.671 32.3895 167.651 32.3195 167.621 32.2595C167.591 32.1995 167.541 32.1295 167.461 32.0395C167.671 32.0095 167.851 31.9795 168.011 31.9495C168.171 31.9195 168.321 31.8895 168.461 31.8495V29.6395V29.6595ZM171.381 31.6195C171.401 31.6795 171.411 31.7395 171.431 31.7895C171.441 31.8395 171.461 31.8995 171.481 31.9495C171.271 32.0295 171.101 32.0895 170.941 32.1495C170.791 32.2095 170.641 32.2595 170.491 32.3195C170.341 32.3695 170.191 32.4295 170.031 32.4895C169.871 32.5495 169.691 32.6195 169.491 32.6995C169.481 32.6095 169.461 32.5295 169.441 32.4495C169.421 32.3695 169.381 32.2995 169.341 32.2195C169.571 32.1895 169.771 32.1495 169.961 32.1095C170.151 32.0695 170.321 32.0195 170.491 31.9695C170.661 31.9195 170.811 31.8695 170.951 31.8095C171.101 31.7495 171.241 31.6895 171.381 31.6095V31.6195ZM170.971 29.0595C170.771 29.0595 170.601 29.0595 170.461 29.0595C170.321 29.0595 170.191 29.0595 170.081 29.0595C169.971 29.0595 169.871 29.0595 169.781 29.0695C169.691 29.0695 169.611 29.0795 169.521 29.0895V28.6795C169.601 28.6795 169.691 28.6995 169.781 28.6995C169.871 28.6995 169.971 28.7095 170.081 28.7195C170.191 28.7295 170.321 28.7195 170.461 28.7195H171.471C171.471 28.5295 171.451 28.3695 171.441 28.2395C171.441 28.1095 171.421 27.9995 171.411 27.9095C171.411 27.8195 171.391 27.7395 171.381 27.6795C171.371 27.6195 171.361 27.5595 171.351 27.5195C171.441 27.5495 171.531 27.5695 171.601 27.5795C171.681 27.5895 171.751 27.5895 171.831 27.5795C171.901 27.5795 171.941 27.5895 171.951 27.6195C171.961 27.6495 171.941 27.6895 171.881 27.7195C171.861 27.7295 171.841 27.7595 171.831 27.7995C171.821 27.8395 171.811 27.8895 171.801 27.9695C171.801 28.0495 171.801 28.1395 171.801 28.2595C171.801 28.3795 171.801 28.5295 171.811 28.7095C172.161 28.7095 172.461 28.7095 172.701 28.7095C172.941 28.7095 173.141 28.6895 173.291 28.6695V29.0795C173.141 29.0595 172.941 29.0495 172.701 29.0395C172.461 29.0395 172.161 29.0395 171.821 29.0395C171.841 29.4295 171.851 29.7595 171.871 30.0095C171.891 30.2595 171.901 30.4695 171.921 30.6495C171.941 30.8295 171.971 30.9695 171.991 31.0995C172.021 31.2195 172.051 31.3495 172.101 31.4895C172.271 31.2195 172.411 30.9395 172.541 30.6295C172.671 30.3195 172.771 29.9895 172.841 29.6295C172.901 29.6795 172.971 29.7195 173.041 29.7595C173.111 29.7895 173.161 29.8195 173.221 29.8195C173.291 29.8195 173.331 29.8495 173.331 29.8895C173.331 29.9295 173.311 29.9595 173.261 29.9795C173.231 29.9795 173.191 30.0295 173.151 30.0995C173.111 30.1695 173.061 30.2895 172.991 30.4495C172.881 30.7295 172.761 30.9795 172.641 31.2195C172.521 31.4495 172.391 31.6795 172.241 31.8795C172.311 32.0595 172.391 32.2095 172.471 32.3495C172.551 32.4895 172.631 32.5995 172.711 32.6795C172.771 32.7495 172.821 32.7995 172.861 32.8195C172.901 32.8395 172.941 32.8495 172.971 32.8195C173.001 32.7895 173.021 32.7395 173.031 32.6495C173.051 32.5695 173.061 32.4395 173.071 32.2895C173.161 32.3795 173.221 32.4395 173.281 32.4695C173.331 32.4995 173.391 32.5195 173.471 32.5295C173.421 32.7695 173.371 32.9495 173.321 33.0695C173.261 33.1895 173.201 33.2795 173.131 33.3095C173.061 33.3495 172.991 33.3495 172.901 33.3095C172.821 33.2695 172.731 33.2095 172.631 33.1095C172.391 32.8795 172.171 32.5695 171.991 32.1895C171.821 32.3895 171.641 32.5795 171.451 32.7595C171.261 32.9395 171.041 33.1095 170.811 33.2695C170.761 33.1895 170.721 33.1395 170.681 33.0995C170.641 33.0595 170.571 33.0195 170.481 32.9795C170.721 32.8595 170.961 32.6995 171.191 32.5095C171.421 32.3195 171.631 32.0895 171.831 31.8395C171.771 31.6695 171.721 31.4895 171.681 31.3095C171.641 31.1295 171.601 30.9295 171.571 30.6995C171.541 30.4695 171.521 30.2295 171.501 29.9595C171.481 29.6895 171.461 29.3795 171.451 29.0295H170.941L170.971 29.0595ZM171.221 29.5695C171.221 29.5695 171.201 29.6795 171.191 29.7595C171.191 29.8395 171.181 29.9195 171.171 30.0095C171.171 30.0995 171.171 30.1795 171.171 30.2695C171.171 30.3495 171.171 30.4195 171.171 30.4795V30.6995C171.171 30.7895 171.171 30.8795 171.171 30.9695C171.171 31.0595 171.171 31.1495 171.171 31.2295C171.171 31.3095 171.171 31.3695 171.181 31.4095C171.111 31.3995 171.011 31.3895 170.891 31.3795C170.761 31.3795 170.621 31.3795 170.451 31.3795C170.281 31.3795 170.141 31.3795 170.001 31.3795C169.871 31.3795 169.761 31.3895 169.671 31.3995C169.671 31.3595 169.671 31.2995 169.681 31.2295C169.681 31.1495 169.681 31.0595 169.691 30.9695C169.691 30.8795 169.691 30.7895 169.691 30.6995V30.2695C169.691 30.1795 169.691 30.0895 169.691 29.9995C169.691 29.9095 169.691 29.8195 169.681 29.7395C169.671 29.6595 169.681 29.6095 169.671 29.5695C169.761 29.5695 169.871 29.5895 170.001 29.5895C170.131 29.5895 170.281 29.5895 170.451 29.5895C170.621 29.5895 170.761 29.5895 170.891 29.5895C171.021 29.5895 171.131 29.5795 171.211 29.5695H171.221ZM170.831 29.8795H170.051V31.0895H170.831V29.8795ZM172.731 28.5695C172.661 28.4595 172.571 28.3495 172.471 28.2395C172.371 28.1295 172.241 28.0295 172.091 27.9195L172.311 27.6695C172.451 27.7695 172.571 27.8695 172.681 27.9795C172.791 28.0895 172.901 28.2095 173.031 28.3595L172.741 28.5795L172.731 28.5695Z" stroke="#003064" stroke-width="0.13" stroke-miterlimit="10"/>
<path d="M162.451 43.8103C162.601 43.8103 162.731 43.8103 162.841 43.8103C162.951 43.8103 163.051 43.7903 163.141 43.7703V44.1403C163.051 44.1303 162.951 44.1103 162.841 44.1103C162.731 44.1103 162.601 44.1003 162.461 44.1003V44.4403C162.521 44.5003 162.581 44.5803 162.651 44.6603C162.721 44.7403 162.791 44.8303 162.861 44.9203C162.931 45.0103 163.001 45.0903 163.061 45.1803C163.121 45.2603 163.181 45.3403 163.221 45.4003L162.951 45.6103C162.891 45.5003 162.821 45.3703 162.741 45.2303C162.651 45.0803 162.561 44.9403 162.471 44.8003V46.6203C162.471 46.8203 162.471 47.0003 162.471 47.1603C162.471 47.3203 162.491 47.4903 162.511 47.6803H162.091C162.111 47.5003 162.121 47.3203 162.131 47.1603C162.131 47.0003 162.131 46.8203 162.131 46.6203V44.7803C162.031 45.0803 161.931 45.3603 161.821 45.6303C161.711 45.8903 161.601 46.1303 161.471 46.3403C161.431 46.2903 161.381 46.2503 161.321 46.2203C161.271 46.1903 161.201 46.1703 161.131 46.1503C161.221 46.0203 161.321 45.8703 161.421 45.7003C161.521 45.5303 161.611 45.3503 161.691 45.1703C161.771 44.9903 161.851 44.8003 161.911 44.6203C161.981 44.4403 162.031 44.2603 162.071 44.1003C161.941 44.1003 161.811 44.1003 161.671 44.1103C161.531 44.1103 161.421 44.1303 161.331 44.1403V43.7703C161.421 43.7903 161.531 43.8003 161.671 43.8003C161.811 43.8003 161.961 43.8103 162.121 43.8103C162.121 43.4903 162.121 43.2303 162.111 43.0303C162.111 42.8303 162.091 42.6803 162.071 42.5703C162.141 42.5903 162.211 42.6003 162.291 42.6103C162.371 42.6103 162.441 42.6203 162.501 42.6203C162.551 42.6203 162.581 42.6203 162.591 42.6503C162.601 42.6803 162.581 42.7103 162.531 42.7603C162.501 42.8003 162.481 42.8503 162.471 42.9103C162.461 42.9703 162.451 43.0503 162.451 43.1303V43.8003V43.8103ZM163.371 43.3003C163.311 43.3003 163.251 43.3003 163.201 43.3003C163.151 43.3003 163.091 43.3003 163.041 43.3003V42.9803C163.101 42.9803 163.161 42.9803 163.231 42.9803C163.301 42.9803 163.401 42.9803 163.521 42.9803C163.641 42.9803 163.791 42.9803 163.981 42.9803H165.261C165.421 42.9803 165.561 42.9803 165.671 42.9803C165.781 42.9803 165.871 42.9803 165.951 42.9803C166.021 42.9803 166.101 42.9803 166.171 42.9703V43.3103C166.111 43.3103 166.041 43.3103 165.951 43.3003C165.861 43.3003 165.731 43.3003 165.561 43.3003C165.391 43.3003 165.151 43.3003 164.861 43.3003H163.711V46.8203C163.711 46.9103 163.731 46.9703 163.761 47.0103C163.791 47.0503 163.851 47.0603 163.941 47.0603H165.331C165.571 47.0603 165.761 47.0603 165.901 47.0603C166.031 47.0603 166.151 47.0403 166.241 47.0303V47.3903C166.241 47.3903 166.151 47.3803 166.091 47.3703C166.031 47.3603 165.981 47.3703 165.911 47.3603C165.841 47.3503 165.761 47.3603 165.661 47.3603C165.561 47.3603 165.461 47.3603 165.331 47.3603H163.871C163.681 47.3603 163.561 47.3303 163.481 47.2703C163.401 47.2103 163.371 47.0903 163.371 46.9103V43.3303V43.3003ZM165.171 45.1403C165.341 45.3803 165.491 45.6103 165.631 45.8103C165.771 46.0203 165.901 46.2103 166.011 46.3903L165.731 46.5903C165.631 46.4103 165.531 46.2403 165.421 46.0603C165.311 45.8803 165.181 45.6803 165.021 45.4503C164.901 45.6803 164.771 45.9103 164.631 46.1403C164.491 46.3703 164.361 46.5803 164.221 46.7603C164.171 46.7003 164.121 46.6603 164.061 46.6303C164.001 46.6003 163.931 46.5803 163.861 46.5603C164.041 46.3703 164.211 46.1703 164.371 45.9403C164.531 45.7103 164.681 45.4503 164.811 45.1603C164.671 44.9603 164.531 44.7603 164.381 44.5803C164.231 44.3903 164.081 44.2103 163.911 44.0203L164.141 43.8403C164.421 44.1603 164.691 44.5003 164.941 44.8503C165.021 44.6603 165.091 44.4603 165.161 44.2503C165.231 44.0403 165.291 43.8203 165.341 43.5803C165.421 43.6203 165.491 43.6503 165.541 43.6703C165.591 43.6903 165.661 43.7103 165.731 43.7303C165.781 43.7403 165.801 43.7603 165.801 43.7703C165.801 43.7803 165.771 43.8203 165.731 43.8503C165.711 43.8603 165.691 43.8803 165.671 43.9103C165.651 43.9403 165.631 43.9803 165.601 44.0403C165.571 44.1003 165.541 44.1703 165.511 44.2603C165.471 44.3503 165.431 44.4603 165.381 44.6003C165.351 44.6703 165.321 44.7503 165.281 44.8503C165.241 44.9503 165.191 45.0503 165.141 45.1503L165.171 45.1403Z" fill="#003064"/>
<path d="M168.741 46.5806C168.721 46.6306 168.701 46.6906 168.701 46.7506C168.701 46.8106 168.701 46.8606 168.731 46.9206C168.311 46.9806 167.941 47.0406 167.611 47.1006C167.291 47.1606 167.031 47.2206 166.831 47.2706C166.831 47.2106 166.831 47.1506 166.801 47.0806C166.781 47.0106 166.751 46.9506 166.701 46.8806C166.811 46.8806 166.941 46.8706 167.101 46.8506C167.261 46.8306 167.431 46.8106 167.611 46.7906C167.791 46.7706 167.981 46.7306 168.181 46.7006C168.371 46.6606 168.561 46.6306 168.741 46.5906V46.5806ZM167.391 44.6906C167.261 44.6906 167.151 44.7106 167.071 44.7206C166.991 44.7306 166.921 44.7506 166.861 44.7706C166.861 44.6506 166.821 44.5406 166.751 44.4406C166.801 44.4306 166.851 44.4006 166.901 44.3706C166.951 44.3406 167.001 44.2706 167.061 44.1706C167.181 43.9806 167.311 43.7606 167.451 43.5006C167.591 43.2406 167.721 42.9606 167.851 42.6406C167.911 42.7006 167.971 42.7506 168.031 42.7806C168.091 42.8106 168.151 42.8406 168.211 42.8606C168.261 42.8806 168.291 42.9006 168.281 42.9306C168.281 42.9606 168.251 42.9806 168.201 43.0006C168.171 43.0006 168.141 43.0306 168.101 43.0606C168.071 43.0906 168.021 43.1506 167.951 43.2506C167.891 43.3406 167.801 43.4906 167.691 43.6706C167.581 43.8606 167.431 44.1106 167.241 44.4306L168.081 44.4106C168.181 44.2606 168.261 44.1106 168.331 43.9806C168.401 43.8506 168.461 43.7206 168.501 43.6106C168.551 43.6606 168.611 43.7006 168.671 43.7306C168.731 43.7606 168.791 43.7906 168.851 43.8006C168.901 43.8106 168.921 43.8306 168.921 43.8606C168.921 43.8906 168.881 43.9206 168.821 43.9506C168.801 43.9506 168.771 43.9806 168.721 44.0306C168.681 44.0706 168.611 44.1606 168.511 44.2906C168.411 44.4206 168.281 44.6006 168.111 44.8406C167.941 45.0806 167.711 45.4006 167.431 45.7906L168.601 45.6306C168.591 45.6806 168.581 45.7306 168.571 45.7706C168.571 45.8106 168.571 45.8606 168.571 45.9206L167.461 46.0506C167.401 46.0506 167.351 46.0706 167.311 46.0706C167.271 46.0706 167.231 46.0906 167.191 46.0906C167.161 46.0906 167.121 46.1106 167.091 46.1206C167.061 46.1306 167.021 46.1406 166.981 46.1606C166.981 46.1006 166.961 46.0406 166.941 45.9806C166.921 45.9206 166.891 45.8606 166.861 45.8006C166.911 45.7906 166.961 45.7606 167.001 45.7406C167.041 45.7206 167.101 45.6606 167.171 45.5906C167.241 45.5106 167.331 45.4006 167.441 45.2606C167.551 45.1206 167.701 44.9106 167.881 44.6606L167.361 44.6906H167.391ZM169.581 45.2406C169.441 45.2406 169.301 45.2406 169.171 45.2606C169.041 45.2606 168.921 45.2806 168.811 45.2906V44.9306C168.921 44.9306 169.041 44.9406 169.181 44.9506C169.321 44.9506 169.461 44.9506 169.611 44.9506L169.741 43.3206C169.571 43.3206 169.411 43.3206 169.271 43.3406C169.121 43.3406 168.991 43.3606 168.851 43.3806V42.9906C168.981 43.0106 169.151 43.0306 169.351 43.0406C169.551 43.0406 169.821 43.0506 170.151 43.0506C170.481 43.0506 170.771 43.0506 170.981 43.0406C171.191 43.0406 171.361 43.0206 171.501 42.9906C171.481 43.0906 171.461 43.2006 171.451 43.3306C171.441 43.4606 171.431 43.6206 171.421 43.8206L171.271 47.0706C171.421 47.0706 171.551 47.0706 171.671 47.0606C171.791 47.0606 171.891 47.0406 171.961 47.0306V47.4206C171.831 47.4006 171.621 47.3906 171.331 47.3806C171.041 47.3806 170.641 47.3706 170.141 47.3706C169.891 47.3706 169.671 47.3706 169.491 47.3706C169.311 47.3706 169.161 47.3706 169.031 47.3706C168.901 47.3706 168.801 47.3706 168.711 47.3906C168.631 47.3906 168.551 47.4006 168.491 47.4106V47.0206C168.601 47.0406 168.721 47.0506 168.871 47.0506C169.011 47.0506 169.201 47.0606 169.441 47.0706L169.591 45.2306L169.581 45.2406ZM169.911 45.2406L169.761 47.0806H170.931L171.011 45.2406H169.911ZM171.021 44.9506L171.101 43.3206H170.071L169.931 44.9506H171.021V44.9506Z" fill="#003064"/>
<path d="M162.451 43.8103C162.601 43.8103 162.731 43.8103 162.841 43.8103C162.951 43.8103 163.051 43.7903 163.141 43.7703V44.1403C163.051 44.1303 162.951 44.1103 162.841 44.1103C162.731 44.1103 162.601 44.1003 162.461 44.1003V44.4403C162.521 44.5003 162.581 44.5803 162.651 44.6603C162.721 44.7403 162.791 44.8303 162.861 44.9203C162.931 45.0103 163.001 45.0903 163.061 45.1803C163.121 45.2603 163.181 45.3403 163.221 45.4003L162.951 45.6103C162.891 45.5003 162.821 45.3703 162.741 45.2303C162.651 45.0803 162.561 44.9403 162.471 44.8003V46.6203C162.471 46.8203 162.471 47.0003 162.471 47.1603C162.471 47.3203 162.491 47.4903 162.511 47.6803H162.091C162.111 47.5003 162.121 47.3203 162.131 47.1603C162.131 47.0003 162.131 46.8203 162.131 46.6203V44.7803C162.031 45.0803 161.931 45.3603 161.821 45.6303C161.711 45.8903 161.601 46.1303 161.471 46.3403C161.431 46.2903 161.381 46.2503 161.321 46.2203C161.271 46.1903 161.201 46.1703 161.131 46.1503C161.221 46.0203 161.321 45.8703 161.421 45.7003C161.521 45.5303 161.611 45.3503 161.691 45.1703C161.771 44.9903 161.851 44.8003 161.911 44.6203C161.981 44.4403 162.031 44.2603 162.071 44.1003C161.941 44.1003 161.811 44.1003 161.671 44.1103C161.531 44.1103 161.421 44.1303 161.331 44.1403V43.7703C161.421 43.7903 161.531 43.8003 161.671 43.8003C161.811 43.8003 161.961 43.8103 162.121 43.8103C162.121 43.4903 162.121 43.2303 162.111 43.0303C162.111 42.8303 162.091 42.6803 162.071 42.5703C162.141 42.5903 162.211 42.6003 162.291 42.6103C162.371 42.6103 162.441 42.6203 162.501 42.6203C162.551 42.6203 162.581 42.6203 162.591 42.6503C162.601 42.6803 162.581 42.7103 162.531 42.7603C162.501 42.8003 162.481 42.8503 162.471 42.9103C162.461 42.9703 162.451 43.0503 162.451 43.1303V43.8003V43.8103ZM163.371 43.3003C163.311 43.3003 163.251 43.3003 163.201 43.3003C163.151 43.3003 163.091 43.3003 163.041 43.3003V42.9803C163.101 42.9803 163.161 42.9803 163.231 42.9803C163.301 42.9803 163.401 42.9803 163.521 42.9803C163.641 42.9803 163.791 42.9803 163.981 42.9803H165.261C165.421 42.9803 165.561 42.9803 165.671 42.9803C165.781 42.9803 165.871 42.9803 165.951 42.9803C166.021 42.9803 166.101 42.9803 166.171 42.9703V43.3103C166.111 43.3103 166.041 43.3103 165.951 43.3003C165.861 43.3003 165.731 43.3003 165.561 43.3003C165.391 43.3003 165.151 43.3003 164.861 43.3003H163.711V46.8203C163.711 46.9103 163.731 46.9703 163.761 47.0103C163.791 47.0503 163.851 47.0603 163.941 47.0603H165.331C165.571 47.0603 165.761 47.0603 165.901 47.0603C166.031 47.0603 166.151 47.0403 166.241 47.0303V47.3903C166.241 47.3903 166.151 47.3803 166.091 47.3703C166.031 47.3603 165.981 47.3703 165.911 47.3603C165.841 47.3503 165.761 47.3603 165.661 47.3603C165.561 47.3603 165.461 47.3603 165.331 47.3603H163.871C163.681 47.3603 163.561 47.3303 163.481 47.2703C163.401 47.2103 163.371 47.0903 163.371 46.9103V43.3303V43.3003ZM165.171 45.1403C165.341 45.3803 165.491 45.6103 165.631 45.8103C165.771 46.0203 165.901 46.2103 166.011 46.3903L165.731 46.5903C165.631 46.4103 165.531 46.2403 165.421 46.0603C165.311 45.8803 165.181 45.6803 165.021 45.4503C164.901 45.6803 164.771 45.9103 164.631 46.1403C164.491 46.3703 164.361 46.5803 164.221 46.7603C164.171 46.7003 164.121 46.6603 164.061 46.6303C164.001 46.6003 163.931 46.5803 163.861 46.5603C164.041 46.3703 164.211 46.1703 164.371 45.9403C164.531 45.7103 164.681 45.4503 164.811 45.1603C164.671 44.9603 164.531 44.7603 164.381 44.5803C164.231 44.3903 164.081 44.2103 163.911 44.0203L164.141 43.8403C164.421 44.1603 164.691 44.5003 164.941 44.8503C165.021 44.6603 165.091 44.4603 165.161 44.2503C165.231 44.0403 165.291 43.8203 165.341 43.5803C165.421 43.6203 165.491 43.6503 165.541 43.6703C165.591 43.6903 165.661 43.7103 165.731 43.7303C165.781 43.7403 165.801 43.7603 165.801 43.7703C165.801 43.7803 165.771 43.8203 165.731 43.8503C165.711 43.8603 165.691 43.8803 165.671 43.9103C165.651 43.9403 165.631 43.9803 165.601 44.0403C165.571 44.1003 165.541 44.1703 165.511 44.2603C165.471 44.3503 165.431 44.4603 165.381 44.6003C165.351 44.6703 165.321 44.7503 165.281 44.8503C165.241 44.9503 165.191 45.0503 165.141 45.1503L165.171 45.1403Z" stroke="#003064" stroke-width="0.13" stroke-miterlimit="10"/>
<path d="M168.741 46.5806C168.721 46.6306 168.701 46.6906 168.701 46.7506C168.701 46.8106 168.701 46.8606 168.731 46.9206C168.311 46.9806 167.941 47.0406 167.611 47.1006C167.291 47.1606 167.031 47.2206 166.831 47.2706C166.831 47.2106 166.831 47.1506 166.801 47.0806C166.781 47.0106 166.751 46.9506 166.701 46.8806C166.811 46.8806 166.941 46.8706 167.101 46.8506C167.261 46.8306 167.431 46.8106 167.611 46.7906C167.791 46.7706 167.981 46.7306 168.181 46.7006C168.371 46.6606 168.561 46.6306 168.741 46.5906V46.5806ZM167.391 44.6906C167.261 44.6906 167.151 44.7106 167.071 44.7206C166.991 44.7306 166.921 44.7506 166.861 44.7706C166.861 44.6506 166.821 44.5406 166.751 44.4406C166.801 44.4306 166.851 44.4006 166.901 44.3706C166.951 44.3406 167.001 44.2706 167.061 44.1706C167.181 43.9806 167.311 43.7606 167.451 43.5006C167.591 43.2406 167.721 42.9606 167.851 42.6406C167.911 42.7006 167.971 42.7506 168.031 42.7806C168.091 42.8106 168.151 42.8406 168.211 42.8606C168.261 42.8806 168.291 42.9006 168.281 42.9306C168.281 42.9606 168.251 42.9806 168.201 43.0006C168.171 43.0006 168.141 43.0306 168.101 43.0606C168.071 43.0906 168.021 43.1506 167.951 43.2506C167.891 43.3406 167.801 43.4906 167.691 43.6706C167.581 43.8606 167.431 44.1106 167.241 44.4306L168.081 44.4106C168.181 44.2606 168.261 44.1106 168.331 43.9806C168.401 43.8506 168.461 43.7206 168.501 43.6106C168.551 43.6606 168.611 43.7006 168.671 43.7306C168.731 43.7606 168.791 43.7906 168.851 43.8006C168.901 43.8106 168.921 43.8306 168.921 43.8606C168.921 43.8906 168.881 43.9206 168.821 43.9506C168.801 43.9506 168.771 43.9806 168.721 44.0306C168.681 44.0706 168.611 44.1606 168.511 44.2906C168.411 44.4206 168.281 44.6006 168.111 44.8406C167.941 45.0806 167.711 45.4006 167.431 45.7906L168.601 45.6306C168.591 45.6806 168.581 45.7306 168.571 45.7706C168.571 45.8106 168.571 45.8606 168.571 45.9206L167.461 46.0506C167.401 46.0506 167.351 46.0706 167.311 46.0706C167.271 46.0706 167.231 46.0906 167.191 46.0906C167.161 46.0906 167.121 46.1106 167.091 46.1206C167.061 46.1306 167.021 46.1406 166.981 46.1606C166.981 46.1006 166.961 46.0406 166.941 45.9806C166.921 45.9206 166.891 45.8606 166.861 45.8006C166.911 45.7906 166.961 45.7606 167.001 45.7406C167.041 45.7206 167.101 45.6606 167.171 45.5906C167.241 45.5106 167.331 45.4006 167.441 45.2606C167.551 45.1206 167.701 44.9106 167.881 44.6606L167.361 44.6906H167.391ZM169.581 45.2406C169.441 45.2406 169.301 45.2406 169.171 45.2606C169.041 45.2606 168.921 45.2806 168.811 45.2906V44.9306C168.921 44.9306 169.041 44.9406 169.181 44.9506C169.321 44.9506 169.461 44.9506 169.611 44.9506L169.741 43.3206C169.571 43.3206 169.411 43.3206 169.271 43.3406C169.121 43.3406 168.991 43.3606 168.851 43.3806V42.9906C168.981 43.0106 169.151 43.0306 169.351 43.0406C169.551 43.0406 169.821 43.0506 170.151 43.0506C170.481 43.0506 170.771 43.0506 170.981 43.0406C171.191 43.0406 171.361 43.0206 171.501 42.9906C171.481 43.0906 171.461 43.2006 171.451 43.3306C171.441 43.4606 171.431 43.6206 171.421 43.8206L171.271 47.0706C171.421 47.0706 171.551 47.0706 171.671 47.0606C171.791 47.0606 171.891 47.0406 171.961 47.0306V47.4206C171.831 47.4006 171.621 47.3906 171.331 47.3806C171.041 47.3806 170.641 47.3706 170.141 47.3706C169.891 47.3706 169.671 47.3706 169.491 47.3706C169.311 47.3706 169.161 47.3706 169.031 47.3706C168.901 47.3706 168.801 47.3706 168.711 47.3906C168.631 47.3906 168.551 47.4006 168.491 47.4106V47.0206C168.601 47.0406 168.721 47.0506 168.871 47.0506C169.011 47.0506 169.201 47.0606 169.441 47.0706L169.591 45.2306L169.581 45.2406ZM169.911 45.2406L169.761 47.0806H170.931L171.011 45.2406H169.911ZM171.021 44.9506L171.101 43.3206H170.071L169.931 44.9506H171.021V44.9506Z" stroke="#003064" stroke-width="0.13" stroke-miterlimit="10"/>
<path d="M42.28 54.0203L38.92 48.4603C38.92 48.4603 38.82 48.3303 38.82 48.1203V37.8203H37.55V48.4503C37.66 48.5503 39.77 52.1303 39.77 52.1303H34.52C34.52 52.1303 36.64 48.5503 36.74 48.4503V37.8203H35.47V48.1203C35.47 48.3303 35.36 48.4603 35.36 48.4603L32 54.0203H42.28V54.0203Z" fill="#B18B24"/>
<path d="M41.2306 30.61C41.2306 30.61 41.8606 28.01 39.6006 26.31C39.6006 26.31 38.7006 25.5 36.9806 25.5C35.4406 25.5 34.5406 26.31 34.5406 26.31C32.4606 27.74 33.0006 30.61 33.0006 30.61H41.2206H41.2306Z" fill="#B18B24"/>
<path d="M33.2692 31.3299H40.9991C41.0591 31.1799 41.1091 31.0299 41.1591 30.8799H33.1191C33.1591 31.0299 33.2191 31.1799 33.2791 31.3299" fill="#B18B24"/>
<path d="M40.8706 31.5996H33.3906C33.4706 31.7596 33.5506 31.9096 33.6506 32.0496H40.6206C40.7106 31.9096 40.8006 31.7596 40.8806 31.5996" fill="#B18B24"/>
<path d="M34.1501 32.6696H40.1001C40.2101 32.5596 40.3201 32.4396 40.4101 32.3096H33.8301C33.9301 32.4296 34.0301 32.5496 34.1401 32.6696" fill="#B18B24"/>
<path d="M34.7995 33.2104H39.4695C39.5895 33.1304 39.7095 33.0404 39.8195 32.9404H34.4395C34.5495 33.0404 34.6695 33.1304 34.7895 33.2104" fill="#B18B24"/>
<path d="M35.4395 33.5703C35.9595 33.8003 36.5295 33.9303 37.1295 33.9303C37.7295 33.9303 38.2995 33.8003 38.8195 33.5703H35.4395Z" fill="#B18B24"/>
<path d="M45.1494 34.1299H38.8194C38.8194 34.1299 38.2294 34.1299 37.7694 34.4499C37.4094 34.6999 37.1494 35.2699 37.1394 35.2899C37.1394 35.2899 36.8694 34.6899 36.5094 34.4499C36.0394 34.1299 35.4594 34.1299 35.4594 34.1299H29.1294L27.8594 36.1399H33.6494C33.6494 36.1399 33.8194 36.1399 33.9294 36.1599C34.0994 36.1899 34.3994 36.2799 34.7094 36.4999C35.1394 36.8099 35.2594 36.9599 35.3594 37.0699C35.4094 37.1199 35.5494 37.2999 35.5494 37.2999H38.7094C38.7094 37.2999 38.8494 37.1199 38.8994 37.0699C39.0094 36.9599 39.1294 36.8099 39.5494 36.4999C39.8594 36.2799 40.1594 36.1899 40.3294 36.1599C40.4294 36.1399 40.6094 36.1399 40.6094 36.1399H46.3994L45.1294 34.1299H45.1494Z" fill="#0A3271"/>
<path d="M28.4902 36.7397V46.2797C28.4902 46.3797 28.4902 46.4797 28.5102 46.5597C28.6202 47.5697 28.9302 48.3097 29.5202 49.2897C30.4502 50.8297 32.1302 51.8997 32.1302 51.8997L32.9302 50.6397C32.9302 50.6397 31.8502 50.0697 30.9902 48.7597C30.8202 48.4997 30.6402 48.2597 30.5302 48.0097C30.4202 47.7797 30.3302 47.5897 30.2702 47.3897C30.2202 47.2497 30.1802 47.1097 30.1502 46.9897C30.1102 46.8097 30.0902 46.6797 30.0802 46.5197C30.0802 46.4597 30.0702 46.2197 30.0702 46.2197V36.7197H28.5002L28.4902 36.7397Z" fill="#0A3271"/>
<path d="M30.9004 36.7402V46.2402C30.9004 46.2402 30.9004 46.2802 30.9004 46.3202C30.9004 46.3702 30.9004 46.4402 30.9204 46.4902C30.9204 46.5202 30.9304 46.5602 30.9404 46.5902C30.9704 46.7402 31.0004 46.8702 31.0704 47.0702C31.1804 47.3902 31.3704 47.7802 31.6504 48.2202C32.3604 49.3602 33.3904 49.8802 33.3904 49.8802L34.1804 48.6602C34.1804 48.6602 33.9204 48.5202 33.6004 48.2102C33.3904 48.0102 33.1404 47.7402 32.9204 47.4302C32.7104 47.1102 32.5804 46.7802 32.5104 46.5302C32.4504 46.3302 32.4404 46.1602 32.4304 46.0502C32.4304 45.9602 32.4304 45.9102 32.4304 45.9102V36.7402H30.9104H30.9004Z" fill="#0A3271"/>
<path d="M45.7798 36.7397V46.2797C45.7798 46.3797 45.7799 46.4797 45.7599 46.5597C45.6499 47.5697 45.3398 48.3097 44.7498 49.2897C43.8198 50.8297 42.1399 51.8997 42.1399 51.8997L41.3398 50.6397C41.3398 50.6397 42.4198 50.0697 43.2798 48.7597C43.4498 48.4997 43.6299 48.2597 43.7399 48.0097C43.8499 47.7797 43.9398 47.5897 43.9998 47.3897C44.0498 47.2497 44.0898 47.1097 44.1198 46.9897C44.1598 46.8097 44.1798 46.6797 44.1898 46.5197C44.1898 46.4597 44.1999 46.2197 44.1999 46.2197V36.7197H45.7699L45.7798 36.7397Z" fill="#0A3271"/>
<path d="M43.3698 36.7402V46.2402C43.3698 46.2402 43.3698 46.2802 43.3698 46.3202C43.3698 46.3702 43.3699 46.4402 43.3499 46.4902C43.3499 46.5202 43.3399 46.5602 43.3299 46.5902C43.2999 46.7402 43.2699 46.8702 43.1999 47.0702C43.0899 47.3902 42.8998 47.7802 42.6198 48.2202C41.9098 49.3602 40.8799 49.8802 40.8799 49.8802L40.0898 48.6602C40.0898 48.6602 40.3499 48.5202 40.6699 48.2102C40.8799 48.0102 41.1299 47.7402 41.3499 47.4302C41.5599 47.1102 41.6899 46.7802 41.7599 46.5302C41.8199 46.3302 41.8298 46.1602 41.8398 46.0502C41.8398 45.9602 41.8398 45.9102 41.8398 45.9102V36.7402H43.3599H43.3698Z" fill="#0A3271"/>
<path d="M50.6602 49.2197V49.7497H51.7702V53.8697H52.3602V49.7497H53.4702V49.2197H50.6602Z" fill="#0A3271"/>
<path d="M53.9902 49.2197V53.8697H56.5102V53.3397H54.5802V51.5797H56.4502V51.0497H54.5802V49.7497H56.5102V49.2197H53.9902Z" fill="#0A3271"/>
<path d="M60.7091 50.1101C60.3691 49.8101 59.9091 49.6501 59.4691 49.6501C58.4191 49.6501 57.619 50.5201 57.619 51.5501C57.619 52.5801 58.4191 53.4401 59.4591 53.4401C59.9191 53.4401 60.3591 53.2701 60.7091 52.9601V53.6401C60.3491 53.8501 59.8891 53.9701 59.4791 53.9701C58.1391 53.9701 57.0391 52.9201 57.0391 51.5701C57.0391 50.2201 58.1491 49.1201 59.5291 49.1201C59.9391 49.1201 60.3591 49.2201 60.7091 49.4401V50.1101V50.1101Z" fill="#0A3271"/>
<path d="M64.2299 49.2197V51.0997H61.9999V49.2197H61.4199V53.8697H61.9999V51.6397H64.2299V53.8697H64.8199V49.2197H64.2299Z" fill="#0A3271"/>
<path d="M65.6699 53.87H66.2499V50.41L69.7699 54.06V49.22H69.1899V52.66L65.6699 49V53.87Z" fill="#0A3271"/>
<path d="M74.6701 51.5499C74.6701 50.5299 73.9001 49.6699 72.8001 49.6699C71.7001 49.6699 70.9301 50.5299 70.9301 51.5499C70.9301 52.5699 71.7901 53.4299 72.8001 53.4299C73.8101 53.4299 74.6701 52.6099 74.6701 51.5499ZM75.2501 51.5499C75.2501 52.9299 74.1501 53.9699 72.7901 53.9699C71.4301 53.9699 70.3301 52.9299 70.3301 51.5499C70.3301 50.1699 71.4401 49.1299 72.7901 49.1299C74.1401 49.1299 75.2501 50.2199 75.2501 51.5499Z" fill="#0A3271"/>
<path d="M75.8809 49.2197V53.8697H77.8909V53.3397H76.4609V49.2197H75.8809Z" fill="#0A3271"/>
<path d="M82.3302 51.5499C82.3302 50.5299 81.5602 49.6699 80.4602 49.6699C79.3602 49.6699 78.5902 50.5299 78.5902 51.5499C78.5902 52.5699 79.4502 53.4299 80.4602 53.4299C81.4702 53.4299 82.3302 52.6099 82.3302 51.5499ZM82.9102 51.5499C82.9102 52.9299 81.8102 53.9699 80.4502 53.9699C79.0902 53.9699 77.9902 52.9299 77.9902 51.5499C77.9902 50.1699 79.1002 49.1299 80.4502 49.1299C81.8002 49.1299 82.9102 50.2199 82.9102 51.5499Z" fill="#0A3271"/>
<path d="M87.8205 51.5301V51.7101C87.8205 52.9901 86.9105 53.9701 85.6005 53.9701C84.2905 53.9701 83.2305 52.8501 83.2305 51.5601C83.2305 50.2701 84.3105 49.1201 85.6605 49.1201C86.3905 49.1201 87.1105 49.4501 87.5705 50.0201L87.1605 50.4101C86.8305 49.9501 86.2605 49.6501 85.6905 49.6501C84.6405 49.6501 83.8205 50.5001 83.8205 51.5401C83.8205 52.5101 84.6305 53.4401 85.6405 53.4401C86.3705 53.4401 87.1505 52.8201 87.1805 52.0601H85.9705V51.5301H87.8305H87.8205Z" fill="#0A3271"/>
<path d="M90.9507 49.2197L89.8007 51.2097L88.6507 49.2197H87.9707L89.5007 51.8497V53.8697H90.0907V51.8497L91.6207 49.2197H90.9507Z" fill="#0A3271"/>
<path d="M51.9498 39.0797H51.3698V34.9597H50.2598V34.4297H53.0698V34.9597H51.9498V39.0797Z" fill="#0A3271"/>
<path d="M56.3591 36.2997V34.4297H56.9391V39.0797H56.3591V36.8397H54.119V39.0797H53.5391V34.4297H54.119V36.2997H56.3591Z" fill="#0A3271"/>
<path d="M57.8496 34.4297H60.3696V34.9597H58.4296V36.2597H60.3096V36.7897H58.4296V38.5497H60.3696V39.0797H57.8496V34.4297Z" fill="#0A3271"/>
<path d="M65.7809 36.2997V34.4297H66.3609V39.0797H65.7809V36.8397H63.5509V39.0797H62.9609V34.4297H63.5509V36.2997H65.7809Z" fill="#0A3271"/>
<path d="M71.2697 36.7501C71.2697 35.7301 70.4997 34.8701 69.3997 34.8701C68.2997 34.8701 67.5297 35.7301 67.5297 36.7501C67.5297 37.7701 68.3897 38.6301 69.3997 38.6301C70.4097 38.6301 71.2697 37.8101 71.2697 36.7501ZM71.8497 36.7501C71.8497 38.1301 70.7497 39.1701 69.3897 39.1701C68.0297 39.1701 66.9297 38.1301 66.9297 36.7501C66.9297 35.3701 68.0397 34.3301 69.3897 34.3301C70.7397 34.3301 71.8497 35.4201 71.8497 36.7501Z" fill="#0A3271"/>
<path d="M72.4297 34.21L75.9497 37.86V34.43H76.5297V39.27L73.0097 35.61V39.08H72.4297V34.21Z" fill="#0A3271"/>
<path d="M81.6994 36.7303V36.9103C81.6994 38.1903 80.7894 39.1703 79.4794 39.1703C78.1694 39.1703 77.1094 38.0503 77.1094 36.7603C77.1094 35.4703 78.1894 34.3203 79.5394 34.3203C80.2694 34.3203 80.9894 34.6503 81.4494 35.2203L81.0394 35.6103C80.7094 35.1503 80.1394 34.8503 79.5694 34.8503C78.5194 34.8503 77.6994 35.6903 77.6994 36.7403C77.6994 37.7203 78.5094 38.6403 79.5194 38.6403C80.2494 38.6403 81.0294 38.0203 81.0594 37.2603H79.8494V36.7303H81.7094H81.6994Z" fill="#0A3271"/>
<path d="M86.7692 34.4297H87.5392L85.4292 36.5197L87.5692 39.0797H86.7792L85.0192 36.9097L84.7792 37.1297V39.0797H84.1992V34.4297H84.7792V36.4397L86.7692 34.4297Z" fill="#0A3271"/>
<path d="M91.9904 36.7501C91.9904 35.7301 91.2204 34.8701 90.1204 34.8701C89.0204 34.8701 88.2504 35.7301 88.2504 36.7501C88.2504 37.7701 89.1104 38.6301 90.1204 38.6301C91.1304 38.6301 91.9904 37.8101 91.9904 36.7501ZM92.5704 36.7501C92.5704 38.1301 91.4704 39.1701 90.1104 39.1701C88.7504 39.1701 87.6504 38.1301 87.6504 36.7501C87.6504 35.3701 88.7604 34.3301 90.1104 34.3301C91.4604 34.3301 92.5704 35.4201 92.5704 36.7501Z" fill="#0A3271"/>
<path d="M93.1406 34.21L96.6606 37.86V34.43H97.2506V39.27L93.7306 35.61V39.08H93.1406V34.21Z" fill="#0A3271"/>
<path d="M102.42 36.7303V36.9103C102.42 38.1903 101.51 39.1703 100.2 39.1703C98.8901 39.1703 97.8301 38.0503 97.8301 36.7603C97.8301 35.4703 98.9101 34.3203 100.26 34.3203C100.99 34.3203 101.71 34.6503 102.17 35.2203L101.76 35.6103C101.42 35.1503 100.86 34.8503 100.29 34.8503C99.2401 34.8503 98.4201 35.6903 98.4201 36.7403C98.4201 37.7203 99.2301 38.6403 100.24 38.6403C100.97 38.6403 101.75 38.0203 101.78 37.2603H100.57V36.7303H102.43H102.42Z" fill="#0A3271"/>
<path d="M100.301 51.5304V51.7104C100.301 52.9904 99.3909 53.9704 98.0809 53.9704C96.7709 53.9704 95.7109 52.8504 95.7109 51.5504C95.7109 50.2504 96.7909 49.1104 98.1509 49.1104C98.8809 49.1104 99.6009 49.4404 100.061 50.0104L99.6509 50.4004C99.3109 49.9404 98.7509 49.6404 98.1709 49.6404C97.1209 49.6404 96.2909 50.4904 96.2909 51.5304C96.2909 52.5104 97.1009 53.4304 98.1109 53.4304C98.8409 53.4304 99.6209 52.8104 99.6509 52.0504H98.4409V51.5204H100.301V51.5304Z" fill="#0A3271"/>
<path d="M101.44 49.2197V51.9697C101.44 52.7297 101.67 53.4297 102.57 53.4297C103.47 53.4297 103.7 52.7297 103.7 51.9697V49.2197H104.28V52.1697C104.28 53.1997 103.64 53.9797 102.56 53.9797C101.48 53.9797 100.84 53.1997 100.84 52.1697V49.2197H101.43H101.44Z" fill="#0A3271"/>
<path d="M106.91 50.2995L107.74 52.1795H106.07L106.9 50.2995H106.91ZM104.67 53.8795H105.3L105.84 52.7095H108L108.54 53.8795H109.17L106.93 49.0195L104.69 53.8795H104.67Z" fill="#0A3271"/>
<path d="M109.539 53.88H110.129V50.41L113.659 54.07V49.22H113.069V52.66L109.539 49V53.88Z" fill="#0A3271"/>
<path d="M118.83 51.5304V51.7104C118.83 52.9904 117.92 53.9704 116.61 53.9704C115.3 53.9704 114.24 52.8504 114.24 51.5504C114.24 50.2504 115.32 49.1104 116.68 49.1104C117.41 49.1104 118.13 49.4404 118.59 50.0104L118.18 50.4004C117.84 49.9404 117.28 49.6404 116.7 49.6404C115.65 49.6404 114.82 50.4904 114.82 51.5304C114.82 52.5104 115.63 53.4304 116.64 53.4304C117.37 53.4304 118.15 52.8104 118.18 52.0504H116.97V51.5204H118.83V51.5304Z" fill="#0A3271"/>
<path d="M119.41 49.2197V49.7497H121.45L119.07 53.8797H122.41V53.3497H120.03L122.41 49.2197H119.41Z" fill="#0A3271"/>
<path d="M125.73 49.2197V51.0997H123.5V49.2197H122.91V53.8797H123.5V51.6397H125.73V53.8797H126.32V49.2197H125.73Z" fill="#0A3271"/>
<path d="M131.231 51.5501C131.231 50.5201 130.461 49.6701 129.351 49.6701C128.241 49.6701 127.471 50.5301 127.471 51.5501C127.471 52.5701 128.331 53.4301 129.351 53.4301C130.371 53.4301 131.231 52.6101 131.231 51.5501ZM131.811 51.5501C131.811 52.9301 130.711 53.9801 129.351 53.9801C127.991 53.9801 126.891 52.9401 126.891 51.5501C126.891 50.1601 128.011 49.1201 129.351 49.1201C130.691 49.1201 131.811 50.2101 131.811 51.5501Z" fill="#0A3271"/>
<path d="M132.949 49.2197V51.9697C132.949 52.7297 133.179 53.4297 134.079 53.4297C134.979 53.4297 135.209 52.7297 135.209 51.9697V49.2197H135.799V52.1697C135.799 53.1997 135.159 53.9797 134.079 53.9797C132.999 53.9797 132.359 53.1997 132.359 52.1697V49.2197H132.949Z" fill="#0A3271"/>
<path d="M94.9495 48.79C94.6995 49.27 94.5195 49.66 94.4095 49.96C94.2395 50.47 94.1495 51 94.1495 51.55C94.1495 52.43 94.4195 53.35 94.9495 54.29H94.5195C94.2295 53.9 93.9895 53.47 93.7995 52.98C93.6195 52.49 93.5195 52.01 93.5195 51.53C93.5195 50.88 93.6895 50.23 94.0195 49.6C94.1995 49.26 94.3695 48.99 94.5195 48.79H94.9495Z" fill="#0A3271"/>
<path d="M138.299 51.5498C138.299 52.1998 138.129 52.8398 137.799 53.4798C137.629 53.7898 137.469 54.0598 137.299 54.2898H136.869C137.119 53.8198 137.299 53.4298 137.409 53.1298C137.579 52.6198 137.669 52.0898 137.669 51.5398C137.669 50.6598 137.399 49.7398 136.869 48.7998H137.299C137.589 49.1798 137.829 49.6198 138.019 50.1198C138.209 50.6198 138.299 51.0998 138.299 51.5598" fill="#0A3271"/>
<path d="M51.1996 41.8301V44.5701C51.1996 45.3301 51.4296 46.0301 52.3296 46.0301C53.2296 46.0301 53.4596 45.3301 53.4596 44.5701V41.8301H54.0396V44.7701C54.0396 45.7901 53.3996 46.5801 52.3196 46.5801C51.2396 46.5801 50.5996 45.8001 50.5996 44.7701V41.8301H51.1796H51.1996Z" fill="#0A3271"/>
<path d="M54.9492 41.5996L58.4592 45.2596V41.8296H59.0492V46.6696L55.5292 43.0096V46.4696H54.9492V41.5996Z" fill="#0A3271"/>
<path d="M60.7695 41.8301H60.1895V46.4801H60.7695V41.8301Z" fill="#0A3271"/>
<path d="M63.2607 45.2703L64.6507 41.8203H65.2907L63.2607 46.7203L61.2207 41.8203H61.8607L63.2607 45.2703Z" fill="#0A3271"/>
<path d="M65.75 41.8301H68.27V42.3601H66.34V43.6601H68.22V44.1901H66.34V45.9401H68.27V46.4701H65.75V41.8301Z" fill="#0A3271"/>
<path d="M69.6406 44.0301H69.8306C70.4306 44.0301 71.0706 43.9201 71.0706 43.1801C71.0706 42.4401 70.3706 42.3501 69.8006 42.3501H69.6406V44.0301ZM71.9706 46.4801H71.2606L69.8806 44.5101H69.6406V46.4801H69.0605V41.8301H69.7706C70.1906 41.8301 70.6306 41.8301 71.0106 42.0501C71.4006 42.2801 71.6306 42.7201 71.6306 43.1601C71.6306 43.8301 71.1805 44.3801 70.5005 44.4601L71.9806 46.4801H71.9706Z" fill="#0A3271"/>
<path d="M74.6601 42.7105C74.4901 42.4205 74.2601 42.2705 73.9101 42.2705C73.5401 42.2705 73.1301 42.5205 73.1301 42.9305C73.1301 43.2905 73.4901 43.4905 73.7801 43.6005L74.1201 43.7305C74.7901 43.9905 75.2801 44.3505 75.2801 45.1305C75.2801 45.9805 74.6201 46.5805 73.7801 46.5805C73.0201 46.5805 72.4301 46.0205 72.3301 45.2805L72.9201 45.1605C72.9201 45.6705 73.3201 46.0405 73.8301 46.0405C74.3401 46.0405 74.7001 45.6205 74.7001 45.1305C74.7001 44.6405 74.3001 44.4105 73.8901 44.2505L73.5701 44.1105C73.0401 43.8805 72.5501 43.5805 72.5501 42.9305C72.5501 42.1805 73.2201 41.7305 73.9301 41.7305C74.4501 41.7305 74.8801 41.9805 75.1401 42.4305L74.6701 42.7105H74.6601Z" fill="#0A3271"/>
<path d="M76.6308 41.8301H76.0508V46.4801H76.6308V41.8301Z" fill="#0A3271"/>
<path d="M78.9695 46.4701H78.3795V42.3601H77.2695V41.8301H80.0795V42.3601H78.9695V46.4701Z" fill="#0A3271"/>
<path d="M80.2891 41.8301H80.9591L82.1091 43.8101L83.2591 41.8301H83.9391L82.4091 44.4501V46.4701H81.8191V44.4501L80.2891 41.8301Z" fill="#0A3271"/>
<path d="M90.3693 44.1505C90.3693 43.1305 89.5993 42.2705 88.4993 42.2705C87.3993 42.2705 86.6293 43.1305 86.6293 44.1505C86.6293 45.1705 87.4893 46.0305 88.4993 46.0305C89.5093 46.0305 90.3693 45.2105 90.3693 44.1505ZM90.9493 44.1505C90.9493 45.5305 89.8493 46.5705 88.4893 46.5705C87.1293 46.5705 86.0293 45.5305 86.0293 44.1505C86.0293 42.7705 87.1393 41.7305 88.4893 41.7305C89.8393 41.7305 90.9493 42.8205 90.9493 44.1505Z" fill="#0A3271"/>
<path d="M92.2499 42.3601V43.6601H93.8799V44.1901H92.2499V46.4701H91.6699V41.8301H93.9399V42.3601H92.2499Z" fill="#0A3271"/>
<path d="M98.9003 42.7105C98.7303 42.4205 98.5003 42.2705 98.1503 42.2705C97.7803 42.2705 97.3703 42.5205 97.3703 42.9305C97.3703 43.2905 97.7303 43.4905 98.0203 43.6005L98.3603 43.7305C99.0303 43.9905 99.5203 44.3505 99.5203 45.1305C99.5203 45.9805 98.8603 46.5805 98.0203 46.5805C97.2603 46.5805 96.6703 46.0205 96.5703 45.2805L97.1603 45.1605C97.1603 45.6705 97.5603 46.0405 98.0703 46.0405C98.5803 46.0405 98.9303 45.6205 98.9303 45.1305C98.9303 44.6405 98.5303 44.4105 98.1203 44.2505L97.8003 44.1105C97.2603 43.8805 96.7803 43.5805 96.7803 42.9305C96.7803 42.1805 97.4503 41.7305 98.1603 41.7305C98.6803 41.7305 99.1103 41.9805 99.3703 42.4305L98.9003 42.7105V42.7105Z" fill="#0A3271"/>
<path d="M103.77 42.7097C103.43 42.4097 102.97 42.2497 102.53 42.2497C101.48 42.2497 100.68 43.1197 100.68 44.1497C100.68 45.1797 101.48 46.0397 102.52 46.0397C102.98 46.0397 103.42 45.8697 103.77 45.5597V46.2397C103.41 46.4497 102.95 46.5697 102.54 46.5697C101.2 46.5697 100.1 45.5197 100.1 44.1697C100.1 42.8197 101.21 41.7197 102.59 41.7197C103 41.7197 103.42 41.8197 103.77 42.0297V42.6997V42.7097Z" fill="#0A3271"/>
<path d="M105.301 41.8301H104.721V46.4801H105.301V41.8301Z" fill="#0A3271"/>
<path d="M106.461 41.8301H108.981V42.3601H107.051V43.6601H108.931V44.1901H107.051V45.9401H108.981V46.4701H106.461V41.8301Z" fill="#0A3271"/>
<path d="M109.93 41.5996L113.45 45.2596V41.8296H114.03V46.6696L110.51 43.0096V46.4696H109.93V41.5996Z" fill="#0A3271"/>
<path d="M118.381 42.7097C118.041 42.4097 117.581 42.2497 117.141 42.2497C116.091 42.2497 115.291 43.1197 115.291 44.1497C115.291 45.1797 116.091 46.0397 117.131 46.0397C117.591 46.0397 118.031 45.8697 118.381 45.5597V46.2397C118.021 46.4497 117.561 46.5697 117.151 46.5697C115.811 46.5697 114.711 45.5197 114.711 44.1697C114.711 42.8197 115.821 41.7197 117.201 41.7197C117.611 41.7197 118.031 41.8197 118.381 42.0297V42.6997V42.7097Z" fill="#0A3271"/>
<path d="M119.23 41.8301H121.75V42.3601H119.81V43.6601H121.69V44.1901H119.81V45.9401H121.75V46.4701H119.23V41.8301Z" fill="#0A3271"/>
<path d="M126.711 42.9197L125.881 44.7996H127.551L126.721 42.9197H126.711ZM125.631 45.3297L125.101 46.4897H124.471L126.711 41.6396L128.951 46.4897H128.321L127.781 45.3297H125.631V45.3297Z" fill="#0A3271"/>
<path d="M129.471 41.6201L132.991 45.2801V41.8401H133.581V46.6801L130.061 43.0301V46.4901H129.471V41.6201Z" fill="#0A3271"/>
<path d="M135.051 45.9598H135.251C136.441 45.9598 137.481 45.5198 137.481 44.1598C137.481 42.7998 136.451 42.3698 135.251 42.3698H135.051V45.9598V45.9598ZM134.461 41.8398H135.431C136.871 41.8398 138.061 42.5898 138.061 44.1398C138.061 45.6898 136.891 46.4898 135.411 46.4898H134.461V41.8398Z" fill="#0A3271"/>
<path d="M53.3308 27.8903V29.0603H54.9108C54.2608 28.8103 53.7308 28.4103 53.3308 27.8903M51.4908 31.1503H54.6408V30.5903H51.4908V31.1503ZM54.6408 29.6003H51.4908V30.0803H54.6408V29.6003ZM51.2708 29.0703H52.7308V27.9003C52.3608 28.4203 51.8708 28.8103 51.2708 29.0703ZM55.2408 29.2203V31.9803H54.6508V31.6903H51.5008V31.9803H50.9008V29.2603C50.7908 29.3103 50.6108 29.3703 50.3608 29.4603L50.0508 28.8903C50.8308 28.7003 51.5008 28.3703 52.0808 27.8903H50.1008V27.3603H52.7308V26.8503C51.7708 26.8703 51.0808 26.8903 50.6608 26.8903L50.4508 26.3103C50.6908 26.3103 50.9908 26.3203 51.3508 26.3203C53.0508 26.3203 54.3408 26.2203 55.2108 26.0303L55.4908 26.5503C54.9108 26.6703 54.1908 26.7603 53.3308 26.8403V27.3703H56.0308V27.9003H53.9708C54.4608 28.3703 55.1608 28.6903 56.0808 28.8703L55.8008 29.4503C55.7208 29.4103 55.6208 29.3803 55.5208 29.3503C55.4208 29.3203 55.3208 29.2803 55.2408 29.2403" fill="#0A3271"/>
<path d="M61.2398 27.8698H62.4098V27.2498H61.2398V27.8698ZM61.3798 28.3998C61.2898 28.6198 61.1598 28.8098 60.9998 28.9698H62.6298C62.4898 28.8098 62.3598 28.6198 62.2398 28.3998H61.3798ZM60.8898 30.0998H62.3598V29.4798H60.8898V30.0998ZM59.7998 26.7098H60.6497V26.0498H61.2298V26.7098H62.3997V26.0498H62.9798V26.7098H64.0398V27.2098H62.9798V27.8598H64.1298V28.3898H62.9098C63.0798 28.7298 63.5098 29.0698 64.1998 29.4098L63.9198 29.9698C63.5298 29.7398 63.1998 29.5098 62.9498 29.2798V30.5798H60.8898V30.9898C60.8898 31.1398 60.9598 31.2098 61.1098 31.2098H63.0098C63.1898 31.2098 63.2998 31.1398 63.3298 31.0098C63.3598 30.8698 63.3997 30.6398 63.4297 30.3098L64.0498 30.5298C63.9798 31.1198 63.8898 31.4698 63.7698 31.5898C63.6598 31.6998 63.4398 31.7598 63.1098 31.7598H61.0398C60.7698 31.7598 60.5798 31.7098 60.4598 31.6098C60.3498 31.5098 60.2998 31.3098 60.2998 31.0198V29.5998C60.1898 29.6898 59.9998 29.8198 59.7098 29.9998L59.3498 29.4698C60.0598 29.1498 60.5098 28.7998 60.6898 28.3998H59.6698V27.8698H60.6497V27.2298H59.7998V26.8898L59.4098 27.3698C59.0598 27.0498 58.7398 26.7998 58.4598 26.6298L58.8798 26.1598C59.2398 26.3898 59.5498 26.5998 59.7998 26.7898V26.7098V26.7098ZM59.1797 28.9798C58.8297 28.6898 58.5398 28.4598 58.2798 28.2998L58.6598 27.8198C58.9598 27.9798 59.2798 28.1898 59.6098 28.4398L59.1797 28.9898V28.9798ZM59.5798 30.0098C59.4098 30.6998 59.1298 31.3298 58.7698 31.8998L58.2598 31.3798C58.6398 30.8498 58.8898 30.2898 59.0298 29.6898L59.5898 30.0098H59.5798Z" fill="#0A3271"/>
<path d="M70.6201 27.7105C70.1501 27.3305 69.7602 27.0605 69.4702 26.8805L69.8502 26.4605C70.1302 26.6105 70.5202 26.8705 71.0202 27.2305L70.6201 27.7105V27.7105ZM70.5102 29.2505C70.0702 28.8905 69.6801 28.6005 69.3401 28.4005L69.7202 27.9805C70.0402 28.1505 70.4301 28.4005 70.9001 28.7605L70.5002 29.2505H70.5102ZM69.1201 30.5405V29.9505L71.2702 29.6305V25.9805H71.8701V29.5605L72.4502 29.4705V30.0505L71.8701 30.1505V31.9705H71.2702V30.2205L69.1201 30.5405V30.5405ZM67.6402 26.9005C67.4102 26.9405 67.0801 26.9805 66.6501 27.0105L66.5202 26.4805C67.4802 26.4305 68.3002 26.2805 68.9802 26.0205L69.2002 26.5405C68.8902 26.6505 68.5702 26.7305 68.2302 26.8005V27.7005H69.2002V28.2505H68.2302V28.3105C68.7102 28.7505 69.0702 29.1005 69.3102 29.3605L68.9502 29.9105C68.8202 29.7305 68.6902 29.5705 68.5702 29.4305C68.4602 29.3005 68.3502 29.1605 68.2302 29.0105V31.9605L67.6402 31.9805V29.3705C67.4802 29.7805 67.1902 30.2505 66.7702 30.7905L66.4102 30.2205C66.9502 29.6205 67.3501 28.9605 67.6201 28.2605H66.4502V27.7105H67.6402V26.9205V26.9005Z" fill="#0A3271"/>
<path d="M76.9703 27.8802H76.2103V29.0002C76.5503 28.8902 76.8003 28.8002 76.9603 28.7202V29.3402C76.8303 29.4102 76.5803 29.5102 76.2103 29.6302V31.1902C76.2103 31.4902 76.1703 31.6902 76.0803 31.7902C75.9903 31.8902 75.7903 31.9402 75.4703 31.9402H74.9603L74.8103 31.3002L75.3703 31.3202C75.5103 31.3202 75.5803 31.2502 75.5803 31.1102V29.8202C75.2203 29.9102 74.9303 29.9802 74.7203 30.0402L74.5703 29.3502C74.9403 29.3002 75.2803 29.2402 75.5803 29.1602V27.8802H74.6303V27.3002H75.5803V26.0002H76.2103V27.3002H76.9703V26.8902H78.3503V25.9902H78.9903V26.8902H80.5003V27.4702H78.9903V28.3202H80.2803V28.8502C80.2203 29.0802 80.0803 29.3802 79.8603 29.7402C79.6403 30.1102 79.4103 30.4002 79.1603 30.6102C79.5903 30.9602 80.0703 31.2002 80.6103 31.3502L80.2803 31.9502C79.7203 31.7702 79.1903 31.4502 78.6903 31.0002C78.0203 31.5102 77.3703 31.8302 76.7603 31.9602L76.4103 31.3802C77.0203 31.2402 77.6403 30.9702 78.2503 30.5602C77.9203 30.2302 77.6003 29.7802 77.2803 29.2102L77.8103 29.0002C78.1003 29.5202 78.4003 29.9202 78.6903 30.2102C79.1203 29.8702 79.4303 29.4302 79.6203 28.9002H77.0803V28.3202H78.3503V27.4702H76.9703V27.8802V27.8802Z" fill="#0A3271"/>
<path d="M86.5802 28.2695C86.6802 28.7895 86.9102 29.3295 87.2702 29.8895C87.6302 30.4595 88.1302 30.9495 88.7702 31.3595L88.2802 31.9495C87.1302 31.1995 86.3402 29.9695 85.9102 28.2695H85.8102C85.5202 29.7995 84.6602 31.0295 83.2302 31.9595L82.7402 31.3595C83.3502 31.0195 83.8702 30.5695 84.3002 30.0095C84.7302 29.4495 85.0002 28.8695 85.1002 28.2795H82.8902V27.6095H85.2102C85.2702 27.2195 85.2902 26.6895 85.2902 26.0195H85.9602C85.9602 26.7495 85.9402 27.2795 85.9102 27.6095H88.6202V28.2795H86.5702L86.5802 28.2695Z" fill="#0A3271"/>
<path d="M101.469 25.9404C101.189 26.4704 100.989 26.9104 100.859 27.2404C100.669 27.8104 100.569 28.4004 100.569 29.0104C100.569 29.9904 100.869 31.0104 101.459 32.0704H100.979C100.659 31.6404 100.389 31.1504 100.179 30.6104C99.9691 30.0704 99.8691 29.5304 99.8691 29.0004C99.8691 28.2704 100.059 27.5604 100.429 26.8504C100.629 26.4804 100.809 26.1804 100.989 25.9504H101.469V25.9404Z" fill="#0A3271"/>
<path d="M116.36 25.9502H117V31.9702H116.36V25.9502V25.9502ZM115.61 29.4102C115.54 28.8402 115.35 28.2402 115.05 27.5802L115.61 27.3602C115.9 28.0302 116.11 28.6502 116.25 29.2102L115.61 29.4002V29.4102ZM114.31 26.0802H114.93V31.7602H114.31V26.0802ZM113.58 29.4602C113.44 28.6502 113.28 28.0402 113.08 27.6202L113.65 27.4002C113.88 28.0202 114.07 28.6502 114.2 29.2902L113.58 29.4602ZM111.72 31.8402L111.17 31.3302C111.56 31.0502 111.86 30.7002 112.08 30.2802C112.29 29.8502 112.4 29.1902 112.4 28.2902V26.0202H113.04V28.7302C113.04 30.0702 112.6 31.1102 111.73 31.8402M112.08 27.5102C112.03 28.1502 111.91 28.8102 111.7 29.4702L111.09 29.2302C111.33 28.7002 111.46 28.0802 111.49 27.3802L112.08 27.5102V27.5102Z" fill="#0A3271"/>
<path d="M120.321 29.0204C120.321 29.7404 120.131 30.4604 119.761 31.1704C119.581 31.5204 119.391 31.8204 119.201 32.0704H118.721C119.001 31.5404 119.201 31.1104 119.321 30.7704C119.511 30.2004 119.611 29.6104 119.611 29.0004C119.611 28.0204 119.311 27.0004 118.721 25.9404H119.201C119.521 26.3604 119.791 26.8504 120.001 27.4104C120.211 27.9604 120.321 28.5004 120.321 29.0204" fill="#0A3271"/>
<path d="M93.7392 25.9397C93.9592 26.2497 94.1692 26.5997 94.3592 26.9797L93.8091 27.2497C93.6191 26.8597 93.4091 26.5097 93.1791 26.1997L93.7392 25.9297V25.9397ZM92.1692 28.2497H95.6791V28.7897C95.2691 29.0597 94.8091 29.3097 94.3091 29.5497V29.7797H96.7292V30.3597H94.3091V31.3397C94.3091 31.7197 94.1092 31.9097 93.6992 31.9097H92.8792L92.7292 31.3597C92.9592 31.3597 93.2092 31.3697 93.4892 31.3697C93.6292 31.3697 93.6992 31.2897 93.6992 31.1197V30.3497H91.1392V29.7697H93.6992V29.2797C94.1592 29.0897 94.5192 28.9197 94.7892 28.7797H92.1791V28.2397L92.1692 28.2497ZM96.7191 27.2697V28.8197H96.1092V27.8497H91.7292V28.8197H91.1191V27.2697H92.2791C92.0791 26.9297 91.8692 26.6197 91.6392 26.3397L92.1992 26.0697C92.4192 26.3697 92.6392 26.6997 92.8492 27.0597L92.4291 27.2697H94.8592C95.1292 26.8697 95.3592 26.4397 95.5492 25.9797L96.1791 26.2097C95.9691 26.6297 95.7492 26.9797 95.5392 27.2697H96.7292H96.7191Z" fill="#0A3271"/>
<path d="M106.269 25.9004C106.379 26.1204 106.489 26.3604 106.589 26.6304H108.959V27.2404H104.119V28.6204C104.099 30.0604 103.889 31.2104 103.479 32.0804L102.949 31.6204C103.289 30.9004 103.469 29.9004 103.479 28.6204V26.6304H105.889C105.789 26.4104 105.679 26.2004 105.559 26.0204L106.259 25.9104L106.269 25.9004Z" fill="#0A3271"/>
</svg>
