<svg width="114" height="114" viewBox="0 0 114 114" fill="none" xmlns="http://www.w3.org/2000/svg">
<path d="M98.1054 0H15.4903C6.93579 0 0 6.93579 0 15.4903V98.1054C0 106.66 6.93579 113.596 15.4903 113.596H98.1054C106.66 113.596 113.596 106.66 113.596 98.1054V15.4903C113.596 6.93579 106.66 0 98.1054 0V0ZM103.269 98.1054C103.269 100.958 100.958 103.269 98.1054 103.269H33.1196L77.4516 58.9368L103.269 84.7527V98.1054V98.1054ZM103.269 70.1505L77.4516 44.3333L18.5148 103.269H15.4903C12.6375 103.269 10.3269 100.958 10.3269 98.1054V15.4903C10.3269 12.6375 12.6375 10.3269 15.4903 10.3269H98.1054C100.958 10.3269 103.269 12.6375 103.269 15.4903V70.1505V70.1505ZM36.1441 20.6538C27.5896 20.6538 20.6538 27.5896 20.6538 36.1441C20.6538 44.6986 27.5896 51.6344 36.1441 51.6344C44.6986 51.6344 51.6344 44.6986 51.6344 36.1441C51.6344 27.5896 44.6986 20.6538 36.1441 20.6538V20.6538ZM36.1441 41.3075C35.466 41.3076 34.7944 41.1742 34.1679 40.9147C33.5413 40.6553 32.972 40.275 32.4925 39.7955C32.0129 39.316 31.6325 38.7467 31.373 38.1202C31.1134 37.4937 30.9799 36.8222 30.9799 36.1441C30.9799 35.466 31.1134 34.7945 31.373 34.1679C31.6325 33.5414 32.0129 32.9722 32.4925 32.4927C32.972 32.0132 33.5413 31.6329 34.1679 31.3735C34.7944 31.114 35.466 30.9805 36.1441 30.9806C37.5134 30.9809 38.8265 31.525 39.7947 32.4933C40.7628 33.4616 41.3067 34.7748 41.3067 36.1441C41.3067 37.5134 40.7628 38.8266 39.7947 39.7949C38.8265 40.7632 37.5134 41.3073 36.1441 41.3075V41.3075Z" fill="white"/>
</svg>
