<svg width="110" height="114" viewBox="0 0 110 114" fill="none" xmlns="http://www.w3.org/2000/svg">
<path d="M109.092 41.7047C108.695 41.0913 108.152 40.5869 107.511 40.2377C106.869 39.8885 106.15 39.7057 105.42 39.7058H105.412H105.401C102.559 39.7058 100.052 39.3226 98.1059 38.8814L102.805 29.1053C103.125 28.4395 103.271 27.7033 103.229 26.9657C103.187 26.228 102.959 25.5131 102.566 24.8877C102.172 24.2621 101.626 23.7465 100.98 23.3891C100.333 23.0317 99.6057 22.8442 98.8666 22.844C94.0581 22.844 91.0934 22.3416 89.432 21.9087L96.3174 6.11658C97.0662 4.39922 96.6374 2.39388 95.2507 1.13523C93.8597 -0.127746 91.8225 -0.358044 90.1905 0.550721C74.5851 9.22271 56.3707 10.5176 46.9009 10.5176C41.3692 10.5176 37.8194 10.0931 37.7831 10.0889C35.9719 9.86701 34.2183 10.795 33.3756 12.4099L1.06462 74.5195C1.05309 74.5414 1.04166 74.5633 1.03057 74.5855C1.01914 74.608 1.00871 74.6311 0.997731 74.6538C0.979205 74.6923 0.960458 74.7306 0.943041 74.7697C0.918747 74.824 0.896116 74.8789 0.874041 74.9341C0.870713 74.9427 0.866941 74.9509 0.863613 74.9594C0.828005 75.0507 0.795483 75.1432 0.766103 75.2367L0.760556 75.255C0.738116 75.3271 0.71755 75.3999 0.698877 75.4732L0.69799 75.4766L0.69444 75.4901C-0.786963 80.9281 0.110931 86.2086 3.30026 90.7712C13.7322 105.698 47.8889 111.377 74.7048 113.51L75.571 113.581C75.6925 113.591 75.812 113.596 75.9315 113.596C77.6339 113.596 79.1976 112.599 79.9101 111.029L109.401 45.8775C109.702 45.2115 109.832 44.4806 109.778 43.7517C109.723 43.0228 109.488 42.3191 109.092 41.7047V41.7047ZM92.0869 31.2323L64.4028 88.8342C48.0984 89.2156 27.0489 87.45 16.2699 82.6865C21.485 83.2962 27.8685 83.8209 34.3975 83.8209C48.949 83.8209 59.383 81.1691 65.4118 75.9361C65.9032 75.5099 66.2931 74.9793 66.5531 74.383L85.9125 29.9807C87.3768 30.4578 89.3835 30.9267 92.0869 31.2323V31.2323ZM39.782 19.0297C41.5292 19.147 43.9591 19.2557 46.9009 19.2557C56.823 19.2557 70.3888 18.0653 83.7434 13.0925L58.9713 69.9094C54.4316 73.2971 45.9709 75.0827 34.3975 75.0827C25.6744 75.0827 17.0429 74.0544 11.5794 73.2416L39.782 19.0297V19.0297ZM73.2176 104.621C49.8192 102.613 31.6452 98.6774 20.6204 93.3822C33.319 96.9638 49.165 97.6341 59.2379 97.6341C62.8005 97.6341 65.64 97.5488 67.3638 97.4804C68.1568 97.4493 68.9264 97.2026 69.5897 96.767C70.2531 96.3314 70.7853 95.7233 71.1291 95.008L94.2442 46.9157C95.7696 47.3394 97.3179 47.6758 98.8815 47.9233L73.2176 104.621V104.621Z" fill="white"/>
</svg>
