<svg width="114" height="114" viewBox="0 0 114 114" fill="none" xmlns="http://www.w3.org/2000/svg">
<path d="M3.44488e-06 98.1157V15.5007C-0.00135315 13.4664 0.397973 11.4519 1.17518 9.57197C1.95239 7.69208 3.09226 5.98368 4.52971 4.54431C5.96716 3.10494 7.67404 1.9628 9.5529 1.18308C11.4318 0.403367 13.4458 0.0013557 15.48 0H36.1544C38.1888 0.00067735 40.2032 0.402226 42.0823 1.1817C43.9615 1.96117 45.6686 3.1033 47.1062 4.5428C48.5438 5.9823 49.6837 7.69097 50.4606 9.57117C51.2376 11.4514 51.6365 13.4662 51.6344 15.5007V25.1537L60.2135 16.5746C66.2676 10.5205 76.0833 10.5076 82.1271 16.5488L97.0443 31.4712C103.093 37.5176 103.078 47.3255 97.0185 53.3822L88.4446 61.9613H98.1054C106.659 61.9613 113.596 68.8906 113.596 77.4413V98.1157C113.596 106.661 106.651 113.596 98.1054 113.596H15.4903C6.93709 113.596 3.44488e-06 106.666 3.44488e-06 98.1157V98.1157ZM41.3075 35.4806V15.5007C41.3075 12.6349 39.0021 10.3269 36.1544 10.3269H15.48C14.8019 10.3282 14.1308 10.4631 13.5048 10.7239C12.8789 10.9846 12.3104 11.3661 11.8319 11.8465C11.3534 12.3269 10.9742 12.8969 10.716 13.5239C10.4577 14.1509 10.3255 14.8226 10.3269 15.5007V66.5774C10.6625 66.1643 11.024 65.7616 11.4112 65.3769L41.3075 35.4806V35.4806ZM29.4316 61.9613H73.8372L89.7174 46.0811C90.1993 45.6031 90.5822 45.0347 90.8443 44.4086C91.1064 43.7825 91.2425 43.1108 91.2449 42.4321C91.2473 41.7533 91.1159 41.0807 90.8582 40.4527C90.6006 39.8248 90.2217 39.2537 89.7432 38.7723L74.8234 23.8525C73.8502 22.8889 72.5346 22.3505 71.165 22.3553C69.7954 22.3602 68.4836 22.9079 67.5172 23.8783L29.4316 61.9613ZM10.3269 77.4413V98.1157C10.3269 100.961 12.6375 103.269 15.4903 103.269H98.1054C100.95 103.269 103.269 100.953 103.269 98.1157V77.4413C103.268 76.7639 103.134 76.0933 102.874 75.4677C102.614 74.8421 102.234 74.2739 101.754 73.7954C101.275 73.3168 100.706 72.9375 100.08 72.6789C99.4537 72.4203 98.7828 72.2875 98.1054 72.2882H15.4903C12.6453 72.2882 10.3269 74.604 10.3269 77.4413ZM25.8172 95.5237C23.7631 95.5237 21.7931 94.7077 20.3406 93.2552C18.8881 91.8027 18.072 89.8327 18.072 87.7785C18.072 85.7244 18.8881 83.7543 20.3406 82.3019C21.7931 80.8494 23.7631 80.0333 25.8172 80.0333C27.8714 80.0333 29.8414 80.8494 31.2939 82.3019C32.7464 83.7543 33.5624 85.7244 33.5624 87.7785C33.5624 89.8327 32.7464 91.8027 31.2939 93.2552C29.8414 94.7077 27.8714 95.5237 25.8172 95.5237Z" fill="white"/>
</svg>
