<svg width="114" height="93" viewBox="0 0 114 93" fill="none" xmlns="http://www.w3.org/2000/svg">
<path d="M30.6554 14.69C31.0168 14.184 31.4299 13.5592 31.9462 12.7227L33.4694 10.2133C37.7448 3.21166 40.8583 0 46.471 0H67.1247C72.7374 0 75.851 3.21166 80.1263 10.2133L81.6495 12.7227C82.1658 13.5592 82.5789 14.184 82.9404 14.69C83.183 15.0256 83.3947 15.2941 83.56 15.4903H98.1054C102.214 15.4903 106.154 17.1223 109.059 20.0273C111.964 22.9323 113.596 26.8724 113.596 30.9806V77.4516C113.596 81.5599 111.964 85.4999 109.059 88.4049C106.154 91.3099 102.214 92.9419 98.1054 92.9419H15.4903C11.382 92.9419 7.44201 91.3099 4.53701 88.4049C1.63201 85.4999 0 81.5599 0 77.4516V30.9806C0 26.8724 1.63201 22.9323 4.53701 20.0273C7.44201 17.1223 11.382 15.4903 15.4903 15.4903H30.0306C30.201 15.2941 30.4127 15.0256 30.6554 14.69ZM15.4903 25.8172C14.1209 25.8172 12.8076 26.3612 11.8392 27.3295C10.8709 28.2979 10.3269 29.6112 10.3269 30.9806V77.4516C10.3269 78.8211 10.8709 80.1344 11.8392 81.1027C12.8076 82.0711 14.1209 82.6151 15.4903 82.6151H98.1054C99.4748 82.6151 100.788 82.0711 101.756 81.1027C102.725 80.1344 103.269 78.8211 103.269 77.4516V30.9806C103.269 29.6112 102.725 28.2979 101.756 27.3295C100.788 26.3612 99.4748 25.8172 98.1054 25.8172H82.6151C79.1865 25.8172 76.8733 23.9377 74.5601 20.7209C73.9634 19.8825 73.3968 19.0231 72.8613 18.1443C72.5412 17.628 71.4672 15.8466 71.3123 15.6039C68.9836 11.783 67.5791 10.3269 67.1247 10.3269H46.471C46.0218 10.3269 44.6121 11.783 42.2783 15.6039C42.1285 15.8466 41.0545 17.6228 40.7292 18.1443C40.1973 19.0247 39.6341 19.8858 39.0408 20.7261C36.7224 23.9326 34.4092 25.8172 30.9806 25.8172H15.4903ZM92.9419 41.3075C93.6201 41.3076 94.2916 41.1742 94.9182 40.9147C95.5447 40.6553 96.114 40.275 96.5936 39.7955C97.0731 39.316 97.4535 38.7467 97.7131 38.1202C97.9726 37.4937 98.1062 36.8222 98.1062 36.1441C98.1062 35.466 97.9726 34.7945 97.7131 34.1679C97.4535 33.5414 97.0731 32.9722 96.5936 32.4927C96.114 32.0132 95.5447 31.6329 94.9182 31.3735C94.2916 31.114 93.6201 30.9805 92.9419 30.9806C91.5727 30.9809 90.2595 31.525 89.2914 32.4933C88.3232 33.4616 87.7793 34.7748 87.7793 36.1441C87.7793 37.5134 88.3232 38.8266 89.2914 39.7949C90.2595 40.7632 91.5727 41.3073 92.9419 41.3075V41.3075ZM56.7979 77.4516C53.4075 77.4516 50.0503 76.7838 46.918 75.4864C43.7858 74.189 40.9397 72.2873 38.5423 69.8899C36.145 67.4926 34.2433 64.6465 32.9459 61.5142C31.6484 58.3819 30.9806 55.0248 30.9806 51.6344C30.9806 48.2441 31.6484 44.8869 32.9459 41.7546C34.2433 38.6223 36.145 35.7762 38.5423 33.3789C40.9397 30.9815 43.7858 29.0799 46.918 27.7824C50.0503 26.485 53.4075 25.8172 56.7979 25.8172C63.645 25.8172 70.2117 28.5372 75.0534 33.3789C79.895 38.2206 82.6151 44.7873 82.6151 51.6344C82.6151 58.4816 79.895 65.0483 75.0534 69.8899C70.2117 74.7316 63.645 77.4516 56.7979 77.4516V77.4516ZM56.7979 67.1247C60.9061 67.1247 64.8462 65.4927 67.7512 62.5877C70.6562 59.6827 72.2882 55.7427 72.2882 51.6344C72.2882 47.5261 70.6562 43.5861 67.7512 40.6811C64.8462 37.7761 60.9061 36.1441 56.7979 36.1441C52.6896 36.1441 48.7495 37.7761 45.8445 40.6811C42.9395 43.5861 41.3075 47.5261 41.3075 51.6344C41.3075 55.7427 42.9395 59.6827 45.8445 62.5877C48.7495 65.4927 52.6896 67.1247 56.7979 67.1247V67.1247Z" fill="white"/>
</svg>
