<svg width="114" height="114" viewBox="0 0 114 114" fill="none" xmlns="http://www.w3.org/2000/svg">
<path d="M63.152 8.47694C63.152 13.1119 59.3053 16.9539 54.6703 16.9539C52.4287 16.934 50.2845 16.0344 48.6998 14.4488C47.1151 12.8632 46.2167 10.7186 46.1981 8.47694C46.1981 3.85618 50.059 0 54.6703 0C59.3053 0 63.152 3.86092 63.152 8.47694ZM54.6703 23.8779C49.6744 23.8779 45.823 27.7246 45.823 32.7395C45.823 37.7402 49.6696 41.5964 54.6798 41.5964C59.6805 41.5964 63.5367 37.7449 63.5367 32.7395C63.5367 27.7341 59.6188 23.8779 54.6323 23.8779H54.6703V23.8779ZM54.6703 47.7605C49.6744 47.7605 45.4335 51.9919 45.4335 56.9973C45.4335 62.0027 49.6791 66.2341 54.6798 66.2341C59.6805 66.2341 63.9213 62.0027 63.9213 56.9973C63.9213 51.9919 59.6757 47.7605 54.6798 47.7605H54.6703V47.7605ZM54.6703 72.0136C49.6744 72.0136 45.823 75.8603 45.823 80.8657C45.823 85.8711 49.6696 89.7273 54.6798 89.7273C55.8484 89.7459 57.0089 89.5294 58.0922 89.0906C59.1755 88.6518 60.1595 87.9997 60.9857 87.173C61.812 86.3463 62.4636 85.362 62.9018 84.2784C63.34 83.1949 63.5559 82.0343 63.5367 80.8657C63.5367 76.2497 59.6188 72.0136 54.6323 72.0136H54.6703V72.0136ZM54.6703 96.6656C52.4295 96.6854 50.2861 97.5844 48.7015 99.1689C47.1169 100.754 46.218 102.897 46.1981 105.138C46.2217 107.376 47.1223 109.516 48.7064 111.097C50.2906 112.679 52.4319 113.576 54.6703 113.596C59.3101 113.596 63.152 109.754 63.152 105.124C63.152 100.503 59.3053 96.6656 54.6703 96.6656ZM78.1683 22.7144C72.7734 22.7144 68.1574 27.3542 68.1574 32.7395C68.1574 38.1249 72.7782 42.7456 78.1683 42.7456C83.5584 42.7456 88.1697 38.1154 88.1697 32.7395C88.1697 27.3494 83.5536 22.7239 78.1683 22.7239V22.7144V22.7144ZM78.1683 46.6018C72.3935 46.6018 67.768 51.2225 67.768 57.0021C67.7636 58.3684 68.0297 59.7221 68.551 60.9851C69.0723 62.2481 69.8384 63.3955 70.8052 64.361C71.7721 65.3264 72.9204 66.091 74.1842 66.6106C75.4479 67.1301 76.8019 67.3944 78.1683 67.3881C79.535 67.3937 80.8894 67.1287 82.1532 66.6083C83.417 66.0879 84.5652 65.3224 85.5316 64.3559C86.4981 63.3895 87.2636 62.2412 87.784 60.9774C88.3044 59.7136 88.5695 58.3593 88.5638 56.9926C88.5688 55.6262 88.3034 54.2724 87.7826 53.0091C87.2619 51.7459 86.4963 50.5982 85.53 49.6323C84.5636 48.6663 83.4155 47.9013 82.1521 47.3811C80.8886 46.861 79.5346 46.5961 78.1683 46.6018V46.6018ZM78.1683 70.8596C72.7734 70.8596 68.1574 75.4946 68.1574 80.8657C68.1574 86.2558 72.7782 90.8813 78.1683 90.8813C83.5584 90.8813 88.1697 86.2463 88.1697 80.8657C88.1697 75.4851 83.5584 70.8596 78.1683 70.8596ZM102.417 45.4383C99.3566 45.4508 96.4257 46.6733 94.2637 48.8388C92.1017 51.0044 90.8841 53.9373 90.8766 56.9973C90.8766 63.1567 95.8678 68.5516 102.417 68.5516C108.975 68.5516 113.976 63.4939 113.976 56.9451C113.586 50.382 108.586 45.4003 102.417 45.4003V45.4383V45.4383ZM30.8019 25.0366C26.5658 25.0366 23.1086 28.5034 23.1086 32.7443C23.1086 36.9756 26.5706 40.4376 30.8019 40.4376C35.0428 40.4376 38.4905 36.9756 38.4905 32.7443C38.4905 28.5034 35.038 25.0509 30.8019 25.0509V25.0366ZM30.8019 48.9098C26.1812 48.9098 22.7144 52.3718 22.7144 56.9973C22.7144 61.6276 26.1384 65.0848 30.7639 65.0848C35.3894 65.0848 38.8135 61.6181 38.8135 56.9973C38.8135 52.3671 35.3229 48.9098 30.6927 48.9098H30.8019ZM30.8019 73.1629C26.5658 73.1629 23.1086 76.6344 23.1086 80.8562C23.1086 85.1066 26.5706 88.5638 30.8019 88.5638C35.0428 88.5638 38.4905 85.0733 38.4905 80.7992C38.4905 76.5251 35.038 73.1059 30.8019 73.1059V73.1629ZM6.93827 50.0685C3.07734 50.0685 0 53.1364 0 56.9973C0 60.844 3.07734 63.9261 6.93352 63.9261C10.7802 63.9261 13.8623 60.8487 13.8623 56.9973C13.8623 53.1459 10.7849 50.0685 6.93827 50.0685V50.0685Z" fill="white"/>
</svg>
