<svg width="57" height="114" viewBox="0 0 57 114" fill="none" xmlns="http://www.w3.org/2000/svg">
<path fill-rule="evenodd" clip-rule="evenodd" d="M5.27872 6.62641L13.9733 24.0155L0.0730141 84.2501C-0.0952241 85.0912 0.0355363 85.9922 0.380273 86.8255C0.523549 87.1935 0.716856 87.5499 0.960192 87.8865C1.25583 88.313 1.60875 88.6989 2.0032 89.0207L25.1582 112.176C26.1048 113.122 27.0515 113.596 28.4714 113.596C29.8914 113.596 30.838 113.122 31.7846 112.176L54.5261 89.4342C56.3892 88.4103 57.2555 86.1738 56.8708 84.2501L43.0448 24.3373L51.6636 7.09972C52.6102 5.67978 52.6102 3.78652 51.6636 2.36657C50.7169 0.946629 48.8237 0 47.4037 0H9.53855C8.11861 0 5.75203 0.946629 5.27872 2.36657C4.8054 3.78652 4.8054 5.20646 5.27872 6.62641ZM46.8743 83.8332L34.1517 28.3989H22.7921L10.0693 83.834L28.4714 102.236L46.8743 83.8332ZM21.8447 18.9326H35.0975L39.8307 9.46629H17.1116L21.8447 18.9326Z" fill="white"/>
</svg>
