<svg width="114" height="90" viewBox="0 0 114 90" fill="none" xmlns="http://www.w3.org/2000/svg">
<path fill-rule="evenodd" clip-rule="evenodd" d="M91.2823 27.3847L107.51 18.0409C110.211 16.4815 113.596 18.4339 113.596 21.5528V67.7137C113.596 70.8198 110.211 72.7723 107.51 71.2129L91.2823 61.8691V81.1398C91.2823 85.6152 87.6437 89.2538 83.1683 89.2538H8.11398C3.63861 89.2538 0 85.6152 0 81.1398V8.11398C0 3.63861 3.63861 0 8.11398 0H83.1683C87.6437 0 91.2823 3.63861 91.2823 8.11398V27.3847ZM9.12823 80.1255H82.154V9.12823H9.12823V80.1255ZM91.2823 51.3716L104.467 58.9531V30.3006L91.2823 37.8948V51.3716ZM32.4553 25.3563H18.2558C17.698 25.3563 17.2416 24.8999 17.2416 24.342V18.2566C17.2416 17.6987 17.698 17.2423 18.2558 17.2423H32.4553C33.0131 17.2423 33.4696 17.6987 33.4696 18.2566V24.342C33.4696 24.8999 33.0131 25.3563 32.4553 25.3563Z" fill="white"/>
</svg>
