<svg width="114" height="114" viewBox="0 0 114 114" fill="none" xmlns="http://www.w3.org/2000/svg">
<path d="M113.486 29.0088V1.13778C113.486 0.83602 113.367 0.546622 113.153 0.333248C112.94 0.119873 112.65 0 112.349 0H84.4777C84.176 0 83.8866 0.119873 83.6732 0.333248C83.4598 0.546622 83.3399 0.83602 83.3399 1.13778V9.94873H30.1466V1.13778C30.1466 0.83602 30.0267 0.546622 29.8133 0.333248C29.5999 0.119873 29.3105 0 29.0088 0H1.13778C0.83602 0 0.546622 0.119873 0.333248 0.333248C0.119873 0.546622 0 0.83602 0 1.13778V29.0088C0 29.6459 0.509724 30.1466 1.13778 30.1466H10.0944V83.3399H1.13778C0.83602 83.3399 0.546622 83.4598 0.333248 83.6732C0.119873 83.8866 0 84.176 0 84.4777V112.349C0 112.986 0.509724 113.486 1.13778 113.486H29.0088C29.3105 113.486 29.5999 113.367 29.8133 113.153C30.0267 112.94 30.1466 112.65 30.1466 112.349V103.392H83.3399V112.349C83.3399 112.986 83.8497 113.486 84.4777 113.486H112.349C112.65 113.486 112.94 113.367 113.153 113.153C113.367 112.94 113.486 112.65 113.486 112.349V84.4777C113.486 84.176 113.367 83.8866 113.153 83.6732C112.94 83.4598 112.65 83.3399 112.349 83.3399H103.392V30.1466H112.349C112.65 30.1466 112.94 30.0267 113.153 29.8133C113.367 29.5999 113.486 29.3105 113.486 29.0088ZM93.5799 10.24H103.246V19.9066H93.5799V10.24V10.24ZM10.24 10.24H19.9066V19.9066H10.24V10.24V10.24ZM19.9066 103.246H10.24V93.5799H19.9066V103.246ZM103.246 103.246H93.5799V93.5799H103.246V103.246ZM93.1521 83.3399H84.4777C84.176 83.3399 83.8866 83.4598 83.6732 83.6732C83.4598 83.8866 83.3399 84.176 83.3399 84.4777V93.1521H30.1466V84.4777C30.1466 84.176 30.0267 83.8866 29.8133 83.6732C29.5999 83.4598 29.3105 83.3399 29.0088 83.3399H20.3344V30.1466H29.0088C29.3105 30.1466 29.5999 30.0267 29.8133 29.8133C30.0267 29.5999 30.1466 29.3105 30.1466 29.0088V20.1887H83.3399V29.0179C83.3399 29.6368 83.8497 30.1466 84.4777 30.1466H93.1521V83.3399Z" fill="white"/>
</svg>
