<svg width="14" height="23" viewBox="0 0 14 23" fill="none" xmlns="http://www.w3.org/2000/svg">
<path d="M1.54972 0.23362C1.37047 0.0752671 1.13722 -0.00814624 0.898199 0.000628241C0.659181 0.00940272 0.432674 0.109694 0.265515 0.280764C0.0983567 0.451834 0.00333036 0.6806 8.58874e-05 0.919757C-0.00315858 1.15892 0.0856268 1.39017 0.248083 1.56572L0.316459 1.63223L11.5128 11.5002L0.316459 21.3681C0.143302 21.5207 0.0328964 21.7321 0.00660202 21.9614C-0.0196924 22.1907 0.0399934 22.4216 0.174112 22.6095L0.233786 22.6841C0.386387 22.8572 0.597786 22.9676 0.827087 22.9939C1.05639 23.0202 1.28729 22.9605 1.47513 22.8264L1.54972 22.7667L13.5392 12.1995C13.6322 12.1174 13.708 12.0176 13.7619 11.9059C13.8159 11.7942 13.847 11.6729 13.8535 11.549C13.86 11.4251 13.8417 11.3012 13.7997 11.1845C13.7577 11.0677 13.6928 10.9606 13.6088 10.8693L13.5392 10.8009L1.54972 0.23362Z" fill="#003366"/>
</svg>
