<svg width="180" height="60" viewBox="0 0 180 60" fill="none" xmlns="http://www.w3.org/2000/svg">
<path d="M27.3903 12.2698C27.6703 11.9198 27.7703 11.2798 27.7703 11.2798H10.8203C10.8203 11.2798 11.0303 11.9798 11.2003 12.2698H27.3903Z" fill="#AA8420"/>
<path d="M26.4098 13.7096C26.7198 13.4296 27.0498 12.8696 27.0498 12.8696H11.5098C11.5098 12.8696 11.6898 13.2896 12.0798 13.7096H26.4098Z" fill="#AA8420"/>
<path d="M25.1794 15.0099C25.5594 14.7999 25.8794 14.3799 25.8794 14.3799H12.6094C12.6094 14.3799 12.9194 14.7399 13.2394 15.0099H25.1894H25.1794Z" fill="#AA8420"/>
<path d="M23.6301 16.24C24.0101 16.09 24.4401 15.75 24.4401 15.75H14.0801C14.0801 15.75 14.0801 15.83 14.8101 16.24H23.6201H23.6301Z" fill="#AA8420"/>
<path d="M16.0098 17.0098C16.0098 17.0098 17.0998 17.6398 19.2398 17.6398C21.3798 17.6398 22.7498 17.0098 22.7498 17.0098H16.0098V17.0098Z" fill="#AA8420"/>
<path d="M15.83 18.4497C15.83 18.4497 17.13 18.5197 17.9 19.1097C18.64 19.7497 19.2 20.7997 19.2 20.7997C19.2 20.7997 19.66 19.7897 20.4 19.2597C21.13 18.6897 22.33 18.4497 22.33 18.4497H35.71L38.35 22.3497H26.33C26.33 22.3497 25.49 22.3897 24.22 23.1297C23.55 23.5097 23.06 24.1797 23.06 24.1797C23.06 24.1797 22.96 24.4997 22.82 24.6697C22.68 24.8497 22.57 24.9897 22.41 25.0597C22.23 25.1397 22.27 25.0897 22.27 25.0897H16.02C16.02 25.0897 15.77 24.9897 15.64 24.7697C15.49 24.5597 15.6 24.6297 15.46 24.4597C15.35 24.2797 15.11 23.8197 14.16 23.1897C13.17 22.5497 12.23 22.4897 12.23 22.4897H0L2.66 18.4497H15.83V18.4497Z" fill="#003477"/>
<path d="M6.38086 23.97V43.92C6.38086 43.92 6.45086 45.69 7.92086 48.06C9.40086 50.45 11.5409 51.55 11.5409 51.55L13.2309 48.91C13.2309 48.91 11.7609 48.03 10.6309 46.34C9.54086 44.66 9.54086 43.21 9.54086 43.21V23.96H6.38086V23.97Z" fill="#003477"/>
<path d="M29.0097 23.8999V43.1399C29.0097 43.1399 28.7597 45.0699 27.8497 46.4399C26.9397 47.8499 25.4297 48.9699 25.4297 48.9699L27.0497 51.5699C27.0497 51.5699 29.4997 49.7799 30.7097 47.8799C31.8997 45.9799 32.1797 43.1399 32.1797 43.1399V23.8999H29.0197H29.0097Z" fill="#003477"/>
<path d="M1.36914 23.97V44C1.36914 44 1.57914 47.09 3.49914 50.32C5.43914 53.55 8.93914 55.8 8.93914 55.8L10.5991 53.16C10.5991 53.16 8.34914 51.97 6.55914 49.22C4.71914 46.44 4.62914 43.91 4.62914 43.91V23.96H1.36914V23.97Z" fill="#003477"/>
<path d="M15.8299 26.0798V47.2198C15.8299 47.2198 15.7499 47.2998 15.7299 47.6098C15.6899 47.9298 15.4799 48.1398 15.4799 48.1398L8.41992 59.8398H30.0599L22.9999 47.8898L22.7899 47.3598L22.7199 46.7998V26.1098H20.0799V47.5798C20.0799 47.5798 20.0799 47.8898 20.1899 48.1398C20.2599 48.3898 20.3999 48.7698 20.3999 48.7698L24.7499 55.9298H13.7199L18.0099 48.7998C18.0099 48.7998 18.1499 48.5498 18.2599 48.1998C18.3399 47.8798 18.3699 47.5698 18.3699 47.5698V26.0698H15.8399L15.8299 26.0798Z" fill="#AA8420"/>
<path d="M33.8905 23.8997V43.5696C33.8905 43.5696 33.8605 46.0997 31.9905 49.0097C30.1205 51.9297 27.9805 53.1497 27.9805 53.1497L29.5605 55.8196C29.5605 55.8196 32.7905 53.7797 34.8305 50.5497C36.8305 47.3197 37.0805 43.5596 37.0805 43.5596V23.8896H33.8805L33.8905 23.8997Z" fill="#003477"/>
<path d="M10.6992 10.72C10.6992 10.72 9.60924 4.79 13.9692 1.83C13.9692 1.83 15.9392 0 19.1292 0C22.5392 0 24.5092 1.79 24.5092 1.79C29.2492 5.27 27.8392 10.72 27.8392 10.72H10.6992Z" fill="#AA8420"/>
<path d="M65.6699 34.1799H52.9899V24.4199H49.6699V48.6299H52.9899V37.0099H65.6699V48.6299H68.9899V24.4199H65.6699V34.1799Z" fill="#003477"/>
<path d="M99.9893 24.4199H95.6493L84.3493 34.9199V24.4199H81.0293V48.6299H84.3493V38.5199L85.6893 37.3599L95.7093 48.6299H100.199L88.0193 35.3099L99.9893 24.4199Z" fill="#003477"/>
<path d="M125.17 38.7099C125.17 42.6599 123.86 46.3199 118.74 46.3199C113.62 46.3199 112.31 42.6599 112.31 38.7099V24.4199H108.99V39.7299C108.99 45.0599 112.63 49.1299 118.74 49.1299C124.85 49.1299 128.48 45.0499 128.48 39.7299V24.4199H125.16V38.7099H125.17Z" fill="#003477"/>
<path d="M149.03 34.3099L147.13 33.6299C145.47 33.0499 143.42 32.0599 143.42 30.1599C143.42 28.0399 145.75 26.7299 147.87 26.7299C149.88 26.7299 151.15 27.4999 152.14 29.0099L154.79 27.5599C153.34 25.2199 150.91 23.8999 147.94 23.8999C143.91 23.8999 140.1 26.2399 140.1 30.1599C140.1 33.5299 142.86 35.1099 145.89 36.2899L147.73 36.9999C150.02 37.8699 152.32 38.9899 152.32 41.5899C152.32 44.1899 150.28 46.3099 147.41 46.3099C144.54 46.3099 142.22 44.3799 142.26 41.7199L138.9 42.3599C139.47 46.2399 142.82 49.1299 147.13 49.1299C151.89 49.1299 155.64 45.9799 155.64 41.5899C155.64 37.5499 152.81 35.6499 149.03 34.2999V34.3099Z" fill="#003477"/>
<path d="M164.039 24.4199V27.1899H170.359V48.6299H173.679V27.1899H179.999V24.4199H164.039Z" fill="#003477"/>
</svg>
