<svg width="211" height="76" viewBox="0 0 211 76" fill="none" xmlns="http://www.w3.org/2000/svg">
<path d="M4.28133 59.38H3.02132V50.41H0.611328V49.25H6.69133V50.41H4.28133V59.38Z" fill="#003874"/>
<path d="M13.8009 53.34V49.25H15.0609V59.38H13.8009V54.52H8.97095V59.38H7.71094V49.25H8.97095V53.34H13.8009Z" fill="#003874"/>
<path d="M17.0312 49.25H22.4713V50.41H18.2912V53.24H22.3512V54.4H18.2912V58.23H22.4713V59.38H17.0312V49.25Z" fill="#003874"/>
<path d="M34.1603 53.34V49.25H35.4303V59.38H34.1603V54.52H29.3403V59.38H28.0703V49.25H29.3403V53.34H34.1603Z" fill="#003874"/>
<path d="M46.0299 54.32C46.0299 52.09 44.3599 50.22 41.9799 50.22C39.5999 50.22 37.9299 52.09 37.9299 54.32C37.9299 56.55 39.7899 58.42 41.9799 58.42C44.1699 58.42 46.0299 56.63 46.0299 54.32ZM47.2899 54.32C47.2899 57.33 44.9099 59.6 41.9799 59.6C39.0499 59.6 36.6699 57.33 36.6699 54.32C36.6699 51.31 39.0799 49.04 41.9799 49.04C44.8799 49.04 47.2899 51.42 47.2899 54.32Z" fill="#003874"/>
<path d="M48.5312 48.76L56.1413 56.74V49.25H57.4112V59.8L49.8013 51.83V59.38H48.5312V48.76Z" fill="#003874"/>
<path d="M68.5802 54.27V54.67C68.5802 57.45 66.6202 59.59 63.7802 59.59C60.9402 59.59 58.6602 57.14 58.6602 54.34C58.6602 51.54 61.0002 49.03 63.9202 49.03C65.4902 49.03 67.0502 49.74 68.0502 50.99L67.1602 51.84C66.4302 50.84 65.2102 50.19 63.9702 50.19C61.7002 50.19 59.9202 52.03 59.9202 54.3C59.9202 56.43 61.6702 58.44 63.8602 58.44C65.4302 58.44 67.1302 57.08 67.1802 55.43H64.5602V54.27H68.5802V54.27Z" fill="#003874"/>
<path d="M79.5505 49.25H81.2005L76.6405 53.81L81.2805 59.38H79.5705L75.7505 54.67L75.2405 55.15V59.38H73.9805V49.25H75.2405V53.65L79.5505 49.25Z" fill="#003874"/>
<path d="M90.8209 54.32C90.8209 52.09 89.151 50.22 86.771 50.22C84.391 50.22 82.7209 52.09 82.7209 54.32C82.7209 56.55 84.581 58.42 86.771 58.42C88.961 58.42 90.8209 56.63 90.8209 54.32ZM92.0809 54.32C92.0809 57.33 89.701 59.6 86.771 59.6C83.841 59.6 81.4609 57.33 81.4609 54.32C81.4609 51.31 83.871 49.04 86.771 49.04C89.671 49.04 92.0809 51.42 92.0809 54.32Z" fill="#003874"/>
<path d="M93.3203 48.76L100.93 56.74V49.25H102.2V59.8L94.5903 51.83V59.38H93.3203V48.76Z" fill="#003874"/>
<path d="M113.371 54.27V54.67C113.371 57.45 111.411 59.59 108.571 59.59C105.731 59.59 103.451 57.14 103.451 54.34C103.451 51.54 105.791 49.03 108.711 49.03C110.281 49.03 111.841 49.74 112.841 50.99L111.951 51.84C111.221 50.84 110.001 50.19 108.761 50.19C106.491 50.19 104.711 52.03 104.711 54.3C104.711 56.43 106.461 58.44 108.651 58.44C110.221 58.44 111.921 57.08 111.971 55.43H109.351V54.27H113.371V54.27Z" fill="#003874"/>
<path d="M119.86 49.25V55.23C119.86 56.88 120.36 58.42 122.31 58.42C124.26 58.42 124.76 56.89 124.76 55.23V49.25H126.02V55.66C126.02 57.89 124.63 59.6 122.31 59.6C119.99 59.6 118.6 57.89 118.6 55.66V49.25H119.86Z" fill="#003874"/>
<path d="M127.781 48.76L135.391 56.74V49.25H136.651V59.8L129.041 51.83V59.38H127.781V48.76Z" fill="#003874"/>
<path d="M139.801 49.25H138.541V59.38H139.801V49.25Z" fill="#003874"/>
<path d="M145.191 56.75L148.201 49.25H149.581L145.191 59.92L140.781 49.25H142.161L145.191 56.75Z" fill="#003874"/>
<path d="M150.57 49.25H156.02V50.41H151.84V53.24H155.9V54.4H151.84V58.23H156.02V59.38H150.57V49.25Z" fill="#003874"/>
<path d="M158.98 54.05H159.38C160.67 54.05 162.07 53.81 162.07 52.19C162.07 50.57 160.57 50.38 159.32 50.38H158.98V54.05ZM164.02 59.38H162.49L159.51 55.09H158.99V59.38H157.73V49.25H159.26C160.16 49.25 161.13 49.26 161.94 49.72C162.79 50.22 163.27 51.17 163.27 52.14C163.27 53.59 162.3 54.8 160.84 54.97L164.04 59.38H164.02Z" fill="#003874"/>
<path d="M169.65 51.17C169.27 50.54 168.79 50.21 168.02 50.21C167.21 50.21 166.32 50.76 166.32 51.65C166.32 52.44 167.1 52.86 167.73 53.1L168.46 53.38C169.9 53.95 170.97 54.74 170.97 56.43C170.97 58.27 169.55 59.59 167.73 59.59C166.09 59.59 164.81 58.38 164.6 56.76L165.88 56.49C165.86 57.6 166.75 58.41 167.84 58.41C168.93 58.41 169.71 57.5 169.71 56.43C169.71 55.36 168.84 54.87 167.96 54.51L167.26 54.22C166.1 53.72 165.06 53.07 165.06 51.65C165.06 50.01 166.51 49.03 168.04 49.03C169.17 49.03 170.1 49.58 170.65 50.56L169.64 51.17H169.65Z" fill="#003874"/>
<path d="M173.721 49.25H172.461V59.38H173.721V49.25Z" fill="#003874"/>
<path d="M178.481 59.38H177.221V50.41H174.811V49.25H180.891V50.41H178.481V59.38Z" fill="#003874"/>
<path d="M180.971 49.25H182.421L184.911 53.58L187.401 49.25H188.851L185.541 54.97V59.38H184.271V54.97L180.971 49.25Z" fill="#003874"/>
<path d="M202.52 54.32C202.52 52.09 200.85 50.22 198.47 50.22C196.09 50.22 194.42 52.09 194.42 54.32C194.42 56.55 196.28 58.42 198.47 58.42C200.66 58.42 202.52 56.63 202.52 54.32ZM203.78 54.32C203.78 57.33 201.4 59.6 198.47 59.6C195.54 59.6 193.16 57.33 193.16 54.32C193.16 51.31 195.57 49.04 198.47 49.04C201.37 49.04 203.78 51.42 203.78 54.32Z" fill="#003874"/>
<path d="M206.391 50.41V53.25H209.911V54.41H206.391V59.38H205.121V49.25H210.031V50.41H206.391Z" fill="#003874"/>
<path d="M21.2998 67.2999C20.9198 66.6599 20.4398 66.3499 19.6698 66.3499C18.8598 66.3499 17.9798 66.8999 17.9798 67.7899C17.9798 68.5799 18.7598 68.9999 19.3898 69.2399L20.1198 69.5199C21.5598 70.0899 22.6298 70.8799 22.6298 72.5699C22.6298 74.4099 21.1998 75.7299 19.3898 75.7299C17.7498 75.7299 16.4698 74.5199 16.2598 72.8899L17.5398 72.6199C17.5298 73.7299 18.4098 74.5399 19.4998 74.5399C20.5898 74.5399 21.3698 73.6299 21.3698 72.5599C21.3698 71.4899 20.4998 70.9999 19.6198 70.6399L18.9198 70.3499C17.7598 69.8499 16.7098 69.1999 16.7098 67.7799C16.7098 66.1399 18.1598 65.1599 19.6898 65.1599C20.8198 65.1599 21.7498 65.7099 22.2998 66.6899L21.2898 67.2999H21.2998Z" fill="#003874"/>
<path d="M31.5301 67.3099C30.8001 66.6599 29.8101 66.3199 28.8501 66.3199C26.5801 66.3199 24.8401 68.2199 24.8401 70.4599C24.8401 72.6999 26.5601 74.5699 28.8201 74.5699C29.8101 74.5699 30.7701 74.1899 31.5201 73.5199V75.0099C30.7401 75.4699 29.7501 75.7199 28.8601 75.7199C25.9701 75.7199 23.5801 73.4199 23.5801 70.4899C23.5801 67.5599 25.9901 65.1499 28.9701 65.1499C29.8601 65.1499 30.7601 65.3699 31.5201 65.8299V67.2999L31.5301 67.3099Z" fill="#003874"/>
<path d="M34.3909 65.3799H33.1309V75.5099H34.3909V65.3799Z" fill="#003874"/>
<path d="M36.4199 65.3799H41.8699V66.5299H37.6899V69.3699H41.7499V70.5199H37.6899V74.3599H41.8699V75.5099H36.4199V65.3799Z" fill="#003874"/>
<path d="M43.4414 64.8899L51.0514 72.8599V65.3799H52.3114V75.9299L44.7014 67.9599V75.5099H43.4414V64.8899Z" fill="#003874"/>
<path d="M61.6297 67.3099C60.8997 66.6599 59.9097 66.3199 58.9497 66.3199C56.6797 66.3199 54.9397 68.2199 54.9397 70.4599C54.9397 72.6999 56.6597 74.5699 58.9197 74.5699C59.9097 74.5699 60.8697 74.1899 61.6197 73.5199V75.0099C60.8397 75.4699 59.8397 75.7199 58.9597 75.7199C56.0697 75.7199 53.6797 73.4199 53.6797 70.4899C53.6797 67.5599 56.0897 65.1499 59.0697 65.1499C59.9597 65.1499 60.8597 65.3699 61.6197 65.8299V67.2999L61.6297 67.3099Z" fill="#003874"/>
<path d="M63.2695 65.3799H68.7095V66.5299H64.5295V69.3699H68.5895V70.5199H64.5295V74.3599H68.7095V75.5099H63.2695V65.3799Z" fill="#003874"/>
<path d="M78.1898 67.7099L76.3898 71.8099H79.9898L78.1898 67.7099V67.7099ZM75.8598 72.9699L74.6998 75.5099H73.3398L78.1798 64.9399L83.0199 75.5099H81.6598L80.4998 72.9699H75.8498H75.8598Z" fill="#003874"/>
<path d="M83.8906 64.8899L91.5006 72.8599V65.3799H92.7606V75.9299L85.1506 67.9599V75.5099H83.8906V64.8899Z" fill="#003874"/>
<path d="M95.8499 74.3599H96.2899C98.8699 74.3599 101.1 73.3899 101.1 70.4499C101.1 67.5099 98.8699 66.5399 96.2899 66.5399H95.8499V74.3599V74.3599ZM94.5898 65.3799H96.6898C99.7998 65.3799 102.38 67.0199 102.38 70.3999C102.38 73.7799 99.8499 75.5199 96.6499 75.5199H94.5898V65.3899V65.3799Z" fill="#003874"/>
<path d="M110.52 75.5099H109.25V66.5299H106.85V65.3799H112.92V66.5299H110.52V75.5099Z" fill="#003874"/>
<path d="M114.051 65.3799H119.501V66.5299H115.321V69.3699H119.381V70.5199H115.321V74.3599H119.501V75.5099H114.051V65.3799Z" fill="#003874"/>
<path d="M128.571 67.3099C127.841 66.6599 126.851 66.3199 125.901 66.3199C123.631 66.3199 121.891 68.2199 121.891 70.4599C121.891 72.6999 123.611 74.5699 125.871 74.5699C126.861 74.5699 127.821 74.1899 128.571 73.5199V75.0099C127.791 75.4699 126.801 75.7199 125.911 75.7199C123.021 75.7199 120.631 73.4199 120.631 70.4899C120.631 67.5599 123.041 65.1499 126.021 65.1499C126.911 65.1499 127.811 65.3699 128.571 65.8299V67.2999V67.3099Z" fill="#003874"/>
<path d="M136.19 69.4599V65.3799H137.46V75.5099H136.19V70.6399H131.37V75.5099H130.1V65.3799H131.37V69.4599H136.19Z" fill="#003874"/>
<path d="M139.301 64.8899L146.911 72.8599V65.3799H148.171V75.9299L140.561 67.9599V75.5099H139.301V64.8899Z" fill="#003874"/>
<path d="M158.75 70.4399C158.75 68.2099 157.08 66.3399 154.7 66.3399C152.32 66.3399 150.66 68.2099 150.66 70.4399C150.66 72.6699 152.51 74.5399 154.7 74.5399C156.89 74.5399 158.75 72.7499 158.75 70.4399ZM160.02 70.4399C160.02 73.4499 157.64 75.7199 154.71 75.7199C151.78 75.7199 149.4 73.4499 149.4 70.4399C149.4 67.4299 151.8 65.1599 154.71 65.1599C157.62 65.1599 160.02 67.5399 160.02 70.4399Z" fill="#003874"/>
<path d="M162.631 74.3501H165.711V75.5101H161.371V65.3701H162.631V74.3501Z" fill="#003874"/>
<path d="M175.321 70.4399C175.321 68.2099 173.661 66.3399 171.281 66.3399C168.901 66.3399 167.231 68.2099 167.231 70.4399C167.231 72.6699 169.081 74.5399 171.281 74.5399C173.481 74.5399 175.321 72.7499 175.321 70.4399ZM176.591 70.4399C176.591 73.4499 174.211 75.7199 171.281 75.7199C168.351 75.7199 165.971 73.4499 165.971 70.4399C165.971 67.4299 168.381 65.1599 171.281 65.1599C174.181 65.1599 176.591 67.5399 176.591 70.4399Z" fill="#003874"/>
<path d="M187.18 70.3999V70.7999C187.18 73.5799 185.22 75.7199 182.38 75.7199C179.54 75.7199 177.26 73.2699 177.26 70.4699C177.26 67.6699 179.6 65.1599 182.52 65.1599C184.09 65.1599 185.65 65.8699 186.65 67.1199L185.76 67.9699C185.03 66.9699 183.81 66.3199 182.57 66.3199C180.3 66.3199 178.52 68.1599 178.52 70.4299C178.52 72.5599 180.27 74.5699 182.46 74.5699C184.03 74.5699 185.72 73.2099 185.78 71.5599H183.16V70.3999H187.18V70.3999Z" fill="#003874"/>
<path d="M187.52 65.3799H188.97L191.45 69.6999L193.94 65.3799H195.39L192.09 71.0999V75.5099H190.82V71.0999L187.52 65.3799Z" fill="#003874"/>
<path d="M111.7 8.78008C111.9 8.53008 111.97 8.08008 111.97 8.08008H99.8203C99.8203 8.08008 99.9703 8.58008 100.1 8.78008H111.7Z" fill="#A78236"/>
<path d="M110.99 9.80995C111.22 9.60995 111.45 9.19995 111.45 9.19995H100.33C100.33 9.19995 100.45 9.49995 100.73 9.80995H111H110.99Z" fill="#A78236"/>
<path d="M110.11 10.75C110.39 10.6 110.61 10.3 110.61 10.3H101.09C101.09 10.3 101.32 10.55 101.54 10.75H110.1H110.11Z" fill="#A78236"/>
<path d="M109 11.63C109.28 11.52 109.58 11.28 109.58 11.28H102.16C102.16 11.28 102.16 11.33 102.69 11.63H109.01H109Z" fill="#A78236"/>
<path d="M103.541 12.1799C103.541 12.1799 104.321 12.6399 105.861 12.6399C107.401 12.6399 108.381 12.1799 108.381 12.1799H103.551H103.541Z" fill="#A78236"/>
<path d="M103.41 13.21C103.41 13.21 104.34 13.26 104.89 13.69C105.42 14.14 105.82 14.9 105.82 14.9C105.82 14.9 106.15 14.18 106.68 13.8C107.21 13.39 108.07 13.22 108.07 13.22H117.66L119.55 16.01H110.94C110.94 16.01 110.34 16.04 109.43 16.57C108.95 16.84 108.6 17.32 108.6 17.32C108.6 17.32 108.53 17.55 108.43 17.67C108.33 17.8 108.25 17.9 108.13 17.95C108 18 108.03 17.98 108.03 17.98H103.55C103.55 17.98 103.37 17.91 103.27 17.75C103.17 17.6 103.24 17.65 103.14 17.53C103.06 17.41 102.89 17.08 102.21 16.62C101.51 16.16 100.82 16.11 100.82 16.11H92.0703L93.9803 13.22H103.42L103.41 13.21Z" fill="#003874"/>
<path d="M96.6406 17.1599V31.4599C96.6406 31.4599 96.6906 32.7199 97.7506 34.4299C98.8106 36.1399 100.341 36.9199 100.341 36.9199L101.551 35.0299C101.551 35.0299 100.491 34.3999 99.6906 33.1899C98.9106 31.9899 98.9106 30.9499 98.9106 30.9499V17.1599H96.6406V17.1599Z" fill="#003874"/>
<path d="M112.851 17.1101V30.9001C112.851 30.9001 112.671 32.2901 112.021 33.2701C111.371 34.2801 110.291 35.0801 110.291 35.0801L111.451 36.9401C111.451 36.9401 113.211 35.6601 114.061 34.3001C114.921 32.9401 115.121 30.9001 115.121 30.9001V17.1101H112.851V17.1101Z" fill="#003874"/>
<path d="M93.041 17.1599V31.5099C93.041 31.5099 93.191 33.7299 94.571 36.0399C95.961 38.3499 98.471 39.9699 98.471 39.9699L99.661 38.0799C99.661 38.0799 98.051 37.2199 96.771 35.2599C95.451 33.2699 95.381 31.4599 95.381 31.4599V17.1599H93.041V17.1599Z" fill="#003874"/>
<path d="M103.411 18.6699V33.8199C103.411 33.8199 103.361 33.8699 103.341 34.0999C103.311 34.3299 103.161 34.4799 103.161 34.4799L98.1113 42.8599H113.611L108.551 34.2999L108.401 33.9199L108.351 33.5199V18.6999H106.461V34.0799C106.461 34.0799 106.461 34.2999 106.541 34.4799C106.591 34.6599 106.691 34.9299 106.691 34.9299L109.811 40.0599H101.911L104.981 34.9499C104.981 34.9499 105.081 34.7799 105.161 34.5299C105.211 34.2999 105.231 34.0799 105.231 34.0799V18.6699H103.421H103.411Z" fill="#A78236"/>
<path d="M116.351 17.1101V31.2101C116.351 31.2101 116.331 33.0201 114.991 35.1101C113.661 37.2001 112.121 38.0801 112.121 38.0801L113.251 39.9901C113.251 39.9901 115.571 38.5301 117.021 36.2201C118.461 33.9101 118.631 31.2101 118.631 31.2101V17.1101H116.341H116.351Z" fill="#003874"/>
<path d="M99.741 7.68C99.741 7.68 98.961 3.43 102.081 1.31C102.081 1.31 103.491 0 105.781 0C108.221 0 109.631 1.28 109.631 1.28C113.031 3.77 112.021 7.67 112.021 7.67H99.741V7.68Z" fill="#A78236"/>
</svg>
