<svg width="230" height="38" viewBox="0 0 230 38" fill="none" xmlns="http://www.w3.org/2000/svg">
<path d="M33.7107 21.5199H32.5107V12.9799H30.2207V11.8799H36.0007V12.9799H33.7107V21.5199Z" fill="#003874"/>
<path d="M42.7607 15.7699V11.8799H43.9607V21.5199H42.7607V16.8899H38.1707V21.5199H36.9707V11.8799H38.1707V15.7699H42.7607Z" fill="#003874"/>
<path d="M45.8301 11.8799H51.0101V12.9799H47.0301V15.6799H50.8901V16.7799H47.0301V20.4199H51.0101V21.5199H45.8301V11.8799Z" fill="#003874"/>
<path d="M62.1298 15.7699V11.8799H63.3298V21.5199H62.1298V16.8899H57.5398V21.5199H56.3398V11.8799H57.5398V15.7699H62.1298Z" fill="#003874"/>
<path d="M73.4195 16.6999C73.4195 14.5799 71.8395 12.7999 69.5695 12.7999C67.2995 12.7999 65.7195 14.5799 65.7195 16.6999C65.7195 18.8199 67.4795 20.5999 69.5695 20.5999C71.6595 20.5999 73.4195 18.8999 73.4195 16.6999ZM74.6195 16.6999C74.6195 19.5599 72.3595 21.7299 69.5695 21.7299C66.7795 21.7299 64.5195 19.5699 64.5195 16.6999C64.5195 13.8299 66.8095 11.6699 69.5695 11.6699C72.3295 11.6699 74.6195 13.9299 74.6195 16.6999Z" fill="#003874"/>
<path d="M75.8008 11.4199L83.0308 18.9999V11.8799H84.2408V21.9199L77.0008 14.3399V21.5199H75.8008V11.4199Z" fill="#003874"/>
<path d="M94.8597 16.6599V17.0399C94.8597 19.6899 92.9897 21.7199 90.2997 21.7199C87.6097 21.7199 85.4297 19.3899 85.4297 16.7199C85.4297 14.0499 87.6597 11.6699 90.4297 11.6699C91.9297 11.6699 93.4097 12.3499 94.3497 13.5399L93.5097 14.3499C92.8197 13.3999 91.6497 12.7799 90.4797 12.7799C88.3197 12.7799 86.6297 14.5299 86.6297 16.6899C86.6297 18.7099 88.2897 20.6299 90.3797 20.6299C91.8797 20.6299 93.4897 19.3399 93.5397 17.7699H91.0497V16.6699H94.8697L94.8597 16.6599Z" fill="#003874"/>
<path d="M105.29 11.8799H106.87L102.53 16.2099L106.94 21.5199H105.32L101.69 17.0299L101.2 17.4899V21.5199H100V11.8799H101.2V16.0599L105.29 11.8799Z" fill="#003874"/>
<path d="M116.019 16.6999C116.019 14.5799 114.429 12.7999 112.169 12.7999C109.909 12.7999 108.319 14.5799 108.319 16.6999C108.319 18.8199 110.079 20.5999 112.169 20.5999C114.259 20.5999 116.019 18.8999 116.019 16.6999ZM117.219 16.6999C117.219 19.5599 114.959 21.7299 112.169 21.7299C109.379 21.7299 107.119 19.5699 107.119 16.6999C107.119 13.8299 109.409 11.6699 112.169 11.6699C114.929 11.6699 117.219 13.9299 117.219 16.6999Z" fill="#003874"/>
<path d="M118.4 11.4199L125.63 18.9999V11.8799H126.84V21.9199L119.6 14.3399V21.5199H118.4V11.4199Z" fill="#003874"/>
<path d="M137.459 16.6599V17.0399C137.459 19.6899 135.589 21.7199 132.899 21.7199C130.209 21.7199 128.029 19.3899 128.029 16.7199C128.029 14.0499 130.249 11.6699 133.029 11.6699C134.529 11.6699 136.009 12.3499 136.959 13.5399L136.119 14.3499C135.429 13.3999 134.269 12.7799 133.089 12.7799C130.929 12.7799 129.239 14.5299 129.239 16.6899C129.239 18.7099 130.899 20.6299 132.979 20.6299C134.479 20.6299 136.089 19.3399 136.139 17.7699H133.649V16.6699H137.469L137.459 16.6599Z" fill="#003874"/>
<path d="M143.639 11.8799V17.5699C143.639 19.1399 144.109 20.5999 145.969 20.5999C147.829 20.5999 148.299 19.1399 148.299 17.5699V11.8799H149.499V17.9799C149.499 20.0999 148.179 21.7299 145.969 21.7299C143.759 21.7299 142.439 20.0999 142.439 17.9799V11.8799H143.639V11.8799Z" fill="#003874"/>
<path d="M151.17 11.4199L158.4 18.9999V11.8799H159.61V21.9199L152.37 14.3399V21.5199H151.17V11.4199Z" fill="#003874"/>
<path d="M162.61 11.8799H161.41V21.5199H162.61V11.8799Z" fill="#003874"/>
<path d="M167.729 19.0099L170.589 11.8799H171.909L167.729 22.0299L163.529 11.8799H164.849L167.729 19.0099Z" fill="#003874"/>
<path d="M172.85 11.8799H178.03V12.9799H174.05V15.6799H177.91V16.7799H174.05V20.4199H178.03V21.5199H172.85V11.8799Z" fill="#003874"/>
<path d="M180.841 16.4399H181.221C182.451 16.4399 183.781 16.2099 183.781 14.6699C183.781 13.1299 182.351 12.9399 181.161 12.9399H180.841V16.4299V16.4399ZM185.631 21.5199H184.171L181.331 17.4399H180.831V21.5199H179.631V11.8799H181.091C181.951 11.8799 182.871 11.8899 183.641 12.3299C184.441 12.7999 184.901 13.7099 184.901 14.6299C184.901 16.0099 183.981 17.1599 182.591 17.3299L185.631 21.5299V21.5199Z" fill="#003874"/>
<path d="M190.989 13.7099C190.629 13.1099 190.169 12.7999 189.439 12.7999C188.709 12.7999 187.829 13.3199 187.829 14.1699C187.829 14.9299 188.569 15.3199 189.169 15.5499L189.859 15.8199C191.229 16.3599 192.249 17.1099 192.249 18.7199C192.249 20.4699 190.889 21.7299 189.169 21.7299C187.609 21.7299 186.399 20.5799 186.189 19.0299L187.399 18.7699C187.389 19.8299 188.229 20.5999 189.269 20.5999C190.309 20.5999 191.049 19.7299 191.049 18.7199C191.049 17.7099 190.219 17.2399 189.389 16.8899L188.729 16.6099C187.629 16.1399 186.629 15.5099 186.629 14.1699C186.629 12.6099 188.009 11.6799 189.469 11.6799C190.539 11.6799 191.419 12.1999 191.949 13.1399L190.989 13.7199V13.7099Z" fill="#003874"/>
<path d="M194.87 11.8799H193.67V21.5199H194.87V11.8799Z" fill="#003874"/>
<path d="M199.4 21.5199H198.19V12.9799H195.91V11.8799H201.68V12.9799H199.4V21.5199Z" fill="#003874"/>
<path d="M201.76 11.8799H203.14L205.51 15.9999L207.87 11.8799H209.25L206.11 17.3299V21.5199H204.91V17.3299L201.76 11.8799Z" fill="#003874"/>
<path d="M222.259 16.6999C222.259 14.5799 220.669 12.7999 218.409 12.7999C216.149 12.7999 214.559 14.5799 214.559 16.6999C214.559 18.8199 216.329 20.5999 218.409 20.5999C220.489 20.5999 222.259 18.8999 222.259 16.6999ZM223.459 16.6999C223.459 19.5599 221.199 21.7299 218.409 21.7299C215.619 21.7299 213.359 19.5699 213.359 16.6999C213.359 13.8299 215.649 11.6699 218.409 11.6699C221.169 11.6699 223.459 13.9299 223.459 16.6999Z" fill="#003874"/>
<path d="M224.74 11.8799V21.5199H225.94V16.7899H229.29V15.6899H225.94V12.9799H229.4V11.8799H224.74Z" fill="#003874"/>
<path d="M35.3996 29.05C35.0396 28.45 34.5796 28.14 33.8496 28.14C33.0796 28.14 32.2396 28.67 32.2396 29.51C32.2396 30.27 32.9796 30.66 33.5796 30.89L34.2696 31.16C35.6396 31.69 36.6596 32.45 36.6596 34.06C36.6596 35.81 35.2996 37.07 33.5796 37.07C32.0196 37.07 30.8096 35.92 30.5996 34.37L31.8196 34.11C31.8096 35.17 32.6496 35.94 33.6896 35.94C34.7296 35.94 35.4696 35.07 35.4696 34.06C35.4696 33.05 34.6396 32.58 33.8096 32.23L33.1496 31.95C32.0496 31.48 31.0496 30.85 31.0496 29.5C31.0496 27.94 32.4296 27.01 33.8896 27.01C34.9596 27.01 35.8496 27.53 36.3696 28.47L35.4096 29.04L35.3996 29.05Z" fill="#003874"/>
<path d="M45.1203 29.06C44.4303 28.45 43.4803 28.11 42.5803 28.11C40.4203 28.11 38.7703 29.91 38.7703 32.05C38.7703 34.19 40.4103 35.96 42.5503 35.96C43.5003 35.96 44.4003 35.6 45.1203 34.96V36.38C44.3803 36.81 43.4303 37.06 42.5903 37.06C39.8403 37.06 37.5703 34.87 37.5703 32.08C37.5703 29.29 39.8603 27.01 42.7003 27.01C43.5403 27.01 44.4003 27.21 45.1303 27.66V29.06H45.1203Z" fill="#003874"/>
<path d="M47.8504 27.22H46.6504V36.86H47.8504V27.22Z" fill="#003874"/>
<path d="M49.7793 27.22V36.86H54.9593V35.76H50.9793V32.12H54.8393V31.02H50.9793V28.32H54.9593V27.22H49.7793Z" fill="#003874"/>
<path d="M56.4492 36.86H57.6492V29.68L64.8892 37.26V27.22H63.6892V34.34L56.4492 26.76V36.86Z" fill="#003874"/>
<path d="M73.7492 29.06C73.0592 28.45 72.1092 28.11 71.2092 28.11C69.0492 28.11 67.3992 29.91 67.3992 32.05C67.3992 34.19 69.0392 35.96 71.1792 35.96C72.1292 35.96 73.0392 35.6 73.7492 34.96V36.38C73.0092 36.81 72.0592 37.06 71.2192 37.06C68.4692 37.06 66.1992 34.87 66.1992 32.08C66.1992 29.29 68.4892 27.01 71.3292 27.01C72.1692 27.01 73.0292 27.21 73.7592 27.66V29.06H73.7492Z" fill="#003874"/>
<path d="M75.3105 27.22V36.86H80.4905V35.76H76.5106V32.12H80.3706V31.02H76.5106V28.32H80.4905V27.22H75.3105Z" fill="#003874"/>
<path d="M89.5004 29.4401L91.2104 33.3401H87.7804L89.4904 29.4401H89.5004ZM84.9004 36.8601H86.1904L87.2904 34.4401H91.7104L92.8104 36.8601H94.1004L89.5004 26.8101L84.9004 36.8601V36.8601Z" fill="#003874"/>
<path d="M94.9199 36.86H96.1299V29.68L103.36 37.26V27.22H102.16V34.34L94.9199 26.76V36.86Z" fill="#003874"/>
<path d="M106.3 35.76H106.72C109.18 35.76 111.3 34.84 111.3 32.04C111.3 29.24 109.18 28.32 106.72 28.32H106.3V35.76ZM105.1 27.22H107.09C110.04 27.22 112.5 28.78 112.5 31.99C112.5 35.2 110.1 36.86 107.05 36.86H105.09V27.22H105.1Z" fill="#003874"/>
<path d="M116.76 27.22V28.32H119.05V36.86H120.25V28.32H122.54V27.22H116.76Z" fill="#003874"/>
<path d="M123.619 27.22V36.86H128.789V35.76H124.809V32.12H128.679V31.02H124.809V28.32H128.789V27.22H123.619Z" fill="#003874"/>
<path d="M137.421 29.06C136.731 28.45 135.791 28.11 134.881 28.11C132.721 28.11 131.071 29.91 131.071 32.05C131.071 34.19 132.711 35.96 134.861 35.96C135.811 35.96 136.711 35.6 137.431 34.96V36.38C136.691 36.81 135.741 37.06 134.901 37.06C132.151 37.06 129.881 34.87 129.881 32.08C129.881 29.29 132.171 27.01 135.011 27.01C135.861 27.01 136.711 27.21 137.441 27.66V29.06H137.421Z" fill="#003874"/>
<path d="M144.671 27.22V31.11H140.081V27.22H138.881V36.86H140.081V32.23H144.671V36.86H145.881V27.22H144.671Z" fill="#003874"/>
<path d="M147.631 36.86H148.831V29.68L156.061 37.26V27.22H154.861V34.34L147.631 26.76V36.86Z" fill="#003874"/>
<path d="M166.13 32.04C166.13 29.92 164.54 28.14 162.28 28.14C160.02 28.14 158.43 29.92 158.43 32.04C158.43 34.16 160.19 35.94 162.28 35.94C164.37 35.94 166.13 34.24 166.13 32.04ZM167.33 32.04C167.33 34.9 165.07 37.07 162.28 37.07C159.49 37.07 157.23 34.91 157.23 32.04C157.23 29.17 159.52 27.01 162.28 27.01C165.04 27.01 167.33 29.27 167.33 32.04Z" fill="#003874"/>
<path d="M168.619 27.22V36.86H172.749V35.76H169.819V27.22H168.619Z" fill="#003874"/>
<path d="M181.89 32.04C181.89 29.92 180.3 28.14 178.04 28.14C175.78 28.14 174.19 29.92 174.19 32.04C174.19 34.16 175.95 35.94 178.04 35.94C180.13 35.94 181.89 34.24 181.89 32.04ZM183.09 32.04C183.09 34.9 180.83 37.07 178.04 37.07C175.25 37.07 172.99 34.91 172.99 32.04C172.99 29.17 175.28 27.01 178.04 27.01C180.8 27.01 183.09 29.27 183.09 32.04Z" fill="#003874"/>
<path d="M193.17 32V32.38C193.17 35.03 191.3 37.06 188.6 37.06C185.9 37.06 183.73 34.73 183.73 32.06C183.73 29.39 185.95 27.01 188.73 27.01C190.23 27.01 191.71 27.69 192.65 28.88L191.81 29.68C191.12 28.74 189.96 28.11 188.78 28.11C186.62 28.11 184.93 29.86 184.93 32.03C184.93 34.05 186.59 35.97 188.68 35.97C190.17 35.97 191.78 34.68 191.83 33.11H189.34V32.01H193.16L193.17 32Z" fill="#003874"/>
<path d="M199.6 27.22L197.24 31.34L194.87 27.22H193.49L196.63 32.67V36.86H197.84V32.67L200.98 27.22H199.6Z" fill="#003874"/>
<path d="M17.0107 7.61C17.1907 7.39 17.2507 7 17.2507 7H6.7207C6.7207 7 6.8507 7.43 6.9607 7.61H17.0107Z" fill="#A78236"/>
<path d="M16.4004 8.49998C16.6004 8.32998 16.7904 7.97998 16.7904 7.97998H7.15039C7.15039 7.97998 7.26039 8.23998 7.50039 8.49998H16.4004Z" fill="#A78236"/>
<path d="M15.6401 9.30992C15.8801 9.17992 16.0701 8.91992 16.0701 8.91992H7.83008C7.83008 8.91992 8.03008 9.13992 8.22008 9.30992H15.6401Z" fill="#A78236"/>
<path d="M14.6702 10.08C14.9102 9.99002 15.1702 9.77002 15.1702 9.77002H8.74023C8.74023 9.77002 8.74023 9.82002 9.19023 10.08H14.6602H14.6702Z" fill="#A78236"/>
<path d="M9.93945 10.55C9.93945 10.55 10.6195 10.95 11.9495 10.95C13.2795 10.95 14.1295 10.55 14.1295 10.55H9.93945V10.55Z" fill="#A78236"/>
<path d="M9.83 11.45C9.83 11.45 10.64 11.49 11.12 11.86C11.58 12.25 11.93 12.91 11.93 12.91C11.93 12.91 12.21 12.28 12.67 11.95C13.13 11.6 13.87 11.45 13.87 11.45H22.18L23.81 13.87H16.35C16.35 13.87 15.83 13.89 15.04 14.35C14.62 14.59 14.32 15 14.32 15C14.32 15 14.26 15.19 14.17 15.3C14.08 15.41 14.02 15.5 13.91 15.54C13.8 15.59 13.82 15.56 13.82 15.56H9.93C9.93 15.56 9.78 15.5 9.69 15.37C9.6 15.24 9.67 15.28 9.58 15.18C9.51 15.07 9.36 14.78 8.77 14.4C8.16 14 7.57 13.96 7.57 13.96H0L1.65 11.45H9.83V11.45Z" fill="#003874"/>
<path d="M3.96094 14.8701V27.2601C3.96094 27.2601 4.01094 28.3501 4.92094 29.8301C5.84094 31.3201 7.16094 31.9901 7.16094 31.9901L8.21094 30.3601C8.21094 30.3601 7.30094 29.8101 6.60094 28.7701C5.93094 27.7201 5.93094 26.8301 5.93094 26.8301V14.8701H3.96094V14.8701Z" fill="#003874"/>
<path d="M18.0093 14.8301V26.7801C18.0093 26.7801 17.8593 27.9801 17.2893 28.8301C16.7193 29.7001 15.7793 30.4001 15.7793 30.4001L16.7893 32.0101C16.7893 32.0101 18.3093 30.9001 19.0593 29.7201C19.7993 28.5401 19.9793 26.7701 19.9793 26.7701V14.8301H18.0093V14.8301Z" fill="#003874"/>
<path d="M0.849609 14.8701V27.3001C0.849609 27.3001 0.979609 29.2201 2.17961 31.2301C3.37961 33.2301 5.55961 34.6301 5.55961 34.6301L6.58961 32.9901C6.58961 32.9901 5.18961 32.2501 4.07961 30.5501C2.93961 28.8301 2.87961 27.2501 2.87961 27.2501V14.8701H0.849609Z" fill="#003874"/>
<path d="M9.83023 16.1799V29.3099C9.83023 29.3099 9.78024 29.3599 9.77024 29.5499C9.75024 29.7399 9.62023 29.8799 9.62023 29.8799L5.24023 37.1399H18.6802L14.3002 29.7299L14.1702 29.3999L14.1202 29.0499V16.2099H12.4802V29.5399C12.4802 29.5399 12.4802 29.7299 12.5502 29.8899C12.5902 30.0399 12.6802 30.2799 12.6802 30.2799L15.3802 34.7299H8.53023L11.1902 30.2999C11.1902 30.2999 11.2802 30.1499 11.3402 29.9299C11.3902 29.7399 11.4002 29.5399 11.4002 29.5399V16.1899H9.83023V16.1799Z" fill="#A78236"/>
<path d="M21.0391 14.8301V27.0401C21.0391 27.0401 21.0191 28.6101 19.8591 30.4201C18.6991 32.2301 17.3691 32.9901 17.3691 32.9901L18.3591 34.6501C18.3591 34.6501 20.3591 33.3801 21.6291 31.3801C22.8691 29.3701 23.0191 27.0401 23.0191 27.0401V14.8301H21.0291H21.0391Z" fill="#003874"/>
<path d="M6.64988 6.65C6.64988 6.65 5.97988 2.97 8.67988 1.13C8.67988 1.13 9.89988 0 11.8899 0C14.0099 0 15.2299 1.11 15.2299 1.11C18.1699 3.27 17.2999 6.65 17.2999 6.65H6.64988V6.65Z" fill="#A78236"/>
</svg>
