<svg width="175" height="119" viewBox="0 0 175 119" fill="none" xmlns="http://www.w3.org/2000/svg">
<path d="M32.21 43.0499C32.46 42.7399 32.54 42.1899 32.54 42.1899H17.75C17.75 42.1899 17.93 42.7999 18.09 43.0499H32.21Z" fill="#A28038"/>
<path d="M31.3491 44.2998C31.6291 44.0598 31.9091 43.5698 31.9091 43.5698H18.3691C18.3691 43.5698 18.5191 43.9398 18.8591 44.2998H31.3591H31.3491Z" fill="#A28038"/>
<path d="M30.2805 45.4299C30.6105 45.2499 30.8905 44.8799 30.8905 44.8799H19.3105C19.3105 44.8799 19.5805 45.1899 19.8605 45.4299H30.2805Z" fill="#A28038"/>
<path d="M28.9294 46.4998C29.2594 46.3798 29.6394 46.0698 29.6394 46.0698H20.6094C20.6094 46.0698 20.6094 46.1398 21.2494 46.4998H28.9394H28.9294Z" fill="#A28038"/>
<path d="M22.2793 47.1699C22.2793 47.1699 23.2293 47.7199 25.0993 47.7199C26.9693 47.7199 28.1593 47.1699 28.1593 47.1699H22.2793Z" fill="#A28038"/>
<path d="M22.1303 48.4302C22.1303 48.4302 23.2603 48.4902 23.9303 49.0102C24.5803 49.5602 25.0703 50.4802 25.0703 50.4802C25.0703 50.4802 25.4703 49.6002 26.1103 49.1402C26.7503 48.6502 27.8003 48.4402 27.8003 48.4402H39.4703L41.7703 51.8302H31.2903C31.2903 51.8302 30.5603 51.8602 29.4503 52.5102C28.8703 52.8402 28.4303 53.4202 28.4303 53.4202C28.4303 53.4202 28.3403 53.7002 28.2203 53.8402C28.1003 54.0002 28.0003 54.1202 27.8503 54.1802C27.6903 54.2502 27.7303 54.2102 27.7303 54.2102H22.2803C22.2803 54.2102 22.0603 54.1202 21.9403 53.9302C21.8203 53.7502 21.9103 53.8102 21.7903 53.6602C21.7003 53.5102 21.4803 53.1102 20.6503 52.5602C19.7903 52.0002 18.9703 51.9502 18.9703 51.9502H8.32031L10.6403 48.4402H22.1303V48.4302Z" fill="#0D386B"/>
<path d="M13.8909 53.2202V70.5602C13.8909 70.5602 13.9509 72.0902 15.2409 74.1602C16.5309 76.2402 18.3909 77.1902 18.3909 77.1902L19.8609 74.9002C19.8609 74.9002 18.5809 74.1302 17.5909 72.6702C16.6409 71.2102 16.6409 69.9502 16.6409 69.9502V53.2202H13.8809H13.8909Z" fill="#0D386B"/>
<path d="M33.6202 53.1602V69.8902C33.6202 69.8902 33.4102 71.5702 32.6102 72.7602C31.8102 73.9802 30.4902 74.9602 30.4902 74.9602L31.9102 77.2202C31.9102 77.2202 34.0502 75.6702 35.0902 74.0102C36.1302 72.3602 36.3802 69.8902 36.3802 69.8902V53.1602H33.6202V53.1602Z" fill="#0D386B"/>
<path d="M9.51 53.2202V70.6202C9.51 70.6202 9.69 73.3102 11.37 76.1202C13.06 78.9302 16.12 80.8802 16.12 80.8802L17.56 78.5902C17.56 78.5902 15.6 77.5502 14.04 75.1702C12.44 72.7602 12.35 70.5602 12.35 70.5602V53.2202H9.5H9.51Z" fill="#0D386B"/>
<path d="M22.1302 55.0498V73.4298C22.1302 73.4298 22.0602 73.4898 22.0402 73.7598C22.0102 74.0398 21.8202 74.2198 21.8202 74.2198L15.6602 84.3898H34.5302L28.3702 74.0098L28.1902 73.5498L28.1302 73.0598V55.0798H25.8302V73.7398C25.8302 73.7398 25.8302 74.0098 25.9202 74.2298C25.9802 74.4498 26.1002 74.7798 26.1002 74.7798L29.9002 81.0098H20.2802L24.0202 74.8098C24.0202 74.8098 24.1402 74.5998 24.2402 74.2898C24.3002 74.0098 24.3302 73.7498 24.3302 73.7498V55.0598H22.1302V55.0498Z" fill="#A28038"/>
<path d="M37.8802 53.1602V70.2602C37.8802 70.2602 37.8502 72.4602 36.2302 74.9902C34.6102 77.5302 32.7402 78.5902 32.7402 78.5902L34.1202 80.9102C34.1202 80.9102 36.9302 79.1402 38.7102 76.3302C40.4602 73.5202 40.6702 70.2602 40.6702 70.2602V53.1602H37.8802V53.1602Z" fill="#0D386B"/>
<path d="M17.6602 41.7099C17.6602 41.7099 16.7102 36.5499 20.5102 33.9799C20.5102 33.9799 22.2302 32.3999 25.0102 32.3999C27.9902 32.3999 29.7002 33.9599 29.7002 33.9599C33.8402 36.9799 32.6102 41.7199 32.6102 41.7199H17.6602V41.7099Z" fill="#A28038"/>
<path d="M49.3 39.5898C49.76 39.4398 50.09 39.3198 50.28 39.2298V44.1798H51.36V43.6498H57.05V44.1798H58.13V39.1698C58.28 39.2598 58.45 39.3198 58.64 39.3798C58.82 39.4298 58.99 39.4898 59.15 39.5598L59.66 38.5098C57.99 38.1798 56.72 37.5898 55.84 36.7398H59.57V35.7798H54.69V34.8098C56.25 34.6798 57.55 34.5098 58.6 34.2898L58.1 33.3398C56.52 33.6998 54.19 33.8698 51.11 33.8698C50.46 33.8698 49.92 33.8698 49.48 33.8498L49.86 34.9098C50.62 34.9098 51.86 34.8898 53.6 34.8398V35.7798H48.85V36.7398H52.42C51.38 37.6098 50.16 38.2098 48.75 38.5498L49.31 39.5798L49.3 39.5898ZM57.05 42.6898H51.36V41.6698H57.05V42.6898ZM54.68 36.7698C55.4 37.7298 56.36 38.4398 57.54 38.8998H54.68V36.7698ZM57.05 39.8698V40.7498H51.36V39.8698H57.05ZM53.59 36.7798V38.8998H50.95C52.04 38.4398 52.92 37.7298 53.59 36.7798Z" fill="#0D386B"/>
<path d="M66.4198 34.9499V35.5699H67.9598V36.7199H66.1898V37.6899H68.0398C67.6998 38.4099 66.8898 39.0599 65.6098 39.6399L66.2698 40.6099C66.7898 40.2899 67.1398 40.0399 67.3398 39.8799V42.4599C67.3398 42.9799 67.4398 43.3399 67.6298 43.5299C67.8298 43.7099 68.1798 43.8099 68.6698 43.8099H72.4198C73.0098 43.8099 73.4098 43.7099 73.6098 43.4999C73.8198 43.2799 73.9898 42.6399 74.1098 41.5799L72.9998 41.1799C72.9498 41.7899 72.8898 42.2099 72.8298 42.4599C72.7698 42.6999 72.5698 42.8199 72.2498 42.8199H68.8098C68.5398 42.8199 68.4098 42.6899 68.4098 42.4199V41.6799H72.1398V39.3199C72.5998 39.7399 73.1898 40.1499 73.8998 40.5799L74.3998 39.5499C73.1498 38.9399 72.3698 38.3199 72.0598 37.6899H74.2698V36.7199H72.1898V35.5299H74.0998V34.6199H72.1898V33.4199H71.1498V34.6199H69.0398V33.4199H67.9798V34.6199H66.4398V34.7699C65.9798 34.4199 65.4298 34.0399 64.7698 33.6299L64.0098 34.4799C64.5298 34.7999 65.0998 35.2499 65.7298 35.8299L66.4398 34.9499H66.4198ZM69.0098 35.5799H71.1198V36.7099H69.0098V35.5799ZM69.2698 37.6799H70.8298C71.0498 38.0899 71.2798 38.4399 71.5398 38.7199H68.5898C68.8798 38.4199 69.0998 38.0699 69.2698 37.6799ZM68.3898 39.6299H71.0498V40.7599H68.3898V39.6299Z" fill="#0D386B"/>
<path d="M66.0797 37.7401C65.4897 37.2901 64.9197 36.9101 64.3697 36.6201L63.6797 37.4901C64.1297 37.7901 64.6697 38.2001 65.2997 38.7301L66.0897 37.7401H66.0797Z" fill="#0D386B"/>
<path d="M66.0094 40.6003L64.9994 40.0103C64.7494 41.1003 64.2894 42.1303 63.6094 43.0903L64.5394 44.0403C65.1994 42.9903 65.6894 41.8503 66.0094 40.6003Z" fill="#0D386B"/>
<path d="M86.7299 35.5799C85.8199 34.9199 85.1199 34.4499 84.6099 34.1699L83.9199 34.9299C84.4499 35.2499 85.1499 35.7599 85.9999 36.4399L86.7299 35.5799Z" fill="#0D386B"/>
<path d="M79.0194 42.0201C79.7794 41.0301 80.2994 40.1701 80.5894 39.4401V44.1801L81.6594 44.1301V38.7801C81.8694 39.0601 82.0694 39.3101 82.2694 39.5501C82.4994 39.8101 82.7294 40.1001 82.9594 40.4301L83.6094 39.4401C83.1694 38.9601 82.5194 38.3301 81.6494 37.5301V37.4301H83.4094V36.4401H81.6494V34.8101C82.2594 34.6901 82.8394 34.5301 83.3994 34.3401L83.0094 33.3901C81.7694 33.8601 80.2794 34.1401 78.5494 34.2201L78.7894 35.1901C79.5794 35.1401 80.1794 35.0701 80.5794 34.9901V36.4301H78.4294V37.4201H80.5494C80.0594 38.7001 79.3294 39.8801 78.3594 40.9801L79.0094 42.0201H79.0194Z" fill="#0D386B"/>
<path d="M83.2695 41.5901L87.1495 41.0001V44.1801H88.2295V40.8701L89.2695 40.6901V39.6401L88.2295 39.8201V33.3101H87.1495V39.9401L83.2695 40.5201V41.5901Z" fill="#0D386B"/>
<path d="M86.5095 38.3599C85.6595 37.7099 84.9495 37.2399 84.3695 36.9399L83.6895 37.7099C84.2995 38.0699 84.9995 38.5799 85.7995 39.2499L86.5194 38.3599H86.5095Z" fill="#0D386B"/>
<path d="M93.1994 39.3898L93.4795 40.6398C93.8595 40.5498 94.3694 40.4198 95.0294 40.2498V42.5998C95.0294 42.8498 94.8995 42.9798 94.6495 42.9798L93.6495 42.9398L93.9095 44.1098H94.8295C95.3995 44.1098 95.7695 44.0198 95.9295 43.8298C96.0795 43.6498 96.1595 43.2898 96.1595 42.7498V39.9198C96.8195 39.6998 97.2695 39.5198 97.5095 39.3898V38.2598C97.2295 38.3998 96.7695 38.5698 96.1595 38.7698V36.7298H97.5294V35.9898H100.029V37.5298H97.7394V38.5898H102.339C102.009 39.5598 101.449 40.3598 100.659 40.9798C100.129 40.4498 99.5995 39.7198 99.0695 38.7798L98.1095 39.1598C98.6795 40.1998 99.2594 41.0198 99.8494 41.6198C98.7394 42.3698 97.6294 42.8598 96.5194 43.1098L97.1495 44.1598C98.2595 43.9298 99.4295 43.3498 100.649 42.4198C101.549 43.2398 102.499 43.8098 103.519 44.1398L104.109 43.0598C103.139 42.7898 102.269 42.3398 101.489 41.7098C101.929 41.3298 102.349 40.7998 102.749 40.1298C103.159 39.4598 103.409 38.9198 103.509 38.4998V37.5398H101.169V35.9998H103.899V34.9498H101.169V33.3198H100.019V34.9498H97.5294V35.6898H96.1595V33.3298H95.0194V35.6898H93.3094V36.7398H95.0194V39.0598C94.4694 39.2098 93.8595 39.3198 93.1895 39.3998L93.1994 39.3898Z" fill="#0D386B"/>
<path d="M108 43.0501L108.88 44.1501C111.47 42.4501 113.03 40.2101 113.55 37.4401H113.73C114.5 40.5401 115.93 42.7701 118.01 44.1301L118.9 43.0701C117.75 42.3201 116.85 41.4201 116.19 40.3901C115.54 39.3601 115.12 38.3701 114.94 37.4401H118.64V36.2301H113.73C113.79 35.6201 113.82 34.6601 113.82 33.3301H112.6C112.6 34.5601 112.55 35.5301 112.45 36.2301H108.26V37.4501H112.25C112.07 38.5301 111.58 39.5801 110.8 40.6001C110.01 41.6201 109.07 42.4301 107.98 43.0601L108 43.0501Z" fill="#0D386B"/>
<path d="M124.12 39.0899H132.48V40.7899H133.52V38.1799H132.9L133.03 33.6199H130.17V34.5299H132.01V35.1699H130.3V35.9599H131.98L131.96 36.6199H130.3V37.4199H131.92V38.1899H124.66L124.64 37.4199H126.38V36.6199H124.62V35.9599H126.38V35.1699H124.57L124.53 34.5799C125.47 34.5199 126.16 34.4199 126.59 34.2699L126.08 33.4199C125.39 33.6099 124.54 33.7199 123.53 33.7599L123.66 38.1899H123.08V40.7999H124.11V39.0999L124.12 39.0899Z" fill="#0D386B"/>
<path d="M129.4 35.5901C129.1 35.9201 128.83 36.1601 128.6 36.3001C128.42 36.1601 128.26 36.0401 128.11 35.9401C127.99 35.8701 127.85 35.7801 127.7 35.6901L127.1 36.2001C127.46 36.4501 127.72 36.6401 127.87 36.7501C127.6 36.9101 127.2 37.0501 126.67 37.1701L127.17 37.9401C127.72 37.7601 128.17 37.5401 128.52 37.2901C128.57 37.2901 128.78 37.5201 129.13 37.9701L129.87 37.4001C129.66 37.1801 129.43 36.9801 129.21 36.7901C129.45 36.6101 129.71 36.3801 129.99 36.1001L129.38 35.5801L129.4 35.5901Z" fill="#0D386B"/>
<path d="M127.85 42.8401C127.85 43.0701 127.74 43.1901 127.5 43.1901L125.92 43.1401L126.19 44.0701H127.89C128.59 44.0701 128.94 43.6601 128.94 42.8401V42.3701H133.74V41.4401H128.94C129.93 41.1301 130.77 40.8001 131.45 40.4401V39.6001H125V40.4501H129.87C129.05 40.6901 128.38 40.8501 127.84 40.9501V41.4501H122.82V42.3801H127.84V42.8501L127.85 42.8401Z" fill="#0D386B"/>
<path d="M126.52 34.8698L127.11 35.6398C127.62 35.4198 128.08 35.1798 128.46 34.9398C128.55 34.9398 128.74 35.1598 129.05 35.5998L129.76 35.0798C129.51 34.8098 129.3 34.6098 129.15 34.4698C129.44 34.2898 129.67 34.0798 129.83 33.8498L129.25 33.3298C129.11 33.5198 128.87 33.7298 128.54 33.9498C128.23 33.7198 127.93 33.5098 127.62 33.3198L126.99 33.8598C127.32 34.0698 127.58 34.2498 127.78 34.3998C127.58 34.5398 127.15 34.6998 126.51 34.8698H126.52Z" fill="#0D386B"/>
<path d="M52.1601 57.1399V49.6299H54.1801V48.6699H49.0801V49.6299H51.1001V57.1399H52.1601Z" fill="#0D386B"/>
<path d="M56.0991 48.6699H55.0391V57.1399H56.0991V53.0699H60.1491V57.1399H61.2091V48.6699H60.1491V52.0799H56.0991V48.6699Z" fill="#0D386B"/>
<path d="M67.4196 56.1799H63.9096V52.9699H67.3196V51.9999H63.9096V49.6299H67.4196V48.6699H62.8496V57.1399H67.4196V56.1799Z" fill="#0D386B"/>
<path d="M73.1909 48.6699H72.1309V57.1399H73.1909V53.0699H77.2409V57.1399H78.2909V48.6699H77.2409V52.0799H73.1909V48.6699Z" fill="#0D386B"/>
<path d="M83.7999 48.48C81.3599 48.48 79.3398 50.47 79.3398 52.9C79.3398 55.33 81.3399 57.32 83.7999 57.32C86.2599 57.32 88.2598 55.42 88.2598 52.9C88.2598 50.38 86.2399 48.48 83.7999 48.48ZM83.7999 56.33C81.9599 56.33 80.4099 54.84 80.4099 52.9C80.4099 50.96 81.8099 49.47 83.7999 49.47C85.7899 49.47 87.1998 51.03 87.1998 52.9C87.1998 54.77 85.6399 56.33 83.7999 56.33Z" fill="#0D386B"/>
<path d="M90.3491 50.8203L96.7391 57.4903V48.6703H95.6791V54.9303L89.2891 48.2603V57.1403H90.3491V50.8203Z" fill="#0D386B"/>
<path d="M102.24 49.45C103.28 49.45 104.3 50 104.91 50.83L105.65 50.12C104.81 49.07 103.51 48.48 102.18 48.48C99.7295 48.48 97.7695 50.48 97.7695 52.92C97.7695 55.36 99.6895 57.32 102.07 57.32C104.45 57.32 106.1 55.53 106.1 53.2V52.86H102.72V53.83H104.92C104.87 55.21 103.46 56.35 102.13 56.35C100.29 56.35 98.8295 54.66 98.8295 52.89C98.8295 50.99 100.32 49.45 102.22 49.45H102.24Z" fill="#0D386B"/>
<path d="M116.77 57.1399L112.88 52.4799L116.7 48.6699H115.32L111.71 52.3399V48.6699H110.65V57.1399H111.71V53.5999L112.14 53.1999L115.34 57.1399H116.77Z" fill="#0D386B"/>
<path d="M116.93 52.9C116.93 55.42 118.93 57.32 121.39 57.32C123.85 57.32 125.84 55.42 125.84 52.9C125.84 50.38 123.82 48.48 121.39 48.48C118.96 48.48 116.93 50.47 116.93 52.9ZM121.39 49.47C123.39 49.47 124.79 51.03 124.79 52.9C124.79 54.77 123.23 56.33 121.39 56.33C119.55 56.33 117.99 54.84 117.99 52.9C117.99 50.96 119.39 49.47 121.39 49.47Z" fill="#0D386B"/>
<path d="M133.261 54.9303L126.881 48.2603V57.1403H127.941V50.8203L134.331 57.4903V48.6703H133.261V54.9303Z" fill="#0D386B"/>
<path d="M139.669 57.32C142.049 57.32 143.699 55.53 143.699 53.2V52.86H140.329V53.83H142.529C142.479 55.21 141.059 56.35 139.739 56.35C137.899 56.35 136.439 54.66 136.439 52.89C136.439 50.99 137.929 49.45 139.829 49.45C140.869 49.45 141.889 50 142.499 50.83L143.239 50.12C142.409 49.07 141.099 48.48 139.779 48.48C137.329 48.48 135.369 50.48 135.369 52.92C135.369 55.36 137.289 57.32 139.669 57.32V57.32Z" fill="#0D386B"/>
<path d="M52.8405 70.8099C54.7905 70.8099 55.9505 69.3799 55.9505 67.5199V62.1499H54.8905V67.1599C54.8905 68.5399 54.4705 69.8199 52.8405 69.8199C51.2105 69.8199 50.7905 68.5399 50.7905 67.1599V62.1499H49.7305V67.5199C49.7305 69.3899 50.8905 70.8099 52.8405 70.8099Z" fill="#0D386B"/>
<path d="M58.4897 64.31L64.8697 70.98V62.15H63.8097V68.41L57.4297 61.75V70.63H58.4897V64.31Z" fill="#0D386B"/>
<path d="M67.5209 62.1499H66.4609V70.6299H67.5209V62.1499Z" fill="#0D386B"/>
<path d="M72.0398 68.4199L69.4998 62.1499H68.3398L72.0398 71.0799L75.7198 62.1499H74.5598L72.0398 68.4199Z" fill="#0D386B"/>
<path d="M81.1305 69.6599H77.6206V66.4599H81.0305V65.4899H77.6206V63.1199H81.1305V62.1499H76.5605V70.6299H81.1305V69.6599Z" fill="#0D386B"/>
<path d="M87.2008 64.5699C87.2008 63.7599 86.7908 62.9599 86.0808 62.5499C85.4008 62.1699 84.5908 62.1499 83.8408 62.1499H82.5508V70.6299H83.6108V67.0399H84.0508L86.5608 70.6299H87.8508L85.1708 66.9399C86.4008 66.7899 87.2108 65.7799 87.2108 64.5699H87.2008ZM83.9508 66.1699H83.6108V63.0999H83.8908C84.9408 63.0999 86.2008 63.2899 86.2008 64.6199C86.2008 65.9499 85.0308 66.1699 83.9408 66.1699H83.9508Z" fill="#0D386B"/>
<path d="M91.0501 69.82C90.1401 69.82 89.3901 69.15 89.4001 68.21L88.3301 68.44C88.5101 69.8 89.5801 70.81 90.9601 70.81C92.4801 70.81 93.6801 69.71 93.6801 68.17C93.6801 66.75 92.7801 66.09 91.5701 65.62L90.9601 65.38C90.4301 65.18 89.7801 64.83 89.7801 64.17C89.7801 63.43 90.5201 62.97 91.2001 62.97C91.8801 62.97 92.2501 63.24 92.5601 63.77L93.4101 63.26C92.9501 62.44 92.1701 61.98 91.2201 61.98C89.9301 61.98 88.7101 62.8 88.7101 64.17C88.7101 65.35 89.5901 65.9 90.5601 66.32L91.1501 66.57C91.8801 66.87 92.6201 67.27 92.6201 68.18C92.6201 69.09 91.9701 69.83 91.0501 69.83V69.82Z" fill="#0D386B"/>
<path d="M95.9799 62.1499H94.9199V70.6299H95.9799V62.1499Z" fill="#0D386B"/>
<path d="M99.9804 70.6299V63.1199H101.99V62.1499H96.9004V63.1199H98.9104V70.6299H99.9804Z" fill="#0D386B"/>
<path d="M103.281 62.1499H102.061L104.841 66.9399V70.6299H105.901V66.9399L108.671 62.1499H107.451L105.371 65.7699L103.281 62.1499Z" fill="#0D386B"/>
<path d="M116.749 70.8102C119.209 70.8102 121.209 68.9102 121.209 66.3902C121.209 63.8702 119.189 61.9702 116.749 61.9702C114.309 61.9702 112.289 63.9602 112.289 66.3902C112.289 68.8202 114.289 70.8102 116.749 70.8102ZM116.749 62.9602C118.749 62.9602 120.139 64.5202 120.139 66.3902C120.139 68.2602 118.589 69.8202 116.749 69.8202C114.909 69.8202 113.359 68.3302 113.359 66.3902C113.359 64.4502 114.759 62.9602 116.749 62.9602Z" fill="#0D386B"/>
<path d="M123.4 66.4699H126.35V65.4999H123.4V63.1199H126.45V62.1499H122.33V70.6299H123.4V66.4699Z" fill="#0D386B"/>
<path d="M133.961 65.62L133.351 65.38C132.821 65.18 132.171 64.83 132.171 64.17C132.171 63.43 132.911 62.97 133.591 62.97C134.271 62.97 134.641 63.24 134.951 63.77L135.801 63.26C135.341 62.44 134.561 61.98 133.611 61.98C132.321 61.98 131.101 62.8 131.101 64.17C131.101 65.35 131.981 65.9 132.951 66.32L133.531 66.57C134.271 66.87 135.001 67.27 135.001 68.18C135.001 69.09 134.351 69.83 133.431 69.83C132.511 69.83 131.771 69.16 131.781 68.22L130.711 68.45C130.891 69.81 131.961 70.82 133.341 70.82C134.861 70.82 136.061 69.72 136.061 68.18C136.061 66.76 135.161 66.1 133.951 65.63L133.961 65.62Z" fill="#0D386B"/>
<path d="M141.301 62.9402C142.101 62.9402 142.941 63.2302 143.541 63.7702V62.5502C142.901 62.1502 142.141 61.9702 141.401 61.9702C138.901 61.9702 136.881 63.9302 136.881 66.4402C136.881 68.9502 138.891 70.8102 141.311 70.8102C142.051 70.8102 142.891 70.5902 143.541 70.2102V68.9602C142.911 69.5202 142.111 69.8402 141.271 69.8402C139.381 69.8402 137.931 68.2502 137.931 66.4002C137.931 64.5502 139.391 62.9402 141.291 62.9402H141.301Z" fill="#0D386B"/>
<path d="M145.941 62.1499H144.881V70.6299H145.941V62.1499Z" fill="#0D386B"/>
<path d="M147.65 70.6299H152.21V69.6599H148.71V66.4599H152.11V65.4899H148.71V63.1199H152.21V62.1499H147.65V70.6299Z" fill="#0D386B"/>
<path d="M159.919 68.41L153.539 61.75V70.63H154.599V64.31L160.979 70.98V62.15H159.919V68.41Z" fill="#0D386B"/>
<path d="M162.129 66.4402C162.129 68.8902 164.139 70.8102 166.559 70.8102C167.299 70.8102 168.139 70.5902 168.789 70.2102V68.9602C168.159 69.5202 167.359 69.8402 166.519 69.8402C164.619 69.8402 163.179 68.2502 163.179 66.4002C163.179 64.5502 164.639 62.9402 166.539 62.9402C167.339 62.9402 168.169 63.2302 168.779 63.7702V62.5502C168.139 62.1502 167.379 61.9702 166.639 61.9702C164.129 61.9702 162.119 63.9302 162.119 66.4402H162.129Z" fill="#0D386B"/>
<path d="M174.74 63.1199V62.1499H170.17V70.6299H174.74V69.6599H171.23V66.4599H174.64V65.4899H171.23V63.1199H174.74Z" fill="#0D386B"/>
<path d="M48.9707 84.1203H50.1107L51.0807 82.0003H54.9807L55.9507 84.1203H57.0907L53.0307 75.2803L48.9707 84.1203V84.1203ZM51.5207 81.0303L53.0307 77.6003L54.5407 81.0303H51.5207V81.0303Z" fill="#0D386B"/>
<path d="M64.1905 81.9L57.8105 75.23V84.12H58.8705V77.8L65.2605 84.47V75.64H64.1905V81.9Z" fill="#0D386B"/>
<path d="M68.5491 75.6401H66.7891V84.1201H68.5191C71.1991 84.1201 73.3291 82.7301 73.3291 79.8401C73.3291 76.9501 71.1591 75.6401 68.5591 75.6401H68.5491ZM68.2191 83.1501H67.8491V76.6101H68.2191C70.3891 76.6101 72.2591 77.4101 72.2591 79.8801C72.2591 82.3501 70.3891 83.1501 68.2191 83.1501V83.1501Z" fill="#0D386B"/>
<path d="M77.0801 76.6101H79.1001V84.1201H80.1601V76.6101H82.1801V75.6401H77.0801V76.6101Z" fill="#0D386B"/>
<path d="M83.1191 84.1201H87.6891V83.1501H84.1791V79.9501H87.5891V78.9801H84.1791V76.6101H87.6891V75.6401H83.1191V84.1201Z" fill="#0D386B"/>
<path d="M88.6406 79.9199C88.6406 82.3699 90.6506 84.2899 93.0706 84.2899C93.8206 84.2899 94.6506 84.0799 95.3106 83.6899V82.4399C94.6806 82.9999 93.8806 83.3199 93.0406 83.3199C91.1506 83.3199 89.7006 81.7399 89.7006 79.8799C89.7006 78.0199 91.1606 76.4199 93.0606 76.4199C93.8606 76.4199 94.7006 76.7099 95.3106 77.2499V76.0199C94.6706 75.6299 93.9106 75.4399 93.1606 75.4399C90.6606 75.4399 88.6406 77.3999 88.6406 79.9099V79.9199Z" fill="#0D386B"/>
<path d="M101.7 79.0601H97.6498V75.6401H96.5898V84.1201H97.6498V80.0501H101.7V84.1201H102.76V75.6401H101.7V79.0601Z" fill="#0D386B"/>
<path d="M110.691 81.9L104.311 75.23V84.12H105.371V77.8L111.751 84.47V75.64H110.691V81.9Z" fill="#0D386B"/>
<path d="M117.23 75.46C114.79 75.46 112.77 77.45 112.77 79.88C112.77 82.31 114.77 84.3 117.23 84.3C119.69 84.3 121.69 82.4 121.69 79.88C121.69 77.36 119.67 75.46 117.23 75.46ZM117.23 83.31C115.39 83.31 113.84 81.82 113.84 79.88C113.84 77.94 115.24 76.45 117.23 76.45C119.22 76.45 120.63 78.01 120.63 79.88C120.63 81.75 119.07 83.31 117.23 83.31Z" fill="#0D386B"/>
<path d="M123.89 75.6401H122.83V84.1201H126.48V83.1501H123.89V75.6401Z" fill="#0D386B"/>
<path d="M131.14 75.46C128.7 75.46 126.68 77.45 126.68 79.88C126.68 82.31 128.68 84.3 131.14 84.3C133.6 84.3 135.59 82.4 135.59 79.88C135.59 77.36 133.57 75.46 131.14 75.46ZM131.14 83.31C129.3 83.31 127.74 81.82 127.74 79.88C127.74 77.94 129.14 76.45 131.14 76.45C133.14 76.45 134.53 78.01 134.53 79.88C134.53 81.75 132.97 83.31 131.14 83.31Z" fill="#0D386B"/>
<path d="M141.12 80.81H143.32C143.27 82.19 141.85 83.33 140.53 83.33C138.69 83.33 137.23 81.64 137.23 79.87C137.23 77.97 138.72 76.43 140.63 76.43C141.66 76.43 142.69 76.98 143.3 77.81L144.04 77.1C143.2 76.06 141.89 75.46 140.58 75.46C138.13 75.46 136.17 77.46 136.17 79.9C136.17 82.34 138.09 84.29 140.47 84.29C142.85 84.29 144.5 82.5 144.5 80.18V79.84H141.13V80.81H141.12Z" fill="#0D386B"/>
<path d="M148.07 79.2601L145.99 75.6401H144.77L147.55 80.4301V84.1201H148.61V80.4301L151.38 75.6401H150.16L148.07 79.2601Z" fill="#0D386B"/>
<path d="M8.7207 90.7002V101.46H42.5607V90.7002V101.46H8.7207V90.7002Z" fill="url(#paint0_linear_602_549)"/>
<path d="M42.6898 101.58H8.58984V90.7002H8.83984V101.33H42.4398V90.7002H42.6898V101.58Z" fill="#231815"/>
<path d="M48.4805 90.7002V101.46H172.14V90.7002V101.46H48.4805V90.7002Z" fill="url(#paint1_linear_602_549)"/>
<path d="M172.27 101.58H48.3496V90.7002H48.5996V101.33H172.02V90.7002H172.27V101.58Z" fill="#231815"/>
<path d="M133.55 26.9402V16.1802H48.4805V26.9402V16.1802H133.55V26.9402Z" fill="url(#paint2_linear_602_549)"/>
<path d="M133.68 26.9401H133.43V16.3101H48.5996V26.9401H48.3496V16.0601H133.68V26.9401Z" fill="#231815"/>
<path d="M0 107.99H0.9V115.05H4.83V115.82H0V107.99Z" fill="#231815"/>
<path d="M6.7693 115.54C6.3693 115.31 6.0693 114.97 5.8493 114.54C5.6293 114.11 5.5293 113.6 5.5293 113.02C5.5293 112.44 5.6393 111.94 5.8493 111.5C6.0593 111.06 6.3693 110.73 6.7693 110.5C7.1693 110.27 7.6193 110.15 8.1493 110.15C8.6793 110.15 9.1293 110.27 9.5293 110.5C9.9293 110.74 10.2293 111.07 10.4493 111.5C10.6693 111.93 10.7693 112.44 10.7693 113.02C10.7693 113.6 10.6593 114.1 10.4493 114.54C10.2293 114.97 9.9293 115.31 9.5293 115.54C9.1293 115.78 8.6793 115.89 8.1493 115.89C7.6193 115.89 7.1693 115.77 6.7693 115.54V115.54ZM9.4093 114.61C9.6993 114.25 9.8493 113.72 9.8493 113.02C9.8493 112.32 9.6993 111.82 9.3993 111.45C9.0993 111.08 8.6793 110.89 8.1493 110.89C7.6193 110.89 7.1893 111.08 6.8793 111.45C6.5693 111.82 6.4293 112.34 6.4293 113.02C6.4293 113.7 6.5793 114.25 6.8793 114.61C7.1793 114.97 7.5993 115.15 8.1493 115.15C8.6993 115.15 9.1193 114.97 9.4193 114.61H9.4093Z" fill="#231815"/>
<path d="M17.0603 110.29V115.78C17.0603 116.6 16.8503 117.22 16.4303 117.64C16.0103 118.06 15.3903 118.27 14.5703 118.27C13.7503 118.27 13.0003 118.08 12.3903 117.7L12.5403 116.97C12.8903 117.17 13.2203 117.31 13.5403 117.4C13.8503 117.49 14.1903 117.53 14.5703 117.53C15.1103 117.53 15.5103 117.39 15.7803 117.11C16.0503 116.83 16.1903 116.41 16.1903 115.85V114.54C16.0203 114.89 15.7703 115.17 15.4503 115.36C15.1203 115.55 14.7403 115.65 14.2903 115.65C13.8103 115.65 13.3703 115.54 13.0003 115.31C12.6203 115.08 12.3303 114.76 12.1303 114.34C11.9203 113.92 11.8203 113.44 11.8203 112.9C11.8203 112.36 11.9203 111.88 12.1303 111.46C12.3403 111.04 12.6303 110.72 13.0003 110.49C13.3803 110.26 13.8103 110.15 14.2903 110.15C14.7303 110.15 15.1103 110.25 15.4403 110.44C15.7703 110.63 16.0103 110.9 16.1803 111.24V110.28H17.0703L17.0603 110.29ZM15.7103 114.38C16.0103 114.02 16.1703 113.53 16.1703 112.91C16.1703 112.29 16.0203 111.8 15.7103 111.44C15.4103 111.08 14.9903 110.91 14.4503 110.91C13.9103 110.91 13.4803 111.09 13.1703 111.44C12.8603 111.8 12.7003 112.29 12.7003 112.91C12.7003 113.53 12.8603 114.02 13.1703 114.38C13.4803 114.74 13.9103 114.91 14.4503 114.91C14.9903 114.91 15.4103 114.73 15.7103 114.38V114.38Z" fill="#231815"/>
<path d="M19.6795 115.54C19.2795 115.31 18.9795 114.97 18.7595 114.54C18.5395 114.11 18.4395 113.6 18.4395 113.02C18.4395 112.44 18.5495 111.94 18.7595 111.5C18.9695 111.06 19.2795 110.73 19.6795 110.5C20.0795 110.27 20.5295 110.15 21.0595 110.15C21.5895 110.15 22.0395 110.27 22.4395 110.5C22.8395 110.74 23.1395 111.07 23.3595 111.5C23.5795 111.93 23.6795 112.44 23.6795 113.02C23.6795 113.6 23.5695 114.1 23.3595 114.54C23.1395 114.97 22.8395 115.31 22.4395 115.54C22.0395 115.78 21.5895 115.89 21.0595 115.89C20.5295 115.89 20.0795 115.77 19.6795 115.54ZM22.3195 114.61C22.6095 114.25 22.7595 113.72 22.7595 113.02C22.7595 112.32 22.6095 111.82 22.3095 111.45C22.0095 111.08 21.5895 110.89 21.0595 110.89C20.5295 110.89 20.0995 111.08 19.7895 111.45C19.4795 111.82 19.3395 112.34 19.3395 113.02C19.3395 113.7 19.4895 114.25 19.7895 114.61C20.0895 114.97 20.5095 115.15 21.0595 115.15C21.6095 115.15 22.0295 114.97 22.3295 114.61H22.3195Z" fill="#231815"/>
<path d="M33.0209 112.34V115.82H32.1309V112.39C32.1309 111.87 32.0409 111.49 31.8609 111.26C31.6809 111.03 31.3909 110.91 30.9909 110.91C30.5209 110.91 30.1509 111.07 29.8909 111.38C29.6309 111.7 29.4909 112.13 29.4909 112.67V115.83H28.6009V112.4C28.6009 111.89 28.5109 111.51 28.3309 111.27C28.1509 111.03 27.8509 110.91 27.4509 110.91C26.9809 110.91 26.6109 111.07 26.3409 111.38C26.0709 111.7 25.9409 112.13 25.9409 112.67V115.83H25.0509V111.85C25.0509 111.28 25.0209 110.76 24.9609 110.3H25.8109L25.9009 111.27C26.0509 110.92 26.2809 110.65 26.5909 110.46C26.8909 110.27 27.2509 110.17 27.6509 110.17C28.0909 110.17 28.4509 110.26 28.7309 110.43C29.0109 110.61 29.2109 110.88 29.3509 111.24C29.5209 110.91 29.7709 110.65 30.0909 110.45C30.4209 110.26 30.7809 110.16 31.2009 110.16C32.4209 110.16 33.0409 110.89 33.0409 112.35L33.0209 112.34Z" fill="#231815"/>
<path d="M39.5809 110.29V115.82H38.7009V114.82C38.5409 115.16 38.2909 115.43 37.9709 115.62C37.6409 115.81 37.2609 115.9 36.8309 115.9C36.3409 115.9 35.9109 115.78 35.5409 115.55C35.1709 115.32 34.8809 114.98 34.6809 114.55C34.4809 114.12 34.3809 113.62 34.3809 113.05C34.3809 112.48 34.4809 111.97 34.6909 111.54C34.9009 111.1 35.1809 110.76 35.5509 110.52C35.9209 110.28 36.3509 110.16 36.8309 110.16C37.2609 110.16 37.6409 110.26 37.9609 110.45C38.2809 110.64 38.5309 110.91 38.7009 111.25V110.29H39.5809V110.29ZM38.2609 114.61C38.5509 114.24 38.7009 113.71 38.7009 113.03C38.7009 112.35 38.5509 111.82 38.2609 111.46C37.9709 111.09 37.5509 110.91 37.0109 110.91C36.4709 110.91 36.0409 111.1 35.7409 111.48C35.4409 111.86 35.2809 112.38 35.2809 113.06C35.2809 113.74 35.4309 114.26 35.7309 114.62C36.0309 114.99 36.4609 115.17 37.0109 115.17C37.5609 115.17 37.9709 114.99 38.2609 114.61Z" fill="#231815"/>
<path d="M44.3709 110.22L44.3509 111.03C44.1809 110.97 43.9909 110.94 43.7709 110.94C43.2309 110.94 42.8409 111.11 42.5809 111.44C42.3209 111.77 42.1909 112.18 42.1909 112.65V115.81H41.3009V111.83C41.3009 111.26 41.2709 110.74 41.2109 110.28H42.0609L42.1509 111.3C42.2909 110.93 42.5109 110.64 42.8209 110.44C43.1309 110.24 43.4809 110.14 43.8809 110.14C44.0609 110.14 44.2309 110.16 44.3909 110.21L44.3709 110.22Z" fill="#231815"/>
<path d="M48.9898 115.82L46.1498 113.16V115.82H45.2598V107.72H46.1498V112.82L48.7598 110.29H49.8898L47.1198 112.94L50.1598 115.81H48.9898V115.82Z" fill="#231815"/>
<path d="M63.9395 107.99H64.8395V115.05H68.7695V115.82H63.9395V107.99V107.99Z" fill="#231815"/>
<path d="M70.7302 115.54C70.3302 115.31 70.0302 114.97 69.8102 114.54C69.5902 114.11 69.4902 113.6 69.4902 113.02C69.4902 112.44 69.6002 111.94 69.8102 111.5C70.0202 111.06 70.3302 110.73 70.7302 110.5C71.1302 110.27 71.5802 110.15 72.1102 110.15C72.6402 110.15 73.0902 110.27 73.4902 110.5C73.8902 110.74 74.1902 111.07 74.4102 111.5C74.6302 111.93 74.7302 112.44 74.7302 113.02C74.7302 113.6 74.6202 114.1 74.4102 114.54C74.1902 114.97 73.8902 115.31 73.4902 115.54C73.0902 115.78 72.6402 115.89 72.1102 115.89C71.5802 115.89 71.1302 115.77 70.7302 115.54ZM73.3702 114.61C73.6602 114.25 73.8102 113.72 73.8102 113.02C73.8102 112.32 73.6602 111.82 73.3602 111.45C73.0602 111.08 72.6402 110.89 72.1102 110.89C71.5802 110.89 71.1502 111.08 70.8402 111.45C70.5302 111.82 70.3902 112.34 70.3902 113.02C70.3902 113.7 70.5402 114.25 70.8402 114.61C71.1402 114.97 71.5602 115.15 72.1102 115.15C72.6602 115.15 73.0802 114.97 73.3802 114.61H73.3702Z" fill="#231815"/>
<path d="M81.0388 110.29V115.78C81.0388 116.6 80.8288 117.22 80.4088 117.64C79.9888 118.06 79.3688 118.27 78.5488 118.27C77.7288 118.27 76.9788 118.08 76.3688 117.7L76.5188 116.97C76.8688 117.17 77.1988 117.31 77.5188 117.4C77.8288 117.49 78.1688 117.53 78.5488 117.53C79.0888 117.53 79.4888 117.39 79.7588 117.11C80.0288 116.83 80.1688 116.41 80.1688 115.85V114.54C79.9988 114.89 79.7488 115.17 79.4288 115.36C79.0988 115.55 78.7188 115.65 78.2688 115.65C77.7888 115.65 77.3488 115.54 76.9788 115.31C76.5988 115.08 76.3088 114.76 76.1088 114.34C75.8988 113.92 75.7988 113.44 75.7988 112.9C75.7988 112.36 75.8988 111.88 76.1088 111.46C76.3188 111.04 76.6088 110.72 76.9788 110.49C77.3588 110.26 77.7888 110.15 78.2688 110.15C78.7088 110.15 79.0888 110.25 79.4188 110.44C79.7488 110.63 79.9888 110.9 80.1588 111.24V110.28H81.0488L81.0388 110.29ZM79.6888 114.38C79.9888 114.02 80.1488 113.53 80.1488 112.91C80.1488 112.29 79.9988 111.8 79.6888 111.44C79.3888 111.08 78.9688 110.91 78.4288 110.91C77.8888 110.91 77.4588 111.09 77.1488 111.44C76.8388 111.8 76.6788 112.29 76.6788 112.91C76.6788 113.53 76.8388 114.02 77.1488 114.38C77.4588 114.74 77.8888 114.91 78.4288 114.91C78.9688 114.91 79.3888 114.73 79.6888 114.38Z" fill="#231815"/>
<path d="M83.6697 115.54C83.2697 115.31 82.9697 114.97 82.7497 114.54C82.5297 114.11 82.4297 113.6 82.4297 113.02C82.4297 112.44 82.5397 111.94 82.7497 111.5C82.9597 111.06 83.2697 110.73 83.6697 110.5C84.0697 110.27 84.5197 110.15 85.0497 110.15C85.5797 110.15 86.0297 110.27 86.4297 110.5C86.8297 110.74 87.1297 111.07 87.3497 111.5C87.5697 111.93 87.6697 112.44 87.6697 113.02C87.6697 113.6 87.5597 114.1 87.3497 114.54C87.1297 114.97 86.8297 115.31 86.4297 115.54C86.0297 115.78 85.5797 115.89 85.0497 115.89C84.5197 115.89 84.0697 115.77 83.6697 115.54ZM86.3097 114.61C86.5997 114.25 86.7497 113.72 86.7497 113.02C86.7497 112.32 86.5997 111.82 86.2997 111.45C85.9997 111.08 85.5797 110.89 85.0497 110.89C84.5197 110.89 84.0897 111.08 83.7797 111.45C83.4697 111.82 83.3297 112.34 83.3297 113.02C83.3297 113.7 83.4797 114.25 83.7797 114.61C84.0797 114.97 84.4997 115.15 85.0497 115.15C85.5997 115.15 86.0197 114.97 86.3197 114.61H86.3097Z" fill="#231815"/>
<path d="M90.23 110.99V114.02C90.23 114.43 90.31 114.72 90.48 114.88C90.65 115.05 90.89 115.13 91.2 115.13C91.41 115.13 91.6 115.1 91.79 115.03V115.79C91.56 115.86 91.31 115.9 91.02 115.9C90.49 115.9 90.08 115.75 89.78 115.45C89.48 115.15 89.33 114.71 89.33 114.14V110.99H88.25V110.29H89.33V108.87L90.22 108.55V110.29H91.8V110.99H90.22H90.23Z" fill="#231815"/>
<path d="M97.8185 110.29L95.2285 116.33C94.9585 116.96 94.6185 117.42 94.2085 117.72C93.7985 118.01 93.2885 118.22 92.6885 118.33L92.4985 117.64C93.0185 117.52 93.4085 117.37 93.6785 117.17C93.9485 116.98 94.1685 116.68 94.3485 116.27L94.5685 115.77L92.2285 110.29H93.1685L95.0385 114.86L96.9285 110.29H97.8185V110.29Z" fill="#231815"/>
<path d="M102.849 110.52C103.219 110.76 103.509 111.1 103.719 111.54C103.929 111.98 104.029 112.48 104.029 113.05C104.029 113.62 103.929 114.12 103.719 114.55C103.509 114.98 103.229 115.31 102.859 115.55C102.489 115.79 102.059 115.9 101.569 115.9C101.139 115.9 100.759 115.8 100.439 115.61C100.119 115.42 99.8687 115.15 99.6987 114.8V118.2H98.8087V111.84C98.8087 111.27 98.7787 110.75 98.7188 110.29H99.5687L99.6588 111.36C99.8088 110.98 100.059 110.68 100.389 110.47C100.719 110.26 101.119 110.16 101.569 110.16C102.049 110.16 102.479 110.28 102.859 110.52H102.849ZM102.659 114.61C102.959 114.24 103.109 113.72 103.109 113.05C103.109 112.38 102.959 111.85 102.659 111.47C102.359 111.09 101.939 110.9 101.409 110.9C100.879 110.9 100.439 111.08 100.139 111.45C99.8487 111.82 99.6987 112.34 99.6987 113.02C99.6987 113.7 99.8487 114.23 100.139 114.6C100.429 114.97 100.849 115.16 101.409 115.16C101.969 115.16 102.369 114.98 102.669 114.61H102.659Z" fill="#231815"/>
<path d="M110.03 113.03H105.97C105.97 113.73 106.14 114.27 106.46 114.62C106.78 114.97 107.24 115.16 107.85 115.16C108.5 115.16 109.09 114.94 109.63 114.51L109.93 115.16C109.69 115.39 109.38 115.57 109 115.7C108.62 115.83 108.24 115.9 107.84 115.9C106.97 115.9 106.3 115.65 105.81 115.14C105.32 114.63 105.07 113.93 105.07 113.04C105.07 112.48 105.18 111.98 105.4 111.54C105.62 111.1 105.93 110.76 106.32 110.52C106.71 110.28 107.17 110.16 107.67 110.16C108.4 110.16 108.98 110.4 109.4 110.88C109.82 111.36 110.03 112.02 110.03 112.87V113.04V113.03ZM106.56 111.27C106.27 111.55 106.08 111.94 106 112.45H109.22C109.18 111.93 109.02 111.53 108.76 111.26C108.5 110.99 108.14 110.85 107.68 110.85C107.22 110.85 106.84 110.99 106.55 111.27H106.56Z" fill="#231815"/>
<path d="M114.199 112.5H117.309V113.24H114.199V112.5Z" fill="#231815"/>
<path d="M121.959 107.99H126.909V108.74H122.849V111.47H126.689V112.23H122.849V115.08H126.909V115.83H121.959V108V107.99Z" fill="#231815"/>
<path d="M133.069 112.34V115.82H132.179V112.39C132.179 111.88 132.079 111.5 131.869 111.26C131.659 111.02 131.339 110.9 130.899 110.9C130.389 110.9 129.979 111.06 129.669 111.37C129.359 111.69 129.209 112.11 129.209 112.65V115.82H128.319V111.84C128.319 111.27 128.289 110.75 128.229 110.29H129.079L129.169 111.28C129.339 110.92 129.589 110.64 129.929 110.45C130.269 110.26 130.649 110.16 131.089 110.16C132.419 110.16 133.079 110.89 133.079 112.35L133.069 112.34Z" fill="#231815"/>
<path d="M139.679 110.29V115.78C139.679 116.6 139.469 117.22 139.049 117.64C138.629 118.06 138.009 118.27 137.189 118.27C136.369 118.27 135.619 118.08 135.009 117.7L135.159 116.97C135.509 117.17 135.839 117.31 136.159 117.4C136.469 117.49 136.809 117.53 137.189 117.53C137.729 117.53 138.129 117.39 138.399 117.11C138.669 116.83 138.809 116.41 138.809 115.85V114.54C138.639 114.89 138.389 115.17 138.069 115.36C137.739 115.55 137.359 115.65 136.909 115.65C136.429 115.65 135.989 115.54 135.619 115.31C135.239 115.08 134.949 114.76 134.749 114.34C134.539 113.92 134.439 113.44 134.439 112.9C134.439 112.36 134.539 111.88 134.749 111.46C134.959 111.04 135.249 110.72 135.619 110.49C135.999 110.26 136.429 110.15 136.909 110.15C137.349 110.15 137.729 110.25 138.059 110.44C138.389 110.63 138.629 110.9 138.799 111.24V110.28H139.689L139.679 110.29ZM138.329 114.38C138.629 114.02 138.789 113.53 138.789 112.91C138.789 112.29 138.639 111.8 138.329 111.44C138.029 111.08 137.609 110.91 137.069 110.91C136.529 110.91 136.099 111.09 135.789 111.44C135.479 111.8 135.319 112.29 135.319 112.91C135.319 113.53 135.479 114.02 135.789 114.38C136.099 114.74 136.529 114.91 137.069 114.91C137.609 114.91 138.029 114.73 138.329 114.38Z" fill="#231815"/>
<path d="M141.389 107.72H142.279V115.82H141.389V107.72Z" fill="#231815"/>
<path d="M145.01 107.94V108.95H143.92V107.94H145.01ZM144.01 110.28H144.9V115.81H144.01V110.28Z" fill="#231815"/>
<path d="M146.29 115.18L146.59 114.52C146.89 114.75 147.19 114.92 147.5 115.03C147.81 115.14 148.15 115.18 148.53 115.18C148.95 115.18 149.26 115.11 149.48 114.97C149.7 114.83 149.8 114.62 149.8 114.35C149.8 114.13 149.73 113.95 149.58 113.82C149.43 113.69 149.19 113.59 148.85 113.51L147.91 113.29C147.45 113.19 147.09 113 146.84 112.74C146.59 112.48 146.46 112.16 146.46 111.79C146.46 111.31 146.65 110.91 147.04 110.61C147.43 110.31 147.94 110.15 148.58 110.15C148.97 110.15 149.33 110.21 149.68 110.34C150.02 110.46 150.31 110.64 150.55 110.88L150.25 111.53C149.73 111.1 149.17 110.88 148.58 110.88C148.18 110.88 147.88 110.96 147.66 111.11C147.44 111.26 147.34 111.47 147.34 111.74C147.34 111.97 147.41 112.15 147.54 112.28C147.67 112.41 147.89 112.51 148.19 112.59L149.13 112.82C149.64 112.94 150.02 113.12 150.27 113.36C150.52 113.61 150.64 113.93 150.64 114.32C150.64 114.8 150.45 115.18 150.06 115.46C149.67 115.75 149.14 115.89 148.48 115.89C147.55 115.89 146.81 115.65 146.27 115.18H146.29Z" fill="#231815"/>
<path d="M156.84 112.34V115.82H155.95V112.39C155.95 111.88 155.85 111.5 155.64 111.26C155.43 111.02 155.11 110.9 154.67 110.9C154.16 110.9 153.75 111.06 153.44 111.37C153.13 111.69 152.98 112.11 152.98 112.65V115.82H152.09V107.72H152.98V111.18C153.16 110.84 153.41 110.59 153.73 110.41C154.06 110.23 154.43 110.15 154.85 110.15C156.18 110.15 156.84 110.88 156.84 112.34V112.34Z" fill="#231815"/>
<path d="M43.2793 0.259766H44.1793V7.32977H48.1093V8.09977H43.2793V0.259766Z" fill="#231815"/>
<path d="M50.0701 7.82018C49.6701 7.59018 49.3701 7.25018 49.1501 6.82018C48.9301 6.39018 48.8301 5.88018 48.8301 5.30018C48.8301 4.72018 48.9401 4.22018 49.1501 3.78018C49.3601 3.34018 49.6701 3.01018 50.0701 2.78018C50.4701 2.55018 50.9201 2.43018 51.4501 2.43018C51.9801 2.43018 52.4301 2.55018 52.8301 2.78018C53.2301 3.02018 53.5301 3.35018 53.7501 3.78018C53.9701 4.21018 54.0701 4.72018 54.0701 5.30018C54.0701 5.88018 53.9601 6.38018 53.7501 6.82018C53.5301 7.25018 53.2301 7.59018 52.8301 7.82018C52.4301 8.06018 51.9801 8.17018 51.4501 8.17018C50.9201 8.17018 50.4701 8.05018 50.0701 7.82018ZM52.7101 6.89018C53.0001 6.53018 53.1501 6.00018 53.1501 5.30018C53.1501 4.60018 53.0001 4.10018 52.7001 3.73018C52.4001 3.36018 51.9801 3.17018 51.4501 3.17018C50.9201 3.17018 50.4901 3.36018 50.1801 3.73018C49.8701 4.10018 49.7301 4.62018 49.7301 5.30018C49.7301 5.98018 49.8801 6.53018 50.1801 6.89018C50.4801 7.25018 50.9001 7.43018 51.4501 7.43018C52.0001 7.43018 52.4201 7.25018 52.7201 6.89018H52.7101Z" fill="#231815"/>
<path d="M60.3787 2.55992V8.04992C60.3787 8.86992 60.1687 9.48992 59.7487 9.90992C59.3287 10.3299 58.7087 10.5399 57.8887 10.5399C57.0687 10.5399 56.3187 10.3499 55.7087 9.96992L55.8587 9.23992C56.2087 9.43992 56.5387 9.57992 56.8587 9.66992C57.1687 9.75992 57.5087 9.79992 57.8887 9.79992C58.4287 9.79992 58.8287 9.65992 59.0987 9.37992C59.3687 9.09992 59.5087 8.67992 59.5087 8.11992V6.80992C59.3387 7.15992 59.0887 7.43992 58.7687 7.62992C58.4387 7.81992 58.0587 7.91992 57.6087 7.91992C57.1287 7.91992 56.6887 7.80992 56.3187 7.57992C55.9387 7.34992 55.6487 7.02992 55.4487 6.60992C55.2387 6.18992 55.1387 5.70992 55.1387 5.16992C55.1387 4.62992 55.2387 4.14992 55.4487 3.72992C55.6587 3.30992 55.9487 2.98992 56.3187 2.75992C56.6987 2.52992 57.1287 2.41992 57.6087 2.41992C58.0487 2.41992 58.4287 2.51992 58.7587 2.70992C59.0887 2.89992 59.3287 3.16992 59.4987 3.50992V2.54992H60.3887L60.3787 2.55992ZM59.0287 6.64992C59.3287 6.28992 59.4887 5.79992 59.4887 5.17992C59.4887 4.55992 59.3387 4.06992 59.0287 3.70992C58.7287 3.34992 58.3087 3.17992 57.7687 3.17992C57.2287 3.17992 56.7987 3.35992 56.4887 3.70992C56.1787 4.06992 56.0187 4.55992 56.0187 5.17992C56.0187 5.79992 56.1787 6.28992 56.4887 6.64992C56.7987 7.00992 57.2287 7.17992 57.7687 7.17992C58.3087 7.17992 58.7287 6.99992 59.0287 6.64992Z" fill="#231815"/>
<path d="M62.9998 7.82018C62.5998 7.59018 62.2998 7.25018 62.0798 6.82018C61.8598 6.39018 61.7598 5.88018 61.7598 5.30018C61.7598 4.72018 61.8698 4.22018 62.0798 3.78018C62.2898 3.34018 62.5998 3.01018 62.9998 2.78018C63.3998 2.55018 63.8498 2.43018 64.3798 2.43018C64.9098 2.43018 65.3598 2.55018 65.7598 2.78018C66.1598 3.02018 66.4598 3.35018 66.6798 3.78018C66.8998 4.21018 66.9998 4.72018 66.9998 5.30018C66.9998 5.88018 66.8898 6.38018 66.6798 6.82018C66.4598 7.25018 66.1598 7.59018 65.7598 7.82018C65.3598 8.06018 64.9098 8.17018 64.3798 8.17018C63.8498 8.17018 63.3998 8.05018 62.9998 7.82018V7.82018ZM65.6398 6.89018C65.9298 6.53018 66.0798 6.00018 66.0798 5.30018C66.0798 4.60018 65.9298 4.10018 65.6298 3.73018C65.3298 3.36018 64.9098 3.17018 64.3798 3.17018C63.8498 3.17018 63.4198 3.36018 63.1098 3.73018C62.7998 4.10018 62.6598 4.62018 62.6598 5.30018C62.6598 5.98018 62.8098 6.53018 63.1098 6.89018C63.4098 7.25018 63.8298 7.43018 64.3798 7.43018C64.9298 7.43018 65.3498 7.25018 65.6498 6.89018H65.6398Z" fill="#231815"/>
<path d="M69.5698 3.26982V6.29982C69.5698 6.70982 69.6498 6.99982 69.8198 7.15982C69.9898 7.32982 70.2298 7.40982 70.5398 7.40982C70.7498 7.40982 70.9398 7.37982 71.1298 7.30982V8.06982C70.8998 8.13982 70.6498 8.17982 70.3598 8.17982C69.8298 8.17982 69.4199 8.02982 69.1199 7.72982C68.8199 7.42982 68.6698 6.98982 68.6698 6.41982V3.26982H67.5898V2.56982H68.6698V1.13982L69.5598 0.819824V2.55982H71.1398V3.25982H69.5598L69.5698 3.26982Z" fill="#231815"/>
<path d="M77.1584 2.56006L74.5684 8.60006C74.2984 9.23006 73.9584 9.69006 73.5484 9.99006C73.1384 10.2801 72.6284 10.4901 72.0284 10.6001L71.8384 9.91006C72.3584 9.79006 72.7484 9.64006 73.0184 9.44006C73.2884 9.25006 73.5084 8.95006 73.6884 8.54006L73.9084 8.04006L71.5684 2.56006H72.5084L74.3784 7.13006L76.2684 2.56006H77.1584V2.56006Z" fill="#231815"/>
<path d="M82.1886 2.79018C82.5586 3.03018 82.8486 3.37018 83.0586 3.81018C83.2686 4.25018 83.3686 4.75018 83.3686 5.32018C83.3686 5.89018 83.2686 6.39018 83.0586 6.82018C82.8486 7.25018 82.5686 7.58018 82.1986 7.82018C81.8286 8.06018 81.3986 8.17018 80.9086 8.17018C80.4786 8.17018 80.0986 8.07018 79.7786 7.88018C79.4586 7.69018 79.2086 7.42018 79.0386 7.07018V10.4702H78.1486V4.11018C78.1486 3.54018 78.1186 3.02018 78.0586 2.56018H78.9086L78.9986 3.63018C79.1486 3.25018 79.3986 2.95018 79.7286 2.74018C80.0586 2.53018 80.4586 2.43018 80.9086 2.43018C81.3886 2.43018 81.8186 2.55018 82.1986 2.79018H82.1886ZM81.9986 6.88018C82.2986 6.51018 82.4486 5.99018 82.4486 5.32018C82.4486 4.65018 82.2986 4.12018 81.9986 3.74018C81.6986 3.36018 81.2786 3.17018 80.7486 3.17018C80.2186 3.17018 79.7786 3.35018 79.4786 3.72018C79.1886 4.09018 79.0386 4.61018 79.0386 5.29018C79.0386 5.97018 79.1886 6.50018 79.4786 6.87018C79.7686 7.24018 80.1886 7.43018 80.7486 7.43018C81.3086 7.43018 81.7086 7.25018 82.0086 6.88018H81.9986Z" fill="#231815"/>
<path d="M89.3702 5.30018H85.3102C85.3102 6.00018 85.4802 6.54018 85.8002 6.89018C86.1202 7.24018 86.5802 7.43018 87.1902 7.43018C87.8402 7.43018 88.4302 7.21018 88.9702 6.78018L89.2701 7.43018C89.0301 7.66018 88.7201 7.84018 88.3401 7.97018C87.9601 8.10018 87.5802 8.17018 87.1802 8.17018C86.3102 8.17018 85.6402 7.92018 85.1502 7.41018C84.6602 6.90018 84.4102 6.20018 84.4102 5.31018C84.4102 4.75018 84.5202 4.25018 84.7402 3.81018C84.9602 3.37018 85.2702 3.03018 85.6602 2.79018C86.0502 2.55018 86.5102 2.43018 87.0102 2.43018C87.7402 2.43018 88.3202 2.67018 88.7402 3.15018C89.1602 3.63018 89.3702 4.29018 89.3702 5.14018V5.31018V5.30018ZM85.9002 3.54018C85.6102 3.82018 85.4201 4.21018 85.3401 4.72018H88.5602C88.5202 4.20018 88.3602 3.80018 88.1002 3.53018C87.8402 3.26018 87.4801 3.12018 87.0201 3.12018C86.5601 3.12018 86.1802 3.26018 85.8902 3.54018H85.9002Z" fill="#231815"/>
<path d="M93.5391 4.77002H96.6491V5.51002H93.5391V4.77002Z" fill="#231815"/>
<path d="M102.71 7.70018C102.16 7.38018 101.74 6.91018 101.45 6.31018C101.16 5.70018 101.01 4.99018 101.01 4.17018C101.01 3.35018 101.16 2.64018 101.45 2.04018C101.74 1.44018 102.16 0.980176 102.71 0.660176C103.26 0.340176 103.9 0.180176 104.64 0.180176C105.18 0.180176 105.68 0.260176 106.13 0.430176C106.58 0.600176 106.97 0.840176 107.3 1.17018L106.96 1.86018C106.59 1.54018 106.22 1.31018 105.85 1.17018C105.49 1.03018 105.09 0.960176 104.65 0.960176C103.79 0.960176 103.13 1.24018 102.65 1.80018C102.18 2.36018 101.94 3.15018 101.94 4.18018C101.94 5.21018 102.17 6.01018 102.64 6.57018C103.11 7.13018 103.78 7.41018 104.64 7.41018C105.08 7.41018 105.48 7.34018 105.84 7.20018C106.2 7.06018 106.57 6.83018 106.95 6.51018L107.29 7.20018C106.96 7.53018 106.57 7.78018 106.12 7.94018C105.67 8.11018 105.17 8.19018 104.63 8.19018C103.89 8.19018 103.25 8.03018 102.7 7.71018L102.71 7.70018Z" fill="#231815"/>
<path d="M113.459 4.62V8.1H112.569V4.67C112.569 4.16 112.469 3.78 112.259 3.54C112.049 3.3 111.729 3.18 111.289 3.18C110.779 3.18 110.369 3.34 110.059 3.65C109.749 3.97 109.599 4.39 109.599 4.93V8.1H108.709V0H109.599V3.46C109.779 3.12 110.029 2.87 110.349 2.69C110.679 2.51 111.049 2.43 111.469 2.43C112.799 2.43 113.459 3.16 113.459 4.62V4.62Z" fill="#231815"/>
<path d="M116.139 0.220215V1.23021H115.049V0.220215H116.139ZM115.139 2.56021H116.029V8.09022H115.139V2.56021Z" fill="#231815"/>
<path d="M122.51 4.61994V8.09994H121.62V4.66994C121.62 4.15994 121.52 3.77994 121.31 3.53994C121.1 3.29994 120.78 3.17994 120.34 3.17994C119.83 3.17994 119.42 3.33994 119.11 3.64994C118.8 3.96994 118.65 4.38994 118.65 4.92994V8.09994H117.76V4.11994C117.76 3.54994 117.73 3.02994 117.67 2.56994H118.52L118.61 3.55994C118.78 3.19994 119.03 2.91994 119.37 2.72994C119.71 2.53994 120.09 2.43994 120.53 2.43994C121.86 2.43994 122.52 3.16994 122.52 4.62994L122.51 4.61994Z" fill="#231815"/>
<path d="M128.829 5.30018H124.769C124.769 6.00018 124.939 6.54018 125.259 6.89018C125.579 7.24018 126.039 7.43018 126.649 7.43018C127.299 7.43018 127.889 7.21018 128.429 6.78018L128.729 7.43018C128.489 7.66018 128.179 7.84018 127.799 7.97018C127.419 8.10018 127.039 8.17018 126.639 8.17018C125.769 8.17018 125.099 7.92018 124.609 7.41018C124.119 6.90018 123.869 6.20018 123.869 5.31018C123.869 4.75018 123.979 4.25018 124.199 3.81018C124.419 3.37018 124.729 3.03018 125.119 2.79018C125.509 2.55018 125.969 2.43018 126.469 2.43018C127.199 2.43018 127.779 2.67018 128.199 3.15018C128.619 3.63018 128.829 4.29018 128.829 5.14018V5.31018V5.30018ZM125.359 3.54018C125.069 3.82018 124.879 4.21018 124.799 4.72018H128.019C127.979 4.20018 127.819 3.80018 127.559 3.53018C127.299 3.26018 126.939 3.12018 126.479 3.12018C126.019 3.12018 125.639 3.26018 125.349 3.54018H125.359Z" fill="#231815"/>
<path d="M129.838 7.46018L130.138 6.80018C130.438 7.03018 130.738 7.20018 131.048 7.31018C131.358 7.42018 131.698 7.46018 132.078 7.46018C132.498 7.46018 132.808 7.39018 133.028 7.25018C133.248 7.11018 133.348 6.90018 133.348 6.63018C133.348 6.41018 133.278 6.23018 133.128 6.10018C132.978 5.97018 132.738 5.87018 132.398 5.79018L131.458 5.57018C130.998 5.47018 130.638 5.28018 130.388 5.02018C130.138 4.76018 130.008 4.44018 130.008 4.07018C130.008 3.59018 130.198 3.19018 130.588 2.89018C130.978 2.59018 131.488 2.43018 132.128 2.43018C132.518 2.43018 132.878 2.49018 133.228 2.62018C133.568 2.74018 133.858 2.92018 134.098 3.16018L133.798 3.81018C133.278 3.38018 132.718 3.16018 132.128 3.16018C131.728 3.16018 131.428 3.24018 131.208 3.39018C130.988 3.54018 130.888 3.75018 130.888 4.02018C130.888 4.25018 130.958 4.43018 131.088 4.56018C131.218 4.69018 131.438 4.79018 131.738 4.87018L132.678 5.10018C133.188 5.22018 133.568 5.40018 133.818 5.64018C134.068 5.89018 134.188 6.21018 134.188 6.60018C134.188 7.08018 133.998 7.46018 133.608 7.74018C133.218 8.03018 132.688 8.17018 132.028 8.17018C131.098 8.17018 130.358 7.93018 129.818 7.46018H129.838Z" fill="#231815"/>
<path d="M140.269 5.30018H136.209C136.209 6.00018 136.379 6.54018 136.699 6.89018C137.019 7.24018 137.479 7.43018 138.089 7.43018C138.739 7.43018 139.329 7.21018 139.869 6.78018L140.169 7.43018C139.929 7.66018 139.619 7.84018 139.239 7.97018C138.859 8.10018 138.479 8.17018 138.079 8.17018C137.209 8.17018 136.539 7.92018 136.049 7.41018C135.559 6.90018 135.309 6.20018 135.309 5.31018C135.309 4.75018 135.419 4.25018 135.639 3.81018C135.859 3.37018 136.169 3.03018 136.559 2.79018C136.949 2.55018 137.409 2.43018 137.909 2.43018C138.639 2.43018 139.219 2.67018 139.639 3.15018C140.059 3.63018 140.269 4.29018 140.269 5.14018V5.31018V5.30018ZM136.799 3.54018C136.509 3.82018 136.319 4.21018 136.239 4.72018H139.459C139.419 4.20018 139.259 3.80018 138.999 3.53018C138.739 3.26018 138.379 3.12018 137.919 3.12018C137.459 3.12018 137.079 3.26018 136.789 3.54018H136.799Z" fill="#231815"/>
<defs>
<linearGradient id="paint0_linear_602_549" x1="-5976.12" y1="853.85" x2="-5976.12" y2="853.85" gradientUnits="userSpaceOnUse">
<stop stop-color="white"/>
<stop offset="1" stop-color="#231815"/>
</linearGradient>
<linearGradient id="paint1_linear_602_549" x1="-5956.35" y1="853.85" x2="-5956.35" y2="853.85" gradientUnits="userSpaceOnUse">
<stop stop-color="white"/>
<stop offset="1" stop-color="#231815"/>
</linearGradient>
<linearGradient id="paint2_linear_602_549" x1="6226.32" y1="409.23" x2="6226.32" y2="409.23" gradientUnits="userSpaceOnUse">
<stop stop-color="white"/>
<stop offset="1" stop-color="#231815"/>
</linearGradient>
</defs>
</svg>
