<svg width="175" height="119" viewBox="0 0 175 119" fill="none" xmlns="http://www.w3.org/2000/svg">
<path d="M34.4908 84.3502L28.3808 74.0902C28.3808 74.0902 28.1908 73.8502 28.1908 73.4702V54.4502H25.8808V74.0802C26.0708 74.2702 29.9108 80.8802 29.9108 80.8802H20.3808C20.3808 80.8802 24.2208 74.2702 24.4108 74.0802V54.4502H22.1008V73.4702C22.1008 73.8602 21.9108 74.0902 21.9108 74.0902L15.8008 84.3502H34.4708H34.4908Z" fill="#AA8420"/>
<path d="M32.5994 41.14C32.5994 41.14 33.7494 36.34 29.6494 33.2C29.6494 33.2 28.0094 31.71 24.8894 31.71C22.0994 31.71 20.4594 33.2 20.4594 33.2C16.6894 35.85 17.6694 41.14 17.6694 41.14H32.5994Z" fill="#AA8420"/>
<path d="M18.1396 42.4599H32.1696C32.2796 42.1899 32.3696 41.9199 32.4496 41.6299H17.8496C17.9296 41.9099 18.0196 42.1899 18.1296 42.4599" fill="#AA8420"/>
<path d="M31.9494 42.96H18.3594C18.4994 43.25 18.6594 43.52 18.8294 43.79H31.4794C31.6494 43.52 31.8094 43.25 31.9494 42.96" fill="#AA8420"/>
<path d="M19.7497 44.9398H30.5597C30.7597 44.7298 30.9497 44.5098 31.1297 44.2798H19.1797C19.3597 44.5098 19.5497 44.7298 19.7497 44.9398" fill="#AA8420"/>
<path d="M20.9195 45.9302H29.3895C29.6095 45.7802 29.8295 45.6102 30.0295 45.4302H20.2695C20.4795 45.6102 20.6895 45.7702 20.9095 45.9302" fill="#AA8420"/>
<path d="M22.0898 46.6001C23.0298 47.0201 24.0598 47.2601 25.1598 47.2601C26.2598 47.2601 27.2898 47.0201 28.2298 46.6001H22.0998H22.0898Z" fill="#AA8420"/>
<path d="M39.7103 47.6299H28.2303C28.2303 47.6299 27.1703 47.6299 26.3203 48.2099C25.6603 48.6599 25.2003 49.7099 25.1703 49.7699C25.1503 49.7199 24.6803 48.6699 24.0203 48.2099C23.1703 47.6299 22.1103 47.6299 22.1103 47.6299H10.6203L8.32031 51.3299H18.8403C18.8403 51.3299 19.1503 51.3299 19.3403 51.3599C19.6503 51.4099 20.1903 51.5799 20.7603 51.9899C21.5403 52.5599 21.7603 52.8499 21.9503 53.0399C22.0503 53.1399 22.2903 53.4699 22.2903 53.4699H28.0303C28.0303 53.4699 28.2803 53.1399 28.3703 53.0399C28.5603 52.8499 28.7803 52.5599 29.5603 51.9899C30.1303 51.5799 30.6703 51.4099 30.9803 51.3599C31.1703 51.3299 31.4803 51.3299 31.4803 51.3299H42.0003L39.7003 47.6299H39.7103Z" fill="#003477"/>
<path d="M9.4707 52.4502V70.0502C9.4707 70.2402 9.4807 70.4102 9.5007 70.5702C9.6907 72.4302 10.2607 73.8002 11.3407 75.6102C13.0307 78.4502 16.0907 80.4302 16.0907 80.4302L17.5307 78.1102C17.5307 78.1102 15.5707 77.0602 14.0107 74.6502C13.6907 74.1702 13.3807 73.7202 13.1707 73.2702C12.9707 72.8502 12.8207 72.5002 12.6907 72.1302C12.6007 71.8702 12.5307 71.6202 12.4707 71.4002C12.3907 71.0802 12.3607 70.8302 12.3407 70.5302C12.3407 70.4202 12.3207 69.9902 12.3207 69.9902V52.4502H9.4707V52.4502Z" fill="#003477"/>
<path d="M13.8498 52.4502V69.9902C13.8498 69.9902 13.8498 70.0602 13.8498 70.1402C13.8498 70.2302 13.8598 70.3502 13.8798 70.4502C13.8798 70.5102 13.8998 70.5902 13.9098 70.6402C13.9698 70.9102 14.0198 71.1602 14.1398 71.5202C14.3398 72.1102 14.6798 72.8202 15.1898 73.6402C16.4798 75.7402 18.3398 76.7002 18.3398 76.7002L19.7798 74.4402C19.7798 74.4402 19.2998 74.1802 18.7198 73.6102C18.3398 73.2402 17.8798 72.7502 17.4898 72.1602C17.1098 71.5602 16.8698 70.9602 16.7398 70.5102C16.6298 70.1302 16.6098 69.8302 16.5998 69.6302C16.5998 69.4702 16.5998 69.3802 16.5998 69.3802V52.4502H13.8398H13.8498Z" fill="#003477"/>
<path d="M40.8491 52.4502V70.0502C40.8491 70.2402 40.8391 70.4102 40.8191 70.5702C40.6291 72.4302 40.0591 73.8002 38.9791 75.6102C37.2891 78.4502 34.2291 80.4302 34.2291 80.4302L32.7891 78.1102C32.7891 78.1102 34.7491 77.0602 36.3091 74.6502C36.6291 74.1702 36.9391 73.7202 37.1491 73.2702C37.3491 72.8502 37.4991 72.5002 37.6291 72.1302C37.7191 71.8702 37.7891 71.6202 37.8491 71.4002C37.9291 71.0802 37.9591 70.8302 37.9791 70.5302C37.9791 70.4202 37.9991 69.9902 37.9991 69.9902V52.4502H40.8491V52.4502Z" fill="#003477"/>
<path d="M36.4691 52.4502V69.9902C36.4691 69.9902 36.4691 70.0602 36.4691 70.1402C36.4691 70.2302 36.4591 70.3502 36.4391 70.4502C36.4391 70.5102 36.4191 70.5902 36.4091 70.6402C36.3491 70.9102 36.2991 71.1602 36.1791 71.5202C35.9791 72.1102 35.6391 72.8202 35.1291 73.6402C33.8391 75.7402 31.9791 76.7002 31.9791 76.7002L30.5391 74.4402C30.5391 74.4402 31.0191 74.1802 31.5991 73.6102C31.9791 73.2402 32.4391 72.7502 32.8291 72.1602C33.2091 71.5602 33.4491 70.9602 33.5791 70.5102C33.6891 70.1302 33.7091 69.8302 33.7191 69.6302C33.7191 69.4702 33.7191 69.3802 33.7191 69.3802V52.4502H36.4791H36.4691Z" fill="#003477"/>
<path d="M52.0605 56.7597V49.1597H54.0805V48.1797H48.9805V49.1597H51.0005V56.7597H52.0605Z" fill="#003477"/>
<path d="M55.9995 48.1797H54.9395V56.7597H55.9995V52.6397H60.0595V56.7597H61.1195V48.1797H60.0595V51.6397H55.9995V48.1797Z" fill="#003477"/>
<path d="M67.3395 55.7897H63.8295V52.5397H67.2395V51.5597H63.8295V49.1597H67.3395V48.1797H62.7695V56.7597H67.3395V55.7897Z" fill="#003477"/>
<path d="M73.1108 48.1797H72.0508V56.7597H73.1108V52.6397H77.1608V56.7597H78.2208V48.1797H77.1608V51.6397H73.1108V48.1797Z" fill="#003477"/>
<path d="M83.7295 48C81.2895 48 79.2695 50.01 79.2695 52.47C79.2695 54.93 81.2695 56.94 83.7295 56.94C86.1895 56.94 88.1895 55.02 88.1895 52.47C88.1895 49.92 86.1695 48 83.7295 48ZM83.7295 55.95C81.8895 55.95 80.3295 54.44 80.3295 52.48C80.3295 50.52 81.7295 49.01 83.7295 49.01C85.7295 49.01 87.1295 50.59 87.1295 52.48C87.1295 54.37 85.5695 55.95 83.7295 55.95Z" fill="#003477"/>
<path d="M90.2905 50.37L96.6805 57.12V48.18H95.6205V54.52L89.2305 47.77V56.76H90.2905V50.37Z" fill="#003477"/>
<path d="M102.191 48.98C103.231 48.98 104.261 49.54 104.871 50.38L105.611 49.66C104.771 48.6 103.461 48 102.141 48C99.6907 48 97.7207 50.03 97.7207 52.5C97.7207 54.97 99.6407 56.95 102.021 56.95C104.401 56.95 106.051 55.14 106.051 52.78V52.44H102.671V53.42H104.871C104.831 54.82 103.401 55.97 102.081 55.97C100.241 55.97 98.7707 54.26 98.7707 52.46C98.7707 50.54 100.261 48.98 102.171 48.98H102.191Z" fill="#003477"/>
<path d="M116.73 56.7597L112.83 52.0397L116.66 48.1797H115.27L111.66 51.8997V48.1797H110.6V56.7597H111.66V53.1797L112.09 52.7697L115.3 56.7597H116.73Z" fill="#003477"/>
<path d="M116.891 52.47C116.891 55.02 118.891 56.94 121.351 56.94C123.811 56.94 125.811 55.02 125.811 52.47C125.811 49.92 123.791 48 121.351 48C118.911 48 116.891 50.01 116.891 52.47ZM121.351 49C123.351 49 124.751 50.58 124.751 52.47C124.751 54.36 123.191 55.94 121.351 55.94C119.511 55.94 117.951 54.43 117.951 52.47C117.951 50.51 119.351 49 121.351 49Z" fill="#003477"/>
<path d="M126.84 56.76H127.91V50.37L134.29 57.12V48.18H133.23V54.52L126.84 47.77V56.76Z" fill="#003477"/>
<path d="M139.65 56.95C142.03 56.95 143.68 55.14 143.68 52.78V52.44H140.3V53.42H142.5C142.46 54.82 141.03 55.97 139.71 55.97C137.87 55.97 136.4 54.26 136.4 52.46C136.4 50.54 137.89 48.98 139.8 48.98C140.84 48.98 141.87 49.54 142.48 50.38L143.22 49.66C142.38 48.6 141.07 48 139.75 48C137.3 48 135.34 50.03 135.34 52.5C135.34 54.97 137.26 56.95 139.64 56.95H139.65Z" fill="#003477"/>
<path d="M52.7406 70.5998C54.6906 70.5998 55.8606 69.1498 55.8606 67.2698V61.8398H54.8006V66.9098C54.8006 68.3098 54.3806 69.6098 52.7506 69.6098C51.1206 69.6098 50.7006 68.3098 50.7006 66.9098V61.8398H49.6406V67.2698C49.6406 69.1598 50.8006 70.5998 52.7606 70.5998H52.7406Z" fill="#003477"/>
<path d="M58.3998 64.0197L64.7898 70.7697V61.8397H63.7298V68.1797L57.3398 61.4297V70.4197H58.3998V64.0197Z" fill="#003477"/>
<path d="M67.4409 61.8398H66.3809V70.4198H67.4409V61.8398Z" fill="#003477"/>
<path d="M71.96 68.1898L69.41 61.8398H68.25L71.96 70.8698L75.65 61.8398H74.48L71.96 68.1898Z" fill="#003477"/>
<path d="M81.0505 69.4398H77.5405V66.1998H80.9505V65.2198H77.5405V62.8198H81.0505V61.8398H76.4805V70.4198H81.0505V69.4398Z" fill="#003477"/>
<path d="M87.1307 64.2801C87.1307 63.4601 86.7207 62.6501 86.0107 62.2301C85.3307 61.8401 84.5207 61.8301 83.7607 61.8301H82.4707V70.4101H83.5307V66.7801H83.9707L86.4807 70.4101H87.7707L85.0807 66.6801C86.3107 66.5301 87.1207 65.5101 87.1207 64.2801H87.1307ZM83.8807 65.9001H83.5407V62.7901H83.8207C84.8707 62.7901 86.1407 62.9801 86.1407 64.3301C86.1407 65.6801 84.9607 65.9001 83.8807 65.9001V65.9001Z" fill="#003477"/>
<path d="M90.9895 69.5997C90.0795 69.5997 89.3295 68.9197 89.3395 67.9697L88.2695 68.1997C88.4495 69.5797 89.5195 70.5997 90.8995 70.5997C92.4295 70.5997 93.6195 69.4897 93.6195 67.9297C93.6195 66.4997 92.7195 65.8197 91.5095 65.3497L90.8995 65.1097C90.3695 64.8997 89.7095 64.5497 89.7095 63.8797C89.7095 63.1297 90.4595 62.6597 91.1295 62.6597C91.7995 62.6597 92.1795 62.9297 92.4995 63.4697L93.3495 62.9597C92.8895 62.1297 92.1095 61.6597 91.1595 61.6597C89.8695 61.6597 88.6495 62.4897 88.6495 63.8797C88.6495 65.0697 89.5295 65.6297 90.4995 66.0497L91.0895 66.2997C91.8195 66.6097 92.5595 67.0097 92.5595 67.9297C92.5595 68.8497 91.9095 69.5997 90.9895 69.5997V69.5997Z" fill="#003477"/>
<path d="M95.9194 61.8398H94.8594V70.4198H95.9194V61.8398Z" fill="#003477"/>
<path d="M99.9198 70.4198V62.8198H101.94V61.8398H96.8398V62.8198H98.8598V70.4198H99.9198Z" fill="#003477"/>
<path d="M105.85 70.4198V66.6798L108.62 61.8398H107.4L105.32 65.4998L103.23 61.8398H102.01L104.79 66.6798V70.4198H105.85Z" fill="#003477"/>
<path d="M116.71 70.5997C119.17 70.5997 121.17 68.6797 121.17 66.1297C121.17 63.5797 119.15 61.6597 116.71 61.6597C114.27 61.6597 112.25 63.6797 112.25 66.1297C112.25 68.5797 114.25 70.5997 116.71 70.5997ZM116.71 62.6497C118.71 62.6497 120.11 64.2297 120.11 66.1197C120.11 68.0097 118.55 69.5897 116.71 69.5897C114.87 69.5897 113.31 68.0797 113.31 66.1197C113.31 64.1597 114.71 62.6497 116.71 62.6497Z" fill="#003477"/>
<path d="M123.359 66.2098H126.309V65.2298H123.359V62.8198H126.419V61.8398H122.289V70.4198H123.359V66.2098Z" fill="#003477"/>
<path d="M133.929 65.3399L133.319 65.0999C132.789 64.8899 132.139 64.5399 132.139 63.8699C132.139 63.1199 132.889 62.6499 133.559 62.6499C134.229 62.6499 134.609 62.9199 134.929 63.4599L135.779 62.9499C135.319 62.1199 134.539 61.6499 133.589 61.6499C132.299 61.6499 131.079 62.4799 131.079 63.8699C131.079 65.0599 131.959 65.6199 132.929 66.0399L133.519 66.2899C134.249 66.5999 134.989 66.9999 134.989 67.9199C134.989 68.8399 134.329 69.5899 133.419 69.5899C132.509 69.5899 131.759 68.9099 131.769 67.9599L130.699 68.1899C130.879 69.5699 131.949 70.5899 133.329 70.5899C134.859 70.5899 136.049 69.4799 136.049 67.9199C136.049 66.4899 135.149 65.8099 133.939 65.3399H133.929Z" fill="#003477"/>
<path d="M141.27 62.6299C142.07 62.6299 142.91 62.9199 143.52 63.4699V62.2299C142.88 61.8299 142.12 61.6499 141.37 61.6499C138.86 61.6499 136.84 63.6299 136.84 66.1699C136.84 68.7099 138.85 70.5999 141.28 70.5999C142.02 70.5999 142.86 70.3799 143.52 69.9999V68.7399C142.89 69.3099 142.09 69.6299 141.25 69.6299C139.35 69.6299 137.91 68.0299 137.91 66.1499C137.91 64.2699 139.37 62.6399 141.27 62.6399V62.6299Z" fill="#003477"/>
<path d="M145.919 61.8398H144.859V70.4198H145.919V61.8398Z" fill="#003477"/>
<path d="M147.631 70.4198H152.201V69.4398H148.691V66.1998H152.101V65.2198H148.691V62.8198H152.201V61.8398H147.631V70.4198Z" fill="#003477"/>
<path d="M159.91 68.1797L153.52 61.4297V70.4197H154.58V64.0197L160.97 70.7697V61.8397H159.91V68.1797Z" fill="#003477"/>
<path d="M162.119 66.1697C162.119 68.6497 164.129 70.5997 166.559 70.5997C167.299 70.5997 168.139 70.3797 168.789 69.9997V68.7397C168.159 69.3097 167.359 69.6297 166.519 69.6297C164.619 69.6297 163.179 68.0297 163.179 66.1497C163.179 64.2697 164.639 62.6397 166.539 62.6397C167.339 62.6397 168.179 62.9297 168.789 63.4797V62.2397C168.149 61.8397 167.389 61.6597 166.649 61.6597C164.139 61.6597 162.119 63.6397 162.119 66.1797V66.1697Z" fill="#003477"/>
<path d="M174.74 62.8198V61.8398H170.17V70.4198H174.74V69.4398H171.23V66.1998H174.64V65.2198H171.23V62.8198H174.74Z" fill="#003477"/>
<path d="M48.8691 84.0701H50.0091L50.9791 81.9201H54.8891L55.8591 84.0701H56.9991L52.9291 75.1201L48.8691 84.0701ZM51.4191 80.9401L52.9291 77.4701L54.4391 80.9401H51.4091H51.4191Z" fill="#003477"/>
<path d="M64.1107 81.8301L57.7207 75.0801V84.0701H58.7807V77.6801L65.1707 84.4301V75.4901H64.1107V81.8301Z" fill="#003477"/>
<path d="M68.469 75.49H66.709V84.07H68.439C71.129 84.07 73.249 82.66 73.249 79.73C73.249 76.8 71.079 75.48 68.469 75.48V75.49ZM68.139 83.09H67.769V76.47H68.139C70.309 76.47 72.179 77.28 72.179 79.78C72.179 82.28 70.309 83.09 68.139 83.09Z" fill="#003477"/>
<path d="M77 76.4697H79.02V84.0697H80.08V76.4697H82.1V75.4897H77V76.4697Z" fill="#003477"/>
<path d="M83.0508 84.0697H87.6208V83.0897H84.1108V79.8497H87.5208V78.8698H84.1108V76.4697H87.6208V75.4897H83.0508V84.0697Z" fill="#003477"/>
<path d="M88.5705 79.8298C88.5705 82.3098 90.5806 84.2598 93.0106 84.2598C93.7506 84.2598 94.5905 84.0398 95.2405 83.6598V82.3998C94.6105 82.9698 93.8106 83.2898 92.9706 83.2898C91.0706 83.2898 89.6305 81.6898 89.6305 79.8098C89.6305 77.9298 91.0905 76.2998 92.9905 76.2998C93.7905 76.2998 94.6305 76.5898 95.2405 77.1398V75.8998C94.6005 75.4998 93.8405 75.3198 93.0905 75.3198C90.5805 75.3198 88.5605 77.2998 88.5605 79.8398L88.5705 79.8298Z" fill="#003477"/>
<path d="M101.649 78.9497H97.5893V75.4897H96.5293V84.0697H97.5893V79.9497H101.649V84.0697H102.709V75.4897H101.649V78.9497Z" fill="#003477"/>
<path d="M110.64 81.8301L104.25 75.0801V84.0701H105.31V77.6801L111.71 84.4301V75.4901H110.64V81.8301Z" fill="#003477"/>
<path d="M117.19 75.3101C114.75 75.3101 112.73 77.3201 112.73 79.7801C112.73 82.2401 114.73 84.2501 117.19 84.2501C119.65 84.2501 121.65 82.3301 121.65 79.7801C121.65 77.2301 119.63 75.3101 117.19 75.3101ZM117.19 83.2501C115.35 83.2501 113.79 81.7401 113.79 79.7801C113.79 77.8201 115.19 76.3101 117.19 76.3101C119.19 76.3101 120.59 77.8901 120.59 79.7801C120.59 81.6701 119.03 83.2501 117.19 83.2501Z" fill="#003477"/>
<path d="M123.849 75.4897H122.789V84.0697H126.439V83.0897H123.849V75.4897Z" fill="#003477"/>
<path d="M131.11 75.3101C128.67 75.3101 126.65 77.3201 126.65 79.7801C126.65 82.2401 128.65 84.2501 131.11 84.2501C133.57 84.2501 135.57 82.3301 135.57 79.7801C135.57 77.2301 133.55 75.3101 131.11 75.3101ZM131.11 83.2501C129.27 83.2501 127.71 81.7401 127.71 79.7801C127.71 77.8201 129.11 76.3101 131.11 76.3101C133.11 76.3101 134.51 77.8901 134.51 79.7801C134.51 81.6701 132.95 83.2501 131.11 83.2501Z" fill="#003477"/>
<path d="M141.091 80.7301H143.291C143.251 82.1301 141.821 83.2801 140.501 83.2801C138.661 83.2801 137.191 81.5701 137.191 79.7701C137.191 77.8501 138.681 76.2901 140.591 76.2901C141.631 76.2901 142.661 76.8501 143.271 77.6901L144.011 76.9701C143.171 75.9101 141.861 75.3101 140.541 75.3101C138.091 75.3101 136.131 77.3401 136.131 79.8101C136.131 82.2801 138.051 84.2601 140.431 84.2601C142.811 84.2601 144.461 82.4501 144.461 80.0901V79.7501H141.081V80.7301H141.091Z" fill="#003477"/>
<path d="M148.06 79.1598L145.97 75.4897H144.75L147.53 80.3397V84.0697H148.59V80.3397L151.36 75.4897H150.14L148.06 79.1598Z" fill="#003477"/>
<path d="M49.1999 39C49.6599 38.84 49.9799 38.72 50.1699 38.64V43.61H51.2399V43.08H56.8899V43.61H57.9599V38.59C58.1099 38.68 58.2799 38.74 58.4699 38.8C58.6499 38.85 58.8199 38.91 58.9699 38.99L59.4799 37.94C57.8299 37.61 56.5699 37.02 55.6899 36.17H59.3899V35.21H54.5499V34.24C56.0899 34.11 57.3899 33.94 58.4299 33.72L57.9399 32.77C56.3699 33.12 54.0599 33.3 51.0099 33.3C50.3699 33.3 49.8299 33.3 49.3899 33.28L49.7699 34.35C50.5199 34.35 51.7499 34.33 53.4799 34.28V35.22H48.7599V36.18H52.3099C51.2799 37.05 50.0699 37.66 48.6699 38L49.2199 39.03L49.1999 39ZM56.8799 42.11H51.2299V41.09H56.8799V42.11ZM54.5299 36.17C55.2499 37.13 56.1899 37.85 57.3699 38.31H54.5299V36.17ZM56.8799 39.28V40.16H51.2299V39.28H56.8799ZM53.4499 36.18V38.31H50.8299C51.9099 37.85 52.7799 37.14 53.4499 36.18Z" fill="#003477"/>
<path d="M65.7804 40.0099L64.7804 39.4199C64.5404 40.5199 64.0804 41.5499 63.4004 42.5099L64.3204 43.4599C64.9804 42.4099 65.4604 41.2599 65.7804 40.0099V40.0099Z" fill="#003477"/>
<path d="M65.849 37.14C65.259 36.69 64.699 36.31 64.149 36.02L63.459 36.89C63.909 37.19 64.449 37.61 65.069 38.14L65.849 37.14Z" fill="#003477"/>
<path d="M66.1993 34.3398V34.9598H67.7293V36.1198H65.9693V37.0898H67.8093C67.4693 37.8198 66.6693 38.4698 65.3993 39.0498L66.0493 40.0198C66.5593 39.6998 66.9093 39.4498 67.1093 39.2898V41.8798C67.1093 42.3998 67.2093 42.7598 67.3993 42.9598C67.5993 43.1398 67.9393 43.2398 68.4293 43.2398H72.1493C72.7393 43.2398 73.1293 43.1398 73.3293 42.9298C73.5393 42.7098 73.6993 42.0698 73.8193 40.9998L72.7193 40.5998C72.6693 41.2098 72.6093 41.6398 72.5493 41.8798C72.4893 42.1198 72.2993 42.2398 71.9793 42.2398H68.5693C68.2993 42.2398 68.1693 42.0998 68.1693 41.8298V41.0898H71.8693V38.7198C72.3293 39.1398 72.9093 39.5598 73.6093 39.9798L74.0993 38.9498C72.8593 38.3298 72.0893 37.7098 71.7793 37.0898H73.9693V36.1198H71.8993V34.9298H73.7893V34.0198H71.8993V32.8198H70.8593V34.0198H68.7693V32.8198H67.7193V34.0198H66.1893V34.1698C65.7393 33.8198 65.1893 33.4398 64.5393 33.0198L63.7793 33.8798C64.2893 34.1998 64.8593 34.6598 65.4893 35.2298L66.1893 34.3498L66.1993 34.3398ZM68.7693 34.9798H70.8593V36.1098H68.7693V34.9798ZM69.0193 37.0898H70.5693C70.7793 37.4998 71.0193 37.8498 71.2693 38.1298H68.3393C68.6193 37.8298 68.8493 37.4798 69.0193 37.0898ZM68.1493 39.0498H70.7893V40.1798H68.1493V39.0498Z" fill="#003477"/>
<path d="M86.3193 34.9701C85.4193 34.3101 84.7193 33.8401 84.2193 33.5601L83.5293 34.3301C84.0593 34.6501 84.7493 35.1601 85.5993 35.8401L86.3193 34.9701V34.9701Z" fill="#003477"/>
<path d="M86.1008 37.7598C85.2608 37.1098 84.5508 36.6398 83.9808 36.3398L83.3008 37.1198C83.9008 37.4798 84.6008 37.9998 85.3908 38.6598L86.1008 37.7698V37.7598Z" fill="#003477"/>
<path d="M82.8906 41.0099L86.7306 40.4199V43.5999H87.8006V40.2799L88.8306 40.0999V39.0499L87.8006 39.2199V32.6899H86.7306V39.3499L82.8906 39.9299V41.0099Z" fill="#003477"/>
<path d="M78.6695 41.43C79.4195 40.44 79.9395 39.58 80.2295 38.84V43.6L81.2895 43.55V38.18C81.4995 38.46 81.6995 38.72 81.8995 38.96C82.1295 39.22 82.3595 39.52 82.5895 39.84L83.2295 38.85C82.7895 38.37 82.1495 37.73 81.2895 36.93V36.83H83.0295V35.84H81.2895V34.21C81.8895 34.09 82.4695 33.93 83.0195 33.74L82.6295 32.79C81.3995 33.26 79.9295 33.54 78.2095 33.62L78.4495 34.59C79.2295 34.54 79.8295 34.47 80.2295 34.39V35.84H78.0895V36.83H80.1895C79.7095 38.11 78.9795 39.3 78.0195 40.41L78.6595 41.45L78.6695 41.43Z" fill="#003477"/>
<path d="M92.7305 38.7897L93.0105 40.0397C93.3905 39.9497 93.9005 39.8197 94.5505 39.6497V42.0097C94.5505 42.2597 94.4205 42.3897 94.1705 42.3897L93.1705 42.3497L93.4305 43.5197H94.3405C94.9105 43.5197 95.2705 43.4297 95.4305 43.2397C95.5805 43.0597 95.6605 42.6997 95.6605 42.1497V39.3097C96.3205 39.0897 96.7705 38.9097 97.0005 38.7797V37.6497C96.7205 37.7897 96.2705 37.9597 95.6605 38.1597V36.1097H97.0205V35.3697H99.5005V36.9197H97.2305V37.9897H101.79C101.46 38.9597 100.91 39.7597 100.13 40.3897C99.6005 39.8597 99.0705 39.1197 98.5505 38.1797L97.6005 38.5597C98.1705 39.5997 98.7405 40.4197 99.3305 41.0197C98.2305 41.7697 97.1305 42.2697 96.0205 42.5097L96.6505 43.5597C97.7505 43.3297 98.9105 42.7497 100.12 41.8097C101.01 42.6297 101.96 43.1997 102.97 43.5297L103.55 42.4397C102.59 42.1697 101.72 41.7197 100.96 41.0897C101.4 40.7097 101.81 40.1797 102.21 39.4997C102.62 38.8297 102.87 38.2897 102.97 37.8697V36.9097H100.65V35.3597H103.36V34.3097H100.65V32.6797H99.5105V34.3097H97.0405V35.0497H95.6905V32.6797H94.5605V35.0497H92.8605V36.0997H94.5605V38.4297C94.0205 38.5797 93.4105 38.6897 92.7505 38.7797L92.7305 38.7897Z" fill="#003477"/>
<path d="M107.401 42.4699L108.271 43.5699C110.841 41.8599 112.381 39.6199 112.901 36.8299H113.081C113.851 39.9399 115.261 42.1799 117.331 43.5399L118.211 42.4699C117.071 41.7099 116.181 40.8199 115.521 39.7799C114.871 38.7499 114.461 37.7599 114.281 36.8199H117.951V35.5999H113.081C113.141 34.9899 113.171 34.0199 113.171 32.6899H111.961C111.961 33.9199 111.911 34.8899 111.811 35.5999H107.651V36.8299H111.611C111.431 37.9199 110.951 38.9699 110.181 39.9899C109.401 41.0099 108.461 41.8299 107.381 42.4599L107.401 42.4699Z" fill="#003477"/>
<path d="M126.52 42.6597C126.1 42.6597 125.71 42.6397 125.35 42.6097L125.58 43.6497H127.17C127.44 43.6497 127.68 43.5397 127.88 43.3197C128.01 43.1797 128.09 42.9797 128.11 42.7097V40.8197H132.5V39.8297H128.11V39.4697C129.14 39.0497 130.07 38.6097 130.87 38.1497V37.1597H124.2V38.1497H129.18C128.38 38.5297 127.63 38.8197 126.91 39.0397V39.8297H122.48V40.8197H126.91V42.3697C126.91 42.5597 126.79 42.6597 126.54 42.6597H126.52Z" fill="#003477"/>
<path d="M128.19 34.3699C127.89 33.7499 127.58 33.1899 127.26 32.6899L126.33 33.1099C126.64 33.6199 126.93 34.1999 127.21 34.8399L128.19 34.3699V34.3699Z" fill="#003477"/>
<path d="M123.341 36.2099H131.691V37.6199H132.811V35.2199H130.491C130.831 34.6499 131.171 33.9399 131.511 33.0999L130.291 32.6299C129.911 33.7099 129.541 34.5699 129.181 35.2199H122.221V37.6599H123.341V36.1999V36.2099Z" fill="#003477"/>
<path d="M125.57 34.5598C125.25 33.9898 124.92 33.4698 124.59 33.0098L123.66 33.4298C124 33.8998 124.31 34.4398 124.59 35.0298L125.57 34.5598V34.5598Z" fill="#003477"/>
<path d="M8.7207 90.7002V101.46H42.5607V90.7002V101.46H8.7207V90.7002Z" fill="url(#paint0_linear_602_550)"/>
<path d="M42.6898 101.58H8.58984V90.7002H8.83984V101.33H42.4398V90.7002H42.6898V101.58Z" fill="#231815"/>
<path d="M48.4805 90.7002V101.46H174.62V90.7002V101.46H48.4805V90.7002Z" fill="url(#paint1_linear_602_550)"/>
<path d="M174.74 101.58H48.3496V90.7002H48.5996V101.33H174.49V90.7002H174.74V101.58Z" fill="#231815"/>
<path d="M0 107.99H0.9V115.05H4.83V115.82H0V107.99Z" fill="#231815"/>
<path d="M6.7693 115.54C6.3693 115.31 6.0693 114.97 5.8493 114.54C5.6293 114.11 5.5293 113.6 5.5293 113.02C5.5293 112.44 5.6393 111.94 5.8493 111.5C6.0593 111.06 6.3693 110.73 6.7693 110.5C7.1693 110.27 7.6193 110.15 8.1493 110.15C8.6793 110.15 9.1293 110.27 9.5293 110.5C9.9293 110.74 10.2293 111.07 10.4493 111.5C10.6693 111.93 10.7693 112.44 10.7693 113.02C10.7693 113.6 10.6593 114.1 10.4493 114.54C10.2293 114.97 9.9293 115.31 9.5293 115.54C9.1293 115.78 8.6793 115.89 8.1493 115.89C7.6193 115.89 7.1693 115.77 6.7693 115.54V115.54ZM9.4093 114.61C9.6993 114.25 9.8493 113.72 9.8493 113.02C9.8493 112.32 9.6993 111.82 9.3993 111.45C9.0993 111.08 8.6793 110.89 8.1493 110.89C7.6193 110.89 7.1893 111.08 6.8793 111.45C6.5693 111.82 6.4293 112.34 6.4293 113.02C6.4293 113.7 6.5793 114.25 6.8793 114.61C7.1793 114.97 7.5993 115.15 8.1493 115.15C8.6993 115.15 9.1193 114.97 9.4193 114.61H9.4093Z" fill="#231815"/>
<path d="M17.0603 110.29V115.78C17.0603 116.6 16.8503 117.22 16.4303 117.64C16.0103 118.06 15.3903 118.27 14.5703 118.27C13.7503 118.27 13.0003 118.08 12.3903 117.7L12.5403 116.97C12.8903 117.17 13.2203 117.31 13.5403 117.4C13.8503 117.49 14.1903 117.53 14.5703 117.53C15.1103 117.53 15.5103 117.39 15.7803 117.11C16.0503 116.83 16.1903 116.41 16.1903 115.85V114.54C16.0203 114.89 15.7703 115.17 15.4503 115.36C15.1203 115.55 14.7403 115.65 14.2903 115.65C13.8103 115.65 13.3703 115.54 13.0003 115.31C12.6203 115.08 12.3303 114.76 12.1303 114.34C11.9203 113.92 11.8203 113.44 11.8203 112.9C11.8203 112.36 11.9203 111.88 12.1303 111.46C12.3403 111.04 12.6303 110.72 13.0003 110.49C13.3803 110.26 13.8103 110.15 14.2903 110.15C14.7303 110.15 15.1103 110.25 15.4403 110.44C15.7703 110.63 16.0103 110.9 16.1803 111.24V110.28H17.0703L17.0603 110.29ZM15.7103 114.38C16.0103 114.02 16.1703 113.53 16.1703 112.91C16.1703 112.29 16.0203 111.8 15.7103 111.44C15.4103 111.08 14.9903 110.91 14.4503 110.91C13.9103 110.91 13.4803 111.09 13.1703 111.44C12.8603 111.8 12.7003 112.29 12.7003 112.91C12.7003 113.53 12.8603 114.02 13.1703 114.38C13.4803 114.74 13.9103 114.91 14.4503 114.91C14.9903 114.91 15.4103 114.73 15.7103 114.38V114.38Z" fill="#231815"/>
<path d="M19.6795 115.54C19.2795 115.31 18.9795 114.97 18.7595 114.54C18.5395 114.11 18.4395 113.6 18.4395 113.02C18.4395 112.44 18.5495 111.94 18.7595 111.5C18.9695 111.06 19.2795 110.73 19.6795 110.5C20.0795 110.27 20.5295 110.15 21.0595 110.15C21.5895 110.15 22.0395 110.27 22.4395 110.5C22.8395 110.74 23.1395 111.07 23.3595 111.5C23.5795 111.93 23.6795 112.44 23.6795 113.02C23.6795 113.6 23.5695 114.1 23.3595 114.54C23.1395 114.97 22.8395 115.31 22.4395 115.54C22.0395 115.78 21.5895 115.89 21.0595 115.89C20.5295 115.89 20.0795 115.77 19.6795 115.54ZM22.3195 114.61C22.6095 114.25 22.7595 113.72 22.7595 113.02C22.7595 112.32 22.6095 111.82 22.3095 111.45C22.0095 111.08 21.5895 110.89 21.0595 110.89C20.5295 110.89 20.0995 111.08 19.7895 111.45C19.4795 111.82 19.3395 112.34 19.3395 113.02C19.3395 113.7 19.4895 114.25 19.7895 114.61C20.0895 114.97 20.5095 115.15 21.0595 115.15C21.6095 115.15 22.0295 114.97 22.3295 114.61H22.3195Z" fill="#231815"/>
<path d="M33.0209 112.34V115.82H32.1309V112.39C32.1309 111.87 32.0409 111.49 31.8609 111.26C31.6809 111.03 31.3909 110.91 30.9909 110.91C30.5209 110.91 30.1509 111.07 29.8909 111.38C29.6309 111.7 29.4909 112.13 29.4909 112.67V115.83H28.6009V112.4C28.6009 111.89 28.5109 111.51 28.3309 111.27C28.1509 111.03 27.8509 110.91 27.4509 110.91C26.9809 110.91 26.6109 111.07 26.3409 111.38C26.0709 111.7 25.9409 112.13 25.9409 112.67V115.83H25.0509V111.85C25.0509 111.28 25.0209 110.76 24.9609 110.3H25.8109L25.9009 111.27C26.0509 110.92 26.2809 110.65 26.5909 110.46C26.8909 110.27 27.2509 110.17 27.6509 110.17C28.0909 110.17 28.4509 110.26 28.7309 110.43C29.0109 110.61 29.2109 110.88 29.3509 111.24C29.5209 110.91 29.7709 110.65 30.0909 110.45C30.4209 110.26 30.7809 110.16 31.2009 110.16C32.4209 110.16 33.0409 110.89 33.0409 112.35L33.0209 112.34Z" fill="#231815"/>
<path d="M39.5809 110.29V115.82H38.7009V114.82C38.5409 115.16 38.2909 115.43 37.9709 115.62C37.6409 115.81 37.2609 115.9 36.8309 115.9C36.3409 115.9 35.9109 115.78 35.5409 115.55C35.1709 115.32 34.8809 114.98 34.6809 114.55C34.4809 114.12 34.3809 113.62 34.3809 113.05C34.3809 112.48 34.4809 111.97 34.6909 111.54C34.9009 111.1 35.1809 110.76 35.5509 110.52C35.9209 110.28 36.3509 110.16 36.8309 110.16C37.2609 110.16 37.6409 110.26 37.9609 110.45C38.2809 110.64 38.5309 110.91 38.7009 111.25V110.29H39.5809V110.29ZM38.2609 114.61C38.5509 114.24 38.7009 113.71 38.7009 113.03C38.7009 112.35 38.5509 111.82 38.2609 111.46C37.9709 111.09 37.5509 110.91 37.0109 110.91C36.4709 110.91 36.0409 111.1 35.7409 111.48C35.4409 111.86 35.2809 112.38 35.2809 113.06C35.2809 113.74 35.4309 114.26 35.7309 114.62C36.0309 114.99 36.4609 115.17 37.0109 115.17C37.5609 115.17 37.9709 114.99 38.2609 114.61Z" fill="#231815"/>
<path d="M44.3709 110.22L44.3509 111.03C44.1809 110.97 43.9909 110.94 43.7709 110.94C43.2309 110.94 42.8409 111.11 42.5809 111.44C42.3209 111.77 42.1909 112.18 42.1909 112.65V115.81H41.3009V111.83C41.3009 111.26 41.2709 110.74 41.2109 110.28H42.0609L42.1509 111.3C42.2909 110.93 42.5109 110.64 42.8209 110.44C43.1309 110.24 43.4809 110.14 43.8809 110.14C44.0609 110.14 44.2309 110.16 44.3909 110.21L44.3709 110.22Z" fill="#231815"/>
<path d="M48.9898 115.82L46.1498 113.16V115.82H45.2598V107.72H46.1498V112.82L48.7598 110.29H49.8898L47.1198 112.94L50.1598 115.81H48.9898V115.82Z" fill="#231815"/>
<path d="M63.9395 107.99H64.8395V115.05H68.7695V115.82H63.9395V107.99V107.99Z" fill="#231815"/>
<path d="M70.7302 115.54C70.3302 115.31 70.0302 114.97 69.8102 114.54C69.5902 114.11 69.4902 113.6 69.4902 113.02C69.4902 112.44 69.6002 111.94 69.8102 111.5C70.0202 111.06 70.3302 110.73 70.7302 110.5C71.1302 110.27 71.5802 110.15 72.1102 110.15C72.6402 110.15 73.0902 110.27 73.4902 110.5C73.8902 110.74 74.1902 111.07 74.4102 111.5C74.6302 111.93 74.7302 112.44 74.7302 113.02C74.7302 113.6 74.6202 114.1 74.4102 114.54C74.1902 114.97 73.8902 115.31 73.4902 115.54C73.0902 115.78 72.6402 115.89 72.1102 115.89C71.5802 115.89 71.1302 115.77 70.7302 115.54ZM73.3702 114.61C73.6602 114.25 73.8102 113.72 73.8102 113.02C73.8102 112.32 73.6602 111.82 73.3602 111.45C73.0602 111.08 72.6402 110.89 72.1102 110.89C71.5802 110.89 71.1502 111.08 70.8402 111.45C70.5302 111.82 70.3902 112.34 70.3902 113.02C70.3902 113.7 70.5402 114.25 70.8402 114.61C71.1402 114.97 71.5602 115.15 72.1102 115.15C72.6602 115.15 73.0802 114.97 73.3802 114.61H73.3702Z" fill="#231815"/>
<path d="M81.0388 110.29V115.78C81.0388 116.6 80.8288 117.22 80.4088 117.64C79.9888 118.06 79.3688 118.27 78.5488 118.27C77.7288 118.27 76.9788 118.08 76.3688 117.7L76.5188 116.97C76.8688 117.17 77.1988 117.31 77.5188 117.4C77.8288 117.49 78.1688 117.53 78.5488 117.53C79.0888 117.53 79.4888 117.39 79.7588 117.11C80.0288 116.83 80.1688 116.41 80.1688 115.85V114.54C79.9988 114.89 79.7488 115.17 79.4288 115.36C79.0988 115.55 78.7188 115.65 78.2688 115.65C77.7888 115.65 77.3488 115.54 76.9788 115.31C76.5988 115.08 76.3088 114.76 76.1088 114.34C75.8988 113.92 75.7988 113.44 75.7988 112.9C75.7988 112.36 75.8988 111.88 76.1088 111.46C76.3188 111.04 76.6088 110.72 76.9788 110.49C77.3588 110.26 77.7888 110.15 78.2688 110.15C78.7088 110.15 79.0888 110.25 79.4188 110.44C79.7488 110.63 79.9888 110.9 80.1588 111.24V110.28H81.0488L81.0388 110.29ZM79.6888 114.38C79.9888 114.02 80.1488 113.53 80.1488 112.91C80.1488 112.29 79.9988 111.8 79.6888 111.44C79.3888 111.08 78.9688 110.91 78.4288 110.91C77.8888 110.91 77.4588 111.09 77.1488 111.44C76.8388 111.8 76.6788 112.29 76.6788 112.91C76.6788 113.53 76.8388 114.02 77.1488 114.38C77.4588 114.74 77.8888 114.91 78.4288 114.91C78.9688 114.91 79.3888 114.73 79.6888 114.38Z" fill="#231815"/>
<path d="M83.6697 115.54C83.2697 115.31 82.9697 114.97 82.7497 114.54C82.5297 114.11 82.4297 113.6 82.4297 113.02C82.4297 112.44 82.5397 111.94 82.7497 111.5C82.9597 111.06 83.2697 110.73 83.6697 110.5C84.0697 110.27 84.5197 110.15 85.0497 110.15C85.5797 110.15 86.0297 110.27 86.4297 110.5C86.8297 110.74 87.1297 111.07 87.3497 111.5C87.5697 111.93 87.6697 112.44 87.6697 113.02C87.6697 113.6 87.5597 114.1 87.3497 114.54C87.1297 114.97 86.8297 115.31 86.4297 115.54C86.0297 115.78 85.5797 115.89 85.0497 115.89C84.5197 115.89 84.0697 115.77 83.6697 115.54ZM86.3097 114.61C86.5997 114.25 86.7497 113.72 86.7497 113.02C86.7497 112.32 86.5997 111.82 86.2997 111.45C85.9997 111.08 85.5797 110.89 85.0497 110.89C84.5197 110.89 84.0897 111.08 83.7797 111.45C83.4697 111.82 83.3297 112.34 83.3297 113.02C83.3297 113.7 83.4797 114.25 83.7797 114.61C84.0797 114.97 84.4997 115.15 85.0497 115.15C85.5997 115.15 86.0197 114.97 86.3197 114.61H86.3097Z" fill="#231815"/>
<path d="M90.23 110.99V114.02C90.23 114.43 90.31 114.72 90.48 114.88C90.65 115.05 90.89 115.13 91.2 115.13C91.41 115.13 91.6 115.1 91.79 115.03V115.79C91.56 115.86 91.31 115.9 91.02 115.9C90.49 115.9 90.08 115.75 89.78 115.45C89.48 115.15 89.33 114.71 89.33 114.14V110.99H88.25V110.29H89.33V108.87L90.22 108.55V110.29H91.8V110.99H90.22H90.23Z" fill="#231815"/>
<path d="M97.8185 110.29L95.2285 116.33C94.9585 116.96 94.6185 117.42 94.2085 117.72C93.7985 118.01 93.2885 118.22 92.6885 118.33L92.4985 117.64C93.0185 117.52 93.4085 117.37 93.6785 117.17C93.9485 116.98 94.1685 116.68 94.3485 116.27L94.5685 115.77L92.2285 110.29H93.1685L95.0385 114.86L96.9285 110.29H97.8185V110.29Z" fill="#231815"/>
<path d="M102.849 110.52C103.219 110.76 103.509 111.1 103.719 111.54C103.929 111.98 104.029 112.48 104.029 113.05C104.029 113.62 103.929 114.12 103.719 114.55C103.509 114.98 103.229 115.31 102.859 115.55C102.489 115.79 102.059 115.9 101.569 115.9C101.139 115.9 100.759 115.8 100.439 115.61C100.119 115.42 99.8687 115.15 99.6987 114.8V118.2H98.8087V111.84C98.8087 111.27 98.7787 110.75 98.7188 110.29H99.5687L99.6588 111.36C99.8088 110.98 100.059 110.68 100.389 110.47C100.719 110.26 101.119 110.16 101.569 110.16C102.049 110.16 102.479 110.28 102.859 110.52H102.849ZM102.659 114.61C102.959 114.24 103.109 113.72 103.109 113.05C103.109 112.38 102.959 111.85 102.659 111.47C102.359 111.09 101.939 110.9 101.409 110.9C100.879 110.9 100.439 111.08 100.139 111.45C99.8487 111.82 99.6987 112.34 99.6987 113.02C99.6987 113.7 99.8487 114.23 100.139 114.6C100.429 114.97 100.849 115.16 101.409 115.16C101.969 115.16 102.369 114.98 102.669 114.61H102.659Z" fill="#231815"/>
<path d="M110.03 113.03H105.97C105.97 113.73 106.14 114.27 106.46 114.62C106.78 114.97 107.24 115.16 107.85 115.16C108.5 115.16 109.09 114.94 109.63 114.51L109.93 115.16C109.69 115.39 109.38 115.57 109 115.7C108.62 115.83 108.24 115.9 107.84 115.9C106.97 115.9 106.3 115.65 105.81 115.14C105.32 114.63 105.07 113.93 105.07 113.04C105.07 112.48 105.18 111.98 105.4 111.54C105.62 111.1 105.93 110.76 106.32 110.52C106.71 110.28 107.17 110.16 107.67 110.16C108.4 110.16 108.98 110.4 109.4 110.88C109.82 111.36 110.03 112.02 110.03 112.87V113.04V113.03ZM106.56 111.27C106.27 111.55 106.08 111.94 106 112.45H109.22C109.18 111.93 109.02 111.53 108.76 111.26C108.5 110.99 108.14 110.85 107.68 110.85C107.22 110.85 106.84 110.99 106.55 111.27H106.56Z" fill="#231815"/>
<path d="M114.199 112.5H117.309V113.24H114.199V112.5Z" fill="#231815"/>
<path d="M121.959 107.99H126.909V108.74H122.849V111.47H126.689V112.23H122.849V115.08H126.909V115.83H121.959V108V107.99Z" fill="#231815"/>
<path d="M133.069 112.34V115.82H132.179V112.39C132.179 111.88 132.079 111.5 131.869 111.26C131.659 111.02 131.339 110.9 130.899 110.9C130.389 110.9 129.979 111.06 129.669 111.37C129.359 111.69 129.209 112.11 129.209 112.65V115.82H128.319V111.84C128.319 111.27 128.289 110.75 128.229 110.29H129.079L129.169 111.28C129.339 110.92 129.589 110.64 129.929 110.45C130.269 110.26 130.649 110.16 131.089 110.16C132.419 110.16 133.079 110.89 133.079 112.35L133.069 112.34Z" fill="#231815"/>
<path d="M139.679 110.29V115.78C139.679 116.6 139.469 117.22 139.049 117.64C138.629 118.06 138.009 118.27 137.189 118.27C136.369 118.27 135.619 118.08 135.009 117.7L135.159 116.97C135.509 117.17 135.839 117.31 136.159 117.4C136.469 117.49 136.809 117.53 137.189 117.53C137.729 117.53 138.129 117.39 138.399 117.11C138.669 116.83 138.809 116.41 138.809 115.85V114.54C138.639 114.89 138.389 115.17 138.069 115.36C137.739 115.55 137.359 115.65 136.909 115.65C136.429 115.65 135.989 115.54 135.619 115.31C135.239 115.08 134.949 114.76 134.749 114.34C134.539 113.92 134.439 113.44 134.439 112.9C134.439 112.36 134.539 111.88 134.749 111.46C134.959 111.04 135.249 110.72 135.619 110.49C135.999 110.26 136.429 110.15 136.909 110.15C137.349 110.15 137.729 110.25 138.059 110.44C138.389 110.63 138.629 110.9 138.799 111.24V110.28H139.689L139.679 110.29ZM138.329 114.38C138.629 114.02 138.789 113.53 138.789 112.91C138.789 112.29 138.639 111.8 138.329 111.44C138.029 111.08 137.609 110.91 137.069 110.91C136.529 110.91 136.099 111.09 135.789 111.44C135.479 111.8 135.319 112.29 135.319 112.91C135.319 113.53 135.479 114.02 135.789 114.38C136.099 114.74 136.529 114.91 137.069 114.91C137.609 114.91 138.029 114.73 138.329 114.38Z" fill="#231815"/>
<path d="M141.389 107.72H142.279V115.82H141.389V107.72Z" fill="#231815"/>
<path d="M145.01 107.94V108.95H143.92V107.94H145.01ZM144.01 110.28H144.9V115.81H144.01V110.28Z" fill="#231815"/>
<path d="M146.29 115.18L146.59 114.52C146.89 114.75 147.19 114.92 147.5 115.03C147.81 115.14 148.15 115.18 148.53 115.18C148.95 115.18 149.26 115.11 149.48 114.97C149.7 114.83 149.8 114.62 149.8 114.35C149.8 114.13 149.73 113.95 149.58 113.82C149.43 113.69 149.19 113.59 148.85 113.51L147.91 113.29C147.45 113.19 147.09 113 146.84 112.74C146.59 112.48 146.46 112.16 146.46 111.79C146.46 111.31 146.65 110.91 147.04 110.61C147.43 110.31 147.94 110.15 148.58 110.15C148.97 110.15 149.33 110.21 149.68 110.34C150.02 110.46 150.31 110.64 150.55 110.88L150.25 111.53C149.73 111.1 149.17 110.88 148.58 110.88C148.18 110.88 147.88 110.96 147.66 111.11C147.44 111.26 147.34 111.47 147.34 111.74C147.34 111.97 147.41 112.15 147.54 112.28C147.67 112.41 147.89 112.51 148.19 112.59L149.13 112.82C149.64 112.94 150.02 113.12 150.27 113.36C150.52 113.61 150.64 113.93 150.64 114.32C150.64 114.8 150.45 115.18 150.06 115.46C149.67 115.75 149.14 115.89 148.48 115.89C147.55 115.89 146.81 115.65 146.27 115.18H146.29Z" fill="#231815"/>
<path d="M156.84 112.34V115.82H155.95V112.39C155.95 111.88 155.85 111.5 155.64 111.26C155.43 111.02 155.11 110.9 154.67 110.9C154.16 110.9 153.75 111.06 153.44 111.37C153.13 111.69 152.98 112.11 152.98 112.65V115.82H152.09V107.72H152.98V111.18C153.16 110.84 153.41 110.59 153.73 110.41C154.06 110.23 154.43 110.15 154.85 110.15C156.18 110.15 156.84 110.88 156.84 112.34V112.34Z" fill="#231815"/>
<path d="M133.55 26.5902V16.1802H48.4805V26.5902V16.1802H133.55V26.5902Z" fill="url(#paint2_linear_602_550)"/>
<path d="M133.68 26.5901H133.43V16.3101H48.5996V26.5901H48.3496V16.0601H133.68V26.5901Z" fill="#231815"/>
<path d="M42.7695 0.259766H43.6695V7.32977H47.5995V8.09977H42.7695V0.259766Z" fill="#231815"/>
<path d="M49.5603 7.82018C49.1603 7.59018 48.8603 7.25018 48.6403 6.82018C48.4203 6.39018 48.3203 5.88018 48.3203 5.30018C48.3203 4.72018 48.4303 4.22018 48.6403 3.78018C48.8503 3.34018 49.1603 3.01018 49.5603 2.78018C49.9603 2.55018 50.4103 2.43018 50.9403 2.43018C51.4703 2.43018 51.9203 2.55018 52.3203 2.78018C52.7203 3.02018 53.0203 3.35018 53.2403 3.78018C53.4603 4.21018 53.5603 4.72018 53.5603 5.30018C53.5603 5.88018 53.4503 6.38018 53.2403 6.82018C53.0203 7.25018 52.7203 7.59018 52.3203 7.82018C51.9203 8.06018 51.4703 8.17018 50.9403 8.17018C50.4103 8.17018 49.9603 8.05018 49.5603 7.82018ZM52.2003 6.89018C52.4903 6.53018 52.6403 6.00018 52.6403 5.30018C52.6403 4.60018 52.4903 4.10018 52.1903 3.73018C51.8903 3.36018 51.4703 3.17018 50.9403 3.17018C50.4103 3.17018 49.9803 3.36018 49.6703 3.73018C49.3603 4.10018 49.2203 4.62018 49.2203 5.30018C49.2203 5.98018 49.3703 6.53018 49.6703 6.89018C49.9703 7.25018 50.3903 7.43018 50.9403 7.43018C51.4903 7.43018 51.9103 7.25018 52.2103 6.89018H52.2003Z" fill="#231815"/>
<path d="M59.8689 2.55992V8.04992C59.8689 8.86992 59.6589 9.48992 59.2389 9.90992C58.8189 10.3299 58.1989 10.5399 57.3789 10.5399C56.5589 10.5399 55.8089 10.3499 55.1989 9.96992L55.3489 9.23992C55.6989 9.43992 56.0289 9.57992 56.3489 9.66992C56.6589 9.75992 56.9989 9.79992 57.3789 9.79992C57.9189 9.79992 58.3189 9.65992 58.5889 9.37992C58.8589 9.09992 58.9989 8.67992 58.9989 8.11992V6.80992C58.8289 7.15992 58.5789 7.43992 58.2589 7.62992C57.9289 7.81992 57.5489 7.91992 57.0989 7.91992C56.6189 7.91992 56.1789 7.80992 55.8089 7.57992C55.4289 7.34992 55.1389 7.02992 54.9389 6.60992C54.7289 6.18992 54.6289 5.70992 54.6289 5.16992C54.6289 4.62992 54.7289 4.14992 54.9389 3.72992C55.1489 3.30992 55.4389 2.98992 55.8089 2.75992C56.1889 2.52992 56.6189 2.41992 57.0989 2.41992C57.5389 2.41992 57.9189 2.51992 58.2489 2.70992C58.5789 2.89992 58.8189 3.16992 58.9889 3.50992V2.54992H59.8789L59.8689 2.55992ZM58.5189 6.64992C58.8189 6.28992 58.9789 5.79992 58.9789 5.17992C58.9789 4.55992 58.8289 4.06992 58.5189 3.70992C58.2189 3.34992 57.7989 3.17992 57.2589 3.17992C56.7189 3.17992 56.2889 3.35992 55.9789 3.70992C55.6689 4.06992 55.5089 4.55992 55.5089 5.17992C55.5089 5.79992 55.6689 6.28992 55.9789 6.64992C56.2889 7.00992 56.7189 7.17992 57.2589 7.17992C57.7989 7.17992 58.2189 6.99992 58.5189 6.64992Z" fill="#231815"/>
<path d="M62.4998 7.82018C62.0998 7.59018 61.7998 7.25018 61.5798 6.82018C61.3598 6.39018 61.2598 5.88018 61.2598 5.30018C61.2598 4.72018 61.3698 4.22018 61.5798 3.78018C61.7898 3.34018 62.0998 3.01018 62.4998 2.78018C62.8998 2.55018 63.3498 2.43018 63.8798 2.43018C64.4098 2.43018 64.8598 2.55018 65.2598 2.78018C65.6598 3.02018 65.9598 3.35018 66.1798 3.78018C66.3998 4.21018 66.4998 4.72018 66.4998 5.30018C66.4998 5.88018 66.3898 6.38018 66.1798 6.82018C65.9598 7.25018 65.6598 7.59018 65.2598 7.82018C64.8598 8.06018 64.4098 8.17018 63.8798 8.17018C63.3498 8.17018 62.8998 8.05018 62.4998 7.82018ZM65.1398 6.89018C65.4298 6.53018 65.5798 6.00018 65.5798 5.30018C65.5798 4.60018 65.4298 4.10018 65.1298 3.73018C64.8298 3.36018 64.4098 3.17018 63.8798 3.17018C63.3498 3.17018 62.9198 3.36018 62.6098 3.73018C62.2998 4.10018 62.1598 4.62018 62.1598 5.30018C62.1598 5.98018 62.3098 6.53018 62.6098 6.89018C62.9098 7.25018 63.3298 7.43018 63.8798 7.43018C64.4298 7.43018 64.8498 7.25018 65.1498 6.89018H65.1398Z" fill="#231815"/>
<path d="M69.0698 3.26982V6.29982C69.0698 6.70982 69.1498 6.99982 69.3198 7.15982C69.4898 7.32982 69.7298 7.40982 70.0398 7.40982C70.2498 7.40982 70.4398 7.37982 70.6298 7.30982V8.06982C70.3998 8.13982 70.1498 8.17982 69.8598 8.17982C69.3298 8.17982 68.9199 8.02982 68.6199 7.72982C68.3199 7.42982 68.1698 6.98982 68.1698 6.41982V3.26982H67.0898V2.56982H68.1698V1.13982L69.0598 0.819824V2.55982H70.6398V3.25982H69.0598L69.0698 3.26982Z" fill="#231815"/>
<path d="M76.6603 2.56006L74.0703 8.60006C73.8003 9.23006 73.4603 9.69006 73.0503 9.99006C72.6403 10.2801 72.1303 10.4901 71.5303 10.6001L71.3403 9.91006C71.8603 9.79006 72.2503 9.64006 72.5203 9.44006C72.7903 9.25006 73.0103 8.95006 73.1903 8.54006L73.4103 8.04006L71.0703 2.56006H72.0103L73.8803 7.13006L75.7703 2.56006H76.6603V2.56006Z" fill="#231815"/>
<path d="M81.6788 2.79018C82.0488 3.03018 82.3388 3.37018 82.5488 3.81018C82.7588 4.25018 82.8588 4.75018 82.8588 5.32018C82.8588 5.89018 82.7588 6.39018 82.5488 6.82018C82.3388 7.25018 82.0588 7.58018 81.6888 7.82018C81.3188 8.06018 80.8888 8.17018 80.3988 8.17018C79.9688 8.17018 79.5888 8.07018 79.2688 7.88018C78.9488 7.69018 78.6988 7.42018 78.5288 7.07018V10.4702H77.6388V4.11018C77.6388 3.54018 77.6088 3.02018 77.5488 2.56018H78.3988L78.4888 3.63018C78.6388 3.25018 78.8888 2.95018 79.2188 2.74018C79.5488 2.53018 79.9488 2.43018 80.3988 2.43018C80.8788 2.43018 81.3088 2.55018 81.6888 2.79018H81.6788ZM81.4888 6.88018C81.7888 6.51018 81.9388 5.99018 81.9388 5.32018C81.9388 4.65018 81.7888 4.12018 81.4888 3.74018C81.1888 3.36018 80.7688 3.17018 80.2388 3.17018C79.7088 3.17018 79.2688 3.35018 78.9688 3.72018C78.6788 4.09018 78.5288 4.61018 78.5288 5.29018C78.5288 5.97018 78.6788 6.50018 78.9688 6.87018C79.2588 7.24018 79.6788 7.43018 80.2388 7.43018C80.7988 7.43018 81.1988 7.25018 81.4988 6.88018H81.4888Z" fill="#231815"/>
<path d="M88.8702 5.30018H84.8102C84.8102 6.00018 84.9802 6.54018 85.3002 6.89018C85.6202 7.24018 86.0802 7.43018 86.6902 7.43018C87.3402 7.43018 87.9302 7.21018 88.4702 6.78018L88.7701 7.43018C88.5301 7.66018 88.2201 7.84018 87.8401 7.97018C87.4601 8.10018 87.0802 8.17018 86.6802 8.17018C85.8102 8.17018 85.1402 7.92018 84.6502 7.41018C84.1602 6.90018 83.9102 6.20018 83.9102 5.31018C83.9102 4.75018 84.0202 4.25018 84.2402 3.81018C84.4602 3.37018 84.7702 3.03018 85.1602 2.79018C85.5502 2.55018 86.0102 2.43018 86.5102 2.43018C87.2402 2.43018 87.8202 2.67018 88.2402 3.15018C88.6602 3.63018 88.8702 4.29018 88.8702 5.14018V5.31018V5.30018ZM85.4002 3.54018C85.1102 3.82018 84.9201 4.21018 84.8401 4.72018H88.0602C88.0202 4.20018 87.8602 3.80018 87.6002 3.53018C87.3402 3.26018 86.9801 3.12018 86.5201 3.12018C86.0601 3.12018 85.6802 3.26018 85.3902 3.54018H85.4002Z" fill="#231815"/>
<path d="M93.0391 4.77002H96.1491V5.51002H93.0391V4.77002Z" fill="#231815"/>
<path d="M102.2 7.70018C101.65 7.38018 101.23 6.91018 100.94 6.31018C100.65 5.70018 100.5 4.99018 100.5 4.17018C100.5 3.35018 100.65 2.64018 100.94 2.04018C101.23 1.44018 101.65 0.980176 102.2 0.660176C102.75 0.340176 103.39 0.180176 104.13 0.180176C104.67 0.180176 105.17 0.260176 105.62 0.430176C106.07 0.600176 106.46 0.840176 106.79 1.17018L106.45 1.86018C106.08 1.54018 105.71 1.31018 105.34 1.17018C104.98 1.03018 104.58 0.960176 104.14 0.960176C103.28 0.960176 102.62 1.24018 102.14 1.80018C101.67 2.36018 101.43 3.15018 101.43 4.18018C101.43 5.21018 101.66 6.01018 102.13 6.57018C102.6 7.13018 103.27 7.41018 104.13 7.41018C104.57 7.41018 104.97 7.34018 105.33 7.20018C105.69 7.06018 106.06 6.83018 106.44 6.51018L106.78 7.20018C106.45 7.53018 106.06 7.78018 105.61 7.94018C105.16 8.11018 104.66 8.19018 104.12 8.19018C103.38 8.19018 102.74 8.03018 102.19 7.71018L102.2 7.70018Z" fill="#231815"/>
<path d="M112.959 4.62V8.1H112.069V4.67C112.069 4.16 111.969 3.78 111.759 3.54C111.549 3.3 111.229 3.18 110.789 3.18C110.279 3.18 109.869 3.34 109.559 3.65C109.249 3.97 109.099 4.39 109.099 4.93V8.1H108.209V0H109.099V3.46C109.279 3.12 109.529 2.87 109.849 2.69C110.179 2.51 110.549 2.43 110.969 2.43C112.299 2.43 112.959 3.16 112.959 4.62V4.62Z" fill="#231815"/>
<path d="M115.639 0.220215V1.23021H114.549V0.220215H115.639ZM114.639 2.56021H115.529V8.09022H114.639V2.56021Z" fill="#231815"/>
<path d="M122.01 4.61994V8.09994H121.12V4.66994C121.12 4.15994 121.02 3.77994 120.81 3.53994C120.6 3.29994 120.28 3.17994 119.84 3.17994C119.33 3.17994 118.92 3.33994 118.61 3.64994C118.3 3.96994 118.15 4.38994 118.15 4.92994V8.09994H117.26V4.11994C117.26 3.54994 117.23 3.02994 117.17 2.56994H118.02L118.11 3.55994C118.28 3.19994 118.53 2.91994 118.87 2.72994C119.21 2.53994 119.59 2.43994 120.03 2.43994C121.36 2.43994 122.02 3.16994 122.02 4.62994L122.01 4.61994Z" fill="#231815"/>
<path d="M128.319 5.30018H124.259C124.259 6.00018 124.429 6.54018 124.749 6.89018C125.069 7.24018 125.529 7.43018 126.139 7.43018C126.789 7.43018 127.379 7.21018 127.919 6.78018L128.219 7.43018C127.979 7.66018 127.669 7.84018 127.289 7.97018C126.909 8.10018 126.529 8.17018 126.129 8.17018C125.259 8.17018 124.589 7.92018 124.099 7.41018C123.609 6.90018 123.359 6.20018 123.359 5.31018C123.359 4.75018 123.469 4.25018 123.689 3.81018C123.909 3.37018 124.219 3.03018 124.609 2.79018C124.999 2.55018 125.459 2.43018 125.959 2.43018C126.689 2.43018 127.269 2.67018 127.689 3.15018C128.109 3.63018 128.319 4.29018 128.319 5.14018V5.31018V5.30018ZM124.849 3.54018C124.559 3.82018 124.369 4.21018 124.289 4.72018H127.509C127.469 4.20018 127.309 3.80018 127.049 3.53018C126.789 3.26018 126.429 3.12018 125.969 3.12018C125.509 3.12018 125.129 3.26018 124.839 3.54018H124.849Z" fill="#231815"/>
<path d="M129.329 7.46018L129.629 6.80018C129.929 7.03018 130.229 7.20018 130.539 7.31018C130.849 7.42018 131.189 7.46018 131.569 7.46018C131.989 7.46018 132.299 7.39018 132.519 7.25018C132.739 7.11018 132.839 6.90018 132.839 6.63018C132.839 6.41018 132.769 6.23018 132.619 6.10018C132.469 5.97018 132.229 5.87018 131.889 5.79018L130.949 5.57018C130.489 5.47018 130.129 5.28018 129.879 5.02018C129.629 4.76018 129.499 4.44018 129.499 4.07018C129.499 3.59018 129.689 3.19018 130.079 2.89018C130.469 2.59018 130.979 2.43018 131.619 2.43018C132.009 2.43018 132.369 2.49018 132.719 2.62018C133.059 2.74018 133.349 2.92018 133.589 3.16018L133.289 3.81018C132.769 3.38018 132.209 3.16018 131.619 3.16018C131.219 3.16018 130.919 3.24018 130.699 3.39018C130.479 3.54018 130.379 3.75018 130.379 4.02018C130.379 4.25018 130.449 4.43018 130.579 4.56018C130.709 4.69018 130.929 4.79018 131.229 4.87018L132.169 5.10018C132.679 5.22018 133.059 5.40018 133.309 5.64018C133.559 5.89018 133.679 6.21018 133.679 6.60018C133.679 7.08018 133.489 7.46018 133.099 7.74018C132.709 8.03018 132.179 8.17018 131.519 8.17018C130.589 8.17018 129.849 7.93018 129.309 7.46018H129.329Z" fill="#231815"/>
<path d="M139.759 5.30018H135.699C135.699 6.00018 135.869 6.54018 136.189 6.89018C136.509 7.24018 136.969 7.43018 137.579 7.43018C138.229 7.43018 138.819 7.21018 139.359 6.78018L139.659 7.43018C139.419 7.66018 139.109 7.84018 138.729 7.97018C138.349 8.10018 137.969 8.17018 137.569 8.17018C136.699 8.17018 136.029 7.92018 135.539 7.41018C135.049 6.90018 134.799 6.20018 134.799 5.31018C134.799 4.75018 134.909 4.25018 135.129 3.81018C135.349 3.37018 135.659 3.03018 136.049 2.79018C136.439 2.55018 136.899 2.43018 137.399 2.43018C138.129 2.43018 138.709 2.67018 139.129 3.15018C139.549 3.63018 139.759 4.29018 139.759 5.14018V5.31018V5.30018ZM136.289 3.54018C135.999 3.82018 135.809 4.21018 135.729 4.72018H138.949C138.909 4.20018 138.749 3.80018 138.489 3.53018C138.229 3.26018 137.869 3.12018 137.409 3.12018C136.949 3.12018 136.569 3.26018 136.279 3.54018H136.289Z" fill="#231815"/>
<defs>
<linearGradient id="paint0_linear_602_550" x1="-5972.31" y1="682.66" x2="-5972.31" y2="682.66" gradientUnits="userSpaceOnUse">
<stop stop-color="white"/>
<stop offset="1" stop-color="#231815"/>
</linearGradient>
<linearGradient id="paint1_linear_602_550" x1="-5952.54" y1="682.66" x2="-5952.54" y2="682.66" gradientUnits="userSpaceOnUse">
<stop stop-color="white"/>
<stop offset="1" stop-color="#231815"/>
</linearGradient>
<linearGradient id="paint2_linear_602_550" x1="6230.47" y1="238.04" x2="6230.47" y2="238.04" gradientUnits="userSpaceOnUse">
<stop stop-color="white"/>
<stop offset="1" stop-color="#231815"/>
</linearGradient>
</defs>
</svg>
