<svg width="291" height="47" viewBox="0 0 291 47" fill="none" xmlns="http://www.w3.org/2000/svg">
<path d="M3.50076 46.2801H2.57077V39.6701H0.800781V38.8201H5.27078V39.6701H3.50076V46.2801Z" fill="#003874"/>
<path d="M10.4995 41.8201V38.8201H11.4295V46.2801H10.4995V42.6901H6.94952V46.2801H6.01953V38.8201H6.94952V41.8201H10.4995Z" fill="#003874"/>
<path d="M12.8711 38.8201H16.8811V39.6701H13.8011V41.7501H16.7911V42.6101H13.8011V45.4201H16.8811V46.2801H12.8711V38.8201Z" fill="#003874"/>
<path d="M25.4898 41.8201V38.8201H26.4198V46.2801H25.4898V42.6901H21.9398V46.2801H21.0098V38.8201H21.9398V41.8201H25.4898Z" fill="#003874"/>
<path d="M34.2201 42.5499C34.2201 40.9099 32.9901 39.5299 31.2401 39.5299C29.4901 39.5299 28.2601 40.9099 28.2601 42.5499C28.2601 44.1899 29.6301 45.5699 31.2401 45.5699C32.8501 45.5699 34.2201 44.2499 34.2201 42.5499ZM35.1501 42.5499C35.1501 44.7699 33.4001 46.4399 31.2401 46.4399C29.0801 46.4399 27.3301 44.7699 27.3301 42.5499C27.3301 40.3299 29.1001 38.6599 31.2401 38.6599C33.3801 38.6599 35.1501 40.4099 35.1501 42.5499Z" fill="#003874"/>
<path d="M36.0605 38.46L41.6606 44.33V38.82H42.5905V46.58L36.9906 40.72V46.28H36.0605V38.46Z" fill="#003874"/>
<path d="M50.8098 42.5199V42.8199C50.8098 44.8699 49.3598 46.4399 47.2798 46.4399C45.1998 46.4399 43.5098 44.6399 43.5098 42.5699C43.5098 40.4999 45.2298 38.6599 47.3798 38.6599C48.5398 38.6599 49.6898 39.1799 50.4198 40.0999L49.7698 40.7199C49.2398 39.9899 48.3398 39.4999 47.4298 39.4999C45.7598 39.4999 44.4498 40.8599 44.4498 42.5299C44.4498 44.0899 45.7398 45.5799 47.3498 45.5799C48.5098 45.5799 49.7498 44.5799 49.7898 43.3699H47.8598V42.5199H50.8198H50.8098Z" fill="#003874"/>
<path d="M58.881 38.8201H60.101L56.751 42.1701L60.161 46.2801H58.901L56.091 42.8101L55.721 43.1601V46.2801H54.791V38.8201H55.721V42.0501L58.881 38.8201Z" fill="#003874"/>
<path d="M67.181 42.5499C67.181 40.9099 65.951 39.5299 64.201 39.5299C62.451 39.5299 61.221 40.9099 61.221 42.5499C61.221 44.1899 62.591 45.5699 64.201 45.5699C65.811 45.5699 67.181 44.2499 67.181 42.5499ZM68.111 42.5499C68.111 44.7699 66.361 46.4399 64.201 46.4399C62.041 46.4399 60.291 44.7699 60.291 42.5499C60.291 40.3299 62.061 38.6599 64.201 38.6599C66.341 38.6599 68.111 40.4099 68.111 42.5499Z" fill="#003874"/>
<path d="M69.0195 38.46L74.6195 44.33V38.82H75.5495V46.58L69.9495 40.72V46.28H69.0195V38.46Z" fill="#003874"/>
<path d="M83.7707 42.5199V42.8199C83.7707 44.8699 82.3207 46.4399 80.2407 46.4399C78.1607 46.4399 76.4707 44.6399 76.4707 42.5699C76.4707 40.4999 78.1907 38.6599 80.3407 38.6599C81.5007 38.6599 82.6507 39.1799 83.3807 40.0999L82.7307 40.7199C82.2007 39.9899 81.3007 39.4999 80.3907 39.4999C78.7207 39.4999 77.4107 40.8599 77.4107 42.5299C77.4107 44.0899 78.7007 45.5799 80.3107 45.5799C81.4707 45.5799 82.7107 44.5799 82.7507 43.3699H80.8207V42.5199H83.7807H83.7707Z" fill="#003874"/>
<path d="M88.5511 38.8201V43.2201C88.5511 44.4401 88.9211 45.5701 90.3511 45.5701C91.7811 45.5701 92.1511 44.4401 92.1511 43.2201V38.8201H93.0811V43.5401C93.0811 45.1801 92.0611 46.4401 90.3511 46.4401C88.6411 46.4401 87.6211 45.1801 87.6211 43.5401V38.8201H88.5511V38.8201Z" fill="#003874"/>
<path d="M94.3809 38.46L99.9808 44.33V38.82H100.911V46.58L95.3109 40.72V46.28H94.3809V38.46Z" fill="#003874"/>
<path d="M103.231 38.8201H102.301V46.2801H103.231V38.8201Z" fill="#003874"/>
<path d="M107.191 44.3401L109.401 38.8201H110.421L107.191 46.6701L103.941 38.8201H104.961L107.191 44.3401Z" fill="#003874"/>
<path d="M111.16 38.8201H115.16V39.6701H112.09V41.7501H115.07V42.6101H112.09V45.4201H115.16V46.2801H111.16V38.8201Z" fill="#003874"/>
<path d="M117.34 42.3501H117.64C118.59 42.3501 119.62 42.1701 119.62 40.9801C119.62 39.7901 118.51 39.6501 117.59 39.6501H117.34V42.3501ZM121.05 46.2801H119.92L117.72 43.1301H117.33V46.2801H116.4V38.8201H117.53C118.19 38.8201 118.91 38.8201 119.5 39.1601C120.12 39.5301 120.48 40.2301 120.48 40.9401C120.48 42.0101 119.77 42.9001 118.69 43.0301L121.04 46.2801H121.05Z" fill="#003874"/>
<path d="M125.191 40.2299C124.911 39.7599 124.561 39.5299 123.991 39.5299C123.401 39.5299 122.741 39.9399 122.741 40.5899C122.741 41.1699 123.311 41.4799 123.781 41.6599L124.311 41.8699C125.371 42.2899 126.161 42.8699 126.161 44.1199C126.161 45.4699 125.111 46.4399 123.781 46.4399C122.571 46.4399 121.631 45.5499 121.471 44.3499L122.411 44.1499C122.401 44.9699 123.051 45.5599 123.861 45.5599C124.671 45.5599 125.231 44.8899 125.231 44.1099C125.231 43.3299 124.591 42.9599 123.941 42.6899L123.431 42.4699C122.581 42.1099 121.811 41.6199 121.811 40.5799C121.811 39.3799 122.881 38.6499 124.011 38.6499C124.841 38.6499 125.521 39.0599 125.931 39.7799L125.191 40.2199V40.2299Z" fill="#003874"/>
<path d="M128.19 38.8201H127.26V46.2801H128.19V38.8201Z" fill="#003874"/>
<path d="M131.69 46.2801H130.76V39.6701H128.99V38.8201H133.46V39.6701H131.69V46.2801Z" fill="#003874"/>
<path d="M133.52 38.8201H134.59L136.42 42.0001L138.25 38.8201H139.32L136.89 43.0301V46.2801H135.96V43.0301L133.52 38.8201Z" fill="#003874"/>
<path d="M149.38 42.5499C149.38 40.9099 148.15 39.5299 146.4 39.5299C144.65 39.5299 143.42 40.9099 143.42 42.5499C143.42 44.1899 144.78 45.5699 146.4 45.5699C148.02 45.5699 149.38 44.2499 149.38 42.5499ZM150.31 42.5499C150.31 44.7699 148.56 46.4399 146.4 46.4399C144.24 46.4399 142.49 44.7699 142.49 42.5499C142.49 40.3299 144.26 38.6599 146.4 38.6599C148.54 38.6599 150.31 40.4099 150.31 42.5499Z" fill="#003874"/>
<path d="M152.231 39.6701V41.7701H154.821V42.6201H152.231V46.2801H151.301V38.8201H154.911V39.6701H152.231Z" fill="#003874"/>
<path d="M162.37 40.2299C162.09 39.7599 161.74 39.5299 161.17 39.5299C160.57 39.5299 159.92 39.9399 159.92 40.5899C159.92 41.1699 160.5 41.4799 160.96 41.6599L161.5 41.8699C162.56 42.2899 163.35 42.8699 163.35 44.1199C163.35 45.4699 162.3 46.4399 160.97 46.4399C159.76 46.4399 158.82 45.5499 158.67 44.3499L159.61 44.1499C159.6 44.9699 160.25 45.5599 161.06 45.5599C161.87 45.5599 162.43 44.8899 162.43 44.1099C162.43 43.3299 161.79 42.9599 161.15 42.6899L160.63 42.4699C159.78 42.1099 159.01 41.6199 159.01 40.5799C159.01 39.3799 160.08 38.6499 161.21 38.6499C162.04 38.6499 162.72 39.0599 163.13 39.7799L162.39 40.2199L162.37 40.2299Z" fill="#003874"/>
<path d="M169.901 40.2399C169.371 39.7599 168.631 39.5099 167.931 39.5099C166.261 39.5099 164.981 40.9099 164.981 42.5599C164.981 44.2099 166.251 45.5799 167.911 45.5799C168.641 45.5799 169.341 45.2999 169.901 44.8099V45.9099C169.331 46.2499 168.591 46.4299 167.941 46.4299C165.811 46.4299 164.051 44.7399 164.051 42.5799C164.051 40.4199 165.821 38.6499 168.021 38.6499C168.671 38.6499 169.341 38.8099 169.901 39.1499V40.2299V40.2399Z" fill="#003874"/>
<path d="M172 38.8201H171.07V46.2801H172V38.8201Z" fill="#003874"/>
<path d="M173.5 38.8201H177.5V39.6701H174.43V41.7501H177.41V42.6101H174.43V45.4201H177.5V46.2801H173.5V38.8201Z" fill="#003874"/>
<path d="M178.66 38.46L184.26 44.33V38.82H185.19V46.58L179.59 40.72V46.28H178.66V38.46Z" fill="#003874"/>
<path d="M192.041 40.2399C191.511 39.7599 190.771 39.5099 190.071 39.5099C188.401 39.5099 187.121 40.9099 187.121 42.5599C187.121 44.2099 188.391 45.5799 190.051 45.5799C190.781 45.5799 191.481 45.2999 192.041 44.8099V45.9099C191.471 46.2499 190.731 46.4299 190.081 46.4299C187.951 46.4299 186.191 44.7399 186.191 42.5799C186.191 40.4199 187.961 38.6499 190.161 38.6499C190.811 38.6499 191.481 38.8099 192.041 39.1499V40.2299V40.2399Z" fill="#003874"/>
<path d="M193.25 38.8201H197.26V39.6701H194.18V41.7501H197.17V42.6101H194.18V45.4201H197.26V46.2801H193.25V38.8201Z" fill="#003874"/>
<path d="M204.23 40.54L202.9 43.56H205.55L204.22 40.54H204.23ZM202.52 44.41L201.67 46.28H200.67L204.23 38.5L207.79 46.28H206.79L205.94 44.41H202.52V44.41Z" fill="#003874"/>
<path d="M208.43 38.46L214.03 44.33V38.82H214.95V46.58L209.35 40.72V46.28H208.43V38.46Z" fill="#003874"/>
<path d="M217.231 45.4201H217.561C219.461 45.4201 221.101 44.7101 221.101 42.5401C221.101 40.3701 219.461 39.6601 217.561 39.6601H217.231V45.4201ZM216.301 38.8101H217.841C220.121 38.8101 222.031 40.0101 222.031 42.5001C222.031 44.9901 220.171 46.2701 217.811 46.2701H216.301V38.8101V38.8101Z" fill="#003874"/>
<path d="M228.02 46.2801H227.09V39.6701H225.32V38.8201H229.79V39.6701H228.02V46.2801Z" fill="#003874"/>
<path d="M230.621 38.8201H234.631V39.6701H231.551V41.7501H234.541V42.6101H231.551V45.4201H234.631V46.2801H230.621V38.8201Z" fill="#003874"/>
<path d="M241.311 40.2399C240.781 39.7599 240.041 39.5099 239.341 39.5099C237.671 39.5099 236.391 40.9099 236.391 42.5599C236.391 44.2099 237.661 45.5799 239.321 45.5799C240.051 45.5799 240.751 45.2999 241.311 44.8099V45.9099C240.741 46.2499 240.001 46.4299 239.351 46.4299C237.221 46.4299 235.461 44.7399 235.461 42.5799C235.461 40.4199 237.231 38.6499 239.431 38.6499C240.081 38.6499 240.751 38.8099 241.311 39.1499V40.2299V40.2399Z" fill="#003874"/>
<path d="M246.921 41.8201V38.8201H247.851V46.2801H246.921V42.6901H243.371V46.2801H242.441V38.8201H243.371V41.8201H246.921Z" fill="#003874"/>
<path d="M249.201 38.46L254.801 44.33V38.82H255.731V46.58L250.131 40.72V46.28H249.201V38.46Z" fill="#003874"/>
<path d="M263.521 42.5499C263.521 40.9099 262.291 39.5299 260.541 39.5299C258.791 39.5299 257.561 40.9099 257.561 42.5499C257.561 44.1899 258.921 45.5699 260.541 45.5699C262.161 45.5699 263.521 44.2499 263.521 42.5499ZM264.451 42.5499C264.451 44.7699 262.701 46.4399 260.541 46.4399C258.381 46.4399 256.631 44.7699 256.631 42.5499C256.631 40.3299 258.401 38.6599 260.541 38.6599C262.681 38.6599 264.451 40.4099 264.451 42.5499Z" fill="#003874"/>
<path d="M266.371 45.4201H268.641V46.2801H265.451V38.8201H266.371V45.4201Z" fill="#003874"/>
<path d="M275.71 42.5499C275.71 40.9099 274.48 39.5299 272.73 39.5299C270.98 39.5299 269.75 40.9099 269.75 42.5499C269.75 44.1899 271.11 45.5699 272.73 45.5699C274.35 45.5699 275.71 44.2499 275.71 42.5499ZM276.64 42.5499C276.64 44.7699 274.89 46.4399 272.73 46.4399C270.57 46.4399 268.82 44.7699 268.82 42.5499C268.82 40.3299 270.59 38.6599 272.73 38.6599C274.87 38.6599 276.64 40.4099 276.64 42.5499Z" fill="#003874"/>
<path d="M284.441 42.5199V42.8199C284.441 44.8699 282.991 46.4399 280.911 46.4399C278.831 46.4399 277.141 44.6399 277.141 42.5699C277.141 40.4999 278.861 38.6599 281.011 38.6599C282.171 38.6599 283.321 39.1799 284.051 40.0999L283.401 40.7199C282.871 39.9899 281.971 39.4999 281.061 39.4999C279.391 39.4999 278.081 40.8599 278.081 42.5299C278.081 44.0899 279.371 45.5799 280.981 45.5799C282.141 45.5799 283.381 44.5799 283.421 43.3699H281.491V42.5199H284.451H284.441Z" fill="#003874"/>
<path d="M289.421 38.8201L287.581 42.0001L285.761 38.8201H284.691L287.121 43.0301V46.2801H288.051V43.0301L290.481 38.8201H289.421Z" fill="#003874"/>
<path d="M149.951 7.35008C150.101 7.16008 150.151 6.83008 150.151 6.83008H141.211C141.211 6.83008 141.321 7.20008 141.411 7.35008H149.951Z" fill="#A78236"/>
<path d="M149.43 8.09991C149.6 7.94991 149.77 7.65991 149.77 7.65991H141.58C141.58 7.65991 141.67 7.87991 141.87 8.09991H149.42H149.43Z" fill="#A78236"/>
<path d="M148.79 8.78995C148.99 8.67995 149.16 8.44995 149.16 8.44995H142.16C142.16 8.44995 142.33 8.62995 142.49 8.78995H148.79Z" fill="#A78236"/>
<path d="M147.971 9.43993C148.171 9.35993 148.401 9.17993 148.401 9.17993H142.941C142.941 9.17993 142.941 9.21993 143.331 9.43993H147.981H147.971Z" fill="#A78236"/>
<path d="M143.951 9.84009C143.951 9.84009 144.531 10.1801 145.651 10.1801C146.771 10.1801 147.501 9.84009 147.501 9.84009H143.941H143.951Z" fill="#A78236"/>
<path d="M143.86 10.6001C143.86 10.6001 144.55 10.6401 144.95 10.9501C145.34 11.2901 145.64 11.8401 145.64 11.8401C145.64 11.8401 145.88 11.3101 146.27 11.0301C146.66 10.7301 147.29 10.6001 147.29 10.6001H154.35L155.74 12.6601H149.4C149.4 12.6601 148.96 12.6801 148.29 13.0701C147.94 13.2701 147.68 13.6201 147.68 13.6201C147.68 13.6201 147.63 13.7901 147.55 13.8801C147.48 13.9801 147.42 14.0501 147.33 14.0901C147.24 14.1301 147.25 14.1101 147.25 14.1101H143.95C143.95 14.1101 143.82 14.0601 143.75 13.9401C143.67 13.8301 143.73 13.8701 143.66 13.7801C143.6 13.6901 143.47 13.4401 142.97 13.1101C142.45 12.7701 141.95 12.7401 141.95 12.7401H135.51L136.91 10.6101H143.86V10.6001Z" fill="#003874"/>
<path d="M138.871 13.51V24.03C138.871 24.03 138.911 24.96 139.691 26.22C140.471 27.48 141.601 28.05 141.601 28.05L142.491 26.66C142.491 26.66 141.711 26.2 141.121 25.31C140.551 24.42 140.551 23.66 140.551 23.66V13.51H138.881H138.871Z" fill="#003874"/>
<path d="M150.8 13.47V23.62C150.8 23.62 150.67 24.64 150.19 25.36C149.71 26.1 148.91 26.69 148.91 26.69L149.76 28.06C149.76 28.06 151.05 27.12 151.68 26.12C152.31 25.12 152.46 23.62 152.46 23.62V13.47H150.79H150.8Z" fill="#003874"/>
<path d="M136.23 13.51V24.07C136.23 24.07 136.34 25.7 137.36 27.41C138.38 29.11 140.23 30.3 140.23 30.3L141.1 28.91C141.1 28.91 139.91 28.28 138.97 26.84C138 25.37 137.95 24.04 137.95 24.04V13.52H136.23V13.51Z" fill="#003874"/>
<path d="M143.861 14.6201V25.7701C143.861 25.7701 143.821 25.8101 143.811 25.9701C143.791 26.1401 143.681 26.2501 143.681 26.2501L139.961 32.4201H151.371L147.651 26.1201L147.541 25.8401L147.501 25.5501V14.6401H146.111V25.9601C146.111 25.9601 146.111 26.1301 146.171 26.2601C146.201 26.3901 146.281 26.5901 146.281 26.5901L148.581 30.3701H142.761L145.021 26.6101C145.021 26.6101 145.101 26.4801 145.151 26.3001C145.191 26.1301 145.201 25.9701 145.201 25.9701V14.6301H143.871L143.861 14.6201Z" fill="#A78236"/>
<path d="M153.38 13.47V23.85C153.38 23.85 153.36 25.18 152.38 26.72C151.4 28.26 150.27 28.91 150.27 28.91L151.11 30.32C151.11 30.32 152.81 29.24 153.89 27.54C154.95 25.84 155.08 23.86 155.08 23.86V13.48H153.39L153.38 13.47Z" fill="#003874"/>
<path d="M141.151 6.52988C141.151 6.52988 140.581 3.39988 142.871 1.83988C142.871 1.83988 143.911 0.879883 145.591 0.879883C147.391 0.879883 148.421 1.81988 148.421 1.81988C150.921 3.64988 150.181 6.52988 150.181 6.52988H141.141H141.151Z" fill="#A78236"/>
</svg>
