<svg width="168" height="89" viewBox="0 0 168 89" fill="none" xmlns="http://www.w3.org/2000/svg">
<path d="M90.8098 9.58982C91.0298 9.30982 91.1098 8.81982 91.1098 8.81982H77.8398C77.8398 8.81982 77.9999 9.36982 78.1399 9.58982H90.8098V9.58982Z" fill="#AA8420"/>
<path d="M90.0409 10.7098C90.2909 10.4898 90.5309 10.0498 90.5309 10.0498H78.3809C78.3809 10.0498 78.5209 10.3798 78.8209 10.7098H90.0309H90.0409Z" fill="#AA8420"/>
<path d="M89.0802 11.7297C89.3802 11.5697 89.6302 11.2397 89.6302 11.2397H79.2402C79.2402 11.2397 79.4902 11.5197 79.7402 11.7297H89.0902H89.0802Z" fill="#AA8420"/>
<path d="M87.8608 12.7001C88.1608 12.5901 88.4908 12.3101 88.4908 12.3101H80.3809C80.3809 12.3101 80.3809 12.3701 80.9509 12.7001H87.8509H87.8608Z" fill="#AA8420"/>
<path d="M81.9004 13.29C81.9004 13.29 82.7504 13.79 84.4304 13.79C86.1104 13.79 87.1804 13.29 87.1804 13.29H81.9004Z" fill="#AA8420"/>
<path d="M81.7596 14.4199C81.7596 14.4199 82.7796 14.4699 83.3796 14.9399C83.9596 15.4399 84.3996 16.2599 84.3996 16.2599C84.3996 16.2599 84.7596 15.4699 85.3296 15.0499C85.9096 14.6099 86.8396 14.4199 86.8396 14.4199H97.3096L99.3696 17.4699H89.9596C89.9596 17.4699 89.2996 17.4999 88.3096 18.0799C87.7896 18.3799 87.3996 18.8999 87.3996 18.8999C87.3996 18.8999 87.3196 19.1499 87.2096 19.2799C87.0996 19.4199 87.0196 19.5299 86.8796 19.5799C86.7396 19.6399 86.7696 19.6099 86.7696 19.6099H81.8796C81.8796 19.6099 81.6796 19.5299 81.5796 19.3599C81.4696 19.1999 81.5496 19.2499 81.4396 19.1199C81.3596 18.9799 81.1596 18.6199 80.4196 18.1299C79.6496 17.6299 78.9096 17.5799 78.9096 17.5799H69.3496L71.4396 14.4199H81.7496H81.7596Z" fill="#003477"/>
<path d="M74.3594 18.74V34.35C74.3594 34.35 74.4194 35.73 75.5694 37.59C76.7194 39.46 78.3994 40.31 78.3994 40.31L79.7194 38.25C79.7194 38.25 78.5694 37.56 77.6894 36.24C76.8394 34.92 76.8394 33.79 76.8394 33.79V18.73H74.3594V18.74Z" fill="#003477"/>
<path d="M92.0698 18.6797V33.7397C92.0698 33.7397 91.8798 35.2497 91.1598 36.3297C90.4498 37.4297 89.2598 38.3097 89.2598 38.3097L90.5298 40.3397C90.5298 40.3397 92.4498 38.9397 93.3898 37.4597C94.3298 35.9797 94.5497 33.7497 94.5497 33.7497V18.6897H92.0797L92.0698 18.6797Z" fill="#003477"/>
<path d="M70.4397 18.7397V34.4097C70.4397 34.4097 70.5997 36.8297 72.1097 39.3597C73.6297 41.8897 76.3697 43.6497 76.3697 43.6497L77.6597 41.5897C77.6597 41.5897 75.8997 40.6597 74.4997 38.5097C73.0697 36.3397 72.9897 34.3597 72.9897 34.3597V18.7497H70.4297L70.4397 18.7397Z" fill="#003477"/>
<path d="M81.7607 20.3896V36.9396C81.7607 36.9396 81.7007 36.9996 81.6807 37.2396C81.6507 37.4896 81.4907 37.6596 81.4907 37.6596L75.9707 46.8096H92.9007L87.3707 37.4597L87.2107 37.0496L87.1607 36.6096V20.4196H85.1007V37.2196C85.1007 37.2196 85.1007 37.4596 85.1807 37.6596C85.2307 37.8496 85.3407 38.1496 85.3407 38.1496L88.7507 43.7596H80.1207L83.4707 38.1796C83.4707 38.1796 83.5807 37.9896 83.6607 37.7196C83.7207 37.4696 83.7407 37.2296 83.7407 37.2296V20.3896H81.7607V20.3896Z" fill="#AA8420"/>
<path d="M95.8893 18.6797V34.0797C95.8893 34.0797 95.8693 36.0597 94.4093 38.3397C92.9493 40.6297 91.2793 41.5897 91.2793 41.5897L92.5193 43.6797C92.5193 43.6797 95.0493 42.0797 96.6393 39.5597C98.2093 37.0297 98.3993 34.0897 98.3993 34.0897V18.6897H95.8993L95.8893 18.6797Z" fill="#003477"/>
<path d="M77.7503 8.38C77.7503 8.38 76.9003 3.74 80.3103 1.43C80.3103 1.43 81.8503 0 84.3503 0C87.0203 0 88.5503 1.4 88.5503 1.4C92.2603 4.12 91.1603 8.38 91.1603 8.38H77.7503Z" fill="#AA8420"/>
<path d="M44.4592 58.0296C44.8992 57.8796 45.2092 57.7696 45.3992 57.6896V62.4196H46.4292V61.9096H51.8492V62.4196H52.8692V57.6396C53.0192 57.7196 53.1792 57.7896 53.3492 57.8396C53.5292 57.8896 53.6892 57.9496 53.8392 58.0196L54.3292 57.0196C52.7392 56.6996 51.5292 56.1396 50.6992 55.3296H54.2492V54.4196H49.5992V53.4896C51.0792 53.3696 52.3192 53.1996 53.3192 52.9996L52.8492 52.0996C51.3392 52.4396 49.1292 52.6096 46.1992 52.6096C45.5792 52.6096 45.0692 52.6096 44.6492 52.5896L45.0092 53.5996C45.7292 53.5996 46.9092 53.5796 48.5692 53.5296V54.4196H44.0392V55.3296H47.4392C46.4492 56.1596 45.2892 56.7396 43.9492 57.0596L44.4792 58.0396L44.4592 58.0296ZM51.8392 60.9896H46.4192V60.0196H51.8392V60.9896ZM49.5792 55.3396C50.2692 56.2596 51.1792 56.9396 52.2992 57.3796H49.5792V55.3396ZM51.8392 58.3096V59.1496H46.4192V58.3096H51.8392ZM48.5492 55.3596V57.3896H46.0392C47.0792 56.9496 47.9092 56.2796 48.5492 55.3596Z" fill="#003477"/>
<path d="M60.3601 58.9897L59.4001 58.4297C59.1601 59.4697 58.7201 60.4597 58.0801 61.3697L58.9601 62.2697C59.5901 61.2697 60.0601 60.1797 60.3601 58.9897Z" fill="#003477"/>
<path d="M60.4287 56.2599C59.8587 55.8299 59.3187 55.4699 58.7987 55.1899L58.1387 56.0199C58.5687 56.2999 59.0887 56.6999 59.6787 57.2099L60.4287 56.2599V56.2599Z" fill="#003477"/>
<path d="M60.7594 53.5998V54.1898H62.2294V55.2898H60.5495V56.2098H62.3094C61.9894 56.8998 61.2095 57.5198 59.9995 58.0698L60.6295 58.9998C61.1195 58.6898 61.4595 58.4598 61.6395 58.2998V60.7698C61.6395 61.2698 61.7294 61.6098 61.9194 61.7898C62.1094 61.9698 62.4395 62.0498 62.9095 62.0498H66.4794C67.0494 62.0498 67.4195 61.9498 67.6095 61.7498C67.8095 61.5498 67.9695 60.9298 68.0795 59.9098L67.0195 59.5198C66.9695 60.0998 66.9095 60.5098 66.8495 60.7398C66.7895 60.9698 66.6095 61.0798 66.2995 61.0798H63.0294C62.7694 61.0798 62.6494 60.9498 62.6494 60.6898V59.9798H66.1994V57.7198C66.6394 58.1198 67.1994 58.5198 67.8694 58.9198L68.3394 57.9398C67.1494 57.3498 66.4094 56.7598 66.1194 56.1698H68.2195V55.2498H66.2395V54.1098H68.0594V53.2398H66.2395V52.0898H65.2495V53.2398H63.2395V52.0898H62.2294V53.2398H60.7594V53.3798C60.3294 53.0498 59.7994 52.6898 59.1694 52.2898L58.4395 53.0998C58.9295 53.4098 59.4795 53.8398 60.0795 54.3898L60.7495 53.5498L60.7594 53.5998ZM63.2294 54.1998H65.2395V55.2798H63.2294V54.1998ZM63.4695 56.2098H64.9595C65.1695 56.5998 65.3895 56.9298 65.6295 57.1998H62.8195C63.0895 56.9198 63.3095 56.5798 63.4695 56.2098ZM62.6295 58.0698H65.1595V59.1498H62.6295V58.0698Z" fill="#003477"/>
<path d="M75.2587 62.3598V57.2498C75.4587 57.5098 75.6487 57.7598 75.8387 57.9898C76.0587 58.2398 76.2787 58.5198 76.4987 58.8298L77.1187 57.8798C76.6987 57.4298 76.0787 56.8098 75.2587 56.0498V55.9498H76.9286V54.9998H75.2587V53.4498C75.8387 53.3298 76.3887 53.1798 76.9187 52.9998L76.5486 52.0898C75.3686 52.5398 73.9487 52.7998 72.3087 52.8898L72.5387 53.8098C73.2887 53.7598 73.8587 53.6998 74.2487 53.6198V54.9998H72.1987V55.9498H74.2187C73.7587 57.1698 73.0587 58.2998 72.1387 59.3498L72.7587 60.3398C73.4787 59.3998 73.9787 58.5798 74.2587 57.8698V62.3998L75.2686 62.3598H75.2587Z" fill="#003477"/>
<path d="M80.0901 54.1999C79.2201 53.5699 78.5502 53.1199 78.0702 52.8599L77.4102 53.5899C77.9202 53.8999 78.5802 54.3799 79.3902 55.0299L80.0801 54.1999H80.0901Z" fill="#003477"/>
<path d="M79.8795 56.85C79.0695 56.23 78.3894 55.78 77.8394 55.5L77.1895 56.24C77.7695 56.59 78.4395 57.07 79.1995 57.7L79.8795 56.85V56.85Z" fill="#003477"/>
<path d="M81.5089 52.0298H80.4888V58.3598L76.7988 58.9098V59.9398L80.4888 59.3798V62.4098H81.5089V59.2398L82.5089 59.0798V58.0798L81.5089 58.2398V52.0298Z" fill="#003477"/>
<path d="M86.25 57.8398L86.51 59.0298C86.87 58.9398 87.36 58.8198 87.99 58.6498V60.8998C87.99 61.1398 87.87 61.2598 87.63 61.2598L86.67 61.2298L86.92 62.3398H87.79C88.33 62.3398 88.69 62.2498 88.84 62.0798C88.99 61.9098 89.06 61.5698 89.06 61.0398V58.3398C89.69 58.1298 90.12 57.9598 90.35 57.8298V56.7498C90.08 56.8798 89.65 57.0398 89.06 57.2298V55.2798H90.36V54.5698H92.74V56.0498H90.56V57.0598H94.93C94.61 57.9798 94.08 58.7398 93.33 59.3398C92.82 58.8398 92.32 58.1298 91.81 57.2398L90.9 57.5998C91.44 58.5898 92 59.3698 92.56 59.9498C91.5 60.6598 90.44 61.1398 89.39 61.3698L90 62.3698C91.06 62.1498 92.17 61.5898 93.33 60.7098C94.18 61.4898 95.09 62.0398 96.06 62.3498L96.62 61.3098C95.69 61.0498 94.86 60.6198 94.13 60.0198C94.55 59.6498 94.95 59.1498 95.33 58.5098C95.72 57.8698 95.96 57.3498 96.06 56.9598V56.0498H93.83V54.5698H96.43V53.5698H93.83V52.0198H92.74V53.5698H90.37V54.2698H89.07V52.0098H87.99V54.2698H86.36V55.2698H87.99V57.4798C87.47 57.6198 86.89 57.7298 86.25 57.8098V57.8398Z" fill="#003477"/>
<path d="M108.14 58.7896C107.52 57.8096 107.12 56.8696 106.95 55.9696H110.48V54.8096H105.81C105.87 54.2296 105.9 53.3096 105.9 52.0396H104.74C104.74 53.2196 104.69 54.1396 104.6 54.8096H100.61V55.9795H104.41C104.23 57.0195 103.78 58.0196 103.03 58.9896C102.28 59.9596 101.39 60.7395 100.34 61.3396L101.18 62.3896C103.65 60.7696 105.13 58.6295 105.62 55.9795H105.8C106.53 58.9395 107.89 61.0695 109.88 62.3695L110.73 61.3596C109.64 60.6396 108.78 59.7895 108.15 58.7995L108.14 58.7896Z" fill="#003477"/>
<path d="M117.969 53.5198L118.529 54.2598C119.019 54.0498 119.449 53.8198 119.819 53.5898C119.899 53.5898 120.089 53.7998 120.379 54.2198L121.049 53.7198C120.809 53.4598 120.609 53.2698 120.469 53.1298C120.739 52.9498 120.959 52.7598 121.119 52.5398L120.569 52.0398C120.439 52.2198 120.209 52.4198 119.899 52.6398C119.609 52.4198 119.319 52.2198 119.029 52.0298L118.429 52.5498C118.749 52.7498 118.999 52.9198 119.179 53.0698C118.989 53.1998 118.589 53.3498 117.969 53.5198V53.5198Z" fill="#003477"/>
<path d="M120.719 54.21C120.429 54.52 120.179 54.75 119.959 54.89C119.789 54.76 119.639 54.65 119.499 54.55C119.379 54.48 119.249 54.4 119.109 54.31L118.539 54.79C118.889 55.03 119.129 55.21 119.279 55.32C119.019 55.48 118.639 55.61 118.129 55.72L118.599 56.46C119.119 56.28 119.549 56.08 119.889 55.84C119.939 55.84 120.129 56.06 120.469 56.49L121.169 55.95C120.959 55.74 120.759 55.55 120.539 55.36C120.769 55.19 121.019 54.97 121.289 54.7L120.709 54.21H120.719Z" fill="#003477"/>
<path d="M115.679 57.5499H123.639V59.1699H124.629V56.6799H124.049L124.169 52.3299H121.449V53.1999H123.199V53.8099H121.569V54.5599H123.169L123.149 55.1899H121.569V55.9499H123.109V56.6899H116.199L116.179 55.9499H117.829V55.1899H116.149V54.5599H117.829V53.8099H116.109L116.079 53.2499C116.979 53.1899 117.629 53.0899 118.039 52.9499L117.559 52.1299C116.899 52.3099 116.089 52.4199 115.139 52.4499L115.259 56.6799H114.709V59.1699H115.689V57.5499H115.679Z" fill="#003477"/>
<path d="M119.239 61.1298C119.239 61.3498 119.129 61.4598 118.909 61.4598L117.399 61.4198L117.649 62.3098H119.269C119.939 62.3098 120.269 61.9198 120.269 61.1298V60.6798H124.839V59.7898H120.269C121.219 59.4998 122.009 59.1798 122.659 58.8298V58.0298H116.519V58.8398H121.159C120.379 59.0698 119.739 59.2298 119.229 59.3098V59.7798H114.449V60.6698H119.229V61.1198L119.239 61.1298Z" fill="#003477"/>
<path d="M0.529297 67.8497H2.4493V75.0297H3.4593V67.8497H5.3893V66.9297H0.529297V67.8497Z" fill="#003477"/>
<path d="M11.0692 70.1897H7.20923V66.9297H6.19922V75.0297H7.20923V71.1397H11.0692V75.0297H12.0792V66.9297H11.0692V70.1897Z" fill="#003477"/>
<path d="M17.9887 74.0997H14.6487V71.0397H17.8987V70.1197H14.6487V67.8497H17.9887V66.9297H13.6387V75.0297H17.9887V74.0997Z" fill="#003477"/>
<path d="M27.3387 70.1897H23.4787V66.9297H22.4688V75.0297H23.4787V71.1397H27.3387V75.0297H28.3488V66.9297H27.3387V70.1897Z" fill="#003477"/>
<path d="M37.8296 70.9798C37.8296 68.6598 35.9096 66.7598 33.5896 66.7598C31.2696 66.7598 29.3496 68.6598 29.3496 70.9798C29.3496 73.2998 31.2496 75.1998 33.5896 75.1998C35.9296 75.1998 37.8296 73.3898 37.8296 70.9798ZM33.5896 74.2498C31.8396 74.2498 30.3596 72.8198 30.3596 70.9798C30.3596 69.1398 31.6896 67.6998 33.5896 67.6998C35.4896 67.6998 36.8196 69.1898 36.8196 70.9798C36.8196 72.7698 35.3396 74.2498 33.5896 74.2498Z" fill="#003477"/>
<path d="M39.8184 68.9895L45.8983 75.3596V66.9296H44.8884V72.9095L38.8184 66.5396V75.0295H39.8184V68.9895Z" fill="#003477"/>
<path d="M51.1384 67.6798C52.1284 67.6798 53.1084 68.2098 53.6884 68.9998L54.3984 68.3298C53.6084 67.3298 52.3584 66.7598 51.0984 66.7598C48.7684 66.7598 46.8984 68.6698 46.8984 70.9998C46.8984 73.3298 48.7284 75.1998 50.9884 75.1998C53.2484 75.1998 54.8185 73.4898 54.8185 71.2698V70.9498H51.6084V71.8698H53.6984C53.6584 73.1898 52.2984 74.2698 51.0484 74.2698C49.2984 74.2698 47.8984 72.6598 47.8984 70.9598C47.8984 69.1498 49.3184 67.6698 51.1284 67.6698L51.1384 67.6798Z" fill="#003477"/>
<path d="M59.1387 66.9297V75.0297H60.1487V71.6497L60.5587 71.2597L63.6087 75.0297H64.9687L61.2687 70.5697L64.9087 66.9297H63.5887L60.1487 70.4397V66.9297H59.1387Z" fill="#003477"/>
<path d="M65.1289 70.9798C65.1289 73.3898 67.0289 75.1998 69.3689 75.1998C71.7089 75.1998 73.6089 73.3898 73.6089 70.9798C73.6089 68.5698 71.6889 66.7598 69.3689 66.7598C67.0489 66.7598 65.1289 68.6598 65.1289 70.9798ZM69.3689 67.6998C71.2689 67.6998 72.5989 69.1898 72.5989 70.9798C72.5989 72.7698 71.1189 74.2498 69.3689 74.2498C67.6189 74.2498 66.1389 72.8198 66.1389 70.9798C66.1389 69.1398 67.4689 67.6998 69.3689 67.6998V67.6998Z" fill="#003477"/>
<path d="M75.6096 68.9895L81.6896 75.3596V66.9296H80.6796V72.9095L74.5996 66.5396V75.0295H75.6096V68.9895Z" fill="#003477"/>
<path d="M87.3999 71.87H89.4899C89.4499 73.19 88.0899 74.27 86.8399 74.27C85.0899 74.27 83.6899 72.66 83.6899 70.96C83.6899 69.15 85.1099 67.67 86.9199 67.67C87.9099 67.67 88.8899 68.2 89.4599 68.99L90.1699 68.32C89.3699 67.32 88.1299 66.75 86.8699 66.75C84.5399 66.75 82.6699 68.66 82.6699 70.99C82.6699 73.32 84.4999 75.19 86.7599 75.19C89.0199 75.19 90.5899 73.48 90.5899 71.26V70.94H87.3799V71.86L87.3999 71.87Z" fill="#003477"/>
<path d="M100.709 72.0497V66.9297H99.6993V71.7097C99.6993 73.0297 99.2993 74.2597 97.7393 74.2597C96.1793 74.2597 95.7893 73.0397 95.7893 71.7097V66.9297H94.7793V72.0497C94.7793 73.8297 95.8793 75.1997 97.7393 75.1997C99.5993 75.1997 100.699 73.8397 100.699 72.0497H100.709Z" fill="#003477"/>
<path d="M109.209 66.9296H108.199V72.9095L102.119 66.5396V75.0295H103.129V68.9895L109.209 75.3596V66.9296Z" fill="#003477"/>
<path d="M111.729 66.9297H110.719V75.0297H111.729V66.9297Z" fill="#003477"/>
<path d="M119.54 66.9297H118.43L116.03 72.9197L113.61 66.9297H112.51L116.03 75.4597L119.54 66.9297Z" fill="#003477"/>
<path d="M124.68 67.8497V66.9297H120.33V75.0297H124.68V74.0997H121.34V71.0397H124.59V70.1197H121.34V67.8497H124.68Z" fill="#003477"/>
<path d="M127.049 71.5999H127.469L129.849 75.0199H131.069L128.519 71.4999C129.689 71.3599 130.459 70.3899 130.459 69.2299C130.459 68.4599 130.069 67.6999 129.399 67.2999C128.749 66.9299 127.979 66.9199 127.259 66.9199H126.039V75.0199H127.049V71.5999ZM127.049 67.8299H127.319C128.319 67.8299 129.519 68.0099 129.519 69.2799C129.519 70.5499 128.409 70.7599 127.369 70.7599H127.049V67.8299Z" fill="#003477"/>
<path d="M134.129 74.2498C133.259 74.2498 132.549 73.6098 132.559 72.7098L131.539 72.9198C131.709 74.2198 132.729 75.1898 134.039 75.1898C135.489 75.1898 136.629 74.1398 136.629 72.6698C136.629 71.3198 135.769 70.6798 134.619 70.2298L134.039 70.0098C133.529 69.8098 132.909 69.4798 132.909 68.8498C132.909 68.1398 133.619 67.6998 134.269 67.6998C134.879 67.6998 135.269 67.9598 135.569 68.4598L136.369 67.9798C135.929 67.1998 135.189 66.7598 134.289 66.7598C133.059 66.7598 131.909 67.5398 131.909 68.8498C131.909 69.9798 132.749 70.4998 133.669 70.8998L134.229 71.1398C134.929 71.4298 135.629 71.7998 135.629 72.6798C135.629 73.5598 135.009 74.2598 134.139 74.2598L134.129 74.2498Z" fill="#003477"/>
<path d="M138.828 66.9297H137.818V75.0297H138.828V66.9297Z" fill="#003477"/>
<path d="M142.629 75.0297V67.8497H144.549V66.9297H139.699V67.8497H141.619V75.0297H142.629Z" fill="#003477"/>
<path d="M147.259 75.0297H148.269V71.4997L150.909 66.9297H149.749L147.759 70.3897L145.769 66.9297H144.609L147.259 71.4997V75.0297Z" fill="#003477"/>
<path d="M158.599 66.7598C156.279 66.7598 154.359 68.6598 154.359 70.9798C154.359 73.2998 156.259 75.1998 158.599 75.1998C160.939 75.1998 162.839 73.3898 162.839 70.9798C162.839 68.5698 160.919 66.7598 158.599 66.7598ZM158.599 74.2498C156.849 74.2498 155.369 72.8198 155.369 70.9798C155.369 69.1398 156.699 67.6998 158.599 67.6998C160.499 67.6998 161.829 69.1898 161.829 70.9798C161.829 72.7698 160.349 74.2498 158.599 74.2498Z" fill="#003477"/>
<path d="M167.83 67.8497V66.9297H163.91V75.0297H164.92V71.0497H167.73V70.1297H164.92V67.8497H167.83Z" fill="#003477"/>
<path d="M16.1093 83.1199L15.5293 82.8999C15.0193 82.6999 14.3993 82.3699 14.3993 81.7399C14.3993 81.0299 15.1093 80.5899 15.7493 80.5899C16.3893 80.5899 16.7493 80.8499 17.0493 81.3499L17.8493 80.8699C17.4093 80.0899 16.6693 79.6499 15.7693 79.6499C14.5493 79.6499 13.3893 80.4299 13.3893 81.7399C13.3893 82.8699 14.2293 83.3899 15.1493 83.7899L15.7093 84.0299C16.4093 84.3199 17.1093 84.6899 17.1093 85.5699C17.1093 86.4499 16.4893 87.1499 15.6193 87.1499C14.7493 87.1499 14.0393 86.5099 14.0493 85.6199L13.0293 85.8299C13.1993 87.1299 14.2193 88.0999 15.5293 88.0999C16.9793 88.0999 18.1193 87.0499 18.1193 85.5799C18.1193 84.2299 17.2593 83.5899 16.1093 83.1399V83.1199Z" fill="#003477"/>
<path d="M18.8789 83.8996C18.8789 86.2396 20.7889 88.0796 23.0989 88.0796C23.8089 88.0796 24.5989 87.8796 25.2289 87.5096V86.3196C24.6289 86.8596 23.8689 87.1596 23.0689 87.1596C21.2689 87.1596 19.8889 85.6496 19.8889 83.8796C19.8889 82.1096 21.2789 80.5696 23.0889 80.5696C23.8489 80.5696 24.6489 80.8496 25.2289 81.3596V80.1896C24.6189 79.8096 23.8989 79.6396 23.1889 79.6396C20.8089 79.6396 18.8789 81.5096 18.8789 83.8996V83.8996Z" fill="#003477"/>
<path d="M27.5198 79.8198H26.5098V87.9198H27.5198V79.8198Z" fill="#003477"/>
<path d="M29.1387 87.9096H33.4887V86.9896H30.1487V83.9296H33.3887V82.9996H30.1487V80.7396H33.4887V79.8096H29.1387V87.9096Z" fill="#003477"/>
<path d="M40.82 85.7897L34.75 79.4297V87.9097H35.75V81.8797L41.83 88.2397V79.8097H40.82V85.7897Z" fill="#003477"/>
<path d="M42.9297 83.8996C42.9297 86.2396 44.8397 88.0796 47.1497 88.0796C47.8597 88.0796 48.6497 87.8796 49.2797 87.5096V86.3196C48.6797 86.8596 47.9197 87.1596 47.1197 87.1596C45.3197 87.1596 43.9397 85.6496 43.9397 83.8796C43.9397 82.1096 45.3297 80.5696 47.1397 80.5696C47.8997 80.5696 48.6997 80.8496 49.2797 81.3596V80.1896C48.6697 79.8096 47.9497 79.6396 47.2397 79.6396C44.8597 79.6396 42.9297 81.5096 42.9297 83.8996V83.8996Z" fill="#003477"/>
<path d="M50.5898 87.9096H54.9298V86.9896H51.5999V83.9296H54.8398V82.9996H51.5999V80.7396H54.9298V79.8096H50.5898V87.9096Z" fill="#003477"/>
<path d="M58.6389 87.9097H59.7289L60.6489 85.8797H64.3689L65.2889 87.9097H66.3689L62.4989 79.4697L58.6289 87.9097H58.6389ZM61.0689 84.9497L62.5089 81.6797L63.9489 84.9497H61.0689Z" fill="#003477"/>
<path d="M73.1386 85.7897L67.0586 79.4297V87.9097H68.0686V81.8797L74.1486 88.2397V79.8097H73.1386V85.7897Z" fill="#003477"/>
<path d="M77.2794 79.8096H75.6094V87.9096H77.2494C79.7994 87.9096 81.8194 86.5796 81.8194 83.8196C81.8194 81.0596 79.7594 79.8096 77.2794 79.8096V79.8096ZM76.9694 86.9796H76.6194V80.7296H76.9694C79.0294 80.7296 80.8194 81.4896 80.8194 83.8496C80.8194 86.2096 79.0394 86.9696 76.9694 86.9696V86.9796Z" fill="#003477"/>
<path d="M85.3984 80.7396H87.3185V87.9096H88.3284V80.7396H90.2484V79.8096H85.3984V80.7396Z" fill="#003477"/>
<path d="M91.1602 87.9096H95.5102V86.9896H92.1702V83.9296H95.4102V82.9996H92.1702V80.7396H95.5102V79.8096H91.1602V87.9096Z" fill="#003477"/>
<path d="M96.4102 83.8996C96.4102 86.2396 98.3202 88.0796 100.63 88.0796C101.34 88.0796 102.13 87.8796 102.76 87.5096V86.3196C102.16 86.8596 101.4 87.1596 100.6 87.1596C98.8002 87.1596 97.4202 85.6496 97.4202 83.8796C97.4202 82.1096 98.8101 80.5696 100.62 80.5696C101.38 80.5696 102.18 80.8496 102.76 81.3596V80.1896C102.15 79.8096 101.43 79.6396 100.72 79.6396C98.3402 79.6396 96.4202 81.5096 96.4202 83.8996H96.4102Z" fill="#003477"/>
<path d="M108.839 83.0796H104.988V79.8096H103.979V87.9096H104.988V84.0196H108.839V87.9096H109.849V79.8096H108.839V83.0796Z" fill="#003477"/>
<path d="M117.398 85.7897L111.318 79.4297V87.9097H112.328V81.8797L118.408 88.2397V79.8097H117.398V85.7897Z" fill="#003477"/>
<path d="M123.629 79.6396C121.309 79.6396 119.389 81.5396 119.389 83.8596C119.389 86.1796 121.289 88.0796 123.629 88.0796C125.969 88.0796 127.869 86.2696 127.869 83.8596C127.869 81.4496 125.949 79.6396 123.629 79.6396ZM123.629 87.1296C121.879 87.1296 120.399 85.6996 120.399 83.8496C120.399 81.9996 121.729 80.5796 123.629 80.5796C125.529 80.5796 126.859 82.0696 126.859 83.8496C126.859 85.6296 125.379 87.1296 123.629 87.1296Z" fill="#003477"/>
<path d="M129.969 79.8198H128.959V87.9098H132.429V86.9898H129.969V79.8198Z" fill="#003477"/>
<path d="M136.869 79.6396C134.549 79.6396 132.629 81.5396 132.629 83.8596C132.629 86.1796 134.529 88.0796 136.869 88.0796C139.209 88.0796 141.109 86.2696 141.109 83.8596C141.109 81.4496 139.189 79.6396 136.869 79.6396ZM136.869 87.1296C135.119 87.1296 133.639 85.6996 133.639 83.8496C133.639 81.9996 134.969 80.5796 136.869 80.5796C138.769 80.5796 140.099 82.0696 140.099 83.8496C140.099 85.6296 138.619 87.1296 136.869 87.1296Z" fill="#003477"/>
<path d="M146.369 84.7599H148.459C148.419 86.0799 147.059 87.1599 145.809 87.1599C144.059 87.1599 142.659 85.5499 142.659 83.8499C142.659 82.0399 144.079 80.5599 145.889 80.5599C146.879 80.5599 147.859 81.0899 148.429 81.8799L149.139 81.1999C148.349 80.1999 147.099 79.6299 145.839 79.6299C143.509 79.6299 141.639 81.5399 141.639 83.8699C141.639 86.1999 143.459 88.0699 145.729 88.0699C147.999 88.0699 149.559 86.3599 149.559 84.1399V83.8199H146.349V84.7399L146.369 84.7599Z" fill="#003477"/>
<path d="M152.99 83.2696L151 79.8096H149.84L152.49 84.3896V87.9096H153.5V84.3896L156.14 79.8096H154.98L152.99 83.2696Z" fill="#003477"/>
</svg>
