<svg width="98" height="121" viewBox="0 0 98 121" fill="none" xmlns="http://www.w3.org/2000/svg">
<path d="M57.8904 14.0499C58.2104 13.6399 58.3304 12.9199 58.3304 12.9199H38.9004C38.9004 12.9199 39.1404 13.7199 39.3404 14.0499H57.9004H57.8904Z" fill="#AA8420"/>
<path d="M56.7594 15.7C57.1194 15.38 57.4894 14.73 57.4894 14.73H39.6895C39.6895 14.73 39.8894 15.22 40.3294 15.7H56.7495H56.7594Z" fill="#AA8420"/>
<path d="M55.3594 17.19C55.7994 16.95 56.1595 16.46 56.1595 16.46H40.9395C40.9395 16.46 41.2994 16.86 41.6694 17.19H55.3594Z" fill="#AA8420"/>
<path d="M53.5789 18.5998C54.0189 18.4398 54.4989 18.0298 54.4989 18.0298H42.6289C42.6289 18.0298 42.6289 18.1198 43.4689 18.5998H53.5689H53.5789Z" fill="#AA8420"/>
<path d="M44.8496 19.48C44.8496 19.48 46.0996 20.22 48.5496 20.22C50.9996 20.22 52.5796 19.48 52.5796 19.48H44.8496V19.48Z" fill="#AA8420"/>
<path d="M44.6495 21.1401C44.6495 21.1401 46.1395 21.2201 47.0195 21.9001C47.8695 22.6301 48.5195 23.8301 48.5195 23.8301C48.5195 23.8301 49.0395 22.6701 49.8895 22.0601C50.7395 21.4101 52.0995 21.1301 52.0995 21.1301H67.4395L70.4595 25.6001H56.6895C56.6895 25.6001 55.7295 25.6401 54.2795 26.4901C53.5095 26.9201 52.9495 27.6901 52.9495 27.6901C52.9495 27.6901 52.8395 28.0501 52.6695 28.2501C52.5095 28.4501 52.3895 28.6201 52.1895 28.6901C51.9795 28.7801 52.0295 28.7301 52.0295 28.7301H44.8595C44.8595 28.7301 44.5695 28.6101 44.4195 28.3701C44.2595 28.1301 44.3695 28.2101 44.2195 28.0101C44.0995 27.8101 43.8195 27.2801 42.7295 26.5601C41.6095 25.8301 40.5195 25.7501 40.5195 25.7501H26.5195L29.5695 21.1201H44.6695L44.6495 21.1401Z" fill="#003477"/>
<path d="M33.8086 27.4502V50.3102C33.8086 50.3102 33.8886 52.3302 35.5786 55.0602C37.2686 57.8002 39.7186 59.0502 39.7186 59.0502L41.6586 56.0302C41.6586 56.0302 39.9686 55.0202 38.6786 53.0902C37.4386 51.1602 37.4386 49.5102 37.4386 49.5102V27.4502H33.8086V27.4502Z" fill="#003477"/>
<path d="M59.7389 27.3799V49.4399C59.7389 49.4399 59.4489 51.6599 58.4089 53.2299C57.3589 54.8399 55.6289 56.1199 55.6289 56.1199L57.4889 59.0999C57.4889 59.0999 60.2989 57.0499 61.6689 54.8799C63.0389 52.6999 63.3689 49.4399 63.3689 49.4399V27.3799H59.7389V27.3799Z" fill="#003477"/>
<path d="M28.0586 27.4502V50.4002C28.0586 50.4002 28.2986 53.9502 30.5086 57.6502C32.7286 61.3502 36.7486 63.9302 36.7486 63.9302L38.6486 60.9102C38.6486 60.9102 36.0786 59.5402 34.0186 56.4002C31.9186 53.2202 31.8086 50.3202 31.8086 50.3202V27.4502H28.0686H28.0586Z" fill="#003477"/>
<path d="M44.6501 29.8701V54.1001C44.6501 54.1001 44.5602 54.1801 44.5302 54.5401C44.4902 54.9101 44.2502 55.1501 44.2502 55.1501L36.1602 68.5501H60.9601L52.8601 54.8601L52.6201 54.2501L52.5401 53.6101V29.9101H49.5201V54.5101C49.5201 54.5101 49.5201 54.8701 49.6401 55.1501C49.7201 55.4301 49.8801 55.8701 49.8801 55.8701L54.8701 64.0901H42.2301L47.1401 55.9201C47.1401 55.9201 47.3001 55.6401 47.4201 55.2401C47.5001 54.8801 47.5401 54.5201 47.5401 54.5201V29.8701H44.6501V29.8701Z" fill="#AA8420"/>
<path d="M65.3401 27.3799V49.9199C65.3401 49.9199 65.3001 52.8199 63.1701 56.1599C61.0401 59.4999 58.5801 60.9099 58.5801 60.9099L60.4001 63.9699C60.4001 63.9699 64.1001 61.6299 66.4401 57.9299C68.7301 54.2299 69.0201 49.9199 69.0201 49.9199V27.3799H65.3501H65.3401Z" fill="#003477"/>
<path d="M38.7597 12.28C38.7597 12.28 37.5197 5.48 42.5097 2.09C42.5097 2.09 44.7597 0 48.4297 0C52.3397 0 54.5897 2.05 54.5897 2.05C60.0197 6.03 58.4097 12.27 58.4097 12.27H38.7597V12.28Z" fill="#AA8420"/>
<path d="M19.69 84.4V82.65H10.81V80.88C13.64 80.64 16.01 80.33 17.92 79.93L17.01 78.21C14.13 78.86 9.89999 79.18 4.29999 79.18C3.11999 79.18 2.13999 79.17 1.32999 79.14L2.01999 81.07C3.38999 81.07 5.65998 81.03 8.81998 80.94V82.64H0.169983V84.39H6.66998C4.77998 85.97 2.55 87.07 0 87.69L1.00998 89.56C1.84998 89.28 2.43999 89.06 2.79999 88.91V97.93H4.75V96.96H15.1V97.93H17.06V88.8C17.34 88.95 17.65 89.08 17.99 89.18C18.33 89.28 18.64 89.39 18.91 89.52L19.84 87.6C16.81 87 14.5 85.93 12.9 84.38H19.67L19.69 84.4ZM4.03998 88.33C6.01998 87.49 7.60999 86.2 8.82999 84.46V88.33H4.03998ZM15.12 95.23H4.76999V93.38H15.12V95.23ZM15.12 91.7H4.76999V90.1H15.12V91.7ZM16.01 88.34H10.82V84.45C12.14 86.2 13.87 87.5 16.01 88.34Z" fill="#003477"/>
<path d="M30.35 91.4299L28.52 90.3599C28.07 92.3499 27.23 94.2199 26 95.9699L27.68 97.6999C28.88 95.7899 29.78 93.6999 30.35 91.4299V91.4299Z" fill="#003477"/>
<path d="M30.4794 86.2197C29.3994 85.3997 28.3594 84.7097 27.3694 84.1797L26.1094 85.7597C26.9294 86.2997 27.9194 87.0597 29.0494 88.0297L30.4794 86.2197V86.2197Z" fill="#003477"/>
<path d="M43.0297 92.4901C42.9297 93.6001 42.8297 94.3701 42.7097 94.8201C42.5997 95.2501 42.2497 95.4701 41.6597 95.4701H35.4197C34.9297 95.4701 34.6897 95.2301 34.6897 94.7401V93.3901H41.4597V89.0801C42.2997 89.8401 43.3697 90.6001 44.6597 91.3701L45.5697 89.5001C43.2997 88.3801 41.8797 87.2501 41.3197 86.1201H45.3397V84.3501H41.5497V82.1801H45.0197V80.5201H41.5497V78.3301H39.6597V80.5201H35.8297V78.3301H33.8997V80.5201H31.0997V80.8001C30.2697 80.1701 29.2597 79.4701 28.0697 78.7201L26.6797 80.2801C27.6197 80.8701 28.6697 81.6901 29.8197 82.7401L31.0997 81.1401V82.2701H33.8997V84.3701H30.6797V86.1401H34.0397C33.4197 87.4601 31.9497 88.6401 29.6197 89.6901L30.8197 91.4601C31.7597 90.8701 32.3997 90.4301 32.7597 90.1401V94.8501C32.7597 95.8001 32.9297 96.4501 33.2897 96.8001C33.6497 97.1401 34.2797 97.3001 35.1797 97.3001H41.9897C43.0697 97.3001 43.7897 97.1101 44.1597 96.7301C44.5397 96.3401 44.8397 95.1701 45.0697 93.2201L43.0497 92.4801L43.0297 92.4901ZM35.8097 82.2901H39.6397V84.3501H35.8097V82.2901ZM36.2797 86.1201H39.1197C39.5097 86.8601 39.9397 87.4901 40.3997 88.0101H35.0397C35.5597 87.4601 35.9697 86.8301 36.2797 86.1201V86.1201ZM34.6797 89.6701H39.5097V91.7301H34.6797V89.6701Z" fill="#003477"/>
<path d="M66.9108 82.3C65.2608 81.09 63.9808 80.24 63.0608 79.73L61.8008 81.12C62.7708 81.71 64.0308 82.63 65.5808 83.87L66.9008 82.29L66.9108 82.3Z" fill="#003477"/>
<path d="M66.5206 87.3698C64.9806 86.1898 63.6806 85.3298 62.6306 84.7798L61.3906 86.1898C62.5006 86.8498 63.7706 87.7798 65.2206 88.9898L66.5206 87.3698V87.3698Z" fill="#003477"/>
<path d="M67.6906 97.9599H69.6406V91.9299L71.5406 91.6099V89.6999L69.6406 90.0099V78.1499H67.6906V90.2399L60.6406 91.2999V93.2499L67.6906 92.1799V97.9599Z" fill="#003477"/>
<path d="M57.7007 85.83V85.64H60.9007V83.83H57.7007V80.87C58.8107 80.65 59.8607 80.36 60.8707 80.01L60.1607 78.29C57.9007 79.14 55.2007 79.65 52.0607 79.8L52.5007 81.57C53.9307 81.47 55.0107 81.35 55.7607 81.21V83.84H51.8507V85.65H55.7007C54.8107 87.98 53.4907 90.14 51.7207 92.15L52.9007 94.04C54.2707 92.25 55.2307 90.68 55.7607 89.33V97.97L57.6907 97.89V88.13C58.0707 88.64 58.4407 89.1 58.8107 89.54C59.2307 90.02 59.6507 90.55 60.0707 91.14L61.2507 89.33C60.4507 88.46 59.2607 87.3 57.6907 85.84L57.7007 85.83Z" fill="#003477"/>
<path d="M87.9703 85.6597C89.3703 91.3097 91.9703 95.3697 95.7503 97.8597L97.3703 95.9297C95.2803 94.5597 93.6403 92.9297 92.4503 91.0497C91.2603 89.1697 90.5003 87.3797 90.1803 85.6697L96.9103 85.6897V83.4597H87.9903C88.1003 82.3597 88.1603 80.5897 88.1603 78.1797H85.9503C85.9503 80.4197 85.8603 82.1797 85.6803 83.4597H78.0703V85.6897H85.3303C84.9903 87.6597 84.1203 89.5797 82.7003 91.4297C81.2703 93.2797 79.5603 94.7797 77.5703 95.9097L79.1703 97.9097C83.8803 94.8097 86.7103 90.7297 87.6403 85.6697H87.9803L87.9703 85.6597Z" fill="#003477"/>
<path d="M13.2398 109.65H3.93979V102.49H1.50977V120.24H3.93979V111.72H13.2398V120.24H15.6798V102.49H13.2398V109.65Z" fill="#003477"/>
<path d="M38.4098 102.49H35.2298L26.9398 110.19V102.49H24.5098V120.24H26.9398V112.83L27.9298 111.98L35.2798 120.24H38.5698L29.6398 110.47L38.4098 102.49Z" fill="#003477"/>
<path d="M56.8795 112.97C56.8795 115.87 55.9195 118.55 52.1695 118.55C48.4195 118.55 47.4495 115.87 47.4495 112.97V102.49H45.0195V113.72C45.0195 117.63 47.6895 120.62 52.1695 120.62C56.6495 120.62 59.3195 117.63 59.3195 113.72V102.49H56.8895V112.97H56.8795Z" fill="#003477"/>
<path d="M74.3794 109.74L72.9794 109.24C71.7594 108.82 70.2594 108.09 70.2594 106.7C70.2594 105.15 71.9694 104.18 73.5194 104.18C74.9894 104.18 75.9294 104.75 76.6494 105.85L78.5894 104.79C77.5294 103.07 75.7394 102.11 73.5694 102.11C70.6194 102.11 67.8194 103.83 67.8194 106.7C67.8194 109.17 69.8394 110.33 72.0694 111.2L73.4194 111.72C75.0994 112.36 76.7794 113.18 76.7794 115.09C76.7794 117 75.2794 118.55 73.1794 118.55C71.0794 118.55 69.3794 117.14 69.3994 115.18L66.9395 115.65C67.3595 118.5 69.8194 120.62 72.9794 120.62C76.4694 120.62 79.2195 118.31 79.2195 115.09C79.2195 112.12 77.1494 110.73 74.3794 109.75V109.74Z" fill="#003477"/>
<path d="M85.3906 104.52H90.0306V120.24H92.4606V104.52H97.1006V102.49H85.3906V104.52Z" fill="#003477"/>
</svg>
