<svg width="119" height="101" viewBox="0 0 119 101" fill="none" xmlns="http://www.w3.org/2000/svg">
<path d="M67.7095 46.6399L62.2495 37.5499C62.2495 37.5499 62.0795 37.3399 62.0795 36.9999V20.1499H60.0195V37.5399C60.1895 37.7099 63.6195 43.5699 63.6195 43.5699H55.1095C55.1095 43.5699 58.5395 37.7199 58.7095 37.5399V20.1499H56.6495V36.9999C56.6495 37.3399 56.4795 37.5499 56.4795 37.5499L51.0195 46.6399H67.6995H67.7095Z" fill="#AA8420"/>
<path d="M66.0197 8.35C66.0197 8.35 67.0498 4.1 63.3798 1.32C63.3798 1.32 61.9098 0 59.1298 0C56.6398 0 55.1697 1.32 55.1697 1.32C51.7997 3.66 52.6798 8.35 52.6798 8.35H66.0098H66.0197Z" fill="#AA8420"/>
<path d="M53.0996 9.52003H65.6396C65.7396 9.28003 65.8196 9.04004 65.8896 8.79004H52.8496C52.9196 9.04004 53.0096 9.29003 53.0996 9.52003Z" fill="#AA8420"/>
<path d="M65.4408 9.95996H53.3008C53.4208 10.21 53.5608 10.46 53.7208 10.69H65.0208C65.1708 10.45 65.3108 10.21 65.4408 9.95996Z" fill="#AA8420"/>
<path d="M54.5393 11.7199H64.1993C64.3793 11.5299 64.5493 11.3399 64.7093 11.1299H54.0293C54.1893 11.3399 54.3593 11.5299 54.5393 11.7199" fill="#AA8420"/>
<path d="M55.58 12.6002H63.15C63.35 12.4602 63.54 12.3202 63.72 12.1602H55C55.18 12.3202 55.38 12.4602 55.57 12.6002" fill="#AA8420"/>
<path d="M56.6309 13.1899C57.4709 13.5699 58.3909 13.7699 59.3709 13.7699C60.3509 13.7699 61.2709 13.5599 62.1109 13.1899H56.6309V13.1899Z" fill="#AA8420"/>
<path d="M72.3701 14.1001H62.1101C62.1101 14.1001 61.1601 14.1001 60.4001 14.6201C59.8101 15.0201 59.4001 15.9501 59.3801 16.0001C59.3801 16.0001 58.9401 15.0201 58.3501 14.6201C57.5901 14.1001 56.6401 14.1001 56.6401 14.1001H46.3801L44.3301 17.3801H53.7301C53.7301 17.3801 54.0101 17.3801 54.1801 17.4101C54.4601 17.4601 54.9401 17.6001 55.4501 17.9701C56.1401 18.4701 56.3401 18.7301 56.5101 18.9001C56.5901 18.9901 56.8201 19.2801 56.8201 19.2801H61.9501C61.9501 19.2801 62.1701 18.9801 62.2601 18.9001C62.4301 18.7301 62.6301 18.4701 63.3201 17.9701C63.8301 17.6001 64.3101 17.4601 64.5901 17.4101C64.7601 17.3801 65.0401 17.3801 65.0401 17.3801H74.4401L72.3901 14.1001H72.3701Z" fill="#003477"/>
<path d="M45.3594 18.3799V33.9799C45.3594 34.1499 45.3694 34.2999 45.3894 34.4399C45.5594 36.0899 46.0694 37.3099 47.0294 38.9099C48.5394 41.4199 51.2694 43.1799 51.2694 43.1799L52.5594 41.1299C52.5594 41.1299 50.8094 40.1999 49.4094 38.0599C49.1294 37.6299 48.8494 37.2299 48.6594 36.8399C48.4794 36.4699 48.3394 36.1599 48.2294 35.8299C48.1494 35.5899 48.0894 35.3799 48.0394 35.1799C47.9694 34.8899 47.9394 34.6799 47.9194 34.4099C47.9194 34.3099 47.8994 33.9299 47.8994 33.9299V18.3899H45.3594V18.3799Z" fill="#003477"/>
<path d="M49.2695 18.3799V33.9199C49.2695 33.9199 49.2695 33.9799 49.2695 34.0499C49.2695 34.1299 49.2795 34.2399 49.2995 34.3299C49.2995 34.3799 49.3195 34.4499 49.3295 34.4899C49.3795 34.7299 49.4295 34.9499 49.5395 35.2699C49.7195 35.7999 50.0295 36.4299 50.4795 37.1499C51.6295 39.0099 53.2995 39.8599 53.2995 39.8599L54.5895 37.8599C54.5895 37.8599 54.1595 37.6199 53.6495 37.1299C53.3095 36.7999 52.8995 36.3699 52.5495 35.8499C52.2095 35.3199 51.9995 34.7899 51.8795 34.3799C51.7795 34.0499 51.7595 33.7799 51.7595 33.5999C51.7595 33.4599 51.7595 33.3799 51.7595 33.3799V18.3799H49.2895H49.2695Z" fill="#003477"/>
<path d="M73.3895 18.3799V33.9799C73.3895 34.1499 73.3795 34.2999 73.3595 34.4399C73.1895 36.0899 72.6795 37.3099 71.7195 38.9099C70.2095 41.4199 67.4795 43.1799 67.4795 43.1799L66.1895 41.1299C66.1895 41.1299 67.9394 40.1999 69.3394 38.0599C69.6194 37.6299 69.8994 37.2299 70.0894 36.8399C70.2694 36.4699 70.4094 36.1599 70.5194 35.8299C70.5994 35.5899 70.6594 35.3799 70.7094 35.1799C70.7794 34.8899 70.8095 34.6799 70.8295 34.4099C70.8295 34.3099 70.8494 33.9299 70.8494 33.9299V18.3899H73.3895V18.3799Z" fill="#003477"/>
<path d="M69.4802 18.3799V33.9199C69.4802 33.9199 69.4802 33.9799 69.4802 34.0499C69.4802 34.1299 69.4701 34.2399 69.4501 34.3299C69.4501 34.3799 69.4302 34.4499 69.4202 34.4899C69.3702 34.7299 69.3202 34.9499 69.2102 35.2699C69.0302 35.7999 68.7201 36.4299 68.2701 37.1499C67.1201 39.0099 65.4501 39.8599 65.4501 39.8599L64.1602 37.8599C64.1602 37.8599 64.5902 37.6199 65.1002 37.1299C65.4402 36.7999 65.8501 36.3699 66.2001 35.8499C66.5401 35.3199 66.7502 34.7899 66.8702 34.3799C66.9702 34.0499 66.9902 33.7799 66.9902 33.5999C66.9902 33.4599 66.9902 33.3799 66.9902 33.3799V18.3799H69.4602H69.4802Z" fill="#003477"/>
<path d="M16.1502 74.9699H17.1602V67.8199H19.0702V66.8999H14.2402V67.8199H16.1502V74.9699Z" fill="#003477"/>
<path d="M20.8906 71.0899H24.7406V74.9699H25.7406V66.8999H24.7406V70.1499H20.8906V66.8999H19.8906V74.9699H20.8906V71.0899Z" fill="#003477"/>
<path d="M31.6408 67.8199V66.8999H27.3008V74.9699H31.6408V74.0499H28.3108V70.9999H31.5408V70.0799H28.3108V67.8199H31.6408Z" fill="#003477"/>
<path d="M41.9496 74.9699V66.8999H40.9496V70.1499H37.1096V66.8999H36.0996V74.9699H37.1096V71.0899H40.9496V74.9699H41.9496Z" fill="#003477"/>
<path d="M47.1792 75.14C49.5092 75.14 51.4092 73.33 51.4092 70.94C51.4092 68.55 49.4992 66.73 47.1792 66.73C44.8592 66.73 42.9492 68.62 42.9492 70.94C42.9492 73.26 44.8392 75.14 47.1792 75.14V75.14ZM47.1792 67.67C49.0692 67.67 50.3992 69.16 50.3992 70.94C50.3992 72.72 48.9192 74.2 47.1792 74.2C45.4392 74.2 43.9592 72.78 43.9592 70.94C43.9592 69.1 45.2892 67.67 47.1792 67.67Z" fill="#003477"/>
<path d="M52.3906 74.9702H53.3906V68.9503L59.4506 75.3002V66.9003H58.4406V72.8602L52.3906 66.5103V74.9702Z" fill="#003477"/>
<path d="M64.5195 75.1402C66.7795 75.1402 68.3395 73.4402 68.3395 71.2202V70.9002H65.1395V71.8202H67.2295C67.1895 73.1402 65.8395 74.2202 64.5895 74.2202C62.8495 74.2202 61.4495 72.6202 61.4495 70.9202C61.4495 69.1102 62.8595 67.6502 64.6695 67.6502C65.6495 67.6502 66.6295 68.1702 67.1995 68.9702L67.9095 68.3002C67.1195 67.3002 65.8795 66.7402 64.6195 66.7402C62.2995 66.7402 60.4395 68.6502 60.4395 70.9702C60.4395 73.2902 62.2595 75.1502 64.5195 75.1502V75.1402Z" fill="#003477"/>
<path d="M73.6504 71.5999L74.0604 71.2099L77.1004 74.9699H78.4504L74.7604 70.5299L78.3904 66.8999H77.0704L73.6504 70.3999V66.8999H72.6504V74.9699H73.6504V71.5999Z" fill="#003477"/>
<path d="M78.6094 70.9302C78.6094 73.3302 80.5094 75.1302 82.8394 75.1302C85.1694 75.1302 87.0694 73.3202 87.0694 70.9302C87.0694 68.5402 85.1594 66.7202 82.8394 66.7202C80.5194 66.7202 78.6094 68.6102 78.6094 70.9302ZM86.0594 70.9302C86.0594 72.7702 84.5794 74.1902 82.8394 74.1902C81.0994 74.1902 79.6194 72.7702 79.6194 70.9302C79.6194 69.0902 80.9494 67.6602 82.8394 67.6602C84.7294 67.6602 86.0594 69.1502 86.0594 70.9302Z" fill="#003477"/>
<path d="M89.0491 68.9503L95.1091 75.3002V66.9003H94.0991V72.8602L88.0391 66.5103V74.9702H89.0491V68.9503Z" fill="#003477"/>
<path d="M96.0996 70.95C96.0996 73.19 97.9196 75.13 100.18 75.13C102.44 75.13 104 73.43 104 71.21V70.89H100.8V71.81H102.89C102.85 73.13 101.5 74.21 100.25 74.21C98.5096 74.21 97.1096 72.61 97.1096 70.91C97.1096 69.1 98.5196 67.64 100.33 67.64C101.31 67.64 102.29 68.16 102.87 68.96L103.58 68.29C102.79 67.29 101.55 66.73 100.3 66.73C97.9796 66.73 96.1196 68.64 96.1196 70.96L96.0996 70.95Z" fill="#003477"/>
<path d="M4.9 84.5002C4.9 85.8202 4.5 87.0402 2.95 87.0402C1.4 87.0402 1 85.8202 1 84.5002V79.7402H0V84.8502C0 86.6302 1.1 87.9802 2.95 87.9802C4.8 87.9802 5.9 86.6202 5.9 84.8502V79.7402H4.89V84.5002H4.9Z" fill="#003477"/>
<path d="M14.3705 79.7401H13.3705V85.7001L7.31055 79.3501V87.8101H8.31055V81.7901L14.3705 88.1401V79.7401Z" fill="#003477"/>
<path d="M16.8909 79.7402H15.8809V87.8102H16.8909V79.7402Z" fill="#003477"/>
<path d="M18.7602 79.7402H17.6602L21.1702 88.2302L24.6702 79.7402H23.5602L21.1702 85.7102L18.7602 79.7402Z" fill="#003477"/>
<path d="M29.7909 80.6602V79.7402H25.4609V87.8002H29.7909V86.8802H26.4609V83.8302H29.7009V82.9102H26.4609V80.6602H29.7909Z" fill="#003477"/>
<path d="M35.5506 82.0402C35.5506 81.2702 35.1606 80.5102 34.4906 80.1102C33.8506 79.7502 33.0806 79.7402 32.3606 79.7402H31.1406V87.8102H32.1506V84.4002H32.5706L34.9506 87.8102H36.1706L33.6206 84.3002C34.7906 84.1602 35.5606 83.2002 35.5606 82.0402H35.5506ZM32.4706 83.5602H32.1506V80.6402H32.4206C33.4206 80.6402 34.6106 80.8202 34.6106 82.0902C34.6106 83.3602 33.5006 83.5702 32.4706 83.5702V83.5602Z" fill="#003477"/>
<path d="M39.2109 87.0298C38.3409 87.0298 37.6409 86.3898 37.6509 85.4998L36.6309 85.7098C36.8009 86.9998 37.8209 87.9698 39.1209 87.9698C40.5709 87.9698 41.7009 86.9198 41.7009 85.4498C41.7009 84.0998 40.8409 83.4698 39.7009 83.0198L39.1209 82.7998C38.6209 82.6098 38.0009 82.2798 38.0009 81.6398C38.0009 80.9298 38.7109 80.4898 39.3509 80.4898C39.9909 80.4898 40.3409 80.7498 40.6509 81.2498L41.4509 80.7698C41.0109 79.9898 40.2709 79.5498 39.3709 79.5498C38.1509 79.5498 36.9909 80.3298 36.9909 81.6398C36.9909 82.7598 37.8309 83.2898 38.7509 83.6798L39.3109 83.9098C40.0109 84.1998 40.7009 84.5698 40.7009 85.4398C40.7009 86.3098 40.0809 87.0098 39.2109 87.0098V87.0298Z" fill="#003477"/>
<path d="M43.8909 79.7402H42.8809V87.8102H43.8909V79.7402Z" fill="#003477"/>
<path d="M49.59 79.7402H44.75V80.6602H46.67V87.8002H47.67V80.6602H49.59V79.7402Z" fill="#003477"/>
<path d="M53.2904 87.8002V84.2902L55.9204 79.7402H54.7704L52.7904 83.1802L50.8104 79.7402H49.6504L52.2904 84.2902V87.8002H53.2904Z" fill="#003477"/>
<path d="M63.5894 79.5601C61.2794 79.5601 59.3594 81.4501 59.3594 83.7701C59.3594 86.09 61.2494 87.9801 63.5894 87.9801C65.9294 87.9801 67.8194 86.1701 67.8194 83.7701C67.8194 81.37 65.9094 79.5601 63.5894 79.5601ZM63.5894 87.03C61.8494 87.03 60.3694 85.6101 60.3694 83.7701C60.3694 81.9301 61.6994 80.5101 63.5894 80.5101C65.4794 80.5101 66.8094 82.0001 66.8094 83.7701C66.8094 85.5401 65.3294 87.03 63.5894 87.03Z" fill="#003477"/>
<path d="M72.7909 80.6602V79.7402H68.8809V87.8002H69.8909V83.8402H72.6909V82.9202H69.8909V80.6602H72.7909Z" fill="#003477"/>
<path d="M79.4198 87.0298C78.5498 87.0298 77.8498 86.3898 77.8598 85.4998L76.8398 85.7098C77.0098 86.9998 78.0298 87.9698 79.3298 87.9698C80.7798 87.9698 81.9099 86.9198 81.9099 85.4498C81.9099 84.0998 81.0499 83.4698 79.9099 83.0198L79.3298 82.7998C78.8298 82.6098 78.2098 82.2798 78.2098 81.6398C78.2098 80.9298 78.9198 80.4898 79.5598 80.4898C80.1698 80.4898 80.5498 80.7498 80.8498 81.2498L81.6498 80.7698C81.2098 79.9898 80.4698 79.5498 79.5698 79.5498C78.3498 79.5498 77.1898 80.3298 77.1898 81.6398C77.1898 82.7598 78.0198 83.2898 78.9498 83.6798L79.5098 83.9098C80.2098 84.1998 80.8998 84.5698 80.8998 85.4398C80.8998 86.3098 80.2799 87.0098 79.4099 87.0098L79.4198 87.0298Z" fill="#003477"/>
<path d="M86.8697 80.4801C87.6297 80.4801 88.4197 80.7601 88.9997 81.2701V80.1001C88.3897 79.7301 87.6697 79.5601 86.9697 79.5601C84.5897 79.5601 82.6797 81.4201 82.6797 83.8101C82.6797 86.2001 84.5797 87.97 86.8897 87.97C87.5997 87.97 88.3897 87.7701 89.0097 87.4001V86.2101C88.4097 86.7401 87.6497 87.05 86.8597 87.05C85.0597 87.05 83.6897 85.5401 83.6897 83.7701C83.6897 82.0001 85.0697 80.47 86.8797 80.47L86.8697 80.4801Z" fill="#003477"/>
<path d="M91.2893 79.7402H90.2793V87.8102H91.2893V79.7402Z" fill="#003477"/>
<path d="M97.2304 86.8802H93.9004V83.8302H97.1404V82.9102H93.9004V80.6602H97.2304V79.7402H92.9004V87.8002H97.2304V86.8802Z" fill="#003477"/>
<path d="M98.4805 87.8101H99.4905V81.7901L105.55 88.1401V79.7401H104.54V85.7001L98.4805 79.3501V87.8101Z" fill="#003477"/>
<path d="M106.641 83.8098C106.641 86.1398 108.551 87.9698 110.851 87.9698C111.561 87.9698 112.351 87.7698 112.971 87.3998V86.2098C112.371 86.7398 111.611 87.0498 110.821 87.0498C109.021 87.0498 107.651 85.5398 107.651 83.7698C107.651 81.9998 109.031 80.4698 110.841 80.4698C111.601 80.4698 112.391 80.7498 112.971 81.2598V80.0898C112.361 79.7198 111.641 79.5498 110.941 79.5498C108.561 79.5498 106.651 81.4098 106.651 83.7998L106.641 83.8098Z" fill="#003477"/>
<path d="M118.6 80.6602V79.7402H114.27V87.8002H118.6V86.8802H115.27V83.8302H118.5V82.9102H115.27V80.6602H118.6Z" fill="#003477"/>
<path d="M10.6406 100.64H11.7206L12.6406 98.62H16.3406L17.2606 100.64H18.3406L14.4906 92.23L10.6406 100.64V100.64ZM13.0606 97.7L14.4906 94.44L15.9206 97.7H13.0506H13.0606Z" fill="#003477"/>
<path d="M25.0793 98.5299L19.0293 92.1899V100.64H20.0293V94.6299L26.0893 100.97V92.5699H25.0793V98.5299Z" fill="#003477"/>
<path d="M29.2091 92.5698H27.5391V100.64H29.1791C31.7291 100.64 33.7391 99.3098 33.7391 96.5598C33.7391 93.8098 31.6891 92.5698 29.2091 92.5698V92.5698ZM28.8991 99.7198H28.5491V93.4898H28.8991C30.9491 93.4898 32.7291 94.2498 32.7291 96.5998C32.7291 98.9498 30.9491 99.7098 28.8991 99.7098V99.7198Z" fill="#003477"/>
<path d="M37.3008 93.4898H39.2208V100.64H40.2308V93.4898H42.1408V92.5698H37.3008V93.4898Z" fill="#003477"/>
<path d="M43.0391 100.64H47.3691V99.7198H44.0491V96.6698H47.2791V95.7498H44.0491V93.4898H47.3691V92.5698H43.0391V100.64Z" fill="#003477"/>
<path d="M48.2695 96.6501C48.2695 98.9801 50.1695 100.81 52.4795 100.81C53.1895 100.81 53.9795 100.61 54.5995 100.24V99.0501C53.9995 99.5801 53.2395 99.8901 52.4495 99.8901C50.6495 99.8901 49.2795 98.3801 49.2795 96.6101C49.2795 94.8401 50.6595 93.3102 52.4695 93.3102C53.2295 93.3102 54.0195 93.5901 54.5995 94.1001V92.9301C53.9895 92.5601 53.2695 92.3901 52.5695 92.3901C50.1895 92.3901 48.2795 94.2501 48.2795 96.6401L48.2695 96.6501Z" fill="#003477"/>
<path d="M60.6703 95.8298H56.8203V92.5698H55.8203V100.64H56.8203V96.7698H60.6703V100.64H61.6703V92.5698H60.6703V95.8298Z" fill="#003477"/>
<path d="M69.1906 98.5299L63.1406 92.1899V100.64H64.1406V94.6299L70.2006 100.97V92.5699H69.1906V98.5299Z" fill="#003477"/>
<path d="M75.3999 92.3999C73.0899 92.3999 71.1699 94.2899 71.1699 96.6099C71.1699 98.9299 73.0599 100.82 75.3999 100.82C77.7399 100.82 79.6299 99.0099 79.6299 96.6099C79.6299 94.2099 77.7099 92.3999 75.3999 92.3999ZM75.3999 99.8699C73.6599 99.8699 72.1799 98.4499 72.1799 96.6099C72.1799 94.7699 73.5099 93.3399 75.3999 93.3399C77.2899 93.3399 78.6199 94.8299 78.6199 96.6099C78.6199 98.3899 77.1399 99.8699 75.3999 99.8699Z" fill="#003477"/>
<path d="M81.7109 92.5698H80.7109V100.64H84.1709V99.7198H81.7109V92.5698Z" fill="#003477"/>
<path d="M88.5894 92.3999C86.2794 92.3999 84.3594 94.2899 84.3594 96.6099C84.3594 98.9299 86.2494 100.82 88.5894 100.82C90.9294 100.82 92.8194 99.0099 92.8194 96.6099C92.8194 94.2099 90.8994 92.3999 88.5894 92.3999ZM88.5894 99.8699C86.8494 99.8699 85.3694 98.4499 85.3694 96.6099C85.3694 94.7699 86.6994 93.3399 88.5894 93.3399C90.4794 93.3399 91.8094 94.8299 91.8094 96.6099C91.8094 98.3899 90.3294 99.8699 88.5894 99.8699Z" fill="#003477"/>
<path d="M98.0491 97.4999H100.139C100.099 98.8199 98.7491 99.8999 97.4991 99.8999C95.7591 99.8999 94.3591 98.2999 94.3591 96.5999C94.3591 94.7899 95.7691 93.3299 97.5791 93.3299C98.5591 93.3299 99.5391 93.8499 100.119 94.6499L100.829 93.9799C100.039 92.9799 98.7991 92.4199 97.5491 92.4199C95.2291 92.4199 93.3691 94.3199 93.3691 96.6499C93.3691 98.9799 95.1891 100.83 97.4491 100.83C99.7091 100.83 101.269 99.1299 101.269 96.9099V96.5899H98.0691V97.5099L98.0491 97.4999Z" fill="#003477"/>
<path d="M104.66 96.0198L102.68 92.5698H101.52L104.16 97.1298V100.64H105.16V97.1298L107.79 92.5698H106.64L104.66 96.0198Z" fill="#003477"/>
<path d="M20.6409 58.2898C21.0709 58.1498 21.3709 58.0398 21.5409 57.9598V62.5298H22.5309V62.0398H27.7709V62.5298H28.7609V57.9098C28.9009 57.9898 29.0609 58.0498 29.2309 58.0998C29.4009 58.1498 29.5609 58.1998 29.7009 58.2698L30.1709 57.2998C28.6409 56.9898 27.4609 56.4498 26.6609 55.6698H30.0909V54.7898H25.6009V53.8998C27.0309 53.7798 28.2309 53.6198 29.2009 53.4198L28.7409 52.5498C27.2909 52.8798 25.1409 53.0398 22.3109 53.0398C21.7109 53.0398 21.2109 53.0398 20.8109 53.0198L21.1609 53.9998C21.8609 53.9998 23.0009 53.9798 24.6009 53.9298V54.7898H20.2209V55.6698H23.5109C22.5509 56.4698 21.4309 57.0298 20.1309 57.3398L20.6409 58.2898V58.2898ZM27.7709 61.1498H22.5309V60.2098H27.7709V61.1498V61.1498ZM25.5909 55.6898C26.2609 56.5798 27.1309 57.2298 28.2209 57.6598H25.5909V55.6898ZM27.7709 58.5498V59.3598H22.5309V58.5498H27.7709V58.5498ZM24.5909 55.6998V57.6598H22.1609C23.1609 57.2298 23.9709 56.5798 24.5909 55.6998Z" fill="#003477"/>
<path d="M36.0794 56.5798C35.5294 56.1598 35.0094 55.8198 34.4994 55.5498L33.8594 56.3498C34.2794 56.6298 34.7694 57.0098 35.3494 57.4998L36.0694 56.5798H36.0794Z" fill="#003477"/>
<path d="M36.3897 54.0001V54.5801H37.8097V55.6501H36.1797V56.5401H37.8797C37.5697 57.2101 36.8197 57.8101 35.6397 58.3401L36.2497 59.2401C36.7297 58.9401 37.0497 58.7201 37.2297 58.5701V60.9601C37.2297 61.4401 37.3197 61.7701 37.4997 61.9501C37.6797 62.1201 37.9997 62.2101 38.4597 62.2101H41.9097C42.4597 62.2101 42.8197 62.1101 43.0097 61.9201C43.1997 61.7201 43.3497 61.1301 43.4697 60.1401L42.4497 59.7701C42.3997 60.3301 42.3497 60.7301 42.2897 60.9501C42.2297 61.1701 42.0597 61.2801 41.7597 61.2801H38.5997C38.3497 61.2801 38.2297 61.1601 38.2297 60.9101V60.2301H41.6597V58.0501C42.0897 58.4301 42.6297 58.8201 43.2797 59.2101L43.7397 58.2601C42.5897 57.6901 41.8697 57.1201 41.5897 56.5401H43.6197V55.6501H41.6997V54.5501H43.4597V53.7101H41.6997V52.6001H40.7397V53.7101H38.7997V52.6001H37.8297V53.7101H36.4097V53.8501C35.9897 53.5301 35.4797 53.1801 34.8797 52.7901L34.1797 53.5801C34.6497 53.8801 35.1797 54.2901 35.7697 54.8301L36.4197 54.0201L36.3897 54.0001ZM38.7797 54.5901H40.7197V55.6301H38.7797V54.5901ZM39.0197 56.5301H40.4597C40.6597 56.9101 40.8797 57.2301 41.1097 57.4901H38.3897C38.6497 57.2101 38.8597 56.8901 39.0197 56.5301ZM38.2097 58.3301H40.6597V59.3701H38.2097V58.3301Z" fill="#003477"/>
<path d="M36.0108 59.2202L35.0808 58.6802C34.8508 59.6902 34.4308 60.6402 33.8008 61.5202L34.6508 62.3902C35.2608 61.4202 35.7108 60.3702 36.0008 59.2202H36.0108Z" fill="#003477"/>
<path d="M55.0802 54.59C54.2402 53.98 53.5902 53.55 53.1302 53.29L52.4902 53.99C52.9802 54.29 53.6202 54.75 54.4102 55.38L55.0802 54.58V54.59Z" fill="#003477"/>
<path d="M51.9004 60.1402L55.4704 59.5902V62.5202H56.4604V59.4602L57.4204 59.3102V58.3402L56.4604 58.5002V52.4902H55.4704V58.6102L51.9004 59.1402V60.1402Z" fill="#003477"/>
<path d="M54.8793 57.1498C54.0993 56.5498 53.4393 56.1198 52.9093 55.8398L52.2793 56.5498C52.8393 56.8798 53.4893 57.3598 54.2193 57.9698L54.8793 57.1498V57.1498Z" fill="#003477"/>
<path d="M47.9904 60.5298C48.6904 59.6198 49.1704 58.8198 49.4404 58.1398V62.5198L50.4204 62.4798V57.5398C50.6104 57.7998 50.8004 58.0298 50.9804 58.2498C51.1904 58.4898 51.4104 58.7598 51.6204 59.0598L52.2204 58.1398C51.8204 57.6998 51.2104 57.1098 50.4204 56.3698V56.2698H52.0404V55.3598H50.4204V53.8598C50.9804 53.7498 51.5204 53.5998 52.0304 53.4198L51.6704 52.5498C50.5304 52.9798 49.1604 53.2398 47.5704 53.3198L47.7904 54.2098C48.5104 54.1598 49.0604 54.0998 49.4404 54.0298V55.3598H47.4604V56.2698H49.4104C48.9604 57.4498 48.2904 58.5498 47.4004 59.5598L48.0004 60.5198L47.9904 60.5298Z" fill="#003477"/>
<path d="M61.0391 58.1003L61.2991 59.2502C61.6491 59.1602 62.1191 59.0402 62.7291 58.8902V61.0603C62.7291 61.2903 62.6091 61.4102 62.3791 61.4102L61.4491 61.3802L61.6891 62.4603H62.5291C63.0591 62.4603 63.3991 62.3703 63.5391 62.2003C63.6791 62.0403 63.7591 61.7003 63.7591 61.2003V58.5903C64.3691 58.3803 64.7891 58.2203 64.9991 58.1003V57.0603C64.7391 57.1903 64.3191 57.3402 63.7591 57.5302V55.6503H65.0191V54.9702H67.3191V56.4003H65.2091V57.3802H69.4391C69.1391 58.2802 68.6191 59.0103 67.8991 59.5903C67.4091 59.1003 66.9191 58.4202 66.4291 57.5502L65.5391 57.9003C66.0591 58.8603 66.5991 59.6103 67.1491 60.1703C66.1291 60.8603 65.1091 61.3202 64.0791 61.5502L64.6691 62.5202C65.6891 62.3102 66.7591 61.7702 67.8891 60.9102C68.7091 61.6602 69.5891 62.1902 70.5291 62.5002L71.0691 61.5002C70.1691 61.2502 69.3691 60.8402 68.6591 60.2502C69.0691 59.9002 69.4491 59.4103 69.8191 58.7903C70.1991 58.1703 70.4291 57.6703 70.5191 57.2903V56.4102H68.3691V54.9803H70.8791V54.0103H68.3691V52.5103H67.3191V54.0103H65.0291V54.6902H63.7691V52.5103H62.7191V54.6902H61.1391V55.6602H62.7191V57.8002C62.2191 57.9302 61.6491 58.0403 61.0391 58.1203V58.1003Z" fill="#003477"/>
<path d="M74.6602 61.48L75.4702 62.49C77.8602 60.92 79.2902 58.85 79.7602 56.29H79.9302C80.6402 59.15 81.9502 61.21 83.8702 62.47L84.6902 61.49C83.6302 60.79 82.8001 59.97 82.2001 59.02C81.6001 58.07 81.2102 57.16 81.0502 56.29H84.4602V55.17H79.9402C80.0002 54.61 80.0302 53.72 80.0302 52.5H78.9102C78.9102 53.64 78.8601 54.53 78.7701 55.17H74.9202V56.3H78.5901C78.4201 57.3 77.9802 58.27 77.2602 59.21C76.5302 60.15 75.6702 60.9 74.6602 61.48V61.48Z" fill="#003477"/>
<path d="M92.3791 61.7003C91.9891 61.7003 91.6191 61.6802 91.2691 61.6602L91.4891 62.6302H92.9991C93.2591 62.6302 93.4791 62.5303 93.6691 62.3203C93.7991 62.1903 93.8691 62.0002 93.8891 61.7402V59.9603H98.0591V59.0302H93.8891V58.6902C94.8691 58.3002 95.7391 57.8802 96.4991 57.4402V56.5103H90.1691V57.4402H94.8891C94.1291 57.7902 93.4191 58.0702 92.7391 58.2802V59.0302H88.5391V59.9603H92.7391V61.4203C92.7391 61.6003 92.6191 61.6902 92.3891 61.6902L92.3791 61.7003Z" fill="#003477"/>
<path d="M89.3706 55.64H97.2906V56.97H98.3505V54.72H96.1506C96.4706 54.18 96.8005 53.52 97.1105 52.73L95.9605 52.29C95.6005 53.3 95.2506 54.11 94.9106 54.72H88.3105V57.02H89.3706V55.65V55.64Z" fill="#003477"/>
<path d="M93.9709 53.9098C93.6809 53.3298 93.3909 52.7998 93.0909 52.3198L92.2109 52.7198C92.5009 53.1998 92.7809 53.7498 93.0509 54.3498L93.9809 53.9098H93.9709Z" fill="#003477"/>
<path d="M91.4897 54.0899C91.1897 53.5499 90.8797 53.0699 90.5597 52.6299L89.6797 53.0299C89.9997 53.4799 90.2897 53.9799 90.5597 54.5399L91.4897 54.0999V54.0899Z" fill="#003477"/>
</svg>
