<svg width="312" height="64" viewBox="0 0 312 64" fill="none" xmlns="http://www.w3.org/2000/svg">
<path d="M160.81 7.05975C160.97 6.84975 161.03 6.48975 161.03 6.48975H151.27C151.27 6.48975 151.39 6.88975 151.49 7.05975H160.81V7.05975Z" fill="#AA8420"/>
<path d="M160.25 7.8899C160.43 7.7299 160.61 7.3999 160.61 7.3999H151.68C151.68 7.3999 151.78 7.6399 152 7.8899H160.25V7.8899Z" fill="#AA8420"/>
<path d="M159.541 8.62976C159.761 8.50976 159.941 8.25977 159.941 8.25977H152.301C152.301 8.25977 152.481 8.45976 152.661 8.62976H159.541Z" fill="#AA8420"/>
<path d="M158.65 9.33981C158.87 9.25981 159.11 9.0498 159.11 9.0498H153.15C153.15 9.0498 153.15 9.09981 153.57 9.33981H158.64H158.65Z" fill="#AA8420"/>
<path d="M154.26 9.77979C154.26 9.77979 154.89 10.1498 156.12 10.1498C157.35 10.1498 158.14 9.77979 158.14 9.77979H154.26Z" fill="#AA8420"/>
<path d="M154.161 10.6101C154.161 10.6101 154.911 10.6501 155.351 10.9901C155.781 11.3601 156.101 11.9601 156.101 11.9601C156.101 11.9601 156.361 11.3801 156.791 11.0701C157.211 10.7501 157.901 10.6101 157.901 10.6101H165.601L167.121 12.8501H160.211C160.211 12.8501 159.731 12.8701 159.001 13.3001C158.621 13.5201 158.331 13.9001 158.331 13.9001C158.331 13.9001 158.271 14.0801 158.191 14.1801C158.111 14.2801 158.051 14.3601 157.951 14.4001C157.851 14.4401 157.871 14.4201 157.871 14.4201H154.271C154.271 14.4201 154.131 14.3601 154.051 14.2401C153.971 14.1201 154.031 14.1601 153.951 14.0601C153.891 13.9601 153.751 13.6901 153.201 13.3301C152.641 12.9601 152.091 12.9201 152.091 12.9201H145.061L146.591 10.6001H154.171L154.161 10.6101Z" fill="#003477"/>
<path d="M148.721 13.79V25.27C148.721 25.27 148.761 26.28 149.611 27.65C150.461 29.03 151.691 29.66 151.691 29.66L152.661 28.14C152.661 28.14 151.821 27.63 151.171 26.66C150.541 25.69 150.541 24.86 150.541 24.86V13.79H148.721V13.79Z" fill="#003477"/>
<path d="M161.74 13.75V24.82C161.74 24.82 161.6 25.93 161.07 26.72C160.54 27.53 159.67 28.17 159.67 28.17L160.6 29.67C160.6 29.67 162.01 28.64 162.7 27.55C163.39 26.46 163.55 24.82 163.55 24.82V13.75H161.73H161.74Z" fill="#003477"/>
<path d="M145.84 13.7898V25.3098C145.84 25.3098 145.96 27.0898 147.07 28.9498C148.18 30.8098 150.2 32.0998 150.2 32.0998L151.15 30.5798C151.15 30.5798 149.85 29.8898 148.82 28.3098C147.77 26.7098 147.71 25.2598 147.71 25.2598V13.7798H145.83L145.84 13.7898Z" fill="#003477"/>
<path d="M154.16 15V27.17C154.16 27.17 154.12 27.21 154.1 27.39C154.08 27.57 153.96 27.7 153.96 27.7L149.9 34.43H162.35L158.29 27.56L158.17 27.26L158.13 26.94V15.04H156.62V27.39C156.62 27.39 156.62 27.57 156.68 27.71C156.72 27.85 156.8 28.07 156.8 28.07L159.31 32.19H152.96L155.43 28.09C155.43 28.09 155.51 27.95 155.57 27.75C155.61 27.57 155.63 27.39 155.63 27.39V15.02H154.17L154.16 15Z" fill="#AA8420"/>
<path d="M164.55 13.75V25.07C164.55 25.07 164.53 26.52 163.46 28.2C162.39 29.88 161.16 30.59 161.16 30.59L162.07 32.13C162.07 32.13 163.93 30.95 165.1 29.09C166.25 27.23 166.39 25.07 166.39 25.07V13.75H164.55V13.75Z" fill="#003477"/>
<path d="M151.211 6.17C151.211 6.17 150.581 2.76 153.091 1.05C153.091 1.05 154.221 0 156.061 0C158.021 0 159.151 1.03 159.151 1.03C161.881 3.03 161.071 6.17 161.071 6.17H151.211Z" fill="#AA8420"/>
<path d="M104.66 46.2902C105.1 46.1402 105.4 46.0302 105.59 45.9502V50.6202H106.6V50.1202H111.95V50.6202H112.96V45.9002C113.11 45.9802 113.27 46.0502 113.44 46.1002C113.61 46.1502 113.77 46.2102 113.92 46.2702L114.4 45.2802C112.83 44.9702 111.64 44.4102 110.81 43.6202H114.31V42.7202H109.72V41.8102C111.18 41.6902 112.41 41.5202 113.4 41.3202L112.93 40.4302C111.44 40.7702 109.25 40.9302 106.36 40.9302C105.75 40.9302 105.24 40.9302 104.83 40.9102L105.19 41.9102C105.9 41.9102 107.07 41.8902 108.71 41.8402V42.7202H104.24V43.6202H107.6C106.62 44.4402 105.47 45.0102 104.15 45.3302L104.67 46.3002L104.66 46.2902ZM111.95 49.2102H106.59V48.2502H111.95V49.2102ZM109.72 43.6302C110.4 44.5402 111.3 45.2102 112.41 45.6402H109.72V43.6302V43.6302ZM111.95 46.5602V47.3902H106.59V46.5602H111.95ZM108.7 43.6402V45.6502H106.22C107.24 45.2102 108.07 44.5502 108.7 43.6402V43.6402Z" fill="#003477"/>
<path d="M124.22 46.6899C123.99 47.7199 123.55 48.6899 122.91 49.5899L123.78 50.4799C124.4 49.4899 124.86 48.4099 125.16 47.2399L124.21 46.6899H124.22Z" fill="#003477"/>
<path d="M125.229 44.54C124.669 44.11 124.129 43.76 123.619 43.48L122.969 44.3C123.399 44.58 123.899 44.97 124.489 45.47L125.229 44.53V44.54Z" fill="#003477"/>
<path d="M125.559 41.91V42.5H127.009V43.59H125.339V44.5H127.079C126.759 45.18 125.999 45.79 124.789 46.34L125.409 47.25C125.899 46.95 126.229 46.72 126.409 46.57V49.01C126.409 49.5 126.499 49.84 126.679 50.02C126.869 50.19 127.199 50.28 127.659 50.28H131.189C131.749 50.28 132.119 50.18 132.309 49.99C132.499 49.79 132.659 49.18 132.779 48.17L131.739 47.79C131.689 48.36 131.629 48.77 131.579 49C131.519 49.23 131.339 49.34 131.039 49.34H127.809C127.559 49.34 127.429 49.21 127.429 48.96V48.26H130.939V46.03C131.379 46.42 131.929 46.82 132.599 47.22L133.069 46.25C131.889 45.67 131.159 45.09 130.869 44.5H132.949V43.59H130.989V42.47H132.789V41.61H130.989V40.48H130.009V41.61H128.019V40.48H127.029V41.61H125.579V41.75C125.149 41.42 124.629 41.06 124.009 40.67L123.289 41.48C123.779 41.78 124.319 42.21 124.909 42.75L125.579 41.92L125.559 41.91ZM127.999 42.51H129.979V43.58H127.999V42.51ZM128.239 44.49H129.709C129.909 44.88 130.139 45.2 130.369 45.47H127.589C127.859 45.19 128.069 44.86 128.229 44.49H128.239ZM127.409 46.33H129.909V47.4H127.409V46.33Z" fill="#003477"/>
<path d="M150.859 40.3599H149.849V46.6199L146.199 47.1599V48.1699L149.849 47.6199V50.6099H150.859V47.4899L151.839 47.3299V46.3299L150.859 46.4999V40.3599Z" fill="#003477"/>
<path d="M149.25 45.13C148.45 44.52 147.78 44.07 147.24 43.79L146.6 44.52C147.17 44.86 147.83 45.34 148.58 45.97L149.25 45.13V45.13Z" fill="#003477"/>
<path d="M149.46 42.4999C148.6 41.8799 147.94 41.4299 147.47 41.1699L146.82 41.8899C147.32 42.1899 147.97 42.6699 148.78 43.3199L149.47 42.4999H149.46Z" fill="#003477"/>
<path d="M142.2 48.5799C142.91 47.6499 143.4 46.8399 143.68 46.1399V50.6199L144.68 50.5699V45.5199C144.88 45.7799 145.07 46.0299 145.26 46.2499C145.48 46.4999 145.7 46.7699 145.91 47.0799L146.52 46.1399C146.11 45.6899 145.49 45.0899 144.68 44.3299V44.2299H146.33V43.2899H144.68V41.7599C145.25 41.6399 145.8 41.4899 146.32 41.3099L145.95 40.4199C144.78 40.8599 143.38 41.1299 141.76 41.1999L141.99 42.1099C142.73 42.0599 143.29 41.9999 143.68 41.9299V43.2899H141.66V44.2299H143.65C143.19 45.4399 142.51 46.5599 141.59 47.5899L142.2 48.5699V48.5799Z" fill="#003477"/>
<path d="M168.13 48.2701C168.55 47.9101 168.94 47.4101 169.32 46.7801C169.7 46.1501 169.94 45.6401 170.04 45.2501V44.3501H167.84V42.8901H170.41V41.9001H167.84V40.3701H166.76V41.9001H164.42V42.6001H163.14V40.3701H162.07V42.6001H160.46V43.5901H162.07V45.7801C161.55 45.9201 160.98 46.0201 160.35 46.1101L160.61 47.2801C160.96 47.1901 161.45 47.0701 162.07 46.9101V49.1301C162.07 49.3701 161.95 49.4901 161.71 49.4901L160.76 49.4601L161.01 50.5601H161.87C162.41 50.5601 162.75 50.4701 162.91 50.3001C163.06 50.1301 163.13 49.7901 163.13 49.2801V46.6101C163.75 46.4001 164.18 46.2301 164.4 46.1101V45.0401C164.13 45.1701 163.71 45.3301 163.13 45.5201V43.6001H164.41V42.9001H166.76V44.3601H164.61V45.3601H168.93C168.62 46.2801 168.09 47.0301 167.35 47.6201C166.85 47.1201 166.35 46.4301 165.85 45.5401L164.95 45.9001C165.49 46.8801 166.03 47.6501 166.59 48.2201C165.54 48.9201 164.5 49.3901 163.45 49.6201L164.05 50.6101C165.1 50.3901 166.19 49.8401 167.34 48.9701C168.18 49.7401 169.08 50.2801 170.04 50.5901L170.6 49.5701C169.68 49.3201 168.86 48.8901 168.14 48.3001L168.13 48.2701Z" fill="#003477"/>
<path d="M188.469 50.5701L189.309 49.5701C188.229 48.8601 187.379 48.0201 186.759 47.0501C186.139 46.0801 185.749 45.1501 185.579 44.2601H189.069V43.1201H184.449C184.509 42.5501 184.539 41.6401 184.539 40.3901H183.399C183.399 41.5501 183.349 42.4601 183.259 43.1201H179.319V44.2701H183.069C182.899 45.2901 182.449 46.2801 181.709 47.2401C180.969 48.2001 180.089 48.9701 179.049 49.5601L179.879 50.5901C182.319 48.9901 183.779 46.8801 184.259 44.2501H184.429C185.159 47.1801 186.499 49.2801 188.459 50.5701H188.469Z" fill="#003477"/>
<path d="M203.98 42.5103C203.7 42.8203 203.45 43.0503 203.23 43.1903C203.06 43.0603 202.91 42.9503 202.77 42.8503C202.65 42.7803 202.53 42.7003 202.39 42.6103L201.82 43.0903C202.16 43.3303 202.4 43.5003 202.55 43.6103C202.3 43.7603 201.92 43.8903 201.42 44.0003L201.89 44.7303C202.41 44.5603 202.83 44.3503 203.17 44.1203C203.22 44.1203 203.41 44.3403 203.75 44.7603L204.45 44.2303C204.25 44.0303 204.04 43.8403 203.83 43.6503C204.05 43.4803 204.3 43.2603 204.57 43.0003L203.99 42.5103H203.98Z" fill="#003477"/>
<path d="M202.519 49.3503C202.519 49.5703 202.409 49.6803 202.189 49.6803L200.699 49.6403L200.949 50.5203H202.549C203.209 50.5203 203.539 50.1303 203.539 49.3603V48.9103H208.059V48.0303H203.539C204.469 47.7403 205.259 47.4203 205.899 47.0803V46.2803H199.839V47.0903H204.419C203.649 47.3203 203.019 47.4703 202.519 47.5603V48.0303H197.789V48.9103H202.519V49.3603V49.3503Z" fill="#003477"/>
<path d="M201.27 41.8301L201.82 42.5601C202.31 42.3501 202.73 42.1301 203.09 41.8901C203.17 41.8901 203.36 42.1001 203.65 42.5101L204.32 42.0201C204.08 41.7701 203.89 41.5701 203.74 41.4401C204.01 41.2701 204.22 41.0701 204.38 40.8501L203.83 40.3601C203.7 40.5401 203.48 40.7401 203.17 40.9501C202.88 40.7301 202.59 40.5301 202.31 40.3501L201.72 40.8601C202.03 41.0601 202.28 41.2301 202.46 41.3701C202.27 41.5001 201.87 41.6501 201.26 41.8201L201.27 41.8301Z" fill="#003477"/>
<path d="M199 45.8102H206.859V47.4102H207.84V44.9502H207.26L207.38 40.6502H204.69V41.5102H206.419V42.1102H204.81V42.8502H206.39L206.37 43.4702H204.81V44.2202H206.33V44.9502H199.5L199.479 44.2202H201.109V43.4702H199.46V42.8502H201.109V42.1102H199.409L199.38 41.5602C200.26 41.5002 200.91 41.4002 201.32 41.2702L200.84 40.4702C200.19 40.6502 199.39 40.7602 198.44 40.7902L198.56 44.9702H198.02V47.4302H198.99V45.8302L199 45.8102Z" fill="#003477"/>
<path d="M0.759766 55.7601H2.65976V62.8501H3.65976V55.7601H5.55975V54.8501H0.759766V55.7601Z" fill="#003477"/>
<path d="M11.1694 58.0801H7.35938V54.8501H6.35938V62.8501H7.35938V59.0101H11.1694V62.8501H12.1694V54.8501H11.1694V58.0801Z" fill="#003477"/>
<path d="M13.7207 62.8501H18.0107V61.9401H14.7107V58.9101H17.9207V58.0001H14.7107V55.7601H18.0107V54.8501H13.7207V62.8501Z" fill="#003477"/>
<path d="M27.2495 58.0801H23.4395V54.8501H22.4395V62.8501H23.4395V59.0101H27.2495V62.8501H28.2394V54.8501H27.2495V58.0801Z" fill="#003477"/>
<path d="M33.4205 54.6802C31.1305 54.6802 29.2305 56.5602 29.2305 58.8502C29.2305 61.1402 31.1105 63.0202 33.4205 63.0202C35.7305 63.0202 37.6104 61.2302 37.6104 58.8502C37.6104 56.4702 35.7105 54.6802 33.4205 54.6802ZM33.4205 62.0902C31.6905 62.0902 30.2305 60.6802 30.2305 58.8502C30.2305 57.0202 31.5505 55.6102 33.4205 55.6102C35.2905 55.6102 36.6104 57.0902 36.6104 58.8502C36.6104 60.6102 35.1405 62.0902 33.4205 62.0902Z" fill="#003477"/>
<path d="M44.5999 60.7602L38.5898 54.4702V62.8502H39.5898V56.8902L45.5898 63.1802V54.8502H44.5999V60.7602Z" fill="#003477"/>
<path d="M51.2401 59.7299H53.3101C53.2701 61.0299 51.9301 62.1099 50.6901 62.1099C48.9601 62.1099 47.5801 60.5199 47.5801 58.8399C47.5801 57.0499 48.9801 55.5899 50.7701 55.5899C51.7501 55.5899 52.7101 56.1099 53.2901 56.8899L53.9901 56.2199C53.2001 55.2299 51.9701 54.6699 50.7301 54.6699C48.4301 54.6699 46.5801 56.5599 46.5801 58.8599C46.5801 61.1599 48.3801 63.0099 50.6201 63.0099C52.8601 63.0099 54.4101 61.3199 54.4101 59.1299V58.8099H51.2401V59.7199V59.7299Z" fill="#003477"/>
<path d="M64.3797 54.8501H63.0697L59.6697 58.3201V54.8501H58.6797V62.8501H59.6697V59.5101L60.0797 59.1301L63.0897 62.8501H64.4397L60.7797 58.4501L64.3797 54.8501Z" fill="#003477"/>
<path d="M68.7798 54.6802C66.4898 54.6802 64.5898 56.5602 64.5898 58.8502C64.5898 61.1402 66.4698 63.0202 68.7798 63.0202C71.0898 63.0202 72.9698 61.2302 72.9698 58.8502C72.9698 56.4702 71.0698 54.6802 68.7798 54.6802ZM68.7798 62.0902C67.0498 62.0902 65.5898 60.6802 65.5898 58.8502C65.5898 57.0202 66.9098 55.6102 68.7798 55.6102C70.6498 55.6102 71.9698 57.0902 71.9698 58.8502C71.9698 60.6102 70.5098 62.0902 68.7798 62.0902Z" fill="#003477"/>
<path d="M79.9492 60.7602L73.9492 54.4702V62.8502H74.9392V56.8902L80.9492 63.1802V54.8502H79.9492V60.7602Z" fill="#003477"/>
<path d="M86.5995 59.7299H88.6695C88.6295 61.0299 87.2894 62.1099 86.0494 62.1099C84.3194 62.1099 82.9395 60.5199 82.9395 58.8399C82.9395 57.0499 84.3395 55.5899 86.1295 55.5899C87.1095 55.5899 88.0694 56.1099 88.6494 56.8899L89.3495 56.2199C88.5695 55.2299 87.3294 54.6699 86.0894 54.6699C83.7894 54.6699 81.9395 56.5599 81.9395 58.8599C81.9395 61.1599 83.7395 63.0099 85.9795 63.0099C88.2195 63.0099 89.7694 61.3199 89.7694 59.1299V58.8099H86.5995V59.7199V59.7299Z" fill="#003477"/>
<path d="M98.7604 59.5701C98.7604 60.8801 98.3704 62.0801 96.8304 62.0801C95.2904 62.0801 94.9004 60.8701 94.9004 59.5701V54.8501H93.9004V59.9101C93.9004 61.6701 94.9904 63.0201 96.8304 63.0201C98.6704 63.0201 99.7604 61.6701 99.7604 59.9101V54.8501H98.7604V59.5701Z" fill="#003477"/>
<path d="M107.151 60.7602L101.141 54.4702V62.8502H102.141V56.8902L108.151 63.1802V54.8502H107.151V60.7602Z" fill="#003477"/>
<path d="M110.641 54.8501H109.641V62.8501H110.641V54.8501Z" fill="#003477"/>
<path d="M114.89 60.7701L112.5 54.8501H111.4L114.89 63.2801L118.36 54.8501H117.26L114.89 60.7701Z" fill="#003477"/>
<path d="M119.141 62.8501H123.441V61.9401H120.141V58.9101H123.341V58.0001H120.141V55.7601H123.441V54.8501H119.141V62.8501Z" fill="#003477"/>
<path d="M129.149 57.1301C129.149 56.3701 128.769 55.6101 128.099 55.2201C127.459 54.8601 126.699 54.8501 125.989 54.8501H124.779V62.8501H125.779V59.4601H126.189L128.549 62.8501H129.759L127.229 59.3701C128.389 59.2301 129.149 58.2801 129.149 57.1301ZM126.089 58.6401H125.769V55.7401H126.039C127.029 55.7401 128.209 55.9201 128.209 57.1701C128.209 58.4201 127.109 58.6301 126.089 58.6301V58.6401Z" fill="#003477"/>
<path d="M133.271 58.1199L132.701 57.8999C132.201 57.7099 131.591 57.3799 131.591 56.7499C131.591 56.0499 132.29 55.6099 132.93 55.6099C133.57 55.6099 133.921 55.8699 134.211 56.3599L135.01 55.8799C134.58 55.0999 133.841 54.6699 132.951 54.6699C131.741 54.6699 130.591 55.4499 130.591 56.7399C130.591 57.8499 131.421 58.3799 132.331 58.7699L132.88 58.9999C133.57 59.2899 134.26 59.6599 134.26 60.5199C134.26 61.3799 133.65 62.0799 132.79 62.0799C131.93 62.0799 131.23 61.4399 131.24 60.5599L130.23 60.7699C130.4 62.0499 131.411 63.0099 132.701 63.0099C134.131 63.0099 135.26 61.9699 135.26 60.5199C135.26 59.1799 134.411 58.5599 133.271 58.1099V58.1199Z" fill="#003477"/>
<path d="M137.42 54.8501H136.42V62.8501H137.42V54.8501Z" fill="#003477"/>
<path d="M138.27 55.7601H140.169V62.8501H141.169V55.7601H143.07V54.8501H138.27V55.7601Z" fill="#003477"/>
<path d="M146.239 58.2701L144.279 54.8501H143.129L145.739 59.3701V62.8501H146.739V59.3701L149.349 54.8501H148.209L146.239 58.2701Z" fill="#003477"/>
<path d="M156.95 54.6802C154.66 54.6802 152.76 56.5602 152.76 58.8502C152.76 61.1402 154.64 63.0202 156.95 63.0202C159.26 63.0202 161.14 61.2302 161.14 58.8502C161.14 56.4702 159.24 54.6802 156.95 54.6802ZM156.95 62.0902C155.22 62.0902 153.76 60.6802 153.76 58.8502C153.76 57.0202 155.08 55.6102 156.95 55.6102C158.82 55.6102 160.14 57.0902 160.14 58.8502C160.14 60.6102 158.67 62.0902 156.95 62.0902Z" fill="#003477"/>
<path d="M162.199 62.8501H163.199V58.9301H165.979V58.0101H163.199V55.7601H166.079V54.8501H162.199V62.8501Z" fill="#003477"/>
<path d="M173.14 58.1199L172.57 57.8999C172.07 57.7099 171.46 57.3799 171.46 56.7499C171.46 56.0499 172.16 55.6099 172.8 55.6099C173.4 55.6099 173.79 55.8699 174.09 56.3599L174.89 55.8799C174.45 55.0999 173.72 54.6699 172.83 54.6699C171.62 54.6699 170.47 55.4499 170.47 56.7399C170.47 57.8499 171.3 58.3799 172.21 58.7699L172.76 58.9999C173.45 59.2899 174.14 59.6599 174.14 60.5199C174.14 61.3799 173.52 62.0799 172.66 62.0799C171.8 62.0799 171.1 61.4399 171.11 60.5599L170.1 60.7699C170.27 62.0499 171.28 63.0099 172.57 63.0099C174 63.0099 175.13 61.9699 175.13 60.5199C175.13 59.1799 174.28 58.5599 173.15 58.1099L173.14 58.1199Z" fill="#003477"/>
<path d="M175.879 58.8899C175.879 61.1999 177.769 63.0199 180.049 63.0199C180.749 63.0199 181.539 62.8199 182.149 62.4599V61.2799C181.559 61.8099 180.799 62.1099 180.019 62.1099C178.239 62.1099 176.879 60.6099 176.879 58.8599C176.879 57.1099 178.249 55.5899 180.039 55.5899C180.789 55.5899 181.579 55.8699 182.149 56.3699V55.2099C181.549 54.8399 180.839 54.6699 180.139 54.6699C177.779 54.6699 175.879 56.5199 175.879 58.8799V58.8899Z" fill="#003477"/>
<path d="M184.41 54.8501H183.41V62.8501H184.41V54.8501Z" fill="#003477"/>
<path d="M186.01 62.8501H190.31V61.9401H187.01V58.9101H190.22V58.0001H187.01V55.7601H190.31V54.8501H186.01V62.8501Z" fill="#003477"/>
<path d="M197.559 60.7602L191.549 54.4702V62.8502H192.549V56.8902L198.559 63.1802V54.8502H197.559V60.7602Z" fill="#003477"/>
<path d="M199.639 58.8899C199.639 61.1999 201.529 63.0199 203.809 63.0199C204.509 63.0199 205.299 62.8199 205.909 62.4599V61.2799C205.319 61.8099 204.559 62.1099 203.779 62.1099C201.999 62.1099 200.639 60.6099 200.639 58.8599C200.639 57.1099 202.009 55.5899 203.799 55.5899C204.549 55.5899 205.339 55.8699 205.909 56.3699V55.2099C205.309 54.8399 204.589 54.6699 203.889 54.6699C201.529 54.6699 199.629 56.5199 199.629 58.8799L199.639 58.8899Z" fill="#003477"/>
<path d="M207.209 62.8501H211.499V61.9401H208.199V58.9101H211.409V58.0001H208.199V55.7601H211.499V54.8501H207.209V62.8501Z" fill="#003477"/>
<path d="M215.16 62.8503H216.23L217.14 60.8403H220.81L221.72 62.8503H222.79L218.97 54.5103L215.15 62.8503H215.16ZM217.56 59.9303L218.98 56.6903L220.4 59.9303H217.56V59.9303Z" fill="#003477"/>
<path d="M229.49 60.7602L223.48 54.4702V62.8502H224.48V56.8902L230.49 63.1802V54.8502H229.49V60.7602Z" fill="#003477"/>
<path d="M233.59 54.8501H231.93V62.8501H233.55C236.08 62.8501 238.07 61.5301 238.07 58.8101C238.07 56.0901 236.03 54.8501 233.58 54.8501H233.59ZM233.28 61.9401H232.93V55.7601H233.28C235.32 55.7601 237.08 56.5101 237.08 58.8501C237.08 61.1901 235.32 61.9401 233.28 61.9401V61.9401Z" fill="#003477"/>
<path d="M241.609 55.7601H243.509V62.8501H244.499V55.7601H246.399V54.8501H241.609V55.7601Z" fill="#003477"/>
<path d="M247.299 62.8501H251.589V61.9401H248.289V58.9101H251.499V58.0001H248.289V55.7601H251.589V54.8501H247.299V62.8501Z" fill="#003477"/>
<path d="M252.479 58.8899C252.479 61.1999 254.369 63.0199 256.649 63.0199C257.349 63.0199 258.139 62.8199 258.749 62.4599V61.2799C258.159 61.8099 257.399 62.1099 256.619 62.1099C254.839 62.1099 253.479 60.6099 253.479 58.8599C253.479 57.1099 254.849 55.5899 256.639 55.5899C257.389 55.5899 258.179 55.8699 258.749 56.3699V55.2099C258.149 54.8399 257.429 54.6699 256.729 54.6699C254.369 54.6699 252.469 56.5199 252.469 58.8799L252.479 58.8899Z" fill="#003477"/>
<path d="M264.769 58.0801H260.959V54.8501H259.959V62.8501H260.959V59.0101H264.769V62.8501H265.769V54.8501H264.769V58.0801Z" fill="#003477"/>
<path d="M273.229 60.7602L267.219 54.4702V62.8502H268.219V56.8902L274.229 63.1802V54.8502H273.229V60.7602Z" fill="#003477"/>
<path d="M279.379 54.6802C277.089 54.6802 275.189 56.5602 275.189 58.8502C275.189 61.1402 277.069 63.0202 279.379 63.0202C281.689 63.0202 283.569 61.2302 283.569 58.8502C283.569 56.4702 281.669 54.6802 279.379 54.6802ZM279.379 62.0902C277.649 62.0902 276.189 60.6802 276.189 58.8502C276.189 57.0202 277.509 55.6102 279.379 55.6102C281.249 55.6102 282.569 57.0902 282.569 58.8502C282.569 60.6102 281.109 62.0902 279.379 62.0902Z" fill="#003477"/>
<path d="M285.64 54.8501H284.65V62.8501H288.08V61.9401H285.64V54.8501Z" fill="#003477"/>
<path d="M292.469 54.6802C290.179 54.6802 288.279 56.5602 288.279 58.8502C288.279 61.1402 290.159 63.0202 292.469 63.0202C294.779 63.0202 296.659 61.2302 296.659 58.8502C296.659 56.4702 294.759 54.6802 292.469 54.6802ZM292.469 62.0902C290.739 62.0902 289.279 60.6802 289.279 58.8502C289.279 57.0202 290.599 55.6102 292.469 55.6102C294.339 55.6102 295.659 57.0902 295.659 58.8502C295.659 60.6102 294.199 62.0902 292.469 62.0902Z" fill="#003477"/>
<path d="M301.849 59.7299H303.919C303.879 61.0299 302.539 62.1099 301.299 62.1099C299.569 62.1099 298.189 60.5199 298.189 58.8399C298.189 57.0499 299.589 55.5899 301.389 55.5899C302.369 55.5899 303.329 56.1099 303.899 56.8899L304.599 56.2199C303.809 55.2299 302.579 54.6699 301.339 54.6699C299.039 54.6699 297.189 56.5599 297.189 58.8599C297.189 61.1599 298.989 63.0099 301.229 63.0099C303.469 63.0099 305.019 61.3199 305.019 59.1299V58.8099H301.849V59.7199V59.7299Z" fill="#003477"/>
<path d="M310.359 54.8501L308.399 58.2701L306.429 54.8501H305.289L307.899 59.3701V62.8501H308.899V59.3701L311.499 54.8501H310.359Z" fill="#003477"/>
</svg>
