<svg width="222" height="74" viewBox="0 0 222 74" fill="none" xmlns="http://www.w3.org/2000/svg">
<path d="M12.5494 29.56H29.8094V43.87H26.3494V49.02H38.7994V43.87H35.3494V9.65H38.7994V4.5H26.3494V9.65H29.8094V23.9H12.5494V9.65H16.0594V4.5H3.60938V9.65H7.11937V43.87H3.60938V49.02H16.0594V43.87H12.5494V29.56Z" fill="#231815"/>
<path d="M19.6196 40.1998H16.1096V33.1798H26.2896V40.1998H22.7796V52.6498H42.3596V40.1998H38.8496V13.2698H42.3596V0.819824H22.7896V13.2698H26.2996V20.2898H16.1196V13.2698H19.6296V0.819824H0.0996094V13.2698H3.54961V40.1998H0.0996094V52.6498H19.6196V40.1998ZM17.4696 50.4398H2.19961V42.4098H5.70961V11.0698H2.19961V3.03983H17.4796V11.0698H13.9696V22.4398H28.3996V11.0698H24.9496V3.03983H40.2296V11.0698H36.7796V42.4098H40.2296V50.4398H24.9496V42.4098H28.3996V31.0398H13.9596V42.4098H17.4696V50.4398V50.4398Z" fill="#231815"/>
<path d="M59.5103 29.56H69.0703L76.2003 43.87H73.3103V49.02H85.7603V43.87H82.3703L73.8203 26.73L82.5903 9.65H85.7603V4.5H73.3103V9.65H76.4303L69.0703 23.9H59.5103V9.65H63.0203V4.5H50.5703V9.65H54.0803V43.87H50.5703V49.02H63.0203V43.87H59.5103V29.56Z" fill="#231815"/>
<path d="M66.5805 40.1998H63.0705V33.1798H66.8605C67.5805 34.5798 68.2105 35.8198 68.7605 36.9098C69.3105 37.9998 69.8605 39.0998 70.4305 40.1898H69.7505V52.6398H89.3305V40.1898H84.5805C83.3705 37.8098 82.2105 35.5198 81.1005 33.3198C79.9905 31.1098 78.8805 28.9298 77.7905 26.7898C78.4305 25.5498 79.0405 24.3598 79.6305 23.2298C80.2105 22.0998 80.7805 20.9898 81.3305 19.9198C81.8805 18.8498 82.4205 17.7598 82.9705 16.6698C83.5205 15.5798 84.0905 14.4398 84.7005 13.2698H89.3405V0.819824H69.7605V13.2698H70.5505C70.0605 14.2498 69.6505 15.0398 69.3305 15.6498C69.0105 16.2498 68.7305 16.7898 68.4805 17.2598C68.2305 17.7298 68.0005 18.1798 67.7705 18.6198C67.5405 19.0498 67.2605 19.6098 66.9205 20.2898H63.0705V13.2698H66.5805V0.819824H47.0605V13.2698H50.5105V40.1998H47.0605V52.6498H66.5805V40.1998V40.1998ZM64.4305 50.4398H49.1505V42.4098H52.6605V11.0698H49.1505V3.03983H64.4305V11.0698H60.9205V22.4398H68.1605C68.7205 21.3498 69.2305 20.3598 69.6905 19.4698C70.1405 18.5798 70.5905 17.7098 71.0505 16.8398C71.5005 15.9698 71.9605 15.0798 72.4405 14.1498C72.9105 13.2298 73.4505 12.1998 74.0505 11.0698H71.9005V3.03983H87.1805V11.0698H83.4505C82.0505 13.8198 80.7305 16.4498 79.4605 18.9298C78.1905 21.4198 76.8505 24.0398 75.4105 26.7898C76.7705 29.5098 78.0805 32.1098 79.3405 34.5998C80.6005 37.0898 81.9105 39.6898 83.2705 42.4098H87.1705V50.4398H71.8905V42.4098H73.8705C72.8905 40.4498 71.9505 38.5698 71.0405 36.7798C70.1305 34.9898 69.1705 33.0798 68.1505 31.0398H60.9105V42.4098H64.4205V50.4398H64.4305Z" fill="#231815"/>
<path d="M103.52 44.33L106.98 49.02H128.14L131.7 44.27V9.64H135.04V4.5H122.59V9.64H125.93V31.82V43.87H108.84L108.96 9.64H112.46V4.5H100.02V9.64H103.52V44.33Z" fill="#231815"/>
<path d="M99.9595 45.5701L105.22 52.6401H129.83L135.21 45.5701V13.2601H138.6V0.810059H119.03V13.2601H122.37V40.1901H112.41C112.41 37.6601 112.41 35.2901 112.44 33.0601C112.46 30.8301 112.47 28.6501 112.47 26.5001V13.2601H115.98V0.810059H96.5195V13.2601H99.9695V45.5701H99.9595ZM98.5995 11.0601V3.03006H113.88V11.0601H110.37C110.37 13.7401 110.36 16.3701 110.34 18.9501C110.32 21.5301 110.3 24.1101 110.28 26.6701C110.26 29.2401 110.25 31.8201 110.25 34.4201V42.4001H124.51V11.0601H121.17V3.03006H136.45V11.0601H133.11V44.7801L128.81 50.4401H106.29L102.1 44.8401V11.0601H98.5895H98.5995Z" fill="#231815"/>
<path d="M173.68 52.6398L178.88 45.5698V27.6398L173.68 20.5098H157.05V13.2698H166.95V19.9998H178.89V7.94982L173.69 0.819824H150.21L145 7.94982V25.8798L150.21 32.9498H166.56V40.1898H156.94V33.4598H145V45.5698L150.21 52.6398H173.69H173.68ZM147.03 35.6098H154.89V42.3998H168.58V30.7398H151.15L147.02 25.0798V8.66982L151.15 3.00983H172.71L176.84 8.66982V17.8398H168.98V11.0498H155.01V22.7098H172.72L176.85 28.3698V44.7798L172.72 50.4398H151.16L147.03 44.7798V35.6198V35.6098Z" fill="#231815"/>
<path d="M172.041 49.02L175.491 44.27V28.88L172.041 24.18H153.651V9.64H170.341V16.38H175.491V9.19L172.041 4.5H151.841L148.391 9.19V24.58L151.841 29.33H169.941V43.87H161.801H153.541V37.08H148.391V44.27L151.841 49.02H172.041Z" fill="#231815"/>
<path d="M195.519 13.2698H196.369V40.1998H192.919V52.6498H212.039V40.1998H208.649V13.2698H209.439V19.9998H221.209V0.819824H183.699V19.9998H195.519V13.2698V13.2698ZM193.429 17.8498H185.789V3.02982H219.169V17.8498H211.529V11.0598H206.549V42.3998H209.939V50.4298H194.949V42.3998H198.399V11.0598H193.419V17.8498H193.429Z" fill="#231815"/>
<path d="M199.821 43.87H196.371V49.02H208.591V43.87H205.191V9.65H212.941V16.38H217.751V4.5H187.141V16.38H192.071V9.65H199.821V43.87Z" fill="#231815"/>
<path d="M71.4508 65.7202L69.1508 65.1802C68.2608 64.9702 67.6908 64.7902 67.4108 64.6402C66.9908 64.4102 66.7708 64.0602 66.7708 63.5902C66.7708 63.0802 66.9808 62.6802 67.4208 62.4002C67.8508 62.1202 68.4308 61.9702 69.1508 61.9702C69.8008 61.9702 70.3408 62.0802 70.7808 62.3002C71.4408 62.6302 71.7908 63.1902 71.8408 63.9802H74.4708C74.4208 62.5902 73.9108 61.5302 72.9208 60.8002C71.9408 60.0702 70.7508 59.7002 69.3508 59.7002C67.6808 59.7002 66.4108 60.0902 65.5508 60.8602C64.6908 61.6402 64.2608 62.6102 64.2608 63.7802C64.2608 65.0602 64.7008 66.0102 65.5808 66.6102C66.1008 66.9702 67.0608 67.3002 68.4508 67.6102L69.8708 67.9202C70.7008 68.1002 71.3108 68.3002 71.6908 68.5302C72.0708 68.7702 72.2608 69.1002 72.2608 69.5302C72.2608 70.2702 71.8708 70.7802 71.0908 71.0502C70.6808 71.1902 70.1408 71.2602 69.4908 71.2602C68.3908 71.2602 67.6108 70.9902 67.1608 70.4502C66.9108 70.1502 66.7508 69.7102 66.6608 69.1102H64.0508C64.0508 70.4702 64.5408 71.5402 65.5308 72.3202C66.5208 73.1002 67.8708 73.4902 69.5908 73.4902C71.3108 73.4902 72.5808 73.0902 73.5008 72.3002C74.4208 71.5102 74.8908 70.5202 74.8908 69.3202C74.8908 68.1202 74.5008 67.2602 73.7208 66.6502C73.2208 66.2502 72.4608 65.9402 71.4608 65.7002L71.4508 65.7202Z" fill="#231815"/>
<path d="M79.2009 63.4902H76.6309V73.1602H79.2009V63.4902Z" fill="#231815"/>
<path d="M79.2009 60H76.6309V62.33H79.2009V60Z" fill="#231815"/>
<path d="M87.0002 63.2603C86.2102 63.2603 85.5502 63.4603 85.0302 63.8503C84.7402 64.0703 84.4402 64.4203 84.1102 64.9203V63.5103H81.6602V73.1603H84.1902V67.9203C84.1902 67.3203 84.2702 66.8303 84.4402 66.4503C84.7602 65.7203 85.3402 65.3603 86.1902 65.3603C86.8802 65.3603 87.3502 65.6103 87.6002 66.1103C87.7402 66.3803 87.8002 66.7703 87.8002 67.2803V73.1603H90.3902V66.6503C90.3902 65.4403 90.0702 64.5703 89.4402 64.0503C88.8102 63.5303 87.9902 63.2603 87.0002 63.2603Z" fill="#231815"/>
<path d="M96.8397 65.4C97.4397 65.4 97.8797 65.59 98.1597 65.98C98.3597 66.27 98.4797 66.6 98.5197 66.96H101.11C100.97 65.58 100.51 64.62 99.7397 64.07C98.9697 63.53 97.9697 63.25 96.7597 63.25C95.3297 63.25 94.2097 63.71 93.3997 64.63C92.5897 65.55 92.1797 66.84 92.1797 68.5C92.1797 69.97 92.5497 71.17 93.2797 72.09C94.0197 73.01 95.1597 73.48 96.7197 73.48C98.2797 73.48 99.4497 72.93 100.25 71.82C100.75 71.13 101.03 70.41 101.08 69.64H98.4997C98.4497 70.15 98.2897 70.56 98.0497 70.88C97.7997 71.2 97.3797 71.36 96.7897 71.36C95.9497 71.36 95.3797 70.96 95.0797 70.15C94.9097 69.72 94.8297 69.15 94.8297 68.44C94.8297 67.73 94.9097 67.1 95.0797 66.65C95.3897 65.8 95.9797 65.38 96.8297 65.38L96.8397 65.4Z" fill="#231815"/>
<path d="M110.83 65.1202C110.39 64.4702 109.83 63.9902 109.16 63.6902C108.49 63.3902 107.73 63.2402 106.88 63.2402C105.46 63.2402 104.31 63.6902 103.42 64.5802C102.53 65.4702 102.09 66.7602 102.09 68.4302C102.09 70.2202 102.58 71.5102 103.57 72.3002C104.55 73.0902 105.69 73.4902 106.98 73.4902C108.54 73.4902 109.75 73.0202 110.62 72.0802C111.18 71.4902 111.49 70.9102 111.56 70.3302H108.98C108.83 70.6102 108.65 70.8402 108.46 71.0002C108.1 71.3002 107.63 71.4402 107.06 71.4402C106.52 71.4402 106.05 71.3202 105.66 71.0802C105.02 70.6902 104.69 70.0102 104.65 69.0402H111.69C111.7 68.2002 111.68 67.5602 111.61 67.1202C111.49 66.3602 111.24 65.6902 110.84 65.1202H110.83ZM104.7 67.3702C104.79 66.7402 105.02 66.2402 105.37 65.8702C105.73 65.5002 106.23 65.3202 106.88 65.3202C107.48 65.3202 107.98 65.4902 108.38 65.8402C108.78 66.1902 109.01 66.7002 109.05 67.3702H104.69H104.7Z" fill="#231815"/>
<path d="M121.5 60.81C121.39 61.2 121.22 61.5 121 61.73C120.68 62.07 120.27 62.29 119.76 62.4C119.44 62.47 118.88 62.52 118.09 62.56V64.28H121.12V73.16H123.71V60.29H121.6C121.6 60.4 121.57 60.57 121.5 60.8V60.81Z" fill="#231815"/>
<path d="M131.78 60.1899C130.51 60.1899 129.47 60.6199 128.68 61.4699C127.88 62.3199 127.49 63.4399 127.49 64.8199C127.49 66.1999 127.89 67.1699 128.68 67.8799C129.47 68.5899 130.38 68.9399 131.4 68.9399C132.09 68.9399 132.68 68.7999 133.15 68.5099C133.41 68.3599 133.66 68.1299 133.89 67.8399C133.84 68.8099 133.73 69.5599 133.54 70.0699C133.2 70.9899 132.62 71.4499 131.78 71.4499C131.35 71.4499 131 71.3299 130.74 71.0999C130.48 70.8599 130.32 70.5599 130.26 70.1799H127.74C127.85 71.2699 128.29 72.1099 129.06 72.6799C129.83 73.2499 130.7 73.5399 131.66 73.5399C133.68 73.5399 135.07 72.5499 135.83 70.5699C136.23 69.5299 136.43 68.2299 136.43 66.6699C136.43 65.1099 136.22 63.7699 135.81 62.7899C135.08 61.0599 133.74 60.1899 131.78 60.1899V60.1899ZM132.93 66.5799C132.62 66.7799 132.29 66.8799 131.95 66.8799C131.3 66.8799 130.83 66.6899 130.52 66.3099C130.21 65.9299 130.05 65.3599 130.05 64.5899C130.05 63.6799 130.29 63.0399 130.78 62.6599C131.09 62.4199 131.46 62.2999 131.89 62.2999C132.48 62.2999 132.95 62.5099 133.29 62.9399C133.63 63.3699 133.8 63.9399 133.8 64.6699C133.8 65.5799 133.51 66.2099 132.94 66.5799H132.93Z" fill="#231815"/>
<path d="M141.89 60.1899C140.62 60.1899 139.58 60.6199 138.79 61.4699C138 62.3199 137.6 63.4399 137.6 64.8199C137.6 66.1999 138 67.1699 138.79 67.8799C139.58 68.5899 140.49 68.9399 141.51 68.9399C142.2 68.9399 142.79 68.7999 143.26 68.5099C143.52 68.3599 143.77 68.1299 144 67.8399C143.95 68.8099 143.84 69.5599 143.65 70.0699C143.31 70.9899 142.73 71.4499 141.89 71.4499C141.46 71.4499 141.11 71.3299 140.85 71.0999C140.59 70.8599 140.43 70.5599 140.37 70.1799H137.85C137.96 71.2699 138.4 72.1099 139.17 72.6799C139.94 73.2499 140.81 73.5399 141.77 73.5399C143.79 73.5399 145.18 72.5499 145.94 70.5699C146.34 69.5299 146.54 68.2299 146.54 66.6699C146.54 65.1099 146.33 63.7699 145.92 62.7899C145.19 61.0599 143.85 60.1899 141.89 60.1899V60.1899ZM143.04 66.5799C142.73 66.7799 142.4 66.8799 142.05 66.8799C141.4 66.8799 140.93 66.6899 140.62 66.3099C140.31 65.9299 140.16 65.3599 140.16 64.5899C140.16 63.6799 140.4 63.0399 140.89 62.6599C141.2 62.4199 141.57 62.2999 142 62.2999C142.59 62.2999 143.06 62.5099 143.4 62.9399C143.74 63.3699 143.91 63.9399 143.91 64.6699C143.91 65.5799 143.62 66.2099 143.05 66.5799H143.04Z" fill="#231815"/>
<path d="M151.83 60.81C151.72 61.2 151.55 61.5 151.33 61.73C151.01 62.07 150.6 62.29 150.09 62.4C149.77 62.47 149.21 62.52 148.42 62.56V64.28H151.45V73.16H154.04V60.29H151.93C151.93 60.4 151.9 60.57 151.83 60.8V60.81Z" fill="#231815"/>
<path d="M56.18 66.1699H0V67.5499H56.18V66.1699Z" fill="#231815"/>
<path d="M221.709 66.1699H165.529V67.5499H221.709V66.1699Z" fill="#231815"/>
</svg>
