<svg width="188" height="37" viewBox="0 0 188 37" fill="none" xmlns="http://www.w3.org/2000/svg">
<path d="M16.8702 7.54043C17.0402 7.32043 17.1102 6.94043 17.1102 6.94043H6.66016C6.66016 6.94043 6.79016 7.37043 6.90016 7.54043H16.8702Z" fill="#AA8420"/>
<path d="M16.2696 8.43016C16.4596 8.26016 16.6596 7.91016 16.6596 7.91016H7.09961C7.09961 7.91016 7.20961 8.17016 7.44961 8.43016H16.2796H16.2696Z" fill="#AA8420"/>
<path d="M15.5095 9.23033C15.7495 9.10033 15.9395 8.84033 15.9395 8.84033H7.76953C7.76953 8.84033 7.95953 9.06033 8.15953 9.23033H15.5195H15.5095Z" fill="#AA8420"/>
<path d="M14.5597 9.99043C14.7897 9.90043 15.0597 9.69043 15.0597 9.69043H8.67969C8.67969 9.69043 8.67969 9.74043 9.12969 9.99043H14.5597V9.99043Z" fill="#AA8420"/>
<path d="M9.85938 10.4604C9.85938 10.4604 10.5294 10.8504 11.8494 10.8504C13.1694 10.8504 14.0094 10.4604 14.0094 10.4604H9.85938Z" fill="#AA8420"/>
<path d="M9.76 11.3503C9.76 11.3503 10.56 11.3903 11.03 11.7603C11.48 12.1503 11.83 12.8003 11.83 12.8003C11.83 12.8003 12.11 12.1803 12.57 11.8503C13.02 11.5003 13.76 11.3503 13.76 11.3503H22L23.62 13.7503H16.22C16.22 13.7503 15.7 13.7703 14.92 14.2303C14.51 14.4603 14.2 14.8803 14.2 14.8803C14.2 14.8803 14.14 15.0703 14.05 15.1803C13.96 15.2903 13.9 15.3803 13.79 15.4203C13.68 15.4603 13.7 15.4403 13.7 15.4403H9.85C9.85 15.4403 9.69 15.3803 9.61 15.2403C9.52 15.1103 9.59 15.1603 9.5 15.0503C9.43 14.9403 9.28 14.6603 8.7 14.2703C8.09 13.8703 7.51 13.8303 7.51 13.8303H0L1.64 11.3403H9.76V11.3503Z" fill="#003477"/>
<path d="M3.92969 14.7402V27.0302C3.92969 27.0302 3.96969 28.1102 4.87969 29.5802C5.78969 31.0502 7.10969 31.7202 7.10969 31.7202L8.14969 30.1002C8.14969 30.1002 7.23969 29.5602 6.54969 28.5202C5.87969 27.4802 5.87969 26.5902 5.87969 26.5902V14.7402H3.92969V14.7402Z" fill="#003477"/>
<path d="M17.8702 14.7002V26.5502C17.8702 26.5502 17.7202 27.7402 17.1502 28.5802C16.5902 29.4502 15.6602 30.1402 15.6602 30.1402L16.6602 31.7402C16.6602 31.7402 18.1702 30.6402 18.9102 29.4702C19.6502 28.3002 19.8202 26.5502 19.8202 26.5502V14.7002H17.8702V14.7002Z" fill="#003477"/>
<path d="M0.839844 14.7402V27.0702C0.839844 27.0702 0.969844 28.9802 2.15984 30.9702C3.34984 32.9602 5.50984 34.3502 5.50984 34.3502L6.52984 32.7302C6.52984 32.7302 5.14984 31.9902 4.03984 30.3002C2.90984 28.5902 2.84984 27.0302 2.84984 27.0302V14.7402H0.839844Z" fill="#003477"/>
<path d="M9.75922 16.04V29.06C9.75922 29.06 9.70922 29.1 9.69922 29.3C9.67922 29.5 9.54922 29.63 9.54922 29.63L5.19922 36.83H18.5292L14.1792 29.47L14.0492 29.14L13.9992 28.8V16.06H12.3792V29.28C12.3792 29.28 12.3792 29.47 12.4492 29.62C12.4892 29.77 12.5792 30.01 12.5792 30.01L15.2592 34.42H8.46922L11.1092 30.03C11.1092 30.03 11.1992 29.88 11.2592 29.67C11.2992 29.47 11.3192 29.28 11.3192 29.28V16.04H9.75922V16.04Z" fill="#AA8420"/>
<path d="M20.8802 14.7002V26.8102C20.8802 26.8102 20.8602 28.3702 19.7102 30.1602C18.5602 31.9602 17.2402 32.7102 17.2402 32.7102L18.2202 34.3502C18.2202 34.3502 20.2102 33.0902 21.4602 31.1002C22.6902 29.1102 22.8502 26.8002 22.8502 26.8002V14.7002H20.8802V14.7002Z" fill="#003477"/>
<path d="M6.59984 6.59C6.59984 6.59 5.92983 2.94 8.60983 1.12C8.60983 1.12 9.81983 0 11.7898 0C13.8898 0 15.0998 1.1 15.0998 1.1C18.0198 3.24 17.1598 6.6 17.1598 6.6H6.59984V6.59Z" fill="#AA8420"/>
<path d="M53.4291 18.16V16.42H44.5991V14.66C47.4091 14.42 49.7691 14.11 51.6691 13.72L50.7691 12C47.9091 12.64 43.6991 12.96 38.1391 12.96C36.9691 12.96 35.9891 12.95 35.1891 12.92L35.8791 14.85C37.2391 14.85 39.4891 14.81 42.6291 14.72V16.42H34.0391V18.16H40.4991C38.6191 19.74 36.4091 20.83 33.8691 21.45L34.8791 23.31C35.7191 23.03 36.3091 22.81 36.6591 22.66V31.64H38.6091V30.68H48.8991V31.64H50.8391V22.56C51.1191 22.71 51.4291 22.84 51.7591 22.94C52.0891 23.04 52.3991 23.15 52.6791 23.27L53.5991 21.37C50.5891 20.77 48.2891 19.7 46.6991 18.17H53.4391L53.4291 18.16ZM42.6291 18.22V22.07H37.8591C39.8291 21.23 41.4191 19.95 42.6291 18.22ZM48.8891 28.93H38.5991V27.09H48.8891V28.93ZM48.8891 25.42H38.5991V23.83H48.8891V25.42ZM49.7691 22.07H44.5991V18.2C45.9091 19.94 47.6291 21.23 49.7691 22.07Z" fill="#003477"/>
<path d="M60.7988 29.6598L62.4688 31.3798C63.6688 29.4798 64.5588 27.4098 65.1288 25.1398L63.3088 24.0698C62.8588 26.0498 62.0288 27.9098 60.7988 29.6498V29.6598Z" fill="#003477"/>
<path d="M65.2582 19.9499C64.1882 19.1299 63.1582 18.4499 62.1682 17.9199L60.9082 19.4899C61.7282 20.0299 62.7082 20.7899 63.8382 21.7499L65.2582 19.9499V19.9499Z" fill="#003477"/>
<path d="M76.19 27.0901V22.8001C77.03 23.5501 78.09 24.3101 79.37 25.0801L80.27 23.2201C78.01 22.1101 76.6 20.9801 76.04 19.8501H80.04V18.0901H76.28V15.9301H79.73V14.2801H76.28V12.1001H74.39V14.2801H70.58V12.1001H68.67V14.2801H65.89V14.5501C65.07 13.9201 64.06 13.2301 62.88 12.4801L61.5 14.0301C62.43 14.6201 63.47 15.4301 64.61 16.4801L65.89 14.8901V16.0201H68.67V18.1101H65.47V19.8701H68.82C68.21 21.1801 66.74 22.3601 64.43 23.4101L65.62 25.1701C66.55 24.5801 67.19 24.1401 67.54 23.8501V28.5401C67.54 29.4901 67.71 30.1401 68.06 30.4901C68.42 30.8201 69.05 30.9901 69.94 30.9901H76.72C77.79 30.9901 78.51 30.8001 78.87 30.4201C79.25 30.0301 79.55 28.8701 79.77 26.9301L77.76 26.2001C77.66 27.3001 77.56 28.0801 77.45 28.5201C77.34 28.9501 76.99 29.1701 76.41 29.1701H70.2C69.71 29.1701 69.47 28.9301 69.47 28.4401V27.1001H76.2L76.19 27.0901ZM70.57 16.0401H74.38V18.0901H70.57V16.0401ZM71.03 19.8501H73.85C74.24 20.5901 74.67 21.2201 75.13 21.7301H69.8C70.32 21.1901 70.73 20.5601 71.03 19.8501ZM69.44 25.4401V23.3901H74.25V25.4401H69.44Z" fill="#003477"/>
<path d="M93.4886 19.5503V19.3603H96.6686V17.5603H93.4886V14.6103C94.5886 14.3903 95.6386 14.1003 96.6486 13.7503L95.9386 12.0303C93.6886 12.8803 91.0086 13.3803 87.8886 13.5403L88.3286 15.3003C89.7486 15.2103 90.8286 15.0903 91.5686 14.9503V17.5703H87.6786V19.3703H91.5086C90.6286 21.6903 89.3086 23.8403 87.5586 25.8403L88.7286 27.7203C90.0986 25.9303 91.0486 24.3703 91.5786 23.0303V31.6303L93.4986 31.5503V21.8403C93.8786 22.3403 94.2386 22.8103 94.6086 23.2403C95.0286 23.7103 95.4486 24.2503 95.8686 24.8303L97.0386 23.0303C96.2386 22.1703 95.0586 21.0103 93.4986 19.5603L93.4886 19.5503Z" fill="#003477"/>
<path d="M102.258 21.0803C100.728 19.9103 99.4282 19.0503 98.3882 18.5103L97.1582 19.9103C98.2582 20.5703 99.5282 21.4903 100.968 22.6903L102.268 21.0803H102.258Z" fill="#003477"/>
<path d="M102.658 16.0402C101.018 14.8402 99.7384 13.9902 98.8284 13.4902L97.5684 14.8702C98.5284 15.4602 99.7884 16.3702 101.338 17.6102L102.658 16.0402V16.0402Z" fill="#003477"/>
<path d="M105.358 11.9199H103.418V23.9499L96.4082 24.9899V26.9399L103.418 25.8699V31.6299H105.358V25.6199L107.248 25.3099V23.3999L105.358 23.7199V11.9199Z" fill="#003477"/>
<path d="M131.719 24.2599C132.459 23.0499 132.919 22.0599 133.099 21.3099V19.5699H128.879V16.7699H133.819V14.8699H128.879V11.9199H126.809V14.8699H122.309V16.2099H119.839V11.9199H117.779V16.2099H114.679V18.1099H117.779V22.3199C116.789 22.5899 115.689 22.7899 114.469 22.9499L114.969 25.2099C115.649 25.0399 116.589 24.8099 117.769 24.4999V28.7699C117.769 29.2299 117.539 29.4599 117.079 29.4599L115.259 29.3999L115.739 31.5099H117.399C118.429 31.5099 119.099 31.3399 119.389 31.0099C119.669 30.6899 119.809 30.0299 119.809 29.0399V23.9099C121.009 23.4999 121.829 23.1899 122.259 22.9499V20.8999C121.739 21.1499 120.929 21.4599 119.809 21.8199V18.1199H122.279L122.299 16.7799H126.799V19.5799H122.659V21.5099H130.959C130.359 23.2699 129.349 24.7099 127.929 25.8399C126.969 24.8799 126.009 23.5499 125.039 21.8399L123.299 22.5299C124.329 24.4099 125.379 25.8999 126.459 26.9899C124.449 28.3399 122.439 29.2399 120.439 29.6899L121.589 31.5899C123.599 31.1699 125.699 30.1199 127.909 28.4299C129.529 29.9099 131.259 30.9499 133.099 31.5499L134.169 29.5799C132.409 29.0899 130.839 28.2799 129.439 27.1299C130.239 26.4299 130.989 25.4799 131.719 24.2599V24.2599Z" fill="#003477"/>
<path d="M156.099 24.7499C154.919 22.8799 154.159 21.0999 153.839 19.3899L160.539 19.4099V17.1899H151.669C151.779 16.0899 151.839 14.3399 151.839 11.9399H149.639C149.639 14.1699 149.549 15.9199 149.369 17.1899H141.799V19.4099H149.019C148.679 21.3799 147.809 23.2799 146.409 25.1199C144.989 26.9599 143.279 28.4499 141.309 29.5799L142.899 31.5699C147.589 28.4899 150.399 24.4299 151.329 19.3899H151.669C153.069 25.0099 155.649 29.0599 159.409 31.5299L161.019 29.6099C158.939 28.2399 157.309 26.6199 156.119 24.7599L156.099 24.7499Z" fill="#003477"/>
<path d="M174.5 15.3002C173.92 14.2702 173.32 13.3302 172.72 12.4902L171.02 13.2502C171.63 14.1102 172.19 15.0702 172.72 16.1402L174.5 15.2902V15.3002Z" fill="#003477"/>
<path d="M179.088 24.16C180.978 23.41 182.648 22.61 184.118 21.77V19.98H171.958V21.77H181.038C179.588 22.45 178.208 22.99 176.898 23.38V24.82H168.818V26.6H176.898V29.41C176.898 29.76 176.678 29.93 176.228 29.93C175.478 29.93 174.758 29.9 174.098 29.84L174.508 31.71H177.398C177.888 31.71 178.318 31.51 178.678 31.12C178.928 30.87 179.068 30.5 179.088 30.01V26.59H187.098V24.81H179.088V24.16V24.16Z" fill="#003477"/>
<path d="M179.259 14.9499C178.709 13.8299 178.139 12.8199 177.559 11.8999L175.859 12.6599C176.429 13.5899 176.959 14.6299 177.469 15.7899L179.249 14.9399L179.259 14.9499Z" fill="#003477"/>
<path d="M183.459 16.4901C184.079 15.4601 184.699 14.1801 185.309 12.6601L183.089 11.8101C182.389 13.7501 181.719 15.3101 181.069 16.4901H168.379V20.9101H170.419V18.2801H185.629V20.8301H187.669V16.5001H183.449L183.459 16.4901Z" fill="#003477"/>
</svg>
