<svg width="188" height="38" viewBox="0 0 188 38" fill="none" xmlns="http://www.w3.org/2000/svg">
<path d="M16.8702 7.9999C17.0402 7.7799 17.1102 7.3999 17.1102 7.3999H6.66016C6.66016 7.3999 6.79016 7.8299 6.90016 7.9999H16.8702Z" fill="#A78236"/>
<path d="M16.2696 8.89012C16.4596 8.72012 16.6596 8.37012 16.6596 8.37012H7.09961C7.09961 8.37012 7.20961 8.63012 7.44961 8.89012H16.2796H16.2696Z" fill="#A78236"/>
<path d="M15.5095 9.68981C15.7495 9.55981 15.9395 9.2998 15.9395 9.2998H7.76953C7.76953 9.2998 7.95953 9.51981 8.15953 9.68981H15.5195H15.5095Z" fill="#A78236"/>
<path d="M14.5597 10.4499C14.7897 10.3599 15.0597 10.1499 15.0597 10.1499H8.67969C8.67969 10.1499 8.67969 10.1999 9.12969 10.4499H14.5597V10.4499Z" fill="#A78236"/>
<path d="M9.85938 10.9199C9.85938 10.9199 10.5294 11.3099 11.8494 11.3099C13.1694 11.3099 14.0094 10.9199 14.0094 10.9199H9.85938Z" fill="#A78236"/>
<path d="M9.76 11.8098C9.76 11.8098 10.56 11.8498 11.03 12.2198C11.48 12.6098 11.83 13.2598 11.83 13.2598C11.83 13.2598 12.11 12.6398 12.57 12.3098C13.02 11.9598 13.76 11.8098 13.76 11.8098H22L23.62 14.2098H16.22C16.22 14.2098 15.7 14.2298 14.92 14.6898C14.51 14.9198 14.2 15.3398 14.2 15.3398C14.2 15.3398 14.14 15.5298 14.05 15.6398C13.96 15.7498 13.9 15.8398 13.79 15.8798C13.68 15.9198 13.7 15.8998 13.7 15.8998H9.85C9.85 15.8998 9.69 15.8398 9.61 15.6998C9.52 15.5698 9.59 15.6198 9.5 15.5098C9.43 15.3998 9.28 15.1198 8.7 14.7298C8.09 14.3298 7.51 14.2898 7.51 14.2898H0L1.64 11.7998H9.76V11.8098Z" fill="#003874"/>
<path d="M3.92969 15.2002V27.4902C3.92969 27.4902 3.96969 28.5702 4.87969 30.0402C5.78969 31.5102 7.10969 32.1802 7.10969 32.1802L8.14969 30.5602C8.14969 30.5602 7.23969 30.0202 6.54969 28.9802C5.87969 27.9402 5.87969 27.0502 5.87969 27.0502V15.2002H3.92969V15.2002Z" fill="#003874"/>
<path d="M17.8702 15.1602V27.0102C17.8702 27.0102 17.7202 28.2002 17.1502 29.0402C16.5902 29.9002 15.6602 30.6002 15.6602 30.6002L16.6602 32.2002C16.6602 32.2002 18.1702 31.1002 18.9102 29.9302C19.6502 28.7602 19.8202 27.0102 19.8202 27.0102V15.1602H17.8702V15.1602Z" fill="#003874"/>
<path d="M0.839844 15.2002V27.5302C0.839844 27.5302 0.969844 29.4402 2.15984 31.4302C3.34984 33.4202 5.50984 34.8102 5.50984 34.8102L6.52984 33.1902C6.52984 33.1902 5.14984 32.4502 4.03984 30.7602C2.90984 29.0502 2.84984 27.4902 2.84984 27.4902V15.2002H0.839844V15.2002Z" fill="#003874"/>
<path d="M9.75922 16.5002V29.5202C9.75922 29.5202 9.70922 29.5602 9.69922 29.7602C9.67922 29.9602 9.54922 30.0902 9.54922 30.0902L5.19922 37.2902H18.5292L14.1792 29.9302L14.0492 29.6002L13.9992 29.2602V16.5202H12.3792V29.7402C12.3792 29.7402 12.3792 29.9302 12.4492 30.0802C12.4892 30.2302 12.5792 30.4702 12.5792 30.4702L15.2592 34.8802H8.46922L11.1092 30.4902C11.1092 30.4902 11.1992 30.3402 11.2592 30.1202C11.2992 29.9202 11.3192 29.7302 11.3192 29.7302V16.4902H9.75922V16.5002Z" fill="#A78236"/>
<path d="M20.8802 15.1599V27.2699C20.8802 27.2699 20.8602 28.8299 19.7102 30.6199C18.5602 32.4199 17.2402 33.1699 17.2402 33.1699L18.2202 34.8099C18.2202 34.8099 20.2102 33.5499 21.4602 31.5599C22.6902 29.5699 22.8502 27.2599 22.8502 27.2599V15.1499H20.8802V15.1599Z" fill="#003874"/>
<path d="M6.59984 7.04996C6.59984 7.04996 5.92983 3.39996 8.60983 1.57996C8.60983 1.57996 9.81983 0.459961 11.7898 0.459961C13.8898 0.459961 15.0998 1.55996 15.0998 1.55996C18.0198 3.69996 17.1598 7.05996 17.1598 7.05996H6.59984V7.04996Z" fill="#A78236"/>
<path d="M44.6209 18.6299V22.4999H49.7909C47.6609 21.6599 45.9309 20.3699 44.6209 18.6299ZM38.6109 29.3699H48.9109V27.5299H38.6109V29.3699ZM48.9109 24.2599H38.6109V25.8499H48.9109V24.2599ZM37.8809 22.4999H42.6509V18.6499C41.4309 20.3799 39.8409 21.6699 37.8809 22.4999ZM50.8509 22.9799V32.0699H48.9109V31.1099H38.6209V32.0699H36.6709V23.0899C36.3209 23.2399 35.7309 23.4599 34.8909 23.7399L33.8809 21.8799C36.4209 21.2699 38.6309 20.1699 40.5209 18.5899H34.0509V16.8499H42.6509V15.1599C39.5109 15.2399 37.2609 15.2899 35.8909 15.2899L35.2009 13.3599C35.9909 13.3899 36.9809 13.3999 38.1509 13.3999C43.7209 13.3999 47.9309 13.0799 50.7909 12.4399L51.6909 14.1599C49.7909 14.5499 47.4309 14.8599 44.6209 15.0999V16.8599H53.4509V18.5999H46.7109C48.3009 20.1299 50.6009 21.1999 53.6209 21.7999L52.7009 23.7099C52.4209 23.5799 52.1109 23.4699 51.7809 23.3699C51.4409 23.2699 51.1409 23.1499 50.8609 22.9899" fill="#003874"/>
<path d="M70.5693 18.5198H74.3793V16.4698H70.5693V18.5198ZM71.0293 20.2798C70.7193 20.9898 70.3093 21.6198 69.7893 22.1598H75.1293C74.6693 21.6398 74.2393 21.0198 73.8493 20.2798H71.0193H71.0293ZM69.4393 25.8698H74.2593V23.8198H69.4393V25.8698V25.8698ZM65.8393 14.7098H68.6293V12.5298H70.5693V14.7098H74.3793V12.5298H76.2693V14.7098H79.7293V16.3598H76.2693V18.5198H80.0393V20.2798H76.0393C76.5993 21.4098 78.0093 22.5298 80.2693 23.6498L79.3693 25.5098C78.0893 24.7398 77.0293 23.9798 76.1893 23.2298V27.5198H69.4293V28.8598C69.4293 29.3498 69.6693 29.5898 70.1593 29.5898H76.3893C76.9793 29.5898 77.3293 29.3698 77.4393 28.9398C77.5493 28.4898 77.6493 27.7198 77.7493 26.6098L79.7593 27.3498C79.5393 29.2898 79.2393 30.4498 78.8593 30.8498C78.4993 31.2298 77.7793 31.4198 76.6993 31.4198H69.8993C69.0093 31.4198 68.3693 31.2498 68.0093 30.9198C67.6593 30.5698 67.4893 29.9198 67.4893 28.9698V24.2798C67.1393 24.5798 66.4993 25.0098 65.5593 25.5998L64.3693 23.8398C66.6893 22.7898 68.1493 21.6098 68.7693 20.2998H65.4193V18.5398H68.6293V16.4498H65.8393V15.3198L64.5593 16.9098C63.4093 15.8598 62.3693 15.0498 61.4393 14.4598L62.8193 12.9098C64.0093 13.6598 65.0093 14.3498 65.8393 14.9898V14.7198V14.7098ZM63.8193 22.1898C62.6893 21.2298 61.7093 20.4698 60.8893 19.9298L62.1493 18.3598C63.1393 18.8898 64.1793 19.5698 65.2493 20.3898L63.8293 22.1898H63.8193ZM65.1193 25.5798C64.5493 27.8398 63.6593 29.9198 62.4593 31.8198L60.7793 30.0998C62.0093 28.3598 62.8493 26.4898 63.2893 24.5098L65.1093 25.5798H65.1193Z" fill="#003874"/>
<path d="M101.31 18.0501C99.7605 16.8101 98.5005 15.8901 97.5405 15.3101L98.8005 13.9301C99.7105 14.4301 100.98 15.2801 102.63 16.4801L101.31 18.0501V18.0501ZM100.93 23.1401C99.4905 21.9401 98.2205 21.0101 97.1205 20.3601L98.3505 18.9601C99.4005 19.5101 100.69 20.3601 102.23 21.5401L100.93 23.1501V23.1401ZM96.3805 27.3901V25.4401L103.39 24.3901V12.3501H105.34V24.1601L107.23 23.8401V25.7501L105.34 26.0701V32.0801H103.39V26.3201L96.3805 27.3901ZM91.5105 15.3901C90.7705 15.5301 89.6905 15.6501 88.2605 15.7501L87.8205 13.9901C90.9505 13.8401 93.6305 13.3301 95.8805 12.4801L96.5905 14.2001C95.5905 14.5501 94.5305 14.8301 93.4305 15.0601V18.0101H96.6105V19.8101H93.4305V20.0001C94.9905 21.4501 96.1705 22.6101 96.9705 23.4801L95.8005 25.2801C95.3805 24.6901 94.9605 24.1601 94.5405 23.6901C94.1805 23.2601 93.8105 22.7901 93.4305 22.2901V32.0101L91.5005 32.0901V23.4801C90.9705 24.8201 90.0205 26.3801 88.6505 28.1701L87.4805 26.2801C89.2405 24.2801 90.5605 22.1301 91.4405 19.8101H87.6105V18.0101H91.5105V15.3901V15.3901Z" fill="#003874"/>
<path d="M122.15 18.5599H119.68V22.2699C120.8 21.9099 121.61 21.5999 122.13 21.3499V23.3999C121.69 23.6399 120.88 23.9599 119.68 24.3599V29.4899C119.68 30.4799 119.54 31.1399 119.26 31.4599C118.96 31.7899 118.3 31.9599 117.26 31.9599H115.61L115.13 29.8399L116.95 29.8999C117.41 29.8999 117.64 29.6699 117.64 29.2099V24.9399C116.45 25.2499 115.52 25.4899 114.83 25.6499L114.33 23.3899C115.54 23.2399 116.65 23.0299 117.64 22.7599V18.5499H114.54V16.6499H117.64V12.3599H119.7V16.6499H122.17V15.3099H126.67V12.3599H128.74V15.3099H133.68V17.2099H128.74V20.0199H132.97V21.7599C132.79 22.5099 132.33 23.4999 131.59 24.7099C130.86 25.9299 130.1 26.8799 129.31 27.5799C130.71 28.7299 132.28 29.5399 134.04 30.0299L132.97 31.9999C131.13 31.3999 129.4 30.3599 127.78 28.8799C125.57 30.5699 123.46 31.6199 121.46 32.0399L120.31 30.1399C122.32 29.6899 124.33 28.7899 126.34 27.4399C125.27 26.3499 124.21 24.8599 123.18 22.9799L124.92 22.2899C125.88 23.9899 126.84 25.3299 127.81 26.2899C129.24 25.1599 130.25 23.7199 130.85 21.9599H122.54V20.0399H126.69V17.2299H122.19L122.17 18.5699L122.15 18.5599Z" fill="#003874"/>
<path d="M153.66 19.8101C153.98 21.5101 154.73 23.3001 155.92 25.1701C157.1 27.0401 158.74 28.6601 160.82 30.0301L159.21 31.9601C155.44 29.4901 152.86 25.4401 151.46 19.8101H151.12C150.18 24.8501 147.37 28.9101 142.68 32.0001L141.09 30.0101C143.07 28.8801 144.77 27.3901 146.2 25.5501C147.61 23.7101 148.48 21.8001 148.82 19.8301H141.6V17.6101H149.18C149.36 16.3401 149.45 14.5901 149.45 12.3501H151.65C151.65 14.7501 151.59 16.5001 151.48 17.6101H160.36V19.8301L153.66 19.8101V19.8101Z" fill="#003874"/>
<path d="M178.26 19.6001C177.62 20.0501 176.8 20.4401 175.81 20.7701L174.91 19.3701C175.87 19.1601 176.6 18.9101 177.09 18.6101C176.81 18.4001 176.34 18.0701 175.69 17.6001L176.78 16.6801C177.05 16.8601 177.29 17.0201 177.51 17.1401C177.78 17.3201 178.07 17.5401 178.39 17.7901C178.81 17.5201 179.29 17.0901 179.84 16.4901L180.95 17.4301C180.43 17.9501 179.96 18.3701 179.52 18.6901C179.92 19.0401 180.33 19.4101 180.72 19.8001L179.38 20.8301C178.74 20.0001 178.37 19.5901 178.27 19.5901L178.26 19.6001ZM178.14 15.3001C177.44 15.7501 176.63 16.1701 175.69 16.5801L174.62 15.1801C175.79 14.8601 176.56 14.5701 176.92 14.3201C176.57 14.0401 176.1 13.7101 175.5 13.3301L176.63 12.3501C177.17 12.7001 177.73 13.0801 178.28 13.5001C178.88 13.0901 179.31 12.7201 179.56 12.3701L180.61 13.3101C180.3 13.7301 179.89 14.1101 179.37 14.4401C179.65 14.6901 180.02 15.0601 180.48 15.5501L179.2 16.4901C178.64 15.6901 178.28 15.3001 178.13 15.3001H178.14ZM185.41 22.8401H170.29V25.9201H168.43V21.1901H169.48L169.25 13.1501C171.06 13.0901 172.6 12.8901 173.86 12.5401L174.78 14.0901C174 14.3601 172.76 14.5401 171.05 14.6601L171.11 15.7301H174.38V17.1601H171.17L171.19 18.3501H174.37V19.8001H171.23L171.27 21.2001H184.38L184.4 19.8001H181.47V18.3501H184.46L184.5 17.1601H181.46V15.7301H184.54L184.56 14.5801H181.23V12.9301H186.4L186.17 21.2001H187.28V25.9301H185.4V22.8501L185.41 22.8401ZM183.53 23.7401V25.2701C182.3 25.9301 180.79 26.5301 178.98 27.0901H187.67V28.7801H178.98V29.6401C178.98 31.1301 178.35 31.8801 177.08 31.8801H174L173.52 30.1801L176.39 30.2601C176.81 30.2601 177.02 30.0501 177.02 29.6301V28.7701H167.93V27.0801H177.02V26.1801C177.98 26.0101 179.2 25.7101 180.69 25.2801H171.87V23.7301H183.54L183.53 23.7401Z" fill="#003874"/>
</svg>
