<svg width="217" height="41" viewBox="0 0 217 41" fill="none" xmlns="http://www.w3.org/2000/svg">
<path d="M18.5898 8.3199C18.7798 8.0799 18.8498 7.6499 18.8498 7.6499H7.33984C7.33984 7.6499 7.47984 8.1299 7.59984 8.3199H18.5898Z" fill="#A28038"/>
<path d="M17.9205 9.29998C18.1305 9.10998 18.3505 8.72998 18.3505 8.72998H7.81055C7.81055 8.72998 7.93055 9.00998 8.19055 9.29998H17.9105H17.9205Z" fill="#A28038"/>
<path d="M17.0908 10.18C17.3508 10.04 17.5708 9.75 17.5708 9.75H8.55078C8.55078 9.75 8.77078 9.99 8.98078 10.18H17.0908Z" fill="#A28038"/>
<path d="M16.0405 11.0102C16.3005 10.9102 16.5905 10.6802 16.5905 10.6802H9.56055C9.56055 10.6802 9.56055 10.7302 10.0605 11.0102H16.0405Z" fill="#A28038"/>
<path d="M10.8691 11.54C10.8691 11.54 11.6091 11.97 13.0591 11.97C14.5091 11.97 15.4391 11.54 15.4391 11.54H10.8691V11.54Z" fill="#A28038"/>
<path d="M10.75 12.5098C10.75 12.5098 11.63 12.5598 12.15 12.9598C12.65 13.3898 13.04 14.1098 13.04 14.1098C13.04 14.1098 13.35 13.4198 13.85 13.0598C14.35 12.6698 15.16 12.5098 15.16 12.5098H24.24L26.03 15.1598H17.87C17.87 15.1598 17.3 15.1898 16.44 15.6898C15.99 15.9498 15.65 16.3998 15.65 16.3998C15.65 16.3998 15.58 16.6098 15.48 16.7298C15.38 16.8498 15.31 16.9498 15.2 16.9898C15.08 17.0398 15.1 17.0098 15.1 17.0098H10.86C10.86 17.0098 10.69 16.9398 10.6 16.7998C10.5 16.6598 10.57 16.7098 10.48 16.5898C10.41 16.4698 10.24 16.1598 9.6 15.7298C8.93 15.2998 8.29 15.2498 8.29 15.2498H0L1.81 12.5098H10.75V12.5098Z" fill="#0D386B"/>
<path d="M4.33031 16.25V29.79C4.33031 29.79 4.38031 30.98 5.38031 32.6C6.38031 34.22 7.83031 34.96 7.83031 34.96L8.97031 33.17C8.97031 33.17 7.97031 32.57 7.21031 31.43C6.47031 30.29 6.47031 29.31 6.47031 29.31V16.25H4.32031H4.33031Z" fill="#0D386B"/>
<path d="M19.6898 16.21V29.27C19.6898 29.27 19.5198 30.58 18.8998 31.51C18.2798 32.46 17.2598 33.23 17.2598 33.23L18.3598 34.99C18.3598 34.99 20.0298 33.77 20.8398 32.49C21.6498 31.2 21.8498 29.27 21.8498 29.27V16.21H19.6998H19.6898Z" fill="#0D386B"/>
<path d="M0.929688 16.25V29.84C0.929688 29.84 1.06969 31.94 2.37969 34.13C3.69969 36.32 6.06969 37.85 6.06969 37.85L7.18969 36.06C7.18969 36.06 5.65969 35.25 4.44969 33.39C3.20969 31.51 3.13969 29.79 3.13969 29.79V16.25H0.929688Z" fill="#0D386B"/>
<path d="M10.7507 17.6899V32.0399C10.7507 32.0399 10.7007 32.0899 10.6807 32.2999C10.6507 32.5199 10.5107 32.6599 10.5107 32.6599L5.7207 40.5899H20.4007L15.6107 32.4799L15.4707 32.1199L15.4207 31.7399V17.6999H13.6307V32.2699C13.6307 32.2699 13.6307 32.4799 13.7007 32.6499C13.7407 32.8099 13.8407 33.0699 13.8407 33.0699L16.7907 37.9299H9.3007L12.2107 33.0899C12.2107 33.0899 12.3107 32.9199 12.3807 32.6899C12.4307 32.4699 12.4507 32.2599 12.4507 32.2599V17.6699H10.7407L10.7507 17.6899Z" fill="#A28038"/>
<path d="M23.0002 16.21V29.56C23.0002 29.56 22.9802 31.28 21.7102 33.25C20.4502 35.23 18.9902 36.07 18.9902 36.07L20.0702 37.88C20.0702 37.88 22.2602 36.49 23.6502 34.3C25.0102 32.11 25.1802 29.56 25.1802 29.56V16.21H23.0102H23.0002Z" fill="#0D386B"/>
<path d="M7.2597 7.27C7.2597 7.27 6.5297 3.24 9.4797 1.24C9.4797 1.24 10.8197 0 12.9797 0C15.2897 0 16.6297 1.21 16.6297 1.21C19.8497 3.57 18.8897 7.27 18.8897 7.27H7.2597V7.27Z" fill="#A28038"/>
<path d="M33.9005 7.87963C34.3805 7.71963 34.7205 7.58963 34.9305 7.50963V12.6796H36.0505V12.1296H41.9805V12.6796H43.1005V7.44963C43.2605 7.53963 43.4405 7.60963 43.6305 7.66963C43.8205 7.71963 44.0005 7.78963 44.1605 7.85963L44.6905 6.75963C42.9605 6.40963 41.6305 5.79963 40.7105 4.90963H44.5905V3.90963H39.5005V2.89963C41.1205 2.75963 42.4805 2.57963 43.5705 2.35963L43.0505 1.36963C41.4005 1.73963 38.9805 1.92963 35.7705 1.92963C35.1005 1.92963 34.5305 1.92963 34.0705 1.90963L34.4705 3.01963C35.2605 3.01963 36.5505 2.99963 38.3605 2.94963V3.92963H33.4105V4.92963H37.1305C36.0405 5.83963 34.7705 6.46963 33.3105 6.81963L33.8905 7.88963L33.9005 7.87963ZM41.9705 11.1196H36.0405V10.0596H41.9705V11.1196ZM39.5005 4.93963C40.2605 5.93963 41.2505 6.68963 42.4805 7.16963H39.5005V4.93963ZM41.9705 8.17963V9.09963H36.0405V8.17963H41.9705ZM38.3705 4.94963V7.16963H35.6205C36.7505 6.68963 37.6705 5.94963 38.3705 4.94963Z" fill="#0D386B"/>
<path d="M51.7409 3.02969V3.67969H53.3409V4.88969H51.4909V5.89969H53.4209C53.0709 6.65969 52.2209 7.32969 50.8909 7.93969L51.5809 8.94969C52.1209 8.60969 52.4909 8.35969 52.6909 8.18969V10.8897C52.6909 11.4397 52.7909 11.8097 52.9909 12.0097C53.2009 12.1997 53.5609 12.2997 54.0709 12.2997H57.9809C58.6009 12.2997 59.0109 12.1897 59.2209 11.9697C59.4409 11.7397 59.6109 11.0697 59.7409 9.95969L58.5809 9.53969C58.5209 10.1797 58.4609 10.6197 58.4009 10.8797C58.3309 11.1297 58.1309 11.2497 57.8009 11.2497H54.2209C53.9409 11.2497 53.8009 11.1097 53.8009 10.8297V10.0597H57.6809V7.58969C58.1609 8.01969 58.7709 8.45969 59.5109 8.89969L60.0309 7.82969C58.7309 7.18969 57.9209 6.53969 57.6009 5.88969H59.9009V4.87969H57.7309V3.63969H59.7209V2.68969H57.7309V1.42969H56.6409V2.67969H54.4409V1.42969H53.3409V2.67969H51.7409V2.83969C51.2709 2.47969 50.6909 2.07969 50.0009 1.63969L49.2109 2.52969C49.7509 2.86969 50.3509 3.33969 51.0109 3.93969L51.7409 3.01969V3.02969ZM54.4409 3.68969H56.6309V4.86969H54.4409V3.68969V3.68969ZM54.7109 5.87969H56.3409C56.5609 6.30969 56.8109 6.66969 57.0709 6.96969H54.0009C54.3009 6.65969 54.5309 6.29969 54.7109 5.87969ZM53.7909 7.91969H56.5609V9.09969H53.7909V7.91969Z" fill="#0D386B"/>
<path d="M51.3809 5.94978C50.7609 5.47978 50.1709 5.08979 49.6009 4.77979L48.8809 5.68979C49.3509 5.99979 49.9109 6.43978 50.5709 6.98978L51.3909 5.94978H51.3809Z" fill="#0D386B"/>
<path d="M51.3008 8.93959L50.2508 8.32959C49.9908 9.46959 49.5108 10.5396 48.8008 11.5496L49.7708 12.5396C50.4608 11.4496 50.9708 10.2496 51.3008 8.94959V8.93959Z" fill="#0D386B"/>
<path d="M69.291 9.96982L73.331 9.35982V12.6698H74.451V9.20982L75.531 9.02982V7.93982L74.451 8.11982V1.31982H73.331V8.24982L69.291 8.84982V9.96982Z" fill="#0D386B"/>
<path d="M72.6607 6.59963C71.7807 5.92963 71.0307 5.42963 70.4307 5.11963L69.7207 5.92963C70.3607 6.30963 71.0907 6.83963 71.9107 7.52963L72.6607 6.59963Z" fill="#0D386B"/>
<path d="M64.8614 10.4196C65.6514 9.38965 66.1914 8.48965 66.5014 7.71965V12.6796L67.6114 12.6296V7.02965C67.8314 7.31965 68.0414 7.58965 68.2514 7.83965C68.4914 8.11965 68.7314 8.41965 68.9714 8.75965L69.6514 7.71965C69.1914 7.21965 68.5114 6.54965 67.6114 5.71965V5.60965H69.4414V4.56965H67.6114V2.86965C68.2414 2.73965 68.8514 2.57965 69.4314 2.37965L69.0214 1.38965C67.7314 1.87965 66.1814 2.16965 64.3814 2.25965L64.6314 3.26965C65.4514 3.21965 66.0714 3.14965 66.5014 3.06965V4.57965H64.2614V5.61965H66.4714C65.9614 6.95965 65.2014 8.19965 64.1914 9.33965L64.8714 10.4296L64.8614 10.4196Z" fill="#0D386B"/>
<path d="M72.8909 3.68973C71.9409 2.99973 71.2109 2.50973 70.6809 2.21973L69.9609 3.01973C70.5109 3.35973 71.2409 3.87973 72.1309 4.59973L72.8909 3.69973V3.68973Z" fill="#0D386B"/>
<path d="M90.3706 12.6298L90.9806 11.4998C89.9706 11.2198 89.0606 10.7498 88.2606 10.0898C88.7206 9.68982 89.1606 9.13982 89.5706 8.43982C90.0006 7.73982 90.2606 7.16982 90.3706 6.73982V5.73982H87.9406V4.12982H90.7906V3.02982H87.9406V1.31982H86.7506V3.01982H84.1606V3.78982H82.7406V1.31982H81.5506V3.78982H79.7706V4.88982H81.5506V7.30982C80.9806 7.45982 80.3406 7.57982 79.6406 7.66982L79.9306 8.96982C80.3206 8.86982 80.8606 8.73982 81.5406 8.55982V11.0198C81.5406 11.2898 81.4106 11.4198 81.1406 11.4198L80.0906 11.3798L80.3706 12.5998H81.3206C81.9206 12.5998 82.3006 12.4998 82.4706 12.3098C82.6306 12.1198 82.7106 11.7498 82.7106 11.1798V8.22982C83.4006 7.99982 83.8706 7.80982 84.1206 7.67982V6.49982C83.8206 6.63982 83.3506 6.81982 82.7106 7.02982V4.89982H84.1306V4.12982H86.7306V5.73982H84.3406V6.84982H89.1306C88.7806 7.85982 88.2006 8.68982 87.3806 9.33982C86.8206 8.78982 86.2706 8.01982 85.7206 7.03982L84.7206 7.43982C85.3106 8.52982 85.9206 9.37982 86.5406 10.0098C85.3806 10.7898 84.2306 11.3098 83.0706 11.5598L83.7306 12.6598C84.8906 12.4198 86.1006 11.8098 87.3706 10.8398C88.3006 11.6898 89.3006 12.2898 90.3606 12.6398L90.3706 12.6298Z" fill="#0D386B"/>
<path d="M95.0508 11.4998L95.9708 12.6498C98.6708 10.8698 100.291 8.53982 100.831 5.62982H101.021C101.821 8.86982 103.311 11.1998 105.481 12.6198L106.411 11.5098C105.211 10.7198 104.271 9.78982 103.591 8.70982C102.911 7.62982 102.471 6.59982 102.291 5.61982H106.151V4.34982H101.041C101.111 3.70982 101.141 2.70982 101.141 1.31982H99.8708C99.8708 2.60982 99.8208 3.61982 99.7108 4.34982H95.3508V5.62982H99.5108C99.3208 6.75982 98.8108 7.85982 98.0008 8.91982C97.1808 9.97982 96.2008 10.8398 95.0608 11.4898L95.0508 11.4998Z" fill="#0D386B"/>
<path d="M115.73 11.2696C115.73 11.5096 115.61 11.6296 115.37 11.6296L113.72 11.5796L114 12.5596H115.77C116.5 12.5596 116.87 12.1296 116.87 11.2696V10.7796H121.87V9.79963H116.87C117.91 9.47963 118.78 9.12963 119.48 8.74963V7.86963H112.76V8.75963H117.84C116.99 9.00963 116.29 9.17963 115.73 9.27963V9.79963H110.5V10.7796H115.73V11.2696V11.2696Z" fill="#0D386B"/>
<path d="M114.34 2.93982L114.95 3.74982C115.49 3.51982 115.96 3.26982 116.36 3.00982C116.45 3.00982 116.65 3.23982 116.97 3.69982L117.7 3.15982C117.44 2.87982 117.22 2.66982 117.06 2.51982C117.36 2.32982 117.6 2.10982 117.77 1.86982L117.17 1.32982C117.02 1.52982 116.78 1.74982 116.43 1.97982C116.11 1.73982 115.79 1.51982 115.48 1.31982L114.83 1.88982C115.17 2.10982 115.45 2.29982 115.65 2.45982C115.44 2.59982 115 2.76982 114.32 2.94982L114.34 2.93982Z" fill="#0D386B"/>
<path d="M117.34 3.69971C117.03 4.04971 116.75 4.29971 116.51 4.44971C116.32 4.29971 116.16 4.17971 116 4.07971C115.87 4.00971 115.73 3.91971 115.58 3.80971L114.96 4.33971C115.34 4.59971 115.61 4.79971 115.77 4.91971C115.49 5.08971 115.07 5.22971 114.51 5.34971L115.03 6.15971C115.6 5.96971 116.07 5.73971 116.44 5.48971C116.49 5.48971 116.71 5.72971 117.08 6.19971L117.85 5.60971C117.63 5.38971 117.4 5.16971 117.16 4.96971C117.41 4.78971 117.68 4.54971 117.98 4.24971L117.34 3.70971V3.69971Z" fill="#0D386B"/>
<path d="M111.83 7.35969H120.54V9.12969H121.63V6.40969H120.99L121.12 1.64969H118.14V2.59969H120.06V3.25969H118.27V4.07969H120.02L119.99 4.76969H118.27V5.59969H119.96V6.40969H112.4L112.37 5.59969H114.18V4.76969H112.35V4.07969H114.18V3.25969H112.3L112.26 2.64969C113.24 2.57969 113.96 2.47969 114.41 2.31969L113.88 1.42969C113.16 1.62969 112.27 1.74969 111.23 1.77969L111.36 6.40969H110.76V9.12969H111.83V7.35969V7.35969Z" fill="#0D386B"/>
<path d="M35.7699 26.2296H36.8799V18.3796H38.9799V17.3696H33.6699V18.3796H35.7699V26.2296Z" fill="#0D386B"/>
<path d="M40.9811 21.9696H45.2011V26.2296H46.3011V17.3696H45.2011V20.9396H40.9811V17.3696H39.8711V26.2296H40.9811V21.9696Z" fill="#0D386B"/>
<path d="M52.7815 25.2196H49.1215V21.8696H52.6715V20.8596H49.1215V18.3796H52.7815V17.3696H48.0215V26.2296H52.7815V25.2196Z" fill="#0D386B"/>
<path d="M58.7799 21.9696H62.9999V26.2296H64.0999V17.3696H62.9999V20.9396H58.7799V17.3696H57.6699V26.2296H58.7799V21.9696Z" fill="#0D386B"/>
<path d="M69.8412 17.1797C67.3012 17.1797 65.2012 19.2597 65.2012 21.7997C65.2012 24.3397 67.2812 26.4197 69.8412 26.4197C72.4012 26.4197 74.4812 24.4297 74.4812 21.7997C74.4812 19.1697 72.3812 17.1797 69.8412 17.1797ZM69.8412 25.3797C67.9212 25.3797 66.3012 23.8197 66.3012 21.7997C66.3012 19.7797 67.7612 18.2197 69.8412 18.2197C71.9212 18.2197 73.3812 19.8497 73.3812 21.7997C73.3812 23.7497 71.7612 25.3797 69.8412 25.3797V25.3797Z" fill="#0D386B"/>
<path d="M82.2105 23.9099L75.5605 16.9399V26.2299H76.6606V19.6199L83.3105 26.5899V17.3699H82.2105V23.9099Z" fill="#0D386B"/>
<path d="M89.5602 22.7699H91.8502C91.8002 24.2199 90.3201 25.3999 88.9501 25.3999C87.0401 25.3999 85.5102 23.6399 85.5102 21.7799C85.5102 19.7899 87.0602 18.1799 89.0502 18.1799C90.1302 18.1799 91.2001 18.7599 91.8401 19.6299L92.6102 18.8899C91.7402 17.7999 90.3802 17.1699 89.0002 17.1699C86.4502 17.1699 84.4102 19.2599 84.4102 21.8099C84.4102 24.3599 86.4102 26.3999 88.8902 26.3999C91.3702 26.3999 93.0802 24.5299 93.0802 22.0999V21.7499H89.5702V22.7599L89.5602 22.7699Z" fill="#0D386B"/>
<path d="M97.8008 17.3696V26.2296H98.9108V22.5196L99.3508 22.0996L102.691 26.2296H104.181L100.131 21.3496L104.111 17.3696H102.671L98.9108 21.2096V17.3696H97.8008Z" fill="#0D386B"/>
<path d="M108.99 17.1797C106.45 17.1797 104.35 19.2597 104.35 21.7997C104.35 24.3397 106.43 26.4197 108.99 26.4197C111.55 26.4197 113.63 24.4297 113.63 21.7997C113.63 19.1697 111.53 17.1797 108.99 17.1797ZM108.99 25.3797C107.07 25.3797 105.45 23.8197 105.45 21.7997C105.45 19.7797 106.91 18.2197 108.99 18.2197C111.07 18.2197 112.53 19.8497 112.53 21.7997C112.53 23.7497 110.91 25.3797 108.99 25.3797V25.3797Z" fill="#0D386B"/>
<path d="M121.361 23.9099L114.711 16.9399V26.2299H115.811V19.6199L122.471 26.5899V17.3699H121.361V23.9099Z" fill="#0D386B"/>
<path d="M128.72 22.7699H131.01C130.96 24.2199 129.48 25.3999 128.11 25.3999C126.19 25.3999 124.67 23.6399 124.67 21.7799C124.67 19.7899 126.22 18.1799 128.21 18.1799C129.29 18.1799 130.36 18.7599 131 19.6299L131.78 18.8899C130.91 17.7999 129.55 17.1699 128.17 17.1699C125.62 17.1699 123.58 19.2599 123.58 21.8099C123.58 24.3599 125.58 26.3999 128.06 26.3999C130.54 26.3999 132.25 24.5299 132.25 22.0999V21.7499H128.74V22.7599L128.72 22.7699Z" fill="#0D386B"/>
<path d="M143.291 22.9699V17.3599H142.191V22.5899C142.191 24.0399 141.761 25.3699 140.051 25.3699C138.341 25.3699 137.911 24.0299 137.911 22.5899V17.3599H136.811V22.9699C136.811 24.9199 138.021 26.4099 140.051 26.4099C142.081 26.4099 143.291 24.9199 143.291 22.9699V22.9699Z" fill="#0D386B"/>
<path d="M145.93 19.6199L152.58 26.5899V17.3699H151.48V23.9099L144.83 16.9399V26.2299H145.93V19.6199Z" fill="#0D386B"/>
<path d="M155.34 17.3696H154.24V26.2296H155.34V17.3696Z" fill="#0D386B"/>
<path d="M162.671 17.3696L160.041 23.9196L157.401 17.3696H156.191L160.041 26.6996L163.881 17.3696H162.671Z" fill="#0D386B"/>
<path d="M169.51 25.2196H165.86V21.8696H169.41V20.8596H165.86V18.3796H169.51V17.3696H164.75V26.2296H169.51V25.2196Z" fill="#0D386B"/>
<path d="M172.1 22.4799H172.56L175.17 26.2299H176.51L173.71 22.3799C174.99 22.2299 175.84 21.1699 175.84 19.8999C175.84 19.0499 175.42 18.2199 174.68 17.7899C173.98 17.3899 173.13 17.3799 172.34 17.3799H171V26.2399H172.11V22.4899L172.1 22.4799ZM172.1 18.3599H172.39C173.48 18.3599 174.8 18.5599 174.8 19.9499C174.8 21.3399 173.58 21.5699 172.45 21.5699H172.1V18.3599Z" fill="#0D386B"/>
<path d="M179.851 25.3799C178.901 25.3799 178.121 24.6799 178.131 23.6999L177.021 23.9399C177.211 25.3599 178.321 26.4199 179.751 26.4199C181.341 26.4199 182.581 25.2699 182.581 23.6599C182.581 22.1799 181.641 21.4899 180.381 20.9899L179.741 20.7399C179.191 20.5299 178.511 20.1699 178.511 19.4699C178.511 18.6899 179.291 18.2099 179.991 18.2099C180.691 18.2099 181.081 18.4899 181.411 19.0399L182.291 18.5099C181.811 17.6499 181.001 17.1699 180.011 17.1699C178.671 17.1699 177.401 18.0299 177.401 19.4599C177.401 20.6899 178.321 21.2699 179.331 21.7099L179.941 21.9699C180.701 22.2899 181.471 22.6999 181.471 23.6499C181.471 24.5999 180.791 25.3799 179.841 25.3799H179.851Z" fill="#0D386B"/>
<path d="M184.991 17.3696H183.881V26.2296H184.991V17.3696Z" fill="#0D386B"/>
<path d="M185.941 18.3796H188.041V26.2296H189.151V18.3796H191.251V17.3696H185.941V18.3796Z" fill="#0D386B"/>
<path d="M194.76 21.1496L192.59 17.3696H191.32L194.21 22.3696V26.2296H195.32V22.3696L198.21 17.3696H196.94L194.76 21.1496Z" fill="#0D386B"/>
<path d="M206.62 17.1797C204.08 17.1797 201.98 19.2597 201.98 21.7997C201.98 24.3397 204.06 26.4197 206.62 26.4197C209.18 26.4197 211.26 24.4297 211.26 21.7997C211.26 19.1697 209.16 17.1797 206.62 17.1797ZM206.62 25.3797C204.7 25.3797 203.08 23.8197 203.08 21.7997C203.08 19.7797 204.54 18.2197 206.62 18.2197C208.7 18.2197 210.16 19.8497 210.16 21.7997C210.16 23.7497 208.54 25.3797 206.62 25.3797V25.3797Z" fill="#0D386B"/>
<path d="M216.72 18.3796V17.3696H212.43V26.2296H213.54V21.8796H216.62V20.8696H213.54V18.3796H216.72Z" fill="#0D386B"/>
<path d="M37.3913 35.08L36.7612 34.83C36.2112 34.62 35.5312 34.26 35.5312 33.56C35.5312 32.78 36.3012 32.3 37.0112 32.3C37.7212 32.3 38.1013 32.58 38.4313 33.14L39.3113 32.61C38.8313 31.75 38.0213 31.27 37.0312 31.27C35.6912 31.27 34.4212 32.13 34.4212 33.56C34.4212 34.79 35.3412 35.37 36.3512 35.81L36.9613 36.07C37.7213 36.39 38.4913 36.8 38.4913 37.75C38.4913 38.7 37.8113 39.48 36.8613 39.48C35.9113 39.48 35.1313 38.78 35.1513 37.8L34.0312 38.04C34.2212 39.46 35.3313 40.52 36.7713 40.52C38.3613 40.52 39.6012 39.37 39.6012 37.76C39.6012 36.28 38.6613 35.59 37.4013 35.09L37.3913 35.08Z" fill="#0D386B"/>
<path d="M40.4297 35.9398C40.4297 38.4998 42.5197 40.5098 45.0497 40.5098C45.8197 40.5098 46.6897 40.2898 47.3797 39.8898V38.5898C46.7197 39.1798 45.8897 39.5098 45.0197 39.5098C43.0497 39.5098 41.5397 37.8498 41.5397 35.9098C41.5397 33.9698 43.0497 32.2898 45.0397 32.2898C45.8697 32.2898 46.7397 32.5998 47.3797 33.1598V31.8798C46.7097 31.4698 45.9197 31.2798 45.1497 31.2798C42.5397 31.2798 40.4397 33.3298 40.4397 35.9498L40.4297 35.9398Z" fill="#0D386B"/>
<path d="M49.8715 31.46H48.7715V40.32H49.8715V31.46Z" fill="#0D386B"/>
<path d="M51.6504 40.32H56.4104V39.31H52.7504V35.96H56.3004V34.95H52.7504V32.47H56.4104V31.46H51.6504V40.32Z" fill="#0D386B"/>
<path d="M64.4313 38.01L57.7812 31.04V40.32H58.8913V33.72L65.5413 40.69V31.46H64.4313V38.01Z" fill="#0D386B"/>
<path d="M66.7305 35.9398C66.7305 38.4998 68.8205 40.5098 71.3505 40.5098C72.1205 40.5098 72.9905 40.2898 73.6805 39.8898V38.5898C73.0205 39.1798 72.1905 39.5098 71.3205 39.5098C69.3505 39.5098 67.8405 37.8498 67.8405 35.9098C67.8405 33.9698 69.3605 32.2898 71.3405 32.2898C72.1705 32.2898 73.0405 32.5998 73.6805 33.1598V31.8798C73.0105 31.4698 72.2205 31.2798 71.4505 31.2798C68.8405 31.2798 66.7405 33.3298 66.7405 35.9498L66.7305 35.9398Z" fill="#0D386B"/>
<path d="M75.1113 40.32H79.8713V39.31H76.2213V35.96H79.7713V34.95H76.2213V32.47H79.8713V31.46H75.1113V40.32Z" fill="#0D386B"/>
<path d="M83.9199 40.3196H85.1099L86.1199 38.0996H90.1899L91.1999 40.3196H92.3899L88.1599 31.0796L83.9299 40.3196H83.9199ZM86.5799 37.0896L88.1599 33.5096L89.7299 37.0896H86.5799V37.0896Z" fill="#0D386B"/>
<path d="M99.7906 38.01L93.1406 31.04V40.32H94.2406V33.72L100.891 40.69V31.46H99.7906V38.01Z" fill="#0D386B"/>
<path d="M104.32 31.46H102.49V40.32H104.29C107.09 40.32 109.3 38.86 109.3 35.84C109.3 32.82 107.04 31.46 104.33 31.46H104.32ZM103.98 39.31H103.59V32.47H103.98C106.24 32.47 108.19 33.3 108.19 35.89C108.19 38.48 106.24 39.31 103.98 39.31Z" fill="#0D386B"/>
<path d="M113.211 32.47H115.311V40.32H116.411V32.47H118.511V31.46H113.211V32.47Z" fill="#0D386B"/>
<path d="M119.5 40.32H124.26V39.31H120.61V35.96H124.16V34.95H120.61V32.47H124.26V31.46H119.5V40.32Z" fill="#0D386B"/>
<path d="M125.25 35.9398C125.25 38.4998 127.34 40.5098 129.87 40.5098C130.65 40.5098 131.52 40.2898 132.2 39.8898V38.5898C131.54 39.1798 130.71 39.5098 129.84 39.5098C127.87 39.5098 126.36 37.8498 126.36 35.9098C126.36 33.9698 127.88 32.2898 129.86 32.2898C130.7 32.2898 131.57 32.5998 132.2 33.1598V31.8798C131.53 31.4698 130.74 31.2798 129.97 31.2798C127.36 31.2798 125.26 33.3298 125.26 35.9498L125.25 35.9398Z" fill="#0D386B"/>
<path d="M138.861 35.04H134.641V31.46H133.531V40.32H134.641V36.07H138.861V40.32H139.961V31.46H138.861V35.04Z" fill="#0D386B"/>
<path d="M148.22 38.01L141.57 31.04V40.32H142.68V33.72L149.32 40.69V31.46H148.22V38.01Z" fill="#0D386B"/>
<path d="M155.04 31.27C152.5 31.27 150.4 33.35 150.4 35.89C150.4 38.43 152.48 40.51 155.04 40.51C157.6 40.51 159.68 38.52 159.68 35.89C159.68 33.26 157.58 31.27 155.04 31.27ZM155.04 39.47C153.12 39.47 151.5 37.91 151.5 35.89C151.5 33.87 152.96 32.31 155.04 32.31C157.12 32.31 158.57 33.94 158.57 35.89C158.57 37.84 156.95 39.47 155.04 39.47Z" fill="#0D386B"/>
<path d="M161.971 31.46H160.871V40.32H164.661V39.31H161.971V31.46Z" fill="#0D386B"/>
<path d="M169.521 31.27C166.981 31.27 164.881 33.35 164.881 35.89C164.881 38.43 166.961 40.51 169.521 40.51C172.081 40.51 174.161 38.52 174.161 35.89C174.161 33.26 172.061 31.27 169.521 31.27ZM169.521 39.47C167.611 39.47 165.981 37.91 165.981 35.89C165.981 33.87 167.441 32.31 169.521 32.31C171.601 32.31 173.061 33.94 173.061 35.89C173.061 37.84 171.441 39.47 169.521 39.47Z" fill="#0D386B"/>
<path d="M179.91 36.87H182.2C182.15 38.32 180.67 39.5 179.3 39.5C177.38 39.5 175.86 37.74 175.86 35.88C175.86 33.89 177.41 32.28 179.4 32.28C180.48 32.28 181.55 32.86 182.19 33.73L182.97 32.99C182.1 31.9 180.74 31.27 179.36 31.27C176.81 31.27 174.76 33.36 174.76 35.91C174.76 38.46 176.76 40.5 179.24 40.5C181.72 40.5 183.43 38.63 183.43 36.2V35.85H179.92V36.86L179.91 36.87Z" fill="#0D386B"/>
<path d="M187.161 35.25L184.991 31.46H183.721L186.611 36.47V40.32H187.711V36.47L190.611 31.46H189.331L187.161 35.25Z" fill="#0D386B"/>
</svg>
