<svg width="119" height="66" viewBox="0 0 119 66" fill="none" xmlns="http://www.w3.org/2000/svg">
<path d="M65.6705 8.60992C65.8605 8.35992 65.9305 7.91992 65.9305 7.91992H54.4805C54.4805 7.91992 54.6205 8.40992 54.7405 8.60992H65.6705Z" fill="#AA8420"/>
<path d="M65.0092 9.61978C65.2192 9.41978 65.4392 9.02979 65.4392 9.02979H54.9492C54.9492 9.02979 55.0692 9.31978 55.3292 9.61978H65.0092Z" fill="#AA8420"/>
<path d="M64.1797 10.5298C64.4397 10.3798 64.6497 10.0898 64.6497 10.0898H55.6797C55.6797 10.0898 55.8997 10.3398 56.1097 10.5298H64.1697H64.1797Z" fill="#AA8420"/>
<path d="M63.1297 11.39C63.3897 11.29 63.6697 11.04 63.6697 11.04H56.6797C56.6797 11.04 56.6797 11.09 57.1797 11.39H63.1297V11.39Z" fill="#AA8420"/>
<path d="M57.9902 11.9302C57.9902 11.9302 58.7302 12.3702 60.1702 12.3702C61.6102 12.3702 62.5402 11.9302 62.5402 11.9302H57.9902V11.9302Z" fill="#AA8420"/>
<path d="M57.8697 12.9399C57.8697 12.9399 58.7497 12.9899 59.2697 13.4099C59.7697 13.8599 60.1497 14.5899 60.1497 14.5899C60.1497 14.5899 60.4597 13.8799 60.9597 13.5099C61.4597 13.1099 62.2597 12.9399 62.2597 12.9399H71.2997L73.0797 15.6799H64.9697C64.9697 15.6799 64.3997 15.6999 63.5497 16.2199C63.0997 16.4899 62.7697 16.9599 62.7697 16.9599C62.7697 16.9599 62.6997 17.1799 62.5997 17.2999C62.5097 17.4199 62.4297 17.5299 62.3197 17.5699C62.1997 17.6199 62.2197 17.5899 62.2197 17.5899H57.9997C57.9997 17.5899 57.8297 17.5199 57.7397 17.3699C57.6497 17.2199 57.7197 17.2699 57.6197 17.1499C57.5497 17.0299 57.3797 16.6999 56.7397 16.2599C56.0797 15.8099 55.4297 15.7699 55.4297 15.7699H47.1797L48.9797 12.9399H57.8797H57.8697Z" fill="#003477"/>
<path d="M51.4807 16.8101V30.8101C51.4807 30.8101 51.5307 32.0501 52.5307 33.7201C53.5307 35.4001 54.9707 36.1601 54.9707 36.1601L56.1107 34.3101C56.1107 34.3101 55.1107 33.6901 54.3507 32.5101C53.6107 31.3301 53.6107 30.3201 53.6107 30.3201V16.8201H51.4707L51.4807 16.8101Z" fill="#003477"/>
<path d="M66.7598 16.76V30.26C66.7598 30.26 66.5898 31.61 65.9798 32.58C65.3598 33.57 64.3398 34.35 64.3398 34.35L65.4398 36.17C65.4398 36.17 67.0998 34.92 67.8998 33.58C68.7098 32.25 68.8998 30.25 68.8998 30.25V16.75H66.7598V16.76Z" fill="#003477"/>
<path d="M48.0998 16.8101V30.8601C48.0998 30.8601 48.2398 33.0301 49.5398 35.3001C50.8498 37.5601 53.2098 39.1401 53.2098 39.1401L54.3298 37.2901C54.3298 37.2901 52.8098 36.4501 51.5998 34.5301C50.3598 32.5801 50.2998 30.8101 50.2998 30.8101V16.8101H48.0898H48.0998Z" fill="#003477"/>
<path d="M57.8691 18.29V33.13C57.8691 33.13 57.8191 33.18 57.7991 33.4C57.7791 33.62 57.6291 33.77 57.6291 33.77L52.8691 41.97H67.4791L62.7091 33.59L62.5691 33.22L62.5191 32.83V18.32H60.7391V33.38C60.7391 33.38 60.7391 33.6 60.8091 33.77C60.8491 33.94 60.9491 34.21 60.9491 34.21L63.8891 39.24H56.4391L59.3291 34.24C59.3291 34.24 59.4191 34.07 59.4991 33.82C59.5491 33.6 59.5691 33.38 59.5691 33.38V18.29H57.8591H57.8691Z" fill="#AA8420"/>
<path d="M70.0603 16.7598V30.5598C70.0603 30.5598 70.0403 32.3298 68.7803 34.3798C67.5203 36.4298 66.0703 37.2898 66.0703 37.2898L67.1403 39.1598C67.1403 39.1598 69.3203 37.7298 70.7003 35.4598C72.0503 33.1898 72.2203 30.5598 72.2203 30.5598V16.7598H70.0603V16.7598Z" fill="#003477"/>
<path d="M54.4007 7.52C54.4007 7.52 53.6707 3.36 56.6107 1.28C56.6107 1.28 57.9407 0 60.1007 0C62.4007 0 63.7307 1.25 63.7307 1.25C66.9307 3.69 65.9807 7.51 65.9807 7.51H54.4007V7.52Z" fill="#AA8420"/>
<path d="M15.16 55.04V53.69H8.32V52.33C10.5 52.15 12.33 51.9 13.8 51.6L13.1 50.27C10.89 50.77 7.62 51.02 3.31 51.02C2.4 51.02 1.64 51.01 1.02 50.99L1.56 52.48C2.62 52.48 4.36 52.45 6.79 52.38V53.7H0.130001V55.05H5.14C3.68 56.27 1.97 57.12 0 57.6L0.780003 59.04C1.43 58.82 1.89 58.66 2.16 58.54V65.5H3.67V64.76H11.64V65.5H13.15V58.46C13.37 58.58 13.6 58.68 13.86 58.75C14.12 58.83 14.36 58.91 14.57 59.01L15.28 57.54C12.95 57.07 11.16 56.25 9.93 55.06H15.15L15.16 55.04ZM6.79 55.09V58.07H3.09C4.61 57.42 5.85 56.43 6.79 55.09ZM11.64 63.39H3.66V61.96H11.64V63.39ZM11.64 60.67H3.66V59.44H11.64V60.67ZM12.32 58.08H8.32V55.08C9.34 56.43 10.67 57.43 12.32 58.08Z" fill="#003477"/>
<path d="M20.8496 63.9501L22.1496 65.2801C23.0796 63.8101 23.7696 62.2001 24.2096 60.4501L22.7996 59.6201C22.4596 61.1501 21.8096 62.6001 20.8596 63.9501H20.8496Z" fill="#003477"/>
<path d="M24.3095 56.4303C23.4795 55.7903 22.6795 55.2704 21.9095 54.8604L20.9395 56.0804C21.5795 56.5004 22.3294 57.0804 23.2094 57.8304L24.3095 56.4404V56.4303Z" fill="#003477"/>
<path d="M32.7809 61.9603V58.6404C33.4309 59.2204 34.2509 59.8104 35.2409 60.4104L35.9409 58.9704C34.1909 58.1004 33.1009 57.2304 32.6609 56.3604H35.7609V55.0004H32.8409V53.3304H35.5109V52.0504H32.8409V50.3604H31.3809V52.0504H28.4209V50.3604H26.9409V52.0504H24.7809V52.2603C24.1409 51.7703 23.3709 51.2403 22.4509 50.6503L21.3809 51.8504C22.1009 52.3004 22.9109 52.9404 23.7909 53.7504L24.7809 52.5204V53.3904H26.9409V55.0103H24.4609V56.3703H27.0509C26.5709 57.3903 25.4409 58.3004 23.6509 59.1104L24.5809 60.4704C25.3009 60.0204 25.8009 59.6803 26.0709 59.4503V63.0804C26.0709 63.8104 26.2109 64.3203 26.4809 64.5903C26.7609 64.8503 27.2509 64.9803 27.9409 64.9803H33.1909C34.0209 64.9803 34.5809 64.8303 34.8609 64.5403C35.1509 64.2403 35.3809 63.3304 35.5609 61.8304L34.0009 61.2603C33.9209 62.1203 33.8409 62.7103 33.7609 63.0603C33.6709 63.4003 33.4009 63.5603 32.9509 63.5603H28.1409C27.7609 63.5603 27.5709 63.3704 27.5709 62.9904V61.9503H32.7909L32.7809 61.9603ZM28.4209 53.4003H31.3709V54.9904H28.4209V53.4003ZM28.7809 56.3504H30.9709C31.2709 56.9204 31.6009 57.4103 31.9609 57.8103H27.8309C28.2309 57.3903 28.5509 56.9004 28.7909 56.3504H28.7809ZM27.5509 60.6803V59.0903H31.2809V60.6803H27.5509Z" fill="#003477"/>
<path d="M52.8995 57.3001C51.7095 56.3901 50.7095 55.7301 49.8995 55.3101L48.9395 56.4001C49.7895 56.9101 50.7795 57.6301 51.8895 58.5601L52.8995 57.3101V57.3001Z" fill="#003477"/>
<path d="M53.2095 53.3999C51.9395 52.4699 50.9495 51.8099 50.2395 51.4199L49.2695 52.4899C50.0095 52.9399 50.9895 53.6499 52.1895 54.6099L53.2095 53.3899V53.3999Z" fill="#003477"/>
<path d="M55.2994 50.2002H53.7994V59.5302L48.3594 60.3402V61.8402L53.7994 61.0202V65.4802H55.2994V60.8202L56.7594 60.5802V59.1002L55.2994 59.3502V50.2002Z" fill="#003477"/>
<path d="M46.1 56.1203V55.9703H48.57V54.5803H46.1V52.2903C46.95 52.1203 47.77 51.9003 48.55 51.6303L48 50.3003C46.26 50.9603 44.18 51.3503 41.76 51.4703L42.1 52.8303C43.2 52.7603 44.04 52.6603 44.61 52.5603V54.5903H41.59V55.9803H44.56C43.88 57.7803 42.86 59.4403 41.5 60.9903L42.41 62.4503C43.47 61.0703 44.2 59.8503 44.61 58.8203V65.4803L46.1 65.4203V57.8903C46.39 58.2803 46.68 58.6403 46.96 58.9803C47.28 59.3503 47.61 59.7603 47.93 60.2103L48.84 58.8103C48.22 58.1403 47.31 57.2403 46.1 56.1203V56.1203Z" fill="#003477"/>
<path d="M75.6298 59.7702C76.1998 58.8302 76.5598 58.0702 76.6998 57.4802V56.1302H73.4298V53.9602H77.2598V52.4902H73.4298V50.2002H71.8198V52.4902H68.3298V53.5302H66.4198V50.2102H64.8198V53.5302H62.4198V55.0102H64.8198V58.2702C64.0498 58.4802 63.1998 58.6402 62.2598 58.7602L62.6498 60.5102C63.1798 60.3802 63.8998 60.2002 64.8198 59.9602V63.2702C64.8198 63.6302 64.6398 63.8102 64.2898 63.8102L62.8798 63.7602L63.2498 65.4002H64.5298C65.3298 65.4002 65.8498 65.2702 66.0698 65.0102C66.2898 64.7602 66.3998 64.2502 66.3998 63.4902V59.5202C67.3298 59.2102 67.9598 58.9602 68.2998 58.7802V57.1902C67.8998 57.3802 67.2698 57.6202 66.3998 57.9002V55.0302H68.3098V53.9902H71.8098V56.1602H68.5998V57.6502H75.0398C74.5798 59.0102 73.7898 60.1302 72.6898 61.0102C71.9398 60.2602 71.1998 59.2302 70.4498 57.9102L69.0998 58.4502C69.8998 59.9102 70.7198 61.0602 71.5498 61.9002C69.9898 62.9502 68.4398 63.6502 66.8798 63.9902L67.7698 65.4602C69.3298 65.1402 70.9598 64.3202 72.6698 63.0102C73.9298 64.1602 75.2598 64.9602 76.6898 65.4302L77.5198 63.9002C76.1598 63.5202 74.9398 62.8902 73.8598 62.0002C74.4798 61.4602 75.0698 60.7202 75.6298 59.7802V59.7702Z" fill="#003477"/>
<path d="M94.4605 60.15C93.5405 58.7 92.9605 57.32 92.7105 56L97.9005 56.02V54.3H91.0305C91.1205 53.44 91.1605 52.09 91.1605 50.23H89.4605C89.4605 51.96 89.3905 53.32 89.2505 54.3H83.3805V56.02H88.9705C88.7105 57.55 88.0405 59.02 86.9405 60.45C85.8405 61.88 84.5205 63.03 82.9805 63.9L84.2105 65.44C87.8405 63.05 90.0205 59.9 90.7505 56H91.0105C92.0905 60.36 94.0905 63.49 97.0105 65.41L98.2605 63.92C96.6505 62.86 95.3805 61.61 94.4605 60.16V60.15Z" fill="#003477"/>
<path d="M108.649 52.8201C108.199 52.0201 107.739 51.3001 107.269 50.6401L105.949 51.2301C106.419 51.8901 106.859 52.6401 107.269 53.4701L108.649 52.8101V52.8201Z" fill="#003477"/>
<path d="M112.351 52.5499C111.921 51.6899 111.481 50.8999 111.031 50.1899L109.711 50.7799C110.151 51.4999 110.561 52.3099 110.961 53.2099L112.341 52.5499H112.351Z" fill="#003477"/>
<path d="M112.21 59.6902C113.67 59.1102 114.97 58.4902 116.1 57.8302V56.4502H106.67V57.8302H113.7C112.58 58.3602 111.51 58.7802 110.49 59.0802V60.1902H104.23V61.5702H110.49V63.7502C110.49 64.0202 110.32 64.1602 109.97 64.1602C109.38 64.1602 108.83 64.1402 108.32 64.0902L108.64 65.5402H110.88C111.26 65.5402 111.59 65.3902 111.87 65.0802C112.06 64.8902 112.17 64.6002 112.19 64.2202V61.5702H118.4V60.1902H112.19V59.6802L112.21 59.6902Z" fill="#003477"/>
<path d="M115.6 53.7501C116.08 52.9501 116.56 51.9601 117.03 50.7801L115.31 50.1201C114.77 51.6301 114.25 52.8301 113.74 53.7501H103.91V57.1701H105.5V55.1301H117.29V57.1001H118.88V53.7401H115.61L115.6 53.7501Z" fill="#003477"/>
</svg>
