<svg width="119" height="101" viewBox="0 0 119 101" fill="none" xmlns="http://www.w3.org/2000/svg">
<path d="M65.6292 9.56004C65.8492 9.28004 65.9292 8.79004 65.9292 8.79004H52.6992C52.6992 8.79004 52.8592 9.34004 52.9992 9.56004H65.6292V9.56004Z" fill="#AA8420"/>
<path d="M64.8602 10.68C65.1102 10.46 65.3502 10.02 65.3502 10.02H53.2402C53.2402 10.02 53.3802 10.35 53.6802 10.68H64.8502H64.8602Z" fill="#AA8420"/>
<path d="M63.9094 11.7C64.2094 11.54 64.4594 11.21 64.4594 11.21H54.1094C54.1094 11.21 54.3594 11.49 54.5994 11.7H63.9094Z" fill="#AA8420"/>
<path d="M62.7 12.66C63 12.55 63.33 12.27 63.33 12.27H55.25C55.25 12.27 55.25 12.33 55.82 12.66H62.69H62.7Z" fill="#AA8420"/>
<path d="M56.75 13.25C56.75 13.25 57.6 13.75 59.27 13.75C60.94 13.75 62.01 13.25 62.01 13.25H56.75V13.25Z" fill="#AA8420"/>
<path d="M56.6193 14.3799C56.6193 14.3799 57.6293 14.4299 58.2293 14.8999C58.8093 15.3999 59.2493 16.2199 59.2493 16.2199C59.2493 16.2199 59.5993 15.4299 60.1793 15.0199C60.7593 14.5799 61.6893 14.3899 61.6893 14.3899H72.1293L74.1893 17.4299H64.8193C64.8193 17.4299 64.1593 17.4599 63.1793 18.0399C62.6593 18.3399 62.2693 18.8599 62.2693 18.8599C62.2693 18.8599 62.1893 19.1099 62.0793 19.2399C61.9693 19.3799 61.8893 19.4899 61.7493 19.5399C61.6093 19.5999 61.6393 19.5699 61.6393 19.5699H56.7693C56.7693 19.5699 56.5693 19.4899 56.4693 19.3199C56.3593 19.1599 56.4393 19.2099 56.3293 19.0799C56.2493 18.9399 56.0493 18.5799 55.3193 18.0899C54.5493 17.5899 53.8093 17.5399 53.8093 17.5399H44.2793L46.3593 14.3899H56.6293L56.6193 14.3799Z" fill="#003477"/>
<path d="M49.25 18.6802V34.2402C49.25 34.2402 49.31 35.6102 50.46 37.4702C51.61 39.3302 53.28 40.1802 53.28 40.1802L54.6 38.1302C54.6 38.1302 53.45 37.4402 52.57 36.1302C51.72 34.8202 51.72 33.6902 51.72 33.6902V18.6802H49.25V18.6802Z" fill="#003477"/>
<path d="M66.8898 18.6199V33.6299C66.8898 33.6299 66.6999 35.1399 65.9799 36.2099C65.2699 37.3099 64.0898 38.1799 64.0898 38.1799L65.3498 40.1999C65.3498 40.1999 67.2598 38.8099 68.1998 37.3199C69.1298 35.8399 69.3498 33.6199 69.3498 33.6199V18.6099H66.8798L66.8898 18.6199Z" fill="#003477"/>
<path d="M45.3301 18.6802V34.2902C45.3301 34.2902 45.4901 36.7002 47.0001 39.2202C48.5101 41.7402 51.2501 43.4902 51.2501 43.4902L52.5401 41.4402C52.5401 41.4402 50.7901 40.5102 49.3901 38.3702C47.9601 36.2102 47.8801 34.2402 47.8801 34.2402V18.6802H45.3301V18.6802Z" fill="#003477"/>
<path d="M56.6196 20.3198V36.8098C56.6196 36.8098 56.5596 36.8698 56.5396 37.1098C56.5096 37.3598 56.3496 37.5198 56.3496 37.5198L50.8496 46.6398H67.7196L62.2096 37.3198L62.0496 36.9098L61.9896 36.4698V20.3498H59.9396V37.0898C59.9396 37.0898 59.9396 37.3298 60.0196 37.5198C60.0696 37.7098 60.1796 38.0098 60.1796 38.0098L63.5796 43.5998H54.9796L58.3196 38.0398C58.3196 38.0398 58.4296 37.8498 58.5096 37.5798C58.5696 37.3298 58.5896 37.0898 58.5896 37.0898V20.3198H56.6196V20.3198Z" fill="#AA8420"/>
<path d="M70.6996 18.6199V33.9599C70.6996 33.9599 70.6796 35.9299 69.2196 38.1999C67.7696 40.4799 66.0996 41.4299 66.0996 41.4299L67.3296 43.5099C67.3296 43.5099 69.8496 41.9199 71.4396 39.3999C72.9996 36.8799 73.1896 33.9499 73.1896 33.9499V18.6099H70.6896L70.6996 18.6199Z" fill="#003477"/>
<path d="M52.6198 8.35C52.6198 8.35 51.7698 3.72 55.1698 1.42C55.1698 1.42 56.6998 0 59.1998 0C61.8598 0 63.3898 1.39 63.3898 1.39C67.0898 4.1 65.9898 8.35 65.9898 8.35H52.6198Z" fill="#AA8420"/>
<path d="M19.4504 58.2696C19.8904 58.1196 20.2004 58.0096 20.3804 57.9296V62.6396H21.4004V62.1296H26.8004V62.6396H27.8204V57.8696C27.9704 57.9496 28.1304 58.0196 28.3004 58.0696C28.4704 58.1196 28.6404 58.1796 28.7804 58.2496L29.2604 57.2496C27.6804 56.9296 26.4704 56.3696 25.6404 55.5696H29.1704V54.6596H24.5404V53.7396C26.0204 53.6096 27.2504 53.4496 28.2504 53.2496L27.7804 52.3496C26.2804 52.6896 24.0704 52.8596 21.1504 52.8596C20.5404 52.8596 20.0204 52.8596 19.6004 52.8396L19.9604 53.8496C20.6804 53.8496 21.8604 53.8296 23.5004 53.7896V54.6796H18.9904V55.5896H22.3804C21.3904 56.4196 20.2304 56.9896 18.9004 57.3096L19.4304 58.2896L19.4504 58.2696ZM26.8004 61.2196H21.4004V60.2596H26.8004V61.2196ZM24.5504 55.5896C25.2404 56.4996 26.1404 57.1796 27.2604 57.6196H24.5504V55.5896ZM26.8004 58.5396V59.3696H21.4004V58.5396H26.8004ZM23.5204 55.5996V57.6196H21.0204C22.0504 57.1796 22.8904 56.5096 23.5204 55.5996Z" fill="#003477"/>
<path d="M35.2995 59.2299L34.3395 58.6699C34.1095 59.7099 33.6695 60.6899 33.0195 61.5999L33.8995 62.4999C34.5295 61.4999 34.9895 60.4099 35.2895 59.2299H35.2995Z" fill="#003477"/>
<path d="M35.3601 56.4997C34.8001 56.0697 34.2601 55.7097 33.7401 55.4297L33.0801 56.2497C33.5101 56.5397 34.0201 56.9297 34.6201 57.4397L35.3701 56.4997H35.3601Z" fill="#003477"/>
<path d="M41.9204 59.7696C41.8704 60.3496 41.8104 60.7597 41.7604 60.9897C41.7004 61.2097 41.5204 61.3297 41.2104 61.3297H37.9504C37.6904 61.3297 37.5704 61.1996 37.5704 60.9496V60.2496H41.1004V57.9996C41.5404 58.3896 42.1004 58.7896 42.7704 59.1996L43.2404 58.2197C42.0504 57.6297 41.3104 57.0496 41.0204 56.4496H43.1204V55.5296H41.1504V54.3997H42.9604V53.5296H41.1504V52.3896H40.1604V53.5296H38.1604V52.3896H37.1604V53.5296H35.7004V53.6696C35.2704 53.3396 34.7404 52.9797 34.1204 52.5797L33.4004 53.3896C33.8904 53.6996 34.4304 54.1296 35.0404 54.6696L35.7104 53.8396V54.4296H37.1704V55.5296H35.4904V56.4496H37.2504C36.9304 57.1396 36.1604 57.7597 34.9504 58.3097L35.5804 59.2296C36.0704 58.9196 36.4104 58.6896 36.5904 58.5396V60.9996C36.5904 61.4996 36.6804 61.8396 36.8604 62.0196C37.0504 62.1996 37.3804 62.2796 37.8504 62.2796H41.4104C41.9704 62.2796 42.3504 62.1796 42.5404 61.9796C42.7404 61.7696 42.8904 61.1596 43.0104 60.1396L41.9604 59.7496L41.9204 59.7696ZM38.1504 54.4496H40.1504V55.5296H38.1504V54.4496ZM38.3904 56.4496H39.8704C40.0804 56.8396 40.3004 57.1696 40.5404 57.4396H37.7404C38.0104 57.1496 38.2304 56.8196 38.3904 56.4496ZM37.5604 58.3097H40.0804V59.3896H37.5604V58.3097Z" fill="#003477"/>
<path d="M54.9493 54.4499C54.0893 53.8199 53.4193 53.3699 52.9393 53.1099L52.2793 53.8399C52.7793 54.1399 53.4393 54.6299 54.2593 55.2799L54.9493 54.4599V54.4499Z" fill="#003477"/>
<path d="M54.7405 57.1C53.9305 56.49 53.2605 56.03 52.7105 55.75L52.0605 56.49C52.6405 56.83 53.3005 57.32 54.0605 57.95L54.7405 57.11V57.1Z" fill="#003477"/>
<path d="M51.6699 60.1695L55.3499 59.6096V62.6296H56.3699V59.4795L57.3599 59.3096V58.3096L56.3699 58.4795V52.2896H55.3499V58.5995L51.6699 59.1496V60.1695Z" fill="#003477"/>
<path d="M47.6395 60.5796C48.3595 59.6396 48.8595 58.8196 49.1295 58.1196V62.6296L50.1395 62.5896V57.4896C50.3395 57.7496 50.5295 57.9996 50.7195 58.2296C50.9395 58.4796 51.1595 58.7596 51.3795 59.0596L51.9995 58.1196C51.5795 57.6696 50.9595 57.0596 50.1395 56.2996V56.1996H51.8095V55.2496H50.1395V53.6996C50.7195 53.5796 51.2695 53.4296 51.7995 53.2496L51.4295 52.3496C50.2495 52.7996 48.8395 53.0596 47.1995 53.1396L47.4295 54.0596C48.1795 54.0096 48.7395 53.9496 49.1295 53.8696V55.2396H47.0895V56.1896H49.0995C48.6395 57.3996 47.9495 58.5396 47.0195 59.5796L47.6295 60.5696L47.6395 60.5796Z" fill="#003477"/>
<path d="M61.0996 58.0698L61.3596 59.2498C61.7196 59.1598 62.2096 59.0398 62.8296 58.8798V61.1198C62.8296 61.3598 62.7096 61.4798 62.4696 61.4798L61.5096 61.4498L61.7596 62.5598H62.6296C63.1696 62.5598 63.5196 62.4698 63.6796 62.2998C63.8296 62.1298 63.8996 61.7898 63.8996 61.2698V58.5798C64.5296 58.3698 64.9596 58.1998 65.1796 58.0798V56.9998C64.9096 57.1298 64.4796 57.2898 63.8996 57.4798V55.5398H65.1996V54.8398H67.5696V56.3098H65.3996V57.3198H69.7596C69.4396 58.2398 68.9196 58.9998 68.1696 59.5898C67.6596 59.0798 67.1596 58.3898 66.6496 57.4898L65.7396 57.8498C66.2796 58.8398 66.8296 59.6198 67.3996 60.1898C66.3496 60.8998 65.2896 61.3698 64.2396 61.5998L64.8496 62.5998C65.8996 62.3798 67.0096 61.8298 68.1596 60.9398C69.0096 61.7198 69.9196 62.2598 70.8796 62.5798L71.4396 61.5498C70.5196 61.2898 69.6896 60.8698 68.9596 60.2698C69.3796 59.8998 69.7796 59.3998 70.1596 58.7598C70.5496 58.1198 70.7896 57.6098 70.8896 57.2098V56.2998H68.6696V54.8298H71.2596V53.8298H68.6696V52.2798H67.5796V53.8298H65.2196V54.5298H63.9196V52.2798H62.8396V54.5298H61.2196V55.5298H62.8396V57.7398C62.3196 57.8798 61.7396 57.9898 61.0996 58.0698V58.0698Z" fill="#003477"/>
<path d="M75.1309 61.5598L75.9609 62.5998C78.4209 60.9798 79.8909 58.8498 80.3809 56.2098H80.5609C81.2909 59.1598 82.6509 61.2798 84.6209 62.5798L85.4709 61.5698C84.3809 60.8498 83.5209 59.9998 82.9009 59.0198C82.2809 58.0398 81.8809 57.0998 81.7109 56.2098H85.2209V55.0598H80.5609C80.6209 54.4798 80.6509 53.5598 80.6509 52.2998H79.5009C79.5009 53.4698 79.4509 54.3898 79.3609 55.0598H75.3909V56.2198H79.1809C79.0109 57.2498 78.5509 58.2498 77.8109 59.2198C77.0609 60.1898 76.1709 60.9698 75.1309 61.5598V61.5598Z" fill="#003477"/>
<path d="M90.4192 57.7896H98.3492V59.3997H99.3392V56.9196H98.7592L98.8792 52.5797H96.1692V53.4496H97.9192V54.0496H96.2892V54.7996H97.8792L97.8592 55.4196H96.2892V56.1796H97.8292V56.9096H90.9392L90.9192 56.1796H92.5692V55.4196H90.8992V54.7996H92.5692V54.0496H90.8592L90.8292 53.4897C91.7192 53.4297 92.3692 53.3396 92.7792 53.1996L92.2992 52.3896C91.6392 52.5696 90.8392 52.6796 89.8792 52.7096L89.9992 56.9296H89.4492V59.4096H90.4292V57.7996L90.4192 57.7896Z" fill="#003477"/>
<path d="M93.9695 61.3498C93.9695 61.5698 93.8595 61.6798 93.6395 61.6798L92.1294 61.6398L92.3794 62.5298H93.9995C94.6695 62.5298 94.9995 62.1398 94.9995 61.3598V60.9098H99.5594V60.0198H94.9995C95.9395 59.7298 96.7394 59.4098 97.3794 59.0598V58.2598H91.2595V59.0698H95.8794C95.1094 59.2998 94.4694 59.4498 93.9594 59.5398V60.0098H89.1895V60.8998H93.9594V61.3498H93.9695Z" fill="#003477"/>
<path d="M92.6992 53.7696L93.2592 54.5095C93.7492 54.2995 94.1792 54.0796 94.5392 53.8396C94.6192 53.8396 94.8092 54.0495 95.0992 54.4595L95.7692 53.9696C95.5292 53.7096 95.3292 53.5195 95.1892 53.3895C95.4592 53.2095 95.6692 53.0195 95.8392 52.7995L95.2892 52.3096C95.1592 52.4896 94.9292 52.6896 94.6192 52.8996C94.3292 52.6796 94.0392 52.4796 93.7592 52.2896L93.1692 52.8096C93.4792 53.0096 93.7292 53.1795 93.9192 53.3195C93.7292 53.4495 93.3292 53.5996 92.7092 53.7696H92.6992Z" fill="#003477"/>
<path d="M95.4396 54.4597C95.1496 54.7797 94.8996 54.9997 94.6796 55.1397C94.5096 55.0097 94.3596 54.8997 94.2196 54.7997C94.0996 54.7297 93.9696 54.6497 93.8296 54.5597L93.2596 55.0397C93.5996 55.2797 93.8496 55.4497 93.9896 55.5697C93.7296 55.7197 93.3496 55.8497 92.8496 55.9697L93.3196 56.6997C93.8396 56.5297 94.2696 56.3197 94.6096 56.0797C94.6596 56.0797 94.8496 56.2997 95.1896 56.7297L95.8896 56.1897C95.6796 55.9797 95.4796 55.7897 95.2596 55.6097C95.4896 55.4397 95.7396 55.2197 96.0096 54.9497L95.4296 54.4497L95.4396 54.4597Z" fill="#003477"/>
<path d="M16.1502 74.9699H17.1602V67.8199H19.0702V66.8999H14.2402V67.8199H16.1502V74.9699Z" fill="#003477"/>
<path d="M25.7406 74.9699V66.8999H24.7406V70.1599H20.8906V66.8999H19.8906V74.9699H20.8906V71.0999H24.7406V74.9699H25.7406Z" fill="#003477"/>
<path d="M31.6408 67.8199V66.8999H27.3008V74.9699H31.6408V74.0499H28.3108V70.9999H31.5408V70.0799H28.3108V67.8199H31.6408Z" fill="#003477"/>
<path d="M36.0996 66.8999V74.9699H37.1096V71.0999H40.9496V74.9699H41.9496V66.8999H40.9496V70.1599H37.1096V66.8999H36.0996Z" fill="#003477"/>
<path d="M47.1792 75.14C49.5092 75.14 51.4092 73.33 51.4092 70.94C51.4092 68.55 49.4992 66.73 47.1792 66.73C44.8592 66.73 42.9492 68.63 42.9492 70.94C42.9492 73.25 44.8392 75.14 47.1792 75.14V75.14ZM47.1792 67.67C49.0692 67.67 50.3992 69.16 50.3992 70.93C50.3992 72.7 48.9192 74.19 47.1792 74.19C45.4392 74.19 43.9592 72.77 43.9592 70.93C43.9592 69.09 45.2892 67.67 47.1792 67.67Z" fill="#003477"/>
<path d="M52.3906 74.97H53.3906V68.96L59.4506 75.3V66.9H58.4506V72.86L52.3906 66.52V74.97Z" fill="#003477"/>
<path d="M64.5192 75.14C66.7792 75.14 68.3392 73.44 68.3392 71.22V70.9H65.1392V71.82H67.2292C67.1892 73.14 65.8392 74.22 64.5892 74.22C62.8492 74.22 61.4592 72.61 61.4592 70.92C61.4592 69.11 62.8692 67.65 64.6792 67.65C65.6592 67.65 66.6392 68.17 67.2092 68.97L67.9192 68.29C67.1292 67.29 65.8892 66.73 64.6292 66.73C62.3092 66.73 60.4492 68.63 60.4492 70.96C60.4492 73.29 62.2692 75.14 64.5292 75.14H64.5192Z" fill="#003477"/>
<path d="M73.6506 71.5999L74.0606 71.2099L77.1006 74.9699H78.4606L74.7606 70.5299L78.3906 66.8999H77.0706L73.6506 70.3999V66.8999H72.6406V74.9699H73.6506V71.5999Z" fill="#003477"/>
<path d="M78.6094 70.94C78.6094 73.34 80.5094 75.14 82.8394 75.14C85.1694 75.14 87.0694 73.33 87.0694 70.94C87.0694 68.55 85.1594 66.73 82.8394 66.73C80.5194 66.73 78.6094 68.63 78.6094 70.94ZM86.0594 70.94C86.0594 72.78 84.5794 74.2 82.8394 74.2C81.0994 74.2 79.6194 72.78 79.6194 70.94C79.6194 69.1 80.9494 67.68 82.8394 67.68C84.7294 67.68 86.0594 69.17 86.0594 70.94Z" fill="#003477"/>
<path d="M89.0491 68.96L95.1091 75.3V66.9H94.0991V72.86L88.0391 66.52V74.97H89.0491V68.96Z" fill="#003477"/>
<path d="M96.0996 70.96C96.0996 73.2 97.9196 75.14 100.18 75.14C102.44 75.14 104 73.44 104 71.22V70.9H100.8V71.82H102.89C102.85 73.14 101.5 74.22 100.25 74.22C98.5096 74.22 97.1196 72.61 97.1196 70.92C97.1196 69.11 98.5296 67.65 100.34 67.65C101.32 67.65 102.3 68.17 102.87 68.97L103.58 68.29C102.79 67.29 101.55 66.73 100.29 66.73C97.9696 66.73 96.1096 68.63 96.1096 70.96H96.0996Z" fill="#003477"/>
<path d="M4.9 84.4997C4.9 85.8197 4.5 87.0397 2.95 87.0397C1.4 87.0397 1 85.8197 1 84.4997V79.7397H0V84.8497C0 86.6297 1.1 87.9798 2.95 87.9798C4.8 87.9798 5.9 86.6197 5.9 84.8497V79.7397H4.89V84.4997H4.9Z" fill="#003477"/>
<path d="M14.3705 79.7396H13.3705V85.6996L7.31055 79.3496V87.8096H8.31055V81.7996L14.3705 88.1396V79.7396Z" fill="#003477"/>
<path d="M16.8909 79.7397H15.8809V87.8097H16.8909V79.7397Z" fill="#003477"/>
<path d="M18.7602 79.7397H17.6602L21.1702 88.2397L24.6702 79.7397H23.5602L21.1702 85.7097L18.7602 79.7397Z" fill="#003477"/>
<path d="M29.7909 80.6598V79.7397H25.4609V87.8097H29.7909V86.8897H26.4609V83.8397H29.7009V82.9197H26.4609V80.6598H29.7909Z" fill="#003477"/>
<path d="M35.5506 82.04C35.5506 81.27 35.1606 80.51 34.4906 80.11C33.8506 79.75 33.0806 79.73 32.3606 79.73H31.1406V87.8H32.1506V84.39H32.5706L34.9506 87.8H36.1706L33.6206 84.29C34.7906 84.15 35.5606 83.19 35.5606 82.03L35.5506 82.04ZM32.4706 83.56H32.1506V80.64H32.4206C33.4206 80.64 34.6106 80.82 34.6106 82.09C34.6106 83.36 33.5006 83.57 32.4706 83.57V83.56Z" fill="#003477"/>
<path d="M39.2109 87.0396C38.3409 87.0396 37.6409 86.3996 37.6509 85.5096L36.6309 85.7196C36.8009 87.0196 37.8209 87.9796 39.1209 87.9796C40.5709 87.9796 41.7009 86.9296 41.7009 85.4596C41.7009 84.1096 40.8409 83.4796 39.7009 83.0296L39.1209 82.7996C38.6209 82.6096 38.0009 82.2796 38.0009 81.6496C38.0009 80.9396 38.7109 80.4996 39.3509 80.4996C39.9909 80.4996 40.3509 80.7596 40.6509 81.2596L41.4509 80.7796C41.0109 79.9996 40.2709 79.5596 39.3709 79.5596C38.1509 79.5596 36.9909 80.3396 36.9909 81.6496C36.9909 82.7696 37.8209 83.2996 38.7509 83.6896L39.3109 83.9196C40.0009 84.2096 40.7009 84.5896 40.7009 85.4496C40.7009 86.3096 40.0809 87.0196 39.2109 87.0196V87.0396Z" fill="#003477"/>
<path d="M43.8909 79.7397H42.8809V87.8097H43.8909V79.7397Z" fill="#003477"/>
<path d="M49.59 79.7397H44.75V80.6598H46.67V87.8097H47.67V80.6598H49.59V79.7397Z" fill="#003477"/>
<path d="M53.2904 87.8097V84.2998L55.9204 79.7397H54.7704L52.7904 83.1898L50.8104 79.7397H49.6504L52.2904 84.2998V87.8097H53.2904Z" fill="#003477"/>
<path d="M63.5894 79.5698C61.2794 79.5698 59.3594 81.4698 59.3594 83.7798C59.3594 86.0898 61.2494 87.9798 63.5894 87.9798C65.9294 87.9798 67.8194 86.1698 67.8194 83.7798C67.8194 81.3898 65.9094 79.5698 63.5894 79.5698ZM63.5894 87.0398C61.8494 87.0398 60.3694 85.6098 60.3694 83.7798C60.3694 81.9498 61.6994 80.5198 63.5894 80.5198C65.4794 80.5198 66.8094 82.0098 66.8094 83.7798C66.8094 85.5498 65.3294 87.0398 63.5894 87.0398Z" fill="#003477"/>
<path d="M72.7909 80.6598V79.7397H68.8809V87.8097H69.8909V83.8497H72.6909V82.9297H69.8909V80.6598H72.7909Z" fill="#003477"/>
<path d="M79.4198 87.0396C78.5598 87.0396 77.8498 86.3996 77.8598 85.5096L76.8398 85.7196C77.0098 87.0196 78.0298 87.9796 79.3298 87.9796C80.7798 87.9796 81.9099 86.9296 81.9099 85.4596C81.9099 84.1096 81.0499 83.4796 79.9099 83.0296L79.3298 82.7996C78.8298 82.6096 78.2098 82.2796 78.2098 81.6496C78.2098 80.9396 78.9198 80.4996 79.5598 80.4996C80.1998 80.4996 80.5598 80.7596 80.8598 81.2596L81.6599 80.7796C81.2199 79.9996 80.4798 79.5596 79.5798 79.5596C78.3598 79.5596 77.1998 80.3396 77.1998 81.6496C77.1998 82.7696 78.0398 83.2996 78.9498 83.6896L79.5098 83.9196C80.2098 84.2096 80.8998 84.5896 80.8998 85.4496C80.8998 86.3096 80.2799 87.0196 79.4099 87.0196L79.4198 87.0396Z" fill="#003477"/>
<path d="M86.8697 80.4896C87.6297 80.4896 88.4197 80.7696 88.9997 81.2796V80.1096C88.3897 79.7296 87.6697 79.5596 86.9697 79.5596C84.5897 79.5596 82.6797 81.4196 82.6797 83.8096C82.6797 86.1996 84.5797 87.9696 86.8797 87.9696C87.5897 87.9696 88.3797 87.7696 88.9997 87.3996V86.2096C88.3997 86.7496 87.6397 87.0496 86.8497 87.0496C85.0497 87.0496 83.6797 85.5396 83.6797 83.7796C83.6797 82.0196 85.0597 80.4896 86.8697 80.4896V80.4896Z" fill="#003477"/>
<path d="M91.2893 79.7397H90.2793V87.8097H91.2893V79.7397Z" fill="#003477"/>
<path d="M97.2304 86.8897H93.9004V83.8397H97.1304V82.9197H93.9004V80.6598H97.2304V79.7397H92.9004V87.8097H97.2304V86.8897Z" fill="#003477"/>
<path d="M98.4805 87.8096H99.4905V81.7996L105.55 88.1396V79.7396H104.54V85.6996L98.4805 79.3496V87.8096Z" fill="#003477"/>
<path d="M106.641 83.8198C106.641 86.1498 108.551 87.9798 110.851 87.9798C111.561 87.9798 112.351 87.7798 112.971 87.4098V86.2198C112.371 86.7598 111.611 87.0598 110.821 87.0598C109.021 87.0598 107.651 85.5498 107.651 83.7898C107.651 82.0298 109.031 80.4998 110.841 80.4998C111.601 80.4998 112.391 80.7798 112.971 81.2898V80.1198C112.361 79.7398 111.641 79.5698 110.941 79.5698C108.561 79.5698 106.651 81.4298 106.651 83.8198H106.641Z" fill="#003477"/>
<path d="M118.6 80.6598V79.7397H114.27V87.8097H118.6V86.8897H115.27V83.8397H118.51V82.9197H115.27V80.6598H118.6Z" fill="#003477"/>
<path d="M10.6406 100.65H11.7206L12.6406 98.6297H16.3406L17.2606 100.65H18.3406L14.4906 92.2397L10.6406 100.65V100.65ZM13.0606 97.7097L14.4906 94.4497L15.9206 97.7097H13.0506H13.0606Z" fill="#003477"/>
<path d="M25.0793 98.5399L19.0293 92.1899V100.65H20.0293V94.6299L26.0893 100.98V92.5799H25.0793V98.5399Z" fill="#003477"/>
<path d="M29.2091 92.5796H27.5391V100.65H29.1791C31.7291 100.65 33.7391 99.3196 33.7391 96.5696C33.7391 93.8196 31.6891 92.5796 29.2091 92.5796V92.5796ZM28.8991 99.7296H28.5491V93.4996H28.8991C30.9591 93.4996 32.7291 94.2596 32.7291 96.6096C32.7291 98.9596 30.9491 99.7196 28.8991 99.7196V99.7296Z" fill="#003477"/>
<path d="M37.3008 93.4996H39.2208V100.65H40.2308V93.4996H42.1408V92.5796H37.3008V93.4996Z" fill="#003477"/>
<path d="M43.0391 100.65H47.3691V99.7296H44.0491V96.6796H47.2791V95.7596H44.0491V93.4996H47.3691V92.5796H43.0391V100.65Z" fill="#003477"/>
<path d="M48.2695 96.6599C48.2695 98.9899 50.1795 100.82 52.4795 100.82C53.1895 100.82 53.9795 100.62 54.5995 100.25V99.0599C53.9995 99.5899 53.2395 99.8999 52.4495 99.8999C50.6495 99.8999 49.2795 98.3899 49.2795 96.6199C49.2795 94.8499 50.6595 93.3299 52.4695 93.3299C53.2295 93.3299 54.0195 93.6099 54.5995 94.1199V92.9499C53.9895 92.5699 53.2695 92.3999 52.5695 92.3999C50.1895 92.3999 48.2795 94.2599 48.2795 96.6499L48.2695 96.6599Z" fill="#003477"/>
<path d="M60.6703 95.8296H56.8203V92.5796H55.8203V100.65H56.8203V96.7696H60.6703V100.65H61.6703V92.5796H60.6703V95.8296Z" fill="#003477"/>
<path d="M69.1906 98.5399L63.1406 92.1899V100.65H64.1406V94.6299L70.2006 100.98V92.5799H69.1906V98.5399Z" fill="#003477"/>
<path d="M75.3999 92.4097C73.0899 92.4097 71.1699 94.3097 71.1699 96.6197C71.1699 98.9297 73.0599 100.82 75.3999 100.82C77.7399 100.82 79.6299 99.0097 79.6299 96.6197C79.6299 94.2297 77.7099 92.4097 75.3999 92.4097ZM75.3999 99.8797C73.6599 99.8797 72.1799 98.4497 72.1799 96.6197C72.1799 94.7897 73.5099 93.3597 75.3999 93.3597C77.2899 93.3597 78.6199 94.8497 78.6199 96.6197C78.6199 98.3897 77.1399 99.8797 75.3999 99.8797Z" fill="#003477"/>
<path d="M81.7109 92.5796H80.7109V100.65H84.1709V99.7296H81.7109V92.5796Z" fill="#003477"/>
<path d="M88.5991 92.4097C86.2891 92.4097 84.3691 94.3097 84.3691 96.6197C84.3691 98.9297 86.2691 100.82 88.5991 100.82C90.9291 100.82 92.8191 99.0097 92.8191 96.6197C92.8191 94.2297 90.9091 92.4097 88.5991 92.4097ZM88.5991 99.8797C86.8491 99.8797 85.3791 98.4497 85.3791 96.6197C85.3791 94.7897 86.7091 93.3597 88.5991 93.3597C90.4891 93.3597 91.8191 94.8497 91.8191 96.6197C91.8191 98.3897 90.3391 99.8797 88.5991 99.8797Z" fill="#003477"/>
<path d="M98.0496 97.4997H100.14C100.1 98.8197 98.7496 99.8997 97.4896 99.8997C95.7496 99.8997 94.3596 98.2997 94.3596 96.5997C94.3596 94.7897 95.7696 93.3297 97.5796 93.3297C98.5596 93.3297 99.5396 93.8497 100.11 94.6497L100.82 93.9697C100.03 92.9697 98.7896 92.4097 97.5396 92.4097C95.2196 92.4097 93.3496 94.3197 93.3496 96.6397C93.3496 98.9597 95.1696 100.82 97.4296 100.82C99.6896 100.82 101.25 99.1197 101.25 96.8997V96.5797H98.0496V97.4997V97.4997Z" fill="#003477"/>
<path d="M104.66 96.0196L102.68 92.5796H101.52L104.16 97.1396V100.65H105.16V97.1396L107.79 92.5796H106.64L104.66 96.0196Z" fill="#003477"/>
</svg>
