<svg width="312" height="64" viewBox="0 0 312 64" fill="none" xmlns="http://www.w3.org/2000/svg">
<path d="M162.31 34.4101L158.28 27.7001C158.28 27.7001 158.16 27.5501 158.16 27.2901V14.8501H156.64V27.6801C156.77 27.8101 159.3 32.1301 159.3 32.1301H153.02C153.02 32.1301 155.55 27.8101 155.68 27.6801V14.8501H154.16V27.2901C154.16 27.5401 154.03 27.7001 154.03 27.7001L150 34.4101H162.3H162.31Z" fill="#AA8420"/>
<path d="M161.069 6.16C161.069 6.16 161.829 3.02 159.119 0.970001C159.119 0.970001 158.039 0 155.979 0C154.139 0 153.059 0.970001 153.059 0.970001C150.569 2.7 151.219 6.16 151.219 6.16H161.059H161.069Z" fill="#AA8420"/>
<path d="M151.53 7.02046H160.78C160.85 6.84046 160.91 6.66047 160.97 6.48047H151.35C151.4 6.66047 151.46 6.85046 151.54 7.02046" fill="#AA8420"/>
<path d="M160.63 7.3501H151.67C151.76 7.5401 151.87 7.72009 151.98 7.89009H160.32C160.43 7.72009 160.54 7.5401 160.63 7.3501" fill="#AA8420"/>
<path d="M152.591 8.65022H159.711C159.841 8.51022 159.971 8.37021 160.091 8.22021H152.211C152.331 8.37021 152.451 8.51022 152.591 8.65022Z" fill="#AA8420"/>
<path d="M153.359 9.29022H158.949C159.099 9.19022 159.239 9.08021 159.369 8.97021H152.939C153.069 9.08021 153.219 9.19022 153.359 9.29022Z" fill="#AA8420"/>
<path d="M154.141 9.73047C154.761 10.0105 155.441 10.1605 156.161 10.1605C156.881 10.1605 157.561 10.0105 158.181 9.73047H154.141Z" fill="#AA8420"/>
<path d="M165.751 10.4004H158.181C158.181 10.4004 157.481 10.4004 156.921 10.7804C156.491 11.0804 156.181 11.7604 156.161 11.8004C156.161 11.8004 155.841 11.0804 155.401 10.7804C154.841 10.4004 154.141 10.4004 154.141 10.4004H146.571L145.061 12.8204H151.991C151.991 12.8204 152.201 12.8204 152.321 12.8404C152.521 12.8704 152.881 12.9804 153.261 13.2504C153.771 13.6204 153.921 13.8104 154.041 13.9404C154.101 14.0004 154.271 14.2204 154.271 14.2204H158.051C158.051 14.2204 158.211 14.0004 158.281 13.9404C158.411 13.8104 158.551 13.6204 159.061 13.2504C159.431 12.9804 159.791 12.8704 160.001 12.8404C160.131 12.8204 160.331 12.8204 160.331 12.8204H167.261L165.751 10.4004Z" fill="#003477"/>
<path d="M145.82 13.5601V25.0701C145.82 25.2001 145.82 25.31 145.84 25.41C145.96 26.63 146.34 27.5301 147.05 28.7101C148.16 30.5601 150.18 31.86 150.18 31.86L151.13 30.3501C151.13 30.3501 149.84 29.6601 148.81 28.0901C148.6 27.7701 148.4 27.48 148.26 27.19C148.13 26.91 148.03 26.6901 147.95 26.4501C147.89 26.2801 147.84 26.12 147.81 25.97C147.76 25.76 147.74 25.6001 147.72 25.4001C147.72 25.3301 147.71 25.0401 147.71 25.0401V13.5701H145.83L145.82 13.5601Z" fill="#003477"/>
<path d="M148.711 13.5601V25.03C148.711 25.03 148.711 25.0801 148.711 25.1301C148.711 25.1901 148.721 25.27 148.731 25.33C148.731 25.37 148.741 25.4201 148.751 25.4501C148.791 25.6301 148.831 25.7901 148.901 26.0201C149.031 26.4101 149.261 26.87 149.591 27.41C150.441 28.78 151.671 29.41 151.671 29.41L152.621 27.9301C152.621 27.9301 152.311 27.76 151.921 27.39C151.671 27.15 151.371 26.83 151.111 26.44C150.861 26.05 150.701 25.66 150.621 25.36C150.551 25.11 150.531 24.91 150.531 24.78C150.531 24.68 150.531 24.6201 150.531 24.6201V13.5601H148.711V13.5601Z" fill="#003477"/>
<path d="M166.499 13.5601V25.0701C166.499 25.2001 166.499 25.31 166.479 25.41C166.359 26.63 165.979 27.5301 165.269 28.7101C164.159 30.5601 162.139 31.86 162.139 31.86L161.189 30.3501C161.189 30.3501 162.479 29.6601 163.509 28.0901C163.719 27.7701 163.919 27.48 164.059 27.19C164.189 26.91 164.299 26.6901 164.379 26.4501C164.439 26.2801 164.489 26.12 164.519 25.97C164.569 25.76 164.599 25.6001 164.609 25.4001C164.609 25.3301 164.619 25.0401 164.619 25.0401V13.5701H166.499V13.5601Z" fill="#003477"/>
<path d="M163.621 13.5601V25.03C163.621 25.03 163.621 25.0801 163.621 25.1301C163.621 25.1901 163.611 25.27 163.601 25.33C163.601 25.37 163.591 25.4201 163.581 25.4501C163.541 25.6301 163.501 25.7901 163.431 26.0201C163.301 26.4101 163.071 26.87 162.741 27.41C161.891 28.78 160.661 29.41 160.661 29.41L159.711 27.9301C159.711 27.9301 160.021 27.76 160.411 27.39C160.661 27.15 160.961 26.83 161.221 26.44C161.471 26.05 161.631 25.66 161.711 25.36C161.781 25.11 161.801 24.91 161.801 24.78C161.801 24.68 161.801 24.6201 161.801 24.6201V13.5601H163.621V13.5601Z" fill="#003477"/>
<path d="M0.759766 55.7401H2.65976V62.8301H3.65976V55.7401H5.55975V54.8301H0.759766V55.7401Z" fill="#003477"/>
<path d="M11.1694 58.0601H7.35938V54.8301H6.35938V62.8301H7.35938V58.9901H11.1694V62.8301H12.1694V54.8301H11.1694V58.0601Z" fill="#003477"/>
<path d="M13.709 62.8301H18.009V61.9201H14.709V58.8901H17.919V57.9801H14.709V55.7401H18.009V54.8301H13.709V62.8301Z" fill="#003477"/>
<path d="M27.2397 58.0601H23.4297V54.8301H22.4297V62.8301H23.4297V58.9901H27.2397V62.8301H28.2397V54.8301H27.2397V58.0601Z" fill="#003477"/>
<path d="M33.4107 54.6602C31.1207 54.6602 29.2207 56.5402 29.2207 58.8302C29.2207 61.1202 31.1007 63.0002 33.4107 63.0002C35.7207 63.0002 37.6007 61.2102 37.6007 58.8302C37.6007 56.4502 35.7007 54.6602 33.4107 54.6602ZM33.4107 62.0702C31.6807 62.0702 30.2207 60.6602 30.2207 58.8302C30.2207 57.0002 31.5307 55.5902 33.4107 55.5902C35.2907 55.5902 36.6007 57.0602 36.6007 58.8302C36.6007 60.6002 35.1407 62.0702 33.4107 62.0702Z" fill="#003477"/>
<path d="M44.5901 60.7402L38.5801 54.4502V62.8302H39.5801V56.8702L45.5801 63.1602V54.8302H44.5901V60.7402Z" fill="#003477"/>
<path d="M51.2303 59.7104H53.3003C53.2603 61.0104 51.9203 62.0904 50.6803 62.0904C48.9503 62.0904 47.5703 60.5004 47.5703 58.8204C47.5703 57.0304 48.9703 55.5704 50.7603 55.5704C51.7403 55.5704 52.7003 56.0904 53.2803 56.8704L53.9803 56.2004C53.1903 55.2104 51.9603 54.6504 50.7203 54.6504C48.4203 54.6504 46.5703 56.5404 46.5703 58.8404C46.5703 61.1404 48.3703 62.9904 50.6103 62.9904C52.8503 62.9904 54.4003 61.3004 54.4003 59.1104V58.7904H51.2303V59.7004V59.7104Z" fill="#003477"/>
<path d="M64.3601 54.8301H63.0602L59.6602 58.3001V54.8301H58.6602V62.8301H59.6602V59.4901L60.0602 59.1101L63.0801 62.8301H64.4202L60.7602 58.4301L64.3601 54.8301Z" fill="#003477"/>
<path d="M68.7603 54.6602C66.4703 54.6602 64.5703 56.5402 64.5703 58.8302C64.5703 61.1202 66.4503 63.0002 68.7603 63.0002C71.0703 63.0002 72.9503 61.2102 72.9503 58.8302C72.9503 56.4502 71.0503 54.6602 68.7603 54.6602ZM68.7603 62.0702C67.0303 62.0702 65.5703 60.6602 65.5703 58.8302C65.5703 57.0002 66.8803 55.5902 68.7603 55.5902C70.6403 55.5902 71.9503 57.0602 71.9503 58.8302C71.9503 60.6002 70.4903 62.0702 68.7603 62.0702Z" fill="#003477"/>
<path d="M79.9297 60.7402L73.9297 54.4502V62.8302H74.9297V56.8702L80.9297 63.1602V54.8302H79.9297V60.7402Z" fill="#003477"/>
<path d="M86.5801 59.7104H88.6501C88.6101 61.0104 87.2702 62.0904 86.0302 62.0904C84.3002 62.0904 82.9202 60.5004 82.9202 58.8204C82.9202 57.0304 84.3201 55.5704 86.1101 55.5704C87.0901 55.5704 88.0501 56.0904 88.6201 56.8704L89.3202 56.2004C88.5402 55.2104 87.3002 54.6504 86.0602 54.6504C83.7602 54.6504 81.9102 56.5404 81.9102 58.8404C81.9102 61.1404 83.7102 62.9904 85.9502 62.9904C88.1902 62.9904 89.7401 61.3004 89.7401 59.1104V58.7904H86.5702V59.7004L86.5801 59.7104Z" fill="#003477"/>
<path d="M98.7389 59.5501C98.7389 60.8501 98.3489 62.0601 96.8089 62.0601C95.2689 62.0601 94.8789 60.8501 94.8789 59.5501V54.8301H93.8789V59.8901C93.8789 61.6501 94.9689 63.0001 96.8089 63.0001C98.6489 63.0001 99.7389 61.6501 99.7389 59.8901V54.8301H98.7389V59.5501Z" fill="#003477"/>
<path d="M107.129 60.7402L101.119 54.4502V62.8302H102.119V56.8702L108.119 63.1602V54.8302H107.129V60.7402Z" fill="#003477"/>
<path d="M110.619 54.8301H109.619V62.8301H110.619V54.8301Z" fill="#003477"/>
<path d="M114.859 60.7501L112.469 54.8301H111.379L114.859 63.2601L118.329 54.8301H117.239L114.859 60.7501Z" fill="#003477"/>
<path d="M119.109 62.8301H123.409V61.9201H120.109V58.8901H123.309V57.9801H120.109V55.7401H123.409V54.8301H119.109V62.8301Z" fill="#003477"/>
<path d="M129.12 57.1101C129.12 56.3501 128.74 55.5901 128.07 55.2001C127.43 54.8401 126.67 54.8301 125.96 54.8301H124.75V62.8301H125.75V59.4501H126.16L128.52 62.8301H129.73L127.2 59.3501C128.36 59.2101 129.12 58.2601 129.12 57.1101ZM126.06 58.6201H125.74V55.7201H126.01C127 55.7201 128.19 55.9001 128.19 57.1501C128.19 58.4001 127.09 58.6101 126.07 58.6101L126.06 58.6201Z" fill="#003477"/>
<path d="M133.229 58.1004L132.659 57.8804C132.159 57.6904 131.549 57.3604 131.549 56.7304C131.549 56.0304 132.249 55.5904 132.889 55.5904C133.529 55.5904 133.879 55.8504 134.179 56.3404L134.979 55.8604C134.539 55.0904 133.809 54.6504 132.919 54.6504C131.709 54.6504 130.559 55.4304 130.559 56.7204C130.559 57.8304 131.389 58.3604 132.299 58.7504L132.849 58.9804C133.539 59.2704 134.229 59.6404 134.229 60.5004C134.229 61.3604 133.609 62.0604 132.759 62.0604C131.909 62.0604 131.199 61.4204 131.209 60.5404L130.199 60.7504C130.369 62.0304 131.379 62.9904 132.669 62.9904C134.099 62.9904 135.229 61.9504 135.229 60.5004C135.229 59.1604 134.379 58.5404 133.249 58.0904L133.229 58.1004Z" fill="#003477"/>
<path d="M137.391 54.8301H136.391V62.8301H137.391V54.8301Z" fill="#003477"/>
<path d="M138.24 55.7401H140.14V62.8301H141.14V55.7401H143.04V54.8301H138.24V55.7401Z" fill="#003477"/>
<path d="M146.21 58.2501L144.25 54.8301H143.1L145.71 59.3501V62.8301H146.71V59.3501L149.32 54.8301H148.17L146.21 58.2501Z" fill="#003477"/>
<path d="M156.909 54.6602C154.619 54.6602 152.719 56.5402 152.719 58.8302C152.719 61.1202 154.599 63.0002 156.909 63.0002C159.219 63.0002 161.099 61.2102 161.099 58.8302C161.099 56.4502 159.199 54.6602 156.909 54.6602ZM156.909 62.0702C155.179 62.0702 153.719 60.6602 153.719 58.8302C153.719 57.0002 155.029 55.5902 156.909 55.5902C158.789 55.5902 160.099 57.0602 160.099 58.8302C160.099 60.6002 158.639 62.0702 156.909 62.0702Z" fill="#003477"/>
<path d="M162.16 62.8301H163.16V58.9101H165.94V57.9901H163.16V55.7401H166.04V54.8301H162.16V62.8301Z" fill="#003477"/>
<path d="M173.101 58.1004L172.531 57.8804C172.031 57.6904 171.421 57.3604 171.421 56.7304C171.421 56.0304 172.121 55.5904 172.761 55.5904C173.401 55.5904 173.751 55.8504 174.051 56.3404L174.841 55.8604C174.401 55.0904 173.671 54.6504 172.781 54.6504C171.571 54.6504 170.431 55.4304 170.431 56.7204C170.431 57.8304 171.261 58.3604 172.171 58.7504L172.721 58.9804C173.411 59.2704 174.101 59.6404 174.101 60.5004C174.101 61.3604 173.491 62.0604 172.621 62.0604C171.751 62.0604 171.061 61.4204 171.071 60.5404L170.061 60.7504C170.231 62.0304 171.241 62.9904 172.531 62.9904C173.961 62.9904 175.091 61.9504 175.091 60.5004C175.091 59.1604 174.241 58.5404 173.111 58.0904L173.101 58.1004Z" fill="#003477"/>
<path d="M175.84 58.8704C175.84 61.1804 177.73 63.0004 180.01 63.0004C180.71 63.0004 181.5 62.8004 182.11 62.4404V61.2604C181.52 61.7904 180.76 62.0904 179.98 62.0904C178.2 62.0904 176.84 60.5904 176.84 58.8404C176.84 57.0904 178.21 55.5704 180 55.5704C180.75 55.5704 181.54 55.8404 182.11 56.3504V55.1904C181.51 54.8204 180.8 54.6504 180.09 54.6504C177.74 54.6504 175.84 56.5004 175.84 58.8604V58.8704Z" fill="#003477"/>
<path d="M184.369 54.8301H183.369V62.8301H184.369V54.8301Z" fill="#003477"/>
<path d="M185.969 62.8301H190.269V61.9201H186.969V58.8901H190.169V57.9801H186.969V55.7401H190.269V54.8301H185.969V62.8301Z" fill="#003477"/>
<path d="M197.51 60.7402L191.51 54.4502V62.8302H192.51V56.8702L198.51 63.1602V54.8302H197.51V60.7402Z" fill="#003477"/>
<path d="M199.59 58.8704C199.59 61.1804 201.48 63.0004 203.76 63.0004C204.46 63.0004 205.24 62.8004 205.86 62.4404V61.2604C205.27 61.7904 204.51 62.0904 203.73 62.0904C201.95 62.0904 200.59 60.5904 200.59 58.8404C200.59 57.0904 201.96 55.5704 203.75 55.5704C204.5 55.5704 205.29 55.8404 205.86 56.3504V55.1904C205.26 54.8204 204.54 54.6504 203.84 54.6504C201.49 54.6504 199.59 56.5004 199.59 58.8604V58.8704Z" fill="#003477"/>
<path d="M207.16 62.8301H211.45V61.9201H208.15V58.8901H211.36V57.9801H208.15V55.7401H211.45V54.8301H207.16V62.8301Z" fill="#003477"/>
<path d="M215.119 62.8302H216.189L217.099 60.8202H220.769L221.679 62.8302H222.749L218.929 54.4902L215.109 62.8302H215.119ZM217.519 59.9102L218.939 56.6702L220.359 59.9102H217.519V59.9102Z" fill="#003477"/>
<path d="M229.44 60.7402L223.43 54.4502V62.8302H224.43V56.8702L230.43 63.1602V54.8302H229.44V60.7402Z" fill="#003477"/>
<path d="M233.529 54.8301H231.869V62.8301H233.489C236.009 62.8301 238.009 61.5101 238.009 58.7901C238.009 56.0701 235.969 54.8301 233.519 54.8301H233.529ZM233.219 61.9201H232.869V55.7501H233.219C235.259 55.7501 237.019 56.5001 237.019 58.8401C237.019 61.1801 235.259 61.9301 233.219 61.9301V61.9201Z" fill="#003477"/>
<path d="M241.549 55.7401H243.449V62.8301H244.449V55.7401H246.349V54.8301H241.549V55.7401Z" fill="#003477"/>
<path d="M247.24 62.8301H251.54V61.9201H248.24V58.8901H251.44V57.9801H248.24V55.7401H251.54V54.8301H247.24V62.8301Z" fill="#003477"/>
<path d="M252.43 58.8704C252.43 61.1804 254.32 63.0004 256.6 63.0004C257.3 63.0004 258.09 62.8004 258.7 62.4404V61.2604C258.11 61.7904 257.35 62.0904 256.57 62.0904C254.79 62.0904 253.43 60.5904 253.43 58.8404C253.43 57.0904 254.8 55.5704 256.59 55.5704C257.34 55.5704 258.13 55.8404 258.7 56.3504V55.1904C258.1 54.8204 257.38 54.6504 256.68 54.6504C254.33 54.6504 252.43 56.5004 252.43 58.8604V58.8704Z" fill="#003477"/>
<path d="M264.71 58.0601H260.9V54.8301H259.9V62.8301H260.9V58.9901H264.71V62.8301H265.71V54.8301H264.71V58.0601Z" fill="#003477"/>
<path d="M273.17 60.7402L267.16 54.4502V62.8302H268.16V56.8702L274.16 63.1602V54.8302H273.17V60.7402Z" fill="#003477"/>
<path d="M279.319 54.6602C277.029 54.6602 275.129 56.5402 275.129 58.8302C275.129 61.1202 277.009 63.0002 279.319 63.0002C281.629 63.0002 283.509 61.2102 283.509 58.8302C283.509 56.4502 281.609 54.6602 279.319 54.6602ZM279.319 62.0702C277.589 62.0702 276.129 60.6602 276.129 58.8302C276.129 57.0002 277.449 55.5902 279.319 55.5902C281.189 55.5902 282.509 57.0602 282.509 58.8302C282.509 60.6002 281.049 62.0702 279.319 62.0702Z" fill="#003477"/>
<path d="M285.58 54.8301H284.58V62.8301H288.01V61.9201H285.58V54.8301Z" fill="#003477"/>
<path d="M292.399 54.6602C290.109 54.6602 288.209 56.5402 288.209 58.8302C288.209 61.1202 290.089 63.0002 292.399 63.0002C294.709 63.0002 296.589 61.2102 296.589 58.8302C296.589 56.4502 294.689 54.6602 292.399 54.6602ZM292.399 62.0702C290.669 62.0702 289.209 60.6602 289.209 58.8302C289.209 57.0002 290.529 55.5902 292.399 55.5902C294.269 55.5902 295.589 57.0602 295.589 58.8302C295.589 60.6002 294.129 62.0702 292.399 62.0702Z" fill="#003477"/>
<path d="M301.779 59.7104H303.849C303.809 61.0104 302.469 62.0904 301.229 62.0904C299.499 62.0904 298.119 60.5004 298.119 58.8204C298.119 57.0304 299.519 55.5704 301.309 55.5704C302.289 55.5704 303.249 56.0904 303.819 56.8704L304.519 56.2004C303.729 55.2104 302.499 54.6504 301.259 54.6504C298.959 54.6504 297.109 56.5404 297.109 58.8404C297.109 61.1404 298.909 62.9904 301.149 62.9904C303.389 62.9904 304.939 61.3004 304.939 59.1104V58.7904H301.769V59.7004L301.779 59.7104Z" fill="#003477"/>
<path d="M310.289 54.8301L308.329 58.2501L306.359 54.8301H305.219L307.829 59.3501V62.8301H308.829V59.3501L311.429 54.8301H310.289Z" fill="#003477"/>
<path d="M104.809 46.2704C105.249 46.1204 105.549 46.0104 105.739 45.9304V50.6004H106.749V50.1004H112.099V50.6004H113.109V45.8804C113.259 45.9604 113.409 46.0204 113.589 46.0804C113.759 46.1304 113.919 46.1904 114.069 46.2504L114.549 45.2604C112.979 44.9504 111.789 44.3904 110.959 43.5904H114.459V42.6904H109.869V41.7804C111.329 41.6604 112.559 41.4904 113.549 41.2904L113.079 40.4004C111.589 40.7304 109.399 40.9004 106.509 40.9004C105.899 40.9004 105.389 40.9004 104.979 40.8804L105.339 41.8804C106.049 41.8804 107.219 41.8604 108.849 41.8104V42.6904H104.379V43.5904H107.739C106.759 44.4104 105.609 44.9804 104.289 45.3004L104.809 46.2704V46.2704ZM112.099 49.2004H106.739V48.2404H112.099V49.2004ZM109.869 43.6204C110.549 44.5304 111.449 45.2004 112.559 45.6304H109.869V43.6204ZM112.099 46.5504V47.3804H106.739V46.5504H112.099ZM108.849 43.6304V45.6304H106.369C107.389 45.1904 108.219 44.5304 108.849 43.6304Z" fill="#003477"/>
<path d="M125.379 44.5204C124.819 44.0904 124.279 43.7404 123.769 43.4604L123.119 44.2804C123.549 44.5604 124.059 44.9505 124.639 45.4505L125.379 44.5105V44.5204Z" fill="#003477"/>
<path d="M125.7 41.8904V42.4805H127.15V43.5704H125.49V44.4805H127.23C126.91 45.1605 126.15 45.7804 124.94 46.3204L125.56 47.2305C126.04 46.9305 126.38 46.7004 126.56 46.5504V48.9904C126.56 49.4804 126.65 49.8204 126.83 50.0004C127.02 50.1704 127.35 50.2605 127.81 50.2605H131.34C131.9 50.2605 132.27 50.1604 132.46 49.9704C132.66 49.7704 132.81 49.1605 132.93 48.1505L131.89 47.7704C131.84 48.3404 131.78 48.7505 131.73 48.9805C131.67 49.2005 131.49 49.3204 131.19 49.3204H127.96C127.71 49.3204 127.58 49.1904 127.58 48.9404V48.2404H131.08V46.0105C131.51 46.4005 132.07 46.8005 132.73 47.2005L133.2 46.2305C132.03 45.6505 131.29 45.0705 131 44.4805H133.08V43.5704H131.12V42.4505H132.92V41.5905H131.12V40.4604H130.14V41.5905H128.16V40.4604H127.16V41.5905H125.71V41.7305C125.28 41.4005 124.76 41.0405 124.14 40.6505L123.42 41.4604C123.91 41.7604 124.45 42.1905 125.04 42.7305L125.7 41.9005V41.8904ZM128.14 42.4904H130.12V43.5605H128.14V42.4904ZM128.38 44.4704H129.85C130.05 44.8604 130.27 45.1805 130.51 45.4505H127.73C128 45.1705 128.21 44.8404 128.37 44.4704H128.38ZM127.55 46.3105H130.05V47.3804H127.55V46.3105Z" fill="#003477"/>
<path d="M124.359 46.6704C124.129 47.7004 123.689 48.6704 123.049 49.5804L123.919 50.4704C124.539 49.4804 125.009 48.4004 125.299 47.2304L124.349 46.6804L124.359 46.6704Z" fill="#003477"/>
<path d="M149.38 45.1105C148.58 44.5005 147.91 44.0605 147.37 43.7705L146.73 44.5005C147.3 44.8405 147.961 45.3305 148.711 45.9505L149.38 45.1105V45.1105Z" fill="#003477"/>
<path d="M142.341 48.5602C143.051 47.6302 143.54 46.8202 143.82 46.1202V50.5902L144.82 50.5502V45.5002C145.02 45.7602 145.211 46.0002 145.401 46.2302C145.621 46.4802 145.84 46.7502 146.05 47.0602L146.66 46.1202C146.25 45.6702 145.63 45.0702 144.82 44.3102V44.2102H146.48V43.2802H144.82V41.7502C145.39 41.6302 145.941 41.4802 146.461 41.3002L146.091 40.4102C144.921 40.8502 143.521 41.1102 141.901 41.1902L142.13 42.1002C142.87 42.0502 143.43 41.9902 143.82 41.9202V43.2802H141.8V44.2102H143.79C143.33 45.4202 142.65 46.5402 141.73 47.5702L142.341 48.5502V48.5602Z" fill="#003477"/>
<path d="M149.589 42.4902C148.729 41.8702 148.069 41.4202 147.599 41.1602L146.949 41.8802C147.449 42.1802 148.099 42.6602 148.909 43.3102L149.599 42.4902H149.589Z" fill="#003477"/>
<path d="M151 40.3403H149.98V46.6003L146.34 47.1503V48.1603L149.98 47.6003V50.6003H151V47.4703L151.98 47.3103V46.3203L151 46.4803V40.3403Z" fill="#003477"/>
<path d="M170.72 49.5301C169.8 49.2801 168.99 48.8501 168.26 48.2601C168.67 47.9001 169.071 47.4001 169.451 46.7701C169.831 46.1401 170.07 45.6301 170.17 45.2301V44.3301H167.97V42.8701H170.54V41.8801H167.97V40.3501H166.891V41.8801H164.55V42.5801H163.271V40.3501H162.201V42.5801H160.591V43.5701H162.201V45.7601C161.691 45.9001 161.11 46.0101 160.48 46.0901L160.74 47.2701C161.09 47.1801 161.581 47.0601 162.201 46.9001V49.1201C162.201 49.3601 162.081 49.4801 161.841 49.4801L160.891 49.4501L161.141 50.5501H162C162.54 50.5501 162.89 50.4601 163.04 50.2901C163.19 50.1201 163.26 49.7801 163.26 49.2701V46.6001C163.88 46.3901 164.311 46.2201 164.531 46.1001V45.0301C164.261 45.1601 163.84 45.3201 163.26 45.5101V43.5901H164.54V42.8901H166.891V44.3501H164.73V45.3501H169.05C168.74 46.2601 168.21 47.0101 167.47 47.6001C166.97 47.1001 166.47 46.4101 165.97 45.5201L165.07 45.8801C165.61 46.8601 166.151 47.6301 166.711 48.2001C165.661 48.9001 164.62 49.3701 163.57 49.6001L164.17 50.5901C165.21 50.3701 166.311 49.8201 167.461 48.9501C168.301 49.7201 169.2 50.2601 170.16 50.5701L170.711 49.5501L170.72 49.5301Z" fill="#003477"/>
<path d="M188.59 50.5504L189.43 49.5504C188.35 48.8404 187.5 48.0004 186.88 47.0204C186.26 46.0504 185.87 45.1204 185.7 44.2304H189.18V43.0904H184.57C184.63 42.5204 184.66 41.6104 184.66 40.3604H183.52C183.52 41.5204 183.47 42.4304 183.38 43.0904H179.44V44.2404H183.2C183.03 45.2604 182.57 46.2504 181.84 47.2104C181.1 48.1704 180.22 48.9403 179.18 49.5303L180.01 50.5604C182.45 48.9604 183.91 46.8504 184.4 44.2304H184.57C185.3 47.1504 186.64 49.2604 188.6 50.5404L188.59 50.5504Z" fill="#003477"/>
<path d="M203.66 42.0403C203.39 41.4903 203.11 40.9803 202.82 40.5303L201.98 40.9103C202.26 41.3703 202.531 41.8903 202.781 42.4703L203.67 42.0503L203.66 42.0403Z" fill="#003477"/>
<path d="M201.3 42.2103C201.01 41.7003 200.72 41.2303 200.41 40.8203L199.57 41.2003C199.87 41.6203 200.15 42.1003 200.41 42.6403L201.3 42.2203V42.2103Z" fill="#003477"/>
<path d="M202.15 49.4703C201.78 49.4703 201.42 49.4603 201.09 49.4303L201.3 50.3603H202.74C202.98 50.3603 203.2 50.2603 203.38 50.0703C203.5 49.9503 203.57 49.7603 203.59 49.5203V47.8203H207.57V46.9303H203.59V46.6103C204.53 46.2303 205.36 45.8403 206.09 45.4203V44.5303H200.05V45.4203H204.56C203.84 45.7603 203.16 46.0303 202.51 46.2203V46.9303H198.5V47.8203H202.51V49.2103C202.51 49.3803 202.4 49.4703 202.18 49.4703H202.15Z" fill="#003477"/>
<path d="M199.27 43.6902H206.82V44.9602H207.84V42.8102H205.74C206.05 42.3002 206.36 41.6602 206.66 40.9102L205.56 40.4902C205.21 41.4602 204.88 42.2302 204.55 42.8102H198.25V45.0002H199.27V43.6902V43.6902Z" fill="#003477"/>
</svg>
