<svg width="120" height="66" viewBox="0 0 120 66" fill="none" xmlns="http://www.w3.org/2000/svg">
<path d="M66.1099 8.59991C66.2999 8.34991 66.3699 7.90991 66.3699 7.90991H54.9199C54.9199 7.90991 55.0599 8.39991 55.1799 8.59991H66.1099Z" fill="#A78236"/>
<path d="M65.4409 9.61002C65.6509 9.41002 65.8708 9.02002 65.8708 9.02002H55.3809C55.3809 9.02002 55.5009 9.31002 55.7609 9.61002H65.4409V9.61002Z" fill="#A78236"/>
<path d="M64.6191 10.5201C64.8791 10.3701 65.0892 10.0801 65.0892 10.0801H56.1191C56.1191 10.0801 56.3291 10.3301 56.5491 10.5201H64.6191Z" fill="#A78236"/>
<path d="M63.5692 11.39C63.8292 11.29 64.1091 11.04 64.1091 11.04H57.1191C57.1191 11.04 57.1191 11.09 57.6191 11.39H63.5692Z" fill="#A78236"/>
<path d="M58.4199 11.9299C58.4199 11.9299 59.1599 12.3699 60.5999 12.3699C62.0399 12.3699 62.9699 11.9299 62.9699 11.9299H58.4199Z" fill="#A78236"/>
<path d="M58.2994 12.9399C58.2994 12.9399 59.1794 12.9899 59.6994 13.4099C60.1994 13.8599 60.5794 14.5899 60.5794 14.5899C60.5794 14.5899 60.8894 13.8799 61.3894 13.5099C61.8894 13.1099 62.6894 12.9399 62.6894 12.9399H71.7294L73.5094 15.6799H65.3994C65.3994 15.6799 64.8294 15.6999 63.9794 16.2199C63.5294 16.4899 63.1894 16.9599 63.1894 16.9599C63.1894 16.9599 63.1194 17.1799 63.0194 17.2999C62.9294 17.4199 62.8494 17.5299 62.7394 17.5699C62.6194 17.6199 62.6494 17.5899 62.6494 17.5899H58.4294C58.4294 17.5899 58.2594 17.5199 58.1694 17.3699C58.0694 17.2199 58.1494 17.2699 58.0494 17.1499C57.9794 17.0299 57.8094 16.6999 57.1694 16.2599C56.5094 15.8099 55.8594 15.7699 55.8594 15.7699H47.6094L49.4094 12.9399H58.3094H58.2994Z" fill="#003874"/>
<path d="M51.9202 16.8V30.8C51.9202 30.8 51.9702 32.03 52.9702 33.71C53.9702 35.39 55.4102 36.1501 55.4102 36.1501L56.5501 34.3C56.5501 34.3 55.5502 33.68 54.7902 32.5C54.0502 31.32 54.0501 30.31 54.0501 30.31V16.81H51.9102L51.9202 16.8Z" fill="#003874"/>
<path d="M67.1993 16.76V30.26C67.1993 30.26 67.0293 31.61 66.4193 32.58C65.7993 33.57 64.7793 34.35 64.7793 34.35L65.8793 36.17C65.8793 36.17 67.5393 34.92 68.3393 33.58C69.1493 32.25 69.3393 30.25 69.3393 30.25V16.75H67.1993V16.76Z" fill="#003874"/>
<path d="M48.5293 16.8V30.85C48.5293 30.85 48.6693 33.0201 49.9793 35.2901C51.2893 37.5501 53.6493 39.1301 53.6493 39.1301L54.7693 37.28C54.7693 37.28 53.2493 36.4401 52.0393 34.5201C50.7993 32.5701 50.7293 30.8 50.7293 30.8V16.8H48.5293V16.8Z" fill="#003874"/>
<path d="M58.3008 18.28V33.12C58.3008 33.12 58.2508 33.17 58.2308 33.39C58.2108 33.61 58.0608 33.76 58.0608 33.76L53.3008 41.96H67.9108L63.1408 33.58L63.0008 33.21L62.9508 32.82V18.31H61.1708V33.37C61.1708 33.37 61.1708 33.59 61.2408 33.76C61.2808 33.93 61.3808 34.2 61.3808 34.2L64.3208 39.23H56.8708L59.7608 34.23C59.7608 34.23 59.8608 34.06 59.9308 33.81C59.9808 33.59 60.0008 33.37 60.0008 33.37V18.28H58.2908H58.3008Z" fill="#A78236"/>
<path d="M70.4998 16.76V30.56C70.4998 30.56 70.4797 32.33 69.2197 34.38C67.9697 36.43 66.5098 37.29 66.5098 37.29L67.5798 39.16C67.5798 39.16 69.7598 37.73 71.1398 35.46C72.4898 33.19 72.6597 30.56 72.6597 30.56V16.76H70.4998Z" fill="#003874"/>
<path d="M54.8401 7.51C54.8401 7.51 54.1101 3.35 57.0501 1.28C57.0501 1.28 58.3801 0 60.5401 0C62.8401 0 64.1701 1.25 64.1701 1.25C67.3701 3.69 66.4201 7.51 66.4201 7.51H54.8401V7.51Z" fill="#A78236"/>
<path d="M8.74969 54.9402V58.0502H12.7497C11.0997 57.3802 9.76969 56.3402 8.74969 54.9402ZM4.0997 63.5702H12.0597V62.0902H4.0997V63.5702ZM12.0597 59.4702H4.0997V60.7502H12.0597V59.4702ZM3.52969 58.0602H7.2197V54.9702C6.2797 56.3602 5.04969 57.3902 3.52969 58.0602ZM13.5597 58.4502V65.7502H12.0597V64.9802H4.0997V65.7502H2.58969V58.5402C2.31969 58.6602 1.85969 58.8402 1.20969 59.0602L0.429688 57.5602C2.38969 57.0702 4.09969 56.1802 5.55969 54.9202H0.559692V53.5202H7.20969V52.1602C4.77969 52.2302 3.03969 52.2602 1.98969 52.2602L1.44971 50.7102C2.05971 50.7302 2.82971 50.7402 3.72971 50.7402C8.02971 50.7402 11.2897 50.4802 13.4997 49.9702L14.1997 51.3502C12.7297 51.6602 10.9097 51.9102 8.72971 52.1102V53.5202H15.5597V54.9202H10.3497C11.5797 56.1502 13.3597 57.0102 15.6897 57.4902L14.9797 59.0202C14.7597 58.9202 14.5297 58.8302 14.2697 58.7502C14.0097 58.6702 13.7697 58.5702 13.5597 58.4502" fill="#003874"/>
<path d="M28.8004 54.85H31.7505V53.2H28.8004V54.85ZM29.1605 56.26C28.9205 56.83 28.6004 57.34 28.2104 57.77H32.3405C31.9805 57.36 31.6505 56.85 31.3505 56.26H29.1705H29.1605ZM27.9305 60.75H31.6505V59.1H27.9305V60.75ZM25.1505 51.79H27.3004V50.04H28.8004V51.79H31.7505V50.04H33.2104V51.79H35.8805V53.12H33.2104V54.85H36.1205V56.26H33.0305C33.4605 57.17 34.5504 58.07 36.3004 58.97L35.6005 60.47C34.6105 59.85 33.7905 59.24 33.1405 58.64V62.09H27.9205V63.17C27.9205 63.56 28.1104 63.76 28.4904 63.76H33.3105C33.7605 63.76 34.0305 63.59 34.1205 63.24C34.2105 62.88 34.2904 62.26 34.3604 61.37L35.9105 61.96C35.7405 63.52 35.5104 64.45 35.2104 64.77C34.9304 65.07 34.3705 65.22 33.5405 65.22H28.2905C27.6005 65.22 27.1104 65.09 26.8304 64.82C26.5604 64.54 26.4305 64.02 26.4305 63.25V59.48C26.1605 59.72 25.6605 60.07 24.9405 60.54L24.0204 59.13C25.8104 58.29 26.9405 57.34 27.4205 56.29H24.8304V54.88H27.3105V53.2H25.1605V52.29L24.1705 53.57C23.2905 52.73 22.4805 52.07 21.7605 51.6L22.8304 50.35C23.7504 50.96 24.5205 51.51 25.1605 52.02V51.8L25.1505 51.79ZM23.5905 57.79C22.7205 57.02 21.9605 56.41 21.3205 55.97L22.2905 54.71C23.0605 55.14 23.8505 55.68 24.6805 56.34L23.5804 57.79H23.5905ZM24.5905 60.51C24.1505 62.33 23.4605 64 22.5305 65.52L21.2305 64.14C22.1805 62.74 22.8305 61.24 23.1705 59.65L24.5804 60.51H24.5905Z" fill="#003874"/>
<path d="M52.5594 54.4802C51.3594 53.4802 50.3894 52.7502 49.6494 52.2802L50.6194 51.1702C51.3194 51.5702 52.3094 52.2602 53.5794 53.2202L52.5594 54.4802V54.4802ZM52.2694 58.5702C51.1594 57.6002 50.1794 56.8602 49.3194 56.3302L50.2694 55.2002C51.0794 55.6402 52.0794 56.3302 53.2594 57.2702L52.2594 58.5702H52.2694ZM48.7494 61.9802V60.4202L54.1694 59.5802V49.9102H55.6694V59.3902L57.1294 59.1402V60.6702L55.6694 60.9202V65.7502H54.1694V61.1202L48.7494 61.9802V61.9802ZM44.9794 52.3402C44.4094 52.4502 43.5694 52.5502 42.4694 52.6302L42.1294 51.2202C44.5494 51.1002 46.6194 50.6902 48.3594 50.0102L48.9094 51.3902C48.1294 51.6702 47.3194 51.9002 46.4694 52.0802V54.4502H48.9294V55.9002H46.4694V56.0502C47.6794 57.2202 48.5894 58.1502 49.1994 58.8402L48.2894 60.2902C47.9694 59.8202 47.6394 59.3902 47.3194 59.0102C47.0394 58.6602 46.7494 58.2902 46.4594 57.8802V65.6802L44.9694 65.7502V58.8402C44.5594 59.9202 43.8294 61.1702 42.7694 62.6102L41.8594 61.1002C43.2194 59.5002 44.2394 57.7702 44.9194 55.9002H41.9594V54.4502H44.9694V52.3502L44.9794 52.3402Z" fill="#003874"/>
<path d="M68.6594 54.8801H66.7494V57.8601C67.6094 57.5701 68.2394 57.3201 68.6394 57.1201V58.7701C68.3094 58.9601 67.6694 59.2201 66.7494 59.5401V63.6601C66.7494 64.4601 66.6394 64.9801 66.4194 65.2401C66.1894 65.5101 65.6794 65.6401 64.8794 65.6401H63.5994L63.2294 63.9401L64.6394 63.9901C64.9994 63.9901 65.1694 63.8101 65.1694 63.4401V60.0101C64.2494 60.2601 63.5294 60.4501 62.9994 60.5801L62.6094 58.7601C63.5494 58.6401 64.3994 58.4701 65.1694 58.2501V54.8701H62.7694V53.3401H65.1694V49.8901H66.7594V53.3401H68.6694V52.2601H72.1494V49.8901H73.7494V52.2601H77.5694V53.7901H73.7494V56.0401H77.0194V57.4401C76.8794 58.0401 76.5194 58.8401 75.9494 59.8101C75.3894 60.7901 74.7994 61.5501 74.1894 62.1101C75.2694 63.0301 76.4894 63.6901 77.8494 64.0801L77.0194 65.6601C75.5994 65.1801 74.2594 64.3401 73.0094 63.1501C71.2994 64.5101 69.6794 65.3501 68.1194 65.6901L67.2294 64.1601C68.7794 63.8001 70.3394 63.0801 71.8894 61.9901C71.0594 61.1101 70.2394 59.9201 69.4494 58.4101L70.7894 57.8501C71.5294 59.2201 72.2794 60.2901 73.0194 61.0601C74.1194 60.1501 74.8994 58.9901 75.3694 57.5801H68.9494V56.0301H72.1494V53.7801H68.6694L68.6494 54.8601L68.6594 54.8801Z" fill="#003874"/>
<path d="M93.0206 55.8902C93.2706 57.2602 93.8506 58.6902 94.7706 60.2002C95.6906 61.7002 96.9505 63.0002 98.5605 64.1002L97.3105 65.6502C94.4005 63.6602 92.4006 60.4102 91.3206 55.8902H91.0605C90.3305 59.9402 88.1605 63.2002 84.5405 65.6802L83.3105 64.0802C84.8405 63.1702 86.1606 61.9802 87.2606 60.5002C88.3506 59.0202 89.0306 57.4902 89.2806 55.9102H83.7006V54.1302H89.5605C89.7005 53.1102 89.7706 51.7002 89.7706 49.9102H91.4705C91.4705 51.8402 91.4306 53.2502 91.3406 54.1302H98.2006V55.9102L93.0206 55.8902V55.8902Z" fill="#003874"/>
<path d="M112.03 55.7199C111.53 56.0799 110.9 56.3899 110.14 56.6599L109.44 55.5399C110.18 55.3699 110.75 55.1699 111.12 54.9299C110.9 54.7599 110.54 54.4899 110.04 54.1199L110.88 53.3799C111.08 53.5299 111.27 53.6499 111.44 53.7499C111.65 53.8999 111.87 54.0699 112.12 54.2699C112.44 54.0599 112.82 53.7099 113.24 53.2299L114.1 53.9899C113.7 54.3999 113.33 54.7399 113 54.9999C113.31 55.2799 113.62 55.5799 113.92 55.8899L112.89 56.7099C112.39 56.0499 112.11 55.7199 112.03 55.7199V55.7199ZM111.93 52.2699C111.39 52.6299 110.76 52.9699 110.04 53.2999L109.22 52.1699C110.13 51.9099 110.72 51.6799 111 51.4799C110.73 51.2599 110.36 50.9899 109.9 50.6899L110.77 49.8999C111.19 50.1799 111.62 50.4899 112.05 50.8299C112.52 50.4999 112.84 50.1999 113.04 49.9199L113.85 50.6799C113.61 51.0199 113.29 51.3199 112.9 51.5899C113.12 51.7899 113.4 52.0899 113.76 52.4799L112.77 53.2399C112.34 52.5999 112.06 52.2799 111.94 52.2799L111.93 52.2699ZM117.56 58.3299H105.87V60.7999H104.43V56.9999H105.24L105.06 50.5399C106.46 50.4899 107.65 50.3299 108.62 50.0499L109.33 51.2899C108.73 51.4999 107.77 51.6499 106.45 51.7399L106.5 52.5999H109.02V53.7399H106.54L106.56 54.6999H109.02V55.8599H106.59L106.62 56.9899H116.75L116.77 55.8599H114.5V54.6999H116.81L116.84 53.7399H114.49V52.5999H116.87L116.89 51.6799H114.32V50.3499H118.32L118.14 56.9899H119V60.7899H117.54V58.3199L117.56 58.3299ZM116.11 59.0499V60.2799C115.16 60.8099 113.99 61.2899 112.6 61.7399H119.32V63.0999H112.6V63.7899C112.6 64.9899 112.11 65.5899 111.13 65.5899H108.75L108.38 64.2299L110.6 64.2999C110.92 64.2999 111.09 64.1299 111.09 63.7999V63.1099H104.07V61.7499H111.09V61.0299C111.83 60.8999 112.78 60.6599 113.92 60.3099H107.11V59.0699H116.13L116.11 59.0499Z" fill="#003874"/>
</svg>
