<svg width="181" height="60" viewBox="0 0 181 60" fill="none" xmlns="http://www.w3.org/2000/svg">
<path d="M27.1202 12.1199C27.4002 11.7699 27.5002 11.1499 27.5002 11.1499H10.7402C10.7402 11.1499 10.9402 11.8399 11.1202 12.1199H27.1202Z" fill="#AA8420"/>
<path d="M26.1497 13.54C26.4597 13.26 26.7797 12.71 26.7797 12.71H11.4297C11.4297 12.71 11.5997 13.13 11.9897 13.54H26.1497Z" fill="#AA8420"/>
<path d="M24.9395 14.8199C25.3195 14.6199 25.6295 14.1899 25.6295 14.1899H12.5195C12.5195 14.1899 12.8295 14.5399 13.1395 14.8199H24.9495H24.9395Z" fill="#AA8420"/>
<path d="M23.4009 16.0398C23.7809 15.8998 24.2009 15.5498 24.2009 15.5498H13.9609C13.9609 15.5498 13.9609 15.6298 14.6909 16.0398H23.4009V16.0398Z" fill="#AA8420"/>
<path d="M15.8691 16.7998C15.8691 16.7998 16.9491 17.4298 19.0691 17.4298C21.1891 17.4298 22.5391 16.7998 22.5391 16.7998H15.8791H15.8691Z" fill="#AA8420"/>
<path d="M15.7008 18.23C15.7008 18.23 16.9808 18.3 17.7508 18.89C18.4808 19.52 19.0308 20.56 19.0308 20.56C19.0308 20.56 19.4808 19.56 20.2208 19.03C20.9508 18.47 22.1308 18.23 22.1308 18.23H35.3508L37.9608 22.08H26.0908C26.0908 22.08 25.2608 22.11 24.0008 22.85C23.3408 23.23 22.8508 23.89 22.8508 23.89C22.8508 23.89 22.7508 24.2 22.6108 24.37C22.4708 24.55 22.3708 24.69 22.2008 24.75C22.0208 24.83 22.0608 24.78 22.0608 24.78H15.8808C15.8808 24.78 15.6308 24.68 15.5008 24.47C15.3608 24.27 15.4608 24.33 15.3308 24.17C15.2308 24 14.9808 23.54 14.0508 22.92C13.0808 22.29 12.1408 22.22 12.1408 22.22H0.0507812L2.68078 18.23H15.7008V18.23Z" fill="#003477"/>
<path d="M6.35938 23.6702V43.3802C6.35938 43.3802 6.42938 45.1302 7.88938 47.4702C9.34938 49.8402 11.4594 50.9202 11.4594 50.9202L13.1294 48.3102C13.1294 48.3102 11.6794 47.4402 10.5594 45.7702C9.48938 44.1102 9.48938 42.6801 9.48938 42.6801V23.6602H6.35938V23.6702Z" fill="#003477"/>
<path d="M28.7099 23.6101V42.6201C28.7099 42.6201 28.4699 44.5301 27.5599 45.8801C26.6599 47.2701 25.1699 48.3801 25.1699 48.3801L26.7699 50.9501C26.7699 50.9501 29.1999 49.1801 30.3799 47.3001C31.5599 45.4301 31.8399 42.6101 31.8399 42.6101V23.6001H28.7099V23.6101Z" fill="#003477"/>
<path d="M1.41016 23.6699V43.4599C1.41016 43.4599 1.61016 46.5199 3.52016 49.7099C5.44016 52.8999 8.90016 55.1299 8.90016 55.1299L10.5402 52.5199C10.5402 52.5199 8.32016 51.3399 6.55016 48.6299C4.74016 45.8899 4.64016 43.3899 4.64016 43.3899V23.6799H1.41016V23.6699Z" fill="#003477"/>
<path d="M15.7009 25.76V46.65C15.7009 46.65 15.6209 46.73 15.6009 47.03C15.5609 47.35 15.3509 47.55 15.3509 47.55L8.38086 59.11H29.7609L22.7909 47.31L22.5809 46.79L22.5109 46.24V25.8H19.9009V47.01C19.9009 47.01 19.9009 47.32 20.0109 47.56C20.0809 47.81 20.2209 48.18 20.2209 48.18L24.5209 55.26H13.6209L17.8609 48.21C17.8609 48.21 18.0009 47.97 18.1009 47.62C18.1709 47.31 18.2009 47 18.2009 47V25.75H15.7009V25.76Z" fill="#AA8420"/>
<path d="M33.5409 23.6099V43.0499C33.5409 43.0499 33.5109 45.5499 31.6709 48.4299C29.8309 51.3099 27.7109 52.5199 27.7109 52.5199L29.2709 55.1599C29.2709 55.1599 32.4609 53.1499 34.4809 49.9499C36.4609 46.7499 36.7009 43.0499 36.7009 43.0499V23.6099H33.5409V23.6099Z" fill="#003477"/>
<path d="M10.6299 10.59C10.6299 10.59 9.55987 4.73 13.8599 1.81C13.8599 1.81 15.7999 0 18.9599 0C22.3299 0 24.2699 1.77 24.2699 1.77C28.9499 5.21 27.5599 10.59 27.5599 10.59H10.6299Z" fill="#AA8420"/>
<path d="M75.4006 30.9399V28.5899H63.4406V26.2099C67.2606 25.8899 70.4506 25.4599 73.0206 24.9299L71.8006 22.6099C67.9206 23.4799 62.2206 23.9099 54.6806 23.9099C53.0906 23.9099 51.7606 23.8899 50.6906 23.8499L51.6206 26.4599C53.4706 26.4599 56.5206 26.3999 60.7706 26.2899V28.5899H49.1206V30.9399H57.8706C55.3206 33.0699 52.3306 34.5599 48.8906 35.3899L50.2506 37.9099C51.3806 37.5299 52.1906 37.2399 52.6606 37.0299V49.1799H55.3006V47.8799H69.2506V49.1799H71.8806V36.8899C72.2606 37.0999 72.6706 37.2699 73.1306 37.3999C73.5806 37.5299 74.0006 37.6799 74.3806 37.8499L75.6306 35.2699C71.5506 34.4499 68.4306 33.0099 66.2806 30.9299H75.4006V30.9399ZM54.3206 36.2399C56.9806 35.1099 59.1406 33.3699 60.7806 31.0299V36.2399H54.3206V36.2399ZM69.2506 45.5299H55.3106V43.0399H69.2506V45.5299ZM69.2506 40.7699H55.3106V38.6199H69.2506V40.7699ZM70.4406 36.2399H63.4406V30.9999C65.2206 33.3599 67.5506 35.0999 70.4406 36.2399Z" fill="#003477"/>
<path d="M83.9004 46.53L86.1704 48.85C87.7904 46.28 88.9904 43.47 89.7704 40.41L87.3004 38.96C86.7004 41.64 85.5604 44.16 83.9004 46.53V46.53Z" fill="#003477"/>
<path d="M104.721 43.0498V37.2398C105.851 38.2598 107.291 39.2898 109.021 40.3298L110.241 37.8098C107.181 36.2998 105.281 34.7798 104.521 33.2498H109.931V30.8698H104.831V27.9498H109.511V25.7098H104.831V22.7598H102.281V25.7098H97.1208V22.7598H94.5208V25.7098H90.7508V26.0798C89.6408 25.2298 88.2808 24.2998 86.6708 23.2798L84.8008 25.3798C86.0608 26.1698 87.4708 27.2798 89.0208 28.6898L90.7508 26.5398V28.0698H94.5208V30.8998H90.1808V33.2798H94.7108C93.8808 35.0598 91.9008 36.6498 88.7708 38.0698L90.3808 40.4498C91.6508 39.6598 92.5108 39.0598 92.9908 38.6598V44.9998C92.9908 46.2798 93.2308 47.1698 93.7008 47.6398C94.1908 48.0898 95.0408 48.3198 96.2508 48.3198H105.421C106.871 48.3198 107.841 48.0598 108.341 47.5598C108.851 47.0298 109.251 45.4498 109.561 42.8298L106.841 41.8398C106.711 43.3298 106.571 44.3798 106.421 44.9898C106.271 45.5698 105.801 45.8698 105.001 45.8698H96.5908C95.9308 45.8698 95.6008 45.5398 95.6008 44.8798V43.0698H104.721V43.0498ZM97.1308 28.0898H102.281V30.8698H97.1308V28.0898ZM97.7508 33.2498H101.581C102.111 34.2498 102.691 35.0998 103.311 35.7998H96.0908C96.7908 35.0598 97.3408 34.2098 97.7608 33.2498H97.7508ZM95.6008 40.8098V38.0398H102.121V40.8098H95.6008Z" fill="#003477"/>
<path d="M89.931 33.3901C88.481 32.2701 87.081 31.3601 85.741 30.6401L84.041 32.7601C85.161 33.5001 86.481 34.5201 88.011 35.8201L89.941 33.3901H89.931Z" fill="#003477"/>
<path d="M138.49 34.9302C136.41 33.3402 134.66 32.1802 133.25 31.4502L131.58 33.3502C133.07 34.2402 134.79 35.5002 136.74 37.1202L138.5 34.9402L138.49 34.9302Z" fill="#003477"/>
<path d="M139.031 28.0999C136.801 26.4799 135.071 25.3299 133.841 24.6499L132.141 26.5199C133.441 27.3099 135.141 28.5499 137.241 30.2299L139.031 28.0999V28.0999Z" fill="#003477"/>
<path d="M142.7 22.52H140.07V38.81L130.58 40.22V42.86L140.07 41.42V49.21H142.7V41.08L145.25 40.65V38.07L142.7 38.5V22.52Z" fill="#003477"/>
<path d="M126.601 32.8599V32.6099H130.911V30.1699H126.601V26.1699C128.091 25.8699 129.521 25.4799 130.881 25.0099L129.911 22.6899C126.871 23.8399 123.241 24.5199 119.001 24.7299L119.591 27.1099C121.521 26.9799 122.981 26.8199 123.981 26.6299V30.1699H118.711V32.6099H123.891C122.701 35.7499 120.921 38.6599 118.541 41.3599L120.131 43.9099C121.981 41.4899 123.271 39.3799 123.981 37.5699V49.2099L126.591 49.0999V35.9599C127.101 36.6399 127.601 37.2699 128.091 37.8599C128.661 38.4999 129.221 39.2199 129.791 40.0099L131.381 37.5799C130.311 36.4099 128.711 34.8399 126.591 32.8699L126.601 32.8599Z" fill="#003477"/>
<path d="M173.421 39.8901C171.811 37.3601 170.791 34.9401 170.361 32.6401L179.431 32.6701V29.6701H167.421C167.571 28.1801 167.651 25.8101 167.651 22.5601H164.681C164.681 25.5801 164.561 27.9501 164.311 29.6701H154.051V32.6701H163.821C163.371 35.3401 162.191 37.9101 160.281 40.4101C158.351 42.9001 156.051 44.9101 153.371 46.4501L155.521 49.1401C161.871 44.9701 165.671 39.4701 166.941 32.6501H167.391C169.281 40.2601 172.771 45.7401 177.871 49.0801L180.051 46.4701C177.241 44.6201 175.031 42.4301 173.421 39.9001V39.8901Z" fill="#003477"/>
</svg>
