<svg width="131" height="26" viewBox="0 0 131 26" fill="none" xmlns="http://www.w3.org/2000/svg">
<path d="M15.99 10.2698H3.32V0.509766H0V24.7198H3.32V13.0898H15.99V24.7198H19.32V0.509766H15.99V10.2698Z" fill="black"/>
<path d="M50.3194 0.509766H45.9694L34.6694 11.0098V0.509766H31.3594V24.7198H34.6694V14.5998L36.0194 13.4498L46.0394 24.7198H50.5294L38.3494 11.3898L50.3194 0.509766Z" fill="black"/>
<path d="M75.4905 14.7998C75.4905 18.7498 74.1805 22.4098 69.0605 22.4098C63.9405 22.4098 62.6305 18.7498 62.6305 14.7998V0.509766H59.3105V15.8198C59.3105 21.1498 62.9505 25.2198 69.0605 25.2198C75.1705 25.2198 78.8006 21.1498 78.8006 15.8198V0.509766H75.4805V14.7998H75.4905Z" fill="black"/>
<path d="M99.3605 10.4L97.4605 9.72C95.8005 9.14 93.7505 8.15 93.7505 6.25C93.7505 4.13 96.0805 2.82 98.2005 2.82C100.21 2.82 101.48 3.59 102.47 5.1L105.12 3.66C103.67 1.32 101.24 0 98.2705 0C94.2405 0 90.4305 2.34 90.4305 6.26C90.4305 9.63 93.1905 11.21 96.2205 12.39L98.0605 13.1C100.35 13.97 102.65 15.09 102.65 17.69C102.65 20.29 100.61 22.41 97.7405 22.41C94.8705 22.41 92.5505 20.48 92.5905 17.82L89.2305 18.46C89.8005 22.34 93.1505 25.23 97.4605 25.23C102.22 25.23 105.97 22.08 105.97 17.69C105.97 13.64 103.14 11.75 99.3605 10.4Z" fill="black"/>
<path d="M114.369 0.509766V3.26977H120.689V24.7198H123.999V3.26977H130.329V0.509766H114.369Z" fill="black"/>
</svg>
