<svg width="133" height="27" viewBox="0 0 133 27" fill="none" xmlns="http://www.w3.org/2000/svg">
<path d="M27.4001 8.41984V6.06984H15.4402V3.68984C19.2602 3.36984 22.4502 2.93984 25.0202 2.40984L23.8002 0.0898438C19.9202 0.959844 14.2201 1.38984 6.68015 1.38984C5.09015 1.38984 3.76016 1.36984 2.69016 1.32984L3.62015 3.93984C5.47015 3.93984 8.52015 3.87984 12.7802 3.76984V6.06984H1.13016V8.41984H9.89015C7.34015 10.5498 4.35016 12.0398 0.910156 12.8698L2.27016 15.3898C3.40016 15.0098 4.21015 14.7198 4.68015 14.5098V26.6698H7.32016V25.3698H21.2702V26.6698H23.9001V14.3698C24.2801 14.5798 24.6901 14.7498 25.1501 14.8798C25.6001 15.0098 26.0201 15.1598 26.4001 15.3298L27.6501 12.7498C23.5701 11.9298 20.4602 10.4898 18.3002 8.40984H27.4202L27.4001 8.41984ZM6.32016 13.7198C8.98016 12.5898 11.1302 10.8498 12.7802 8.50984V13.7198H6.32016ZM21.2502 23.0098H7.31015V20.5198H21.2502V23.0098ZM21.2502 18.2498H7.31015V16.0998H21.2502V18.2498ZM22.4402 13.7198H15.4402V8.47984C17.2202 10.8398 19.5502 12.5798 22.4402 13.7198Z" fill="#DA9C02"/>
<path d="M56.7208 14.7202C57.8508 15.7402 59.2908 16.7702 61.0208 17.8102L62.2408 15.2902C59.1808 13.7802 57.2808 12.2602 56.5208 10.7302H61.9308V8.35023H56.8308V5.43023H61.5108V3.19023H56.8308V0.240234H54.2808V3.19023H49.1208V0.240234H46.5208V3.19023H42.7508V3.56023C41.6408 2.71023 40.2808 1.78023 38.6708 0.760234L36.8008 2.86023C38.0608 3.65023 39.4708 4.76023 41.0208 6.17023L42.7508 4.02023V5.55023H46.5208V8.38023H42.1808V10.7602H46.7108C45.8808 12.5402 43.9008 14.1302 40.7708 15.5502L42.3808 17.9302C43.6508 17.1402 44.5108 16.5402 44.9908 16.1402V22.4802C44.9908 23.7602 45.2308 24.6502 45.7008 25.1202C46.1908 25.5702 47.0408 25.8002 48.2508 25.8002H57.4308C58.8808 25.8002 59.8608 25.5402 60.3508 25.0402C60.8608 24.5102 61.2608 22.9302 61.5708 20.3102L58.8508 19.3202C58.7208 20.8102 58.5808 21.8602 58.4308 22.4702C58.2808 23.0502 57.8108 23.3502 57.0108 23.3502H48.6008C47.9408 23.3502 47.6108 23.0202 47.6108 22.3602V20.5502H56.7208V14.7202ZM49.1308 5.57023H54.2808V8.35023H49.1308V5.57023ZM49.7508 10.7302H53.5808C54.1108 11.7302 54.6908 12.5802 55.3108 13.2802H48.0908C48.7908 12.5402 49.3408 11.6902 49.7608 10.7302H49.7508ZM47.6008 18.2902V15.5202H54.1208V18.2902H47.6008Z" fill="#DA9C02"/>
<path d="M35.9004 24.0099L38.1704 26.3299C39.7904 23.7599 40.9904 20.9499 41.7704 17.8899L39.3004 16.4399C38.7004 19.1199 37.5604 21.6399 35.9004 24.0099Z" fill="#DA9C02"/>
<path d="M41.931 10.8701C40.481 9.75012 39.081 8.84012 37.741 8.12012L36.041 10.2401C37.161 10.9801 38.481 12.0001 40.011 13.3001L41.941 10.8701H41.931Z" fill="#DA9C02"/>
<path d="M90.4901 12.4102C88.4101 10.8202 86.6601 9.66018 85.2501 8.93018L83.5801 10.8302C85.0701 11.7202 86.7901 12.9802 88.7401 14.6002L90.5001 12.4202L90.4901 12.4102Z" fill="#DA9C02"/>
<path d="M91.0306 5.57988C88.8006 3.95988 87.0706 2.80988 85.8406 2.12988L84.1406 3.99988C85.4406 4.78988 87.1406 6.02988 89.2406 7.70988L91.0306 5.57988Z" fill="#DA9C02"/>
<path d="M78.601 10.3399V10.0899H82.911V7.64992H78.601V3.64992C80.091 3.34992 81.521 2.95992 82.881 2.48992L81.911 0.169922C78.871 1.31992 75.241 1.99992 71.001 2.20992L71.591 4.58992C73.521 4.45992 74.981 4.29992 75.981 4.10992V7.64992H70.711V10.0899H75.891C74.701 13.2299 72.921 16.1399 70.541 18.8399L72.131 21.3899C73.981 18.9699 75.271 16.8599 75.981 15.0499V26.6899L78.591 26.5799V13.4299C79.101 14.1099 79.601 14.7399 80.091 15.3299C80.661 15.9699 81.221 16.6899 81.791 17.4799L83.381 15.0499C82.311 13.8799 80.711 12.3099 78.591 10.3399H78.601Z" fill="#DA9C02"/>
<path d="M94.7001 0H92.0701V16.29L82.5801 17.7V20.34L92.0701 18.9V26.69H94.7001V18.56L97.2501 18.13V15.55L94.7001 15.98V0Z" fill="#DA9C02"/>
<path d="M125.431 17.37C123.821 14.84 122.801 12.42 122.371 10.12L131.431 10.15V7.15004H119.421C119.571 5.66004 119.651 3.29004 119.651 0.0400391H116.681C116.681 3.06004 116.561 5.43004 116.311 7.15004H106.051V10.15H115.821C115.371 12.82 114.191 15.39 112.281 17.89C110.351 20.38 108.051 22.39 105.371 23.93L107.521 26.62C113.861 22.45 117.671 16.95 118.941 10.13H119.391C121.281 17.74 124.771 23.22 129.871 26.56L132.051 23.95C129.241 22.1 127.031 19.91 125.421 17.38L125.431 17.37Z" fill="#DA9C02"/>
</svg>
