<svg width="220" height="41" viewBox="0 0 220 41" fill="none" xmlns="http://www.w3.org/2000/svg">
<path d="M36.1888 26.2199H37.3088V18.3799H39.4388V17.3599H34.0488V18.3799H36.1888V26.2199Z" fill="#003477"/>
<path d="M41.4696 21.9696H45.7496V26.2196H46.8696V17.3696H45.7496V20.9396H41.4696V17.3696H40.3496V26.2196H41.4696V21.9696Z" fill="#003477"/>
<path d="M53.4394 25.2096H49.7294V21.8696H53.3294V20.8596H49.7294V18.3796H53.4394V17.3696H48.6094V26.2296H53.4394V25.2096Z" fill="#003477"/>
<path d="M59.5302 21.9696H63.8102V26.2196H64.9302V17.3696H63.8102V20.9396H59.5302V17.3696H58.4102V26.2196H59.5302V21.9696Z" fill="#003477"/>
<path d="M70.7491 17.1797C68.1791 17.1797 66.0391 19.2597 66.0391 21.7997C66.0391 24.3397 68.1491 26.4197 70.7491 26.4197C73.3491 26.4197 75.4591 24.4297 75.4591 21.7997C75.4591 19.1697 73.3291 17.1797 70.7491 17.1797ZM70.7491 25.3797C68.8091 25.3797 67.1591 23.8197 67.1591 21.7997C67.1591 19.7797 68.6391 18.2197 70.7491 18.2197C72.8591 18.2197 74.3391 19.8497 74.3391 21.7997C74.3391 23.7497 72.6991 25.3797 70.7491 25.3797V25.3797Z" fill="#003477"/>
<path d="M83.2988 23.9099L76.5488 16.9399V26.2199H77.6688V19.6199L84.4188 26.5899V17.3599H83.2988V23.9099Z" fill="#003477"/>
<path d="M90.7593 22.7699H93.0793C93.0293 24.2099 91.5293 25.3999 90.1293 25.3999C88.1893 25.3999 86.6393 23.6399 86.6393 21.7799C86.6393 19.7899 88.2093 18.1799 90.2293 18.1799C91.3293 18.1799 92.4093 18.7599 93.0593 19.6299L93.8493 18.8899C92.9693 17.7999 91.5893 17.1699 90.1893 17.1699C87.5993 17.1699 85.5293 19.2599 85.5293 21.8099C85.5293 24.3599 87.5593 26.3999 90.0693 26.3999C92.5793 26.3999 94.3293 24.5299 94.3293 22.0999V21.7499H90.7693V22.7599L90.7593 22.7699Z" fill="#003477"/>
<path d="M99.1191 17.3696V26.2296H100.239V22.5196L100.689 22.0996L104.079 26.2296H105.589L101.479 21.3496L105.519 17.3696H104.049L100.239 21.2096V17.3696H99.1191Z" fill="#003477"/>
<path d="M110.46 17.1797C107.88 17.1797 105.75 19.2597 105.75 21.7997C105.75 24.3397 107.86 26.4197 110.46 26.4197C113.06 26.4197 115.17 24.4297 115.17 21.7997C115.17 19.1697 113.04 17.1797 110.46 17.1797ZM110.46 25.3797C108.52 25.3797 106.87 23.8197 106.87 21.7997C106.87 19.7797 108.35 18.2197 110.46 18.2197C112.57 18.2197 114.05 19.8497 114.05 21.7997C114.05 23.7497 112.41 25.3797 110.46 25.3797V25.3797Z" fill="#003477"/>
<path d="M116.27 26.2199H117.39V19.6199L124.14 26.5899V17.3599H123.02V23.9099L116.27 16.9399V26.2199Z" fill="#003477"/>
<path d="M130.48 22.7699H132.8C132.75 24.2099 131.25 25.3999 129.86 25.3999C127.92 25.3999 126.37 23.6399 126.37 21.7799C126.37 19.7899 127.94 18.1799 129.96 18.1799C131.06 18.1799 132.14 18.7599 132.79 19.6299L133.58 18.8899C132.7 17.7999 131.31 17.1699 129.92 17.1699C127.33 17.1699 125.26 19.2599 125.26 21.8099C125.26 24.3599 127.29 26.3999 129.8 26.3999C132.31 26.3999 134.06 24.5299 134.06 22.0999V21.7499H130.5V22.7599L130.48 22.7699Z" fill="#003477"/>
<path d="M145.26 22.9696V17.3696H144.14V22.5996C144.14 24.0496 143.7 25.3796 141.97 25.3796C140.24 25.3796 139.8 24.0396 139.8 22.5996V17.3696H138.68V22.9696C138.68 24.9196 139.91 26.4096 141.97 26.4096C144.03 26.4096 145.26 24.9196 145.26 22.9696Z" fill="#003477"/>
<path d="M147.938 19.6199L154.688 26.5899V17.3599H153.568V23.9099L146.818 16.9399V26.2199H147.938V19.6199Z" fill="#003477"/>
<path d="M157.489 17.3696H156.369V26.2296H157.489V17.3696Z" fill="#003477"/>
<path d="M164.93 17.3696L162.26 23.9196L159.58 17.3696H158.35L162.26 26.6996L166.16 17.3696H164.93Z" fill="#003477"/>
<path d="M171.869 25.2096H168.159V21.8696H171.759V20.8596H168.159V18.3796H171.869V17.3696H167.039V26.2296H171.869V25.2096Z" fill="#003477"/>
<path d="M174.489 22.4799H174.949L177.599 26.2299H178.959L176.119 22.3799C177.419 22.2299 178.279 21.1699 178.279 19.8999C178.279 19.0599 177.849 18.2199 177.099 17.7899C176.389 17.3899 175.529 17.3799 174.729 17.3799H173.369V26.2399H174.489V22.4899V22.4799ZM174.489 18.3599H174.789C175.899 18.3599 177.239 18.5599 177.239 19.9499C177.239 21.3399 175.999 21.5699 174.849 21.5699H174.489V18.3599Z" fill="#003477"/>
<path d="M182.358 25.3799C181.388 25.3799 180.608 24.6799 180.618 23.6999L179.488 23.9299C179.678 25.3499 180.808 26.4099 182.268 26.4099C183.878 26.4099 185.138 25.2599 185.138 23.6499C185.138 22.1699 184.188 21.4799 182.908 20.9799L182.268 20.7299C181.708 20.5199 181.018 20.1499 181.018 19.4599C181.018 18.6799 181.808 18.1999 182.518 18.1999C183.228 18.1999 183.628 18.4799 183.958 19.0399L184.848 18.5099C184.358 17.6499 183.538 17.1699 182.538 17.1699C181.178 17.1699 179.888 18.0299 179.888 19.4599C179.888 20.6899 180.818 21.2699 181.838 21.6999L182.458 21.9599C183.238 22.2799 184.008 22.6899 184.008 23.6399C184.008 24.5899 183.318 25.3699 182.348 25.3699L182.358 25.3799Z" fill="#003477"/>
<path d="M187.559 17.3696H186.439V26.2296H187.559V17.3696Z" fill="#003477"/>
<path d="M188.529 18.3799H190.659V26.2199H191.789V18.3799H193.919V17.3599H188.529V18.3799Z" fill="#003477"/>
<path d="M197.478 21.1496L195.278 17.3696H193.988L196.918 22.3696V26.2296H198.038V22.3696L200.978 17.3696H199.688L197.478 21.1496Z" fill="#003477"/>
<path d="M209.509 17.1797C206.939 17.1797 204.799 19.2597 204.799 21.7997C204.799 24.3397 206.909 26.4197 209.509 26.4197C212.109 26.4197 214.219 24.4297 214.219 21.7997C214.219 19.1697 212.089 17.1797 209.509 17.1797ZM209.509 25.3797C207.569 25.3797 205.919 23.8197 205.919 21.7997C205.919 19.7797 207.399 18.2197 209.509 18.2197C211.619 18.2197 213.099 19.8497 213.099 21.7997C213.099 23.7497 211.459 25.3797 209.509 25.3797V25.3797Z" fill="#003477"/>
<path d="M219.76 18.3796V17.3696H215.41V26.2296H216.53V21.8796H219.66V20.8696H216.53V18.3796H219.76Z" fill="#003477"/>
<path d="M37.8302 35.08L37.1902 34.83C36.6302 34.62 35.9402 34.25 35.9402 33.56C35.9402 32.78 36.7302 32.3 37.4402 32.3C38.1502 32.3 38.5502 32.58 38.8802 33.14L39.7702 32.61C39.2802 31.75 38.4602 31.27 37.4602 31.27C36.1002 31.27 34.8102 32.13 34.8102 33.56C34.8102 34.79 35.7402 35.37 36.7702 35.8L37.3902 36.06C38.1702 36.38 38.9402 36.79 38.9402 37.74C38.9402 38.69 38.2502 39.47 37.2802 39.47C36.3102 39.47 35.5302 38.77 35.5402 37.79L34.4102 38.03C34.6002 39.45 35.7302 40.51 37.1902 40.51C38.8002 40.51 40.0602 39.36 40.0602 37.75C40.0602 36.27 39.1102 35.58 37.8302 35.08V35.08Z" fill="#003477"/>
<path d="M40.9087 35.94C40.9087 38.5 43.0287 40.51 45.5887 40.51C46.3787 40.51 47.2587 40.29 47.9487 39.89V38.58C47.2787 39.17 46.4387 39.5 45.5487 39.5C43.5487 39.5 42.0187 37.84 42.0187 35.9C42.0187 33.96 43.5587 32.28 45.5687 32.28C46.4187 32.28 47.2987 32.59 47.9387 33.15V31.87C47.2587 31.46 46.4587 31.27 45.6687 31.27C43.0187 31.27 40.8887 33.31 40.8887 35.93L40.9087 35.94Z" fill="#003477"/>
<path d="M50.4891 31.46H49.3691V40.32H50.4891V31.46Z" fill="#003477"/>
<path d="M52.2891 40.32H57.1191V39.31H53.4091V35.96H57.0091V34.95H53.4091V32.47H57.1191V31.46H52.2891V40.32Z" fill="#003477"/>
<path d="M65.2598 38.01L58.5098 31.04V40.32H59.6398V33.72L66.3798 40.69V31.46H65.2598V38.01Z" fill="#003477"/>
<path d="M67.6001 35.94C67.6001 38.5 69.7201 40.51 72.2801 40.51C73.0701 40.51 73.9501 40.29 74.6401 39.89V38.58C73.9701 39.17 73.1301 39.5 72.2401 39.5C70.2401 39.5 68.7101 37.84 68.7101 35.9C68.7101 33.96 70.2501 32.28 72.2601 32.28C73.1101 32.28 73.9901 32.59 74.6301 33.15V31.87C73.9501 31.46 73.1501 31.27 72.3601 31.27C69.7101 31.27 67.5801 33.31 67.5801 35.93L67.6001 35.94Z" fill="#003477"/>
<path d="M76.0996 40.32H80.9296V39.31H77.2196V35.96H80.8196V34.95H77.2196V32.47H80.9296V31.46H76.0996V40.32Z" fill="#003477"/>
<path d="M85.0391 40.3196H86.2391L87.2691 38.0996H91.3891L92.4191 40.3196H93.6191L89.3291 31.0796L85.0391 40.3196ZM87.7291 37.0896L89.3291 33.5096L90.9291 37.0896H87.7291V37.0896Z" fill="#003477"/>
<path d="M101.129 38.01L94.3789 31.04V40.32H95.4989V33.72L102.249 40.69V31.46H101.129V38.01Z" fill="#003477"/>
<path d="M105.729 31.46H103.869V40.32H105.689C108.529 40.32 110.769 38.86 110.769 35.84C110.769 32.82 108.479 31.46 105.729 31.46V31.46ZM105.389 39.31H104.999V32.47H105.389C107.679 32.47 109.659 33.3 109.659 35.89C109.659 38.48 107.679 39.31 105.389 39.31Z" fill="#003477"/>
<path d="M114.738 32.47H116.878V40.32H117.998V32.47H120.128V31.46H114.738V32.47Z" fill="#003477"/>
<path d="M121.129 40.32H125.959V39.31H122.249V35.96H125.849V34.95H122.249V32.47H125.959V31.46H121.129V40.32Z" fill="#003477"/>
<path d="M126.959 35.94C126.959 38.5 129.079 40.51 131.649 40.51C132.439 40.51 133.319 40.29 134.009 39.89V38.58C133.339 39.17 132.499 39.5 131.609 39.5C129.609 39.5 128.079 37.84 128.079 35.9C128.079 33.96 129.619 32.28 131.629 32.28C132.479 32.28 133.359 32.59 133.999 33.15V31.87C133.319 31.46 132.519 31.27 131.739 31.27C129.089 31.27 126.959 33.31 126.959 35.93V35.94Z" fill="#003477"/>
<path d="M140.769 35.03H136.489V31.46H135.369V40.32H136.489V36.07H140.769V40.32H141.889V31.46H140.769V35.03Z" fill="#003477"/>
<path d="M150.27 38.01L143.52 31.04V40.32H144.64V33.72L151.39 40.69V31.46H150.27V38.01Z" fill="#003477"/>
<path d="M157.179 31.27C154.609 31.27 152.469 33.35 152.469 35.89C152.469 38.43 154.579 40.51 157.179 40.51C159.779 40.51 161.889 38.52 161.889 35.89C161.889 33.26 159.749 31.27 157.179 31.27ZM157.179 39.47C155.239 39.47 153.589 37.91 153.589 35.89C153.589 33.87 155.069 32.31 157.179 32.31C159.289 32.31 160.769 33.94 160.769 35.89C160.769 37.84 159.129 39.47 157.179 39.47Z" fill="#003477"/>
<path d="M164.21 31.46H163.09V40.32H166.94V39.31H164.21V31.46Z" fill="#003477"/>
<path d="M171.88 31.27C169.31 31.27 167.17 33.35 167.17 35.89C167.17 38.43 169.28 40.51 171.88 40.51C174.48 40.51 176.59 38.52 176.59 35.89C176.59 33.26 174.45 31.27 171.88 31.27ZM171.88 39.47C169.94 39.47 168.29 37.91 168.29 35.89C168.29 33.87 169.77 32.31 171.88 32.31C173.99 32.31 175.47 33.94 175.47 35.89C175.47 37.84 173.82 39.47 171.88 39.47Z" fill="#003477"/>
<path d="M182.419 36.8698H184.739C184.689 38.3098 183.189 39.4998 181.799 39.4998C179.859 39.4998 178.309 37.7398 178.309 35.8798C178.309 33.8898 179.879 32.2898 181.899 32.2898C182.999 32.2898 184.079 32.8698 184.729 33.7398L185.519 32.9998C184.639 31.9098 183.259 31.2798 181.859 31.2798C179.269 31.2798 177.199 33.3698 177.199 35.9198C177.199 38.4698 179.229 40.5098 181.739 40.5098C184.249 40.5098 185.999 38.6398 185.999 36.2098V35.8598H182.429V36.8698H182.419Z" fill="#003477"/>
<path d="M189.769 35.25L187.569 31.46H186.279L189.209 36.47V40.32H190.329V36.47L193.259 31.46H191.979L189.769 35.25Z" fill="#003477"/>
<path d="M34.2892 7.87969C34.7692 7.71969 35.1192 7.59969 35.3192 7.50969V12.6397H36.4492V12.0897H42.4092V12.6397H43.5392V7.44969C43.6992 7.53969 43.8792 7.60969 44.0692 7.66969C44.2592 7.71969 44.4392 7.78969 44.5992 7.85969L45.1292 6.76969C43.3892 6.42969 42.0492 5.81969 41.1292 4.93969H45.0292V3.94969H39.9192V2.94969C41.5492 2.80969 42.9192 2.62969 44.0192 2.40969L43.4992 1.42969C41.8392 1.79969 39.3992 1.97969 36.1792 1.97969C35.4992 1.97969 34.9292 1.97969 34.4692 1.95969L34.8692 3.05969C35.6592 3.05969 36.9692 3.02969 38.7792 2.98969V3.95969H33.7992V4.94969H37.5392C36.4492 5.84969 35.1692 6.47969 33.6992 6.82969L34.2792 7.88969L34.2892 7.87969ZM42.4092 11.0897H36.4392V10.0397H42.4092V11.0897ZM39.9192 4.95969C40.6792 5.94969 41.6792 6.68969 42.9092 7.16969H39.9192V4.95969ZM42.3992 8.16969V9.07969H36.4392V8.16969H42.3992ZM38.7792 4.96969V7.16969H36.0192C37.1592 6.68969 38.0792 5.95969 38.7792 4.96969Z" fill="#003477"/>
<path d="M52.2302 3.06998V3.70998H53.8402V4.90998H51.9802V5.90998H53.9202C53.5702 6.65998 52.7202 7.32998 51.3802 7.92998L52.0702 8.92998C52.6102 8.58998 52.9802 8.33998 53.1902 8.17998V10.86C53.1902 11.4 53.2902 11.77 53.4902 11.97C53.7002 12.16 54.0602 12.26 54.5802 12.26H58.5102C59.1302 12.26 59.5502 12.15 59.7602 11.94C59.9802 11.72 60.1502 11.05 60.2802 9.94998L59.1102 9.52998C59.0502 10.16 58.9902 10.6 58.9302 10.86C58.8702 11.11 58.6602 11.23 58.3202 11.23H54.7202C54.4402 11.23 54.2902 11.09 54.2902 10.81V10.04H58.1902V7.58998C58.6702 8.01998 59.2902 8.44998 60.0302 8.88998L60.5502 7.82998C59.2402 7.18998 58.4202 6.54998 58.1002 5.90998H60.4102V4.90998H58.2302V3.67998H60.2302V2.73998H58.2302V1.47998H57.1402V2.71998H54.9302V1.47998H53.8202V2.71998H52.2102V2.86998C51.7302 2.50998 51.1502 2.11998 50.4602 1.68998L49.6602 2.56998C50.2002 2.89998 50.8002 3.36998 51.4602 3.96998L52.2002 3.05998L52.2302 3.06998ZM54.9502 3.72998H57.1602V4.89998H54.9502V3.72998V3.72998ZM55.2202 5.89998H56.8602C57.0902 6.31998 57.3302 6.67998 57.6002 6.97998H54.5102C54.8102 6.66998 55.0502 6.30998 55.2302 5.89998H55.2202ZM54.3002 7.91998H57.0902V9.08998H54.3002V7.91998Z" fill="#003477"/>
<path d="M51.7991 8.92982L50.7491 8.31982C50.4891 9.44982 50.0091 10.5098 49.2891 11.5098L50.2591 12.4898C50.9491 11.4098 51.4691 10.2198 51.7991 8.92982Z" fill="#003477"/>
<path d="M51.8696 5.9598C51.2496 5.4898 50.6496 5.1098 50.0796 4.7998L49.3496 5.6998C49.8296 6.0098 50.3896 6.4398 51.0496 6.9898L51.8696 5.9598V5.9598Z" fill="#003477"/>
<path d="M69.8594 9.95988L73.9194 9.34988V12.6299H75.0494V9.19988L76.1394 9.01988V7.93988L75.0494 8.11988V1.37988H73.9194V8.24988L69.8594 8.83988V9.95988Z" fill="#003477"/>
<path d="M73.2491 6.60965C72.3591 5.93965 71.6091 5.44965 71.0091 5.13965L70.2891 5.93965C70.9291 6.31965 71.6691 6.84965 72.4991 7.52965L73.2491 6.60965Z" fill="#003477"/>
<path d="M65.4085 10.3997C66.1985 9.37971 66.7485 8.48971 67.0585 7.71971V12.6297L68.1785 12.5797V7.03971C68.3985 7.32971 68.6085 7.58971 68.8185 7.83971C69.0585 8.10971 69.2985 8.40971 69.5485 8.74971L70.2285 7.71971C69.7685 7.22971 69.0885 6.55971 68.1785 5.73971V5.62971H70.0185V4.59971H68.1785V2.91971C68.8185 2.78971 69.4285 2.62971 70.0085 2.42971L69.5985 1.44971C68.2985 1.93971 66.7385 2.21971 64.9285 2.30971L65.1785 3.30971C66.0085 3.25971 66.6285 3.18971 67.0585 3.10971V4.59971H64.7985V5.62971H67.0185C66.5085 6.94971 65.7485 8.17971 64.7285 9.31971L65.4085 10.3997V10.3997Z" fill="#003477"/>
<path d="M73.4793 3.73002C72.5293 3.05002 71.7893 2.56002 71.2593 2.27002L70.5293 3.06002C71.0893 3.40002 71.8193 3.92002 72.7093 4.63002L73.4693 3.73002H73.4793Z" fill="#003477"/>
<path d="M80.25 7.66988L80.54 8.95988C80.94 8.85988 81.48 8.72988 82.16 8.54988V10.9899C82.16 11.2499 82.03 11.3799 81.76 11.3799L80.71 11.3399L80.99 12.5499H81.95C82.55 12.5499 82.94 12.4499 83.11 12.2599C83.27 12.0799 83.35 11.6999 83.35 11.1399V8.20988C84.05 7.97988 84.52 7.79988 84.77 7.65988V6.48988C84.47 6.62988 84 6.80988 83.35 7.01988V4.90988H84.78V4.13988H87.4V5.73988H85V6.83988H89.81C89.46 7.83988 88.88 8.66988 88.05 9.30988C87.49 8.75988 86.93 7.99988 86.38 7.02988L85.37 7.41988C85.97 8.49988 86.58 9.33988 87.2 9.95988C86.04 10.7299 84.87 11.2499 83.71 11.4999L84.38 12.5899C85.54 12.3499 86.76 11.7499 88.04 10.7899C88.98 11.6399 89.98 12.2299 91.05 12.5699L91.67 11.4499C90.65 11.1699 89.74 10.6999 88.93 10.0499C89.39 9.64988 89.83 9.10988 90.25 8.40988C90.68 7.71988 90.95 7.14988 91.05 6.72988V5.73988H88.6V4.13988H91.46V3.04988H88.6V1.37988H87.4V3.05988H84.79V3.81988H83.36V1.37988H82.17V3.82988H80.38V4.91988H82.17V7.31988C81.59 7.46988 80.96 7.58988 80.25 7.67988V7.66988Z" fill="#003477"/>
<path d="M95.7385 11.4699L96.6585 12.6099C99.3685 10.8499 100.999 8.5299 101.539 5.6499H101.739C102.549 8.8599 104.039 11.1699 106.229 12.5799L107.159 11.4799C105.959 10.6999 105.009 9.7699 104.319 8.7099C103.629 7.6399 103.199 6.6199 103.009 5.6499H106.889V4.3999H101.749C101.819 3.7699 101.849 2.7699 101.849 1.3999H100.579C100.579 2.6699 100.529 3.6699 100.419 4.3999H96.0285V5.6699H100.209C100.019 6.7899 99.5085 7.8799 98.6885 8.9299C97.8585 9.9799 96.8785 10.8299 95.7285 11.4799L95.7385 11.4699Z" fill="#003477"/>
<path d="M114.94 3.30996C114.6 2.71996 114.26 2.18996 113.91 1.70996L112.93 2.13996C113.28 2.62996 113.61 3.17996 113.91 3.78996L114.94 3.29996V3.30996Z" fill="#003477"/>
<path d="M115.939 11.66C115.499 11.66 115.089 11.64 114.699 11.61L114.939 12.68H116.619C116.899 12.68 117.149 12.57 117.359 12.34C117.499 12.2 117.579 11.99 117.599 11.71V9.75998H122.239V8.73998H117.599V8.36998C118.689 7.93998 119.659 7.47998 120.509 6.99998V5.97998H113.459V6.99998H118.719C117.879 7.38998 117.079 7.69998 116.319 7.91998V8.73998H111.639V9.75998H116.319V11.36C116.319 11.56 116.189 11.66 115.929 11.66H115.939Z" fill="#003477"/>
<path d="M117.698 3.10963C117.378 2.46963 117.048 1.88963 116.718 1.36963L115.738 1.79963C116.068 2.32963 116.378 2.92963 116.668 3.58963L117.698 3.10963Z" fill="#003477"/>
<path d="M112.578 5.00982H121.398V6.46982H122.588V3.98982H120.138C120.498 3.39982 120.858 2.66982 121.208 1.79982L119.918 1.31982C119.518 2.42982 119.128 3.31982 118.748 3.98982H111.398V6.50982H112.588V4.99982L112.578 5.00982Z" fill="#003477"/>
<path d="M20.6404 40.5898L15.8204 32.6798C15.8204 32.6798 15.6704 32.4998 15.6704 32.1998V17.5298H13.8504V32.6698C14.0004 32.8198 17.0304 37.9198 17.0304 37.9198H9.51039C9.51039 37.9198 12.5404 32.8198 12.6904 32.6698V17.5298H10.8704V32.1998C10.8704 32.4998 10.7204 32.6798 10.7204 32.6798L5.90039 40.5898H20.6204H20.6404Z" fill="#AA8420"/>
<path d="M19.1492 7.27C19.1492 7.27 20.0592 3.57 16.8192 1.15C16.8192 1.15 15.5292 0 13.0692 0C10.8692 0 9.5792 1.15 9.5792 1.15C6.5992 3.19 7.3792 7.27 7.3792 7.27H19.1492Z" fill="#AA8420"/>
<path d="M7.73953 8.2899H18.8095C18.8995 8.0799 18.9695 7.8699 19.0295 7.6499H7.51953C7.57953 7.8699 7.65953 8.0799 7.73953 8.2899" fill="#AA8420"/>
<path d="M18.6399 8.66992H7.91992C8.02992 8.88992 8.14992 9.09992 8.28992 9.30992H18.2699C18.4099 9.10992 18.5299 8.88992 18.6399 8.66992Z" fill="#AA8420"/>
<path d="M9.01055 10.1999H17.5405C17.7005 10.0399 17.8505 9.86994 17.9905 9.68994H8.56055C8.70055 9.86994 8.85055 10.0399 9.01055 10.1999Z" fill="#AA8420"/>
<path d="M9.92992 10.9698H16.6099C16.7899 10.8498 16.9599 10.7198 17.1199 10.5898H9.41992C9.57992 10.7298 9.74992 10.8498 9.92992 10.9698" fill="#AA8420"/>
<path d="M10.8594 11.48C11.5994 11.81 12.4194 11.99 13.2794 11.99C14.1394 11.99 14.9594 11.81 15.6994 11.48H10.8594Z" fill="#AA8420"/>
<path d="M24.75 12.27H15.7C15.7 12.27 14.86 12.27 14.19 12.72C13.67 13.07 13.3 13.88 13.29 13.92C13.29 13.92 12.9 13.07 12.39 12.72C11.72 12.27 10.88 12.27 10.88 12.27H1.81L0 15.13H8.3C8.3 15.13 8.55 15.13 8.7 15.15C8.94 15.19 9.37 15.32 9.82 15.64C10.43 16.08 10.61 16.3 10.76 16.45C10.83 16.53 11.03 16.78 11.03 16.78H15.56C15.56 16.78 15.76 16.52 15.83 16.45C15.98 16.3 16.15 16.08 16.77 15.64C17.22 15.32 17.65 15.19 17.89 15.15C18.04 15.13 18.29 15.13 18.29 15.13H26.59L24.78 12.27H24.75Z" fill="#003477"/>
<path d="M0.910156 16V29.58C0.910156 29.73 0.920156 29.86 0.930156 29.98C1.08016 31.41 1.53016 32.47 2.38016 33.87C3.71016 36.06 6.12016 37.59 6.12016 37.59L7.26016 35.8C7.26016 35.8 5.71016 34.99 4.48016 33.13C4.23016 32.76 3.98016 32.41 3.82016 32.07C3.66016 31.74 3.54016 31.47 3.44016 31.19C3.37016 30.99 3.31016 30.8 3.27016 30.63C3.21016 30.38 3.18016 30.19 3.17016 29.96C3.17016 29.88 3.15016 29.54 3.15016 29.54V16H0.910156Z" fill="#003477"/>
<path d="M4.35938 16V29.53C4.35938 29.53 4.35938 29.58 4.35938 29.64C4.35938 29.71 4.36937 29.8 4.37937 29.88C4.37937 29.93 4.39937 29.99 4.39937 30.02C4.43937 30.23 4.48937 30.42 4.57937 30.7C4.73937 31.16 5.00937 31.71 5.40937 32.34C6.42937 33.96 7.89937 34.7 7.89937 34.7L9.03937 32.96C9.03937 32.96 8.65937 32.76 8.20937 32.32C7.90937 32.03 7.54937 31.66 7.23937 31.2C6.93937 30.74 6.74937 30.28 6.64937 29.92C6.55937 29.63 6.54937 29.39 6.53937 29.24C6.53937 29.12 6.53937 29.05 6.53937 29.05V16H4.35938V16Z" fill="#003477"/>
<path d="M25.6605 16V29.58C25.6605 29.73 25.6505 29.86 25.6405 29.98C25.4905 31.41 25.0405 32.47 24.1905 33.87C22.8605 36.06 20.4505 37.59 20.4505 37.59L19.3105 35.8C19.3105 35.8 20.8605 34.99 22.0905 33.13C22.3405 32.76 22.5905 32.41 22.7505 32.07C22.9105 31.74 23.0305 31.47 23.1305 31.19C23.2005 30.99 23.2605 30.8 23.3005 30.63C23.3605 30.38 23.3905 30.19 23.4005 29.96C23.4005 29.88 23.4105 29.54 23.4105 29.54V16H25.6605V16Z" fill="#003477"/>
<path d="M22.2108 16V29.53C22.2108 29.53 22.2108 29.58 22.2108 29.64C22.2108 29.71 22.2008 29.8 22.1908 29.88C22.1908 29.93 22.1708 29.99 22.1708 30.02C22.1308 30.23 22.0808 30.42 21.9908 30.7C21.8308 31.16 21.5608 31.71 21.1708 32.34C20.1508 33.96 18.6808 34.7 18.6808 34.7L17.5508 32.96C17.5508 32.96 17.9308 32.76 18.3808 32.32C18.6808 32.03 19.0408 31.66 19.3508 31.2C19.6508 30.74 19.8308 30.28 19.9408 29.92C20.0308 29.63 20.0408 29.39 20.0508 29.24C20.0508 29.12 20.0508 29.05 20.0508 29.05V16H22.2308H22.2108Z" fill="#003477"/>
</svg>
