<svg width="119" height="88" viewBox="0 0 119 88" fill="none" xmlns="http://www.w3.org/2000/svg">
<path d="M17.1407 61.4301H16.1407V54.2801H14.2207V53.3601H19.0607V54.2801H17.1407V61.4301Z" fill="#003874"/>
<path d="M24.7211 56.6101V53.3601H25.7311V61.4301H24.7211V57.5601H20.8811V61.4301H19.8711V53.3601H20.8811V56.6101H24.7211Z" fill="#003874"/>
<path d="M27.291 53.3601H31.631V54.2801H28.301V56.5401H31.531V57.4601H28.301V60.5101H31.631V61.4301H27.291V53.3601Z" fill="#003874"/>
<path d="M40.9398 56.6101V53.3601H41.9498V61.4301H40.9398V57.5601H37.0998V61.4301H36.0898V53.3601H37.0998V56.6101H40.9398Z" fill="#003874"/>
<path d="M50.3914 57.3999C50.3914 55.6199 49.0614 54.1299 47.1714 54.1299C45.2814 54.1299 43.9514 55.6199 43.9514 57.3999C43.9514 59.1799 45.4314 60.6599 47.1714 60.6599C48.9114 60.6599 50.3914 59.2399 50.3914 57.3999ZM51.4014 57.3999C51.4014 59.7999 49.5014 61.6099 47.1714 61.6099C44.8414 61.6099 42.9414 59.7999 42.9414 57.3999C42.9414 54.9999 44.8614 53.1899 47.1714 53.1899C49.4814 53.1899 51.4014 55.0799 51.4014 57.3999" fill="#003874"/>
<path d="M52.3809 52.98L58.4409 59.32V53.36H59.4509V61.76L53.3909 55.42V61.43H52.3809V52.98Z" fill="#003874"/>
<path d="M68.3414 57.3699V57.6899C68.3414 59.9099 66.7814 61.6099 64.5214 61.6099C62.2614 61.6099 60.4414 59.6599 60.4414 57.4199C60.4414 55.1799 62.3014 53.1899 64.6314 53.1899C65.8814 53.1899 67.1214 53.7599 67.9214 54.7499L67.2114 55.4199C66.6314 54.6299 65.6614 54.0999 64.6714 54.0999C62.8614 54.0999 61.4514 55.5699 61.4514 57.3799C61.4514 59.0699 62.8414 60.6799 64.5814 60.6799C65.8314 60.6799 67.1814 59.5999 67.2214 58.2799H65.1314V57.3599H68.3314L68.3414 57.3699Z" fill="#003874"/>
<path d="M77.0804 53.3601H78.3904L74.7604 56.9901L78.4604 61.4301H77.1004L74.0604 57.6701L73.6504 58.0601V61.4301H72.6504V53.3601H73.6504V56.8601L77.0804 53.3601Z" fill="#003874"/>
<path d="M86.0596 57.3999C86.0596 55.6199 84.7296 54.1299 82.8396 54.1299C80.9496 54.1299 79.6196 55.6199 79.6196 57.3999C79.6196 59.1799 81.0996 60.6599 82.8396 60.6599C84.5796 60.6599 86.0596 59.2399 86.0596 57.3999ZM87.0596 57.3999C87.0596 59.7999 85.1596 61.6099 82.8296 61.6099C80.4996 61.6099 78.5996 59.7999 78.5996 57.3999C78.5996 54.9999 80.5196 53.1899 82.8296 53.1899C85.1396 53.1899 87.0596 55.0799 87.0596 57.3999Z" fill="#003874"/>
<path d="M88.0508 52.98L94.1108 59.32V53.36H95.1108V61.76L89.0608 55.42V61.43H88.0508V52.98Z" fill="#003874"/>
<path d="M104.011 57.3699V57.6899C104.011 59.9099 102.451 61.6099 100.191 61.6099C97.9313 61.6099 96.1113 59.6599 96.1113 57.4199C96.1113 55.1799 97.9713 53.1899 100.291 53.1899C101.541 53.1899 102.791 53.7599 103.581 54.7499L102.871 55.4199C102.291 54.6299 101.321 54.0999 100.331 54.0999C98.5213 54.0999 97.1113 55.5699 97.1113 57.3799C97.1113 59.0699 98.5013 60.6799 100.241 60.6799C101.491 60.6799 102.841 59.5999 102.881 58.2799H100.791V57.3599H103.991L104.011 57.3699Z" fill="#003874"/>
<path d="M0.99 66.2V70.96C0.99 72.28 1.39 73.5 2.94 73.5C4.49 73.5 4.89 72.28 4.89 70.96V66.2H5.9V71.31C5.9 73.09 4.8 74.45 2.95 74.45C1.1 74.45 0 73.09 0 71.31V66.2H0.99Z" fill="#003874"/>
<path d="M7.29102 65.8201L13.351 72.1601V66.2001H14.361V74.6001L8.30102 68.2601V74.2701H7.29102V65.8201Z" fill="#003874"/>
<path d="M16.8811 66.2H15.8711V74.27H16.8811V66.2Z" fill="#003874"/>
<path d="M21.1506 72.18L23.5506 66.2H24.6506L21.1506 74.7L17.6406 66.2H18.7406L21.1506 72.18Z" fill="#003874"/>
<path d="M25.4512 66.2H29.7812V67.12H26.4512V69.38H29.6812V70.3H26.4512V73.35H29.7812V74.27H25.4512V66.2Z" fill="#003874"/>
<path d="M32.1411 70.02H32.4611C33.4911 70.02 34.6011 69.83 34.6011 68.54C34.6011 67.25 33.4011 67.09 32.4111 67.09H32.1411V70.01V70.02ZM36.1511 74.27H34.9311L32.5511 70.86H32.1311V74.27H31.1211V66.2H32.3411C33.0611 66.2 33.8311 66.21 34.4711 66.57C35.1411 66.97 35.5311 67.73 35.5311 68.5C35.5311 69.66 34.7611 70.62 33.5911 70.76L36.1411 74.27H36.1511Z" fill="#003874"/>
<path d="M40.6311 67.73C40.3311 67.23 39.9411 66.97 39.3411 66.97C38.7011 66.97 37.9911 67.41 37.9911 68.12C37.9911 68.75 38.6111 69.09 39.1111 69.28L39.6911 69.51C40.8411 69.96 41.6911 70.59 41.6911 71.94C41.6911 73.41 40.5611 74.46 39.1111 74.46C37.8011 74.46 36.7911 73.49 36.6211 72.2L37.6411 71.98C37.6311 72.87 38.3411 73.51 39.2011 73.51C40.0611 73.51 40.6911 72.78 40.6911 71.94C40.6911 71.1 40.0011 70.7 39.3011 70.41L38.7411 70.17C37.8211 69.77 36.9811 69.25 36.9811 68.12C36.9811 66.81 38.1411 66.03 39.3611 66.03C40.2611 66.03 41.0011 66.47 41.4411 67.25L40.6411 67.73H40.6311Z" fill="#003874"/>
<path d="M43.8811 66.2H42.8711V74.27H43.8811V66.2Z" fill="#003874"/>
<path d="M47.6702 74.27H46.6602V67.12H44.7402V66.2H49.5802V67.12H47.6702V74.27Z" fill="#003874"/>
<path d="M49.6504 66.2H50.8004L52.7804 69.65L54.7604 66.2H55.9204L53.2904 70.76V74.27H52.2804V70.76L49.6504 66.2Z" fill="#003874"/>
<path d="M66.8096 70.24C66.8096 68.46 65.4796 66.97 63.5896 66.97C61.6996 66.97 60.3696 68.46 60.3696 70.24C60.3696 72.02 61.8496 73.51 63.5896 73.51C65.3296 73.51 66.8096 72.09 66.8096 70.24ZM67.8096 70.24C67.8096 72.64 65.9196 74.45 63.5796 74.45C61.2396 74.45 59.3496 72.64 59.3496 70.24C59.3496 67.84 61.2696 66.03 63.5796 66.03C65.8896 66.03 67.8096 67.92 67.8096 70.24Z" fill="#003874"/>
<path d="M69.8909 67.12V69.39H72.6909V70.31H69.8909V74.28H68.8809V66.2H72.7909V67.12H69.8909Z" fill="#003874"/>
<path d="M80.8598 67.73C80.5598 67.23 80.1798 66.97 79.5698 66.97C78.9298 66.97 78.2198 67.41 78.2198 68.12C78.2198 68.75 78.8398 69.09 79.3398 69.28L79.9198 69.51C81.0698 69.96 81.9198 70.59 81.9198 71.94C81.9198 73.41 80.7898 74.46 79.3398 74.46C78.0298 74.46 77.0198 73.49 76.8398 72.2L77.8598 71.98C77.8498 72.87 78.5598 73.51 79.4198 73.51C80.2798 73.51 80.9098 72.78 80.9098 71.94C80.9098 71.1 80.2098 70.7 79.5198 70.41L78.9598 70.17C78.0398 69.77 77.2098 69.25 77.2098 68.12C77.2098 66.81 78.3598 66.03 79.5898 66.03C80.4898 66.03 81.2298 66.47 81.6698 67.25L80.8698 67.73H80.8598Z" fill="#003874"/>
<path d="M89.0097 67.75C88.4297 67.24 87.6397 66.96 86.8797 66.96C85.0697 66.96 83.6897 68.47 83.6897 70.26C83.6897 72.05 85.0597 73.53 86.8597 73.53C87.6497 73.53 88.4097 73.23 89.0097 72.7V73.89C88.3897 74.25 87.5997 74.46 86.8897 74.46C84.5897 74.46 82.6797 72.63 82.6797 70.29C82.6797 67.95 84.5997 66.04 86.9697 66.04C87.6797 66.04 88.3897 66.21 88.9997 66.59V67.76L89.0097 67.75Z" fill="#003874"/>
<path d="M91.2812 66.2H90.2812V74.27H91.2812V66.2Z" fill="#003874"/>
<path d="M92.9004 66.2H97.2404V67.12H93.9104V69.38H97.1404V70.3H93.9104V73.35H97.2404V74.27H92.9004V66.2Z" fill="#003874"/>
<path d="M98.4902 65.8201L104.55 72.1601V66.2001H105.56V74.6001L99.5002 68.2601V74.2701H98.4902V65.8201Z" fill="#003874"/>
<path d="M112.971 67.75C112.391 67.24 111.601 66.96 110.841 66.96C109.031 66.96 107.651 68.47 107.651 70.26C107.651 72.05 109.021 73.53 110.821 73.53C111.611 73.53 112.371 73.23 112.971 72.7V73.89C112.351 74.25 111.561 74.46 110.851 74.46C108.551 74.46 106.641 72.63 106.641 70.29C106.641 67.95 108.561 66.04 110.931 66.04C111.641 66.04 112.351 66.21 112.961 66.59V67.76L112.971 67.75Z" fill="#003874"/>
<path d="M114.281 66.2H118.621V67.12H115.291V69.38H118.521V70.3H115.291V73.35H118.621V74.27H114.281V66.2Z" fill="#003874"/>
<path d="M14.4711 80.91L15.9011 84.17H13.0311L14.4611 80.91H14.4711ZM10.6211 87.12H11.7011L12.6211 85.1H16.3211L17.2411 87.12H18.3211L14.4711 78.7L10.6211 87.12V87.12Z" fill="#003874"/>
<path d="M19.0098 87.1199H20.0198V81.0999L26.0798 87.4499V79.0399H25.0698V85.0099L19.0098 78.6599V87.1199Z" fill="#003874"/>
<path d="M28.5413 86.2H28.8913C30.9413 86.2 32.7213 85.43 32.7213 83.08C32.7213 80.73 30.9413 79.96 28.8913 79.96H28.5413V86.19V86.2ZM27.5312 79.05H29.2013C31.6713 79.05 33.7313 80.36 33.7313 83.04C33.7313 85.72 31.7213 87.12 29.1713 87.12H27.5312V79.05V79.05Z" fill="#003874"/>
<path d="M37.291 79.04V79.96H39.211V87.12H40.221V79.96H42.131V79.04H37.291Z" fill="#003874"/>
<path d="M43.0312 79.04V87.12H47.3713V86.19H44.0413V83.15H47.2713V82.22H44.0413V79.96H47.3713V79.04H43.0312Z" fill="#003874"/>
<path d="M54.5898 80.5899C54.0098 80.0799 53.2198 79.7999 52.4598 79.7999C50.6498 79.7999 49.2698 81.3099 49.2698 83.0999C49.2698 84.8899 50.6398 86.3699 52.4398 86.3699C53.2298 86.3699 53.9898 86.0699 54.5898 85.5399V86.7299C53.9698 87.0899 53.1798 87.2999 52.4698 87.2999C50.1698 87.2999 48.2598 85.4699 48.2598 83.1299C48.2598 80.7899 50.1798 78.8799 52.5498 78.8799C53.2598 78.8799 53.9698 79.0499 54.5798 79.4299V80.5999L54.5898 80.5899Z" fill="#003874"/>
<path d="M60.6605 79.04V82.3H56.8205V79.04H55.8105V87.12H56.8205V83.24H60.6605V87.12H61.6705V79.04H60.6605Z" fill="#003874"/>
<path d="M63.1309 87.1199H64.1409V81.0999L70.2009 87.4499V79.0399H69.1909V85.0099L63.1309 78.6599V87.1199Z" fill="#003874"/>
<path d="M78.6299 83.0801C78.6299 81.3001 77.2999 79.8101 75.4099 79.8101C73.5199 79.8101 72.1899 81.3001 72.1899 83.0801C72.1899 84.8601 73.6599 86.3501 75.4099 86.3501C77.1599 86.3501 78.6299 84.9301 78.6299 83.0801ZM79.6299 83.0801C79.6299 85.4801 77.7399 87.2901 75.3999 87.2901C73.0599 87.2901 71.1699 85.4801 71.1699 83.0801C71.1699 80.6801 73.0899 78.8701 75.3999 78.8701C77.7099 78.8701 79.6299 80.7601 79.6299 83.0801Z" fill="#003874"/>
<path d="M80.7109 79.04V87.12H84.1709V86.19H81.7209V79.04H80.7109Z" fill="#003874"/>
<path d="M91.8213 83.0801C91.8213 81.3001 90.4913 79.8101 88.6013 79.8101C86.7113 79.8101 85.3813 81.3001 85.3813 83.0801C85.3813 84.8601 86.8613 86.3501 88.6013 86.3501C90.3413 86.3501 91.8213 84.9301 91.8213 83.0801ZM92.8213 83.0801C92.8213 85.4801 90.9313 87.2901 88.5913 87.2901C86.2513 87.2901 84.3613 85.4801 84.3613 83.0801C84.3613 80.6801 86.2813 78.8701 88.5913 78.8701C90.9013 78.8701 92.8213 80.7601 92.8213 83.0801Z" fill="#003874"/>
<path d="M101.261 83.0501V83.3701C101.261 85.5801 99.7013 87.2901 97.4413 87.2901C95.1813 87.2901 93.3613 85.3401 93.3613 83.1001C93.3613 80.8601 95.2213 78.8701 97.5513 78.8701C98.8013 78.8701 100.041 79.4401 100.841 80.4301L100.131 81.1001C99.5513 80.3101 98.5813 79.7801 97.5913 79.7801C95.7813 79.7801 94.3713 81.2501 94.3713 83.0601C94.3713 84.7501 95.7613 86.3601 97.5013 86.3601C98.7513 86.3601 100.101 85.2801 100.151 83.9601H98.0613V83.0401H101.261V83.0501Z" fill="#003874"/>
<path d="M106.651 79.04L104.671 82.49L102.691 79.04H101.531L104.161 83.6V87.12H105.171V83.6L107.811 79.04H106.651Z" fill="#003874"/>
<path d="M65.5511 9.56004C65.7711 9.28004 65.8511 8.79004 65.8511 8.79004H52.6211C52.6211 8.79004 52.7811 9.34004 52.9211 9.56004H65.5511V9.56004Z" fill="#A78236"/>
<path d="M64.7799 10.69C65.0299 10.47 65.2799 10.03 65.2799 10.03H53.1699C53.1699 10.03 53.3099 10.36 53.6099 10.69H64.7899H64.7799Z" fill="#A78236"/>
<path d="M63.8295 11.7C64.1295 11.54 64.3795 11.21 64.3795 11.21H54.0195C54.0195 11.21 54.2695 11.49 54.5095 11.7H63.8295V11.7Z" fill="#A78236"/>
<path d="M62.6199 12.66C62.9199 12.55 63.2499 12.27 63.2499 12.27H55.1699C55.1699 12.27 55.1699 12.33 55.7399 12.66H62.6199V12.66Z" fill="#A78236"/>
<path d="M56.6699 13.26C56.6699 13.26 57.5199 13.76 59.1899 13.76C60.8599 13.76 61.9299 13.26 61.9299 13.26H56.6699V13.26Z" fill="#A78236"/>
<path d="M56.5399 14.3799C56.5399 14.3799 57.5499 14.4299 58.1499 14.8999C58.7299 15.3999 59.1699 16.2199 59.1699 16.2199C59.1699 16.2199 59.5299 15.4299 60.0999 15.0199C60.6799 14.5799 61.6099 14.3899 61.6099 14.3899H72.0499L74.0999 17.4299H64.7299C64.7299 17.4299 64.0699 17.4599 63.0899 18.0399C62.5699 18.3399 62.1799 18.8599 62.1799 18.8599C62.1799 18.8599 62.0999 19.1099 61.9899 19.2399C61.8799 19.3799 61.7999 19.4899 61.6599 19.5399C61.5199 19.5999 61.5499 19.5699 61.5499 19.5699H56.6699C56.6699 19.5699 56.4699 19.4899 56.3699 19.3199C56.2599 19.1599 56.3399 19.2099 56.2299 19.0799C56.1499 18.9399 55.9499 18.5799 55.2099 18.0899C54.4499 17.5899 53.6999 17.5399 53.6999 17.5399H44.1699L46.2499 14.3899H56.5299L56.5399 14.3799Z" fill="#003874"/>
<path d="M49.1602 18.6799V34.2399C49.1602 34.2399 49.2202 35.6099 50.3702 37.4699C51.5202 39.3299 53.1902 40.1899 53.1902 40.1899L54.5102 38.1299C54.5102 38.1299 53.3602 37.4399 52.4802 36.1299C51.6302 34.8199 51.6302 33.6899 51.6302 33.6899V18.6799H49.1602Z" fill="#003874"/>
<path d="M66.8095 18.6301V33.6401C66.8095 33.6401 66.6195 35.1501 65.9095 36.2201C65.1995 37.3201 64.0195 38.1901 64.0195 38.1901L65.2795 40.2101C65.2795 40.2101 67.1895 38.8201 68.1295 37.3301C69.0595 35.8501 69.2795 33.6301 69.2795 33.6301V18.6201H66.8095V18.6301Z" fill="#003874"/>
<path d="M45.25 18.6799V34.2999C45.25 34.2999 45.41 36.7099 46.92 39.2299C48.43 41.7499 51.17 43.4999 51.17 43.4999L52.46 41.4399C52.46 41.4399 50.71 40.5099 49.31 38.3699C47.88 36.2099 47.8 34.2299 47.8 34.2299V18.6699H45.25V18.6799Z" fill="#003874"/>
<path d="M56.5398 20.3301V36.8201C56.5398 36.8201 56.4798 36.8801 56.4598 37.1201C56.4298 37.3701 56.2698 37.5301 56.2698 37.5301L50.7598 46.6501H67.6398L62.1298 37.3301L61.9698 36.9201L61.9098 36.4801V20.3601H59.8498V37.1101C59.8498 37.1101 59.8498 37.3501 59.9298 37.5401C59.9798 37.7301 60.0898 38.0301 60.0898 38.0301L63.4898 43.6201H54.8898L58.2298 38.0601C58.2298 38.0601 58.3398 37.8701 58.4198 37.6001C58.4798 37.3501 58.4998 37.1101 58.4998 37.1101V20.3301H56.5298H56.5398Z" fill="#A78236"/>
<path d="M70.6195 18.6299V33.9799C70.6195 33.9799 70.5995 35.9499 69.1395 38.2199C67.6895 40.4999 66.0195 41.4599 66.0195 41.4599L67.2595 43.5399C67.2595 43.5399 69.7795 41.9499 71.3695 39.4299C72.9295 36.9099 73.1195 33.9799 73.1195 33.9799V18.6299H70.6195V18.6299Z" fill="#003874"/>
<path d="M52.5398 8.35C52.5398 8.35 51.6898 3.72 55.0898 1.42C55.0798 1.42 56.6198 0 59.1098 0C61.7698 0 63.2998 1.39 63.2998 1.39C66.9998 4.1 65.8998 8.35 65.8998 8.35H52.5298H52.5398Z" fill="#A78236"/>
</svg>
