<svg width="100" height="105" viewBox="0 0 100 105" fill="none" xmlns="http://www.w3.org/2000/svg">
<path d="M20.1 90.0702V88.2102H11.03V86.3202C13.93 86.0702 16.35 85.7302 18.3 85.3102L17.37 83.4702C14.43 84.1602 10.1 84.5002 4.38 84.5002C3.18 84.5002 2.17001 84.4802 1.35001 84.4502L2.06 86.5202C3.46 86.5202 5.78 86.4702 9 86.3802V88.2002H0.170013V90.0602H6.81C4.88 91.7502 2.6 92.9202 0 93.5802L1.03 95.5802C1.89 95.2802 2.50002 95.0502 2.86002 94.8902V104.51H4.86002V103.48H15.44V104.51H17.44V94.7702C17.73 94.9402 18.04 95.0702 18.39 95.1702C18.73 95.2702 19.05 95.3902 19.34 95.5302L20.28 93.4902C17.18 92.8502 14.82 91.7002 13.19 90.0602H20.11L20.1 90.0702ZM4.11002 94.2702C6.13002 93.3702 7.76001 92.0002 9.01001 90.1402V94.2702H4.11002ZM15.43 101.63H4.86002V99.6602H15.43V101.63ZM15.43 97.8602H4.86002V96.1502H15.43V97.8602ZM16.34 94.2702H11.03V90.1202C12.38 91.9902 14.14 93.3802 16.34 94.2702Z" fill="#003477"/>
<path d="M31.1106 92.0106C30.0006 91.1306 28.9406 90.4006 27.9306 89.8306L26.6406 91.5206C27.4806 92.1006 28.4806 92.9106 29.6506 93.9406L31.1106 92.0106V92.0106Z" fill="#003477"/>
<path d="M42.33 99.6604V95.0604C43.19 95.8704 44.28 96.6804 45.6 97.5104L46.53 95.5104C44.21 94.3104 42.76 93.1104 42.19 91.9004H46.3V90.0204H42.43V87.7104H45.97V85.9404H42.43V83.6104H40.5V85.9404H36.59V83.6104H34.62V85.9404H31.76V86.2304C30.91 85.5504 29.88 84.8104 28.67 84.0104L27.25 85.6703C28.21 86.3003 29.28 87.1704 30.45 88.3004L31.76 86.6004V87.8104H34.62V90.0504H31.33V91.9404H34.77C34.14 93.3504 32.63 94.6104 30.26 95.7304L31.49 97.6204C32.45 96.9904 33.11 96.5204 33.47 96.2104V101.24C33.47 102.26 33.65 102.95 34.01 103.33C34.38 103.69 35.02 103.87 35.94 103.87H42.9C44.01 103.87 44.74 103.67 45.11 103.26C45.5 102.84 45.81 101.59 46.04 99.5104L43.98 98.7304C43.88 99.9104 43.77 100.74 43.66 101.22C43.55 101.68 43.19 101.91 42.59 101.91H36.21C35.71 101.91 35.46 101.65 35.46 101.13V99.6904H42.37L42.33 99.6604ZM36.57 87.8104H40.48V90.0104H36.57V87.8104ZM37.05 91.8904H39.95C40.35 92.6804 40.79 93.3604 41.26 93.9104H35.78C36.31 93.3304 36.73 92.6504 37.05 91.8904V91.8904ZM35.42 97.8804V95.6804H40.36V97.8804H35.42Z" fill="#003477"/>
<path d="M26.5391 102.42L28.2591 104.26C29.4891 102.23 30.399 99.9902 30.989 97.5702L29.119 96.4302C28.659 98.5502 27.7991 100.55 26.5391 102.42V102.42Z" fill="#003477"/>
<path d="M67.9395 93.2302C66.3695 91.9702 65.0394 91.0502 63.9594 90.4702L62.6895 91.9802C63.8195 92.6802 65.1295 93.6802 66.5995 94.9602L67.9294 93.2302H67.9395Z" fill="#003477"/>
<path d="M71.1295 83.4004H69.1295V96.3004L61.9395 97.4304V99.5104L69.1295 98.3704V104.54H71.1295V98.1004L73.0695 97.7604V95.7204L71.1295 96.0604V83.4004Z" fill="#003477"/>
<path d="M68.3391 87.8206C66.6491 86.5306 65.3391 85.6206 64.4091 85.0806L63.1191 86.5606C64.1091 87.1906 65.3991 88.1706 66.9891 89.5006L68.3391 87.8206V87.8206Z" fill="#003477"/>
<path d="M58.9206 91.5905V91.3905H62.1906V89.4605H58.9206V86.3005C60.0506 86.0605 61.1306 85.7505 62.1606 85.3805L61.4305 83.5405C59.1205 84.4505 56.3606 84.9905 53.1606 85.1605L53.6106 87.0505C55.0706 86.9405 56.1806 86.8205 56.9406 86.6705V89.4705H52.9406V91.4005H56.8705C55.9705 93.8805 54.6105 96.1905 52.8105 98.3305L54.0106 100.351C55.4106 98.4305 56.3905 96.7605 56.9305 95.3205V104.541L58.9106 104.451V94.0405C59.3006 94.5805 59.6806 95.0805 60.0506 95.5505C60.4806 96.0605 60.9105 96.6305 61.3405 97.2605L62.5406 95.3305C61.7206 94.4005 60.5106 93.1605 58.9106 91.6105L58.9206 91.5905Z" fill="#003477"/>
<path d="M94.4407 97.1602C93.2207 95.1502 92.4507 93.2402 92.1207 91.4202L99.0007 91.4402V89.0602H89.8907C90.0007 87.8802 90.0607 86.0002 90.0607 83.4302H87.8007C87.8007 85.8202 87.7107 87.7002 87.5207 89.0602H79.7407V91.4402H87.1507C86.8107 93.5502 85.9107 95.5902 84.4607 97.5602C83.0007 99.5302 81.2507 101.13 79.2207 102.34L80.8507 104.47C85.6607 101.16 88.5507 96.8102 89.5107 91.4102H89.8507C91.2807 97.4402 93.9307 101.78 97.8007 104.43L99.4507 102.37C97.3207 100.9 95.6407 99.1702 94.4207 97.1602H94.4407Z" fill="#003477"/>
<path d="M62.2492 73.1601L54.0592 58.9001C54.0592 58.9001 53.7992 58.5701 53.7992 58.0401V31.6001H50.7092V58.8801C50.9692 59.1501 56.1192 68.3301 56.1192 68.3301H43.3292C43.3292 68.3301 48.4792 59.1501 48.7392 58.8801V31.6001H45.6492V58.0401C45.6492 58.5801 45.3892 58.9001 45.3892 58.9001L37.1992 73.1601H62.2492V73.1601Z" fill="#AA8420"/>
<path d="M59.7103 13.1C59.7103 13.1 61.2503 6.43001 55.7503 2.07001C55.7503 2.07001 53.5503 0 49.3703 0C45.6303 0 43.4303 2.07001 43.4303 2.07001C38.3703 5.75001 39.6903 13.1 39.6903 13.1H59.7203H59.7103Z" fill="#AA8420"/>
<path d="M40.3094 14.9303H59.1395C59.2895 14.5603 59.4094 14.1703 59.5194 13.7803H39.9395C40.0495 14.1703 40.1695 14.5603 40.3195 14.9303" fill="#AA8420"/>
<path d="M58.8394 15.6201H40.6094C40.7994 16.0201 41.0093 16.4001 41.2393 16.7701H58.2094C58.4394 16.4001 58.6494 16.0201 58.8394 15.6201" fill="#AA8420"/>
<path d="M42.4709 18.3804H56.9709C57.2409 18.0904 57.5009 17.7804 57.7409 17.4604H41.7109C41.9509 17.7804 42.201 18.0904 42.481 18.3804" fill="#AA8420"/>
<path d="M44.0397 19.7603H55.4097C55.7097 19.5503 55.9997 19.3203 56.2697 19.0703H43.1797C43.4497 19.3203 43.7397 19.5503 44.0397 19.7603" fill="#AA8420"/>
<path d="M45.6096 20.6802C46.8696 21.2702 48.2596 21.6002 49.7196 21.6002C51.1796 21.6002 52.5696 21.2702 53.8296 20.6802H45.5996H45.6096Z" fill="#AA8420"/>
<path d="M69.2509 22.1104H53.8409C53.8409 22.1104 52.4108 22.1103 51.2708 22.9203C50.3908 23.5503 49.7609 25.0104 49.7309 25.0804C49.7009 25.0104 49.0709 23.5503 48.1909 22.9203C47.0509 22.1103 45.6208 22.1104 45.6208 22.1104H30.2108L27.1309 27.2604H41.2408C41.2408 27.2604 41.6609 27.2604 41.9109 27.3004C42.3309 27.3704 43.0609 27.6004 43.8209 28.1804C44.8609 28.9704 45.1609 29.3704 45.4109 29.6404C45.5409 29.7804 45.8708 30.2404 45.8708 30.2404H53.5709C53.5709 30.2404 53.9009 29.7804 54.0309 29.6404C54.2909 29.3704 54.5809 28.9704 55.6309 28.1804C56.3909 27.6104 57.1209 27.3804 57.5409 27.3004C57.8009 27.2604 58.2108 27.2604 58.2108 27.2604H72.3209L69.2408 22.1104H69.2509Z" fill="#003477"/>
<path d="M28.6797 28.8203V53.2903C28.6797 53.5603 28.6997 53.7903 28.7197 54.0103C28.9697 56.6003 29.7397 58.5003 31.1797 61.0203C33.4397 64.9603 37.5497 67.7203 37.5497 67.7203L39.4897 64.5003C39.4897 64.5003 36.8597 63.0403 34.7697 59.6903C34.3397 59.0203 33.9297 58.3903 33.6397 57.7703C33.3697 57.1803 33.1597 56.7003 32.9997 56.1903C32.8797 55.8203 32.7797 55.4903 32.7097 55.1803C32.6097 54.7303 32.5597 54.3903 32.5297 53.9703C32.5297 53.8203 32.5097 53.2103 32.5097 53.2103V28.8303H28.6897L28.6797 28.8203Z" fill="#003477"/>
<path d="M34.5508 28.8203V53.2003C34.5508 53.2003 34.5508 53.3003 34.5608 53.4003C34.5608 53.5203 34.5808 53.7003 34.6008 53.8403C34.6108 53.9203 34.6308 54.0303 34.6408 54.1003C34.7108 54.4803 34.7908 54.8203 34.9508 55.3203C35.2208 56.1403 35.6808 57.1303 36.3508 58.2703C38.0808 61.1903 40.5808 62.5303 40.5808 62.5303L42.5108 59.3903C42.5108 59.3903 41.8708 59.0203 41.0908 58.2403C40.5808 57.7203 39.9608 57.0503 39.4408 56.2303C38.9308 55.4003 38.6108 54.5703 38.4308 53.9303C38.2808 53.4103 38.2508 52.9803 38.2508 52.7103C38.2508 52.4903 38.2508 52.3603 38.2508 52.3603V28.8303H34.5508V28.8203Z" fill="#003477"/>
<path d="M70.7807 28.8203V53.2903C70.7807 53.5603 70.7607 53.7903 70.7407 54.0103C70.4907 56.6003 69.7207 58.5003 68.2807 61.0203C66.0207 64.9603 61.9107 67.7203 61.9107 67.7203L59.9707 64.5003C59.9707 64.5003 62.6007 63.0403 64.6907 59.6903C65.1207 59.0203 65.5307 58.3903 65.8207 57.7703C66.0907 57.1803 66.3007 56.7003 66.4607 56.1903C66.5807 55.8203 66.6807 55.4903 66.7507 55.1803C66.8507 54.7303 66.9007 54.3903 66.9307 53.9703C66.9307 53.8203 66.9507 53.2103 66.9507 53.2103V28.8303H70.7707L70.7807 28.8203Z" fill="#003477"/>
<path d="M64.9092 28.8203V53.2003C64.9092 53.2003 64.9092 53.3003 64.8992 53.4003C64.8992 53.5203 64.8792 53.7003 64.8592 53.8403C64.8492 53.9203 64.8292 54.0303 64.8192 54.1003C64.7492 54.4803 64.6692 54.8203 64.5092 55.3203C64.2392 56.1403 63.7792 57.1303 63.1092 58.2703C61.3792 61.1903 58.8792 62.5303 58.8792 62.5303L56.9492 59.3903C56.9492 59.3903 57.5892 59.0203 58.3692 58.2403C58.8792 57.7203 59.4992 57.0503 60.0192 56.2303C60.5292 55.4003 60.8492 54.5703 61.0292 53.9303C61.1792 53.4103 61.2092 52.9803 61.2092 52.7103C61.2092 52.4903 61.2092 52.3603 61.2092 52.3603V28.8303H64.9092V28.8203Z" fill="#003477"/>
</svg>
