<svg width="168" height="89" viewBox="0 0 168 89" fill="none" xmlns="http://www.w3.org/2000/svg">
<path d="M92.8999 46.8105L87.4299 37.6905C87.4299 37.6905 87.2599 37.4805 87.2599 37.1405V20.2305H85.1899V37.6805C85.3599 37.8505 88.7999 43.7305 88.7999 43.7305H80.2599C80.2599 43.7305 83.6999 37.8505 83.8799 37.6805V20.2305H81.8099V37.1405C81.8099 37.4805 81.6399 37.6905 81.6399 37.6905L76.1699 46.8105H92.8999V46.8105Z" fill="#AA8420"/>
<path d="M91.2002 8.38C91.2002 8.38 92.2302 4.12001 88.5502 1.32001C88.5502 1.32001 87.0802 0 84.2802 0C81.7802 0 80.3102 1.32001 80.3102 1.32001C76.9302 3.67001 77.8102 8.38 77.8102 8.38H91.1902H91.2002Z" fill="#AA8420"/>
<path d="M78.2307 9.56032H90.8107C90.9107 9.32032 90.9907 9.08031 91.0607 8.82031H77.9707C78.0407 9.07031 78.1307 9.32032 78.2207 9.56032" fill="#AA8420"/>
<path d="M90.6097 10H78.4297C78.5497 10.25 78.6897 10.5 78.8497 10.74H90.1897C90.3397 10.5 90.4897 10.26 90.6097 10Z" fill="#AA8420"/>
<path d="M79.6799 11.7702H89.3699C89.5499 11.5802 89.7199 11.3902 89.8799 11.1802H79.1699C79.3299 11.3902 79.4999 11.5802 79.6799 11.7702Z" fill="#AA8420"/>
<path d="M80.7204 12.6505H88.3204C88.5204 12.5105 88.7104 12.3704 88.9004 12.2104H80.1504C80.3304 12.3704 80.5304 12.5105 80.7304 12.6505" fill="#AA8420"/>
<path d="M81.7695 13.2402C82.6095 13.6202 83.5395 13.8302 84.5195 13.8302C85.4995 13.8302 86.4295 13.6202 87.2695 13.2402H81.7695Z" fill="#AA8420"/>
<path d="M97.5697 14.1504H87.2797C87.2797 14.1504 86.3297 14.1504 85.5597 14.6704C84.9697 15.0704 84.5497 16.0104 84.5297 16.0504C84.5297 16.0504 84.0897 15.0704 83.4997 14.6704C82.7397 14.1504 81.7797 14.1504 81.7797 14.1504H71.4897L69.4297 17.4404H78.8597C78.8597 17.4404 79.1397 17.4404 79.3097 17.4704C79.5897 17.5204 80.0797 17.6604 80.5797 18.0304C81.2797 18.5304 81.4697 18.7904 81.6397 18.9604C81.7297 19.0504 81.9497 19.3404 81.9497 19.3404H87.0997C87.0997 19.3404 87.3197 19.0404 87.4097 18.9604C87.5797 18.7904 87.7797 18.5304 88.4797 18.0304C88.9897 17.6604 89.4697 17.5204 89.7497 17.4704C89.9197 17.4404 90.1997 17.4404 90.1997 17.4404H99.6297L97.5697 14.1504V14.1504Z" fill="#003477"/>
<path d="M70.4609 18.4504V34.1004C70.4609 34.2704 70.4709 34.4204 70.4909 34.5604C70.6609 36.2104 71.1809 37.4404 72.1409 39.0404C73.6509 41.5604 76.3909 43.3304 76.3909 43.3304L77.6809 41.2704C77.6809 41.2704 75.9209 40.3304 74.5209 38.1904C74.2409 37.7604 73.9609 37.3604 73.7709 36.9604C73.5909 36.5804 73.4509 36.2704 73.3409 35.9504C73.2609 35.7104 73.2009 35.5004 73.1509 35.3004C73.0809 35.0104 73.0509 34.7904 73.0309 34.5204C73.0309 34.4204 73.0109 34.0404 73.0109 34.0404V18.4404H70.4609V18.4504Z" fill="#003477"/>
<path d="M74.3906 18.4502V34.0502C74.3906 34.0502 74.3906 34.1102 74.3906 34.1802C74.3906 34.2602 74.4006 34.3702 74.4206 34.4602C74.4206 34.5102 74.4406 34.5802 74.4506 34.6202C74.5006 34.8602 74.5506 35.0802 74.6606 35.4002C74.8406 35.9302 75.1506 36.5602 75.6006 37.2902C76.7506 39.1602 78.4306 40.0102 78.4306 40.0102L79.7206 38.0002C79.7206 38.0002 79.2906 37.7602 78.7706 37.2602C78.4306 36.9302 78.0206 36.5002 77.6706 35.9702C77.3306 35.4402 77.1206 34.9102 77.0006 34.5002C76.9006 34.1702 76.8806 33.8902 76.8806 33.7202C76.8806 33.5802 76.8806 33.5002 76.8806 33.5002V18.4502H74.4006H74.3906Z" fill="#003477"/>
<path d="M98.5891 18.4504V34.1004C98.5891 34.2704 98.5791 34.4204 98.5591 34.5604C98.3891 36.2104 97.8691 37.4404 96.9091 39.0404C95.3991 41.5604 92.6591 43.3304 92.6591 43.3304L91.3691 41.2704C91.3691 41.2704 93.1291 40.3304 94.5291 38.1904C94.8091 37.7604 95.0891 37.3604 95.2791 36.9604C95.4591 36.5804 95.5991 36.2704 95.7091 35.9504C95.7891 35.7104 95.8491 35.5004 95.8991 35.3004C95.9691 35.0104 95.9991 34.7904 96.0191 34.5204C96.0191 34.4204 96.0392 34.0404 96.0392 34.0404V18.4404H98.5891V18.4504Z" fill="#003477"/>
<path d="M94.6699 18.4502V34.0502C94.6699 34.0502 94.6699 34.1102 94.6699 34.1802C94.6699 34.2602 94.6599 34.3702 94.6399 34.4602C94.6399 34.5102 94.6198 34.5802 94.6098 34.6202C94.5598 34.8602 94.5098 35.0802 94.3998 35.4002C94.2198 35.9302 93.9098 36.5602 93.4598 37.2902C92.3098 39.1602 90.6299 40.0102 90.6299 40.0102L89.3398 38.0002C89.3398 38.0002 89.7699 37.7602 90.2899 37.2602C90.6299 36.9302 91.0399 36.5002 91.3899 35.9702C91.7299 35.4402 91.9398 34.9102 92.0598 34.5002C92.1598 34.1702 92.1798 33.8902 92.1798 33.7202C92.1798 33.5802 92.1798 33.5002 92.1798 33.5002V18.4502H94.6599H94.6699Z" fill="#003477"/>
<path d="M0.529297 67.8604H2.4493V75.0304H3.4593V67.8604H5.3893V66.9404H0.529297V67.8604Z" fill="#003477"/>
<path d="M11.0692 70.2004H7.20923V66.9404H6.19922V75.0304H7.20923V71.1504H11.0692V75.0304H12.0692V66.9404H11.0692V70.2004Z" fill="#003477"/>
<path d="M17.9887 74.1104H14.6487V71.0504H17.8987V70.1204H14.6487V67.8604H17.9887V66.9404H13.6387V75.0304H17.9887V74.1104Z" fill="#003477"/>
<path d="M27.3387 70.2004H23.4787V66.9404H22.4688V75.0304H23.4787V71.1504H27.3387V75.0304H28.3387V66.9404H27.3387V70.2004Z" fill="#003477"/>
<path d="M37.8296 70.9803C37.8296 68.6603 35.9096 66.7603 33.5896 66.7603C31.2696 66.7603 29.3496 68.6603 29.3496 70.9803C29.3496 73.3003 31.2496 75.2003 33.5896 75.2003C35.9296 75.2003 37.8296 73.3803 37.8296 70.9803ZM33.5896 74.2603C31.8396 74.2603 30.3596 72.8303 30.3596 70.9803C30.3596 69.1303 31.6896 67.7103 33.5896 67.7103C35.4896 67.7103 36.8196 69.2003 36.8196 70.9803C36.8196 72.7603 35.3396 74.2603 33.5896 74.2603Z" fill="#003477"/>
<path d="M39.8284 69.0003L45.8983 75.3703V66.9403H44.8884V72.9203L38.8184 66.5503V75.0303H39.8284V69.0003Z" fill="#003477"/>
<path d="M51.1384 67.6902C52.1284 67.6902 53.1084 68.2203 53.6884 69.0103L54.3984 68.3302C53.6084 67.3302 52.3584 66.7603 51.0984 66.7603C48.7684 66.7603 46.8984 68.6702 46.8984 71.0002C46.8984 73.3302 48.7284 75.2003 50.9884 75.2003C53.2484 75.2003 54.8185 73.4902 54.8185 71.2702V70.9503H51.6084V71.8703H53.6984C53.6584 73.1903 52.2984 74.2802 51.0484 74.2802C49.2984 74.2802 47.8984 72.6702 47.8984 70.9702C47.8984 69.1502 49.3184 67.6803 51.1284 67.6803L51.1384 67.6902Z" fill="#003477"/>
<path d="M59.1387 66.9404V75.0304H60.1487V71.6504L60.5587 71.2604L63.6087 75.0304H64.9687L61.2687 70.5804L64.9087 66.9404H63.5887L60.1487 70.4504V66.9404H59.1387Z" fill="#003477"/>
<path d="M65.1289 70.9803C65.1289 73.3903 67.0289 75.2003 69.3689 75.2003C71.7089 75.2003 73.6089 73.3803 73.6089 70.9803C73.6089 68.5803 71.6889 66.7603 69.3689 66.7603C67.0489 66.7603 65.1289 68.6603 65.1289 70.9803ZM69.3689 67.7103C71.2689 67.7103 72.5989 69.2003 72.5989 70.9803C72.5989 72.7603 71.1189 74.2603 69.3689 74.2603C67.6189 74.2603 66.1389 72.8303 66.1389 70.9803C66.1389 69.1303 67.4689 67.7103 69.3689 67.7103V67.7103Z" fill="#003477"/>
<path d="M81.6796 66.9403H80.6796V72.9203L74.5996 66.5503V75.0303H75.6096V69.0003L81.6796 75.3703V66.9403Z" fill="#003477"/>
<path d="M87.3997 71.8802H89.4897C89.4497 73.2002 88.0897 74.2903 86.8397 74.2903C85.0897 74.2903 83.6897 72.6803 83.6897 70.9803C83.6897 69.1603 85.1097 67.6902 86.9197 67.6902C87.9097 67.6902 88.8897 68.2203 89.4697 69.0103L90.1797 68.3302C89.3797 67.3302 88.1397 66.7603 86.8797 66.7603C84.5497 66.7603 82.6797 68.6702 82.6797 71.0002C82.6797 73.3302 84.4997 75.2003 86.7697 75.2003C89.0397 75.2003 90.5997 73.4902 90.5997 71.2702V70.9503H87.3897V71.8703L87.3997 71.8802Z" fill="#003477"/>
<path d="M100.709 72.0604V66.9404H99.6993V71.7204C99.6993 73.0404 99.2993 74.2604 97.7393 74.2604C96.1793 74.2604 95.7893 73.0404 95.7893 71.7204V66.9404H94.7793V72.0604C94.7793 73.8404 95.8893 75.2104 97.7393 75.2104C99.5893 75.2104 100.699 73.8504 100.699 72.0604H100.709Z" fill="#003477"/>
<path d="M109.209 66.9403H108.199V72.9203L102.119 66.5503V75.0303H103.129V69.0003L109.209 75.3703V66.9403Z" fill="#003477"/>
<path d="M111.729 66.9404H110.719V75.0404H111.729V66.9404Z" fill="#003477"/>
<path d="M119.54 66.9404H118.43L116.03 72.9304L113.61 66.9404H112.51L116.03 75.4604L119.54 66.9404Z" fill="#003477"/>
<path d="M124.68 67.8604V66.9404H120.33V75.0304H124.68V74.1104H121.34V71.0504H124.59V70.1204H121.34V67.8604H124.68Z" fill="#003477"/>
<path d="M127.049 71.6102H127.469L129.859 75.0302H131.079L128.529 71.5102C129.699 71.3702 130.479 70.4002 130.479 69.2402C130.479 68.4702 130.089 67.7002 129.419 67.3102C128.779 66.9402 127.999 66.9302 127.279 66.9302H126.059V75.0302H127.069V71.6102H127.049ZM127.049 67.8402H127.319C128.319 67.8402 129.519 68.0202 129.519 69.2902C129.519 70.5602 128.399 70.7702 127.369 70.7702H127.049V67.8402V67.8402Z" fill="#003477"/>
<path d="M134.129 74.2605C133.259 74.2605 132.549 73.6205 132.559 72.7305L131.539 72.9405C131.709 74.2405 132.729 75.2105 134.039 75.2105C135.489 75.2105 136.629 74.1605 136.629 72.6905C136.629 71.3405 135.769 70.7005 134.619 70.2505L134.039 70.0205C133.529 69.8305 132.909 69.4905 132.909 68.8605C132.909 68.1505 133.619 67.7105 134.259 67.7105C134.869 67.7105 135.259 67.9705 135.559 68.4705L136.359 67.9905C135.919 67.2105 135.179 66.7705 134.279 66.7705C133.059 66.7705 131.889 67.5505 131.889 68.8605C131.889 69.9905 132.729 70.5105 133.649 70.9105L134.209 71.1505C134.909 71.4405 135.609 71.8205 135.609 72.6905C135.609 73.5605 134.989 74.2705 134.119 74.2705L134.129 74.2605Z" fill="#003477"/>
<path d="M138.828 66.9404H137.818V75.0404H138.828V66.9404Z" fill="#003477"/>
<path d="M142.629 75.0304V67.8604H144.549V66.9404H139.699V67.8604H141.619V75.0304H142.629Z" fill="#003477"/>
<path d="M147.259 75.0304H148.269V71.5104L150.909 66.9404H149.749L147.759 70.3904L145.769 66.9404H144.609L147.259 71.5104V75.0304Z" fill="#003477"/>
<path d="M158.599 66.7603C156.279 66.7603 154.359 68.6603 154.359 70.9803C154.359 73.3003 156.259 75.2003 158.599 75.2003C160.939 75.2003 162.839 73.3803 162.839 70.9803C162.839 68.5803 160.919 66.7603 158.599 66.7603ZM158.599 74.2502C156.849 74.2502 155.369 72.8202 155.369 70.9702C155.369 69.1202 156.699 67.7003 158.599 67.7003C160.499 67.7003 161.829 69.1902 161.829 70.9702C161.829 72.7502 160.349 74.2502 158.599 74.2502Z" fill="#003477"/>
<path d="M167.83 67.8604V66.9404H163.91V75.0304H164.92V71.0604H167.74V70.1404H164.92V67.8604H167.83Z" fill="#003477"/>
<path d="M16.1095 83.1304L15.5295 82.9004C15.0195 82.7104 14.3995 82.3704 14.3995 81.7404C14.3995 81.0304 15.1095 80.5904 15.7495 80.5904C16.3895 80.5904 16.7495 80.8504 17.0495 81.3504L17.8495 80.8704C17.4095 80.0904 16.6695 79.6504 15.7695 79.6504C14.5495 79.6504 13.3795 80.4304 13.3795 81.7404C13.3795 82.8704 14.2195 83.3904 15.1395 83.7904L15.6995 84.0304C16.3995 84.3204 17.0995 84.6904 17.0995 85.5704C17.0995 86.4504 16.4795 87.1504 15.6095 87.1504C14.7395 87.1504 14.0295 86.5104 14.0395 85.6204L13.0195 85.8404C13.1895 87.1404 14.2095 88.1004 15.5195 88.1004C16.9695 88.1004 18.1095 87.0504 18.1095 85.5804C18.1095 84.2304 17.2495 83.5904 16.0995 83.1404L16.1095 83.1304Z" fill="#003477"/>
<path d="M18.8789 83.9101C18.8789 86.2501 20.7889 88.0901 23.0989 88.0901C23.8089 88.0901 24.5989 87.8901 25.2289 87.5201V86.3301C24.6289 86.8701 23.8689 87.1701 23.0689 87.1701C21.2689 87.1701 19.8889 85.6601 19.8889 83.8801C19.8889 82.1001 21.2789 80.5701 23.0889 80.5701C23.8489 80.5701 24.6489 80.8501 25.2289 81.3601V80.1901C24.6189 79.8101 23.8989 79.6401 23.1889 79.6401C20.8089 79.6401 18.8789 81.5101 18.8789 83.9001V83.9101Z" fill="#003477"/>
<path d="M27.5198 79.8203H26.5098V87.9203H27.5198V79.8203Z" fill="#003477"/>
<path d="M29.1387 87.9203H33.4887V86.9903H30.1487V83.9303H33.3887V83.0103H30.1487V80.7403H33.4887V79.8203H29.1387V87.9203Z" fill="#003477"/>
<path d="M40.82 85.8002L34.75 79.4302V87.9202H35.75V81.8802L41.83 88.2502V79.8202H40.82V85.8002Z" fill="#003477"/>
<path d="M42.9297 83.9101C42.9297 86.2501 44.8397 88.0901 47.1497 88.0901C47.8597 88.0901 48.6497 87.8901 49.2797 87.5201V86.3301C48.6797 86.8701 47.9197 87.1701 47.1197 87.1701C45.3197 87.1701 43.9397 85.6601 43.9397 83.8801C43.9397 82.1001 45.3297 80.5701 47.1397 80.5701C47.8997 80.5701 48.6997 80.8501 49.2797 81.3601V80.1901C48.6697 79.8101 47.9497 79.6401 47.2397 79.6401C44.8497 79.6401 42.9297 81.5101 42.9297 83.9001V83.9101Z" fill="#003477"/>
<path d="M50.5898 87.9203H54.9298V86.9903H51.5898V83.9303H54.8398V83.0103H51.5898V80.7403H54.9298V79.8203H50.5898V87.9203Z" fill="#003477"/>
<path d="M58.6389 87.9205H59.7289L60.6489 85.8905H64.3689L65.2889 87.9205H66.3689L62.4989 79.4805L58.6289 87.9205H58.6389ZM61.0689 84.9705L62.5089 81.6905L63.9489 84.9705H61.0689Z" fill="#003477"/>
<path d="M73.1386 85.8002L67.0586 79.4302V87.9202H68.0686V81.8802L74.1486 88.2502V79.8202H73.1386V85.8002Z" fill="#003477"/>
<path d="M77.2794 79.8203H75.6094V87.9203H77.2594C79.8094 87.9203 81.8294 86.5903 81.8294 83.8303C81.8294 81.0703 79.7694 79.8203 77.2894 79.8203H77.2794ZM76.9694 86.9903H76.6194V80.7403H76.9694C79.0294 80.7403 80.8194 81.5003 80.8194 83.8603C80.8194 86.2203 79.0394 86.9803 76.9694 86.9803V86.9903Z" fill="#003477"/>
<path d="M85.3984 80.7403H87.3185V87.9203H88.3284V80.7403H90.2484V79.8203H85.3984V80.7403Z" fill="#003477"/>
<path d="M91.1602 87.9203H95.5102V86.9903H92.1702V83.9303H95.4102V83.0103H92.1702V80.7403H95.5102V79.8203H91.1602V87.9203Z" fill="#003477"/>
<path d="M96.4102 83.9101C96.4102 86.2501 98.3202 88.0901 100.63 88.0901C101.34 88.0901 102.13 87.8901 102.76 87.5201V86.3301C102.16 86.8701 101.4 87.1701 100.6 87.1701C98.8002 87.1701 97.4202 85.6601 97.4202 83.8801C97.4202 82.1001 98.8101 80.5701 100.62 80.5701C101.38 80.5701 102.18 80.8501 102.76 81.3601V80.1901C102.15 79.8101 101.43 79.6401 100.72 79.6401C98.3402 79.6401 96.4102 81.5101 96.4102 83.9001V83.9101Z" fill="#003477"/>
<path d="M108.839 83.0803H104.988V79.8203H103.979V87.9203H104.988V84.0303H108.839V87.9203H109.849V79.8203H108.839V83.0803Z" fill="#003477"/>
<path d="M117.398 85.8002L111.318 79.4302V87.9202H112.328V81.8802L118.408 88.2502V79.8202H117.398V85.8002Z" fill="#003477"/>
<path d="M123.629 79.6504C121.309 79.6504 119.389 81.5504 119.389 83.8704C119.389 86.1904 121.289 88.0904 123.629 88.0904C125.969 88.0904 127.869 86.2704 127.869 83.8704C127.869 81.4704 125.949 79.6504 123.629 79.6504ZM123.629 87.1404C121.879 87.1404 120.399 85.7104 120.399 83.8604C120.399 82.0104 121.729 80.5804 123.629 80.5804C125.529 80.5804 126.859 82.0704 126.859 83.8604C126.859 85.6504 125.379 87.1404 123.629 87.1404Z" fill="#003477"/>
<path d="M129.969 79.8203H128.959V87.9203H132.429V86.9903H129.969V79.8203Z" fill="#003477"/>
<path d="M136.869 79.6504C134.549 79.6504 132.629 81.5504 132.629 83.8704C132.629 86.1904 134.529 88.0904 136.869 88.0904C139.209 88.0904 141.109 86.2704 141.109 83.8704C141.109 81.4704 139.189 79.6504 136.869 79.6504ZM136.869 87.1404C135.119 87.1404 133.639 85.7104 133.639 83.8604C133.639 82.0104 134.969 80.5804 136.869 80.5804C138.769 80.5804 140.099 82.0704 140.099 83.8604C140.099 85.6504 138.619 87.1404 136.869 87.1404Z" fill="#003477"/>
<path d="M146.369 84.7601H148.459C148.419 86.0801 147.059 87.1701 145.809 87.1701C144.059 87.1701 142.659 85.5601 142.659 83.8601C142.659 82.0401 144.079 80.5701 145.889 80.5701C146.879 80.5701 147.859 81.1001 148.429 81.8901L149.139 81.2101C148.349 80.2101 147.099 79.6401 145.839 79.6401C143.509 79.6401 141.639 81.5501 141.639 83.8801C141.639 86.2101 143.459 88.0801 145.729 88.0801C147.999 88.0801 149.559 86.3701 149.559 84.1501V83.8301H146.349V84.7501L146.369 84.7601Z" fill="#003477"/>
<path d="M152.99 83.2803L151 79.8203H149.84L152.49 84.3903V87.9203H153.5V84.3903L156.14 79.8203H154.98L152.99 83.2803Z" fill="#003477"/>
<path d="M44.7485 58.0604C45.1885 57.9104 45.4985 57.8004 45.6785 57.7204V62.4204H46.6985V61.9204H52.0885V62.4204H53.1085V57.6604C53.2585 57.7404 53.4185 57.8104 53.5885 57.8604C53.7585 57.9104 53.9285 57.9704 54.0685 58.0304L54.5485 57.0304C52.9685 56.7104 51.7685 56.1604 50.9285 55.3504H54.4585V54.4404H49.8385V53.5204C51.3185 53.4004 52.5485 53.2304 53.5385 53.0304L53.0685 52.1304C51.5685 52.4704 49.3685 52.6404 46.4485 52.6404C45.8385 52.6404 45.3185 52.6404 44.9085 52.6204L45.2685 53.6304C45.9885 53.6304 47.1685 53.6104 48.8085 53.5604V54.4504H44.3085V55.3604H47.6985C46.7085 56.1904 45.5585 56.7604 44.2285 57.0804L44.7585 58.0504L44.7485 58.0604ZM52.0885 61.0104H46.6985V60.0504H52.0885V61.0104ZM49.8385 55.3904C50.5285 56.3004 51.4285 56.9804 52.5485 57.4204H49.8385V55.3904ZM52.0885 58.3404V59.1704H46.6985V58.3404H52.0885ZM48.8085 55.4004V57.4204H46.3085C47.3385 56.9804 48.1685 56.3104 48.8085 55.4004Z" fill="#003477"/>
<path d="M60.9602 53.6505V54.2404H62.4202V55.3405H60.7402V56.2605H62.4902C62.1702 56.9505 61.4002 57.5704 60.1902 58.1104L60.8102 59.0304C61.3002 58.7204 61.6402 58.4905 61.8202 58.3405V60.8004C61.8202 61.3004 61.9101 61.6404 62.0901 61.8204C62.2801 62.0004 62.6102 62.0804 63.0802 62.0804H66.6302C67.1902 62.0804 67.5701 61.9804 67.7601 61.7804C67.9601 61.5704 68.1201 60.9605 68.2301 59.9505L67.1801 59.5704C67.1301 60.1504 67.0702 60.5505 67.0202 60.7905C66.9602 61.0205 66.7802 61.1304 66.4702 61.1304H63.2102C62.9502 61.1304 62.8302 61.0004 62.8302 60.7504V60.0504H66.3602V57.8004C66.8002 58.2004 67.3502 58.5904 68.0302 59.0004L68.5002 58.0204C67.3202 57.4404 66.5801 56.8505 66.2901 56.2605H68.3802V55.3405H66.4102V54.2104H68.2202V53.3504H66.4102V52.2104H65.4202V53.3504H63.4202V52.2104H62.4202V53.3504H60.9602V53.4904C60.5302 53.1604 60.0002 52.8005 59.3802 52.4005L58.6602 53.2104C59.1502 53.5204 59.6901 53.9404 60.2901 54.4904L60.9602 53.6604V53.6505ZM63.4202 54.2504H65.4102V55.3204H63.4202V54.2504ZM63.6602 56.2404H65.1402C65.3502 56.6304 65.5702 56.9605 65.8102 57.2305H63.0101C63.2801 56.9505 63.5002 56.6204 63.6602 56.2404V56.2404ZM62.8302 58.0905H65.3502V59.1604H62.8302V58.0905Z" fill="#003477"/>
<path d="M60.5686 59.0204L59.6186 58.4604C59.3886 59.5004 58.9486 60.4704 58.3086 61.3804L59.1886 62.2804C59.8186 61.2904 60.2786 60.2005 60.5786 59.0105L60.5686 59.0204Z" fill="#003477"/>
<path d="M60.6296 56.3002C60.0696 55.8702 59.5296 55.5202 59.0096 55.2402L58.3496 56.0602C58.7796 56.3502 59.2896 56.7402 59.8796 57.2402L60.6296 56.3002Z" fill="#003477"/>
<path d="M81.6099 52.0903H80.5899V58.3903L76.9199 58.9403V59.9603L80.5899 59.4003V62.4103H81.6099V59.2703L82.5899 59.1003V58.1003L81.6099 58.2703V52.0903Z" fill="#003477"/>
<path d="M79.9789 56.89C79.1789 56.28 78.4989 55.83 77.9489 55.54L77.2988 56.27C77.8788 56.61 78.5388 57.1 79.2888 57.73L79.9688 56.89H79.9789Z" fill="#003477"/>
<path d="M80.1895 54.2502C79.3295 53.6202 78.6595 53.1802 78.1795 52.9102L77.5195 53.6302C78.0195 53.9402 78.6795 54.4202 79.4895 55.0602L80.1795 54.2402L80.1895 54.2502Z" fill="#003477"/>
<path d="M75.3893 62.3701V57.2801C75.5893 57.5401 75.7793 57.7901 75.9693 58.0101C76.1893 58.2601 76.4093 58.5401 76.6293 58.8401L77.2393 57.9001C76.8193 57.4501 76.2093 56.8401 75.3893 56.0801V55.9801H77.0593V55.0401H75.3893V53.4901C75.9693 53.3701 76.5193 53.2201 77.0393 53.0401L76.6693 52.1401C75.4893 52.5901 74.0893 52.8501 72.4493 52.9301L72.6793 53.8501C73.4193 53.8001 73.9893 53.7401 74.3793 53.6601V55.0301H72.3393V55.9701H74.3493C73.8893 57.1801 73.1993 58.3101 72.2793 59.3601L72.8893 60.3501C73.6093 59.4101 74.0993 58.5901 74.3793 57.8901V62.4001L75.3893 62.3601V62.3701Z" fill="#003477"/>
<path d="M86.3186 57.8601L86.5786 59.0401C86.9386 58.9501 87.4286 58.8301 88.0486 58.6701V60.9001C88.0486 61.1401 87.9286 61.2601 87.6886 61.2601L86.7386 61.2301L86.9886 62.3401H87.8486C88.3886 62.3401 88.7386 62.2501 88.8986 62.0801C89.0486 61.9101 89.1186 61.5701 89.1186 61.0501V58.3601C89.7486 58.1501 90.1686 57.9801 90.3986 57.8601V56.7901C90.1286 56.9201 89.6986 57.0801 89.1186 57.2701V55.3301H90.4086V54.6301H92.7786V56.1001H90.6086V57.1101H94.9586C94.6486 58.0301 94.1186 58.7901 93.3686 59.3801C92.8686 58.8801 92.3586 58.1801 91.8586 57.2901L90.9486 57.6501C91.4886 58.6401 92.0386 59.4201 92.5986 59.9801C91.5486 60.6901 90.4986 61.1601 89.4386 61.3901L90.0386 62.3901C91.0886 62.1701 92.1886 61.6201 93.3486 60.7401C94.1986 61.5101 95.0986 62.0601 96.0686 62.3701L96.6286 61.3401C95.7086 61.0801 94.8786 60.6601 94.1486 60.0601C94.5686 59.7001 94.9586 59.1901 95.3486 58.5601C95.7386 57.9201 95.9786 57.4101 96.0686 57.0101V56.1001H93.8486V54.6301H96.4386V53.6301H93.8486V52.0801H92.7686V53.6301H90.4086V54.3301H89.1186V52.0801H88.0386V54.3301H86.4186V55.3301H88.0386V57.5301C87.5186 57.6701 86.9386 57.7801 86.3086 57.8601H86.3186Z" fill="#003477"/>
<path d="M108.09 58.8101C107.47 57.8301 107.07 56.9001 106.91 56.0001H110.42V54.8501H105.77C105.83 54.2701 105.86 53.3601 105.86 52.1001H104.71C104.71 53.2701 104.66 54.1901 104.57 54.8501H100.6V56.0101H104.38C104.2 57.0401 103.75 58.0401 103.01 59.0001C102.27 59.9601 101.37 60.7401 100.34 61.3301L101.17 62.3701C103.62 60.7501 105.1 58.6301 105.59 55.9901H105.77C106.5 58.9301 107.85 61.0501 109.82 62.3501L110.66 61.3401C109.57 60.6201 108.72 59.7801 108.09 58.8001V58.8101Z" fill="#003477"/>
<path d="M118.6 61.4405C118.21 61.4405 117.84 61.4205 117.49 61.3905L117.7 62.3605H119.2C119.46 62.3605 119.68 62.2605 119.87 62.0505C120 61.9205 120.07 61.7305 120.08 61.4705V59.6905H124.24V58.7605H120.08V58.4205C121.06 58.0305 121.93 57.6105 122.69 57.1805V56.2505H116.37V57.1805H121.09C120.33 57.5305 119.62 57.8105 118.94 58.0205V58.7705H114.74V59.7005H118.94V61.1605C118.94 61.3405 118.82 61.4305 118.59 61.4305L118.6 61.4405Z" fill="#003477"/>
<path d="M115.589 55.3903H123.489V56.7103H124.549V54.4603H122.359C122.679 53.9203 122.999 53.2603 123.319 52.4703L122.169 52.0303C121.809 53.0403 121.459 53.8503 121.119 54.4603H114.529V56.7503H115.589V55.3803V55.3903Z" fill="#003477"/>
<path d="M117.708 53.8404C117.408 53.3004 117.098 52.8204 116.778 52.3804L115.898 52.7704C116.218 53.2204 116.508 53.7204 116.778 54.2704L117.708 53.8304V53.8404Z" fill="#003477"/>
<path d="M120.18 53.6601C119.89 53.0801 119.6 52.5501 119.3 52.0801L118.42 52.4801C118.71 52.9601 118.99 53.5101 119.26 54.1101L120.19 53.6701L120.18 53.6601Z" fill="#003477"/>
</svg>
