<svg width="211" height="63" viewBox="0 0 211 63" fill="none" xmlns="http://www.w3.org/2000/svg">
<path d="M40.4 31.7353C40.15 31.7353 39.95 31.7053 39.8 31.6553C39.96 31.5953 40.11 31.5253 40.25 31.4253L39.96 30.6753C39.25 30.7853 39.11 30.5053 39.06 30.3953C38.88 30.0653 38.86 29.7053 38.98 29.3053L39.11 28.8553L38.65 28.7753C37.86 28.6453 37.05 28.6253 36.26 28.7053V27.7753C36.45 27.4653 36.61 27.1053 36.74 26.7153C36.87 26.2953 36.96 25.9553 37 25.7353C37.19 25.1553 37.43 24.5353 37.71 23.9053C38 23.2453 38.2 22.6753 38.3 22.2253C38.6 21.2153 38.88 20.0253 39.11 18.6853C39.33 17.3953 39.52 16.5153 39.65 16.1153C40.31 14.4953 40.8 13.1053 41.11 11.9553C41.31 11.0953 41.56 10.1053 41.87 8.96531C42.29 7.40531 42.34 6.97531 42.34 6.77531C42.34 6.54531 42.26 6.14531 41.64 5.08531C41.2 4.34531 40.8 3.72531 40.43 3.25531L40.22 2.98531L39.92 3.13531C39.72 3.23531 39.55 3.28531 39.41 3.30531C39.41 3.27531 39.41 3.24531 39.41 3.21531C39.39 3.09531 39.32 2.92531 39.12 2.78531C39.05 2.74531 38.94 2.63531 38.79 2.38531L38.38 1.69531L38.06 2.43531C37.89 2.81531 37.78 2.95531 37.72 3.00531C37.67 3.04531 37.56 3.11531 37.32 3.19531C37.2 3.09531 37.07 3.00531 36.93 2.91531C36.78 2.83531 36.68 2.75531 36.6 2.68531L35.69 1.75531L35.9 3.03531C35.93 3.22531 35.84 3.49531 35.63 3.79531C35.35 4.20531 35.15 4.56531 35.03 4.89531L34.61 5.45531C34.45 5.67531 34.33 5.86531 34.27 6.04531C33.4 7.32531 32.74 8.73531 32.31 10.2153C31.88 11.6853 31.46 13.1853 31.05 14.7053C30.65 16.2153 30.29 17.6853 29.98 19.0553C29.67 20.4353 29.47 21.5953 29.37 22.4853C29.17 23.4953 28.95 24.5853 28.72 25.7553C28.5 26.8753 28.27 27.9553 28.03 28.9653L27.98 29.0053C26.94 29.1553 25.98 29.2953 25.09 29.4153C24.18 29.5453 23.3 29.6553 22.44 29.7553C21.23 29.9053 19.97 30.0753 18.68 30.2553C17.55 30.4153 16.47 30.5953 15.47 30.8153C15.49 30.6653 15.59 30.1653 15.98 28.5653C16.34 27.1053 16.77 25.4553 17.27 23.6353L18.75 18.2053C19.23 16.4453 19.59 15.2053 19.84 14.5153L19.91 14.3253L19.79 14.1553C19.69 13.9953 19.64 13.9053 19.63 13.8653C19.78 13.4353 19.9 12.8653 19.98 12.1053C20.05 11.3753 20.14 10.6753 20.24 9.99531C20.34 9.31531 20.41 8.67531 20.44 8.09531C20.47 7.52531 20.48 7.19531 20.48 7.08531L20.45 6.92531C20.14 6.21531 19.88 5.66531 19.67 5.28531C19.45 4.89531 19.17 4.53531 18.85 4.21531C18.47 3.83531 18.01 3.63531 17.5 3.63531C17.38 3.63531 17.14 3.63531 16.99 3.78531C16.89 3.77531 16.79 3.72531 16.68 3.64531C16.04 3.15531 15.49 3.31531 14.95 3.41531C14.85 3.43531 14.8 3.42531 14.79 3.43531L14.04 2.29531V3.69531C13.9 3.63531 13.74 3.63531 13.62 3.63531C13.03 3.63531 12.84 3.95531 12.77 4.14531C12.76 4.18531 12.73 4.24531 12.63 4.31531L12.33 4.51531L12.49 4.84531C12.49 4.84531 12.52 4.90531 12.53 4.88531C12.54 5.04531 12.63 5.15531 12.73 5.23531C12.7 5.54531 12.7 5.88531 12.72 6.25531C12.74 6.64531 12.73 6.98531 12.69 7.24531C12.13 9.97531 11.51 12.9553 10.83 16.1653C10.15 19.3753 9.5 22.3253 8.89 25.0153C8.59 26.5253 8.29 27.8553 7.99 28.9753C7.71 30.0453 7.4 31.1453 7.07 32.2853C6.13 32.5653 5.2 32.8053 4.31 33.0153C3.3 33.2453 2.38 33.5253 1.52 33.8453C1.16 34.0253 0.86 34.2653 0.62 34.5653C0.4 34.8453 0.26 34.9553 0.18 35.0153L0 35.1353V36.3253L0.36 36.3753C0.64 36.4153 0.78 36.9253 0.85 37.2253C1.02 38.0253 1.18 38.5353 1.36 38.8353L1.49 38.9653C2.22 39.4353 2.95 39.8553 3.65 40.2053L5.34 41.0453C5.15 41.8553 4.94 42.6653 4.7 43.4753C4.42 44.4253 4.22 45.3553 4.12 46.2453L3.93 47.9553C3.85 48.6353 3.78 49.2953 3.7 49.9253C3.62 50.5553 3.55 51.1253 3.47 51.6253C3.35 52.4153 3.35 52.4753 3.35 52.5253C3.35 52.7953 3.39 53.3653 3.47 54.2753C3.54 55.1453 3.58 55.9153 3.58 56.5553C3.58 56.7053 3.62 56.9653 3.91 57.6653C4.12 58.1653 4.4 58.6953 4.74 59.2453C5.07 59.7753 5.41 60.2753 5.75 60.7253C6.17 61.2653 6.56 61.5353 6.95 61.5353C7.1 61.5353 7.35 61.5353 7.51 61.3853C7.67 61.3953 7.91 61.4453 8.3 61.5853C8.7 61.7253 9.02 61.8653 9.25 62.0053L9.71 62.2853L9.86 61.7653C9.96 61.4253 10.08 61.0853 10.22 60.7553C10.39 60.3553 10.48 59.9953 10.48 59.6853C10.48 59.3753 10.38 59.1053 10.17 58.8353C10.07 58.7053 10 58.5753 9.96 58.4453C9.97 58.3953 10.01 58.2853 10.1 58.0753C10.26 57.7353 10.33 57.4753 10.33 57.2553V57.0053L10.1 56.8953C9.71 56.6953 9.57 56.5253 9.57 56.4253C9.57 56.3053 9.6 56.2053 9.65 56.1253C9.8 55.9053 9.87 55.7053 9.87 55.5453C10.02 53.2553 10.4 50.8053 11 48.2453C11.6 45.7053 12.18 43.3653 12.75 41.2153C12.87 40.2953 13.06 39.8553 13.21 39.6553L13.42 39.3553L26.36 37.0853C26.45 37.0853 26.49 37.0853 26.5 37.0953C26.52 37.1153 26.56 37.2153 26.55 37.4553C26.52 38.0453 26.51 38.4253 26.51 38.5753C26.51 38.6953 26.47 39.0553 26.29 40.1053C26.14 40.9653 26.01 41.7053 25.91 42.3253C25.81 43.1553 25.78 44.0753 25.83 45.0553C25.88 45.9453 25.73 46.7853 25.41 47.5253L25.28 47.8253L25.54 48.0253C25.65 48.1053 25.67 48.1553 25.68 48.1553V48.6053C25.68 49.0153 25.62 49.4253 25.51 49.8153C25.38 50.2553 25.29 50.6453 25.23 51.0053C25.18 51.6853 25.16 52.4353 25.19 53.2553C25.22 54.0653 25.23 54.7953 25.23 55.4453V58.1053C25.23 58.2253 25.19 58.3553 25.1 58.4953C24.93 58.7653 24.85 59.0453 24.85 59.3253C24.85 59.7053 24.97 59.9953 25.16 60.2153L25.13 60.3353L25.17 60.4453C25.3 60.8353 25.62 61.2153 26.14 61.6253C26.68 62.0453 27.1 62.2453 27.46 62.2453C27.6 62.2453 27.96 62.2453 28.11 61.9553V62.9453L28.83 62.1053C29.08 61.8153 29.58 61.5753 30.29 61.4053L30.57 61.3353L30.6 61.0553C30.8 59.4153 31.04 57.6853 31.36 55.7553C31.66 53.8853 31.97 52.0453 32.27 50.2553C32.57 48.4853 32.83 46.8053 33.03 45.2653C33.23 43.7653 33.41 42.5653 33.56 41.6853C33.66 40.7453 33.81 39.7853 34.01 38.8453C34.21 37.9153 34.51 36.9653 34.9 36.0253C34.95 35.8853 35.04 35.8153 35.17 35.7753C35.49 35.6753 35.72 35.5553 35.88 35.4053C35.98 35.3053 36.16 35.1053 36.42 34.8253C36.54 34.6953 36.65 34.6353 36.73 34.6153H36.95L37 34.0753L37.2 33.9253C37.28 34.0353 37.27 34.1353 37.26 34.1553C37.32 34.0053 37.33 33.8653 37.32 33.7553C37.64 33.8053 38.16 33.7053 39 33.2653C39.55 32.9753 40.08 32.7553 40.56 32.6153L40.44 31.8153L40.4 31.7353ZM38.76 31.2753H38.78L38.76 31.3153C38.76 31.3153 38.76 31.2853 38.76 31.2753ZM38.58 32.4653C37.77 32.8853 37.57 32.8753 37.49 32.8753C37.4 32.7853 37.26 32.7253 37.07 32.7253H36.9L36.78 32.8453C36.7 32.9253 36.61 33.0553 36.46 33.4353L36.38 33.6153L36.44 33.7453C36.23 33.8053 36 33.9353 35.77 34.1853C35.52 34.4553 35.35 34.6453 35.25 34.7453C35.23 34.7653 35.15 34.8353 34.89 34.9053C34.52 35.0153 34.24 35.2753 34.1 35.6353C33.69 36.6153 33.37 37.6153 33.16 38.5953C32.96 39.5653 32.8 40.5553 32.7 41.4953C32.55 42.3553 32.37 43.5653 32.17 45.0853C31.97 46.6153 31.71 48.2853 31.41 50.0453C31.11 51.8453 30.8 53.6853 30.5 55.5553C30.2 57.3853 29.96 59.0453 29.77 60.6153C29.38 60.7253 29.05 60.8653 28.77 61.0153C28.73 60.9353 28.67 60.8653 28.61 60.8053L28.37 60.5653L28.09 60.7553C27.99 60.8153 27.89 60.9153 27.83 61.0653C27.66 61.0653 27.41 61.1153 27.29 61.3453C27.17 61.3053 26.95 61.1953 26.6 60.9253C26.19 60.6053 26.02 60.3753 25.94 60.2153C25.97 59.9153 25.87 59.6553 25.66 59.4853C25.66 59.4853 25.62 59.4253 25.62 59.2753C25.62 59.1553 25.66 59.0253 25.75 58.8853C25.92 58.6153 26 58.3453 26 58.0653V55.4053C26 54.7453 25.99 54.0053 25.96 53.1853C25.93 52.4053 25.95 51.6753 25.99 51.0653C26.04 50.7753 26.12 50.4253 26.24 50.0153C26.38 49.5453 26.45 49.0553 26.45 48.5753V48.1153C26.45 47.9153 26.37 47.7253 26.22 47.5553C26.52 46.7653 26.65 45.8953 26.6 44.9853C26.55 44.0553 26.57 43.1853 26.67 42.4153C26.77 41.8053 26.9 41.0753 27.05 40.2153C27.26 39.0253 27.28 38.7053 27.28 38.5453C27.28 38.3853 27.29 38.0353 27.32 37.4653C27.34 37.0153 27.23 36.6853 27.01 36.4653C26.87 36.3353 26.62 36.1953 26.19 36.2453L12.75 38.5953L12.62 38.6153L12.53 38.7053C12.36 38.8853 12.34 39.1253 12.34 39.2953C12.34 39.3253 12.34 39.3453 12.34 39.3653C12.12 39.7653 11.97 40.3253 11.89 41.0053C11.33 43.1053 10.74 45.4653 10.14 48.0053C9.53 50.6053 9.14 53.1053 8.99 55.4553C8.99 55.4553 8.99 55.5053 8.9 55.6153C8.75 55.8353 8.68 56.0953 8.68 56.3753C8.68 56.7753 8.92 57.1253 9.39 57.4253C9.37 57.4953 9.33 57.5753 9.28 57.6853C9.12 58.0353 9.05 58.2553 9.07 58.5253C9.13 58.7853 9.26 59.0353 9.45 59.2853C9.55 59.4153 9.59 59.5353 9.59 59.6453C9.59 59.8453 9.52 60.1053 9.4 60.3953C9.31 60.6053 9.23 60.8153 9.15 61.0353C8.96 60.9453 8.74 60.8653 8.51 60.7853C8.03 60.6153 7.65 60.5353 7.35 60.5353C7.19 60.5353 6.97 60.5353 6.81 60.6553C6.73 60.6153 6.57 60.4953 6.34 60.1953C6.02 59.7753 5.69 59.2953 5.38 58.7853C5.06 58.2753 4.8 57.7753 4.61 57.3253C4.35 56.7153 4.34 56.5453 4.34 56.5353C4.34 55.8653 4.3 55.0753 4.22 54.1853C4.15 53.3153 4.11 52.7553 4.11 52.5253C4.11 52.4553 4.15 52.1953 4.22 51.7353C4.3 51.2253 4.37 50.6553 4.45 50.0153C4.53 49.3853 4.6 48.7253 4.68 48.0353L4.87 46.3253C4.97 45.4953 5.15 44.6053 5.43 43.6953C5.71 42.7653 5.95 41.8253 6.16 40.8953L6.23 40.5853L3.97 39.4553C3.32 39.1353 2.65 38.7553 1.97 38.3153C1.88 38.1353 1.76 37.7753 1.61 37.0353C1.46 36.3153 1.18 35.8453 0.78 35.6453V35.5353C0.92 35.4153 1.06 35.2553 1.22 35.0553C1.38 34.8553 1.59 34.6853 1.8 34.5753C2.58 34.2853 3.47 34.0153 4.44 33.7953C5.41 33.5753 6.43 33.3053 7.47 32.9953L7.68 32.9353L7.74 32.7253C8.09 31.5053 8.43 30.3253 8.73 29.1853C9.03 28.0453 9.34 26.6953 9.64 25.1853C10.25 22.4953 10.89 19.5553 11.58 16.3353C12.26 13.1153 12.88 10.1453 13.45 7.39531C13.5 7.05531 13.52 6.65531 13.49 6.20531C13.47 5.80531 13.48 5.43531 13.53 5.10531L13.6 4.63531H13.41C13.44 4.58531 13.45 4.53531 13.46 4.48531C13.46 4.48531 13.48 4.48531 13.54 4.47531C13.7 4.62531 13.95 4.62531 14.12 4.62531C14.34 4.62531 14.61 4.59531 14.77 4.39531L14.85 4.26531C14.92 4.26531 14.99 4.25531 15.07 4.23531C15.32 4.19531 15.59 4.16531 15.87 4.16531C15.87 4.16531 15.97 4.16531 16.15 4.30531C16.42 4.51531 16.71 4.61531 17 4.61531C17.17 4.61531 17.42 4.61531 17.57 4.46531C17.82 4.49531 18.03 4.59531 18.23 4.79531C18.5 5.06531 18.74 5.37531 18.92 5.69531C19.11 6.02531 19.35 6.52531 19.63 7.16531C19.63 7.31531 19.61 7.61531 19.59 8.05531C19.56 8.60531 19.5 9.22531 19.4 9.87531C19.3 10.5653 19.21 11.2753 19.13 12.0153C19.06 12.7153 18.95 13.2553 18.83 13.5853C18.7 13.8553 18.81 14.1553 18.97 14.4253C18.72 15.1653 18.38 16.3353 17.93 17.9853L16.45 23.4153C15.95 25.2353 15.51 26.9053 15.16 28.3653C14.62 30.5753 14.62 30.7553 14.62 30.8553V30.8953L14.46 31.0053L14.78 31.6553H14.83L14.92 31.7853L15.2 31.7253C16.29 31.4753 17.5 31.2653 18.77 31.0853C20.06 30.9053 21.31 30.7453 22.52 30.5953C23.38 30.4953 24.27 30.3853 25.19 30.2553C26.1 30.1353 27.09 29.9853 28.15 29.8353L28.43 29.7153L28.77 29.4053L28.8 29.2953C29.05 28.2353 29.3 27.1053 29.53 25.9353C29.76 24.7753 29.97 23.6853 30.18 22.6353C30.28 21.7453 30.48 20.6153 30.78 19.2553C31.08 17.8953 31.44 16.4453 31.84 14.9453C32.24 13.4253 32.66 11.9353 33.09 10.4753C33.51 9.05531 34.14 7.71531 34.97 6.48531L35.02 6.37531C35.04 6.30531 35.1 6.17531 35.26 5.96531L35.72 5.35531L35.78 5.23531C35.87 4.96531 36.04 4.64531 36.3 4.27531C36.44 4.07531 36.54 3.88531 36.61 3.69531C36.72 3.76531 36.83 3.85531 36.92 3.95531L37.09 4.12531L37.32 4.05531C37.73 3.93531 38.03 3.79531 38.23 3.63531C38.32 3.55531 38.41 3.46531 38.49 3.34531C38.5 3.34531 38.51 3.36531 38.52 3.37531L38.29 3.68531L38.65 3.92531C39.01 4.16531 39.45 4.19531 39.96 4.01531C40.25 4.42531 40.57 4.91531 40.92 5.50531C41.48 6.46531 41.51 6.73531 41.51 6.77531C41.51 6.89531 41.45 7.31531 41.07 8.75531C40.77 9.89531 40.51 10.9053 40.31 11.7553C40.01 12.8553 39.53 14.2153 38.87 15.8353C38.71 16.3153 38.52 17.2053 38.29 18.5553C38.06 19.8553 37.8 21.0153 37.5 22.0253C37.41 22.4453 37.22 22.9753 36.96 23.5853C36.67 24.2353 36.43 24.8753 36.21 25.5253C36.16 25.7653 36.08 26.0853 35.96 26.4753C35.85 26.8353 35.7 27.1653 35.51 27.4353L35.44 27.5353V29.6653L35.92 29.5853C36.64 29.4653 37.37 29.4453 38.1 29.5253C38.06 29.9153 38.11 30.2853 38.27 30.6353C38.11 30.5653 37.92 30.5153 37.68 30.5153H37.27V32.0953H37.68C37.86 32.0953 38.05 32.0253 38.3 31.8853C38.48 31.7853 38.61 31.6653 38.68 31.5353L38.73 31.6753C38.81 31.8853 38.94 32.0653 39.11 32.1953C38.94 32.2753 38.76 32.3653 38.58 32.4553V32.4653Z" fill="#231815"/>
<path d="M78.1398 54.9254C77.1498 53.5554 76.0198 52.2354 74.7898 51.0054C73.5798 49.7954 72.3398 48.6554 71.1198 47.6054C69.8998 46.5654 68.6398 45.5954 67.3698 44.7354C66.9998 44.4654 66.5198 44.1854 65.9498 43.9054C65.4298 43.6454 65.0198 43.3954 64.7098 43.1354C63.4998 42.2754 62.3498 41.4454 61.2598 40.6354C60.1798 39.8354 59.1898 39.1354 58.3198 38.5754C58.1598 38.4754 57.7998 38.2554 57.2398 37.9154C56.6998 37.5954 56.0998 37.2154 55.4798 36.7854C54.8698 36.3654 54.2898 35.9454 53.7598 35.5154C53.1398 35.0154 53.1198 34.8154 53.1198 34.8054C53.1198 34.7054 53.1198 34.4154 53.6198 34.0854C54.0698 33.7854 54.4198 33.5654 54.6498 33.4254C56.2698 32.5654 57.9098 31.6754 59.5598 30.7654L64.2298 28.1854C65.6998 27.3754 67.0298 26.6754 68.1998 26.1054C69.3998 25.5254 70.3698 25.0254 71.1798 24.5954C71.9698 24.0554 72.8798 23.4854 73.8798 22.9054C74.8798 22.3354 76.6098 21.4854 78.9698 20.3954C79.1198 20.3454 79.4798 20.2354 80.0598 20.0554C80.6498 19.8754 81.2198 19.6854 81.7898 19.4754C82.3698 19.2654 82.9198 18.9954 83.4198 18.6754C84.0298 18.2954 84.3298 17.8154 84.3298 17.2654C84.3298 17.0154 84.2598 16.6954 84.1198 16.2854C83.9798 15.9054 83.8898 15.6654 83.8598 15.6454C83.7898 15.3654 83.5698 15.0454 83.1798 14.6554C82.8398 14.3154 82.4898 13.9954 82.1298 13.6854C81.7598 13.3754 81.4098 13.0954 81.0698 12.8654C80.5698 12.5254 80.3598 12.4554 80.1898 12.4554C79.7098 12.4554 79.4898 12.6454 79.3898 12.8254C79.3098 12.8454 79.0598 12.8654 78.4998 12.6054C78.0498 12.3954 77.7198 12.3054 77.4498 12.3054C76.9098 12.3054 76.3198 12.5354 75.7198 12.9954C75.0998 13.4754 74.7898 13.6454 74.6298 13.7054C73.3998 14.2154 72.0598 14.9054 70.6298 15.7454C69.2298 16.5654 67.0398 17.7254 64.1298 19.1854C63.0698 19.6954 61.9998 20.2154 60.9298 20.7454C59.8598 21.2854 58.9198 21.8154 58.1998 22.2954C57.4098 22.6654 56.8298 23.0754 56.4498 23.5154C57.0098 21.7654 57.3698 20.4454 57.5698 19.4754C57.7698 18.4654 58.1298 17.0454 58.6198 15.2654C59.0198 13.9654 59.3698 12.6454 59.6598 11.3554C59.9498 10.0454 60.0098 8.5254 59.8598 6.8654C59.8598 6.6054 59.9198 6.2854 60.0298 5.9254C60.1698 5.4654 60.2398 5.1354 60.2398 4.8954C60.2398 4.6854 60.1898 4.2954 59.7598 3.1254C59.4498 2.2754 59.1398 1.5554 58.8198 0.975404L58.6998 0.765404H58.4598C58.1198 0.765404 57.7398 0.655404 57.3198 0.435404C56.3498 -0.074596 55.8898 -0.164596 55.2498 0.315404C55.2498 0.315404 55.0998 0.415404 54.5498 0.255404L54.3298 0.615404H52.9698L52.8898 0.925404C52.6798 1.7454 52.4998 2.7554 52.3498 3.9354C52.1998 5.0454 51.9598 5.9454 51.6298 6.6154L51.5898 6.7954C51.5898 6.9954 51.6798 7.1854 51.8498 7.3854C51.5298 7.9254 51.2798 8.6854 51.0998 9.6454C50.9298 10.5654 50.7398 11.3554 50.5398 11.9954C49.5798 15.2454 48.9198 18.1154 48.5898 20.5254C48.2698 22.8854 47.4698 25.5954 46.2198 28.6054C46.0098 29.1854 45.5398 29.5754 44.7798 29.7954C43.8398 30.0654 43.1298 30.3554 42.5898 30.6754L42.3898 30.7954V31.0254C42.3898 31.4254 42.4598 31.8354 42.5998 32.2554C42.6898 32.5154 42.6898 32.7154 42.5998 32.8654L42.2298 33.4854H42.9598C43.1098 33.4854 43.1898 33.5154 43.2098 33.5454C43.2798 33.6754 43.2798 33.7654 43.2698 33.8154L43.1898 34.3954C43.1598 34.6254 43.1498 34.7754 43.1498 34.8254V35.0454L43.3298 35.1654C43.4698 35.2554 43.6298 35.3854 43.8198 35.5554C43.9598 35.6754 43.9798 35.7354 43.9798 35.7354C43.9798 35.9154 43.9098 36.4354 43.4298 37.9654C43.0498 39.1854 42.6198 40.6454 42.1398 42.3454C41.6598 44.0254 41.2298 45.8254 40.8398 47.6954C40.4598 49.5654 40.2598 51.2954 40.2598 52.8254V54.2354C40.2598 54.7954 40.3098 55.3854 40.4198 55.9754C40.5298 56.5954 40.6398 57.1054 40.7698 57.5354C40.8998 57.9754 41.1098 58.3254 41.4098 58.5854C41.4298 58.7654 41.4798 58.9354 41.5498 59.1054C41.5898 59.2054 41.6298 59.2854 41.6298 59.2854V59.4054L41.6998 59.5054C42.0098 59.9754 42.4398 60.4954 42.9598 61.0454C43.4998 61.6154 43.9298 61.9754 44.3198 62.1654C44.8698 62.3854 45.4198 62.4954 45.9498 62.4954C46.3598 62.4954 46.6998 62.5554 46.9398 62.6754L47.2698 62.8354L47.4698 62.5354C47.6898 62.1954 47.8798 61.8254 48.0098 61.4154C48.1498 60.9854 48.2198 60.6354 48.2198 60.3354C48.2198 59.9654 48.0498 59.6154 47.7198 59.2854C47.4998 59.0654 47.3198 58.8954 47.1698 58.7854C47.1098 58.6154 47.0898 58.4554 47.0898 58.2854V57.6054C47.0898 54.6754 47.4798 51.8354 48.2498 49.1754C49.0298 46.4854 49.7098 43.9654 50.2498 41.7654H50.5298L50.6298 41.5054C50.7298 41.2554 50.8498 40.9554 51.0098 40.6054C51.0598 40.4854 51.1098 40.3954 51.1398 40.3154C54.3998 42.2654 57.7098 44.3754 60.9898 46.5954C64.3698 48.8754 67.2998 51.2954 69.7298 53.8254C70.7598 54.6654 71.6598 55.5654 72.3998 56.4954C73.1698 57.4754 74.0298 58.3854 74.9798 59.2254C75.2598 59.4354 75.6598 59.5354 76.2098 59.5354H77.2698C77.4498 59.5354 77.5998 59.5754 77.7398 59.6654C78.4298 60.0854 78.9798 59.9454 79.3598 59.6254C79.4398 59.5654 79.5198 59.5354 79.6298 59.5354H80.1298L80.0298 59.0454C79.7698 57.7254 79.1198 56.3454 78.0998 54.9354L78.1398 54.9254ZM54.2398 0.765404C54.2398 0.765404 54.2898 0.685404 54.3198 0.655404L54.2298 0.815404C54.2298 0.815404 54.2298 0.785404 54.2498 0.765404H54.2398ZM78.8698 58.9854C78.7898 59.0454 78.6798 59.0754 78.5298 59.0754C78.4998 59.0754 78.3998 59.0654 78.2198 58.9454C77.9498 58.7754 77.6498 58.6954 77.3198 58.6954H76.2598C75.7798 58.6954 75.5898 58.6054 75.5498 58.5754C74.6598 57.7854 73.8298 56.9054 73.0898 55.9654C72.3198 54.9854 71.3698 54.0454 70.3298 53.2054C67.8898 50.6654 64.9198 48.2054 61.4898 45.8954C58.0798 43.5954 54.6398 41.4054 51.2598 39.3954L50.9798 39.2254L50.7498 39.4554C50.6098 39.5954 50.4698 39.8454 50.2798 40.2654C50.1598 40.5354 50.0598 40.7754 49.9798 40.9854C49.8198 41.0554 49.6698 41.1754 49.5598 41.3354L49.4998 41.4654C48.9398 43.7454 48.2698 46.2554 47.4898 48.9254C46.6998 51.6654 46.2998 54.5754 46.2998 57.5854V58.2654C46.2998 58.5754 46.3598 58.8854 46.4798 59.1854L46.5298 59.3054L46.6398 59.3754C46.7598 59.4554 46.9498 59.6154 47.1798 59.8554C47.3498 60.0254 47.4398 60.1854 47.4398 60.3254C47.4398 60.5354 47.3798 60.8054 47.2698 61.1454C47.1898 61.3754 47.0998 61.5854 46.9898 61.7954C46.3698 61.6154 45.4898 61.7254 44.6898 61.4054C44.5098 61.3154 44.1698 61.0754 43.5898 60.4654C43.1298 59.9854 42.7498 59.5254 42.4698 59.1154C42.4498 59.0354 42.4098 58.9254 42.3398 58.7654C42.2898 58.6454 42.2598 58.5054 42.2598 58.3554V58.1354L42.0798 58.0154C41.8598 57.8654 41.6998 57.6254 41.5998 57.2854C41.4798 56.8854 41.3698 56.3854 41.2698 55.8154C41.1698 55.2654 41.1298 54.7354 41.1298 54.2154V52.8054C41.1298 51.3254 41.3198 49.6554 41.6898 47.8354C42.0698 45.9854 42.4998 44.2054 42.9698 42.5454C43.4498 40.8554 43.8798 39.4054 44.2598 38.1854C44.7898 36.4954 44.8498 35.9654 44.8498 35.7054C44.8498 35.4354 44.6998 35.1654 44.4098 34.9054C44.2798 34.7854 44.1498 34.6854 44.0398 34.5954C44.0398 34.5554 44.0398 34.5154 44.0598 34.4654L44.1398 33.9054C44.1798 33.6354 44.1198 33.3754 43.9698 33.1154C43.8898 32.9854 43.7598 32.8354 43.5298 32.7354C43.5498 32.5054 43.5298 32.2454 43.4298 31.9754C43.3498 31.7254 43.2898 31.4754 43.2698 31.2354C43.7198 30.9954 44.3198 30.7754 45.0498 30.5654C46.0698 30.2754 46.7298 29.7054 47.0298 28.8854C48.2998 25.8254 49.1198 23.0454 49.4498 20.6154C49.7798 18.2454 50.4198 15.4154 51.3698 12.2154C51.5798 11.5454 51.7698 10.7254 51.9498 9.7754C52.1198 8.8954 52.3398 8.2054 52.6098 7.7654C52.8198 7.4554 52.7798 7.0954 52.5198 6.8254L52.4898 6.7954C52.8198 6.0654 53.0598 5.1354 53.2098 4.0154C53.3398 3.0154 53.4898 2.1454 53.6598 1.4154H54.3998C54.7498 1.4154 54.9098 1.2754 54.9898 1.1454C55.3198 1.1654 55.5798 1.1054 55.7898 0.955404C55.9798 0.815404 56.0698 0.805404 56.0698 0.805404C56.1698 0.805404 56.4298 0.845404 56.9798 1.1354C57.4198 1.3654 57.8498 1.5054 58.2498 1.5454C58.5098 2.0554 58.7698 2.6654 59.0298 3.3754C59.4198 4.4554 59.4598 4.7754 59.4598 4.8654C59.4598 4.9754 59.4298 5.1954 59.2898 5.6554C59.1498 6.0954 59.0798 6.4954 59.0798 6.8754C59.2298 8.4954 59.1598 9.9354 58.8998 11.1554C58.6198 12.4154 58.2798 13.7154 57.8798 15.0054C57.3798 16.8254 57.0098 18.2654 56.8098 19.2854C56.6098 20.2654 56.2098 21.7054 55.6098 23.5654L55.5298 23.8254L56.6498 24.7854L56.8898 24.3354C57.1498 23.8554 57.7298 23.4054 58.6598 22.9554C59.3998 22.4554 60.3098 21.9454 61.3498 21.4254C62.4098 20.8954 63.4698 20.3754 64.5398 19.8654C67.4798 18.3954 69.6798 17.2254 71.0998 16.3954C72.4898 15.5754 73.8098 14.9054 74.9898 14.4054C75.2798 14.2854 75.6998 14.0254 76.2698 13.5954C76.7298 13.2454 77.1398 13.0754 77.4998 13.0754C77.5798 13.0754 77.7698 13.1054 78.1998 13.3054C78.6398 13.5054 78.9998 13.6054 79.3198 13.6054C79.7998 13.6054 80.0198 13.4154 80.1198 13.2354C80.1398 13.2354 80.1598 13.2354 80.1798 13.2354C80.1898 13.2354 80.2998 13.2754 80.6398 13.5054C80.9598 13.7254 81.2898 13.9854 81.6298 14.2754C81.9798 14.5754 82.3098 14.8854 82.6298 15.2054C83.0198 15.5954 83.0798 15.7854 83.1198 15.8954C83.1698 15.9954 83.2498 16.2054 83.3698 16.5354C83.5098 16.9154 83.5398 17.1254 83.5398 17.2354C83.5398 17.3254 83.5398 17.6154 83.0098 17.9454C82.5498 18.2354 82.0598 18.4754 81.5298 18.6654C80.9798 18.8654 80.4098 19.0554 79.8398 19.2254C79.2498 19.4054 78.8798 19.5154 78.6898 19.5854C76.2598 20.6954 74.5098 21.5654 73.4898 22.1454C72.4598 22.7354 71.5298 23.3154 70.7698 23.8454C70.0098 24.2454 69.0398 24.7354 67.8598 25.3154C66.6898 25.8954 65.3398 26.5954 63.8598 27.4154L59.1898 29.9954C57.5498 30.9054 55.9198 31.7854 54.2798 32.6654C54.0198 32.8254 53.6598 33.0554 53.1998 33.3554C52.6198 33.7354 52.3298 34.2154 52.3298 34.7654C52.3298 35.1654 52.6198 35.5754 53.2798 36.1154C53.8298 36.5554 54.4198 36.9954 55.0498 37.4254C55.6898 37.8554 56.2998 38.2454 56.8598 38.5754C57.4098 38.8954 57.7598 39.1154 57.9098 39.2154C58.7698 39.7754 59.7398 40.4554 60.8098 41.2554C61.8998 42.0654 63.0598 42.9054 64.2498 43.7454C64.5798 44.0254 65.0398 44.3054 65.6198 44.5954C66.1498 44.8554 66.5898 45.1154 66.9398 45.3654C68.1898 46.2154 69.4298 47.1654 70.6298 48.1854C71.8398 49.2154 73.0598 50.3454 74.2498 51.5454C75.4498 52.7454 76.5398 54.0354 77.5098 55.3654C78.3498 56.5354 78.9198 57.6754 79.2098 58.7654C79.0998 58.8154 78.9998 58.8754 78.9098 58.9554L78.8698 58.9854Z" fill="#231815"/>
<path d="M121.101 55.0852C120.621 54.8352 120.201 54.5052 119.851 54.0952C119.551 53.6352 119.251 53.0352 118.981 52.2752C118.701 51.5152 118.561 50.7352 118.561 49.9252C118.561 49.6752 118.621 49.5752 118.751 49.6252C118.871 49.6752 118.941 49.5752 118.941 49.3252V44.7652C118.941 44.6652 119.001 44.3052 119.131 43.7052C119.251 43.0952 119.381 42.3852 119.511 41.5752C119.641 40.7652 119.781 39.9052 119.931 38.9952C120.081 38.0852 120.211 37.2752 120.311 36.5652C120.511 35.3452 120.701 34.2352 120.881 33.2252C121.061 32.2152 121.321 30.9952 121.681 29.5752C121.581 29.0652 121.681 28.4652 121.981 27.7552C122.281 27.0452 122.491 26.4152 122.591 25.8552C122.691 25.0952 122.901 24.1552 123.201 23.0452C123.501 21.9352 123.811 20.7952 124.111 19.6252C124.411 18.4652 124.681 17.3252 124.911 16.2052C125.141 15.0952 125.251 14.1852 125.251 13.4752V12.7152C125.251 12.4652 125.221 12.2652 125.171 12.1052C124.971 11.9052 124.711 11.6252 124.411 11.2752C124.111 10.9252 123.801 10.5652 123.501 10.2152C123.201 9.86518 122.901 9.56518 122.631 9.34518C122.351 9.11518 122.191 9.00518 122.141 9.00518C121.891 9.00518 121.581 9.04518 121.231 9.11518C120.881 9.19518 120.571 9.17518 120.321 9.07518C120.321 9.12518 120.331 9.18518 120.361 9.26518C120.391 9.34518 120.271 9.37518 120.021 9.37518C119.821 9.37518 119.771 9.31518 119.871 9.18518C119.971 9.05518 119.921 8.99518 119.721 8.99518C119.471 8.99518 119.271 9.05518 119.111 9.18518C118.961 9.31518 118.811 9.32518 118.651 9.22518C118.351 9.68518 118.091 10.1452 117.891 10.6352C117.691 11.1152 117.481 11.5552 117.281 11.9652C117.081 12.5252 116.851 13.1052 116.601 13.7152C116.351 14.3252 116.121 14.9252 115.921 15.5352C115.721 16.1452 115.501 16.6752 115.271 17.1352C115.041 17.5852 114.881 17.9452 114.781 18.1952C114.531 18.7052 114.081 19.3552 113.451 20.1652C112.821 20.9752 112.551 21.6552 112.651 22.2152C112.351 22.3652 112.021 22.7252 111.661 23.2752C111.311 23.8352 110.941 24.4252 110.561 25.0552C110.181 25.6852 109.831 26.3452 109.501 27.0352C109.171 27.7152 108.881 28.2652 108.621 28.6652C108.161 29.5252 107.621 30.3952 106.991 31.2852C106.361 32.1752 105.761 32.9652 105.211 33.6752C105.061 33.7752 104.981 33.9352 104.981 34.1652C104.981 34.3952 104.951 34.5052 104.901 34.5052C104.191 35.4152 103.471 36.3252 102.741 37.2352C102.001 38.1452 101.331 39.0852 100.731 40.0452C99.5206 42.1252 98.0906 44.0352 96.4406 45.7752C94.7906 47.5252 93.2906 49.2052 91.9206 50.8252C91.6706 50.8252 91.5106 50.8452 91.4606 50.8952C90.9006 51.5052 90.1706 52.0952 89.2606 52.6752C88.3506 53.2552 87.5906 53.5452 86.9806 53.5452C86.4206 53.5452 86.1206 53.3652 86.0706 53.0152C86.0206 52.6652 85.9906 52.2852 85.9906 51.8752C85.9906 51.7752 86.0006 51.4452 86.0306 50.8852C86.0506 50.3252 86.0906 49.6652 86.1406 48.9052C86.1906 48.1452 86.2706 47.3652 86.3706 46.5552C86.4706 45.7452 86.5706 45.0352 86.6706 44.4252C86.9206 43.5152 87.2606 42.5752 87.7006 41.6152C88.1306 40.6552 88.5006 39.7652 88.8006 38.9552C88.8506 38.6552 88.8906 38.3052 88.9106 37.9252C88.9306 37.5452 88.9706 37.2752 89.0206 37.1252C89.4206 36.0152 89.8306 34.9252 90.2306 33.8652C90.6306 32.8052 91.0406 31.7152 91.4506 30.5952C91.5506 30.2452 91.6106 29.8052 91.6406 29.3052C91.6706 28.7952 91.7506 28.3952 91.9106 28.0852C92.5706 26.5152 93.2306 24.9252 93.8806 23.3052C94.5406 21.6852 95.1506 20.0652 95.7006 18.4452C95.7506 18.2952 95.7406 18.1752 95.6606 18.1052C95.5806 18.0252 95.5706 17.9152 95.6206 17.7652C95.6706 17.9152 95.8406 17.6352 96.1106 16.9252C96.3906 16.2152 96.6806 15.3852 96.9806 14.4152C97.2806 13.4552 97.5506 12.4752 97.7806 11.4952C98.0106 10.5052 98.1206 9.81518 98.1206 9.40518C98.1206 9.10518 97.9906 8.65518 97.7406 8.07518C97.4906 7.49518 96.9806 7.20518 96.2206 7.20518C95.9706 7.20518 95.8406 7.23518 95.8406 7.28518C95.8406 7.33518 95.7406 7.35518 95.5406 7.35518C95.2806 7.35518 95.1806 7.30518 95.2406 7.20518C95.2906 7.10518 95.1906 7.05518 94.9406 7.05518C94.7906 7.05518 94.6506 7.14518 94.5206 7.32518C94.3906 7.50518 94.2306 7.59518 94.0306 7.59518C93.8306 7.59518 93.7406 7.55518 93.7606 7.48518C93.7906 7.40518 93.6706 7.37518 93.4206 7.37518C93.2206 7.37518 93.0906 7.35518 93.0406 7.30518C92.9906 7.30518 92.9606 7.27518 92.9606 7.22518C92.8606 7.57518 92.8106 7.92518 92.8106 8.25518C92.8106 8.58518 92.7606 8.90518 92.6606 9.20518C92.6106 9.50518 92.4806 9.77518 92.2806 10.0052C92.0806 10.2352 91.9006 10.3952 91.7506 10.4952C91.4506 11.0052 91.2206 11.5452 91.0706 12.1252C90.9206 12.7052 90.6106 13.0952 90.1606 13.3052L84.4606 26.8252L80.3606 40.3452V40.8752C80.2606 41.3252 80.1506 41.7752 80.0206 42.2052C79.8906 42.6352 79.8006 43.0052 79.7506 43.3052C79.6506 43.8152 79.5506 44.3852 79.4506 45.0152C79.3506 45.6452 79.2806 46.2652 79.2606 46.8752C79.2306 47.4852 79.2106 48.0152 79.1806 48.4752C79.1506 48.9252 79.1406 49.1852 79.1406 49.2352C79.1406 49.4852 79.1506 49.7452 79.1806 49.9952C79.2106 50.2452 79.2206 50.4252 79.2206 50.5252C79.2706 50.7252 79.3206 50.9152 79.3706 51.0952C79.4206 51.2752 79.4906 51.4352 79.6006 51.5852C79.7006 51.8852 79.7606 52.1852 79.7906 52.4552C79.8106 52.7352 79.8506 52.9452 79.9006 53.1052C80.0506 53.5652 80.2506 53.9652 80.5106 54.3152C80.7106 54.8252 81.1206 55.4452 81.7306 56.1752C82.3406 56.9052 82.7706 57.2752 83.0206 57.2752C83.2206 57.2752 83.2706 57.2352 83.1706 57.1552C83.0706 57.0852 83.1206 57.0452 83.3206 57.0452C83.4706 57.0452 83.6906 57.1752 83.9706 57.4252C84.2506 57.6752 84.5306 57.9452 84.8106 58.2252C85.0906 58.5052 85.3806 58.7452 85.6806 58.9452C85.9806 59.1452 86.2906 59.2452 86.5906 59.2452H87.7306C88.2406 59.2452 88.7306 59.2352 89.2106 59.2052C89.6906 59.1752 90.1606 59.1152 90.6206 59.0152C91.0806 58.9152 91.4006 58.7852 91.6106 58.6352C91.8106 58.7352 91.9906 58.7352 92.1406 58.6352C94.2206 57.6752 96.1506 56.2952 97.9506 54.4952C99.7506 52.6952 101.441 50.7252 103.041 48.5752C104.631 46.4252 106.181 44.2352 107.671 42.0052C109.161 39.7752 110.641 37.7052 112.111 35.7752C112.211 35.8752 112.251 35.9452 112.221 35.9652C112.191 35.9952 112.211 36.0752 112.261 36.2352V47.9352C112.261 48.1852 112.321 48.4652 112.451 48.7752C112.581 49.0752 112.661 49.3552 112.721 49.6052C112.671 49.7052 112.641 49.8852 112.641 50.1352C112.891 51.0952 113.151 52.0252 113.401 52.9052C113.651 53.7952 114.011 54.4852 114.461 54.9952C114.361 55.0952 114.311 55.1752 114.311 55.2252V55.4552C114.411 55.3052 114.521 55.2952 114.651 55.4152C114.781 55.5452 114.891 55.6352 114.991 55.6852C115.191 55.8852 115.451 56.1652 115.751 56.5252C116.051 56.8752 116.361 57.1552 116.661 57.3652C117.221 57.7752 117.951 58.2252 118.861 58.7352C119.771 59.2452 120.301 59.4952 120.461 59.4952C120.711 59.4952 120.841 59.5452 120.841 59.6452C120.841 59.7452 120.971 59.7952 121.221 59.7952C121.421 59.7952 121.601 59.7252 121.751 59.5652C121.901 59.4152 122.051 59.3352 122.211 59.3352C121.961 59.1352 121.881 58.9852 121.981 58.8752H122.741C122.991 58.8752 123.131 58.6952 123.161 58.3452C123.191 57.9852 123.271 57.7152 123.431 57.5052C122.871 56.8452 122.541 56.3152 122.441 55.9152C122.031 55.6152 121.591 55.3352 121.111 55.0752L121.101 55.0852Z" fill="#231815"/>
<path d="M154.859 19.9954C154.859 19.9154 154.889 19.8654 154.919 19.8154C154.879 19.8654 154.829 19.9254 154.789 19.9954H154.869H154.859Z" fill="#231815"/>
<path d="M126.039 36.8956C126.059 36.7556 126.079 36.6156 126.079 36.4756C126.079 36.6256 126.069 36.7656 126.039 36.8956Z" fill="#231815"/>
<path d="M155.881 8.68529C155.451 7.41529 154.921 6.29529 154.291 5.30529C153.661 4.31529 152.911 3.77529 152.051 3.67529C151.591 3.62529 151.111 3.44529 150.611 3.14529C150.101 2.83529 149.701 2.61529 149.391 2.46529C149.141 2.41529 148.821 2.31529 148.441 2.16529C148.061 2.01529 147.671 1.86529 147.261 1.70529C146.851 1.55529 146.491 1.42529 146.161 1.32529C145.831 1.22529 145.641 1.17529 145.591 1.17529C145.341 1.17529 144.681 1.21529 143.621 1.28529C142.561 1.35529 141.621 1.42529 140.811 1.47529C140.451 1.47529 139.991 1.76529 139.401 2.34529C138.821 2.92529 138.401 3.21529 138.151 3.21529C137.951 3.21529 137.921 3.15529 138.071 3.02529C138.221 2.89529 138.171 2.83529 137.921 2.83529C137.721 2.83529 137.481 2.98529 137.201 3.29529C136.921 3.59529 136.631 3.80529 136.331 3.90529C136.331 4.05529 136.371 4.14529 136.441 4.17529C136.521 4.20529 136.551 4.26529 136.551 4.36529C136.041 5.22529 135.561 6.14529 135.111 7.13529C134.651 8.12529 134.371 8.94529 134.271 9.60529C134.121 10.2653 134.001 11.0953 133.931 12.1153C133.851 13.1253 133.821 13.6853 133.821 13.7853C133.821 14.6953 134.051 16.0553 134.501 17.8453C134.961 19.6453 135.451 21.4553 135.981 23.2753C136.511 25.0953 137.001 26.7053 137.461 28.0953C137.921 29.4853 138.141 30.2353 138.141 30.3353C138.701 31.5053 139.251 32.7553 139.811 34.0953C140.371 35.4353 140.891 36.7953 141.371 38.1653C141.851 39.5353 142.311 40.8453 142.741 42.1153C143.171 43.3853 143.541 44.5253 143.841 45.5353C143.941 45.8353 143.981 46.1853 143.951 46.5653C143.931 46.9453 143.891 47.2853 143.841 47.5953C143.841 47.6453 143.871 47.6553 143.921 47.6353C143.971 47.6053 144.001 47.7253 144.001 47.9753V48.9253C144.001 49.2553 143.951 49.5753 143.851 49.8753C143.701 50.3353 143.441 50.7453 143.091 51.1253C142.741 51.5053 142.411 51.7953 142.101 51.9953C141.901 52.0953 141.621 52.2153 141.261 52.3353C140.911 52.4653 140.681 52.5753 140.581 52.6753L140.201 52.3753C139.951 52.4753 139.641 52.5253 139.291 52.5253C138.731 52.5253 138.051 52.4253 137.241 52.2153C136.431 52.0153 135.621 51.7653 134.811 51.4553C134.001 51.1453 133.291 50.8053 132.681 50.4253C132.071 50.0453 131.691 49.6753 131.541 49.3253C131.541 49.4253 131.581 49.5153 131.651 49.5953C131.721 49.6753 131.661 49.7053 131.461 49.7053C131.211 49.7053 130.931 49.3853 130.631 48.7553C130.321 48.1253 130.051 47.6753 129.791 47.4253C129.591 47.2253 129.371 46.8853 129.151 46.4053C128.921 45.9253 128.721 45.3753 128.541 44.7753C128.361 44.1653 128.211 43.5453 128.081 42.9153C127.951 42.2853 127.891 41.7153 127.891 41.2053L127.511 41.5853C127.251 40.9753 127.101 40.4153 127.051 39.9153C126.641 39.8653 126.451 39.6153 126.481 39.1553C126.501 38.6953 126.441 38.4253 126.291 38.3153C126.241 38.2653 126.191 38.2553 126.141 38.2753C126.091 38.3053 126.041 38.2353 125.991 38.0853C125.891 37.7853 125.881 37.5053 125.951 37.2553C125.981 37.1553 126.001 37.0453 126.021 36.9453C125.991 37.0753 125.961 37.1853 125.911 37.2953C125.811 37.5253 125.761 37.7653 125.761 38.0153C125.611 38.0153 125.561 37.9853 125.611 37.9353C125.661 37.8853 125.561 37.8553 125.311 37.8553C125.061 37.8553 124.961 37.9153 125.011 38.0453C125.061 38.1753 125.011 38.2353 124.861 38.2353C125.011 38.6453 125.141 39.0653 125.241 39.5253C125.341 39.9753 125.321 40.4153 125.171 40.8153C124.921 40.4053 124.761 40.2053 124.711 40.2053C124.561 40.7153 124.521 41.1553 124.601 41.5353C124.681 41.9153 124.711 42.2853 124.711 42.6353C124.511 42.5353 124.391 42.4153 124.371 42.2953C124.341 42.1653 124.281 42.1053 124.181 42.1053C124.181 42.2553 124.141 42.3553 124.071 42.4053C123.991 42.4553 123.961 42.6053 123.961 42.8653C123.961 43.1253 124.031 43.2953 124.191 43.3953C124.341 43.4953 124.421 43.6453 124.421 43.8553C124.421 44.2053 124.471 44.6553 124.571 45.1853C124.671 45.7153 124.651 46.1353 124.501 46.4353C124.751 46.6353 124.901 46.8153 124.961 46.9653C125.061 47.0653 125.051 47.1853 124.921 47.3053C124.791 47.4353 124.731 47.5453 124.731 47.6453C125.031 48.1053 125.271 48.5553 125.451 49.0153C125.631 49.4753 125.821 49.8453 126.021 50.1553C126.171 50.9153 126.631 51.8253 127.391 52.8853C128.151 53.9453 128.781 54.7553 129.291 55.3153C129.851 55.9753 130.531 56.5053 131.341 56.9053C132.151 57.3153 132.711 57.6653 133.011 57.9653C133.111 58.1653 133.311 58.4153 133.621 58.7253C133.921 59.0353 134.151 59.1853 134.301 59.1853C134.551 59.1853 134.611 59.1453 134.491 59.0753C134.361 58.9953 134.431 58.9553 134.681 58.9553C134.781 58.9553 135.031 59.0153 135.441 59.1453C135.851 59.2753 136.251 59.4253 136.661 59.6053C137.061 59.7853 137.471 59.9353 137.871 60.0653C138.281 60.1853 138.531 60.2553 138.631 60.2553H140.301C140.861 60.2553 141.541 60.1653 142.351 59.9853C143.161 59.8053 143.841 59.5653 144.401 59.2653C144.501 59.2153 144.621 59.1853 144.741 59.1853H145.011C145.261 58.9853 145.501 58.7553 145.731 58.5053C145.961 58.2553 146.121 58.0753 146.221 57.9753C146.831 57.5753 147.361 57.0653 147.811 56.4553C148.271 55.8453 148.541 55.2853 148.651 54.7853C148.751 54.5853 148.761 54.3953 148.691 54.2153C148.611 54.0353 148.601 53.8753 148.651 53.7253C148.851 53.1153 149.001 52.3953 149.111 51.5653C149.211 50.7253 149.261 50.2353 149.261 50.0853C149.261 49.3253 149.201 48.4653 149.071 47.5053C148.941 46.5453 148.791 45.5553 148.611 44.5453C148.431 43.5353 148.231 42.5853 148.001 41.6953C147.771 40.8053 147.531 40.1353 147.281 39.6853C146.831 38.5753 146.431 37.5553 146.101 36.6453C145.771 35.7353 145.481 34.8853 145.221 34.0953C144.971 33.3153 144.711 32.5253 144.461 31.7453C144.201 30.9553 143.931 30.1353 143.621 29.2753C143.521 29.0753 143.401 28.8953 143.281 28.7453C143.151 28.5953 143.091 28.4653 143.091 28.3653C142.841 27.5053 142.541 26.5853 142.221 25.5953C141.891 24.6053 141.601 23.7053 141.351 22.8953C140.891 22.2853 140.651 21.6053 140.631 20.8453C140.601 20.0853 140.521 19.4253 140.361 18.8753C140.311 18.5753 140.181 18.2853 139.981 18.0053C139.781 17.7253 139.681 17.4853 139.681 17.2853C139.531 16.7253 139.441 16.0753 139.411 15.3153C139.381 14.5553 139.371 14.0453 139.371 13.7953C139.371 13.2853 139.471 12.8053 139.671 12.3553C139.771 11.7953 139.971 11.2053 140.281 10.5653C140.581 9.93529 140.891 9.36529 141.191 8.85529C141.241 8.75529 141.471 8.55529 141.871 8.24529C142.271 7.94529 142.721 7.62529 143.201 7.29529C143.681 6.96529 144.151 6.67529 144.601 6.42529C145.061 6.17529 145.391 6.04529 145.591 6.04529C146.051 6.04529 146.301 6.07529 146.351 6.12529C146.501 6.17529 146.601 6.26529 146.651 6.39529C146.701 6.52529 146.851 6.58529 147.101 6.58529C147.351 6.58529 147.431 6.55529 147.331 6.50529C147.231 6.45529 147.301 6.42529 147.561 6.42529C147.761 6.42529 148.171 6.60529 148.771 6.95529C149.381 7.30529 149.861 7.63529 150.211 7.94529C150.461 8.14529 150.701 8.47529 150.931 8.93529C151.161 9.39529 151.361 9.91529 151.541 10.4953C151.721 11.0753 151.861 11.6353 151.961 12.1653C152.061 12.6953 152.111 13.1353 152.111 13.4953C152.111 13.7453 152.081 13.8453 152.031 13.7953C151.981 13.7453 151.981 13.7753 152.031 13.8753L151.801 14.2553C151.751 14.3553 151.701 14.3953 151.651 14.3653C151.601 14.3353 151.551 14.3553 151.501 14.4053C151.401 14.6553 151.351 14.9353 151.351 15.2453V16.0053C151.351 16.1553 151.431 16.2353 151.581 16.2353H151.731C151.631 16.4353 151.581 16.6653 151.581 16.9153C151.581 17.1653 151.551 17.3753 151.501 17.5253C151.551 17.6753 151.581 17.7753 151.581 17.8253C151.581 17.8753 151.611 17.9553 151.661 18.0553C151.911 18.3553 152.221 18.6853 152.571 19.0453C152.921 19.3953 153.231 19.6253 153.481 19.7253C153.531 19.8253 153.561 19.9453 153.561 20.0653V20.4853C153.761 20.2853 153.951 20.1053 154.131 19.9553C154.311 19.8053 154.551 19.6753 154.851 19.5753C154.901 19.6253 154.931 19.6753 154.931 19.7253V19.8053C154.931 19.8053 154.931 19.8453 154.911 19.8553C154.971 19.7853 155.021 19.7353 155.081 19.6953C155.181 19.6153 155.281 19.5053 155.381 19.3553C155.641 19.6053 155.861 19.7353 156.061 19.7353C156.161 19.4353 156.271 19.1553 156.401 18.9053C156.531 18.6553 156.611 18.4753 156.671 18.3753C156.771 17.9753 156.871 17.4353 156.971 16.7853C157.071 16.1253 157.121 15.7253 157.121 15.5753C157.121 14.8153 157.021 13.8053 156.821 12.5353C156.621 11.2753 156.301 10.0053 155.871 8.73529L155.881 8.68529Z" fill="#231815"/>
<path d="M209.659 6.78541C209.529 6.63541 209.419 6.50541 209.319 6.40541C209.779 6.05541 209.979 5.79541 209.929 5.64541C209.679 5.49541 209.649 5.31541 209.859 5.11541C207.479 4.60541 205.429 4.22541 203.709 3.97541C201.989 3.72541 200.379 3.54541 198.889 3.44541C197.399 3.34541 195.919 3.29541 194.449 3.29541H189.439C189.189 3.29541 189.059 3.34541 189.059 3.44541V3.67541H187.009C186.249 3.67541 185.539 3.72541 184.879 3.82541L167.709 6.02541C167.409 5.92541 167.089 5.87541 166.759 5.87541C166.429 5.87541 166.109 5.82541 165.809 5.72541C165.709 5.72541 165.659 5.67541 165.659 5.57541L165.579 5.49541C165.379 5.75541 165.049 5.92541 164.589 6.02541C164.139 6.12541 163.629 6.17541 163.069 6.17541C162.919 6.17541 162.549 6.12541 161.969 6.02541C161.389 5.92541 160.969 5.87541 160.719 5.87541C160.469 5.87541 160.299 5.97541 160.219 6.17541C160.149 6.37541 160.109 6.52541 160.109 6.62541C160.259 7.13541 160.339 7.70541 160.339 8.33541C160.339 8.96541 160.469 9.53541 160.719 10.0454C160.969 10.5054 161.239 10.9854 161.519 11.4854C161.799 11.9954 162.139 12.4254 162.549 12.7754C162.749 12.8754 163.019 13.0554 163.349 13.3054C163.679 13.5554 164.029 13.7854 164.409 13.9854C164.789 14.1854 165.159 14.3654 165.509 14.5154C165.859 14.6654 166.089 14.7454 166.189 14.7454C166.489 14.7454 166.959 14.6854 167.589 14.5554C168.219 14.4254 168.769 14.4454 169.219 14.5954L169.519 14.2154C169.819 14.2154 170.049 14.2254 170.199 14.2554C170.349 14.2854 170.479 14.2954 170.579 14.2954C171.339 14.2454 172.179 14.1454 173.089 13.9954C173.999 13.8454 174.899 13.6954 175.789 13.5354C176.679 13.3854 177.489 13.2454 178.219 13.1154C178.949 12.9854 179.519 12.8954 179.929 12.8454C180.439 12.7954 180.909 12.7654 181.339 12.7654H182.589L179.859 24.6854C179.509 27.6754 179.139 30.6754 178.759 33.6854C178.379 36.6954 178.039 39.6754 177.739 42.6054C177.689 43.4654 177.659 44.3354 177.659 45.2254C177.659 46.1154 177.629 46.8554 177.579 47.4654C177.479 48.9354 177.389 50.3754 177.309 51.7954C177.229 53.2154 177.139 54.6554 177.039 56.1254C177.039 56.3854 176.889 56.6454 176.579 56.9254C176.279 57.2054 176.019 57.4954 175.819 57.7954C176.379 58.2454 177.009 58.7554 177.719 59.3154C178.429 59.8754 178.879 60.1454 179.089 60.1454C179.389 60.1454 179.609 60.0154 179.739 59.7654C179.869 59.5054 180.059 59.2554 180.309 59.0054L180.689 59.3854C180.839 59.2354 181.029 59.0454 181.259 58.8154C181.489 58.5854 181.779 58.4254 182.129 58.3254L185.239 37.4354C185.239 36.5754 185.319 35.5854 185.469 34.4754C185.619 33.3654 185.809 32.2054 186.039 31.0254C186.269 29.8354 186.519 28.6954 186.799 27.6054C187.079 26.5154 187.289 25.5454 187.449 24.6854C187.549 23.8754 187.699 23.0754 187.909 22.2954C188.109 21.5154 188.319 20.6854 188.519 19.8254C188.619 19.4254 188.739 18.9354 188.859 18.3854C188.979 17.8254 189.129 17.3754 189.279 17.0154C189.479 16.0554 189.629 15.0654 189.739 14.0554C189.839 13.0454 189.939 12.1354 190.039 11.3254C191.959 10.7654 193.849 10.3554 195.699 10.0754C197.549 9.79541 199.589 9.53541 201.809 9.27541C202.159 9.27541 202.589 9.13541 203.099 8.85541C203.609 8.57541 203.959 8.43541 204.159 8.43541C204.359 8.43541 204.469 8.49541 204.469 8.62541C204.469 8.75541 204.589 8.81541 204.849 8.81541C204.949 8.81541 205.219 8.75541 205.649 8.62541C206.079 8.49541 206.549 8.34541 207.049 8.16541C207.559 7.98541 208.099 7.79541 208.679 7.59541C209.259 7.39541 209.729 7.21541 210.089 7.06541C209.939 7.01541 209.799 6.91541 209.669 6.76541L209.659 6.78541Z" fill="#231815"/>
</svg>
