<svg width="158" height="72" viewBox="0 0 158 72" fill="none" xmlns="http://www.w3.org/2000/svg">
<path d="M32.8092 14.6898C33.1492 14.2598 33.2692 13.5098 33.2692 13.5098H12.9492C12.9492 13.5098 13.1992 14.3498 13.4092 14.6898H32.7992H32.8092Z" fill="#AA8420"/>
<path d="M31.6308 16.3996C32.0108 16.0696 32.3908 15.3896 32.3908 15.3896H13.8008C13.8008 15.3896 14.0008 15.8896 14.4708 16.3996H31.6308Z" fill="#AA8420"/>
<path d="M30.1596 17.9597C30.6196 17.7097 30.9996 17.1997 30.9996 17.1997H15.0996C15.0996 17.1997 15.4796 17.6197 15.8596 17.9597H30.1696H30.1596Z" fill="#AA8420"/>
<path d="M28.3091 19.4396C28.7691 19.2596 29.2791 18.8496 29.2791 18.8496H16.8691C16.8691 18.8496 16.8691 18.9396 17.7491 19.4396H28.3091V19.4396Z" fill="#AA8420"/>
<path d="M19.1797 20.3599C19.1797 20.3599 20.4897 21.1199 23.0497 21.1199C25.6097 21.1199 27.2497 20.3599 27.2497 20.3599H19.1797Z" fill="#AA8420"/>
<path d="M18.97 22.0898C18.97 22.0898 20.53 22.1698 21.45 22.8898C22.34 23.6498 23.01 24.9098 23.01 24.9098C23.01 24.9098 23.56 23.6998 24.44 23.0598C25.32 22.3798 26.75 22.0898 26.75 22.0898H42.77L45.92 26.7598H31.53C31.53 26.7598 30.53 26.7998 29.01 27.6898C28.21 28.1498 27.61 28.9498 27.61 28.9498C27.61 28.9498 27.49 29.3298 27.32 29.5398C27.15 29.7498 27.02 29.9298 26.82 29.9998C26.6 30.0898 26.65 30.0398 26.65 30.0398H19.16C19.16 30.0398 18.86 29.9198 18.7 29.6598C18.54 29.4098 18.66 29.4898 18.5 29.2898C18.37 29.0798 18.07 28.5298 16.94 27.7698C15.76 27.0098 14.63 26.9298 14.63 26.9298H0L3.19 22.0998H18.96L18.97 22.0898Z" fill="#003477"/>
<path d="M7.65039 28.6899V52.5899C7.65039 52.5899 7.73039 54.6999 9.50039 57.5499C11.2704 60.4099 13.8304 61.7199 13.8304 61.7199L15.8504 58.5599C15.8504 58.5599 14.0904 57.4999 12.7404 55.4799C11.4304 53.4699 11.4304 51.7399 11.4304 51.7399V28.6899H7.65039V28.6899Z" fill="#003477"/>
<path d="M34.7392 28.5998V51.6498C34.7392 51.6498 34.4492 53.9598 33.3492 55.5998C32.2592 57.2798 30.4492 58.6298 30.4492 58.6298L32.3892 61.7398C32.3892 61.7398 35.3292 59.5998 36.7592 57.3198C38.1892 55.0498 38.5292 51.6398 38.5292 51.6398V28.5898H34.7392V28.5998Z" fill="#003477"/>
<path d="M1.64062 28.6897V52.6697C1.64062 52.6697 1.89062 56.3697 4.20062 60.2397C6.52062 64.1097 10.7206 66.7997 10.7206 66.7997L12.7006 63.6497C12.7006 63.6497 10.0006 62.2197 7.87063 58.9297C5.67062 55.6097 5.55063 52.5797 5.55063 52.5797V28.6797H1.64062V28.6897Z" fill="#003477"/>
<path d="M18.9694 31.21V56.53C18.9694 56.53 18.8794 56.62 18.8494 56.99C18.7994 57.37 18.5594 57.62 18.5594 57.62L10.1094 71.62H36.0194L27.5694 57.32L27.3194 56.69L27.2294 56.02V31.25H24.0794V56.96C24.0794 56.96 24.0794 57.33 24.2094 57.63C24.2894 57.93 24.4594 58.39 24.4594 58.39L29.6794 66.97H16.4694L21.5994 58.43C21.5994 58.43 21.7694 58.14 21.8994 57.71C21.9794 57.33 22.0194 56.96 22.0194 56.96V31.21H18.9894H18.9694Z" fill="#AA8420"/>
<path d="M40.5895 28.5998V52.1598C40.5895 52.1598 40.5595 55.1898 38.3195 58.6698C36.0895 62.1698 33.5195 63.6398 33.5195 63.6398L35.4195 66.8298C35.4195 66.8298 39.2895 64.3898 41.7295 60.5198C44.1295 56.6498 44.4195 52.1498 44.4195 52.1498V28.5898H40.5895V28.5998Z" fill="#003477"/>
<path d="M12.8296 12.83C12.8296 12.83 11.5296 5.72 16.7396 2.18C16.7396 2.18 19.0996 0 22.9196 0C26.9996 0 29.3496 2.14 29.3496 2.14C35.0296 6.3 33.3496 12.83 33.3496 12.83H12.8296Z" fill="#AA8420"/>
<path d="M75.6598 28.74V26.91H66.3798V25.06C69.3398 24.81 71.8198 24.48 73.8098 24.07L72.8598 22.27C69.8498 22.94 65.4298 23.28 59.5798 23.28C58.3498 23.28 57.3198 23.27 56.4798 23.24L57.2098 25.26C58.6498 25.26 61.0098 25.22 64.3098 25.13V26.91H55.2698V28.74H62.0598C60.0798 30.4 57.7598 31.54 55.0898 32.19L56.1398 34.15C57.0198 33.86 57.6398 33.63 58.0098 33.47V42.89H60.0498V41.88H70.8698V42.89H72.9098V33.35C73.1998 33.51 73.5298 33.64 73.8798 33.75C74.2298 33.85 74.5498 33.97 74.8498 34.1L75.8198 32.1C72.6498 31.47 70.2398 30.35 68.5698 28.74H75.6498H75.6598ZM59.3098 32.85C61.3798 31.97 63.0498 30.62 64.3198 28.81V32.85H59.3098ZM60.0798 34.7H70.8898V36.37H60.0798V34.7ZM70.8898 40.06H60.0798V38.13H70.8898V40.06ZM71.8098 32.85H66.3798V28.78C67.7598 30.61 69.5598 31.97 71.8098 32.85Z" fill="#003477"/>
<path d="M99.7092 39.6199C99.5892 40.0699 99.2292 40.2999 98.6092 40.2999H92.0892C91.5792 40.2999 91.3192 40.0399 91.3192 39.5299V38.1199H98.3892V33.6099C99.2692 34.3999 100.379 35.1999 101.729 36.0099L102.679 34.0499C100.309 32.8799 98.8192 31.6999 98.2392 30.5099H102.439V28.6699H98.4792V26.3999H102.099V24.6699H98.4792V22.3799H96.4992V24.6699H92.4992V22.3799H90.4792V24.6699H87.5592V24.9599C86.6892 24.2999 85.6392 23.5699 84.3992 22.7799L82.9492 24.4099C83.9292 25.0199 85.0192 25.8799 86.2292 26.9799L87.5692 25.3099V26.4899H90.4892V28.6899H87.1292V30.5399H90.6492C90.0092 31.9199 88.4692 33.1599 86.0292 34.2599L87.2792 36.0999C88.2592 35.4899 88.9292 35.0199 89.2992 34.7199V39.6399C89.2992 40.6399 89.4792 41.3099 89.8492 41.6799C90.2292 42.0299 90.8892 42.2099 91.8292 42.2099H98.9392C100.069 42.2099 100.819 42.0099 101.209 41.6199C101.609 41.2099 101.919 39.9899 102.159 37.9499L100.049 37.1799C99.9392 38.3299 99.8392 39.1499 99.7192 39.6199H99.7092ZM92.4992 26.5299H96.4992V28.6799H92.4992V26.5299ZM92.9892 30.5299H95.9592C96.3692 31.3099 96.8192 31.9699 97.2992 32.5099H91.6992C92.2392 31.9399 92.6792 31.2799 92.9992 30.5299H92.9892ZM91.3192 34.2399H96.3692V36.3999H91.3192V34.2399V34.2399Z" fill="#003477"/>
<path d="M86.7902 36.0897L84.8802 34.9697C84.4102 37.0497 83.5302 39.0097 82.2402 40.8297L84.0002 42.6297C85.2602 40.6397 86.1902 38.4497 86.7902 36.0797V36.0897Z" fill="#003477"/>
<path d="M86.9196 30.6398C85.7896 29.7798 84.6996 29.0698 83.6696 28.5098L82.3496 30.1598C83.2096 30.7298 84.2396 31.5198 85.4296 32.5298L86.9196 30.6398V30.6398Z" fill="#003477"/>
<path d="M115.369 30.2298V30.0298H118.709V28.1398H115.369V25.0398C116.529 24.8098 117.629 24.4998 118.689 24.1398L117.949 22.3398C115.589 23.2298 112.769 23.7598 109.489 23.9198L109.949 25.7698C111.439 25.6698 112.579 25.5398 113.349 25.3998V28.1498H109.259V30.0398H113.279C112.349 32.4698 110.969 34.7298 109.129 36.8298L110.359 38.7998C111.789 36.9198 112.789 35.2798 113.349 33.8798V42.9098L115.369 42.8198V32.6198C115.769 33.1498 116.159 33.6398 116.539 34.0898C116.979 34.5898 117.419 35.1398 117.859 35.7598L119.089 33.8698C118.249 32.9598 117.019 31.7498 115.369 30.2298V30.2298Z" fill="#003477"/>
<path d="M124.581 31.8299C122.971 30.5999 121.621 29.6999 120.511 29.1299L119.221 30.5999C120.381 31.2899 121.711 32.2599 123.221 33.5199L124.581 31.8299V31.8299Z" fill="#003477"/>
<path d="M125.809 42.91H127.849V36.6L129.829 36.27V34.28L127.849 34.6V22.21H125.809V34.84L118.449 35.95V37.99L125.809 36.87V42.91Z" fill="#003477"/>
<path d="M125 26.5399C123.27 25.2799 121.93 24.3799 120.98 23.8599L119.66 25.3099C120.67 25.9199 121.99 26.8799 123.62 28.1899L125 26.5399V26.5399Z" fill="#003477"/>
<path d="M146.999 30.0597C148.469 35.9597 151.179 40.2097 155.129 42.7997L156.819 40.7797C154.639 39.3397 152.919 37.6397 151.679 35.6797C150.439 33.7197 149.639 31.8397 149.309 30.0597L156.339 30.0797V27.7497H147.019C147.139 26.5997 147.199 24.7597 147.199 22.2397H144.889C144.889 24.5797 144.799 26.4197 144.609 27.7497H136.659V30.0797H144.239C143.889 32.1397 142.969 34.1397 141.489 36.0797C139.999 38.0097 138.209 39.5797 136.129 40.7597L137.799 42.8497C142.719 39.6097 145.679 35.3497 146.649 30.0597H146.999V30.0597Z" fill="#003477"/>
<path d="M69.4102 55.6499H59.7002V48.1699H57.1602V66.7199H59.7002V57.8099H69.4102V66.7199H71.9602V48.1699H69.4102V55.6499Z" fill="#003477"/>
<path d="M95.7197 48.1699H92.3897L83.7297 56.2099V48.1699H81.1797V66.7199H83.7297V58.9699L84.7597 58.0799L92.4397 66.7199H95.8797L86.5397 56.5099L95.7197 48.1699Z" fill="#003477"/>
<path d="M115.009 59.1199C115.009 62.1499 114.009 64.9499 110.079 64.9499C106.149 64.9499 105.149 62.1499 105.149 59.1199V48.1699H102.609V59.9099C102.609 63.9899 105.399 67.1199 110.079 67.1199C114.759 67.1199 117.549 63.9999 117.549 59.9099V48.1699H115.009V59.1199V59.1199Z" fill="#003477"/>
<path d="M133.299 55.7498L131.839 55.2298C130.569 54.7898 128.999 54.0298 128.999 52.5698C128.999 50.9498 130.779 49.9398 132.409 49.9398C133.949 49.9398 134.929 50.5298 135.679 51.6898L137.709 50.5798C136.599 48.7798 134.729 47.7798 132.459 47.7798C129.379 47.7798 126.449 49.5798 126.449 52.5798C126.449 55.1598 128.559 56.3698 130.889 57.2798L132.299 57.8198C134.059 58.4898 135.819 59.3498 135.819 61.3398C135.819 63.3298 134.249 64.9498 132.059 64.9498C129.869 64.9498 128.079 63.4698 128.109 61.4298L125.539 61.9198C125.969 64.8998 128.549 67.1098 131.849 67.1098C135.499 67.1098 138.369 64.6998 138.369 61.3298C138.369 58.2298 136.209 56.7798 133.309 55.7498H133.299Z" fill="#003477"/>
<path d="M144.801 48.1699V50.2899H149.651V66.7199H152.191V50.2899H157.031V48.1699H144.801Z" fill="#003477"/>
</svg>
