<svg width="103" height="105" viewBox="0 0 103 105" fill="none" xmlns="http://www.w3.org/2000/svg">
<path d="M63.7195 73.7801L55.1194 59.4001C55.1194 59.4001 54.8495 59.0701 54.8495 58.5301V31.8701H51.6095V59.3801C51.8795 59.6501 57.2895 68.9101 57.2895 68.9101H43.8694C43.8694 68.9101 49.2795 59.6501 49.5495 59.3801V31.8701H46.3094V58.5301C46.3094 59.0701 46.0395 59.4001 46.0395 59.4001L37.4395 73.7801H63.7195V73.7801Z" fill="#AA8420"/>
<path d="M61.0608 13.21C61.0608 13.21 62.6808 6.49 56.9008 2.09C56.9008 2.09 54.5909 0 50.2009 0C46.2709 0 43.9708 2.09 43.9708 2.09C38.6608 5.8 40.0509 13.21 40.0509 13.21H61.0608V13.21Z" fill="#AA8420"/>
<path d="M40.7008 15.0702H60.4508C60.6008 14.6902 60.7408 14.3102 60.8508 13.9102H40.3008C40.4108 14.3102 40.5408 14.6902 40.7008 15.0702" fill="#AA8420"/>
<path d="M60.13 15.7598H41C41.2 16.1598 41.42 16.5498 41.66 16.9198H59.47C59.71 16.5498 59.93 16.1598 60.13 15.7598" fill="#AA8420"/>
<path d="M42.9601 18.5399H58.1801C58.4601 18.2499 58.7302 17.9399 58.9802 17.6099H42.1602C42.4102 17.9299 42.6801 18.2399 42.9601 18.5399" fill="#AA8420"/>
<path d="M44.6092 19.93H56.5392C56.8492 19.71 57.1592 19.48 57.4392 19.23H43.6992C43.9892 19.48 44.2892 19.71 44.5992 19.93" fill="#AA8420"/>
<path d="M46.2598 20.8599C47.5798 21.4499 49.0398 21.7899 50.5798 21.7899C52.1198 21.7899 53.5797 21.4599 54.8997 20.8599H46.2697H46.2598Z" fill="#AA8420"/>
<path d="M71.0602 22.2998H54.9001C54.9001 22.2998 53.4001 22.2998 52.2101 23.1198C51.2801 23.7498 50.6302 25.2298 50.6002 25.2998C50.5702 25.2298 49.9101 23.7498 48.9901 23.1198C47.7901 22.2998 46.3002 22.2998 46.3002 22.2998H30.1402L26.9102 27.4898H41.7101C41.7101 27.4898 42.1502 27.4898 42.4202 27.5398C42.8602 27.6098 43.6202 27.8498 44.4202 28.4198C45.5202 29.2098 45.8201 29.6198 46.0901 29.8898C46.2201 30.0298 46.5702 30.4898 46.5702 30.4898H54.6501C54.6501 30.4898 55.0002 30.0198 55.1302 29.8898C55.4002 29.6198 55.7102 29.2098 56.8002 28.4198C57.6002 27.8398 58.3602 27.6098 58.8002 27.5398C59.0702 27.4898 59.5102 27.4898 59.5102 27.4898H74.3102L71.0802 22.2998H71.0602Z" fill="#003477"/>
<path d="M28.5 29.0698V53.7398C28.5 54.0098 28.52 54.2498 28.54 54.4698C28.81 57.0798 29.62 58.9998 31.13 61.5398C33.51 65.5198 37.81 68.2898 37.81 68.2898L39.84 65.0398C39.84 65.0398 37.08 63.5698 34.88 60.1898C34.44 59.5098 34 58.8798 33.7 58.2498C33.42 57.6598 33.2 57.1698 33.03 56.6598C32.91 56.2898 32.8 55.9498 32.73 55.6398C32.62 55.1898 32.57 54.8398 32.54 54.4198C32.54 54.2698 32.51 53.6598 32.51 53.6598V29.0698H28.5Z" fill="#003477"/>
<path d="M34.6602 29.0698V53.6598C34.6602 53.6598 34.6602 53.7598 34.6702 53.8598C34.6802 53.9798 34.6901 54.1598 34.7101 54.2998C34.7201 54.3798 34.7402 54.4998 34.7502 54.5598C34.8302 54.9398 34.9102 55.2898 35.0802 55.7898C35.3602 56.6198 35.8502 57.6198 36.5502 58.7698C38.3602 61.7198 40.9901 63.0598 40.9901 63.0598L43.0201 59.8898C43.0201 59.8898 42.3502 59.5198 41.5302 58.7298C40.9902 58.2098 40.3502 57.5298 39.8002 56.6998C39.2602 55.8598 38.9301 55.0198 38.7401 54.3798C38.5801 53.8498 38.5602 53.4198 38.5502 53.1398C38.5502 52.9098 38.5502 52.7898 38.5502 52.7898V29.0698H34.6602Z" fill="#003477"/>
<path d="M72.6701 29.0698V53.7398C72.6701 54.0098 72.6501 54.2498 72.6301 54.4698C72.3601 57.0798 71.5501 58.9998 70.0401 61.5398C67.6601 65.5198 63.3601 68.2898 63.3601 68.2898L61.3301 65.0398C61.3301 65.0398 64.0901 63.5698 66.2901 60.1898C66.7301 59.5098 67.1701 58.8798 67.4701 58.2498C67.7501 57.6598 67.9701 57.1698 68.1401 56.6598C68.2601 56.2898 68.3701 55.9498 68.4401 55.6398C68.5501 55.1898 68.6001 54.8398 68.6301 54.4198C68.6301 54.2698 68.6601 53.6598 68.6601 53.6598V29.0698H72.6701Z" fill="#003477"/>
<path d="M66.5104 29.0698V53.6598C66.5104 53.6598 66.5104 53.7598 66.5004 53.8598C66.4904 53.9798 66.4804 54.1598 66.4604 54.2998C66.4504 54.3798 66.4304 54.4998 66.4204 54.5598C66.3404 54.9398 66.2604 55.2898 66.0904 55.7898C65.8104 56.6198 65.3204 57.6198 64.6204 58.7698C62.8104 61.7198 60.1804 63.0598 60.1804 63.0598L58.1504 59.8898C58.1504 59.8898 58.8204 59.5198 59.6404 58.7298C60.1804 58.2098 60.8204 57.5298 61.3704 56.6998C61.9104 55.8598 62.2404 55.0198 62.4304 54.3798C62.5904 53.8498 62.6104 53.4198 62.6204 53.1398C62.6204 52.9098 62.6204 52.7898 62.6204 52.7898V29.0698H66.5104Z" fill="#003477"/>
<path d="M12.57 92.74H2.61002V85.04H0V104.14H2.61002V94.97H12.57V104.14H15.18V85.04H12.57V92.74Z" fill="#003477"/>
<path d="M39.5604 85.04H36.1404L27.2604 93.32V85.04H24.6504V104.14H27.2604V96.16L28.3104 95.25L36.2004 104.14H39.7204L30.1504 93.63L39.5604 85.04Z" fill="#003477"/>
<path d="M59.3509 96.3098C59.3509 99.4298 58.3209 102.31 54.3009 102.31C50.2809 102.31 49.2408 99.4198 49.2408 96.3098V85.0298H46.6309V97.1198C46.6309 101.32 49.4909 104.54 54.2909 104.54C59.0909 104.54 61.9509 101.32 61.9509 97.1198V85.0298H59.3409V96.3098H59.3509Z" fill="#003477"/>
<path d="M78.1206 92.8399L76.6206 92.3099C75.3106 91.8499 73.7006 91.0699 73.7006 89.5699C73.7006 87.8999 75.5306 86.8599 77.2006 86.8599C78.7806 86.8599 79.7806 87.4699 80.5606 88.6599L82.6406 87.5199C81.5006 85.6699 79.5906 84.6299 77.2506 84.6299C74.0906 84.6299 71.0906 86.4799 71.0906 89.5699C71.0906 92.2299 73.2606 93.4699 75.6406 94.4099L77.0806 94.9699C78.8806 95.6499 80.6906 96.5399 80.6906 98.5899C80.6906 100.64 79.0806 102.31 76.8306 102.31C74.5806 102.31 72.7506 100.79 72.7806 98.6899L70.1406 99.1999C70.5806 102.27 73.2206 104.55 76.6106 104.55C80.3606 104.55 83.3006 102.07 83.3006 98.5999C83.3006 95.4099 81.0806 93.9099 78.1106 92.8499L78.1206 92.8399Z" fill="#003477"/>
<path d="M89.9199 85.04V87.22H94.8899V104.14H97.4899V87.22H102.47V85.04H89.9199Z" fill="#003477"/>
</svg>
