<svg width="220" height="43" viewBox="0 0 220 43" fill="none" xmlns="http://www.w3.org/2000/svg">
<path d="M21.1203 42.4495L16.1903 34.2395C16.1903 34.2395 16.0403 34.0495 16.0403 33.7395V18.5195H14.1803V34.2295C14.3303 34.3795 17.4403 39.6695 17.4403 39.6695H9.75031C9.75031 39.6695 12.8503 34.3795 13.0103 34.2295V18.5195H11.1503V33.7395C11.1503 34.0495 11.0003 34.2395 11.0003 34.2395L6.07031 42.4495H21.1303H21.1203Z" fill="#A88337"/>
<path d="M19.5894 7.87008C19.5894 7.87008 20.5194 4.03008 17.2094 1.52008C17.2094 1.52008 15.8894 0.330078 13.3694 0.330078C11.1194 0.330078 9.79943 1.52008 9.79943 1.52008C6.75943 3.64008 7.54943 7.87008 7.54943 7.87008H19.5894Z" fill="#A88337"/>
<path d="M7.91945 8.92953H19.2395C19.3295 8.71953 19.3995 8.49953 19.4695 8.26953H7.68945C7.74945 8.49953 7.82945 8.71953 7.91945 8.92953" fill="#A88337"/>
<path d="M19.0596 9.32031H8.09961C8.20961 9.55031 8.33961 9.77031 8.47961 9.98031H18.6896C18.8296 9.77031 18.9496 9.55031 19.0696 9.32031" fill="#A88337"/>
<path d="M9.21977 10.9099H17.9398C18.0998 10.7399 18.2598 10.5699 18.3998 10.3799H8.75977C8.89977 10.5599 9.05977 10.7399 9.21977 10.9099Z" fill="#A88337"/>
<path d="M10.1606 11.6998H17.0006C17.1806 11.5798 17.3506 11.4398 17.5206 11.2998H9.64062C9.81063 11.4398 9.98062 11.5698 10.1606 11.6998Z" fill="#A88337"/>
<path d="M11.1096 12.2305C11.8696 12.5705 12.6996 12.7605 13.5796 12.7605C14.4596 12.7605 15.2996 12.5705 16.0496 12.2305H11.0996H11.1096Z" fill="#A88337"/>
<path d="M25.32 13.0596H16.05C16.05 13.0596 15.19 13.0596 14.51 13.5296C13.98 13.8896 13.6 14.7296 13.58 14.7796C13.58 14.7796 13.18 13.8996 12.65 13.5296C11.96 13.0596 11.11 13.0596 11.11 13.0596H1.85L0 16.0196H8.49C8.49 16.0196 8.74 16.0196 8.89 16.0496C9.14 16.0896 9.58 16.2296 10.04 16.5596C10.67 17.0096 10.84 17.2396 11 17.3996C11.08 17.4796 11.28 17.7496 11.28 17.7496H15.91C15.91 17.7496 16.11 17.4796 16.19 17.3996C16.34 17.2396 16.52 17.0096 17.15 16.5596C17.61 16.2296 18.05 16.0996 18.3 16.0496C18.45 16.0196 18.7 16.0196 18.7 16.0196H27.19L25.34 13.0596H25.32Z" fill="#003974"/>
<path d="M0.929688 16.9199V31.0099C0.929688 31.1599 0.939687 31.2999 0.949687 31.4299C1.09969 32.9199 1.56969 34.0199 2.42969 35.4699C3.78969 37.7399 6.25969 39.3299 6.25969 39.3299L7.41969 37.4799C7.41969 37.4799 5.83969 36.6399 4.57969 34.7099C4.32969 34.3199 4.06969 33.9599 3.89969 33.5999C3.73969 33.2599 3.60969 32.9799 3.50969 32.6899C3.43969 32.4799 3.37969 32.2899 3.33969 32.1099C3.27969 31.8499 3.24969 31.6499 3.22969 31.4099C3.22969 31.3199 3.20969 30.9699 3.20969 30.9699V16.9299H0.929688V16.9199Z" fill="#003974"/>
<path d="M4.45945 16.9199V30.9599C4.45945 30.9599 4.45945 31.0199 4.45945 31.0799C4.45945 31.1499 4.46945 31.2499 4.47945 31.3299C4.47945 31.3799 4.49945 31.4399 4.49945 31.4799C4.54945 31.6999 4.58945 31.8999 4.68945 32.1799C4.84945 32.6499 5.12945 33.2199 5.52945 33.8799C6.56945 35.5599 8.06945 36.3299 8.06945 36.3299L9.22945 34.5199C9.22945 34.5199 8.84945 34.3099 8.37945 33.8599C8.06945 33.5599 7.69945 33.1699 7.38945 32.6999C7.07945 32.2199 6.88945 31.7399 6.77945 31.3799C6.68945 31.0799 6.66945 30.8299 6.66945 30.6699C6.66945 30.5399 6.66945 30.4699 6.66945 30.4699V16.9199H4.43945H4.45945Z" fill="#003974"/>
<path d="M26.2498 16.9199V31.0099C26.2498 31.1599 26.2398 31.2999 26.2298 31.4299C26.0798 32.9199 25.6098 34.0199 24.7498 35.4699C23.3898 37.7399 20.9198 39.3299 20.9198 39.3299L19.7598 37.4799C19.7598 37.4799 21.3398 36.6399 22.5998 34.7099C22.8498 34.3199 23.1098 33.9599 23.2798 33.5999C23.4398 33.2599 23.5698 32.9799 23.6698 32.6899C23.7398 32.4799 23.7998 32.2899 23.8398 32.1099C23.8998 31.8499 23.9298 31.6499 23.9498 31.4099C23.9498 31.3199 23.9598 30.9699 23.9598 30.9699V16.9299H26.2598L26.2498 16.9199Z" fill="#003974"/>
<path d="M22.7192 16.9199V30.9599C22.7192 30.9599 22.7192 31.0199 22.7192 31.0799C22.7192 31.1499 22.7092 31.2499 22.6992 31.3299C22.6992 31.3799 22.6792 31.4399 22.6792 31.4799C22.6292 31.6999 22.5892 31.8999 22.4892 32.1799C22.3292 32.6499 22.0492 33.2199 21.6492 33.8799C20.6092 35.5599 19.1092 36.3299 19.1092 36.3299L17.9492 34.5199C17.9492 34.5199 18.3292 34.3099 18.7992 33.8599C19.1092 33.5599 19.4792 33.1699 19.7892 32.6999C20.0992 32.2199 20.2892 31.7399 20.3992 31.3799C20.4892 31.0799 20.5092 30.8299 20.5092 30.6699C20.5092 30.5399 20.5092 30.4699 20.5092 30.4699V16.9199H22.7392H22.7192Z" fill="#003974"/>
<path d="M33.6602 33.2796H36.0202V42.0896H37.2602V33.2796H39.6302V32.1396H33.6602V33.2796Z" fill="#003974"/>
<path d="M40.7305 42.0896H46.0805V40.9596H41.9705V37.1996H45.9605V36.0597H41.9705V33.2796H46.0805V32.1396H40.7305V42.0896Z" fill="#003974"/>
<path d="M47.1914 37.1699C47.1914 40.0499 49.5414 42.2999 52.3814 42.2999C53.2514 42.2999 54.2314 42.0499 54.9914 41.5999V40.1299C54.2514 40.7899 53.3114 41.1599 52.3414 41.1599C50.1214 41.1599 48.4314 39.2999 48.4314 37.1199C48.4314 34.9399 50.1314 33.0499 52.3614 33.0499C53.3014 33.0499 54.2714 33.3899 54.9914 34.0299V32.5899C54.2414 32.1299 53.3514 31.9199 52.4814 31.9199C49.5514 31.9199 47.1914 34.2199 47.1914 37.1599V37.1699Z" fill="#003974"/>
<path d="M62.4702 36.1596H57.7302V32.1396H56.4902V42.0896H57.7302V37.3196H62.4702V42.0896H63.7102V32.1396H62.4702V36.1596Z" fill="#003974"/>
<path d="M72.9915 39.4899L65.5215 31.6699V42.0899H66.7615V34.6799L74.2315 42.4999V32.1399H72.9915V39.4899Z" fill="#003974"/>
<path d="M80.6397 31.9297C77.7897 31.9297 75.4297 34.2697 75.4297 37.1197C75.4297 39.9697 77.7697 42.3097 80.6397 42.3097C83.5097 42.3097 85.8497 40.0797 85.8497 37.1197C85.8497 34.1597 83.4897 31.9297 80.6397 31.9297V31.9297ZM80.6397 41.1397C78.4897 41.1397 76.6697 39.3797 76.6697 37.1197C76.6697 34.8597 78.3097 33.0897 80.6397 33.0897C82.9697 33.0897 84.6097 34.9197 84.6097 37.1197C84.6097 39.3197 82.7897 41.1397 80.6397 41.1397Z" fill="#003974"/>
<path d="M88.4314 32.1396H87.1914V42.0896H91.4514V40.9596H88.4314V32.1396Z" fill="#003974"/>
<path d="M96.9209 31.9297C94.0709 31.9297 91.7109 34.2697 91.7109 37.1197C91.7109 39.9697 94.0509 42.3097 96.9209 42.3097C99.7909 42.3097 102.131 40.0797 102.131 37.1197C102.131 34.1597 99.7709 31.9297 96.9209 31.9297V31.9297ZM96.9209 41.1397C94.7709 41.1397 92.9509 39.3797 92.9509 37.1197C92.9509 34.8597 94.5909 33.0897 96.9209 33.0897C99.2509 33.0897 100.891 34.9197 100.891 37.1197C100.891 39.3197 99.0709 41.1397 96.9209 41.1397Z" fill="#003974"/>
<path d="M108.591 38.2099H111.161C111.111 39.8299 109.451 41.1699 107.901 41.1699C105.751 41.1699 104.031 39.1899 104.031 37.0999C104.031 34.8699 105.771 33.0599 108.001 33.0599C109.211 33.0599 110.421 33.7099 111.131 34.6799L112.001 33.8499C111.021 32.6199 109.491 31.9199 107.951 31.9199C105.091 31.9199 102.791 34.2699 102.791 37.1299C102.791 39.9899 105.031 42.2899 107.821 42.2899C110.611 42.2899 112.531 40.1899 112.531 37.4599V37.0599H108.581V38.1999L108.591 38.2099Z" fill="#003974"/>
<path d="M116.731 36.3896L114.291 32.1396H112.861L116.111 37.7596V42.0896H117.351V37.7596L120.601 32.1396H119.171L116.731 36.3896Z" fill="#003974"/>
<path d="M35.1705 10.4305H36.4105V1.61047H38.7705V0.480469H32.8105V1.61047H35.1705V10.4305Z" fill="#003974"/>
<path d="M41.0213 5.64973H45.7513V10.4297H47.0013V0.469727H45.7513V4.48973H41.0213V0.469727H39.7812V10.4297H41.0213V5.64973Z" fill="#003974"/>
<path d="M54.2699 9.29047H50.1599V5.53047H54.1499V4.40047H50.1599V1.61047H54.2699V0.480469H48.9199V10.4305H54.2699V9.29047Z" fill="#003974"/>
<path d="M61.0115 5.64973H65.7515V10.4297H66.9915V0.469727H65.7515V4.48973H61.0115V0.469727H59.7715V10.4297H61.0115V5.64973Z" fill="#003974"/>
<path d="M73.4307 10.6398C76.3107 10.6398 78.6407 8.40977 78.6407 5.44977C78.6407 2.48977 76.2807 0.259766 73.4307 0.259766C70.5807 0.259766 68.2207 2.59977 68.2207 5.44977C68.2207 8.29977 70.5607 10.6398 73.4307 10.6398ZM73.4307 1.42977C75.7707 1.42977 77.4007 3.25977 77.4007 5.45977C77.4007 7.65977 75.5807 9.47976 73.4307 9.47976C71.2807 9.47976 69.4607 7.71977 69.4607 5.45977C69.4607 3.19977 71.1007 1.42977 73.4307 1.42977V1.42977Z" fill="#003974"/>
<path d="M81.1013 3.01L88.5713 10.84V0.47H87.3313V7.83L79.8613 0V10.43H81.1013V3.01Z" fill="#003974"/>
<path d="M94.831 10.6398C97.621 10.6398 99.541 8.53977 99.541 5.80977V5.40977H95.591V6.54977H98.161C98.111 8.16977 96.451 9.50977 94.901 9.50977C92.751 9.50977 91.031 7.52977 91.031 5.43977C91.031 3.20977 92.771 1.39977 95.001 1.39977C96.211 1.39977 97.421 2.04977 98.131 3.01977L99.001 2.18977C98.021 0.959766 96.491 0.259766 94.951 0.259766C92.091 0.259766 89.791 2.60977 89.791 5.46977C89.791 8.32977 92.031 10.6298 94.821 10.6298L94.831 10.6398Z" fill="#003974"/>
<path d="M106.08 6.27047L106.59 5.79047L110.33 10.4305H112.01L107.46 4.95047L111.93 0.480469H110.31L106.08 4.79047V0.480469H104.84V10.4305H106.08V6.27047Z" fill="#003974"/>
<path d="M117.411 10.6398C120.291 10.6398 122.621 8.40977 122.621 5.44977C122.621 2.48977 120.261 0.259766 117.411 0.259766C114.561 0.259766 112.201 2.59977 112.201 5.44977C112.201 8.29977 114.541 10.6398 117.411 10.6398ZM117.411 1.42977C119.751 1.42977 121.381 3.25977 121.381 5.45977C121.381 7.65977 119.561 9.47976 117.411 9.47976C115.261 9.47976 113.441 7.71977 113.441 5.45977C113.441 3.19977 115.081 1.42977 117.411 1.42977V1.42977Z" fill="#003974"/>
<path d="M125.07 3.01L132.55 10.84V0.47H131.3V7.83L123.83 0V10.43H125.07V3.01Z" fill="#003974"/>
<path d="M138.801 10.6398C141.591 10.6398 143.511 8.53977 143.511 5.80977V5.40977H139.571V6.54977H142.141C142.091 8.16977 140.421 9.50977 138.881 9.50977C136.731 9.50977 135.011 7.52977 135.011 5.43977C135.011 3.20977 136.751 1.39977 138.981 1.39977C140.191 1.39977 141.391 2.04977 142.111 3.01977L142.981 2.18977C142.001 0.959766 140.471 0.259766 138.931 0.259766C136.071 0.259766 133.771 2.60977 133.771 5.46977C133.771 8.32977 136.011 10.6298 138.801 10.6298V10.6398Z" fill="#003974"/>
<path d="M40.8503 16.3096H39.6103V22.1796C39.6103 23.7996 39.1203 25.3096 37.2103 25.3096C35.3003 25.3096 34.8103 23.8096 34.8103 22.1796V16.3096H33.5703V22.6096C33.5703 24.7996 34.9303 26.4796 37.2103 26.4796C39.4903 26.4796 40.8503 24.7996 40.8503 22.6096V16.3096Z" fill="#003974"/>
<path d="M42.7598 15.8301V26.2601H43.9998V18.8401L51.4698 26.6701V16.3101H50.2298V23.6601L42.7598 15.8301Z" fill="#003974"/>
<path d="M55.1209 16.3096H53.8809V26.2596H55.1209V16.3096Z" fill="#003974"/>
<path d="M60.4001 23.6696L57.4401 16.3096H56.0801L60.4001 26.7896L64.7201 16.3096H63.3601L60.4001 23.6696Z" fill="#003974"/>
<path d="M71.0412 17.4396V16.3096H65.7012V26.2596H71.0412V25.1196H66.9412V21.3596H70.9212V20.2296H66.9412V17.4396H71.0412Z" fill="#003974"/>
<path d="M78.9012 26.2596L75.7612 21.9296C77.2012 21.7596 78.1512 20.5696 78.1512 19.1496C78.1512 18.1996 77.6712 17.2596 76.8412 16.7696C76.0512 16.3196 75.1012 16.3096 74.2112 16.3096H72.7012V26.2596H73.9412V22.0496H74.4512L77.3812 26.2596H78.8912H78.9012ZM74.3512 21.0196H73.9512V17.4196H74.2812C75.5112 17.4196 76.9912 17.6396 76.9912 19.1996C76.9912 20.7596 75.6212 21.0196 74.3512 21.0196V21.0196Z" fill="#003974"/>
<path d="M83.4499 20.3698L82.7399 20.0898C82.1199 19.8498 81.3499 19.4398 81.3499 18.6598C81.3499 17.7898 82.2199 17.2498 83.0099 17.2498C83.7999 17.2498 84.2399 17.5698 84.6099 18.1898L85.5999 17.5998C85.0599 16.6398 84.1499 16.0898 83.0399 16.0898C81.5299 16.0898 80.1099 17.0498 80.1099 18.6598C80.1099 20.0498 81.1399 20.6898 82.2699 21.1798L82.9599 21.4698C83.8199 21.8298 84.6799 22.2898 84.6799 23.3598C84.6799 24.4298 83.9199 25.2998 82.8499 25.2998C81.7799 25.2998 80.9099 24.5098 80.9199 23.4098L79.6699 23.6698C79.8799 25.2698 81.1399 26.4598 82.7499 26.4598C84.5299 26.4598 85.9299 25.1698 85.9299 23.3598C85.9299 21.6998 84.8699 20.9198 83.4599 20.3698H83.4499Z" fill="#003974"/>
<path d="M88.7908 16.3096H87.5508V26.2596H88.7908V16.3096Z" fill="#003974"/>
<path d="M93.7406 26.2596V17.4396H96.1106V16.3096H90.1406V17.4396H92.5006V26.2596H93.7406Z" fill="#003974"/>
<path d="M96.5508 16.3096L99.8008 21.9296V26.2596H101.041V21.9296L104.291 16.3096H102.861L100.421 20.5596L97.9808 16.3096H96.5508Z" fill="#003974"/>
<path d="M108.771 21.2798C108.771 24.2398 111.111 26.4698 113.981 26.4698C116.851 26.4698 119.191 24.2398 119.191 21.2798C119.191 18.3198 116.831 16.0898 113.981 16.0898C111.131 16.0898 108.771 18.4298 108.771 21.2798ZM117.961 21.2798C117.961 23.5498 116.141 25.3098 113.991 25.3098C111.841 25.3098 110.021 23.5498 110.021 21.2798C110.021 19.0098 111.661 17.2498 113.991 17.2498C116.321 17.2498 117.961 19.0898 117.961 21.2798Z" fill="#003974"/>
<path d="M125.391 20.2396H121.941V17.4396H125.511V16.3096H120.701V26.2596H121.941V21.3796H125.391V20.2396Z" fill="#003974"/>
<path d="M134.29 25.3096C133.22 25.3096 132.35 24.5196 132.36 23.4196L131.1 23.6796C131.31 25.2796 132.56 26.4696 134.17 26.4696C135.95 26.4696 137.35 25.1796 137.35 23.3696C137.35 21.7096 136.29 20.9296 134.88 20.3796L134.17 20.0996C133.55 19.8596 132.78 19.4496 132.78 18.6696C132.78 17.7996 133.65 17.2596 134.44 17.2596C135.23 17.2596 135.67 17.5796 136.04 18.1996L137.03 17.6096C136.49 16.6496 135.58 16.0996 134.47 16.0996C132.96 16.0996 131.54 17.0596 131.54 18.6696C131.54 20.0596 132.57 20.6996 133.71 21.1896L134.4 21.4796C135.26 21.8396 136.12 22.2996 136.12 23.3696C136.12 24.4396 135.35 25.3096 134.28 25.3096H134.29Z" fill="#003974"/>
<path d="M146.38 25.7698V24.2998C145.64 24.9598 144.7 25.3298 143.73 25.3298C141.51 25.3298 139.82 23.4698 139.82 21.2898C139.82 19.1098 141.52 17.2198 143.75 17.2198C144.69 17.2198 145.66 17.5598 146.38 18.1998V16.7598C145.63 16.2998 144.74 16.0898 143.87 16.0898C140.94 16.0898 138.58 18.3898 138.58 21.3298C138.58 24.2698 140.93 26.4598 143.77 26.4598C144.64 26.4598 145.62 26.2098 146.38 25.7598V25.7698Z" fill="#003974"/>
<path d="M149.65 16.3096H148.41V26.2596H149.65V16.3096Z" fill="#003974"/>
<path d="M157.45 25.1196H153.34V21.3596H157.33V20.2296H153.34V17.4396H157.45V16.3096H152.1V26.2596H157.45V25.1196Z" fill="#003974"/>
<path d="M166.921 23.6601L159.451 15.8301V26.2601H160.701V18.8401L168.161 26.6701V16.3101H166.921V23.6601Z" fill="#003974"/>
<path d="M174.79 26.4698C175.66 26.4698 176.64 26.2198 177.4 25.7698V24.2998C176.66 24.9598 175.72 25.3298 174.75 25.3298C172.53 25.3298 170.84 23.4698 170.84 21.2898C170.84 19.1098 172.54 17.2198 174.77 17.2198C175.71 17.2198 176.68 17.5598 177.4 18.1998V16.7598C176.65 16.2998 175.76 16.0898 174.89 16.0898C171.96 16.0898 169.6 18.3898 169.6 21.3298C169.6 24.2698 171.95 26.4598 174.79 26.4598V26.4698Z" fill="#003974"/>
<path d="M184.541 25.1196H180.441V21.3596H184.431V20.2296H180.441V17.4396H184.541V16.3096H179.201V26.2596H184.541V25.1196Z" fill="#003974"/>
<path d="M192.78 23.7999H197.35L198.49 26.2899H199.82L195.07 15.9199L190.32 26.2899H191.65L192.78 23.7999V23.7999ZM195.06 18.6399L196.83 22.6699H193.29L195.06 18.6399V18.6399Z" fill="#003974"/>
<path d="M202.181 18.8801L209.651 26.7101V16.3501H208.411V23.7001L200.941 15.8701V26.3001H202.181V18.8801Z" fill="#003974"/>
<path d="M219.181 21.2696C219.181 17.9596 216.641 16.3496 213.601 16.3496H211.541V26.2996H213.561C216.701 26.2996 219.181 24.6596 219.181 21.2696ZM212.781 25.1596V17.4796H213.221C215.751 17.4796 217.951 18.4196 217.951 21.3196C217.951 24.2196 215.761 25.1596 213.221 25.1596H212.781Z" fill="#003974"/>
<path d="M135.07 38.2197H137.65C137.6 39.8497 135.93 41.1797 134.38 41.1797C132.22 41.1797 130.5 39.1997 130.5 37.1097C130.5 34.8797 132.25 33.0597 134.48 33.0597C135.7 33.0597 136.9 33.7097 137.61 34.6897L138.48 33.8597C137.5 32.6297 135.97 31.9297 134.42 31.9297C131.55 31.9297 129.25 34.2797 129.25 37.1497C129.25 40.0197 131.5 42.3197 134.29 42.3197C137.08 42.3197 139.01 40.2197 139.01 37.4797V37.0797H135.06V38.2197H135.07Z" fill="#003974"/>
<path d="M146.261 38.0199C146.261 39.6499 145.771 41.1499 143.851 41.1499C141.931 41.1499 141.441 39.6399 141.441 38.0199V32.1299H140.201V38.4399C140.201 40.6399 141.561 42.3199 143.851 42.3199C146.141 42.3199 147.501 40.6399 147.501 38.4399V32.1299H146.261V38.0199Z" fill="#003974"/>
<path d="M148.291 42.1097H149.631L150.771 39.6097H155.351L156.491 42.1097H157.831L153.071 31.7197L148.311 42.1097H148.291ZM151.281 38.4697L153.051 34.4397L154.821 38.4697H151.281V38.4697Z" fill="#003974"/>
<path d="M166.13 39.5002L158.65 31.6602V42.1102H159.89V34.6802L167.37 42.5202V32.1402H166.13V39.5002Z" fill="#003974"/>
<path d="M174.4 38.2197H176.98C176.93 39.8497 175.26 41.1797 173.71 41.1797C171.55 41.1797 169.83 39.1997 169.83 37.1097C169.83 34.8797 171.58 33.0597 173.81 33.0597C175.03 33.0597 176.23 33.7097 176.94 34.6897L177.81 33.8597C176.83 32.6297 175.3 31.9297 173.75 31.9297C170.88 31.9297 168.58 34.2797 168.58 37.1497C168.58 40.0197 170.83 42.3197 173.62 42.3197C176.41 42.3197 178.34 40.2197 178.34 37.4797V37.0797H174.39V38.2197H174.4Z" fill="#003974"/>
<path d="M179.591 32.1396V33.2796H183.921L178.871 42.1096H185.951V40.9697H180.901L185.951 32.1396H179.591Z" fill="#003974"/>
<path d="M193.011 36.1596H188.261V32.1396H187.021V42.1096H188.261V37.3196H193.011V42.1096H194.251V32.1396H193.011V36.1596Z" fill="#003974"/>
<path d="M200.7 31.9297C197.84 31.9297 195.48 34.2697 195.48 37.1297C195.48 39.9897 197.82 42.3297 200.7 42.3297C203.58 42.3297 205.92 40.0997 205.92 37.1297C205.92 34.1597 203.55 31.9297 200.7 31.9297V31.9297ZM200.7 41.1597C198.54 41.1597 196.72 39.3997 196.72 37.1297C196.72 34.8597 198.36 33.0997 200.7 33.0997C203.04 33.0997 204.68 34.9397 204.68 37.1297C204.68 39.3197 202.86 41.1597 200.7 41.1597Z" fill="#003974"/>
<path d="M213.13 38.0199C213.13 39.6499 212.64 41.1499 210.72 41.1499C208.8 41.1499 208.31 39.6399 208.31 38.0199V32.1299H207.07V38.4399C207.07 40.6399 208.43 42.3199 210.72 42.3199C213.01 42.3199 214.37 40.6399 214.37 38.4399V32.1299H213.13V38.0199Z" fill="#003974"/>
<path d="M127.671 31.2197H126.761C126.431 31.6497 126.071 32.2297 125.691 32.9497C124.981 34.3097 124.621 35.6797 124.621 37.0797C124.621 38.0997 124.821 39.1297 125.211 40.1797C125.621 41.2297 126.131 42.1597 126.741 42.9897H127.651C126.521 40.9597 125.961 39.0097 125.961 37.1197C125.961 35.9397 126.141 34.8097 126.511 33.7297C126.741 33.0797 127.121 32.2497 127.661 31.2297L127.671 31.2197Z" fill="#003974"/>
<path d="M219.071 34.0397C218.671 32.9697 218.161 32.0297 217.551 31.2197H216.641C217.771 33.2497 218.331 35.1997 218.331 37.0897C218.331 38.2697 218.151 39.4097 217.781 40.4997C217.551 41.1497 217.171 41.9697 216.631 42.9897H217.541C217.901 42.5097 218.251 41.9297 218.611 41.2597C219.321 39.8997 219.681 38.5197 219.681 37.1297C219.681 36.1297 219.481 35.0997 219.081 34.0397H219.071Z" fill="#003974"/>
</svg>
