<svg width="170" height="189" viewBox="0 0 170 189" fill="none" xmlns="http://www.w3.org/2000/svg">
<path d="M101.795 153.926C97.874 148.962 91.8671 145.708 85.026 145.708C78.1849 145.708 72.0529 149.003 68.1734 154.051L41.1843 138.575C42.1437 136.197 42.686 133.611 42.686 130.858C42.686 120.095 34.6351 111.335 24.2482 109.917V78.2143C34.6768 76.796 42.686 67.9943 42.686 57.2737C42.686 54.4789 42.102 51.8091 41.1009 49.3897L68.0066 33.9137C71.886 39.0863 78.018 42.4651 85.026 42.4651C92.034 42.4651 98.0408 39.128 101.962 33.9971L128.659 49.348C127.616 51.8509 127.032 54.5623 127.032 57.4406C127.032 68.2446 135.125 77.0463 145.595 78.3811V110.084C135.125 111.461 127.032 120.262 127.032 131.025C127.032 133.736 127.575 136.281 128.492 138.617L101.753 153.926H101.795ZM151.101 110.084V78.3811C161.572 77.0046 169.706 68.2029 169.706 57.4406C169.706 45.7189 160.153 36.208 148.39 36.208C141.465 36.208 135.375 39.5451 131.496 44.6343L104.799 29.2834C105.841 26.7806 106.425 24.0691 106.425 21.2326C106.425 9.51086 96.8729 0 85.1094 0C73.346 0 63.7934 9.51086 63.7934 21.2326C63.7934 24.0691 64.3774 26.7389 65.3785 29.2L38.4728 44.6343C34.5934 39.4617 28.4197 36.0829 21.4534 36.0829C9.64825 36.0829 0.0957031 45.5937 0.0957031 57.3154C0.0957031 68.1611 8.27169 76.9629 18.7837 78.2977V109.959C8.27169 111.252 0.0957031 120.095 0.0957031 130.899C0.0957031 142.621 9.64825 152.09 21.4534 152.09C28.5031 152.09 34.7603 148.628 38.6397 143.33L65.4203 158.681C64.3357 161.184 63.7517 163.979 63.7517 166.857C63.7517 178.579 73.3043 188.09 85.0677 188.09C96.8311 188.09 106.384 178.579 106.384 166.857C106.384 163.937 105.758 161.101 104.673 158.556L131.162 143.414C135.041 148.711 141.299 152.215 148.39 152.215C160.153 152.215 169.706 142.746 169.706 131.025C169.706 120.221 161.572 111.419 151.101 110.084Z" fill="#009259"/>
</svg>
