<svg width="220" height="146" viewBox="0 0 220 146" fill="none" xmlns="http://www.w3.org/2000/svg">
<path d="M153.534 112.067L143.689 96.1326L179.647 104.392C179.731 105.518 179.856 106.603 180.106 107.646L153.534 112.067ZM104.937 120.16C103.727 117.741 101.892 115.78 99.5557 114.403L108.065 87.9566L142.355 95.8406L152.491 112.234L104.895 120.16H104.937ZM55.6305 120.202C55.6305 119.951 55.7974 119.701 55.7974 119.409C55.7974 114.57 51.8763 110.649 47.0374 110.649C46.078 110.649 45.1603 110.899 44.2843 111.191L20.09 76.4018C20.7157 75.8595 21.258 75.2755 21.7585 74.608L83.1203 116.406C81.118 118.366 79.6997 120.953 79.1991 123.831L55.5888 120.202H55.6305ZM54.546 27.1789C57.4243 30.3075 61.5122 32.3098 66.1008 32.3098C66.6848 32.3098 67.2271 32.1846 67.7694 32.1429L73.6928 54.9606L23.6357 63.6789C22.9265 61.4263 21.5917 59.4658 19.798 58.0058L54.546 27.1372V27.1789ZM94.9671 52.8332C95.8014 63.0115 102.559 71.4795 111.82 74.7749L107.94 86.9138L81.41 80.8235L75.0277 56.3372L94.9671 52.8749V52.8332ZM182.233 92.8789C180.523 95.8406 179.48 99.2195 179.48 102.89C179.48 103.057 179.48 103.182 179.522 103.349L142.939 94.9646L130.216 74.3995C132.427 73.4818 134.387 72.2303 136.223 70.7703L182.233 92.8789ZM129.298 74.6915L141.645 94.6726L108.357 87.0389L112.237 74.9418C114.823 75.8178 117.535 76.4018 120.413 76.4018C123.541 76.4018 126.503 75.776 129.298 74.7332V74.6915ZM92.7145 112.526C91.6717 112.526 90.7123 112.651 89.7528 112.86L81.702 81.908L107.648 87.8732L99.1803 114.195C97.2614 113.152 95.0505 112.485 92.7145 112.485V112.526ZM24.0945 68.6846L80.6174 81.6578L88.7934 113.11C86.7911 113.694 84.9974 114.737 83.4957 116.072L22.0505 74.2326C23.1768 72.6058 23.886 70.7286 24.0945 68.6429V68.6846ZM24.178 67.6418C24.178 67.6418 24.178 67.4332 24.178 67.308C24.178 66.5989 24.0945 65.8898 23.9694 65.1806L74.0265 56.4206L80.2837 80.4898L24.1362 67.6L24.178 67.6418ZM199.712 82.6172C192.579 82.6172 186.363 86.3297 182.734 91.8778L137.14 69.9777C142.563 65.264 146.067 58.4229 146.067 50.664C146.067 36.4812 134.596 25.0098 120.413 25.0098C106.23 25.0098 94.7585 36.4812 94.7585 50.664C94.7585 50.8726 94.8002 51.0395 94.8002 51.248L74.6105 54.752L68.6871 31.976C76.1123 30.7246 81.7437 24.3006 81.7437 16.5418C81.7437 7.86518 74.7357 0.857178 66.0591 0.857178C57.3825 0.857178 50.3328 7.90689 50.3328 16.5418C50.3328 20.2126 51.6677 23.5498 53.7951 26.2612L18.8803 57.2549C16.9614 55.9618 14.6254 55.2109 12.1225 55.2109C5.44825 55.2109 0.0253906 60.6338 0.0253906 67.308C0.0253906 73.9823 5.44825 79.4052 12.1225 79.4052C14.7922 79.4052 17.2117 78.5292 19.214 77.0692L43.1997 111.525C40.2797 112.943 38.2357 115.905 38.2357 119.367C38.2357 124.206 42.1568 128.127 46.9957 128.127C51.1671 128.127 54.5043 125.124 55.3803 121.245L79.1157 124.874C79.1157 125.291 78.9905 125.708 78.9905 126.125C78.9905 133.675 85.1225 139.807 92.6728 139.807C100.223 139.807 106.355 133.675 106.355 126.125C106.355 124.331 105.98 122.663 105.354 121.119L153.075 113.194L159.666 123.831C156.663 125.958 154.702 129.421 154.702 133.342C154.702 139.807 159.916 145.022 166.382 145.022C172.848 145.022 178.062 139.766 178.062 133.342C178.062 126.918 172.848 121.662 166.382 121.662C164.213 121.662 162.211 122.287 160.459 123.33L154.076 113.027L180.356 108.647C182.859 116.99 190.493 123.08 199.628 123.08C210.808 123.08 219.86 114.028 219.86 102.849C219.86 91.6692 210.808 82.6172 199.628 82.6172" fill="#E60020"/>
</svg>
