<svg width="180" height="186" viewBox="0 0 180 186" fill="none" xmlns="http://www.w3.org/2000/svg">
<path d="M39.8509 167.227C41.6029 168.562 42.9795 169.605 44.1475 170.481C42.9378 169.563 41.6864 168.603 39.8509 167.227Z" fill="#841B45"/>
<path d="M52.3226 175.654C49.1106 173.693 47.3168 172.65 45.106 171.149C47.0665 172.484 48.902 173.61 52.3226 175.654Z" fill="#841B45"/>
<path d="M56.4959 177.822C55.5365 177.28 54.3249 176.697 52.3226 175.654C54.158 176.655 55.2028 177.197 56.4959 177.822Z" fill="#841B45"/>
<path d="M63.2488 180.742C63.0402 180.659 62.8734 180.617 62.6231 180.492C62.0808 180.325 61.5802 180.117 60.871 179.825L63.207 180.784L63.2488 180.742Z" fill="#841B45"/>
<path d="M11.4005 64.4016C12.1931 62.1073 13.1525 59.7296 14.2788 57.1433C13.2777 59.3541 12.3182 61.8153 11.4005 64.4016Z" fill="#841B45"/>
<path d="M11.4005 64.4016C10.5245 66.8627 9.81731 69.1987 9.23331 71.4095C9.90074 68.865 10.6079 66.5707 11.4005 64.4016Z" fill="#841B45"/>
<path d="M17.3643 50.5941C17.8232 49.7181 18.2821 48.9673 18.8244 48.1747C18.8661 48.0496 18.9495 47.9244 19.0329 47.7576L17.3643 50.5941Z" fill="#841B45"/>
<path d="M19.2441 47.2152C19.2441 47.2152 19.0772 47.549 18.9938 47.7575L19.6196 46.673C19.6196 46.673 19.3275 47.0901 19.2441 47.2152Z" fill="#841B45"/>
<path d="M14.6914 134.648C13.3565 131.436 12.5222 129.392 11.9382 127.849C12.8559 130.56 13.3982 131.687 14.6914 134.648Z" fill="#841B45"/>
<path d="M14.8598 135.066C14.8598 135.066 14.9849 135.316 15.0683 135.441C14.9432 135.149 14.8599 134.899 14.6513 134.607L14.8598 135.066Z" fill="#841B45"/>
<path d="M11.9014 127.849C11.3591 126.306 10.6917 124.178 9.64883 120.966C10.5248 124.011 10.942 125.346 11.9014 127.849Z" fill="#841B45"/>
<path d="M128.41 177.948C125.865 179.116 124.28 179.783 122.945 180.284C124.531 179.741 125.991 179.074 128.41 177.948Z" fill="#841B45"/>
<path d="M136.205 173.609C133.702 175.153 131.282 176.446 128.404 177.989C131.574 176.404 134.036 175.028 136.205 173.609Z" fill="#841B45"/>
<path d="M22.7067 41.8756C22.7067 41.8756 23.0404 41.4584 23.2072 41.2081C22.957 41.5418 22.7067 41.8756 22.4564 42.2093L22.7484 41.8756H22.7067Z" fill="#841B45"/>
<path d="M160.361 151.584C160.361 151.584 160.111 151.876 160.028 152.001C159.819 152.251 159.652 152.502 159.527 152.71C159.777 152.335 160.153 151.918 160.403 151.542" fill="#841B45"/>
<path d="M168.575 138.486C168.45 138.736 168.325 139.028 168.158 139.32C168.116 139.446 168.074 139.529 168.033 139.654C168.2 139.279 168.366 138.903 168.575 138.486Z" fill="#841B45"/>
<path d="M163.694 146.954L164.445 145.786C164.612 145.536 164.695 145.286 164.904 145.036C164.32 145.953 163.819 146.746 163.193 147.538C163.402 147.33 163.569 147.163 163.694 146.954Z" fill="#841B45"/>
<path d="M122.897 180.284C121.437 180.868 119.894 181.452 117.308 182.286C119.894 181.452 121.27 180.951 122.897 180.284Z" fill="#841B45"/>
<path d="M60.9176 179.783C58.8319 178.907 57.6222 178.281 56.4959 177.822C57.9559 178.531 58.8736 178.949 60.9176 179.783Z" fill="#841B45"/>
<path d="M145.303 23.3961C146.012 23.9383 146.638 24.5641 147.347 25.2315C147.722 25.4818 148.139 25.8155 148.431 26.0658L145.261 23.3961H145.303Z" fill="#841B45"/>
<path d="M149.555 27.1092C150.681 28.1938 151.891 29.2783 152.892 30.2795C151.473 28.8612 150.597 28.0269 149.555 27.1092Z" fill="#841B45"/>
<path d="M163.364 43.2938C165.033 45.9218 166.993 49.3007 168.579 52.2207C167.077 49.2173 165.784 47.0064 163.364 43.2938Z" fill="#841B45"/>
<path d="M143.342 22.4792C143.342 22.4792 143.175 22.354 143.133 22.3123C143.008 22.2289 142.883 22.1872 142.841 22.1454C143.05 22.3123 143.3 22.4374 143.509 22.6043L143.384 22.4792" fill="#841B45"/>
<path d="M145.298 23.3959C143.505 22.0194 142.17 20.9765 140.918 20.1422C142.128 21.0182 143.421 22.0194 145.298 23.3959Z" fill="#841B45"/>
<path d="M128.575 12.7597C129.576 13.2603 130.786 13.886 132.83 14.9706C130.911 13.9277 129.91 13.3854 128.575 12.7597Z" fill="#841B45"/>
<path d="M124.282 10.84C126.367 11.716 127.616 12.2592 128.575 12.7597C127.199 12.0923 126.284 11.6326 124.282 10.84Z" fill="#841B45"/>
<path d="M136.038 16.8894L136.831 17.39C136.581 17.2231 136.289 17.0563 136.038 16.8894Z" fill="#841B45"/>
<path d="M135.036 16.2631C135.412 16.4716 135.705 16.6808 136.038 16.8894C135.705 16.6808 135.37 16.4716 135.036 16.2631Z" fill="#841B45"/>
<path d="M136.877 17.3894C138.004 18.0986 139.005 18.7243 140.048 19.5169C139.047 18.8077 138.045 18.1403 136.877 17.3894Z" fill="#841B45"/>
<path d="M132.869 14.9697C133.661 15.4703 134.41 15.8876 135.036 16.2631C134.369 15.8459 133.661 15.4285 132.869 14.9697Z" fill="#841B45"/>
<path d="M133.618 16.5554C133.618 16.5554 133.785 16.6388 133.911 16.7222C134.077 16.7222 134.203 16.8474 134.328 16.8891C134.077 16.7639 133.869 16.6805 133.618 16.5554Z" fill="#841B45"/>
<path d="M23.54 40.7074C23.54 40.7074 23.707 40.4989 23.7904 40.3737C24.1241 39.9149 24.4578 39.4977 24.7915 38.9972C24.3744 39.5812 23.9989 40.1234 23.5818 40.6657" fill="#841B45"/>
<path d="M64.6677 9.58898C70.3825 7.6284 77.3489 5.79298 85.8169 5.8764C78.2666 5.75126 71.7174 7.0444 64.6677 9.58898Z" fill="#841B45"/>
<path d="M23.2072 41.2081C23.2072 41.2081 23.3312 41.042 23.3729 41.0003L23.4562 40.8751C23.4562 40.8751 23.2477 41.0837 23.206 41.2505" fill="#841B45"/>
<path d="M60.203 11.2163C61.7464 10.5905 63.2077 10.1313 64.6677 9.58898C63.0825 10.1313 61.5795 10.674 60.203 11.2163Z" fill="#841B45"/>
<path d="M121.194 9.5894C121.861 9.83968 122.863 10.2143 124.282 10.84C122.947 10.256 122.32 10.0483 121.194 9.5894Z" fill="#841B45"/>
<path d="M29.4631 157.258C32.1745 160.344 35.4282 163.556 39.8499 167.186C36.4294 164.182 33.0505 161.262 29.4631 157.258Z" fill="#841B45"/>
<path d="M60.04 11.2576C60.04 11.2576 60.0401 11.2576 60.1235 11.2576C60.1235 11.2576 60.1235 11.2576 60.2069 11.2576C60.1235 11.2576 60.0817 11.2576 60.04 11.2993" fill="#841B45"/>
<path d="M26.1214 37.329C25.6626 37.913 25.2871 38.497 24.7866 39.0393C25.0368 38.789 25.2037 38.5387 25.4122 38.2884C25.7042 37.9547 25.9129 37.6627 26.1214 37.329Z" fill="#841B45"/>
<path d="M58.7853 11.7581C60.4122 11.0489 61.6636 10.5066 62.6647 10.1312C61.455 10.5901 60.287 11.0489 58.7853 11.7581Z" fill="#841B45"/>
<path d="M58.2476 11.9662C58.2476 11.9662 58.4562 11.9245 58.5396 11.8827C58.6231 11.7993 58.7065 11.7993 58.7899 11.7576C58.6231 11.7993 58.4979 11.8827 58.2476 11.9662Z" fill="#841B45"/>
<path d="M54.0762 14.0943C54.4099 13.9275 54.7854 13.7606 55.1608 13.5521C55.1191 13.5521 55.0774 13.5938 55.0356 13.5938C54.7019 13.7606 54.4099 13.9275 54.0762 14.0943Z" fill="#841B45"/>
<path d="M62.6227 10.1314C64.041 9.63087 65.5426 9.04687 67.8786 8.29601C65.9181 8.88001 64.6667 9.33887 62.6227 10.1314Z" fill="#841B45"/>
<path d="M67.8786 8.29601C69.7141 7.75372 70.8812 7.41993 71.7989 7.16964C70.464 7.50336 69.6306 7.75372 67.8786 8.29601Z" fill="#841B45"/>
<path d="M71.8047 7.16977C72.7225 6.91948 73.8905 6.66919 75.7677 6.25205C73.9739 6.62748 73.223 6.83605 71.8047 7.16977Z" fill="#841B45"/>
<path d="M26.4975 36.8701C26.4975 36.8701 26.7478 36.5781 26.8729 36.453C27.1649 36.0358 27.4987 35.6187 27.8324 35.2015C27.3735 35.7021 26.9981 36.2444 26.4975 36.8701Z" fill="#841B45"/>
<path d="M75.7236 6.20977C77.0585 5.95948 78.0179 5.79262 78.6019 5.66748C77.559 5.87605 77.0167 5.95948 75.7236 6.20977Z" fill="#841B45"/>
<path d="M40.0162 23.2297C39.4322 23.772 38.8065 24.3143 38.1807 24.8565C41.8516 21.728 46.1899 18.5577 51.3207 15.5543C47.9419 17.5148 44.6465 19.6005 40.0162 23.2297Z" fill="#841B45"/>
<path d="M81.6874 5.20895C82.8972 5.08381 83.648 5.00038 84.1903 4.95866C83.2309 5.04209 82.772 5.08381 81.6874 5.20895Z" fill="#841B45"/>
<path d="M110.969 6.54332C111.428 6.66846 112.053 6.7936 113.055 7.0856C112.179 6.83532 111.803 6.75189 110.969 6.54332Z" fill="#841B45"/>
<path d="M115.556 7.75319C116.056 7.92005 116.849 8.17034 118.059 8.54577C116.932 8.17034 116.557 8.04519 115.556 7.75319Z" fill="#841B45"/>
<path d="M113.055 7.0856C114.264 7.3776 115.014 7.58634 115.556 7.75319C114.555 7.46119 114.181 7.33589 113.055 7.0856Z" fill="#841B45"/>
<path d="M118.065 8.54654C119.567 9.04711 120.443 9.33911 121.194 9.5894C119.984 9.13054 119.442 8.96368 118.065 8.54654Z" fill="#841B45"/>
<path d="M84.1887 4.9167C84.8144 4.9167 85.4401 4.79156 86.5664 4.70813C85.5236 4.79156 85.1064 4.79156 84.1887 4.9167Z" fill="#841B45"/>
<path d="M78.6403 5.66805C79.3912 5.54291 80.2672 5.41777 81.7272 5.20919C80.3923 5.37605 79.9335 5.45948 78.6403 5.66805Z" fill="#841B45"/>
<path d="M140.546 150.124C138.419 152.085 137.001 154.588 136.208 157.132C131.035 157.842 125.279 158.342 119.064 158.592C118.438 151.251 112.64 145.452 105.465 145.452C103.88 145.452 102.378 145.786 100.96 146.328C98.8738 142.449 96.7881 138.57 94.7024 134.69C98.7487 131.311 101.377 126.139 101.377 120.257C101.377 114.918 99.1658 110.12 95.7453 106.742C100.209 100.109 104.171 93.8518 107.759 87.7615C109.177 88.3038 110.721 88.6375 112.347 88.6375C119.189 88.6375 124.82 83.2981 125.821 76.3318C132.078 76.0815 137.877 75.6227 143.049 74.9135C143.091 75.0387 143.133 75.1221 143.174 75.2472C146.261 81.7964 152.977 85.1752 158.108 82.8392C161.487 88.5124 164.449 94.4775 166.785 100.985C164.741 102.528 163.072 105.073 162.196 108.285C160.528 114.375 162.28 120.716 166.117 123.344C161.362 134.273 156.314 142.282 152.351 147.538C149.098 145.744 144.468 146.579 140.588 150.166L140.546 150.124ZM112.514 172.191C115.852 170.064 118.271 166.56 118.98 162.347C125.07 162.055 130.618 161.554 135.582 160.803C135.541 162.138 135.749 163.348 136.166 164.516C130.368 169.688 122.86 175.695 112.014 181.035C112.765 179.074 113.557 176.863 112.514 172.15V172.191ZM69.2567 145.286C70.7167 143.158 72.5938 140.405 75.3887 136.4C77.8915 137.819 80.728 138.736 83.7732 138.736C86.0257 138.736 88.1115 138.278 90.0721 137.443C91.6572 140.363 93.7429 144.159 96.4126 149.04C93.9514 151.334 92.3246 154.463 91.9075 158.05C85.6086 157.633 79.4766 157.007 73.4697 156.215C73.4697 156.006 73.5115 155.839 73.5115 155.672C73.5115 151.584 71.8429 147.872 69.2149 145.244L69.2567 145.286ZM55.9916 175.487C50.527 171.566 42.6847 165.851 33.299 154.254C34.1333 153.462 34.8007 152.46 35.2178 151.251C38.5549 152.46 42.1841 153.628 46.1469 154.713C46.1469 155.005 46.0635 155.339 46.0635 155.631C46.0635 161.387 49.3172 166.31 53.9475 168.646C53.9892 170.94 54.5316 173.234 55.9916 175.487ZM11.0652 108.16C14.4441 107.2 17.2807 103.53 18.1567 98.5238C19.1578 92.8089 17.2389 87.1775 13.8184 84.5912C15.8624 80.3781 18.9909 75.4141 23.4543 69.7409C23.6629 69.9078 23.7881 70.0747 23.9966 70.2415C29.0858 73.7038 36.2607 71.5347 40.4738 65.4861C43.6858 66.6124 47.3567 67.6969 51.6532 68.7815C51.8618 76.5404 57.9104 82.7558 65.3355 82.7558C65.6275 82.7558 65.8777 82.6724 66.1697 82.6724C67.8383 88.3038 70.2578 95.3118 74.1789 104.614C69.3401 107.91 66.1697 113.624 66.1697 120.09C66.1697 125.054 68.0469 129.518 71.0504 132.813C68.5475 136.526 66.5035 139.571 64.835 142.199C63.2915 141.573 61.6229 141.198 59.9126 141.198C53.8223 141.198 48.7332 145.411 46.9395 151.167C42.9766 150.166 39.3475 149.04 35.9686 147.914C36.0521 145.911 35.8852 143.826 35.0092 141.615C32.4646 135.191 26.4578 131.228 21.6189 132.688C21.0349 132.855 20.6595 133.314 20.1589 133.647C16.488 126.514 13.276 118.255 11.1903 108.202L11.0652 108.16ZM18.9075 48.6752C18.8241 50.3855 19.116 52.0541 20.576 54.0147C18.6155 58.7284 18.9909 63.7758 21.3269 67.3632C17.5726 72.1187 14.2772 77.2912 11.6075 83.3815C10.8149 83.1312 9.9807 83.0895 9.18813 83.1729C9.73041 73.9541 11.4406 62.8581 18.8657 48.6752H18.9075ZM57.7017 38.9975C58.9114 40.2072 60.3715 41.0415 61.9149 41.5004C61.2892 45.0461 60.9972 49.3427 61.2475 54.6821C57.2012 56.0169 53.9892 59.2707 52.5292 63.4421C49.3589 62.6078 46.1887 61.6067 42.935 60.5221C44.0613 56.7678 43.811 52.9301 42.2675 49.8849C45.9384 46.5478 50.4852 42.6267 56.7424 37.7461C57.0344 38.1632 57.3263 38.6221 57.7017 38.9975ZM85.8173 11.0489C85.9007 12.2587 86.1927 13.4684 86.735 14.5947C84.2738 16.0964 81.4373 17.8484 78.1418 19.9341C77.7664 19.3084 77.3075 18.7244 76.807 18.1821C76.5984 17.9735 76.3898 17.8484 76.1813 17.6815C78.5173 15.2621 81.604 12.9261 85.8589 11.0072L85.8173 11.0489ZM140.004 19.9758C138.085 18.7661 136.125 17.6398 134.081 16.5969C128.991 14.3861 122.776 11.7998 112.222 9.63066C112.181 9.42208 112.139 9.1718 112.055 8.96323C112.222 8.96323 112.348 8.96323 112.514 9.04666C112.348 9.04666 112.222 9.00494 112.055 8.96323C112.014 8.79637 111.972 8.62951 111.93 8.46266C121.9 10.1312 129.993 13.3849 140.046 19.9758H140.004ZM116.227 20.4764C115.893 20.6432 115.518 20.7267 115.184 20.9352C114.433 21.3941 113.766 21.9781 113.182 22.6038C111.722 21.0604 110.429 19.7255 109.344 18.5992C110.429 17.5981 111.263 16.3467 111.805 15.0118C113.349 16.5135 114.892 18.2238 116.185 20.4764H116.227ZM97.8726 22.0198C101.835 22.4787 105.506 21.4775 108.176 19.5169C109.302 20.8518 110.554 22.3118 112.055 24.0221C109.344 28.1101 109.219 34.2004 112.139 39.4981C113.974 42.8352 116.686 45.1712 119.606 46.3809C118.938 50.1769 117.729 54.7238 115.685 60.1049C114.642 59.8547 113.599 59.6461 112.473 59.6461C106.09 59.6461 100.751 64.2764 99.2075 70.4918C92.3246 70.0747 85.6086 69.4072 79.1012 68.5312C79.1012 68.4478 79.1012 68.3644 79.1012 68.2809C79.1012 60.3552 73.011 53.9729 65.5024 53.8895C65.2104 50.1352 65.1687 46.0472 65.5858 41.8341C69.0481 41.6672 72.6355 40.0404 75.4721 36.9535C79.6852 32.3649 80.8532 26.0661 78.7675 21.3107C81.2287 19.5587 83.9817 17.6398 87.152 15.4707C89.1543 18.8495 93.0338 21.4358 97.7892 22.0198H97.8726ZM83.8149 101.527C82.2298 101.527 80.6863 101.819 79.2263 102.236C76.0143 94.8529 73.4281 88.1369 71.2173 81.2541C74.3041 79.7107 76.7235 77.0827 78.0583 73.7455C84.6075 74.6632 91.115 75.3307 98.8738 75.7895C99.291 79.2518 100.834 82.3387 103.212 84.5912C100.167 89.6387 96.9133 94.6861 91.1567 103.196C88.9041 102.111 86.4429 101.486 83.8149 101.486V101.527ZM125.779 70.8672C124.987 67.1964 122.901 64.0261 120.023 62.0238C121.566 57.6021 122.86 52.6381 123.485 47.1735C125.362 47.2569 127.239 46.8815 128.908 45.8387C129.367 45.5467 129.784 45.1712 130.201 44.8375C134.456 49.8432 139.086 55.4329 143.758 61.5232C142.215 63.6089 141.547 66.4872 141.798 69.5324C137.501 70.1581 132.454 70.6169 125.779 70.9089V70.8672ZM173.125 99.4415C172.041 99.1495 170.956 99.1078 169.913 99.3581C168.286 94.3524 165.825 88.4289 161.07 80.3781C163.197 77.7918 163.948 73.8707 163.03 69.8244C163.364 69.6992 163.739 69.5741 164.073 69.4072C166.284 72.8278 169.621 74.9552 172.833 74.5381C173.083 74.5381 173.25 74.2878 173.501 74.2461C174.502 80.8787 174.794 88.9295 173.167 99.4415H173.125ZM178.548 104.781C178.673 103.822 178.798 102.987 178.923 101.986C178.84 102.862 178.673 103.863 178.548 104.781C177.714 102.779 176.462 101.194 174.877 100.234C176.004 92.4752 176.254 83.7569 174.627 73.7455C175.294 73.4118 175.878 72.9947 176.421 72.3689C177.088 75.5809 177.547 77.6667 177.881 79.2935C177.463 76.5404 177.13 75.2889 176.421 72.3689C178.423 70.1164 179.341 66.4455 178.34 62.3575C177.005 56.8929 173 52.8049 168.954 52.4712C168.87 52.3461 168.829 52.2209 168.745 52.0958C168.787 52.2209 168.87 52.3461 168.912 52.4712C168.62 52.4712 168.37 52.4712 168.078 52.4712C164.866 45.7552 160.611 38.1215 151.434 28.8609C155.981 33.1575 160.069 37.9547 163.531 43.1689C160.027 37.9129 156.022 33.1575 151.434 28.8192C148.973 26.5667 146.345 24.4392 143.633 22.4787C149.557 27.4427 159.86 36.3278 167.243 52.5964C163.03 53.4724 160.694 58.6032 162.029 64.4432C161.737 64.5684 161.362 64.7352 161.028 64.8604C157.649 59.3958 151.684 56.7261 147.012 58.8952C146.762 59.0204 146.595 59.1872 146.386 59.3124C142.924 54.9741 138.586 49.8015 132.162 42.7518C134.831 38.6638 134.915 32.6152 132.037 27.3592C128.741 21.4358 122.734 18.5158 117.645 19.9758C116.185 17.9735 114.475 15.9712 112.139 14.1358C112.264 13.6769 112.431 13.2181 112.473 12.7175C112.556 11.7998 112.473 10.8821 112.347 10.0061C122.317 12.3004 132.704 15.5958 143.007 22.0198C142.215 21.4775 141.547 20.9769 140.755 20.4764C141.214 20.8101 141.631 21.0604 142.132 21.3941C142.257 21.4775 142.382 21.5609 142.507 21.6444L143.216 21.9364L144.342 22.9375C144.342 22.9375 144.593 23.1461 144.718 23.2295C147.221 25.0649 148.597 26.0661 149.807 27.0255C149.056 26.3998 148.389 25.7324 147.638 25.1067C146.094 23.8552 144.301 22.4787 142.799 21.4358C136.876 17.3478 126.447 10.2981 111.889 8.12894C111.638 7.54494 111.388 6.96094 111.054 6.41866C111.138 6.41866 111.221 6.41866 111.305 6.46037C111.221 6.46037 111.138 6.46037 111.054 6.41866C109.01 3.16494 105.173 0.662084 100.542 0.119798C95.4533 -0.505916 90.8229 1.37123 88.1949 4.54151C87.8194 4.54151 87.4441 4.58323 86.8601 4.62494C87.4024 4.62494 87.8195 4.58323 88.1532 4.54151C87.8195 4.95866 87.4858 5.3758 87.2355 5.83466C87.027 6.21008 86.7767 6.62723 86.6098 7.04437C79.1013 7.04437 70.1327 7.58666 60.4133 11.1741C59.8293 11.3827 59.3704 11.5495 58.8281 11.8415C58.2441 12.0501 57.7435 12.3004 57.076 12.5924C56.5338 12.9261 55.9915 13.1764 55.4493 13.4684C60.4967 11.2992 69.5903 7.67008 86.5263 7.25294C86.2343 7.96208 86.0674 8.71294 85.984 9.4638C85.9423 9.83923 85.984 10.1729 85.984 10.5484C82.2297 11.9667 78.5589 13.9272 75.18 16.8055C70.508 13.8855 63.7921 15.1369 59.1201 20.1844C54.9904 24.6895 53.7807 30.8215 55.6995 35.5352C50.8607 39.1227 45.8549 43.0855 40.8075 47.4655C40.3069 46.9232 39.7229 46.3809 39.0554 45.9638C34.3417 42.7518 27.7927 44.3787 23.4961 49.4261C22.1195 47.6324 21.4938 45.7135 22.0361 43.5444C24.7475 39.6232 28.7938 33.8249 35.176 27.6929C32.6315 30.0707 29.9201 32.8655 27.1252 36.3278C26.6246 36.9118 26.1658 37.5375 25.6652 38.1632C25.1229 38.8724 24.5806 39.5398 24.08 40.2907C23.9549 40.4992 23.7881 40.7078 23.663 40.8747C22.1613 43.0021 20.6177 45.4215 19.116 48.0495C14.3189 57.0598 9.52184 67.8638 8.27041 83.2981C7.93669 83.3815 7.60289 83.5484 7.26918 83.7152C7.51947 81.5878 7.85327 79.3769 8.27041 77.0827C7.89498 79.1684 7.56118 81.3792 7.26918 83.7152C4.26575 85.0084 1.80461 88.4289 1.01204 93.0175C-0.155964 99.7752 2.72232 106.408 7.39432 108.076L7.76973 110.83C7.72802 110.371 7.68631 109.954 7.64459 109.495C7.56116 109.078 7.47775 108.535 7.39432 108.076C7.43603 108.076 7.47778 108.118 7.56121 108.16C7.60292 108.619 7.56116 108.994 7.64459 109.495C8.56231 115.794 8.77087 116.503 9.98058 120.841L9.48003 118.755C8.64575 114.709 8.14527 111.956 8.14527 108.243C8.68756 108.368 9.18802 108.41 9.73031 108.41C11.1069 115.46 13.5263 124.053 18.8657 134.565C18.1149 135.399 17.5309 136.442 17.1554 137.61C16.6966 137.151 16.2378 136.651 15.9458 136.15C15.7373 135.858 15.5704 135.608 15.4453 135.316C16.0293 136.484 16.5298 137.443 16.9887 138.278C16.363 140.78 16.5298 143.826 17.7395 146.912C19.9504 152.419 24.6641 156.131 29.0024 156.131C29.2527 156.423 29.5446 156.84 29.8366 157.132C29.5446 156.799 29.2943 156.465 29.044 156.131C29.7532 156.131 30.4623 156.048 31.1298 155.839C31.672 155.672 32.0475 155.214 32.548 154.922C38.1377 161.721 46.272 170.189 57.952 177.155C60.4132 179.074 60.9554 179.408 63.0412 180.284C65.3354 181.202 65.7109 181.368 67.5464 181.952L66.1697 181.452C64.9183 180.868 63.2498 180.117 62.0401 179.366C66.7121 181.494 67.7549 181.952 70.0075 182.662C69.1732 182.411 68.2972 182.161 67.5464 181.952C68.9229 182.37 69.6738 182.578 70.2578 182.745C70.6749 182.87 71.0921 182.995 71.5927 183.162C71.2172 183.037 70.8 182.912 70.3412 182.787C71.092 182.995 71.5509 183.12 72.4686 183.371C73.0109 183.496 73.4698 183.621 73.8453 183.704C69.2984 182.37 66.7538 181.577 60.3298 177.906C58.828 175.862 57.6183 173.526 57.952 169.772C58.6612 169.897 59.3704 169.98 60.1212 169.98C66.2532 169.98 71.4258 165.726 73.1361 159.844C79.3098 160.678 85.692 161.304 92.2412 161.721C93.2006 168.687 98.8738 174.068 105.757 174.068C106.758 174.068 107.717 173.943 108.677 173.735C109.678 177.239 109.803 180.284 108.301 182.578C103.337 184.455 99.9584 185.623 94.9109 185.874C95.9121 185.874 96.5795 185.874 97.08 185.874C97.2469 185.874 97.4137 185.874 97.5806 185.832C98.0394 185.832 98.4149 185.832 99.0406 185.707L97.8726 185.79C101.961 185.331 102.503 185.164 107.258 183.83C104.922 185.039 104.839 185.123 102.92 185.331C101.752 185.456 100.25 185.623 99.0824 185.707C102.128 185.498 102.253 185.456 103.921 185.206C104.505 185.123 104.922 185.123 105.34 184.998C108.176 184.33 109.01 184.08 111.221 182.328C118.98 178.907 127.365 174.527 137.251 166.184C138.586 168.103 140.63 169.021 142.924 169.063C140.838 170.564 138.836 172.024 136.625 173.359C138.544 172.191 140.63 170.773 142.924 169.063C145.636 169.146 148.639 168.02 151.309 165.559C153.937 163.139 155.564 159.969 156.189 156.882C157.399 155.547 158.65 154.129 159.902 152.502C158.775 153.879 157.482 155.339 156.189 156.84C156.314 156.131 156.314 155.464 156.314 154.796C158.025 153.879 159.485 152.878 160.444 151.793C161.445 150.458 162.488 148.956 163.573 147.33C162.113 149.165 159.526 150.792 156.106 152.21C155.897 151.209 155.647 150.208 155.105 149.415C154.854 149.04 154.437 148.873 154.145 148.581C158.817 142.616 164.032 134.899 168.578 124.095C169.454 124.345 170.372 124.428 171.248 124.303C171.081 130.143 169.913 137.11 165.283 144.868C166.201 143.325 167.244 141.656 168.203 139.863C168.37 139.612 168.453 139.404 168.578 139.112C171.206 133.439 172.708 129.059 173.25 123.636C174.001 123.26 174.71 122.76 175.378 122.176C174.377 125.555 173.209 129.059 171.457 133.022C172.917 129.768 174.293 126.18 175.503 122.051C177.172 120.466 178.59 118.213 179.341 115.418C180.383 111.664 180.05 107.784 178.798 104.739" fill="#841B45"/>
</svg>
