<svg width="171" height="183" viewBox="0 0 171 183" fill="none" xmlns="http://www.w3.org/2000/svg">
<path d="M154.717 103.161C150.295 103.161 146.332 104.954 143.496 107.749L118.718 90.6879L143.913 72.9177C146.708 75.5039 150.546 77.1308 154.759 77.1308C163.394 77.1308 170.36 70.4565 170.36 62.1971C170.36 53.9376 163.394 47.2634 154.759 47.2634C146.124 47.2634 139.158 53.9376 139.158 62.1971C139.158 64.6999 139.867 66.9942 140.993 69.0799L113.67 88.3519H95.1073C94.8153 86.9754 94.4399 85.5988 93.7307 84.2639C90.0599 77.3811 81.5501 74.5028 74.2084 77.2559L64.489 61.1542L67.701 29.9936C69.8284 29.8685 71.9559 29.3679 73.9581 28.4085C81.6336 24.6542 84.637 15.6439 80.7159 8.30222C76.7947 0.960505 67.3673 -1.9595 59.6919 1.8365C52.0164 5.59079 49.013 14.6011 52.9341 21.9428C55.0199 25.8222 58.649 28.4085 62.737 29.4931L59.7753 58.1925L31.4513 46.3457C32.4107 42.8834 32.1187 39.1291 30.2833 35.7502C26.3621 28.4085 16.9347 25.5302 9.25928 29.2845C1.58385 33.0388 -1.41956 42.0491 2.50158 49.3908C6.42273 56.7325 15.8501 59.6108 23.5256 55.8565C26.0284 54.6468 27.9473 52.8114 29.4073 50.7256L60.1924 63.6154L69.9119 79.6754C64.4056 84.0554 62.6118 91.6057 65.9907 97.9462C67.0753 99.9485 68.577 101.575 70.329 102.869L61.0267 118.303L31.3261 131.234C26.9879 124.935 18.353 122.558 11.1781 126.103C3.5027 129.858 0.499293 138.868 4.42044 146.21C8.34158 153.551 17.769 156.43 25.4444 152.675C32.077 149.422 35.2473 142.205 33.4119 135.573L60.7347 123.726L64.1553 152.842C63.1124 153.093 62.0696 153.468 61.0684 153.969C53.393 157.723 50.3896 166.733 54.3107 174.075C58.2319 181.417 67.6593 184.295 75.3347 180.541C83.0102 176.745 86.0136 167.734 82.0924 160.393C79.5061 155.512 74.4587 152.675 69.161 152.342L65.4484 120.597L74.7924 105.079C78.6718 106.414 83.1353 106.247 87.0982 104.329C91.8119 102.034 94.7319 97.7377 95.3993 93.1074H113.795L140.826 111.67C139.867 113.631 139.283 115.758 139.283 118.053C139.283 126.312 146.291 132.986 154.884 132.986C163.477 132.986 170.485 126.312 170.485 118.053C170.485 109.793 163.519 103.119 154.884 103.119" fill="#F6AB00"/>
</svg>
