<svg width="172" height="170" viewBox="0 0 172 170" fill="none" xmlns="http://www.w3.org/2000/svg">
<path d="M142.975 56.0731C133.631 56.0731 125.414 60.9953 120.283 68.4622L87.2032 49.1485C87.8707 46.8959 88.3295 44.5182 88.3295 42.0571C88.3295 40.9725 88.1626 39.9713 88.0375 38.9285L118.364 27.8742C121.326 32.9633 126.582 36.3422 132.588 36.3422C141.891 36.3422 149.441 28.2913 149.441 18.3216C149.441 8.35192 141.891 0.342773 132.588 0.342773C123.286 0.342773 115.778 8.39363 115.778 18.3216C115.778 18.6553 115.861 18.9891 115.861 19.3228L85.3678 30.4188C81.5301 23.2439 74.397 18.3216 66.0958 18.3216C53.8318 18.3216 43.8621 28.9588 43.8621 42.0571C43.8621 55.1553 53.8318 65.7925 66.0958 65.7925C73.0204 65.7925 79.1107 62.3302 83.1987 57.0325L116.403 76.4296C115.402 79.5165 114.735 82.8119 114.735 86.2742C114.735 88.8605 115.152 91.3216 115.694 93.7411L62.8838 117.143C57.2106 106.214 46.3649 98.7051 33.8089 98.7051C15.3712 98.7051 0.4375 114.64 0.4375 134.329C0.4375 154.018 15.3712 169.953 33.8089 169.953C52.2466 169.953 67.1804 154.018 67.1804 134.329C67.1804 131.242 66.7215 128.322 66.0124 125.486L118.948 102C123.912 110.635 132.755 116.475 142.934 116.475C158.535 116.475 171.216 102.96 171.216 86.2742C171.216 69.5885 158.576 56.1148 142.934 56.1148" fill="#FFD900"/>
</svg>
