<svg width="358" height="75" viewBox="0 0 358 75" fill="none" xmlns="http://www.w3.org/2000/svg">
<path d="M50.1999 74.32H40.6699V0.97998H50.1999V1.22998H40.9199V74.07H50.1999V74.32Z" fill="#231815"/>
<path d="M318.341 74.32H308.811V74.07H318.091V1.22998H308.811V0.97998H318.341V74.32Z" fill="#231815"/>
<path d="M0 26.8301H2.56C3.22 26.8301 3.73 26.9901 4.1 27.3101C4.47 27.6301 4.65 28.0701 4.65 28.6201C4.65 29.1701 4.46 29.6201 4.09 29.9401C3.72 30.2601 3.2 30.4201 2.55 30.4201H0.74V33.2401H0V26.8301V26.8301ZM2.49 29.8101C2.96 29.8101 3.32 29.7101 3.56 29.5001C3.8 29.3001 3.92 29.0001 3.92 28.6201C3.92 28.2401 3.8 27.9401 3.56 27.7401C3.32 27.5401 2.96 27.4401 2.49 27.4401H0.74V29.8101H2.5H2.49Z" fill="#231815"/>
<path d="M10.8891 33.2301H10.1091L9.31914 31.1001C9.21914 30.8401 9.08914 30.6601 8.91914 30.5701C8.74914 30.4801 8.50914 30.4401 8.19914 30.4401H6.59914V33.2401H5.86914V26.8301H8.41914C9.10914 26.8301 9.63914 26.9801 10.0091 27.2901C10.3791 27.6001 10.5591 28.0401 10.5591 28.6101C10.5591 29.0301 10.4491 29.3801 10.2291 29.6701C10.0091 29.9601 9.68914 30.1601 9.27914 30.2801C9.46914 30.3101 9.61914 30.3901 9.75914 30.5201C9.88914 30.6501 9.99914 30.8301 10.0891 31.0701L10.8991 33.2401L10.8891 33.2301ZM8.33914 29.8201C9.31914 29.8201 9.81914 29.4201 9.81914 28.6101C9.81914 28.2101 9.69914 27.9201 9.45914 27.7201C9.21914 27.5301 8.84914 27.4301 8.33914 27.4301H6.58914V29.8101H8.33914V29.8201Z" fill="#231815"/>
<path d="M12.0996 26.8301H12.8396V33.2401H12.0996V26.8301Z" fill="#231815"/>
<path d="M19.5599 26.8301V33.2401H18.9799L15.1099 28.0801V33.2401H14.4199V26.8301H14.9899L18.8599 31.9901V26.8301H19.5599Z" fill="#231815"/>
<path d="M22.6792 27.4601H20.4492V26.8301H25.6592V27.4601H23.4292V33.2401H22.6792V27.4601Z" fill="#231815"/>
<path d="M25.9902 32.5L26.2702 31.93C26.5902 32.2 26.9102 32.39 27.2402 32.51C27.5702 32.62 27.9502 32.68 28.3902 32.68C28.9102 32.68 29.3002 32.58 29.5802 32.38C29.8602 32.18 30.0002 31.9 30.0002 31.53C30.0002 31.31 29.9302 31.14 29.8002 31C29.6602 30.87 29.4902 30.76 29.2702 30.68C29.0502 30.6 28.7602 30.52 28.3902 30.44C27.9002 30.33 27.4902 30.21 27.1802 30.09C26.8602 29.96 26.6002 29.78 26.4102 29.55C26.2102 29.31 26.1102 29 26.1102 28.62C26.1102 28.24 26.2102 27.93 26.4002 27.65C26.5902 27.37 26.8602 27.15 27.2102 27C27.5602 26.85 27.9702 26.77 28.4402 26.77C28.9102 26.77 29.3002 26.84 29.6802 26.98C30.0602 27.12 30.3902 27.32 30.6502 27.58L30.3602 28.15C30.0602 27.89 29.7602 27.7 29.4502 27.58C29.1402 27.46 28.8002 27.4 28.4402 27.4C27.9402 27.4 27.5502 27.51 27.2702 27.72C26.9902 27.93 26.8502 28.22 26.8502 28.6C26.8502 28.92 26.9702 29.17 27.2202 29.33C27.4702 29.49 27.8402 29.63 28.3502 29.75C28.9002 29.88 29.3402 30 29.6502 30.11C29.9602 30.22 30.2302 30.39 30.4402 30.61C30.6502 30.84 30.7502 31.13 30.7502 31.51C30.7502 31.89 30.6502 32.19 30.4602 32.46C30.2702 32.73 29.9902 32.94 29.6402 33.09C29.2802 33.24 28.8602 33.32 28.3802 33.32C27.3802 33.32 26.5802 33.05 25.9902 32.51V32.5Z" fill="#231815"/>
<path d="M4.22 44.5399V45.2299H0.25V44.5399H1.82V39.1299L0.36 40.0599V39.2699L2.18 38.1099H2.65V44.5399H4.22V44.5399Z" fill="#AA8420"/>
<path d="M6.1107 44.39C5.6907 43.77 5.4707 42.87 5.4707 41.68C5.4707 40.49 5.6807 39.5801 6.1107 38.9601C6.5307 38.3401 7.1507 38.04 7.9607 38.04C8.7707 38.04 9.3907 38.3501 9.8107 38.9601C10.2307 39.5801 10.4507 40.48 10.4507 41.67C10.4507 42.86 10.2407 43.77 9.8107 44.39C9.3907 45.01 8.7707 45.3201 7.9607 45.3201C7.1507 45.3201 6.5307 45.01 6.1107 44.4V44.39ZM9.2207 43.9C9.4907 43.42 9.6307 42.67 9.6307 41.66C9.6307 40.65 9.5007 39.91 9.2307 39.44C8.9607 38.97 8.5407 38.73 7.9707 38.73C7.4007 38.73 6.9907 38.97 6.7207 39.44C6.4507 39.91 6.3107 40.65 6.3107 41.66C6.3107 42.67 6.4507 43.41 6.7207 43.9C6.9907 44.39 7.4107 44.62 7.9707 44.62C8.5307 44.62 8.9507 44.38 9.2207 43.9Z" fill="#AA8420"/>
<path d="M21.6093 42.0701V45.2301H20.7993V42.1101C20.7993 41.6401 20.7193 41.2901 20.5493 41.0801C20.3893 40.8701 20.1193 40.7601 19.7593 40.7601C19.3293 40.7601 18.9993 40.9001 18.7593 41.1901C18.5193 41.4801 18.3993 41.8701 18.3993 42.3601V45.2301H17.5893V42.1101C17.5893 41.6401 17.5093 41.3001 17.3393 41.0901C17.1693 40.8701 16.9093 40.7601 16.5393 40.7601C16.1093 40.7601 15.7793 40.9001 15.5393 41.1901C15.2993 41.4801 15.1693 41.8701 15.1693 42.3601V45.2301H14.3593V41.6101C14.3593 41.0901 14.3293 40.6201 14.2793 40.2001H15.0493L15.1293 41.0801C15.2693 40.7601 15.4793 40.5101 15.7493 40.3401C16.0293 40.1701 16.3493 40.0801 16.7193 40.0801C17.1193 40.0801 17.4493 40.1601 17.6993 40.3201C17.9493 40.4801 18.1393 40.7301 18.2593 41.0601C18.4093 40.7601 18.6393 40.5201 18.9293 40.3501C19.2293 40.1701 19.5593 40.0801 19.9293 40.0801C21.0393 40.0801 21.5993 40.7401 21.5993 42.0701H21.6093Z" fill="#AA8420"/>
<path d="M30.4003 42.0701V45.2301H29.5903V42.1101C29.5903 41.6401 29.5103 41.2901 29.3403 41.0801C29.1803 40.8701 28.9103 40.7601 28.5503 40.7601C28.1203 40.7601 27.7903 40.9001 27.5503 41.1901C27.3103 41.4801 27.1903 41.8701 27.1903 42.3601V45.2301H26.3803V42.1101C26.3803 41.6401 26.3003 41.3001 26.1303 41.0901C25.9603 40.8701 25.7003 40.7601 25.3303 40.7601C24.9003 40.7601 24.5703 40.9001 24.3303 41.1901C24.0903 41.4801 23.9603 41.8701 23.9603 42.3601V45.2301H23.1503V41.6101C23.1503 41.0901 23.1203 40.6201 23.0703 40.2001H23.8403L23.9203 41.0801C24.0603 40.7601 24.2703 40.5101 24.5403 40.3401C24.8203 40.1701 25.1403 40.0801 25.5103 40.0801C25.9103 40.0801 26.2403 40.1601 26.4903 40.3201C26.7403 40.4801 26.9303 40.7301 27.0503 41.0601C27.2003 40.7601 27.4303 40.5201 27.7203 40.3501C28.0203 40.1701 28.3503 40.0801 28.7203 40.0801C29.8303 40.0801 30.3903 40.7401 30.3903 42.0701H30.4003Z" fill="#AA8420"/>
<path d="M327.181 32.91C326.741 32.65 326.401 32.27 326.171 31.77C325.931 31.28 325.811 30.69 325.811 30.03C325.811 29.37 325.931 28.78 326.161 28.28C326.391 27.79 326.731 27.41 327.171 27.15C327.611 26.89 328.131 26.75 328.731 26.75C329.331 26.75 329.851 26.88 330.291 27.15C330.731 27.42 331.061 27.79 331.301 28.28C331.541 28.77 331.651 29.35 331.651 30.02C331.651 30.69 331.531 31.27 331.291 31.77C331.051 32.26 330.721 32.64 330.281 32.91C329.841 33.18 329.331 33.31 328.731 33.31C328.131 33.31 327.621 33.18 327.181 32.91ZM330.311 31.98C330.691 31.52 330.881 30.86 330.881 30.02C330.881 29.18 330.691 28.52 330.321 28.07C329.951 27.62 329.421 27.39 328.731 27.39C328.041 27.39 327.511 27.62 327.141 28.08C326.771 28.54 326.571 29.19 326.571 30.03C326.571 30.87 326.761 31.53 327.141 31.99C327.521 32.45 328.051 32.68 328.731 32.68C329.411 32.68 329.941 32.45 330.311 31.99V31.98Z" fill="#231815"/>
<path d="M338.14 26.8301V33.2401H337.56L333.69 28.0801V33.2401H333V26.8301H333.57L337.44 31.9901V26.8301H338.14Z" fill="#231815"/>
<path d="M339.711 26.8301H340.451V32.6101H343.661V33.2401H339.711V26.8301Z" fill="#231815"/>
<path d="M344.621 26.8301H345.361V33.2401H344.621V26.8301Z" fill="#231815"/>
<path d="M352.081 26.8301V33.2401H351.501L347.631 28.0801V33.2401H346.941V26.8301H347.511L351.381 31.9901V26.8301H352.081Z" fill="#231815"/>
<path d="M353.65 26.8298H357.7V27.4398H354.38V29.6698H357.52V30.2898H354.38V32.6198H357.7V33.2298H353.65V26.8198V26.8298Z" fill="#231815"/>
<path d="M330.93 43.6799H329.85V45.2299H329.03V43.6799H325.75V43.0599L329.18 38.1099H329.85V42.9999H330.93V43.6799V43.6799ZM329.03 42.9999V39.4999L326.6 42.9999H329.03Z" fill="#AA8420"/>
<path d="M335.729 41.0499C336.069 41.2399 336.319 41.4999 336.499 41.8399C336.679 42.1799 336.769 42.5699 336.769 43.0199C336.769 43.4699 336.669 43.8599 336.479 44.2099C336.279 44.5599 335.999 44.8199 335.639 45.0099C335.279 45.1999 334.849 45.2999 334.369 45.2999C333.939 45.2999 333.509 45.2199 333.089 45.0599C332.669 44.8999 332.319 44.6899 332.029 44.4199L332.339 43.7899C332.999 44.3399 333.679 44.6099 334.369 44.6099C334.869 44.6099 335.259 44.4699 335.549 44.1899C335.829 43.9099 335.969 43.5199 335.969 43.0299C335.969 42.5399 335.829 42.1799 335.549 41.8899C335.269 41.5999 334.899 41.4499 334.429 41.4499C333.749 41.4499 333.209 41.7299 332.799 42.2799H332.229V38.1099H336.499V38.7899H333.049V41.3299C333.439 40.9499 333.949 40.7599 334.559 40.7599C335.009 40.7599 335.399 40.8499 335.739 41.0499H335.729Z" fill="#AA8420"/>
<path d="M344.33 40.4101C344.67 40.6301 344.93 40.9401 345.12 41.3401C345.31 41.7401 345.4 42.1901 345.4 42.7201C345.4 43.2501 345.31 43.6901 345.12 44.0801C344.93 44.4701 344.67 44.7701 344.33 44.9901C343.99 45.2001 343.6 45.3101 343.16 45.3101C342.77 45.3101 342.42 45.2201 342.13 45.0501C341.84 44.8801 341.61 44.6301 341.46 44.3101V47.4001H340.65V41.6201C340.65 41.1001 340.62 40.6301 340.57 40.2101H341.34L341.42 41.1801C341.56 40.8301 341.78 40.5601 342.09 40.3701C342.39 40.1801 342.75 40.0801 343.17 40.0801C343.61 40.0801 344 40.1901 344.34 40.4101H344.33ZM344.16 44.1301C344.43 43.8001 344.56 43.3201 344.56 42.7101C344.56 42.1001 344.42 41.6201 344.15 41.2701C343.88 40.9301 343.5 40.7601 343.01 40.7601C342.52 40.7601 342.13 40.9301 341.86 41.2601C341.59 41.5901 341.46 42.0701 341.46 42.6901C341.46 43.3101 341.59 43.7901 341.86 44.1201C342.13 44.4601 342.51 44.6301 343.01 44.6301C343.51 44.6301 343.89 44.4601 344.16 44.1301V44.1301Z" fill="#AA8420"/>
<path d="M351.011 45.2297H350.041L348.451 43.2497L346.881 45.2297H345.891L347.981 42.6397L346.011 40.1997H346.991L348.451 42.0497L349.911 40.1997H350.901L348.941 42.6397L351.011 45.2297V45.2297Z" fill="#AA8420"/>
<path d="M97.29 15.9898C97.64 15.5598 97.76 14.7798 97.76 14.7798H77C77 14.7798 77.26 15.6398 77.47 15.9898H97.29V15.9898Z" fill="#A68238"/>
<path d="M96.0796 17.7502C96.4696 17.4102 96.8596 16.7202 96.8596 16.7202H77.8496C77.8496 16.7202 78.0596 17.2402 78.5396 17.7502H96.0796V17.7502Z" fill="#A68238"/>
<path d="M94.5795 19.3401C95.0495 19.0801 95.4395 18.5601 95.4395 18.5601H79.1895C79.1895 18.5601 79.5794 18.9901 79.9594 19.3401H94.5894H94.5795Z" fill="#A68238"/>
<path d="M92.6802 20.85C93.1502 20.67 93.6702 20.25 93.6702 20.25H80.9902C80.9902 20.25 80.9902 20.34 81.8902 20.85H92.6802Z" fill="#A68238"/>
<path d="M83.3496 21.79C83.3496 21.79 84.6796 22.5701 87.3096 22.5701C89.9396 22.5701 91.6096 21.79 91.6096 21.79H83.3596H83.3496Z" fill="#A68238"/>
<path d="M83.14 23.56C83.14 23.56 84.73 23.64 85.67 24.37C86.58 25.15 87.27 26.43 87.27 26.43C87.27 26.43 87.83 25.19 88.74 24.54C89.64 23.85 91.1 23.55 91.1 23.55H107.48L110.7 28.3201H95.99C95.99 28.3201 94.96 28.3601 93.41 29.2701C92.59 29.7401 91.99 30.55 91.99 30.55C91.99 30.55 91.87 30.94 91.69 31.15C91.52 31.37 91.39 31.5401 91.18 31.6301C90.96 31.7201 91.01 31.67 91.01 31.67H83.35C83.35 31.67 83.04 31.55 82.88 31.28C82.71 31.02 82.83 31.11 82.66 30.9C82.53 30.69 82.23 30.1201 81.07 29.3501C79.87 28.5701 78.71 28.4901 78.71 28.4901H63.75L67.01 23.54H83.14V23.56Z" fill="#003873"/>
<path d="M71.5605 30.3101V54.7301C71.5605 54.7301 71.6505 56.8901 73.4505 59.8101C75.2605 62.7301 77.8805 64.0701 77.8805 64.0701L79.9505 60.8501C79.9505 60.8501 78.1505 59.7701 76.7705 57.7101C75.4405 55.6501 75.4406 53.8801 75.4406 53.8801V30.3201H71.5605V30.3101Z" fill="#003873"/>
<path d="M99.2591 30.2202V53.7802C99.2591 53.7802 98.9591 56.1502 97.8391 57.8202C96.7191 59.5402 94.8691 60.9202 94.8691 60.9202L96.8591 64.1002C96.8591 64.1002 99.8591 61.9102 101.319 59.5902C102.789 57.2702 103.139 53.7802 103.139 53.7802V30.2202H99.2591V30.2202Z" fill="#003873"/>
<path d="M65.4199 30.3101V54.8201C65.4199 54.8201 65.6699 58.6101 68.0399 62.5601C70.4099 66.5101 74.7099 69.2701 74.7099 69.2701L76.7399 66.0501C76.7399 66.0501 73.9899 64.5901 71.7999 61.2301C69.5499 57.8301 69.4399 54.7401 69.4399 54.7401V30.3201H65.4399L65.4199 30.3101Z" fill="#003873"/>
<path d="M83.1403 32.8901V58.7801C83.1403 58.7801 83.0403 58.8701 83.0103 59.2501C82.9603 59.6401 82.7103 59.9001 82.7103 59.9001L74.0703 74.2201H100.56L91.9103 59.6001L91.6503 58.9501L91.5603 58.2701V32.9501H88.3403V59.2301C88.3403 59.2301 88.3403 59.6101 88.4703 59.9101C88.5503 60.2101 88.7303 60.6801 88.7303 60.6801L94.0603 69.4501H80.5603L85.8003 60.7201C85.8003 60.7201 85.9703 60.4201 86.1003 59.9901C86.1903 59.6001 86.2303 59.2201 86.2303 59.2201V32.8901H83.1403V32.8901Z" fill="#A68238"/>
<path d="M105.24 30.2202V54.3002C105.24 54.3002 105.2 57.3902 102.92 60.9602C100.64 64.5302 98.0195 66.0402 98.0195 66.0402L99.9595 69.3102C99.9595 69.3102 103.91 66.8102 106.41 62.8602C108.86 58.9002 109.16 54.3002 109.16 54.3002V30.2202H105.24V30.2202Z" fill="#003873"/>
<path d="M76.8603 14.09C76.8603 14.09 75.5303 6.82999 80.8603 3.20999C80.8603 3.20999 83.2703 0.97998 87.1803 0.97998C91.3603 0.97998 93.7603 3.16998 93.7603 3.16998C99.5703 7.41998 97.8503 14.09 97.8503 14.09H76.8703H76.8603Z" fill="#A68238"/>
<path d="M125.291 35.8299V25.2599H128.121V23.8999H120.961V25.2599H123.801V35.8299H125.291Z" fill="#003477"/>
<path d="M130.81 23.8901H129.32V35.8301H130.81V30.1001H136.5V35.8301H137.98V23.8901H136.5V28.7101H130.81V23.8901Z" fill="#003477"/>
<path d="M146.711 34.4701H141.781V29.9601H146.571V28.6001H141.781V25.2601H146.711V23.8901H140.301V35.8301H146.711V34.4701Z" fill="#003477"/>
<path d="M154.801 23.8901H153.311V35.8301H154.801V30.1001H160.481V35.8301H161.971V23.8901H160.481V28.7101H154.801V23.8901Z" fill="#003477"/>
<path d="M169.699 23.6401C166.279 23.6401 163.449 26.4401 163.449 29.8601C163.449 33.2801 166.249 36.0801 169.699 36.0801C173.149 36.0801 175.959 33.4001 175.959 29.8601C175.959 26.3201 173.119 23.6401 169.699 23.6401ZM169.699 34.6901C167.119 34.6901 164.929 32.5901 164.929 29.8601C164.929 27.1301 166.889 25.0301 169.699 25.0301C172.509 25.0301 174.469 27.2301 174.469 29.8601C174.469 32.4901 172.279 34.6901 169.699 34.6901Z" fill="#003477"/>
<path d="M186.37 32.7098L177.41 23.3198V35.8298H178.9V26.9298L187.86 36.3198V23.8898H186.37V32.7098Z" fill="#003477"/>
<path d="M189.33 29.9001C189.33 33.2101 192.02 36.0901 195.37 36.0901C198.72 36.0901 201.02 33.5702 201.02 30.3002V29.8302H196.28V31.1902H199.37C199.3 33.1402 197.31 34.7402 195.46 34.7402C192.88 34.7402 190.82 32.3602 190.82 29.8602C190.82 27.1802 192.91 25.0202 195.59 25.0202C197.05 25.0202 198.49 25.8002 199.34 26.9702L200.38 25.9702C199.21 24.5002 197.37 23.6602 195.52 23.6602C192.09 23.6602 189.33 26.4802 189.33 29.9102V29.9001Z" fill="#003477"/>
<path d="M215.981 35.8301L210.521 29.2601L215.881 23.8901H213.941L208.871 29.0701V23.8901H207.381V35.8301H208.871V30.8501L209.471 30.2801L213.971 35.8301H215.981Z" fill="#003477"/>
<path d="M216.199 29.8601C216.199 33.4101 218.999 36.0801 222.449 36.0801C225.899 36.0801 228.699 33.4001 228.699 29.8601C228.699 26.3201 225.869 23.6401 222.449 23.6401C219.029 23.6401 216.199 26.4401 216.199 29.8601ZM222.449 25.0301C225.249 25.0301 227.219 27.2301 227.219 29.8601C227.219 32.4901 225.029 34.6901 222.449 34.6901C219.869 34.6901 217.679 32.5901 217.679 29.8601C217.679 27.1301 219.649 25.0301 222.449 25.0301Z" fill="#003477"/>
<path d="M231.65 26.9298L240.62 36.3198V23.8898H239.13V32.7098L230.17 23.3198V35.8298H231.65V26.9298Z" fill="#003477"/>
<path d="M248.12 36.0901C251.46 36.0901 253.77 33.5702 253.77 30.3002V29.8302H249.03V31.1902H252.12C252.05 33.1402 250.06 34.7402 248.21 34.7402C245.63 34.7402 243.57 32.3602 243.57 29.8602C243.57 27.1802 245.66 25.0202 248.34 25.0202C249.8 25.0202 251.24 25.8002 252.09 26.9702L253.13 25.9702C251.96 24.5002 250.12 23.6602 248.27 23.6602C244.84 23.6602 242.08 26.4802 242.08 29.9102C242.08 33.3402 244.77 36.1002 248.11 36.1002L248.12 36.0901Z" fill="#003477"/>
<path d="M126.239 55.0799C128.979 55.0799 130.609 53.0699 130.609 50.4399V42.8799H129.119V49.9299C129.119 51.8799 128.529 53.6799 126.239 53.6799C123.949 53.6799 123.359 51.8799 123.359 49.9299V42.8799H121.869V50.4399C121.869 53.0699 123.499 55.0799 126.239 55.0799Z" fill="#003477"/>
<path d="M134.17 45.9298L143.13 55.3198V42.8898H141.64V51.7098L132.68 42.3198V54.8298H134.17V45.9298Z" fill="#003477"/>
<path d="M146.849 42.8901H145.359V54.8301H146.849V42.8901Z" fill="#003477"/>
<path d="M153.18 51.7201L149.62 42.8901H147.99L153.18 55.4601L158.36 42.8901H156.73L153.18 51.7201Z" fill="#003477"/>
<path d="M165.949 53.4701H161.019V48.9501H165.799V47.5901H161.019V44.2501H165.949V42.8901H159.529V54.8301H165.949V53.4701Z" fill="#003477"/>
<path d="M174.459 46.3001C174.459 45.1601 173.889 44.0301 172.889 43.4501C171.939 42.9101 170.799 42.8901 169.739 42.8901H167.939V54.8301H169.429V49.7801H170.049L173.569 54.8301H175.379L171.609 49.6401C173.329 49.4401 174.479 48.0101 174.479 46.3001H174.459ZM169.899 48.5501H169.429V44.2201H169.829C171.299 44.2201 173.079 44.4901 173.079 46.3601C173.079 48.2301 171.429 48.5401 169.909 48.5401L169.899 48.5501Z" fill="#003477"/>
<path d="M179.88 53.6899C178.6 53.6899 177.55 52.7399 177.57 51.4299L176.07 51.7499C176.32 53.6599 177.83 55.0899 179.76 55.0899C181.9 55.0899 183.58 53.5399 183.58 51.3699C183.58 49.3799 182.31 48.4399 180.62 47.7799L179.77 47.4499C179.03 47.1699 178.11 46.6799 178.11 45.7399C178.11 44.6899 179.15 44.0499 180.11 44.0499C181.01 44.0499 181.58 44.4299 182.02 45.1699L183.21 44.4599C182.56 43.2999 181.47 42.6499 180.14 42.6499C178.34 42.6499 176.62 43.8099 176.62 45.7399C176.62 47.3999 177.85 48.1799 179.22 48.7699L180.04 49.1199C181.07 49.5499 182.1 50.0999 182.1 51.3799C182.1 52.6599 181.18 53.7099 179.9 53.7099L179.88 53.6899Z" fill="#003477"/>
<path d="M186.801 42.8901H185.311V54.8301H186.801V42.8901Z" fill="#003477"/>
<path d="M192.4 54.8301V44.2501H195.24V42.8901H188.08V44.2501H190.91V54.8301H192.4Z" fill="#003477"/>
<path d="M197.04 42.8901H195.33L199.23 49.6301V54.8301H200.72V49.6301L204.61 42.8901H202.9L199.97 47.9901L197.04 42.8901Z" fill="#003477"/>
<path d="M215.949 55.0801C219.399 55.0801 222.209 52.4001 222.209 48.8601C222.209 45.3201 219.379 42.6401 215.949 42.6401C212.519 42.6401 209.699 45.4401 209.699 48.8601C209.699 52.2801 212.499 55.0801 215.949 55.0801ZM215.949 44.0301C218.749 44.0301 220.719 46.2301 220.719 48.8601C220.719 51.4901 218.539 53.6901 215.949 53.6901C213.359 53.6901 211.189 51.5801 211.189 48.8601C211.189 46.1401 213.149 44.0301 215.949 44.0301Z" fill="#003477"/>
<path d="M225.279 48.9701H229.419V47.6101H225.279V44.2501H229.569V42.8901H223.789V54.8301H225.279V48.9701Z" fill="#003477"/>
<path d="M240.111 47.7701L239.261 47.4401C238.521 47.1601 237.601 46.6701 237.601 45.7301C237.601 44.6801 238.641 44.0401 239.591 44.0401C240.541 44.0401 241.061 44.4201 241.501 45.1601L242.691 44.4501C242.041 43.2901 240.951 42.6401 239.621 42.6401C237.821 42.6401 236.101 43.8001 236.101 45.7301C236.101 47.3901 237.341 48.1701 238.701 48.7601L239.521 49.1101C240.551 49.5401 241.581 50.0901 241.581 51.3701C241.581 52.6501 240.661 53.7001 239.381 53.7001C238.101 53.7001 237.051 52.7501 237.071 51.4401L235.561 51.7601C235.811 53.6701 237.321 55.1001 239.251 55.1001C241.391 55.1001 243.071 53.5501 243.071 51.3801C243.071 49.3901 241.801 48.4501 240.111 47.7901V47.7701Z" fill="#003477"/>
<path d="M250.399 43.9999C251.519 43.9999 252.699 44.4099 253.549 45.1699V43.4399C252.649 42.8799 251.589 42.6299 250.539 42.6299C247.019 42.6299 244.189 45.3899 244.189 48.9199C244.189 52.4499 247.009 55.0799 250.409 55.0799C251.459 55.0799 252.629 54.7799 253.549 54.2399V52.4799C252.659 53.2699 251.539 53.7199 250.369 53.7199C247.709 53.7199 245.679 51.4899 245.679 48.8699C245.679 46.2499 247.729 43.9899 250.399 43.9899V43.9999Z" fill="#003477"/>
<path d="M256.929 42.8901H255.439V54.8301H256.929V42.8901Z" fill="#003477"/>
<path d="M259.32 54.8301H265.73V53.4701H260.81V48.9501H265.59V47.5901H260.81V44.2501H265.73V42.8901H259.32V54.8301Z" fill="#003477"/>
<path d="M276.54 51.7098L267.58 42.3198V54.8298H269.07V45.9298L278.03 55.3198V42.8898H276.54V51.7098Z" fill="#003477"/>
<path d="M279.65 48.9201C279.65 52.3701 282.47 55.0801 285.87 55.0801C286.91 55.0801 288.09 54.7801 289.01 54.2401V52.4801C288.13 53.2701 287 53.7201 285.83 53.7201C283.17 53.7201 281.14 51.4901 281.14 48.8701C281.14 46.2501 283.18 43.9901 285.86 43.9901C286.98 43.9901 288.15 44.4001 289.01 45.1601V43.4301C288.11 42.8701 287.05 42.6201 286 42.6201C282.48 42.6201 279.65 45.3801 279.65 48.9101V48.9201Z" fill="#003477"/>
<path d="M297.349 44.2501V42.8901H290.939V54.8301H297.349V53.4701H292.419V48.9501H297.209V47.5901H292.419V44.2501H297.349Z" fill="#003477"/>
<path d="M120.801 73.8299H122.401L123.761 70.8399H129.241L130.601 73.8299H132.201L126.501 61.3799L120.801 73.8299V73.8299ZM124.381 69.4799L126.501 64.6499L128.621 69.4799H124.381V69.4799Z" fill="#003477"/>
<path d="M142.181 70.7098L133.221 61.3198V73.8298H134.711V64.9298L143.671 74.3198V61.8898H142.181V70.7098Z" fill="#003477"/>
<path d="M148.29 61.8799H145.82V73.8199H148.24C152.01 73.8199 154.99 71.8599 154.99 67.7899C154.99 63.7199 151.95 61.8799 148.29 61.8799ZM147.83 72.4599H147.31V63.2399H147.83C150.87 63.2399 153.5 64.3599 153.5 67.8499C153.5 71.3399 150.87 72.4599 147.83 72.4599V72.4599Z" fill="#003477"/>
<path d="M160.26 63.2499H163.1V73.8199H164.58V63.2499H167.42V61.8799H160.26V63.2499Z" fill="#003477"/>
<path d="M168.75 73.8199H175.16V72.4599H170.24V67.9499H175.02V66.5899H170.24V63.2499H175.16V61.8799H168.75V73.8199Z" fill="#003477"/>
<path d="M176.49 67.9201C176.49 71.3701 179.31 74.0801 182.71 74.0801C183.76 74.0801 184.93 73.7801 185.85 73.2401V71.4801C184.96 72.2701 183.84 72.7201 182.67 72.7201C180.01 72.7201 177.98 70.4901 177.98 67.8701C177.98 65.2501 180.02 62.9901 182.7 62.9901C183.82 62.9901 185 63.4001 185.85 64.1601V62.4301C184.95 61.8701 183.88 61.6201 182.84 61.6201C179.32 61.6201 176.49 64.3801 176.49 67.9101V67.9201Z" fill="#003477"/>
<path d="M194.83 66.6999H189.14V61.8799H187.66V73.8199H189.14V68.0899H194.83V73.8199H196.31V61.8799H194.83V66.6999Z" fill="#003477"/>
<path d="M207.45 70.7098L198.48 61.3198V73.8298H199.97V64.9298L208.93 74.3198V61.8898H207.45V70.7098Z" fill="#003477"/>
<path d="M216.631 61.6299C213.211 61.6299 210.381 64.4399 210.381 67.8499C210.381 71.2599 213.181 74.0699 216.631 74.0699C220.081 74.0699 222.891 71.3899 222.891 67.8499C222.891 64.3099 220.061 61.6299 216.631 61.6299ZM216.631 72.6799C214.051 72.6799 211.871 70.5799 211.871 67.8499C211.871 65.1199 213.831 63.0199 216.631 63.0199C219.431 63.0199 221.401 65.2199 221.401 67.8499C221.401 70.4799 219.211 72.6799 216.631 72.6799Z" fill="#003477"/>
<path d="M225.97 61.8799H224.48V73.8199H229.6V72.4599H225.97V61.8799Z" fill="#003477"/>
<path d="M236.151 61.6299C232.731 61.6299 229.891 64.4399 229.891 67.8499C229.891 71.2599 232.691 74.0699 236.151 74.0699C239.611 74.0699 242.401 71.3899 242.401 67.8499C242.401 64.3099 239.571 61.6299 236.151 61.6299ZM236.151 72.6799C233.571 72.6799 231.381 70.5799 231.381 67.8499C231.381 65.1199 233.341 63.0199 236.151 63.0199C238.961 63.0199 240.911 65.2199 240.911 67.8499C240.911 70.4799 238.721 72.6799 236.151 72.6799Z" fill="#003477"/>
<path d="M250.149 69.1699H253.239C253.169 71.1199 251.179 72.7199 249.329 72.7199C246.749 72.7199 244.689 70.3399 244.689 67.8399C244.689 65.1599 246.779 62.9899 249.459 62.9899C250.909 62.9899 252.359 63.7699 253.209 64.9399L254.249 63.9399C253.079 62.4699 251.239 61.6299 249.389 61.6299C245.959 61.6299 243.199 64.4499 243.199 67.8899C243.199 71.3299 245.899 74.0799 249.229 74.0799C252.559 74.0799 254.879 71.5599 254.879 68.2899V67.8099H250.149V69.1699V69.1699Z" fill="#003477"/>
<path d="M259.919 66.9899L256.989 61.8799H255.279L259.169 68.6299V73.8199H260.659V68.6299L264.559 61.8799H262.849L259.919 66.9899Z" fill="#003477"/>
<path d="M121.28 11.1301C121.93 10.9101 122.39 10.7401 122.66 10.6201V17.6001H124.17V16.8501H132.17V17.6001H133.68V10.5401C133.9 10.6601 134.14 10.7601 134.4 10.8301C134.66 10.9001 134.9 10.9901 135.12 11.0901L135.84 9.61008C133.5 9.14008 131.71 8.31007 130.47 7.12007H135.71V5.77008H128.84V4.40007C131.03 4.22007 132.86 3.97007 134.34 3.67007L133.64 2.33008C131.42 2.83008 128.14 3.08008 123.82 3.08008C122.91 3.08008 122.14 3.07008 121.53 3.05008L122.07 4.55008C123.13 4.55008 124.88 4.52007 127.32 4.45007V5.77008H120.63V7.12007H125.66C124.2 8.34007 122.48 9.20007 120.5 9.67007L121.28 11.1201V11.1301ZM132.17 15.5101H124.16V14.0801H132.17V15.5101ZM128.83 7.16008C129.85 8.52008 131.19 9.52007 132.85 10.1701H128.83V7.16008ZM132.17 11.5401V12.7801H124.16V11.5401H132.17ZM127.3 7.18007V10.1801H123.59C125.12 9.53007 126.36 8.53007 127.3 7.18007Z" fill="#003477"/>
<path d="M144.79 12.5497L143.37 11.7197C143.02 13.2597 142.37 14.7097 141.42 16.0597L142.72 17.3897C143.65 15.9097 144.34 14.2997 144.79 12.5397V12.5497Z" fill="#003477"/>
<path d="M145.371 4.58015V5.46016H147.541V7.09015H145.051V8.46016H147.651C147.171 9.48016 146.041 10.4002 144.231 11.2102L145.161 12.5802C145.891 12.1202 146.381 11.7802 146.661 11.5502V15.2001C146.661 15.9401 146.791 16.4402 147.071 16.7102C147.351 16.9702 147.841 17.1002 148.541 17.1002H153.811C154.651 17.1002 155.201 16.9502 155.491 16.6602C155.781 16.3602 156.021 15.4502 156.191 13.9402L154.631 13.3701C154.551 14.2301 154.471 14.8301 154.391 15.1801C154.301 15.5201 154.031 15.6801 153.581 15.6801H148.751C148.371 15.6801 148.181 15.4902 148.181 15.1102V14.0702H153.421V10.7301C154.071 11.3201 154.901 11.9102 155.891 12.5002L156.591 11.0502C154.831 10.1802 153.731 9.31015 153.301 8.43015H156.411V7.06015H153.481V5.38016H156.171V4.10016H153.481V2.41016H152.011V4.10016H149.041V2.41016H147.551V4.10016H145.381V4.31015C144.741 3.82015 143.961 3.28015 143.041 2.70015L141.971 3.91016C142.701 4.36016 143.501 5.00015 144.391 5.81015L145.381 4.57016L145.371 4.58015ZM149.021 5.48015H151.981V7.07016H149.021V5.48015ZM149.381 8.44016H151.581C151.881 9.02016 152.221 9.50016 152.571 9.91016H148.421C148.821 9.49016 149.141 9.00016 149.381 8.44016ZM148.141 11.1902H151.881V12.7802H148.141V11.1902Z" fill="#003477"/>
<path d="M144.88 8.51994C144.04 7.87994 143.24 7.35994 142.47 6.93994L141.49 8.15994C142.13 8.57994 142.89 9.16994 143.77 9.91994L144.88 8.51994V8.51994Z" fill="#003477"/>
<path d="M177.459 11.2L175.989 11.45V2.27002H174.479V11.63L169.029 12.44V13.95L174.479 13.12V17.6H175.989V12.93L177.459 12.68V11.2Z" fill="#003477"/>
<path d="M173.89 5.46999C172.61 4.53999 171.62 3.87998 170.91 3.47998L169.93 4.55998C170.68 5.01998 171.66 5.72999 172.86 6.68999L173.89 5.46999V5.46999Z" fill="#003477"/>
<path d="M173.579 9.3999C172.389 8.4899 171.379 7.8199 170.569 7.3999L169.609 8.48991C170.469 8.99991 171.459 9.71991 172.569 10.6599L173.579 9.40991V9.3999Z" fill="#003477"/>
<path d="M163.051 14.5601C164.111 13.1701 164.851 11.9601 165.261 10.9101V17.6001L166.761 17.5301V9.98012C167.051 10.3701 167.341 10.7301 167.621 11.0701C167.951 11.4401 168.271 11.8501 168.591 12.3101L169.501 10.9101C168.881 10.2401 167.961 9.34013 166.751 8.21013V8.06012H169.221V6.66013H166.751V4.37012C167.611 4.20012 168.421 3.97012 169.211 3.70012L168.661 2.37012C166.911 3.03012 164.831 3.42012 162.401 3.54012L162.741 4.91013C163.851 4.84013 164.691 4.74013 165.261 4.63013V6.66013H162.231V8.06012H165.211C164.531 9.86012 163.501 11.5401 162.131 13.0901L163.041 14.5601H163.051Z" fill="#003477"/>
<path d="M182.98 10.84L183.37 12.6C183.9 12.47 184.63 12.28 185.55 12.05V15.37C185.55 15.73 185.37 15.91 185.01 15.91L183.59 15.86L183.96 17.5H185.25C186.06 17.5 186.57 17.37 186.8 17.11C187.02 16.86 187.13 16.35 187.13 15.58V11.59C188.06 11.27 188.7 11.03 189.03 10.84V9.25002C188.63 9.44002 187.99 9.68002 187.13 9.96002V7.08002H189.05L189.07 6.04001H192.57V8.22002H189.35V9.72002H195.81C195.34 11.09 194.56 12.21 193.45 13.09C192.7 12.34 191.95 11.31 191.21 9.98001L189.86 10.52C190.66 11.99 191.48 13.14 192.32 13.99C190.76 15.04 189.2 15.74 187.63 16.09L188.53 17.57C190.09 17.24 191.73 16.42 193.44 15.11C194.7 16.26 196.04 17.07 197.48 17.54L198.31 16.01C196.94 15.63 195.72 14.99 194.63 14.11C195.25 13.57 195.84 12.82 196.41 11.88C196.98 10.94 197.34 10.17 197.48 9.58002V8.23001H194.19V6.05002H198.03V4.57002H194.19V2.27002H192.58V4.57002H189.08V5.61002H187.16V2.27002H185.56V5.61002H183.15V7.09001H185.56V10.36C184.79 10.57 183.93 10.73 182.99 10.85L182.98 10.84Z" fill="#003477"/>
<path d="M203.779 16.0098L205.019 17.5598C208.669 15.1598 210.849 12.0098 211.579 8.08978H211.839C212.929 12.4598 214.929 15.6098 217.859 17.5298L219.109 16.0298C217.489 14.9698 216.219 13.7098 215.299 12.2498C214.379 10.7998 213.789 9.40979 213.539 8.07979L218.749 8.09979V6.36978H211.849C211.939 5.50978 211.979 4.14979 211.979 2.27979H210.269C210.269 4.01979 210.199 5.37978 210.059 6.36978H204.169V8.09979H209.779C209.519 9.62979 208.839 11.1098 207.749 12.5398C206.639 13.9698 205.319 15.1298 203.779 16.0098V16.0098Z" fill="#003477"/>
<path d="M230.879 16.2698C230.289 16.2698 229.739 16.2498 229.219 16.1998L229.539 17.6598H231.789C232.169 17.6598 232.509 17.5098 232.789 17.1998C232.979 17.0098 233.089 16.7198 233.109 16.3398V13.6798H239.339V12.2898H233.109V11.7798C234.579 11.1898 235.879 10.5698 237.019 9.91978V8.52979H227.559V9.91978H234.619C233.489 10.4498 232.419 10.8698 231.399 11.1698V12.2898H225.119V13.6798H231.399V15.8598C231.399 16.1298 231.229 16.2698 230.879 16.2698V16.2698Z" fill="#003477"/>
<path d="M233.249 4.62978C232.819 3.75978 232.379 2.96977 231.929 2.25977L230.609 2.84978C231.049 3.56978 231.469 4.37976 231.859 5.28976L233.249 4.62978Z" fill="#003477"/>
<path d="M226.379 7.21994H238.209V9.19994H239.799V5.82994H236.509C236.999 5.02994 237.479 4.03995 237.949 2.84995L236.219 2.18994C235.679 3.69994 235.149 4.91994 234.649 5.82994H224.779V9.26994H226.369V7.21994H226.379Z" fill="#003477"/>
<path d="M229.54 4.89972C229.09 4.09972 228.63 3.36973 228.15 2.71973L226.83 3.30972C227.3 3.97972 227.74 4.72972 228.15 5.55972L229.54 4.89972Z" fill="#003477"/>
</svg>
