<svg width="282" height="32" viewBox="0 0 282 32" fill="none" xmlns="http://www.w3.org/2000/svg">
<path d="M42.4003 31.24H35.0703V0H42.4003V0.25H35.3203V30.99H42.4003V31.24Z" fill="#231815"/>
<path d="M245.619 31.24H238.289V30.99H245.369V0.25H238.289V0H245.619V31.24Z" fill="#231815"/>
<path d="M71.7503 18.19H72.7703V10.97H74.7003V10.04H69.8203V10.97H71.7503V18.19Z" fill="#003477"/>
<path d="M76.5395 14.28H80.4195V18.19H81.4395V10.04H80.4195V13.33H76.5395V10.04H75.5195V18.19H76.5395V14.28Z" fill="#003477"/>
<path d="M87.3898 17.26H84.0298V14.18H87.2898V13.25H84.0298V10.97H87.3898V10.04H83.0098V18.19H87.3898V17.26Z" fill="#003477"/>
<path d="M92.9104 14.28H96.7904V18.19H97.8104V10.04H96.7904V13.33H92.9104V10.04H91.9004V18.19H92.9104V14.28Z" fill="#003477"/>
<path d="M103.081 9.87012C100.741 9.87012 98.8105 11.7801 98.8105 14.1201C98.8105 16.4601 100.721 18.3701 103.081 18.3701C105.441 18.3701 107.351 16.5401 107.351 14.1201C107.351 11.7001 105.421 9.87012 103.081 9.87012V9.87012ZM103.081 17.4101C101.321 17.4101 99.8306 15.9701 99.8306 14.1101C99.8306 12.2501 101.171 10.8101 103.081 10.8101C104.991 10.8101 106.331 12.3101 106.331 14.1101C106.331 15.9101 104.841 17.4101 103.081 17.4101Z" fill="#003477"/>
<path d="M114.46 16.0599L108.35 9.6499V18.1899H109.36V12.1199L115.48 18.5299V10.0399H114.46V16.0599Z" fill="#003477"/>
<path d="M121.231 15.0201H123.341C123.301 16.3501 121.941 17.4401 120.671 17.4401C118.911 17.4401 117.501 15.8201 117.501 14.1101C117.501 12.2801 118.931 10.8001 120.751 10.8001C121.741 10.8001 122.731 11.3301 123.311 12.1301L124.021 11.4501C123.221 10.4401 121.971 9.87012 120.701 9.87012C118.361 9.87012 116.471 11.7901 116.471 14.1401C116.471 16.4901 118.311 18.3701 120.591 18.3701C122.871 18.3701 124.451 16.6501 124.451 14.4101V14.0901H121.221V15.0201H121.231Z" fill="#003477"/>
<path d="M129.821 14.79L130.231 14.4L133.301 18.19H134.681L130.951 13.71L134.611 10.04H133.281L129.821 13.58V10.04H128.811V18.19H129.821V14.79Z" fill="#003477"/>
<path d="M139.1 9.87012C136.76 9.87012 134.83 11.7801 134.83 14.1201C134.83 16.4601 136.74 18.3701 139.1 18.3701C141.46 18.3701 143.37 16.5401 143.37 14.1201C143.37 11.7001 141.44 9.87012 139.1 9.87012V9.87012ZM139.1 17.4101C137.34 17.4101 135.85 15.9701 135.85 14.1101C135.85 12.2501 137.19 10.8101 139.1 10.8101C141.01 10.8101 142.35 12.3101 142.35 14.1101C142.35 15.9101 140.86 17.4101 139.1 17.4101Z" fill="#003477"/>
<path d="M145.379 12.1199L151.489 18.5299V10.0399H150.479V16.0599L144.359 9.6499V18.1899H145.379V12.1199Z" fill="#003477"/>
<path d="M157.24 15.0201H159.35C159.31 16.3501 157.95 17.4401 156.68 17.4401C154.92 17.4401 153.52 15.8201 153.52 14.1101C153.52 12.2801 154.95 10.8001 156.77 10.8001C157.76 10.8001 158.75 11.3301 159.33 12.1301L160.04 11.4501C159.24 10.4401 157.99 9.87012 156.72 9.87012C154.37 9.87012 152.49 11.7901 152.49 14.1401C152.49 16.4901 154.33 18.3701 156.61 18.3701C158.89 18.3701 160.47 16.6501 160.47 14.4101V14.0901H157.24V15.0201V15.0201Z" fill="#003477"/>
<path d="M170.64 15.2V10.04H169.63V14.85C169.63 16.18 169.23 17.41 167.66 17.41C166.09 17.41 165.69 16.18 165.69 14.85V10.04H164.67V15.2C164.67 16.99 165.78 18.37 167.65 18.37C169.52 18.37 170.63 17 170.63 15.2H170.64Z" fill="#003477"/>
<path d="M173.081 12.1199L179.201 18.5299V10.0399H178.181V16.0599L172.061 9.6499V18.1899H173.081V12.1199Z" fill="#003477"/>
<path d="M181.741 10.04H180.721V18.19H181.741V10.04Z" fill="#003477"/>
<path d="M188.48 10.04L186.06 16.07L183.63 10.04H182.51L186.06 18.62L189.59 10.04H188.48Z" fill="#003477"/>
<path d="M194.771 17.26H191.411V14.18H194.671V13.25H191.411V10.97H194.771V10.04H190.391V18.19H194.771V17.26Z" fill="#003477"/>
<path d="M197.151 14.75H197.571L199.971 18.2H201.201L198.631 14.65C199.811 14.51 200.591 13.54 200.591 12.37C200.591 11.59 200.201 10.82 199.521 10.42C198.871 10.05 198.091 10.04 197.371 10.04H196.141V18.19H197.161V14.74L197.151 14.75ZM197.151 10.96H197.421C198.431 10.96 199.641 11.14 199.641 12.42C199.641 13.7 198.521 13.91 197.481 13.91H197.151V10.96Z" fill="#003477"/>
<path d="M204.28 17.4099C203.4 17.4099 202.69 16.7599 202.7 15.8599L201.67 16.0799C201.84 17.3899 202.87 18.3599 204.19 18.3599C205.65 18.3599 206.8 17.2999 206.8 15.8199C206.8 14.4599 205.94 13.8199 204.78 13.3699L204.2 13.1399C203.69 12.9399 203.07 12.6099 203.07 11.9699C203.07 11.2599 203.78 10.8099 204.43 10.8099C205.08 10.8099 205.44 11.0699 205.74 11.5799L206.55 11.0899C206.11 10.2999 205.36 9.85986 204.45 9.85986C203.22 9.85986 202.05 10.6499 202.05 11.9699C202.05 13.1099 202.89 13.6299 203.82 14.0399L204.38 14.2799C205.08 14.5699 205.79 14.9499 205.79 15.8299C205.79 16.7099 205.16 17.4199 204.29 17.4199L204.28 17.4099Z" fill="#003477"/>
<path d="M209.01 10.04H207.99V18.19H209.01V10.04Z" fill="#003477"/>
<path d="M209.881 10.97H211.811V18.19H212.831V10.97H214.761V10.04H209.881V10.97Z" fill="#003477"/>
<path d="M218 13.52L216 10.04H214.83L217.49 14.65V18.19H218.5V14.65L221.16 10.04H219.99L218 13.52Z" fill="#003477"/>
<path d="M228.901 9.87012C226.571 9.87012 224.631 11.7801 224.631 14.1201C224.631 16.4601 226.541 18.3701 228.901 18.3701C231.261 18.3701 233.171 16.5401 233.171 14.1201C233.171 11.7001 231.241 9.87012 228.901 9.87012V9.87012ZM228.901 17.4101C227.141 17.4101 225.641 15.9701 225.641 14.1101C225.641 12.2501 226.981 10.8101 228.901 10.8101C230.821 10.8101 232.151 12.3101 232.151 14.1101C232.151 15.9101 230.661 17.4101 228.901 17.4101Z" fill="#003477"/>
<path d="M238.2 10.97V10.04H234.25V18.19H235.27V14.19H238.1V13.26H235.27V10.97H238.2Z" fill="#003477"/>
<path d="M73.2406 26.3398L72.6606 26.1098C72.1506 25.9198 71.5306 25.5798 71.5306 24.9398C71.5306 24.2298 72.2406 23.7798 72.8906 23.7798C73.5406 23.7798 73.8906 24.0398 74.2006 24.5498L75.0106 24.0698C74.5706 23.2798 73.8206 22.8398 72.9106 22.8398C71.6806 22.8398 70.5106 23.6298 70.5106 24.9498C70.5106 26.0898 71.3506 26.6198 72.2806 27.0198L72.8406 27.2598C73.5406 27.5498 74.2506 27.9298 74.2506 28.8098C74.2506 29.6898 73.6206 30.3998 72.7506 30.3998C71.8806 30.3998 71.1606 29.7498 71.1706 28.8498L70.1406 29.0698C70.3106 30.3798 71.3406 31.3498 72.6606 31.3498C74.1206 31.3498 75.2706 30.2898 75.2706 28.8098C75.2706 27.4498 74.4106 26.8098 73.2506 26.3598L73.2406 26.3398Z" fill="#003477"/>
<path d="M76.0293 27.1298C76.0293 29.4898 77.9493 31.3398 80.2793 31.3398C80.9893 31.3398 81.7893 31.1298 82.4193 30.7698V29.5698C81.8193 30.1098 81.0493 30.4098 80.2493 30.4098C78.4293 30.4098 77.0493 28.8898 77.0493 27.0998C77.0493 25.3098 78.4393 23.7698 80.2693 23.7698C81.0393 23.7698 81.8393 24.0498 82.4193 24.5698V23.3898C81.7993 23.0098 81.0793 22.8398 80.3693 22.8398C77.9693 22.8398 76.0393 24.7198 76.0393 27.1298H76.0293Z" fill="#003477"/>
<path d="M84.7309 23.0098H83.7109V31.1598H84.7309V23.0098Z" fill="#003477"/>
<path d="M86.3496 31.1598H90.7296V30.2298H87.3696V27.1498H90.6296V26.2198H87.3696V23.9398H90.7296V23.0098H86.3496V31.1598Z" fill="#003477"/>
<path d="M98.1102 29.0301L91.9902 22.6201V31.1601H93.0102V25.0901L99.1302 31.4901V23.0101H98.1102V29.0301Z" fill="#003477"/>
<path d="M100.23 27.1298C100.23 29.4898 102.15 31.3398 104.48 31.3398C105.19 31.3398 105.99 31.1298 106.62 30.7698V29.5698C106.01 30.1098 105.25 30.4098 104.45 30.4098C102.63 30.4098 101.25 28.8898 101.25 27.0998C101.25 25.3098 102.64 23.7698 104.47 23.7698C105.24 23.7698 106.04 24.0498 106.62 24.5698V23.3898C106 23.0098 105.28 22.8398 104.57 22.8398C102.17 22.8398 100.24 24.7198 100.24 27.1298H100.23Z" fill="#003477"/>
<path d="M107.939 31.1598H112.309V30.2298H108.949V27.1498H112.219V26.2198H108.949V23.9398H112.309V23.0098H107.939V31.1598Z" fill="#003477"/>
<path d="M116.039 31.1602H117.129L118.059 29.1202H121.799L122.729 31.1602H123.819L119.929 22.6602L116.039 31.1602V31.1602ZM118.479 28.1902L119.929 24.8902L121.379 28.1902H118.479Z" fill="#003477"/>
<path d="M130.63 29.0301L124.52 22.6201V31.1601H125.53V25.0901L131.65 31.4901V23.0101H130.63V29.0301Z" fill="#003477"/>
<path d="M134.811 23.0098H133.131V31.1598H134.781C137.351 31.1598 139.381 29.8198 139.381 27.0398C139.381 24.2598 137.301 23.0098 134.811 23.0098ZM134.501 30.2298H134.141V23.9398H134.501C136.581 23.9398 138.371 24.7098 138.371 27.0898C138.371 29.4698 136.581 30.2398 134.501 30.2398V30.2298Z" fill="#003477"/>
<path d="M142.98 23.9398H144.91V31.1598H145.93V23.9398H147.86V23.0098H142.98V23.9398Z" fill="#003477"/>
<path d="M148.77 31.1598H153.15V30.2298H149.78V27.1498H153.05V26.2198H149.78V23.9398H153.15V23.0098H148.77V31.1598Z" fill="#003477"/>
<path d="M154.061 27.1298C154.061 29.4898 155.981 31.3398 158.311 31.3398C159.021 31.3398 159.831 31.1298 160.451 30.7698V29.5698C159.851 30.1098 159.081 30.4098 158.281 30.4098C156.461 30.4098 155.081 28.8898 155.081 27.0998C155.081 25.3098 156.481 23.7698 158.301 23.7698C159.071 23.7698 159.871 24.0498 160.451 24.5698V23.3898C159.831 23.0098 159.111 22.8398 158.401 22.8398C156.001 22.8398 154.071 24.7198 154.071 27.1298H154.061Z" fill="#003477"/>
<path d="M166.57 26.2998H162.69V23.0098H161.67V31.1598H162.69V27.2498H166.57V31.1598H167.59V23.0098H166.57V26.2998Z" fill="#003477"/>
<path d="M175.19 29.0301L169.07 22.6201V31.1601H170.08V25.0901L176.2 31.4901V23.0101H175.19V29.0301Z" fill="#003477"/>
<path d="M181.45 22.8398C179.11 22.8398 177.18 24.7498 177.18 27.0898C177.18 29.4298 179.09 31.3398 181.45 31.3398C183.81 31.3398 185.72 29.5098 185.72 27.0898C185.72 24.6698 183.79 22.8398 181.45 22.8398ZM181.45 30.3798C179.69 30.3798 178.19 28.9398 178.19 27.0798C178.19 25.2198 179.53 23.7798 181.45 23.7798C183.37 23.7798 184.7 25.2798 184.7 27.0798C184.7 28.8798 183.21 30.3798 181.45 30.3798Z" fill="#003477"/>
<path d="M187.831 23.0098H186.811V31.1598H190.301V30.2298H187.831V23.0098Z" fill="#003477"/>
<path d="M194.78 22.8398C192.45 22.8398 190.51 24.7498 190.51 27.0898C190.51 29.4298 192.42 31.3398 194.78 31.3398C197.14 31.3398 199.05 29.5098 199.05 27.0898C199.05 24.6698 197.11 22.8398 194.78 22.8398ZM194.78 30.3798C193.02 30.3798 191.53 28.9398 191.53 27.0798C191.53 25.2198 192.87 23.7798 194.78 23.7798C196.69 23.7798 198.04 25.2798 198.04 27.0798C198.04 28.8798 196.55 30.3798 194.78 30.3798Z" fill="#003477"/>
<path d="M204.34 27.9801H206.45C206.41 29.3101 205.05 30.4001 203.78 30.4001C202.02 30.4001 200.61 28.7801 200.61 27.0701C200.61 25.2401 202.04 23.7601 203.86 23.7601C204.86 23.7601 205.84 24.2901 206.42 25.0901L207.13 24.4101C206.33 23.4001 205.08 22.8301 203.81 22.8301C201.46 22.8301 199.59 24.7501 199.59 27.1001C199.59 29.4501 201.43 31.3301 203.7 31.3301C205.97 31.3301 207.56 29.6101 207.56 27.3701V27.0501H204.33V27.9801H204.34Z" fill="#003477"/>
<path d="M211 26.4898L209 23.0098H207.84L210.5 27.6098V31.1598H211.51V27.6098L214.17 23.0098H213L211 26.4898Z" fill="#003477"/>
<path d="M58.6492 6.42992C58.7992 6.23992 58.8492 5.91992 58.8492 5.91992H49.9492C49.9492 5.91992 50.0592 6.28992 50.1492 6.42992H58.6492V6.42992Z" fill="#AA8420"/>
<path d="M58.1305 7.19C58.3005 7.04 58.4605 6.75 58.4605 6.75H50.3105C50.3105 6.75 50.4005 6.97 50.6005 7.19H58.1205H58.1305Z" fill="#AA8420"/>
<path d="M57.4906 7.87004C57.6906 7.76004 57.8606 7.54004 57.8606 7.54004H50.8906C50.8906 7.54004 51.0606 7.72004 51.2206 7.87004H57.4906V7.87004Z" fill="#AA8420"/>
<path d="M56.6799 8.51977C56.8799 8.43977 57.0999 8.25977 57.0999 8.25977H51.6699C51.6699 8.25977 51.6699 8.29977 52.0499 8.51977H56.6799V8.51977Z" fill="#AA8420"/>
<path d="M52.6797 8.91992C52.6797 8.91992 53.2497 9.25992 54.3797 9.25992C55.5097 9.25992 56.2197 8.91992 56.2197 8.91992H52.6797V8.91992Z" fill="#AA8420"/>
<path d="M52.5891 9.68018C52.5891 9.68018 53.2691 9.71018 53.6791 10.0302C54.0691 10.3602 54.3591 10.9102 54.3591 10.9102C54.3591 10.9102 54.5991 10.3802 54.9891 10.1002C55.3791 9.80018 55.9991 9.68018 55.9991 9.68018H63.0191L64.3991 11.7302H58.0891C58.0891 11.7302 57.6491 11.7502 56.9891 12.1302C56.6391 12.3302 56.3791 12.6802 56.3791 12.6802C56.3791 12.6802 56.3191 12.8402 56.2491 12.9402C56.1791 13.0402 56.1191 13.1102 56.0291 13.1402C55.9391 13.1802 55.9591 13.1602 55.9591 13.1602H52.6791C52.6791 13.1602 52.5491 13.1102 52.4791 13.0002C52.4091 12.8902 52.4591 12.9302 52.3891 12.8402C52.3391 12.7502 52.2091 12.5102 51.7091 12.1802C51.1991 11.8402 50.6991 11.8102 50.6991 11.8102H44.2891L45.6891 9.69018H52.6091L52.5891 9.68018Z" fill="#003477"/>
<path d="M47.6191 12.5698V23.0398C47.6191 23.0398 47.6591 23.9598 48.4291 25.2098C49.1991 26.4698 50.3291 27.0398 50.3291 27.0398L51.2191 25.6598C51.2191 25.6598 50.4491 25.1998 49.8591 24.3098C49.2891 23.4198 49.2891 22.6698 49.2891 22.6698V12.5698H47.6291H47.6191Z" fill="#003477"/>
<path d="M59.4991 12.54V22.64C59.4991 22.64 59.3691 23.65 58.8891 24.37C58.4091 25.11 57.6191 25.7 57.6191 25.7L58.4691 27.06C58.4691 27.06 59.7591 26.12 60.3891 25.13C61.0191 24.13 61.1691 22.64 61.1691 22.64V12.54H59.5091H59.4991Z" fill="#003477"/>
<path d="M44.9902 12.5698V23.0798C44.9902 23.0798 45.1002 24.6998 46.1102 26.3998C47.1302 28.0898 48.9702 29.2698 48.9702 29.2698L49.8402 27.8898C49.8402 27.8898 48.6602 27.2698 47.7202 25.8298C46.7602 24.3698 46.7102 23.0398 46.7102 23.0398V12.5698H44.9902Z" fill="#003477"/>
<path d="M52.5895 13.6802V24.7802C52.5895 24.7802 52.5495 24.8202 52.5295 24.9802C52.5095 25.1402 52.3995 25.2602 52.3995 25.2602L48.6895 31.4002H60.0495L56.3395 25.1302L56.2295 24.8502L56.1895 24.5502V13.7002H54.8095V24.9702C54.8095 24.9702 54.8095 25.1302 54.8695 25.2602C54.8995 25.3902 54.9795 25.5902 54.9795 25.5902L57.2595 29.3502H51.4695L53.7195 25.6102C53.7195 25.6102 53.7895 25.4802 53.8495 25.3002C53.8895 25.1302 53.8995 24.9702 53.8995 24.9702V13.6802H52.5795H52.5895Z" fill="#AA8420"/>
<path d="M62.0607 12.54V22.86C62.0607 22.86 62.0407 24.19 61.0707 25.72C60.0907 27.25 58.9707 27.89 58.9707 27.89L59.8007 29.29C59.8007 29.29 61.4907 28.22 62.5607 26.53C63.6107 24.83 63.7407 22.86 63.7407 22.86V12.54H62.0607V12.54Z" fill="#003477"/>
<path d="M49.8891 5.62C49.8891 5.62 49.3191 2.5 51.6091 0.95C51.6091 0.96 52.6391 0 54.3191 0C56.1091 0 57.1391 0.94 57.1391 0.94C59.6291 2.76 58.8891 5.62 58.8891 5.62H49.8891V5.62Z" fill="#AA8420"/>
<path d="M0 8.14014H2.56C3.22 8.14014 3.73 8.30014 4.1 8.62014C4.47 8.94014 4.65 9.38014 4.65 9.93014C4.65 10.4801 4.46 10.9301 4.09 11.2501C3.72 11.5701 3.2 11.7301 2.55 11.7301H0.74V14.5501H0V8.14014V8.14014ZM2.49 11.1201C2.96 11.1201 3.32 11.0201 3.56 10.8101C3.8 10.6101 3.92 10.3101 3.92 9.93014C3.92 9.55014 3.8 9.25014 3.56 9.05014C3.32 8.85014 2.96 8.75014 2.49 8.75014H0.74V11.1201H2.5H2.49Z" fill="#231815"/>
<path d="M10.8891 14.5499H10.1091L9.31914 12.4199C9.21914 12.1599 9.08914 11.9799 8.91914 11.8899C8.74914 11.7999 8.50914 11.7599 8.19914 11.7599H6.59914V14.5599H5.86914V8.1499H8.41914C9.10914 8.1499 9.63914 8.2999 10.0091 8.6099C10.3791 8.9199 10.5591 9.3599 10.5591 9.9299C10.5591 10.3499 10.4491 10.6999 10.2291 10.9899C10.0091 11.2799 9.68914 11.4799 9.27914 11.5999C9.46914 11.6299 9.61914 11.7099 9.75914 11.8399C9.88914 11.9699 9.99914 12.1499 10.0891 12.3899L10.8991 14.5599L10.8891 14.5499ZM8.33914 11.1399C9.31914 11.1399 9.81914 10.7399 9.81914 9.9299C9.81914 9.5299 9.69914 9.2399 9.45914 9.0399C9.21914 8.8499 8.84914 8.7499 8.33914 8.7499H6.58914V11.1299H8.33914V11.1399Z" fill="#231815"/>
<path d="M12.0996 8.14014H12.8396V14.5501H12.0996V8.14014Z" fill="#231815"/>
<path d="M19.5599 8.14014V14.5501H18.9799L15.1099 9.39014V14.5501H14.4199V8.14014H14.9899L18.8599 13.3001V8.14014H19.5599Z" fill="#231815"/>
<path d="M22.6792 8.77014H20.4492V8.14014H25.6592V8.77014H23.4292V14.5501H22.6792V8.77014Z" fill="#231815"/>
<path d="M25.9805 13.8101L26.2605 13.2401C26.5805 13.5101 26.9005 13.7001 27.2305 13.8201C27.5605 13.9301 27.9405 13.9901 28.3805 13.9901C28.9005 13.9901 29.2905 13.8901 29.5705 13.6901C29.8505 13.4901 29.9905 13.2101 29.9905 12.8401C29.9905 12.6201 29.9205 12.4501 29.7905 12.3101C29.6505 12.1801 29.4805 12.0701 29.2605 11.9901C29.0405 11.9101 28.7505 11.8301 28.3805 11.7501C27.8905 11.6401 27.4805 11.5201 27.1705 11.4001C26.8505 11.2701 26.5905 11.0901 26.4005 10.8601C26.2005 10.6201 26.1005 10.3101 26.1005 9.93008C26.1005 9.55008 26.2005 9.24008 26.3905 8.96008C26.5805 8.68008 26.8505 8.46008 27.2005 8.31008C27.5505 8.16008 27.9605 8.08008 28.4305 8.08008C28.9005 8.08008 29.2905 8.15008 29.6705 8.29008C30.0505 8.43008 30.3805 8.63008 30.6405 8.89008L30.3505 9.46008C30.0505 9.20008 29.7505 9.01008 29.4405 8.89008C29.1305 8.77008 28.7905 8.71008 28.4305 8.71008C27.9305 8.71008 27.5405 8.82008 27.2605 9.03008C26.9805 9.24008 26.8405 9.53008 26.8405 9.91008C26.8405 10.2301 26.9605 10.4801 27.2105 10.6401C27.4605 10.8001 27.8305 10.9401 28.3405 11.0601C28.8905 11.1901 29.3305 11.3101 29.6405 11.4201C29.9505 11.5301 30.2205 11.7001 30.4305 11.9201C30.6405 12.1501 30.7405 12.4401 30.7405 12.8201C30.7405 13.2001 30.6405 13.5001 30.4505 13.7701C30.2605 14.0401 29.9805 14.2501 29.6305 14.4001C29.2705 14.5501 28.8505 14.6301 28.3705 14.6301C27.3705 14.6301 26.5705 14.3601 25.9805 13.8201V13.8101Z" fill="#231815"/>
<path d="M10.1302 23.5401C10.3902 23.8501 10.5102 24.2201 10.5102 24.6601C10.5102 25.2701 10.2802 25.7401 9.82016 26.0901C9.36016 26.4401 8.74016 26.6201 7.96016 26.6201C7.18016 26.6201 6.56016 26.4401 6.10016 26.0901C5.64016 25.7401 5.41016 25.2601 5.41016 24.6601C5.41016 24.2301 5.54016 23.8501 5.81016 23.5401C6.07016 23.2301 6.43016 23.0101 6.89016 22.8901C6.46016 22.7601 6.14016 22.5601 5.91016 22.2701C5.68016 21.9801 5.57016 21.6401 5.57016 21.2501C5.57016 20.8601 5.67016 20.5401 5.87016 20.2501C6.07016 19.9701 6.35016 19.7501 6.71016 19.5901C7.07016 19.4301 7.49016 19.3501 7.96016 19.3501C8.43016 19.3501 8.84016 19.4301 9.21016 19.5901C9.57016 19.7501 9.86016 19.9701 10.0502 20.2501C10.2502 20.5301 10.3502 20.8601 10.3502 21.2501C10.3502 21.6401 10.2302 21.9801 10.0002 22.2701C9.77016 22.5601 9.45016 22.7701 9.04016 22.8901C9.51016 23.0201 9.87016 23.2301 10.1202 23.5501L10.1302 23.5401ZM9.25016 25.5901C9.55016 25.3601 9.70016 25.0301 9.70016 24.6001C9.70016 24.2101 9.54016 23.8901 9.22016 23.6601C8.90016 23.4201 8.48016 23.2801 7.95016 23.2201C7.42016 23.2701 7.00016 23.4201 6.68016 23.6601C6.36016 23.9001 6.20016 24.2101 6.20016 24.6001C6.20016 25.0301 6.35016 25.3601 6.65016 25.5901C6.95016 25.8201 7.38016 25.9301 7.94016 25.9301C8.50016 25.9301 8.93016 25.8201 9.23016 25.5901H9.25016ZM6.81016 22.2101C7.09016 22.4501 7.48016 22.5901 7.96016 22.6501C8.44016 22.6001 8.82016 22.4501 9.11016 22.2101C9.39016 21.9701 9.53016 21.6701 9.53016 21.2901C9.53016 20.9101 9.39016 20.5901 9.11016 20.3601C8.83016 20.1301 8.45016 20.0201 7.96016 20.0201C7.47016 20.0201 7.08016 20.1301 6.81016 20.3601C6.53016 20.5901 6.39016 20.9001 6.39016 21.2901C6.39016 21.6801 6.53016 21.9801 6.81016 22.2101Z" fill="#AA8420"/>
<path d="M21.6093 23.3899V26.5499H20.7993V23.4299C20.7993 22.9599 20.7193 22.6099 20.5493 22.3999C20.3893 22.1899 20.1193 22.0799 19.7593 22.0799C19.3293 22.0799 18.9993 22.2199 18.7593 22.5099C18.5193 22.7999 18.3993 23.1899 18.3993 23.6799V26.5499H17.5893V23.4299C17.5893 22.9599 17.5093 22.6199 17.3393 22.4099C17.1693 22.1899 16.9093 22.0799 16.5393 22.0799C16.1093 22.0799 15.7793 22.2199 15.5393 22.5099C15.2993 22.7999 15.1693 23.1899 15.1693 23.6799V26.5499H14.3593V22.9299C14.3593 22.4099 14.3293 21.9399 14.2793 21.5199H15.0493L15.1293 22.3999C15.2693 22.0799 15.4793 21.8299 15.7493 21.6599C16.0293 21.4899 16.3493 21.3999 16.7193 21.3999C17.1193 21.3999 17.4493 21.4799 17.6993 21.6399C17.9493 21.7999 18.1393 22.0499 18.2593 22.3799C18.4093 22.0799 18.6393 21.8399 18.9293 21.6699C19.2293 21.4899 19.5593 21.3999 19.9293 21.3999C21.0393 21.3999 21.5993 22.0599 21.5993 23.3899H21.6093Z" fill="#AA8420"/>
<path d="M30.4003 23.3899V26.5499H29.5903V23.4299C29.5903 22.9599 29.5103 22.6099 29.3403 22.3999C29.1803 22.1899 28.9103 22.0799 28.5503 22.0799C28.1203 22.0799 27.7903 22.2199 27.5503 22.5099C27.3103 22.7999 27.1903 23.1899 27.1903 23.6799V26.5499H26.3803V23.4299C26.3803 22.9599 26.3003 22.6199 26.1303 22.4099C25.9603 22.1899 25.7003 22.0799 25.3303 22.0799C24.9003 22.0799 24.5703 22.2199 24.3303 22.5099C24.0903 22.7999 23.9603 23.1899 23.9603 23.6799V26.5499H23.1503V22.9299C23.1503 22.4099 23.1203 21.9399 23.0703 21.5199H23.8403L23.9203 22.3999C24.0603 22.0799 24.2703 21.8299 24.5403 21.6599C24.8203 21.4899 25.1403 21.3999 25.5103 21.3999C25.9103 21.3999 26.2403 21.4799 26.4903 21.6399C26.7403 21.7999 26.9303 22.0499 27.0503 22.3799C27.2003 22.0799 27.4303 21.8399 27.7203 21.6699C28.0203 21.4899 28.3503 21.3999 28.7203 21.3999C29.8303 21.3999 30.3903 22.0599 30.3903 23.3899H30.4003Z" fill="#AA8420"/>
<path d="M251.341 12.8001C250.901 12.5401 250.561 12.1601 250.331 11.6601C250.091 11.1701 249.971 10.5801 249.971 9.92014C249.971 9.26014 250.091 8.67014 250.321 8.17014C250.551 7.68014 250.891 7.30014 251.331 7.04014C251.771 6.78014 252.291 6.64014 252.891 6.64014C253.491 6.64014 254.011 6.77014 254.451 7.04014C254.891 7.31014 255.221 7.68014 255.461 8.17014C255.701 8.66014 255.811 9.24014 255.811 9.91014C255.811 10.5801 255.691 11.1601 255.451 11.6601C255.211 12.1501 254.881 12.5301 254.441 12.8001C254.001 13.0701 253.491 13.2001 252.891 13.2001C252.291 13.2001 251.781 13.0701 251.341 12.8001V12.8001ZM254.471 11.8701C254.851 11.4101 255.041 10.7501 255.041 9.91014C255.041 9.07014 254.851 8.41014 254.481 7.96014C254.111 7.51014 253.581 7.28014 252.891 7.28014C252.201 7.28014 251.671 7.51014 251.301 7.97014C250.931 8.43014 250.731 9.08014 250.731 9.92014C250.731 10.7601 250.921 11.4201 251.301 11.8801C251.681 12.3401 252.211 12.5701 252.891 12.5701C253.571 12.5701 254.101 12.3401 254.471 11.8801V11.8701Z" fill="#231815"/>
<path d="M262.29 6.70996V13.12H261.71L257.84 7.95996V13.12H257.15V6.70996H257.72L261.59 11.87V6.70996H262.29Z" fill="#231815"/>
<path d="M263.871 6.70996H264.611V12.49H267.821V13.12H263.871V6.70996Z" fill="#231815"/>
<path d="M268.771 6.70996H269.512V13.12H268.771V6.70996Z" fill="#231815"/>
<path d="M276.242 6.70996V13.12H275.662L271.792 7.95996V13.12H271.102V6.70996H271.672L275.542 11.87V6.70996H276.242Z" fill="#231815"/>
<path d="M277.811 6.70996H281.861V7.31996H278.541V9.54996H281.681V10.17H278.541V12.5H281.861V13.11H277.811V6.70996Z" fill="#231815"/>
<path d="M255.09 23.57H254.01V25.12H253.19V23.57H249.91V22.95L253.34 18H254.01V22.89H255.09V23.57ZM253.19 22.89V19.39L250.76 22.89H253.19Z" fill="#AA8420"/>
<path d="M256.56 24.2802C256.14 23.6602 255.92 22.7602 255.92 21.5702C255.92 20.3802 256.13 19.4702 256.56 18.8502C256.98 18.2302 257.6 17.9302 258.41 17.9302C259.22 17.9302 259.84 18.2402 260.26 18.8502C260.68 19.4702 260.9 20.3702 260.9 21.5602C260.9 22.7502 260.69 23.6602 260.26 24.2802C259.84 24.9002 259.22 25.2102 258.41 25.2102C257.6 25.2102 256.98 24.9002 256.56 24.2902V24.2802ZM259.67 23.7902C259.94 23.3102 260.08 22.5602 260.08 21.5502C260.08 20.5402 259.95 19.8002 259.68 19.3302C259.41 18.8602 258.99 18.6202 258.42 18.6202C257.85 18.6202 257.44 18.8602 257.17 19.3302C256.9 19.8002 256.76 20.5402 256.76 21.5502C256.76 22.5602 256.9 23.3002 257.17 23.7902C257.44 24.2802 257.86 24.5102 258.42 24.5102C258.98 24.5102 259.4 24.2702 259.67 23.7902V23.7902Z" fill="#AA8420"/>
<path d="M268.49 20.3002C268.83 20.5202 269.09 20.8302 269.28 21.2302C269.47 21.6302 269.56 22.0802 269.56 22.6102C269.56 23.1402 269.47 23.5802 269.28 23.9702C269.09 24.3602 268.83 24.6602 268.49 24.8802C268.15 25.0902 267.76 25.2002 267.32 25.2002C266.93 25.2002 266.58 25.1102 266.29 24.9402C266 24.7702 265.77 24.5202 265.62 24.2002V27.2902H264.81V21.5102C264.81 20.9902 264.78 20.5202 264.73 20.1002H265.5L265.58 21.0702C265.72 20.7202 265.94 20.4502 266.25 20.2602C266.55 20.0702 266.91 19.9702 267.33 19.9702C267.77 19.9702 268.16 20.0802 268.5 20.3002H268.49ZM268.32 24.0202C268.59 23.6902 268.72 23.2102 268.72 22.6002C268.72 21.9902 268.58 21.5102 268.31 21.1602C268.04 20.8202 267.66 20.6502 267.17 20.6502C266.68 20.6502 266.29 20.8202 266.02 21.1502C265.75 21.4802 265.62 21.9602 265.62 22.5802C265.62 23.2002 265.75 23.6802 266.02 24.0102C266.29 24.3502 266.67 24.5202 267.17 24.5202C267.67 24.5202 268.05 24.3502 268.32 24.0202V24.0202Z" fill="#AA8420"/>
<path d="M275.171 25.1203H274.201L272.611 23.1403L271.041 25.1203H270.051L272.141 22.5303L270.171 20.0903H271.151L272.611 21.9403L274.071 20.0903H275.061L273.101 22.5303L275.171 25.1203V25.1203Z" fill="#AA8420"/>
</svg>
