<svg width="358" height="74" viewBox="0 0 358 74" fill="none" xmlns="http://www.w3.org/2000/svg">
<path d="M97.29 15.0098C97.64 14.5798 97.76 13.7998 97.76 13.7998H77C77 13.7998 77.26 14.6598 77.47 15.0098H97.29V15.0098Z" fill="#A68238"/>
<path d="M96.0796 16.7702C96.4696 16.4302 96.8596 15.7402 96.8596 15.7402H77.8496C77.8496 15.7402 78.0596 16.2602 78.5396 16.7702H96.0796V16.7702Z" fill="#A68238"/>
<path d="M94.5795 18.3601C95.0495 18.1001 95.4395 17.5801 95.4395 17.5801H79.1895C79.1895 17.5801 79.5794 18.0101 79.9594 18.3601H94.5894H94.5795Z" fill="#A68238"/>
<path d="M92.6802 19.87C93.1502 19.69 93.6702 19.27 93.6702 19.27H80.9902C80.9902 19.27 80.9902 19.36 81.8902 19.87H92.6802Z" fill="#A68238"/>
<path d="M83.3496 20.8101C83.3496 20.8101 84.6796 21.5901 87.3096 21.5901C89.9396 21.5901 91.6096 20.8101 91.6096 20.8101H83.3596H83.3496Z" fill="#A68238"/>
<path d="M83.14 22.5798C83.14 22.5798 84.73 22.6598 85.67 23.3898C86.58 24.1698 87.27 25.4498 87.27 25.4498C87.27 25.4498 87.83 24.2098 88.74 23.5598C89.64 22.8698 91.1 22.5698 91.1 22.5698H107.48L110.7 27.3398H95.99C95.99 27.3398 94.96 27.3798 93.41 28.2898C92.59 28.7598 91.99 29.5798 91.99 29.5798C91.99 29.5798 91.87 29.9698 91.69 30.1798C91.52 30.3998 91.39 30.5698 91.18 30.6598C90.96 30.7498 91.01 30.6998 91.01 30.6998H83.35C83.35 30.6998 83.04 30.5798 82.88 30.3098C82.71 30.0498 82.83 30.1398 82.66 29.9298C82.53 29.7198 82.23 29.1498 81.07 28.3798C79.87 27.5998 78.71 27.5198 78.71 27.5198H63.75L67.01 22.5698H83.14V22.5798Z" fill="#003873"/>
<path d="M71.5605 29.3301V53.7501C71.5605 53.7501 71.6505 55.9101 73.4505 58.8301C75.2605 61.7501 77.8805 63.0901 77.8805 63.0901L79.9505 59.8701C79.9505 59.8701 78.1505 58.7901 76.7705 56.7301C75.4405 54.6701 75.4406 52.9001 75.4406 52.9001V29.3401H71.5605V29.3301Z" fill="#003873"/>
<path d="M99.2591 29.2402V52.8002C99.2591 52.8002 98.9591 55.1702 97.8391 56.8402C96.7191 58.5602 94.8691 59.9402 94.8691 59.9402L96.8591 63.1202C96.8591 63.1202 99.8591 60.9302 101.319 58.6102C102.789 56.2902 103.139 52.8002 103.139 52.8002V29.2402H99.2591V29.2402Z" fill="#003873"/>
<path d="M65.4199 29.3301V53.8401C65.4199 53.8401 65.6699 57.6301 68.0399 61.5801C70.4099 65.5301 74.7099 68.2901 74.7099 68.2901L76.7399 65.0701C76.7399 65.0701 73.9899 63.6101 71.7999 60.2501C69.5499 56.8501 69.4399 53.7601 69.4399 53.7601V29.3401H65.4399L65.4199 29.3301Z" fill="#003873"/>
<path d="M83.1403 31.8999V57.7899C83.1403 57.7899 83.0403 57.8799 83.0103 58.2599C82.9603 58.6499 82.7103 58.9099 82.7103 58.9099L74.0703 73.2299H100.56L91.9103 58.6099L91.6503 57.9599L91.5603 57.2799V31.9599H88.3403V58.2399C88.3403 58.2399 88.3403 58.6199 88.4703 58.9199C88.5503 59.2199 88.7303 59.6899 88.7303 59.6899L94.0603 68.4599H80.5603L85.8003 59.7299C85.8003 59.7299 85.9703 59.4299 86.1003 58.9999C86.1903 58.6099 86.2303 58.2299 86.2303 58.2299V31.8999H83.1403V31.8999Z" fill="#A68238"/>
<path d="M105.24 29.24V53.32C105.24 53.32 105.2 56.42 102.92 59.98C100.64 63.55 98.0195 65.06 98.0195 65.06L99.9595 68.32C99.9595 68.32 103.91 65.82 106.41 61.87C108.86 57.91 109.16 53.31 109.16 53.31V29.23H105.24V29.24Z" fill="#003873"/>
<path d="M76.8603 13.11C76.8603 13.11 75.5303 5.85 80.8603 2.23C80.8603 2.23 83.2703 0 87.1803 0C91.3603 0 93.7603 2.19 93.7603 2.19C99.5703 6.44 97.8503 13.11 97.8503 13.11H76.8703H76.8603Z" fill="#A68238"/>
<path d="M121.28 10.1299C121.93 9.90986 122.39 9.73986 122.66 9.62986V16.5999H124.17V15.8499H132.16V16.5999H133.67V9.54986C133.89 9.66986 134.13 9.76986 134.39 9.83986C134.65 9.90986 134.89 9.99986 135.1 10.0999L135.82 8.61986C133.48 8.14986 131.69 7.31986 130.46 6.12986H135.69V4.77986H128.84V3.41986C131.03 3.23986 132.85 2.98986 134.33 2.68986L133.63 1.35986C131.41 1.85986 128.14 2.10986 123.83 2.10986C122.92 2.10986 122.16 2.09986 121.54 2.07986L122.08 3.56986C123.14 3.56986 124.89 3.53986 127.32 3.46986V4.78986H120.65V6.13986H125.67C124.21 7.35986 122.49 8.20986 120.52 8.68986L121.3 10.1399L121.28 10.1299ZM132.15 14.4999H124.16V13.0699H132.15V14.4999ZM128.82 6.16986C129.84 7.51986 131.17 8.51986 132.83 9.17986H128.82V6.16986ZM132.15 10.5399V11.7799H124.16V10.5399H132.15ZM127.29 6.18986V9.17986H123.59C125.12 8.52986 126.35 7.52986 127.29 6.18986Z" fill="#003873"/>
<path d="M144.729 11.5502L143.319 10.7202C142.969 12.2602 142.319 13.7002 141.369 15.0602L142.669 16.3902C143.599 14.9202 144.289 13.3002 144.729 11.5502V11.5502Z" fill="#003873"/>
<path d="M145.31 3.59994V4.47994H147.47V6.09994H144.98V7.45994H147.58C147.1 8.47994 145.97 9.38994 144.17 10.2099L145.1 11.5799C145.82 11.1199 146.32 10.7799 146.59 10.5599V14.1999C146.59 14.9399 146.72 15.4399 147 15.7099C147.28 15.9699 147.77 16.0999 148.46 16.0999H153.72C154.55 16.0999 155.11 15.9499 155.39 15.6599C155.68 15.3599 155.92 14.4499 156.09 12.9499L154.53 12.3799C154.45 13.2399 154.37 13.8399 154.29 14.1799C154.2 14.5199 153.93 14.6799 153.48 14.6799H148.66C148.28 14.6799 148.09 14.4899 148.09 14.1099V13.0699H153.32V9.73994C153.97 10.3199 154.79 10.9099 155.79 11.5099L156.49 10.0599C154.74 9.18994 153.64 8.31994 153.21 7.43994H156.31V6.07994H153.39V4.40994H156.07V3.12994H153.39V1.43994H151.92V3.12994H148.96V1.43994H147.48V3.12994H145.32V3.33994C144.68 2.84994 143.9 2.31994 142.98 1.72994L141.91 2.92994C142.64 3.37994 143.44 4.01994 144.33 4.82994L145.32 3.59994H145.31ZM148.95 4.48994H151.91V6.07994H148.95V4.48994ZM149.31 7.44994H151.5C151.8 8.02994 152.13 8.50994 152.49 8.90994H148.35C148.75 8.48994 149.07 7.99994 149.31 7.44994V7.44994ZM148.08 10.1999H151.82V11.7899H148.08V10.1999Z" fill="#003873"/>
<path d="M144.819 7.52996C143.989 6.88996 143.179 6.36996 142.419 5.95996L141.449 7.17996C142.089 7.59996 142.849 8.18996 143.719 8.92996L144.819 7.52996Z" fill="#003873"/>
<path d="M162.99 13.5499C164.05 12.1599 164.79 10.9499 165.2 9.90986V16.5899L166.69 16.5199V8.97986C166.98 9.36986 167.27 9.72986 167.55 10.0699C167.88 10.4399 168.2 10.8499 168.52 11.2999L169.43 9.89986C168.81 9.22986 167.9 8.32986 166.69 7.19986V7.04986H169.16V5.64986H166.69V3.35986C167.54 3.18986 168.36 2.95986 169.14 2.68986L168.59 1.35986C166.85 2.01986 164.76 2.40986 162.34 2.52986L162.68 3.88986C163.78 3.81986 164.63 3.71986 165.2 3.61986V5.64986H162.18V7.04986H165.15C164.47 8.84986 163.44 10.5199 162.08 12.0699L162.99 13.5299V13.5499Z" fill="#003873"/>
<path d="M173.499 8.3999C172.309 7.4899 171.309 6.8199 170.489 6.3999L169.529 7.4899C170.389 7.9999 171.369 8.7199 172.489 9.6499L173.499 8.3999Z" fill="#003873"/>
<path d="M173.809 4.49025C172.529 3.56025 171.539 2.90025 170.839 2.51025L169.869 3.58025C170.619 4.03025 171.589 4.74025 172.789 5.71025L173.809 4.49025Z" fill="#003873"/>
<path d="M168.959 12.95L174.399 12.12V16.59H175.909V11.93L177.369 11.68V10.21L175.909 10.45V1.29004H174.399V10.63L168.959 11.44V12.95Z" fill="#003873"/>
<path d="M182.9 9.85004L183.29 11.61C183.82 11.48 184.55 11.29 185.47 11.06V14.37C185.47 14.73 185.29 14.91 184.93 14.91L183.52 14.86L183.89 16.5H185.18C185.98 16.5 186.5 16.37 186.73 16.11C186.95 15.86 187.06 15.35 187.06 14.58V10.6C187.99 10.29 188.62 10.04 188.96 9.85004V8.26004C188.56 8.46004 187.93 8.69004 187.06 8.97004V6.10004H188.98L189 5.06004H192.49V7.24004H189.27V8.73004H195.72C195.26 10.09 194.47 11.22 193.36 12.09C192.61 11.34 191.87 10.31 191.12 8.99004L189.77 9.53004C190.57 10.99 191.39 12.14 192.22 12.99C190.66 14.04 189.1 14.74 187.55 15.09L188.44 16.57C190 16.25 191.64 15.43 193.35 14.12C194.61 15.27 195.95 16.07 197.38 16.54L198.21 15.01C196.84 14.63 195.62 14 194.54 13.11C195.16 12.57 195.75 11.83 196.31 10.88C196.88 9.94004 197.24 9.18004 197.38 8.59004V7.24004H194.1V5.06004H197.93V3.58004H194.1V1.29004H192.49V3.58004H189V4.62004H187.08V1.29004H185.48V4.62004H183.08V6.10004H185.48V9.36004C184.71 9.57004 183.85 9.73004 182.91 9.85004H182.9Z" fill="#003873"/>
<path d="M203.67 15.0098L204.9 16.5598C208.54 14.1598 210.72 11.0098 211.45 7.09982H211.71C212.79 11.4598 214.8 14.6098 217.72 16.5198L218.97 15.0298C217.36 13.9698 216.09 12.7098 215.17 11.2598C214.25 9.80982 213.67 8.41982 213.42 7.09982L218.62 7.11983V5.39982H211.73C211.82 4.53982 211.86 3.18982 211.86 1.31982H210.15C210.15 3.04982 210.08 4.40982 209.94 5.39982H204.06V7.11983H209.67C209.41 8.64983 208.73 10.1298 207.64 11.5498C206.54 12.9798 205.21 14.1298 203.68 15.0098H203.67Z" fill="#003873"/>
<path d="M231.53 14.7099C231.53 15.0399 231.37 15.1999 231.04 15.1999L228.82 15.1299L229.19 16.4499H231.58C232.56 16.4499 233.06 15.8699 233.06 14.7099V14.0399H239.8V12.7199H233.06C234.46 12.2899 235.63 11.8199 236.59 11.3099V10.1299H227.54V11.3299H234.38C233.23 11.6699 232.28 11.8999 231.54 12.0299V12.7299H224.49V14.0499H231.54V14.7199L231.53 14.7099Z" fill="#003873"/>
<path d="M226.289 9.43018H238.019V11.8202H239.479V8.15018H238.619L238.799 1.73018H234.789V3.01018H237.379L237.359 3.90018H234.969V5.01018H237.329L237.299 5.94018H234.979V7.06017H237.259L237.239 8.15018H227.069L227.039 7.06017H229.479V5.94018H227.009V5.01018H229.479V3.90018H226.939L226.889 3.07018C228.209 2.98018 229.179 2.84018 229.779 2.63018L229.059 1.43018C228.089 1.70018 226.899 1.86018 225.489 1.90018L225.669 8.14017H224.859V11.8102H226.299V9.42018L226.289 9.43018Z" fill="#003873"/>
<path d="M229.67 3.4798L230.5 4.5698C231.22 4.2598 231.86 3.9198 232.4 3.5798C232.52 3.5798 232.8 3.8898 233.23 4.5098L234.22 3.7798C233.86 3.3998 233.57 3.1198 233.36 2.9198C233.76 2.6598 234.08 2.3698 234.32 2.0398L233.51 1.3098C233.31 1.5798 232.98 1.8698 232.52 2.1898C232.09 1.8698 231.66 1.5698 231.23 1.2998L230.35 2.0598C230.82 2.3498 231.19 2.6098 231.46 2.8198C231.18 3.0198 230.58 3.2398 229.67 3.4898V3.4798Z" fill="#003873"/>
<path d="M233.71 4.5C233.29 4.97 232.91 5.3 232.59 5.51C232.34 5.32 232.11 5.15 231.91 5.01C231.74 4.91 231.55 4.79 231.34 4.65L230.5 5.36C231.01 5.72 231.37 5.98 231.59 6.14C231.21 6.37 230.65 6.56 229.9 6.72L230.6 7.81C231.37 7.55 232 7.25 232.5 6.9C232.57 6.9 232.86 7.22 233.36 7.86L234.4 7.06C234.1 6.76 233.79 6.47 233.48 6.2C233.81 5.95 234.18 5.63 234.58 5.23L233.72 4.5H233.71Z" fill="#003873"/>
<path d="M125.289 34.8502V24.2702H128.119V22.9102H120.959V24.2702H123.799V34.8502H125.289Z" fill="#003873"/>
<path d="M130.81 22.9102H129.32V34.8502H130.81V29.1202H136.5V34.8502H137.98V22.9102H136.5V27.7302H130.81V22.9102Z" fill="#003873"/>
<path d="M146.709 33.4902H141.779V28.9802H146.569V27.6102H141.779V24.2702H146.709V22.9102H140.299V34.8502H146.709V33.4902Z" fill="#003873"/>
<path d="M154.799 22.9102H153.309V34.8502H154.799V29.1202H160.479V34.8502H161.969V22.9102H160.479V27.7302H154.799V22.9102Z" fill="#003873"/>
<path d="M169.699 22.6602C166.279 22.6602 163.449 25.4602 163.449 28.8802C163.449 32.3002 166.249 35.1002 169.699 35.1002C173.149 35.1002 175.959 32.4202 175.959 28.8802C175.959 25.3402 173.119 22.6602 169.699 22.6602ZM169.699 33.7102C167.119 33.7102 164.929 31.6102 164.929 28.8802C164.929 26.1502 166.889 24.0502 169.699 24.0502C172.509 24.0502 174.469 26.2502 174.469 28.8802C174.469 31.5102 172.279 33.7102 169.699 33.7102Z" fill="#003873"/>
<path d="M178.9 25.9498L187.86 35.3398V22.9098H186.37V31.7298L177.41 22.3398V34.8498H178.9V25.9498Z" fill="#003873"/>
<path d="M189.33 28.9099C189.33 32.2199 192.02 35.0999 195.37 35.0999C198.72 35.0999 201.02 32.5799 201.02 29.2999V28.8299H196.28V30.1899H199.37C199.3 32.1399 197.31 33.7399 195.46 33.7399C192.88 33.7399 190.82 31.3599 190.82 28.8599C190.82 26.1799 192.91 24.0099 195.59 24.0099C197.05 24.0099 198.49 24.7899 199.34 25.9599L200.38 24.9599C199.21 23.4899 197.37 22.6499 195.52 22.6499C192.09 22.6499 189.33 25.4699 189.33 28.8999V28.9099Z" fill="#003873"/>
<path d="M215.979 34.8502L210.519 28.2802L215.879 22.9102H213.939L208.869 28.0902V22.9102H207.379V34.8502H208.869V29.8602L209.469 29.2902L213.969 34.8502H215.979Z" fill="#003873"/>
<path d="M216.199 28.8802C216.199 32.4302 218.999 35.1002 222.449 35.1002C225.899 35.1002 228.699 32.4202 228.699 28.8802C228.699 25.3402 225.869 22.6602 222.449 22.6602C219.029 22.6602 216.199 25.4602 216.199 28.8802ZM222.449 24.0502C225.249 24.0502 227.219 26.2502 227.219 28.8802C227.219 31.5102 225.029 33.7102 222.449 33.7102C219.869 33.7102 217.679 31.6102 217.679 28.8802C217.679 26.1502 219.649 24.0502 222.449 24.0502Z" fill="#003873"/>
<path d="M239.13 31.7298L230.17 22.3398V34.8498H231.65V25.9498L240.62 35.3398V22.9098H239.13V31.7298Z" fill="#003873"/>
<path d="M248.12 35.0999C251.46 35.0999 253.77 32.5799 253.77 29.2999V28.8299H249.03V30.1899H252.12C252.05 32.1399 250.06 33.7399 248.21 33.7399C245.63 33.7399 243.57 31.3599 243.57 28.8599C243.57 26.1799 245.66 24.0099 248.34 24.0099C249.8 24.0099 251.24 24.7899 252.09 25.9599L253.13 24.9599C251.96 23.4899 250.12 22.6499 248.27 22.6499C244.84 22.6499 242.08 25.4699 242.08 28.8999C242.08 32.3299 244.77 35.0899 248.11 35.0899L248.12 35.0999Z" fill="#003873"/>
<path d="M126.239 54.0999C128.979 54.0999 130.609 52.0899 130.609 49.4599V41.8999H129.119V48.9499C129.119 50.8999 128.529 52.6999 126.239 52.6999C123.949 52.6999 123.359 50.8999 123.359 48.9499V41.8999H121.869V49.4599C121.869 52.0899 123.499 54.0999 126.239 54.0999Z" fill="#003873"/>
<path d="M134.17 44.9498L143.13 54.3398V41.9098H141.64V50.7298L132.68 41.3398V53.8498H134.17V44.9498Z" fill="#003873"/>
<path d="M146.849 41.9102H145.359V53.8502H146.849V41.9102Z" fill="#003873"/>
<path d="M153.18 50.7402L149.62 41.9102H147.99L153.18 54.4802L158.36 41.9102H156.73L153.18 50.7402Z" fill="#003873"/>
<path d="M165.949 52.4902H161.019V47.9702H165.799V46.6102H161.019V43.2702H165.949V41.9102H159.529V53.8502H165.949V52.4902Z" fill="#003873"/>
<path d="M174.459 45.3099C174.459 44.1699 173.889 43.0399 172.889 42.4599C171.939 41.9199 170.799 41.8999 169.739 41.8999H167.939V53.8399H169.429V48.7899H170.049L173.569 53.8399H175.379L171.609 48.6499C173.329 48.4499 174.479 47.0199 174.479 45.3099H174.459ZM169.899 47.5599H169.429V43.2299H169.829C171.299 43.2299 173.079 43.4999 173.079 45.3699C173.079 47.2399 171.429 47.5499 169.909 47.5499L169.899 47.5599Z" fill="#003873"/>
<path d="M179.88 52.7099C178.6 52.7099 177.55 51.7599 177.57 50.4499L176.07 50.7699C176.32 52.6799 177.83 54.1099 179.76 54.1099C181.9 54.1099 183.58 52.5599 183.58 50.3899C183.58 48.3999 182.31 47.4599 180.62 46.7999L179.77 46.4699C179.03 46.1899 178.11 45.6999 178.11 44.7599C178.11 43.7199 179.15 43.0699 180.11 43.0699C181.01 43.0699 181.58 43.4499 182.02 44.1899L183.21 43.4799C182.56 42.3199 181.47 41.6699 180.14 41.6699C178.34 41.6699 176.62 42.8299 176.62 44.7599C176.62 46.4199 177.85 47.1999 179.22 47.7899L180.04 48.1399C181.07 48.5699 182.1 49.1199 182.1 50.3999C182.1 51.6799 181.18 52.7299 179.9 52.7299L179.88 52.7099Z" fill="#003873"/>
<path d="M186.799 41.9102H185.309V53.8502H186.799V41.9102Z" fill="#003873"/>
<path d="M192.4 53.8502V43.2702H195.24V41.9102H188.08V43.2702H190.91V53.8502H192.4Z" fill="#003873"/>
<path d="M197.04 41.9102H195.33L199.23 48.6502V53.8502H200.72V48.6502L204.61 41.9102H202.9L199.97 47.0102L197.04 41.9102Z" fill="#003873"/>
<path d="M215.949 54.1002C219.399 54.1002 222.209 51.4202 222.209 47.8802C222.209 44.3402 219.379 41.6602 215.949 41.6602C212.519 41.6602 209.699 44.4602 209.699 47.8802C209.699 51.3002 212.499 54.1002 215.949 54.1002ZM215.949 43.0502C218.749 43.0502 220.719 45.2502 220.719 47.8802C220.719 50.5102 218.539 52.7102 215.949 52.7102C213.359 52.7102 211.189 50.6102 211.189 47.8802C211.189 45.1502 213.149 43.0502 215.949 43.0502Z" fill="#003873"/>
<path d="M225.279 47.9902H229.419V46.6202H225.279V43.2702H229.569V41.9102H223.789V53.8502H225.279V47.9902Z" fill="#003873"/>
<path d="M240.109 46.7799L239.259 46.4499C238.519 46.1699 237.599 45.6799 237.599 44.7399C237.599 43.6999 238.639 43.0499 239.589 43.0499C240.539 43.0499 241.059 43.4299 241.499 44.1699L242.689 43.4599C242.039 42.2999 240.949 41.6499 239.619 41.6499C237.819 41.6499 236.099 42.8099 236.099 44.7399C236.099 46.3999 237.339 47.1799 238.699 47.7699L239.519 48.1199C240.549 48.5499 241.579 49.0999 241.579 50.3799C241.579 51.6599 240.659 52.7099 239.379 52.7099C238.099 52.7099 237.049 51.7599 237.069 50.4499L235.559 50.7699C235.809 52.6799 237.319 54.1099 239.249 54.1099C241.389 54.1099 243.069 52.5599 243.069 50.3899C243.069 48.3999 241.799 47.4599 240.109 46.7999V46.7799Z" fill="#003873"/>
<path d="M250.399 43.0199C251.519 43.0199 252.699 43.4299 253.549 44.1899V42.4599C252.649 41.8999 251.589 41.6499 250.539 41.6499C247.019 41.6499 244.189 44.4099 244.189 47.9399C244.189 51.4699 247.009 54.0999 250.409 54.0999C251.459 54.0999 252.629 53.7999 253.549 53.2599V51.4999C252.659 52.2899 251.539 52.7399 250.369 52.7399C247.709 52.7399 245.679 50.5099 245.679 47.8899C245.679 45.2699 247.729 43.0099 250.399 43.0099V43.0199Z" fill="#003873"/>
<path d="M256.929 41.9102H255.439V53.8502H256.929V41.9102Z" fill="#003873"/>
<path d="M259.32 53.8502H265.73V52.4902H260.81V47.9702H265.59V46.6102H260.81V43.2702H265.73V41.9102H259.32V53.8502Z" fill="#003873"/>
<path d="M276.54 50.7298L267.58 41.3398V53.8498H269.07V44.9498L278.03 54.3398V41.9098H276.54V50.7298Z" fill="#003873"/>
<path d="M279.65 47.9401C279.65 51.3901 282.47 54.1001 285.87 54.1001C286.91 54.1001 288.09 53.8001 289.01 53.2601V51.5001C288.13 52.2901 287 52.7401 285.83 52.7401C283.17 52.7401 281.14 50.5101 281.14 47.8901C281.14 45.2701 283.18 43.0101 285.86 43.0101C286.98 43.0101 288.15 43.4201 289.01 44.1801V42.4501C288.11 41.8901 287.05 41.6401 286 41.6401C282.48 41.6401 279.65 44.4001 279.65 47.9301V47.9401Z" fill="#003873"/>
<path d="M297.349 43.2702V41.9102H290.939V53.8502H297.349V52.4902H292.419V47.9702H297.209V46.6102H292.419V43.2702H297.349Z" fill="#003873"/>
<path d="M120.799 72.8401H122.399L123.759 69.8501H129.239L130.599 72.8401H132.199L126.499 60.3901L120.799 72.8401V72.8401ZM124.379 68.4901L126.499 63.6601L128.619 68.4901H124.379V68.4901Z" fill="#003873"/>
<path d="M142.179 69.7201L133.219 60.3301V72.8401H134.709V63.9401L143.669 73.3301V60.9001H142.179V69.7201Z" fill="#003873"/>
<path d="M148.29 60.8999H145.82V72.8399H148.24C152.01 72.8399 154.99 70.8799 154.99 66.8099C154.99 62.7399 151.95 60.8999 148.29 60.8999ZM147.83 71.4799H147.31V62.2599H147.83C150.87 62.2599 153.5 63.3799 153.5 66.8699C153.5 70.3599 150.87 71.4799 147.83 71.4799Z" fill="#003873"/>
<path d="M160.26 62.2699H163.1V72.8399H164.58V62.2699H167.42V60.8999H160.26V62.2699Z" fill="#003873"/>
<path d="M168.75 72.8399H175.16V71.4799H170.24V66.9699H175.02V65.6099H170.24V62.2699H175.16V60.8999H168.75V72.8399Z" fill="#003873"/>
<path d="M176.49 66.9399C176.49 70.3899 179.31 73.0999 182.71 73.0999C183.76 73.0999 184.93 72.7999 185.85 72.2599V70.4999C184.96 71.2899 183.84 71.7399 182.67 71.7399C180.01 71.7399 177.98 69.5099 177.98 66.8899C177.98 64.2699 180.02 62.0099 182.7 62.0099C183.82 62.0099 185 62.4199 185.85 63.1799V61.4599C184.95 60.8999 183.88 60.6499 182.84 60.6499C179.32 60.6499 176.49 63.4099 176.49 66.9399Z" fill="#003873"/>
<path d="M194.83 65.7199H189.14V60.8999H187.66V72.8399H189.14V67.1099H194.83V72.8399H196.31V60.8999H194.83V65.7199Z" fill="#003873"/>
<path d="M207.45 69.7201L198.48 60.3301V72.8401H199.97V63.9401L208.93 73.3301V60.9001H207.45V69.7201Z" fill="#003873"/>
<path d="M216.629 60.6499C213.209 60.6499 210.379 63.4499 210.379 66.8699C210.379 70.2899 213.179 73.0899 216.629 73.0899C220.079 73.0899 222.889 70.4099 222.889 66.8699C222.889 63.3299 220.059 60.6499 216.629 60.6499ZM216.629 71.6999C214.049 71.6999 211.869 69.5999 211.869 66.8699C211.869 64.1399 213.829 62.0399 216.629 62.0399C219.429 62.0399 221.399 64.2399 221.399 66.8699C221.399 69.4999 219.209 71.6999 216.629 71.6999Z" fill="#003873"/>
<path d="M225.97 60.8999H224.49V72.8399H229.6V71.4799H225.97V60.8999Z" fill="#003873"/>
<path d="M236.149 60.6499C232.729 60.6499 229.889 63.4499 229.889 66.8699C229.889 70.2899 232.689 73.0899 236.149 73.0899C239.609 73.0899 242.399 70.4099 242.399 66.8699C242.399 63.3299 239.569 60.6499 236.149 60.6499ZM236.149 71.6999C233.569 71.6999 231.379 69.5999 231.379 66.8699C231.379 64.1399 233.339 62.0399 236.149 62.0399C238.959 62.0399 240.909 64.2399 240.909 66.8699C240.909 69.4999 238.719 71.6999 236.149 71.6999Z" fill="#003873"/>
<path d="M250.149 68.1902H253.239C253.169 70.1402 251.179 71.7402 249.329 71.7402C246.749 71.7402 244.689 69.3602 244.689 66.8602C244.689 64.1802 246.779 62.0201 249.459 62.0201C250.909 62.0201 252.359 62.8002 253.209 63.9702L254.249 62.9702C253.079 61.5002 251.239 60.6602 249.389 60.6602C245.959 60.6602 243.199 63.4802 243.199 66.9202C243.199 70.3602 245.899 73.1102 249.229 73.1102C252.559 73.1102 254.879 70.5902 254.879 67.3202V66.8402H250.149V68.2001V68.1902Z" fill="#003873"/>
<path d="M259.919 65.9999L256.989 60.8999H255.279L259.179 67.6499V72.8399H260.669V67.6499L264.559 60.8999H262.849L259.919 65.9999Z" fill="#003873"/>
<path d="M50.1999 73.33H40.6699V0H50.1999V0.25H40.9199V73.08H50.1999V73.33Z" fill="#231815"/>
<path d="M318.341 73.33H308.811V73.08H318.091V0.25H308.811V0H318.341V73.33Z" fill="#231815"/>
<path d="M0 25.8398H2.56C3.22 25.8398 3.73 25.9998 4.1 26.3198C4.47 26.6398 4.65 27.0798 4.65 27.6298C4.65 28.1798 4.46 28.6298 4.09 28.9498C3.72 29.2698 3.2 29.4298 2.55 29.4298H0.74V32.2498H0V25.8398ZM2.49 28.8198C2.96 28.8198 3.32 28.7198 3.56 28.5098C3.8 28.3098 3.92 28.0098 3.92 27.6298C3.92 27.2498 3.8 26.9498 3.56 26.7498C3.32 26.5498 2.96 26.4498 2.49 26.4498H0.74V28.8198H2.5H2.49Z" fill="#231815"/>
<path d="M10.8891 32.2496H10.1091L9.31914 30.1196C9.21914 29.8596 9.08914 29.6796 8.91914 29.5896C8.74914 29.4996 8.50914 29.4596 8.19914 29.4596H6.59914V32.2596H5.86914V25.8496H8.41914C9.10914 25.8496 9.63914 25.9996 10.0091 26.3096C10.3791 26.6196 10.5591 27.0596 10.5591 27.6296C10.5591 28.0496 10.4491 28.3996 10.2291 28.6896C10.0091 28.9796 9.68914 29.1796 9.27914 29.2996C9.46914 29.3296 9.61914 29.4096 9.75914 29.5396C9.88914 29.6696 9.99914 29.8496 10.0891 30.0896L10.8991 32.2596L10.8891 32.2496ZM8.33914 28.8396C9.31914 28.8396 9.81914 28.4396 9.81914 27.6296C9.81914 27.2296 9.69914 26.9396 9.45914 26.7396C9.21914 26.5496 8.84914 26.4496 8.33914 26.4496H6.58914V28.8296H8.33914V28.8396Z" fill="#231815"/>
<path d="M12.0996 25.8398H12.8396V32.2498H12.0996V25.8398Z" fill="#231815"/>
<path d="M19.5599 25.8398V32.2498H18.9799L15.1099 27.0898V32.2498H14.4199V25.8398H14.9899L18.8599 30.9998V25.8398H19.5599Z" fill="#231815"/>
<path d="M22.6792 26.4698H20.4492V25.8398H25.6592V26.4698H23.4292V32.2498H22.6792V26.4698Z" fill="#231815"/>
<path d="M25.9902 31.5098L26.2702 30.9398C26.5902 31.2098 26.9102 31.3998 27.2402 31.5198C27.5702 31.6298 27.9502 31.6898 28.3902 31.6898C28.9102 31.6898 29.3002 31.5898 29.5802 31.3898C29.8602 31.1898 30.0002 30.9098 30.0002 30.5398C30.0002 30.3198 29.9302 30.1498 29.8002 30.0098C29.6602 29.8798 29.4902 29.7698 29.2702 29.6898C29.0502 29.6098 28.7602 29.5298 28.3902 29.4498C27.9002 29.3398 27.4902 29.2198 27.1802 29.0998C26.8602 28.9698 26.6002 28.7898 26.4102 28.5598C26.2102 28.3198 26.1102 28.0098 26.1102 27.6298C26.1102 27.2498 26.2102 26.9398 26.4002 26.6598C26.5902 26.3798 26.8602 26.1598 27.2102 26.0098C27.5602 25.8598 27.9702 25.7798 28.4402 25.7798C28.9102 25.7798 29.3002 25.8498 29.6802 25.9898C30.0602 26.1298 30.3902 26.3298 30.6502 26.5898L30.3602 27.1598C30.0602 26.8998 29.7602 26.7098 29.4502 26.5898C29.1402 26.4698 28.8002 26.4098 28.4402 26.4098C27.9402 26.4098 27.5502 26.5198 27.2702 26.7298C26.9902 26.9398 26.8502 27.2298 26.8502 27.6098C26.8502 27.9298 26.9702 28.1798 27.2202 28.3398C27.4702 28.4998 27.8402 28.6398 28.3502 28.7598C28.9002 28.8898 29.3402 29.0098 29.6502 29.1198C29.9602 29.2298 30.2302 29.3998 30.4402 29.6198C30.6502 29.8498 30.7502 30.1398 30.7502 30.5198C30.7502 30.8998 30.6502 31.1998 30.4602 31.4698C30.2702 31.7398 29.9902 31.9498 29.6402 32.0998C29.2802 32.2498 28.8602 32.3298 28.3802 32.3298C27.3802 32.3298 26.5802 32.0598 25.9902 31.5198V31.5098Z" fill="#231815"/>
<path d="M4.22 43.5599V44.2499H0.25V43.5599H1.82V38.1499L0.36 39.0799V38.2899L2.18 37.1299H2.65V43.5599H4.22V43.5599Z" fill="#AA8420"/>
<path d="M6.1107 43.4101C5.6907 42.7901 5.4707 41.8901 5.4707 40.7001C5.4707 39.5101 5.6807 38.6001 6.1107 37.9801C6.5307 37.3601 7.1507 37.0601 7.9607 37.0601C8.7707 37.0601 9.3907 37.3701 9.8107 37.9801C10.2307 38.6001 10.4507 39.5001 10.4507 40.6901C10.4507 41.8801 10.2407 42.7901 9.8107 43.4101C9.3907 44.0301 8.7707 44.3401 7.9607 44.3401C7.1507 44.3401 6.5307 44.0301 6.1107 43.4201V43.4101ZM9.2207 42.9201C9.4907 42.4401 9.6307 41.6901 9.6307 40.6801C9.6307 39.6701 9.5007 38.9301 9.2307 38.4601C8.9607 37.9901 8.5407 37.7501 7.9707 37.7501C7.4007 37.7501 6.9907 37.9901 6.7207 38.4601C6.4507 38.9301 6.3107 39.6701 6.3107 40.6801C6.3107 41.6901 6.4507 42.4301 6.7207 42.9201C6.9907 43.4101 7.4107 43.6401 7.9707 43.6401C8.5307 43.6401 8.9507 43.4001 9.2207 42.9201Z" fill="#AA8420"/>
<path d="M21.6093 41.0901V44.2501H20.7993V41.1301C20.7993 40.6601 20.7193 40.3101 20.5493 40.1001C20.3893 39.8901 20.1193 39.7801 19.7593 39.7801C19.3293 39.7801 18.9993 39.9201 18.7593 40.2101C18.5193 40.5001 18.3993 40.8901 18.3993 41.3801V44.2501H17.5893V41.1301C17.5893 40.6601 17.5093 40.3201 17.3393 40.1101C17.1693 39.8901 16.9093 39.7801 16.5393 39.7801C16.1093 39.7801 15.7793 39.9201 15.5393 40.2101C15.2993 40.5001 15.1693 40.8901 15.1693 41.3801V44.2501H14.3593V40.6301C14.3593 40.1101 14.3293 39.6401 14.2793 39.2201H15.0493L15.1293 40.1001C15.2693 39.7801 15.4793 39.5301 15.7493 39.3601C16.0293 39.1901 16.3493 39.1001 16.7193 39.1001C17.1193 39.1001 17.4493 39.1801 17.6993 39.3401C17.9493 39.5001 18.1393 39.7501 18.2593 40.0801C18.4093 39.7801 18.6393 39.5401 18.9293 39.3701C19.2293 39.1901 19.5593 39.1001 19.9293 39.1001C21.0393 39.1001 21.5993 39.7601 21.5993 41.0901H21.6093Z" fill="#AA8420"/>
<path d="M30.4003 41.0901V44.2501H29.5903V41.1301C29.5903 40.6601 29.5103 40.3101 29.3403 40.1001C29.1803 39.8901 28.9103 39.7801 28.5503 39.7801C28.1203 39.7801 27.7903 39.9201 27.5503 40.2101C27.3103 40.5001 27.1903 40.8901 27.1903 41.3801V44.2501H26.3803V41.1301C26.3803 40.6601 26.3003 40.3201 26.1303 40.1101C25.9603 39.8901 25.7003 39.7801 25.3303 39.7801C24.9003 39.7801 24.5703 39.9201 24.3303 40.2101C24.0903 40.5001 23.9603 40.8901 23.9603 41.3801V44.2501H23.1503V40.6301C23.1503 40.1101 23.1203 39.6401 23.0703 39.2201H23.8403L23.9203 40.1001C24.0603 39.7801 24.2703 39.5301 24.5403 39.3601C24.8203 39.1901 25.1403 39.1001 25.5103 39.1001C25.9103 39.1001 26.2403 39.1801 26.4903 39.3401C26.7403 39.5001 26.9303 39.7501 27.0503 40.0801C27.2003 39.7801 27.4303 39.5401 27.7203 39.3701C28.0203 39.1901 28.3503 39.1001 28.7203 39.1001C29.8303 39.1001 30.3903 39.7601 30.3903 41.0901H30.4003Z" fill="#AA8420"/>
<path d="M327.181 31.93C326.741 31.67 326.401 31.29 326.171 30.79C325.931 30.3 325.811 29.71 325.811 29.05C325.811 28.39 325.931 27.8 326.161 27.3C326.391 26.81 326.731 26.43 327.171 26.17C327.611 25.91 328.131 25.77 328.731 25.77C329.331 25.77 329.851 25.9 330.291 26.17C330.731 26.44 331.061 26.81 331.301 27.3C331.541 27.79 331.651 28.37 331.651 29.04C331.651 29.71 331.531 30.29 331.291 30.79C331.051 31.28 330.721 31.66 330.281 31.93C329.841 32.2 329.331 32.33 328.731 32.33C328.131 32.33 327.621 32.2 327.181 31.93ZM330.311 31C330.691 30.54 330.881 29.88 330.881 29.04C330.881 28.2 330.691 27.54 330.321 27.09C329.951 26.64 329.421 26.41 328.731 26.41C328.041 26.41 327.511 26.64 327.141 27.1C326.771 27.56 326.571 28.21 326.571 29.05C326.571 29.89 326.761 30.55 327.141 31.01C327.521 31.47 328.051 31.7 328.731 31.7C329.411 31.7 329.941 31.47 330.311 31.01V31Z" fill="#231815"/>
<path d="M338.14 25.8398V32.2498H337.56L333.69 27.0898V32.2498H333V25.8398H333.57L337.44 30.9998V25.8398H338.14Z" fill="#231815"/>
<path d="M339.711 25.8398H340.451V31.6198H343.661V32.2498H339.711V25.8398Z" fill="#231815"/>
<path d="M344.621 25.8398H345.361V32.2498H344.621V25.8398Z" fill="#231815"/>
<path d="M352.081 25.8398V32.2498H351.501L347.631 27.0898V32.2498H346.941V25.8398H347.511L351.381 30.9998V25.8398H352.081Z" fill="#231815"/>
<path d="M353.65 25.8401H357.7V26.4501H354.38V28.6801H357.52V29.3001H354.38V31.6301H357.7V32.2401H353.65V25.8301V25.8401Z" fill="#231815"/>
<path d="M330.93 42.6999H329.85V44.2499H329.03V42.6999H325.75V42.0799L329.18 37.1299H329.85V42.0199H330.93V42.6999V42.6999ZM329.03 42.0199V38.5199L326.6 42.0199H329.03Z" fill="#AA8420"/>
<path d="M335.729 40.0699C336.069 40.2599 336.319 40.5199 336.499 40.8599C336.679 41.1999 336.769 41.5899 336.769 42.0399C336.769 42.4899 336.669 42.8799 336.479 43.2299C336.279 43.5799 335.999 43.8399 335.639 44.0299C335.279 44.2199 334.849 44.3199 334.369 44.3199C333.939 44.3199 333.509 44.2399 333.089 44.0799C332.669 43.9199 332.319 43.7099 332.029 43.4399L332.339 42.8099C332.999 43.3599 333.679 43.6299 334.369 43.6299C334.869 43.6299 335.259 43.4899 335.549 43.2099C335.829 42.9299 335.969 42.5399 335.969 42.0499C335.969 41.5599 335.829 41.1999 335.549 40.9099C335.269 40.6199 334.899 40.4699 334.429 40.4699C333.749 40.4699 333.209 40.7499 332.799 41.2999H332.229V37.1299H336.499V37.8099H333.049V40.3499C333.439 39.9699 333.949 39.7799 334.559 39.7799C335.009 39.7799 335.399 39.8699 335.739 40.0699H335.729Z" fill="#AA8420"/>
<path d="M344.33 39.4301C344.67 39.6501 344.93 39.9601 345.12 40.3601C345.31 40.7601 345.4 41.2101 345.4 41.7401C345.4 42.2701 345.31 42.7101 345.12 43.1001C344.93 43.4901 344.67 43.7901 344.33 44.0101C343.99 44.2201 343.6 44.3301 343.16 44.3301C342.77 44.3301 342.42 44.2401 342.13 44.0701C341.84 43.9001 341.61 43.6501 341.46 43.3301V46.4201H340.65V40.6401C340.65 40.1201 340.62 39.6501 340.57 39.2301H341.34L341.42 40.2001C341.56 39.8501 341.78 39.5801 342.09 39.3901C342.39 39.2001 342.75 39.1001 343.17 39.1001C343.61 39.1001 344 39.2101 344.34 39.4301H344.33ZM344.16 43.1501C344.43 42.8201 344.56 42.3401 344.56 41.7301C344.56 41.1201 344.42 40.6401 344.15 40.2901C343.88 39.9501 343.5 39.7801 343.01 39.7801C342.52 39.7801 342.13 39.9501 341.86 40.2801C341.59 40.6101 341.46 41.0901 341.46 41.7101C341.46 42.3301 341.59 42.8101 341.86 43.1401C342.13 43.4801 342.51 43.6501 343.01 43.6501C343.51 43.6501 343.89 43.4801 344.16 43.1501V43.1501Z" fill="#AA8420"/>
<path d="M351.011 44.2497H350.041L348.451 42.2697L346.881 44.2497H345.891L347.981 41.6597L346.011 39.2197H346.991L348.451 41.0697L349.911 39.2197H350.901L348.941 41.6597L351.011 44.2497V44.2497Z" fill="#AA8420"/>
</svg>
