<svg width="206" height="86" viewBox="0 0 206 86" fill="none" xmlns="http://www.w3.org/2000/svg">
<path d="M108.869 8.14023C109.049 7.91023 109.119 7.49023 109.119 7.49023H97.9492C97.9492 7.49023 98.0892 7.95023 98.1992 8.14023H108.869Z" fill="#AA8420"/>
<path d="M108.22 9.08979C108.43 8.90979 108.64 8.52979 108.64 8.52979H98.4102C98.4102 8.52979 98.5302 8.80979 98.7802 9.08979H108.22Z" fill="#AA8420"/>
<path d="M107.409 9.94002C107.659 9.80002 107.869 9.52002 107.869 9.52002H99.1191C99.1191 9.52002 99.3291 9.75002 99.5391 9.94002H107.409Z" fill="#AA8420"/>
<path d="M106.39 10.7499C106.64 10.6499 106.92 10.4199 106.92 10.4199H100.1C100.1 10.4199 100.1 10.4699 100.58 10.7499H106.39Z" fill="#AA8420"/>
<path d="M101.369 11.2598C101.369 11.2598 102.089 11.6798 103.499 11.6798C104.909 11.6798 105.809 11.2598 105.809 11.2598H101.369Z" fill="#AA8420"/>
<path d="M101.26 12.21C101.26 12.21 102.12 12.26 102.62 12.65C103.11 13.07 103.48 13.76 103.48 13.76C103.48 13.76 103.78 13.09 104.27 12.75C104.76 12.38 105.54 12.21 105.54 12.21H114.36L116.1 14.78H108.18C108.18 14.78 107.63 14.8 106.79 15.29C106.35 15.54 106.02 15.98 106.02 15.98C106.02 15.98 105.96 16.19 105.86 16.3C105.77 16.42 105.7 16.51 105.59 16.55C105.47 16.6 105.49 16.57 105.49 16.57H101.37C101.37 16.57 101.2 16.5 101.12 16.36C101.03 16.22 101.09 16.27 101 16.16C100.93 16.04 100.77 15.74 100.14 15.33C99.4903 14.91 98.8703 14.87 98.8703 14.87H90.8203L92.5803 12.21H101.26V12.21Z" fill="#003477"/>
<path d="M95.0295 15.8398V28.9798C95.0295 28.9798 95.0795 30.1398 96.0495 31.7098C97.0195 33.2898 98.4295 33.9998 98.4295 33.9998L99.5395 32.2598C99.5395 32.2598 98.5695 31.6798 97.8295 30.5698C97.1095 29.4598 97.1095 28.5098 97.1095 28.5098V15.8398H95.0195H95.0295Z" fill="#003477"/>
<path d="M109.93 15.79V28.47C109.93 28.47 109.77 29.74 109.17 30.65C108.57 31.58 107.57 32.32 107.57 32.32L108.64 34.03C108.64 34.03 110.26 32.85 111.04 31.6C111.83 30.35 112.01 28.48 112.01 28.48V15.79H109.93Z" fill="#003477"/>
<path d="M91.7305 15.8398V29.0298C91.7305 29.0298 91.8705 31.0698 93.1405 33.1998C94.4205 35.3298 96.7305 36.8098 96.7305 36.8098L97.8205 35.0698C97.8205 35.0698 96.3405 34.2798 95.1605 32.4798C93.9505 30.6498 93.8905 28.9898 93.8905 28.9898V15.8398H91.7405H91.7305Z" fill="#003477"/>
<path d="M101.259 17.23V31.16C101.259 31.16 101.209 31.21 101.189 31.41C101.169 31.62 101.029 31.76 101.029 31.76L96.3789 39.46H110.629L105.979 31.59L105.839 31.24L105.789 30.87V17.25H104.049V31.39C104.049 31.39 104.049 31.59 104.119 31.76C104.159 31.92 104.259 32.17 104.259 32.17L107.129 36.89H99.8589L102.679 32.19C102.679 32.19 102.769 32.03 102.839 31.8C102.889 31.59 102.909 31.39 102.909 31.39V17.23H101.249H101.259Z" fill="#AA8420"/>
<path d="M113.15 15.79V28.75C113.15 28.75 113.13 30.41 111.9 32.33C110.67 34.25 109.26 35.06 109.26 35.06L110.3 36.82C110.3 36.82 112.43 35.48 113.77 33.35C115.09 31.22 115.25 28.75 115.25 28.75V15.79H113.14H113.15Z" fill="#003477"/>
<path d="M97.8792 7.11982C97.8792 7.11982 97.1592 3.20982 100.029 1.26982C100.029 1.26982 101.329 0.0698242 103.429 0.0698242C105.679 0.0698242 106.969 1.24982 106.969 1.24982C110.089 3.53982 109.169 7.12982 109.169 7.12982H97.8792V7.11982Z" fill="#AA8420"/>
<path d="M69.8602 49.28C70.2302 49.16 70.4901 49.06 70.6501 48.99V52.97H71.5101V52.54H76.0702V52.97H76.9301V48.94C77.0501 49.01 77.1901 49.06 77.3401 49.11C77.4901 49.15 77.6202 49.2 77.7502 49.26L78.1602 48.42C76.8202 48.15 75.8002 47.68 75.1002 47H78.0901V46.23H74.1801V45.45C75.4301 45.34 76.4702 45.21 77.3102 45.03L76.9102 44.27C75.6402 44.56 73.7802 44.7 71.3102 44.7C70.7902 44.7 70.3502 44.7 70.0002 44.68L70.3102 45.53C70.9102 45.53 71.9102 45.51 73.3002 45.48V46.23H69.4902V47H72.3502C71.5202 47.7 70.5402 48.18 69.4102 48.45L69.8602 49.28V49.28ZM76.0702 51.77H71.5101V50.95H76.0702V51.77ZM74.1702 47.01C74.7502 47.78 75.5102 48.36 76.4602 48.73H74.1702V47.01ZM76.0702 49.5V50.2H71.5101V49.5H76.0702ZM73.3002 47.01V48.72H71.1902C72.0602 48.35 72.7702 47.78 73.3002 47.01Z" fill="#003477"/>
<path d="M83.2991 47.7901C82.8191 47.4301 82.3691 47.1301 81.9291 46.8901L81.3691 47.5901C81.7291 47.8301 82.1691 48.1701 82.6691 48.5901L83.2991 47.7901V47.7901Z" fill="#003477"/>
<path d="M88.8504 50.5603C88.8104 51.0503 88.7604 51.3903 88.7104 51.5903C88.6604 51.7803 88.5104 51.8803 88.2504 51.8803H85.5004C85.2804 51.8803 85.1704 51.7703 85.1704 51.5503V50.9603H88.1604V49.0603C88.5304 49.3903 89.0004 49.7303 89.5704 50.0703L89.9704 49.2403C88.9704 48.7503 88.3404 48.2503 88.1004 47.7503H89.8704V46.9703H88.2004V46.0203H89.7304V45.2903H88.2004V44.3203H87.3604V45.2903H85.6704V44.3203H84.8204V45.2903H83.5904V45.4103C83.2304 45.1303 82.7804 44.8303 82.2604 44.4903L81.6504 45.1803C82.0604 45.4403 82.5304 45.8003 83.0304 46.2603L83.6004 45.5603V46.0603H84.8304V46.9903H83.4104V47.7703H84.8904C84.6204 48.3503 83.9704 48.8703 82.9404 49.3403L83.4704 50.1203C83.8804 49.8603 84.1704 49.6703 84.3204 49.5403V51.6203C84.3204 52.0403 84.4004 52.3303 84.5504 52.4803C84.7104 52.6303 84.9904 52.7003 85.3804 52.7003H88.3904C88.8704 52.7003 89.1804 52.6203 89.3504 52.4503C89.5204 52.2803 89.6504 51.7603 89.7504 50.9003L88.8604 50.5703L88.8504 50.5603ZM85.6604 46.0603H87.3504V46.9703H85.6604V46.0603ZM85.8604 47.7503H87.1104C87.2804 48.0803 87.4704 48.3603 87.6804 48.5903H85.3204C85.5504 48.3503 85.7304 48.0703 85.8704 47.7503H85.8604ZM85.1604 49.3203H87.2904V50.2303H85.1604V49.3203Z" fill="#003477"/>
<path d="M83.2501 50.0901L82.4401 49.6201C82.2401 50.5001 81.8701 51.3201 81.3301 52.0901L82.0701 52.8501C82.6001 52.0101 82.9901 51.0901 83.2501 50.0901Z" fill="#003477"/>
<path d="M99.8499 46.0602C99.1199 45.5302 98.5598 45.1502 98.1498 44.9302L97.5898 45.5402C98.0198 45.8002 98.5698 46.2002 99.2598 46.7502L99.8398 46.0502L99.8499 46.0602Z" fill="#003477"/>
<path d="M99.6704 48.2904C98.9904 47.7704 98.4204 47.3904 97.9504 47.1504L97.4004 47.7704C97.8904 48.0604 98.4504 48.4704 99.0904 49.0004L99.6704 48.2904V48.2904Z" fill="#003477"/>
<path d="M93.6704 51.23C94.2704 50.44 94.7004 49.75 94.9304 49.15V52.96L95.7804 52.92V48.62C95.9504 48.84 96.1104 49.05 96.2704 49.24C96.4504 49.45 96.6404 49.69 96.8304 49.94L97.3504 49.14C97.0004 48.76 96.4704 48.24 95.7804 47.6V47.52H97.1904V46.72H95.7804V45.41C96.2704 45.31 96.7304 45.18 97.1804 45.03L96.8604 44.27C95.8704 44.65 94.6804 44.87 93.2904 44.94L93.4804 45.72C94.1104 45.68 94.5904 45.63 94.9204 45.56V46.72H93.2004V47.52H94.9004C94.5104 48.55 93.9304 49.5 93.1504 50.38L93.6704 51.22V51.23Z" fill="#003477"/>
<path d="M97.0801 50.89L100.19 50.42V52.97H101.05V50.31L101.88 50.16V49.32L101.05 49.46V44.23H100.19V49.56L97.0801 50.03V50.89Z" fill="#003477"/>
<path d="M105.039 49.12L105.259 50.12C105.559 50.05 105.979 49.94 106.499 49.8V51.69C106.499 51.9 106.399 52 106.189 52L105.379 51.97L105.599 52.9H106.329C106.789 52.9 107.089 52.83 107.219 52.68C107.339 52.54 107.409 52.25 107.409 51.81V49.54C107.939 49.36 108.299 49.22 108.489 49.12V48.21C108.259 48.32 107.899 48.46 107.409 48.62V46.98H108.499V46.39H110.499V47.63H108.659V48.48H112.339C112.069 49.26 111.629 49.9 110.999 50.4C110.569 49.97 110.149 49.38 109.719 48.63L108.949 48.94C109.409 49.78 109.869 50.43 110.349 50.92C109.459 51.52 108.569 51.92 107.679 52.11L108.189 52.96C109.079 52.77 110.009 52.31 110.989 51.56C111.709 52.21 112.479 52.67 113.289 52.94L113.759 52.07C112.979 51.85 112.279 51.49 111.659 50.99C112.009 50.68 112.349 50.26 112.669 49.72C112.999 49.18 113.199 48.75 113.279 48.41V47.64H111.409V46.4H113.599V45.56H111.409V44.25H110.489V45.56H108.499V46.15H107.409V44.25H106.499V46.15H105.129V46.99H106.499V48.85C106.059 48.97 105.569 49.06 105.039 49.13V49.12Z" fill="#003477"/>
<path d="M116.9 52.0602L117.6 52.9402C119.68 51.5702 120.92 49.7802 121.34 47.5402H121.49C122.11 50.0302 123.25 51.8302 124.92 52.9202L125.64 52.0702C124.72 51.4702 124 50.7502 123.47 49.9202C122.94 49.0902 122.61 48.3002 122.47 47.5402H125.44V46.5702H121.51C121.56 46.0802 121.58 45.3002 121.58 44.2402H120.61C120.61 45.2302 120.57 46.0102 120.49 46.5702H117.13V47.5502H120.33C120.18 48.4202 119.8 49.2702 119.17 50.0802C118.54 50.9002 117.78 51.5502 116.91 52.0602H116.9Z" fill="#003477"/>
<path d="M129.81 48.8803H136.51V50.2403H137.34V48.1503H136.85L136.95 44.4903H134.66V45.2203H136.14V45.7303H134.77V46.3603H136.12L136.1 46.8903H134.77V47.5303H136.07V48.1503H130.25L130.23 47.5303H131.62V46.8903H130.21V46.3603H131.62V45.7303H130.17L130.14 45.2603C130.89 45.2103 131.44 45.1303 131.79 45.0103L131.38 44.3203C130.82 44.4703 130.14 44.5603 129.34 44.5903L129.44 48.1503H128.98V50.2403H129.81V48.8803V48.8803Z" fill="#003477"/>
<path d="M131.74 45.4802L132.21 46.1002C132.62 45.9202 132.98 45.7302 133.3 45.5302C133.37 45.5302 133.53 45.7102 133.77 46.0602L134.34 45.6402C134.13 45.4302 133.97 45.2602 133.85 45.1502C134.08 45.0002 134.26 44.8302 134.4 44.6502L133.94 44.2302C133.83 44.3902 133.64 44.5502 133.37 44.7302C133.12 44.5402 132.88 44.3702 132.64 44.2202L132.14 44.6602C132.41 44.8302 132.62 44.9702 132.77 45.0902C132.61 45.2002 132.27 45.3302 131.75 45.4702L131.74 45.4802Z" fill="#003477"/>
<path d="M134.049 46.0703C133.809 46.3403 133.599 46.5303 133.409 46.6403C133.269 46.5303 133.139 46.4303 133.019 46.3503C132.919 46.2903 132.809 46.2303 132.689 46.1503L132.209 46.5603C132.499 46.7603 132.709 46.9103 132.829 47.0103C132.609 47.1403 132.289 47.2503 131.859 47.3403L132.259 47.9603C132.699 47.8103 133.059 47.6403 133.349 47.4403C133.389 47.4403 133.559 47.6203 133.839 47.9903L134.429 47.5403C134.259 47.3703 134.079 47.2003 133.899 47.0503C134.089 46.9103 134.299 46.7203 134.529 46.5003L134.039 46.0803L134.049 46.0703Z" fill="#003477"/>
<path d="M132.81 51.89C132.81 52.08 132.72 52.17 132.53 52.17L131.26 52.13L131.47 52.88H132.83C133.39 52.88 133.67 52.55 133.67 51.89V51.51H137.52V50.76H133.67C134.47 50.51 135.14 50.24 135.68 49.95V49.27H130.51V49.96H134.41C133.76 50.15 133.22 50.28 132.79 50.36V50.76H128.77V51.51H132.79V51.89H132.81Z" fill="#003477"/>
<path d="M67.079 63.3901H67.929V57.3501H69.539V56.5801H65.459V57.3501H67.079V63.3901Z" fill="#003477"/>
<path d="M75.1805 63.3901V56.5801H74.3305V59.3201H71.0805V56.5801H70.2305V63.3901H71.0805V60.1201H74.3305V63.3901H75.1805Z" fill="#003477"/>
<path d="M80.16 57.3501V56.5801H76.5V63.3901H80.16V62.6101H77.35V60.0401H80.08V59.2601H77.35V57.3501H80.16Z" fill="#003477"/>
<path d="M83.9297 56.5801V63.3901H84.7797V60.1201H88.0197V63.3901H88.8697V56.5801H88.0197V59.3201H84.7797V56.5801H83.9297Z" fill="#003477"/>
<path d="M93.279 63.5404C95.249 63.5404 96.849 62.0104 96.849 59.9904C96.849 57.9704 95.229 56.4404 93.279 56.4404C91.329 56.4404 89.709 58.0404 89.709 59.9904C89.709 61.9404 91.309 63.5404 93.279 63.5404ZM93.279 57.2304C94.879 57.2304 95.999 58.4904 95.999 59.9904C95.999 61.4904 94.749 62.7504 93.279 62.7504C91.809 62.7504 90.559 61.5504 90.559 59.9904C90.559 58.4304 91.679 57.2304 93.279 57.2304Z" fill="#003477"/>
<path d="M97.6797 63.39H98.5297V58.31L103.65 63.67V56.58H102.8V61.61L97.6797 56.25V63.39Z" fill="#003477"/>
<path d="M107.94 63.5402C109.85 63.5402 111.17 62.1002 111.17 60.2302V59.9602H108.47V60.7402H110.23C110.19 61.8502 109.05 62.7602 108 62.7602C106.53 62.7602 105.35 61.4002 105.35 59.9802C105.35 58.4502 106.54 57.2102 108.07 57.2102C108.9 57.2102 109.72 57.6502 110.21 58.3202L110.81 57.7502C110.14 56.9102 109.09 56.4302 108.03 56.4302C106.07 56.4302 104.5 58.0402 104.5 60.0002C104.5 61.9602 106.04 63.5302 107.95 63.5302L107.94 63.5402Z" fill="#003477"/>
<path d="M115.651 60.5501L115.991 60.2201L118.561 63.3901H119.701L116.591 59.6401L119.651 56.5801H118.541L115.651 59.5301V56.5801H114.801V63.3901H115.651V60.5501Z" fill="#003477"/>
<path d="M119.83 59.9904C119.83 62.0104 121.43 63.5404 123.4 63.5404C125.37 63.5404 126.97 62.0104 126.97 59.9904C126.97 57.9704 125.35 56.4404 123.4 56.4404C121.45 56.4404 119.83 58.0404 119.83 59.9904ZM126.12 59.9904C126.12 61.5404 124.87 62.7504 123.4 62.7504C121.93 62.7504 120.68 61.5504 120.68 59.9904C120.68 58.4304 121.8 57.2304 123.4 57.2304C125 57.2304 126.12 58.4904 126.12 59.9904Z" fill="#003477"/>
<path d="M128.651 58.31L133.771 63.67V56.58H132.921V61.61L127.801 56.25V63.39H128.651V58.31Z" fill="#003477"/>
<path d="M134.609 60.0004C134.609 61.8904 136.149 63.5304 138.049 63.5304C139.949 63.5304 141.279 62.0904 141.279 60.2204V59.9504H138.579V60.7304H140.339C140.299 61.8404 139.159 62.7504 138.109 62.7504C136.639 62.7504 135.459 61.3904 135.459 59.9704C135.459 58.4404 136.649 57.2004 138.179 57.2004C139.009 57.2004 139.829 57.6404 140.319 58.3104L140.919 57.7404C140.249 56.9004 139.209 56.4204 138.149 56.4204C136.189 56.4204 134.619 58.0304 134.619 59.9904L134.609 60.0004Z" fill="#003477"/>
<path d="M57.5699 71.4404C57.5699 72.5504 57.2399 73.5804 55.9199 73.5804C54.5999 73.5804 54.2699 72.5504 54.2699 71.4404V67.4204H53.4199V71.7304C53.4199 73.2304 54.3499 74.3804 55.9099 74.3804C57.4699 74.3804 58.4099 73.2304 58.4099 71.7304V67.4204H57.5599V71.4404H57.5699Z" fill="#003477"/>
<path d="M65.5696 67.4203H64.7196V72.4603L59.5996 67.0903V74.2403H60.4496V69.1603L65.5696 74.5203V67.4203Z" fill="#003477"/>
<path d="M67.6898 67.4204H66.8398V74.2404H67.6898V67.4204Z" fill="#003477"/>
<path d="M69.2796 67.4204H68.3496L71.3096 74.6004L74.2696 67.4204H73.3396L71.3096 72.4604L69.2796 67.4204Z" fill="#003477"/>
<path d="M78.5995 68.2004V67.4204H74.9395V74.2404H78.5995V73.4604H75.7894V70.8804H78.5195V70.1104H75.7894V68.2004H78.5995Z" fill="#003477"/>
<path d="M83.4605 69.3602C83.4605 68.7102 83.1305 68.0702 82.5605 67.7302C82.0205 67.4202 81.3705 67.4102 80.7605 67.4102H79.7305V74.2302H80.5805V71.3502H80.9305L82.9405 74.2302H83.9705L81.8205 71.2701C82.8105 71.1501 83.4605 70.3402 83.4605 69.3602V69.3602ZM80.8605 70.6502H80.5905V68.1802H80.8205C81.6605 68.1802 82.6705 68.3302 82.6705 69.4002C82.6705 70.4702 81.7305 70.6502 80.8605 70.6502V70.6502Z" fill="#003477"/>
<path d="M86.5491 73.59C85.8191 73.59 85.2191 73.05 85.2291 72.3L84.3691 72.48C84.5191 73.57 85.3691 74.39 86.4791 74.39C87.6991 74.39 88.6591 73.5 88.6591 72.27C88.6591 71.13 87.9391 70.6 86.9691 70.22L86.4791 70.03C86.0591 69.87 85.5291 69.59 85.5291 69.06C85.5291 68.46 86.1291 68.09 86.6691 68.09C87.2091 68.09 87.5091 68.31 87.7591 68.73L88.4391 68.32C88.0691 67.66 87.4491 67.29 86.6891 67.29C85.6591 67.29 84.6791 67.95 84.6791 69.05C84.6791 70 85.3891 70.44 86.1591 70.78L86.6292 70.98C87.2192 71.22 87.8091 71.54 87.8091 72.27C87.8091 73 87.2891 73.6 86.5491 73.6V73.59Z" fill="#003477"/>
<path d="M90.5004 67.4204H89.6504V74.2404H90.5004V67.4204Z" fill="#003477"/>
<path d="M95.3205 67.4204H91.2305V68.2004H92.8505V74.2404H93.7005V68.2004H95.3205V67.4204Z" fill="#003477"/>
<path d="M98.4509 74.2404V71.2704L100.671 67.4204H99.7009L98.0209 70.3304L96.3509 67.4204H95.3809L97.6009 71.2704V74.2404H98.4509Z" fill="#003477"/>
<path d="M107.14 67.2803C105.19 67.2803 103.57 68.8803 103.57 70.8303C103.57 72.7803 105.17 74.3803 107.14 74.3803C109.11 74.3803 110.71 72.8503 110.71 70.8303C110.71 68.8103 109.09 67.2803 107.14 67.2803ZM107.14 73.5903C105.67 73.5903 104.42 72.3903 104.42 70.8303C104.42 69.2703 105.54 68.0703 107.14 68.0703C108.74 68.0703 109.86 69.3303 109.86 70.8303C109.86 72.3303 108.61 73.5903 107.14 73.5903Z" fill="#003477"/>
<path d="M114.919 68.2004V67.4204H111.619V74.2404H112.469V70.8904H114.839V70.1104H112.469V68.2004H114.919Z" fill="#003477"/>
<path d="M120.52 73.59C119.79 73.59 119.19 73.05 119.2 72.3L118.34 72.48C118.48 73.57 119.35 74.39 120.45 74.39C121.67 74.39 122.63 73.5 122.63 72.27C122.63 71.13 121.91 70.6 120.94 70.22L120.45 70.03C120.03 69.87 119.5 69.59 119.5 69.06C119.5 68.46 120.1 68.09 120.64 68.09C121.16 68.09 121.48 68.31 121.73 68.73L122.41 68.32C122.04 67.66 121.42 67.29 120.66 67.29C119.63 67.29 118.65 67.95 118.65 69.05C118.65 70 119.36 70.44 120.13 70.78L120.6 70.98C121.19 71.22 121.78 71.54 121.78 72.27C121.78 73 121.26 73.6 120.52 73.6V73.59Z" fill="#003477"/>
<path d="M126.819 68.06C127.459 68.06 128.129 68.29 128.619 68.73V67.75C128.099 67.43 127.499 67.29 126.899 67.29C124.889 67.29 123.279 68.86 123.279 70.88C123.279 72.9 124.889 74.4 126.829 74.4C127.429 74.4 128.099 74.23 128.619 73.92V72.92C128.109 73.37 127.469 73.63 126.799 73.63C125.279 73.63 124.119 72.36 124.119 70.86C124.119 69.36 125.289 68.08 126.809 68.08L126.819 68.06Z" fill="#003477"/>
<path d="M130.539 67.4204H129.689V74.2404H130.539V67.4204Z" fill="#003477"/>
<path d="M135.56 73.4604H132.75V70.8804H135.48V70.1104H132.75V68.2004H135.56V67.4204H131.9V74.2404H135.56V73.4604Z" fill="#003477"/>
<path d="M136.619 74.2403H137.469V69.1603L142.589 74.5203V67.4203H141.739V72.4603L136.619 67.0903V74.2403Z" fill="#003477"/>
<path d="M143.51 70.8703C143.51 72.8403 145.12 74.3903 147.06 74.3903C147.66 74.3903 148.33 74.2203 148.85 73.9103V72.9103C148.34 73.3603 147.7 73.6203 147.03 73.6203C145.51 73.6203 144.35 72.3503 144.35 70.8503C144.35 69.3503 145.52 68.0703 147.04 68.0703C147.68 68.0703 148.35 68.3003 148.84 68.7403V67.7603C148.32 67.4403 147.72 67.3003 147.12 67.3003C145.11 67.3003 143.49 68.8703 143.49 70.8903L143.51 70.8703Z" fill="#003477"/>
<path d="M153.619 68.2004V67.4204H149.959V74.2404H153.619V73.4604H150.809V70.8804H153.539V70.1104H150.809V68.2004H153.619Z" fill="#003477"/>
<path d="M62.4199 85.0802H63.3299L64.1099 83.3702H67.2399L68.0199 85.0802H68.9299L65.6799 77.9702L62.4299 85.0802H62.4199ZM64.4599 82.5902L65.6699 79.8302L66.8799 82.5902H64.4599V82.5902Z" fill="#003477"/>
<path d="M74.62 83.3004L69.5 77.9404V85.0804H70.35V80.0004L75.47 85.3604V78.2704H74.62V83.3004Z" fill="#003477"/>
<path d="M78.1092 78.27H76.6992V85.09H78.0792C80.2292 85.09 81.9292 83.97 81.9292 81.65C81.9292 79.33 80.1992 78.28 78.1092 78.28V78.27ZM77.8492 84.31H77.5492V79.05H77.8492C79.5892 79.05 81.0892 79.69 81.0892 81.68C81.0892 83.67 79.5892 84.31 77.8492 84.31V84.31Z" fill="#003477"/>
<path d="M84.9395 79.04H86.5594V85.08H87.4095V79.04H89.0294V78.27H84.9395V79.04Z" fill="#003477"/>
<path d="M89.7891 85.08H93.4491V84.3H90.6391V81.73H93.3691V80.95H90.6391V79.04H93.4491V78.27H89.7891V85.08Z" fill="#003477"/>
<path d="M94.2095 81.7104C94.2095 83.6804 95.8194 85.2304 97.7594 85.2304C98.3594 85.2304 99.0295 85.0604 99.5495 84.7504V83.7504C99.0395 84.2004 98.3994 84.4604 97.7294 84.4604C96.2094 84.4604 95.0495 83.1904 95.0495 81.6904C95.0495 80.1904 96.2195 78.9104 97.7395 78.9104C98.3795 78.9104 99.0494 79.1404 99.5394 79.5804V78.5904C99.0194 78.2704 98.4195 78.1304 97.8195 78.1304C95.8095 78.1304 94.1895 79.7004 94.1895 81.7204L94.2095 81.7104Z" fill="#003477"/>
<path d="M104.68 81.01H101.43V78.27H100.58V85.08H101.43V81.81H104.68V85.08H105.52V78.27H104.68V81.01Z" fill="#003477"/>
<path d="M111.88 83.3004L106.76 77.9404V85.0804H107.62V80.0004L112.73 85.3604V78.2704H111.88V83.3004Z" fill="#003477"/>
<path d="M117.121 78.1201C115.171 78.1201 113.551 79.7201 113.551 81.6701C113.551 83.6201 115.151 85.2201 117.121 85.2201C119.091 85.2201 120.691 83.6901 120.691 81.6701C120.691 79.6501 119.071 78.1201 117.121 78.1201ZM117.121 84.4301C115.641 84.4301 114.401 83.2301 114.401 81.6701C114.401 80.1101 115.521 78.9101 117.121 78.9101C118.721 78.9101 119.841 80.1701 119.841 81.6701C119.841 83.1701 118.591 84.4301 117.121 84.4301Z" fill="#003477"/>
<path d="M122.459 78.27H121.609V85.08H124.529V84.3H122.459V78.27Z" fill="#003477"/>
<path d="M128.269 78.1201C126.319 78.1201 124.699 79.7201 124.699 81.6701C124.699 83.6201 126.299 85.2201 128.269 85.2201C130.239 85.2201 131.839 83.6901 131.839 81.6701C131.839 79.6501 130.219 78.1201 128.269 78.1201ZM128.269 84.4301C126.789 84.4301 125.549 83.2301 125.549 81.6701C125.549 80.1101 126.669 78.9101 128.269 78.9101C129.869 78.9101 130.989 80.1701 130.989 81.6701C130.989 83.1701 129.739 84.4301 128.269 84.4301Z" fill="#003477"/>
<path d="M136.259 82.4203H138.019C137.979 83.5303 136.839 84.4404 135.789 84.4404C134.319 84.4404 133.139 83.0804 133.139 81.6604C133.139 80.1304 134.329 78.8904 135.859 78.8904C136.689 78.8904 137.509 79.3304 137.999 80.0004L138.599 79.4304C137.929 78.5904 136.879 78.1104 135.829 78.1104C133.869 78.1104 132.289 79.7204 132.289 81.6804C132.289 83.6404 133.829 85.2104 135.739 85.2104C137.649 85.2104 138.969 83.7704 138.969 81.9004V81.6303H136.269V82.4104L136.259 82.4203Z" fill="#003477"/>
<path d="M141.839 81.18L140.169 78.27H139.189L141.409 82.12V85.08H142.259V82.12L144.489 78.27H143.509L141.839 81.18Z" fill="#003477"/>
<path d="M44.4706 85.42H37.1406V0H44.4706V0.25H37.3906V85.17H44.4706V85.42Z" fill="#231815"/>
<path d="M168.039 85.42H160.709V85.17H167.789V0.25H160.709V0H168.039V85.42Z" fill="#231815"/>
<path d="M1.07055 33.4902H3.63055C4.29055 33.4902 4.80055 33.6502 5.17055 33.9702C5.54055 34.2902 5.72055 34.7302 5.72055 35.2802C5.72055 35.8302 5.53055 36.2802 5.16055 36.6002C4.79055 36.9202 4.27055 37.0802 3.62055 37.0802H1.80055V39.9002H1.06055V33.4902H1.07055ZM3.56055 36.4702C4.03055 36.4702 4.39055 36.3702 4.63055 36.1602C4.87055 35.9602 4.99055 35.6602 4.99055 35.2802C4.99055 34.9002 4.87055 34.6002 4.63055 34.4002C4.39055 34.2002 4.03055 34.1002 3.56055 34.1002H1.80055V36.4702H3.56055V36.4702Z" fill="#231815"/>
<path d="M11.9614 39.8902H11.1814L10.3914 37.7602C10.2914 37.5002 10.1614 37.3202 9.9914 37.2302C9.8214 37.1402 9.5814 37.1002 9.2714 37.1002H7.6714V39.9002H6.94141V33.4902H9.4914C10.1814 33.4902 10.7114 33.6402 11.0814 33.9502C11.4514 34.2602 11.6314 34.7002 11.6314 35.2702C11.6314 35.6902 11.5214 36.0402 11.3014 36.3302C11.0814 36.6202 10.7614 36.8202 10.3514 36.9402C10.5414 36.9702 10.6914 37.0502 10.8314 37.1802C10.9614 37.3102 11.0714 37.4902 11.1614 37.7302L11.9714 39.9002L11.9614 39.8902ZM9.41141 36.4802C10.3914 36.4802 10.8914 36.0802 10.8914 35.2702C10.8914 34.8702 10.7714 34.5802 10.5314 34.3802C10.2914 34.1902 9.92141 34.0902 9.41141 34.0902H7.66141V36.4702H9.41141V36.4802Z" fill="#231815"/>
<path d="M13.1699 33.4902H13.9099V39.9002H13.1699V33.4902V33.4902Z" fill="#231815"/>
<path d="M20.6302 33.4902V39.9002H20.0502L16.1802 34.7402V39.9002H15.4902V33.4902H16.0602L19.9302 38.6502V33.4902H20.6302V33.4902Z" fill="#231815"/>
<path d="M23.7515 34.1202H21.5215V33.4902H26.7315V34.1202H24.5015V39.9002H23.7515V34.1202V34.1202Z" fill="#231815"/>
<path d="M27.0605 39.1602L27.3405 38.5902C27.6605 38.8602 27.9805 39.0502 28.3105 39.1702C28.6405 39.2802 29.0205 39.3402 29.4605 39.3402C29.9805 39.3402 30.3706 39.2402 30.6506 39.0402C30.9306 38.8402 31.0705 38.5602 31.0705 38.1902C31.0705 37.9702 31.0006 37.8002 30.8706 37.6602C30.7306 37.5302 30.5605 37.4202 30.3405 37.3402C30.1205 37.2602 29.8305 37.1802 29.4605 37.1002C28.9705 36.9902 28.5605 36.8702 28.2505 36.7502C27.9305 36.6202 27.6706 36.4402 27.4806 36.2102C27.2806 35.9702 27.1805 35.6602 27.1805 35.2802C27.1805 34.9002 27.2806 34.5902 27.4706 34.3102C27.6606 34.0302 27.9305 33.8102 28.2805 33.6602C28.6305 33.5102 29.0406 33.4302 29.5106 33.4302C29.9806 33.4302 30.3705 33.5002 30.7505 33.6402C31.1305 33.7802 31.4606 33.9802 31.7206 34.2402L31.4305 34.8102C31.1305 34.5502 30.8305 34.3602 30.5205 34.2402C30.2105 34.1202 29.8706 34.0602 29.5106 34.0602C29.0106 34.0602 28.6205 34.1702 28.3405 34.3802C28.0605 34.5902 27.9205 34.8802 27.9205 35.2602C27.9205 35.5802 28.0406 35.8302 28.2906 35.9902C28.5406 36.1502 28.9105 36.2902 29.4205 36.4102C29.9705 36.5402 30.4106 36.6602 30.7206 36.7702C31.0306 36.8802 31.3006 37.0502 31.5106 37.2702C31.7206 37.5002 31.8205 37.7902 31.8205 38.1702C31.8205 38.5502 31.7205 38.8502 31.5305 39.1202C31.3405 39.3902 31.0605 39.6002 30.7105 39.7502C30.3505 39.9002 29.9305 39.9802 29.4505 39.9802C28.4505 39.9802 27.6505 39.7102 27.0605 39.1702V39.1602Z" fill="#231815"/>
<path d="M5.44968 51.1999V51.8899H0.86969V51.2699L3.35969 48.5099C3.68969 48.1399 3.93968 47.7999 4.08968 47.4999C4.23968 47.1999 4.31969 46.8999 4.31969 46.5999C4.31969 46.2099 4.20969 45.8999 3.97969 45.6899C3.74969 45.4799 3.42969 45.3799 3.00969 45.3799C2.32969 45.3799 1.65969 45.6499 0.989685 46.1999L0.679688 45.5699C0.959688 45.2999 1.30969 45.0899 1.73969 44.9299C2.16969 44.7699 2.59969 44.6899 3.02969 44.6899C3.67969 44.6899 4.19969 44.8599 4.57969 45.1899C4.95969 45.5299 5.14969 45.9799 5.14969 46.5599C5.14969 46.9699 5.05968 47.3599 4.87968 47.7299C4.69968 48.1099 4.38969 48.5299 3.95969 48.9999L1.92969 51.1999H5.44968V51.1999Z" fill="#AA8420"/>
<path d="M7.17906 51.0497C6.75906 50.4297 6.53906 49.5297 6.53906 48.3397C6.53906 47.1497 6.74906 46.2397 7.17906 45.6197C7.59906 44.9997 8.21906 44.6997 9.02906 44.6997C9.83906 44.6997 10.4591 45.0097 10.8791 45.6197C11.2991 46.2397 11.5191 47.1397 11.5191 48.3297C11.5191 49.5197 11.3091 50.4297 10.8791 51.0497C10.4591 51.6697 9.83906 51.9797 9.02906 51.9797C8.21906 51.9797 7.59906 51.6697 7.17906 51.0597V51.0497ZM10.2891 50.5597C10.5591 50.0797 10.6991 49.3297 10.6991 48.3197C10.6991 47.3097 10.5691 46.5697 10.2991 46.0997C10.0291 45.6297 9.60906 45.3897 9.03906 45.3897C8.46906 45.3897 8.05906 45.6297 7.78906 46.0997C7.51906 46.5697 7.37906 47.3097 7.37906 48.3197C7.37906 49.3297 7.51906 50.0697 7.78906 50.5597C8.05906 51.0497 8.47906 51.2797 9.03906 51.2797C9.59906 51.2797 10.0191 51.0397 10.2891 50.5597V50.5597Z" fill="#AA8420"/>
<path d="M22.6796 48.7297V51.8897H21.8696V48.7697C21.8696 48.2997 21.7896 47.9497 21.6196 47.7397C21.4596 47.5297 21.1896 47.4197 20.8296 47.4197C20.3996 47.4197 20.0696 47.5597 19.8296 47.8497C19.5896 48.1397 19.4696 48.5297 19.4696 49.0197V51.8897H18.6596V48.7697C18.6596 48.2997 18.5796 47.9597 18.4096 47.7497C18.2396 47.5297 17.9796 47.4197 17.6096 47.4197C17.1796 47.4197 16.8496 47.5597 16.6096 47.8497C16.3696 48.1397 16.2396 48.5297 16.2396 49.0197V51.8897H15.4296V48.2697C15.4296 47.7497 15.3996 47.2797 15.3496 46.8597H16.1196L16.1996 47.7397C16.3396 47.4197 16.5496 47.1697 16.8196 46.9997C17.0996 46.8297 17.4196 46.7397 17.7896 46.7397C18.1896 46.7397 18.5196 46.8197 18.7696 46.9797C19.0196 47.1397 19.2096 47.3897 19.3296 47.7197C19.4796 47.4197 19.7096 47.1797 19.9996 47.0097C20.2996 46.8297 20.6296 46.7397 20.9996 46.7397C22.1096 46.7397 22.6696 47.3997 22.6696 48.7297H22.6796Z" fill="#AA8420"/>
<path d="M31.4706 48.7297V51.8897H30.6606V48.7697C30.6606 48.2997 30.5806 47.9497 30.4106 47.7397C30.2506 47.5297 29.9806 47.4197 29.6206 47.4197C29.1906 47.4197 28.8606 47.5597 28.6206 47.8497C28.3806 48.1397 28.2606 48.5297 28.2606 49.0197V51.8897H27.4506V48.7697C27.4506 48.2997 27.3706 47.9597 27.2006 47.7497C27.0306 47.5297 26.7706 47.4197 26.4006 47.4197C25.9706 47.4197 25.6406 47.5597 25.4006 47.8497C25.1606 48.1397 25.0306 48.5297 25.0306 49.0197V51.8897H24.2206V48.2697C24.2206 47.7497 24.1906 47.2797 24.1406 46.8597H24.9106L24.9906 47.7397C25.1306 47.4197 25.3406 47.1697 25.6106 46.9997C25.8906 46.8297 26.2106 46.7397 26.5806 46.7397C26.9806 46.7397 27.3106 46.8197 27.5606 46.9797C27.8106 47.1397 28.0006 47.3897 28.1206 47.7197C28.2706 47.4197 28.5006 47.1797 28.7906 47.0097C29.0906 46.8297 29.4206 46.7397 29.7906 46.7397C30.9006 46.7397 31.4606 47.3997 31.4606 48.7297H31.4706Z" fill="#AA8420"/>
<path d="M174.761 39.5702C174.321 39.3102 173.981 38.9302 173.751 38.4302C173.511 37.9402 173.391 37.3502 173.391 36.6902C173.391 36.0302 173.511 35.4402 173.741 34.9402C173.971 34.4502 174.311 34.0702 174.751 33.8102C175.191 33.5502 175.711 33.4102 176.311 33.4102C176.911 33.4102 177.431 33.5402 177.871 33.8102C178.311 34.0802 178.641 34.4502 178.881 34.9402C179.121 35.4302 179.231 36.0102 179.231 36.6802C179.231 37.3502 179.111 37.9302 178.871 38.4302C178.631 38.9202 178.301 39.3002 177.861 39.5702C177.421 39.8402 176.911 39.9702 176.311 39.9702C175.711 39.9702 175.201 39.8402 174.761 39.5702V39.5702ZM177.891 38.6402C178.271 38.1802 178.461 37.5202 178.461 36.6802C178.461 35.8402 178.271 35.1802 177.901 34.7302C177.531 34.2802 177.001 34.0502 176.311 34.0502C175.621 34.0502 175.091 34.2802 174.721 34.7402C174.351 35.2002 174.151 35.8502 174.151 36.6902C174.151 37.5302 174.341 38.1902 174.721 38.6502C175.101 39.1102 175.631 39.3402 176.311 39.3402C176.991 39.3402 177.521 39.1102 177.891 38.6502V38.6402Z" fill="#231815"/>
<path d="M185.71 33.4902V39.9002H185.13L181.26 34.7402V39.9002H180.57V33.4902H181.14L185.01 38.6502V33.4902H185.71V33.4902Z" fill="#231815"/>
<path d="M187.291 33.4902H188.031V39.2702H191.241V39.9002H187.291V33.4902V33.4902Z" fill="#231815"/>
<path d="M192.191 33.4902H192.931V39.9002H192.191V33.4902V33.4902Z" fill="#231815"/>
<path d="M199.65 33.4902V39.9002H199.07L195.2 34.7402V39.9002H194.51V33.4902H195.08L198.95 38.6502V33.4902H199.65V33.4902Z" fill="#231815"/>
<path d="M201.23 33.49H205.28V34.1H201.96V36.33H205.1V36.95H201.96V39.28H205.28V39.89H201.23V33.48V33.49Z" fill="#231815"/>
<path d="M177.999 48.8902C178.259 49.2002 178.379 49.5702 178.379 50.0102C178.379 50.6202 178.149 51.0902 177.689 51.4402C177.229 51.7902 176.609 51.9702 175.829 51.9702C175.049 51.9702 174.429 51.7902 173.969 51.4402C173.509 51.0902 173.279 50.6102 173.279 50.0102C173.279 49.5802 173.409 49.2002 173.679 48.8902C173.939 48.5802 174.299 48.3602 174.759 48.2402C174.329 48.1102 174.009 47.9102 173.779 47.6202C173.549 47.3302 173.439 46.9902 173.439 46.6002C173.439 46.2102 173.539 45.8902 173.739 45.6002C173.939 45.3202 174.219 45.1002 174.579 44.9402C174.939 44.7802 175.359 44.7002 175.829 44.7002C176.299 44.7002 176.709 44.7802 177.079 44.9402C177.439 45.1002 177.729 45.3202 177.919 45.6002C178.119 45.8802 178.219 46.2102 178.219 46.6002C178.219 46.9902 178.099 47.3302 177.869 47.6202C177.639 47.9102 177.319 48.1202 176.909 48.2402C177.379 48.3702 177.739 48.5802 177.989 48.9002L177.999 48.8902ZM177.119 50.9402C177.419 50.7102 177.569 50.3802 177.569 49.9502C177.569 49.5602 177.409 49.2402 177.089 49.0102C176.769 48.7702 176.349 48.6302 175.819 48.5702C175.289 48.6202 174.869 48.7702 174.549 49.0102C174.229 49.2502 174.069 49.5602 174.069 49.9502C174.069 50.3802 174.219 50.7102 174.519 50.9402C174.819 51.1702 175.249 51.2802 175.809 51.2802C176.369 51.2802 176.799 51.1702 177.099 50.9402H177.119ZM174.679 47.5602C174.959 47.8002 175.349 47.9402 175.829 48.0002C176.309 47.9502 176.689 47.8002 176.979 47.5602C177.259 47.3202 177.399 47.0202 177.399 46.6402C177.399 46.2602 177.259 45.9402 176.979 45.7102C176.699 45.4802 176.319 45.3702 175.829 45.3702C175.339 45.3702 174.949 45.4802 174.679 45.7102C174.399 45.9402 174.259 46.2502 174.259 46.6402C174.259 47.0302 174.399 47.3302 174.679 47.5602Z" fill="#AA8420"/>
<path d="M183.309 47.71C183.649 47.9 183.899 48.16 184.079 48.5C184.259 48.84 184.349 49.23 184.349 49.68C184.349 50.13 184.249 50.52 184.059 50.87C183.859 51.22 183.579 51.48 183.219 51.67C182.859 51.86 182.429 51.96 181.949 51.96C181.519 51.96 181.089 51.88 180.669 51.72C180.249 51.56 179.899 51.35 179.609 51.08L179.919 50.45C180.579 51 181.259 51.27 181.949 51.27C182.449 51.27 182.839 51.13 183.129 50.85C183.409 50.57 183.549 50.18 183.549 49.69C183.549 49.2 183.409 48.84 183.129 48.55C182.849 48.26 182.479 48.11 182.009 48.11C181.329 48.11 180.789 48.39 180.379 48.94H179.809V44.77H184.079V45.45H180.629V47.99C181.019 47.61 181.529 47.42 182.139 47.42C182.589 47.42 182.979 47.51 183.319 47.71H183.309Z" fill="#AA8420"/>
<path d="M191.899 47.0702C192.239 47.2902 192.499 47.6002 192.689 48.0002C192.879 48.4002 192.969 48.8502 192.969 49.3802C192.969 49.9102 192.879 50.3502 192.689 50.7402C192.499 51.1302 192.239 51.4302 191.899 51.6502C191.559 51.8602 191.169 51.9702 190.729 51.9702C190.339 51.9702 189.989 51.8802 189.699 51.7102C189.409 51.5402 189.179 51.2902 189.029 50.9702V54.0602H188.219V48.2802C188.219 47.7602 188.189 47.2902 188.139 46.8702H188.909L188.989 47.8402C189.129 47.4902 189.349 47.2202 189.659 47.0302C189.959 46.8402 190.319 46.7402 190.739 46.7402C191.179 46.7402 191.569 46.8502 191.909 47.0702H191.899ZM191.729 50.7902C191.999 50.4602 192.129 49.9802 192.129 49.3702C192.129 48.7602 191.989 48.2802 191.719 47.9302C191.449 47.5902 191.069 47.4202 190.579 47.4202C190.089 47.4202 189.699 47.5902 189.429 47.9202C189.159 48.2502 189.029 48.7302 189.029 49.3502C189.029 49.9702 189.159 50.4502 189.429 50.7802C189.699 51.1202 190.079 51.2902 190.579 51.2902C191.079 51.2902 191.459 51.1202 191.729 50.7902V50.7902Z" fill="#AA8420"/>
<path d="M198.579 51.8904H197.609L196.019 49.9104L194.449 51.8904H193.459L195.549 49.3004L193.579 46.8604H194.559L196.019 48.7104L197.479 46.8604H198.469L196.509 49.3004L198.579 51.8904V51.8904Z" fill="#AA8420"/>
</svg>
