<svg width="270" height="32" viewBox="0 0 270 32" fill="none" xmlns="http://www.w3.org/2000/svg">
<path d="M42.8495 31.5398H35.5195V0.299805H42.8495V0.549805H35.7695V31.2898H42.8495V31.5398Z" fill="#231815"/>
<path d="M233.759 31.5398H226.439V31.2898H233.509V0.549805H226.439V0.299805H233.759V31.5398Z" fill="#231815"/>
<path d="M0.449463 8.43994H3.00946C3.66946 8.43994 4.17944 8.59994 4.54944 8.91994C4.91944 9.23994 5.09946 9.67994 5.09946 10.2299C5.09946 10.7799 4.90946 11.2299 4.53946 11.5499C4.16946 11.8699 3.64945 12.0299 2.99945 12.0299H1.17944V14.8499H0.439453V8.43994H0.449463ZM2.93945 11.4199C3.40945 11.4199 3.76946 11.3199 4.00946 11.1099C4.24946 10.9099 4.36945 10.6099 4.36945 10.2299C4.36945 9.84994 4.24946 9.54994 4.00946 9.34994C3.76946 9.14994 3.40945 9.04994 2.93945 9.04994H1.17944V11.4199H2.93945V11.4199Z" fill="#231815"/>
<path d="M11.3403 14.8497H10.5603L9.77029 12.7197C9.67029 12.4597 9.5403 12.2797 9.3703 12.1897C9.2003 12.0997 8.9603 12.0597 8.6503 12.0597H7.05029V14.8597H6.32031V8.44971H8.8703C9.5603 8.44971 10.0903 8.59971 10.4603 8.90971C10.8303 9.21971 11.0103 9.65971 11.0103 10.2297C11.0103 10.6497 10.9003 10.9997 10.6803 11.2897C10.4603 11.5797 10.1403 11.7797 9.73032 11.8997C9.92032 11.9297 10.0703 12.0097 10.2103 12.1397C10.3403 12.2697 10.4503 12.4497 10.5403 12.6897L11.3503 14.8597L11.3403 14.8497ZM8.79031 11.4397C9.77031 11.4397 10.2703 11.0397 10.2703 10.2297C10.2703 9.82971 10.1503 9.53971 9.91031 9.33971C9.67031 9.14971 9.30031 9.04971 8.79031 9.04971H7.04031V11.4297H8.79031V11.4397Z" fill="#231815"/>
<path d="M12.5488 8.43994H13.2888V14.8499H12.5488V8.43994Z" fill="#231815"/>
<path d="M20.0092 8.43994V14.8499H19.4291L15.5591 9.68994V14.8499H14.8691V8.43994H15.4391L19.3091 13.5999V8.43994H20.0092Z" fill="#231815"/>
<path d="M23.1304 9.06994H20.9004V8.43994H26.1104V9.06994H23.8804V14.8499H23.1304V9.06994V9.06994Z" fill="#231815"/>
<path d="M26.4297 14.1099L26.7097 13.5399C27.0297 13.8099 27.3497 13.9999 27.6797 14.1199C28.0097 14.2299 28.3897 14.2899 28.8297 14.2899C29.3497 14.2899 29.7397 14.1899 30.0197 13.9899C30.2997 13.7899 30.4397 13.5099 30.4397 13.1399C30.4397 12.9199 30.3697 12.7499 30.2397 12.6099C30.0997 12.4799 29.9297 12.3699 29.7097 12.2899C29.4897 12.2099 29.1997 12.1299 28.8297 12.0499C28.3397 11.9399 27.9297 11.8199 27.6197 11.6999C27.2997 11.5699 27.0397 11.3899 26.8497 11.1599C26.6497 10.9199 26.5497 10.6099 26.5497 10.2299C26.5497 9.84989 26.6497 9.53989 26.8397 9.25989C27.0297 8.97989 27.2997 8.75989 27.6497 8.60989C27.9997 8.45989 28.4097 8.37988 28.8797 8.37988C29.3497 8.37988 29.7397 8.44988 30.1197 8.58988C30.4997 8.72988 30.8297 8.92989 31.0897 9.18989L30.7997 9.75989C30.4997 9.49989 30.1997 9.30989 29.8897 9.18989C29.5797 9.06989 29.2397 9.00989 28.8797 9.00989C28.3797 9.00989 27.9897 9.11989 27.7097 9.32989C27.4297 9.53989 27.2897 9.82988 27.2897 10.2099C27.2897 10.5299 27.4097 10.7799 27.6597 10.9399C27.9097 11.0999 28.2797 11.2399 28.7897 11.3599C29.3397 11.4899 29.7797 11.6099 30.0897 11.7199C30.3997 11.8299 30.6697 11.9999 30.8797 12.2199C31.0897 12.4499 31.1897 12.7399 31.1897 13.1199C31.1897 13.4999 31.0897 13.7999 30.8997 14.0699C30.7097 14.3399 30.4297 14.5499 30.0797 14.6999C29.7197 14.8499 29.2997 14.9299 28.8197 14.9299C27.8197 14.9299 27.0197 14.6599 26.4297 14.1199V14.1099Z" fill="#231815"/>
<path d="M10.5794 23.8399C10.8394 24.1499 10.9594 24.5199 10.9594 24.9599C10.9594 25.5699 10.7294 26.0399 10.2694 26.3899C9.80938 26.7399 9.18939 26.9199 8.40939 26.9199C7.62939 26.9199 7.00938 26.7399 6.54938 26.3899C6.08938 26.0399 5.85938 25.5599 5.85938 24.9599C5.85938 24.5299 5.9894 24.1499 6.2594 23.8399C6.5194 23.5299 6.87939 23.3099 7.33939 23.1899C6.90939 23.0599 6.58938 22.8599 6.35938 22.5699C6.12937 22.2799 6.01938 21.9399 6.01938 21.5499C6.01938 21.1599 6.1194 20.8399 6.3194 20.5499C6.5194 20.2699 6.79939 20.0499 7.15939 19.8899C7.51939 19.7299 7.93939 19.6499 8.40939 19.6499C8.87939 19.6499 9.28939 19.7299 9.65939 19.8899C10.0194 20.0499 10.3094 20.2699 10.4994 20.5499C10.6994 20.8299 10.7994 21.1599 10.7994 21.5499C10.7994 21.9399 10.6794 22.2799 10.4494 22.5699C10.2194 22.8599 9.89938 23.0699 9.48938 23.1899C9.95938 23.3199 10.3194 23.5299 10.5694 23.8499L10.5794 23.8399ZM9.6994 25.8899C9.9994 25.6599 10.1494 25.3299 10.1494 24.8999C10.1494 24.5099 9.9894 24.1899 9.6694 23.9599C9.3494 23.7199 8.92938 23.5799 8.39938 23.5199C7.86938 23.5699 7.44939 23.7199 7.12939 23.9599C6.80939 24.1999 6.64938 24.5099 6.64938 24.8999C6.64938 25.3299 6.7994 25.6599 7.0994 25.8899C7.3994 26.1199 7.8294 26.2299 8.3894 26.2299C8.9494 26.2299 9.37938 26.1199 9.67938 25.8899H9.6994ZM7.2594 22.5099C7.5394 22.7499 7.92939 22.8899 8.40939 22.9499C8.88939 22.8999 9.26939 22.7499 9.55939 22.5099C9.83939 22.2699 9.9794 21.9699 9.9794 21.5899C9.9794 21.2099 9.83939 20.8899 9.55939 20.6599C9.27939 20.4299 8.89939 20.3199 8.40939 20.3199C7.91939 20.3199 7.5294 20.4299 7.2594 20.6599C6.9794 20.8899 6.83939 21.1999 6.83939 21.5899C6.83939 21.9799 6.9794 22.2799 7.2594 22.5099Z" fill="#AA8420"/>
<path d="M22.0585 23.6897V26.8497H21.2485V23.7297C21.2485 23.2597 21.1685 22.9097 20.9985 22.6997C20.8385 22.4897 20.5685 22.3797 20.2085 22.3797C19.7785 22.3797 19.4485 22.5197 19.2085 22.8097C18.9685 23.0997 18.8485 23.4897 18.8485 23.9797V26.8497H18.0385V23.7297C18.0385 23.2597 17.9585 22.9197 17.7885 22.7097C17.6185 22.4897 17.3585 22.3797 16.9885 22.3797C16.5585 22.3797 16.2285 22.5197 15.9885 22.8097C15.7485 23.0997 15.6185 23.4897 15.6185 23.9797V26.8497H14.8085V23.2297C14.8085 22.7097 14.7785 22.2397 14.7285 21.8197H15.4985L15.5785 22.6997C15.7185 22.3797 15.9285 22.1297 16.1985 21.9597C16.4785 21.7897 16.7985 21.6997 17.1685 21.6997C17.5685 21.6997 17.8985 21.7797 18.1485 21.9397C18.3985 22.0997 18.5885 22.3497 18.7085 22.6797C18.8585 22.3797 19.0885 22.1397 19.3785 21.9697C19.6785 21.7897 20.0085 21.6997 20.3785 21.6997C21.4885 21.6997 22.0485 22.3597 22.0485 23.6897H22.0585Z" fill="#AA8420"/>
<path d="M30.8495 23.6897V26.8497H30.0396V23.7297C30.0396 23.2597 29.9596 22.9097 29.7896 22.6997C29.6296 22.4897 29.3595 22.3797 28.9995 22.3797C28.5695 22.3797 28.2395 22.5197 27.9995 22.8097C27.7595 23.0997 27.6396 23.4897 27.6396 23.9797V26.8497H26.8295V23.7297C26.8295 23.2597 26.7495 22.9197 26.5795 22.7097C26.4095 22.4897 26.1495 22.3797 25.7795 22.3797C25.3495 22.3797 25.0195 22.5197 24.7795 22.8097C24.5395 23.0997 24.4095 23.4897 24.4095 23.9797V26.8497H23.5995V23.2297C23.5995 22.7097 23.5695 22.2397 23.5195 21.8197H24.2896L24.3695 22.6997C24.5095 22.3797 24.7195 22.1297 24.9895 21.9597C25.2695 21.7897 25.5895 21.6997 25.9595 21.6997C26.3595 21.6997 26.6895 21.7797 26.9395 21.9397C27.1895 22.0997 27.3795 22.3497 27.4995 22.6797C27.6495 22.3797 27.8796 22.1397 28.1696 21.9697C28.4696 21.7897 28.7996 21.6997 29.1696 21.6997C30.2796 21.6997 30.8395 22.3597 30.8395 23.6897H30.8495Z" fill="#AA8420"/>
<path d="M239.479 13.0999C239.039 12.8399 238.699 12.4599 238.469 11.9599C238.229 11.4699 238.109 10.8799 238.109 10.2199C238.109 9.55994 238.229 8.96994 238.459 8.46994C238.689 7.97994 239.029 7.59994 239.469 7.33994C239.909 7.07994 240.429 6.93994 241.029 6.93994C241.629 6.93994 242.149 7.06994 242.589 7.33994C243.029 7.59994 243.359 7.97994 243.599 8.46994C243.829 8.95994 243.949 9.53994 243.949 10.2099C243.949 10.8799 243.829 11.4599 243.589 11.9599C243.349 12.4599 243.019 12.8299 242.579 13.0999C242.139 13.3699 241.629 13.4999 241.029 13.4999C240.429 13.4999 239.919 13.3699 239.479 13.0999ZM242.609 12.1699C242.989 11.7099 243.179 11.0499 243.179 10.2099C243.179 9.36994 242.989 8.70994 242.619 8.25994C242.249 7.80994 241.719 7.57994 241.029 7.57994C240.339 7.57994 239.819 7.80994 239.439 8.26994C239.059 8.72994 238.869 9.37994 238.869 10.2199C238.869 11.0599 239.059 11.7199 239.439 12.1799C239.819 12.6399 240.349 12.8699 241.029 12.8699C241.709 12.8699 242.239 12.6399 242.609 12.1799V12.1699Z" fill="#231815"/>
<path d="M250.439 7.00977V13.4198H249.859L245.989 8.25977V13.4198H245.299V7.00977H245.869L249.739 12.1698V7.00977H250.439Z" fill="#231815"/>
<path d="M252.01 7.00977H252.75V12.7898H255.96V13.4198H252.01V7.00977Z" fill="#231815"/>
<path d="M256.92 7.00977H257.66V13.4198H256.92V7.00977Z" fill="#231815"/>
<path d="M264.38 7.00977V13.4198H263.8L259.93 8.25977V13.4198H259.24V7.00977H259.81L263.68 12.1698V7.00977H264.38Z" fill="#231815"/>
<path d="M265.949 7.01H269.999V7.62H266.679V9.85H269.819V10.47H266.679V12.8H269.999V13.41H265.949V7V7.01Z" fill="#231815"/>
<path d="M243.229 23.8698H242.149V25.4198H241.329V23.8698H238.049V23.2498L241.479 18.2998H242.149V23.1898H243.229V23.8698V23.8698ZM241.329 23.1898V19.6898L238.899 23.1898H241.329Z" fill="#AA8420"/>
<path d="M244.698 24.58C244.278 23.96 244.068 23.06 244.068 21.87C244.068 20.68 244.278 19.77 244.698 19.15C245.118 18.53 245.738 18.23 246.558 18.23C247.378 18.23 247.988 18.54 248.408 19.15C248.828 19.77 249.048 20.67 249.048 21.86C249.048 23.05 248.838 23.96 248.408 24.58C247.988 25.2 247.368 25.51 246.558 25.51C245.748 25.51 245.128 25.2 244.698 24.59V24.58ZM247.808 24.09C248.078 23.61 248.218 22.86 248.218 21.85C248.218 20.84 248.088 20.1 247.818 19.63C247.548 19.16 247.128 18.92 246.558 18.92C245.988 18.92 245.568 19.16 245.308 19.63C245.038 20.1 244.898 20.84 244.898 21.85C244.898 22.86 245.028 23.6 245.308 24.09C245.578 24.57 245.998 24.81 246.558 24.81C247.118 24.81 247.538 24.57 247.808 24.09Z" fill="#AA8420"/>
<path d="M256.629 20.6C256.969 20.82 257.229 21.13 257.419 21.53C257.609 21.93 257.699 22.38 257.699 22.91C257.699 23.44 257.609 23.88 257.419 24.27C257.229 24.66 256.969 24.96 256.629 25.18C256.289 25.39 255.899 25.5 255.459 25.5C255.069 25.5 254.719 25.41 254.429 25.24C254.139 25.07 253.909 24.82 253.759 24.5V27.59H252.949V21.81C252.949 21.29 252.919 20.82 252.869 20.4H253.639L253.719 21.37C253.859 21.02 254.079 20.75 254.389 20.56C254.689 20.37 255.049 20.27 255.469 20.27C255.909 20.27 256.299 20.38 256.639 20.6H256.629ZM256.459 24.32C256.729 23.99 256.869 23.51 256.869 22.9C256.869 22.29 256.729 21.81 256.459 21.46C256.189 21.12 255.809 20.95 255.319 20.95C254.829 20.95 254.439 21.12 254.169 21.45C253.899 21.78 253.769 22.26 253.769 22.88C253.769 23.5 253.899 23.98 254.169 24.31C254.439 24.65 254.819 24.82 255.319 24.82C255.819 24.82 256.199 24.65 256.459 24.32V24.32Z" fill="#AA8420"/>
<path d="M263.309 25.4201H262.339L260.749 23.4401L259.179 25.4201H258.189L260.279 22.8301L258.309 20.3901H259.289L260.749 22.2401L262.209 20.3901H263.199L261.239 22.8301L263.309 25.4201Z" fill="#AA8420"/>
<path d="M68.0989 6.68969C68.2489 6.50969 68.299 6.17969 68.299 6.17969H59.459C59.459 6.17969 59.5689 6.54969 59.6589 6.68969H68.0989V6.68969Z" fill="#A68238"/>
<path d="M67.5901 7.44C67.7501 7.29 67.92 7 67.92 7H59.8301C59.8301 7 59.9201 7.22 60.1201 7.44H67.5901Z" fill="#A68238"/>
<path d="M66.9504 8.12004C67.1504 8.01004 67.3204 7.79004 67.3204 7.79004H60.4004C60.4004 7.79004 60.5703 7.97004 60.7303 8.12004H66.9504V8.12004Z" fill="#A68238"/>
<path d="M66.1402 8.76C66.3402 8.68 66.5602 8.5 66.5602 8.5H61.1602C61.1602 8.5 61.1602 8.54 61.5402 8.76H66.1302H66.1402Z" fill="#A68238"/>
<path d="M62.1699 9.15967C62.1699 9.15967 62.7399 9.48966 63.8499 9.48966C64.9599 9.48966 65.6799 9.15967 65.6799 9.15967H62.1699Z" fill="#A68238"/>
<path d="M62.0803 9.90967C62.0803 9.90967 62.7603 9.94967 63.1603 10.2597C63.5503 10.5897 63.8403 11.1397 63.8403 11.1397C63.8403 11.1397 64.0803 10.6097 64.4603 10.3397C64.8403 10.0397 65.4703 9.91966 65.4703 9.91966H72.4503L73.8203 11.9497H67.5603C67.5603 11.9497 67.1203 11.9697 66.4603 12.3597C66.1103 12.5597 65.8503 12.9097 65.8503 12.9097C65.8503 12.9097 65.8003 13.0697 65.7203 13.1597C65.6503 13.2497 65.5903 13.3297 65.5003 13.3597C65.4103 13.3997 65.4303 13.3797 65.4303 13.3797H62.1703C62.1703 13.3797 62.0403 13.3297 61.9703 13.2197C61.9003 13.1097 61.9503 13.1497 61.8803 13.0597C61.8203 12.9697 61.7003 12.7297 61.2003 12.3997C60.6903 12.0697 60.1903 12.0297 60.1903 12.0297H53.8203L55.2103 9.92966H62.0703L62.0803 9.90967Z" fill="#003873"/>
<path d="M57.1602 12.7798V23.1798C57.1602 23.1798 57.2002 24.0998 57.9702 25.3398C58.7402 26.5898 59.8602 27.1498 59.8602 27.1498L60.7402 25.7798C60.7402 25.7798 59.9702 25.3198 59.3902 24.4398C58.8202 23.5598 58.8202 22.8098 58.8202 22.8098V12.7798H57.1702H57.1602Z" fill="#003873"/>
<path d="M68.9501 12.75V22.78C68.9501 22.78 68.8201 23.79 68.3401 24.5C67.8601 25.23 67.0801 25.82 67.0801 25.82L67.92 27.17C67.92 27.17 69.2001 26.24 69.8201 25.25C70.4401 24.26 70.5901 22.78 70.5901 22.78V12.75H68.9401H68.9501Z" fill="#003873"/>
<path d="M54.5391 12.7798V23.2098C54.5391 23.2098 54.6491 24.8198 55.6491 26.5098C56.6591 28.1898 58.4891 29.3698 58.4891 29.3698L59.3491 27.9998C59.3491 27.9998 58.1791 27.3798 57.2491 25.9498C56.2891 24.4998 56.2391 23.1898 56.2391 23.1898V12.7898H54.5391V12.7798Z" fill="#003873"/>
<path d="M62.0788 13.8799V24.8999C62.0788 24.8999 62.0388 24.9399 62.0288 25.0999C62.0088 25.2699 61.8988 25.3799 61.8988 25.3799L58.2188 31.4699H69.4988L65.8188 25.2399L65.7088 24.9699L65.6688 24.6799V13.8999H64.2988V25.0899C64.2988 25.0899 64.2988 25.2499 64.3488 25.3799C64.3788 25.5099 64.4588 25.7099 64.4588 25.7099L66.7288 29.4399H60.9788L63.2088 25.7299C63.2088 25.7299 63.2788 25.5999 63.3388 25.4199C63.3788 25.2499 63.3888 25.0899 63.3888 25.0899V13.8799H62.0688H62.0788Z" fill="#A68238"/>
<path d="M71.4902 12.75V23C71.4902 23 71.4702 24.32 70.5002 25.84C69.5302 27.36 68.4102 28 68.4102 28L69.2402 29.39C69.2402 29.39 70.9202 28.32 71.9902 26.64C73.0302 24.96 73.1602 23 73.1602 23V12.75H71.4902Z" fill="#003873"/>
<path d="M59.4088 5.8798C59.4088 5.8798 58.8488 2.78981 61.1188 1.24981C61.1188 1.24981 62.1488 0.299805 63.8088 0.299805C65.5888 0.299805 66.6088 1.2298 66.6088 1.2298C69.0788 3.0398 68.3488 5.8798 68.3488 5.8798H59.4188H59.4088Z" fill="#A68238"/>
<path d="M81.2997 20.4397H82.1497V14.4097H83.7597V13.6396H79.6797V14.4097H81.2997V20.4397Z" fill="#003477"/>
<path d="M85.2992 17.1696H88.5392V20.4397H89.3792V13.6396H88.5392V16.3796H85.2992V13.6396H84.4492V20.4397H85.2992V17.1696Z" fill="#003477"/>
<path d="M94.3592 19.6597H91.5492V17.0896H94.2692V16.3196H91.5492V14.4097H94.3592V13.6396H90.6992V20.4397H94.3592V19.6597Z" fill="#003477"/>
<path d="M98.9711 17.1696H102.211V20.4397H103.051V13.6396H102.211V16.3796H98.9711V13.6396H98.1211V20.4397H98.9711V17.1696Z" fill="#003477"/>
<path d="M107.461 13.4897C105.511 13.4897 103.891 15.0897 103.891 17.0397C103.891 18.9897 105.491 20.5897 107.461 20.5897C109.431 20.5897 111.021 19.0597 111.021 17.0397C111.021 15.0197 109.401 13.4897 107.461 13.4897ZM107.461 19.7897C105.991 19.7897 104.741 18.5897 104.741 17.0397C104.741 15.4897 105.861 14.2897 107.461 14.2897C109.061 14.2897 110.181 15.5497 110.181 17.0397C110.181 18.5297 108.941 19.7897 107.461 19.7897Z" fill="#003477"/>
<path d="M116.96 18.6596L111.85 13.3096V20.4396H112.7V15.3696L117.81 20.7196V13.6396H116.96V18.6596Z" fill="#003477"/>
<path d="M122.61 17.7897H124.37C124.33 18.8997 123.2 19.8097 122.14 19.8097C120.67 19.8097 119.5 18.4597 119.5 17.0297C119.5 15.4997 120.69 14.2697 122.22 14.2697C123.05 14.2697 123.87 14.7097 124.36 15.3797L124.96 14.8097C124.29 13.9697 123.25 13.4897 122.19 13.4897C120.23 13.4897 118.66 15.0997 118.66 17.0597C118.66 19.0197 120.2 20.5897 122.1 20.5897C124 20.5897 125.32 19.1597 125.32 17.2897V17.0197H122.62V17.7897H122.61Z" fill="#003477"/>
<path d="M128.93 13.6396V20.4397H129.78V17.5996L130.12 17.2696L132.69 20.4397H133.83L130.72 16.6897L133.78 13.6396H132.67L129.78 16.5896V13.6396H128.93Z" fill="#003477"/>
<path d="M137.519 13.4897C135.569 13.4897 133.949 15.0897 133.949 17.0397C133.949 18.9897 135.549 20.5897 137.519 20.5897C139.489 20.5897 141.079 19.0597 141.079 17.0397C141.079 15.0197 139.469 13.4897 137.519 13.4897ZM137.519 19.7897C136.049 19.7897 134.799 18.5897 134.799 17.0397C134.799 15.4897 135.919 14.2897 137.519 14.2897C139.119 14.2897 140.239 15.5497 140.239 17.0397C140.239 18.5297 138.999 19.7897 137.519 19.7897Z" fill="#003477"/>
<path d="M142.76 15.3696L147.87 20.7196V13.6396H147.02V18.6596L141.92 13.3096V20.4396H142.76V15.3696Z" fill="#003477"/>
<path d="M152.671 17.7897H154.431C154.391 18.8997 153.261 19.8097 152.201 19.8097C150.731 19.8097 149.561 18.4597 149.561 17.0297C149.561 15.4997 150.751 14.2697 152.271 14.2697C153.101 14.2697 153.921 14.7097 154.411 15.3797L155.011 14.8097C154.341 13.9697 153.291 13.4897 152.241 13.4897C150.281 13.4897 148.711 15.0997 148.711 17.0597C148.711 19.0197 150.241 20.5897 152.151 20.5897C154.061 20.5897 155.371 19.1597 155.371 17.2897V17.0197H152.671V17.7897V17.7897Z" fill="#003477"/>
<path d="M163.861 17.9397V13.6396H163.011V17.6597C163.011 18.7697 162.681 19.7997 161.371 19.7997C160.061 19.7997 159.731 18.7697 159.731 17.6597V13.6396H158.881V17.9397C158.881 19.4397 159.811 20.5797 161.371 20.5797C162.931 20.5797 163.861 19.4297 163.861 17.9397Z" fill="#003477"/>
<path d="M165.891 15.3696L171.001 20.7196V13.6396H170.151V18.6596L165.041 13.3096V20.4396H165.891V15.3696Z" fill="#003477"/>
<path d="M173.12 13.6396H172.27V20.4397H173.12V13.6396Z" fill="#003477"/>
<path d="M178.75 13.6396L176.729 18.6696L174.7 13.6396H173.77L176.729 20.7997L179.68 13.6396H178.75Z" fill="#003477"/>
<path d="M184 19.6597H181.19V17.0896H183.92V16.3196H181.19V14.4097H184V13.6396H180.34V20.4397H184V19.6597Z" fill="#003477"/>
<path d="M185.991 17.5596H186.341L188.341 20.4397H189.371L187.221 17.4797C188.201 17.3597 188.851 16.5497 188.851 15.5797C188.851 14.9297 188.521 14.2896 187.961 13.9596C187.421 13.6496 186.771 13.6396 186.161 13.6396H185.131V20.4397H185.981V17.5596H185.991ZM185.991 14.3896H186.221C187.061 14.3896 188.071 14.5396 188.071 15.6096C188.071 16.6796 187.131 16.8496 186.261 16.8496H185.991V14.3896V14.3896Z" fill="#003477"/>
<path d="M191.94 19.79C191.21 19.79 190.61 19.25 190.62 18.5L189.76 18.68C189.9 19.77 190.76 20.58 191.86 20.58C193.08 20.58 194.04 19.69 194.04 18.46C194.04 17.32 193.32 16.79 192.35 16.41L191.86 16.22C191.44 16.06 190.91 15.78 190.91 15.25C190.91 14.66 191.51 14.28 192.05 14.28C192.59 14.28 192.89 14.5 193.14 14.92L193.82 14.51C193.45 13.85 192.83 13.48 192.07 13.48C191.04 13.48 190.07 14.14 190.07 15.24C190.07 16.19 190.77 16.63 191.55 16.96L192.02 17.16C192.61 17.4 193.19 17.72 193.19 18.45C193.19 19.18 192.66 19.78 191.93 19.78L191.94 19.79Z" fill="#003477"/>
<path d="M195.879 13.6396H195.029V20.4397H195.879V13.6396Z" fill="#003477"/>
<path d="M196.609 14.4097H198.229V20.4397H199.079V14.4097H200.689V13.6396H196.609V14.4097Z" fill="#003477"/>
<path d="M203.39 16.5396L201.72 13.6396H200.75L202.97 17.4797V20.4397H203.81V17.4797L206.03 13.6396H205.06L203.39 16.5396Z" fill="#003477"/>
<path d="M212.49 13.4897C210.54 13.4897 208.93 15.0897 208.93 17.0397C208.93 18.9897 210.53 20.5897 212.49 20.5897C214.45 20.5897 216.05 19.0597 216.05 17.0397C216.05 15.0197 214.44 13.4897 212.49 13.4897ZM212.49 19.7897C211.02 19.7897 209.77 18.5897 209.77 17.0397C209.77 15.4897 210.89 14.2897 212.49 14.2897C214.09 14.2897 215.21 15.5497 215.21 17.0397C215.21 18.5297 213.96 19.7897 212.49 19.7897Z" fill="#003477"/>
<path d="M220.251 14.4097V13.6396H216.961V20.4397H217.811V17.0996H220.171V16.3196H217.811V14.4097H220.251Z" fill="#003477"/>
<path d="M82.5392 27.2396L82.0492 27.0496C81.6292 26.8896 81.0992 26.6096 81.0992 26.0796C81.0992 25.4896 81.6992 25.1096 82.2392 25.1096C82.7792 25.1096 83.0792 25.3296 83.3292 25.7496L84.0092 25.3396C83.6392 24.6796 83.0192 24.3096 82.2592 24.3096C81.2292 24.3096 80.2592 24.9696 80.2592 26.0696C80.2592 27.0196 80.9692 27.4596 81.7392 27.7996L82.2092 27.9996C82.7992 28.2396 83.3792 28.5596 83.3792 29.2896C83.3792 30.0196 82.8592 30.6196 82.1292 30.6196C81.3992 30.6196 80.7992 30.0796 80.8092 29.3296L79.9492 29.5096C80.0892 30.5996 80.9492 31.4096 82.0492 31.4096C83.2692 31.4096 84.2192 30.5296 84.2192 29.2896C84.2192 28.1496 83.4992 27.6196 82.5292 27.2396H82.5392Z" fill="#003477"/>
<path d="M84.8711 27.8998C84.8711 29.8698 86.4811 31.4098 88.4211 31.4098C89.0111 31.4098 89.6811 31.2398 90.2111 30.9298V29.9298C89.7111 30.3798 89.0611 30.6298 88.4011 30.6298C86.8811 30.6298 85.7311 29.3598 85.7311 27.8698C85.7311 26.3798 86.8911 25.0898 88.4211 25.0898C89.0611 25.0898 89.7311 25.3198 90.2111 25.7598V24.7798C89.7011 24.4598 89.0911 24.3198 88.5011 24.3198C86.5011 24.3198 84.8811 25.8898 84.8811 27.8998H84.8711Z" fill="#003477"/>
<path d="M92.1293 24.46H91.2793V31.26H92.1293V24.46Z" fill="#003477"/>
<path d="M93.4902 31.26H97.1403V30.49H94.3403V27.92H97.0602V27.14H94.3403V25.24H97.1403V24.46H93.4902V31.26Z" fill="#003477"/>
<path d="M103.309 29.4896L98.1992 24.1396V31.2696H99.0492V26.1897L104.149 31.5396V24.4596H103.309V29.4896Z" fill="#003477"/>
<path d="M105.08 27.8998C105.08 29.8698 106.69 31.4098 108.62 31.4098C109.22 31.4098 109.88 31.2398 110.41 30.9298V29.9298C109.9 30.3798 109.26 30.6298 108.6 30.6298C107.08 30.6298 105.93 29.3598 105.93 27.8698C105.93 26.3798 107.09 25.0898 108.62 25.0898C109.26 25.0898 109.93 25.3198 110.41 25.7598V24.7798C109.89 24.4598 109.29 24.3198 108.7 24.3198C106.7 24.3198 105.08 25.8898 105.08 27.8998Z" fill="#003477"/>
<path d="M111.51 31.26H115.16V30.49H112.36V27.92H115.08V27.14H112.36V25.24H115.16V24.46H111.51V31.26Z" fill="#003477"/>
<path d="M118.279 31.2599H119.189L119.969 29.5499H123.089L123.869 31.2599H124.779L121.529 24.1699L118.279 31.2599V31.2599ZM120.319 28.7799L121.529 26.0299L122.739 28.7799H120.319V28.7799Z" fill="#003477"/>
<path d="M130.46 29.4896L125.35 24.1396V31.2696H126.2V26.1897L131.31 31.5396V24.4596H130.46V29.4896Z" fill="#003477"/>
<path d="M133.939 24.4597H132.529V31.2597H133.909C136.059 31.2597 137.749 30.1397 137.749 27.8197C137.749 25.4997 136.019 24.4497 133.929 24.4497L133.939 24.4597ZM133.679 30.4897H133.379V25.2397H133.679C135.409 25.2397 136.909 25.8797 136.909 27.8697C136.909 29.8597 135.409 30.4997 133.679 30.4997V30.4897Z" fill="#003477"/>
<path d="M140.76 25.24H142.38V31.26H143.22V25.24H144.84V24.46H140.76V25.24Z" fill="#003477"/>
<path d="M145.6 31.26H149.25V30.49H146.44V27.92H149.17V27.14H146.44V25.24H149.25V24.46H145.6V31.26Z" fill="#003477"/>
<path d="M150.01 27.8998C150.01 29.8698 151.61 31.4098 153.56 31.4098C154.16 31.4098 154.82 31.2398 155.35 30.9298V29.9298C154.84 30.3798 154.2 30.6298 153.53 30.6298C152.01 30.6298 150.86 29.3598 150.86 27.8698C150.86 26.3798 152.03 25.0898 153.55 25.0898C154.19 25.0898 154.86 25.3198 155.35 25.7598V24.7798C154.84 24.4598 154.23 24.3198 153.64 24.3198C151.64 24.3198 150.02 25.8898 150.02 27.8998H150.01Z" fill="#003477"/>
<path d="M160.461 27.21H157.221V24.46H156.371V31.26H157.221V28H160.461V31.26H161.311V24.46H160.461V27.21Z" fill="#003477"/>
<path d="M167.651 29.4896L162.541 24.1396V31.2696H163.391V26.1897L168.501 31.5396V24.4596H167.651V29.4896Z" fill="#003477"/>
<path d="M172.881 24.3198C170.931 24.3198 169.311 25.9198 169.311 27.8698C169.311 29.8198 170.911 31.4198 172.881 31.4198C174.851 31.4198 176.441 29.8898 176.441 27.8698C176.441 25.8498 174.831 24.3198 172.881 24.3198ZM172.881 30.6198C171.411 30.6198 170.161 29.4198 170.161 27.8698C170.161 26.3198 171.281 25.1198 172.881 25.1198C174.481 25.1198 175.601 26.3698 175.601 27.8698C175.601 29.3698 174.351 30.6198 172.881 30.6198Z" fill="#003477"/>
<path d="M178.209 24.46H177.359V31.26H180.269V30.49H178.209V24.46Z" fill="#003477"/>
<path d="M184.009 24.3198C182.059 24.3198 180.439 25.9198 180.439 27.8698C180.439 29.8198 182.039 31.4198 184.009 31.4198C185.979 31.4198 187.569 29.8898 187.569 27.8698C187.569 25.8498 185.949 24.3198 184.009 24.3198ZM184.009 30.6198C182.539 30.6198 181.289 29.4198 181.289 27.8698C181.289 26.3198 182.409 25.1198 184.009 25.1198C185.609 25.1198 186.729 26.3698 186.729 27.8698C186.729 29.3698 185.479 30.6198 184.009 30.6198Z" fill="#003477"/>
<path d="M191.989 28.6096H193.749C193.709 29.7196 192.579 30.6296 191.519 30.6296C190.049 30.6296 188.869 29.2796 188.869 27.8496C188.869 26.3196 190.059 25.0896 191.589 25.0896C192.419 25.0896 193.239 25.5296 193.729 26.1996L194.329 25.6296C193.659 24.7896 192.609 24.3096 191.559 24.3096C189.599 24.3096 188.029 25.9196 188.029 27.8796C188.029 29.8396 189.559 31.4096 191.469 31.4096C193.379 31.4096 194.689 29.9796 194.689 28.1096V27.8396H191.989V28.6196V28.6096Z" fill="#003477"/>
<path d="M197.55 27.37L195.88 24.46H194.91L197.13 28.3V31.26H197.98V28.3L200.2 24.46H199.22L197.55 27.37Z" fill="#003477"/>
<path d="M79.8602 6.35961C80.2302 6.23961 80.4902 6.13961 80.6502 6.06961V10.0496H81.5102V9.61961H86.0702V10.0496H86.9302V6.01961C87.0502 6.08961 87.1902 6.13961 87.3402 6.18961C87.4902 6.22961 87.6202 6.27961 87.7502 6.33961L88.1602 5.49961C86.8302 5.22961 85.8102 4.75961 85.1002 4.07961H88.0902V3.30961H84.1802V2.52961C85.4302 2.42961 86.4702 2.28961 87.3102 2.10961L86.9102 1.34961C85.6402 1.62961 83.7802 1.77961 81.3102 1.77961C80.7902 1.77961 80.3602 1.77961 80.0002 1.75961L80.3102 2.60961C80.9202 2.60961 81.9102 2.58961 83.3002 2.54961V3.29961H79.4902V4.06961H82.3502C81.5202 4.76961 80.5402 5.24961 79.4102 5.52961L79.8602 6.35961V6.35961ZM86.0702 8.84961H81.5102V8.02961H86.0702V8.84961ZM84.1702 4.08961C84.7502 4.85961 85.5102 5.42961 86.4602 5.80961H84.1702V4.08961ZM86.0702 6.57961V7.28961H81.5102V6.57961H86.0702ZM83.3002 4.08961V5.79961H81.1802C82.0502 5.42961 82.7602 4.85961 83.3002 4.08961Z" fill="#003477"/>
<path d="M93.3206 4.86973C92.8406 4.50973 92.3906 4.20973 91.9506 3.96973L91.3906 4.66972C91.7506 4.90972 92.1906 5.24972 92.6906 5.66972L93.3206 4.86973Z" fill="#003477"/>
<path d="M93.5909 2.62967V3.12967H94.8209V4.05967H93.4009V4.83966H94.8809C94.6109 5.41966 93.9608 5.93967 92.9308 6.40967L93.4609 7.18967C93.8709 6.92967 94.1609 6.72967 94.3109 6.60967V8.68967C94.3109 9.10967 94.3908 9.39967 94.5408 9.54967C94.7008 9.69967 94.9808 9.76966 95.3708 9.76966H98.3708C98.8508 9.76966 99.1609 9.68966 99.3309 9.51966C99.5009 9.34966 99.6308 8.82967 99.7308 7.96967L98.8409 7.64967C98.8009 8.13967 98.7509 8.47967 98.7009 8.67967C98.6509 8.86967 98.5008 8.96967 98.2408 8.96967H95.4908C95.2708 8.96967 95.1608 8.85967 95.1608 8.63967V8.04967H98.1509V6.14967C98.5209 6.47967 98.9909 6.81967 99.5609 7.15967L99.9609 6.32967C98.9609 5.83967 98.3309 5.33966 98.0909 4.83966H99.8608V4.05967H98.1909V3.09967H99.7208V2.36967H98.1909V1.40967H97.3508V2.36967H95.6608V1.40967H94.8109V2.36967H93.5809V2.48967C93.2209 2.20967 92.7708 1.90967 92.2408 1.56967L91.6309 2.25967C92.0409 2.51967 92.5109 2.87966 93.0109 3.33966L93.5809 2.63967L93.5909 2.62967ZM95.6708 3.13967H97.3608V4.04967H95.6708V3.13967ZM95.8708 4.82967H97.1208C97.2908 5.15967 97.4809 5.43967 97.6909 5.65967H95.3309C95.5609 5.41967 95.7409 5.13967 95.8809 4.82967H95.8708ZM95.1608 6.39967H97.2908V7.30967H95.1608V6.39967Z" fill="#003477"/>
<path d="M93.2598 7.16971L92.4498 6.69971C92.2498 7.57971 91.8798 8.39971 91.3398 9.17971L92.0798 9.93971C92.6098 9.09971 92.9998 8.17971 93.2598 7.17971V7.16971Z" fill="#003477"/>
<path d="M109.85 3.13976C109.12 2.60976 108.56 2.22977 108.15 2.00977L107.59 2.61977C108.02 2.87977 108.57 3.28977 109.26 3.82977L109.84 3.12976L109.85 3.13976Z" fill="#003477"/>
<path d="M111.88 6.39957L111.05 6.53957V1.30957H110.18V6.63957L107.08 7.10957V7.96957L110.18 7.49957V10.0496H111.05V7.38957L111.88 7.24957V6.39957Z" fill="#003477"/>
<path d="M103.671 8.30986C104.281 7.51986 104.701 6.82987 104.931 6.22987V10.0399L105.781 9.99986V5.69986C105.951 5.91986 106.111 6.12986 106.271 6.31986C106.451 6.52986 106.641 6.76986 106.831 7.02986L107.351 6.22987C107.001 5.84987 106.471 5.32987 105.781 4.68987V4.60986H107.191V3.80986H105.781V2.49986C106.271 2.39986 106.741 2.26987 107.181 2.11987L106.861 1.35986C105.861 1.73986 104.671 1.95986 103.291 2.02986L103.481 2.80986C104.111 2.76986 104.591 2.70986 104.921 2.64986V3.80986H103.191V4.60986H104.891C104.501 5.63986 103.921 6.58987 103.141 7.47987L103.661 8.30986H103.671Z" fill="#003477"/>
<path d="M109.67 5.36998C108.99 4.84998 108.42 4.46998 107.95 4.22998L107.4 4.84998C107.89 5.13998 108.45 5.54998 109.09 6.07998L109.67 5.36998V5.36998Z" fill="#003477"/>
<path d="M123.28 10.0098L123.75 9.13982C122.97 8.91982 122.27 8.55982 121.65 8.05982C122 7.74982 122.339 7.32983 122.659 6.78983C122.989 6.24983 123.19 5.81983 123.27 5.47983V4.70982H121.4V3.46983H123.59V2.62982H121.4V1.31982H120.479V2.62982H118.49V3.21983H117.4V1.31982H116.49V3.21983H115.12V4.06982H116.49V5.92982C116.05 6.04982 115.56 6.13982 115.02 6.20982L115.24 7.20982C115.54 7.13982 115.959 7.02982 116.479 6.88982V8.77982C116.479 8.97982 116.379 9.08982 116.169 9.08982L115.359 9.05982L115.57 9.99982H116.299C116.759 9.99982 117.05 9.92982 117.18 9.77982C117.3 9.63982 117.37 9.34983 117.37 8.90983V6.63982C117.9 6.45982 118.26 6.31982 118.45 6.20982V5.29983C118.22 5.40983 117.86 5.54982 117.37 5.70982V4.06982H118.46V3.47983H120.46V4.71983H118.62V5.56982H122.299C122.029 6.34982 121.59 6.98982 120.96 7.48982C120.53 7.05982 120.11 6.46983 119.68 5.71983L118.909 6.02982C119.369 6.86982 119.83 7.51983 120.31 8.00983C119.42 8.60983 118.53 9.00982 117.64 9.20982L118.15 10.0498C119.04 9.86983 119.97 9.39983 120.95 8.64983C121.67 9.30983 122.43 9.76982 123.25 10.0298L123.28 10.0098Z" fill="#003477"/>
<path d="M126.881 9.13959L127.581 10.0196C129.661 8.64958 130.901 6.84959 131.321 4.61959H131.471C132.091 7.10959 133.231 8.89959 134.901 9.99959L135.611 9.14959C134.691 8.53959 133.971 7.82959 133.441 6.99959C132.921 6.16959 132.581 5.37959 132.441 4.62959H135.411V3.65959H131.481C131.531 3.16959 131.551 2.38959 131.551 1.32959H130.581C130.581 2.31959 130.541 3.08959 130.461 3.65959H127.101V4.63959H130.301C130.151 5.50959 129.761 6.35959 129.141 7.16959C128.511 7.98959 127.751 8.64959 126.881 9.14959V9.13959Z" fill="#003477"/>
<path d="M139.759 4.12976H146.499V5.25977H147.409V3.33976H145.539C145.819 2.87976 146.089 2.31977 146.359 1.63977L145.379 1.25977C145.069 2.11977 144.769 2.80977 144.479 3.32977H138.859V5.28977H139.769V4.11977L139.759 4.12976Z" fill="#003477"/>
<path d="M141.56 2.80982C141.3 2.34982 141.04 1.93982 140.77 1.56982L140.02 1.90982C140.29 2.28982 140.54 2.71983 140.77 3.18983L141.56 2.80982Z" fill="#003477"/>
<path d="M142.319 9.28965C141.989 9.28965 141.669 9.27965 141.369 9.24965L141.549 10.0797H142.829C143.049 10.0797 143.239 9.98965 143.399 9.81965C143.509 9.70965 143.569 9.54965 143.579 9.32965V7.81965H147.129V7.02965H143.579V6.73965C144.419 6.40965 145.159 6.04965 145.809 5.67965V4.88965H140.419V5.67965H144.439C143.799 5.97965 143.189 6.21965 142.609 6.38965V7.02965H139.029V7.81965H142.609V9.05965C142.609 9.21965 142.509 9.28965 142.309 9.28965H142.319Z" fill="#003477"/>
<path d="M143.67 2.64981C143.43 2.15981 143.17 1.6998 142.92 1.2998L142.17 1.6398C142.42 2.0498 142.66 2.5198 142.88 3.0298L143.67 2.64981Z" fill="#003477"/>
</svg>
