<svg width="261" height="82" viewBox="0 0 261 82" fill="none" xmlns="http://www.w3.org/2000/svg">
<path d="M137.481 11.35C137.711 11.05 137.801 10.5 137.801 10.5H123.711C123.711 10.5 123.891 11.1 124.031 11.35H137.491H137.481Z" fill="#AA8420"/>
<path d="M136.671 12.5899C136.931 12.3499 137.201 11.8599 137.201 11.8599H124.301C124.301 11.8599 124.451 12.2199 124.771 12.5899H136.681H136.671Z" fill="#AA8420"/>
<path d="M135.649 13.7199C135.969 13.5399 136.229 13.1699 136.229 13.1699H125.189C125.189 13.1699 125.449 13.4699 125.719 13.7199H135.649V13.7199Z" fill="#AA8420"/>
<path d="M134.36 14.7796C134.68 14.6496 135.03 14.3496 135.03 14.3496H126.43C126.43 14.3496 126.43 14.4196 127.04 14.7796H134.36Z" fill="#AA8420"/>
<path d="M128.02 15.4399C128.02 15.4399 128.93 15.9899 130.7 15.9899C132.47 15.9899 133.62 15.4399 133.62 15.4399H128.02Z" fill="#AA8420"/>
<path d="M127.879 16.6899C127.879 16.6899 128.959 16.7499 129.599 17.2599C130.219 17.8099 130.679 18.7199 130.679 18.7199C130.679 18.7199 131.059 17.8499 131.669 17.3899C132.279 16.8999 133.269 16.6899 133.269 16.6899H144.389L146.579 20.0599H136.599C136.599 20.0599 135.899 20.0899 134.849 20.7299C134.289 21.0599 133.879 21.6399 133.879 21.6399C133.879 21.6399 133.799 21.9099 133.669 22.0599C133.559 22.2099 133.469 22.3399 133.319 22.3999C133.169 22.4699 133.199 22.4299 133.199 22.4299H127.999C127.999 22.4299 127.789 22.3499 127.679 22.1599C127.559 21.9799 127.649 22.0399 127.529 21.8899C127.439 21.7399 127.239 21.3399 126.449 20.7999C125.629 20.2499 124.839 20.1899 124.839 20.1899H114.689L116.899 16.6999H127.849L127.879 16.6899Z" fill="#003477"/>
<path d="M120.02 21.4497V38.6797C120.02 38.6797 120.08 40.1997 121.31 42.2597C122.54 44.3197 124.31 45.2697 124.31 45.2697L125.71 42.9997C125.71 42.9997 124.48 42.2397 123.55 40.7797C122.64 39.3297 122.64 38.0797 122.64 38.0797V21.4597H120.01L120.02 21.4497Z" fill="#003477"/>
<path d="M138.82 21.3896V38.0096C138.82 38.0096 138.61 39.6796 137.86 40.8596C137.1 42.0696 135.85 43.0396 135.85 43.0396L137.2 45.2796C137.2 45.2796 139.24 43.7397 140.23 42.0997C141.22 40.4597 141.46 38.0096 141.46 38.0096V21.3896H138.83H138.82Z" fill="#003477"/>
<path d="M115.859 21.4497V38.7397C115.859 38.7397 116.029 41.4097 117.639 44.1997C119.249 46.9897 122.159 48.9297 122.159 48.9297L123.539 46.6597C123.539 46.6597 121.669 45.6297 120.179 43.2597C118.659 40.8597 118.579 38.6797 118.579 38.6797V21.4497H115.869H115.859Z" fill="#003477"/>
<path d="M127.881 23.27V41.53C127.881 41.53 127.821 41.59 127.791 41.86C127.761 42.13 127.581 42.32 127.581 42.32L121.721 52.42H139.701L133.831 42.11L133.651 41.65L133.591 41.17V23.31H131.401V41.84C131.401 41.84 131.401 42.11 131.491 42.32C131.551 42.53 131.671 42.86 131.671 42.86L135.291 49.05H126.121L129.681 42.89C129.681 42.89 129.801 42.68 129.891 42.38C129.951 42.11 129.981 41.84 129.981 41.84V23.27H127.881V23.27Z" fill="#AA8420"/>
<path d="M142.881 21.3896V38.3797C142.881 38.3797 142.851 40.5597 141.301 43.0797C139.761 45.5997 137.971 46.6597 137.971 46.6597L139.291 48.9597C139.291 48.9597 141.971 47.1997 143.671 44.4097C145.331 41.6197 145.541 38.3797 145.541 38.3797V21.3896H142.881V21.3896Z" fill="#003477"/>
<path d="M123.621 10.0198C123.621 10.0198 122.721 4.89979 126.341 2.34979C126.341 2.34979 127.981 0.779785 130.631 0.779785C133.461 0.779785 135.101 2.31979 135.101 2.31979C139.041 5.31979 137.871 10.0198 137.871 10.0198H123.631H123.621Z" fill="#AA8420"/>
<path d="M75.2897 68.34V66.62H66.8897V64.88C69.5697 64.65 71.8097 64.34 73.6197 63.95L72.7597 62.25C70.0397 62.89 66.0297 63.2 60.7397 63.2C59.6297 63.2 58.6897 63.19 57.9297 63.16L58.5897 65.06C59.8897 65.06 62.0297 65.02 65.0197 64.94V66.62H56.8397V68.34H62.9897C61.1997 69.9 59.0897 70.99 56.6797 71.59L57.6397 73.43C58.4397 73.15 58.9997 72.94 59.3297 72.79V81.67H61.1797V80.72H70.9697V81.67H72.8197V72.69C73.0797 72.84 73.3797 72.97 73.6997 73.06C74.0197 73.16 74.3097 73.27 74.5797 73.39L75.4597 71.51C72.5897 70.92 70.3997 69.86 68.8897 68.34H75.2997H75.2897ZM65.0197 68.4V72.21H60.4797C62.3497 71.38 63.8697 70.11 65.0197 68.4ZM70.9797 78.99H61.1797V77.17H70.9797V78.99ZM70.9797 75.51H61.1797V73.94H70.9797V75.51ZM71.8197 72.2H66.8997V68.37C68.1497 70.1 69.7897 71.37 71.8197 72.2Z" fill="#003477"/>
<path d="M82.2695 79.7199L83.8595 81.4199C84.9995 79.5399 85.8395 77.4899 86.3895 75.2499L84.6595 74.1899C84.2295 76.1499 83.4395 77.9899 82.2695 79.7199Z" fill="#003477"/>
<path d="M96.9106 77.1699V72.9299C97.7106 73.6699 98.7206 74.4299 99.9406 75.1899L100.801 73.3499C98.6506 72.2499 97.3106 71.1399 96.7806 70.0199H100.581V68.2799H96.9906V66.1499H100.281V64.5099H96.9906V62.3599H95.2006V64.5099H91.5706V62.3599H89.7306V64.5099H87.0806V64.7799C86.3006 64.1599 85.3406 63.4799 84.2106 62.7299L82.8906 64.2599C83.7806 64.8399 84.7706 65.6399 85.8606 66.6799L87.0806 65.1099V66.2299H89.7306V68.2999H86.6806V70.0399H89.8706C89.2806 71.3399 87.8906 72.4999 85.6906 73.5399L86.8306 75.2799C87.7206 74.6999 88.3306 74.2699 88.6606 73.9799V78.6199C88.6606 79.5599 88.8206 80.1999 89.1606 80.5499C89.5006 80.8799 90.1006 81.0499 90.9506 81.0499H97.4206C98.4406 81.0499 99.1306 80.8599 99.4706 80.4899C99.8306 80.0999 100.111 78.9499 100.331 77.0399L98.4206 76.3099C98.3306 77.3999 98.2306 78.1699 98.1206 78.6099C98.0106 79.0399 97.6806 79.2499 97.1206 79.2499H91.1906C90.7206 79.2499 90.4906 79.0099 90.4906 78.5299V77.1999H96.9206L96.9106 77.1699ZM91.5706 66.2399H95.1906V68.2699H91.5706V66.2399ZM92.0106 70.0099H94.7006C95.0706 70.7399 95.4806 71.3599 95.9206 71.8699H90.8406C91.3306 71.3299 91.7206 70.7099 92.0206 70.0099H92.0106ZM90.5006 73.5099H95.0806V75.5399H90.5006V73.5099Z" fill="#003477"/>
<path d="M86.5094 70.1199C85.4894 69.3099 84.5094 68.6399 83.5594 68.1099L82.3594 69.6599C83.1394 70.1999 84.0694 70.9399 85.1494 71.8899L86.4994 70.1099L86.5094 70.1199Z" fill="#003477"/>
<path d="M122.061 66.2597C120.491 65.0797 119.281 64.2297 118.411 63.7397L117.211 65.0997C118.131 65.6797 119.321 66.5797 120.801 67.8097L122.061 66.2597Z" fill="#003477"/>
<path d="M124.651 62.1797H122.791V74.0797L116.121 75.1197V77.0397L122.791 75.9897V81.6797H124.651V75.7397L126.441 75.4297V73.5397L124.651 73.8497V62.1797Z" fill="#003477"/>
<path d="M113.32 69.7398V69.5498H116.35V67.7698H113.32V64.8498C114.37 64.6298 115.37 64.3498 116.33 63.9998L115.65 62.2998C113.51 63.1398 110.96 63.6398 107.98 63.7898L108.4 65.5298C109.75 65.4298 110.78 65.3198 111.49 65.1798V67.7698H107.78V69.5498H111.43C110.59 71.8398 109.34 73.9698 107.67 75.9498L108.79 77.8098C110.09 76.0498 110.99 74.4998 111.5 73.1698V81.6798L113.33 81.5998V71.9998C113.69 72.4998 114.04 72.9598 114.39 73.3898C114.79 73.8598 115.19 74.3798 115.59 74.9598L116.7 73.1798C115.94 72.3298 114.82 71.1798 113.33 69.7398H113.32Z" fill="#003477"/>
<path d="M121.69 71.2497C120.23 70.0897 119 69.2397 118 68.6997L116.83 70.0897C117.88 70.7397 119.09 71.6597 120.46 72.8397L121.69 71.2497V71.2497Z" fill="#003477"/>
<path d="M149.609 74.3897C150.309 73.1897 150.749 72.2197 150.919 71.4697V69.7497H146.899V66.9797H151.599V65.0997H146.899V62.1797H144.929V65.0997H140.649V66.4197H138.299V62.1797H136.339V66.4197H133.389V68.2997H136.339V72.4597C135.399 72.7197 134.349 72.9297 133.189 73.0797L133.669 75.3197C134.319 75.1497 135.209 74.9197 136.339 74.6097V78.8297C136.339 79.2797 136.119 79.5097 135.679 79.5097L133.949 79.4497L134.409 81.5397H135.979C136.969 81.5397 137.599 81.3697 137.879 81.0397C138.149 80.7197 138.279 80.0697 138.279 79.0997V74.0297C139.419 73.6297 140.199 73.3097 140.609 73.0797V71.0497C140.119 71.2997 139.339 71.5997 138.279 71.9597V68.2997H140.629L140.649 66.9797H144.929V69.7497H140.989V71.6497H148.899C148.329 73.3897 147.369 74.8197 146.009 75.9297C145.089 74.9797 144.179 73.6597 143.259 71.9797L141.609 72.6597C142.589 74.5197 143.599 75.9897 144.619 77.0697C142.709 78.4097 140.789 79.2997 138.879 79.7397L139.969 81.6197C141.879 81.1997 143.889 80.1597 145.989 78.4997C147.529 79.9597 149.179 80.9897 150.929 81.5797L151.949 79.6297C150.279 79.1497 148.779 78.3397 147.449 77.2097C148.209 76.5197 148.929 75.5797 149.619 74.3797L149.609 74.3897Z" fill="#003477"/>
<path d="M172.75 74.8497C171.62 72.9997 170.91 71.2397 170.6 69.5497L176.97 69.5697V67.3797H168.53C168.64 66.2897 168.69 64.5597 168.69 62.1797H166.6C166.6 64.3897 166.51 66.1197 166.34 67.3797H159.13V69.5697H166C165.68 71.5197 164.85 73.3997 163.51 75.2197C162.16 77.0397 160.54 78.5097 158.65 79.6297L160.17 81.5997C164.63 78.5497 167.31 74.5397 168.2 69.5497H168.52C169.85 75.1097 172.3 79.1097 175.89 81.5597L177.42 79.6497C175.44 78.2997 173.89 76.6997 172.76 74.8497H172.75Z" fill="#003477"/>
<path d="M195.491 66.2798C194.971 66.8698 194.511 67.2998 194.111 67.5598C193.801 67.3098 193.531 67.0998 193.271 66.9198C193.061 66.7998 192.831 66.6398 192.581 66.4598L191.541 67.3698C192.161 67.8298 192.611 68.1598 192.871 68.3598C192.411 68.6498 191.711 68.8998 190.801 69.1098L191.661 70.4998C192.601 70.1698 193.381 69.7798 193.991 69.3398C194.081 69.3398 194.441 69.7498 195.051 70.5598L196.321 69.5498C195.951 69.1598 195.571 68.7998 195.191 68.4498C195.601 68.1298 196.051 67.7198 196.551 67.2098L195.491 66.2798V66.2798Z" fill="#003477"/>
<path d="M190.529 64.9799L191.549 66.3699C192.439 65.9699 193.219 65.5499 193.879 65.1099C194.029 65.1099 194.369 65.4999 194.899 66.2899L196.109 65.3599C195.669 64.8799 195.319 64.5099 195.059 64.2599C195.549 63.9299 195.939 63.5599 196.229 63.1399L195.229 62.2099C194.989 62.5499 194.589 62.9299 194.009 63.3299C193.479 62.9199 192.959 62.5399 192.439 62.1899L191.359 63.1599C191.929 63.5299 192.379 63.8599 192.719 64.1299C192.379 64.3799 191.649 64.6599 190.529 64.9799V64.9799Z" fill="#003477"/>
<path d="M186.421 72.5496H200.801V75.5896H202.591V70.9096H201.531L201.751 62.7296H196.831V64.3696H200.001L199.981 65.5096H197.051V66.9196H199.941L199.901 68.0996H197.051V69.5296H199.841L199.821 70.9196H187.351L187.311 69.5296H190.301V68.0996H187.271L187.251 66.9196H190.301V65.5096H187.191L187.131 64.4596C188.751 64.3496 189.931 64.1596 190.671 63.8996L189.791 62.3696C188.591 62.7096 187.131 62.9096 185.411 62.9696L185.631 70.9196H184.631V75.5996H186.401V72.5596L186.421 72.5496Z" fill="#003477"/>
<path d="M194.701 76.7499C196.411 76.1999 197.851 75.5999 199.021 74.9499V73.4399H187.931V74.9699H196.321C194.911 75.3999 193.751 75.6899 192.841 75.8599V76.7499H184.201V78.4199H192.841V79.2699C192.841 79.6799 192.641 79.8899 192.241 79.8899L189.511 79.8099L189.971 81.4899H192.901C194.111 81.4899 194.711 80.7499 194.711 79.2799V78.4299H202.981V76.7599H194.711L194.701 76.7499Z" fill="#003477"/>
<path d="M43.6501 81.68H36.3301V1.02002H43.6501V1.27002H36.5801V81.43H43.6501V81.68Z" fill="#231815"/>
<path d="M223.31 81.68H215.98V81.43H223.06V1.27002H215.98V1.02002H223.31V81.68Z" fill="#231815"/>
<path d="M0.250234 33.04H2.81023C3.47023 33.04 3.98023 33.2001 4.35023 33.5201C4.72023 33.8401 4.90023 34.28 4.90023 34.83C4.90023 35.38 4.71023 35.83 4.34023 36.15C3.97023 36.47 3.46023 36.6301 2.80023 36.6301H0.980234V39.45H0.240234V33.04H0.250234ZM2.74023 36.0201C3.21023 36.0201 3.57023 35.9201 3.81023 35.7101C4.05023 35.5101 4.17023 35.21 4.17023 34.83C4.17023 34.45 4.05023 34.15 3.81023 33.95C3.57023 33.75 3.21023 33.65 2.74023 33.65H0.980234V36.0201H2.74023Z" fill="#231815"/>
<path d="M11.1411 39.44H10.3611L9.57109 37.31C9.47109 37.05 9.34109 36.87 9.17109 36.78C9.00109 36.69 8.76109 36.65 8.45109 36.65H6.85109V39.45H6.12109V33.04H8.67109C9.36109 33.04 9.89109 33.19 10.2611 33.5C10.6311 33.81 10.8111 34.2501 10.8111 34.8201C10.8111 35.2401 10.7011 35.5901 10.4811 35.8801C10.2611 36.1701 9.94109 36.3701 9.53109 36.4901C9.72109 36.5201 9.87109 36.6 10.0111 36.73C10.1411 36.86 10.2511 37.04 10.3411 37.28L11.1511 39.45L11.1411 39.44ZM8.59109 36.03C9.57109 36.03 10.0711 35.6301 10.0711 34.8201C10.0711 34.4201 9.95109 34.13 9.71109 33.93C9.47109 33.74 9.10109 33.64 8.59109 33.64H6.84109V36.0201H8.59109V36.03Z" fill="#231815"/>
<path d="M12.3496 33.04H13.0896V39.45H12.3496V33.04Z" fill="#231815"/>
<path d="M19.8099 33.04V39.45H19.2299L15.3599 34.29V39.45H14.6699V33.04H15.2399L19.1099 38.2V33.04H19.8099Z" fill="#231815"/>
<path d="M22.9312 33.67H20.7012V33.04H25.9112V33.67H23.6812V39.45H22.9312V33.67Z" fill="#231815"/>
<path d="M26.25 38.71L26.53 38.14C26.85 38.41 27.17 38.6 27.5 38.72C27.83 38.83 28.21 38.89 28.65 38.89C29.17 38.89 29.56 38.79 29.84 38.59C30.12 38.39 30.26 38.11 30.26 37.74C30.26 37.52 30.19 37.35 30.06 37.21C29.93 37.07 29.75 36.97 29.53 36.89C29.31 36.81 29.02 36.73 28.65 36.65C28.16 36.54 27.75 36.42 27.44 36.3C27.12 36.17 26.86 35.99 26.67 35.76C26.48 35.53 26.37 35.21 26.37 34.83C26.37 34.45 26.47 34.14 26.66 33.86C26.85 33.58 27.12 33.36 27.47 33.21C27.82 33.05 28.23 32.98 28.7 32.98C29.14 32.98 29.56 33.05 29.94 33.19C30.32 33.33 30.65 33.53 30.91 33.79L30.62 34.36C30.32 34.1 30.02 33.91 29.71 33.79C29.4 33.67 29.06 33.61 28.7 33.61C28.2 33.61 27.81 33.72 27.53 33.93C27.25 34.14 27.11 34.43 27.11 34.81C27.11 35.13 27.23 35.38 27.48 35.54C27.73 35.7 28.1 35.84 28.61 35.96C29.16 36.09 29.6 36.21 29.91 36.32C30.23 36.43 30.49 36.6 30.7 36.82C30.91 37.05 31.01 37.34 31.01 37.72C31.01 38.1 30.91 38.4 30.72 38.67C30.53 38.94 30.25 39.15 29.9 39.3C29.54 39.45 29.12 39.53 28.65 39.53C27.65 39.53 26.85 39.26 26.26 38.72L26.25 38.71Z" fill="#231815"/>
<path d="M4.47 50.7498V51.4398H0.5V50.7498H2.07V45.3398L0.61 46.2698V45.4798L2.43 44.3198H2.9V50.7498H4.47V50.7498Z" fill="#AA8420"/>
<path d="M10.6294 50.7497V51.4397H6.04938V50.8197L8.53937 48.0597C8.86937 47.6897 9.11938 47.3497 9.26938 47.0497C9.41938 46.7497 9.49937 46.4497 9.49937 46.1497C9.49937 45.7597 9.38937 45.4497 9.15937 45.2397C8.92937 45.0297 8.60937 44.9297 8.18937 44.9297C7.50937 44.9297 6.83937 45.1997 6.16937 45.7497L5.85938 45.1197C6.13938 44.8497 6.48937 44.6397 6.91937 44.4797C7.34937 44.3197 7.77937 44.2397 8.20937 44.2397C8.85937 44.2397 9.37938 44.4097 9.75938 44.7397C10.1394 45.0797 10.3294 45.5297 10.3294 46.1097C10.3294 46.5197 10.2394 46.9097 10.0494 47.2797C9.86938 47.6597 9.55937 48.0797 9.12937 48.5497L7.09938 50.7497H10.6194H10.6294Z" fill="#AA8420"/>
<path d="M21.8593 48.2796V51.4396H21.0493V48.3196C21.0493 47.8496 20.9693 47.4996 20.7993 47.2896C20.6393 47.0796 20.3693 46.9696 20.0093 46.9696C19.5793 46.9696 19.2493 47.1096 19.0093 47.3996C18.7693 47.6896 18.6493 48.0796 18.6493 48.5696V51.4396H17.8393V48.3196C17.8393 47.8496 17.7593 47.5096 17.5893 47.2996C17.4193 47.0796 17.1593 46.9696 16.7893 46.9696C16.3593 46.9696 16.0293 47.1096 15.7893 47.3996C15.5493 47.6896 15.4193 48.0796 15.4193 48.5696V51.4396H14.6093V47.8196C14.6093 47.2996 14.5793 46.8296 14.5293 46.4096H15.2993L15.3793 47.2896C15.5193 46.9696 15.7293 46.7196 15.9993 46.5496C16.2793 46.3796 16.5993 46.2896 16.9593 46.2896C17.3593 46.2896 17.6893 46.3696 17.9393 46.5296C18.1893 46.6896 18.3793 46.9396 18.4993 47.2696C18.6493 46.9696 18.8793 46.7296 19.1693 46.5596C19.4593 46.3896 19.7993 46.2896 20.1693 46.2896C21.2793 46.2896 21.8393 46.9496 21.8393 48.2796H21.8593Z" fill="#AA8420"/>
<path d="M30.6503 48.2796V51.4396H29.8403V48.3196C29.8403 47.8496 29.7603 47.4996 29.5903 47.2896C29.4303 47.0796 29.1603 46.9696 28.8003 46.9696C28.3703 46.9696 28.0403 47.1096 27.8003 47.3996C27.5603 47.6896 27.4403 48.0796 27.4403 48.5696V51.4396H26.6303V48.3196C26.6303 47.8496 26.5503 47.5096 26.3803 47.2996C26.2103 47.0796 25.9503 46.9696 25.5803 46.9696C25.1503 46.9696 24.8203 47.1096 24.5803 47.3996C24.3403 47.6896 24.2103 48.0796 24.2103 48.5696V51.4396H23.4003V47.8196C23.4003 47.2996 23.3703 46.8296 23.3203 46.4096H24.0903L24.1703 47.2896C24.3103 46.9696 24.5203 46.7196 24.7903 46.5496C25.0703 46.3796 25.3903 46.2896 25.7603 46.2896C26.1603 46.2896 26.4903 46.3696 26.7403 46.5296C26.9903 46.6896 27.1803 46.9396 27.3003 47.2696C27.4503 46.9696 27.6803 46.7296 27.9703 46.5596C28.2703 46.3796 28.6003 46.2896 28.9703 46.2896C30.0803 46.2896 30.6403 46.9496 30.6403 48.2796H30.6503Z" fill="#AA8420"/>
<path d="M230.03 39.1199C229.59 38.8599 229.25 38.4799 229.02 37.9799C228.78 37.4899 228.66 36.9 228.66 36.24C228.66 35.58 228.78 34.99 229.01 34.49C229.24 33.99 229.58 33.62 230.02 33.36C230.46 33.1 230.98 32.96 231.58 32.96C232.18 32.96 232.7 33.09 233.14 33.36C233.58 33.62 233.91 34 234.15 34.49C234.38 34.98 234.5 35.5599 234.5 36.2299C234.5 36.8999 234.38 37.4799 234.14 37.9799C233.9 38.4699 233.56 38.8499 233.13 39.1199C232.69 39.3899 232.18 39.52 231.58 39.52C230.98 39.52 230.47 39.3899 230.03 39.1199V39.1199ZM233.16 38.19C233.54 37.73 233.73 37.0699 233.73 36.2299C233.73 35.3899 233.54 34.73 233.17 34.28C232.8 33.83 232.27 33.6 231.58 33.6C230.89 33.6 230.36 33.8299 229.99 34.2899C229.62 34.7499 229.42 35.4 229.42 36.24C229.42 37.08 229.61 37.74 229.99 38.2C230.37 38.66 230.9 38.89 231.58 38.89C232.26 38.89 232.79 38.66 233.16 38.2V38.19Z" fill="#231815"/>
<path d="M240.99 33.04V39.45H240.41L236.54 34.29V39.45H235.85V33.04H236.42L240.29 38.2V33.04H240.99V33.04Z" fill="#231815"/>
<path d="M242.561 33.04H243.301V38.8201H246.511V39.45H242.561V33.04V33.04Z" fill="#231815"/>
<path d="M247.471 33.04H248.211V39.45H247.471V33.04Z" fill="#231815"/>
<path d="M254.931 33.04V39.45H254.351L250.481 34.29V39.45H249.791V33.04H250.361L254.231 38.2V33.04H254.931Z" fill="#231815"/>
<path d="M256.5 33.0398H260.55V33.6498H257.23V35.8798H260.37V36.4998H257.23V38.8298H260.55V39.4398H256.5V33.0298V33.0398Z" fill="#231815"/>
<path d="M232.581 47.2598C232.921 47.4498 233.171 47.7098 233.351 48.0498C233.531 48.3898 233.621 48.7798 233.621 49.2298C233.621 49.6798 233.521 50.0698 233.331 50.4198C233.131 50.7698 232.851 51.0298 232.491 51.2198C232.131 51.4098 231.701 51.5098 231.221 51.5098C230.791 51.5098 230.361 51.4298 229.941 51.2698C229.521 51.1098 229.171 50.8998 228.881 50.6298L229.191 49.9998C229.851 50.5498 230.531 50.8198 231.221 50.8198C231.721 50.8198 232.111 50.6798 232.391 50.3998C232.671 50.1198 232.811 49.7298 232.811 49.2398C232.811 48.7498 232.671 48.3898 232.391 48.0998C232.111 47.8098 231.741 47.6598 231.271 47.6598C230.591 47.6598 230.051 47.9398 229.641 48.4898H229.071V44.3198H233.341V44.9998H229.891V47.5398C230.281 47.1598 230.791 46.9698 231.401 46.9698C231.851 46.9698 232.241 47.0598 232.581 47.2598V47.2598Z" fill="#AA8420"/>
<path d="M235.251 50.6C234.831 49.98 234.611 49.08 234.611 47.89C234.611 46.7 234.821 45.79 235.251 45.17C235.671 44.55 236.291 44.25 237.101 44.25C237.911 44.25 238.531 44.56 238.961 45.17C239.381 45.79 239.591 46.69 239.591 47.88C239.591 49.07 239.381 49.98 238.961 50.6C238.541 51.22 237.921 51.53 237.101 51.53C236.281 51.53 235.671 51.22 235.251 50.61V50.6ZM238.361 50.11C238.631 49.63 238.771 48.88 238.771 47.87C238.771 46.86 238.641 46.12 238.371 45.65C238.101 45.18 237.681 44.94 237.111 44.94C236.541 44.94 236.131 45.18 235.861 45.65C235.591 46.12 235.451 46.86 235.451 47.87C235.451 48.88 235.591 49.62 235.861 50.11C236.131 50.59 236.551 50.83 237.111 50.83C237.671 50.83 238.101 50.59 238.361 50.11Z" fill="#AA8420"/>
<path d="M247.18 46.62C247.52 46.84 247.78 47.15 247.97 47.55C248.16 47.95 248.25 48.4 248.25 48.93C248.25 49.46 248.16 49.9 247.97 50.29C247.78 50.68 247.52 50.98 247.18 51.2C246.84 51.41 246.45 51.5201 246.01 51.5201C245.62 51.5201 245.27 51.43 244.98 51.26C244.69 51.09 244.46 50.8401 244.31 50.5201V53.61H243.5V47.83C243.5 47.31 243.47 46.84 243.42 46.42H244.19L244.27 47.39C244.41 47.04 244.63 46.77 244.94 46.58C245.24 46.39 245.6 46.29 246.02 46.29C246.46 46.29 246.85 46.4 247.19 46.62H247.18ZM247.01 50.34C247.28 50.01 247.41 49.53 247.41 48.92C247.41 48.31 247.27 47.83 247 47.48C246.73 47.14 246.35 46.97 245.86 46.97C245.37 46.97 244.98 47.14 244.71 47.47C244.44 47.8 244.31 48.28 244.31 48.9C244.31 49.52 244.44 50 244.71 50.33C244.98 50.67 245.36 50.84 245.86 50.84C246.36 50.84 246.74 50.67 247.01 50.34V50.34Z" fill="#AA8420"/>
<path d="M253.86 51.4402H252.89L251.3 49.4602L249.73 51.4402H248.74L250.83 48.8502L248.86 46.4102H249.84L251.3 48.2601L252.76 46.4102H253.75L251.79 48.8502L253.86 51.4402Z" fill="#AA8420"/>
</svg>
