<svg width="420" height="51" viewBox="0 0 420 51" fill="none" xmlns="http://www.w3.org/2000/svg">
<path d="M43.4001 50.6399H36.0801V0.609863H43.4001V0.859863H36.3301V50.3899H43.4001V50.6399Z" fill="#231815"/>
<path d="M382.32 50.6399H375V50.3899H382.07V0.859863H375V0.609863H382.32V50.6399Z" fill="#231815"/>
<path d="M50.9707 42.9901H52.9107V50.2101H53.9207V42.9901H55.8607V42.0601H50.9707V42.9901Z" fill="#003477"/>
<path d="M61.5716 45.3401H57.6916V42.0601H56.6816V50.2101H57.6916V46.2901H61.5716V50.2101H62.5916V42.0601H61.5716V45.3401Z" fill="#003477"/>
<path d="M64.1699 50.2101H68.5399V49.2801H65.1799V46.2001H68.4499V45.2701H65.1799V42.9901H68.5399V42.0601H64.1699V50.2101Z" fill="#003477"/>
<path d="M77.9408 45.3401H74.0708V42.0601H73.0508V50.2101H74.0708V46.2901H77.9408V50.2101H78.9608V42.0601H77.9408V45.3401Z" fill="#003477"/>
<path d="M84.2309 41.8901C81.9009 41.8901 79.9609 43.8001 79.9609 46.1401C79.9609 48.4801 81.8709 50.3901 84.2309 50.3901C86.5909 50.3901 88.5009 48.5601 88.5009 46.1401C88.5009 43.7201 86.5709 41.8901 84.2309 41.8901ZM84.2309 49.4301C82.4709 49.4301 80.9809 47.9901 80.9809 46.1301C80.9809 44.2701 82.3209 42.8301 84.2309 42.8301C86.1409 42.8301 87.4809 44.3301 87.4809 46.1301C87.4809 47.9301 85.9909 49.4301 84.2309 49.4301Z" fill="#003477"/>
<path d="M95.61 48.0799L89.5 41.6699V50.2099H90.51V44.1299L96.63 50.5399V42.0599H95.61V48.0799Z" fill="#003477"/>
<path d="M102.381 47.0299H104.491C104.451 48.3599 103.091 49.4499 101.821 49.4499C100.061 49.4499 98.6511 47.8299 98.6511 46.1199C98.6511 44.2899 100.081 42.8099 101.901 42.8099C102.891 42.8099 103.881 43.3399 104.461 44.1399L105.171 43.4599C104.371 42.4499 103.121 41.8799 101.851 41.8799C99.5011 41.8799 97.6211 43.7999 97.6211 46.1499C97.6211 48.4999 99.4611 50.3799 101.741 50.3799C104.021 50.3799 105.601 48.6599 105.601 46.4199V46.0999H102.371V47.0299H102.381Z" fill="#003477"/>
<path d="M115.761 42.0601H114.431L110.971 45.5901V42.0601H109.951V50.2101H110.971V46.8001L111.381 46.4101L114.451 50.2101H115.821L112.091 45.7201L115.761 42.0601Z" fill="#003477"/>
<path d="M120.241 41.8901C117.911 41.8901 115.971 43.8001 115.971 46.1401C115.971 48.4801 117.881 50.3901 120.241 50.3901C122.601 50.3901 124.511 48.5601 124.511 46.1401C124.511 43.7201 122.581 41.8901 120.241 41.8901ZM120.241 49.4301C118.481 49.4301 116.991 47.9901 116.991 46.1301C116.991 44.2701 118.331 42.8301 120.241 42.8301C122.151 42.8301 123.491 44.3301 123.491 46.1301C123.491 47.9301 122.001 49.4301 120.241 49.4301Z" fill="#003477"/>
<path d="M131.62 48.0799L125.5 41.6699V50.2099H126.52V44.1299L132.64 50.5399V42.0599H131.62V48.0799Z" fill="#003477"/>
<path d="M138.381 47.0299H140.491C140.451 48.3599 139.091 49.4499 137.821 49.4499C136.061 49.4499 134.651 47.8299 134.651 46.1199C134.651 44.2899 136.081 42.8099 137.901 42.8099C138.891 42.8099 139.881 43.3399 140.461 44.1399L141.171 43.4599C140.371 42.4499 139.121 41.8799 137.851 41.8799C135.511 41.8799 133.631 43.7999 133.631 46.1499C133.631 48.4999 135.471 50.3799 137.751 50.3799C140.031 50.3799 141.611 48.6599 141.611 46.4199V46.0999H138.381V47.0299V47.0299Z" fill="#003477"/>
<path d="M150.771 46.8701C150.771 48.2001 150.371 49.4301 148.801 49.4301C147.231 49.4301 146.831 48.2001 146.831 46.8701V42.0601H145.811V47.2101C145.811 49.0001 146.921 50.3801 148.791 50.3801C150.661 50.3801 151.771 49.0101 151.771 47.2101V42.0601H150.751V46.8701H150.771Z" fill="#003477"/>
<path d="M159.321 48.0799L153.201 41.6699V50.2099H154.221V44.1299L160.331 50.5399V42.0599H159.321V48.0799Z" fill="#003477"/>
<path d="M162.881 42.0601H161.861V50.2101H162.881V42.0601Z" fill="#003477"/>
<path d="M167.2 48.0901L164.76 42.0601H163.65L167.2 50.6401L170.73 42.0601H169.62L167.2 48.0901Z" fill="#003477"/>
<path d="M171.531 50.2101H175.911V49.2801H172.551V46.2001H175.811V45.2701H172.551V42.9901H175.911V42.0601H171.531V50.2101Z" fill="#003477"/>
<path d="M181.721 44.3798C181.721 43.5998 181.331 42.8398 180.651 42.4298C180.001 42.0598 179.221 42.0498 178.501 42.0498H177.271V50.1998H178.291V46.7498H178.711L181.111 50.1998H182.341L179.771 46.6598C180.951 46.5198 181.731 45.5498 181.731 44.3798H181.721ZM178.611 45.9198H178.281V42.9698H178.551C179.551 42.9698 180.761 43.1498 180.761 44.4298C180.761 45.7098 179.642 45.9198 178.602 45.9198H178.611Z" fill="#003477"/>
<path d="M185.911 45.3901L185.331 45.1601C184.821 44.9601 184.191 44.6301 184.191 43.9901C184.191 43.2801 184.901 42.8301 185.551 42.8301C186.201 42.8301 186.551 43.0901 186.861 43.6001L187.671 43.1201C187.231 42.3301 186.481 41.8901 185.571 41.8901C184.341 41.8901 183.171 42.6801 183.171 44.0001C183.171 45.1401 184.011 45.6701 184.941 46.0601L185.501 46.3001C186.201 46.5901 186.901 46.9701 186.901 47.8501C186.901 48.7301 186.271 49.4401 185.401 49.4401C184.531 49.4401 183.811 48.7901 183.821 47.8901L182.791 48.1101C182.961 49.4201 183.991 50.3901 185.311 50.3901C186.771 50.3901 187.911 49.3301 187.911 47.8501C187.911 46.4901 187.051 45.8501 185.891 45.4001L185.911 45.3901Z" fill="#003477"/>
<path d="M190.131 42.0601H189.121V50.2101H190.131V42.0601Z" fill="#003477"/>
<path d="M191.01 42.9901H192.95V50.2101H193.96V42.9901H195.9V42.0601H191.01V42.9901Z" fill="#003477"/>
<path d="M199.131 45.5401L197.131 42.0601H195.961L198.621 46.6601V50.2101H199.641V46.6601L202.291 42.0601H201.131L199.131 45.5401Z" fill="#003477"/>
<path d="M210.03 41.8901C207.69 41.8901 205.76 43.8001 205.76 46.1401C205.76 48.4801 207.67 50.3901 210.03 50.3901C212.39 50.3901 214.3 48.5601 214.3 46.1401C214.3 43.7201 212.37 41.8901 210.03 41.8901ZM210.03 49.4301C208.27 49.4301 206.78 47.9901 206.78 46.1301C206.78 44.2701 208.12 42.8301 210.03 42.8301C211.94 42.8301 213.28 44.3301 213.28 46.1301C213.28 47.9301 211.79 49.4301 210.03 49.4301Z" fill="#003477"/>
<path d="M215.381 50.2101H216.401V46.2101H219.231V45.2801H216.401V42.9901H219.331V42.0601H215.381V50.2101Z" fill="#003477"/>
<path d="M226.52 45.3901L225.94 45.1601C225.43 44.9601 224.8 44.6301 224.8 43.9901C224.8 43.2801 225.51 42.8301 226.16 42.8301C226.78 42.8301 227.16 43.0901 227.47 43.6001L228.28 43.1201C227.84 42.3301 227.09 41.8901 226.18 41.8901C224.95 41.8901 223.78 42.6801 223.78 44.0001C223.78 45.1401 224.62 45.6701 225.55 46.0601L226.11 46.3001C226.81 46.5901 227.51 46.9701 227.51 47.8501C227.51 48.7301 226.88 49.4401 226.01 49.4401C225.14 49.4401 224.42 48.7901 224.43 47.8901L223.4 48.1101C223.57 49.4201 224.6 50.3901 225.92 50.3901C227.38 50.3901 228.52 49.3301 228.52 47.8501C228.52 46.4901 227.66 45.8501 226.5 45.4001L226.52 45.3901Z" fill="#003477"/>
<path d="M229.311 46.1699C229.311 48.5299 231.231 50.3799 233.561 50.3799C234.271 50.3799 235.071 50.1699 235.701 49.8099V48.6099C235.091 49.1499 234.331 49.4499 233.531 49.4499C231.711 49.4499 230.331 47.9299 230.331 46.1399C230.331 44.3499 231.721 42.8099 233.551 42.8099C234.321 42.8099 235.121 43.0899 235.701 43.6099V42.4299C235.081 42.0499 234.361 41.8799 233.651 41.8799C231.251 41.8799 229.321 43.7599 229.321 46.1699H229.311Z" fill="#003477"/>
<path d="M238 42.0601H236.98V50.2101H238V42.0601Z" fill="#003477"/>
<path d="M239.631 50.2101H244.011V49.2801H240.651V46.2001H243.911V45.2701H240.651V42.9901H244.011V42.0601H239.631V50.2101Z" fill="#003477"/>
<path d="M251.391 48.0799L245.271 41.6699V50.2099H246.291V44.1299L252.401 50.5399V42.0599H251.391V48.0799Z" fill="#003477"/>
<path d="M253.51 46.1699C253.51 48.5299 255.43 50.3799 257.76 50.3799C258.47 50.3799 259.27 50.1699 259.9 49.8099V48.6099C259.29 49.1499 258.53 49.4499 257.73 49.4499C255.91 49.4499 254.53 47.9299 254.53 46.1399C254.53 44.3499 255.92 42.8099 257.75 42.8099C258.52 42.8099 259.32 43.0899 259.9 43.6099V42.4299C259.29 42.0499 258.56 41.8799 257.85 41.8799C255.45 41.8799 253.52 43.7599 253.52 46.1699H253.51Z" fill="#003477"/>
<path d="M261.211 50.2101H265.591V49.2801H262.231V46.2001H265.491V45.2701H262.231V42.9901H265.591V42.0601H261.211V50.2101Z" fill="#003477"/>
<path d="M269.32 50.2097H270.41L271.34 48.1697H275.08L276.01 50.2097H277.1L273.21 41.7197L269.32 50.2097ZM271.76 47.2397L273.21 43.9397L274.66 47.2397H271.76Z" fill="#003477"/>
<path d="M283.911 48.0799L277.791 41.6699V50.2099H278.801V44.1299L284.921 50.5399V42.0599H283.911V48.0799Z" fill="#003477"/>
<path d="M288.081 42.0601H286.391V50.2101H288.041C290.611 50.2101 292.641 48.8701 292.641 46.0901C292.641 43.3101 290.561 42.0601 288.071 42.0601H288.081ZM287.771 49.2801H287.411V42.9901H287.771C289.841 42.9901 291.641 43.7601 291.641 46.1401C291.641 48.5201 289.851 49.2801 287.771 49.2801Z" fill="#003477"/>
<path d="M296.25 42.9901H298.18V50.2101H299.2V42.9901H301.13V42.0601H296.25V42.9901Z" fill="#003477"/>
<path d="M302.041 50.2101H306.421V49.2801H303.051V46.2001H306.321V45.2701H303.051V42.9901H306.421V42.0601H302.041V50.2101Z" fill="#003477"/>
<path d="M307.32 46.1699C307.32 48.5299 309.24 50.3799 311.57 50.3799C312.28 50.3799 313.08 50.1699 313.71 49.8099V48.6099C313.1 49.1499 312.34 49.4499 311.54 49.4499C309.72 49.4499 308.34 47.9299 308.34 46.1399C308.34 44.3499 309.73 42.8099 311.56 42.8099C312.33 42.8099 313.13 43.0899 313.71 43.6099V42.4299C313.09 42.0499 312.37 41.8799 311.66 41.8799C309.26 41.8799 307.33 43.7599 307.33 46.1699H307.32Z" fill="#003477"/>
<path d="M319.841 45.3401H315.961V42.0601H314.941V50.2101H315.961V46.2901H319.841V50.2101H320.851V42.0601H319.841V45.3401Z" fill="#003477"/>
<path d="M328.45 48.0799L322.33 41.6699V50.2099H323.35V44.1299L329.47 50.5399V42.0599H328.45V48.0799Z" fill="#003477"/>
<path d="M334.721 41.8901C332.381 41.8901 330.451 43.8001 330.451 46.1401C330.451 48.4801 332.361 50.3901 334.721 50.3901C337.081 50.3901 338.991 48.5601 338.991 46.1401C338.991 43.7201 337.061 41.8901 334.721 41.8901ZM334.721 49.4301C332.961 49.4301 331.471 47.9901 331.471 46.1301C331.471 44.2701 332.811 42.8301 334.721 42.8301C336.631 42.8301 337.971 44.3301 337.971 46.1301C337.971 47.9301 336.481 49.4301 334.721 49.4301Z" fill="#003477"/>
<path d="M341.09 42.0601H340.08V50.2101H343.57V49.2801H341.09V42.0601Z" fill="#003477"/>
<path d="M348.041 41.8901C345.711 41.8901 343.771 43.8001 343.771 46.1401C343.771 48.4801 345.681 50.3901 348.041 50.3901C350.401 50.3901 352.311 48.5601 352.311 46.1401C352.311 43.7201 350.381 41.8901 348.041 41.8901ZM348.041 49.4301C346.281 49.4301 344.791 47.9901 344.791 46.1301C344.791 44.2701 346.131 42.8301 348.041 42.8301C349.951 42.8301 351.291 44.3301 351.291 46.1301C351.291 47.9301 349.801 49.4301 348.041 49.4301Z" fill="#003477"/>
<path d="M357.59 47.0299H359.7C359.66 48.3599 358.29 49.4499 357.03 49.4499C355.27 49.4499 353.86 47.8299 353.86 46.1199C353.86 44.2899 355.29 42.8099 357.11 42.8099C358.1 42.8099 359.09 43.3399 359.67 44.1399L360.38 43.4599C359.58 42.4499 358.33 41.8799 357.06 41.8799C354.72 41.8799 352.84 43.7999 352.84 46.1499C352.84 48.4999 354.68 50.3799 356.96 50.3799C359.24 50.3799 360.82 48.6599 360.82 46.4199V46.0999H357.59V47.0299V47.0299Z" fill="#003477"/>
<path d="M366.262 42.0601L364.262 45.5401L362.262 42.0601H361.102L363.752 46.6601V50.2101H364.772V46.6601L367.432 42.0601H366.262Z" fill="#003477"/>
<path d="M213.909 7.67986C214.069 7.46986 214.129 7.10986 214.129 7.10986H204.359C204.359 7.10986 204.479 7.50986 204.579 7.67986H213.909V7.67986Z" fill="#AA8420"/>
<path d="M213.34 8.49977C213.52 8.33977 213.71 8.00977 213.71 8.00977H204.77C204.77 8.00977 204.87 8.24977 205.09 8.49977H213.34Z" fill="#AA8420"/>
<path d="M212.641 9.25964C212.861 9.13964 213.041 8.88965 213.041 8.88965H205.391C205.391 8.88965 205.571 9.08964 205.751 9.25964H212.631H212.641Z" fill="#AA8420"/>
<path d="M211.75 9.9597C211.97 9.8797 212.22 9.67969 212.22 9.67969H206.25C206.25 9.67969 206.25 9.7197 206.67 9.9597H211.75Z" fill="#AA8420"/>
<path d="M207.35 10.4097C207.35 10.4097 207.98 10.7797 209.21 10.7797C210.44 10.7797 211.23 10.4097 211.23 10.4097H207.34H207.35Z" fill="#AA8420"/>
<path d="M207.251 11.2397C207.251 11.2397 208.001 11.2797 208.441 11.6197C208.871 11.9897 209.191 12.5897 209.191 12.5897C209.191 12.5897 209.451 12.0097 209.881 11.6997C210.301 11.3697 210.991 11.2297 210.991 11.2297H218.701L220.221 13.4797H213.301C213.301 13.4797 212.821 13.4997 212.091 13.9297C211.711 14.1497 211.421 14.5297 211.421 14.5297C211.421 14.5297 211.371 14.7097 211.281 14.8097C211.201 14.9097 211.141 14.9997 211.041 15.0297C210.941 15.0697 210.961 15.0497 210.961 15.0497H207.361C207.361 15.0497 207.221 14.9897 207.141 14.8697C207.061 14.7497 207.121 14.7897 207.041 14.6897C206.981 14.5897 206.841 14.3197 206.291 13.9597C205.721 13.5897 205.181 13.5497 205.181 13.5497H198.141L199.671 11.2197H207.261L207.251 11.2397Z" fill="#003477"/>
<path d="M201.811 14.4099V25.8999C201.811 25.8999 201.851 26.9099 202.701 28.2899C203.551 29.6699 204.781 30.2899 204.781 30.2899L205.751 28.7699C205.751 28.7699 204.901 28.2599 204.251 27.2899C203.621 26.3199 203.621 25.4899 203.621 25.4899V14.3999H201.801L201.811 14.4099Z" fill="#003477"/>
<path d="M214.839 14.3696V25.4596C214.839 25.4596 214.699 26.5696 214.169 27.3596C213.649 28.1696 212.779 28.8196 212.779 28.8196L213.709 30.3196C213.709 30.3196 215.119 29.2896 215.809 28.1996C216.499 27.1096 216.659 25.4696 216.659 25.4696V14.3796H214.839V14.3696Z" fill="#003477"/>
<path d="M198.92 14.4099V25.9399C198.92 25.9399 199.04 27.7199 200.15 29.5799C201.27 31.4399 203.29 32.7399 203.29 32.7399L204.24 31.2199C204.24 31.2199 202.94 30.5299 201.91 28.9499C200.85 27.3499 200.8 25.8899 200.8 25.8899V14.3999H198.92V14.4099Z" fill="#003477"/>
<path d="M207.25 15.6299V27.8099C207.25 27.8099 207.21 27.8499 207.19 28.0299C207.17 28.2199 207.05 28.3399 207.05 28.3399L202.99 35.0799H215.45L211.38 28.1999L211.26 27.8899L211.22 27.5699V15.6499H209.7V28.0099C209.7 28.0099 209.7 28.1899 209.76 28.3399C209.8 28.4799 209.88 28.6999 209.88 28.6999L212.39 32.8299H206.04L208.51 28.7199C208.51 28.7199 208.59 28.5799 208.65 28.3799C208.69 28.1999 208.71 28.0199 208.71 28.0199V15.6399H207.25V15.6299Z" fill="#AA8420"/>
<path d="M217.65 14.3696V25.6996C217.65 25.6996 217.63 27.1496 216.56 28.8296C215.49 30.5096 214.25 31.2196 214.25 31.2196L215.16 32.7596C215.16 32.7596 217.02 31.5796 218.2 29.7196C219.35 27.8596 219.5 25.6996 219.5 25.6996V14.3696H217.66H217.65Z" fill="#003477"/>
<path d="M204.301 6.78963C204.301 6.78963 203.681 3.36963 206.181 1.66963C206.181 1.66963 207.321 0.619629 209.161 0.619629C211.121 0.619629 212.251 1.64963 212.251 1.64963C214.981 3.64963 214.171 6.78963 214.171 6.78963H204.301V6.78963Z" fill="#AA8420"/>
<path d="M0.0100021 18.4399H2.57C3.23 18.4399 3.74 18.5999 4.11 18.9199C4.48 19.2399 4.66 19.6799 4.66 20.2299C4.66 20.7799 4.47 21.2299 4.1 21.5499C3.73 21.8699 3.21 22.0299 2.56 22.0299H0.739998V24.8499H0V18.4399H0.0100021ZM2.5 21.4199C2.97 21.4199 3.33 21.3199 3.57 21.1099C3.81 20.9099 3.93 20.6099 3.93 20.2299C3.93 19.8499 3.81 19.5499 3.57 19.3499C3.33 19.1499 2.97 19.0499 2.5 19.0499H0.739998V21.4199H2.5Z" fill="#231815"/>
<path d="M10.9009 24.8497H10.1209L9.33086 22.7197C9.23086 22.4597 9.10086 22.2797 8.93086 22.1897C8.76086 22.0997 8.52086 22.0597 8.21086 22.0597H6.61086V24.8597H5.88086V18.4497H8.43086C9.12086 18.4497 9.65086 18.5997 10.0209 18.9097C10.3909 19.2197 10.5709 19.6597 10.5709 20.2297C10.5709 20.6497 10.4609 20.9997 10.2409 21.2897C10.0209 21.5797 9.70086 21.7797 9.29086 21.8997C9.48086 21.9297 9.63086 22.0097 9.77086 22.1397C9.90086 22.2697 10.0109 22.4497 10.1009 22.6897L10.9109 24.8597L10.9009 24.8497ZM8.35086 21.4397C9.33086 21.4397 9.83086 21.0397 9.83086 20.2297C9.83086 19.8297 9.71086 19.5397 9.47086 19.3397C9.23086 19.1497 8.86086 19.0497 8.35086 19.0497H6.60086V21.4297H8.35086V21.4397Z" fill="#231815"/>
<path d="M12.0996 18.4399H12.8396V24.8499H12.0996V18.4399Z" fill="#231815"/>
<path d="M19.5599 18.4399V24.8499H18.9799L15.1099 19.6899V24.8499H14.4199V18.4399H14.9899L18.8599 23.5999V18.4399H19.5599Z" fill="#231815"/>
<path d="M22.6909 19.0699H20.4609V18.4399H25.6709V19.0699H23.4409V24.8499H22.6909V19.0699V19.0699Z" fill="#231815"/>
<path d="M25.9902 24.1099L26.2702 23.5399C26.5902 23.8099 26.9102 23.9999 27.2402 24.1199C27.5702 24.2299 27.9502 24.2899 28.3902 24.2899C28.9102 24.2899 29.3002 24.1899 29.5802 23.9899C29.8602 23.7899 30.0002 23.5099 30.0002 23.1399C30.0002 22.9199 29.9302 22.7499 29.8002 22.6099C29.6602 22.4799 29.4902 22.3699 29.2702 22.2899C29.0502 22.2099 28.7602 22.1299 28.3902 22.0499C27.9002 21.9399 27.4902 21.8199 27.1802 21.6999C26.8602 21.5699 26.6002 21.3899 26.4102 21.1599C26.2102 20.9199 26.1102 20.6099 26.1102 20.2299C26.1102 19.8499 26.2102 19.5399 26.4002 19.2599C26.5902 18.9799 26.8602 18.7599 27.2102 18.6099C27.5602 18.4599 27.9702 18.3799 28.4402 18.3799C28.9102 18.3799 29.3002 18.4499 29.6802 18.5899C30.0602 18.7299 30.3902 18.9299 30.6502 19.1899L30.3602 19.7599C30.0602 19.4999 29.7602 19.3099 29.4502 19.1899C29.1402 19.0699 28.8002 19.0099 28.4402 19.0099C27.9402 19.0099 27.5502 19.1199 27.2702 19.3299C26.9902 19.5399 26.8502 19.8299 26.8502 20.2099C26.8502 20.5299 26.9702 20.7799 27.2202 20.9399C27.4702 21.0999 27.8402 21.2399 28.3502 21.3599C28.9002 21.4899 29.3402 21.6099 29.6502 21.7199C29.9602 21.8299 30.2302 21.9999 30.4402 22.2199C30.6502 22.4499 30.7502 22.7399 30.7502 23.1199C30.7502 23.4999 30.6502 23.7999 30.4602 24.0699C30.2702 24.3399 29.9902 24.5499 29.6402 24.6999C29.2802 24.8499 28.8602 24.9299 28.3802 24.9299C27.3802 24.9299 26.5802 24.6599 25.9902 24.1199V24.1099Z" fill="#231815"/>
<path d="M4.22 36.16V36.85H0.25V36.16H1.82V30.75L0.360001 31.68V30.89L2.18 29.73H2.65V36.16H4.22V36.16Z" fill="#AA8420"/>
<path d="M10.3794 36.1599V36.8499H5.79937V36.2299L8.28938 33.4699C8.61938 33.0999 8.86937 32.7599 9.01937 32.4599C9.16937 32.1599 9.24937 31.8599 9.24937 31.5599C9.24937 31.1699 9.13937 30.8599 8.90937 30.6499C8.67937 30.4399 8.35938 30.3399 7.93938 30.3399C7.25938 30.3399 6.58937 30.6099 5.91937 31.1599L5.60938 30.5299C5.88938 30.2599 6.23937 30.0499 6.66937 29.8899C7.09937 29.7299 7.52937 29.6499 7.95937 29.6499C8.60937 29.6499 9.12938 29.8199 9.50938 30.1499C9.88938 30.4899 10.0794 30.9399 10.0794 31.5199C10.0794 31.9299 9.98937 32.3199 9.80937 32.6899C9.62937 33.0699 9.31937 33.4899 8.88937 33.9599L6.85938 36.1599H10.3794Z" fill="#AA8420"/>
<path d="M21.6093 33.6897V36.8497H20.7993V33.7297C20.7993 33.2597 20.7193 32.9097 20.5493 32.6997C20.3893 32.4897 20.1193 32.3797 19.7593 32.3797C19.3293 32.3797 18.9993 32.5197 18.7593 32.8097C18.5193 33.0997 18.3993 33.4897 18.3993 33.9797V36.8497H17.5893V33.7297C17.5893 33.2597 17.5093 32.9197 17.3393 32.7097C17.1693 32.4897 16.9093 32.3797 16.5393 32.3797C16.1093 32.3797 15.7793 32.5197 15.5393 32.8097C15.2993 33.0997 15.1693 33.4897 15.1693 33.9797V36.8497H14.3593V33.2297C14.3593 32.7097 14.3293 32.2397 14.2793 31.8197H15.0493L15.1293 32.6997C15.2693 32.3797 15.4793 32.1297 15.7493 31.9597C16.0293 31.7897 16.3493 31.6997 16.7193 31.6997C17.1193 31.6997 17.4493 31.7797 17.6993 31.9397C17.9493 32.0997 18.1393 32.3497 18.2593 32.6797C18.4093 32.3797 18.6393 32.1397 18.9293 31.9697C19.2293 31.7897 19.5593 31.6997 19.9293 31.6997C21.0393 31.6997 21.5993 32.3597 21.5993 33.6897H21.6093Z" fill="#AA8420"/>
<path d="M30.4003 33.6897V36.8497H29.5903V33.7297C29.5903 33.2597 29.5103 32.9097 29.3403 32.6997C29.1803 32.4897 28.9103 32.3797 28.5503 32.3797C28.1203 32.3797 27.7903 32.5197 27.5503 32.8097C27.3103 33.0997 27.1903 33.4897 27.1903 33.9797V36.8497H26.3803V33.7297C26.3803 33.2597 26.3003 32.9197 26.1303 32.7097C25.9603 32.4897 25.7003 32.3797 25.3303 32.3797C24.9003 32.3797 24.5703 32.5197 24.3303 32.8097C24.0903 33.0997 23.9603 33.4897 23.9603 33.9797V36.8497H23.1503V33.2297C23.1503 32.7097 23.1203 32.2397 23.0703 31.8197H23.8403L23.9203 32.6997C24.0603 32.3797 24.2703 32.1297 24.5403 31.9597C24.8203 31.7897 25.1403 31.6997 25.5103 31.6997C25.9103 31.6997 26.2403 31.7797 26.4903 31.9397C26.7403 32.0997 26.9303 32.3497 27.0503 32.6797C27.2003 32.3797 27.4303 32.1397 27.7203 31.9697C28.0203 31.7897 28.3503 31.6997 28.7203 31.6997C29.8303 31.6997 30.3903 32.3597 30.3903 33.6897H30.4003Z" fill="#AA8420"/>
<path d="M389.05 23.5199C388.61 23.2599 388.27 22.8799 388.04 22.3799C387.8 21.8899 387.68 21.2999 387.68 20.6399C387.68 19.9799 387.8 19.3899 388.03 18.8899C388.26 18.3999 388.6 18.0199 389.04 17.7599C389.48 17.4999 390 17.3599 390.6 17.3599C391.2 17.3599 391.72 17.4899 392.16 17.7599C392.6 18.0299 392.93 18.3999 393.17 18.8899C393.41 19.3799 393.52 19.9599 393.52 20.6299C393.52 21.2999 393.4 21.8799 393.16 22.3799C392.92 22.8699 392.59 23.2499 392.15 23.5199C391.71 23.7899 391.2 23.9199 390.6 23.9199C390 23.9199 389.49 23.7899 389.05 23.5199ZM392.18 22.5899C392.56 22.1299 392.75 21.4699 392.75 20.6299C392.75 19.7899 392.56 19.1299 392.19 18.6799C391.82 18.2299 391.29 17.9999 390.6 17.9999C389.91 17.9999 389.38 18.2299 389.01 18.6899C388.64 19.1499 388.44 19.7999 388.44 20.6399C388.44 21.4799 388.63 22.1399 389.01 22.5999C389.39 23.0599 389.92 23.2899 390.6 23.2899C391.28 23.2899 391.81 23.0599 392.18 22.5999V22.5899Z" fill="#231815"/>
<path d="M399.999 17.4399V23.8499H399.419L395.549 18.6899V23.8499H394.859V17.4399H395.429L399.299 22.5999V17.4399H399.999Z" fill="#231815"/>
<path d="M401.58 17.4399H402.32V23.2199H405.53V23.8499H401.58V17.4399Z" fill="#231815"/>
<path d="M406.48 17.4399H407.22V23.8499H406.48V17.4399Z" fill="#231815"/>
<path d="M413.939 17.4399V23.8499H413.359L409.489 18.6899V23.8499H408.799V17.4399H409.369L413.239 22.5999V17.4399H413.939Z" fill="#231815"/>
<path d="M415.52 17.4397H419.57V18.0497H416.25V20.2797H419.39V20.8997H416.25V23.2297H419.57V23.8397H415.52V17.4297V17.4397Z" fill="#231815"/>
<path d="M391.6 31.6597C391.94 31.8497 392.19 32.1097 392.37 32.4497C392.55 32.7897 392.64 33.1797 392.64 33.6297C392.64 34.0797 392.54 34.4697 392.35 34.8197C392.15 35.1697 391.87 35.4297 391.51 35.6197C391.15 35.8097 390.72 35.9097 390.24 35.9097C389.81 35.9097 389.38 35.8297 388.96 35.6697C388.54 35.5097 388.19 35.2997 387.9 35.0297L388.21 34.3997C388.87 34.9497 389.55 35.2197 390.24 35.2197C390.74 35.2197 391.13 35.0797 391.42 34.7997C391.7 34.5197 391.84 34.1297 391.84 33.6397C391.84 33.1497 391.7 32.7897 391.42 32.4997C391.14 32.2097 390.77 32.0597 390.3 32.0597C389.62 32.0597 389.08 32.3397 388.67 32.8897H388.1V28.7197H392.37V29.3997H388.92V31.9397C389.31 31.5597 389.82 31.3697 390.43 31.3697C390.88 31.3697 391.27 31.4597 391.61 31.6597H391.6Z" fill="#AA8420"/>
<path d="M394.271 34.9999C393.851 34.3799 393.631 33.4799 393.631 32.2899C393.631 31.0999 393.841 30.1899 394.271 29.5699C394.691 28.9499 395.311 28.6499 396.121 28.6499C396.931 28.6499 397.551 28.9599 397.971 29.5699C398.391 30.1899 398.611 31.0899 398.611 32.2799C398.611 33.4699 398.401 34.3799 397.971 34.9999C397.551 35.6199 396.931 35.9299 396.121 35.9299C395.311 35.9299 394.691 35.6199 394.271 35.0099V34.9999ZM397.381 34.5099C397.651 34.0299 397.791 33.2799 397.791 32.2699C397.791 31.2599 397.661 30.5199 397.391 30.0499C397.121 29.5799 396.701 29.3399 396.131 29.3399C395.561 29.3399 395.151 29.5799 394.881 30.0499C394.611 30.5199 394.471 31.2599 394.471 32.2699C394.471 33.2799 394.611 34.0199 394.881 34.5099C395.151 34.9999 395.571 35.2299 396.131 35.2299C396.691 35.2299 397.111 34.9899 397.381 34.5099V34.5099Z" fill="#AA8420"/>
<path d="M406.19 31.0297C406.53 31.2497 406.79 31.5597 406.98 31.9597C407.17 32.3597 407.26 32.8097 407.26 33.3397C407.26 33.8697 407.17 34.3097 406.98 34.6997C406.79 35.0897 406.53 35.3897 406.19 35.6097C405.85 35.8197 405.46 35.9297 405.02 35.9297C404.63 35.9297 404.28 35.8397 403.99 35.6697C403.7 35.4997 403.47 35.2497 403.32 34.9297V38.0197H402.51V32.2397C402.51 31.7197 402.48 31.2497 402.43 30.8297H403.2L403.28 31.7997C403.42 31.4497 403.64 31.1797 403.95 30.9897C404.25 30.7997 404.61 30.6997 405.03 30.6997C405.47 30.6997 405.86 30.8097 406.2 31.0297H406.19ZM406.02 34.7497C406.29 34.4197 406.42 33.9397 406.42 33.3297C406.42 32.7197 406.28 32.2397 406.01 31.8897C405.74 31.5497 405.36 31.3797 404.87 31.3797C404.38 31.3797 403.99 31.5497 403.72 31.8797C403.45 32.2097 403.32 32.6897 403.32 33.3097C403.32 33.9297 403.45 34.4097 403.72 34.7397C403.99 35.0797 404.37 35.2497 404.87 35.2497C405.37 35.2497 405.75 35.0797 406.02 34.7497V34.7497Z" fill="#AA8420"/>
<path d="M412.87 35.8498H411.9L410.31 33.8698L408.74 35.8498H407.75L409.84 33.2598L407.87 30.8198H408.85L410.31 32.6698L411.77 30.8198H412.76L410.8 33.2598L412.87 35.8498V35.8498Z" fill="#AA8420"/>
</svg>
