<svg width="399" height="31" viewBox="0 0 399 31" fill="none" xmlns="http://www.w3.org/2000/svg">
<path d="M42.4003 30.6H35.0703V0H42.4003V0.25H35.3203V30.35H42.4003V30.6Z" fill="#231815"/>
<path d="M362.051 30.6H354.721V30.35H361.801V0.25H354.721V0H362.051V30.6Z" fill="#231815"/>
<path d="M68.6895 17.37H70.4295V23.8501H71.3394V17.37H73.0795V16.54H68.6895V17.37Z" fill="#003477"/>
<path d="M78.2103 19.4901H74.7303V16.54H73.8203V23.8501H74.7303V20.34H78.2103V23.8501H79.1203V16.54H78.2103V19.4901Z" fill="#003477"/>
<path d="M80.5391 23.8501H84.4691V23.0201H81.4491V20.25H84.3791V19.42H81.4491V17.37H84.4691V16.54H80.5391V23.8501Z" fill="#003477"/>
<path d="M92.9095 19.4901H89.4295V16.54H88.5195V23.8501H89.4295V20.34H92.9095V23.8501H93.8195V16.54H92.9095V19.4901Z" fill="#003477"/>
<path d="M98.5605 16.3799C96.4605 16.3799 94.7305 18.0999 94.7305 20.1899C94.7305 22.2799 96.4505 23.9999 98.5605 23.9999C100.67 23.9999 102.39 22.3599 102.39 20.1899C102.39 18.0199 100.65 16.3799 98.5605 16.3799ZM98.5605 23.1499C96.9805 23.1499 95.6405 21.8599 95.6405 20.1899C95.6405 18.5199 96.8405 17.2299 98.5605 17.2299C100.28 17.2299 101.48 18.5799 101.48 20.1899C101.48 21.7999 100.14 23.1499 98.5605 23.1499Z" fill="#003477"/>
<path d="M108.779 21.9399L103.289 16.1899V23.8499H104.199V18.3999L109.689 24.1599V16.5399H108.779V21.9399Z" fill="#003477"/>
<path d="M114.85 21.0001H116.74C116.7 22.1901 115.48 23.1701 114.34 23.1701C112.76 23.1701 111.5 21.7101 111.5 20.1801C111.5 18.5401 112.78 17.2101 114.42 17.2101C115.31 17.2101 116.2 17.6901 116.72 18.4001L117.36 17.7901C116.64 16.8901 115.52 16.3701 114.38 16.3701C112.28 16.3701 110.59 18.1001 110.59 20.2001C110.59 22.3001 112.24 23.9901 114.29 23.9901C116.34 23.9901 117.75 22.4501 117.75 20.4401V20.1501H114.85V20.9901V21.0001Z" fill="#003477"/>
<path d="M126.87 16.54H125.67L122.57 19.7101V16.54H121.65V23.8501H122.57V20.8L122.94 20.45L125.69 23.8501H126.92L123.58 19.83L126.87 16.54Z" fill="#003477"/>
<path d="M130.891 16.3799C128.791 16.3799 127.061 18.0999 127.061 20.1899C127.061 22.2799 128.781 23.9999 130.891 23.9999C133.001 23.9999 134.721 22.3599 134.721 20.1899C134.721 18.0199 132.981 16.3799 130.891 16.3799ZM130.891 23.1499C129.311 23.1499 127.971 21.8599 127.971 20.1899C127.971 18.5199 129.171 17.2299 130.891 17.2299C132.611 17.2299 133.811 18.5799 133.811 20.1899C133.811 21.7999 132.471 23.1499 130.891 23.1499Z" fill="#003477"/>
<path d="M141.109 21.9399L135.619 16.1899V23.8499H136.529V18.3999L142.019 24.1599V16.5399H141.109V21.9399Z" fill="#003477"/>
<path d="M147.19 21.0001H149.08C149.04 22.1901 147.82 23.1701 146.68 23.1701C145.1 23.1701 143.84 21.7101 143.84 20.1801C143.84 18.5401 145.12 17.2101 146.76 17.2101C147.65 17.2101 148.54 17.6901 149.06 18.4001L149.7 17.7901C148.98 16.8901 147.86 16.3701 146.72 16.3701C144.61 16.3701 142.93 18.1001 142.93 20.2001C142.93 22.3001 144.58 23.9901 146.63 23.9901C148.68 23.9901 150.09 22.4501 150.09 20.4401V20.1501H147.19V20.9901V21.0001Z" fill="#003477"/>
<path d="M158.309 20.86C158.309 22.05 157.949 23.16 156.539 23.16C155.129 23.16 154.769 22.06 154.769 20.86V16.54H153.859V21.17C153.859 22.78 154.859 24.01 156.539 24.01C158.219 24.01 159.219 22.78 159.219 21.17V16.54H158.309V20.86Z" fill="#003477"/>
<path d="M165.98 21.9399L160.49 16.1899V23.8499H161.4V18.3999L166.89 24.1599V16.5399H165.98V21.9399Z" fill="#003477"/>
<path d="M169.17 16.54H168.26V23.86H169.17V16.54Z" fill="#003477"/>
<path d="M173.049 21.95L170.869 16.54H169.869L173.049 24.2401L176.229 16.54H175.229L173.049 21.95Z" fill="#003477"/>
<path d="M176.949 23.8501H180.879V23.0201H177.859V20.25H180.789V19.42H177.859V17.37H180.879V16.54H176.949V23.8501Z" fill="#003477"/>
<path d="M186.1 18.6198C186.1 17.9198 185.75 17.2298 185.14 16.8698C184.56 16.5398 183.86 16.5298 183.21 16.5298H182.1V23.8498H183.01V20.7598H183.39L185.54 23.8498H186.65L184.34 20.6698C185.4 20.5498 186.1 19.6698 186.1 18.6198V18.6198ZM183.31 19.9998H183.02V17.3498H183.26C184.16 17.3498 185.25 17.5098 185.25 18.6598C185.25 19.8098 184.24 19.9998 183.31 19.9998V19.9998Z" fill="#003477"/>
<path d="M189.86 19.5299L189.34 19.3299C188.88 19.1499 188.32 18.8499 188.32 18.2799C188.32 17.6399 188.96 17.2399 189.54 17.2399C190.12 17.2399 190.44 17.4699 190.71 17.9299L191.44 17.4899C191.04 16.7799 190.37 16.3799 189.56 16.3799C188.45 16.3799 187.41 17.0899 187.41 18.2699C187.41 19.2899 188.17 19.7599 189 20.1199L189.5 20.3299C190.13 20.5899 190.76 20.9299 190.76 21.7199C190.76 22.5099 190.2 23.1399 189.41 23.1399C188.62 23.1399 187.98 22.5599 187.99 21.7499L187.07 21.9499C187.22 23.1199 188.15 23.9999 189.33 23.9999C190.64 23.9999 191.67 23.0499 191.67 21.7199C191.67 20.4999 190.89 19.9199 189.85 19.5199L189.86 19.5299Z" fill="#003477"/>
<path d="M193.65 16.54H192.74V23.86H193.65V16.54Z" fill="#003477"/>
<path d="M194.439 17.37H196.179V23.8501H197.089V17.37H198.829V16.54H194.439V17.37Z" fill="#003477"/>
<path d="M201.731 19.66L199.931 16.54H198.891L201.271 20.67V23.8501H202.181V20.67L204.571 16.54H203.531L201.731 19.66Z" fill="#003477"/>
<path d="M211.519 16.3799C209.419 16.3799 207.689 18.0999 207.689 20.1899C207.689 22.2799 209.409 23.9999 211.519 23.9999C213.629 23.9999 215.349 22.3599 215.349 20.1899C215.349 18.0199 213.609 16.3799 211.519 16.3799ZM211.519 23.1499C209.939 23.1499 208.599 21.8599 208.599 20.1899C208.599 18.5199 209.799 17.2299 211.519 17.2299C213.239 17.2299 214.439 18.5799 214.439 20.1899C214.439 21.7999 213.099 23.1499 211.519 23.1499Z" fill="#003477"/>
<path d="M216.32 23.8501H217.24V20.26H219.78V19.43H217.24V17.37H219.87V16.54H216.32V23.8501Z" fill="#003477"/>
<path d="M226.329 19.5299L225.809 19.3299C225.349 19.1499 224.789 18.8499 224.789 18.2799C224.789 17.6399 225.429 17.2399 226.009 17.2399C226.589 17.2399 226.909 17.4699 227.179 17.9299L227.909 17.4899C227.509 16.7799 226.839 16.3799 226.029 16.3799C224.919 16.3799 223.869 17.0899 223.869 18.2699C223.869 19.2899 224.629 19.7599 225.459 20.1199L225.959 20.3299C226.589 20.5899 227.219 20.9299 227.219 21.7199C227.219 22.5099 226.659 23.1399 225.869 23.1399C225.079 23.1399 224.449 22.5599 224.459 21.7499L223.539 21.9499C223.689 23.1199 224.619 23.9999 225.799 23.9999C227.109 23.9999 228.139 23.0499 228.139 21.7199C228.139 20.4999 227.359 19.9199 226.319 19.5199L226.329 19.5299Z" fill="#003477"/>
<path d="M228.83 20.2301C228.83 22.3401 230.56 24.0001 232.64 24.0001C233.28 24.0001 234 23.8201 234.56 23.4901V22.4101C234.02 22.8901 233.33 23.1701 232.61 23.1701C230.98 23.1701 229.74 21.8001 229.74 20.2001C229.74 18.6001 230.99 17.2101 232.63 17.2101C233.32 17.2101 234.04 17.4601 234.56 17.9301V16.8701C234.01 16.5301 233.36 16.3701 232.72 16.3701C230.57 16.3701 228.83 18.0601 228.83 20.2201V20.2301Z" fill="#003477"/>
<path d="M236.631 16.54H235.721V23.86H236.631V16.54Z" fill="#003477"/>
<path d="M238.1 23.8501H242.03V23.0201H239.01V20.25H241.94V19.42H239.01V17.37H242.03V16.54H238.1V23.8501Z" fill="#003477"/>
<path d="M248.66 21.9399L243.17 16.1899V23.8499H244.08V18.3999L249.57 24.1599V16.5399H248.66V21.9399Z" fill="#003477"/>
<path d="M250.561 20.2301C250.561 22.3401 252.291 24.0001 254.371 24.0001C255.011 24.0001 255.731 23.8201 256.291 23.4901V22.4101C255.751 22.8901 255.061 23.1701 254.341 23.1701C252.711 23.1701 251.471 21.8001 251.471 20.2001C251.471 18.6001 252.721 17.2101 254.361 17.2101C255.051 17.2101 255.771 17.4601 256.291 17.9301V16.8701C255.741 16.5301 255.091 16.3701 254.451 16.3701C252.291 16.3701 250.561 18.0601 250.561 20.2201V20.2301Z" fill="#003477"/>
<path d="M257.48 23.8501H261.41V23.0201H258.39V20.25H261.32V19.42H258.39V17.37H261.41V16.54H257.48V23.8501Z" fill="#003477"/>
<path d="M264.76 23.8502H265.74L266.57 22.0202H269.93L270.76 23.8502H271.74L268.25 16.2202L264.76 23.8502ZM266.95 21.1802L268.25 18.2202L269.55 21.1802H266.95Z" fill="#003477"/>
<path d="M277.859 21.9399L272.359 16.1899V23.8499H273.269V18.3999L278.769 24.1599V16.5399H277.859V21.9399Z" fill="#003477"/>
<path d="M281.6 16.54H280.09V23.86H281.58C283.89 23.86 285.71 22.66 285.71 20.16C285.71 17.66 283.85 16.54 281.6 16.54ZM281.32 23.0201H281V17.37H281.32C283.18 17.37 284.8 18.06 284.8 20.19C284.8 22.32 283.19 23.0201 281.32 23.0201Z" fill="#003477"/>
<path d="M288.939 17.37H290.669V23.8501H291.589V17.37H293.319V16.54H288.939V17.37Z" fill="#003477"/>
<path d="M294.141 23.8501H298.071V23.0201H295.051V20.25H297.981V19.42H295.051V17.37H298.071V16.54H294.141V23.8501Z" fill="#003477"/>
<path d="M298.881 20.2301C298.881 22.3401 300.611 24.0001 302.691 24.0001C303.331 24.0001 304.051 23.8201 304.611 23.4901V22.4101C304.071 22.8901 303.381 23.1701 302.661 23.1701C301.031 23.1701 299.791 21.8001 299.791 20.2001C299.791 18.6001 301.041 17.2101 302.681 17.2101C303.371 17.2101 304.091 17.4601 304.611 17.9301V16.8701C304.061 16.5301 303.411 16.3701 302.771 16.3701C300.621 16.3701 298.881 18.0601 298.881 20.2201V20.2301Z" fill="#003477"/>
<path d="M310.121 19.4901H306.641V16.54H305.721V23.8501H306.641V20.34H310.121V23.8501H311.031V16.54H310.121V19.4901Z" fill="#003477"/>
<path d="M317.859 21.9399L312.359 16.1899V23.8499H313.269V18.3999L318.769 24.1599V16.5399H317.859V21.9399Z" fill="#003477"/>
<path d="M323.48 16.3799C321.38 16.3799 319.65 18.0999 319.65 20.1899C319.65 22.2799 321.37 23.9999 323.48 23.9999C325.59 23.9999 327.31 22.3599 327.31 20.1899C327.31 18.0199 325.57 16.3799 323.48 16.3799ZM323.48 23.1499C321.9 23.1499 320.56 21.8599 320.56 20.1899C320.56 18.5199 321.77 17.2299 323.48 17.2299C325.19 17.2299 326.4 18.5799 326.4 20.1899C326.4 21.7999 325.06 23.1499 323.48 23.1499Z" fill="#003477"/>
<path d="M329.211 16.54H328.301V23.8501H331.431V23.0201H329.211V16.54Z" fill="#003477"/>
<path d="M335.449 16.3799C333.349 16.3799 331.619 18.0999 331.619 20.1899C331.619 22.2799 333.339 23.9999 335.449 23.9999C337.559 23.9999 339.289 22.3599 339.289 20.1899C339.289 18.0199 337.549 16.3799 335.449 16.3799ZM335.449 23.1499C333.869 23.1499 332.529 21.8599 332.529 20.1899C332.529 18.5199 333.729 17.2299 335.449 17.2299C337.169 17.2299 338.369 18.5799 338.369 20.1899C338.369 21.7999 337.029 23.1499 335.449 23.1499Z" fill="#003477"/>
<path d="M344.03 21.0001H345.92C345.88 22.1901 344.66 23.1701 343.52 23.1701C341.94 23.1701 340.68 21.7101 340.68 20.1801C340.68 18.5401 341.96 17.2101 343.6 17.2101C344.49 17.2101 345.38 17.6901 345.9 18.4001L346.54 17.7901C345.82 16.8901 344.7 16.3701 343.56 16.3701C341.45 16.3701 339.77 18.1001 339.77 20.2001C339.77 22.3001 341.42 23.9901 343.46 23.9901C345.5 23.9901 346.93 22.4501 346.93 20.4401V20.1501H344.03V20.9901V21.0001Z" fill="#003477"/>
<path d="M351.81 16.54L350.01 19.66L348.22 16.54H347.17L349.55 20.67V23.8501H350.47V20.67L352.86 16.54H351.81Z" fill="#003477"/>
<path d="M58.1696 6.34007C58.3196 6.15007 58.3696 5.83008 58.3696 5.83008H49.5996C49.5996 5.83008 49.7096 6.19007 49.7996 6.34007H58.1796H58.1696Z" fill="#AA8420"/>
<path d="M57.6707 7.0899C57.8307 6.9399 58.0007 6.6499 58.0007 6.6499H49.9707C49.9707 6.6499 50.0607 6.8699 50.2607 7.0899H57.6707Z" fill="#AA8420"/>
<path d="M57.0295 7.76018C57.2295 7.65018 57.3895 7.43018 57.3895 7.43018H50.5195C50.5195 7.43018 50.6795 7.61018 50.8495 7.76018H57.0295Z" fill="#AA8420"/>
<path d="M56.2291 8.39014C56.4291 8.32014 56.6491 8.14014 56.6491 8.14014H51.2891C51.2891 8.14014 51.2891 8.18014 51.6691 8.39014H56.2291V8.39014Z" fill="#AA8420"/>
<path d="M52.2891 8.79004C52.2891 8.79004 52.8491 9.12004 53.9591 9.12004C55.0691 9.12004 55.7791 8.79004 55.7791 8.79004H52.2891Z" fill="#AA8420"/>
<path d="M52.2 9.53978C52.2 9.53978 52.87 9.56979 53.27 9.87979C53.65 10.2098 53.94 10.7498 53.94 10.7498C53.94 10.7498 54.17 10.2298 54.56 9.94978C54.94 9.64978 55.56 9.52979 55.56 9.52979H62.48L63.84 11.5498H57.62C57.62 11.5498 57.18 11.5698 56.53 11.9498C56.18 12.1498 55.93 12.4998 55.93 12.4998C55.93 12.4998 55.88 12.6598 55.8 12.7498C55.73 12.8398 55.67 12.9198 55.58 12.9498C55.49 12.9898 55.51 12.9698 55.51 12.9698H52.28C52.28 12.9698 52.15 12.9198 52.08 12.8098C52.01 12.6998 52.06 12.7398 51.99 12.6498C51.94 12.5598 51.81 12.3198 51.32 11.9898C50.81 11.6598 50.32 11.6298 50.32 11.6298H44L45.38 9.53978H52.2V9.53978Z" fill="#003477"/>
<path d="M47.3108 12.3901V22.7101C47.3108 22.7101 47.3508 23.6201 48.1108 24.8501C48.8708 26.0901 49.9808 26.6501 49.9808 26.6501L50.8508 25.2901C50.8508 25.2901 50.0908 24.8401 49.5008 23.9601C48.9408 23.0901 48.9408 22.3401 48.9408 22.3401V12.3901H47.3008H47.3108Z" fill="#003477"/>
<path d="M59.0102 12.3501V22.3001C59.0102 22.3001 58.8802 23.3001 58.4102 24.0101C57.9402 24.7401 57.1602 25.3201 57.1602 25.3201L58.0002 26.6701C58.0002 26.6701 59.2702 25.7401 59.8902 24.7601C60.5102 23.7801 60.6502 22.3001 60.6502 22.3001V12.3501H59.0102Z" fill="#003477"/>
<path d="M44.7109 12.3901V22.7501C44.7109 22.7501 44.8209 24.3501 45.8209 26.0201C46.8209 27.6901 48.6309 28.8601 48.6309 28.8601L49.4909 27.5001C49.4909 27.5001 48.3309 26.8801 47.4009 25.4701C46.4509 24.0301 46.4009 22.7301 46.4009 22.7301V12.4101H44.7109V12.3901Z" fill="#003477"/>
<path d="M52.1994 13.48V24.42C52.1994 24.42 52.1594 24.46 52.1394 24.62C52.1194 24.79 52.0094 24.9 52.0094 24.9L48.3594 30.95H59.5494L55.8994 24.77L55.7894 24.49L55.7494 24.2V13.5H54.3894V24.6C54.3894 24.6 54.3894 24.76 54.4494 24.89C54.4794 25.01 54.5594 25.22 54.5594 25.22L56.8094 28.92H51.0994L53.3194 25.23C53.3194 25.23 53.3894 25.11 53.4494 24.92C53.4894 24.76 53.4994 24.6 53.4994 24.6V13.48H52.1894H52.1994Z" fill="#AA8420"/>
<path d="M61.5402 12.3501V22.5301C61.5402 22.5301 61.5302 23.8401 60.5602 25.3501C59.6002 26.8601 58.4902 27.4901 58.4902 27.4901L59.3102 28.8701C59.3102 28.8701 60.9802 27.8201 62.0302 26.1501C63.0602 24.4801 63.1902 22.5401 63.1902 22.5401V12.3601H61.5402V12.3501Z" fill="#003477"/>
<path d="M49.5404 5.53999C49.5404 5.53999 48.9804 2.47 51.2304 0.940002C51.2304 0.940002 52.2504 0 53.9004 0C55.6604 0 56.6804 0.919998 56.6804 0.919998C59.1304 2.72 58.4104 5.53999 58.4104 5.53999H49.5404Z" fill="#AA8420"/>
<path d="M0 8.14014H2.56C3.22 8.14014 3.73 8.30013 4.1 8.62013C4.47 8.94013 4.65 9.38013 4.65 9.93013C4.65 10.4801 4.46 10.9301 4.09 11.2501C3.72 11.5701 3.2 11.7301 2.55 11.7301H0.74V14.5501H0V8.14014V8.14014ZM2.49 11.1201C2.96 11.1201 3.32 11.0201 3.56 10.8101C3.8 10.6101 3.92 10.3101 3.92 9.93013C3.92 9.55013 3.8 9.25014 3.56 9.05014C3.32 8.85014 2.96 8.75014 2.49 8.75014H0.74V11.1201H2.5H2.49Z" fill="#231815"/>
<path d="M10.8891 14.5499H10.1091L9.31914 12.4199C9.21914 12.1599 9.08914 11.9799 8.91914 11.8899C8.74914 11.7999 8.50914 11.7599 8.19914 11.7599H6.59914V14.5599H5.86914V8.1499H8.41914C9.10914 8.1499 9.63914 8.29991 10.0091 8.60991C10.3791 8.91991 10.5591 9.3599 10.5591 9.9299C10.5591 10.3499 10.4491 10.6999 10.2291 10.9899C10.0091 11.2799 9.68914 11.4799 9.27914 11.5999C9.46914 11.6299 9.61914 11.7099 9.75914 11.8399C9.88914 11.9699 9.99914 12.1499 10.0891 12.3899L10.8991 14.5599L10.8891 14.5499ZM8.33914 11.1399C9.31914 11.1399 9.81914 10.7399 9.81914 9.9299C9.81914 9.5299 9.69914 9.2399 9.45914 9.0399C9.21914 8.8499 8.84914 8.74991 8.33914 8.74991H6.58914V11.1299H8.33914V11.1399Z" fill="#231815"/>
<path d="M12.0996 8.14014H12.8396V14.5501H12.0996V8.14014Z" fill="#231815"/>
<path d="M19.5599 8.14014V14.5501H18.9799L15.1099 9.39014V14.5501H14.4199V8.14014H14.9899L18.8599 13.3001V8.14014H19.5599Z" fill="#231815"/>
<path d="M22.6792 8.77014H20.4492V8.14014H25.6592V8.77014H23.4292V14.5501H22.6792V8.77014Z" fill="#231815"/>
<path d="M25.9805 13.8101L26.2605 13.2401C26.5805 13.5101 26.9005 13.7001 27.2305 13.8201C27.5605 13.9301 27.9405 13.9901 28.3805 13.9901C28.9005 13.9901 29.2905 13.8901 29.5705 13.6901C29.8505 13.4901 29.9905 13.2101 29.9905 12.8401C29.9905 12.6201 29.9205 12.4501 29.7905 12.3101C29.6505 12.1801 29.4805 12.0701 29.2605 11.9901C29.0405 11.9101 28.7505 11.8301 28.3805 11.7501C27.8905 11.6401 27.4805 11.5201 27.1705 11.4001C26.8505 11.2701 26.5905 11.0901 26.4005 10.8601C26.2005 10.6201 26.1005 10.3101 26.1005 9.93007C26.1005 9.55007 26.2005 9.24008 26.3905 8.96008C26.5805 8.68008 26.8505 8.46007 27.2005 8.31007C27.5505 8.16007 27.9605 8.08008 28.4305 8.08008C28.9005 8.08008 29.2905 8.15007 29.6705 8.29007C30.0505 8.43007 30.3805 8.63008 30.6405 8.89008L30.3505 9.46008C30.0505 9.20008 29.7505 9.01008 29.4405 8.89008C29.1305 8.77008 28.7905 8.71008 28.4305 8.71008C27.9305 8.71008 27.5405 8.82008 27.2605 9.03008C26.9805 9.24008 26.8405 9.53008 26.8405 9.91008C26.8405 10.2301 26.9605 10.4801 27.2105 10.6401C27.4605 10.8001 27.8305 10.9401 28.3405 11.0601C28.8905 11.1901 29.3305 11.3101 29.6405 11.4201C29.9505 11.5301 30.2205 11.7001 30.4305 11.9201C30.6405 12.1501 30.7405 12.4401 30.7405 12.8201C30.7405 13.2001 30.6405 13.5001 30.4505 13.7701C30.2605 14.0401 29.9805 14.2501 29.6305 14.4001C29.2705 14.5501 28.8505 14.6301 28.3705 14.6301C27.3705 14.6301 26.5705 14.3601 25.9805 13.8201V13.8101Z" fill="#231815"/>
<path d="M10.1302 23.5401C10.3902 23.8501 10.5102 24.2201 10.5102 24.6601C10.5102 25.2701 10.2802 25.7401 9.82016 26.0901C9.36016 26.4401 8.74016 26.6201 7.96016 26.6201C7.18016 26.6201 6.56016 26.4401 6.10016 26.0901C5.64016 25.7401 5.41016 25.2601 5.41016 24.6601C5.41016 24.2301 5.54016 23.8501 5.81016 23.5401C6.07016 23.2301 6.43016 23.0101 6.89016 22.8901C6.46016 22.7601 6.14016 22.5601 5.91016 22.2701C5.68016 21.9801 5.57016 21.6401 5.57016 21.2501C5.57016 20.8601 5.67016 20.5401 5.87016 20.2501C6.07016 19.9701 6.35016 19.7501 6.71016 19.5901C7.07016 19.4301 7.49016 19.3501 7.96016 19.3501C8.43016 19.3501 8.84016 19.4301 9.21016 19.5901C9.57016 19.7501 9.86016 19.9701 10.0502 20.2501C10.2502 20.5301 10.3502 20.8601 10.3502 21.2501C10.3502 21.6401 10.2302 21.9801 10.0002 22.2701C9.77016 22.5601 9.45016 22.7701 9.04016 22.8901C9.51016 23.0201 9.87016 23.2301 10.1202 23.5501L10.1302 23.5401ZM9.25016 25.5901C9.55016 25.3601 9.70016 25.0301 9.70016 24.6001C9.70016 24.2101 9.54016 23.8901 9.22016 23.6601C8.90016 23.4201 8.48016 23.2801 7.95016 23.2201C7.42016 23.2701 7.00016 23.4201 6.68016 23.6601C6.36016 23.9001 6.20016 24.2101 6.20016 24.6001C6.20016 25.0301 6.35016 25.3601 6.65016 25.5901C6.95016 25.8201 7.38016 25.9301 7.94016 25.9301C8.50016 25.9301 8.93016 25.8201 9.23016 25.5901H9.25016ZM6.81016 22.2101C7.09016 22.4501 7.48016 22.5901 7.96016 22.6501C8.44016 22.6001 8.82016 22.4501 9.11016 22.2101C9.39016 21.9701 9.53016 21.6701 9.53016 21.2901C9.53016 20.9101 9.39016 20.5901 9.11016 20.3601C8.83016 20.1301 8.45016 20.0201 7.96016 20.0201C7.47016 20.0201 7.08016 20.1301 6.81016 20.3601C6.53016 20.5901 6.39016 20.9001 6.39016 21.2901C6.39016 21.6801 6.53016 21.9801 6.81016 22.2101Z" fill="#AA8420"/>
<path d="M21.6093 23.3899V26.5499H20.7993V23.4299C20.7993 22.9599 20.7193 22.6099 20.5493 22.3999C20.3893 22.1899 20.1193 22.0799 19.7593 22.0799C19.3293 22.0799 18.9993 22.2199 18.7593 22.5099C18.5193 22.7999 18.3993 23.1899 18.3993 23.6799V26.5499H17.5893V23.4299C17.5893 22.9599 17.5093 22.6199 17.3393 22.4099C17.1693 22.1899 16.9093 22.0799 16.5393 22.0799C16.1093 22.0799 15.7793 22.2199 15.5393 22.5099C15.2993 22.7999 15.1693 23.1899 15.1693 23.6799V26.5499H14.3593V22.9299C14.3593 22.4099 14.3293 21.9399 14.2793 21.5199H15.0493L15.1293 22.3999C15.2693 22.0799 15.4793 21.8299 15.7493 21.6599C16.0293 21.4899 16.3493 21.3999 16.7193 21.3999C17.1193 21.3999 17.4493 21.4799 17.6993 21.6399C17.9493 21.7999 18.1393 22.0499 18.2593 22.3799C18.4093 22.0799 18.6393 21.8399 18.9293 21.6699C19.2293 21.4899 19.5593 21.3999 19.9293 21.3999C21.0393 21.3999 21.5993 22.0599 21.5993 23.3899H21.6093Z" fill="#AA8420"/>
<path d="M30.4003 23.3899V26.5499H29.5903V23.4299C29.5903 22.9599 29.5103 22.6099 29.3403 22.3999C29.1803 22.1899 28.9103 22.0799 28.5503 22.0799C28.1203 22.0799 27.7903 22.2199 27.5503 22.5099C27.3103 22.7999 27.1903 23.1899 27.1903 23.6799V26.5499H26.3803V23.4299C26.3803 22.9599 26.3003 22.6199 26.1303 22.4099C25.9603 22.1899 25.7003 22.0799 25.3303 22.0799C24.9003 22.0799 24.5703 22.2199 24.3303 22.5099C24.0903 22.7999 23.9603 23.1899 23.9603 23.6799V26.5499H23.1503V22.9299C23.1503 22.4099 23.1203 21.9399 23.0703 21.5199H23.8403L23.9203 22.3999C24.0603 22.0799 24.2703 21.8299 24.5403 21.6599C24.8203 21.4899 25.1403 21.3999 25.5103 21.3999C25.9103 21.3999 26.2403 21.4799 26.4903 21.6399C26.7403 21.7999 26.9303 22.0499 27.0503 22.3799C27.2003 22.0799 27.4303 21.8399 27.7203 21.6699C28.0203 21.4899 28.3503 21.3999 28.7203 21.3999C29.8303 21.3999 30.3903 22.0599 30.3903 23.3899H30.4003Z" fill="#AA8420"/>
<path d="M367.77 12.8001C367.33 12.5401 366.99 12.1601 366.76 11.6601C366.52 11.1701 366.4 10.5801 366.4 9.92014C366.4 9.26014 366.52 8.67014 366.75 8.17014C366.98 7.68014 367.32 7.30013 367.76 7.04013C368.2 6.78013 368.72 6.64014 369.32 6.64014C369.92 6.64014 370.44 6.77013 370.88 7.04013C371.32 7.31013 371.65 7.68014 371.89 8.17014C372.13 8.66014 372.24 9.24014 372.24 9.91014C372.24 10.5801 372.12 11.1601 371.88 11.6601C371.64 12.1501 371.31 12.5301 370.87 12.8001C370.43 13.0701 369.92 13.2001 369.32 13.2001C368.72 13.2001 368.21 13.0701 367.77 12.8001ZM370.9 11.8701C371.28 11.4101 371.47 10.7501 371.47 9.91014C371.47 9.07014 371.28 8.41014 370.91 7.96014C370.54 7.51014 370.01 7.28014 369.32 7.28014C368.63 7.28014 368.1 7.51014 367.73 7.97014C367.36 8.43014 367.16 9.08014 367.16 9.92014C367.16 10.7601 367.35 11.4201 367.73 11.8801C368.11 12.3401 368.64 12.5701 369.32 12.5701C370 12.5701 370.53 12.3401 370.9 11.8801V11.8701Z" fill="#231815"/>
<path d="M378.73 6.70996V13.1199H378.15L374.28 7.95996V13.1199H373.59V6.70996H374.16L378.03 11.8699V6.70996H378.73Z" fill="#231815"/>
<path d="M380.301 6.70996H381.041V12.49H384.251V13.1199H380.301V6.70996Z" fill="#231815"/>
<path d="M385.211 6.70996H385.951V13.1199H385.211V6.70996Z" fill="#231815"/>
<path d="M392.671 6.70996V13.1199H392.091L388.221 7.95996V13.1199H387.531V6.70996H388.101L391.971 11.8699V6.70996H392.671Z" fill="#231815"/>
<path d="M394.24 6.71021H398.29V7.32021H394.97V9.5502H398.11V10.1702H394.97V12.5002H398.29V13.1102H394.24V6.7002V6.71021Z" fill="#231815"/>
<path d="M371.52 23.57H370.44V25.12H369.62V23.57H366.34V22.95L369.77 18H370.44V22.89H371.52V23.57V23.57ZM369.62 22.89V19.39L367.19 22.89H369.62Z" fill="#AA8420"/>
<path d="M372.99 24.2802C372.57 23.6602 372.35 22.7602 372.35 21.5702C372.35 20.3802 372.56 19.4702 372.99 18.8502C373.41 18.2302 374.03 17.9302 374.84 17.9302C375.65 17.9302 376.27 18.2402 376.69 18.8502C377.11 19.4702 377.33 20.3702 377.33 21.5602C377.33 22.7502 377.12 23.6602 376.69 24.2802C376.27 24.9002 375.65 25.2102 374.84 25.2102C374.03 25.2102 373.41 24.9002 372.99 24.2902V24.2802ZM376.1 23.7902C376.37 23.3102 376.51 22.5602 376.51 21.5502C376.51 20.5402 376.38 19.8002 376.11 19.3302C375.84 18.8602 375.42 18.6202 374.85 18.6202C374.28 18.6202 373.87 18.8602 373.6 19.3302C373.33 19.8002 373.19 20.5402 373.19 21.5502C373.19 22.5602 373.33 23.3002 373.6 23.7902C373.87 24.2802 374.29 24.5102 374.85 24.5102C375.41 24.5102 375.83 24.2702 376.1 23.7902V23.7902Z" fill="#AA8420"/>
<path d="M384.92 20.3002C385.26 20.5202 385.52 20.8302 385.71 21.2302C385.9 21.6302 385.99 22.0802 385.99 22.6102C385.99 23.1402 385.9 23.5802 385.71 23.9702C385.52 24.3602 385.26 24.6602 384.92 24.8802C384.58 25.0902 384.19 25.2002 383.75 25.2002C383.36 25.2002 383.01 25.1102 382.72 24.9402C382.43 24.7702 382.2 24.5202 382.05 24.2002V27.2902H381.24V21.5102C381.24 20.9902 381.21 20.5202 381.16 20.1002H381.93L382.01 21.0702C382.15 20.7202 382.37 20.4502 382.68 20.2602C382.98 20.0702 383.34 19.9702 383.76 19.9702C384.2 19.9702 384.59 20.0802 384.93 20.3002H384.92ZM384.75 24.0202C385.02 23.6902 385.15 23.2102 385.15 22.6002C385.15 21.9902 385.01 21.5102 384.74 21.1602C384.47 20.8202 384.09 20.6502 383.6 20.6502C383.11 20.6502 382.72 20.8202 382.45 21.1502C382.18 21.4802 382.05 21.9602 382.05 22.5802C382.05 23.2002 382.18 23.6802 382.45 24.0102C382.72 24.3502 383.1 24.5202 383.6 24.5202C384.1 24.5202 384.48 24.3502 384.75 24.0202V24.0202Z" fill="#AA8420"/>
<path d="M391.6 25.1203H390.63L389.04 23.1403L387.47 25.1203H386.48L388.57 22.5303L386.6 20.0903H387.58L389.04 21.9403L390.5 20.0903H391.49L389.53 22.5303L391.6 25.1203V25.1203Z" fill="#AA8420"/>
</svg>
