<svg width="279" height="63" viewBox="0 0 279 63" fill="none" xmlns="http://www.w3.org/2000/svg">
<path d="M44.0192 62.96H36.6992V0H44.0192V0.25H36.9492V62.71H44.0192V62.96Z" fill="#231815"/>
<path d="M240.789 62.96H233.459V62.71H240.539V0.25H233.459V0H240.789V62.96Z" fill="#231815"/>
<path d="M51.3691 41.7998H53.3591V49.2398H54.4091V41.7998H56.4091V40.8398H51.3691V41.7998Z" fill="#003477"/>
<path d="M62.3 44.2298H58.3V40.8398H57.25V49.2398H58.3V45.2098H62.3V49.2398H63.35V40.8398H62.3V44.2298Z" fill="#003477"/>
<path d="M69.4885 48.2798H66.0285V45.1098H69.3885V44.1498H66.0285V41.7998H69.4885V40.8398H64.9785V49.2398H69.4885V48.2798Z" fill="#003477"/>
<path d="M79.1887 44.2298H75.1887V40.8398H74.1387V49.2398H75.1887V45.2098H79.1887V49.2398H80.2386V40.8398H79.1887V44.2298Z" fill="#003477"/>
<path d="M90.0793 45.0402C90.0793 42.6302 88.0893 40.6602 85.6793 40.6602C83.2693 40.6602 81.2793 42.6302 81.2793 45.0402C81.2793 47.4502 83.2493 49.4202 85.6793 49.4202C88.1093 49.4202 90.0793 47.5402 90.0793 45.0402ZM85.6793 48.4402C83.8593 48.4402 82.3293 46.9502 82.3293 45.0402C82.3293 43.1302 83.7093 41.6402 85.6793 41.6402C87.6493 41.6402 89.0293 43.1902 89.0293 45.0402C89.0293 46.8902 87.4893 48.4402 85.6793 48.4402Z" fill="#003477"/>
<path d="M92.1494 42.9799L98.4594 49.5899V40.8399H97.4194V47.0499L91.1094 40.4399V49.2399H92.1494V42.9799Z" fill="#003477"/>
<path d="M103.75 49.4202C106.1 49.4202 107.73 47.6502 107.73 45.3402V45.0002H104.4V45.9602H106.57C106.53 47.3302 105.12 48.4602 103.82 48.4602C102 48.4602 100.55 46.7902 100.55 45.0302C100.55 43.1502 102.02 41.6202 103.9 41.6202C104.93 41.6202 105.94 42.1602 106.54 42.9902L107.28 42.2902C106.45 41.2502 105.16 40.6602 103.86 40.6602C101.44 40.6602 99.5 42.6402 99.5 45.0602C99.5 47.4802 101.39 49.4202 103.75 49.4202V49.4202Z" fill="#003477"/>
<path d="M113.259 45.7298L113.679 45.3298L116.839 49.2398H118.259L114.409 44.6198L118.189 40.8398H116.819L113.259 44.4798V40.8398H112.209V49.2398H113.259V45.7298Z" fill="#003477"/>
<path d="M122.82 49.4202C125.25 49.4202 127.22 47.5402 127.22 45.0402C127.22 42.5402 125.22 40.6602 122.82 40.6602C120.42 40.6602 118.42 42.6302 118.42 45.0402C118.42 47.4502 120.39 49.4202 122.82 49.4202ZM122.82 41.6402C124.79 41.6402 126.18 43.1902 126.18 45.0402C126.18 46.8902 124.64 48.4402 122.82 48.4402C121 48.4402 119.47 46.9502 119.47 45.0402C119.47 43.1302 120.85 41.6402 122.82 41.6402Z" fill="#003477"/>
<path d="M135.6 40.8399H134.56V47.0499L128.25 40.4399V49.2399H129.29V42.9799L135.6 49.5899V40.8399Z" fill="#003477"/>
<path d="M141.539 45.9699H143.709C143.669 47.3399 142.259 48.4699 140.959 48.4699C139.139 48.4699 137.689 46.7999 137.689 45.0399C137.689 43.1599 139.159 41.6299 141.039 41.6299C142.069 41.6299 143.079 42.1699 143.679 42.9999L144.419 42.2999C143.589 41.2599 142.299 40.6699 140.999 40.6699C138.579 40.6699 136.639 42.6499 136.639 45.0699C136.639 47.4899 138.529 49.4299 140.879 49.4299C143.229 49.4299 144.859 47.6599 144.859 45.3499V45.0099H141.529V45.9699H141.539Z" fill="#003477"/>
<path d="M155.359 46.1598V40.8398H154.309V45.7998C154.309 47.1698 153.899 48.4398 152.279 48.4398C150.659 48.4398 150.249 47.1698 150.249 45.7998V40.8398H149.199V46.1598C149.199 48.0098 150.349 49.4298 152.279 49.4298C154.209 49.4298 155.359 48.0198 155.359 46.1598Z" fill="#003477"/>
<path d="M164.168 40.8399H163.128V47.0499L156.818 40.4399V49.2399H157.858V42.9799L164.168 49.5899V40.8399Z" fill="#003477"/>
<path d="M166.788 40.8398H165.738V49.2398H166.788V40.8398Z" fill="#003477"/>
<path d="M174.9 40.8398H173.75L171.25 47.0598L168.74 40.8398H167.59L171.25 49.6898L174.9 40.8398Z" fill="#003477"/>
<path d="M180.229 48.2798H176.769V45.1098H180.129V44.1498H176.769V41.7998H180.229V40.8398H175.719V49.2398H180.229V48.2798Z" fill="#003477"/>
<path d="M182.688 45.6901H183.128L185.598 49.2401H186.868L184.218 45.5801C185.428 45.4401 186.238 44.4301 186.238 43.2301C186.238 42.4301 185.838 41.6401 185.138 41.2201C184.468 40.8401 183.668 40.8301 182.918 40.8301H181.648V49.2301H182.698V45.6801L182.688 45.6901ZM182.688 41.7801H182.968C184.008 41.7801 185.248 41.9701 185.248 43.2801C185.248 44.5901 184.088 44.8201 183.018 44.8201H182.678V41.7801H182.688Z" fill="#003477"/>
<path d="M190.049 48.4399C189.139 48.4399 188.409 47.7699 188.419 46.8499L187.359 47.0699C187.539 48.4199 188.599 49.4199 189.959 49.4199C191.469 49.4199 192.639 48.3299 192.639 46.7999C192.639 45.3999 191.749 44.7399 190.559 44.2699L189.959 44.0399C189.439 43.8399 188.789 43.4899 188.789 42.8399C188.789 42.1099 189.519 41.6499 190.199 41.6499C190.839 41.6499 191.239 41.9199 191.549 42.4399L192.389 41.9399C191.929 41.1299 191.159 40.6699 190.229 40.6699C188.959 40.6699 187.759 41.4799 187.759 42.8399C187.759 44.0099 188.629 44.5599 189.589 44.9699L190.169 45.2099C190.889 45.5099 191.619 45.8999 191.619 46.7999C191.619 47.6999 190.969 48.4399 190.069 48.4399H190.049Z" fill="#003477"/>
<path d="M194.919 40.8398H193.869V49.2398H194.919V40.8398Z" fill="#003477"/>
<path d="M198.858 49.2398V41.7998H200.858V40.8398H195.818V41.7998H197.808V49.2398H198.858Z" fill="#003477"/>
<path d="M203.66 49.2398H204.71V45.5898L207.46 40.8398H206.25L204.19 44.4298L202.13 40.8398H200.92L203.66 45.5898V49.2398Z" fill="#003477"/>
<path d="M215.439 40.6602C213.029 40.6602 211.039 42.6302 211.039 45.0402C211.039 47.4502 213.009 49.4202 215.439 49.4202C217.869 49.4202 219.839 47.5402 219.839 45.0402C219.839 42.5402 217.849 40.6602 215.439 40.6602ZM215.439 48.4402C213.619 48.4402 212.089 46.9502 212.089 45.0402C212.089 43.1302 213.469 41.6402 215.439 41.6402C217.409 41.6402 218.799 43.1902 218.799 45.0402C218.799 46.8902 217.259 48.4402 215.439 48.4402Z" fill="#003477"/>
<path d="M225.019 41.7998V40.8398H220.949V49.2398H221.999V45.1198H224.919V44.1598H221.999V41.7998H225.019Z" fill="#003477"/>
<path d="M67.5396 57.64L66.9396 57.41C66.4196 57.21 65.7696 56.86 65.7696 56.21C65.7696 55.48 66.4996 55.02 67.1696 55.02C67.8096 55.02 68.2096 55.29 68.5196 55.81L69.3596 55.31C68.8996 54.5 68.1296 54.04 67.1996 54.04C65.9296 54.04 64.7296 54.85 64.7296 56.21C64.7296 57.38 65.5996 57.93 66.5596 58.34L67.1396 58.58C67.8596 58.88 68.5896 59.27 68.5896 60.18C68.5896 61.09 67.9396 61.82 67.0396 61.82C66.1396 61.82 65.3996 61.15 65.4096 60.23L64.3496 60.45C64.5296 61.8 65.5896 62.8 66.9496 62.8C68.4496 62.8 69.6296 61.71 69.6296 60.18C69.6296 58.78 68.7396 58.12 67.5496 57.65L67.5396 57.64Z" fill="#003477"/>
<path d="M70.4199 58.4598C70.4199 60.8898 72.3999 62.7998 74.7999 62.7998C75.5399 62.7998 76.3599 62.5898 77.0099 62.2098V60.9698C76.3899 61.5298 75.5899 61.8398 74.7699 61.8398C72.8999 61.8398 71.4699 60.2698 71.4699 58.4298C71.4699 56.5898 72.9099 54.9998 74.7899 54.9998C75.5799 54.9998 76.4099 55.2898 77.0099 55.8198V54.5998C76.3699 54.2098 75.6299 54.0298 74.8899 54.0298C72.4199 54.0298 70.4199 55.9698 70.4199 58.4498V58.4598Z" fill="#003477"/>
<path d="M79.3801 54.21H78.3301V62.61H79.3801V54.21Z" fill="#003477"/>
<path d="M81.0586 62.62H85.5786V61.66H82.1086V58.48H85.4786V57.52H82.1086V55.17H85.5786V54.21H81.0586V62.62Z" fill="#003477"/>
<path d="M93.1889 60.4201L86.8789 53.8101V62.6101H87.9289V56.3501L94.2389 62.9601V54.2101H93.1889V60.4201Z" fill="#003477"/>
<path d="M95.3691 58.4598C95.3691 60.8898 97.3491 62.7998 99.7491 62.7998C100.489 62.7998 101.309 62.5898 101.959 62.2098V60.9698C101.339 61.5298 100.539 61.8398 99.7191 61.8398C97.8491 61.8398 96.4192 60.2698 96.4192 58.4298C96.4192 56.5898 97.8591 54.9998 99.7391 54.9998C100.529 54.9998 101.359 55.2898 101.959 55.8198V54.5998C101.319 54.2098 100.579 54.0298 99.8391 54.0298C97.3691 54.0298 95.3691 55.9698 95.3691 58.4498V58.4598Z" fill="#003477"/>
<path d="M103.318 62.62H107.838V61.66H104.368V58.48H107.738V57.52H104.368V55.17H107.838V54.21H103.318V62.62Z" fill="#003477"/>
<path d="M111.68 62.6101H112.8L113.76 60.5001H117.62L118.58 62.6101H119.71L115.7 53.8501L111.69 62.6101H111.68ZM114.2 59.5501L115.69 56.1501L117.18 59.5501H114.19H114.2Z" fill="#003477"/>
<path d="M126.73 60.4201L120.42 53.8101V62.6101H121.47V56.3501L127.78 62.9601V54.2101H126.73V60.4201Z" fill="#003477"/>
<path d="M131.029 54.21H129.289V62.61H130.999C133.649 62.61 135.749 61.23 135.749 58.37C135.749 55.51 133.609 54.21 131.039 54.21H131.029ZM130.709 61.66H130.339V55.17H130.709C132.849 55.17 134.699 55.96 134.699 58.41C134.699 60.86 132.849 61.65 130.709 61.65V61.66Z" fill="#003477"/>
<path d="M139.459 55.17H141.459V62.61H142.499V55.17H144.499V54.21H139.459V55.17Z" fill="#003477"/>
<path d="M145.439 62.62H149.949V61.66H146.479V58.48H149.849V57.52H146.479V55.17H149.949V54.21H145.439V62.62Z" fill="#003477"/>
<path d="M150.879 58.4598C150.879 60.8898 152.869 62.7998 155.259 62.7998C155.999 62.7998 156.819 62.5898 157.469 62.2098V60.9698C156.849 61.5298 156.049 61.8398 155.229 61.8398C153.359 61.8398 151.929 60.2698 151.929 58.4298C151.929 56.5898 153.369 54.9998 155.249 54.9998C156.039 54.9998 156.859 55.2898 157.469 55.8198V54.5998C156.829 54.2098 156.089 54.0298 155.349 54.0298C152.869 54.0298 150.879 55.9698 150.879 58.4498V58.4598Z" fill="#003477"/>
<path d="M163.79 57.6H159.79V54.21H158.75V62.61H159.79V58.58H163.79V62.61H164.84V54.21H163.79V57.6Z" fill="#003477"/>
<path d="M172.679 60.4201L166.369 53.8101V62.6101H167.419V56.3501L173.729 62.9601V54.2101H172.679V60.4201Z" fill="#003477"/>
<path d="M179.138 54.0298C176.728 54.0298 174.738 55.9998 174.738 58.4098C174.738 60.8198 176.708 62.7898 179.138 62.7898C181.568 62.7898 183.548 60.9098 183.548 58.4098C183.548 55.9098 181.548 54.0298 179.138 54.0298ZM179.138 61.8098C177.318 61.8098 175.788 60.3198 175.788 58.4098C175.788 56.4998 177.168 55.0098 179.138 55.0098C181.108 55.0098 182.498 56.5598 182.498 58.4098C182.498 60.2598 180.958 61.8098 179.138 61.8098Z" fill="#003477"/>
<path d="M185.72 54.21H184.67V62.62H188.27V61.66H185.72V54.21Z" fill="#003477"/>
<path d="M192.888 54.0298C190.478 54.0298 188.488 55.9998 188.488 58.4098C188.488 60.8198 190.458 62.7898 192.888 62.7898C195.318 62.7898 197.288 60.9098 197.288 58.4098C197.288 55.9098 195.298 54.0298 192.888 54.0298ZM192.888 61.8098C191.068 61.8098 189.538 60.3198 189.538 58.4098C189.538 56.4998 190.918 55.0098 192.888 55.0098C194.858 55.0098 196.238 56.5598 196.238 58.4098C196.238 60.2598 194.698 61.8098 192.888 61.8098Z" fill="#003477"/>
<path d="M202.74 59.34H204.91C204.86 60.71 203.46 61.84 202.16 61.84C200.34 61.84 198.89 60.17 198.89 58.41C198.89 56.53 200.36 55 202.25 55C203.27 55 204.29 55.54 204.89 56.37L205.63 55.67C204.8 54.63 203.51 54.04 202.21 54.04C199.79 54.04 197.85 56.02 197.85 58.44C197.85 60.86 199.75 62.8 202.1 62.8C204.45 62.8 206.08 61.03 206.08 58.72V58.38H202.75V59.34H202.74Z" fill="#003477"/>
<path d="M209.62 57.8L207.56 54.21H206.35L209.09 58.96V62.62H210.14V58.96L212.88 54.21H211.68L209.62 57.8Z" fill="#003477"/>
<path d="M143.479 7.2802C143.639 7.0702 143.709 6.7002 143.709 6.7002H133.629C133.629 6.7002 133.749 7.1102 133.859 7.2802H143.479V7.2802Z" fill="#AA8420"/>
<path d="M142.889 8.14014C143.079 7.97014 143.269 7.64014 143.269 7.64014H134.039C134.039 7.64014 134.139 7.89014 134.369 8.14014H142.879H142.889Z" fill="#AA8420"/>
<path d="M142.169 8.90979C142.399 8.78979 142.589 8.52979 142.589 8.52979H134.699C134.699 8.52979 134.889 8.73979 135.079 8.90979H142.179H142.169Z" fill="#AA8420"/>
<path d="M141.248 9.6401C141.478 9.5501 141.728 9.3501 141.728 9.3501H135.568C135.568 9.3501 135.568 9.4001 136.008 9.6401H141.248Z" fill="#AA8420"/>
<path d="M136.719 10.1001C136.719 10.1001 137.369 10.4801 138.639 10.4801C139.909 10.4801 140.729 10.1001 140.729 10.1001H136.719Z" fill="#AA8420"/>
<path d="M136.609 10.96C136.609 10.96 137.389 11 137.839 11.36C138.279 11.74 138.619 12.36 138.619 12.36C138.619 12.36 138.889 11.76 139.329 11.44C139.769 11.1 140.479 10.96 140.479 10.96H148.429L149.999 13.28H142.859C142.859 13.28 142.359 13.3 141.609 13.74C141.209 13.97 140.919 14.36 140.919 14.36C140.919 14.36 140.859 14.55 140.779 14.65C140.699 14.76 140.629 14.84 140.529 14.88C140.419 14.92 140.439 14.9 140.439 14.9H136.719C136.719 14.9 136.569 14.84 136.489 14.71C136.409 14.59 136.469 14.63 136.389 14.53C136.329 14.43 136.179 14.15 135.619 13.78C135.039 13.4 134.469 13.36 134.469 13.36H127.209L128.789 10.96H136.619H136.609Z" fill="#003477"/>
<path d="M130.998 14.23V26.09C130.998 26.09 131.038 27.14 131.918 28.55C132.798 29.97 134.068 30.62 134.068 30.62L135.068 29.06C135.068 29.06 134.188 28.54 133.518 27.53C132.868 26.53 132.868 25.67 132.868 25.67V14.23H130.988H130.998Z" fill="#003477"/>
<path d="M144.439 14.1899V25.6299C144.439 25.6299 144.289 26.7799 143.749 27.5899C143.209 28.4299 142.309 29.0899 142.309 29.0899L143.269 30.6299C143.269 30.6299 144.729 29.5699 145.439 28.4399C146.149 27.3199 146.319 25.6199 146.319 25.6199V14.1899H144.439Z" fill="#003477"/>
<path d="M128.01 14.23V26.13C128.01 26.13 128.13 27.97 129.28 29.89C130.43 31.81 132.51 33.15 132.51 33.15L133.49 31.58C133.49 31.58 132.15 30.87 131.09 29.24C130 27.59 129.94 26.09 129.94 26.09V14.23H128H128.01Z" fill="#003477"/>
<path d="M136.609 15.48V28.04C136.609 28.04 136.569 28.08 136.549 28.27C136.529 28.46 136.399 28.58 136.399 28.58L132.209 35.53H145.059L140.869 28.43L140.749 28.12L140.709 27.79V15.51H139.139V28.26C139.139 28.26 139.139 28.44 139.199 28.59C139.239 28.74 139.319 28.96 139.319 28.96L141.909 33.22H135.359L137.899 28.98C137.899 28.98 137.979 28.83 138.049 28.63C138.089 28.44 138.109 28.25 138.109 28.25V15.48H136.609Z" fill="#AA8420"/>
<path d="M147.34 14.1899V25.8799C147.34 25.8799 147.32 27.3799 146.22 29.1199C145.11 30.8499 143.84 31.5799 143.84 31.5799L144.78 33.1599C144.78 33.1599 146.7 31.9499 147.91 30.0299C149.1 28.1099 149.25 25.8799 149.25 25.8799V14.1899H147.35H147.34Z" fill="#003477"/>
<path d="M133.559 6.36C133.559 6.36 132.919 2.83 135.499 1.08C135.499 1.08 136.669 0 138.569 0C140.589 0 141.759 1.06 141.759 1.06C144.579 3.12 143.739 6.36 143.739 6.36H133.559V6.36Z" fill="#AA8420"/>
<path d="M0.62915 26.46H3.18915C3.84915 26.46 4.35916 26.62 4.72916 26.94C5.09916 27.26 5.27914 27.7 5.27914 28.25C5.27914 28.8 5.08915 29.25 4.71915 29.57C4.34915 29.89 3.82914 30.05 3.17914 30.05H1.35913V32.87H0.619141V26.46H0.62915ZM3.11914 29.44C3.58914 29.44 3.94915 29.34 4.18915 29.13C4.42915 28.93 4.54913 28.63 4.54913 28.25C4.54913 27.87 4.42915 27.57 4.18915 27.37C3.94915 27.17 3.58914 27.07 3.11914 27.07H1.35913V29.44H3.11914V29.44Z" fill="#231815"/>
<path d="M11.52 32.86H10.74L9.95001 30.73C9.85001 30.47 9.71999 30.29 9.54999 30.2C9.37999 30.11 9.13999 30.07 8.82999 30.07H7.23001V32.87H6.5V26.46H9.04999C9.73999 26.46 10.27 26.61 10.64 26.92C11.01 27.23 11.19 27.67 11.19 28.24C11.19 28.66 11.08 29.01 10.86 29.3C10.64 29.59 10.32 29.79 9.91 29.91C10.1 29.94 10.25 30.02 10.39 30.15C10.52 30.28 10.63 30.46 10.72 30.7L11.53 32.87L11.52 32.86ZM8.97 29.45C9.95 29.45 10.45 29.05 10.45 28.24C10.45 27.84 10.33 27.55 10.09 27.35C9.85 27.16 9.48 27.06 8.97 27.06H7.22V29.44H8.97V29.45Z" fill="#231815"/>
<path d="M12.7188 26.46H13.4587V32.87H12.7188V26.46V26.46Z" fill="#231815"/>
<path d="M20.179 26.46V32.87H19.5991L15.7291 27.71V32.87H15.0391V26.46H15.609L19.4791 31.62V26.46H20.179V26.46Z" fill="#231815"/>
<path d="M23.3101 27.09H21.0801V26.46H26.2901V27.09H24.0601V32.87H23.3101V27.09V27.09Z" fill="#231815"/>
<path d="M26.6094 32.1299L26.8894 31.5599C27.2094 31.8299 27.5294 32.0199 27.8594 32.1399C28.1894 32.2499 28.5694 32.3099 29.0094 32.3099C29.5294 32.3099 29.9194 32.2099 30.1994 32.0099C30.4794 31.8099 30.6194 31.5299 30.6194 31.1599C30.6194 30.9399 30.5494 30.7699 30.4194 30.6299C30.2794 30.4999 30.1094 30.3899 29.8894 30.3099C29.6694 30.2299 29.3794 30.1499 29.0094 30.0699C28.5194 29.9599 28.1094 29.8399 27.7994 29.7199C27.4794 29.5899 27.2194 29.4099 27.0294 29.1799C26.8294 28.9399 26.7294 28.6299 26.7294 28.2499C26.7294 27.8699 26.8294 27.5599 27.0194 27.2799C27.2094 26.9999 27.4794 26.7799 27.8294 26.6299C28.1794 26.4799 28.5894 26.3999 29.0594 26.3999C29.5294 26.3999 29.9194 26.4699 30.2994 26.6099C30.6794 26.7499 31.0094 26.9499 31.2694 27.2099L30.9794 27.7799C30.6794 27.5199 30.3794 27.3299 30.0694 27.2099C29.7594 27.0899 29.4194 27.0299 29.0594 27.0299C28.5594 27.0299 28.1694 27.1399 27.8894 27.3499C27.6094 27.5599 27.4694 27.8499 27.4694 28.2299C27.4694 28.5499 27.5894 28.7999 27.8394 28.9599C28.0894 29.1199 28.4594 29.2599 28.9694 29.3799C29.5194 29.5099 29.9594 29.6299 30.2694 29.7399C30.5794 29.8499 30.8494 30.0199 31.0594 30.2399C31.2694 30.4699 31.3694 30.7599 31.3694 31.1399C31.3694 31.5199 31.2694 31.8199 31.0794 32.0899C30.8894 32.3599 30.6094 32.5699 30.2594 32.7199C29.8994 32.8699 29.4794 32.9499 28.9994 32.9499C27.9994 32.9499 27.1994 32.6799 26.6094 32.1399V32.1299Z" fill="#231815"/>
<path d="M4.84891 44.1702V44.8602H0.878906V44.1702H2.44891V38.7602L0.988892 39.6902V38.9002L2.8089 37.7402H3.2789V44.1702H4.84891V44.1702Z" fill="#AA8420"/>
<path d="M10.0692 40.6802C10.4092 40.8702 10.6591 41.1302 10.8391 41.4702C11.0191 41.8102 11.1091 42.2002 11.1091 42.6502C11.1091 43.1002 11.0092 43.4902 10.8192 43.8402C10.6192 44.1902 10.3392 44.4502 9.97916 44.6402C9.61916 44.8302 9.18914 44.9302 8.70914 44.9302C8.27914 44.9302 7.84914 44.8502 7.42914 44.6902C7.00914 44.5302 6.65914 44.3202 6.36914 44.0502L6.67914 43.4202C7.33914 43.9702 8.01914 44.2402 8.70914 44.2402C9.20914 44.2402 9.59916 44.1002 9.88916 43.8202C10.1692 43.5402 10.3091 43.1502 10.3091 42.6602C10.3091 42.1702 10.1692 41.8102 9.88916 41.5202C9.60916 41.2302 9.23913 41.0802 8.76913 41.0802C8.08913 41.0802 7.54916 41.3602 7.13916 41.9102H6.56915V37.7402H10.8391V38.4202H7.38916V40.9602C7.77916 40.5802 8.28914 40.3902 8.89914 40.3902C9.34914 40.3902 9.73913 40.4802 10.0791 40.6802H10.0692Z" fill="#AA8420"/>
<path d="M22.2285 41.7005V44.8605H21.4185V41.7405C21.4185 41.2705 21.3385 40.9204 21.1685 40.7104C21.0085 40.5004 20.7384 40.3904 20.3784 40.3904C19.9484 40.3904 19.6184 40.5304 19.3784 40.8204C19.1384 41.1104 19.0184 41.5005 19.0184 41.9905V44.8605H18.2084V41.7405C18.2084 41.2705 18.1284 40.9305 17.9584 40.7205C17.7884 40.5005 17.5284 40.3904 17.1584 40.3904C16.7284 40.3904 16.3984 40.5304 16.1584 40.8204C15.9184 41.1104 15.7885 41.5005 15.7885 41.9905V44.8605H14.9785V41.2405C14.9785 40.7205 14.9484 40.2505 14.8984 39.8305H15.6685L15.7484 40.7104C15.8884 40.3904 16.0984 40.1405 16.3684 39.9705C16.6484 39.8005 16.9684 39.7104 17.3384 39.7104C17.7384 39.7104 18.0685 39.7905 18.3185 39.9505C18.5685 40.1105 18.7584 40.3604 18.8784 40.6904C19.0284 40.3904 19.2584 40.1504 19.5484 39.9804C19.8484 39.8004 20.1784 39.7104 20.5484 39.7104C21.6584 39.7104 22.2184 40.3705 22.2184 41.7005H22.2285Z" fill="#AA8420"/>
<path d="M31.0194 41.7005V44.8605H30.2094V41.7405C30.2094 41.2705 30.1294 40.9204 29.9594 40.7104C29.7994 40.5004 29.5295 40.3904 29.1695 40.3904C28.7395 40.3904 28.4095 40.5304 28.1695 40.8204C27.9295 41.1104 27.8094 41.5005 27.8094 41.9905V44.8605H26.9995V41.7405C26.9995 41.2705 26.9195 40.9305 26.7495 40.7205C26.5795 40.5005 26.3195 40.3904 25.9495 40.3904C25.5195 40.3904 25.1895 40.5304 24.9495 40.8204C24.7095 41.1104 24.5794 41.5005 24.5794 41.9905V44.8605H23.7694V41.2405C23.7694 40.7205 23.7395 40.2505 23.6895 39.8305H24.4594L24.5395 40.7104C24.6795 40.3904 24.8895 40.1405 25.1595 39.9705C25.4395 39.8005 25.7595 39.7104 26.1295 39.7104C26.5295 39.7104 26.8594 39.7905 27.1094 39.9505C27.3594 40.1105 27.5495 40.3604 27.6695 40.6904C27.8195 40.3904 28.0494 40.1504 28.3394 39.9804C28.6394 39.8004 28.9694 39.7104 29.3394 39.7104C30.4494 39.7104 31.0095 40.3705 31.0095 41.7005H31.0194Z" fill="#AA8420"/>
<path d="M247.509 32.5399C247.069 32.2799 246.729 31.8999 246.499 31.3999C246.259 30.9099 246.139 30.3199 246.139 29.6599C246.139 28.9999 246.259 28.4099 246.489 27.9099C246.719 27.4099 247.059 27.0399 247.499 26.7799C247.939 26.5199 248.459 26.3799 249.059 26.3799C249.659 26.3799 250.179 26.5099 250.619 26.7799C251.059 27.0399 251.389 27.4199 251.629 27.9099C251.859 28.3999 251.979 28.9799 251.979 29.6499C251.979 30.3199 251.859 30.8999 251.619 31.3999C251.379 31.8899 251.039 32.2699 250.609 32.5399C250.169 32.8099 249.659 32.9399 249.059 32.9399C248.459 32.9399 247.949 32.8099 247.509 32.5399ZM250.639 31.6099C251.019 31.1499 251.209 30.4899 251.209 29.6499C251.209 28.8099 251.019 28.1499 250.649 27.6999C250.279 27.2499 249.749 27.0199 249.059 27.0199C248.369 27.0199 247.839 27.2499 247.469 27.7099C247.099 28.1699 246.899 28.8199 246.899 29.6599C246.899 30.4999 247.089 31.1599 247.469 31.6199C247.849 32.0799 248.379 32.3099 249.059 32.3099C249.739 32.3099 250.269 32.0799 250.639 31.6199V31.6099Z" fill="#231815"/>
<path d="M258.458 26.46V32.87H257.878L254.008 27.71V32.87H253.318V26.46H253.888L257.758 31.62V26.46H258.458V26.46Z" fill="#231815"/>
<path d="M260.039 26.46H260.779V32.24H263.989V32.87H260.039V26.46V26.46Z" fill="#231815"/>
<path d="M264.939 26.46H265.679V32.87H264.939V26.46V26.46Z" fill="#231815"/>
<path d="M272.409 26.46V32.87H271.83L267.96 27.71V32.87H267.27V26.46H267.84L271.71 31.62V26.46H272.409V26.46Z" fill="#231815"/>
<path d="M273.979 26.4597H278.029V27.0697H274.709V29.2997H277.849V29.9197H274.709V32.2497H278.029V32.8597H273.979V26.4497V26.4597Z" fill="#231815"/>
<path d="M250.938 37.7402V38.3502L247.598 44.8602H246.718L250.038 38.4302H246.238V37.7402H250.938V37.7402Z" fill="#AA8420"/>
<path d="M256.057 40.6802C256.397 40.8702 256.647 41.1302 256.827 41.4702C257.007 41.8102 257.097 42.2002 257.097 42.6502C257.097 43.1002 256.997 43.4902 256.807 43.8402C256.607 44.1902 256.327 44.4502 255.967 44.6402C255.607 44.8302 255.177 44.9302 254.697 44.9302C254.267 44.9302 253.837 44.8502 253.417 44.6902C252.997 44.5302 252.647 44.3202 252.357 44.0502L252.667 43.4202C253.327 43.9702 254.007 44.2402 254.697 44.2402C255.197 44.2402 255.587 44.1002 255.867 43.8202C256.147 43.5402 256.287 43.1502 256.287 42.6602C256.287 42.1702 256.147 41.8102 255.867 41.5202C255.587 41.2302 255.217 41.0802 254.747 41.0802C254.067 41.0802 253.527 41.3602 253.117 41.9102H252.547V37.7402H256.817V38.4202H253.367V40.9602C253.757 40.5802 254.267 40.3902 254.877 40.3902C255.327 40.3902 255.717 40.4802 256.057 40.6802V40.6802Z" fill="#AA8420"/>
<path d="M264.658 40.0405C264.998 40.2605 265.258 40.5705 265.448 40.9705C265.638 41.3705 265.728 41.8204 265.728 42.3504C265.728 42.8804 265.638 43.3204 265.448 43.7104C265.258 44.1004 264.998 44.4004 264.658 44.6204C264.318 44.8304 263.928 44.9404 263.488 44.9404C263.098 44.9404 262.748 44.8505 262.458 44.6805C262.168 44.5105 261.938 44.2604 261.788 43.9404V47.0304H260.978V41.2505C260.978 40.7305 260.948 40.2605 260.898 39.8405H261.668L261.748 40.8105C261.888 40.4605 262.108 40.1905 262.418 40.0005C262.718 39.8105 263.078 39.7104 263.498 39.7104C263.938 39.7104 264.328 39.8205 264.668 40.0405H264.658ZM264.488 43.7604C264.758 43.4304 264.898 42.9505 264.898 42.3405C264.898 41.7305 264.758 41.2505 264.488 40.9005C264.218 40.5605 263.838 40.3904 263.348 40.3904C262.858 40.3904 262.468 40.5604 262.198 40.8904C261.928 41.2204 261.798 41.7004 261.798 42.3204C261.798 42.9404 261.928 43.4205 262.198 43.7505C262.468 44.0905 262.848 44.2604 263.348 44.2604C263.848 44.2604 264.228 44.0904 264.498 43.7604H264.488Z" fill="#AA8420"/>
<path d="M271.339 44.8601H270.369L268.779 42.8801L267.209 44.8601H266.219L268.309 42.2701L266.339 39.8301H267.319L268.779 41.6801L270.239 39.8301H271.229L269.269 42.2701L271.339 44.8601Z" fill="#AA8420"/>
</svg>
