<svg width="244" height="76" viewBox="0 0 244 76" fill="none" xmlns="http://www.w3.org/2000/svg">
<path d="M44.0995 75.0899H36.7695V0.419922H44.0995V0.669922H37.0195V74.8399H44.0995V75.0899Z" fill="#231815"/>
<path d="M205.949 75.0899H198.619V74.8399H205.699V0.669922H198.619V0.419922H205.949V75.0899Z" fill="#231815"/>
<path d="M205.949 75.0899H198.619V74.8399H205.699V0.669922H198.619V0.419922H205.949V75.0899Z" fill="#231815"/>
<path d="M0.699463 28.5298H3.25946C3.91946 28.5298 4.42944 28.6898 4.79944 29.0098C5.16944 29.3298 5.34946 29.7698 5.34946 30.3198C5.34946 30.8698 5.15946 31.3198 4.78946 31.6398C4.41946 31.9598 3.89945 32.1198 3.24945 32.1198H1.42944V34.9398H0.689453V28.5298H0.699463ZM3.18945 31.5098C3.65945 31.5098 4.01946 31.4098 4.25946 31.1998C4.49946 30.9998 4.61945 30.6998 4.61945 30.3198C4.61945 29.9398 4.49946 29.6398 4.25946 29.4398C4.01946 29.2398 3.65945 29.1398 3.18945 29.1398H1.42944V31.5098H3.18945Z" fill="#231815"/>
<path d="M11.5903 34.9396H10.8103L10.0203 32.8096C9.92029 32.5496 9.7903 32.3696 9.6203 32.2796C9.4503 32.1896 9.2103 32.1496 8.9003 32.1496H7.30029V34.9496H6.57031V28.5396H9.1203C9.8103 28.5396 10.3403 28.6896 10.7103 28.9996C11.0803 29.3096 11.2603 29.7496 11.2603 30.3196C11.2603 30.7396 11.1503 31.0896 10.9303 31.3796C10.7103 31.6696 10.3903 31.8696 9.98032 31.9896C10.1703 32.0196 10.3203 32.0996 10.4603 32.2296C10.5903 32.3596 10.7003 32.5396 10.7903 32.7796L11.6003 34.9496L11.5903 34.9396ZM9.04031 31.5296C10.0203 31.5296 10.5203 31.1296 10.5203 30.3196C10.5203 29.9196 10.4003 29.6296 10.1603 29.4296C9.92031 29.2396 9.55031 29.1396 9.04031 29.1396H7.29031V31.5196H9.04031V31.5296Z" fill="#231815"/>
<path d="M12.7891 28.5298H13.5291V34.9398H12.7891V28.5298Z" fill="#231815"/>
<path d="M20.2494 28.5298V34.9398H19.6694L15.7994 29.7798V34.9398H15.1094V28.5298H15.6794L19.5494 33.6898V28.5298H20.2494Z" fill="#231815"/>
<path d="M23.3804 29.1598H21.1504V28.5298H26.3604V29.1598H24.1304V34.9398H23.3804V29.1598V29.1598Z" fill="#231815"/>
<path d="M26.6797 34.1997L26.9597 33.6297C27.2797 33.8997 27.5997 34.0897 27.9297 34.2097C28.2597 34.3197 28.6397 34.3797 29.0797 34.3797C29.5997 34.3797 29.9897 34.2797 30.2697 34.0797C30.5497 33.8797 30.6897 33.5997 30.6897 33.2297C30.6897 33.0097 30.6197 32.8397 30.4897 32.6997C30.3497 32.5697 30.1797 32.4597 29.9597 32.3797C29.7397 32.2997 29.4497 32.2197 29.0797 32.1397C28.5897 32.0297 28.1797 31.9097 27.8697 31.7897C27.5497 31.6597 27.2897 31.4797 27.0997 31.2497C26.8997 31.0097 26.7997 30.6997 26.7997 30.3197C26.7997 29.9397 26.8997 29.6297 27.0897 29.3497C27.2797 29.0697 27.5497 28.8497 27.8997 28.6997C28.2497 28.5497 28.6597 28.4697 29.1297 28.4697C29.5997 28.4697 29.9897 28.5397 30.3697 28.6797C30.7497 28.8197 31.0797 29.0197 31.3397 29.2797L31.0497 29.8497C30.7497 29.5897 30.4497 29.3997 30.1397 29.2797C29.8297 29.1597 29.4897 29.0997 29.1297 29.0997C28.6297 29.0997 28.2397 29.2097 27.9597 29.4197C27.6797 29.6297 27.5397 29.9197 27.5397 30.2997C27.5397 30.6197 27.6597 30.8697 27.9097 31.0297C28.1597 31.1897 28.5297 31.3297 29.0397 31.4497C29.5897 31.5797 30.0297 31.6997 30.3397 31.8097C30.6497 31.9197 30.9197 32.0897 31.1297 32.3097C31.3397 32.5397 31.4397 32.8297 31.4397 33.2097C31.4397 33.5897 31.3397 33.8897 31.1497 34.1597C30.9597 34.4297 30.6797 34.6397 30.3297 34.7897C29.9697 34.9397 29.5497 35.0197 29.0697 35.0197C28.0697 35.0197 27.2697 34.7497 26.6797 34.2097V34.1997Z" fill="#231815"/>
<path d="M4.91922 46.2498V46.9398H0.949219V46.2498H2.5192V40.8398L1.0592 41.7698V40.9798L2.87921 39.8198H3.34921V46.2498H4.91922V46.2498Z" fill="#AA8420"/>
<path d="M10.8294 43.9297C11.0894 44.2397 11.2094 44.6097 11.2094 45.0497C11.2094 45.6597 10.9794 46.1297 10.5194 46.4797C10.0594 46.8297 9.43939 47.0097 8.65939 47.0097C7.87939 47.0097 7.25938 46.8297 6.79938 46.4797C6.33938 46.1297 6.10938 45.6497 6.10938 45.0497C6.10938 44.6197 6.2394 44.2397 6.5094 43.9297C6.7694 43.6197 7.12939 43.3997 7.58939 43.2797C7.15939 43.1497 6.83938 42.9497 6.60938 42.6597C6.37937 42.3697 6.26938 42.0297 6.26938 41.6397C6.26938 41.2497 6.3694 40.9297 6.5694 40.6397C6.7694 40.3597 7.04939 40.1397 7.40939 39.9797C7.76939 39.8197 8.18939 39.7397 8.65939 39.7397C9.12939 39.7397 9.53939 39.8197 9.90939 39.9797C10.2694 40.1397 10.5594 40.3597 10.7494 40.6397C10.9494 40.9197 11.0494 41.2497 11.0494 41.6397C11.0494 42.0297 10.9294 42.3697 10.6994 42.6597C10.4694 42.9497 10.1494 43.1597 9.73938 43.2797C10.2094 43.4097 10.5694 43.6197 10.8194 43.9397L10.8294 43.9297ZM9.9494 45.9797C10.2494 45.7497 10.3994 45.4197 10.3994 44.9897C10.3994 44.5997 10.2394 44.2797 9.9194 44.0497C9.5994 43.8097 9.17938 43.6697 8.64938 43.6097C8.11938 43.6597 7.69939 43.8097 7.37939 44.0497C7.05939 44.2897 6.89938 44.5997 6.89938 44.9897C6.89938 45.4197 7.0494 45.7497 7.3494 45.9797C7.6494 46.2097 8.0794 46.3197 8.6394 46.3197C9.1994 46.3197 9.62938 46.2097 9.92938 45.9797H9.9494ZM7.5094 42.5997C7.7894 42.8397 8.17939 42.9797 8.65939 43.0397C9.13939 42.9897 9.51939 42.8397 9.80939 42.5997C10.0894 42.3597 10.2294 42.0597 10.2294 41.6797C10.2294 41.2997 10.0894 40.9797 9.80939 40.7497C9.52939 40.5197 9.14939 40.4097 8.65939 40.4097C8.16939 40.4097 7.7794 40.5197 7.5094 40.7497C7.2294 40.9797 7.08939 41.2897 7.08939 41.6797C7.08939 42.0697 7.2294 42.3697 7.5094 42.5997Z" fill="#AA8420"/>
<path d="M22.3085 43.7796V46.9396H21.4985V43.8196C21.4985 43.3496 21.4185 42.9996 21.2485 42.7896C21.0885 42.5796 20.8185 42.4696 20.4585 42.4696C20.0285 42.4696 19.6985 42.6096 19.4585 42.8996C19.2185 43.1896 19.0985 43.5796 19.0985 44.0696V46.9396H18.2885V43.8196C18.2885 43.3496 18.2085 43.0096 18.0385 42.7996C17.8685 42.5796 17.6085 42.4696 17.2385 42.4696C16.8085 42.4696 16.4785 42.6096 16.2385 42.8996C15.9985 43.1896 15.8685 43.5796 15.8685 44.0696V46.9396H15.0585V43.3196C15.0585 42.7996 15.0285 42.3296 14.9785 41.9096H15.7485L15.8285 42.7896C15.9685 42.4696 16.1785 42.2196 16.4485 42.0496C16.7285 41.8796 17.0485 41.7896 17.4185 41.7896C17.8185 41.7896 18.1485 41.8696 18.3985 42.0296C18.6485 42.1896 18.8385 42.4396 18.9585 42.7696C19.1085 42.4696 19.3385 42.2296 19.6285 42.0596C19.9285 41.8796 20.2585 41.7896 20.6285 41.7896C21.7385 41.7896 22.2985 42.4496 22.2985 43.7796H22.3085Z" fill="#AA8420"/>
<path d="M31.0898 43.7796V46.9396H30.2798V43.8196C30.2798 43.3496 30.1998 42.9996 30.0298 42.7896C29.8698 42.5796 29.5997 42.4696 29.2397 42.4696C28.8097 42.4696 28.4797 42.6096 28.2397 42.8996C27.9997 43.1896 27.8798 43.5796 27.8798 44.0696V46.9396H27.0698V43.8196C27.0698 43.3496 26.9898 43.0096 26.8198 42.7996C26.6498 42.5796 26.3897 42.4696 26.0197 42.4696C25.5897 42.4696 25.2597 42.6096 25.0197 42.8996C24.7797 43.1896 24.6497 43.5796 24.6497 44.0696V46.9396H23.8398V43.3196C23.8398 42.7996 23.8098 42.3296 23.7598 41.9096H24.5298L24.6097 42.7896C24.7497 42.4696 24.9598 42.2196 25.2298 42.0496C25.5098 41.8796 25.8298 41.7896 26.1998 41.7896C26.5998 41.7896 26.9297 41.8696 27.1797 42.0296C27.4297 42.1896 27.6197 42.4396 27.7397 42.7696C27.8897 42.4696 28.1198 42.2296 28.4098 42.0596C28.7098 41.8796 29.0398 41.7896 29.4098 41.7896C30.5198 41.7896 31.0797 42.4496 31.0797 43.7796H31.0898Z" fill="#AA8420"/>
<path d="M212.669 34.6097C212.229 34.3497 211.889 33.9697 211.659 33.4697C211.419 32.9797 211.299 32.3897 211.299 31.7297C211.299 31.0697 211.419 30.4797 211.649 29.9797C211.879 29.4897 212.219 29.1097 212.659 28.8497C213.099 28.5897 213.619 28.4497 214.219 28.4497C214.819 28.4497 215.339 28.5797 215.779 28.8497C216.219 29.1097 216.549 29.4897 216.789 29.9797C217.019 30.4697 217.139 31.0497 217.139 31.7197C217.139 32.3897 217.019 32.9697 216.779 33.4697C216.539 33.9697 216.209 34.3397 215.769 34.6097C215.329 34.8797 214.819 35.0097 214.219 35.0097C213.619 35.0097 213.109 34.8797 212.669 34.6097ZM215.799 33.6797C216.179 33.2197 216.369 32.5597 216.369 31.7197C216.369 30.8797 216.179 30.2197 215.809 29.7697C215.439 29.3197 214.909 29.0897 214.219 29.0897C213.529 29.0897 213.009 29.3197 212.629 29.7797C212.249 30.2397 212.059 30.8897 212.059 31.7297C212.059 32.5697 212.249 33.2297 212.629 33.6897C213.009 34.1497 213.539 34.3797 214.219 34.3797C214.899 34.3797 215.429 34.1497 215.799 33.6897V33.6797Z" fill="#231815"/>
<path d="M223.628 28.5298V34.9398H223.048L219.178 29.7798V34.9398H218.488V28.5298H219.058L222.928 33.6898V28.5298H223.628Z" fill="#231815"/>
<path d="M225.199 28.5298H225.939V34.3098H229.149V34.9398H225.199V28.5298Z" fill="#231815"/>
<path d="M230.109 28.5298H230.849V34.9398H230.109V28.5298Z" fill="#231815"/>
<path d="M237.57 28.5298V34.9398H236.99L233.12 29.7798V34.9398H232.43V28.5298H233L236.87 33.6898V28.5298H237.57Z" fill="#231815"/>
<path d="M239.139 28.5295H243.189V29.1395H239.869V31.3695H243.009V31.9895H239.869V34.3195H243.189V34.9295H239.139V28.5195V28.5295Z" fill="#231815"/>
<path d="M215.909 43.9297C216.169 44.2397 216.289 44.6097 216.289 45.0497C216.289 45.6597 216.059 46.1297 215.599 46.4797C215.139 46.8297 214.519 47.0097 213.739 47.0097C212.959 47.0097 212.339 46.8297 211.879 46.4797C211.419 46.1297 211.189 45.6497 211.189 45.0497C211.189 44.6197 211.319 44.2397 211.579 43.9297C211.839 43.6197 212.199 43.3997 212.659 43.2797C212.229 43.1497 211.909 42.9497 211.679 42.6597C211.449 42.3697 211.339 42.0297 211.339 41.6397C211.339 41.2497 211.439 40.9297 211.639 40.6397C211.839 40.3597 212.119 40.1397 212.479 39.9797C212.839 39.8197 213.259 39.7397 213.729 39.7397C214.199 39.7397 214.609 39.8197 214.979 39.9797C215.339 40.1397 215.619 40.3597 215.819 40.6397C216.019 40.9197 216.119 41.2497 216.119 41.6397C216.119 42.0297 215.999 42.3697 215.779 42.6597C215.549 42.9497 215.229 43.1597 214.819 43.2797C215.289 43.4097 215.649 43.6197 215.899 43.9397L215.909 43.9297ZM215.029 45.9797C215.329 45.7497 215.479 45.4197 215.479 44.9897C215.479 44.5997 215.319 44.2797 214.999 44.0497C214.679 43.8197 214.259 43.6697 213.739 43.6097C213.209 43.6597 212.789 43.8097 212.469 44.0497C212.149 44.2897 211.999 44.5997 211.999 44.9897C211.999 45.4197 212.149 45.7497 212.449 45.9797C212.749 46.2097 213.179 46.3197 213.739 46.3197C214.299 46.3197 214.729 46.2097 215.029 45.9797ZM212.589 42.5997C212.869 42.8397 213.259 42.9797 213.739 43.0397C214.219 42.9897 214.599 42.8397 214.879 42.5997C215.159 42.3597 215.299 42.0597 215.299 41.6797C215.299 41.2997 215.159 40.9797 214.879 40.7497C214.599 40.5197 214.219 40.4097 213.729 40.4097C213.239 40.4097 212.849 40.5197 212.569 40.7497C212.289 40.9797 212.149 41.2897 212.149 41.6797C212.149 42.0697 212.289 42.3697 212.569 42.5997H212.589Z" fill="#AA8420"/>
<path d="M217.89 46.0897C217.47 45.4697 217.26 44.5697 217.26 43.3797C217.26 42.1897 217.47 41.2797 217.89 40.6597C218.31 40.0397 218.93 39.7397 219.75 39.7397C220.57 39.7397 221.18 40.0497 221.6 40.6597C222.02 41.2797 222.24 42.1797 222.24 43.3697C222.24 44.5597 222.03 45.4697 221.6 46.0897C221.18 46.7097 220.56 47.0197 219.75 47.0197C218.94 47.0197 218.32 46.7097 217.89 46.0997V46.0897ZM221 45.5997C221.27 45.1197 221.41 44.3697 221.41 43.3597C221.41 42.3497 221.28 41.6097 221.01 41.1397C220.74 40.6697 220.32 40.4297 219.75 40.4297C219.18 40.4297 218.76 40.6697 218.5 41.1397C218.23 41.6097 218.09 42.3497 218.09 43.3597C218.09 44.3697 218.22 45.1097 218.5 45.5997C218.77 46.0797 219.19 46.3197 219.75 46.3197C220.31 46.3197 220.73 46.0797 221 45.5997Z" fill="#AA8420"/>
<path d="M229.819 42.1196C230.159 42.3396 230.419 42.6496 230.609 43.0496C230.799 43.4496 230.889 43.8996 230.889 44.4296C230.889 44.9596 230.799 45.3996 230.609 45.7896C230.419 46.1796 230.159 46.4796 229.819 46.6996C229.479 46.9096 229.089 47.0196 228.649 47.0196C228.259 47.0196 227.909 46.9296 227.619 46.7596C227.329 46.5896 227.099 46.3396 226.949 46.0196V49.1096H226.139V43.3296C226.139 42.8096 226.109 42.3396 226.059 41.9196H226.829L226.909 42.8896C227.049 42.5396 227.269 42.2696 227.579 42.0796C227.879 41.8896 228.239 41.7896 228.659 41.7896C229.099 41.7896 229.489 41.8996 229.829 42.1196H229.819ZM229.649 45.8396C229.919 45.5096 230.059 45.0296 230.059 44.4196C230.059 43.8096 229.919 43.3296 229.649 42.9796C229.379 42.6396 228.999 42.4696 228.509 42.4696C228.019 42.4696 227.629 42.6396 227.359 42.9696C227.089 43.2996 226.959 43.7796 226.959 44.3996C226.959 45.0196 227.089 45.4996 227.359 45.8296C227.629 46.1696 228.009 46.3396 228.509 46.3396C229.009 46.3396 229.389 46.1696 229.649 45.8396V45.8396Z" fill="#AA8420"/>
<path d="M236.499 46.9397H235.529L233.939 44.9597L232.369 46.9397H231.379L233.469 44.3497L231.499 41.9097H232.479L233.939 43.7597L235.399 41.9097H236.389L234.429 44.3497L236.499 46.9397Z" fill="#AA8420"/>
<path d="M126.89 8.58994C127.07 8.35994 127.14 7.93994 127.14 7.93994H115.93C115.93 7.93994 116.07 8.39994 116.19 8.58994H126.9H126.89Z" fill="#AA8420"/>
<path d="M126.24 9.53998C126.45 9.34998 126.66 8.97998 126.66 8.97998H116.4C116.4 8.97998 116.51 9.25998 116.77 9.53998H126.24Z" fill="#AA8420"/>
<path d="M125.42 10.4C125.68 10.26 125.88 9.97998 125.88 9.97998H117.1C117.1 9.97998 117.31 10.21 117.52 10.4H125.42Z" fill="#AA8420"/>
<path d="M124.4 11.2099C124.65 11.1099 124.93 10.8799 124.93 10.8799H118.08C118.08 10.8799 118.08 10.9299 118.56 11.2099H124.39H124.4Z" fill="#AA8420"/>
<path d="M119.359 11.7197C119.359 11.7197 120.079 12.1397 121.499 12.1397C122.919 12.1397 123.819 11.7197 123.819 11.7197H119.359Z" fill="#AA8420"/>
<path d="M119.25 12.6699C119.25 12.6699 120.11 12.7199 120.62 13.1099C121.11 13.5299 121.479 14.2199 121.479 14.2199C121.479 14.2199 121.78 13.5499 122.27 13.1999C122.76 12.8299 123.549 12.6599 123.549 12.6599H132.4L134.14 15.2399H126.19C126.19 15.2399 125.629 15.2599 124.799 15.7499C124.359 15.9999 124.03 16.4399 124.03 16.4399C124.03 16.4399 123.97 16.6499 123.87 16.7599C123.78 16.8799 123.71 16.9699 123.59 17.0199C123.47 17.0699 123.49 17.0399 123.49 17.0399H119.359C119.359 17.0399 119.189 16.9699 119.109 16.8299C119.019 16.6899 119.08 16.7399 118.99 16.6299C118.92 16.5099 118.76 16.2099 118.13 15.7899C117.48 15.3699 116.849 15.3199 116.849 15.3199H108.77L110.53 12.6499H119.24L119.25 12.6699Z" fill="#003477"/>
<path d="M113 16.3198V29.5098C113 29.5098 113.05 30.6698 114.02 32.2498C115 33.8298 116.41 34.5498 116.41 34.5498L117.53 32.8098C117.53 32.8098 116.56 32.2298 115.81 31.1098C115.09 29.9998 115.09 29.0398 115.09 29.0398V16.3198H113V16.3198Z" fill="#003477"/>
<path d="M127.95 16.27V28.99C127.95 28.99 127.79 30.27 127.18 31.17C126.58 32.1 125.58 32.84 125.58 32.84L126.65 34.56C126.65 34.56 128.27 33.38 129.06 32.12C129.85 30.87 130.04 28.99 130.04 28.99V16.27H127.95V16.27Z" fill="#003477"/>
<path d="M109.68 16.3198V29.5598C109.68 29.5598 109.82 31.6098 111.09 33.7398C112.37 35.8698 114.69 37.3598 114.69 37.3598L115.78 35.6198C115.78 35.6198 114.29 34.8298 113.11 33.0198C111.9 31.1898 111.83 29.5098 111.83 29.5098V16.3198H109.67H109.68Z" fill="#003477"/>
<path d="M119.25 17.71V31.69C119.25 31.69 119.2 31.74 119.18 31.95C119.15 32.16 119.02 32.3 119.02 32.3L114.35 40.03H128.65L123.98 32.13L123.84 31.78L123.79 31.41V17.74H122.05V31.93C122.05 31.93 122.05 32.13 122.12 32.3C122.16 32.46 122.26 32.71 122.26 32.71L125.14 37.45H117.85L120.68 32.74C120.68 32.74 120.77 32.58 120.84 32.35C120.89 32.14 120.91 31.94 120.91 31.94V17.73H119.24L119.25 17.71Z" fill="#AA8420"/>
<path d="M131.179 16.27V29.28C131.179 29.28 131.159 30.95 129.929 32.88C128.699 34.81 127.279 35.62 127.279 35.62L128.329 37.38C128.329 37.38 130.469 36.03 131.809 33.9C133.139 31.76 133.299 29.28 133.299 29.28V16.27H131.189H131.179Z" fill="#003477"/>
<path d="M115.859 7.55997C115.859 7.55997 115.139 3.63998 118.019 1.68998C118.019 1.68998 119.319 0.47998 121.429 0.47998C123.679 0.47998 124.979 1.65998 124.979 1.65998C128.119 3.95998 127.189 7.55997 127.189 7.55997H115.859V7.55997Z" fill="#AA8420"/>
<path d="M50.6289 57.7998H52.2489V63.8598H53.1089V57.7998H54.7289V57.0298H50.6289V57.7998Z" fill="#003477"/>
<path d="M59.528 59.7798H56.2679V57.0298H55.418V63.8698H56.2679V60.5798H59.528V63.8698H60.378V57.0298H59.528V59.7798Z" fill="#003477"/>
<path d="M65.3792 63.0798H62.5592V60.4998H65.2992V59.7198H62.5592V57.7998H65.3792V57.0298H61.6992V63.8598H65.3792V63.0798Z" fill="#003477"/>
<path d="M73.2682 59.7798H70.0182V57.0298H69.1582V63.8698H70.0182V60.5798H73.2682V63.8698H74.1182V57.0298H73.2682V59.7798Z" fill="#003477"/>
<path d="M82.1288 60.4399C82.1288 58.4799 80.5087 56.8799 78.5487 56.8799C76.5887 56.8799 74.9688 58.4799 74.9688 60.4399C74.9688 62.3999 76.5787 64.0099 78.5487 64.0099C80.5187 64.0099 82.1288 62.4799 82.1288 60.4399ZM78.5487 63.2099C77.0687 63.2099 75.8188 61.9999 75.8188 60.4399C75.8188 58.8799 76.9387 57.6699 78.5487 57.6699C80.1587 57.6699 81.2787 58.9299 81.2787 60.4399C81.2787 61.9499 80.0287 63.2099 78.5487 63.2099Z" fill="#003477"/>
<path d="M83.8188 58.7697L88.9587 64.1497V57.0297H88.0988V62.0797L82.9688 56.6997V63.8697H83.8188V58.7697Z" fill="#003477"/>
<path d="M93.3791 57.6599C94.2091 57.6599 95.0391 58.1099 95.5291 58.7799L96.1291 58.2099C95.4591 57.3699 94.4091 56.8799 93.3391 56.8799C91.3691 56.8799 89.7891 58.4899 89.7891 60.4599C89.7891 62.4299 91.3291 64.0099 93.2491 64.0099C95.1691 64.0099 96.489 62.5699 96.489 60.6899V60.4199H93.7791V61.1999H95.549C95.509 62.3099 94.3691 63.2299 93.3091 63.2299C91.8291 63.2299 90.649 61.8699 90.649 60.4399C90.649 58.9099 91.8491 57.6599 93.3791 57.6599V57.6599Z" fill="#003477"/>
<path d="M100.139 57.0298V63.8598H100.989V61.0098L101.339 60.6798L103.909 63.8598H105.069L101.939 60.0998L105.009 57.0298H103.899L100.989 59.9898V57.0298H100.139Z" fill="#003477"/>
<path d="M105.189 60.4399C105.189 62.4699 106.799 64.0099 108.769 64.0099C110.739 64.0099 112.349 62.4799 112.349 60.4399C112.349 58.3999 110.729 56.8799 108.769 56.8799C106.809 56.8799 105.189 58.4799 105.189 60.4399ZM108.769 57.6699C110.369 57.6699 111.499 58.9299 111.499 60.4399C111.499 61.9499 110.249 63.2099 108.769 63.2099C107.289 63.2099 106.039 61.9999 106.039 60.4399C106.039 58.8799 107.159 57.6699 108.769 57.6699Z" fill="#003477"/>
<path d="M114.049 58.7697L119.179 64.1497V57.0297H118.329V62.0797L113.189 56.6997V63.8697H114.049V58.7697Z" fill="#003477"/>
<path d="M124.01 61.1999H125.78C125.74 62.3099 124.599 63.2299 123.539 63.2299C122.059 63.2299 120.88 61.8699 120.88 60.4399C120.88 58.9099 122.079 57.6599 123.609 57.6599C124.439 57.6599 125.27 58.1099 125.76 58.7799L126.359 58.2099C125.689 57.3699 124.64 56.8799 123.57 56.8799C121.6 56.8799 120.02 58.4899 120.02 60.4599C120.02 62.4299 121.559 64.0099 123.479 64.0099C125.399 64.0099 126.719 62.5699 126.719 60.6899V60.4199H124.01V61.1999V61.1999Z" fill="#003477"/>
<path d="M135.26 61.35V57.02H134.41V61.06C134.41 62.18 134.07 63.21 132.76 63.21C131.45 63.21 131.11 62.18 131.11 61.06V57.02H130.26V61.35C130.26 62.86 131.19 64.01 132.76 64.01C134.33 64.01 135.26 62.86 135.26 61.35Z" fill="#003477"/>
<path d="M142.429 57.0297H141.579V62.0797L136.449 56.6997V63.8697H137.299V58.7697L142.429 64.1497V57.0297Z" fill="#003477"/>
<path d="M144.559 57.0298H143.709V63.8698H144.559V57.0298Z" fill="#003477"/>
<path d="M151.159 57.0298H150.219L148.189 62.0898L146.149 57.0298H145.219L148.189 64.2298L151.159 57.0298Z" fill="#003477"/>
<path d="M155.498 57.7998V57.0298H151.828V63.8598H155.498V63.0798H152.678V60.4998H155.418V59.7198H152.678V57.7998H155.498Z" fill="#003477"/>
<path d="M157.499 60.97H157.849L159.859 63.86H160.889L158.729 60.88C159.719 60.76 160.369 59.95 160.369 58.97C160.369 58.32 160.039 57.67 159.469 57.34C158.919 57.03 158.269 57.02 157.659 57.02H156.619V63.86H157.469V60.97H157.499ZM157.499 57.79H157.729C158.569 57.79 159.589 57.94 159.589 59.01C159.589 60.08 158.649 60.26 157.779 60.26H157.509V57.78L157.499 57.79Z" fill="#003477"/>
<path d="M163.489 63.2101C162.759 63.2101 162.159 62.6701 162.169 61.9101L161.309 62.0901C161.459 63.1901 162.319 64.0001 163.419 64.0001C164.639 64.0001 165.609 63.1101 165.609 61.8701C165.609 60.7301 164.889 60.1901 163.909 59.8101L163.419 59.6201C162.989 59.4601 162.469 59.1701 162.469 58.6401C162.469 58.0401 163.069 57.6701 163.619 57.6701C164.139 57.6701 164.459 57.8901 164.719 58.3201L165.399 57.9101C165.029 57.2501 164.399 56.8701 163.639 56.8701C162.609 56.8701 161.629 57.5301 161.629 58.6401C161.629 59.5901 162.339 60.0401 163.119 60.3701L163.589 60.5701C164.179 60.8201 164.769 61.1301 164.769 61.8701C164.769 62.6101 164.239 63.2001 163.509 63.2001L163.489 63.2101Z" fill="#003477"/>
<path d="M167.45 57.0298H166.6V63.8698H167.45V57.0298Z" fill="#003477"/>
<path d="M170.659 63.8598V57.7998H172.289V57.0298H168.189V57.7998H169.809V63.8598H170.659Z" fill="#003477"/>
<path d="M174.57 63.8598H175.43V60.8898L177.66 57.0298H176.68L175 59.9398L173.32 57.0298H172.34L174.57 60.8898V63.8598Z" fill="#003477"/>
<path d="M184.148 56.8799C182.188 56.8799 180.568 58.4799 180.568 60.4399C180.568 62.3999 182.178 64.0099 184.148 64.0099C186.118 64.0099 187.728 62.4799 187.728 60.4399C187.728 58.3999 186.108 56.8799 184.148 56.8799ZM184.148 63.2099C182.668 63.2099 181.418 61.9999 181.418 60.4399C181.418 58.8799 182.538 57.6699 184.148 57.6699C185.758 57.6699 186.878 58.9299 186.878 60.4399C186.878 61.9499 185.628 63.2099 184.148 63.2099Z" fill="#003477"/>
<path d="M191.949 57.8098V57.0298H188.639V63.8698H189.489V60.5098H191.869V59.7298H189.489V57.8098H191.949Z" fill="#003477"/>
<path d="M63.7892 70.6998L63.2992 70.5098C62.8692 70.3498 62.3492 70.0598 62.3492 69.5298C62.3492 68.9298 62.9492 68.5598 63.4892 68.5598C64.0292 68.5598 64.3292 68.7798 64.5892 69.2098L65.2692 68.7998C64.8992 68.1398 64.2692 67.7598 63.5092 67.7598C62.4692 67.7598 61.4992 68.4198 61.4992 69.5298C61.4992 70.4798 62.2092 70.9298 62.9892 71.2598L63.4592 71.4598C64.0492 71.7098 64.6392 72.0198 64.6392 72.7598C64.6392 73.4998 64.1092 74.0898 63.3792 74.0898C62.6492 74.0898 62.0492 73.5498 62.0592 72.7898L61.1992 72.9698C61.3492 74.0698 62.2092 74.8798 63.3092 74.8798C64.5292 74.8798 65.4992 73.9898 65.4992 72.7498C65.4992 71.6098 64.7692 71.0698 63.7992 70.6898L63.7892 70.6998Z" fill="#003477"/>
<path d="M66.1289 71.36C66.1289 73.34 67.7389 74.89 69.6989 74.89C70.2989 74.89 70.9689 74.72 71.4989 74.41V73.4C70.9889 73.85 70.3489 74.11 69.6789 74.11C68.1589 74.11 66.9889 72.83 66.9889 71.34C66.9889 69.85 68.1589 68.55 69.6889 68.55C70.3289 68.55 71.0089 68.78 71.4889 69.22V68.23C70.9689 67.91 70.3689 67.77 69.7689 67.77C67.7589 67.77 66.1289 69.35 66.1289 71.37V71.36Z" fill="#003477"/>
<path d="M73.4184 67.9102H72.5684V74.7502H73.4184V67.9102Z" fill="#003477"/>
<path d="M74.7891 74.7502H78.4691V73.9702H75.649V71.3802H78.3891V70.6002H75.649V68.6902H78.4691V67.9102H74.7891V74.7502Z" fill="#003477"/>
<path d="M84.6593 72.9601L79.5293 67.5801V74.7501H80.3793V69.6501L85.5193 75.0301V67.9101H84.6593V72.9601Z" fill="#003477"/>
<path d="M86.4395 71.36C86.4395 73.34 88.0595 74.89 90.0095 74.89C90.6095 74.89 91.2794 74.72 91.8094 74.41V73.4C91.2994 73.85 90.6594 74.11 89.9894 74.11C88.4694 74.11 87.3094 72.83 87.3094 71.34C87.3094 69.85 88.4795 68.55 90.0095 68.55C90.6495 68.55 91.3294 68.78 91.8094 69.22V68.23C91.2894 67.91 90.6894 67.77 90.0894 67.77C88.0794 67.77 86.4495 69.35 86.4495 71.37L86.4395 71.36Z" fill="#003477"/>
<path d="M92.9082 74.7502H96.5882V73.9702H93.7582V71.3802H96.4982V70.6002H93.7582V68.6902H96.5882V67.9102H92.9082V74.7502Z" fill="#003477"/>
<path d="M99.709 74.7501H100.629L101.409 73.0301H104.549L105.329 74.7501H106.249L102.979 67.6201L99.709 74.7501V74.7501ZM101.759 72.2501L102.969 69.4801L104.189 72.2501H101.759V72.2501Z" fill="#003477"/>
<path d="M111.958 72.9601L106.828 67.5801V74.7501H107.678V69.6501L112.808 75.0301V67.9101H111.958V72.9601Z" fill="#003477"/>
<path d="M115.459 67.9102H114.049V74.7502H115.439C117.599 74.7502 119.299 73.6301 119.299 71.2901C119.299 68.9501 117.559 67.9102 115.459 67.9102ZM115.199 73.9702H114.899V68.6902H115.199C116.939 68.6902 118.449 69.3302 118.449 71.3302C118.449 73.3302 116.939 73.9702 115.199 73.9702V73.9702Z" fill="#003477"/>
<path d="M122.318 68.6902H123.938V74.7502H124.798V68.6902H126.418V67.9102H122.318V68.6902Z" fill="#003477"/>
<path d="M127.18 74.7502H130.86V73.9702H128.04V71.3802H130.78V70.6002H128.04V68.6902H130.86V67.9102H127.18V74.7502Z" fill="#003477"/>
<path d="M131.619 71.36C131.619 73.34 133.229 74.89 135.189 74.89C135.789 74.89 136.459 74.72 136.989 74.41V73.4C136.479 73.85 135.839 74.11 135.169 74.11C133.649 74.11 132.479 72.83 132.479 71.34C132.479 69.85 133.649 68.55 135.179 68.55C135.829 68.55 136.499 68.78 136.989 69.22V68.23C136.469 67.91 135.859 67.77 135.269 67.77C133.259 67.77 131.629 69.35 131.629 71.37L131.619 71.36Z" fill="#003477"/>
<path d="M142.12 70.6702H138.87V67.9102H138.02V74.7502H138.87V71.4602H142.12V74.7502H142.979V67.9102H142.12V70.6702Z" fill="#003477"/>
<path d="M149.349 72.9601L144.219 67.5801V74.7501H145.069V69.6501L150.199 75.0301V67.9101H149.349V72.9601Z" fill="#003477"/>
<path d="M154.619 67.7598C152.659 67.7598 151.029 69.3598 151.029 71.3198C151.029 73.2798 152.639 74.8898 154.619 74.8898C156.599 74.8898 158.199 73.3598 158.199 71.3198C158.199 69.2798 156.579 67.7598 154.619 67.7598ZM154.619 74.0898C153.139 74.0898 151.889 72.8798 151.889 71.3198C151.889 69.7598 153.009 68.5498 154.619 68.5498C156.229 68.5498 157.349 69.8098 157.349 71.3198C157.349 72.8298 156.099 74.0898 154.619 74.0898Z" fill="#003477"/>
<path d="M159.969 67.9102H159.109V74.7502H162.039V73.9702H159.969V67.9102Z" fill="#003477"/>
<path d="M165.799 67.7598C163.839 67.7598 162.219 69.3598 162.219 71.3198C162.219 73.2798 163.819 74.8898 165.799 74.8898C167.779 74.8898 169.379 73.3598 169.379 71.3198C169.379 69.2798 167.759 67.7598 165.799 67.7598ZM165.799 74.0898C164.319 74.0898 163.069 72.8798 163.069 71.3198C163.069 69.7598 164.189 68.5498 165.799 68.5498C167.409 68.5498 168.529 69.8098 168.529 71.3198C168.529 72.8298 167.279 74.0898 165.799 74.0898Z" fill="#003477"/>
<path d="M173.818 72.0798H175.588C175.548 73.1898 174.408 74.1098 173.348 74.1098C171.868 74.1098 170.688 72.7498 170.688 71.3198C170.688 69.7898 171.888 68.5398 173.418 68.5398C174.248 68.5398 175.078 68.9798 175.568 69.6598L176.168 69.0898C175.498 68.2498 174.448 67.7598 173.378 67.7598C171.408 67.7598 169.828 69.3698 169.828 71.3398C169.828 73.3098 171.368 74.8898 173.288 74.8898C175.208 74.8898 176.528 73.4498 176.528 71.5698V71.2998H173.818V72.0798V72.0798Z" fill="#003477"/>
<path d="M179.42 70.8302L177.74 67.9102H176.76L178.99 71.7702V74.7502H179.84V71.7702L182.07 67.9102H181.09L179.42 70.8302Z" fill="#003477"/>
<path d="M87.9789 49.53C88.3489 49.41 88.6088 49.31 88.7688 49.24V53.21H89.6288V52.78H94.1788V53.21H95.0388V49.19C95.1588 49.26 95.2989 49.31 95.4489 49.36C95.5989 49.4 95.7288 49.45 95.8588 49.51L96.2689 48.67C94.9389 48.4 93.9188 47.93 93.2188 47.25H96.1989V46.48H92.2888V45.7C93.5388 45.6 94.5788 45.46 95.4188 45.28L95.0189 44.52C93.7589 44.8 91.8888 44.95 89.4288 44.95C88.9088 44.95 88.4788 44.95 88.1288 44.93L88.4288 45.78C89.0288 45.78 90.0289 45.76 91.4189 45.72V46.47H87.6188V47.24H90.4789C89.6489 47.94 88.6688 48.42 87.5488 48.69L87.9888 49.51L87.9789 49.53ZM94.1788 52.02H89.6188V51.2H94.1788V52.02ZM92.2788 47.27C92.8588 48.04 93.6188 48.61 94.5688 48.98H92.2788V47.27ZM94.1788 49.76V50.46H89.6188V49.76H94.1788ZM91.4088 47.28V48.98H89.2988C90.1688 48.61 90.8688 48.04 91.4088 47.28Z" fill="#003477"/>
<path d="M101.338 50.3401L100.528 49.8701C100.328 50.7501 99.958 51.5701 99.418 52.3401L100.158 53.1001C100.688 52.2601 101.078 51.3401 101.338 50.3401Z" fill="#003477"/>
<path d="M101.399 48.0401C100.919 47.6801 100.469 47.3801 100.029 47.1401L99.4688 47.8401C99.8288 48.0801 100.269 48.4101 100.769 48.8401L101.399 48.0401V48.0401Z" fill="#003477"/>
<path d="M101.669 45.7999V46.2999H102.899V47.2299H101.479V48.0099H102.959C102.689 48.5899 102.039 49.1099 101.019 49.5799L101.549 50.3599C101.959 50.0999 102.249 49.9099 102.399 49.7799V51.8599C102.399 52.2799 102.479 52.5699 102.629 52.7199C102.789 52.8699 103.069 52.9399 103.459 52.9399H106.459C106.939 52.9399 107.249 52.8599 107.409 52.6899C107.579 52.5199 107.709 51.9999 107.809 51.1499L106.919 50.8199C106.879 51.3099 106.829 51.6499 106.779 51.8499C106.729 52.0399 106.579 52.1399 106.319 52.1399H103.569C103.349 52.1399 103.249 52.0299 103.249 51.8199V51.2299H106.229V49.3299C106.599 49.6599 107.069 49.9999 107.639 50.3399L108.039 49.5199C107.039 49.0299 106.419 48.5299 106.169 48.0299H107.939V47.2499H106.269V46.2999H107.799V45.5699H106.269V44.6099H105.439V45.5699H103.749V44.6099H102.899V45.5699H101.669V45.6899C101.309 45.4099 100.859 45.1099 100.339 44.7699L99.7285 45.4599C100.139 45.7199 100.599 46.0799 101.109 46.5399L101.669 45.8399V45.7999ZM103.749 46.3099H105.429V47.2199H103.749V46.3099ZM103.949 47.9899H105.199C105.369 48.3199 105.559 48.5899 105.759 48.8199H103.399C103.629 48.5799 103.809 48.2999 103.949 47.9899V47.9899ZM103.249 49.5499H105.379V50.4599H103.249V49.5499Z" fill="#003477"/>
<path d="M117.92 46.3097C117.19 45.7797 116.63 45.3997 116.23 45.1797L115.68 45.7897C116.1 46.0497 116.66 46.4497 117.35 46.9997L117.93 46.3097H117.92Z" fill="#003477"/>
<path d="M119.118 44.48H118.248V49.81L115.148 50.27V51.13L118.248 50.66V53.21H119.118V50.55L119.948 50.41V49.57L119.118 49.71V44.48Z" fill="#003477"/>
<path d="M117.739 48.5399C117.059 48.0199 116.489 47.6399 116.029 47.3999L115.479 48.0199C115.969 48.3099 116.529 48.7199 117.169 49.2499L117.739 48.5399V48.5399Z" fill="#003477"/>
<path d="M113.859 53.1698V48.8698C114.029 49.0898 114.189 49.2998 114.349 49.4898C114.529 49.6998 114.719 49.9398 114.899 50.1898L115.419 49.3898C115.069 49.0098 114.549 48.4898 113.849 47.8498V47.7698H115.259V46.9798H113.849V45.6698C114.339 45.5698 114.799 45.4398 115.249 45.2898L114.939 44.5298C113.949 44.9098 112.759 45.1298 111.369 45.1998L111.559 45.9798C112.189 45.9398 112.669 45.8798 112.989 45.8198V46.9798H111.269V47.7698H112.969C112.579 48.7998 111.999 49.7498 111.219 50.6298L111.739 51.4598C112.339 50.6698 112.759 49.9798 112.999 49.3898V53.1898L113.849 53.1498L113.859 53.1698Z" fill="#003477"/>
<path d="M123.1 49.36L123.32 50.36C123.62 50.29 124.04 50.18 124.56 50.05V51.94C124.56 52.14 124.46 52.25 124.26 52.25L123.46 52.22L123.67 53.16H124.4C124.86 53.16 125.15 53.09 125.28 52.94C125.4 52.8 125.46 52.51 125.46 52.07V49.8C125.99 49.62 126.35 49.48 126.54 49.37V48.46C126.31 48.57 125.95 48.71 125.46 48.87V47.23H126.55V46.64H128.55V47.88H126.72V48.73H130.39C130.13 49.51 129.68 50.15 129.05 50.65C128.62 50.22 128.2 49.64 127.77 48.88L127 49.18C127.46 50.01 127.92 50.67 128.4 51.15C127.51 51.75 126.62 52.15 125.73 52.35L126.24 53.19C127.13 53.01 128.06 52.54 129.04 51.79C129.76 52.44 130.52 52.9 131.34 53.17L131.81 52.3C131.03 52.08 130.33 51.72 129.72 51.22C130.07 50.91 130.41 50.49 130.73 49.95C131.06 49.41 131.26 48.98 131.34 48.64V47.87H129.47V46.63H131.65V45.79H129.47V44.48H128.55V45.79H126.56V46.38H125.47V44.48H124.56V46.38H123.19V47.22H124.56V49.08C124.12 49.2 123.64 49.29 123.1 49.36V49.36Z" fill="#003477"/>
<path d="M141.49 50.16C140.96 49.33 140.63 48.54 140.49 47.79H143.45V46.82H139.52C139.57 46.33 139.59 45.56 139.59 44.5H138.62C138.62 45.49 138.58 46.26 138.5 46.82H135.15V47.8H138.35C138.2 48.67 137.82 49.51 137.19 50.33C136.56 51.15 135.81 51.8 134.93 52.3L135.63 53.18C137.7 51.82 138.95 50.02 139.36 47.79H139.51C140.13 50.28 141.27 52.07 142.94 53.16L143.65 52.31C142.73 51.7 142.01 50.99 141.48 50.16H141.49Z" fill="#003477"/>
<path d="M147.829 47.2699H154.509V48.3899H155.409V46.4899H153.559C153.839 46.0399 154.099 45.4799 154.369 44.8099L153.399 44.4399C153.099 45.2899 152.799 45.9799 152.509 46.4899H146.939V48.4299H147.839V47.2699H147.829Z" fill="#003477"/>
<path d="M150.369 52.3798C150.039 52.3798 149.729 52.3698 149.429 52.3398L149.609 53.1598H150.879C151.099 53.1598 151.279 53.0698 151.439 52.8998C151.549 52.7898 151.609 52.6298 151.619 52.4098V50.9098H155.139V50.1298H151.619V49.8398C152.449 49.5098 153.179 49.1598 153.829 48.7898V48.0098H148.489V48.7898H152.469C151.829 49.0898 151.229 49.3198 150.649 49.4998V50.1298H147.109V50.9098H150.649V52.1398C150.649 52.2898 150.549 52.3698 150.349 52.3698L150.369 52.3798Z" fill="#003477"/>
<path d="M149.61 45.9697C149.36 45.5197 149.09 45.1097 148.83 44.7397L148.09 45.0697C148.36 45.4497 148.61 45.8697 148.83 46.3397L149.61 45.9697V45.9697Z" fill="#003477"/>
<path d="M151.699 45.8097C151.459 45.3197 151.209 44.8697 150.959 44.4697L150.209 44.7997C150.459 45.2097 150.689 45.6697 150.919 46.1797L151.699 45.8097Z" fill="#003477"/>
</svg>
