<svg width="312" height="75" viewBox="0 0 312 75" fill="none" xmlns="http://www.w3.org/2000/svg">
<path d="M95.4087 25.6904C95.4087 25.6904 97.8687 25.8204 99.3287 26.9504C100.729 28.1604 101.799 30.1504 101.799 30.1504C101.799 30.1504 102.669 28.2304 104.069 27.2304C105.459 26.1604 107.729 25.7004 107.729 25.7004H133.099L138.089 33.0904H115.309C115.309 33.0904 113.719 33.1504 111.319 34.5604C110.049 35.2804 109.109 36.5504 109.109 36.5504C109.109 36.5504 108.919 37.1504 108.649 37.4704C108.379 37.8104 108.179 38.0804 107.859 38.2104C107.519 38.3504 107.589 38.2704 107.589 38.2704H95.7387C95.7387 38.2704 95.2587 38.0804 95.0087 37.6704C94.7387 37.2704 94.9387 37.4104 94.6787 37.0904C94.4787 36.7604 94.0087 35.8804 92.2087 34.6904C90.3487 33.4804 88.5487 33.3604 88.5487 33.3604H65.3887L70.4287 25.7004H95.3987L95.4087 25.6904Z" fill="#003873"/>
<path d="M184.439 0V40.08C184.439 40.08 184.289 40.22 184.239 40.81C184.169 41.42 183.769 41.82 183.769 41.82L170.389 63.99H211.399L198.009 41.35L197.609 40.34L197.469 39.28V0.07H192.479V40.76C192.479 40.76 192.479 41.34 192.679 41.82C192.799 42.29 193.079 43.01 193.079 43.01L201.329 56.59H180.429L188.549 43.08C188.549 43.08 188.819 42.62 189.019 41.95C189.159 41.35 189.219 40.76 189.219 40.76V0H184.429H184.439Z" fill="#A68238"/>
<path d="M253.219 1.86035V39.6804C253.219 39.6804 253.349 43.0204 256.149 47.5404C258.949 52.0704 262.999 54.1404 262.999 54.1404L266.199 49.1504C266.199 49.1504 263.409 47.4803 261.269 44.2803C259.209 41.0903 259.209 38.3503 259.209 38.3503V1.86035H253.209H253.219Z" fill="#003873"/>
<path d="M296.099 1.73047V38.2105C296.099 38.2105 295.639 41.8805 293.899 44.4705C292.169 47.1305 289.299 49.2705 289.299 49.2705L292.379 54.1905C292.379 54.1905 297.029 50.8005 299.289 47.2005C301.559 43.6105 302.099 38.2105 302.099 38.2105V1.73047H296.099Z" fill="#003873"/>
<path d="M243.719 1.86035V39.8204C243.719 39.8204 244.109 45.6804 247.769 51.8104C251.449 57.9304 258.089 62.1903 258.089 62.1903L261.229 57.2004C261.229 57.2004 256.969 54.9404 253.579 49.7304C250.099 44.4704 249.919 39.6804 249.919 39.6804V1.86035H243.729H243.719Z" fill="#003873"/>
<path d="M305.358 1.73047V39.0205C305.358 39.0205 305.298 43.8105 301.768 49.3405C298.238 54.8705 294.178 57.2005 294.178 57.2005L297.178 62.2505C297.178 62.2505 303.298 58.3905 307.168 52.2605C310.968 46.1305 311.428 39.0105 311.428 39.0105V1.73047H305.358V1.73047Z" fill="#003873"/>
<path d="M31.8577 38.5204C32.3977 37.8504 32.5777 36.6504 32.5777 36.6504H0.427734C0.427734 36.6504 0.827734 37.9804 1.15773 38.5204H31.8577Z" fill="#A68238"/>
<path d="M29.9878 41.2397C30.5878 40.7097 31.1978 39.6396 31.1978 39.6396H1.75781C1.75781 39.6396 2.08781 40.4397 2.82781 41.2397H29.9878Z" fill="#A68238"/>
<path d="M27.6681 43.7098C28.3981 43.3098 28.9981 42.5098 28.9981 42.5098H3.82812C3.82812 42.5098 4.42813 43.1798 5.01813 43.7098H27.6681Z" fill="#A68238"/>
<path d="M24.7289 46.0396C25.4589 45.7696 26.2589 45.0996 26.2589 45.0996H6.62891C6.62891 45.0996 6.62891 45.2396 8.01891 46.0396H24.7289Z" fill="#A68238"/>
<path d="M10.2773 47.5C10.2773 47.5 12.3473 48.71 16.4073 48.71C20.4673 48.71 23.0573 47.5 23.0573 47.5H10.2773Z" fill="#A68238"/>
<path d="M0.228519 35.5803C0.228519 35.5803 -1.83148 24.3403 6.41852 18.7403C6.41852 18.7403 10.1485 15.2803 16.1985 15.2803C22.6685 15.2803 26.3885 18.6703 26.3885 18.6703C35.3785 25.2503 32.7185 35.5803 32.7185 35.5803H0.228519Z" fill="#A68238"/>
<path d="M31.1571 59.33C37.1571 59.33 42.0271 54.62 42.0271 48.81C42.0271 43 37.1571 38.29 31.1571 38.29C25.1571 38.29 20.2871 43 20.2871 48.81C20.2871 54.62 25.1571 59.33 31.1571 59.33" fill="#ED1B23"/>
<path d="M25.998 53.7104L36.318 43.9004" stroke="white" stroke-width="3"/>
<path d="M36.318 53.7104L25.998 43.9004" stroke="white" stroke-width="3"/>
<path d="M138.089 42.5097C144.089 42.5097 148.959 37.7997 148.959 31.9897C148.959 26.1797 144.089 21.4697 138.089 21.4697C132.089 21.4697 127.219 26.1797 127.219 31.9897C127.219 37.7997 132.089 42.5097 138.089 42.5097Z" fill="#ED1B23"/>
<path d="M132.928 36.8998L143.248 27.0898" stroke="white" stroke-width="3"/>
<path d="M143.248 36.8998L132.928 27.0898" stroke="white" stroke-width="3"/>
<path d="M211.407 74.5C217.407 74.5 222.277 69.79 222.277 63.98C222.277 58.17 217.407 53.46 211.407 53.46C205.407 53.46 200.537 58.17 200.537 63.98C200.537 69.79 205.407 74.5 211.407 74.5Z" fill="#ED1B23"/>
<path d="M206.248 68.8901L216.568 59.0801" stroke="white" stroke-width="3"/>
<path d="M216.568 68.8901L206.248 59.0801" stroke="white" stroke-width="3"/>
<path d="M298.038 72.7705C304.038 72.7705 308.908 68.0605 308.908 62.2505C308.908 56.4405 304.038 51.7305 298.038 51.7305C292.038 51.7305 287.168 56.4405 287.168 62.2505C287.168 68.0605 292.038 72.7705 298.038 72.7705Z" fill="#ED1B23"/>
<path d="M292.879 67.1596L303.199 57.3496" stroke="white" stroke-width="3"/>
<path d="M303.199 67.1596L292.879 57.3496" stroke="white" stroke-width="3"/>
</svg>
