<svg width="417" height="31" viewBox="0 0 417 31" fill="none" xmlns="http://www.w3.org/2000/svg">
<path d="M42.8495 30.8498H35.5195V0.259766H42.8495V0.509766H35.7695V30.5998H42.8495V30.8498Z" fill="#231815"/>
<path d="M380.449 30.8498H373.119V30.5998H380.199V0.509766H373.119V0.259766H380.449V30.8498Z" fill="#231815"/>
<path d="M0.449463 7.39014H3.00946C3.66946 7.39014 4.17944 7.55013 4.54944 7.87013C4.91944 8.19013 5.09946 8.63013 5.09946 9.18013C5.09946 9.73013 4.90946 10.1801 4.53946 10.5001C4.16946 10.8201 3.64945 10.9801 2.99945 10.9801H1.17944V13.8001H0.439453V7.39014H0.449463ZM2.93945 10.3701C3.40945 10.3701 3.76946 10.2701 4.00946 10.0601C4.24946 9.86013 4.36945 9.56013 4.36945 9.18013C4.36945 8.80013 4.24946 8.50014 4.00946 8.30014C3.76946 8.10014 3.40945 8.00014 2.93945 8.00014H1.17944V10.3701H2.93945Z" fill="#231815"/>
<path d="M11.3403 13.7999H10.5603L9.77029 11.6699C9.67029 11.4099 9.5403 11.2299 9.3703 11.1399C9.2003 11.0499 8.9603 11.0099 8.6503 11.0099H7.05029V13.8099H6.32031V7.3999H8.8703C9.5603 7.3999 10.0903 7.54991 10.4603 7.85991C10.8303 8.16991 11.0103 8.6099 11.0103 9.1799C11.0103 9.5999 10.9003 9.94991 10.6803 10.2399C10.4603 10.5299 10.1403 10.7299 9.73032 10.8499C9.92032 10.8799 10.0703 10.9599 10.2103 11.0899C10.3403 11.2199 10.4503 11.3999 10.5403 11.6399L11.3503 13.8099L11.3403 13.7999ZM8.79031 10.3899C9.77031 10.3899 10.2703 9.9899 10.2703 9.1799C10.2703 8.7799 10.1503 8.4899 9.91031 8.2899C9.67031 8.0999 9.30031 7.99991 8.79031 7.99991H7.04031V10.3799H8.79031V10.3899Z" fill="#231815"/>
<path d="M12.5488 7.39014H13.2888V13.8001H12.5488V7.39014Z" fill="#231815"/>
<path d="M20.0092 7.39014V13.8001H19.4291L15.5591 8.64014V13.8001H14.8691V7.39014H15.4391L19.3091 12.5501V7.39014H20.0092Z" fill="#231815"/>
<path d="M23.1304 8.02014H20.9004V7.39014H26.1104V8.02014H23.8804V13.8001H23.1304V8.02014V8.02014Z" fill="#231815"/>
<path d="M26.4297 13.0601L26.7097 12.4901C27.0297 12.7601 27.3497 12.9501 27.6797 13.0701C28.0097 13.1801 28.3897 13.2401 28.8297 13.2401C29.3497 13.2401 29.7397 13.1401 30.0197 12.9401C30.2997 12.7401 30.4397 12.4601 30.4397 12.0901C30.4397 11.8701 30.3697 11.7001 30.2397 11.5601C30.0997 11.4301 29.9297 11.3201 29.7097 11.2401C29.4897 11.1601 29.1997 11.0801 28.8297 11.0001C28.3397 10.8901 27.9297 10.7701 27.6197 10.6501C27.2997 10.5201 27.0397 10.3401 26.8497 10.1101C26.6497 9.87008 26.5497 9.56007 26.5497 9.18007C26.5497 8.80007 26.6497 8.49008 26.8397 8.21008C27.0297 7.93008 27.2997 7.71007 27.6497 7.56007C27.9997 7.41007 28.4097 7.33008 28.8797 7.33008C29.3497 7.33008 29.7397 7.40007 30.1197 7.54007C30.4997 7.68007 30.8297 7.88008 31.0897 8.14008L30.7997 8.71008C30.4997 8.45008 30.1997 8.26008 29.8897 8.14008C29.5797 8.02008 29.2397 7.96008 28.8797 7.96008C28.3797 7.96008 27.9897 8.07008 27.7097 8.28008C27.4297 8.49008 27.2897 8.78008 27.2897 9.16008C27.2897 9.48008 27.4097 9.73008 27.6597 9.89008C27.9097 10.0501 28.2797 10.1901 28.7897 10.3101C29.3397 10.4401 29.7797 10.5601 30.0897 10.6701C30.3997 10.7801 30.6697 10.9501 30.8797 11.1701C31.0897 11.4001 31.1897 11.6901 31.1897 12.0701C31.1897 12.4501 31.0897 12.7501 30.8997 13.0201C30.7097 13.2901 30.4297 13.5001 30.0797 13.6501C29.7197 13.8001 29.2997 13.8801 28.8197 13.8801C27.8197 13.8801 27.0197 13.6101 26.4297 13.0701V13.0601Z" fill="#231815"/>
<path d="M10.5794 22.7999C10.8394 23.1099 10.9594 23.4799 10.9594 23.9199C10.9594 24.5299 10.7294 24.9999 10.2694 25.3499C9.80938 25.6999 9.18939 25.8799 8.40939 25.8799C7.62939 25.8799 7.00938 25.6999 6.54938 25.3499C6.08938 24.9999 5.85938 24.5199 5.85938 23.9199C5.85938 23.4899 5.9894 23.1099 6.2594 22.7999C6.5194 22.4899 6.87939 22.2699 7.33939 22.1499C6.90939 22.0199 6.58938 21.8199 6.35938 21.5299C6.12937 21.2399 6.01938 20.8999 6.01938 20.5099C6.01938 20.1199 6.1194 19.7999 6.3194 19.5099C6.5194 19.2299 6.79939 19.0099 7.15939 18.8499C7.51939 18.6899 7.93939 18.6099 8.40939 18.6099C8.87939 18.6099 9.28939 18.6899 9.65939 18.8499C10.0194 19.0099 10.3094 19.2299 10.4994 19.5099C10.6994 19.7899 10.7994 20.1199 10.7994 20.5099C10.7994 20.8999 10.6794 21.2399 10.4494 21.5299C10.2194 21.8199 9.89938 22.0299 9.48938 22.1499C9.95938 22.2799 10.3194 22.4899 10.5694 22.8099L10.5794 22.7999ZM9.6994 24.8499C9.9994 24.6199 10.1494 24.2899 10.1494 23.8599C10.1494 23.4699 9.9894 23.1499 9.6694 22.9199C9.3494 22.6799 8.92938 22.5399 8.39938 22.4799C7.86938 22.5299 7.44939 22.6799 7.12939 22.9199C6.80939 23.1599 6.64938 23.4699 6.64938 23.8599C6.64938 24.2899 6.7994 24.6199 7.0994 24.8499C7.3994 25.0799 7.8294 25.1899 8.3894 25.1899C8.9494 25.1899 9.37938 25.0799 9.67938 24.8499H9.6994ZM7.2594 21.4699C7.5394 21.7099 7.92939 21.8499 8.40939 21.9099C8.88939 21.8599 9.26939 21.7099 9.55939 21.4699C9.83939 21.2299 9.9794 20.9299 9.9794 20.5499C9.9794 20.1699 9.83939 19.8499 9.55939 19.6199C9.27939 19.3899 8.89939 19.2799 8.40939 19.2799C7.91939 19.2799 7.5294 19.3899 7.2594 19.6199C6.9794 19.8499 6.83939 20.1599 6.83939 20.5499C6.83939 20.9399 6.9794 21.2399 7.2594 21.4699Z" fill="#AA8420"/>
<path d="M22.0585 22.6399V25.7999H21.2485V22.6799C21.2485 22.2099 21.1685 21.8599 20.9985 21.6499C20.8385 21.4399 20.5685 21.3299 20.2085 21.3299C19.7785 21.3299 19.4485 21.4699 19.2085 21.7599C18.9685 22.0499 18.8485 22.4399 18.8485 22.9299V25.7999H18.0385V22.6799C18.0385 22.2099 17.9585 21.8699 17.7885 21.6599C17.6185 21.4399 17.3585 21.3299 16.9885 21.3299C16.5585 21.3299 16.2285 21.4699 15.9885 21.7599C15.7485 22.0499 15.6185 22.4399 15.6185 22.9299V25.7999H14.8085V22.1799C14.8085 21.6599 14.7785 21.1899 14.7285 20.7699H15.4985L15.5785 21.6499C15.7185 21.3299 15.9285 21.0799 16.1985 20.9099C16.4785 20.7399 16.7985 20.6499 17.1685 20.6499C17.5685 20.6499 17.8985 20.7299 18.1485 20.8899C18.3985 21.0499 18.5885 21.2999 18.7085 21.6299C18.8585 21.3299 19.0885 21.0899 19.3785 20.9199C19.6785 20.7399 20.0085 20.6499 20.3785 20.6499C21.4885 20.6499 22.0485 21.3099 22.0485 22.6399H22.0585Z" fill="#AA8420"/>
<path d="M30.8495 22.6399V25.7999H30.0396V22.6799C30.0396 22.2099 29.9596 21.8599 29.7896 21.6499C29.6296 21.4399 29.3595 21.3299 28.9995 21.3299C28.5695 21.3299 28.2395 21.4699 27.9995 21.7599C27.7595 22.0499 27.6396 22.4399 27.6396 22.9299V25.7999H26.8295V22.6799C26.8295 22.2099 26.7495 21.8699 26.5795 21.6599C26.4095 21.4399 26.1495 21.3299 25.7795 21.3299C25.3495 21.3299 25.0195 21.4699 24.7795 21.7599C24.5395 22.0499 24.4095 22.4399 24.4095 22.9299V25.7999H23.5995V22.1799C23.5995 21.6599 23.5695 21.1899 23.5195 20.7699H24.2896L24.3695 21.6499C24.5095 21.3299 24.7195 21.0799 24.9895 20.9099C25.2695 20.7399 25.5895 20.6499 25.9595 20.6499C26.3595 20.6499 26.6895 20.7299 26.9395 20.8899C27.1895 21.0499 27.3795 21.2999 27.4995 21.6299C27.6495 21.3299 27.8796 21.0899 28.1696 20.9199C28.4696 20.7399 28.7996 20.6499 29.1696 20.6499C30.2796 20.6499 30.8395 21.3099 30.8395 22.6399H30.8495Z" fill="#AA8420"/>
<path d="M386.169 13.0501C385.729 12.7901 385.389 12.4101 385.159 11.9101C384.919 11.4201 384.799 10.8301 384.799 10.1701C384.799 9.51014 384.919 8.92014 385.149 8.42014C385.379 7.92014 385.719 7.55013 386.159 7.29013C386.599 7.03013 387.119 6.89014 387.719 6.89014C388.319 6.89014 388.839 7.02013 389.279 7.29013C389.719 7.55013 390.049 7.93014 390.289 8.42014C390.519 8.91014 390.639 9.49014 390.639 10.1601C390.639 10.8301 390.519 11.4101 390.279 11.9101C390.039 12.4001 389.699 12.7801 389.269 13.0501C388.829 13.3201 388.319 13.4501 387.719 13.4501C387.119 13.4501 386.609 13.3201 386.169 13.0501ZM389.299 12.1201C389.679 11.6601 389.869 11.0001 389.869 10.1601C389.869 9.32014 389.679 8.66014 389.309 8.21014C388.939 7.76014 388.409 7.53014 387.719 7.53014C387.029 7.53014 386.499 7.76014 386.129 8.22014C385.759 8.68014 385.559 9.33014 385.559 10.1701C385.559 11.0101 385.749 11.6701 386.129 12.1301C386.509 12.5901 387.039 12.8201 387.719 12.8201C388.399 12.8201 388.929 12.5901 389.299 12.1301V12.1201Z" fill="#231815"/>
<path d="M397.128 6.97021V13.3802H396.548L392.678 8.22021V13.3802H391.988V6.97021H392.558L396.428 12.1302V6.97021H397.128Z" fill="#231815"/>
<path d="M398.699 6.97021H399.439V12.7502H402.649V13.3802H398.699V6.97021Z" fill="#231815"/>
<path d="M403.609 6.97021H404.349V13.3802H403.609V6.97021Z" fill="#231815"/>
<path d="M411.07 6.97021V13.3802H410.49L406.62 8.22021V13.3802H405.93V6.97021H406.5L410.37 12.1302V6.97021H411.07Z" fill="#231815"/>
<path d="M412.639 6.96996H416.689V7.57996H413.369V9.80995H416.509V10.4299H413.369V12.7599H416.689V13.3699H412.639V6.95996V6.96996Z" fill="#231815"/>
<path d="M389.92 23.8303H388.84V25.3803H388.02V23.8303H384.74V23.2103L388.17 18.2603H388.84V23.1503H389.92V23.8303V23.8303ZM388.02 23.1503V19.6503L385.59 23.1503H388.02Z" fill="#AA8420"/>
<path d="M391.39 24.5302C390.97 23.9102 390.75 23.0102 390.75 21.8202C390.75 20.6302 390.96 19.7202 391.39 19.1002C391.81 18.4802 392.43 18.1802 393.24 18.1802C394.05 18.1802 394.67 18.4902 395.1 19.1002C395.52 19.7202 395.73 20.6202 395.73 21.8102C395.73 23.0002 395.52 23.9102 395.1 24.5302C394.68 25.1502 394.06 25.4602 393.24 25.4602C392.42 25.4602 391.81 25.1502 391.39 24.5402V24.5302ZM394.5 24.0402C394.77 23.5602 394.91 22.8102 394.91 21.8002C394.91 20.7902 394.78 20.0502 394.51 19.5802C394.24 19.1102 393.82 18.8702 393.25 18.8702C392.68 18.8702 392.27 19.1102 392 19.5802C391.73 20.0502 391.59 20.7902 391.59 21.8002C391.59 22.8102 391.73 23.5502 392 24.0402C392.27 24.5202 392.69 24.7602 393.25 24.7602C393.81 24.7602 394.24 24.5202 394.5 24.0402Z" fill="#AA8420"/>
<path d="M403.321 20.56C403.661 20.78 403.921 21.09 404.111 21.49C404.301 21.89 404.391 22.34 404.391 22.87C404.391 23.4 404.301 23.84 404.111 24.23C403.921 24.62 403.661 24.92 403.321 25.14C402.981 25.35 402.591 25.46 402.151 25.46C401.761 25.46 401.411 25.37 401.121 25.2C400.831 25.03 400.601 24.78 400.451 24.46V27.55H399.641V21.77C399.641 21.25 399.611 20.78 399.561 20.36H400.331L400.411 21.33C400.551 20.98 400.771 20.71 401.081 20.52C401.381 20.33 401.741 20.23 402.161 20.23C402.601 20.23 402.991 20.34 403.331 20.56H403.321ZM403.151 24.28C403.421 23.95 403.551 23.47 403.551 22.86C403.551 22.25 403.411 21.77 403.141 21.42C402.871 21.08 402.491 20.91 402.001 20.91C401.511 20.91 401.121 21.08 400.851 21.41C400.581 21.74 400.451 22.22 400.451 22.84C400.451 23.46 400.581 23.94 400.851 24.27C401.121 24.61 401.501 24.78 402.001 24.78C402.501 24.78 402.881 24.61 403.151 24.28V24.28Z" fill="#AA8420"/>
<path d="M410.001 25.3801H409.031L407.441 23.4001L405.871 25.3801H404.881L406.971 22.7901L405.001 20.3501H405.981L407.441 22.2001L408.901 20.3501H409.891L407.931 22.7901L410.001 25.3801Z" fill="#AA8420"/>
<path d="M67.4688 6.47998C67.6088 6.29998 67.6588 5.97998 67.6588 5.97998H59.0488C59.0488 5.97998 59.1588 6.32998 59.2488 6.47998H67.4688V6.47998Z" fill="#A68238"/>
<path d="M66.9702 7.20979C67.1302 7.06979 67.2902 6.77979 67.2902 6.77979H59.4102C59.4102 6.77979 59.5002 6.99979 59.7002 7.20979H66.9802H66.9702Z" fill="#A68238"/>
<path d="M66.3488 7.8698C66.5388 7.7598 66.7088 7.5498 66.7088 7.5498H59.9688C59.9688 7.5498 60.1288 7.7298 60.2888 7.8698H66.3488Z" fill="#A68238"/>
<path d="M65.559 8.49023C65.749 8.42023 65.9689 8.24023 65.9689 8.24023H60.709C60.709 8.24023 60.709 8.28023 61.079 8.49023H65.549H65.559Z" fill="#A68238"/>
<path d="M61.6897 8.87988C61.6897 8.87988 62.2397 9.19987 63.3297 9.19987C64.4197 9.19987 65.1097 8.87988 65.1097 8.87988H61.6797H61.6897Z" fill="#A68238"/>
<path d="M61.5986 9.62012C61.5986 9.62012 62.2586 9.66013 62.6486 9.96013C63.0286 10.2801 63.3086 10.8201 63.3086 10.8201C63.3086 10.8201 63.5386 10.3101 63.9186 10.0401C64.2986 9.75012 64.8986 9.63013 64.8986 9.63013H71.6886L73.0286 11.6101H66.9286C66.9286 11.6101 66.4986 11.6301 65.8586 12.0101C65.5186 12.2001 65.2686 12.5401 65.2686 12.5401C65.2686 12.5401 65.2186 12.7001 65.1486 12.7901C65.0786 12.8801 65.0286 12.9501 64.9386 12.9901C64.8486 13.0301 64.8686 13.0001 64.8686 13.0001H61.6886C61.6886 13.0001 61.5586 12.9501 61.4886 12.8401C61.4186 12.7301 61.4686 12.7701 61.3986 12.6801C61.3386 12.5901 61.2186 12.3601 60.7386 12.0401C60.2386 11.7201 59.7586 11.6801 59.7586 11.6801H53.5586L54.9086 9.63013H61.5986V9.62012Z" fill="#003873"/>
<path d="M56.7988 12.4199V22.5499C56.7988 22.5499 56.8389 23.4399 57.5889 24.6599C58.3389 25.8699 59.4288 26.4299 59.4288 26.4299L60.2888 25.0899C60.2888 25.0899 59.5388 24.6399 58.9688 23.7899C58.4188 22.9399 58.4188 22.1999 58.4188 22.1999V12.4299H56.8088L56.7988 12.4199Z" fill="#003873"/>
<path d="M68.2888 12.3799V22.1499C68.2888 22.1499 68.1688 23.1299 67.6988 23.8299C67.2388 24.5399 66.4688 25.1099 66.4688 25.1099L67.2888 26.4299C67.2888 26.4299 68.5388 25.5199 69.1388 24.5599C69.7488 23.5999 69.8888 22.1499 69.8888 22.1499V12.3799H68.2788H68.2888Z" fill="#003873"/>
<path d="M54.26 12.4199V22.5899C54.26 22.5899 54.36 24.1599 55.34 25.7999C56.32 27.4399 58.1 28.5799 58.1 28.5799L58.94 27.2399C58.94 27.2399 57.8 26.6299 56.89 25.2399C55.96 23.8299 55.91 22.5499 55.91 22.5499V12.4199H54.25H54.26Z" fill="#003873"/>
<path d="M61.5998 13.4902V24.2302C61.5998 24.2302 61.5598 24.2702 61.5498 24.4202C61.5298 24.5802 61.4198 24.6902 61.4198 24.6902L57.8398 30.6302H68.8298L65.2398 24.5602L65.1298 24.2902L65.0898 24.0102V13.5102H63.7598V24.4102C63.7598 24.4102 63.7598 24.5602 63.8098 24.6902C63.8398 24.8102 63.9198 25.0102 63.9198 25.0102L66.1298 28.6502H60.5298L62.6998 25.0302C62.6998 25.0302 62.7698 24.9102 62.8298 24.7302C62.8598 24.5702 62.8798 24.4102 62.8798 24.4102V13.4902H61.5998V13.4902Z" fill="#A68238"/>
<path d="M70.7693 12.3801V22.3701C70.7693 22.3701 70.7593 23.6501 69.8093 25.1301C68.8693 26.6101 67.7793 27.2301 67.7793 27.2301L68.5893 28.5801C68.5893 28.5801 70.2293 27.5401 71.2593 25.9101C72.2793 24.2701 72.3993 22.3601 72.3993 22.3601V12.3701H70.7693V12.3801Z" fill="#003873"/>
<path d="M59.0002 5.69C59.0002 5.69 58.4502 2.67999 60.6602 1.17999C60.6602 1.17999 61.6602 0.25 63.2802 0.25C65.0102 0.25 66.0102 1.16 66.0102 1.16C68.4202 2.93 67.7002 5.69 67.7002 5.69H59.0002Z" fill="#A68238"/>
<path d="M79.5391 24.0097H81.2691V30.4697H82.1791V24.0097H83.9091V23.1797H79.5391V24.0097Z" fill="#003477"/>
<path d="M89.0187 26.1197H85.5486V23.1797H84.6387V30.4697H85.5486V26.9697H89.0187V30.4697H89.9286V23.1797H89.0187V26.1197Z" fill="#003477"/>
<path d="M91.3398 30.4697H95.2498V29.6397H92.2498V26.8797H95.1598V26.0497H92.2498V24.0097H95.2498V23.1797H91.3398V30.4697Z" fill="#003477"/>
<path d="M103.649 26.1197H100.189V23.1797H99.2793V30.4697H100.189V26.9697H103.649V30.4697H104.559V23.1797H103.649V26.1197Z" fill="#003477"/>
<path d="M109.279 23.0298C107.189 23.0298 105.459 24.7398 105.459 26.8298C105.459 28.9198 107.169 30.6298 109.279 30.6298C111.389 30.6298 113.099 28.9998 113.099 26.8298C113.099 24.6598 111.369 23.0298 109.279 23.0298ZM109.279 29.7698C107.699 29.7698 106.369 28.4898 106.369 26.8198C106.369 25.1498 107.569 23.8698 109.279 23.8698C110.989 23.8698 112.189 25.2098 112.189 26.8198C112.189 28.4298 110.859 29.7698 109.279 29.7698Z" fill="#003477"/>
<path d="M119.451 28.5598L113.98 22.8398V30.4698H114.891V25.0398L120.36 30.7699V23.1798H119.451V28.5598Z" fill="#003477"/>
<path d="M125.49 27.63H127.37C127.33 28.82 126.11 29.79 124.98 29.79C123.41 29.79 122.15 28.34 122.15 26.81C122.15 25.18 123.42 23.85 125.06 23.85C125.95 23.85 126.83 24.32 127.35 25.04L127.99 24.43C127.27 23.53 126.15 23.02 125.02 23.02C122.93 23.02 121.24 24.74 121.24 26.84C121.24 28.94 122.88 30.62 124.92 30.62C126.96 30.62 128.37 29.09 128.37 27.09V26.8H125.48V27.63H125.49Z" fill="#003477"/>
<path d="M137.45 23.1797H136.26L133.17 26.3397V23.1797H132.26V30.4697H133.17V27.4197L133.54 27.0797L136.28 30.4697H137.51L134.18 26.4597L137.45 23.1797Z" fill="#003477"/>
<path d="M141.459 23.0298C139.369 23.0298 137.639 24.7398 137.639 26.8298C137.639 28.9198 139.349 30.6298 141.459 30.6298C143.569 30.6298 145.269 28.9998 145.269 26.8298C145.269 24.6598 143.539 23.0298 141.459 23.0298ZM141.459 29.7698C139.879 29.7698 138.549 28.4898 138.549 26.8198C138.549 25.1498 139.749 23.8698 141.459 23.8698C143.169 23.8698 144.369 25.2098 144.369 26.8198C144.369 28.4298 143.039 29.7698 141.459 29.7698Z" fill="#003477"/>
<path d="M151.63 28.5598L146.17 22.8398V30.4698H147.07V25.0398L152.54 30.7699V23.1798H151.63V28.5598Z" fill="#003477"/>
<path d="M157.68 27.63H159.56C159.52 28.82 158.3 29.79 157.17 29.79C155.6 29.79 154.34 28.34 154.34 26.81C154.34 25.18 155.62 23.85 157.25 23.85C158.14 23.85 159.02 24.32 159.54 25.04L160.18 24.43C159.46 23.53 158.34 23.02 157.21 23.02C155.11 23.02 153.43 24.74 153.43 26.84C153.43 28.94 155.07 30.62 157.11 30.62C159.15 30.62 160.56 29.09 160.56 27.09V26.8H157.67V27.63H157.68Z" fill="#003477"/>
<path d="M168.75 27.4797C168.75 28.6697 168.39 29.7697 166.99 29.7697C165.59 29.7697 165.23 28.6697 165.23 27.4797V23.1797H164.32V27.7897C164.32 29.3897 165.31 30.6197 166.98 30.6197C168.65 30.6197 169.65 29.3897 169.65 27.7897V23.1797H168.74V27.4797H168.75Z" fill="#003477"/>
<path d="M176.39 28.5598L170.92 22.8398V30.4698H171.83V25.0398L177.3 30.7699V23.1798H176.39V28.5598Z" fill="#003477"/>
<path d="M179.57 23.1797H178.66V30.4597H179.57V23.1797Z" fill="#003477"/>
<path d="M183.43 28.5697L181.26 23.1797H180.26L183.43 30.8497L186.59 23.1797H185.6L183.43 28.5697Z" fill="#003477"/>
<path d="M187.299 30.4697H191.219V29.6397H188.209V26.8797H191.129V26.0497H188.209V24.0097H191.219V23.1797H187.299V30.4697Z" fill="#003477"/>
<path d="M196.41 25.2597C196.41 24.5597 196.06 23.8797 195.45 23.5197C194.87 23.1897 194.18 23.1797 193.53 23.1797H192.43V30.4597H193.34V27.3797H193.72L195.87 30.4597H196.97L194.67 27.2897C195.72 27.1697 196.42 26.2897 196.42 25.2497L196.41 25.2597ZM193.63 26.6297H193.34V23.9897H193.58C194.48 23.9897 195.56 24.1597 195.56 25.2897C195.56 26.4197 194.55 26.6197 193.63 26.6197V26.6297Z" fill="#003477"/>
<path d="M200.159 26.16L199.639 25.9601C199.189 25.7901 198.629 25.49 198.629 24.92C198.629 24.28 199.269 23.89 199.849 23.89C200.399 23.89 200.749 24.12 201.019 24.58L201.739 24.14C201.339 23.43 200.679 23.04 199.869 23.04C198.769 23.04 197.719 23.75 197.719 24.92C197.719 25.93 198.469 26.4101 199.299 26.7701L199.799 26.98C200.429 27.24 201.059 27.58 201.059 28.36C201.059 29.14 200.499 29.78 199.719 29.78C198.939 29.78 198.299 29.2 198.309 28.4L197.389 28.59C197.539 29.76 198.459 30.6301 199.639 30.6301C200.939 30.6301 201.969 29.68 201.969 28.36C201.969 27.14 201.199 26.57 200.159 26.17V26.16Z" fill="#003477"/>
<path d="M203.939 23.1797H203.029V30.4597H203.939V23.1797Z" fill="#003477"/>
<path d="M204.719 24.0097H206.449V30.4697H207.359V24.0097H209.089V23.1797H204.719V24.0097Z" fill="#003477"/>
<path d="M211.969 26.2897L210.189 23.1797H209.139L211.519 27.2997V30.4697H212.429V27.2997L214.809 23.1797H213.759L211.969 26.2897Z" fill="#003477"/>
<path d="M221.72 23.0298C219.63 23.0298 217.9 24.7398 217.9 26.8298C217.9 28.9198 219.61 30.6298 221.72 30.6298C223.83 30.6298 225.54 28.9998 225.54 26.8298C225.54 24.6598 223.81 23.0298 221.72 23.0298ZM221.72 29.7698C220.15 29.7698 218.81 28.4898 218.81 26.8198C218.81 25.1498 220.01 23.8698 221.72 23.8698C223.43 23.8698 224.63 25.2098 224.63 26.8198C224.63 28.4298 223.3 29.7698 221.72 29.7698Z" fill="#003477"/>
<path d="M226.5 30.4697H227.41V26.8897H229.94V26.0597H227.41V24.0097H230.03V23.1797H226.5V30.4697Z" fill="#003477"/>
<path d="M236.459 26.16L235.939 25.9601C235.489 25.7901 234.929 25.49 234.929 24.92C234.929 24.28 235.569 23.89 236.149 23.89C236.729 23.89 237.049 24.12 237.319 24.58L238.039 24.14C237.639 23.43 236.979 23.04 236.159 23.04C235.059 23.04 234.019 23.75 234.019 24.92C234.019 25.93 234.769 26.4101 235.599 26.7701L236.099 26.98C236.729 27.24 237.359 27.58 237.359 28.36C237.359 29.14 236.799 29.78 236.019 29.78C235.239 29.78 234.599 29.2 234.609 28.4L233.689 28.59C233.839 29.76 234.759 30.6301 235.939 30.6301C237.239 30.6301 238.269 29.68 238.269 28.36C238.269 27.14 237.499 26.57 236.459 26.17V26.16Z" fill="#003477"/>
<path d="M238.949 26.8598C238.949 28.9598 240.669 30.6198 242.749 30.6198C243.389 30.6198 244.099 30.4398 244.659 30.1098V29.0398C244.119 29.5198 243.429 29.7898 242.719 29.7898C241.099 29.7898 239.859 28.4298 239.859 26.8298C239.859 25.2298 241.099 23.8598 242.739 23.8598C243.429 23.8598 244.139 24.1098 244.659 24.5698V23.5198C244.109 23.1798 243.459 23.0298 242.829 23.0298C240.679 23.0298 238.959 24.7098 238.959 26.8698L238.949 26.8598Z" fill="#003477"/>
<path d="M246.719 23.1797H245.809V30.4597H246.719V23.1797Z" fill="#003477"/>
<path d="M248.18 30.4697H252.09V29.6397H249.08V26.8797H252V26.0497H249.08V24.0097H252.09V23.1797H248.18V30.4697Z" fill="#003477"/>
<path d="M258.689 28.5598L253.219 22.8398V30.4698H254.129V25.0398L259.599 30.7699V23.1798H258.689V28.5598Z" fill="#003477"/>
<path d="M260.58 26.8598C260.58 28.9598 262.3 30.6198 264.38 30.6198C265.02 30.6198 265.73 30.4398 266.29 30.1098V29.0398C265.75 29.5198 265.06 29.7898 264.35 29.7898C262.73 29.7898 261.49 28.4298 261.49 26.8298C261.49 25.2298 262.74 23.8598 264.37 23.8598C265.06 23.8598 265.77 24.1098 266.29 24.5698V23.5198C265.74 23.1798 265.09 23.0298 264.45 23.0298C262.31 23.0298 260.58 24.7098 260.58 26.8698V26.8598Z" fill="#003477"/>
<path d="M267.469 30.4697H271.379V29.6397H268.379V26.8797H271.289V26.0497H268.379V24.0097H271.379V23.1797H267.469V30.4697Z" fill="#003477"/>
<path d="M274.709 30.4699H275.689L276.519 28.6399H279.859L280.689 30.4699H281.659L278.179 22.8799L274.699 30.4699H274.709ZM276.889 27.8099L278.189 24.8599L279.479 27.8099H276.889V27.8099Z" fill="#003477"/>
<path d="M287.749 28.5598L282.289 22.8398V30.4698H283.199V25.0398L288.659 30.7699V23.1798H287.749V28.5598Z" fill="#003477"/>
<path d="M291.479 23.1797H289.969V30.4597H291.449C293.749 30.4597 295.559 29.2597 295.559 26.7797C295.559 24.2997 293.699 23.1797 291.479 23.1797ZM291.199 29.6297H290.879V24.0097H291.199C293.049 24.0097 294.659 24.6897 294.659 26.8197C294.659 28.9497 293.059 29.6297 291.199 29.6297Z" fill="#003477"/>
<path d="M298.779 24.0097H300.509V30.4697H301.419V24.0097H303.149V23.1797H298.779V24.0097Z" fill="#003477"/>
<path d="M303.959 30.4697H307.869V29.6397H304.869V26.8797H307.789V26.0497H304.869V24.0097H307.869V23.1797H303.959V30.4697Z" fill="#003477"/>
<path d="M308.68 26.8598C308.68 28.9598 310.4 30.6198 312.48 30.6198C313.12 30.6198 313.83 30.4398 314.39 30.1098V29.0398C313.85 29.5198 313.16 29.7898 312.45 29.7898C310.83 29.7898 309.59 28.4298 309.59 26.8298C309.59 25.2298 310.83 23.8598 312.47 23.8598C313.16 23.8598 313.87 24.1098 314.39 24.5698V23.5198C313.84 23.1798 313.19 23.0298 312.55 23.0298C310.4 23.0298 308.68 24.7098 308.68 26.8698V26.8598Z" fill="#003477"/>
<path d="M319.87 26.1197H316.4V23.1797H315.49V30.4697H316.4V26.9697H319.87V30.4697H320.78V23.1797H319.87V26.1197Z" fill="#003477"/>
<path d="M327.57 28.5598L322.1 22.8398V30.4698H323.01V25.0398L328.48 30.7699V23.1798H327.57V28.5598Z" fill="#003477"/>
<path d="M333.17 23.0298C331.08 23.0298 329.35 24.7398 329.35 26.8298C329.35 28.9198 331.06 30.6298 333.17 30.6298C335.28 30.6298 336.99 28.9998 336.99 26.8298C336.99 24.6598 335.26 23.0298 333.17 23.0298ZM333.17 29.7698C331.6 29.7698 330.26 28.4898 330.26 26.8198C330.26 25.1498 331.46 23.8698 333.17 23.8698C334.88 23.8698 336.08 25.2098 336.08 26.8198C336.08 28.4298 334.75 29.7698 333.17 29.7698Z" fill="#003477"/>
<path d="M338.869 23.1797H337.959V30.4697H341.079V29.6397H338.869V23.1797Z" fill="#003477"/>
<path d="M345.08 23.0298C342.99 23.0298 341.26 24.7398 341.26 26.8298C341.26 28.9198 342.97 30.6298 345.08 30.6298C347.19 30.6298 348.89 28.9998 348.89 26.8298C348.89 24.6598 347.16 23.0298 345.08 23.0298ZM345.08 29.7698C343.5 29.7698 342.17 28.4898 342.17 26.8198C342.17 25.1498 343.37 23.8698 345.08 23.8698C346.79 23.8698 347.99 25.2098 347.99 26.8198C347.99 28.4298 346.66 29.7698 345.08 29.7698Z" fill="#003477"/>
<path d="M353.619 27.63H355.509C355.469 28.82 354.249 29.79 353.119 29.79C351.549 29.79 350.289 28.34 350.289 26.81C350.289 25.18 351.559 23.85 353.199 23.85C354.089 23.85 354.969 24.32 355.489 25.04L356.129 24.43C355.409 23.53 354.289 23.02 353.159 23.02C351.069 23.02 349.379 24.74 349.379 26.84C349.379 28.94 351.019 30.62 353.059 30.62C355.099 30.62 356.509 29.09 356.509 27.09V26.8H353.619V27.63V27.63Z" fill="#003477"/>
<path d="M361.37 23.1797L359.58 26.2897L357.79 23.1797H356.75L359.13 27.2997V30.4697H360.04V27.2997L362.41 23.1797H361.37Z" fill="#003477"/>
<path d="M79.7395 15.4C80.1395 15.27 80.4195 15.16 80.5795 15.09V19.3501H81.4995V18.89H86.3795V19.3501H87.2995V15.04C87.4295 15.11 87.5795 15.17 87.7395 15.22C87.8995 15.27 88.0395 15.3201 88.1795 15.3801L88.6195 14.48C87.1895 14.19 86.0995 13.6901 85.3395 12.9601H88.5395V12.14H84.3495V11.31C85.6895 11.2 86.7995 11.05 87.7095 10.86L87.2795 10.04C85.9195 10.34 83.9295 10.5 81.2895 10.5C80.7295 10.5 80.2695 10.5 79.8895 10.48L80.2195 11.39C80.8695 11.39 81.9395 11.37 83.4295 11.33V12.14H79.3495V12.9601H82.4195C81.5295 13.7101 80.4795 14.2301 79.2695 14.5201L79.7495 15.4H79.7395ZM86.3895 18.0701H81.4995V17.2H86.3895V18.0701ZM84.3595 12.97C84.9795 13.8 85.7995 14.41 86.8095 14.81H84.3595V12.97ZM86.3995 15.64V16.4H81.5095V15.64H86.3995ZM83.4295 12.98V14.81H81.1695C82.0995 14.41 82.8595 13.8 83.4295 12.98Z" fill="#003477"/>
<path d="M98.4899 13.7999C97.9799 13.4099 97.49 13.0898 97.02 12.8398L96.4199 13.5798C96.8099 13.8398 97.2699 14.1998 97.8099 14.6498L98.4799 13.7999H98.4899Z" fill="#003477"/>
<path d="M104.279 17.8598C104.229 18.0698 104.059 18.1698 103.779 18.1698H100.829C100.599 18.1698 100.479 18.0499 100.479 17.8199V17.1898H103.679V15.1498C104.079 15.5098 104.579 15.8698 105.189 16.2298L105.619 15.3499C104.549 14.8199 103.879 14.2898 103.609 13.7498H105.509V12.9198H103.719V11.8998H105.359V11.1198H103.719V10.0898H102.819V11.1198H101.009V10.0898H100.099V11.1198H98.7795V11.2498C98.3895 10.9498 97.9094 10.6199 97.3494 10.2699L96.6895 11.0098C97.1295 11.2898 97.6294 11.6698 98.1694 12.1698L98.7795 11.4198V11.9599H100.099V12.9498H98.5795V13.7798H100.169C99.8794 14.3998 99.1795 14.9599 98.0795 15.4599L98.6495 16.2999C99.0895 16.0199 99.3994 15.8098 99.5594 15.6698V17.8998C99.5594 18.3498 99.6394 18.6599 99.8094 18.8199C99.9794 18.9799 100.279 19.0598 100.709 19.0598H103.929C104.439 19.0598 104.779 18.9698 104.949 18.7898C105.129 18.6098 105.269 18.0499 105.379 17.1299L104.429 16.7798C104.379 17.2998 104.329 17.6699 104.279 17.8799V17.8598ZM101.019 11.9398H102.829V12.9099H101.019V11.9398ZM101.239 13.7498H102.579C102.759 14.0998 102.969 14.3998 103.189 14.6398H100.659C100.899 14.3798 101.099 14.0798 101.249 13.7498H101.239ZM100.479 15.4298H102.769V16.3998H100.479V15.4298Z" fill="#003477"/>
<path d="M96.3789 18.4098L97.1689 19.2298C97.7389 18.3298 98.1589 17.3398 98.4289 16.2698L97.5689 15.7598C97.3589 16.6998 96.9589 17.5898 96.3789 18.4098V18.4098Z" fill="#003477"/>
<path d="M120.369 14.3401C119.639 13.7801 119.029 13.3801 118.529 13.1201L117.939 13.7901C118.459 14.1001 119.069 14.5401 119.749 15.1101L120.369 14.3401V14.3401Z" fill="#003477"/>
<path d="M120.559 11.94C119.779 11.37 119.169 10.97 118.739 10.73L118.139 11.39C118.599 11.67 119.189 12.1 119.929 12.69L120.559 11.95V11.94Z" fill="#003477"/>
<path d="M115.289 19.34L116.199 19.3V14.69C116.379 14.93 116.549 15.1501 116.729 15.3501C116.929 15.5801 117.129 15.83 117.329 16.11L117.889 15.26C117.509 14.85 116.949 14.3 116.209 13.61V13.5201H117.719V12.67H116.209V11.2701C116.729 11.1601 117.229 11.03 117.709 10.86L117.369 10.04C116.299 10.44 115.029 10.68 113.549 10.76L113.759 11.59C114.439 11.55 114.949 11.49 115.299 11.42V12.66H113.449V13.51H115.269C114.849 14.61 114.229 15.63 113.389 16.58L113.949 17.47C114.599 16.62 115.049 15.8801 115.299 15.2401V19.3201L115.289 19.34Z" fill="#003477"/>
<path d="M121.84 19.3397V16.4897L122.74 16.3397V15.4397L121.84 15.5897V9.98975H120.92V15.6997L117.59 16.1897V17.1197L120.92 16.6097V19.3397H121.84Z" fill="#003477"/>
<path d="M132.999 18.11V15.68C133.569 15.49 133.959 15.34 134.159 15.22V14.25C133.919 14.37 133.529 14.52 132.999 14.69V12.93H134.169V12.29H136.319V13.62H134.349V14.53H138.289C138.009 15.36 137.529 16.05 136.849 16.59C136.389 16.13 135.929 15.5 135.479 14.69L134.659 15.02C135.149 15.91 135.649 16.62 136.159 17.14C135.209 17.78 134.249 18.21 133.299 18.42L133.849 19.32C134.799 19.12 135.799 18.62 136.849 17.82C137.619 18.52 138.439 19.02 139.309 19.3L139.819 18.37C138.979 18.14 138.239 17.75 137.579 17.21C137.959 16.88 138.319 16.43 138.659 15.85C139.009 15.27 139.229 14.81 139.309 14.45V13.63H137.299V12.3H139.639V11.4H137.299V10H136.319V11.4H134.179V12.04H133.009V10H132.029V12.04H130.559V12.95H132.029V14.95C131.559 15.08 131.039 15.17 130.459 15.25L130.699 16.32C131.019 16.24 131.469 16.13 132.029 15.98V18.01C132.029 18.23 131.919 18.34 131.699 18.34L130.839 18.31L131.069 19.31H131.849C132.339 19.31 132.659 19.23 132.799 19.07C132.929 18.92 132.999 18.61 132.999 18.14V18.11Z" fill="#003477"/>
<path d="M147.51 18.3698L148.26 19.3098C150.48 17.8498 151.82 15.9198 152.26 13.5298H152.42C153.08 16.1998 154.31 18.1198 156.09 19.2898L156.85 18.3798C155.86 17.7298 155.09 16.9598 154.53 16.0798C153.97 15.1898 153.61 14.3498 153.46 13.5398H156.64V12.4998H152.43C152.48 11.9798 152.51 11.1498 152.51 10.0098H151.47C151.47 11.0698 151.43 11.8998 151.34 12.4998H147.74V13.5498H151.17C151.01 14.4798 150.6 15.3898 149.93 16.2598C149.25 17.1398 148.45 17.8398 147.51 18.3798V18.3698Z" fill="#003477"/>
<path d="M173.58 16.1101H169.78V15.8001C170.68 15.4401 171.47 15.0601 172.17 14.6601V13.8101H166.39V14.6601H170.7C170.01 14.9801 169.36 15.2401 168.74 15.4201V16.1001H164.91V16.9501H168.74V18.2801C168.74 18.4501 168.63 18.5301 168.42 18.5301C168.06 18.5301 167.72 18.5201 167.41 18.4901L167.61 19.3801H168.99C169.22 19.3801 169.43 19.2901 169.6 19.1001C169.72 18.9801 169.78 18.8101 169.8 18.5701V16.9501H173.6V16.1001L173.58 16.1101Z" fill="#003477"/>
<path d="M167.599 11.5898C167.329 11.0998 167.039 10.6598 166.749 10.2598L165.939 10.6198C166.229 11.0298 166.499 11.4798 166.749 11.9898L167.599 11.5898Z" fill="#003477"/>
<path d="M169.86 11.43C169.6 10.9 169.33 10.42 169.05 9.97998L168.24 10.34C168.51 10.78 168.76 11.28 169.01 11.83L169.86 11.43V11.43Z" fill="#003477"/>
<path d="M165.669 13.0099H172.889V14.2199H173.859V12.1599H171.859C172.159 11.6699 172.449 11.0599 172.739 10.3399L171.689 9.93994C171.359 10.8599 171.039 11.5999 170.729 12.1599H164.709V14.2599H165.679V13.0099H165.669Z" fill="#003477"/>
</svg>
