<svg width="187" height="199" viewBox="0 0 187 199" fill="none" xmlns="http://www.w3.org/2000/svg">
<path d="M109.641 65.6503C110.181 64.9803 110.361 63.7803 110.361 63.7803H78.2109C78.2109 63.7803 78.6109 65.1103 78.9409 65.6503H109.631H109.641Z" fill="#A68238"/>
<path d="M107.769 68.3803C108.369 67.8503 108.979 66.7803 108.979 66.7803H79.5391C79.5391 66.7803 79.8691 67.5803 80.6091 68.3803H107.769V68.3803Z" fill="#A68238"/>
<path d="M105.449 70.8504C106.179 70.4504 106.779 69.6504 106.779 69.6504H81.6191C81.6191 69.6504 82.2191 70.3204 82.8091 70.8504H105.459H105.449Z" fill="#A68238"/>
<path d="M102.51 73.1802C103.24 72.9102 104.04 72.2402 104.04 72.2402H84.4102C84.4102 72.2402 84.4102 72.3802 85.8002 73.1802H102.51V73.1802Z" fill="#A68238"/>
<path d="M88.0605 74.6396C88.0605 74.6396 90.1306 75.8496 94.1906 75.8496C98.2506 75.8496 100.841 74.6396 100.841 74.6396H88.0605Z" fill="#A68238"/>
<path d="M87.7292 77.3701C87.7292 77.3701 90.1992 77.5001 91.6492 78.6301C93.0492 79.8301 94.1192 81.8301 94.1192 81.8301C94.1192 81.8301 94.9892 79.9101 96.3892 78.9101C97.7792 77.8401 100.049 77.3801 100.049 77.3801H125.419L130.409 84.7701H107.629C107.629 84.7701 106.039 84.8301 103.639 86.2401C102.369 86.9601 101.429 88.2301 101.429 88.2301C101.429 88.2301 101.239 88.8301 100.969 89.1601C100.699 89.5001 100.499 89.7701 100.179 89.9001C99.8392 90.0401 99.9092 89.9601 99.9092 89.9601H88.0592C88.0592 89.9601 87.5792 89.7701 87.3292 89.3601C87.0592 88.9601 87.2592 89.1001 86.9892 88.7801C86.7892 88.4501 86.3192 87.5701 84.5192 86.3801C82.6592 85.1701 80.8592 85.0501 80.8592 85.0501H57.6992L62.7492 77.3901H87.7192L87.7292 77.3701Z" fill="#003873"/>
<path d="M69.8108 87.8203V125.63C69.8108 125.63 69.9408 128.97 72.7408 133.49C75.5408 138.02 79.5908 140.09 79.5908 140.09L82.7908 135.1C82.7908 135.1 80.0008 133.43 77.8608 130.23C75.8008 127.04 75.8008 124.3 75.8008 124.3V87.8203H69.8008H69.8108Z" fill="#003873"/>
<path d="M112.7 87.6904V124.17C112.7 124.17 112.24 127.84 110.5 130.43C108.77 133.09 105.9 135.23 105.9 135.23L108.98 140.15C108.98 140.15 113.63 136.76 115.89 133.16C118.16 129.57 118.7 124.17 118.7 124.17V87.6904H112.7V87.6904Z" fill="#003873"/>
<path d="M60.3105 87.8203V125.77C60.3105 125.77 60.7005 131.63 64.3605 137.76C68.0405 143.88 74.6805 148.14 74.6805 148.14L77.8205 143.15C77.8205 143.15 73.5505 140.89 70.1705 135.68C66.6905 130.42 66.5105 125.63 66.5105 125.63V87.8203H60.3205H60.3105Z" fill="#003873"/>
<path d="M87.7297 91.8096V131.89C87.7297 131.89 87.5797 132.03 87.5297 132.62C87.4597 133.23 87.0597 133.63 87.0597 133.63L73.6797 155.8H114.69L101.3 133.16L100.9 132.15L100.76 131.09V91.8796H95.7697V132.57C95.7697 132.57 95.7697 133.15 95.9697 133.63C96.0897 134.1 96.3697 134.82 96.3697 134.82L104.62 148.4H83.7097L91.8297 134.89C91.8297 134.89 92.0997 134.43 92.2997 133.76C92.4397 133.16 92.4997 132.57 92.4997 132.57V91.8096H87.7097H87.7297Z" fill="#A68238"/>
<path d="M121.95 87.6897V124.98C121.95 124.98 121.89 129.77 118.36 135.3C114.83 140.83 110.77 143.16 110.77 143.16L113.77 148.21C113.77 148.21 119.89 144.35 123.76 138.22C127.56 132.09 128.02 124.97 128.02 124.97V87.6797H121.95V87.6897Z" fill="#003873"/>
<path d="M78.0098 62.7202C78.0098 62.7202 75.9498 51.4802 84.1998 45.8702C84.1998 45.8702 87.9298 42.4102 93.9798 42.4102C100.45 42.4102 104.17 45.8002 104.17 45.8002C113.16 52.3802 110.5 62.7102 110.5 62.7102H78.0098V62.7202Z" fill="#A68238"/>
<path d="M29.5409 155.8H22.2109V42.4199H29.5409V42.6699H22.4609V155.55H29.5409V155.8Z" fill="#231815"/>
<path d="M29.5409 178.48H22.2109V155.8H29.5409V156.05H22.4609V178.23H29.5409V178.48Z" fill="#231815"/>
<path d="M57.8402 16.7497H57.5902V9.67969H35.4102V16.7497H35.1602V9.42969H57.8402V16.7497Z" fill="#231815"/>
<path d="M153.34 188.42H130.66V181.09H130.91V188.17H153.09V181.09H153.34V188.42Z" fill="#231815"/>
<path d="M163.66 42.4202H156.34V42.1702H163.41V19.9902H156.34V19.7402H163.66V42.4202Z" fill="#231815"/>
<path d="M18.2898 101.98H17.3098L15.6498 99.69L13.9898 101.98H13.0098L15.1798 99.07L13.1098 96.29H14.0798L15.6598 98.47L17.2398 96.29H18.2198L16.1298 99.08L18.2998 101.98H18.2898Z" fill="#231815"/>
<path d="M4.08977 168.67V169.35H0.759766V168.67H2.00977V164.64L0.849766 165.36V164.6L2.35977 163.66H2.83977V168.68H4.08977V168.67Z" fill="#231815"/>
<path d="M4.28906 169.8L6.34906 163.34H7.05906L4.98906 169.8H4.28906V169.8Z" fill="#231815"/>
<path d="M10.3703 165.959C10.6403 166.109 10.8503 166.329 10.9903 166.599C11.1403 166.879 11.2103 167.189 11.2103 167.549C11.2103 167.909 11.1303 168.239 10.9703 168.519C10.8103 168.799 10.5703 169.009 10.2703 169.169C9.97031 169.319 9.61031 169.399 9.21031 169.399C8.86031 169.399 8.51031 169.339 8.17031 169.219C7.83031 169.099 7.55031 168.929 7.32031 168.719L7.61031 168.109C8.14031 168.529 8.67031 168.729 9.22031 168.729C9.60031 168.729 9.89031 168.629 10.1003 168.419C10.3103 168.209 10.4203 167.929 10.4203 167.569C10.4203 167.209 10.3103 166.939 10.1003 166.729C9.89031 166.519 9.61031 166.409 9.26031 166.409C8.75031 166.409 8.34031 166.599 8.03031 166.989H7.49031V163.649H10.9803V164.309H8.31031V166.119C8.61031 165.859 8.99031 165.739 9.44031 165.739C9.80031 165.739 10.1103 165.819 10.3803 165.969L10.3703 165.959Z" fill="#231815"/>
<path d="M16.7292 169.339H15.7492L14.0892 167.049L12.4292 169.339H11.4492L13.6192 166.429L11.5492 163.649H12.5192L14.0992 165.829L15.6792 163.649H16.6592L14.5692 166.439L16.7392 169.339H16.7292Z" fill="#231815"/>
<path d="M45.33 5.33031V6.01031H42V5.33031H43.25V1.30031L42.09 2.02031V1.26031L43.6 0.320312H44.08V5.33031H45.33Z" fill="#231815"/>
<path d="M45.5391 6.46L47.5991 0H48.3091L46.2391 6.46H45.5391Z" fill="#231815"/>
<path d="M51.6203 2.62957C51.8903 2.77957 52.1003 2.99957 52.2403 3.26957C52.3903 3.54957 52.4603 3.85957 52.4603 4.21957C52.4603 4.57957 52.3803 4.90957 52.2203 5.18957C52.0603 5.46957 51.8203 5.67957 51.5203 5.83957C51.2203 5.98957 50.8603 6.06957 50.4603 6.06957C50.1103 6.06957 49.7603 6.00957 49.4203 5.88957C49.0803 5.76957 48.8003 5.59957 48.5703 5.38957L48.8603 4.77957C49.3903 5.19957 49.9203 5.39957 50.4703 5.39957C50.8503 5.39957 51.1403 5.29957 51.3503 5.08957C51.5603 4.87957 51.6703 4.59957 51.6703 4.23957C51.6703 3.87957 51.5603 3.60957 51.3503 3.39957C51.1403 3.18957 50.8603 3.07957 50.5103 3.07957C50.0003 3.07957 49.5903 3.26957 49.2803 3.65957H48.7403V0.30957H52.2303V0.97957H49.5603V2.78957C49.8603 2.52957 50.2403 2.40957 50.6903 2.40957C51.0503 2.40957 51.3603 2.48957 51.6303 2.63957L51.6203 2.62957Z" fill="#231815"/>
<path d="M57.9695 6.01031H56.9895L55.3295 3.72031L53.6695 6.01031H52.6895L54.8595 3.10031L52.7895 0.320312H53.7595L55.3395 2.50031L56.9195 0.320312H57.8995L55.8095 3.11031L57.9795 6.01031H57.9695Z" fill="#231815"/>
<path d="M140.711 197.199V197.879H137.381V197.199H138.631V193.169L137.471 193.889V193.129L138.981 192.189H139.461V197.209H140.711V197.199Z" fill="#231815"/>
<path d="M140.91 198.34L142.97 191.88H143.68L141.61 198.34H140.91V198.34Z" fill="#231815"/>
<path d="M147.001 194.499C147.271 194.649 147.481 194.869 147.621 195.139C147.771 195.419 147.841 195.729 147.841 196.089C147.841 196.449 147.761 196.779 147.601 197.059C147.441 197.339 147.201 197.549 146.901 197.709C146.601 197.859 146.241 197.939 145.841 197.939C145.491 197.939 145.141 197.879 144.801 197.759C144.461 197.639 144.181 197.469 143.951 197.259L144.241 196.649C144.771 197.069 145.301 197.269 145.851 197.269C146.231 197.269 146.521 197.169 146.731 196.959C146.941 196.749 147.051 196.469 147.051 196.109C147.051 195.749 146.941 195.479 146.731 195.269C146.521 195.059 146.241 194.949 145.891 194.949C145.381 194.949 144.971 195.139 144.661 195.529H144.121V192.189H147.611V192.849H144.941V194.659C145.241 194.399 145.621 194.279 146.071 194.279C146.431 194.279 146.741 194.359 147.011 194.509L147.001 194.499Z" fill="#231815"/>
<path d="M153.35 197.879H152.37L150.71 195.589L149.05 197.879H148.07L150.24 194.969L148.17 192.189H149.14L150.72 194.369L152.3 192.189H153.28L151.19 194.979L153.36 197.879H153.35Z" fill="#231815"/>
<path d="M173.461 32.6106V33.2906H170.131V32.6106H171.381V28.5806L170.221 29.3006V28.5406L171.731 27.6006H172.211V32.6206H173.461V32.6106Z" fill="#231815"/>
<path d="M173.66 33.7403L175.72 27.2803H176.43L174.36 33.7403H173.66V33.7403Z" fill="#231815"/>
<path d="M179.741 29.9106C180.011 30.0606 180.221 30.2806 180.361 30.5506C180.511 30.8306 180.581 31.1406 180.581 31.5006C180.581 31.8606 180.501 32.1906 180.341 32.4706C180.181 32.7506 179.941 32.9606 179.641 33.1206C179.341 33.2706 178.981 33.3506 178.581 33.3506C178.231 33.3506 177.881 33.2906 177.541 33.1706C177.201 33.0506 176.921 32.8806 176.691 32.6706L176.981 32.0606C177.511 32.4806 178.041 32.6806 178.591 32.6806C178.971 32.6806 179.261 32.5806 179.471 32.3706C179.681 32.1606 179.791 31.8806 179.791 31.5206C179.791 31.1606 179.691 30.8906 179.471 30.6806C179.261 30.4706 178.981 30.3606 178.631 30.3606C178.121 30.3606 177.711 30.5506 177.401 30.9406H176.861V27.6006H180.351V28.2606H177.681V30.0706C177.981 29.8106 178.361 29.6906 178.811 29.6906C179.171 29.6906 179.481 29.7706 179.751 29.9206L179.741 29.9106Z" fill="#231815"/>
<path d="M186.091 33.2906H185.111L183.451 31.0006L181.791 33.2906H180.811L182.981 30.3806L180.911 27.6006H181.881L183.461 29.7806L185.041 27.6006H186.021L183.931 30.3906L186.101 33.2906H186.091Z" fill="#231815"/>
<path d="M153.089 178.48H35.0391V19.7402H153.089V178.48ZM35.2891 178.23H152.839V19.9902H35.2891V178.23V178.23Z" fill="#231815"/>
<path d="M57.9609 19.7402H57.7109V178.48H57.9609V19.7402Z" fill="#231815"/>
<path d="M130.66 19.7402H130.41V178.48H130.66V19.7402Z" fill="#231815"/>
<path d="M153.089 42.4199H35.0391V42.6699H153.089V42.4199Z" fill="#231815"/>
<path d="M153.089 155.55H35.0391V155.8H153.089V155.55Z" fill="#231815"/>
</svg>
