<svg width="308" height="59" viewBox="0 0 308 59" fill="none" xmlns="http://www.w3.org/2000/svg">
<path d="M49.4803 58.91H41.8203V0H49.4803V0.2H42.0203V58.7H49.4803V58.91Z" fill="#231815"/>
<path d="M264.861 58.9H257.201V58.7H264.651V0.2H257.201V0H264.861V58.9Z" fill="#231815"/>
<path d="M0.00999832 18.6299H2.57C3.23 18.6299 3.74 18.7899 4.11 19.1099C4.48 19.4299 4.66 19.8699 4.66 20.4199C4.66 20.9699 4.47 21.4199 4.1 21.7399C3.73 22.0599 3.21 22.2199 2.56 22.2199H0.740002V25.0399H0V18.6299H0.00999832ZM2.5 21.6099C2.97 21.6099 3.33 21.5099 3.57 21.2999C3.81 21.0999 3.93 20.7999 3.93 20.4199C3.93 20.0399 3.81 19.7399 3.57 19.5399C3.33 19.3399 2.97 19.2399 2.5 19.2399H0.740002V21.6099H2.5V21.6099Z" fill="#231815"/>
<path d="M10.9009 25.0406H10.1209L9.33086 22.9106C9.23086 22.6506 9.10086 22.4706 8.93086 22.3806C8.76086 22.2906 8.52086 22.2506 8.21086 22.2506H6.61086V25.0506H5.88086V18.6406H8.43086C9.12086 18.6406 9.65086 18.7906 10.0209 19.1006C10.3909 19.4106 10.5709 19.8506 10.5709 20.4206C10.5709 20.8406 10.4609 21.1906 10.2409 21.4806C10.0209 21.7706 9.70086 21.9706 9.29086 22.0906C9.48086 22.1206 9.63086 22.2006 9.77086 22.3306C9.90086 22.4606 10.0109 22.6406 10.1009 22.8806L10.9109 25.0506L10.9009 25.0406ZM8.35086 21.6306C9.33086 21.6306 9.83086 21.2306 9.83086 20.4206C9.83086 20.0206 9.71086 19.7306 9.47086 19.5306C9.23086 19.3406 8.86086 19.2406 8.35086 19.2406H6.60086V21.6206H8.35086V21.6306Z" fill="#231815"/>
<path d="M12.0996 18.6299H12.8396V25.0399H12.0996V18.6299Z" fill="#231815"/>
<path d="M19.5697 18.6299V25.0399H18.9897L15.1197 19.8799V25.0399H14.4297V18.6299H14.9997L18.8697 23.7899V18.6299H19.5697V18.6299Z" fill="#231815"/>
<path d="M22.6909 19.2599H20.4609V18.6299H25.6709V19.2599H23.4409V25.0399H22.6909V19.2599V19.2599Z" fill="#231815"/>
<path d="M26 24.3003L26.28 23.7303C26.6 24.0003 26.92 24.1903 27.25 24.3103C27.58 24.4203 27.96 24.4803 28.4 24.4803C28.92 24.4803 29.31 24.3803 29.59 24.1803C29.87 23.9803 30.01 23.7003 30.01 23.3303C30.01 23.1103 29.94 22.9403 29.81 22.8003C29.67 22.6703 29.5 22.5603 29.28 22.4803C29.06 22.4003 28.77 22.3203 28.4 22.2403C27.91 22.1303 27.5 22.0103 27.19 21.8903C26.87 21.7603 26.61 21.5803 26.42 21.3503C26.22 21.1103 26.12 20.8003 26.12 20.4203C26.12 20.0403 26.22 19.7303 26.41 19.4503C26.6 19.1703 26.87 18.9503 27.22 18.8003C27.57 18.6503 27.98 18.5703 28.45 18.5703C28.92 18.5703 29.31 18.6403 29.69 18.7803C30.07 18.9203 30.4 19.1203 30.66 19.3803L30.37 19.9503C30.07 19.6903 29.77 19.5003 29.46 19.3803C29.15 19.2603 28.81 19.2003 28.45 19.2003C27.95 19.2003 27.56 19.3103 27.28 19.5203C27 19.7303 26.86 20.0203 26.86 20.4003C26.86 20.7203 26.98 20.9703 27.23 21.1303C27.48 21.2903 27.85 21.4303 28.36 21.5503C28.91 21.6803 29.35 21.8003 29.66 21.9103C29.97 22.0203 30.24 22.1903 30.45 22.4103C30.66 22.6403 30.76 22.9303 30.76 23.3103C30.76 23.6903 30.66 23.9903 30.47 24.2603C30.28 24.5303 30 24.7403 29.65 24.8903C29.29 25.0403 28.87 25.1203 28.39 25.1203C27.39 25.1203 26.59 24.8503 26 24.3103V24.3003Z" fill="#231815"/>
<path d="M4.22977 36.3499V37.0399H0.259766V36.3499H1.82977V30.9399L0.369766 31.8699V31.0799L2.18977 29.9199H2.65977V36.3499H4.22977Z" fill="#AA8420"/>
<path d="M6.12047 36.1898C5.70047 35.5698 5.48047 34.6698 5.48047 33.4798C5.48047 32.2898 5.69047 31.3798 6.12047 30.7598C6.54047 30.1398 7.16047 29.8398 7.97047 29.8398C8.78047 29.8398 9.40047 30.1498 9.82047 30.7598C10.2405 31.3798 10.4605 32.2798 10.4605 33.4698C10.4605 34.6598 10.2505 35.5698 9.82047 36.1898C9.40047 36.8098 8.78047 37.1198 7.97047 37.1198C7.16047 37.1198 6.54047 36.8098 6.12047 36.1998V36.1898ZM9.23047 35.6998C9.50047 35.2198 9.64047 34.4698 9.64047 33.4598C9.64047 32.4498 9.51047 31.7098 9.24047 31.2398C8.97047 30.7698 8.55047 30.5298 7.98047 30.5298C7.41047 30.5298 7.00047 30.7698 6.73047 31.2398C6.46047 31.7098 6.32047 32.4498 6.32047 33.4598C6.32047 34.4698 6.46047 35.2098 6.73047 35.6998C7.00047 36.1898 7.42047 36.4198 7.98047 36.4198C8.54047 36.4198 8.96047 36.1798 9.23047 35.6998Z" fill="#AA8420"/>
<path d="M21.6191 33.8797V37.0396H20.8091V33.9196C20.8091 33.4496 20.7291 33.0996 20.5591 32.8896C20.3991 32.6796 20.1291 32.5696 19.7691 32.5696C19.3391 32.5696 19.0091 32.7096 18.7691 32.9996C18.5291 33.2896 18.4091 33.6796 18.4091 34.1696V37.0396H17.5991V33.9196C17.5991 33.4496 17.5191 33.1097 17.3491 32.8997C17.1791 32.6797 16.9191 32.5696 16.5491 32.5696C16.1191 32.5696 15.7891 32.7096 15.5491 32.9996C15.3091 33.2896 15.1791 33.6796 15.1791 34.1696V37.0396H14.3691V33.4196C14.3691 32.8996 14.3391 32.4296 14.2891 32.0096H15.0591L15.1391 32.8896C15.2791 32.5696 15.4891 32.3197 15.7591 32.1497C16.0391 31.9797 16.3591 31.8896 16.7291 31.8896C17.1291 31.8896 17.4591 31.9697 17.7091 32.1297C17.9591 32.2897 18.1491 32.5396 18.2691 32.8696C18.4191 32.5696 18.6491 32.3296 18.9391 32.1596C19.2391 31.9796 19.5691 31.8896 19.9391 31.8896C21.0491 31.8896 21.6091 32.5497 21.6091 33.8797H21.6191Z" fill="#AA8420"/>
<path d="M30.4101 33.8797V37.0396H29.6001V33.9196C29.6001 33.4496 29.5201 33.0996 29.3501 32.8896C29.1901 32.6796 28.9201 32.5696 28.5601 32.5696C28.1301 32.5696 27.8001 32.7096 27.5601 32.9996C27.3201 33.2896 27.2001 33.6796 27.2001 34.1696V37.0396H26.3901V33.9196C26.3901 33.4496 26.3101 33.1097 26.1401 32.8997C25.9701 32.6797 25.7101 32.5696 25.3401 32.5696C24.9101 32.5696 24.5801 32.7096 24.3401 32.9996C24.1001 33.2896 23.9701 33.6796 23.9701 34.1696V37.0396H23.1601V33.4196C23.1601 32.8996 23.1301 32.4296 23.0801 32.0096H23.8501L23.9301 32.8896C24.0701 32.5696 24.2801 32.3197 24.5501 32.1497C24.8301 31.9797 25.1501 31.8896 25.5201 31.8896C25.9201 31.8896 26.2501 31.9697 26.5001 32.1297C26.7501 32.2897 26.9401 32.5396 27.0601 32.8696C27.2101 32.5696 27.4401 32.3296 27.7301 32.1596C28.0301 31.9796 28.3601 31.8896 28.7301 31.8896C29.8401 31.8896 30.4001 32.5497 30.4001 33.8797H30.4101Z" fill="#AA8420"/>
<path d="M277.19 24.7098C276.75 24.4498 276.41 24.0698 276.18 23.5698C275.94 23.0798 275.82 22.4898 275.82 21.8298C275.82 21.1698 275.94 20.5798 276.17 20.0798C276.4 19.5898 276.74 19.2098 277.18 18.9498C277.62 18.6898 278.14 18.5498 278.74 18.5498C279.34 18.5498 279.86 18.6798 280.3 18.9498C280.74 19.2098 281.07 19.5898 281.31 20.0798C281.54 20.5698 281.66 21.1498 281.66 21.8198C281.66 22.4898 281.54 23.0698 281.3 23.5698C281.06 24.0698 280.73 24.4398 280.29 24.7098C279.85 24.9798 279.34 25.1098 278.74 25.1098C278.14 25.1098 277.63 24.9798 277.19 24.7098ZM280.32 23.7798C280.7 23.3198 280.89 22.6598 280.89 21.8198C280.89 20.9798 280.7 20.3198 280.33 19.8698C279.96 19.4198 279.43 19.1898 278.74 19.1898C278.05 19.1898 277.53 19.4198 277.15 19.8798C276.77 20.3398 276.58 20.9898 276.58 21.8298C276.58 22.6698 276.77 23.3298 277.15 23.7898C277.53 24.2498 278.06 24.4798 278.74 24.4798C279.42 24.4798 279.95 24.2498 280.32 23.7898V23.7798Z" fill="#231815"/>
<path d="M288.14 18.6299V25.0399H287.56L283.69 19.8799V25.0399H283V18.6299H283.57L287.44 23.7899V18.6299H288.14Z" fill="#231815"/>
<path d="M289.721 18.6299H290.461V24.4099H293.671V25.0399H289.721V18.6299Z" fill="#231815"/>
<path d="M294.621 18.6299H295.361V25.0399H294.621V18.6299Z" fill="#231815"/>
<path d="M302.079 18.6299V25.0399H301.499L297.629 19.8799V25.0399H296.939V18.6299H297.509L301.379 23.7899V18.6299H302.079Z" fill="#231815"/>
<path d="M303.66 18.6301H307.71V19.2401H304.39V21.4701H307.53V22.0901H304.39V24.4201H307.71V25.0301H303.66V18.6201V18.6301Z" fill="#231815"/>
<path d="M280.94 35.4899H279.86V37.0399H279.04V35.4899H275.76V34.8699L279.19 29.9199H279.86V34.8099H280.94V35.4899V35.4899ZM279.04 34.8099V31.3099L276.61 34.8099H279.04Z" fill="#AA8420"/>
<path d="M285.739 32.8502C286.079 33.0402 286.329 33.3002 286.519 33.6402C286.699 33.9802 286.789 34.3702 286.789 34.8202C286.789 35.2702 286.689 35.6602 286.499 36.0102C286.309 36.3602 286.019 36.6202 285.659 36.8102C285.299 37.0002 284.869 37.1002 284.379 37.1002C283.949 37.1002 283.519 37.0202 283.099 36.8602C282.679 36.7002 282.329 36.4902 282.039 36.2202L282.349 35.5902C283.009 36.1402 283.689 36.4102 284.379 36.4102C284.879 36.4102 285.269 36.2702 285.559 35.9902C285.839 35.7102 285.979 35.3202 285.979 34.8302C285.979 34.3402 285.839 33.9802 285.559 33.6902C285.279 33.4002 284.909 33.2502 284.439 33.2502C283.759 33.2502 283.219 33.5302 282.809 34.0802H282.239V29.9102H286.509V30.5902H283.059V33.1302C283.449 32.7502 283.959 32.5602 284.569 32.5602C285.019 32.5602 285.409 32.6502 285.739 32.8502V32.8502Z" fill="#AA8420"/>
<path d="M294.33 32.2206C294.67 32.4406 294.93 32.7506 295.12 33.1506C295.31 33.5506 295.4 34.0006 295.4 34.5306C295.4 35.0606 295.31 35.5006 295.12 35.8906C294.93 36.2806 294.67 36.5806 294.33 36.8006C293.99 37.0106 293.6 37.1206 293.16 37.1206C292.77 37.1206 292.42 37.0306 292.13 36.8606C291.84 36.6906 291.61 36.4406 291.46 36.1206V39.2106H290.65V33.4306C290.65 32.9106 290.62 32.4406 290.57 32.0206H291.34L291.42 32.9906C291.56 32.6406 291.78 32.3706 292.09 32.1806C292.39 31.9906 292.75 31.8906 293.17 31.8906C293.61 31.8906 294 32.0006 294.34 32.2206H294.33ZM294.16 35.9406C294.43 35.6106 294.57 35.1306 294.57 34.5206C294.57 33.9106 294.43 33.4306 294.16 33.0806C293.89 32.7406 293.51 32.5706 293.02 32.5706C292.53 32.5706 292.14 32.7406 291.87 33.0706C291.6 33.4006 291.47 33.8806 291.47 34.5006C291.47 35.1206 291.6 35.6006 291.87 35.9306C292.14 36.2706 292.52 36.4406 293.02 36.4406C293.52 36.4406 293.9 36.2706 294.16 35.9406Z" fill="#AA8420"/>
<path d="M301.011 37.0398H300.041L298.451 35.0598L296.881 37.0398H295.891L297.981 34.4498L296.011 32.0098H296.991L298.451 33.8598L299.911 32.0098H300.901L298.941 34.4498L301.011 37.0398V37.0398Z" fill="#AA8420"/>
<path d="M87.3 12.0598C87.58 11.7098 87.68 11.0898 87.68 11.0898H71C71 11.0898 71.21 11.7798 71.38 12.0598H87.3Z" fill="#A68238"/>
<path d="M86.3295 13.4696C86.6395 13.1896 86.9595 12.6396 86.9595 12.6396H71.6895C71.6895 12.6396 71.8595 13.0496 72.2395 13.4696H86.3295Z" fill="#A68238"/>
<path d="M85.1298 14.7499C85.5098 14.5399 85.8198 14.1299 85.8198 14.1299H72.7598C72.7598 14.1299 73.0698 14.4799 73.3798 14.7499H85.1298Z" fill="#A68238"/>
<path d="M83.599 15.9597C83.979 15.8197 84.389 15.4697 84.389 15.4697H74.209C74.209 15.4697 74.209 15.5497 74.929 15.9597H83.599V15.9597Z" fill="#A68238"/>
<path d="M76.1094 16.7197C76.1094 16.7197 77.1794 17.3497 79.2894 17.3497C81.3994 17.3497 82.7394 16.7197 82.7394 16.7197H76.1094V16.7197Z" fill="#A68238"/>
<path d="M75.9294 18.1299C75.9294 18.1299 77.2094 18.1999 77.9594 18.7799C78.6894 19.3999 79.2394 20.4399 79.2394 20.4399C79.2394 20.4399 79.6894 19.4399 80.4194 18.9199C81.1394 18.3599 82.3194 18.1299 82.3194 18.1299H95.4794L98.0694 21.9599H86.2494C86.2494 21.9599 85.4194 21.9899 84.1794 22.7199C83.5194 23.0999 83.0394 23.7499 83.0394 23.7499C83.0394 23.7499 82.9394 24.0599 82.7994 24.2299C82.6594 24.4099 82.5594 24.5499 82.3894 24.6099C82.2094 24.6799 82.2494 24.6399 82.2494 24.6399H76.0994C76.0994 24.6399 75.8494 24.5399 75.7194 24.3299C75.5794 24.1199 75.6794 24.1899 75.5494 24.0299C75.4494 23.8599 75.1994 23.4099 74.2694 22.7899C73.2994 22.1599 72.3694 22.0999 72.3694 22.0999H60.3594L62.9794 18.1299H75.9394H75.9294Z" fill="#003873"/>
<path d="M66.6389 23.5596V43.1796C66.6389 43.1796 66.7089 44.9096 68.1589 47.2596C69.6089 49.6096 71.7089 50.6796 71.7089 50.6796L73.3689 48.0896C73.3689 48.0896 71.9189 47.2196 70.8089 45.5596C69.7389 43.9096 69.7389 42.4896 69.7389 42.4896V23.5596H66.6289H66.6389Z" fill="#003873"/>
<path d="M88.8796 23.4902V42.4102C88.8796 42.4102 88.6396 44.3102 87.7396 45.6602C86.8396 47.0402 85.3496 48.1502 85.3496 48.1502L86.9496 50.7002C86.9496 50.7002 89.3596 48.9402 90.5396 47.0702C91.7196 45.2102 91.9996 42.4102 91.9996 42.4102V23.4902H88.8896H88.8796Z" fill="#003873"/>
<path d="M61.709 23.5596V43.2496C61.709 43.2496 61.909 46.2896 63.809 49.4696C65.719 52.6396 69.159 54.8596 69.159 54.8596L70.789 52.2696C70.789 52.2696 68.579 51.0996 66.819 48.3996C65.019 45.6696 64.919 43.1796 64.919 43.1796V23.5596H61.709V23.5596Z" fill="#003873"/>
<path d="M75.9284 25.6299V46.4199C75.9284 46.4199 75.8484 46.4899 75.8284 46.7999C75.7884 47.1199 75.5884 47.3199 75.5884 47.3199L68.6484 58.8199H89.9284L82.9784 47.0699L82.7684 46.5499L82.6984 45.9999V25.6599H80.1084V46.7699C80.1084 46.7699 80.1084 47.0699 80.2084 47.3199C80.2784 47.5599 80.4184 47.9399 80.4184 47.9399L84.6984 54.9899H73.8584L78.0684 47.9799C78.0684 47.9799 78.2084 47.7399 78.3084 47.3899C78.3784 47.0799 78.4084 46.7699 78.4084 46.7699V25.6299H75.9284V25.6299Z" fill="#A68238"/>
<path d="M93.6887 23.4902V42.8302C93.6887 42.8302 93.6587 45.3202 91.8287 48.1802C89.9987 51.0502 87.8887 52.2602 87.8887 52.2602L89.4487 54.8802C89.4487 54.8802 92.6187 52.8802 94.6287 49.7002C96.5987 46.5202 96.8387 42.8302 96.8387 42.8302V23.4902H93.6887Z" fill="#003873"/>
<path d="M70.8884 10.53C70.8884 10.53 69.8184 4.7 74.0984 1.79C74.0984 1.79 76.0384 0 79.1784 0C82.5284 0 84.4584 1.76 84.4584 1.76C89.1184 5.18 87.7384 10.53 87.7384 10.53H70.8884V10.53Z" fill="#A68238"/>
<path d="M109.79 27.9904H108.59V19.5004H106.32V18.4004H112.06V19.5004H109.79V27.9904Z" fill="#003873"/>
<path d="M118.789 22.2704V18.4004H119.989V27.9904H118.789V23.3904H114.229V27.9904H113.029V18.4004H114.229V22.2704H118.789Z" fill="#003873"/>
<path d="M121.85 18.4004H127V19.5004H123.04V22.1804H126.88V23.2804H123.04V26.9004H127V27.9904H121.85V18.4004Z" fill="#003873"/>
<path d="M138.061 22.2704V18.4004H139.251V27.9904H138.061V23.3904H133.491V27.9904H132.301V18.4004H133.491V22.2704H138.061Z" fill="#003873"/>
<path d="M149.289 23.2002C149.289 21.0902 147.709 19.3202 145.459 19.3202C143.209 19.3202 141.629 21.0902 141.629 23.2002C141.629 25.3102 143.379 27.0802 145.459 27.0802C147.539 27.0802 149.289 25.3902 149.289 23.2002ZM150.489 23.2002C150.489 26.0502 148.239 28.2002 145.469 28.2002C142.699 28.2002 140.449 26.0502 140.449 23.2002C140.449 20.3502 142.729 18.2002 145.469 18.2002C148.209 18.2002 150.489 20.4502 150.489 23.2002Z" fill="#003873"/>
<path d="M151.66 17.9502L158.85 25.4902V18.4102H160.05V28.3902L152.85 20.8502V27.9902H151.66V17.9502Z" fill="#003873"/>
<path d="M170.62 23.1602V23.5402C170.62 26.1702 168.76 28.1902 166.08 28.1902C163.4 28.1902 161.23 25.8802 161.23 23.2202C161.23 20.5602 163.44 18.2002 166.2 18.2002C167.69 18.2002 169.16 18.8702 170.11 20.0602L169.27 20.8602C168.58 19.9202 167.42 19.3002 166.26 19.3002C164.11 19.3002 162.43 21.0402 162.43 23.1902C162.43 25.2002 164.08 27.1102 166.16 27.1102C167.65 27.1102 169.25 25.8202 169.3 24.2602H166.82V23.1702H170.62V23.1602Z" fill="#003873"/>
<path d="M180.99 18.4004H182.56L178.25 22.7204L182.64 27.9904H181.02L177.41 23.5304L176.93 23.9904V27.9904H175.73V18.4004H176.93V22.5604L180.99 18.4004Z" fill="#003873"/>
<path d="M191.67 23.2002C191.67 21.0902 190.09 19.3202 187.84 19.3202C185.59 19.3202 184.01 21.0902 184.01 23.2002C184.01 25.3102 185.77 27.0802 187.84 27.0802C189.91 27.0802 191.67 25.3902 191.67 23.2002ZM192.86 23.2002C192.86 26.0502 190.61 28.2002 187.84 28.2002C185.07 28.2002 182.82 26.0502 182.82 23.2002C182.82 20.3502 185.1 18.2002 187.84 18.2002C190.58 18.2002 192.86 20.4502 192.86 23.2002Z" fill="#003873"/>
<path d="M194.029 17.9502L201.229 25.4902V18.4102H202.429V28.3902L195.229 20.8502V27.9902H194.029V17.9502Z" fill="#003873"/>
<path d="M213.001 23.1602V23.5402C213.001 26.1702 211.141 28.1902 208.461 28.1902C205.781 28.1902 203.611 25.8802 203.611 23.2202C203.611 20.5602 205.821 18.2002 208.581 18.2002C210.071 18.2002 211.541 18.8702 212.491 20.0602L211.651 20.8602C210.961 19.9202 209.801 19.3002 208.641 19.3002C206.491 19.3002 204.811 21.0402 204.811 23.1902C204.811 25.2002 206.461 27.1102 208.541 27.1102C210.031 27.1102 211.631 25.8202 211.681 24.2602H209.201V23.1702H213.001V23.1602Z" fill="#003873"/>
<path d="M108.241 33.6602V39.3202C108.241 40.8802 108.711 42.3302 110.561 42.3302C112.411 42.3302 112.871 40.8802 112.871 39.3202V33.6602H114.071V39.7302C114.071 41.8402 112.761 43.4502 110.561 43.4502C108.361 43.4502 107.051 41.8402 107.051 39.7302V33.6602H108.251H108.241Z" fill="#003873"/>
<path d="M115.73 33.2002L122.93 40.7502V33.6602H124.12V43.6502L116.92 36.1002V43.2502H115.73V33.2002Z" fill="#003873"/>
<path d="M127.11 33.6602H125.91V43.2502H127.11V33.6602Z" fill="#003873"/>
<path d="M132.199 40.7602L135.049 33.6602H136.359L132.199 43.7602L128.029 33.6602H129.339L132.199 40.7602Z" fill="#003873"/>
<path d="M137.301 33.6602H142.451V34.7602H138.491V37.4402H142.331V38.5302H138.491V42.1602H142.451V43.2502H137.301V33.6602Z" fill="#003873"/>
<path d="M145.251 38.2002H145.631C146.851 38.2002 148.171 37.9702 148.171 36.4502C148.171 34.9302 146.741 34.7302 145.561 34.7302H145.241V38.2002H145.251ZM150.021 43.2502H148.571L145.751 39.1902H145.261V43.2502H144.061V33.6602H145.511C146.361 33.6602 147.281 33.6702 148.041 34.1102C148.841 34.5802 149.301 35.4802 149.301 36.4002C149.301 37.7702 148.381 38.9202 147.001 39.0802L150.031 43.2502H150.021Z" fill="#003873"/>
<path d="M155.34 35.48C154.99 34.88 154.53 34.58 153.8 34.58C153.04 34.58 152.2 35.1 152.2 35.94C152.2 36.69 152.94 37.08 153.54 37.31L154.23 37.58C155.59 38.11 156.61 38.86 156.61 40.47C156.61 42.21 155.26 43.46 153.55 43.46C152 43.46 150.79 42.32 150.59 40.78L151.8 40.52C151.79 41.58 152.63 42.34 153.66 42.34C154.69 42.34 155.43 41.48 155.43 40.47C155.43 39.46 154.6 39 153.78 38.65L153.12 38.37C152.03 37.9 151.04 37.27 151.04 35.94C151.04 34.39 152.41 33.46 153.86 33.46C154.93 33.46 155.8 33.98 156.33 34.91L155.37 35.48H155.34Z" fill="#003873"/>
<path d="M159.19 33.6602H158V43.2502H159.19V33.6602Z" fill="#003873"/>
<path d="M163.7 43.2502H162.5V34.7602H160.23V33.6602H165.98V34.7602H163.7V43.2502Z" fill="#003873"/>
<path d="M166.051 33.6602H167.431L169.781 37.7602L172.131 33.6602H173.511L170.381 39.0802V43.2502H169.181V39.0802L166.051 33.6602Z" fill="#003873"/>
<path d="M186.44 38.46C186.44 36.35 184.87 34.58 182.61 34.58C180.35 34.58 178.78 36.35 178.78 38.46C178.78 40.57 180.53 42.34 182.61 42.34C184.69 42.34 186.44 40.65 186.44 38.46ZM187.64 38.46C187.64 41.31 185.39 43.46 182.62 43.46C179.85 43.46 177.6 41.31 177.6 38.46C177.6 35.61 179.88 33.46 182.62 33.46C185.36 33.46 187.64 35.71 187.64 38.46Z" fill="#003873"/>
<path d="M190.1 34.7602V37.4502H193.43V38.5502H190.1V43.2502H188.91V33.6602H193.55V34.7602H190.1Z" fill="#003873"/>
<path d="M203.141 35.48C202.791 34.88 202.331 34.58 201.601 34.58C200.841 34.58 200.001 35.1 200.001 35.94C200.001 36.69 200.741 37.08 201.341 37.31L202.031 37.58C203.391 38.11 204.411 38.86 204.411 40.47C204.411 42.21 203.061 43.46 201.351 43.46C199.801 43.46 198.591 42.32 198.381 40.78L199.591 40.52C199.581 41.58 200.421 42.34 201.451 42.34C202.481 42.34 203.221 41.48 203.221 40.47C203.221 39.46 202.401 39 201.571 38.65L200.911 38.37C199.821 37.9 198.821 37.27 198.821 35.94C198.821 34.39 200.201 33.46 201.651 33.46C202.721 33.46 203.591 33.98 204.121 34.91L203.161 35.48H203.141Z" fill="#003873"/>
<path d="M212.821 35.49C212.141 34.88 211.191 34.55 210.291 34.55C208.141 34.55 206.501 36.34 206.501 38.47C206.501 40.6 208.131 42.36 210.261 42.36C211.201 42.36 212.111 42 212.821 41.37V42.78C212.081 43.21 211.141 43.46 210.301 43.46C207.571 43.46 205.301 41.28 205.301 38.51C205.301 35.74 207.571 33.46 210.401 33.46C211.241 33.46 212.091 33.66 212.821 34.11V35.5V35.49Z" fill="#003873"/>
<path d="M215.52 33.6602H214.33V43.2502H215.52V33.6602Z" fill="#003873"/>
<path d="M217.449 33.6602H222.599V34.7602H218.639V37.4402H222.479V38.5302H218.639V42.1602H222.599V43.2502H217.449V33.6602Z" fill="#003873"/>
<path d="M224.09 33.2002L231.28 40.7502V33.6602H232.48V43.6502L225.28 36.1002V43.2502H224.09V33.2002Z" fill="#003873"/>
<path d="M241.29 35.49C240.61 34.88 239.66 34.55 238.76 34.55C236.61 34.55 234.97 36.34 234.97 38.47C234.97 40.6 236.6 42.36 238.74 42.36C239.68 42.36 240.59 42 241.29 41.37V42.78C240.56 43.21 239.61 43.46 238.77 43.46C236.04 43.46 233.77 41.28 233.77 38.51C233.77 35.74 236.05 33.46 238.87 33.46C239.71 33.46 240.56 33.66 241.28 34.11V35.5L241.29 35.49Z" fill="#003873"/>
<path d="M242.84 33.6602H248V34.7602H244.04V37.4402H247.88V38.5302H244.04V42.1602H248V43.2502H242.84V33.6602Z" fill="#003873"/>
<path d="M110.769 51.1298L112.479 55.0098H109.069L110.769 51.1298ZM106.189 58.5098H107.479L108.569 56.1098H112.969L114.059 58.5098H115.349L110.769 48.5098L106.189 58.5098V58.5098Z" fill="#003873"/>
<path d="M116.16 58.51H117.36V51.36L124.55 58.9V48.92H123.36V56L116.16 48.46V58.51Z" fill="#003873"/>
<path d="M127.48 57.4199H127.9C130.34 57.4199 132.45 56.4999 132.45 53.7199C132.45 50.9399 130.34 50.0199 127.9 50.0199H127.48V57.4199V57.4199ZM126.28 48.9199H128.26C131.2 48.9199 133.64 50.4799 133.64 53.6699C133.64 56.8599 131.25 58.5099 128.22 58.5099H126.27V48.9199H126.28Z" fill="#003873"/>
<path d="M137.881 48.9199V50.0099H140.161V58.5099H141.351V50.0099H143.631V48.9199H137.881Z" fill="#003873"/>
<path d="M144.699 48.9199V58.5099H149.849V57.4199H145.889V53.7899H149.729V52.6999H145.889V50.0099H149.849V48.9199H144.699Z" fill="#003873"/>
<path d="M158.44 50.7497C157.75 50.1397 156.81 49.8097 155.91 49.8097C153.76 49.8097 152.12 51.5997 152.12 53.7297C152.12 55.8597 153.75 57.6197 155.88 57.6197C156.82 57.6197 157.73 57.2597 158.44 56.6297V58.0397C157.7 58.4697 156.76 58.7197 155.92 58.7197C153.19 58.7197 150.92 56.5397 150.92 53.7697C150.92 50.9997 153.2 48.7197 156.02 48.7197C156.86 48.7197 157.71 48.9197 158.44 49.3697V50.7597V50.7497Z" fill="#003873"/>
<path d="M165.651 48.9199V52.7899H161.081V48.9199H159.891V58.5099H161.081V53.9099H165.651V58.5099H166.841V48.9199H165.651Z" fill="#003873"/>
<path d="M168.58 58.51H169.78V51.36L176.98 58.9V48.92H175.78V56L168.58 48.46V58.51Z" fill="#003873"/>
<path d="M186.991 53.71C186.991 51.6 185.411 49.83 183.161 49.83C180.911 49.83 179.331 51.6 179.331 53.71C179.331 55.82 181.081 57.59 183.161 57.59C185.241 57.59 186.991 55.9 186.991 53.71ZM188.181 53.71C188.181 56.56 185.931 58.71 183.161 58.71C180.391 58.71 178.141 56.56 178.141 53.71C178.141 50.86 180.421 48.71 183.161 48.71C185.901 48.71 188.181 50.96 188.181 53.71Z" fill="#003873"/>
<path d="M189.471 48.9199V58.5099H193.581V57.4199H190.661V48.9199H189.471Z" fill="#003873"/>
<path d="M202.67 53.71C202.67 51.6 201.09 49.83 198.84 49.83C196.59 49.83 195.01 51.6 195.01 53.71C195.01 55.82 196.77 57.59 198.84 57.59C200.91 57.59 202.67 55.9 202.67 53.71ZM203.87 53.71C203.87 56.56 201.62 58.71 198.85 58.71C196.08 58.71 193.83 56.56 193.83 53.71C193.83 50.86 196.11 48.71 198.85 48.71C201.59 48.71 203.87 50.96 203.87 53.71Z" fill="#003873"/>
<path d="M213.88 53.68V54.06C213.88 56.69 212.02 58.71 209.34 58.71C206.66 58.71 204.49 56.4 204.49 53.74C204.49 51.08 206.7 48.71 209.46 48.71C210.95 48.71 212.42 49.39 213.37 50.57L212.53 51.37C211.84 50.43 210.68 49.8 209.51 49.8C207.36 49.8 205.68 51.54 205.68 53.69C205.68 55.7 207.33 57.61 209.41 57.61C210.9 57.61 212.5 56.32 212.55 54.76H210.07V53.67H213.87L213.88 53.68Z" fill="#003873"/>
<path d="M220.279 48.9199L217.929 53.0199L215.579 48.9199H214.199L217.329 54.3399V58.5099H218.529V54.3399L221.659 48.9199H220.279Z" fill="#003873"/>
<path d="M112.639 4.96012V7.38012H115.869C114.539 6.86012 113.459 6.05012 112.639 4.96012ZM108.889 11.6601H115.319V10.5101H108.889V11.6601ZM115.319 8.47012H108.889V9.46012H115.319V8.47012ZM108.429 7.37012H111.409V4.96012C110.649 6.04012 109.659 6.84012 108.429 7.37012ZM116.539 7.67012V13.3401H115.329V12.7401H108.899V13.3401H107.689V7.75012C107.469 7.85012 107.099 7.98012 106.579 8.16012L105.949 7.00012C107.539 6.62012 108.919 5.93012 110.089 4.95012H106.049V3.87012H111.419V2.81012C109.459 2.86012 108.049 2.89012 107.199 2.89012L106.769 1.69012C107.269 1.71012 107.879 1.72012 108.609 1.72012C112.089 1.72012 114.719 1.52012 116.499 1.12012L117.059 2.19012C115.879 2.43012 114.399 2.63012 112.639 2.78012V3.88012H118.149V4.96012H113.939C114.929 5.92012 116.369 6.58012 118.249 6.96012L117.669 8.15012C117.499 8.07012 117.299 8.00012 117.099 7.94012C116.889 7.88012 116.699 7.80012 116.529 7.70012" fill="#003477"/>
<path d="M128.85 4.89039H131.23V3.61039H128.85V4.89039ZM129.14 5.99039C128.95 6.43039 128.69 6.83039 128.37 7.17039H131.7C131.41 6.85039 131.15 6.45039 130.9 5.99039H129.14ZM128.15 9.48039H131.16V8.20039H128.15V9.48039ZM125.92 2.51039H127.66V1.15039H128.85V2.51039H131.23V1.15039H132.41V2.51039H134.57V3.54039H132.41V4.89039H134.76V5.99039H132.26C132.61 6.70039 133.49 7.40039 134.9 8.09039L134.34 9.25039C133.54 8.77039 132.88 8.30039 132.35 7.82039V10.5004H128.14V11.3404C128.14 11.6504 128.29 11.8004 128.6 11.8004H132.48C132.85 11.8004 133.06 11.6704 133.13 11.4004C133.2 11.1204 133.27 10.6404 133.33 9.95039L134.59 10.4104C134.45 11.6204 134.26 12.3504 134.03 12.5904C133.8 12.8304 133.35 12.9404 132.68 12.9404H128.44C127.88 12.9404 127.49 12.8404 127.26 12.6304C127.04 12.4104 126.93 12.0104 126.93 11.4104V8.48039C126.71 8.66039 126.31 8.94039 125.73 9.30039L124.99 8.20039C126.44 7.55039 127.35 6.81039 127.73 5.99039H125.64V4.89039H127.64V3.58039H125.9V2.88039L125.1 3.87039C124.39 3.22039 123.74 2.71039 123.15 2.34039L124.01 1.37039C124.75 1.84039 125.38 2.27039 125.89 2.67039V2.50039L125.92 2.51039ZM124.64 7.18039C123.93 6.58039 123.32 6.11039 122.81 5.77039L123.59 4.79039C124.21 5.12039 124.85 5.54039 125.52 6.06039L124.63 7.18039H124.64ZM125.45 9.30039C125.09 10.7104 124.54 12.0104 123.79 13.2004L122.74 12.1304C123.51 11.0404 124.03 9.88039 124.31 8.64039L125.45 9.31039V9.30039Z" fill="#003477"/>
<path d="M148.01 4.59027C147.04 3.81027 146.26 3.24027 145.66 2.88027L146.44 2.02027C147.01 2.33027 147.8 2.87027 148.83 3.62027L148.01 4.60027V4.59027ZM147.77 7.77027C146.87 7.02027 146.08 6.44027 145.39 6.03027L146.16 5.15027C146.81 5.49027 147.62 6.03027 148.58 6.76027L147.77 7.77027ZM144.92 10.4203V9.21027L149.3 8.56027V1.03027H150.51V8.40027L151.69 8.20027V9.39027L150.51 9.58027V13.3303H149.3V9.73027L144.92 10.4003V10.4203ZM141.9 2.93027C141.44 3.02027 140.76 3.09027 139.87 3.15027L139.6 2.05027C141.55 1.95027 143.23 1.64027 144.63 1.11027L145.07 2.18027C144.44 2.40027 143.79 2.58027 143.1 2.72027V4.56027H145.09V5.68027H143.1V5.80027C144.07 6.71027 144.81 7.43027 145.31 7.97027L144.58 9.09027C144.32 8.72027 144.06 8.39027 143.8 8.10027C143.57 7.83027 143.34 7.54027 143.11 7.22027V13.2903L141.91 13.3403V7.97027C141.58 8.81027 140.99 9.78027 140.13 10.9003L139.4 9.72027C140.5 8.47027 141.32 7.13027 141.87 5.68027H139.48V4.56027H141.91V2.93027H141.9Z" fill="#003477"/>
<path d="M161.011 4.90027H159.471V7.21027C160.171 6.98027 160.681 6.79027 161.001 6.63027V7.91027C160.731 8.06027 160.221 8.26027 159.471 8.51027V11.7103C159.471 12.3303 159.381 12.7403 159.211 12.9403C159.031 13.1503 158.611 13.2503 157.971 13.2503H156.941L156.641 11.9303L157.781 11.9703C158.071 11.9703 158.211 11.8203 158.211 11.5403V8.87027C157.471 9.06027 156.881 9.21027 156.461 9.31027L156.141 7.90027C156.901 7.80027 157.591 7.67027 158.211 7.51027V4.88027H156.271V3.69027H158.211V1.03027H159.501V3.71027H161.041V2.87027H163.851V1.03027H165.151V2.87027H168.241V4.06027H165.151V5.81027H167.791V6.89027C167.681 7.36027 167.391 7.97027 166.931 8.73027C166.481 9.49027 166.001 10.0903 165.501 10.5203C166.371 11.2303 167.361 11.7403 168.461 12.0503L167.791 13.2803C166.641 12.9103 165.561 12.2603 164.551 11.3303C163.171 12.3803 161.861 13.0403 160.601 13.3003L159.881 12.1103C161.141 11.8303 162.391 11.2703 163.641 10.4203C162.971 9.74027 162.311 8.81027 161.671 7.64027L162.751 7.21027C163.351 8.27027 163.951 9.11027 164.551 9.71027C165.441 9.00027 166.071 8.10027 166.441 7.00027H161.251V5.80027H163.841V4.05027H161.031V4.89027L161.011 4.90027Z" fill="#003477"/>
<path d="M180.68 5.70957C180.88 6.76957 181.35 7.88957 182.09 9.05957C182.83 10.2296 183.85 11.2396 185.15 12.0896L184.14 13.2896C181.79 11.7496 180.18 9.21957 179.3 5.70957H179.09C178.51 8.85957 176.75 11.3896 173.82 13.3196L172.83 12.0796C174.07 11.3696 175.13 10.4496 176.02 9.29957C176.9 8.14957 177.45 6.95957 177.65 5.72957H173.14V4.33957H177.87C177.98 3.54957 178.04 2.44957 178.04 1.05957H179.41C179.41 2.55957 179.37 3.64957 179.31 4.33957H184.85V5.72957H180.67L180.68 5.70957Z" fill="#003477"/>
<path d="M195.449 1.01973C195.809 1.58973 196.169 2.22973 196.509 2.91973L195.389 3.44973C195.069 2.72973 194.739 2.06973 194.379 1.48973L195.439 1.00973L195.449 1.01973ZM192.419 1.38973C192.799 1.91973 193.169 2.49973 193.529 3.13973L192.419 3.66973C192.089 2.99973 191.739 2.39973 191.359 1.85973L192.419 1.37973V1.38973ZM191.939 6.06973H199.539V7.18973C198.619 7.71973 197.579 8.20973 196.399 8.68973V9.09973H201.399V10.2197H196.399V12.3497C196.379 12.6597 196.299 12.8897 196.139 13.0397C195.909 13.2797 195.649 13.4097 195.339 13.4097H193.529L193.269 12.2397C193.689 12.2797 194.129 12.2897 194.599 12.2897C194.879 12.2897 195.019 12.1797 195.019 11.9597V10.2097H189.979V9.08973H195.019V8.18973C195.839 7.93973 196.699 7.60973 197.599 7.17973H191.929V6.05973L191.939 6.06973ZM201.769 3.88973V6.59973H200.489V5.00973H190.979V6.65973H189.699V3.88973H197.629C198.039 3.15973 198.459 2.17973 198.889 0.969727L200.279 1.49973C199.899 2.44973 199.509 3.24973 199.119 3.88973H201.759H201.769Z" fill="#003477"/>
</svg>
