<svg width="201" height="71" viewBox="0 0 201 71" fill="none" xmlns="http://www.w3.org/2000/svg">
<path d="M46.5995 70.35H39.2695V0H46.5995V0.25H39.5195V70.1H46.5995V70.35Z" fill="#231815"/>
<path d="M162.82 70.35H155.49V70.1H162.57V0.25H155.49V0H162.82V70.35Z" fill="#231815"/>
<path d="M0 30.1199H2.78C3.47 30.1199 4.01 30.2899 4.39 30.6199C4.77 30.9499 4.97 31.4099 4.97 31.9799C4.97 32.5499 4.78 33.0099 4.39 33.3499C4 33.6899 3.47 33.8499 2.78 33.8499H1.16V36.5199H0V30.1099V30.1199ZM2.65001 32.9499C3.05001 32.9499 3.36 32.8699 3.56 32.6999C3.76 32.5299 3.87 32.2999 3.87 31.9799C3.87 31.6599 3.77 31.4199 3.56 31.2599C3.35 31.0999 3.05 31.0099 2.64 31.0099H1.16V32.9399H2.64L2.65001 32.9499Z" fill="#231815"/>
<path d="M11.2698 36.5301H10.0498L9.22977 34.4001C9.15977 34.2001 9.04978 34.0601 8.89978 33.9901C8.74978 33.9201 8.55976 33.8701 8.31976 33.8701H7.15976V36.5301H6.00977V30.1201H8.75977C9.48977 30.1201 10.0398 30.2801 10.4198 30.6001C10.7998 30.9201 10.9898 31.3701 10.9898 31.9701C10.9898 32.4001 10.8798 32.7601 10.6498 33.0501C10.4198 33.3501 10.1098 33.5601 9.68976 33.6801C10.0698 33.7601 10.3398 34.0201 10.5098 34.4701L11.2898 36.5201L11.2698 36.5301ZM8.57977 32.9701C9.01977 32.9701 9.33977 32.8901 9.54977 32.7301C9.75977 32.5701 9.85977 32.3201 9.85977 31.9901C9.85977 31.6601 9.75977 31.4201 9.54977 31.2701C9.33977 31.1201 9.01976 31.0301 8.56976 31.0301H7.11978V32.9701H8.56976H8.57977Z" fill="#231815"/>
<path d="M12.3105 30.1201H13.4706V36.5301H12.3105V30.1201Z" fill="#231815"/>
<path d="M20.2594 30.1201V36.5301H19.3994L15.9394 32.0401V36.5301H14.8594V30.1201H15.7194L19.1694 34.6001V30.1201H20.2594Z" fill="#231815"/>
<path d="M23.1603 31.0701H21.0703V30.1201H26.4203V31.0701H24.3203V36.5201H23.1503V31.0701H23.1603Z" fill="#231815"/>
<path d="M27.8302 36.41C27.4002 36.28 27.0402 36.09 26.7402 35.84L27.1402 34.99C27.4502 35.22 27.7802 35.4 28.1202 35.51C28.4602 35.62 28.8302 35.68 29.2302 35.68C29.6702 35.68 30.0202 35.6 30.2602 35.45C30.5002 35.29 30.6202 35.07 30.6202 34.79C30.6202 34.55 30.5102 34.37 30.2802 34.24C30.0502 34.11 29.6802 33.99 29.1702 33.87C28.3702 33.7 27.7802 33.47 27.4202 33.2C27.0502 32.92 26.8702 32.52 26.8702 31.99C26.8702 31.61 26.9702 31.28 27.1802 30.98C27.3902 30.68 27.6702 30.45 28.0502 30.29C28.4302 30.13 28.8602 30.04 29.3502 30.04C29.8002 30.04 30.2302 30.11 30.6302 30.24C31.0302 30.37 31.3702 30.56 31.6202 30.8L31.2302 31.65C30.6602 31.19 30.0302 30.97 29.3402 30.97C28.9302 30.97 28.6002 31.05 28.3602 31.23C28.1202 31.4 28.0002 31.63 28.0002 31.93C28.0002 32.18 28.1102 32.37 28.3202 32.51C28.5302 32.65 28.9002 32.76 29.4102 32.88C29.9402 33.01 30.3802 33.14 30.7202 33.29C31.0602 33.44 31.3102 33.63 31.4902 33.86C31.6702 34.09 31.7602 34.38 31.7602 34.73C31.7602 35.11 31.6602 35.45 31.4502 35.73C31.2402 36.01 30.9502 36.24 30.5702 36.39C30.1902 36.55 29.7302 36.62 29.2102 36.62C28.7202 36.62 28.2602 36.55 27.8302 36.42V36.41Z" fill="#231815"/>
<path d="M4.14093 40.75H5.55093V47.93H4.84093V41.45H3.71094L4.14093 40.75Z" fill="#AA8420"/>
<path d="M8.99063 42.9998H8.30063C8.33063 42.2698 8.58064 41.6798 9.03064 41.2398C9.48064 40.7998 10.0306 40.5698 10.6806 40.5698C11.3306 40.5698 11.8606 40.7798 12.2806 41.1898C12.7006 41.5998 12.9206 42.1098 12.9206 42.7198C12.9206 43.1698 12.8006 43.5798 12.5706 43.9598C12.3306 44.3398 11.9706 44.7898 11.4906 45.3098L9.70062 47.2398H13.0206V47.9298H8.14062L10.8806 44.9698C11.3606 44.4498 11.7006 44.0398 11.9106 43.7398C12.1206 43.4398 12.2206 43.0998 12.2206 42.7098C12.2206 42.3198 12.0706 41.9798 11.7606 41.6898C11.4606 41.3998 11.0806 41.2498 10.6306 41.2498C10.1806 41.2498 9.81062 41.3998 9.51062 41.7098C9.21062 42.0098 9.04064 42.4498 9.00064 42.9998H8.99063Z" fill="#AA8420"/>
<path d="M14.1309 42.62H14.8109V43.54C15.2809 42.83 15.8909 42.48 16.6309 42.48C17.0209 42.48 17.3809 42.59 17.6909 42.81C18.0009 43.03 18.2109 43.35 18.3109 43.76C18.5309 43.35 18.8109 43.03 19.1509 42.81C19.4909 42.59 19.8809 42.48 20.3309 42.48C20.7809 42.48 21.1709 42.65 21.5409 42.99C21.9009 43.33 22.0809 44.01 22.0809 45.03V47.93H21.3809V45.03C21.3809 44.54 21.3509 44.19 21.2909 43.95C21.2309 43.72 21.1009 43.53 20.9009 43.37C20.7009 43.21 20.4409 43.14 20.1109 43.14C19.7809 43.14 19.4709 43.25 19.1809 43.47C18.8909 43.69 18.7009 43.97 18.5909 44.31C18.4809 44.65 18.4309 45.16 18.4309 45.85V47.93H17.7609V45.21C17.7609 44.64 17.7309 44.24 17.6709 44C17.6109 43.76 17.4809 43.55 17.2709 43.39C17.0609 43.23 16.8109 43.14 16.5109 43.14C16.2109 43.14 15.9309 43.23 15.6709 43.4C15.4109 43.58 15.2009 43.82 15.0509 44.12C14.9009 44.42 14.8209 44.94 14.8209 45.67V47.92H14.1409V42.61L14.1309 42.62Z" fill="#AA8420"/>
<path d="M23.5117 42.62H24.1917V43.54C24.6617 42.83 25.2717 42.48 26.0117 42.48C26.4017 42.48 26.7617 42.59 27.0717 42.81C27.3817 43.03 27.5917 43.35 27.6917 43.76C27.9117 43.35 28.1917 43.03 28.5317 42.81C28.8717 42.59 29.2617 42.48 29.7117 42.48C30.1617 42.48 30.5517 42.65 30.9217 42.99C31.2817 43.33 31.4617 44.01 31.4617 45.03V47.93H30.7617V45.03C30.7617 44.54 30.7317 44.19 30.6717 43.95C30.6117 43.72 30.4817 43.53 30.2817 43.37C30.0817 43.21 29.8217 43.14 29.4917 43.14C29.1617 43.14 28.8517 43.25 28.5617 43.47C28.2717 43.69 28.0817 43.97 27.9717 44.31C27.8617 44.65 27.8117 45.16 27.8117 45.85V47.93H27.1417V45.21C27.1417 44.64 27.1117 44.24 27.0517 44C26.9917 43.76 26.8617 43.55 26.6517 43.39C26.4417 43.23 26.1917 43.14 25.8917 43.14C25.5917 43.14 25.3117 43.23 25.0517 43.4C24.7917 43.58 24.5817 43.82 24.4317 44.12C24.2817 44.42 24.2017 44.94 24.2017 45.67V47.92H23.5217V42.61L23.5117 42.62Z" fill="#AA8420"/>
<path d="M169.59 33.96C169.13 33.69 168.78 33.31 168.53 32.82C168.28 32.33 168.16 31.74 168.16 31.07C168.16 30.4 168.28 29.82 168.53 29.33C168.78 28.83 169.13 28.45 169.59 28.19C170.05 27.93 170.59 27.79 171.21 27.79C171.83 27.79 172.38 27.92 172.83 28.19C173.29 28.45 173.64 28.83 173.88 29.33C174.12 29.82 174.24 30.41 174.24 31.07C174.24 31.73 174.12 32.33 173.87 32.82C173.62 33.32 173.27 33.7 172.82 33.96C172.36 34.23 171.82 34.36 171.2 34.36C170.58 34.36 170.04 34.23 169.58 33.96H169.59ZM172.59 32.82C172.92 32.41 173.09 31.83 173.09 31.07C173.09 30.31 172.92 29.73 172.59 29.33C172.26 28.92 171.8 28.72 171.2 28.72C170.6 28.72 170.14 28.92 169.81 29.32C169.48 29.72 169.31 30.3 169.31 31.07C169.31 31.84 169.48 32.42 169.81 32.82C170.14 33.22 170.6 33.43 171.2 33.43C171.8 33.43 172.26 33.23 172.59 32.82Z" fill="#231815"/>
<path d="M180.83 27.8799V34.2899H179.97L176.51 29.7999V34.2899H175.43V27.8799H176.29L179.74 32.3599V27.8799H180.83Z" fill="#231815"/>
<path d="M182.23 27.8801H183.39V33.3301H186.39V34.2801H182.23V27.8701V27.8801Z" fill="#231815"/>
<path d="M187.27 27.8799H188.43V34.2899H187.27V27.8799Z" fill="#231815"/>
<path d="M195.22 27.8799V34.2899H194.36L190.9 29.7999V34.2899H189.82V27.8799H190.68L194.13 32.3599V27.8799H195.22Z" fill="#231815"/>
<path d="M196.609 27.8799H200.889V28.7999H197.739V30.5699H200.699V31.4899H197.739V33.3699H200.889V34.2899H196.609V27.8799Z" fill="#231815"/>
<path d="M172.59 38.5V39.18H170.03L169.67 41.14C169.99 41.05 170.29 41 170.57 41C171.2 41 171.72 41.22 172.14 41.67C172.56 42.11 172.77 42.68 172.77 43.38C172.77 44.08 172.54 44.66 172.08 45.15C171.62 45.64 171.02 45.87 170.27 45.87C169.7 45.87 169.21 45.7 168.8 45.36C168.4 45.02 168.16 44.55 168.08 43.95H168.81C168.9 44.35 169.08 44.66 169.35 44.87C169.62 45.08 169.94 45.19 170.3 45.19C170.77 45.19 171.18 45.01 171.53 44.66C171.88 44.31 172.05 43.87 172.05 43.34C172.05 42.86 171.9 42.46 171.6 42.16C171.3 41.85 170.91 41.7 170.43 41.7C169.95 41.7 169.41 41.83 168.83 42.08L169.5 38.52H172.61L172.59 38.5Z" fill="#AA8420"/>
<path d="M175.939 45.8601C175.169 45.8601 174.569 45.5401 174.149 44.9001C173.729 44.2601 173.529 43.3201 173.529 42.0801C173.529 40.8401 173.739 39.9001 174.149 39.2701C174.559 38.6401 175.159 38.3101 175.929 38.3101C176.699 38.3101 177.309 38.6401 177.749 39.2801C178.199 39.9301 178.429 40.8601 178.429 42.0701C178.429 43.2801 178.199 44.2201 177.749 44.8701C177.299 45.5201 176.689 45.8401 175.939 45.8401V45.8601ZM175.959 39.0001C175.409 39.0001 174.979 39.2701 174.669 39.8001C174.359 40.3301 174.209 41.1001 174.209 42.1101C174.209 44.1801 174.789 45.2101 175.959 45.2101C176.529 45.2101 176.969 44.9401 177.289 44.4001C177.609 43.8601 177.759 43.0901 177.759 42.0901C177.759 41.0901 177.599 40.3301 177.269 39.8001C176.939 39.2701 176.509 39.0001 175.959 39.0001V39.0001Z" fill="#AA8420"/>
<path d="M182.02 40.37H182.7V41.34C183.24 40.6 183.94 40.23 184.81 40.23C185.56 40.23 186.2 40.5 186.74 41.06C187.28 41.61 187.55 42.27 187.55 43.04C187.55 43.81 187.28 44.48 186.75 45.03C186.22 45.58 185.58 45.86 184.83 45.86C184.02 45.86 183.31 45.5 182.7 44.77V47.62H182.02V40.37V40.37ZM186.87 43.05C186.87 42.46 186.66 41.95 186.25 41.53C185.84 41.11 185.34 40.9 184.75 40.9C184.16 40.9 183.66 41.11 183.25 41.52C182.85 41.94 182.65 42.45 182.65 43.06C182.65 43.67 182.86 44.19 183.27 44.6C183.68 45.02 184.18 45.22 184.75 45.22C185.32 45.22 185.82 45.01 186.24 44.59C186.66 44.17 186.86 43.65 186.86 43.04L186.87 43.05Z" fill="#AA8420"/>
<path d="M190.459 43.4601L188.919 45.6801H188.109L190.049 42.8801L188.299 40.3701H189.119L190.459 42.2901L191.789 40.3701H192.609L190.869 42.8701L192.839 45.6801H192.009L190.459 43.4601V43.4601Z" fill="#AA8420"/>
<path d="M81.3796 60.6099V59.3599H75.2696V58.0899C77.2196 57.9199 78.8496 57.6899 80.1596 57.4099L79.5396 56.1699C77.5596 56.6299 74.6496 56.8699 70.7996 56.8699C69.9896 56.8699 69.3096 56.8599 68.7596 56.8399L69.2396 58.2299C70.1896 58.2299 71.7396 58.1999 73.9096 58.1399V59.3599H67.9596V60.6099H72.4296C71.1296 61.7499 69.5996 62.5399 67.8496 62.9799L68.5396 64.3299C69.1196 64.1299 69.5296 63.9699 69.7696 63.8599V70.3399H71.1096V69.6499H78.2296V70.3399H79.5796V63.7899C79.7696 63.8999 79.9896 63.9899 80.2196 64.0599C80.4496 64.1299 80.6596 64.2099 80.8596 64.2999L81.4996 62.9199C79.4196 62.4899 77.8296 61.7199 76.7296 60.6099H81.3896H81.3796ZM70.6196 63.4399C71.9796 62.8399 73.0796 61.9099 73.9196 60.6599V63.4399H70.6196ZM71.1296 64.7099H78.2396V65.8599H71.1296V64.7099ZM78.2396 68.3899H71.1296V67.0599H78.2396V68.3899ZM78.8496 63.4399H75.2796V60.6499C76.1896 61.9099 77.3796 62.8399 78.8496 63.4399Z" fill="#003477"/>
<path d="M96.3397 67.07V63.97C96.9197 64.51 97.6497 65.06 98.5397 65.62L99.1597 64.27C97.5997 63.46 96.6197 62.65 96.2397 61.84H98.9997V60.57H96.3997V59.01H98.7897V57.82H96.3997V56.25H95.0997V57.82H92.4697V56.25H91.1397V57.82H89.2197V58.02C88.6497 57.56 87.9497 57.07 87.1397 56.52L86.1797 57.64C86.8297 58.06 87.5497 58.65 88.3397 59.41L89.2197 58.26V59.07H91.1397V60.58H88.9297V61.85H91.2397C90.8197 62.8 89.7997 63.65 88.1997 64.4L89.0297 65.67C89.6797 65.25 90.1197 64.93 90.3597 64.72V68.1C90.3597 68.78 90.4797 69.25 90.7197 69.5C90.9697 69.74 91.3997 69.86 92.0197 69.86H96.6997C97.4397 69.86 97.9397 69.73 98.1897 69.45C98.4497 69.17 98.6597 68.33 98.8097 66.93L97.4197 66.4C97.3497 67.19 97.2797 67.75 97.1997 68.07C97.1197 68.38 96.8797 68.54 96.4797 68.54H92.1897C91.8497 68.54 91.6797 68.36 91.6797 68.01V67.04H96.3297L96.3397 67.07ZM92.4597 59.1H95.0897V60.58H92.4597V59.1ZM92.7797 61.85H94.7297C94.9997 62.38 95.2897 62.84 95.6097 63.21H91.9197C92.2797 62.82 92.5597 62.36 92.7697 61.85H92.7797ZM91.6797 65.88V64.4H94.9997V65.88H91.6797Z" fill="#003477"/>
<path d="M85.7092 68.9196L86.8692 70.1596C87.6992 68.7896 88.3092 67.2896 88.6992 65.6596L87.4392 64.8896C87.1292 66.3196 86.5492 67.6596 85.6992 68.9196H85.7092Z" fill="#003477"/>
<path d="M88.7893 61.92C88.0493 61.33 87.3293 60.84 86.6493 60.46L85.7793 61.59C86.3493 61.98 87.0193 62.52 87.8093 63.22L88.7893 61.92V61.92Z" fill="#003477"/>
<path d="M113.569 62.7399C112.509 61.8899 111.619 61.2799 110.889 60.8799L110.039 61.8899C110.799 62.3599 111.679 63.0299 112.669 63.8999L113.569 62.7399V62.7399Z" fill="#003477"/>
<path d="M115.729 56.1299H114.379V64.8099L109.539 65.5699V66.9699L114.379 66.1999V70.3499H115.729V66.0199L117.029 65.7899V64.4199L115.729 64.6399V56.1299Z" fill="#003477"/>
<path d="M113.85 59.0998C112.71 58.2298 111.83 57.6198 111.2 57.2598L110.33 58.2598C110.99 58.6798 111.86 59.3398 112.93 60.2398L113.84 59.1098L113.85 59.0998Z" fill="#003477"/>
<path d="M107.51 61.64V61.5H109.71V60.2H107.51V58.07C108.27 57.91 109 57.7 109.69 57.45L109.2 56.21C107.65 56.82 105.79 57.19 103.63 57.3L103.94 58.57C104.92 58.5 105.67 58.41 106.18 58.31V60.2H103.49V61.5H106.14C105.53 63.17 104.62 64.73 103.41 66.17L104.22 67.53C105.16 66.24 105.82 65.11 106.19 64.15V70.36L107.52 70.3V63.29C107.78 63.65 108.04 63.99 108.29 64.3C108.58 64.64 108.87 65.02 109.16 65.45L109.97 64.15C109.42 63.53 108.61 62.69 107.52 61.64H107.51Z" fill="#003477"/>
<path d="M131.41 65.3796C130.59 64.0296 130.07 62.7396 129.85 61.5096L134.48 61.5296V59.9296H128.35C128.43 59.1396 128.47 57.8696 128.47 56.1396H126.95C126.95 57.7496 126.89 59.0196 126.76 59.9296H121.52V61.5296H126.51C126.28 62.9496 125.67 64.3196 124.7 65.6496C123.72 66.9796 122.54 68.0496 121.17 68.8696L122.27 70.3096C125.51 68.0796 127.45 65.1596 128.1 61.5196H128.33C129.29 65.5796 131.08 68.4996 133.68 70.2796L134.79 68.8896C133.35 67.8996 132.23 66.7296 131.41 65.3896V65.3796Z" fill="#003477"/>
<path d="M109.75 49.23L104.24 39.64C104.24 39.64 104.07 39.42 104.07 39.06V21.27H101.99V39.63C102.16 39.81 105.63 45.99 105.63 45.99H97.0302C97.0302 45.99 100.5 39.81 100.67 39.63V21.27H98.5902V39.06C98.5902 39.42 98.4202 39.64 98.4202 39.64L92.9102 49.23H109.77H109.75Z" fill="#AA8420"/>
<path d="M108.04 8.81001C108.04 8.81001 109.08 4.32 105.37 1.39C105.37 1.39 103.89 0 101.07 0C98.55 0 97.07 1.39 97.07 1.39C93.66 3.86 94.55 8.81001 94.55 8.81001H108.03H108.04Z" fill="#AA8420"/>
<path d="M94.9805 10.0498H107.65C107.75 9.79978 107.83 9.53979 107.91 9.27979H94.7305C94.8005 9.53979 94.8905 9.79978 94.9905 10.0498" fill="#AA8420"/>
<path d="M107.45 10.5098H95.1797C95.3097 10.7798 95.4497 11.0398 95.5997 11.2798H107.02C107.17 11.0298 107.32 10.7798 107.44 10.5098" fill="#AA8420"/>
<path d="M96.4399 12.37H106.2C106.38 12.17 106.55 11.97 106.71 11.75H95.9199C96.0799 11.97 96.2499 12.17 96.4399 12.37" fill="#AA8420"/>
<path d="M97.4902 13.2998H105.14C105.34 13.1598 105.53 12.9998 105.72 12.8398H96.9102C97.0902 13.0098 97.2902 13.1598 97.4902 13.2998" fill="#AA8420"/>
<path d="M98.5508 13.9199C99.4008 14.3199 100.331 14.5399 101.321 14.5399C102.311 14.5399 103.241 14.3199 104.091 13.9199H98.5508V13.9199Z" fill="#AA8420"/>
<path d="M114.459 14.8799H104.089C104.089 14.8799 103.129 14.8799 102.359 15.4299C101.769 15.8499 101.349 16.8399 101.319 16.8899C101.319 16.8899 100.879 15.8599 100.279 15.4299C99.5094 14.8799 98.5494 14.8799 98.5494 14.8799H88.1794L86.1094 18.3399H95.6094C95.6094 18.3399 95.8894 18.3399 96.0594 18.3699C96.3394 18.4199 96.8294 18.5699 97.3394 18.9599C98.0394 19.4899 98.2394 19.7599 98.4094 19.9399C98.4994 20.0299 98.7194 20.3399 98.7194 20.3399H103.899C103.899 20.3399 104.119 20.0299 104.209 19.9399C104.379 19.7599 104.579 19.4899 105.279 18.9599C105.789 18.5699 106.279 18.4199 106.559 18.3699C106.729 18.3399 107.009 18.3399 107.009 18.3399H116.509L114.439 14.8799H114.459Z" fill="#003477"/>
<path d="M87.1602 19.3999V35.8699C87.1602 36.0499 87.1702 36.2099 87.1902 36.3599C87.3602 38.0999 87.8802 39.3899 88.8502 41.0799C90.3702 43.7299 93.1302 45.5899 93.1302 45.5899L94.4302 43.4199C94.4302 43.4199 92.6602 42.4399 91.2502 40.1799C90.9602 39.7299 90.6802 39.3099 90.4902 38.8899C90.3102 38.4999 90.1702 38.1699 90.0602 37.8299C89.9802 37.5799 89.9102 37.3599 89.8702 37.1499C89.8002 36.8499 89.7702 36.6199 89.7502 36.3299C89.7502 36.2299 89.7302 35.8199 89.7302 35.8199V19.4099H87.1602V19.3999Z" fill="#003477"/>
<path d="M91.1094 19.3999V35.8099C91.1094 35.8099 91.1094 35.8799 91.1094 35.9499C91.1094 36.0299 91.1194 36.1499 91.1394 36.2399C91.1394 36.2999 91.1594 36.3699 91.1694 36.4099C91.2194 36.6699 91.2694 36.8999 91.3794 37.2299C91.5594 37.7799 91.8694 38.4499 92.3194 39.2199C93.4794 41.1899 95.1694 42.0799 95.1694 42.0799L96.4694 39.9699C96.4694 39.9699 96.0394 39.7199 95.5194 39.1899C95.1694 38.8399 94.7594 38.3899 94.4094 37.8399C94.0694 37.2799 93.8494 36.7199 93.7294 36.2899C93.6294 35.9399 93.6094 35.6499 93.6094 35.4699C93.6094 35.3199 93.6094 35.2399 93.6094 35.2399V19.4099H91.1194L91.1094 19.3999Z" fill="#003477"/>
<path d="M115.491 19.3999V35.8699C115.491 36.0499 115.481 36.2099 115.461 36.3599C115.291 38.0999 114.771 39.3899 113.801 41.0799C112.281 43.7299 109.521 45.5899 109.521 45.5899L108.221 43.4199C108.221 43.4199 109.991 42.4399 111.401 40.1799C111.691 39.7299 111.971 39.3099 112.161 38.8899C112.341 38.4999 112.481 38.1699 112.591 37.8299C112.671 37.5799 112.741 37.3599 112.781 37.1499C112.851 36.8499 112.881 36.6199 112.901 36.3299C112.901 36.2299 112.921 35.8199 112.921 35.8199V19.4099H115.491V19.3999Z" fill="#003477"/>
<path d="M111.54 19.3999V35.8099C111.54 35.8099 111.54 35.8799 111.54 35.9499C111.54 36.0299 111.53 36.1499 111.51 36.2399C111.51 36.2999 111.49 36.3699 111.48 36.4099C111.43 36.6699 111.38 36.8999 111.27 37.2299C111.09 37.7799 110.78 38.4499 110.33 39.2199C109.17 41.1899 107.48 42.0799 107.48 42.0799L106.18 39.9699C106.18 39.9699 106.61 39.7199 107.13 39.1899C107.48 38.8399 107.89 38.3899 108.24 37.8399C108.58 37.2799 108.8 36.7199 108.92 36.2899C109.02 35.9399 109.04 35.6499 109.04 35.4699C109.04 35.3199 109.04 35.2399 109.04 35.2399V19.4099H111.53L111.54 19.3999Z" fill="#003477"/>
</svg>
