<svg width="215" height="22" viewBox="0 0 215 22" fill="none" xmlns="http://www.w3.org/2000/svg">
<path d="M44.9507 20.7598H37.9707V0.00976562H44.9507V0.259766H38.2207V20.5098H44.9507V20.7598Z" fill="#231815"/>
<path d="M173.82 20.7598H166.84V20.5098H173.57V0.319824H166.84V0.0698242H173.82V20.7598Z" fill="#231815"/>
<path d="M0 1.1499H2.56C3.22 1.1499 3.73 1.3099 4.1 1.6299C4.47 1.9499 4.65 2.3899 4.65 2.9399C4.65 3.4899 4.46 3.9399 4.09 4.2599C3.72 4.5799 3.2 4.7399 2.55 4.7399H0.74V7.5599H0V1.1499ZM2.49 4.1299C2.96 4.1299 3.32 4.0299 3.56 3.8199C3.8 3.6199 3.92 3.3199 3.92 2.9399C3.92 2.5599 3.8 2.2599 3.56 2.0599C3.32 1.8599 2.96 1.7599 2.49 1.7599H0.74V4.1299H2.49Z" fill="#231815"/>
<path d="M10.8891 7.5599H10.1091L9.31914 5.4299C9.21914 5.1699 9.08914 4.9899 8.91914 4.8999C8.74914 4.8099 8.50914 4.7699 8.19914 4.7699H6.59914V7.5699H5.86914V1.1499H8.41914C9.10914 1.1499 9.63914 1.2999 10.0091 1.6099C10.3791 1.9199 10.5591 2.3599 10.5591 2.9299C10.5591 3.3499 10.4491 3.6999 10.2291 3.9899C10.0091 4.2799 9.68914 4.4799 9.27914 4.5999C9.46914 4.6299 9.61914 4.7099 9.75914 4.8399C9.89914 4.9699 9.99914 5.1499 10.0891 5.3899L10.8991 7.5599H10.8891ZM8.33914 4.1499C9.31914 4.1499 9.81914 3.7499 9.81914 2.9399C9.81914 2.5399 9.69914 2.2499 9.45914 2.0499C9.21914 1.8599 8.84914 1.7599 8.33914 1.7599H6.58914V4.1399H8.33914V4.1499Z" fill="#231815"/>
<path d="M12.0996 1.1499H12.8396V7.5599H12.0996V1.1499Z" fill="#231815"/>
<path d="M19.5599 1.1499V7.5599H18.9799L15.1099 2.3999V7.5599H14.4199V1.1499H14.9899L18.8599 6.3099V1.1499H19.5599Z" fill="#231815"/>
<path d="M22.6792 1.7799H20.4492V1.1499H25.6592V1.7799H23.4292V7.5599H22.6792V1.7799Z" fill="#231815"/>
<path d="M25.9805 6.81984L26.2605 6.24984C26.5805 6.51984 26.9005 6.70984 27.2305 6.82984C27.5605 6.93984 27.9405 6.99984 28.3805 6.99984C28.9005 6.99984 29.2905 6.89984 29.5705 6.69984C29.8505 6.49984 29.9905 6.21984 29.9905 5.84984C29.9905 5.62984 29.9205 5.45984 29.7905 5.31984C29.6505 5.18984 29.4805 5.07984 29.2605 4.99984C29.0405 4.91984 28.7505 4.83984 28.3805 4.75984C27.8905 4.64984 27.4805 4.52984 27.1705 4.40984C26.8605 4.28984 26.5905 4.09984 26.4005 3.86984C26.2005 3.62984 26.1005 3.31984 26.1005 2.93984C26.1005 2.55984 26.2005 2.24984 26.3905 1.96984C26.5805 1.68984 26.8505 1.46984 27.2005 1.31984C27.5505 1.15984 27.9605 1.08984 28.4305 1.08984C28.9005 1.08984 29.2905 1.15984 29.6705 1.29984C30.0505 1.43984 30.3805 1.63984 30.6405 1.89984L30.3505 2.46984C30.0505 2.20984 29.7505 2.01984 29.4405 1.89984C29.1305 1.77984 28.7905 1.71984 28.4305 1.71984C27.9305 1.71984 27.5405 1.82984 27.2605 2.03984C26.9805 2.24984 26.8405 2.53984 26.8405 2.91984C26.8405 3.23984 26.9605 3.48984 27.2105 3.64984C27.4605 3.80984 27.8305 3.94984 28.3405 4.06984C28.8905 4.19984 29.3305 4.31984 29.6405 4.42984C29.9505 4.53984 30.2205 4.70984 30.4305 4.92984C30.6405 5.15984 30.7505 5.44984 30.7505 5.82984C30.7505 6.20984 30.6505 6.50984 30.4605 6.77984C30.2705 7.04984 29.9905 7.25984 29.6405 7.40984C29.2805 7.55984 28.8605 7.63984 28.3805 7.63984C27.3805 7.63984 26.5805 7.36984 25.9905 6.82984L25.9805 6.81984Z" fill="#231815"/>
<path d="M10.3794 18.8704V19.5604H5.79938V18.9404L8.28937 16.1804C8.61937 15.8104 8.86938 15.4704 9.01938 15.1704C9.16938 14.8704 9.24937 14.5704 9.24937 14.2704C9.24937 13.8804 9.13937 13.5704 8.90937 13.3604C8.67937 13.1504 8.35937 13.0504 7.93937 13.0504C7.25937 13.0504 6.58937 13.3204 5.91937 13.8704L5.60938 13.2404C5.88938 12.9704 6.23937 12.7604 6.66937 12.6004C7.09937 12.4404 7.52937 12.3604 7.95937 12.3604C8.60937 12.3604 9.12938 12.5304 9.50938 12.8604C9.88938 13.2004 10.0794 13.6504 10.0794 14.2304C10.0794 14.6404 9.98938 15.0304 9.79938 15.4004C9.61938 15.7804 9.30937 16.2004 8.87937 16.6704L6.84937 18.8704H10.3694H10.3794Z" fill="#AA8420"/>
<path d="M21.6093 16.4002V19.5602H20.7993V16.4402C20.7993 15.9702 20.7193 15.6202 20.5493 15.4102C20.3893 15.2002 20.1193 15.0902 19.7593 15.0902C19.3293 15.0902 18.9993 15.2302 18.7593 15.5202C18.5193 15.8102 18.3993 16.2002 18.3993 16.6902V19.5602H17.5893V16.4402C17.5893 15.9702 17.5093 15.6302 17.3393 15.4202C17.1693 15.2002 16.9093 15.0902 16.5393 15.0902C16.1093 15.0902 15.7793 15.2302 15.5393 15.5202C15.2993 15.8102 15.1693 16.2002 15.1693 16.6902V19.5602H14.3593V15.9402C14.3593 15.4202 14.3293 14.9502 14.2793 14.5302H15.0493L15.1293 15.4102C15.2693 15.0902 15.4793 14.8402 15.7493 14.6702C16.0293 14.5002 16.3493 14.4102 16.7093 14.4102C17.1093 14.4102 17.4393 14.4902 17.6893 14.6502C17.9393 14.8102 18.1293 15.0602 18.2493 15.3902C18.3993 15.0902 18.6293 14.8502 18.9193 14.6802C19.2093 14.5102 19.5493 14.4102 19.9193 14.4102C21.0293 14.4102 21.5893 15.0702 21.5893 16.4002H21.6093Z" fill="#AA8420"/>
<path d="M30.4003 16.4002V19.5602H29.5903V16.4402C29.5903 15.9702 29.5103 15.6202 29.3403 15.4102C29.1803 15.2002 28.9103 15.0902 28.5503 15.0902C28.1203 15.0902 27.7903 15.2302 27.5503 15.5202C27.3103 15.8102 27.1903 16.2002 27.1903 16.6902V19.5602H26.3803V16.4402C26.3803 15.9702 26.3003 15.6302 26.1303 15.4202C25.9603 15.2002 25.7003 15.0902 25.3303 15.0902C24.9003 15.0902 24.5703 15.2302 24.3303 15.5202C24.0903 15.8102 23.9603 16.2002 23.9603 16.6902V19.5602H23.1503V15.9402C23.1503 15.4202 23.1203 14.9502 23.0703 14.5302H23.8403L23.9203 15.4102C24.0603 15.0902 24.2703 14.8402 24.5403 14.6702C24.8203 14.5002 25.1403 14.4102 25.5003 14.4102C25.9003 14.4102 26.2303 14.4902 26.4803 14.6502C26.7303 14.8102 26.9203 15.0602 27.0403 15.3902C27.1903 15.0902 27.4203 14.8502 27.7103 14.6802C28.0003 14.5102 28.3403 14.4102 28.7103 14.4102C29.8203 14.4102 30.3803 15.0702 30.3803 16.4002H30.4003Z" fill="#AA8420"/>
<path d="M183.659 7.22982C183.219 6.96982 182.879 6.58982 182.649 6.08982C182.409 5.59982 182.289 5.00982 182.289 4.34982C182.289 3.68982 182.409 3.09982 182.639 2.59982C182.869 2.09982 183.209 1.72982 183.649 1.46982C184.089 1.20982 184.609 1.06982 185.209 1.06982C185.809 1.06982 186.329 1.19982 186.769 1.46982C187.209 1.72982 187.539 2.10982 187.779 2.59982C188.009 3.08982 188.129 3.66982 188.129 4.33982C188.129 5.00982 188.009 5.58982 187.769 6.08982C187.529 6.57982 187.189 6.95982 186.759 7.22982C186.319 7.49982 185.809 7.62982 185.209 7.62982C184.609 7.62982 184.099 7.49982 183.659 7.22982V7.22982ZM186.789 6.29982C187.169 5.83982 187.359 5.17982 187.359 4.33982C187.359 3.49982 187.169 2.83982 186.799 2.38982C186.429 1.93982 185.899 1.70982 185.209 1.70982C184.519 1.70982 183.989 1.93982 183.619 2.39982C183.249 2.85982 183.049 3.50982 183.049 4.34982C183.049 5.18982 183.239 5.84982 183.619 6.30982C183.999 6.76982 184.529 6.99982 185.209 6.99982C185.889 6.99982 186.419 6.76982 186.789 6.30982V6.29982Z" fill="#231815"/>
<path d="M194.619 1.1499V7.5599H194.039L190.169 2.3999V7.5599H189.479V1.1499H190.049L193.919 6.3099V1.1499H194.619V1.1499Z" fill="#231815"/>
<path d="M196.189 1.1499H196.929V6.9299H200.139V7.5599H196.189V1.1499V1.1499Z" fill="#231815"/>
<path d="M201.1 1.1499H201.84V7.5599H201.1V1.1499Z" fill="#231815"/>
<path d="M208.56 1.1499V7.5599H207.98L204.11 2.3999V7.5599H203.42V1.1499H203.99L207.86 6.3099V1.1499H208.56V1.1499Z" fill="#231815"/>
<path d="M210.129 1.1499H214.179V1.7599H210.859V3.9899H213.999V4.6099H210.859V6.9399H214.179V7.5499H210.129V1.1499Z" fill="#231815"/>
<path d="M187.151 18.8704V19.5604H182.571V18.9404L185.061 16.1804C185.391 15.8104 185.641 15.4704 185.791 15.1704C185.941 14.8704 186.021 14.5704 186.021 14.2704C186.021 13.8804 185.911 13.5704 185.681 13.3604C185.451 13.1504 185.131 13.0504 184.711 13.0504C184.031 13.0504 183.361 13.3204 182.691 13.8704L182.381 13.2404C182.661 12.9704 183.011 12.7604 183.441 12.6004C183.871 12.4404 184.301 12.3604 184.731 12.3604C185.381 12.3604 185.901 12.5304 186.281 12.8604C186.661 13.2004 186.851 13.6504 186.851 14.2304C186.851 14.6404 186.761 15.0304 186.571 15.4004C186.391 15.7804 186.081 16.2004 185.651 16.6704L183.621 18.8704H187.141H187.151Z" fill="#AA8420"/>
<path d="M188.88 18.7104C188.46 18.0904 188.24 17.1904 188.24 16.0004C188.24 14.8104 188.45 13.9004 188.88 13.2804C189.3 12.6604 189.92 12.3604 190.73 12.3604C191.54 12.3604 192.16 12.6704 192.59 13.2804C193.01 13.9004 193.22 14.8004 193.22 15.9904C193.22 17.1804 193.01 18.0904 192.59 18.7104C192.17 19.3304 191.55 19.6404 190.73 19.6404C189.91 19.6404 189.3 19.3304 188.88 18.7204V18.7104ZM191.99 18.2204C192.26 17.7404 192.4 16.9904 192.4 15.9804C192.4 14.9704 192.27 14.2304 192 13.7604C191.73 13.2904 191.31 13.0504 190.74 13.0504C190.17 13.0504 189.76 13.2904 189.49 13.7604C189.22 14.2304 189.08 14.9704 189.08 15.9804C189.08 16.9904 189.22 17.7304 189.49 18.2204C189.76 18.7004 190.18 18.9404 190.74 18.9404C191.3 18.9404 191.73 18.7004 191.99 18.2204Z" fill="#AA8420"/>
<path d="M200.811 14.7402C201.151 14.9602 201.411 15.2702 201.601 15.6702C201.791 16.0702 201.881 16.5202 201.881 17.0502C201.881 17.5802 201.791 18.0202 201.601 18.4102C201.411 18.8002 201.151 19.1002 200.811 19.3202C200.471 19.5302 200.081 19.6402 199.641 19.6402C199.251 19.6402 198.901 19.5502 198.611 19.3802C198.321 19.2102 198.091 18.9602 197.941 18.6402V21.7302H197.131V15.9502C197.131 15.4302 197.101 14.9602 197.051 14.5402H197.821L197.901 15.5102C198.041 15.1602 198.261 14.8902 198.571 14.7002C198.871 14.5102 199.231 14.4102 199.651 14.4102C200.091 14.4102 200.481 14.5202 200.821 14.7402H200.811ZM200.641 18.4602C200.911 18.1302 201.041 17.6502 201.041 17.0402C201.041 16.4302 200.901 15.9502 200.631 15.6002C200.361 15.2602 199.981 15.0902 199.491 15.0902C199.001 15.0902 198.611 15.2602 198.341 15.5902C198.071 15.9202 197.941 16.4002 197.941 17.0202C197.941 17.6402 198.071 18.1202 198.341 18.4502C198.611 18.7902 198.991 18.9602 199.491 18.9602C199.991 18.9602 200.371 18.7902 200.641 18.4602V18.4602Z" fill="#AA8420"/>
<path d="M207.491 19.5603H206.521L204.931 17.5803L203.361 19.5603H202.371L204.461 16.9703L202.491 14.5303H203.471L204.931 16.3803L206.391 14.5303H207.381L205.421 16.9703L207.491 19.5603Z" fill="#AA8420"/>
<path d="M63.3805 8.46018H52.9505V0.430176H50.2305V20.3402H52.9505V10.7802H63.3805V20.3402H66.1105V0.430176H63.3805V8.46018Z" fill="#003477"/>
<path d="M91.5998 0.430176H88.0298L78.7398 9.06018V0.430176H76.0098V20.3402H78.7398V12.0202L79.8398 11.0702L88.0898 20.3402H91.7798L81.7598 9.38018L91.5998 0.430176Z" fill="#003477"/>
<path d="M112.31 12.1802C112.31 15.4302 111.23 18.4402 107.02 18.4402C102.81 18.4402 101.73 15.4302 101.73 12.1802V0.430176H99V13.0302C99 17.4102 101.99 20.7602 107.02 20.7602C112.05 20.7602 115.03 17.4102 115.03 13.0302V0.430176H112.3V12.1802H112.31Z" fill="#003477"/>
<path d="M131.94 8.56L130.37 8C129 7.52 127.32 6.71 127.32 5.15C127.32 3.41 129.23 2.33 130.98 2.33C132.63 2.33 133.68 2.97 134.49 4.2L136.67 3.01C135.48 1.08 133.48 0 131.04 0C127.73 0 124.59 1.93 124.59 5.15C124.59 7.92 126.86 9.22 129.35 10.19L130.86 10.77C132.75 11.48 134.63 12.41 134.63 14.55C134.63 16.69 132.95 18.43 130.59 18.43C128.23 18.43 126.32 16.84 126.35 14.65L123.59 15.18C124.05 18.37 126.81 20.75 130.36 20.75C134.28 20.75 137.36 18.16 137.36 14.55C137.36 11.22 135.04 9.66 131.93 8.56H131.94Z" fill="#003477"/>
<path d="M144.281 0.430176V2.70018H149.481V20.3402H152.201V2.70018H157.401V0.430176H144.281Z" fill="#003477"/>
</svg>
