<svg width="206" height="86" viewBox="0 0 206 86" fill="none" xmlns="http://www.w3.org/2000/svg">
<path d="M44.4706 85.9898H37.1406V0.569824H44.4706V0.819824H37.3906V85.7398H44.4706V85.9898Z" fill="#231815"/>
<path d="M168.039 85.9898H160.709V85.7398H167.789V0.819824H160.709V0.569824H168.039V85.9898Z" fill="#231815"/>
<path d="M1.07055 34.0498H3.63055C4.29055 34.0498 4.80055 34.2098 5.17055 34.5298C5.54055 34.8498 5.72055 35.2898 5.72055 35.8398C5.72055 36.3898 5.53055 36.8398 5.16055 37.1598C4.79055 37.4798 4.27055 37.6398 3.62055 37.6398H1.80055V40.4598H1.06055V34.0498H1.07055ZM3.56055 37.0298C4.03055 37.0298 4.39055 36.9298 4.63055 36.7198C4.87055 36.5198 4.99055 36.2198 4.99055 35.8398C4.99055 35.4598 4.87055 35.1598 4.63055 34.9598C4.39055 34.7598 4.03055 34.6598 3.56055 34.6598H1.80055V37.0298H3.56055Z" fill="#231815"/>
<path d="M11.9614 40.4596H11.1814L10.3914 38.3296C10.2914 38.0696 10.1614 37.8896 9.9914 37.7996C9.8214 37.7096 9.5814 37.6696 9.2714 37.6696H7.6714V40.4696H6.94141V34.0596H9.4914C10.1814 34.0596 10.7114 34.2096 11.0814 34.5196C11.4514 34.8296 11.6314 35.2696 11.6314 35.8396C11.6314 36.2596 11.5214 36.6096 11.3014 36.8996C11.0814 37.1896 10.7614 37.3896 10.3514 37.5096C10.5414 37.5396 10.6914 37.6196 10.8314 37.7496C10.9614 37.8796 11.0714 38.0596 11.1614 38.2996L11.9714 40.4696L11.9614 40.4596ZM9.41141 37.0496C10.3914 37.0496 10.8914 36.6496 10.8914 35.8396C10.8914 35.4396 10.7714 35.1496 10.5314 34.9496C10.2914 34.7596 9.92141 34.6596 9.41141 34.6596H7.66141V37.0396H9.41141V37.0496Z" fill="#231815"/>
<path d="M13.1699 34.0498H13.9099V40.4598H13.1699V34.0498Z" fill="#231815"/>
<path d="M20.6302 34.0498V40.4598H20.0502L16.1802 35.2998V40.4598H15.4902V34.0498H16.0602L19.9302 39.2098V34.0498H20.6302Z" fill="#231815"/>
<path d="M23.7515 34.6798H21.5215V34.0498H26.7315V34.6798H24.5015V40.4598H23.7515V34.6798V34.6798Z" fill="#231815"/>
<path d="M27.0605 39.7197L27.3405 39.1497C27.6605 39.4197 27.9805 39.6097 28.3105 39.7297C28.6405 39.8397 29.0205 39.8997 29.4605 39.8997C29.9805 39.8997 30.3706 39.7997 30.6506 39.5997C30.9306 39.3997 31.0705 39.1197 31.0705 38.7497C31.0705 38.5297 31.0006 38.3597 30.8706 38.2197C30.7306 38.0897 30.5605 37.9797 30.3405 37.8997C30.1205 37.8197 29.8305 37.7397 29.4605 37.6597C28.9705 37.5497 28.5605 37.4297 28.2505 37.3097C27.9305 37.1797 27.6706 36.9997 27.4806 36.7697C27.2806 36.5297 27.1805 36.2197 27.1805 35.8397C27.1805 35.4597 27.2806 35.1497 27.4706 34.8697C27.6606 34.5897 27.9305 34.3697 28.2805 34.2197C28.6305 34.0697 29.0406 33.9897 29.5106 33.9897C29.9806 33.9897 30.3705 34.0597 30.7505 34.1997C31.1305 34.3397 31.4606 34.5397 31.7206 34.7997L31.4305 35.3697C31.1305 35.1097 30.8305 34.9197 30.5205 34.7997C30.2105 34.6797 29.8706 34.6197 29.5106 34.6197C29.0106 34.6197 28.6205 34.7297 28.3405 34.9397C28.0605 35.1497 27.9205 35.4397 27.9205 35.8197C27.9205 36.1397 28.0406 36.3897 28.2906 36.5497C28.5406 36.7097 28.9105 36.8497 29.4205 36.9697C29.9705 37.0997 30.4106 37.2197 30.7206 37.3297C31.0306 37.4397 31.3006 37.6097 31.5106 37.8297C31.7206 38.0597 31.8205 38.3497 31.8205 38.7297C31.8205 39.1097 31.7205 39.4097 31.5305 39.6797C31.3405 39.9497 31.0605 40.1597 30.7105 40.3097C30.3505 40.4597 29.9305 40.5397 29.4505 40.5397C28.4505 40.5397 27.6505 40.2697 27.0605 39.7297V39.7197Z" fill="#231815"/>
<path d="M5.44968 51.7698V52.4598H0.86969V51.8398L3.35969 49.0798C3.68969 48.7098 3.93968 48.3698 4.08968 48.0698C4.23968 47.7698 4.31969 47.4698 4.31969 47.1698C4.31969 46.7798 4.20969 46.4698 3.97969 46.2598C3.74969 46.0498 3.42969 45.9498 3.00969 45.9498C2.32969 45.9498 1.65969 46.2198 0.989685 46.7698L0.679688 46.1398C0.959688 45.8698 1.30969 45.6598 1.73969 45.4998C2.16969 45.3398 2.59969 45.2598 3.02969 45.2598C3.67969 45.2598 4.19969 45.4298 4.57969 45.7598C4.95969 46.0998 5.14969 46.5498 5.14969 47.1298C5.14969 47.5398 5.05968 47.9298 4.87968 48.2998C4.69968 48.6798 4.38969 49.0998 3.95969 49.5698L1.92969 51.7698H5.44968Z" fill="#AA8420"/>
<path d="M7.17906 51.6195C6.75906 50.9995 6.53906 50.0995 6.53906 48.9095C6.53906 47.7195 6.74906 46.8095 7.17906 46.1895C7.59906 45.5695 8.21906 45.2695 9.02906 45.2695C9.83906 45.2695 10.4591 45.5795 10.8791 46.1895C11.2991 46.8095 11.5191 47.7095 11.5191 48.8995C11.5191 50.0895 11.3091 50.9995 10.8791 51.6195C10.4591 52.2395 9.83906 52.5495 9.02906 52.5495C8.21906 52.5495 7.59906 52.2395 7.17906 51.6295V51.6195ZM10.2891 51.1295C10.5591 50.6495 10.6991 49.8995 10.6991 48.8895C10.6991 47.8795 10.5691 47.1395 10.2991 46.6695C10.0291 46.1995 9.60906 45.9595 9.03906 45.9595C8.46906 45.9595 8.05906 46.1995 7.78906 46.6695C7.51906 47.1395 7.37906 47.8795 7.37906 48.8895C7.37906 49.8995 7.51906 50.6395 7.78906 51.1295C8.05906 51.6195 8.47906 51.8495 9.03906 51.8495C9.59906 51.8495 10.0191 51.6095 10.2891 51.1295V51.1295Z" fill="#AA8420"/>
<path d="M22.6796 49.2996V52.4596H21.8696V49.3396C21.8696 48.8696 21.7896 48.5196 21.6196 48.3096C21.4596 48.0996 21.1896 47.9896 20.8296 47.9896C20.3996 47.9896 20.0696 48.1296 19.8296 48.4196C19.5896 48.7096 19.4696 49.0996 19.4696 49.5896V52.4596H18.6596V49.3396C18.6596 48.8696 18.5796 48.5296 18.4096 48.3196C18.2396 48.0996 17.9796 47.9896 17.6096 47.9896C17.1796 47.9896 16.8496 48.1296 16.6096 48.4196C16.3696 48.7096 16.2396 49.0996 16.2396 49.5896V52.4596H15.4296V48.8396C15.4296 48.3196 15.3996 47.8496 15.3496 47.4296H16.1196L16.1996 48.3096C16.3396 47.9896 16.5496 47.7396 16.8196 47.5696C17.0996 47.3996 17.4196 47.3096 17.7896 47.3096C18.1896 47.3096 18.5196 47.3896 18.7696 47.5496C19.0196 47.7096 19.2096 47.9596 19.3296 48.2896C19.4796 47.9896 19.7096 47.7496 19.9996 47.5796C20.2996 47.3996 20.6296 47.3096 20.9996 47.3096C22.1096 47.3096 22.6696 47.9696 22.6696 49.2996H22.6796Z" fill="#AA8420"/>
<path d="M31.4706 49.2996V52.4596H30.6606V49.3396C30.6606 48.8696 30.5806 48.5196 30.4106 48.3096C30.2506 48.0996 29.9806 47.9896 29.6206 47.9896C29.1906 47.9896 28.8606 48.1296 28.6206 48.4196C28.3806 48.7096 28.2606 49.0996 28.2606 49.5896V52.4596H27.4506V49.3396C27.4506 48.8696 27.3706 48.5296 27.2006 48.3196C27.0306 48.0996 26.7706 47.9896 26.4006 47.9896C25.9706 47.9896 25.6406 48.1296 25.4006 48.4196C25.1606 48.7096 25.0306 49.0996 25.0306 49.5896V52.4596H24.2206V48.8396C24.2206 48.3196 24.1906 47.8496 24.1406 47.4296H24.9106L24.9906 48.3096C25.1306 47.9896 25.3406 47.7396 25.6106 47.5696C25.8906 47.3996 26.2106 47.3096 26.5806 47.3096C26.9806 47.3096 27.3106 47.3896 27.5606 47.5496C27.8106 47.7096 28.0006 47.9596 28.1206 48.2896C28.2706 47.9896 28.5006 47.7496 28.7906 47.5796C29.0906 47.3996 29.4206 47.3096 29.7906 47.3096C30.9006 47.3096 31.4606 47.9696 31.4606 49.2996H31.4706Z" fill="#AA8420"/>
<path d="M174.761 40.14C174.321 39.88 173.981 39.5 173.751 39C173.511 38.51 173.391 37.92 173.391 37.26C173.391 36.6 173.511 36.01 173.741 35.51C173.971 35.02 174.311 34.64 174.751 34.38C175.191 34.12 175.711 33.98 176.311 33.98C176.911 33.98 177.431 34.11 177.871 34.38C178.311 34.65 178.641 35.02 178.881 35.51C179.121 36 179.231 36.58 179.231 37.25C179.231 37.92 179.111 38.5 178.871 39C178.631 39.49 178.301 39.87 177.861 40.14C177.421 40.41 176.911 40.54 176.311 40.54C175.711 40.54 175.201 40.41 174.761 40.14V40.14ZM177.891 39.21C178.271 38.75 178.461 38.09 178.461 37.25C178.461 36.41 178.271 35.75 177.901 35.3C177.531 34.85 177.001 34.62 176.311 34.62C175.621 34.62 175.091 34.85 174.721 35.31C174.351 35.77 174.151 36.42 174.151 37.26C174.151 38.1 174.341 38.76 174.721 39.22C175.101 39.68 175.631 39.91 176.311 39.91C176.991 39.91 177.521 39.68 177.891 39.22V39.21Z" fill="#231815"/>
<path d="M185.71 34.0498V40.4598H185.13L181.26 35.2998V40.4598H180.57V34.0498H181.14L185.01 39.2098V34.0498H185.71Z" fill="#231815"/>
<path d="M187.291 34.0498H188.031V39.8298H191.241V40.4598H187.291V34.0498Z" fill="#231815"/>
<path d="M192.191 34.0498H192.931V40.4598H192.191V34.0498Z" fill="#231815"/>
<path d="M199.65 34.0498V40.4598H199.07L195.2 35.2998V40.4598H194.51V34.0498H195.08L198.95 39.2098V34.0498H199.65Z" fill="#231815"/>
<path d="M201.23 34.05H205.28V34.66H201.96V36.89H205.1V37.51H201.96V39.84H205.28V40.45H201.23V34.04V34.05Z" fill="#231815"/>
<path d="M177.999 49.46C178.259 49.77 178.379 50.14 178.379 50.58C178.379 51.19 178.149 51.66 177.689 52.01C177.229 52.36 176.609 52.54 175.829 52.54C175.049 52.54 174.429 52.36 173.969 52.01C173.509 51.66 173.279 51.18 173.279 50.58C173.279 50.15 173.409 49.77 173.679 49.46C173.939 49.15 174.299 48.93 174.759 48.81C174.329 48.68 174.009 48.48 173.779 48.19C173.549 47.9 173.439 47.56 173.439 47.17C173.439 46.78 173.539 46.46 173.739 46.17C173.939 45.89 174.219 45.67 174.579 45.51C174.939 45.35 175.359 45.27 175.829 45.27C176.299 45.27 176.709 45.35 177.079 45.51C177.439 45.67 177.729 45.89 177.919 46.17C178.119 46.45 178.219 46.78 178.219 47.17C178.219 47.56 178.099 47.9 177.869 48.19C177.639 48.48 177.319 48.69 176.909 48.81C177.379 48.94 177.739 49.15 177.989 49.47L177.999 49.46ZM177.119 51.51C177.419 51.28 177.569 50.95 177.569 50.52C177.569 50.13 177.409 49.81 177.089 49.58C176.769 49.34 176.349 49.2 175.819 49.14C175.289 49.19 174.869 49.34 174.549 49.58C174.229 49.82 174.069 50.13 174.069 50.52C174.069 50.95 174.219 51.28 174.519 51.51C174.819 51.74 175.249 51.85 175.809 51.85C176.369 51.85 176.799 51.74 177.099 51.51H177.119ZM174.679 48.13C174.959 48.37 175.349 48.51 175.829 48.57C176.309 48.52 176.689 48.37 176.979 48.13C177.259 47.89 177.399 47.59 177.399 47.21C177.399 46.83 177.259 46.51 176.979 46.28C176.699 46.05 176.319 45.94 175.829 45.94C175.339 45.94 174.949 46.05 174.679 46.28C174.399 46.51 174.259 46.82 174.259 47.21C174.259 47.6 174.399 47.9 174.679 48.13Z" fill="#AA8420"/>
<path d="M183.309 48.2798C183.649 48.4698 183.899 48.7299 184.079 49.0699C184.259 49.4099 184.349 49.7998 184.349 50.2498C184.349 50.6998 184.249 51.0898 184.059 51.4398C183.859 51.7898 183.579 52.0499 183.219 52.2399C182.859 52.4299 182.429 52.5298 181.949 52.5298C181.519 52.5298 181.089 52.4498 180.669 52.2898C180.249 52.1298 179.899 51.9198 179.609 51.6498L179.919 51.0199C180.579 51.5699 181.259 51.8398 181.949 51.8398C182.449 51.8398 182.839 51.6998 183.129 51.4198C183.409 51.1398 183.549 50.7498 183.549 50.2598C183.549 49.7698 183.409 49.4098 183.129 49.1198C182.849 48.8298 182.479 48.6798 182.009 48.6798C181.329 48.6798 180.789 48.9598 180.379 49.5098H179.809V45.3398H184.079V46.0199H180.629V48.5598C181.019 48.1798 181.529 47.9899 182.139 47.9899C182.589 47.9899 182.979 48.0798 183.319 48.2798H183.309Z" fill="#AA8420"/>
<path d="M191.899 47.6401C192.239 47.8601 192.499 48.1701 192.689 48.5701C192.879 48.9701 192.969 49.4201 192.969 49.9501C192.969 50.4801 192.879 50.9201 192.689 51.3101C192.499 51.7001 192.239 52.0001 191.899 52.2201C191.559 52.4301 191.169 52.5401 190.729 52.5401C190.339 52.5401 189.989 52.4501 189.699 52.2801C189.409 52.1101 189.179 51.8601 189.029 51.5401V54.6301H188.219V48.8501C188.219 48.3301 188.189 47.8601 188.139 47.4401H188.909L188.989 48.4101C189.129 48.0601 189.349 47.7901 189.659 47.6001C189.959 47.4101 190.319 47.3101 190.739 47.3101C191.179 47.3101 191.569 47.4201 191.909 47.6401H191.899ZM191.729 51.3601C191.999 51.0301 192.129 50.5501 192.129 49.9401C192.129 49.3301 191.989 48.8501 191.719 48.5001C191.449 48.1601 191.069 47.9901 190.579 47.9901C190.089 47.9901 189.699 48.1601 189.429 48.4901C189.159 48.8201 189.029 49.3001 189.029 49.9201C189.029 50.5401 189.159 51.0201 189.429 51.3501C189.699 51.6901 190.079 51.8601 190.579 51.8601C191.079 51.8601 191.459 51.6901 191.729 51.3601V51.3601Z" fill="#AA8420"/>
<path d="M198.579 52.4602H197.609L196.019 50.4802L194.449 52.4602H193.459L195.549 49.8702L193.579 47.4302H194.559L196.019 49.2802L197.479 47.4302H198.469L196.509 49.8702L198.579 52.4602V52.4602Z" fill="#AA8420"/>
<path d="M108.869 8.6998C109.049 8.4698 109.119 8.0498 109.119 8.0498H97.9492C97.9492 8.0498 98.0892 8.5098 98.1992 8.6998H108.869Z" fill="#AA8420"/>
<path d="M108.22 9.64985C108.43 9.46985 108.64 9.08984 108.64 9.08984H98.4102C98.4102 9.08984 98.5302 9.36985 98.7802 9.64985H108.22Z" fill="#AA8420"/>
<path d="M107.409 10.5098C107.659 10.3698 107.869 10.0898 107.869 10.0898H99.1191C99.1191 10.0898 99.3291 10.3198 99.5391 10.5098H107.409Z" fill="#AA8420"/>
<path d="M106.39 11.3197C106.64 11.2197 106.92 10.9897 106.92 10.9897H100.1C100.1 10.9897 100.1 11.0397 100.58 11.3197H106.39Z" fill="#AA8420"/>
<path d="M101.369 11.8296C101.369 11.8296 102.089 12.2496 103.499 12.2496C104.909 12.2496 105.809 11.8296 105.809 11.8296H101.369Z" fill="#AA8420"/>
<path d="M101.26 12.77C101.26 12.77 102.12 12.82 102.62 13.21C103.11 13.63 103.48 14.32 103.48 14.32C103.48 14.32 103.78 13.65 104.27 13.31C104.76 12.94 105.54 12.77 105.54 12.77H114.36L116.1 15.34H108.18C108.18 15.34 107.63 15.36 106.79 15.85C106.35 16.1 106.02 16.54 106.02 16.54C106.02 16.54 105.96 16.75 105.86 16.86C105.77 16.98 105.7 17.07 105.59 17.11C105.47 17.16 105.49 17.13 105.49 17.13H101.37C101.37 17.13 101.2 17.07 101.12 16.92C101.03 16.78 101.09 16.83 101 16.72C100.93 16.6 100.77 16.3 100.14 15.89C99.4903 15.47 98.8703 15.43 98.8703 15.43H90.8203L92.5803 12.77H101.26V12.77Z" fill="#003477"/>
<path d="M95.0295 16.4099V29.5499C95.0295 29.5499 95.0795 30.7099 96.0495 32.2799C97.0195 33.8599 98.4295 34.5699 98.4295 34.5699L99.5395 32.8299C99.5395 32.8299 98.5695 32.2499 97.8295 31.1399C97.1095 30.0299 97.1095 29.0799 97.1095 29.0799V16.3999H95.0195L95.0295 16.4099Z" fill="#003477"/>
<path d="M109.93 16.3599V29.0399C109.93 29.0399 109.77 30.3099 109.17 31.2199C108.57 32.1499 107.57 32.8899 107.57 32.8899L108.64 34.5999C108.64 34.5999 110.26 33.4199 111.04 32.1699C111.83 30.9199 112.01 29.0499 112.01 29.0499V16.3699H109.93V16.3599Z" fill="#003477"/>
<path d="M91.7305 16.4097V29.5997C91.7305 29.5997 91.8705 31.6397 93.1405 33.7697C94.4205 35.8997 96.7305 37.3797 96.7305 37.3797L97.8205 35.6397C97.8205 35.6397 96.3405 34.8497 95.1605 33.0497C93.9505 31.2197 93.8905 29.5597 93.8905 29.5597V16.4197H91.7405L91.7305 16.4097Z" fill="#003477"/>
<path d="M101.259 17.7998V31.7298C101.259 31.7298 101.209 31.7798 101.189 31.9798C101.169 32.1898 101.029 32.3298 101.029 32.3298L96.3789 40.0298H110.629L105.979 32.1598L105.839 31.8098L105.789 31.4398V17.8198H104.049V31.9598C104.049 31.9598 104.049 32.1598 104.119 32.3298C104.159 32.4898 104.259 32.7398 104.259 32.7398L107.129 37.4598H99.8589L102.679 32.7598C102.679 32.7598 102.769 32.5998 102.839 32.3698C102.889 32.1598 102.909 31.9598 102.909 31.9598V17.7998H101.249H101.259Z" fill="#AA8420"/>
<path d="M113.15 16.3599V29.3199C113.15 29.3199 113.13 30.9799 111.9 32.8999C110.67 34.8199 109.26 35.6299 109.26 35.6299L110.3 37.3899C110.3 37.3899 112.43 36.0499 113.77 33.9199C115.09 31.7899 115.25 29.3199 115.25 29.3199V16.3599H113.14H113.15Z" fill="#003477"/>
<path d="M97.8792 7.67989C97.8792 7.67989 97.1592 3.76989 100.029 1.82989C100.029 1.82989 101.329 0.629883 103.429 0.629883C105.679 0.629883 106.969 1.80988 106.969 1.80988C110.089 4.09988 109.169 7.68989 109.169 7.68989H97.8792V7.67989Z" fill="#AA8420"/>
<path d="M67.079 63.9597H67.929V57.9196H69.539V57.1396H65.459V57.9196H67.079V63.9597Z" fill="#003477"/>
<path d="M75.1805 63.9597V57.1396H74.3305V59.8896H71.0805V57.1396H70.2305V63.9597H71.0805V60.6897H74.3305V63.9597H75.1805Z" fill="#003477"/>
<path d="M80.16 57.9196V57.1396H76.5V63.9597H80.16V63.1796H77.35V60.5997H80.08V59.8297H77.35V57.9196H80.16Z" fill="#003477"/>
<path d="M83.9297 57.1396V63.9597H84.7797V60.6897H88.0197V63.9597H88.8697V57.1396H88.0197V59.8896H84.7797V57.1396H83.9297Z" fill="#003477"/>
<path d="M93.279 64.0995C95.249 64.0995 96.849 62.5695 96.849 60.5495C96.849 58.5295 95.229 56.9995 93.279 56.9995C91.329 56.9995 89.709 58.5995 89.709 60.5495C89.709 62.4995 91.309 64.0995 93.279 64.0995ZM93.279 57.7895C94.879 57.7895 95.999 59.0495 95.999 60.5495C95.999 62.0495 94.749 63.3095 93.279 63.3095C91.809 63.3095 90.559 62.1095 90.559 60.5495C90.559 58.9895 91.679 57.7895 93.279 57.7895Z" fill="#003477"/>
<path d="M97.6797 63.9598H98.5297V58.8798L103.65 64.2398V57.1398H102.8V62.1798L97.6797 56.8198V63.9598Z" fill="#003477"/>
<path d="M107.94 64.0995C109.85 64.0995 111.17 62.6595 111.17 60.7895V60.5195H108.47V61.2995H110.23C110.19 62.4095 109.05 63.3295 108 63.3295C106.53 63.3295 105.35 61.9695 105.35 60.5395C105.35 59.0095 106.54 57.7795 108.07 57.7795C108.9 57.7795 109.72 58.2195 110.21 58.8895L110.81 58.3195C110.14 57.4795 109.09 56.9995 108.03 56.9995C106.07 56.9995 104.5 58.6095 104.5 60.5695C104.5 62.5295 106.04 64.0995 107.95 64.0995H107.94Z" fill="#003477"/>
<path d="M115.651 61.1096L115.991 60.7896L118.561 63.9597H119.701L116.591 60.2097L119.651 57.1396H118.541L115.651 60.0997V57.1396H114.801V63.9597H115.651V61.1096Z" fill="#003477"/>
<path d="M119.83 60.5495C119.83 62.5695 121.43 64.0995 123.4 64.0995C125.37 64.0995 126.97 62.5695 126.97 60.5495C126.97 58.5295 125.35 56.9995 123.4 56.9995C121.45 56.9995 119.83 58.5995 119.83 60.5495ZM126.12 60.5495C126.12 62.0995 124.87 63.3095 123.4 63.3095C121.93 63.3095 120.68 62.1095 120.68 60.5495C120.68 58.9895 121.8 57.7895 123.4 57.7895C125 57.7895 126.12 59.0495 126.12 60.5495Z" fill="#003477"/>
<path d="M128.651 58.8798L133.771 64.2398V57.1398H132.921V62.1798L127.801 56.8198V63.9598H128.651V58.8798Z" fill="#003477"/>
<path d="M134.609 60.5695C134.609 62.4595 136.149 64.0995 138.049 64.0995C139.949 64.0995 141.279 62.6595 141.279 60.7895V60.5195H138.579V61.2995H140.339C140.299 62.4095 139.159 63.3295 138.109 63.3295C136.639 63.3295 135.459 61.9695 135.459 60.5395C135.459 59.0095 136.649 57.7795 138.179 57.7795C139.009 57.7795 139.829 58.2195 140.319 58.8895L140.919 58.3195C140.249 57.4795 139.209 56.9995 138.149 56.9995C136.189 56.9995 134.619 58.6095 134.619 60.5695H134.609Z" fill="#003477"/>
<path d="M57.5699 72.0097C57.5699 73.1197 57.2399 74.1497 55.9199 74.1497C54.5999 74.1497 54.2699 73.1197 54.2699 72.0097V67.9897H53.4199V72.2997C53.4199 73.7997 54.3499 74.9497 55.9099 74.9497C57.4699 74.9497 58.4099 73.7997 58.4099 72.2997V67.9897H57.5599V72.0097H57.5699Z" fill="#003477"/>
<path d="M65.5696 67.9897H64.7196V73.0197L59.5996 67.6597V74.7997H60.4496V69.7197L65.5696 75.0797V67.9897Z" fill="#003477"/>
<path d="M67.6898 67.9897H66.8398V74.8097H67.6898V67.9897Z" fill="#003477"/>
<path d="M69.2796 67.9897H68.3496L71.3096 75.1697L74.2696 67.9897H73.3396L71.3096 73.0297L69.2796 67.9897Z" fill="#003477"/>
<path d="M78.5995 68.7697V67.9897H74.9395V74.7997H78.5995V74.0297H75.7894V71.4497H78.5195V70.6697H75.7894V68.7697H78.5995Z" fill="#003477"/>
<path d="M83.4605 69.9295C83.4605 69.2795 83.1305 68.6395 82.5605 68.2995C82.0205 67.9895 81.3705 67.9795 80.7605 67.9795H79.7305V74.7995H80.5805V71.9195H80.9305L82.9405 74.7995H83.9705L81.8205 71.8395C82.8105 71.7195 83.4605 70.9095 83.4605 69.9295V69.9295ZM80.8605 71.2195H80.5905V68.7495H80.8205C81.6605 68.7495 82.6705 68.8995 82.6705 69.9695C82.6705 71.0395 81.7305 71.2195 80.8605 71.2195V71.2195Z" fill="#003477"/>
<path d="M86.5491 74.1498C85.8191 74.1498 85.2191 73.6098 85.2291 72.8598L84.3691 73.0398C84.5191 74.1298 85.3691 74.9498 86.4791 74.9498C87.6991 74.9498 88.6591 74.0598 88.6591 72.8298C88.6591 71.6898 87.9391 71.1598 86.9691 70.7798L86.4791 70.5898C86.0591 70.4298 85.5291 70.1498 85.5291 69.6098C85.5291 69.0098 86.1291 68.6398 86.6691 68.6398C87.2091 68.6398 87.5091 68.8598 87.7591 69.2798L88.4391 68.8698C88.0691 68.2098 87.4491 67.8398 86.6891 67.8398C85.6591 67.8398 84.6791 68.4999 84.6791 69.5999C84.6791 70.5499 85.3891 70.9898 86.1591 71.3298L86.6292 71.5298C87.2192 71.7698 87.8091 72.0899 87.8091 72.8199C87.8091 73.5499 87.2891 74.1498 86.5491 74.1498V74.1498Z" fill="#003477"/>
<path d="M90.5004 67.9897H89.6504V74.8097H90.5004V67.9897Z" fill="#003477"/>
<path d="M95.3205 67.9897H91.2305V68.7697H92.8505V74.7997H93.7005V68.7697H95.3205V67.9897Z" fill="#003477"/>
<path d="M98.4509 74.7997V71.8397L100.671 67.9897H99.7009L98.0209 70.8997L96.3509 67.9897H95.3809L97.6009 71.8397V74.7997H98.4509Z" fill="#003477"/>
<path d="M107.14 67.8398C105.19 67.8398 103.57 69.4398 103.57 71.3898C103.57 73.3398 105.17 74.9398 107.14 74.9398C109.11 74.9398 110.71 73.4098 110.71 71.3898C110.71 69.3698 109.09 67.8398 107.14 67.8398ZM107.14 74.1498C105.67 74.1498 104.42 72.9498 104.42 71.3898C104.42 69.8298 105.54 68.6299 107.14 68.6299C108.74 68.6299 109.86 69.8898 109.86 71.3898C109.86 72.8898 108.61 74.1498 107.14 74.1498Z" fill="#003477"/>
<path d="M114.919 68.7697V67.9897H111.619V74.7997H112.469V71.4597H114.839V70.6797H112.469V68.7697H114.919Z" fill="#003477"/>
<path d="M120.52 74.1498C119.79 74.1498 119.19 73.6098 119.2 72.8598L118.34 73.0398C118.48 74.1298 119.35 74.9498 120.45 74.9498C121.67 74.9498 122.63 74.0598 122.63 72.8298C122.63 71.6898 121.91 71.1598 120.94 70.7798L120.45 70.5898C120.03 70.4298 119.5 70.1498 119.5 69.6098C119.5 69.0098 120.1 68.6398 120.64 68.6398C121.16 68.6398 121.48 68.8598 121.73 69.2798L122.41 68.8698C122.04 68.2098 121.42 67.8398 120.66 67.8398C119.63 67.8398 118.65 68.4999 118.65 69.5999C118.65 70.5499 119.36 70.9898 120.13 71.3298L120.6 71.5298C121.19 71.7698 121.78 72.0899 121.78 72.8199C121.78 73.5499 121.26 74.1498 120.52 74.1498V74.1498Z" fill="#003477"/>
<path d="M126.819 68.6196C127.459 68.6196 128.129 68.8496 128.619 69.2896V68.3096C128.099 67.9896 127.499 67.8496 126.899 67.8496C124.889 67.8496 123.279 69.4196 123.279 71.4396C123.279 73.4596 124.889 74.9596 126.829 74.9596C127.429 74.9596 128.099 74.7896 128.619 74.4796V73.4796C128.109 73.9296 127.469 74.1896 126.799 74.1896C125.279 74.1896 124.119 72.9196 124.119 71.4196C124.119 69.9196 125.289 68.6396 126.809 68.6396L126.819 68.6196Z" fill="#003477"/>
<path d="M130.539 67.9897H129.689V74.8097H130.539V67.9897Z" fill="#003477"/>
<path d="M135.56 74.0297H132.75V71.4497H135.48V70.6697H132.75V68.7697H135.56V67.9897H131.9V74.7997H135.56V74.0297Z" fill="#003477"/>
<path d="M136.619 74.7997H137.469V69.7197L142.589 75.0797V67.9897H141.739V73.0197L136.619 67.6597V74.7997Z" fill="#003477"/>
<path d="M143.51 71.4299C143.51 73.3999 145.12 74.9499 147.06 74.9499C147.66 74.9499 148.33 74.7799 148.85 74.4699V73.4699C148.34 73.9199 147.7 74.1799 147.03 74.1799C145.51 74.1799 144.35 72.9099 144.35 71.4099C144.35 69.9099 145.52 68.6299 147.04 68.6299C147.68 68.6299 148.35 68.8599 148.84 69.2999V68.3199C148.32 67.9999 147.72 67.8599 147.12 67.8599C145.11 67.8599 143.49 69.4299 143.49 71.4499L143.51 71.4299Z" fill="#003477"/>
<path d="M153.619 68.7697V67.9897H149.959V74.7997H153.619V74.0297H150.809V71.4497H153.539V70.6697H150.809V68.7697H153.619Z" fill="#003477"/>
<path d="M62.4199 85.6496H63.3299L64.1099 83.9396H67.2399L68.0199 85.6496H68.9299L65.6799 78.5396L62.4299 85.6496H62.4199ZM64.4599 83.1596L65.6699 80.3996L66.8799 83.1596H64.4599V83.1596Z" fill="#003477"/>
<path d="M74.62 83.8698L69.5 78.5098V85.6498H70.35V80.5698L75.47 85.9298V78.8298H74.62V83.8698Z" fill="#003477"/>
<path d="M78.1092 78.8296H76.6992V85.6496H78.0792C80.2292 85.6496 81.9292 84.5296 81.9292 82.2096C81.9292 79.8896 80.1992 78.8396 78.1092 78.8396V78.8296ZM77.8492 84.8696H77.5492V79.6096H77.8492C79.5892 79.6096 81.0892 80.2496 81.0892 82.2396C81.0892 84.2296 79.5892 84.8696 77.8492 84.8696Z" fill="#003477"/>
<path d="M84.9395 79.6096H86.5594V85.6496H87.4095V79.6096H89.0294V78.8296H84.9395V79.6096Z" fill="#003477"/>
<path d="M89.7891 85.6496H93.4491V84.8696H90.6391V82.2896H93.3691V81.5196H90.6391V79.6096H93.4491V78.8296H89.7891V85.6496Z" fill="#003477"/>
<path d="M94.2095 82.2795C94.2095 84.2495 95.8194 85.7995 97.7594 85.7995C98.3594 85.7995 99.0295 85.6295 99.5495 85.3195V84.3195C99.0395 84.7695 98.3994 85.0295 97.7294 85.0295C96.2094 85.0295 95.0495 83.7595 95.0495 82.2595C95.0495 80.7595 96.2195 79.4795 97.7395 79.4795C98.3795 79.4795 99.0494 79.7095 99.5394 80.1495V79.1695C99.0194 78.8495 98.4195 78.7095 97.8195 78.7095C95.8095 78.7095 94.1895 80.2795 94.1895 82.2995L94.2095 82.2795Z" fill="#003477"/>
<path d="M104.68 81.5796H101.43V78.8296H100.58V85.6496H101.43V82.3796H104.68V85.6496H105.52V78.8296H104.68V81.5796Z" fill="#003477"/>
<path d="M111.88 83.8698L106.76 78.5098V85.6498H107.62V80.5698L112.73 85.9298V78.8298H111.88V83.8698Z" fill="#003477"/>
<path d="M117.121 78.6895C115.171 78.6895 113.551 80.2895 113.551 82.2395C113.551 84.1895 115.151 85.7894 117.121 85.7894C119.091 85.7894 120.691 84.2595 120.691 82.2395C120.691 80.2195 119.071 78.6895 117.121 78.6895ZM117.121 84.9995C115.641 84.9995 114.401 83.7995 114.401 82.2395C114.401 80.6795 115.521 79.4794 117.121 79.4794C118.721 79.4794 119.841 80.7395 119.841 82.2395C119.841 83.7395 118.591 84.9995 117.121 84.9995Z" fill="#003477"/>
<path d="M122.459 78.8296H121.609V85.6496H124.529V84.8696H122.459V78.8296Z" fill="#003477"/>
<path d="M128.269 78.6895C126.319 78.6895 124.699 80.2895 124.699 82.2395C124.699 84.1895 126.299 85.7894 128.269 85.7894C130.239 85.7894 131.839 84.2595 131.839 82.2395C131.839 80.2195 130.219 78.6895 128.269 78.6895ZM128.269 84.9995C126.789 84.9995 125.549 83.7995 125.549 82.2395C125.549 80.6795 126.669 79.4794 128.269 79.4794C129.869 79.4794 130.989 80.7395 130.989 82.2395C130.989 83.7395 129.739 84.9995 128.269 84.9995Z" fill="#003477"/>
<path d="M136.259 82.9897H138.019C137.979 84.0997 136.839 85.0197 135.789 85.0197C134.319 85.0197 133.139 83.6597 133.139 82.2297C133.139 80.6997 134.329 79.4597 135.859 79.4597C136.689 79.4597 137.509 79.8997 137.999 80.5697L138.599 79.9997C137.929 79.1597 136.879 78.6797 135.829 78.6797C133.869 78.6797 132.289 80.2897 132.289 82.2497C132.289 84.2097 133.829 85.7797 135.739 85.7797C137.649 85.7797 138.969 84.3397 138.969 82.4697V82.1997H136.269V82.9797L136.259 82.9897Z" fill="#003477"/>
<path d="M141.839 81.7396L140.169 78.8296H139.189L141.409 82.6796V85.6496H142.259V82.6796L144.489 78.8296H143.509L141.839 81.7396Z" fill="#003477"/>
<path d="M69.8604 49.8899C70.2304 49.7699 70.4904 49.6699 70.6504 49.5999V53.5799H71.5104V53.1499H76.0704V53.5799H76.9304V49.5499C77.0504 49.6199 77.1904 49.6699 77.3404 49.7199C77.4904 49.7599 77.6204 49.8099 77.7504 49.8699L78.1604 49.0299C76.8204 48.7599 75.8004 48.2899 75.1004 47.6099H78.0804V46.8399H74.1704V46.0599C75.4204 45.9499 76.4604 45.8199 77.3004 45.6399L76.9004 44.8799C75.6304 45.1699 73.7704 45.3099 71.3004 45.3099C70.7804 45.3099 70.3504 45.3099 69.9904 45.2899L70.3004 46.1399C70.9004 46.1399 71.9004 46.1199 73.2904 46.0799V46.8299H69.4804V47.5999H72.3404C71.5104 48.2999 70.5304 48.7799 69.4004 49.0599L69.8504 49.8899H69.8604ZM76.0704 52.3799H71.5104V51.5599H76.0704V52.3799ZM74.1704 47.6199C74.7504 48.3899 75.5104 48.9599 76.4604 49.3299H74.1704V47.6199ZM76.0704 50.1099V50.8199H71.5104V50.1099H76.0704ZM73.3004 47.6199V49.3299H71.1904C72.0604 48.9599 72.7704 48.3899 73.3004 47.6199Z" fill="#003477"/>
<path d="M88.8504 51.1697C88.8104 51.6597 88.7604 51.9997 88.7104 52.1997C88.6604 52.3897 88.5104 52.4897 88.2504 52.4897H85.5004C85.2804 52.4897 85.1704 52.3797 85.1704 52.1597V51.5697H88.1604V49.6697C88.5304 49.9997 89.0004 50.3397 89.5704 50.6797L89.9704 49.8497C88.9704 49.3597 88.3404 48.8597 88.1004 48.3597H89.8704V47.5797H88.2004V46.6197H89.7304V45.8897H88.2004V44.9297H87.3604V45.8897H85.6704V44.9297H84.8204V45.8897H83.5904V46.0097C83.2304 45.7297 82.7804 45.4297 82.2604 45.0897L81.6504 45.7797C82.0604 46.0397 82.5304 46.3997 83.0304 46.8597L83.6004 46.1597V46.6597H84.8304V47.5897H83.4104V48.3697H84.8904C84.6204 48.9497 83.9704 49.4697 82.9404 49.9397L83.4704 50.7197C83.8804 50.4597 84.1704 50.2697 84.3204 50.1397V52.2197C84.3204 52.6397 84.4004 52.9297 84.5504 53.0797C84.7104 53.2297 84.9904 53.2997 85.3904 53.2997H88.3904C88.8704 53.2997 89.1804 53.2197 89.3504 53.0497C89.5204 52.8797 89.6504 52.3597 89.7504 51.4997L88.8604 51.1697H88.8504ZM85.6604 46.6697H87.3504V47.5797H85.6604V46.6697ZM85.8704 48.3597H87.1204C87.2904 48.6897 87.4804 48.9697 87.6904 49.1897H85.3204C85.5504 48.9497 85.7304 48.6697 85.8704 48.3597ZM85.1604 49.9297H87.2904V50.8397H85.1604V49.9297Z" fill="#003477"/>
<path d="M83.2991 48.3995C82.8291 48.0395 82.3691 47.7395 81.9291 47.4995L81.3691 48.1995C81.7291 48.4395 82.1691 48.7795 82.6691 49.1995L83.2991 48.3995V48.3995Z" fill="#003477"/>
<path d="M83.2501 50.6995L82.4401 50.2295C82.2401 51.1095 81.8701 51.9295 81.3301 52.7095L82.0701 53.4695C82.6001 52.6295 82.9901 51.7095 83.2501 50.7095V50.6995Z" fill="#003477"/>
<path d="M99.6704 48.8998C98.9904 48.3798 98.4204 47.9998 97.9504 47.7598L97.4004 48.3798C97.8904 48.6698 98.4504 49.0798 99.0904 49.6098L99.6704 48.8898V48.8998Z" fill="#003477"/>
<path d="M93.6704 51.8399C94.2704 51.0499 94.7004 50.3599 94.9304 49.7599V53.5699L95.7804 53.5299V49.2299C95.9504 49.4499 96.1104 49.6599 96.2704 49.8499C96.4504 50.0599 96.6404 50.2899 96.8304 50.5499L97.3504 49.7499C97.0004 49.3699 96.4704 48.8499 95.7804 48.2099V48.1299H97.1904V47.3299H95.7804V46.0199C96.2704 45.9199 96.7404 45.7899 97.1804 45.6399L96.8604 44.8799C95.8704 45.2599 94.6804 45.4799 93.2904 45.5499L93.4804 46.3299C94.1104 46.2899 94.5904 46.2399 94.9204 46.1699V47.3299H93.2004V48.1299H94.9004C94.5104 49.1599 93.9304 50.1099 93.1504 50.9899L93.6704 51.8199V51.8399Z" fill="#003477"/>
<path d="M99.8499 46.6696C99.1199 46.1396 98.5498 45.7596 98.1498 45.5396L97.5898 46.1496C98.0198 46.4096 98.5698 46.8096 99.2598 47.3596L99.8499 46.6596V46.6696Z" fill="#003477"/>
<path d="M97.0801 51.4998L100.19 51.0298V53.5798H101.05V50.9198L101.89 50.7798V49.9298L101.05 50.0699V44.8398H100.19V50.1698L97.0801 50.6398V51.4998Z" fill="#003477"/>
<path d="M105.04 49.7296L105.26 50.7296C105.56 50.6596 105.98 50.5496 106.5 50.4096V52.2996C106.5 52.4996 106.4 52.6096 106.19 52.6096L105.38 52.5796L105.59 53.5196H106.32C106.78 53.5196 107.07 53.4496 107.2 53.2996C107.32 53.1596 107.39 52.8696 107.39 52.4296V50.1596C107.92 49.9796 108.28 49.8396 108.48 49.7296V48.8196C108.25 48.9296 107.89 49.0696 107.39 49.2296V47.5896H108.49V46.9996H110.49V48.2396H108.65V49.0896H112.33C112.06 49.8696 111.61 50.5096 110.98 51.0096C110.55 50.5796 110.13 49.9896 109.7 49.2396L108.93 49.5496C109.39 50.3896 109.85 51.0396 110.33 51.5296C109.44 52.1296 108.55 52.5296 107.66 52.7296L108.17 53.5696C109.06 53.3896 109.99 52.9196 110.97 52.1696C111.69 52.8296 112.45 53.2896 113.27 53.5496L113.74 52.6796C112.96 52.4596 112.26 52.0996 111.64 51.5896C111.99 51.2796 112.33 50.8596 112.65 50.3196C112.98 49.7796 113.18 49.3496 113.26 49.0096V48.2396H111.39V46.9996H113.58V46.1596H111.39V44.8496H110.47V46.1596H108.48V46.7496H107.39V44.8496H106.48V46.7496H105.11V47.5996H106.48V49.4596C106.04 49.5796 105.55 49.6696 105.02 49.7396L105.04 49.7296Z" fill="#003477"/>
<path d="M116.9 52.6699L117.6 53.5499C119.68 52.1799 120.92 50.3799 121.34 48.1499H121.49C122.11 50.6399 123.25 52.4399 124.92 53.5299L125.63 52.6799C124.71 52.0699 123.99 51.3599 123.46 50.5299C122.94 49.6999 122.6 48.9099 122.46 48.1599H125.43V47.1899H121.5C121.55 46.6999 121.57 45.9299 121.57 44.8599H120.6C120.6 45.8499 120.56 46.6299 120.48 47.1899H117.12V48.1699H120.32C120.17 49.0399 119.78 49.8899 119.16 50.6999C118.53 51.5199 117.77 52.1699 116.9 52.6699V52.6699Z" fill="#003477"/>
<path d="M133.71 46.0797C133.46 45.5697 133.2 45.1097 132.94 44.6997L132.17 45.0497C132.43 45.4697 132.67 45.9397 132.9 46.4697L133.71 46.0797V46.0797Z" fill="#003477"/>
<path d="M129.709 47.5897H136.599V48.7397H137.529V46.7797H135.619C135.899 46.3097 136.179 45.7397 136.459 45.0497L135.449 44.6597C135.129 45.5397 134.829 46.2497 134.529 46.7797H128.779V48.7797H129.709V47.5897V47.5897Z" fill="#003477"/>
<path d="M131.551 46.2397C131.291 45.7697 131.021 45.3497 130.741 44.9697L129.971 45.3197C130.251 45.7097 130.501 46.1497 130.741 46.6297L131.551 46.2497V46.2397Z" fill="#003477"/>
<path d="M132.33 52.8596C131.99 52.8596 131.67 52.8496 131.36 52.8196L131.55 53.6696H132.86C133.08 53.6696 133.28 53.5796 133.44 53.3996C133.55 53.2896 133.61 53.1196 133.63 52.8996V51.3496H137.26V50.5396H133.63V50.2496C134.48 49.9096 135.24 49.5496 135.91 49.1596V48.3496H130.4V49.1596H134.51C133.85 49.4696 133.23 49.7096 132.64 49.8896V50.5396H128.98V51.3496H132.64V52.6196C132.64 52.7796 132.54 52.8596 132.33 52.8596V52.8596Z" fill="#003477"/>
</svg>
