<svg width="230" height="124" viewBox="0 0 230 124" fill="none" xmlns="http://www.w3.org/2000/svg">
<path d="M21.5192 77.4602H14.1992V52.2002H21.5192V52.4502H14.4492V77.2102H21.5192V77.4602Z" fill="#231815"/>
<path d="M21.5192 102.47H14.1992V77.46H21.5192V77.71H14.4492V102.22H21.5192V102.47Z" fill="#231815"/>
<path d="M208.09 112.69H183.08V105.36H183.33V112.44H207.84V105.36H208.09V112.69Z" fill="#231815"/>
<path d="M217.42 52.4201H210.1V52.1701H217.17V26.8501H210.1V26.6001H217.42V52.4201Z" fill="#231815"/>
<path d="M48.7893 23.6999H48.5393V16.6299H23.7793V23.6999H23.5293V16.3799H48.7893V23.6999Z" fill="#231815"/>
<path d="M10.2702 67.2598H9.29023L7.63023 64.9698L5.97023 67.2598H4.99023L7.16023 64.3498L5.09023 61.5698H6.06023L7.64023 63.7498L9.22023 61.5698H10.2002L8.11023 64.3598L10.2802 67.2598H10.2702Z" fill="#231815"/>
<path d="M27.4902 5.94995V6.62994H24.1602V5.94995H25.4102V1.91994L24.2502 2.63995V1.87994L25.7602 0.939941H26.2402V5.95993H27.4902V5.94995Z" fill="#231815"/>
<path d="M33.1609 6.62994H32.1809L30.5209 4.33994L28.8609 6.62994H27.8809L30.0509 3.71994L27.9809 0.939941H28.9509L30.5309 3.11993L32.1109 0.939941H33.0909L31.0009 3.72995L33.1709 6.62994H33.1609Z" fill="#231815"/>
<path d="M223.73 39.8098V40.4898H220.4V39.8098H221.65V35.7798L220.49 36.4998V35.7398L222 34.7998H222.48V39.8198H223.73V39.8098Z" fill="#231815"/>
<path d="M229.401 40.4898H228.421L226.761 38.1998L225.101 40.4898H224.121L226.291 37.5798L224.221 34.7998H225.191L226.771 36.9798L228.351 34.7998H229.331L227.241 37.5898L229.411 40.4898H229.401Z" fill="#231815"/>
<path d="M3.33 89.51V90.19H0V89.51H1.25V85.48L0.09 86.2V85.44L1.6 84.5H2.08V89.52H3.33V89.51Z" fill="#231815"/>
<path d="M9.0007 90.19H8.0207L6.3607 87.9L4.7007 90.19H3.7207L5.8907 87.28L3.8207 84.5H4.7907L6.3707 86.68L7.9507 84.5H8.9307L6.8407 87.29L9.0107 90.19H9.0007Z" fill="#231815"/>
<path d="M195.019 122.4V123.08H191.689V122.4H192.939V118.37L191.779 119.09V118.33L193.289 117.39H193.769V122.41H195.019V122.4Z" fill="#231815"/>
<path d="M200.7 123.08H199.72L198.06 120.79L196.4 123.08H195.42L197.59 120.17L195.52 117.39H196.49L198.07 119.57L199.65 117.39H200.63L198.54 120.18L200.71 123.08H200.7Z" fill="#231815"/>
<path d="M208.089 102.47H23.5293V26.6001H208.089V102.47ZM23.7793 102.22H207.839V26.8501H23.7793V102.22Z" fill="#231815"/>
<path d="M48.7891 26.6001H48.5391V102.47H48.7891V26.6001Z" fill="#231815"/>
<path d="M183.33 26.6001H183.08V102.47H183.33V26.6001Z" fill="#231815"/>
<path d="M208.099 52.2002H23.5293V52.4502H208.099V52.2002Z" fill="#231815"/>
<path d="M208.099 77.21H23.5293V77.46H208.099V77.21Z" fill="#231815"/>
<path d="M65.0691 62.6398H51.9691V52.5498H48.5391V77.5698H51.9691V65.5598H65.0691V77.5698H68.4991V52.5498H65.0691V62.6398Z" fill="#003477"/>
<path d="M100.529 52.5498H96.0395L84.3695 63.3998V52.5498H80.9395V77.5698H84.3695V67.1198L85.7495 65.9198L96.1095 77.5698H100.749L88.1595 63.7998L100.529 52.5498Z" fill="#003477"/>
<path d="M126.538 67.3201C126.538 71.4001 125.188 75.1801 119.898 75.1801C114.608 75.1801 113.258 71.4001 113.258 67.3201V52.5601H109.828V68.3801C109.828 73.8901 113.588 78.1001 119.898 78.1001C126.208 78.1001 129.968 73.8901 129.968 68.3801V52.5601H126.538V67.3201V67.3201Z" fill="#003477"/>
<path d="M151.209 62.77L149.239 62.07C147.519 61.47 145.409 60.45 145.409 58.49C145.409 56.3 147.809 54.94 150.009 54.94C152.089 54.94 153.399 55.74 154.419 57.29L157.159 55.8C155.659 53.38 153.149 52.02 150.079 52.02C145.919 52.02 141.979 54.44 141.979 58.49C141.979 61.97 144.829 63.6 147.959 64.83L149.859 65.56C152.229 66.46 154.599 67.62 154.599 70.3C154.599 72.98 152.489 75.17 149.529 75.17C146.569 75.17 144.169 73.18 144.199 70.43L140.729 71.09C141.319 75.1 144.779 78.09 149.229 78.09C154.149 78.09 158.019 74.84 158.019 70.3C158.019 66.12 155.099 64.16 151.199 62.77H151.209Z" fill="#003477"/>
<path d="M166.709 52.5498V55.4098H173.239V77.5698H176.669V55.4098H183.199V52.5498H166.709Z" fill="#003477"/>
</svg>
