<svg width="197" height="98" viewBox="0 0 197 98" fill="none" xmlns="http://www.w3.org/2000/svg">
<path d="M105.301 11.3402C105.561 11.0102 105.651 10.4302 105.651 10.4302H89.9609C89.9609 10.4302 90.1509 11.0802 90.3109 11.3402H105.291H105.301Z" fill="#AA8420"/>
<path d="M104.389 12.6701C104.679 12.4101 104.979 11.8901 104.979 11.8901H90.6094C90.6094 11.8901 90.7694 12.2801 91.1294 12.6701H104.389V12.6701Z" fill="#AA8420"/>
<path d="M103.259 13.88C103.619 13.69 103.909 13.29 103.909 13.29H91.6191C91.6191 13.29 91.9091 13.61 92.2091 13.88H103.259V13.88Z" fill="#AA8420"/>
<path d="M101.82 15.0098C102.17 14.8798 102.57 14.5498 102.57 14.5498H92.9902C92.9902 14.5498 92.9903 14.6198 93.6703 15.0098H101.82Z" fill="#AA8420"/>
<path d="M94.7695 15.73C94.7695 15.73 95.7796 16.32 97.7596 16.32C99.7396 16.32 101.01 15.73 101.01 15.73H94.7695Z" fill="#AA8420"/>
<path d="M94.6094 17.0601C94.6094 17.0601 95.8094 17.1201 96.5194 17.6801C97.1994 18.2701 97.7295 19.2401 97.7295 19.2401C97.7295 19.2401 98.1494 18.3001 98.8294 17.8101C99.5094 17.2901 100.619 17.0601 100.619 17.0601H112.999L115.439 20.6701H104.319C104.319 20.6701 103.539 20.7001 102.369 21.3901C101.749 21.7401 101.289 22.3601 101.289 22.3601C101.289 22.3601 101.199 22.6501 101.059 22.8101C100.929 22.9801 100.829 23.1101 100.669 23.1701C100.499 23.2401 100.539 23.2001 100.539 23.2001H94.7495C94.7495 23.2001 94.5195 23.1101 94.3895 22.9101C94.2595 22.7201 94.3495 22.7801 94.2295 22.6201C94.1295 22.4601 93.8994 22.0301 93.0294 21.4501C92.1194 20.8601 91.2394 20.8001 91.2394 20.8001H79.9395L82.3994 17.0601H94.5894H94.6094Z" fill="#003477"/>
<path d="M85.8594 22.1602V40.6202C85.8594 40.6202 85.9294 42.2502 87.2894 44.4502C88.6594 46.6602 90.6394 47.6702 90.6394 47.6702L92.1994 45.2302C92.1994 45.2302 90.8394 44.4102 89.7994 42.8502C88.7894 41.2902 88.7894 39.9602 88.7894 39.9602V22.1602H85.8594V22.1602Z" fill="#003477"/>
<path d="M106.8 22.1001V39.9101C106.8 39.9101 106.57 41.7001 105.72 42.9701C104.88 44.2701 103.48 45.3101 103.48 45.3101L104.98 47.7101C104.98 47.7101 107.25 46.0601 108.35 44.3001C109.46 42.5401 109.72 39.9101 109.72 39.9101V22.1001H106.79H106.8Z" fill="#003477"/>
<path d="M81.2207 22.1602V40.6802C81.2207 40.6802 81.4107 43.5402 83.2007 46.5302C84.9907 49.5202 88.2307 51.6002 88.2307 51.6002L89.7607 49.1602C89.7607 49.1602 87.6807 48.0502 86.0307 45.5202C84.3307 42.9502 84.2407 40.6102 84.2407 40.6102V22.1602H81.2207V22.1602Z" fill="#003477"/>
<path d="M94.61 24.1099V43.6699C94.61 43.6699 94.54 43.7299 94.51 44.0199C94.48 44.3199 94.28 44.5099 94.28 44.5099L87.75 55.3299H107.77L101.24 44.2799L101.05 43.7899L100.98 43.2699V24.1499H98.55V44.0099C98.55 44.0099 98.55 44.2999 98.65 44.5299C98.71 44.7599 98.84 45.1099 98.84 45.1099L102.87 51.7399H92.67L96.63 45.1399C96.63 45.1399 96.76 44.9099 96.86 44.5899C96.93 44.2999 96.96 44.0099 96.96 44.0099V24.1099H94.62H94.61Z" fill="#AA8420"/>
<path d="M111.31 22.1001V40.3001C111.31 40.3001 111.28 42.6401 109.56 45.3401C107.84 48.0401 105.85 49.1801 105.85 49.1801L107.32 51.6501C107.32 51.6501 110.31 49.7601 112.19 46.7701C114.04 43.7801 114.27 40.3101 114.27 40.3101V22.1001H111.31V22.1001Z" fill="#003477"/>
<path d="M89.8604 9.91C89.8604 9.91 88.8604 4.42 92.8804 1.69C92.8904 1.69 94.7004 0 97.6604 0C100.81 0 102.63 1.66 102.63 1.66C107.02 4.87 105.72 9.91 105.72 9.91H89.8604Z" fill="#AA8420"/>
<path d="M74.4696 68.1296V66.7197H67.2996V65.2896C69.5896 65.0996 71.4996 64.8396 73.0396 64.5296L72.3096 63.1396C69.9896 63.6596 66.5696 63.9196 62.0496 63.9196C61.0996 63.9196 60.2996 63.9096 59.6596 63.8896L60.2196 65.4496C61.3296 65.4496 63.1596 65.4196 65.7096 65.3496V66.7197H58.7296V68.1296H63.9796C62.4496 69.4096 60.6596 70.2996 58.5996 70.7896L59.4196 72.2997C60.0996 72.0697 60.5796 71.8996 60.8596 71.7796V79.0596H62.4396V78.2796H70.7996V79.0596H72.3796V71.6897C72.6096 71.8097 72.8596 71.9196 73.1296 71.9996C73.3996 72.0796 73.6496 72.1696 73.8796 72.2696L74.6296 70.7197C72.1796 70.2397 70.3196 69.3697 69.0296 68.1197H74.4996L74.4696 68.1296ZM61.8396 71.3096C63.4396 70.6296 64.7296 69.5897 65.7096 68.1897V71.3096H61.8396ZM70.7896 76.8796H62.4396V75.3896H70.7896V76.8796ZM70.7896 74.0296H62.4396V72.7396H70.7896V74.0296ZM71.5096 71.3096H67.3196V68.1696C68.3796 69.5796 69.7796 70.6296 71.5096 71.3096Z" fill="#003477"/>
<path d="M83.1687 69.5997C82.2987 68.9297 81.4587 68.3797 80.6587 67.9497L79.6387 69.2197C80.3087 69.6597 81.0986 70.2697 82.0186 71.0497L83.1687 69.5897V69.5997Z" fill="#003477"/>
<path d="M93.3096 74.66C93.2296 75.55 93.1496 76.18 93.0496 76.54C92.9596 76.89 92.6796 77.07 92.1996 77.07H87.1596C86.7596 77.07 86.5696 76.87 86.5696 76.48V75.39H92.0296V71.91C92.7096 72.52 93.5696 73.14 94.6096 73.76L95.3396 72.25C93.5096 71.35 92.3596 70.43 91.9096 69.52H95.1496V68.09H92.0996V66.34H94.8996V65H92.0996V63.23H90.5696V65H87.4796V63.23H85.9196V65H83.6596V65.22C82.9896 64.71 82.1796 64.15 81.2196 63.54L80.0996 64.8C80.8596 65.28 81.6996 65.94 82.6296 66.79L83.6696 65.5V66.41H85.9296V68.11H83.3296V69.54H86.0496C85.5496 70.6 84.3596 71.56 82.4796 72.41L83.4496 73.84C84.2096 73.37 84.7296 73.01 85.0096 72.77V76.57C85.0096 77.34 85.1496 77.86 85.4296 78.15C85.7196 78.42 86.2296 78.56 86.9596 78.56H92.4496C93.3196 78.56 93.9096 78.41 94.1996 78.1C94.4996 77.78 94.7496 76.84 94.9296 75.27L93.2996 74.68L93.3096 74.66ZM87.4796 66.43H90.5696V68.09H87.4796V66.43ZM87.8596 69.52H90.1496C90.4696 70.12 90.8096 70.63 91.1896 71.05H86.8596C87.2796 70.61 87.6096 70.1 87.8596 69.52V69.52ZM86.5696 72.39H90.4696V74.06H86.5696V72.39Z" fill="#003477"/>
<path d="M83.0688 73.8097L81.5888 72.9497C81.2288 74.5597 80.5488 76.0697 79.5488 77.4797L80.9088 78.8697C81.8788 77.3297 82.5988 75.6397 83.0588 73.8097H83.0688Z" fill="#003477"/>
<path d="M112.579 66.4396C111.249 65.4696 110.209 64.7696 109.479 64.3696L108.459 65.4896C109.239 65.9596 110.259 66.7096 111.509 67.7096L112.579 66.4396V66.4396Z" fill="#003477"/>
<path d="M105.141 69.2897V69.1397H107.721V67.6797H105.141V65.2897C106.031 65.1097 106.891 64.8797 107.701 64.5897L107.121 63.1997C105.301 63.8897 103.121 64.2997 100.581 64.4197L100.941 65.8397C102.091 65.7597 102.971 65.6697 103.571 65.5497V67.6697H100.411V69.1297H103.521C102.801 71.0097 101.741 72.7497 100.311 74.3797L101.261 75.8997C102.371 74.4497 103.141 73.1797 103.571 72.0997V79.0797L105.131 79.0097V71.1297C105.431 71.5397 105.741 71.9197 106.031 72.2697C106.371 72.6597 106.711 73.0897 107.051 73.5597L108.001 72.0997C107.351 71.3997 106.401 70.4597 105.131 69.2797L105.141 69.2897Z" fill="#003477"/>
<path d="M112.259 70.5197C111.019 69.5697 109.969 68.8797 109.119 68.4297L108.119 69.5697C109.009 70.0997 110.039 70.8497 111.209 71.8297L112.259 70.5197Z" fill="#003477"/>
<path d="M113.21 79.0798H114.79V74.2098L116.32 73.9498V72.4098L114.79 72.6598V63.0898H113.21V72.8498L107.52 73.6998V75.2798L113.21 74.4098V79.0798Z" fill="#003477"/>
<path d="M129.579 69.1499C130.709 73.7099 132.809 76.9899 135.859 78.9999L137.159 77.4399C135.469 76.3299 134.149 75.0199 133.189 73.4999C132.229 71.9799 131.619 70.5299 131.359 69.1499L136.789 69.1699V67.3699H129.589C129.679 66.4799 129.729 65.0599 129.729 63.1099H127.949C127.949 64.9199 127.879 66.3399 127.729 67.3699H121.589V69.1699H127.449C127.179 70.7599 126.469 72.3099 125.329 73.7999C124.179 75.2899 122.799 76.4999 121.189 77.4099L122.479 79.0199C126.279 76.5199 128.559 73.2299 129.319 69.1399H129.589L129.579 69.1499Z" fill="#003477"/>
<path d="M69.2591 88.51H61.7491V82.73H59.7891V97.06H61.7491V90.18H69.2591V97.06H71.2291V82.73H69.2591V88.51Z" fill="#003477"/>
<path d="M89.5796 82.73H87.0096L80.3196 88.95V82.73H78.3496V97.06H80.3196V91.08L81.1096 90.39L87.0496 97.06H89.6996L82.4896 89.18L89.5796 82.73Z" fill="#003477"/>
<path d="M104.48 91.19C104.48 93.53 103.71 95.69 100.68 95.69C97.6501 95.69 96.8701 93.52 96.8701 91.19V82.73H94.9102V91.8C94.9102 94.96 97.0601 97.37 100.68 97.37C104.3 97.37 106.45 94.96 106.45 91.8V82.73H104.49V91.19H104.48Z" fill="#003477"/>
<path d="M118.609 88.5899L117.479 88.1899C116.489 87.8499 115.279 87.2599 115.279 86.1399C115.279 84.8899 116.659 84.1099 117.919 84.1099C119.109 84.1099 119.859 84.5699 120.449 85.4599L122.019 84.6099C121.159 83.2199 119.719 82.4399 117.969 82.4399C115.589 82.4399 113.329 83.8299 113.329 86.1499C113.329 88.1499 114.959 89.0799 116.759 89.7799L117.849 90.1999C119.209 90.7099 120.569 91.3799 120.569 92.9199C120.569 94.4599 119.359 95.7099 117.659 95.7099C115.959 95.7099 114.589 94.5699 114.609 92.9899L112.619 93.3699C112.949 95.6699 114.939 97.3799 117.489 97.3799C120.309 97.3799 122.529 95.5199 122.529 92.9099C122.529 90.5199 120.859 89.3899 118.619 88.5999L118.609 88.5899Z" fill="#003477"/>
<path d="M127.5 84.37H131.24V97.06H133.21V84.37H136.95V82.73H127.5V84.37Z" fill="#003477"/>
<path d="M48.2108 97.37H42.3008V0H48.2108V0.25H42.5508V97.12H48.2108V97.37Z" fill="#231815"/>
<path d="M153.461 97.37H147.551V97.12H153.211V0.25H147.551V0H153.461V97.37Z" fill="#231815"/>
<path d="M0.720947 39.1401H3.28094C3.94094 39.1401 4.45095 39.3001 4.82095 39.6201C5.19095 39.9401 5.37094 40.3801 5.37094 40.9301C5.37094 41.4801 5.18094 41.9301 4.81094 42.2501C4.44094 42.5701 3.92094 42.7301 3.27094 42.7301H1.45096V45.5501H0.710938V39.1401H0.720947ZM3.21094 42.1201C3.68094 42.1201 4.04094 42.0201 4.28094 41.8101C4.52094 41.6101 4.64096 41.3101 4.64096 40.9301C4.64096 40.5501 4.52094 40.2501 4.28094 40.0501C4.04094 39.8501 3.68094 39.7501 3.21094 39.7501H1.46094V42.1201H3.21094V42.1201Z" fill="#231815"/>
<path d="M11.6118 45.5499H10.8318L10.0418 43.4199C9.94181 43.1599 9.81182 42.9799 9.64182 42.8899C9.47182 42.7999 9.23181 42.7599 8.92181 42.7599H7.32181V45.5599H6.5918V39.1499H9.14182C9.83182 39.1499 10.3618 39.2999 10.7318 39.6099C11.1018 39.9199 11.2818 40.3599 11.2818 40.9299C11.2818 41.3499 11.1718 41.6999 10.9518 41.9899C10.7318 42.2799 10.4118 42.4799 10.0018 42.5999C10.1918 42.6299 10.3418 42.7099 10.4818 42.8399C10.6218 42.9699 10.7218 43.1499 10.8118 43.3899L11.6218 45.5599L11.6118 45.5499ZM9.0618 42.1399C10.0418 42.1399 10.5418 41.7399 10.5418 40.9299C10.5418 40.5299 10.4218 40.2399 10.1818 40.0399C9.94179 39.8499 9.5718 39.7499 9.0618 39.7499H7.3118V42.1299H9.0618V42.1399Z" fill="#231815"/>
<path d="M12.8105 39.1401H13.5505V45.5501H12.8105V39.1401Z" fill="#231815"/>
<path d="M20.2708 39.1401V45.5501H19.6909L15.8209 40.3901V45.5501H15.1309V39.1401H15.7009L19.5709 44.3001V39.1401H20.2708Z" fill="#231815"/>
<path d="M23.4019 39.7701H21.1719V39.1401H26.3819V39.7701H24.1519V45.5501H23.4019V39.7701V39.7701Z" fill="#231815"/>
<path d="M26.7012 44.8101L26.9812 44.2401C27.3012 44.5101 27.6212 44.7001 27.9512 44.8201C28.2812 44.9301 28.6612 44.9901 29.1012 44.9901C29.6212 44.9901 30.0112 44.8901 30.2912 44.6901C30.5712 44.4901 30.7112 44.2101 30.7112 43.8401C30.7112 43.6201 30.6412 43.4501 30.5112 43.3101C30.3712 43.1801 30.2012 43.0701 29.9812 42.9901C29.7612 42.9101 29.4712 42.8301 29.1012 42.7501C28.6112 42.6401 28.2012 42.5201 27.8912 42.4001C27.5812 42.2801 27.3112 42.0901 27.1212 41.8601C26.9212 41.6201 26.8212 41.3101 26.8212 40.9301C26.8212 40.5501 26.9211 40.2401 27.1111 39.9601C27.3011 39.6801 27.5712 39.4601 27.9212 39.3101C28.2712 39.1501 28.6812 39.0801 29.1512 39.0801C29.6212 39.0801 30.0112 39.1501 30.3912 39.2901C30.7712 39.4301 31.1011 39.6301 31.3611 39.8901L31.0712 40.4601C30.7712 40.2001 30.4712 40.0101 30.1612 39.8901C29.8512 39.7701 29.5112 39.7101 29.1512 39.7101C28.6512 39.7101 28.2612 39.8201 27.9812 40.0301C27.7012 40.2401 27.5612 40.5301 27.5612 40.9101C27.5612 41.2301 27.6812 41.4801 27.9312 41.6401C28.1812 41.8001 28.5512 41.9401 29.0612 42.0601C29.6112 42.1901 30.0511 42.3101 30.3611 42.4201C30.6711 42.5301 30.9412 42.7001 31.1512 42.9201C31.3612 43.1501 31.4712 43.4401 31.4712 43.8201C31.4712 44.2001 31.3712 44.5001 31.1812 44.7701C30.9912 45.0401 30.7111 45.2501 30.3611 45.4001C30.0011 45.5501 29.5812 45.6301 29.1012 45.6301C28.1012 45.6301 27.3012 45.3601 26.7112 44.8201L26.7012 44.8101Z" fill="#231815"/>
<path d="M4.93094 56.8602V57.5502H0.960938V56.8602H2.53094V51.4502L1.07095 52.3802V51.5902L2.89096 50.4302H3.36093V56.8602H4.93094V56.8602Z" fill="#AA8420"/>
<path d="M10.1609 53.3702C10.5009 53.5602 10.7509 53.8202 10.9309 54.1602C11.1109 54.5002 11.201 54.8902 11.201 55.3402C11.201 55.7902 11.1009 56.1802 10.9109 56.5302C10.7109 56.8802 10.431 57.1402 10.071 57.3302C9.71095 57.5202 9.28093 57.6202 8.80093 57.6202C8.37093 57.6202 7.94094 57.5402 7.52094 57.3802C7.10094 57.2202 6.75094 57.0102 6.46094 56.7402L6.77094 56.1102C7.43094 56.6602 8.11093 56.9302 8.80093 56.9302C9.30093 56.9302 9.69095 56.7902 9.97095 56.5102C10.2509 56.2302 10.391 55.8402 10.391 55.3502C10.391 54.8602 10.2509 54.5002 9.97095 54.2102C9.69095 53.9202 9.32095 53.7702 8.85095 53.7702C8.17095 53.7702 7.63095 54.0502 7.22095 54.6002H6.65094V50.4302H10.921V51.1102H7.47095V53.6502C7.86095 53.2702 8.37096 53.0802 8.98096 53.0802C9.43096 53.0802 9.82095 53.1702 10.1609 53.3702V53.3702Z" fill="#AA8420"/>
<path d="M22.3203 54.3904V57.5504H21.5103V54.4304C21.5103 53.9604 21.4303 53.6104 21.2603 53.4004C21.1003 53.1904 20.8302 53.0804 20.4702 53.0804C20.0402 53.0804 19.7102 53.2204 19.4702 53.5104C19.2302 53.8004 19.1102 54.1904 19.1102 54.6804V57.5504H18.3002V54.4304C18.3002 53.9604 18.2202 53.6204 18.0502 53.4104C17.8802 53.1904 17.6202 53.0804 17.2502 53.0804C16.8202 53.0804 16.4902 53.2204 16.2502 53.5104C16.0102 53.8004 15.8802 54.1904 15.8802 54.6804V57.5504H15.0703V53.9304C15.0703 53.4104 15.0402 52.9404 14.9902 52.5204H15.7603L15.8402 53.4004C15.9802 53.0804 16.1902 52.8304 16.4602 52.6604C16.7402 52.4904 17.0603 52.4004 17.4203 52.4004C17.8203 52.4004 18.1502 52.4804 18.4002 52.6404C18.6502 52.8004 18.8402 53.0504 18.9602 53.3804C19.1102 53.0804 19.3402 52.8404 19.6302 52.6704C19.9202 52.5004 20.2602 52.4004 20.6302 52.4004C21.7402 52.4004 22.3002 53.0604 22.3002 54.3904H22.3203Z" fill="#AA8420"/>
<path d="M31.1112 54.3904V57.5504H30.3012V54.4304C30.3012 53.9604 30.2212 53.6104 30.0512 53.4004C29.8912 53.1904 29.6213 53.0804 29.2613 53.0804C28.8313 53.0804 28.5013 53.2204 28.2613 53.5104C28.0213 53.8004 27.9012 54.1904 27.9012 54.6804V57.5504H27.0912V54.4304C27.0912 53.9604 27.0112 53.6204 26.8412 53.4104C26.6712 53.1904 26.4113 53.0804 26.0413 53.0804C25.6113 53.0804 25.2813 53.2204 25.0413 53.5104C24.8013 53.8004 24.6713 54.1904 24.6713 54.6804V57.5504H23.8612V53.9304C23.8612 53.4104 23.8313 52.9404 23.7812 52.5204H24.5512L24.6313 53.4004C24.7713 53.0804 24.9813 52.8304 25.2513 52.6604C25.5313 52.4904 25.8512 52.4004 26.2112 52.4004C26.6112 52.4004 26.9413 52.4804 27.1913 52.6404C27.4413 52.8004 27.6313 53.0504 27.7513 53.3804C27.9013 53.0804 28.1313 52.8404 28.4213 52.6704C28.7113 52.5004 29.0513 52.4004 29.4213 52.4004C30.5313 52.4004 31.0912 53.0604 31.0912 54.3904H31.1112Z" fill="#AA8420"/>
<path d="M165.761 45.2298C165.321 44.9698 164.981 44.5898 164.751 44.0898C164.511 43.5998 164.391 43.0098 164.391 42.3498C164.391 41.6898 164.511 41.0998 164.741 40.5998C164.971 40.0998 165.311 39.7298 165.751 39.4698C166.191 39.2098 166.711 39.0698 167.311 39.0698C167.911 39.0698 168.431 39.1998 168.871 39.4698C169.311 39.7298 169.641 40.1098 169.881 40.5998C170.111 41.0898 170.231 41.6698 170.231 42.3398C170.231 43.0098 170.111 43.5898 169.871 44.0898C169.631 44.5798 169.291 44.9598 168.861 45.2298C168.421 45.4998 167.911 45.6298 167.311 45.6298C166.711 45.6298 166.201 45.4998 165.761 45.2298ZM168.891 44.2998C169.271 43.8398 169.461 43.1798 169.461 42.3398C169.461 41.4998 169.271 40.8398 168.901 40.3898C168.531 39.9398 168.001 39.7098 167.311 39.7098C166.621 39.7098 166.091 39.9398 165.721 40.3998C165.351 40.8598 165.151 41.5098 165.151 42.3498C165.151 43.1898 165.341 43.8498 165.721 44.3098C166.101 44.7698 166.631 44.9998 167.311 44.9998C167.991 44.9998 168.521 44.7698 168.891 44.3098V44.2998Z" fill="#231815"/>
<path d="M176.72 39.1396V45.5496H176.14L172.27 40.3896V45.5496H171.58V39.1396H172.15L176.02 44.2996V39.1396H176.72Z" fill="#231815"/>
<path d="M178.291 39.1396H179.031V44.9196H182.241V45.5496H178.291V39.1396Z" fill="#231815"/>
<path d="M183.201 39.1396H183.941V45.5496H183.201V39.1396Z" fill="#231815"/>
<path d="M190.661 39.1396V45.5496H190.081L186.211 40.3896V45.5496H185.521V39.1396H186.091L189.961 44.2996V39.1396H190.661Z" fill="#231815"/>
<path d="M192.23 39.1399H196.281V39.7499H192.961V41.9799H196.1V42.5999H192.961V44.9299H196.281V45.5399H192.23V39.1299V39.1399Z" fill="#231815"/>
<path d="M168.309 53.3697C168.649 53.5597 168.899 53.8197 169.079 54.1597C169.259 54.4997 169.349 54.8897 169.349 55.3397C169.349 55.7897 169.249 56.1797 169.059 56.5297C168.859 56.8797 168.579 57.1397 168.219 57.3297C167.859 57.5197 167.429 57.6197 166.949 57.6197C166.519 57.6197 166.089 57.5397 165.669 57.3797C165.249 57.2197 164.899 57.0097 164.609 56.7397L164.919 56.1097C165.579 56.6597 166.259 56.9297 166.949 56.9297C167.449 56.9297 167.839 56.7897 168.119 56.5097C168.399 56.2297 168.539 55.8397 168.539 55.3497C168.539 54.8597 168.399 54.4997 168.119 54.2097C167.839 53.9197 167.469 53.7697 166.999 53.7697C166.319 53.7697 165.779 54.0497 165.369 54.5997H164.799V50.4297H169.069V51.1097H165.619V53.6497C166.009 53.2697 166.519 53.0797 167.129 53.0797C167.579 53.0797 167.969 53.1697 168.309 53.3697V53.3697Z" fill="#AA8420"/>
<path d="M170.98 56.7099C170.56 56.0899 170.34 55.1899 170.34 53.9999C170.34 52.8099 170.55 51.8999 170.98 51.2799C171.4 50.6599 172.02 50.3599 172.83 50.3599C173.64 50.3599 174.26 50.6699 174.69 51.2799C175.11 51.8999 175.32 52.7999 175.32 53.9899C175.32 55.1799 175.11 56.0899 174.69 56.7099C174.27 57.3299 173.65 57.6399 172.83 57.6399C172.01 57.6399 171.4 57.3299 170.98 56.7199V56.7099ZM174.09 56.2199C174.36 55.7399 174.5 54.9899 174.5 53.9799C174.5 52.9699 174.37 52.2299 174.1 51.7599C173.83 51.2899 173.41 51.0499 172.84 51.0499C172.27 51.0499 171.86 51.2899 171.59 51.7599C171.32 52.2299 171.18 52.9699 171.18 53.9799C171.18 54.9899 171.32 55.7299 171.59 56.2199C171.86 56.6999 172.28 56.9399 172.84 56.9399C173.4 56.9399 173.83 56.6999 174.09 56.2199Z" fill="#AA8420"/>
<path d="M182.908 52.7299C183.248 52.9499 183.508 53.2599 183.698 53.6599C183.888 54.0599 183.978 54.5099 183.978 55.0399C183.978 55.5699 183.888 56.0099 183.698 56.3999C183.508 56.7899 183.248 57.0899 182.908 57.3099C182.568 57.5199 182.178 57.6299 181.738 57.6299C181.348 57.6299 180.998 57.5399 180.708 57.3699C180.418 57.1999 180.188 56.9499 180.038 56.6299V59.7199H179.228V53.9399C179.228 53.4199 179.198 52.9499 179.148 52.5299H179.918L179.998 53.4999C180.138 53.1499 180.358 52.8799 180.668 52.6899C180.968 52.4999 181.328 52.3999 181.748 52.3999C182.188 52.3999 182.578 52.5099 182.918 52.7299H182.908ZM182.738 56.4499C183.008 56.1199 183.138 55.6399 183.138 55.0299C183.138 54.4199 182.998 53.9399 182.728 53.5899C182.458 53.2499 182.078 53.0799 181.588 53.0799C181.098 53.0799 180.708 53.2499 180.438 53.5799C180.168 53.9099 180.038 54.3899 180.038 55.0099C180.038 55.6299 180.168 56.1099 180.438 56.4399C180.708 56.7799 181.088 56.9499 181.588 56.9499C182.088 56.9499 182.468 56.7799 182.738 56.4499Z" fill="#AA8420"/>
<path d="M189.589 57.55H188.619L187.029 55.57L185.459 57.55H184.469L186.559 54.96L184.589 52.52H185.569L187.029 54.37L188.489 52.52H189.479L187.519 54.96L189.589 57.55Z" fill="#AA8420"/>
</svg>
