<svg width="334" height="48" viewBox="0 0 334 48" fill="none" xmlns="http://www.w3.org/2000/svg">
<path d="M171.78 5.79988C171.9 5.64988 171.94 5.37988 171.94 5.37988H164.65C164.65 5.37988 164.74 5.67988 164.82 5.79988H171.78Z" fill="#AA8420"/>
<path d="M171.349 6.41957C171.479 6.29957 171.619 6.05957 171.619 6.05957H164.939C164.939 6.05957 165.019 6.23957 165.179 6.41957H171.339H171.349Z" fill="#AA8420"/>
<path d="M170.83 6.97995C171 6.88995 171.13 6.70996 171.13 6.70996H165.42C165.42 6.70996 165.56 6.85995 165.69 6.97995H170.83Z" fill="#AA8420"/>
<path d="M170.161 7.5098C170.321 7.4498 170.511 7.2998 170.511 7.2998H166.051C166.051 7.2998 166.051 7.3298 166.371 7.5098H170.161V7.5098Z" fill="#AA8420"/>
<path d="M166.881 7.83984C166.881 7.83984 167.351 8.10985 168.271 8.10985C169.191 8.10985 169.781 7.83984 169.781 7.83984H166.881V7.83984Z" fill="#AA8420"/>
<path d="M166.801 8.45996C166.801 8.45996 167.361 8.48996 167.691 8.73996C168.011 9.00996 168.251 9.46996 168.251 9.46996C168.251 9.46996 168.451 9.02995 168.761 8.80995C169.081 8.56995 169.591 8.45996 169.591 8.45996H175.351L176.481 10.14H171.311C171.311 10.14 170.951 10.15 170.401 10.47C170.111 10.64 169.901 10.92 169.901 10.92C169.901 10.92 169.861 11.06 169.791 11.13C169.731 11.21 169.691 11.27 169.611 11.3C169.531 11.33 169.551 11.31 169.551 11.31H166.861C166.861 11.31 166.751 11.27 166.691 11.17C166.631 11.08 166.681 11.1099 166.621 11.0399C166.571 10.9599 166.471 10.77 166.061 10.5C165.641 10.22 165.231 10.2 165.231 10.2H159.971L161.121 8.45996H166.791H166.801Z" fill="#003477"/>
<path d="M162.74 10.8296V19.4096C162.74 19.4096 162.77 20.1696 163.41 21.1896C164.04 22.2196 164.96 22.6896 164.96 22.6896L165.69 21.5596C165.69 21.5596 165.06 21.1796 164.57 20.4596C164.1 19.7396 164.1 19.1096 164.1 19.1096V10.8296H162.74V10.8296Z" fill="#003477"/>
<path d="M172.47 10.7998V19.0798C172.47 19.0798 172.37 19.9098 171.97 20.4998C171.58 21.0998 170.93 21.5898 170.93 21.5898L171.63 22.7098C171.63 22.7098 172.69 21.9398 173.2 21.1198C173.71 20.2998 173.84 19.0798 173.84 19.0798V10.7998H172.48H172.47Z" fill="#003477"/>
<path d="M160.58 10.8296V19.4396C160.58 19.4396 160.67 20.7696 161.5 22.1596C162.33 23.5496 163.84 24.5196 163.84 24.5196L164.55 23.3896C164.55 23.3896 163.58 22.8796 162.81 21.6996C162.02 20.5096 161.98 19.4196 161.98 19.4196V10.8396H160.58V10.8296Z" fill="#003477"/>
<path d="M166.799 11.74V20.84C166.799 20.84 166.769 20.87 166.759 21.01C166.739 21.15 166.649 21.24 166.649 21.24L163.609 26.27H172.919L169.879 21.13L169.789 20.9L169.759 20.66V11.76H168.629V20.99C168.629 20.99 168.629 21.12 168.679 21.23C168.709 21.33 168.769 21.5 168.769 21.5L170.639 24.58H165.899L167.739 21.51C167.739 21.51 167.799 21.41 167.849 21.25C167.879 21.11 167.889 20.98 167.889 20.98V11.73H166.799V11.74Z" fill="#AA8420"/>
<path d="M174.569 10.7996V19.2596C174.569 19.2596 174.559 20.3496 173.749 21.5996C172.949 22.8596 172.029 23.3796 172.029 23.3796L172.709 24.5296C172.709 24.5296 174.099 23.6496 174.969 22.2596C175.829 20.8696 175.939 19.2496 175.939 19.2496V10.7896H174.559L174.569 10.7996Z" fill="#003477"/>
<path d="M164.599 5.13979C164.599 5.13979 164.129 2.58979 166.009 1.31979C166.009 1.31979 166.859 0.529785 168.229 0.529785C169.699 0.529785 170.539 1.29979 170.539 1.29979C172.579 2.78979 171.969 5.13979 171.969 5.13979H164.599V5.13979Z" fill="#AA8420"/>
<path d="M129.802 35.1298C130.132 35.0198 130.362 34.9398 130.492 34.8798V38.3698H131.252V37.9998H135.252V38.3698H136.012V34.8398C136.122 34.8998 136.242 34.9497 136.372 34.9897C136.502 35.0297 136.622 35.0698 136.732 35.1198L137.092 34.3798C135.922 34.1498 135.022 33.7298 134.412 33.1398H137.032V32.4597H133.602V31.7798C134.692 31.6898 135.612 31.5598 136.352 31.4098L136.002 30.7397C134.892 30.9897 133.252 31.1198 131.092 31.1198C130.632 31.1198 130.252 31.1198 129.942 31.0998L130.212 31.8498C130.742 31.8498 131.622 31.8297 132.842 31.7997V32.4597H129.502V33.1398H132.012C131.282 33.7498 130.422 34.1798 129.432 34.4198L129.822 35.1497L129.802 35.1298ZM135.252 37.3198H131.252V36.5998H135.252V37.3198ZM133.582 33.1497C134.092 33.8297 134.762 34.3298 135.592 34.6598H133.582V33.1497ZM135.252 35.3398V35.9597H131.252V35.3398H135.252ZM132.822 33.1598V34.6598H130.972C131.732 34.3298 132.352 33.8398 132.822 33.1598Z" fill="#003477"/>
<path d="M145.18 33.8198C144.76 33.4998 144.36 33.2398 143.98 33.0298L143.49 33.6398C143.81 33.8498 144.19 34.1398 144.63 34.5198L145.18 33.8198Z" fill="#003477"/>
<path d="M145.421 31.8498V32.2898H146.501V33.1098H145.261V33.7898H146.561C146.321 34.2998 145.751 34.7598 144.851 35.1698L145.311 35.8498C145.671 35.6198 145.921 35.4498 146.061 35.3398V37.1598C146.061 37.5298 146.131 37.7798 146.261 37.9198C146.401 38.0498 146.651 38.1198 146.991 38.1198H149.631C150.051 38.1198 150.331 38.0498 150.471 37.8998C150.621 37.7498 150.731 37.2898 150.821 36.5398L150.041 36.2498C150.001 36.6798 149.961 36.9798 149.921 37.1498C149.881 37.3198 149.741 37.3998 149.511 37.3998H147.091C146.901 37.3998 146.811 37.2998 146.811 37.1198V36.5998H149.431V34.9298C149.761 35.2198 150.171 35.5198 150.671 35.8198L151.021 35.0998C150.141 34.6698 149.591 34.2298 149.381 33.7898H150.931V33.1098H149.461V32.2698H150.801V31.6298H149.461V30.7798H148.731V31.6298H147.251V30.7798H146.511V31.6298H145.431V31.7398C145.111 31.4998 144.721 31.2298 144.261 30.9298L143.721 31.5298C144.081 31.7598 144.491 32.0698 144.931 32.4798L145.431 31.8598L145.421 31.8498ZM147.251 32.2998H148.731V33.0998H147.251V32.2998ZM147.431 33.7798H148.531C148.681 34.0698 148.851 34.3098 149.031 34.5098H146.951C147.151 34.2998 147.311 34.0498 147.431 33.7798V33.7798ZM146.811 35.1598H148.681V35.9598H146.811V35.1598Z" fill="#003477"/>
<path d="M144.421 35.4199C144.251 36.1899 143.921 36.9099 143.441 37.5899L144.091 38.2599C144.561 37.5199 144.901 36.7099 145.121 35.8299L144.411 35.4199H144.421Z" fill="#003477"/>
<path d="M157.87 36.8398C158.4 36.1398 158.77 35.5397 158.98 35.0197V38.3698L159.73 38.3398V34.5598C159.88 34.7598 160.02 34.9398 160.16 35.0998C160.32 35.2898 160.49 35.4898 160.65 35.7198L161.1 35.0197C160.79 34.6797 160.33 34.2298 159.72 33.6698V33.5998H160.96V32.8997H159.72V31.7498C160.15 31.6598 160.56 31.5498 160.95 31.4098L160.67 30.7397C159.8 31.0697 158.75 31.2697 157.54 31.3297L157.71 32.0098C158.26 31.9698 158.68 31.9298 158.97 31.8698V32.8898H157.46V33.5898H158.95C158.61 34.4898 158.09 35.3297 157.41 36.1097L157.87 36.8398V36.8398Z" fill="#003477"/>
<path d="M163.291 32.2996C162.651 31.8296 162.151 31.4996 161.801 31.3096L161.311 31.8496C161.681 32.0796 162.171 32.4296 162.771 32.9196L163.281 32.3096L163.291 32.2996Z" fill="#003477"/>
<path d="M164.341 30.6895H163.581V35.3694L160.861 35.7794V36.5395L163.581 36.1194V38.3594H164.341V36.0294L165.071 35.8994V35.1595L164.341 35.2895V30.6895Z" fill="#003477"/>
<path d="M163.131 34.2598C162.531 33.7998 162.031 33.4698 161.621 33.2598L161.141 33.7997C161.571 34.0597 162.061 34.4198 162.621 34.8798L163.121 34.2498L163.131 34.2598Z" fill="#003477"/>
<path d="M177.24 36.6094C177.55 36.3394 177.85 35.9695 178.13 35.4995C178.42 35.0295 178.6 34.6495 178.67 34.3495V33.6695H177.02V32.5794H178.94V31.8394H177.02V30.6895H176.21V31.8394H174.46V32.3594H173.5V30.6895H172.7V32.3594H171.5V33.0995H172.7V34.7394C172.31 34.8394 171.88 34.9195 171.41 34.9795L171.61 35.8594C171.88 35.7894 172.24 35.6994 172.7 35.5794V37.2394C172.7 37.4194 172.61 37.5095 172.43 37.5095L171.72 37.4795L171.91 38.2994H172.55C172.95 38.2994 173.21 38.2295 173.33 38.0995C173.44 37.9795 173.5 37.7194 173.5 37.3294V35.3394C173.97 35.1794 174.28 35.0595 174.45 34.9695V34.1695C174.25 34.2695 173.93 34.3894 173.5 34.5294V33.0894H174.46V32.5695H176.22V33.6595H174.61V34.4095H177.84C177.61 35.0895 177.21 35.6494 176.66 36.0894C176.29 35.7094 175.91 35.1995 175.54 34.5395L174.87 34.8094C175.27 35.5394 175.68 36.1195 176.1 36.5395C175.32 37.0695 174.54 37.4194 173.76 37.5894L174.21 38.3294C174.99 38.1694 175.81 37.7595 176.67 37.0995C177.3 37.6695 177.97 38.0794 178.69 38.3094L179.1 37.5395C178.42 37.3495 177.8 37.0294 177.26 36.5894L177.24 36.6094Z" fill="#003477"/>
<path d="M192.45 38.3197L193.08 37.5697C192.27 37.0397 191.64 36.4097 191.18 35.6797C190.72 34.9497 190.42 34.2597 190.3 33.5897H192.9V32.7397H189.45C189.49 32.3097 189.52 31.6297 189.52 30.6997H188.66C188.66 31.5697 188.63 32.2497 188.56 32.7397H185.61V33.5997H188.42C188.29 34.3597 187.95 35.1097 187.4 35.8197C186.85 36.5397 186.19 37.1197 185.42 37.5497L186.04 38.3197C187.86 37.1197 188.95 35.5397 189.32 33.5797H189.45C189.99 35.7697 191 37.3397 192.46 38.2997L192.45 38.3197Z" fill="#003477"/>
<path d="M202.021 31.7897L202.441 32.3397C202.801 32.1797 203.121 32.0197 203.391 31.8397C203.451 31.8397 203.591 31.9897 203.811 32.2997L204.311 31.9297C204.131 31.7397 203.991 31.5997 203.881 31.4997C204.081 31.3697 204.241 31.2197 204.361 31.0597L203.951 30.6897C203.851 30.8297 203.691 30.9697 203.451 31.1297C203.231 30.9697 203.021 30.8197 202.811 30.6797L202.371 31.0597C202.601 31.2097 202.791 31.3297 202.921 31.4397C202.781 31.5397 202.481 31.6497 202.021 31.7697V31.7897Z" fill="#003477"/>
<path d="M202.961 37.4196C202.961 37.5796 202.881 37.6596 202.721 37.6596L201.611 37.6296L201.791 38.2896H202.991C203.481 38.2896 203.731 37.9996 203.731 37.4196V37.0796H207.111V36.4196H203.731C204.431 36.1996 205.021 35.9696 205.501 35.7096V35.1196H200.971V35.7196H204.401C203.821 35.8896 203.351 35.9996 202.981 36.0696V36.4196H199.451V37.0796H202.981V37.4196H202.961Z" fill="#003477"/>
<path d="M204.051 32.2998C203.841 32.5298 203.651 32.6998 203.491 32.8098C203.371 32.7098 203.251 32.6298 203.151 32.5598C203.061 32.5098 202.971 32.4498 202.861 32.3798L202.441 32.7398C202.701 32.9198 202.881 33.0498 202.981 33.1298C202.791 33.2398 202.511 33.3398 202.131 33.4198L202.481 33.9698C202.871 33.8398 203.181 33.6898 203.431 33.5098C203.471 33.5098 203.611 33.6698 203.861 33.9898L204.381 33.5898C204.231 33.4398 204.071 33.2998 203.921 33.1598C204.091 33.0398 204.271 32.8698 204.471 32.6698L204.041 32.2998H204.051Z" fill="#003477"/>
<path d="M200.332 34.7697H206.212V35.9698H206.942V34.1298H206.512L206.602 30.9098H204.592V31.5497H205.882V31.9998H204.682V32.5497H205.862L205.842 33.0098H204.682V33.5698H205.822V34.1198H200.712L200.692 33.5698H201.912V33.0098H200.672V32.5497H201.912V31.9998H200.642L200.622 31.5797C201.282 31.5397 201.772 31.4597 202.072 31.3597L201.712 30.7598C201.222 30.8898 200.622 30.9697 199.922 30.9897L200.012 34.1198H199.602V35.9597H200.322V34.7598L200.332 34.7697Z" fill="#003477"/>
<path d="M52.1309 42.2098H53.5509V47.5098H54.3009V42.2098H55.7209V41.5298H52.1309V42.2098Z" fill="#003477"/>
<path d="M59.9103 43.9398H57.0603V41.5298H56.3203V47.5098H57.0603V44.6398H59.9103V47.5098H60.6603V41.5298H59.9103V43.9398Z" fill="#003477"/>
<path d="M61.8203 47.5098H65.0303V46.8298H62.5603V44.5698H64.9603V43.8798H62.5603V42.2098H65.0303V41.5298H61.8203V47.5098Z" fill="#003477"/>
<path d="M71.9318 43.9398H69.0818V41.5298H68.3418V47.5098H69.0818V44.6398H71.9318V47.5098H72.6818V41.5298H71.9318V43.9398Z" fill="#003477"/>
<path d="M76.5499 41.3999C74.8399 41.3999 73.4199 42.7999 73.4199 44.5199C73.4199 46.2399 74.8199 47.6399 76.5499 47.6399C78.2799 47.6399 79.6799 46.2999 79.6799 44.5199C79.6799 42.7399 78.2599 41.3999 76.5499 41.3999ZM76.5499 46.9399C75.2599 46.9399 74.1599 45.8899 74.1599 44.5199C74.1599 43.1499 75.1399 42.0999 76.5499 42.0999C77.9599 42.0999 78.9399 43.1999 78.9399 44.5199C78.9399 45.8399 77.8499 46.9399 76.5499 46.9399Z" fill="#003477"/>
<path d="M84.9002 45.9498L80.4102 41.2397V47.5098H81.1602V43.0497L85.6502 47.7598V41.5298H84.9002V45.9498Z" fill="#003477"/>
<path d="M89.8704 45.1799H91.4204C91.3904 46.1599 90.3904 46.9599 89.4604 46.9599C88.1704 46.9599 87.1404 45.7699 87.1404 44.5099C87.1404 43.1699 88.1904 42.0799 89.5304 42.0799C90.2604 42.0799 90.9804 42.4699 91.4104 43.0599L91.9304 42.5599C91.3404 41.8199 90.4204 41.3999 89.5004 41.3999C87.7804 41.3999 86.4004 42.8099 86.4004 44.5399C86.4004 46.2699 87.7504 47.6399 89.4204 47.6399C91.0904 47.6399 92.2504 46.3799 92.2504 44.7399V44.4999H89.8804V45.1799H89.8704Z" fill="#003477"/>
<path d="M99.6916 41.5298H98.7116L96.1716 44.1198V41.5298H95.4316V47.5098H96.1716V45.0098L96.4716 44.7198L98.7316 47.5098H99.7316L97.0016 44.2198L99.6916 41.5298Z" fill="#003477"/>
<path d="M102.982 41.3999C101.272 41.3999 99.8516 42.7999 99.8516 44.5199C99.8516 46.2399 101.252 47.6399 102.982 47.6399C104.712 47.6399 106.112 46.2999 106.112 44.5199C106.112 42.7399 104.692 41.3999 102.982 41.3999ZM102.982 46.9399C101.692 46.9399 100.592 45.8899 100.592 44.5199C100.592 43.1499 101.572 42.0999 102.982 42.0999C104.392 42.0999 105.372 43.1999 105.372 44.5199C105.372 45.8399 104.282 46.9399 102.982 46.9399Z" fill="#003477"/>
<path d="M111.332 45.9498L106.842 41.2397V47.5098H107.592V43.0497L112.082 47.7598V41.5298H111.332V45.9498Z" fill="#003477"/>
<path d="M116.3 45.1799H117.85C117.82 46.1599 116.82 46.9599 115.89 46.9599C114.6 46.9599 113.57 45.7699 113.57 44.5099C113.57 43.1699 114.62 42.0799 115.96 42.0799C116.69 42.0799 117.41 42.4699 117.84 43.0599L118.36 42.5599C117.77 41.8199 116.85 41.3999 115.93 41.3999C114.21 41.3999 112.83 42.8099 112.83 44.5399C112.83 46.2699 114.18 47.6399 115.85 47.6399C117.52 47.6399 118.68 46.3799 118.68 44.7399V44.4999H116.31V45.1799H116.3Z" fill="#003477"/>
<path d="M125.392 45.0598C125.392 46.0298 125.102 46.9398 123.952 46.9398C122.802 46.9398 122.512 46.0398 122.512 45.0598V41.5298H121.762V45.3198C121.762 46.6398 122.582 47.6398 123.952 47.6398C125.322 47.6398 126.142 46.6298 126.142 45.3198V41.5298H125.402V45.0598H125.392Z" fill="#003477"/>
<path d="M131.66 45.9498L127.17 41.2397V47.5098H127.92V43.0497L132.41 47.7598V41.5298H131.66V45.9498Z" fill="#003477"/>
<path d="M134.281 41.5298H133.531V47.5098H134.281V41.5298Z" fill="#003477"/>
<path d="M137.442 45.9498L135.662 41.5298H134.842L137.442 47.8298L140.042 41.5298H139.222L137.442 45.9498Z" fill="#003477"/>
<path d="M140.621 47.5098H143.841V46.8298H141.371V44.5698H143.771V43.8798H141.371V42.2098H143.841V41.5298H140.621V47.5098Z" fill="#003477"/>
<path d="M148.11 43.2296C148.11 42.6596 147.82 42.0895 147.32 41.7995C146.85 41.5295 146.27 41.5195 145.74 41.5195H144.83V47.4995H145.58V44.9695H145.89L147.65 47.4995H148.56L146.67 44.8995C147.53 44.7995 148.11 44.0796 148.11 43.2296ZM145.83 44.3595H145.59V42.1895H145.79C146.53 42.1895 147.42 42.3296 147.42 43.2596C147.42 44.1896 146.59 44.3495 145.83 44.3495V44.3595Z" fill="#003477"/>
<path d="M151.18 43.9696L150.75 43.7996C150.38 43.6596 149.92 43.4096 149.92 42.9396C149.92 42.4196 150.44 42.0896 150.92 42.0896C151.4 42.0896 151.66 42.2796 151.88 42.6496L152.48 42.2896C152.15 41.7096 151.61 41.3896 150.94 41.3896C150.03 41.3896 149.18 41.9696 149.18 42.9396C149.18 43.7696 149.8 44.1596 150.48 44.4596L150.89 44.6296C151.41 44.8396 151.92 45.1196 151.92 45.7596C151.92 46.3996 151.46 46.9296 150.82 46.9296C150.18 46.9296 149.65 46.4596 149.66 45.7996L148.91 45.9596C149.04 46.9196 149.79 47.6296 150.76 47.6296C151.83 47.6296 152.67 46.8496 152.67 45.7696C152.67 44.7696 152.03 44.2996 151.19 43.9696H151.18Z" fill="#003477"/>
<path d="M154.281 41.5298H153.541V47.5098H154.281V41.5298Z" fill="#003477"/>
<path d="M154.932 42.2098H156.352V47.5098H157.092V42.2098H158.512V41.5298H154.932V42.2098Z" fill="#003477"/>
<path d="M160.891 44.0798L159.421 41.5298H158.561L160.511 44.9098V47.5098H161.261V44.9098L163.211 41.5298H162.351L160.891 44.0798Z" fill="#003477"/>
<path d="M168.892 41.3999C167.182 41.3999 165.762 42.7999 165.762 44.5199C165.762 46.2399 167.162 47.6399 168.892 47.6399C170.622 47.6399 172.022 46.2999 172.022 44.5199C172.022 42.7399 170.602 41.3999 168.892 41.3999ZM168.892 46.9399C167.602 46.9399 166.502 45.8899 166.502 44.5199C166.502 43.1499 167.482 42.0999 168.892 42.0999C170.302 42.0999 171.282 43.1999 171.282 44.5199C171.282 45.8399 170.182 46.9399 168.892 46.9399Z" fill="#003477"/>
<path d="M172.811 47.5098H173.561V44.5698H175.641V43.8898H173.561V42.2098H175.711V41.5298H172.811V47.5098Z" fill="#003477"/>
<path d="M180.991 43.9696L180.561 43.7996C180.191 43.6596 179.731 43.4096 179.731 42.9396C179.731 42.4196 180.251 42.0896 180.731 42.0896C181.181 42.0896 181.471 42.2796 181.691 42.6496L182.291 42.2896C181.961 41.7096 181.421 41.3896 180.751 41.3896C179.851 41.3896 178.991 41.9696 178.991 42.9396C178.991 43.7696 179.611 44.1596 180.291 44.4596L180.701 44.6296C181.221 44.8396 181.731 45.1196 181.731 45.7596C181.731 46.3996 181.271 46.9296 180.631 46.9296C179.991 46.9296 179.461 46.4596 179.471 45.7996L178.711 45.9596C178.841 46.9196 179.591 47.6296 180.561 47.6296C181.631 47.6296 182.471 46.8496 182.471 45.7696C182.471 44.7696 181.831 44.2996 180.991 43.9696V43.9696Z" fill="#003477"/>
<path d="M183.041 44.5497C183.041 46.2797 184.451 47.6397 186.161 47.6397C186.681 47.6397 187.271 47.4897 187.731 47.2197V46.3397C187.291 46.7397 186.721 46.9597 186.141 46.9597C184.811 46.9597 183.791 45.8397 183.791 44.5297C183.791 43.2197 184.811 42.0897 186.161 42.0897C186.721 42.0897 187.311 42.2997 187.741 42.6797V41.8197C187.291 41.5397 186.761 41.4097 186.231 41.4097C184.471 41.4097 183.051 42.7897 183.051 44.5597L183.041 44.5497Z" fill="#003477"/>
<path d="M189.42 41.5298H188.67V47.5098H189.42V41.5298Z" fill="#003477"/>
<path d="M190.621 47.5098H193.831V46.8298H191.361V44.5698H193.761V43.8798H191.361V42.2098H193.831V41.5298H190.621V47.5098Z" fill="#003477"/>
<path d="M199.242 45.9498L194.762 41.2397V47.5098H195.502V43.0497L199.992 47.7598V41.5298H199.242V45.9498Z" fill="#003477"/>
<path d="M200.801 44.5497C200.801 46.2797 202.211 47.6397 203.921 47.6397C204.441 47.6397 205.031 47.4897 205.491 47.2197V46.3397C205.041 46.7397 204.481 46.9597 203.901 46.9597C202.571 46.9597 201.551 45.8397 201.551 44.5297C201.551 43.2197 202.571 42.0897 203.911 42.0897C204.471 42.0897 205.061 42.2997 205.491 42.6797V41.8197C205.041 41.5397 204.511 41.4097 203.981 41.4097C202.221 41.4097 200.801 42.7897 200.801 44.5597V44.5497Z" fill="#003477"/>
<path d="M206.461 47.5098H209.671V46.8298H207.201V44.5698H209.601V43.8798H207.201V42.2098H209.671V41.5298H206.461V47.5098Z" fill="#003477"/>
<path d="M212.41 47.5096H213.21L213.89 46.0096H216.64L217.32 47.5096H218.12L215.26 41.2695L212.4 47.5096H212.41ZM214.2 45.3295L215.26 42.9095L216.32 45.3295H214.19H214.2Z" fill="#003477"/>
<path d="M223.111 45.9498L218.631 41.2397V47.5098H219.371V43.0497L223.861 47.7598V41.5298H223.111V45.9498Z" fill="#003477"/>
<path d="M226.181 41.5298H224.941V47.5098H226.151C228.041 47.5098 229.531 46.5298 229.531 44.4898C229.531 42.4498 228.011 41.5298 226.181 41.5298V41.5298ZM225.951 46.8298H225.691V42.2098H225.951C227.471 42.2098 228.791 42.7698 228.791 44.5198C228.791 46.2698 227.471 46.8298 225.951 46.8298Z" fill="#003477"/>
<path d="M232.17 42.2098H233.59V47.5098H234.34V42.2098H235.76V41.5298H232.17V42.2098Z" fill="#003477"/>
<path d="M236.432 47.5098H239.642V46.8298H237.172V44.5698H239.572V43.8798H237.172V42.2098H239.642V41.5298H236.432V47.5098Z" fill="#003477"/>
<path d="M240.301 44.5497C240.301 46.2797 241.711 47.6397 243.421 47.6397C243.941 47.6397 244.531 47.4897 244.991 47.2197V46.3397C244.541 46.7397 243.981 46.9597 243.401 46.9597C242.071 46.9597 241.051 45.8397 241.051 44.5297C241.051 43.2197 242.071 42.0897 243.421 42.0897C243.981 42.0897 244.571 42.2997 245.001 42.6797V41.8197C244.551 41.5397 244.021 41.4097 243.491 41.4097C241.731 41.4097 240.311 42.7897 240.311 44.5597L240.301 44.5497Z" fill="#003477"/>
<path d="M249.49 43.9398H246.64V41.5298H245.9V47.5098H246.64V44.6398H249.49V47.5098H250.24V41.5298H249.49V43.9398Z" fill="#003477"/>
<path d="M255.81 45.9498L251.32 41.2397V47.5098H252.07V43.0497L256.56 47.7598V41.5298H255.81V45.9498Z" fill="#003477"/>
<path d="M260.411 41.3999C258.701 41.3999 257.281 42.7999 257.281 44.5199C257.281 46.2399 258.691 47.6399 260.411 47.6399C262.131 47.6399 263.541 46.2999 263.541 44.5199C263.541 42.7399 262.121 41.3999 260.411 41.3999ZM260.411 46.9399C259.121 46.9399 258.021 45.8899 258.021 44.5199C258.021 43.1499 259.001 42.0999 260.411 42.0999C261.821 42.0999 262.801 43.1999 262.801 44.5199C262.801 45.8399 261.701 46.9399 260.411 46.9399Z" fill="#003477"/>
<path d="M265.092 41.5298H264.352V47.5098H266.912V46.8298H265.092V41.5298Z" fill="#003477"/>
<path d="M270.191 41.3999C268.481 41.3999 267.061 42.7999 267.061 44.5199C267.061 46.2399 268.461 47.6399 270.191 47.6399C271.921 47.6399 273.321 46.2999 273.321 44.5199C273.321 42.7399 271.901 41.3999 270.191 41.3999ZM270.191 46.9399C268.901 46.9399 267.801 45.8899 267.801 44.5199C267.801 43.1499 268.781 42.0999 270.191 42.0999C271.601 42.0999 272.581 43.1999 272.581 44.5199C272.581 45.8399 271.491 46.9399 270.191 46.9399Z" fill="#003477"/>
<path d="M277.21 45.1799H278.76C278.73 46.1599 277.73 46.9599 276.8 46.9599C275.51 46.9599 274.47 45.7699 274.47 44.5099C274.47 43.1699 275.52 42.0799 276.86 42.0799C277.59 42.0799 278.31 42.4699 278.74 43.0599L279.26 42.5599C278.67 41.8199 277.75 41.3999 276.83 41.3999C275.11 41.3999 273.73 42.8099 273.73 44.5399C273.73 46.2699 275.08 47.6399 276.75 47.6399C278.42 47.6399 279.58 46.3799 279.58 44.7399V44.4999H277.21V45.1799V45.1799Z" fill="#003477"/>
<path d="M283.571 41.5298L282.101 44.0798L280.631 41.5298H279.781L281.731 44.9098V47.5098H282.471V44.9098L284.431 41.5298H283.571Z" fill="#003477"/>
<path d="M43.4003 47.9498H36.0703V0.529785H43.4003V0.779785H36.3203V47.6998H43.4003V47.9498Z" fill="#231815"/>
<path d="M295.869 47.9498H288.539V47.6998H295.619V0.779785H288.539V0.529785H295.869V47.9498Z" fill="#231815"/>
<path d="M0 23.98H2.56C3.22 23.98 3.73 24.14 4.1 24.46C4.47 24.78 4.65 25.22 4.65 25.77C4.65 26.32 4.46 26.77 4.09 27.09C3.72 27.41 3.2 27.57 2.55 27.57H0.74V30.39H0V23.98ZM2.49 26.96C2.96 26.96 3.32 26.86 3.56 26.65C3.8 26.45 3.92 26.15 3.92 25.77C3.92 25.39 3.8 25.09 3.56 24.89C3.32 24.69 2.96 24.59 2.49 24.59H0.74V26.96H2.5H2.49Z" fill="#231815"/>
<path d="M10.8891 30.38H10.1091L9.31914 28.25C9.21914 27.99 9.08914 27.81 8.91914 27.72C8.74914 27.63 8.50914 27.59 8.19914 27.59H6.59914V30.39H5.86914V23.98H8.41914C9.10914 23.98 9.63914 24.13 10.0091 24.44C10.3791 24.75 10.5591 25.19 10.5591 25.76C10.5591 26.18 10.4491 26.53 10.2291 26.82C10.0091 27.11 9.68914 27.31 9.27914 27.43C9.46914 27.46 9.61914 27.54 9.75914 27.67C9.88914 27.8 9.99914 27.98 10.0891 28.22L10.8991 30.39L10.8891 30.38ZM8.33914 26.97C9.31914 26.97 9.81914 26.57 9.81914 25.76C9.81914 25.36 9.69914 25.07 9.45914 24.87C9.21914 24.68 8.84914 24.58 8.33914 24.58H6.58914V26.96H8.33914V26.97Z" fill="#231815"/>
<path d="M12.0996 23.98H12.8396V30.39H12.0996V23.98Z" fill="#231815"/>
<path d="M19.5599 23.98V30.39H18.9799L15.1099 25.23V30.39H14.4199V23.98H14.9899L18.8599 29.14V23.98H19.5599Z" fill="#231815"/>
<path d="M22.6792 24.61H20.4492V23.98H25.6592V24.61H23.4292V30.39H22.6792V24.61Z" fill="#231815"/>
<path d="M25.9805 29.6499L26.2605 29.0799C26.5805 29.3499 26.9005 29.5399 27.2305 29.6599C27.5605 29.7699 27.9405 29.8299 28.3805 29.8299C28.9005 29.8299 29.2905 29.7299 29.5705 29.5299C29.8505 29.3299 29.9905 29.0499 29.9905 28.6799C29.9905 28.4599 29.9205 28.2899 29.7905 28.1499C29.6505 28.0199 29.4805 27.9099 29.2605 27.8299C29.0405 27.7499 28.7505 27.6699 28.3805 27.5899C27.8905 27.4799 27.4805 27.3599 27.1705 27.2399C26.8505 27.1099 26.5905 26.9299 26.4005 26.6999C26.2005 26.4599 26.1005 26.1499 26.1005 25.7699C26.1005 25.3899 26.2005 25.0799 26.3905 24.7999C26.5805 24.5199 26.8505 24.2999 27.2005 24.1499C27.5505 23.9999 27.9605 23.9199 28.4305 23.9199C28.9005 23.9199 29.2905 23.9899 29.6705 24.1299C30.0505 24.2699 30.3805 24.4699 30.6405 24.7299L30.3505 25.2999C30.0505 25.0399 29.7505 24.8499 29.4405 24.7299C29.1305 24.6099 28.7905 24.5499 28.4305 24.5499C27.9305 24.5499 27.5405 24.6599 27.2605 24.8699C26.9805 25.0799 26.8405 25.3699 26.8405 25.7499C26.8405 26.0699 26.9605 26.3199 27.2105 26.4799C27.4605 26.6399 27.8305 26.7799 28.3405 26.8999C28.8905 27.0299 29.3305 27.1499 29.6405 27.2599C29.9505 27.3699 30.2205 27.5399 30.4305 27.7599C30.6405 27.9899 30.7405 28.2799 30.7405 28.6599C30.7405 29.0399 30.6405 29.3399 30.4505 29.6099C30.2605 29.8799 29.9805 30.0899 29.6305 30.2399C29.2705 30.3899 28.8505 30.4699 28.3705 30.4699C27.3705 30.4699 26.5705 30.1999 25.9805 29.6599V29.6499Z" fill="#231815"/>
<path d="M4.22 41.6898V42.3798H0.25V41.6898H1.82V36.2798L0.36 37.2097V36.4198L2.18 35.2598H2.65V41.6898H4.22V41.6898Z" fill="#AA8420"/>
<path d="M9.44023 38.1998C9.78023 38.3898 10.0302 38.6497 10.2102 38.9897C10.3902 39.3297 10.4802 39.7198 10.4802 40.1698C10.4802 40.6198 10.3802 41.0097 10.1902 41.3597C9.99023 41.7097 9.71023 41.9698 9.35023 42.1598C8.99023 42.3498 8.56023 42.4498 8.08023 42.4498C7.65023 42.4498 7.22023 42.3697 6.80023 42.2097C6.38023 42.0497 6.03023 41.8398 5.74023 41.5698L6.05023 40.9398C6.71023 41.4898 7.39023 41.7598 8.08023 41.7598C8.58023 41.7598 8.97023 41.6198 9.26023 41.3398C9.54023 41.0598 9.68023 40.6697 9.68023 40.1797C9.68023 39.6897 9.54023 39.3298 9.26023 39.0398C8.98023 38.7498 8.61023 38.5998 8.14023 38.5998C7.46023 38.5998 6.92023 38.8797 6.51023 39.4297H5.94023V35.2598H10.2102V35.9398H6.76023V38.4798C7.15023 38.0998 7.66024 37.9098 8.27024 37.9098C8.72024 37.9098 9.11023 37.9998 9.45023 38.1998H9.44023Z" fill="#AA8420"/>
<path d="M21.6093 39.22V42.38H20.7993V39.26C20.7993 38.79 20.7193 38.44 20.5493 38.23C20.3893 38.02 20.1193 37.91 19.7593 37.91C19.3293 37.91 18.9993 38.05 18.7593 38.34C18.5193 38.63 18.3993 39.02 18.3993 39.51V42.38H17.5893V39.26C17.5893 38.79 17.5093 38.45 17.3393 38.24C17.1693 38.02 16.9093 37.91 16.5393 37.91C16.1093 37.91 15.7793 38.05 15.5393 38.34C15.2993 38.63 15.1693 39.02 15.1693 39.51V42.38H14.3593V38.76C14.3593 38.24 14.3293 37.77 14.2793 37.35H15.0493L15.1293 38.23C15.2693 37.91 15.4793 37.66 15.7493 37.49C16.0293 37.32 16.3493 37.23 16.7193 37.23C17.1193 37.23 17.4493 37.31 17.6993 37.47C17.9493 37.63 18.1393 37.88 18.2593 38.21C18.4093 37.91 18.6393 37.67 18.9293 37.5C19.2293 37.32 19.5593 37.23 19.9293 37.23C21.0393 37.23 21.5993 37.89 21.5993 39.22H21.6093Z" fill="#AA8420"/>
<path d="M30.4003 39.22V42.38H29.5903V39.26C29.5903 38.79 29.5103 38.44 29.3403 38.23C29.1803 38.02 28.9103 37.91 28.5503 37.91C28.1203 37.91 27.7903 38.05 27.5503 38.34C27.3103 38.63 27.1903 39.02 27.1903 39.51V42.38H26.3803V39.26C26.3803 38.79 26.3003 38.45 26.1303 38.24C25.9603 38.02 25.7003 37.91 25.3303 37.91C24.9003 37.91 24.5703 38.05 24.3303 38.34C24.0903 38.63 23.9603 39.02 23.9603 39.51V42.38H23.1503V38.76C23.1503 38.24 23.1203 37.77 23.0703 37.35H23.8403L23.9203 38.23C24.0603 37.91 24.2703 37.66 24.5403 37.49C24.8203 37.32 25.1403 37.23 25.5103 37.23C25.9103 37.23 26.2403 37.31 26.4903 37.47C26.7403 37.63 26.9303 37.88 27.0503 38.21C27.2003 37.91 27.4303 37.67 27.7203 37.5C28.0203 37.32 28.3503 37.23 28.7203 37.23C29.8303 37.23 30.3903 37.89 30.3903 39.22H30.4003Z" fill="#AA8420"/>
<path d="M302.591 30.0599C302.151 29.7999 301.811 29.4199 301.581 28.9199C301.341 28.4299 301.221 27.8399 301.221 27.1799C301.221 26.5199 301.341 25.9299 301.571 25.4299C301.801 24.9399 302.141 24.5599 302.581 24.2999C303.021 24.0399 303.541 23.8999 304.141 23.8999C304.741 23.8999 305.261 24.0299 305.701 24.2999C306.141 24.5699 306.471 24.9399 306.711 25.4299C306.951 25.9199 307.061 26.4999 307.061 27.1699C307.061 27.8399 306.941 28.4199 306.701 28.9199C306.461 29.4099 306.131 29.7899 305.691 30.0599C305.251 30.3299 304.741 30.4599 304.141 30.4599C303.541 30.4599 303.031 30.3299 302.591 30.0599ZM305.721 29.1299C306.101 28.6699 306.291 28.0099 306.291 27.1699C306.291 26.3299 306.101 25.6699 305.731 25.2199C305.361 24.7699 304.831 24.5399 304.141 24.5399C303.451 24.5399 302.921 24.7699 302.551 25.2299C302.181 25.6899 301.981 26.3399 301.981 27.1799C301.981 28.0199 302.171 28.6799 302.551 29.1399C302.931 29.5999 303.461 29.8299 304.141 29.8299C304.821 29.8299 305.351 29.5999 305.721 29.1399V29.1299Z" fill="#231815"/>
<path d="M313.55 23.98V30.39H312.97L309.1 25.23V30.39H308.41V23.98H308.98L312.85 29.14V23.98H313.55Z" fill="#231815"/>
<path d="M315.121 23.98H315.861V29.76H319.071V30.39H315.121V23.98V23.98Z" fill="#231815"/>
<path d="M320.031 23.98H320.771V30.39H320.031V23.98Z" fill="#231815"/>
<path d="M327.492 23.98V30.39H326.912L323.042 25.23V30.39H322.352V23.98H322.922L326.792 29.14V23.98H327.492Z" fill="#231815"/>
<path d="M329.061 23.9797H333.111V24.5897H329.791V26.8197H332.931V27.4397H329.791V29.7697H333.111V30.3797H329.061V23.9697V23.9797Z" fill="#231815"/>
<path d="M306.02 35.2598V35.8698L302.68 42.3798H301.8L305.12 35.9498H301.32V35.2598H306.02Z" fill="#AA8420"/>
<path d="M307.81 41.5399C307.39 40.9199 307.17 40.0199 307.17 38.8299C307.17 37.6399 307.38 36.7299 307.81 36.1099C308.23 35.4899 308.85 35.1899 309.66 35.1899C310.47 35.1899 311.09 35.4999 311.51 36.1099C311.93 36.7299 312.15 37.6299 312.15 38.8199C312.15 40.0099 311.94 40.9199 311.51 41.5399C311.09 42.1599 310.47 42.4699 309.66 42.4699C308.85 42.4699 308.23 42.1599 307.81 41.5499V41.5399ZM310.92 41.0499C311.19 40.5699 311.33 39.8199 311.33 38.8099C311.33 37.7999 311.2 37.0599 310.93 36.5899C310.66 36.1199 310.24 35.8799 309.67 35.8799C309.1 35.8799 308.69 36.1199 308.42 36.5899C308.15 37.0599 308.01 37.7999 308.01 38.8099C308.01 39.8199 308.15 40.5599 308.42 41.0499C308.69 41.5399 309.11 41.7699 309.67 41.7699C310.23 41.7699 310.65 41.5299 310.92 41.0499V41.0499Z" fill="#AA8420"/>
<path d="M319.74 37.56C320.08 37.78 320.34 38.09 320.53 38.49C320.72 38.89 320.81 39.34 320.81 39.87C320.81 40.4 320.72 40.84 320.53 41.23C320.34 41.62 320.08 41.92 319.74 42.14C319.4 42.35 319.01 42.46 318.57 42.46C318.18 42.46 317.83 42.37 317.54 42.2C317.25 42.03 317.02 41.78 316.87 41.46V44.55H316.06V38.77C316.06 38.25 316.03 37.78 315.98 37.36H316.75L316.83 38.33C316.97 37.98 317.19 37.71 317.5 37.52C317.8 37.33 318.16 37.23 318.58 37.23C319.02 37.23 319.41 37.34 319.75 37.56H319.74ZM319.57 41.28C319.84 40.95 319.97 40.47 319.97 39.86C319.97 39.25 319.83 38.77 319.56 38.42C319.29 38.08 318.91 37.91 318.42 37.91C317.93 37.91 317.54 38.08 317.27 38.41C317 38.74 316.87 39.22 316.87 39.84C316.87 40.46 317 40.94 317.27 41.27C317.54 41.61 317.92 41.78 318.42 41.78C318.92 41.78 319.3 41.61 319.57 41.28V41.28Z" fill="#AA8420"/>
<path d="M326.421 42.3801H325.451L323.861 40.4001L322.291 42.3801H321.301L323.391 39.7901L321.421 37.3501H322.401L323.861 39.2001L325.321 37.3501H326.311L324.351 39.7901L326.421 42.3801V42.3801Z" fill="#AA8420"/>
</svg>
