<svg width="261" height="62" viewBox="0 0 261 62" fill="none" xmlns="http://www.w3.org/2000/svg">
<path d="M93.3105 12.6702C93.6005 12.3002 93.7005 11.6602 93.7005 11.6602H76.3105C76.3105 11.6602 76.5305 12.3802 76.7105 12.6702H93.3105Z" fill="#AA8420"/>
<path d="M92.3091 14.1398C92.6391 13.8498 92.9591 13.2798 92.9591 13.2798H77.0391C77.0391 13.2798 77.2191 13.7098 77.6191 14.1398H92.3091Z" fill="#AA8420"/>
<path d="M91.0504 15.4801C91.4404 15.2701 91.7704 14.8301 91.7704 14.8301H78.1504C78.1504 14.8301 78.4804 15.1901 78.8004 15.4801H91.0504Z" fill="#AA8420"/>
<path d="M89.4599 16.74C89.8499 16.59 90.2899 16.23 90.2899 16.23H79.6699C79.6699 16.23 79.6699 16.31 80.4199 16.74H89.4599V16.74Z" fill="#AA8420"/>
<path d="M81.6406 17.5298C81.6406 17.5298 82.7606 18.1798 84.9606 18.1798C87.1606 18.1798 88.5606 17.5298 88.5606 17.5298H81.6506H81.6406Z" fill="#AA8420"/>
<path d="M81.4607 19.01C81.4607 19.01 82.7907 19.08 83.5807 19.69C84.3407 20.34 84.9207 21.42 84.9207 21.42C84.9207 21.42 85.3907 20.38 86.1407 19.84C86.9007 19.26 88.1207 19.01 88.1207 19.01H101.841L104.541 23.01H92.2207C92.2207 23.01 91.3607 23.04 90.0607 23.8C89.3707 24.19 88.8707 24.88 88.8707 24.88C88.8707 24.88 88.7707 25.21 88.6207 25.38C88.4807 25.56 88.3607 25.71 88.1907 25.78C88.0007 25.85 88.0407 25.81 88.0407 25.81H81.6307C81.6307 25.81 81.3707 25.71 81.2307 25.48C81.0907 25.27 81.2007 25.34 81.0607 25.16C80.9507 24.98 80.6907 24.51 79.7307 23.86C78.7207 23.21 77.7507 23.14 77.7507 23.14H65.2207L67.9507 19H81.4607V19.01Z" fill="#003477"/>
<path d="M71.7793 24.6602V45.1202C71.7793 45.1202 71.8493 46.9302 73.3593 49.3702C74.8693 51.8202 77.0693 52.9402 77.0693 52.9402L78.7993 50.2402C78.7993 50.2402 77.2893 49.3402 76.1393 47.6102C75.0193 45.8902 75.0193 44.4002 75.0193 44.4002V24.6602H71.7793V24.6602Z" fill="#003477"/>
<path d="M94.9708 24.5898V44.3298C94.9708 44.3298 94.7208 46.3098 93.7808 47.7198C92.8508 49.1598 91.3008 50.3098 91.3008 50.3098L92.9608 52.9698C92.9608 52.9698 95.4808 51.1298 96.7008 49.1898C97.9208 47.2498 98.2108 44.3298 98.2108 44.3298V24.5898H94.9608H94.9708Z" fill="#003477"/>
<path d="M66.6309 24.6599V45.1899C66.6309 45.1899 66.8409 48.3599 68.8209 51.6699C70.8109 54.9799 74.4009 57.2899 74.4009 57.2899L76.1009 54.5899C76.1009 54.5899 73.7909 53.3699 71.9609 50.5499C70.0809 47.6999 69.9809 45.1099 69.9809 45.1099V24.6499H66.6309V24.6599Z" fill="#003477"/>
<path d="M81.4594 26.8198V48.4998C81.4594 48.4998 81.3894 48.5798 81.3494 48.8998C81.3094 49.2298 81.0994 49.4398 81.0994 49.4398L73.8594 61.4298H96.0394L88.7994 49.1798L88.5794 48.6398L88.4994 48.0698V26.8598H85.7994V48.8698C85.7994 48.8698 85.7994 49.1898 85.9094 49.4398C85.9794 49.6998 86.1294 50.0898 86.1294 50.0898L90.5994 57.4398H79.2894L83.6894 50.1298C83.6894 50.1298 83.8294 49.8798 83.9394 49.5198C84.0094 49.1898 84.0494 48.8798 84.0494 48.8798V26.8298H81.4594V26.8198Z" fill="#AA8420"/>
<path d="M99.9797 24.5898V44.7598C99.9797 44.7598 99.9497 47.3498 98.0397 50.3398C96.1297 53.3298 93.9297 54.5898 93.9297 54.5898L95.5497 57.3198C95.5497 57.3198 98.8597 55.2298 100.95 51.9198C103 48.6098 103.25 44.7598 103.25 44.7598V24.5898H99.9697H99.9797Z" fill="#003477"/>
<path d="M76.2105 11.0798C76.2105 11.0798 75.1005 4.98984 79.5605 1.95984C79.5605 1.95984 81.5805 0.0898438 84.8505 0.0898438C88.3505 0.0898438 90.3605 1.91984 90.3605 1.91984C95.2205 5.47984 93.7805 11.0698 93.7805 11.0698H76.2105V11.0798Z" fill="#AA8420"/>
<path d="M130 24.6997V23.1397H122.06V21.5597C124.6 21.3497 126.71 21.0697 128.42 20.7197L127.61 19.1797C125.04 19.7597 121.25 20.0397 116.24 20.0397C115.19 20.0397 114.3 20.0297 113.59 19.9997L114.21 21.7297C115.44 21.7297 117.47 21.6897 120.29 21.6197V23.1397H112.55V24.6997H118.37C116.68 26.1197 114.69 27.0997 112.4 27.6497L113.3 29.3197C114.05 29.0697 114.59 28.8697 114.9 28.7397V36.8097H116.65V35.9397H125.91V36.8097H127.66V28.6397C127.91 28.7797 128.19 28.8897 128.49 28.9797C128.79 29.0697 129.07 29.1697 129.32 29.2797L130.15 27.5697C127.44 27.0297 125.37 26.0697 123.94 24.6897H130V24.6997ZM116 28.2197C117.77 27.4697 119.2 26.3097 120.29 24.7597V28.2197H116ZM125.91 34.3897H116.65V32.7297H125.91V34.3897ZM125.91 31.2297H116.65V29.7997H125.91V31.2297ZM126.7 28.2197H122.05V24.7397C123.23 26.3097 124.78 27.4697 126.7 28.2197Z" fill="#003477"/>
<path d="M139.65 26.3298C138.68 25.5898 137.75 24.9798 136.87 24.5098L135.74 25.9198C136.48 26.4098 137.36 27.0798 138.37 27.9498L139.65 26.3298Z" fill="#003477"/>
<path d="M150.6 34.0198C150.5 34.4098 150.19 34.5998 149.66 34.5998H144.08C143.64 34.5998 143.42 34.3798 143.42 33.9398V32.7398H149.47V28.8798C150.22 29.5598 151.18 30.2398 152.33 30.9298L153.14 29.2498C151.11 28.2498 149.84 27.2398 149.34 26.2198H152.94V24.6398H149.55V22.6998H152.65V21.2198H149.55V19.2598H147.86V21.2198H144.44V19.2598H142.71V21.2198H140.21V21.4698C139.47 20.8998 138.57 20.2798 137.5 19.6098L136.26 20.9998C137.1 21.5298 138.04 22.2598 139.06 23.1998L140.21 21.7698V22.7798H142.71V24.6598H139.83V26.2398H142.84C142.29 27.4198 140.97 28.4798 138.89 29.4198L139.96 30.9998C140.8 30.4698 141.38 30.0798 141.69 29.8198V34.0298C141.69 34.8798 141.85 35.4598 142.16 35.7798C142.49 36.0798 143.05 36.2298 143.85 36.2298H149.94C150.91 36.2298 151.55 36.0598 151.88 35.7198C152.22 35.3698 152.49 34.3198 152.69 32.5798L150.88 31.9198C150.79 32.9098 150.7 33.6098 150.6 34.0098V34.0198ZM144.43 22.8098H147.86V24.6498H144.43V22.8098ZM144.85 26.2298H147.39C147.74 26.8898 148.12 27.4598 148.54 27.9198H143.74C144.2 27.4298 144.57 26.8698 144.85 26.2298ZM143.42 29.4098H147.75V31.2598H143.42V29.4098Z" fill="#003477"/>
<path d="M139.541 30.9898L137.901 30.0298C137.501 31.8098 136.751 33.4898 135.641 35.0498L137.151 36.5898C138.231 34.8798 139.031 33.0098 139.541 30.9798V30.9898Z" fill="#003477"/>
<path d="M171.901 27.3498C170.521 26.2998 169.361 25.5298 168.421 25.0298L167.311 26.2898C168.301 26.8798 169.441 27.7098 170.731 28.7898L171.901 27.3398V27.3498Z" fill="#003477"/>
<path d="M172.25 22.82C170.77 21.74 169.62 20.97 168.81 20.52L167.68 21.76C168.55 22.29 169.67 23.11 171.07 24.22L172.25 22.81V22.82Z" fill="#003477"/>
<path d="M164 25.98V25.81H166.86V24.19H164V21.54C164.99 21.34 165.94 21.08 166.84 20.77L166.2 19.23C164.18 19.99 161.77 20.45 158.96 20.58L159.36 22.16C160.64 22.07 161.61 21.97 162.27 21.84V24.19H158.77V25.81H162.21C161.42 27.89 160.23 29.83 158.65 31.63L159.7 33.32C160.93 31.71 161.78 30.31 162.26 29.11V36.84L163.99 36.77V28.04C164.33 28.49 164.66 28.91 164.99 29.3C165.37 29.73 165.74 30.2 166.12 30.73L167.17 29.11C166.45 28.33 165.39 27.29 163.99 25.99L164 25.98Z" fill="#003477"/>
<path d="M172.941 36.8399H174.691V31.4299L176.391 31.1499V29.4399L174.691 29.7199V19.1099H172.941V29.9299L166.641 30.8699V32.6199L172.941 31.6599V36.8399Z" fill="#003477"/>
<path d="M191.091 25.8299C192.351 30.8799 194.671 34.5199 198.051 36.7399L199.501 35.0099C197.631 33.7799 196.161 32.3299 195.101 30.6499C194.031 28.9699 193.361 27.3599 193.071 25.8299L199.091 25.8499V23.8499H191.111C191.211 22.8599 191.261 21.2899 191.261 19.1299H189.281C189.281 21.1399 189.201 22.7099 189.041 23.8499H182.231V25.8499H188.721C188.421 27.6199 187.631 29.3299 186.371 30.9899C185.091 32.6499 183.561 33.9799 181.781 34.9999L183.211 36.7899C187.421 34.0199 189.951 30.3699 190.791 25.8399H191.091V25.8299Z" fill="#003477"/>
<path d="M124.66 47.7398H116.34V41.3398H114.16V57.2198H116.34V49.5998H124.66V57.2198H126.84V41.3398H124.66V47.7398Z" fill="#003477"/>
<path d="M147.18 41.3398H144.33L136.91 48.2299V41.3398H134.74V57.2198H136.91V50.5898L137.79 49.8298L144.37 57.2198H147.32L139.33 48.4799L147.18 41.3398Z" fill="#003477"/>
<path d="M163.7 50.7098C163.7 53.2998 162.84 55.6998 159.48 55.6998C156.12 55.6998 155.26 53.2998 155.26 50.7098V41.3398H153.08V51.3898C153.08 54.8898 155.47 57.5598 159.48 57.5598C163.49 57.5598 165.87 54.8898 165.87 51.3898V41.3398H163.69V50.7098H163.7Z" fill="#003477"/>
<path d="M179.361 47.8298L178.111 47.3898C177.021 47.0098 175.681 46.3598 175.681 45.1198C175.681 43.7298 177.211 42.8698 178.601 42.8698C179.921 42.8698 180.761 43.3798 181.401 44.3598L183.141 43.4098C182.191 41.8698 180.591 41.0098 178.641 41.0098C176.001 41.0098 173.501 42.5498 173.501 45.1198C173.501 47.3298 175.311 48.3698 177.301 49.1398L178.511 49.5998C180.021 50.1698 181.521 50.9098 181.521 52.6098C181.521 54.3098 180.181 55.6998 178.301 55.6998C176.421 55.6998 174.891 54.4398 174.921 52.6898L172.721 53.1098C173.091 55.6598 175.291 57.5598 178.121 57.5598C181.251 57.5598 183.701 55.4998 183.701 52.6098C183.701 49.9598 181.851 48.7098 179.371 47.8298H179.361Z" fill="#003477"/>
<path d="M189.211 41.3398V43.1498H193.361V57.2198H195.531V43.1498H199.681V41.3398H189.211Z" fill="#003477"/>
<path d="M54.8805 61.4301H47.5605V0.100098H54.8805V0.350098H47.8105V61.1801H54.8805V61.4301Z" fill="#231815"/>
<path d="M216.631 61.4301H209.311V61.1801H216.381V0.350098H209.311V0.100098H216.631V61.4301Z" fill="#231815"/>
<path d="M0 23.0503H2.56C3.22 23.0503 3.73 23.2103 4.1 23.5303C4.47 23.8503 4.65 24.2903 4.65 24.8403C4.65 25.3903 4.46 25.8403 4.09 26.1603C3.72 26.4803 3.2 26.6403 2.55 26.6403H0.74V29.4603H0V23.0503ZM2.49 26.0303C2.96 26.0303 3.32 25.9303 3.56 25.7203C3.8 25.5203 3.92 25.2203 3.92 24.8403C3.92 24.4603 3.8 24.1603 3.56 23.9603C3.32 23.7603 2.96 23.6603 2.49 23.6603H0.74V26.0303H2.49V26.0303Z" fill="#231815"/>
<path d="M10.8891 29.4601H10.1091L9.31914 27.3301C9.21914 27.0701 9.08914 26.8901 8.91914 26.8001C8.74914 26.7101 8.50914 26.6701 8.19914 26.6701H6.59914V29.4701H5.86914V23.0601H8.41914C9.10914 23.0601 9.63914 23.2101 10.0091 23.5201C10.3791 23.8301 10.5591 24.2701 10.5591 24.8401C10.5591 25.2601 10.4491 25.6101 10.2291 25.9001C10.0091 26.1901 9.68914 26.3901 9.27914 26.5101C9.46914 26.5401 9.61914 26.6201 9.75914 26.7501C9.89914 26.8801 9.99914 27.0601 10.0891 27.3001L10.8991 29.4701L10.8891 29.4601ZM8.33914 26.0501C9.31914 26.0501 9.81914 25.6501 9.81914 24.8401C9.81914 24.4401 9.69914 24.1501 9.45914 23.9501C9.21914 23.7601 8.84914 23.6601 8.33914 23.6601H6.58914V26.0401H8.33914V26.0501Z" fill="#231815"/>
<path d="M12.0996 23.0503H12.8396V29.4603H12.0996V23.0503Z" fill="#231815"/>
<path d="M19.5599 23.0503V29.4603H18.9799L15.1099 24.3003V29.4603H14.4199V23.0503H14.9899L18.8599 28.2103V23.0503H19.5599Z" fill="#231815"/>
<path d="M22.6792 23.6803H20.4492V23.0503H25.6592V23.6803H23.4292V29.4603H22.6792V23.6803Z" fill="#231815"/>
<path d="M25.9805 28.7202L26.2605 28.1502C26.5805 28.4202 26.9005 28.6102 27.2305 28.7302C27.5605 28.8402 27.9405 28.9002 28.3805 28.9002C28.9005 28.9002 29.2905 28.8002 29.5705 28.6002C29.8505 28.4002 29.9905 28.1202 29.9905 27.7502C29.9905 27.5302 29.9205 27.3602 29.7905 27.2202C29.6505 27.0902 29.4805 26.9802 29.2605 26.9002C29.0405 26.8202 28.7505 26.7402 28.3805 26.6602C27.8905 26.5502 27.4805 26.4302 27.1705 26.3102C26.8605 26.1902 26.5905 26.0002 26.4005 25.7702C26.2005 25.5302 26.1005 25.2202 26.1005 24.8402C26.1005 24.4602 26.2005 24.1502 26.3905 23.8702C26.5805 23.5902 26.8505 23.3702 27.2005 23.2202C27.5505 23.0602 27.9605 22.9902 28.4305 22.9902C28.9005 22.9902 29.2905 23.0602 29.6705 23.2002C30.0505 23.3402 30.3805 23.5402 30.6405 23.8002L30.3505 24.3702C30.0505 24.1102 29.7505 23.9202 29.4405 23.8002C29.1305 23.6802 28.7905 23.6202 28.4305 23.6202C27.9305 23.6202 27.5405 23.7302 27.2605 23.9402C26.9805 24.1502 26.8405 24.4402 26.8405 24.8202C26.8405 25.1402 26.9605 25.3902 27.2105 25.5502C27.4605 25.7102 27.8305 25.8502 28.3405 25.9702C28.8905 26.1002 29.3305 26.2202 29.6405 26.3302C29.9505 26.4402 30.2205 26.6102 30.4305 26.8302C30.6405 27.0602 30.7505 27.3502 30.7505 27.7302C30.7505 28.1102 30.6505 28.4102 30.4605 28.6802C30.2705 28.9502 29.9905 29.1602 29.6405 29.3102C29.2805 29.4602 28.8605 29.5402 28.3805 29.5402C27.3805 29.5402 26.5805 29.2702 25.9905 28.7302L25.9805 28.7202Z" fill="#231815"/>
<path d="M10.1302 38.4498C10.3902 38.7598 10.5102 39.1298 10.5102 39.5698C10.5102 40.1798 10.2802 40.6498 9.82016 40.9998C9.36016 41.3498 8.74016 41.5298 7.96016 41.5298C7.18016 41.5298 6.56016 41.3498 6.10016 40.9998C5.64016 40.6498 5.41016 40.1698 5.41016 39.5698C5.41016 39.1398 5.54016 38.7598 5.80016 38.4498C6.06016 38.1398 6.42016 37.9198 6.88016 37.7998C6.45016 37.6698 6.13016 37.4698 5.90016 37.1798C5.67016 36.8898 5.56016 36.5498 5.56016 36.1598C5.56016 35.7698 5.66016 35.4498 5.86016 35.1598C6.06016 34.8798 6.34016 34.6598 6.70016 34.4998C7.06016 34.3398 7.48016 34.2598 7.95016 34.2598C8.42016 34.2598 8.83016 34.3398 9.20016 34.4998C9.56016 34.6598 9.84016 34.8798 10.0402 35.1598C10.2402 35.4398 10.3402 35.7698 10.3402 36.1598C10.3402 36.5498 10.2202 36.8898 10.0002 37.1798C9.77016 37.4698 9.45016 37.6798 9.04016 37.7998C9.51016 37.9298 9.87016 38.1398 10.1202 38.4598L10.1302 38.4498ZM9.25016 40.4998C9.55016 40.2698 9.70016 39.9398 9.70016 39.5098C9.70016 39.1198 9.54016 38.7998 9.22016 38.5698C8.90016 38.3398 8.48016 38.1898 7.96016 38.1298C7.43016 38.1798 7.01016 38.3298 6.69016 38.5698C6.37016 38.8098 6.22016 39.1198 6.22016 39.5098C6.22016 39.9398 6.37016 40.2698 6.67016 40.4998C6.97016 40.7298 7.40016 40.8398 7.96016 40.8398C8.52016 40.8398 8.95016 40.7298 9.25016 40.4998ZM6.81016 37.1198C7.09016 37.3598 7.48016 37.4998 7.96016 37.5598C8.44016 37.5098 8.82016 37.3598 9.10016 37.1198C9.38016 36.8798 9.52016 36.5798 9.52016 36.1998C9.52016 35.8198 9.38016 35.4998 9.10016 35.2698C8.82016 35.0398 8.44016 34.9298 7.95016 34.9298C7.46016 34.9298 7.07016 35.0398 6.79016 35.2698C6.51016 35.4998 6.37016 35.8098 6.37016 36.1998C6.37016 36.5898 6.51016 36.8898 6.79016 37.1198H6.81016Z" fill="#AA8420"/>
<path d="M21.6093 38.2996V41.4596H20.7993V38.3396C20.7993 37.8696 20.7193 37.5196 20.5493 37.3096C20.3893 37.0996 20.1193 36.9896 19.7593 36.9896C19.3293 36.9896 18.9993 37.1296 18.7593 37.4196C18.5193 37.7096 18.3993 38.0996 18.3993 38.5896V41.4596H17.5893V38.3396C17.5893 37.8696 17.5093 37.5296 17.3393 37.3196C17.1693 37.0996 16.9093 36.9896 16.5393 36.9896C16.1093 36.9896 15.7793 37.1296 15.5393 37.4196C15.2993 37.7096 15.1693 38.0996 15.1693 38.5896V41.4596H14.3593V37.8396C14.3593 37.3196 14.3293 36.8496 14.2793 36.4296H15.0493L15.1293 37.3096C15.2693 36.9896 15.4793 36.7396 15.7493 36.5696C16.0293 36.3996 16.3493 36.3096 16.7193 36.3096C17.1193 36.3096 17.4493 36.3896 17.6993 36.5496C17.9493 36.7096 18.1393 36.9596 18.2593 37.2896C18.4093 36.9896 18.6393 36.7496 18.9293 36.5796C19.2293 36.3996 19.5593 36.3096 19.9293 36.3096C21.0393 36.3096 21.5993 36.9696 21.5993 38.2996H21.6093Z" fill="#AA8420"/>
<path d="M30.4003 38.2996V41.4596H29.5903V38.3396C29.5903 37.8696 29.5103 37.5196 29.3403 37.3096C29.1803 37.0996 28.9103 36.9896 28.5503 36.9896C28.1203 36.9896 27.7903 37.1296 27.5503 37.4196C27.3103 37.7096 27.1903 38.0996 27.1903 38.5896V41.4596H26.3803V38.3396C26.3803 37.8696 26.3003 37.5296 26.1303 37.3196C25.9603 37.0996 25.7003 36.9896 25.3303 36.9896C24.9003 36.9896 24.5703 37.1296 24.3303 37.4196C24.0903 37.7096 23.9603 38.0996 23.9603 38.5896V41.4596H23.1503V37.8396C23.1503 37.3196 23.1203 36.8496 23.0703 36.4296H23.8403L23.9203 37.3096C24.0603 36.9896 24.2703 36.7396 24.5403 36.5696C24.8203 36.3996 25.1403 36.3096 25.5103 36.3096C25.9103 36.3096 26.2403 36.3896 26.4903 36.5496C26.7403 36.7096 26.9303 36.9596 27.0503 37.2896C27.2003 36.9896 27.4303 36.7496 27.7203 36.5796C28.0203 36.3996 28.3503 36.3096 28.7203 36.3096C29.8303 36.3096 30.3903 36.9696 30.3903 38.2996H30.4003Z" fill="#AA8420"/>
<path d="M229.78 29.1302C229.34 28.8702 229 28.4902 228.77 27.9902C228.53 27.5002 228.41 26.9102 228.41 26.2502C228.41 25.5902 228.53 25.0002 228.76 24.5002C228.99 24.0102 229.33 23.6302 229.77 23.3702C230.21 23.1102 230.73 22.9702 231.33 22.9702C231.93 22.9702 232.45 23.1002 232.89 23.3702C233.33 23.6302 233.66 24.0102 233.9 24.5002C234.13 24.9902 234.25 25.5702 234.25 26.2402C234.25 26.9102 234.13 27.4902 233.89 27.9902C233.65 28.4902 233.32 28.8602 232.88 29.1302C232.44 29.4002 231.93 29.5302 231.33 29.5302C230.73 29.5302 230.22 29.4002 229.78 29.1302V29.1302ZM232.91 28.2002C233.29 27.7402 233.48 27.0802 233.48 26.2402C233.48 25.4002 233.29 24.7402 232.92 24.2902C232.55 23.8402 232.02 23.6102 231.33 23.6102C230.64 23.6102 230.12 23.8402 229.74 24.3002C229.36 24.7602 229.17 25.4102 229.17 26.2502C229.17 27.0902 229.36 27.7502 229.74 28.2102C230.12 28.6702 230.65 28.9002 231.33 28.9002C232.01 28.9002 232.54 28.6702 232.91 28.2102V28.2002Z" fill="#231815"/>
<path d="M240.73 23.0503V29.4603H240.15L236.28 24.3003V29.4603H235.59V23.0503H236.16L240.03 28.2103V23.0503H240.73V23.0503Z" fill="#231815"/>
<path d="M242.311 23.0503H243.051V28.8303H246.261V29.4603H242.311V23.0503V23.0503Z" fill="#231815"/>
<path d="M247.211 23.0503H247.951V29.4603H247.211V23.0503Z" fill="#231815"/>
<path d="M254.669 23.0503V29.4603H254.089L250.219 24.3003V29.4603H249.529V23.0503H250.099L253.969 28.2103V23.0503H254.669V23.0503Z" fill="#231815"/>
<path d="M256.25 23.05H260.3V23.66H256.98V25.89H260.12V26.51H256.98V28.84H260.3V29.45H256.25V23.04V23.05Z" fill="#231815"/>
<path d="M233.52 39.9098H232.44V41.4598H231.62V39.9098H228.34V39.2898L231.77 34.3398H232.44V39.2298H233.52V39.9098ZM231.62 39.2298V35.7298L229.19 39.2298H231.62Z" fill="#AA8420"/>
<path d="M234.999 40.6098C234.579 39.9898 234.369 39.0898 234.369 37.8998C234.369 36.7098 234.579 35.7998 234.999 35.1798C235.419 34.5598 236.039 34.2598 236.859 34.2598C237.679 34.2598 238.289 34.5698 238.709 35.1798C239.129 35.7998 239.349 36.6998 239.349 37.8898C239.349 39.0798 239.139 39.9898 238.709 40.6098C238.289 41.2298 237.669 41.5398 236.859 41.5398C236.049 41.5398 235.429 41.2298 234.999 40.6198V40.6098ZM238.109 40.1198C238.379 39.6398 238.519 38.8898 238.519 37.8798C238.519 36.8698 238.389 36.1298 238.119 35.6598C237.849 35.1898 237.429 34.9498 236.859 34.9498C236.289 34.9498 235.869 35.1898 235.609 35.6598C235.339 36.1298 235.199 36.8698 235.199 37.8798C235.199 38.8898 235.329 39.6298 235.609 40.1198C235.879 40.5998 236.299 40.8398 236.859 40.8398C237.419 40.8398 237.839 40.5998 238.109 40.1198Z" fill="#AA8420"/>
<path d="M246.92 36.6396C247.26 36.8596 247.52 37.1696 247.71 37.5696C247.9 37.9696 247.99 38.4196 247.99 38.9496C247.99 39.4796 247.9 39.9196 247.71 40.3096C247.52 40.6996 247.26 40.9996 246.92 41.2196C246.58 41.4296 246.19 41.5396 245.75 41.5396C245.36 41.5396 245.01 41.4496 244.72 41.2796C244.43 41.1096 244.2 40.8596 244.05 40.5396V43.6296H243.24V37.8496C243.24 37.3296 243.21 36.8596 243.16 36.4396H243.93L244.01 37.4096C244.15 37.0596 244.37 36.7896 244.68 36.5996C244.98 36.4096 245.34 36.3096 245.76 36.3096C246.2 36.3096 246.59 36.4196 246.93 36.6396H246.92ZM246.75 40.3596C247.02 40.0296 247.16 39.5496 247.16 38.9396C247.16 38.3296 247.02 37.8496 246.75 37.4996C246.48 37.1596 246.1 36.9896 245.61 36.9896C245.12 36.9896 244.73 37.1596 244.46 37.4896C244.19 37.8196 244.06 38.2996 244.06 38.9196C244.06 39.5396 244.19 40.0196 244.46 40.3496C244.73 40.6896 245.11 40.8596 245.61 40.8596C246.11 40.8596 246.49 40.6896 246.75 40.3596Z" fill="#AA8420"/>
<path d="M253.6 41.4597H252.63L251.04 39.4797L249.47 41.4597H248.48L250.57 38.8697L248.6 36.4297H249.58L251.04 38.2797L252.5 36.4297H253.49L251.53 38.8697L253.6 41.4597Z" fill="#AA8420"/>
</svg>
