<svg width="215" height="22" viewBox="0 0 215 22" fill="none" xmlns="http://www.w3.org/2000/svg">
<path d="M44.9605 20.75H37.9805V0H44.9605V0.25H38.2305V20.5H44.9605V20.75Z" fill="#231815"/>
<path d="M173.941 20.7501H166.961V20.5001H173.691V0.310059H166.961V0.0600586H173.941V20.7501Z" fill="#231815"/>
<path d="M0.0100098 1.14014H2.56999C3.22999 1.14014 3.74 1.30014 4.11 1.62014C4.48 1.94014 4.66002 2.38014 4.66002 2.93014C4.66002 3.48014 4.47002 3.93014 4.10002 4.25014C3.73002 4.57014 3.22001 4.73014 2.56001 4.73014H0.740005V7.55014H0V1.14014H0.0100098ZM2.50002 4.12014C2.97002 4.12014 3.32999 4.02014 3.56999 3.81014C3.80999 3.61014 3.93001 3.31014 3.93001 2.93014C3.93001 2.55014 3.80999 2.25014 3.56999 2.05014C3.32999 1.85014 2.97002 1.75014 2.50002 1.75014H0.740005V4.12014H2.50002Z" fill="#231815"/>
<path d="M10.9008 7.55014H10.1208L9.33084 5.42014C9.23084 5.16014 9.10085 4.98014 8.93085 4.89014C8.76085 4.80014 8.52085 4.76014 8.21085 4.76014H6.61084V7.56014H5.88086V1.14014H8.43085C9.12085 1.14014 9.65084 1.29014 10.0208 1.60014C10.3908 1.91014 10.5708 2.35014 10.5708 2.92014C10.5708 3.34014 10.4608 3.69014 10.2408 3.98014C10.0208 4.27014 9.70083 4.47014 9.29083 4.59014C9.48083 4.62014 9.63084 4.70014 9.77084 4.83014C9.90084 4.96014 10.0109 5.14014 10.1009 5.38014L10.9109 7.55014H10.9008ZM8.35086 4.14014C9.33086 4.14014 9.83084 3.74014 9.83084 2.93014C9.83084 2.53014 9.71086 2.24014 9.47086 2.04014C9.23086 1.85014 8.86086 1.75014 8.35086 1.75014H6.60086V4.13014H8.35086V4.14014Z" fill="#231815"/>
<path d="M12.1094 1.14014H12.8494V7.55014H12.1094V1.14014Z" fill="#231815"/>
<path d="M19.5697 1.14014V7.55014H18.9897L15.1197 2.39014V7.55014H14.4297V1.14014H14.9997L18.8697 6.30014V1.14014H19.5697Z" fill="#231815"/>
<path d="M22.6909 1.77014H20.4609V1.14014H25.6709V1.77014H23.4409V7.55014H22.6909V1.77014V1.77014Z" fill="#231815"/>
<path d="M25.9902 6.81008L26.2702 6.24008C26.5902 6.51008 26.9102 6.70008 27.2402 6.82008C27.5702 6.93008 27.9502 6.99008 28.3902 6.99008C28.9102 6.99008 29.3002 6.89008 29.5802 6.69008C29.8602 6.49008 30.0002 6.21008 30.0002 5.84008C30.0002 5.62008 29.9302 5.45008 29.8002 5.31008C29.6702 5.17008 29.4902 5.07008 29.2702 4.99008C29.0502 4.91008 28.7602 4.83008 28.3902 4.75008C27.9002 4.64008 27.4902 4.52008 27.1802 4.40008C26.8602 4.27008 26.6002 4.09008 26.4102 3.86008C26.2202 3.63008 26.1102 3.31008 26.1102 2.93008C26.1102 2.55008 26.2102 2.24008 26.4002 1.96008C26.5902 1.68008 26.8602 1.46008 27.2102 1.31008C27.5602 1.15008 27.9702 1.08008 28.4402 1.08008C28.8802 1.08008 29.3002 1.15008 29.6802 1.29008C30.0602 1.43008 30.3902 1.63008 30.6502 1.89008L30.3602 2.46008C30.0602 2.20008 29.7602 2.01008 29.4502 1.89008C29.1402 1.77008 28.8002 1.71008 28.4402 1.71008C27.9402 1.71008 27.5502 1.82008 27.2702 2.03008C26.9902 2.24008 26.8503 2.53008 26.8503 2.91008C26.8503 3.23008 26.9702 3.48008 27.2202 3.64008C27.4702 3.80008 27.8403 3.94008 28.3503 4.06008C28.9003 4.19008 29.3402 4.31008 29.6502 4.42008C29.9702 4.53008 30.2302 4.70008 30.4402 4.92008C30.6502 5.15008 30.7502 5.44008 30.7502 5.82008C30.7502 6.20008 30.6502 6.50008 30.4602 6.77008C30.2702 7.04008 29.9902 7.25008 29.6402 7.40008C29.2802 7.55008 28.8602 7.63008 28.3902 7.63008C27.3902 7.63008 26.5902 7.36008 26.0002 6.82008L25.9902 6.81008Z" fill="#231815"/>
<path d="M10.3891 18.8596V19.5496H5.80914V18.9296L8.29913 16.1696C8.62913 15.7996 8.87914 15.4596 9.02914 15.1596C9.17914 14.8596 9.25912 14.5596 9.25912 14.2596C9.25912 13.8696 9.14913 13.5596 8.91913 13.3496C8.68913 13.1396 8.36913 13.0396 7.94913 13.0396C7.26913 13.0396 6.59914 13.3096 5.92914 13.8596L5.61914 13.2296C5.89914 12.9596 6.24914 12.7496 6.67914 12.5896C7.10914 12.4296 7.53915 12.3496 7.96915 12.3496C8.61915 12.3496 9.13913 12.5196 9.51913 12.8496C9.89913 13.1896 10.0891 13.6396 10.0891 14.2196C10.0891 14.6296 9.99912 15.0196 9.81912 15.3896C9.63912 15.7696 9.32914 16.1896 8.89914 16.6596L6.86914 18.8596H10.3891V18.8596Z" fill="#AA8420"/>
<path d="M21.6191 16.3894V19.5494H20.8091V16.4294C20.8091 15.9594 20.7291 15.6094 20.5591 15.3994C20.3991 15.1894 20.1291 15.0794 19.7691 15.0794C19.3391 15.0794 19.0091 15.2194 18.7691 15.5094C18.5291 15.7994 18.4091 16.1894 18.4091 16.6794V19.5494H17.5991V16.4294C17.5991 15.9594 17.5191 15.6194 17.3491 15.4094C17.1791 15.1894 16.9191 15.0794 16.5491 15.0794C16.1191 15.0794 15.7891 15.2194 15.5491 15.5094C15.3091 15.7994 15.1791 16.1894 15.1791 16.6794V19.5494H14.3691V15.9294C14.3691 15.4094 14.3391 14.9394 14.2891 14.5194H15.0591L15.1391 15.3994C15.2791 15.0794 15.4891 14.8294 15.7591 14.6594C16.0391 14.4894 16.3591 14.3994 16.7291 14.3994C17.1291 14.3994 17.4591 14.4794 17.7091 14.6394C17.9591 14.7994 18.1491 15.0494 18.2691 15.3794C18.4191 15.0794 18.6491 14.8394 18.9391 14.6694C19.2391 14.4894 19.5691 14.3994 19.9391 14.3994C21.0491 14.3994 21.6091 15.0594 21.6091 16.3894H21.6191Z" fill="#AA8420"/>
<path d="M30.4101 16.3894V19.5494H29.6001V16.4294C29.6001 15.9594 29.5201 15.6094 29.3501 15.3994C29.1901 15.1894 28.9201 15.0794 28.5601 15.0794C28.1301 15.0794 27.8001 15.2194 27.5601 15.5094C27.3201 15.7994 27.2001 16.1894 27.2001 16.6794V19.5494H26.3901V16.4294C26.3901 15.9594 26.3101 15.6194 26.1401 15.4094C25.9701 15.1894 25.7101 15.0794 25.3401 15.0794C24.9101 15.0794 24.5801 15.2194 24.3401 15.5094C24.1001 15.7994 23.9701 16.1894 23.9701 16.6794V19.5494H23.1601V15.9294C23.1601 15.4094 23.1301 14.9394 23.0801 14.5194H23.8501L23.9301 15.3994C24.0701 15.0794 24.2801 14.8294 24.5501 14.6594C24.8301 14.4894 25.1501 14.3994 25.5201 14.3994C25.9201 14.3994 26.2501 14.4794 26.5001 14.6394C26.7501 14.7994 26.9401 15.0494 27.0601 15.3794C27.2101 15.0794 27.4401 14.8394 27.7301 14.6694C28.0301 14.4894 28.3601 14.3994 28.7301 14.3994C29.8401 14.3994 30.4001 15.0594 30.4001 16.3894H30.4101Z" fill="#AA8420"/>
<path d="M183.78 7.22006C183.34 6.96006 183 6.58006 182.77 6.08006C182.53 5.59006 182.41 5.00006 182.41 4.34006C182.41 3.68006 182.53 3.09006 182.76 2.59006C182.99 2.10006 183.33 1.72006 183.77 1.46006C184.21 1.20006 184.73 1.06006 185.33 1.06006C185.93 1.06006 186.45 1.19006 186.89 1.46006C187.33 1.72006 187.66 2.10006 187.9 2.59006C188.13 3.08006 188.25 3.66006 188.25 4.33006C188.25 5.00006 188.13 5.58006 187.89 6.08006C187.65 6.58006 187.32 6.95006 186.88 7.22006C186.44 7.49006 185.93 7.62006 185.33 7.62006C184.73 7.62006 184.22 7.49006 183.78 7.22006ZM186.91 6.29006C187.29 5.83006 187.48 5.17006 187.48 4.33006C187.48 3.49006 187.29 2.83006 186.92 2.38006C186.55 1.93006 186.02 1.70006 185.33 1.70006C184.64 1.70006 184.12 1.93006 183.74 2.39006C183.36 2.85006 183.17 3.50006 183.17 4.34006C183.17 5.18006 183.36 5.84006 183.74 6.30006C184.12 6.76006 184.65 6.99006 185.33 6.99006C186.01 6.99006 186.54 6.76006 186.91 6.30006V6.29006Z" fill="#231815"/>
<path d="M194.73 1.14014V7.55014H194.15L190.28 2.39014V7.55014H189.59V1.14014H190.16L194.03 6.30014V1.14014H194.73Z" fill="#231815"/>
<path d="M196.301 1.14014H197.041V6.92014H200.251V7.55014H196.301V1.14014Z" fill="#231815"/>
<path d="M201.211 1.14014H201.951V7.55014H201.211V1.14014Z" fill="#231815"/>
<path d="M208.669 1.14014V7.55014H208.089L204.219 2.39014V7.55014H203.529V1.14014H204.099L207.969 6.30014V1.14014H208.669Z" fill="#231815"/>
<path d="M210.25 1.14014H214.3V1.75014H210.98V3.98014H214.12V4.60014H210.98V6.93014H214.3V7.54014H210.25V1.14014Z" fill="#231815"/>
<path d="M187.26 18.8596V19.5496H182.68V18.9296L185.17 16.1696C185.5 15.7996 185.75 15.4596 185.9 15.1596C186.05 14.8596 186.13 14.5596 186.13 14.2596C186.13 13.8696 186.02 13.5596 185.79 13.3496C185.56 13.1396 185.24 13.0396 184.82 13.0396C184.14 13.0396 183.47 13.3096 182.8 13.8596L182.49 13.2296C182.77 12.9596 183.12 12.7496 183.55 12.5896C183.98 12.4296 184.41 12.3496 184.84 12.3496C185.49 12.3496 186.01 12.5196 186.39 12.8496C186.77 13.1896 186.96 13.6396 186.96 14.2196C186.96 14.6296 186.87 15.0196 186.69 15.3896C186.51 15.7696 186.2 16.1896 185.77 16.6596L183.74 18.8596H187.26V18.8596Z" fill="#AA8420"/>
<path d="M189.001 18.6996C188.581 18.0796 188.371 17.1796 188.371 15.9896C188.371 14.7996 188.581 13.8896 189.001 13.2696C189.421 12.6496 190.041 12.3496 190.861 12.3496C191.681 12.3496 192.291 12.6596 192.711 13.2696C193.131 13.8896 193.351 14.7896 193.351 15.9796C193.351 17.1696 193.141 18.0796 192.711 18.6996C192.291 19.3196 191.671 19.6296 190.861 19.6296C190.051 19.6296 189.431 19.3196 189.001 18.7096V18.6996ZM192.111 18.2096C192.381 17.7296 192.521 16.9796 192.521 15.9696C192.521 14.9596 192.391 14.2196 192.121 13.7496C191.851 13.2796 191.431 13.0396 190.861 13.0396C190.291 13.0396 189.871 13.2796 189.611 13.7496C189.341 14.2196 189.201 14.9596 189.201 15.9696C189.201 16.9796 189.331 17.7196 189.611 18.2096C189.881 18.6896 190.301 18.9296 190.861 18.9296C191.421 18.9296 191.841 18.6896 192.111 18.2096V18.2096Z" fill="#AA8420"/>
<path d="M200.92 14.7294C201.26 14.9494 201.52 15.2594 201.71 15.6594C201.9 16.0594 201.99 16.5094 201.99 17.0394C201.99 17.5694 201.9 18.0094 201.71 18.3994C201.52 18.7894 201.26 19.0894 200.92 19.3094C200.58 19.5194 200.19 19.6294 199.75 19.6294C199.36 19.6294 199.01 19.5394 198.72 19.3694C198.43 19.1994 198.2 18.9494 198.05 18.6294V21.7194H197.24V15.9394C197.24 15.4194 197.21 14.9494 197.16 14.5294H197.93L198.01 15.4994C198.15 15.1494 198.37 14.8794 198.68 14.6894C198.98 14.4994 199.34 14.3994 199.76 14.3994C200.2 14.3994 200.59 14.5094 200.93 14.7294H200.92ZM200.75 18.4494C201.02 18.1194 201.16 17.6394 201.16 17.0294C201.16 16.4194 201.02 15.9394 200.75 15.5894C200.48 15.2494 200.1 15.0794 199.61 15.0794C199.12 15.0794 198.73 15.2494 198.46 15.5794C198.19 15.9094 198.06 16.3894 198.06 17.0094C198.06 17.6294 198.19 18.1094 198.46 18.4394C198.73 18.7794 199.11 18.9494 199.61 18.9494C200.11 18.9494 200.49 18.7794 200.75 18.4494V18.4494Z" fill="#AA8420"/>
<path d="M207.6 19.5495H206.63L205.04 17.5695L203.47 19.5495H202.48L204.57 16.9595L202.6 14.5195H203.58L205.04 16.3695L206.5 14.5195H207.49L205.53 16.9595L207.6 19.5495V19.5495Z" fill="#AA8420"/>
<path d="M73.6805 6.86982V4.94982H63.9305V3.00982C67.0405 2.73982 69.6505 2.39982 71.7405 1.96982L70.7505 0.0698242C67.5905 0.779824 62.9405 1.12982 56.7805 1.12982C55.4805 1.12982 54.4005 1.11982 53.5205 1.07982L54.2805 3.20982C55.7905 3.20982 58.2805 3.15982 61.7505 3.06982V4.93982H52.2505V6.85982H59.3905C57.3105 8.59982 54.8705 9.80982 52.0605 10.4898L53.1705 12.5398C54.0905 12.2298 54.7506 11.9998 55.1306 11.8198V21.7398H57.2805V20.6798H68.6606V21.7398H70.8105V11.7198C71.1205 11.8898 71.4605 12.0298 71.8305 12.1398C72.2005 12.2498 72.5406 12.3698 72.8506 12.5098L73.8705 10.4098C70.5405 9.74982 68.0005 8.56982 66.2505 6.86982H73.6906H73.6805ZM56.4805 11.1898C58.6505 10.2698 60.4105 8.84982 61.7505 6.93982V11.1898H56.4805ZM68.6606 18.7698H57.2905V16.7398H68.6606V18.7698ZM68.6606 14.8898H57.2905V13.1298H68.6606V14.8898ZM69.6306 11.1898H63.9205V6.90982C65.3705 8.83982 67.2706 10.2598 69.6306 11.1798V11.1898Z" fill="#003477"/>
<path d="M97.5901 16.7402V12.0002C98.5101 12.8302 99.6801 13.6702 101.1 14.5202L102.09 12.4702C99.5901 11.2402 98.0401 10.0002 97.4201 8.7502H101.83V6.8102H97.6701V4.4302H101.48V2.6002H97.6701V0.200195H95.5901V2.6002H91.3801V0.200195H89.2601V2.6002H86.1801V2.9002C85.2701 2.2102 84.1601 1.4502 82.8501 0.610195L81.3301 2.3202C82.3601 2.9702 83.5101 3.8702 84.7701 5.0202L86.1801 3.2602V4.5102H89.2601V6.8202H85.7201V8.7602H89.4201C88.7401 10.2102 87.1301 11.5102 84.5701 12.6602L85.8901 14.6002C86.9201 13.9502 87.6301 13.4702 88.0201 13.1402V18.3202C88.0201 19.3702 88.2101 20.0902 88.6001 20.4702C89.0001 20.8402 89.6901 21.0202 90.6801 21.0202H98.1601C99.3401 21.0202 100.14 20.8102 100.54 20.4002C100.96 19.9702 101.29 18.6802 101.53 16.5402L99.3101 15.7302C99.2101 16.9502 99.0901 17.8002 98.9701 18.3002C98.8501 18.7802 98.4601 19.0202 97.8101 19.0202H90.9501C90.4101 19.0202 90.1401 18.7502 90.1401 18.2102V16.7302H97.5701L97.5901 16.7402ZM91.4001 4.5402H95.6001V6.8102H91.4001V4.5402ZM91.9101 8.7502H95.0301C95.4601 9.5702 95.9301 10.2602 96.4401 10.8302H90.5501C91.1201 10.2302 91.5701 9.5402 91.9101 8.7502V8.7502ZM90.1501 14.9202V12.6602H95.4701V14.9202H90.1501Z" fill="#003477"/>
<path d="M85.5307 8.86012C84.3507 7.95012 83.2107 7.20012 82.1107 6.62012L80.7207 8.35012C81.6307 8.95012 82.7107 9.78012 83.9507 10.8401L85.5207 8.86012H85.5307Z" fill="#003477"/>
<path d="M80.6113 19.5899L82.4613 21.4799C83.7913 19.3799 84.7613 17.0899 85.4013 14.5999L83.3913 13.4199C82.9013 15.6099 81.9713 17.6599 80.6213 19.5899H80.6113Z" fill="#003477"/>
<path d="M125.581 4.54998C123.761 3.21998 122.351 2.28998 121.351 1.72998L119.961 3.24998C121.021 3.89998 122.411 4.90998 124.121 6.27998L125.581 4.54998V4.54998Z" fill="#003477"/>
<path d="M125.14 10.1198C123.44 8.82978 122.02 7.87979 120.87 7.27979L119.51 8.82978C120.73 9.54978 122.13 10.5798 123.71 11.9098L125.14 10.1298V10.1198Z" fill="#003477"/>
<path d="M128.57 0H126.43V13.29L118.68 14.44V16.59L126.43 15.42V21.77H128.57V15.14L130.65 14.79V12.69L128.57 13.03V0Z" fill="#003477"/>
<path d="M115.441 8.43014V8.22014H118.951V6.23014H115.441V2.98014C116.661 2.73014 117.821 2.42014 118.931 2.03014L118.141 0.140137C115.661 1.08014 112.701 1.63014 109.241 1.80014L109.721 3.74014C111.291 3.63014 112.491 3.50014 113.301 3.35014V6.24014H109.001V8.23014H113.231C112.261 10.7901 110.811 13.1701 108.861 15.3701L110.151 17.4501C111.661 15.4801 112.711 13.7501 113.291 12.2701V21.7701L115.421 21.6801V10.9501C115.841 11.5101 116.241 12.0201 116.641 12.5001C117.101 13.0201 117.561 13.6101 118.031 14.2601L119.321 12.2801C118.441 11.3201 117.141 10.0401 115.421 8.44014L115.441 8.43014Z" fill="#003477"/>
<path d="M153.641 14.17C152.331 12.1 151.501 10.13 151.141 8.25002L158.531 8.27002V5.82002H148.731C148.851 4.60002 148.921 2.67002 148.921 0.0200195H146.491C146.491 2.49002 146.391 4.42002 146.191 5.82002H137.831V8.27002H145.801C145.431 10.44 144.471 12.55 142.911 14.58C141.341 16.61 139.461 18.25 137.271 19.5L139.031 21.69C144.211 18.28 147.311 13.8 148.341 8.24002H148.711C150.251 14.45 153.101 18.92 157.261 21.64L159.041 19.51C156.751 18 154.942 16.21 153.632 14.15L153.641 14.17Z" fill="#003477"/>
</svg>
