<svg width="244" height="75" viewBox="0 0 244 75" fill="none" xmlns="http://www.w3.org/2000/svg">
<path d="M126.89 8.17002C127.07 7.94002 127.14 7.52002 127.14 7.52002H115.93C115.93 7.52002 116.07 7.98002 116.19 8.17002H126.9H126.89Z" fill="#AA8420"/>
<path d="M126.24 9.12006C126.45 8.93006 126.66 8.56006 126.66 8.56006H116.4C116.4 8.56006 116.51 8.84006 116.77 9.12006H126.24Z" fill="#AA8420"/>
<path d="M125.42 9.98006C125.68 9.84006 125.88 9.56006 125.88 9.56006H117.1C117.1 9.56006 117.31 9.79006 117.52 9.98006H125.42Z" fill="#AA8420"/>
<path d="M124.4 10.79C124.65 10.69 124.93 10.46 124.93 10.46H118.08C118.08 10.46 118.08 10.51 118.56 10.79H124.39H124.4Z" fill="#AA8420"/>
<path d="M119.359 11.2998C119.359 11.2998 120.079 11.7198 121.499 11.7198C122.919 11.7198 123.819 11.2998 123.819 11.2998H119.359Z" fill="#AA8420"/>
<path d="M119.25 12.25C119.25 12.25 120.11 12.3 120.62 12.69C121.11 13.11 121.479 13.8 121.479 13.8C121.479 13.8 121.78 13.13 122.27 12.78C122.76 12.41 123.549 12.24 123.549 12.24H132.4L134.14 14.82H126.19C126.19 14.82 125.629 14.84 124.799 15.33C124.359 15.58 124.03 16.02 124.03 16.02C124.03 16.02 123.97 16.23 123.87 16.34C123.78 16.46 123.71 16.55 123.59 16.6C123.47 16.65 123.49 16.62 123.49 16.62H119.359C119.359 16.62 119.189 16.55 119.109 16.41C119.019 16.27 119.08 16.32 118.99 16.21C118.92 16.09 118.76 15.79 118.13 15.37C117.48 14.95 116.849 14.9 116.849 14.9H108.77L110.53 12.23H119.24L119.25 12.25Z" fill="#003477"/>
<path d="M113 15.8999V29.0899C113 29.0899 113.05 30.2499 114.02 31.8299C115 33.4099 116.41 34.1299 116.41 34.1299L117.53 32.3899C117.53 32.3899 116.56 31.8099 115.81 30.6899C115.09 29.5799 115.09 28.6199 115.09 28.6199V15.8999H113V15.8999Z" fill="#003477"/>
<path d="M127.95 15.8501V28.5701C127.95 28.5701 127.79 29.8501 127.18 30.7501C126.58 31.6801 125.58 32.4201 125.58 32.4201L126.65 34.1401C126.65 34.1401 128.27 32.9601 129.06 31.7001C129.85 30.4501 130.04 28.5701 130.04 28.5701V15.8501H127.95Z" fill="#003477"/>
<path d="M109.68 15.8999V29.1399C109.68 29.1399 109.82 31.1899 111.09 33.3199C112.37 35.4499 114.69 36.9399 114.69 36.9399L115.78 35.1999C115.78 35.1999 114.29 34.4099 113.11 32.5999C111.9 30.7699 111.83 29.0899 111.83 29.0899V15.8999H109.67H109.68Z" fill="#003477"/>
<path d="M119.25 17.29V31.27C119.25 31.27 119.2 31.32 119.18 31.53C119.15 31.74 119.02 31.88 119.02 31.88L114.35 39.61H128.65L123.98 31.71L123.84 31.36L123.79 30.99V17.32H122.05V31.51C122.05 31.51 122.05 31.71 122.12 31.88C122.16 32.04 122.26 32.29 122.26 32.29L125.14 37.03H117.85L120.68 32.32C120.68 32.32 120.77 32.16 120.84 31.93C120.89 31.72 120.91 31.52 120.91 31.52V17.31H119.24L119.25 17.29Z" fill="#AA8420"/>
<path d="M131.179 15.8501V28.8601C131.179 28.8601 131.159 30.5301 129.929 32.4601C128.699 34.3901 127.279 35.2001 127.279 35.2001L128.329 36.9601C128.329 36.9601 130.469 35.6101 131.809 33.4801C133.139 31.3401 133.299 28.8601 133.299 28.8601V15.8501H131.189H131.179Z" fill="#003477"/>
<path d="M115.859 7.14006C115.859 7.14006 115.139 3.22006 118.019 1.27006C118.019 1.27006 119.319 0.0600586 121.429 0.0600586C123.679 0.0600586 124.979 1.24006 124.979 1.24006C128.119 3.54006 127.189 7.14006 127.189 7.14006H115.859V7.14006Z" fill="#AA8420"/>
<path d="M87.739 49.0796C88.109 48.9596 88.3791 48.8596 88.5291 48.7896V52.7796H89.399V52.3496H93.9791V52.7796H94.8391V48.7396C94.9591 48.8096 95.0991 48.8596 95.2491 48.9096C95.3991 48.9496 95.539 48.9996 95.659 49.0596L96.0691 48.2096C94.7291 47.9396 93.7091 47.4696 92.9991 46.7896H95.989V46.0196H92.0691V45.2396C93.3191 45.1396 94.3691 44.9996 95.2091 44.8196L94.8091 44.0596C93.5391 44.3396 91.6691 44.4896 89.1891 44.4896C88.6691 44.4896 88.2291 44.4896 87.8791 44.4696L88.1891 45.3296C88.7991 45.3296 89.7991 45.3096 91.1891 45.2696V46.0296H87.369V46.7996H90.239C89.399 47.4996 88.4191 47.9896 87.2891 48.2596L87.739 49.0896V49.0796ZM93.9691 51.5796H89.3891V50.7596H93.9691V51.5796ZM92.0591 46.7996C92.6391 47.5796 93.409 48.1496 94.359 48.5196H92.0591V46.7996ZM93.9691 49.3096V50.0196H89.3891V49.3096H93.9691ZM91.1891 46.8196V48.5296H89.0691C89.9491 48.1596 90.6491 47.5896 91.1891 46.8196Z" fill="#003477"/>
<path d="M101.499 45.3396V45.8396H102.739V46.7696H101.319V47.5496H102.809C102.539 48.1296 101.889 48.6596 100.859 49.1196L101.389 49.8996C101.809 49.6396 102.089 49.4396 102.249 49.3096V51.3996C102.249 51.8196 102.329 52.1096 102.479 52.2596C102.639 52.4096 102.919 52.4796 103.319 52.4796H106.339C106.819 52.4796 107.139 52.3996 107.299 52.2296C107.469 52.0596 107.599 51.5396 107.699 50.6796L106.809 50.3496C106.769 50.8396 106.719 51.1796 106.669 51.3796C106.619 51.5696 106.459 51.6696 106.199 51.6696H103.439C103.219 51.6696 103.109 51.5596 103.109 51.3396V50.7496H106.099V48.8396C106.469 49.1796 106.939 49.5096 107.519 49.8496L107.919 49.0196C106.909 48.5196 106.289 48.0296 106.039 47.5196H107.819V46.7396H106.139V45.7796H107.679V45.0496H106.139V44.0796H105.299V45.0496H103.599V44.0796H102.749V45.0496H101.509V45.1696C101.139 44.8896 100.699 44.5796 100.169 44.2496L99.5586 44.9396C99.9786 45.1996 100.439 45.5596 100.949 46.0296L101.519 45.3196L101.499 45.3396ZM103.589 45.8496H105.279V46.7596H103.589V45.8496ZM103.799 47.5396H105.059C105.229 47.8696 105.419 48.1496 105.629 48.3796H103.259C103.489 48.1396 103.669 47.8596 103.809 47.5396H103.799ZM103.089 49.1096H105.229V50.0196H103.089V49.1096Z" fill="#003477"/>
<path d="M101.229 47.5899C100.749 47.2299 100.289 46.9199 99.8491 46.6899L99.2891 47.3899C99.6591 47.6299 100.089 47.9699 100.589 48.3999L101.219 47.5999L101.229 47.5899Z" fill="#003477"/>
<path d="M101.168 49.8997L100.358 49.4297C100.158 50.3097 99.7883 51.1397 99.2383 51.9097L99.9783 52.6697C100.508 51.8297 100.908 50.8997 101.158 49.8997H101.168Z" fill="#003477"/>
<path d="M119.039 44.0195H118.169V49.3695L115.049 49.8295V50.6995L118.169 50.2295V52.7795H119.039V50.1095L119.879 49.9695V49.1295L119.039 49.2695V44.0195Z" fill="#003477"/>
<path d="M117.659 48.0897C116.979 47.5697 116.399 47.1897 115.939 46.9497L115.389 47.5697C115.879 47.8597 116.439 48.2797 117.089 48.8097L117.669 48.0897H117.659Z" fill="#003477"/>
<path d="M113.759 52.7496V48.4296C113.929 48.6496 114.089 48.8596 114.249 49.0496C114.439 49.2596 114.619 49.4996 114.809 49.7596L115.329 48.9596C114.979 48.5796 114.449 48.0596 113.759 47.4196V47.3396H115.169V46.5396H113.759V45.2296C114.249 45.1296 114.719 44.9996 115.169 44.8496L114.849 44.0796C113.849 44.4596 112.659 44.6796 111.269 44.7496L111.469 45.5296C112.099 45.4896 112.579 45.4296 112.909 45.3696V46.5296H111.179V47.3296H112.879C112.489 48.3596 111.899 49.3196 111.119 50.2096L111.639 51.0496C112.249 50.2596 112.669 49.5596 112.909 48.9696V52.7896L113.769 52.7496H113.759Z" fill="#003477"/>
<path d="M117.828 45.85C117.098 45.32 116.528 44.94 116.128 44.71L115.568 45.32C115.998 45.58 116.558 45.99 117.238 46.54L117.828 45.84V45.85Z" fill="#003477"/>
<path d="M123.039 48.9195L123.259 49.9295C123.559 49.8595 123.979 49.7495 124.509 49.6095V51.5095C124.509 51.7195 124.409 51.8195 124.199 51.8195L123.389 51.7895L123.599 52.7295H124.329C124.789 52.7295 125.089 52.6595 125.219 52.5095C125.339 52.3695 125.409 52.0795 125.409 51.6295V49.3495C125.939 49.1695 126.309 49.0295 126.499 48.9195V48.0095C126.269 48.1195 125.909 48.2595 125.409 48.4195V46.7695H126.509V46.1695H128.519V47.4195H126.679V48.2795H130.369C130.099 49.0595 129.649 49.6995 129.019 50.2095C128.589 49.7795 128.159 49.1895 127.739 48.4295L126.969 48.7395C127.429 49.5795 127.899 50.2395 128.379 50.7195C127.489 51.3195 126.589 51.7195 125.699 51.9195L126.209 52.7695C127.099 52.5795 128.039 52.1095 129.019 51.3595C129.739 52.0195 130.509 52.4795 131.329 52.7495L131.799 51.8695C131.019 51.6495 130.319 51.2895 129.699 50.7795C130.049 50.4695 130.389 50.0495 130.719 49.5095C131.049 48.9695 131.249 48.5295 131.329 48.1995V47.4295H129.449V46.1795H131.649V45.3295H129.449V44.0195H128.529V45.3295H126.529V45.9295H125.429V44.0195H124.509V45.9295H123.129V46.7795H124.509V48.6495C124.069 48.7695 123.579 48.8595 123.039 48.9295V48.9195Z" fill="#003477"/>
<path d="M141.53 49.7298C141 48.8998 140.67 48.1098 140.52 47.3498H143.5V46.3698H139.55C139.6 45.8798 139.62 45.0998 139.62 44.0298H138.64C138.64 45.0198 138.6 45.7998 138.52 46.3698H135.15V47.3598H138.36C138.21 48.2398 137.82 49.0798 137.2 49.8998C136.57 50.7198 135.81 51.3798 134.93 51.8798L135.64 52.7698C137.72 51.3998 138.97 49.5898 139.39 47.3498H139.54C140.16 49.8498 141.31 51.6498 142.98 52.7498L143.7 51.8998C142.78 51.2898 142.05 50.5698 141.52 49.7398L141.53 49.7298Z" fill="#003477"/>
<path d="M152.149 45.8599C151.909 46.1299 151.689 46.3199 151.509 46.4399C151.369 46.3299 151.239 46.2299 151.119 46.1499C151.019 46.0999 150.909 46.0299 150.789 45.9499L150.309 46.3599C150.599 46.5699 150.809 46.7099 150.929 46.8099C150.709 46.9399 150.389 47.0499 149.959 47.1499L150.359 47.7699C150.799 47.6199 151.159 47.4499 151.449 47.2499C151.489 47.2499 151.649 47.4299 151.939 47.7999L152.539 47.3499C152.369 47.1799 152.189 47.0099 152.009 46.8599C152.199 46.7199 152.409 46.5299 152.639 46.2999L152.149 45.8799V45.8599Z" fill="#003477"/>
<path d="M150.909 51.6998C150.909 51.8898 150.819 51.9798 150.629 51.9798L149.349 51.9398L149.569 52.6898H150.939C151.509 52.6898 151.789 52.3598 151.789 51.6898V51.3098H155.649V50.5598H151.789C152.589 50.3098 153.259 50.0398 153.809 49.7498V49.0698H148.629V49.7598H152.549C151.889 49.9498 151.349 50.0898 150.919 50.1598V50.5598H146.879V51.3098H150.919V51.6898L150.909 51.6998Z" fill="#003477"/>
<path d="M149.828 45.2698L150.298 45.8898C150.718 45.7098 151.078 45.5198 151.388 45.3198C151.458 45.3198 151.618 45.4998 151.858 45.8498L152.428 45.4298C152.218 45.2098 152.058 45.0498 151.938 44.9398C152.168 44.7898 152.348 44.6198 152.488 44.4398L152.018 44.0198C151.908 44.1698 151.718 44.3398 151.448 44.5198C151.198 44.3298 150.958 44.1598 150.718 44.0098L150.218 44.4498C150.478 44.6198 150.698 44.7598 150.848 44.8898C150.688 44.9998 150.348 45.1298 149.828 45.2698V45.2698Z" fill="#003477"/>
<path d="M147.899 48.6799H154.619V50.0499H155.459V47.9499H154.969L155.069 44.2699H152.769V45.0099H154.249V45.5199H152.869V46.1499H154.219L154.199 46.6799H152.869V47.3199H154.169V47.9399H148.329L148.309 47.3199H149.709V46.6799H148.289V46.1499H149.709V45.5199H148.259L148.229 45.0499C148.989 44.9999 149.539 44.9199 149.889 44.7999L149.479 44.1099C148.919 44.2699 148.239 44.3599 147.429 44.3799L147.529 47.9499H147.059V50.0499H147.889V48.6799H147.899Z" fill="#003477"/>
<path d="M50.6289 57.3799H52.2489V63.4399H53.1089V57.3799H54.7289V56.6099H50.6289V57.3799Z" fill="#003477"/>
<path d="M59.528 59.3599H56.2679V56.6099H55.418V63.4399H56.2679V60.1599H59.528V63.4399H60.378V56.6099H59.528V59.3599Z" fill="#003477"/>
<path d="M65.3792 62.6599H62.5592V60.0799H65.2992V59.2999H62.5592V57.3799H65.3792V56.6099H61.6992V63.4399H65.3792V62.6599Z" fill="#003477"/>
<path d="M73.2682 59.3599H70.0182V56.6099H69.1582V63.4399H70.0182V60.1599H73.2682V63.4399H74.1182V56.6099H73.2682V59.3599Z" fill="#003477"/>
<path d="M82.1288 60.02C82.1288 58.06 80.5087 56.46 78.5487 56.46C76.5887 56.46 74.9688 58.07 74.9688 60.02C74.9688 61.97 76.5787 63.59 78.5487 63.59C80.5187 63.59 82.1288 62.06 82.1288 60.02ZM78.5487 62.79C77.0687 62.79 75.8188 61.58 75.8188 60.02C75.8188 58.46 76.9387 57.25 78.5487 57.25C80.1587 57.25 81.2787 58.51 81.2787 60.02C81.2787 61.53 80.0287 62.79 78.5487 62.79Z" fill="#003477"/>
<path d="M83.8188 58.3498L88.9587 63.7298V56.6098H88.0988V61.6598L82.9688 56.2798V63.4498H83.8188V58.3498Z" fill="#003477"/>
<path d="M93.3791 57.2397C94.2091 57.2397 95.0391 57.6897 95.5291 58.3597L96.1291 57.7897C95.4591 56.9497 94.4091 56.4697 93.3391 56.4697C91.3691 56.4697 89.7891 58.0797 89.7891 60.0497C89.7891 62.0197 91.3291 63.5997 93.2491 63.5997C95.1691 63.5997 96.489 62.1597 96.489 60.2797V60.0097H93.7791V60.7897H95.549C95.509 61.8997 94.3691 62.8197 93.3091 62.8197C91.8291 62.8197 90.649 61.4597 90.649 60.0297C90.649 58.4997 91.8491 57.2497 93.3791 57.2497V57.2397Z" fill="#003477"/>
<path d="M100.139 56.6099V63.4399H100.989V60.5899L101.339 60.2599L103.909 63.4399H105.069L101.939 59.6799L105.009 56.6099H103.899L100.989 59.5699V56.6099H100.139Z" fill="#003477"/>
<path d="M105.189 60.02C105.189 62.05 106.799 63.59 108.769 63.59C110.739 63.59 112.349 62.06 112.349 60.02C112.349 57.98 110.729 56.46 108.769 56.46C106.809 56.46 105.189 58.07 105.189 60.02ZM108.769 57.25C110.369 57.25 111.499 58.51 111.499 60.02C111.499 61.53 110.249 62.79 108.769 62.79C107.289 62.79 106.039 61.58 106.039 60.02C106.039 58.46 107.159 57.25 108.769 57.25Z" fill="#003477"/>
<path d="M114.049 58.3498L119.179 63.7298V56.6098H118.329V61.6598L113.189 56.2798V63.4498H114.049V58.3498Z" fill="#003477"/>
<path d="M124.01 60.7797H125.78C125.74 61.8897 124.599 62.8097 123.539 62.8097C122.059 62.8097 120.88 61.4497 120.88 60.0197C120.88 58.4897 122.079 57.2397 123.609 57.2397C124.439 57.2397 125.27 57.6897 125.76 58.3597L126.359 57.7897C125.689 56.9497 124.64 56.4697 123.57 56.4697C121.6 56.4697 120.02 58.0797 120.02 60.0497C120.02 62.0197 121.559 63.5997 123.479 63.5997C125.399 63.5997 126.719 62.1597 126.719 60.2797V60.0097H124.01V60.7897V60.7797Z" fill="#003477"/>
<path d="M135.26 60.9296V56.5996H134.41V60.6296C134.41 61.7496 134.07 62.7796 132.76 62.7796C131.45 62.7796 131.11 61.7496 131.11 60.6296V56.5996H130.26V60.9296C130.26 62.4396 131.19 63.5896 132.76 63.5896C134.33 63.5896 135.26 62.4396 135.26 60.9296V60.9296Z" fill="#003477"/>
<path d="M142.429 56.6098H141.579V61.6598L136.449 56.2798V63.4498H137.299V58.3498L142.429 63.7298V56.6098Z" fill="#003477"/>
<path d="M144.559 56.6099H143.709V63.4499H144.559V56.6099Z" fill="#003477"/>
<path d="M151.159 56.6099H150.219L148.189 61.6699L146.149 56.6099H145.219L148.189 63.8099L151.159 56.6099Z" fill="#003477"/>
<path d="M155.498 57.3799V56.6099H151.828V63.4399H155.498V62.6599H152.678V60.0799H155.418V59.2999H152.678V57.3799H155.498Z" fill="#003477"/>
<path d="M157.499 60.5498H157.849L159.859 63.4398H160.889L158.729 60.4598C159.719 60.3398 160.369 59.5298 160.369 58.5398C160.369 57.8898 160.039 57.2398 159.469 56.9098C158.919 56.5998 158.269 56.5898 157.659 56.5898H156.619V63.4298H157.469V60.5398L157.499 60.5498ZM157.499 57.3698H157.729C158.569 57.3698 159.589 57.5198 159.589 58.5898C159.589 59.6598 158.649 59.8398 157.779 59.8398H157.509V57.3598L157.499 57.3698Z" fill="#003477"/>
<path d="M163.489 62.79C162.759 62.79 162.159 62.25 162.169 61.49L161.309 61.67C161.459 62.77 162.319 63.59 163.419 63.59C164.639 63.59 165.609 62.7 165.609 61.46C165.609 60.32 164.889 59.78 163.909 59.4L163.419 59.21C162.989 59.05 162.469 58.76 162.469 58.23C162.469 57.63 163.069 57.26 163.619 57.26C164.139 57.26 164.459 57.48 164.719 57.9L165.399 57.49C165.029 56.83 164.399 56.46 163.639 56.46C162.609 56.46 161.629 57.12 161.629 58.23C161.629 59.18 162.339 59.63 163.119 59.96L163.589 60.16C164.179 60.41 164.769 60.72 164.769 61.46C164.769 62.2 164.239 62.79 163.509 62.79H163.489Z" fill="#003477"/>
<path d="M167.45 56.6099H166.6V63.4499H167.45V56.6099Z" fill="#003477"/>
<path d="M170.659 63.4399V57.3799H172.289V56.6099H168.189V57.3799H169.809V63.4399H170.659Z" fill="#003477"/>
<path d="M174.57 63.4399H175.43V60.4699L177.66 56.6099H176.68L175 59.5199L173.32 56.6099H172.34L174.57 60.4699V63.4399Z" fill="#003477"/>
<path d="M184.148 56.46C182.188 56.46 180.568 58.07 180.568 60.02C180.568 61.97 182.178 63.59 184.148 63.59C186.118 63.59 187.728 62.06 187.728 60.02C187.728 57.98 186.108 56.46 184.148 56.46ZM184.148 62.79C182.668 62.79 181.418 61.58 181.418 60.02C181.418 58.46 182.538 57.25 184.148 57.25C185.758 57.25 186.878 58.51 186.878 60.02C186.878 61.53 185.628 62.79 184.148 62.79Z" fill="#003477"/>
<path d="M191.949 57.3899V56.6099H188.639V63.4499H189.489V60.0899H191.869V59.3099H189.489V57.3899H191.949Z" fill="#003477"/>
<path d="M63.7892 70.2798L63.2992 70.0898C62.8692 69.9298 62.3492 69.6398 62.3492 69.1098C62.3492 68.5098 62.9492 68.1398 63.4892 68.1398C64.0292 68.1398 64.3292 68.3598 64.5892 68.7798L65.2692 68.3699C64.8992 67.7099 64.2692 67.3398 63.5092 67.3398C62.4692 67.3398 61.4992 67.9998 61.4992 69.1098C61.4992 70.0598 62.2092 70.5098 62.9892 70.8398L63.4592 71.0398C64.0492 71.2898 64.6392 71.5998 64.6392 72.3398C64.6392 73.0798 64.1092 73.6698 63.3792 73.6698C62.6492 73.6698 62.0492 73.1299 62.0592 72.3699L61.1992 72.5499C61.3492 73.6499 62.2092 74.4698 63.3092 74.4698C64.5292 74.4698 65.4992 73.5798 65.4992 72.3398C65.4992 71.1998 64.7692 70.6598 63.7992 70.2798H63.7892Z" fill="#003477"/>
<path d="M66.1289 70.9398C66.1289 72.9198 67.7389 74.4698 69.6989 74.4698C70.2989 74.4698 70.9689 74.2998 71.4989 73.9898V72.9799C70.9889 73.4299 70.3489 73.6898 69.6789 73.6898C68.1589 73.6898 66.9889 72.4098 66.9889 70.9198C66.9889 69.4298 68.1589 68.1199 69.6889 68.1199C70.3289 68.1199 71.0089 68.3598 71.4889 68.7898V67.7999C70.9689 67.4799 70.3689 67.3398 69.7689 67.3398C67.7589 67.3398 66.1289 68.9198 66.1289 70.9398Z" fill="#003477"/>
<path d="M73.4184 67.4897H72.5684V74.3298H73.4184V67.4897Z" fill="#003477"/>
<path d="M74.7891 74.3298H78.4691V73.5498H75.649V70.9597H78.3891V70.1797H75.649V68.2697H78.4691V67.4897H74.7891V74.3298Z" fill="#003477"/>
<path d="M84.6593 72.5397L79.5293 67.1597V74.3297H80.3793V69.2297L85.5193 74.6097V67.4897H84.6593V72.5397Z" fill="#003477"/>
<path d="M86.4395 70.9398C86.4395 72.9198 88.0595 74.4698 90.0095 74.4698C90.6095 74.4698 91.2794 74.2998 91.8094 73.9898V72.9799C91.2994 73.4299 90.6594 73.6898 89.9894 73.6898C88.4694 73.6898 87.3094 72.4098 87.3094 70.9198C87.3094 69.4298 88.4795 68.1199 90.0095 68.1199C90.6495 68.1199 91.3294 68.3598 91.8094 68.7898V67.7999C91.2894 67.4799 90.6894 67.3398 90.0894 67.3398C88.0794 67.3398 86.4495 68.9198 86.4495 70.9398H86.4395Z" fill="#003477"/>
<path d="M92.9082 74.3298H96.5882V73.5498H93.7582V70.9597H96.4982V70.1797H93.7582V68.2697H96.5882V67.4897H92.9082V74.3298Z" fill="#003477"/>
<path d="M99.709 74.3297H100.629L101.409 72.6197H104.549L105.329 74.3297H106.249L102.979 67.1997L99.709 74.3297V74.3297ZM101.759 71.8297L102.969 69.0597L104.189 71.8297H101.759V71.8297Z" fill="#003477"/>
<path d="M111.958 72.5397L106.828 67.1597V74.3297H107.678V69.2297L112.808 74.6097V67.4897H111.958V72.5397Z" fill="#003477"/>
<path d="M115.459 67.4897H114.049V74.3298H115.439C117.599 74.3298 119.299 73.2098 119.299 70.8698C119.299 68.5298 117.559 67.4897 115.459 67.4897V67.4897ZM115.199 73.5498H114.899V68.2697H115.199C116.939 68.2697 118.449 68.9198 118.449 70.9098C118.449 72.8998 116.939 73.5498 115.199 73.5498Z" fill="#003477"/>
<path d="M122.318 68.2697H123.938V74.3298H124.798V68.2697H126.418V67.4897H122.318V68.2697Z" fill="#003477"/>
<path d="M127.18 74.3298H130.86V73.5498H128.04V70.9597H130.78V70.1797H128.04V68.2697H130.86V67.4897H127.18V74.3298Z" fill="#003477"/>
<path d="M131.619 70.9398C131.619 72.9198 133.229 74.4698 135.189 74.4698C135.789 74.4698 136.459 74.2998 136.989 73.9898V72.9799C136.479 73.4299 135.839 73.6898 135.169 73.6898C133.649 73.6898 132.479 72.4098 132.479 70.9198C132.479 69.4298 133.649 68.1199 135.179 68.1199C135.829 68.1199 136.499 68.3598 136.989 68.7898V67.7999C136.469 67.4799 135.859 67.3398 135.269 67.3398C133.259 67.3398 131.629 68.9198 131.629 70.9398H131.619Z" fill="#003477"/>
<path d="M142.12 70.2397H138.87V67.4897H138.02V74.3298H138.87V71.0397H142.12V74.3298H142.979V67.4897H142.12V70.2397Z" fill="#003477"/>
<path d="M149.349 72.5397L144.219 67.1597V74.3297H145.069V69.2297L150.199 74.6097V67.4897H149.349V72.5397Z" fill="#003477"/>
<path d="M154.619 67.3398C152.659 67.3398 151.029 68.9498 151.029 70.8998C151.029 72.8498 152.639 74.4698 154.619 74.4698C156.599 74.4698 158.199 72.9398 158.199 70.8998C158.199 68.8598 156.579 67.3398 154.619 67.3398ZM154.619 73.6698C153.139 73.6698 151.889 72.4598 151.889 70.8998C151.889 69.3398 153.009 68.1298 154.619 68.1298C156.229 68.1298 157.349 69.3898 157.349 70.8998C157.349 72.4098 156.099 73.6698 154.619 73.6698Z" fill="#003477"/>
<path d="M159.969 67.4897H159.109V74.3298H162.039V73.5498H159.969V67.4897Z" fill="#003477"/>
<path d="M165.799 67.3398C163.839 67.3398 162.219 68.9498 162.219 70.8998C162.219 72.8498 163.819 74.4698 165.799 74.4698C167.779 74.4698 169.379 72.9398 169.379 70.8998C169.379 68.8598 167.759 67.3398 165.799 67.3398ZM165.799 73.6698C164.319 73.6698 163.069 72.4598 163.069 70.8998C163.069 69.3398 164.189 68.1298 165.799 68.1298C167.409 68.1298 168.529 69.3898 168.529 70.8998C168.529 72.4098 167.279 73.6698 165.799 73.6698Z" fill="#003477"/>
<path d="M173.818 71.6599H175.588C175.548 72.7699 174.408 73.6898 173.348 73.6898C171.868 73.6898 170.688 72.3298 170.688 70.8998C170.688 69.3698 171.888 68.1199 173.418 68.1199C174.248 68.1199 175.078 68.5698 175.568 69.2398L176.168 68.6698C175.498 67.8198 174.448 67.3398 173.378 67.3398C171.408 67.3398 169.828 68.9498 169.828 70.9198C169.828 72.8898 171.368 74.4698 173.288 74.4698C175.208 74.4698 176.528 73.0298 176.528 71.1498V70.8798H173.818V71.6599V71.6599Z" fill="#003477"/>
<path d="M179.42 70.4098L177.74 67.4897H176.76L178.99 71.3497V74.3298H179.84V71.3497L182.07 67.4897H181.09L179.42 70.4098Z" fill="#003477"/>
<path d="M44.0995 74.67H36.7695V0H44.0995V0.25H37.0195V74.42H44.0995V74.67Z" fill="#231815"/>
<path d="M205.949 74.67H198.619V74.42H205.699V0.25H198.619V0H205.949V74.67Z" fill="#231815"/>
<path d="M205.949 74.67H198.619V74.42H205.699V0.25H198.619V0H205.949V74.67Z" fill="#231815"/>
<path d="M0.699463 28.1099H3.25946C3.91946 28.1099 4.42944 28.2699 4.79944 28.5899C5.16944 28.9099 5.34946 29.3499 5.34946 29.8999C5.34946 30.4499 5.15946 30.8999 4.78946 31.2199C4.41946 31.5399 3.89945 31.6999 3.24945 31.6999H1.42944V34.5199H0.689453V28.1099H0.699463ZM3.18945 31.0899C3.65945 31.0899 4.01946 30.9899 4.25946 30.7799C4.49946 30.5799 4.61945 30.2799 4.61945 29.8999C4.61945 29.5199 4.49946 29.2199 4.25946 29.0199C4.01946 28.8199 3.65945 28.7199 3.18945 28.7199H1.42944V31.0899H3.18945V31.0899Z" fill="#231815"/>
<path d="M11.5903 34.5196H10.8103L10.0203 32.3896C9.92029 32.1296 9.7903 31.9496 9.6203 31.8596C9.4503 31.7696 9.2103 31.7296 8.9003 31.7296H7.30029V34.5296H6.57031V28.1196H9.1203C9.8103 28.1196 10.3403 28.2696 10.7103 28.5796C11.0803 28.8896 11.2603 29.3296 11.2603 29.8996C11.2603 30.3196 11.1503 30.6696 10.9303 30.9596C10.7103 31.2496 10.3903 31.4496 9.98032 31.5696C10.1703 31.5996 10.3203 31.6796 10.4603 31.8096C10.5903 31.9396 10.7003 32.1196 10.7903 32.3596L11.6003 34.5296L11.5903 34.5196ZM9.04031 31.1096C10.0203 31.1096 10.5203 30.7096 10.5203 29.8996C10.5203 29.4996 10.4003 29.2096 10.1603 29.0096C9.92031 28.8196 9.55031 28.7196 9.04031 28.7196H7.29031V31.0996H9.04031V31.1096Z" fill="#231815"/>
<path d="M12.7891 28.1099H13.5291V34.5199H12.7891V28.1099V28.1099Z" fill="#231815"/>
<path d="M20.2494 28.1099V34.5199H19.6694L15.7994 29.3599V34.5199H15.1094V28.1099H15.6794L19.5494 33.2699V28.1099H20.2494V28.1099Z" fill="#231815"/>
<path d="M23.3804 28.7399H21.1504V28.1099H26.3604V28.7399H24.1304V34.5199H23.3804V28.7399V28.7399Z" fill="#231815"/>
<path d="M26.6797 33.7798L26.9597 33.2098C27.2797 33.4798 27.5997 33.6698 27.9297 33.7898C28.2597 33.8998 28.6397 33.9598 29.0797 33.9598C29.5997 33.9598 29.9897 33.8598 30.2697 33.6598C30.5497 33.4598 30.6897 33.1798 30.6897 32.8098C30.6897 32.5898 30.6197 32.4198 30.4897 32.2798C30.3497 32.1498 30.1797 32.0398 29.9597 31.9598C29.7397 31.8798 29.4497 31.7998 29.0797 31.7198C28.5897 31.6098 28.1797 31.4898 27.8697 31.3698C27.5497 31.2398 27.2897 31.0598 27.0997 30.8298C26.8997 30.5898 26.7997 30.2798 26.7997 29.8998C26.7997 29.5198 26.8997 29.2098 27.0897 28.9298C27.2797 28.6498 27.5497 28.4298 27.8997 28.2798C28.2497 28.1298 28.6597 28.0498 29.1297 28.0498C29.5997 28.0498 29.9897 28.1198 30.3697 28.2598C30.7497 28.3998 31.0797 28.5998 31.3397 28.8598L31.0497 29.4298C30.7497 29.1698 30.4497 28.9798 30.1397 28.8598C29.8297 28.7398 29.4897 28.6798 29.1297 28.6798C28.6297 28.6798 28.2397 28.7898 27.9597 28.9998C27.6797 29.2098 27.5397 29.4998 27.5397 29.8798C27.5397 30.1998 27.6597 30.4498 27.9097 30.6098C28.1597 30.7698 28.5297 30.9098 29.0397 31.0298C29.5897 31.1598 30.0297 31.2798 30.3397 31.3898C30.6497 31.4998 30.9197 31.6698 31.1297 31.8898C31.3397 32.1198 31.4397 32.4098 31.4397 32.7898C31.4397 33.1698 31.3397 33.4698 31.1497 33.7398C30.9597 34.0098 30.6797 34.2198 30.3297 34.3698C29.9697 34.5198 29.5497 34.5998 29.0697 34.5998C28.0697 34.5998 27.2697 34.3298 26.6797 33.7898V33.7798Z" fill="#231815"/>
<path d="M4.91922 45.8299V46.5199H0.949219V45.8299H2.5192V40.4199L1.0592 41.3499V40.5599L2.87921 39.3999H3.34921V45.8299H4.91922V45.8299Z" fill="#AA8420"/>
<path d="M10.8294 43.5098C11.0894 43.8198 11.2094 44.1898 11.2094 44.6298C11.2094 45.2398 10.9794 45.7098 10.5194 46.0598C10.0594 46.4098 9.43939 46.5898 8.65939 46.5898C7.87939 46.5898 7.25938 46.4098 6.79938 46.0598C6.33938 45.7098 6.10938 45.2298 6.10938 44.6298C6.10938 44.1998 6.2394 43.8198 6.5094 43.5098C6.7694 43.1998 7.12939 42.9798 7.58939 42.8598C7.15939 42.7298 6.83938 42.5298 6.60938 42.2398C6.37937 41.9498 6.26938 41.6098 6.26938 41.2198C6.26938 40.8298 6.3694 40.5098 6.5694 40.2198C6.7694 39.9398 7.04939 39.7198 7.40939 39.5598C7.76939 39.3998 8.18939 39.3198 8.65939 39.3198C9.12939 39.3198 9.53939 39.3998 9.90939 39.5598C10.2694 39.7198 10.5594 39.9398 10.7494 40.2198C10.9494 40.4998 11.0494 40.8298 11.0494 41.2198C11.0494 41.6098 10.9294 41.9498 10.6994 42.2398C10.4694 42.5298 10.1494 42.7398 9.73938 42.8598C10.2094 42.9898 10.5694 43.1998 10.8194 43.5198L10.8294 43.5098ZM9.9494 45.5598C10.2494 45.3298 10.3994 44.9998 10.3994 44.5698C10.3994 44.1798 10.2394 43.8598 9.9194 43.6298C9.5994 43.3898 9.17938 43.2498 8.64938 43.1898C8.11938 43.2398 7.69939 43.3898 7.37939 43.6298C7.05939 43.8698 6.89938 44.1798 6.89938 44.5698C6.89938 44.9998 7.0494 45.3298 7.3494 45.5598C7.6494 45.7898 8.0794 45.8998 8.6394 45.8998C9.1994 45.8998 9.62938 45.7898 9.92938 45.5598H9.9494ZM7.5094 42.1798C7.7894 42.4198 8.17939 42.5598 8.65939 42.6198C9.13939 42.5698 9.51939 42.4198 9.80939 42.1798C10.0894 41.9398 10.2294 41.6398 10.2294 41.2598C10.2294 40.8798 10.0894 40.5598 9.80939 40.3298C9.52939 40.0998 9.14939 39.9898 8.65939 39.9898C8.16939 39.9898 7.7794 40.0998 7.5094 40.3298C7.2294 40.5598 7.08939 40.8698 7.08939 41.2598C7.08939 41.6498 7.2294 41.9498 7.5094 42.1798Z" fill="#AA8420"/>
<path d="M22.3085 43.3596V46.5196H21.4985V43.3996C21.4985 42.9296 21.4185 42.5796 21.2485 42.3696C21.0885 42.1596 20.8185 42.0496 20.4585 42.0496C20.0285 42.0496 19.6985 42.1896 19.4585 42.4796C19.2185 42.7696 19.0985 43.1596 19.0985 43.6496V46.5196H18.2885V43.3996C18.2885 42.9296 18.2085 42.5896 18.0385 42.3796C17.8685 42.1596 17.6085 42.0496 17.2385 42.0496C16.8085 42.0496 16.4785 42.1896 16.2385 42.4796C15.9985 42.7696 15.8685 43.1596 15.8685 43.6496V46.5196H15.0585V42.8996C15.0585 42.3796 15.0285 41.9096 14.9785 41.4896H15.7485L15.8285 42.3696C15.9685 42.0496 16.1785 41.7996 16.4485 41.6296C16.7285 41.4596 17.0485 41.3696 17.4185 41.3696C17.8185 41.3696 18.1485 41.4496 18.3985 41.6096C18.6485 41.7696 18.8385 42.0196 18.9585 42.3496C19.1085 42.0496 19.3385 41.8096 19.6285 41.6396C19.9285 41.4596 20.2585 41.3696 20.6285 41.3696C21.7385 41.3696 22.2985 42.0296 22.2985 43.3596H22.3085Z" fill="#AA8420"/>
<path d="M31.0898 43.3596V46.5196H30.2798V43.3996C30.2798 42.9296 30.1998 42.5796 30.0298 42.3696C29.8698 42.1596 29.5997 42.0496 29.2397 42.0496C28.8097 42.0496 28.4797 42.1896 28.2397 42.4796C27.9997 42.7696 27.8798 43.1596 27.8798 43.6496V46.5196H27.0698V43.3996C27.0698 42.9296 26.9898 42.5896 26.8198 42.3796C26.6498 42.1596 26.3897 42.0496 26.0197 42.0496C25.5897 42.0496 25.2597 42.1896 25.0197 42.4796C24.7797 42.7696 24.6497 43.1596 24.6497 43.6496V46.5196H23.8398V42.8996C23.8398 42.3796 23.8098 41.9096 23.7598 41.4896H24.5298L24.6097 42.3696C24.7497 42.0496 24.9598 41.7996 25.2298 41.6296C25.5098 41.4596 25.8298 41.3696 26.1998 41.3696C26.5998 41.3696 26.9297 41.4496 27.1797 41.6096C27.4297 41.7696 27.6197 42.0196 27.7397 42.3496C27.8897 42.0496 28.1198 41.8096 28.4098 41.6396C28.7098 41.4596 29.0398 41.3696 29.4098 41.3696C30.5198 41.3696 31.0797 42.0296 31.0797 43.3596H31.0898Z" fill="#AA8420"/>
<path d="M212.669 34.1898C212.229 33.9298 211.889 33.5498 211.659 33.0498C211.419 32.5598 211.299 31.9698 211.299 31.3098C211.299 30.6498 211.419 30.0598 211.649 29.5598C211.879 29.0698 212.219 28.6898 212.659 28.4298C213.099 28.1698 213.619 28.0298 214.219 28.0298C214.819 28.0298 215.339 28.1598 215.779 28.4298C216.219 28.6898 216.549 29.0698 216.789 29.5598C217.019 30.0498 217.139 30.6298 217.139 31.2998C217.139 31.9698 217.019 32.5498 216.779 33.0498C216.539 33.5498 216.209 33.9198 215.769 34.1898C215.329 34.4598 214.819 34.5898 214.219 34.5898C213.619 34.5898 213.109 34.4598 212.669 34.1898ZM215.799 33.2598C216.179 32.7998 216.369 32.1398 216.369 31.2998C216.369 30.4598 216.179 29.7998 215.809 29.3498C215.439 28.8998 214.909 28.6698 214.219 28.6698C213.529 28.6698 213.009 28.8998 212.629 29.3598C212.249 29.8198 212.059 30.4698 212.059 31.3098C212.059 32.1498 212.249 32.8098 212.629 33.2698C213.009 33.7298 213.539 33.9598 214.219 33.9598C214.899 33.9598 215.429 33.7298 215.799 33.2698V33.2598Z" fill="#231815"/>
<path d="M223.628 28.1099V34.5199H223.048L219.178 29.3599V34.5199H218.488V28.1099H219.058L222.928 33.2699V28.1099H223.628V28.1099Z" fill="#231815"/>
<path d="M225.199 28.1099H225.939V33.8899H229.149V34.5199H225.199V28.1099V28.1099Z" fill="#231815"/>
<path d="M230.109 28.1099H230.849V34.5199H230.109V28.1099V28.1099Z" fill="#231815"/>
<path d="M237.57 28.1099V34.5199H236.99L233.12 29.3599V34.5199H232.43V28.1099H233L236.87 33.2699V28.1099H237.57V28.1099Z" fill="#231815"/>
<path d="M239.139 28.1096H243.189V28.7196H239.869V30.9496H243.009V31.5696H239.869V33.8996H243.189V34.5096H239.139V28.0996V28.1096Z" fill="#231815"/>
<path d="M215.909 43.5098C216.169 43.8198 216.289 44.1898 216.289 44.6298C216.289 45.2398 216.059 45.7098 215.599 46.0598C215.139 46.4098 214.519 46.5898 213.739 46.5898C212.959 46.5898 212.339 46.4098 211.879 46.0598C211.419 45.7098 211.189 45.2298 211.189 44.6298C211.189 44.1998 211.319 43.8198 211.579 43.5098C211.839 43.1998 212.199 42.9798 212.659 42.8598C212.229 42.7298 211.909 42.5298 211.679 42.2398C211.449 41.9498 211.339 41.6098 211.339 41.2198C211.339 40.8298 211.439 40.5098 211.639 40.2198C211.839 39.9398 212.119 39.7198 212.479 39.5598C212.839 39.3998 213.259 39.3198 213.729 39.3198C214.199 39.3198 214.609 39.3998 214.979 39.5598C215.339 39.7198 215.619 39.9398 215.819 40.2198C216.019 40.4998 216.119 40.8298 216.119 41.2198C216.119 41.6098 215.999 41.9498 215.779 42.2398C215.549 42.5298 215.229 42.7398 214.819 42.8598C215.289 42.9898 215.649 43.1998 215.899 43.5198L215.909 43.5098ZM215.029 45.5598C215.329 45.3298 215.479 44.9998 215.479 44.5698C215.479 44.1798 215.319 43.8598 214.999 43.6298C214.679 43.3998 214.259 43.2498 213.739 43.1898C213.209 43.2398 212.789 43.3898 212.469 43.6298C212.149 43.8698 211.999 44.1798 211.999 44.5698C211.999 44.9998 212.149 45.3298 212.449 45.5598C212.749 45.7898 213.179 45.8998 213.739 45.8998C214.299 45.8998 214.729 45.7898 215.029 45.5598ZM212.589 42.1798C212.869 42.4198 213.259 42.5598 213.739 42.6198C214.219 42.5698 214.599 42.4198 214.879 42.1798C215.159 41.9398 215.299 41.6398 215.299 41.2598C215.299 40.8798 215.159 40.5598 214.879 40.3298C214.599 40.0998 214.219 39.9898 213.729 39.9898C213.239 39.9898 212.849 40.0998 212.569 40.3298C212.289 40.5598 212.149 40.8698 212.149 41.2598C212.149 41.6498 212.289 41.9498 212.569 42.1798H212.589Z" fill="#AA8420"/>
<path d="M217.89 45.6698C217.47 45.0498 217.26 44.1498 217.26 42.9598C217.26 41.7698 217.47 40.8598 217.89 40.2398C218.31 39.6198 218.93 39.3198 219.75 39.3198C220.57 39.3198 221.18 39.6298 221.6 40.2398C222.02 40.8598 222.24 41.7598 222.24 42.9498C222.24 44.1398 222.03 45.0498 221.6 45.6698C221.18 46.2898 220.56 46.5998 219.75 46.5998C218.94 46.5998 218.32 46.2898 217.89 45.6798V45.6698ZM221 45.1798C221.27 44.6998 221.41 43.9498 221.41 42.9398C221.41 41.9298 221.28 41.1898 221.01 40.7198C220.74 40.2498 220.32 40.0098 219.75 40.0098C219.18 40.0098 218.76 40.2498 218.5 40.7198C218.23 41.1898 218.09 41.9298 218.09 42.9398C218.09 43.9498 218.22 44.6898 218.5 45.1798C218.77 45.6598 219.19 45.8998 219.75 45.8998C220.31 45.8998 220.73 45.6598 221 45.1798Z" fill="#AA8420"/>
<path d="M229.819 41.6996C230.159 41.9196 230.419 42.2296 230.609 42.6296C230.799 43.0296 230.889 43.4796 230.889 44.0096C230.889 44.5396 230.799 44.9796 230.609 45.3696C230.419 45.7596 230.159 46.0596 229.819 46.2796C229.479 46.4896 229.089 46.5996 228.649 46.5996C228.259 46.5996 227.909 46.5096 227.619 46.3396C227.329 46.1696 227.099 45.9196 226.949 45.5996V48.6896H226.139V42.9096C226.139 42.3896 226.109 41.9196 226.059 41.4996H226.829L226.909 42.4696C227.049 42.1196 227.269 41.8496 227.579 41.6596C227.879 41.4696 228.239 41.3696 228.659 41.3696C229.099 41.3696 229.489 41.4796 229.829 41.6996H229.819ZM229.649 45.4196C229.919 45.0896 230.059 44.6096 230.059 43.9996C230.059 43.3896 229.919 42.9096 229.649 42.5596C229.379 42.2196 228.999 42.0496 228.509 42.0496C228.019 42.0496 227.629 42.2196 227.359 42.5496C227.089 42.8796 226.959 43.3596 226.959 43.9796C226.959 44.5996 227.089 45.0796 227.359 45.4096C227.629 45.7496 228.009 45.9196 228.509 45.9196C229.009 45.9196 229.389 45.7496 229.649 45.4196Z" fill="#AA8420"/>
<path d="M236.499 46.5197H235.529L233.939 44.5397L232.369 46.5197H231.379L233.469 43.9297L231.499 41.4897H232.479L233.939 43.3397L235.399 41.4897H236.389L234.429 43.9297L236.499 46.5197V46.5197Z" fill="#AA8420"/>
</svg>
