<svg width="270" height="32" viewBox="0 0 270 32" fill="none" xmlns="http://www.w3.org/2000/svg">
<path d="M68.0989 6.38988C68.2489 6.20988 68.299 5.87988 68.299 5.87988H59.459C59.459 5.87988 59.5689 6.24988 59.6589 6.38988H68.0989V6.38988Z" fill="#A68238"/>
<path d="M67.5901 7.1402C67.7501 6.9902 67.92 6.7002 67.92 6.7002H59.8301C59.8301 6.7002 59.9201 6.9202 60.1201 7.1402H67.5901Z" fill="#A68238"/>
<path d="M66.9504 7.82023C67.1504 7.71023 67.3204 7.49023 67.3204 7.49023H60.4004C60.4004 7.49023 60.5703 7.67023 60.7303 7.82023H66.9504V7.82023Z" fill="#A68238"/>
<path d="M66.1402 8.4602C66.3402 8.3802 66.5602 8.2002 66.5602 8.2002H61.1602C61.1602 8.2002 61.1602 8.2402 61.5402 8.4602H66.1302H66.1402Z" fill="#A68238"/>
<path d="M62.1699 8.85986C62.1699 8.85986 62.7399 9.18986 63.8499 9.18986C64.9599 9.18986 65.6799 8.85986 65.6799 8.85986H62.1699Z" fill="#A68238"/>
<path d="M62.0803 9.60986C62.0803 9.60986 62.7603 9.64986 63.1603 9.95986C63.5503 10.2899 63.8403 10.8399 63.8403 10.8399C63.8403 10.8399 64.0803 10.3099 64.4603 10.0399C64.8403 9.73986 65.4703 9.61986 65.4703 9.61986H72.4503L73.8203 11.6499H67.5603C67.5603 11.6499 67.1203 11.6699 66.4603 12.0599C66.1103 12.2599 65.8503 12.6099 65.8503 12.6099C65.8503 12.6099 65.8003 12.7699 65.7203 12.8599C65.6503 12.9499 65.5903 13.0299 65.5003 13.0599C65.4103 13.0999 65.4303 13.0799 65.4303 13.0799H62.1703C62.1703 13.0799 62.0403 13.0299 61.9703 12.9199C61.9003 12.8099 61.9503 12.8499 61.8803 12.7599C61.8203 12.6699 61.7003 12.4299 61.2003 12.0999C60.6903 11.7699 60.1903 11.7299 60.1903 11.7299H53.8203L55.2103 9.62986H62.0703L62.0803 9.60986Z" fill="#003873"/>
<path d="M57.1602 12.48V22.88C57.1602 22.88 57.2002 23.8 57.9702 25.04C58.7402 26.29 59.8602 26.85 59.8602 26.85L60.7402 25.48C60.7402 25.48 59.9702 25.02 59.3902 24.14C58.8202 23.26 58.8202 22.51 58.8202 22.51V12.48H57.1702H57.1602Z" fill="#003873"/>
<path d="M68.9501 12.4502V22.4802C68.9501 22.4802 68.8201 23.4902 68.3401 24.2002C67.8601 24.9302 67.0801 25.5202 67.0801 25.5202L67.92 26.8702C67.92 26.8702 69.2001 25.9402 69.8201 24.9502C70.4401 23.9602 70.5901 22.4802 70.5901 22.4802V12.4502H68.9401H68.9501Z" fill="#003873"/>
<path d="M54.5391 12.48V22.91C54.5391 22.91 54.6491 24.52 55.6491 26.21C56.6591 27.89 58.4891 29.07 58.4891 29.07L59.3491 27.7C59.3491 27.7 58.1791 27.08 57.2491 25.65C56.2891 24.2 56.2391 22.89 56.2391 22.89V12.48H54.5391Z" fill="#003873"/>
<path d="M62.0788 13.5801V24.6001C62.0788 24.6001 62.0388 24.6401 62.0288 24.8001C62.0088 24.9701 61.8988 25.0801 61.8988 25.0801L58.2188 31.1701H69.4988L65.8188 24.9401L65.7088 24.6701L65.6688 24.3801V13.6001H64.2988V24.7901C64.2988 24.7901 64.2988 24.9501 64.3488 25.0801C64.3788 25.2101 64.4588 25.4101 64.4588 25.4101L66.7288 29.1401H60.9788L63.2088 25.4301C63.2088 25.4301 63.2788 25.3001 63.3388 25.1201C63.3788 24.9501 63.3888 24.7901 63.3888 24.7901V13.5801H62.0688H62.0788Z" fill="#A68238"/>
<path d="M71.4902 12.4502V22.7002C71.4902 22.7002 71.4702 24.0202 70.5002 25.5402C69.5302 27.0602 68.4102 27.7002 68.4102 27.7002L69.2402 29.0902C69.2402 29.0902 70.9202 28.0202 71.9902 26.3402C73.0302 24.6602 73.1602 22.7002 73.1602 22.7002V12.4502H71.4902Z" fill="#003873"/>
<path d="M59.4088 5.58C59.4088 5.58 58.8488 2.49 61.1188 0.95C61.1188 0.95 62.1488 0 63.8088 0C65.5888 0 66.6088 0.93 66.6088 0.93C69.0788 2.74 68.3488 5.58 68.3488 5.58H59.4188H59.4088Z" fill="#A68238"/>
<path d="M79.8592 6.0498C80.2292 5.9298 80.4892 5.8298 80.6492 5.7598V9.7298H81.5092V9.3098H86.0592V9.7298H86.9192V5.7198C87.0392 5.7898 87.1792 5.8398 87.3292 5.8898C87.4792 5.9298 87.6092 5.9798 87.7392 6.0398L88.1492 5.1998C86.8192 4.9298 85.7992 4.4598 85.0992 3.7798H88.0792V3.0098H84.1792V2.2298C85.4192 2.1198 86.4692 1.9898 87.3092 1.8098L86.9092 1.0498C85.6492 1.3298 83.7792 1.4798 81.3192 1.4798C80.7992 1.4798 80.3692 1.4798 80.0192 1.4598L80.3292 2.3098C80.9292 2.3098 81.9292 2.2898 83.3192 2.2498V2.9998H79.5192V3.7698H82.3792C81.5492 4.4698 80.5692 4.9498 79.4492 5.2198L79.8892 6.0398L79.8592 6.0498ZM86.0592 8.5398H81.5092V7.7198H86.0592V8.5398ZM84.1592 3.7898C84.7392 4.5598 85.4992 5.1298 86.4492 5.4998H84.1592V3.7898ZM86.0592 6.27981V6.9798H81.5092V6.27981H86.0592ZM83.2892 3.7998V5.4998H81.1792C82.0492 5.1298 82.7492 4.5598 83.2892 3.7998V3.7998Z" fill="#003873"/>
<path d="M93.2794 4.56992C92.8094 4.20992 92.3494 3.90992 91.9094 3.66992L91.3594 4.35992C91.7194 4.59992 92.1494 4.92992 92.6494 5.35992L93.2794 4.55992V4.56992Z" fill="#003873"/>
<path d="M93.5591 2.32988V2.82988H94.7891V3.75988H93.3691V4.53988H94.8491C94.5791 5.11988 93.9291 5.63988 92.9091 6.10988L93.4391 6.88988C93.8491 6.62988 94.1391 6.43988 94.2891 6.30988V8.37988C94.2891 8.79988 94.3692 9.08988 94.5192 9.23988C94.6792 9.38988 94.9591 9.45988 95.3491 9.45988H98.3491C98.8191 9.45988 99.1391 9.37988 99.2991 9.20988C99.4691 9.03988 99.5992 8.51988 99.6992 7.66988L98.8091 7.33988C98.7691 7.82988 98.7191 8.16988 98.6691 8.36988C98.6191 8.55988 98.4692 8.65988 98.2092 8.65988H95.4592C95.2392 8.65988 95.1392 8.54988 95.1392 8.33988V7.74988H98.1191V5.84988C98.4891 6.17988 98.9592 6.51988 99.5292 6.85988L99.9291 6.03988C98.9291 5.54988 98.3091 5.04988 98.0591 4.54988H99.8292V3.76988H98.1591V2.81988H99.6891V2.08988H98.1591V1.12988H97.3192V2.08988H95.6292V1.12988H94.7891V2.08988H93.5591V2.20988C93.1991 1.92988 92.7491 1.62988 92.2291 1.28988L91.6191 1.96988C92.0291 2.22988 92.4891 2.58988 92.9991 3.04988L93.5692 2.34988L93.5591 2.32988ZM95.6392 2.83988H97.3192V3.74988H95.6392V2.83988ZM95.8392 4.51988H97.0892C97.2592 4.84988 97.4491 5.12988 97.6591 5.34988H95.2991C95.5291 5.10988 95.7091 4.82988 95.8491 4.51988H95.8392ZM95.1392 6.08988H97.2692V6.99988H95.1392V6.08988Z" fill="#003873"/>
<path d="M93.2283 6.86014L92.4283 6.39014C92.2283 7.27014 91.8584 8.09014 91.3184 8.86014L92.0583 9.62014C92.5883 8.78014 92.9783 7.86014 93.2283 6.86014V6.86014Z" fill="#003873"/>
<path d="M107.039 7.65977L110.139 7.18977V9.72976H110.999V7.07977L111.829 6.93977V6.08977L110.999 6.22977V1.00977H110.139V6.32977L107.039 6.79977V7.65977Z" fill="#003873"/>
<path d="M109.799 2.83996C109.069 2.30996 108.509 1.92996 108.109 1.70996L107.559 2.31996C107.989 2.57996 108.539 2.97996 109.229 3.52996L109.809 2.83996H109.799Z" fill="#003873"/>
<path d="M103.639 8.00006C104.239 7.21006 104.669 6.52006 104.899 5.93006V9.73006L105.749 9.69006V5.40006C105.919 5.62006 106.079 5.83006 106.239 6.02006C106.419 6.23006 106.609 6.46006 106.789 6.72006L107.309 5.92006C106.959 5.54006 106.439 5.02006 105.739 4.38006V4.30006H107.149V3.51006H105.739V2.20006C106.229 2.10006 106.689 1.97006 107.139 1.82006L106.829 1.06006C105.839 1.44006 104.649 1.66006 103.269 1.73006L103.459 2.51006C104.089 2.47006 104.569 2.42006 104.889 2.35006V3.51006H103.169V4.30006H104.859C104.469 5.33006 103.889 6.28006 103.109 7.16006L103.629 7.99006L103.639 8.00006Z" fill="#003873"/>
<path d="M109.629 5.07018C108.949 4.55018 108.379 4.17018 107.919 3.93018L107.369 4.55018C107.859 4.84018 108.419 5.25018 109.049 5.78018L109.619 5.07018H109.629Z" fill="#003873"/>
<path d="M123.219 9.69977L123.689 8.82977C122.909 8.61977 122.219 8.24977 121.599 7.74977C121.949 7.43977 122.289 7.01977 122.609 6.47977C122.939 5.93977 123.139 5.50977 123.219 5.17977V4.40977H121.349V3.16977H123.529V2.32977H121.349V1.00977H120.429V2.31977H118.439V2.90977H117.349V1.00977H116.439V2.90977H115.069V3.74977H116.439V5.60977C115.999 5.72977 115.509 5.81977 114.979 5.88977L115.199 6.88977C115.499 6.81977 115.919 6.70977 116.439 6.56977V8.45977C116.439 8.65977 116.339 8.76977 116.129 8.76977L115.329 8.73977L115.539 9.66977H116.269C116.729 9.66977 117.019 9.59977 117.149 9.44977C117.269 9.30977 117.339 9.01977 117.339 8.57977V6.30977C117.869 6.12977 118.229 5.98977 118.419 5.88977V4.97977C118.189 5.08977 117.829 5.22977 117.339 5.38977V3.74977H118.429V3.15977H120.429V4.39977H118.599V5.24977H122.279C122.009 6.02977 121.569 6.66977 120.939 7.16977C120.509 6.74977 120.089 6.15977 119.659 5.39977L118.889 5.70977C119.349 6.53977 119.809 7.19977 120.289 7.67977C119.399 8.27977 118.509 8.67977 117.619 8.86977L118.129 9.70977C119.019 9.52977 119.949 9.05977 120.929 8.30977C121.639 8.95977 122.409 9.41976 123.219 9.68976V9.69977Z" fill="#003873"/>
<path d="M126.819 8.82979L127.519 9.70979C129.589 8.33979 130.839 6.54979 131.249 4.31979H131.399C132.019 6.80979 133.159 8.59978 134.829 9.68979L135.539 8.83979C134.619 8.23979 133.899 7.51978 133.369 6.68979C132.849 5.85979 132.509 5.06979 132.369 4.31979H135.329V3.34979H131.409C131.459 2.85979 131.479 2.08979 131.479 1.02979H130.509C130.509 2.01979 130.469 2.78979 130.389 3.34979H127.039V4.32979H130.229C130.079 5.19979 129.699 6.03979 129.069 6.85979C128.439 7.67979 127.689 8.32979 126.809 8.82979H126.819Z" fill="#003873"/>
<path d="M141.629 2.26L142.099 2.88C142.509 2.7 142.869 2.51 143.179 2.31C143.249 2.31 143.409 2.49 143.649 2.84L144.209 2.42C144.009 2.2 143.839 2.04 143.719 1.93C143.949 1.78 144.129 1.62 144.269 1.43L143.809 1.01C143.699 1.17 143.509 1.33 143.239 1.51C142.989 1.33 142.749 1.16 142.509 1L142.009 1.43C142.269 1.6 142.479 1.74 142.639 1.86C142.479 1.97 142.139 2.1 141.619 2.24L141.629 2.26Z" fill="#003873"/>
<path d="M143.94 2.83984C143.7 3.10984 143.49 3.29984 143.3 3.40984C143.16 3.29984 143.03 3.19984 142.91 3.11984C142.81 3.06984 142.7 2.99984 142.58 2.91984L142.1 3.32984C142.39 3.52984 142.6 3.67984 142.72 3.76984C142.5 3.89984 142.18 4.00984 141.76 4.09984L142.16 4.71984C142.6 4.56984 142.96 4.39984 143.24 4.19984C143.28 4.19984 143.45 4.37984 143.73 4.74984L144.32 4.29984C144.15 4.12984 143.97 3.95984 143.79 3.80984C143.98 3.66984 144.19 3.47984 144.42 3.25984L143.93 2.83984H143.94Z" fill="#003873"/>
<path d="M139.699 5.6501H146.389V7.0101H147.219V4.9201H146.729L146.829 1.2601H144.539V1.9901H146.009V2.5001H144.639V3.1301H145.979L145.959 3.6601H144.639V4.3001H145.939V4.9201H140.129L140.109 4.3001H141.499V3.6601H140.089V3.1301H141.499V2.5001H140.049L140.019 2.0301C140.769 1.9801 141.319 1.9001 141.669 1.7801L141.259 1.1001C140.699 1.2501 140.029 1.3401 139.219 1.3701L139.319 4.9201H138.859V7.0101H139.679V5.6501H139.699Z" fill="#003873"/>
<path d="M142.7 8.6598C142.7 8.8398 142.61 8.9398 142.42 8.9398L141.15 8.8998L141.36 9.6498H142.72C143.28 9.6498 143.56 9.3198 143.56 8.6598V8.2798H147.4V7.5298H143.56C144.36 7.2798 145.02 7.0098 145.57 6.7298V6.0498H140.41V6.7298H144.31C143.66 6.9198 143.12 7.0598 142.69 7.1298V7.5298H138.67V8.2798H142.69V8.6598H142.7Z" fill="#003873"/>
<path d="M81.2997 20.1401H82.1497V14.1101H83.7597V13.3301H79.6797V14.1101H81.2997V20.1401Z" fill="#003873"/>
<path d="M85.2992 16.8698H88.5392V20.1398H89.3792V13.3398H88.5392V16.0798H85.2992V13.3398H84.4492V20.1398H85.2992V16.8698Z" fill="#003873"/>
<path d="M94.3592 19.3598H91.5492V16.7898H94.2692V16.0198H91.5492V14.1098H94.3592V13.3398H90.6992V20.1398H94.3592V19.3598Z" fill="#003873"/>
<path d="M98.9691 16.8698H102.209V20.1398H103.049V13.3398H102.209V16.0798H98.9691V13.3398H98.1191V20.1398H98.9691V16.8698Z" fill="#003873"/>
<path d="M107.459 13.1899C105.509 13.1899 103.889 14.7899 103.889 16.7399C103.889 18.6899 105.489 20.2899 107.459 20.2899C109.429 20.2899 111.019 18.7599 111.019 16.7399C111.019 14.7199 109.399 13.1899 107.459 13.1899V13.1899ZM107.459 19.4899C105.989 19.4899 104.739 18.2899 104.739 16.7399C104.739 15.1899 105.859 13.9899 107.459 13.9899C109.059 13.9899 110.179 15.2499 110.179 16.7399C110.179 18.2299 108.939 19.4899 107.459 19.4899Z" fill="#003873"/>
<path d="M116.96 18.3598L111.85 13.0098V20.1398H112.7V15.0698L117.81 20.4198V13.3398H116.96V18.3598Z" fill="#003873"/>
<path d="M122.61 17.4899H124.37C124.33 18.5999 123.2 19.5099 122.14 19.5099C120.67 19.5099 119.5 18.1599 119.5 16.7299C119.5 15.1999 120.69 13.9699 122.22 13.9699C123.05 13.9699 123.87 14.4099 124.36 15.0799L124.96 14.5099C124.29 13.6699 123.25 13.1899 122.19 13.1899C120.23 13.1899 118.66 14.7999 118.66 16.7599C118.66 18.7199 120.2 20.2899 122.1 20.2899C124 20.2899 125.32 18.8599 125.32 16.9899V16.7199H122.62V17.4999L122.61 17.4899Z" fill="#003873"/>
<path d="M128.93 13.3398V20.1398H129.78V17.2998L130.12 16.9698L132.69 20.1398H133.83L130.72 16.3898L133.78 13.3398H132.67L129.78 16.2898V13.3398H128.93Z" fill="#003873"/>
<path d="M137.519 13.1899C135.569 13.1899 133.949 14.7899 133.949 16.7399C133.949 18.6899 135.549 20.2899 137.519 20.2899C139.489 20.2899 141.079 18.7599 141.079 16.7399C141.079 14.7199 139.469 13.1899 137.519 13.1899V13.1899ZM137.519 19.4899C136.049 19.4899 134.799 18.2899 134.799 16.7399C134.799 15.1899 135.919 13.9899 137.519 13.9899C139.119 13.9899 140.239 15.2499 140.239 16.7399C140.239 18.2299 138.999 19.4899 137.519 19.4899Z" fill="#003873"/>
<path d="M147.02 18.3598L141.92 13.0098V20.1398H142.76V15.0698L147.87 20.4198V13.3398H147.02V18.3598Z" fill="#003873"/>
<path d="M152.669 17.4899H154.429C154.389 18.5999 153.259 19.5099 152.199 19.5099C150.729 19.5099 149.559 18.1599 149.559 16.7299C149.559 15.1999 150.749 13.9699 152.269 13.9699C153.099 13.9699 153.919 14.4099 154.409 15.0799L155.009 14.5099C154.339 13.6699 153.289 13.1899 152.239 13.1899C150.279 13.1899 148.709 14.7999 148.709 16.7599C148.709 18.7199 150.239 20.2899 152.149 20.2899C154.059 20.2899 155.369 18.8599 155.369 16.9899V16.7199H152.669V17.4999V17.4899Z" fill="#003873"/>
<path d="M163.859 17.6398V13.3398H163.009V17.3598C163.009 18.4698 162.679 19.4998 161.369 19.4998C160.059 19.4998 159.729 18.4698 159.729 17.3598V13.3398H158.879V17.6398C158.879 19.1398 159.809 20.2798 161.369 20.2798C162.929 20.2798 163.859 19.1298 163.859 17.6398Z" fill="#003873"/>
<path d="M165.889 15.0698L170.999 20.4198V13.3398H170.149V18.3598L165.039 13.0098V20.1398H165.889V15.0698Z" fill="#003873"/>
<path d="M173.12 13.3301H172.27V20.1301H173.12V13.3301Z" fill="#003873"/>
<path d="M178.75 13.3398L176.729 18.3698L174.7 13.3398H173.77L176.729 20.4998L179.68 13.3398H178.75Z" fill="#003873"/>
<path d="M184 19.3598H181.19V16.7898H183.92V16.0198H181.19V14.1098H184V13.3398H180.34V20.1398H184V19.3598Z" fill="#003873"/>
<path d="M185.989 17.2598H186.339L188.339 20.1398H189.369L187.219 17.1798C188.199 17.0598 188.849 16.2498 188.849 15.2798C188.849 14.6298 188.519 13.9898 187.959 13.6598C187.419 13.3498 186.769 13.3398 186.159 13.3398H185.129V20.1398H185.979V17.2598H185.989ZM185.989 14.0898H186.219C187.059 14.0898 188.069 14.2398 188.069 15.3098C188.069 16.3798 187.129 16.5498 186.259 16.5498H185.989V14.0898V14.0898Z" fill="#003873"/>
<path d="M191.94 19.4902C191.21 19.4902 190.61 18.9502 190.62 18.2002L189.76 18.3802C189.9 19.4702 190.76 20.2802 191.86 20.2802C193.08 20.2802 194.04 19.3902 194.04 18.1602C194.04 17.0202 193.32 16.4902 192.35 16.1102L191.86 15.9202C191.44 15.7602 190.91 15.4802 190.91 14.9402C190.91 14.3502 191.51 13.9802 192.05 13.9802C192.59 13.9802 192.89 14.2002 193.14 14.6202L193.82 14.2102C193.45 13.5502 192.83 13.1802 192.07 13.1802C191.04 13.1802 190.07 13.8402 190.07 14.9402C190.07 15.8902 190.77 16.3302 191.55 16.6702L192.02 16.8702C192.61 17.1102 193.19 17.4302 193.19 18.1602C193.19 18.8902 192.66 19.4902 191.93 19.4902H191.94Z" fill="#003873"/>
<path d="M195.879 13.3301H195.029V20.1301H195.879V13.3301Z" fill="#003873"/>
<path d="M196.609 14.1101H198.229V20.1401H199.079V14.1101H200.689V13.3301H196.609V14.1101Z" fill="#003873"/>
<path d="M203.39 16.2398L201.72 13.3398H200.75L202.97 17.1798V20.1398H203.81V17.1798L206.03 13.3398H205.06L203.39 16.2398Z" fill="#003873"/>
<path d="M212.49 13.1899C210.54 13.1899 208.93 14.7899 208.93 16.7399C208.93 18.6899 210.53 20.2899 212.49 20.2899C214.45 20.2899 216.05 18.7599 216.05 16.7399C216.05 14.7199 214.44 13.1899 212.49 13.1899V13.1899ZM212.49 19.4899C211.02 19.4899 209.77 18.2899 209.77 16.7399C209.77 15.1899 210.89 13.9899 212.49 13.9899C214.09 13.9899 215.21 15.2499 215.21 16.7399C215.21 18.2299 213.96 19.4899 212.49 19.4899Z" fill="#003873"/>
<path d="M220.249 14.1098V13.3398H216.959V20.1398H217.809V16.7998H220.169V16.0198H217.809V14.1098H220.249Z" fill="#003873"/>
<path d="M82.5392 26.9398L82.0492 26.7498C81.6292 26.5898 81.0992 26.3098 81.0992 25.7698C81.0992 25.1798 81.6992 24.8098 82.2392 24.8098C82.7792 24.8098 83.0792 25.0298 83.3292 25.4498L84.0092 25.0398C83.6392 24.3798 83.0192 24.0098 82.2592 24.0098C81.2292 24.0098 80.2592 24.6698 80.2592 25.7698C80.2592 26.7198 80.9692 27.1598 81.7392 27.4998L82.2092 27.6998C82.7992 27.9398 83.3792 28.2598 83.3792 28.9898C83.3792 29.7198 82.8592 30.3198 82.1292 30.3198C81.3992 30.3198 80.7992 29.7798 80.8092 29.0298L79.9492 29.2098C80.0892 30.2998 80.9492 31.1098 82.0492 31.1098C83.2692 31.1098 84.2192 30.2298 84.2192 28.9898C84.2192 27.8498 83.4992 27.3198 82.5292 26.9398H82.5392Z" fill="#003873"/>
<path d="M84.8691 27.6C84.8691 29.57 86.4791 31.11 88.4191 31.11C89.0091 31.11 89.6792 30.94 90.2092 30.63V29.63C89.7092 30.08 89.0592 30.33 88.3992 30.33C86.8792 30.33 85.7291 29.06 85.7291 27.57C85.7291 26.08 86.8891 24.79 88.4191 24.79C89.0591 24.79 89.7292 25.03 90.2092 25.46V24.48C89.6992 24.16 89.0891 24.02 88.4991 24.02C86.4991 24.02 84.8792 25.59 84.8792 27.6H84.8691Z" fill="#003873"/>
<path d="M92.1293 24.1602H91.2793V30.9602H92.1293V24.1602Z" fill="#003873"/>
<path d="M93.4883 30.9602H97.1383V30.1902H94.3383V27.6202H97.0583V26.8402H94.3383V24.9402H97.1383V24.1602H93.4883V30.9602Z" fill="#003873"/>
<path d="M103.309 29.1898L98.1992 23.8398V30.9598H99.0492V25.8898L104.149 31.2398V24.1598H103.309V29.1898Z" fill="#003873"/>
<path d="M105.08 27.6C105.08 29.57 106.69 31.11 108.62 31.11C109.22 31.11 109.88 30.94 110.41 30.63V29.63C109.9 30.08 109.26 30.33 108.6 30.33C107.08 30.33 105.93 29.06 105.93 27.57C105.93 26.08 107.09 24.79 108.62 24.79C109.26 24.79 109.93 25.03 110.41 25.46V24.48C109.89 24.16 109.29 24.02 108.7 24.02C106.7 24.02 105.08 25.59 105.08 27.6Z" fill="#003873"/>
<path d="M111.51 30.9602H115.16V30.1902H112.36V27.6202H115.08V26.8402H112.36V24.9402H115.16V24.1602H111.51V30.9602Z" fill="#003873"/>
<path d="M118.279 30.9601H119.189L119.969 29.2501H123.089L123.869 30.9601H124.779L121.529 23.8701L118.279 30.9601V30.9601ZM120.319 28.4801L121.529 25.7301L122.739 28.4801H120.319V28.4801Z" fill="#003873"/>
<path d="M130.46 29.1898L125.35 23.8398V30.9598H126.2V25.8898L131.31 31.2398V24.1598H130.46V29.1898Z" fill="#003873"/>
<path d="M133.939 24.1599H132.529V30.9599H133.909C136.059 30.9599 137.749 29.8399 137.749 27.5199C137.749 25.1999 136.019 24.1499 133.929 24.1499L133.939 24.1599ZM133.679 30.1899H133.379V24.9399H133.679C135.409 24.9399 136.909 25.5799 136.909 27.5699C136.909 29.5599 135.409 30.1999 133.679 30.1999V30.1899Z" fill="#003873"/>
<path d="M140.76 24.9402H142.38V30.9602H143.22V24.9402H144.84V24.1602H140.76V24.9402Z" fill="#003873"/>
<path d="M145.6 30.9602H149.25V30.1902H146.44V27.6202H149.17V26.8402H146.44V24.9402H149.25V24.1602H145.6V30.9602Z" fill="#003873"/>
<path d="M150.01 27.6C150.01 29.57 151.61 31.11 153.56 31.11C154.16 31.11 154.82 30.94 155.35 30.63V29.63C154.84 30.08 154.2 30.33 153.53 30.33C152.01 30.33 150.86 29.06 150.86 27.57C150.86 26.08 152.03 24.79 153.55 24.79C154.19 24.79 154.86 25.03 155.35 25.46V24.48C154.84 24.16 154.23 24.02 153.64 24.02C151.64 24.02 150.02 25.59 150.02 27.6H150.01Z" fill="#003873"/>
<path d="M160.459 26.9002H157.219V24.1602H156.369V30.9602H157.219V27.7002H160.459V30.9602H161.309V24.1602H160.459V26.9002Z" fill="#003873"/>
<path d="M167.649 29.1898L162.539 23.8398V30.9598H163.389V25.8898L168.499 31.2398V24.1598H167.649V29.1898Z" fill="#003873"/>
<path d="M172.879 24.02C170.929 24.02 169.309 25.62 169.309 27.57C169.309 29.52 170.909 31.12 172.879 31.12C174.849 31.12 176.439 29.59 176.439 27.57C176.439 25.55 174.829 24.02 172.879 24.02ZM172.879 30.32C171.409 30.32 170.159 29.12 170.159 27.57C170.159 26.02 171.279 24.82 172.879 24.82C174.479 24.82 175.599 26.07 175.599 27.57C175.599 29.07 174.349 30.32 172.879 30.32Z" fill="#003873"/>
<path d="M178.209 24.1602H177.359V30.9602H180.269V30.1902H178.209V24.1602Z" fill="#003873"/>
<path d="M184.009 24.02C182.059 24.02 180.439 25.62 180.439 27.57C180.439 29.52 182.039 31.12 184.009 31.12C185.979 31.12 187.569 29.59 187.569 27.57C187.569 25.55 185.949 24.02 184.009 24.02ZM184.009 30.32C182.539 30.32 181.289 29.12 181.289 27.57C181.289 26.02 182.409 24.82 184.009 24.82C185.609 24.82 186.729 26.07 186.729 27.57C186.729 29.07 185.479 30.32 184.009 30.32Z" fill="#003873"/>
<path d="M191.989 28.3098H193.749C193.709 29.4198 192.579 30.3298 191.519 30.3298C190.049 30.3298 188.869 28.9798 188.869 27.5498C188.869 26.0198 190.059 24.7898 191.589 24.7898C192.419 24.7898 193.239 25.2298 193.729 25.8998L194.329 25.3298C193.659 24.4898 192.609 24.0098 191.559 24.0098C189.599 24.0098 188.029 25.6198 188.029 27.5798C188.029 29.5398 189.559 31.1098 191.469 31.1098C193.379 31.1098 194.689 29.6798 194.689 27.8098V27.5398H191.989V28.3098V28.3098Z" fill="#003873"/>
<path d="M197.55 27.0702L195.88 24.1602H194.91L197.13 28.0002V30.9602H197.98V28.0002L200.2 24.1602H199.22L197.55 27.0702Z" fill="#003873"/>
<path d="M42.8495 31.24H35.5195V0H42.8495V0.25H35.7695V30.99H42.8495V31.24Z" fill="#231815"/>
<path d="M233.759 31.24H226.439V30.99H233.509V0.25H226.439V0H233.759V31.24Z" fill="#231815"/>
<path d="M0.449463 8.14014H3.00946C3.66946 8.14014 4.17944 8.30014 4.54944 8.62014C4.91944 8.94014 5.09946 9.38014 5.09946 9.93014C5.09946 10.4801 4.90946 10.9301 4.53946 11.2501C4.16946 11.5701 3.64945 11.7301 2.99945 11.7301H1.17944V14.5501H0.439453V8.14014H0.449463ZM2.93945 11.1201C3.40945 11.1201 3.76946 11.0201 4.00946 10.8101C4.24946 10.6101 4.36945 10.3101 4.36945 9.93014C4.36945 9.55014 4.24946 9.25014 4.00946 9.05014C3.76946 8.85014 3.40945 8.75014 2.93945 8.75014H1.17944V11.1201H2.93945V11.1201Z" fill="#231815"/>
<path d="M11.3403 14.5499H10.5603L9.77029 12.4199C9.67029 12.1599 9.5403 11.9799 9.3703 11.8899C9.2003 11.7999 8.9603 11.7599 8.6503 11.7599H7.05029V14.5599H6.32031V8.1499H8.8703C9.5603 8.1499 10.0903 8.2999 10.4603 8.6099C10.8303 8.9199 11.0103 9.3599 11.0103 9.9299C11.0103 10.3499 10.9003 10.6999 10.6803 10.9899C10.4603 11.2799 10.1403 11.4799 9.73032 11.5999C9.92032 11.6299 10.0703 11.7099 10.2103 11.8399C10.3403 11.9699 10.4503 12.1499 10.5403 12.3899L11.3503 14.5599L11.3403 14.5499ZM8.79031 11.1399C9.77031 11.1399 10.2703 10.7399 10.2703 9.9299C10.2703 9.5299 10.1503 9.2399 9.91031 9.0399C9.67031 8.8499 9.30031 8.7499 8.79031 8.7499H7.04031V11.1299H8.79031V11.1399Z" fill="#231815"/>
<path d="M12.5488 8.14014H13.2888V14.5501H12.5488V8.14014Z" fill="#231815"/>
<path d="M20.0092 8.14014V14.5501H19.4291L15.5591 9.39014V14.5501H14.8691V8.14014H15.4391L19.3091 13.3001V8.14014H20.0092Z" fill="#231815"/>
<path d="M23.1304 8.77014H20.9004V8.14014H26.1104V8.77014H23.8804V14.5501H23.1304V8.77014V8.77014Z" fill="#231815"/>
<path d="M26.4297 13.8101L26.7097 13.2401C27.0297 13.5101 27.3497 13.7001 27.6797 13.8201C28.0097 13.9301 28.3897 13.9901 28.8297 13.9901C29.3497 13.9901 29.7397 13.8901 30.0197 13.6901C30.2997 13.4901 30.4397 13.2101 30.4397 12.8401C30.4397 12.6201 30.3697 12.4501 30.2397 12.3101C30.0997 12.1801 29.9297 12.0701 29.7097 11.9901C29.4897 11.9101 29.1997 11.8301 28.8297 11.7501C28.3397 11.6401 27.9297 11.5201 27.6197 11.4001C27.2997 11.2701 27.0397 11.0901 26.8497 10.8601C26.6497 10.6201 26.5497 10.3101 26.5497 9.93008C26.5497 9.55008 26.6497 9.24008 26.8397 8.96008C27.0297 8.68008 27.2997 8.46008 27.6497 8.31008C27.9997 8.16008 28.4097 8.08008 28.8797 8.08008C29.3497 8.08008 29.7397 8.15008 30.1197 8.29008C30.4997 8.43008 30.8297 8.63008 31.0897 8.89008L30.7997 9.46008C30.4997 9.20008 30.1997 9.01008 29.8897 8.89008C29.5797 8.77008 29.2397 8.71008 28.8797 8.71008C28.3797 8.71008 27.9897 8.82008 27.7097 9.03008C27.4297 9.24008 27.2897 9.53008 27.2897 9.91008C27.2897 10.2301 27.4097 10.4801 27.6597 10.6401C27.9097 10.8001 28.2797 10.9401 28.7897 11.0601C29.3397 11.1901 29.7797 11.3101 30.0897 11.4201C30.3997 11.5301 30.6697 11.7001 30.8797 11.9201C31.0897 12.1501 31.1897 12.4401 31.1897 12.8201C31.1897 13.2001 31.0897 13.5001 30.8997 13.7701C30.7097 14.0401 30.4297 14.2501 30.0797 14.4001C29.7197 14.5501 29.2997 14.6301 28.8197 14.6301C27.8197 14.6301 27.0197 14.3601 26.4297 13.8201V13.8101Z" fill="#231815"/>
<path d="M10.5794 23.5401C10.8394 23.8501 10.9594 24.2201 10.9594 24.6601C10.9594 25.2701 10.7294 25.7401 10.2694 26.0901C9.80938 26.4401 9.18939 26.6201 8.40939 26.6201C7.62939 26.6201 7.00938 26.4401 6.54938 26.0901C6.08938 25.7401 5.85938 25.2601 5.85938 24.6601C5.85938 24.2301 5.9894 23.8501 6.2594 23.5401C6.5194 23.2301 6.87939 23.0101 7.33939 22.8901C6.90939 22.7601 6.58938 22.5601 6.35938 22.2701C6.12937 21.9801 6.01938 21.6401 6.01938 21.2501C6.01938 20.8601 6.1194 20.5401 6.3194 20.2501C6.5194 19.9701 6.79939 19.7501 7.15939 19.5901C7.51939 19.4301 7.93939 19.3501 8.40939 19.3501C8.87939 19.3501 9.28939 19.4301 9.65939 19.5901C10.0194 19.7501 10.3094 19.9701 10.4994 20.2501C10.6994 20.5301 10.7994 20.8601 10.7994 21.2501C10.7994 21.6401 10.6794 21.9801 10.4494 22.2701C10.2194 22.5601 9.89938 22.7701 9.48938 22.8901C9.95938 23.0201 10.3194 23.2301 10.5694 23.5501L10.5794 23.5401ZM9.6994 25.5901C9.9994 25.3601 10.1494 25.0301 10.1494 24.6001C10.1494 24.2101 9.9894 23.8901 9.6694 23.6601C9.3494 23.4201 8.92938 23.2801 8.39938 23.2201C7.86938 23.2701 7.44939 23.4201 7.12939 23.6601C6.80939 23.9001 6.64938 24.2101 6.64938 24.6001C6.64938 25.0301 6.7994 25.3601 7.0994 25.5901C7.3994 25.8201 7.8294 25.9301 8.3894 25.9301C8.9494 25.9301 9.37938 25.8201 9.67938 25.5901H9.6994ZM7.2594 22.2101C7.5394 22.4501 7.92939 22.5901 8.40939 22.6501C8.88939 22.6001 9.26939 22.4501 9.55939 22.2101C9.83939 21.9701 9.9794 21.6701 9.9794 21.2901C9.9794 20.9101 9.83939 20.5901 9.55939 20.3601C9.27939 20.1301 8.89939 20.0201 8.40939 20.0201C7.91939 20.0201 7.5294 20.1301 7.2594 20.3601C6.9794 20.5901 6.83939 20.9001 6.83939 21.2901C6.83939 21.6801 6.9794 21.9801 7.2594 22.2101Z" fill="#AA8420"/>
<path d="M22.0585 23.3899V26.5499H21.2485V23.4299C21.2485 22.9599 21.1685 22.6099 20.9985 22.3999C20.8385 22.1899 20.5685 22.0799 20.2085 22.0799C19.7785 22.0799 19.4485 22.2199 19.2085 22.5099C18.9685 22.7999 18.8485 23.1899 18.8485 23.6799V26.5499H18.0385V23.4299C18.0385 22.9599 17.9585 22.6199 17.7885 22.4099C17.6185 22.1899 17.3585 22.0799 16.9885 22.0799C16.5585 22.0799 16.2285 22.2199 15.9885 22.5099C15.7485 22.7999 15.6185 23.1899 15.6185 23.6799V26.5499H14.8085V22.9299C14.8085 22.4099 14.7785 21.9399 14.7285 21.5199H15.4985L15.5785 22.3999C15.7185 22.0799 15.9285 21.8299 16.1985 21.6599C16.4785 21.4899 16.7985 21.3999 17.1685 21.3999C17.5685 21.3999 17.8985 21.4799 18.1485 21.6399C18.3985 21.7999 18.5885 22.0499 18.7085 22.3799C18.8585 22.0799 19.0885 21.8399 19.3785 21.6699C19.6785 21.4899 20.0085 21.3999 20.3785 21.3999C21.4885 21.3999 22.0485 22.0599 22.0485 23.3899H22.0585Z" fill="#AA8420"/>
<path d="M30.8495 23.3899V26.5499H30.0396V23.4299C30.0396 22.9599 29.9596 22.6099 29.7896 22.3999C29.6296 22.1899 29.3595 22.0799 28.9995 22.0799C28.5695 22.0799 28.2395 22.2199 27.9995 22.5099C27.7595 22.7999 27.6396 23.1899 27.6396 23.6799V26.5499H26.8295V23.4299C26.8295 22.9599 26.7495 22.6199 26.5795 22.4099C26.4095 22.1899 26.1495 22.0799 25.7795 22.0799C25.3495 22.0799 25.0195 22.2199 24.7795 22.5099C24.5395 22.7999 24.4095 23.1899 24.4095 23.6799V26.5499H23.5995V22.9299C23.5995 22.4099 23.5695 21.9399 23.5195 21.5199H24.2896L24.3695 22.3999C24.5095 22.0799 24.7195 21.8299 24.9895 21.6599C25.2695 21.4899 25.5895 21.3999 25.9595 21.3999C26.3595 21.3999 26.6895 21.4799 26.9395 21.6399C27.1895 21.7999 27.3795 22.0499 27.4995 22.3799C27.6495 22.0799 27.8796 21.8399 28.1696 21.6699C28.4696 21.4899 28.7996 21.3999 29.1696 21.3999C30.2796 21.3999 30.8395 22.0599 30.8395 23.3899H30.8495Z" fill="#AA8420"/>
<path d="M239.479 12.8001C239.039 12.5401 238.699 12.1601 238.469 11.6601C238.229 11.1701 238.109 10.5801 238.109 9.92014C238.109 9.26014 238.229 8.67014 238.459 8.17014C238.689 7.68014 239.029 7.30014 239.469 7.04014C239.909 6.78014 240.429 6.64014 241.029 6.64014C241.629 6.64014 242.149 6.77014 242.589 7.04014C243.029 7.30014 243.359 7.68014 243.599 8.17014C243.829 8.66014 243.949 9.24014 243.949 9.91014C243.949 10.5801 243.829 11.1601 243.589 11.6601C243.349 12.1601 243.019 12.5301 242.579 12.8001C242.139 13.0701 241.629 13.2001 241.029 13.2001C240.429 13.2001 239.919 13.0701 239.479 12.8001ZM242.609 11.8701C242.989 11.4101 243.179 10.7501 243.179 9.91014C243.179 9.07014 242.989 8.41014 242.619 7.96014C242.249 7.51014 241.719 7.28014 241.029 7.28014C240.339 7.28014 239.819 7.51014 239.439 7.97014C239.059 8.43014 238.869 9.08014 238.869 9.92014C238.869 10.7601 239.059 11.4201 239.439 11.8801C239.819 12.3401 240.349 12.5701 241.029 12.5701C241.709 12.5701 242.239 12.3401 242.609 11.8801V11.8701Z" fill="#231815"/>
<path d="M250.439 6.70996V13.12H249.859L245.989 7.95996V13.12H245.299V6.70996H245.869L249.739 11.87V6.70996H250.439Z" fill="#231815"/>
<path d="M252.01 6.70996H252.75V12.49H255.96V13.12H252.01V6.70996Z" fill="#231815"/>
<path d="M256.92 6.70996H257.66V13.12H256.92V6.70996Z" fill="#231815"/>
<path d="M264.38 6.70996V13.12H263.8L259.93 7.95996V13.12H259.24V6.70996H259.81L263.68 11.87V6.70996H264.38Z" fill="#231815"/>
<path d="M265.949 6.70996H269.999V7.31996H266.679V9.54996H269.819V10.17H266.679V12.5H269.999V13.11H265.949V6.70996Z" fill="#231815"/>
<path d="M243.229 23.57H242.149V25.12H241.329V23.57H238.049V22.95L241.479 18H242.149V22.89H243.229V23.57V23.57ZM241.329 22.89V19.39L238.899 22.89H241.329Z" fill="#AA8420"/>
<path d="M244.698 24.2802C244.278 23.6602 244.068 22.7602 244.068 21.5702C244.068 20.3802 244.278 19.4702 244.698 18.8502C245.118 18.2302 245.738 17.9302 246.558 17.9302C247.378 17.9302 247.988 18.2402 248.408 18.8502C248.828 19.4702 249.048 20.3702 249.048 21.5602C249.048 22.7502 248.838 23.6602 248.408 24.2802C247.988 24.9002 247.368 25.2102 246.558 25.2102C245.748 25.2102 245.128 24.9002 244.698 24.2902V24.2802ZM247.808 23.7902C248.078 23.3102 248.218 22.5602 248.218 21.5502C248.218 20.5402 248.088 19.8002 247.818 19.3302C247.548 18.8602 247.128 18.6202 246.558 18.6202C245.988 18.6202 245.568 18.8602 245.308 19.3302C245.038 19.8002 244.898 20.5402 244.898 21.5502C244.898 22.5602 245.028 23.3002 245.308 23.7902C245.578 24.2702 245.998 24.5102 246.558 24.5102C247.118 24.5102 247.538 24.2702 247.808 23.7902V23.7902Z" fill="#AA8420"/>
<path d="M256.629 20.3002C256.969 20.5202 257.229 20.8302 257.419 21.2302C257.609 21.6302 257.699 22.0802 257.699 22.6102C257.699 23.1402 257.609 23.5802 257.419 23.9702C257.229 24.3602 256.969 24.6602 256.629 24.8802C256.289 25.0902 255.899 25.2002 255.459 25.2002C255.069 25.2002 254.719 25.1102 254.429 24.9402C254.139 24.7702 253.909 24.5202 253.759 24.2002V27.2902H252.949V21.5102C252.949 20.9902 252.919 20.5202 252.869 20.1002H253.639L253.719 21.0702C253.859 20.7202 254.079 20.4502 254.389 20.2602C254.689 20.0702 255.049 19.9702 255.469 19.9702C255.909 19.9702 256.299 20.0802 256.639 20.3002H256.629ZM256.459 24.0202C256.729 23.6902 256.869 23.2102 256.869 22.6002C256.869 21.9902 256.729 21.5102 256.459 21.1602C256.189 20.8202 255.809 20.6502 255.319 20.6502C254.829 20.6502 254.439 20.8202 254.169 21.1502C253.899 21.4802 253.769 21.9602 253.769 22.5802C253.769 23.2002 253.899 23.6802 254.169 24.0102C254.439 24.3502 254.819 24.5202 255.319 24.5202C255.819 24.5202 256.199 24.3502 256.459 24.0202Z" fill="#AA8420"/>
<path d="M263.309 25.1203H262.339L260.749 23.1403L259.179 25.1203H258.189L260.279 22.5303L258.309 20.0903H259.289L260.749 21.9403L262.209 20.0903H263.199L261.239 22.5303L263.309 25.1203Z" fill="#AA8420"/>
</svg>
