<svg width="417" height="32" viewBox="0 0 417 32" fill="none" xmlns="http://www.w3.org/2000/svg">
<path d="M67.4688 6.83008C67.6088 6.65008 67.6588 6.33008 67.6588 6.33008H59.0488C59.0488 6.33008 59.1588 6.69008 59.2488 6.83008H67.4688V6.83008Z" fill="#A68238"/>
<path d="M66.9702 7.55988C67.1302 7.41988 67.2902 7.12988 67.2902 7.12988H59.4102C59.4102 7.12988 59.5002 7.34988 59.7002 7.55988H66.9802H66.9702Z" fill="#A68238"/>
<path d="M66.3488 8.21991C66.5388 8.10991 66.7088 7.8999 66.7088 7.8999H59.9688C59.9688 7.8999 60.1288 8.07991 60.2888 8.21991H66.3488Z" fill="#A68238"/>
<path d="M65.559 8.83984C65.749 8.76984 65.9689 8.58984 65.9689 8.58984H60.709C60.709 8.58984 60.709 8.62984 61.079 8.83984H65.549H65.559Z" fill="#A68238"/>
<path d="M61.6897 9.22998C61.6897 9.22998 62.2397 9.54999 63.3297 9.54999C64.4197 9.54999 65.1097 9.22998 65.1097 9.22998H61.6797H61.6897Z" fill="#A68238"/>
<path d="M61.5986 9.95996C61.5986 9.95996 62.2586 9.99996 62.6486 10.3C63.0286 10.62 63.3086 11.16 63.3086 11.16C63.3086 11.16 63.5386 10.65 63.9186 10.38C64.2986 10.09 64.8986 9.96996 64.8986 9.96996H71.6886L73.0286 11.95H66.9286C66.9286 11.95 66.4986 11.97 65.8586 12.34C65.5186 12.53 65.2686 12.8699 65.2686 12.8699C65.2686 12.8699 65.2186 13.0299 65.1486 13.1199C65.0786 13.2099 65.0286 13.28 64.9386 13.32C64.8486 13.36 64.8686 13.33 64.8686 13.33H61.6886C61.6886 13.33 61.5586 13.28 61.4886 13.17C61.4186 13.07 61.4686 13.0999 61.3986 13.0099C61.3386 12.9199 61.2186 12.6899 60.7386 12.3699C60.2386 12.0399 59.7586 12.0099 59.7586 12.0099H53.5586L54.9086 9.95996H61.5986V9.95996Z" fill="#003873"/>
<path d="M56.7988 12.7603V22.8903C56.7988 22.8903 56.8389 23.7803 57.5889 25.0003C58.3389 26.2103 59.4288 26.7703 59.4288 26.7703L60.2888 25.4303C60.2888 25.4303 59.5388 24.9803 58.9688 24.1303C58.4188 23.2803 58.4188 22.5403 58.4188 22.5403V12.7703H56.8088L56.7988 12.7603Z" fill="#003873"/>
<path d="M68.2888 12.73V22.5C68.2888 22.5 68.1688 23.48 67.6988 24.18C67.2388 24.89 66.4688 25.46 66.4688 25.46L67.2888 26.78C67.2888 26.78 68.5388 25.87 69.1388 24.91C69.7488 23.95 69.8888 22.5 69.8888 22.5V12.73H68.2788H68.2888Z" fill="#003873"/>
<path d="M54.26 12.7603V22.9303C54.26 22.9303 54.36 24.5003 55.34 26.1403C56.32 27.7803 58.1 28.9203 58.1 28.9203L58.94 27.5803C58.94 27.5803 57.8 26.9703 56.89 25.5803C55.96 24.1703 55.91 22.8903 55.91 22.8903V12.7603H54.25H54.26Z" fill="#003873"/>
<path d="M61.5998 13.8301V24.5701C61.5998 24.5701 61.5598 24.6101 61.5498 24.7601C61.5298 24.9201 61.4198 25.0301 61.4198 25.0301L57.8398 30.9701H68.8298L65.2398 24.9001L65.1298 24.6301L65.0898 24.3501V13.8501H63.7598V24.7501C63.7598 24.7501 63.7598 24.9001 63.8098 25.0301C63.8398 25.1501 63.9198 25.3501 63.9198 25.3501L66.1298 28.9901H60.5298L62.6998 25.3701C62.6998 25.3701 62.7698 25.2501 62.8298 25.0701C62.8598 24.9101 62.8798 24.7501 62.8798 24.7501V13.8301H61.5998V13.8301Z" fill="#A68238"/>
<path d="M70.7693 12.7302V22.7202C70.7693 22.7202 70.7593 24.0002 69.8093 25.4802C68.8693 26.9602 67.7793 27.5902 67.7793 27.5902L68.5893 28.9402C68.5893 28.9402 70.2293 27.9002 71.2593 26.2602C72.2793 24.6202 72.3993 22.7102 72.3993 22.7102V12.7202H70.7693V12.7302Z" fill="#003873"/>
<path d="M59.0002 6.04008C59.0002 6.04008 58.4502 3.03009 60.6602 1.53009C60.6602 1.53009 61.6602 0.600098 63.2802 0.600098C65.0102 0.600098 66.0102 1.51009 66.0102 1.51009C68.4202 3.28009 67.7002 6.04008 67.7002 6.04008H59.0002Z" fill="#A68238"/>
<path d="M79.7395 15.7299C80.1395 15.5999 80.4195 15.4899 80.5795 15.4199V19.6699H81.4995V19.2199H86.3695V19.6699H87.2895V15.3699C87.4195 15.4399 87.5695 15.4999 87.7295 15.5499C87.8895 15.5899 88.0295 15.6499 88.1695 15.7099L88.6095 14.8099C87.1795 14.5299 86.0895 14.0199 85.3395 13.2899H88.5295V12.4699H84.3495V11.6399C85.6795 11.5299 86.7995 11.3799 87.6995 11.1899L87.2695 10.3799C85.9195 10.6799 83.9195 10.8399 81.2895 10.8399C80.7395 10.8399 80.2695 10.8399 79.8895 10.8199L80.2195 11.7299C80.8695 11.7299 81.9295 11.7099 83.4195 11.6699V12.4699H79.3495V13.2899H82.4095C81.5195 14.0399 80.4695 14.5499 79.2695 14.8499L79.7495 15.7299H79.7395ZM86.3695 18.3899H81.4895V17.5199H86.3695V18.3899ZM84.3395 13.3099C84.9595 14.1399 85.7795 14.7499 86.7895 15.1399H84.3395V13.3099ZM86.3695 15.9699V16.7299H81.4895V15.9699H86.3695ZM83.4095 13.3099V15.1399H81.1495C82.0795 14.7399 82.8295 14.1299 83.4095 13.3099Z" fill="#003873"/>
<path d="M98.4604 14.1402C97.9504 13.7502 97.4604 13.4302 96.9904 13.1802L96.4004 13.9202C96.7904 14.1802 97.2503 14.5302 97.7903 14.9902L98.4604 14.1402V14.1402Z" fill="#003873"/>
<path d="M96.3496 18.7401L97.1396 19.5501C97.7096 18.6501 98.1297 17.6701 98.3997 16.6001L97.5396 16.1001C97.3296 17.0401 96.9296 17.9201 96.3496 18.7501V18.7401Z" fill="#003873"/>
<path d="M104.239 18.1999C104.189 18.3999 104.019 18.5099 103.749 18.5099H100.809C100.579 18.5099 100.459 18.3899 100.459 18.1599V17.5299H103.649V15.4999C104.049 15.8599 104.549 16.2199 105.159 16.5799L105.589 15.6999C104.519 15.1699 103.849 14.6399 103.589 14.0999H105.479V13.2699H103.699V12.2499H105.339V11.4699H103.699V10.4399H102.809V11.4699H100.999V10.4399H100.089V11.4699H98.7695V11.5999C98.3795 11.2999 97.9095 10.9799 97.3395 10.6199L96.6895 11.3499C97.1295 11.6299 97.6194 12.0099 98.1694 12.5099L98.7695 11.7599V12.2999H100.089V13.2899H98.5695V14.1199H100.159C99.8694 14.7399 99.1795 15.2999 98.0795 15.7899L98.6395 16.6199C99.0795 16.3499 99.3894 16.1399 99.5494 15.9999V18.2199C99.5494 18.6699 99.6294 18.9799 99.7994 19.1399C99.9694 19.2999 100.269 19.3799 100.689 19.3799H103.899C104.409 19.3799 104.749 19.2899 104.919 19.1099C105.099 18.9199 105.239 18.3699 105.349 17.4599L104.399 17.1099C104.349 17.6299 104.299 17.9999 104.249 18.2099L104.239 18.1999ZM100.979 12.2899H102.779V13.2599H100.979V12.2899ZM101.199 14.0899H102.539C102.719 14.4399 102.929 14.7399 103.139 14.9799H100.609C100.849 14.7199 101.049 14.4299 101.199 14.0899V14.0899ZM100.449 15.7699H102.729V16.7399H100.449V15.7699Z" fill="#003873"/>
<path d="M121.789 19.6698V16.8298L122.679 16.6798V15.7699L121.789 15.9298V10.3398H120.869V16.0298L117.549 16.5298V17.4498L120.869 16.9398V19.6698H121.789Z" fill="#003873"/>
<path d="M115.259 19.6699L116.169 19.6299V15.0299C116.349 15.2699 116.519 15.4899 116.699 15.6899C116.899 15.9199 117.099 16.1699 117.289 16.4499L117.839 15.5999C117.459 15.1899 116.909 14.6399 116.169 13.9599V13.8699H117.679V13.0199H116.169V11.6199C116.689 11.5099 117.189 11.3799 117.669 11.2099L117.329 10.3999C116.269 10.7999 114.989 11.0399 113.509 11.1099L113.719 11.9399C114.389 11.8999 114.899 11.8399 115.259 11.7699V13.0099H113.419V13.8599H115.229C114.809 14.9599 114.189 15.9799 113.359 16.9199L113.919 17.8099C114.569 16.9599 115.019 16.2199 115.269 15.5899V19.6599L115.259 19.6699Z" fill="#003873"/>
<path d="M120.32 14.6799C119.59 14.1199 118.98 13.72 118.49 13.46L117.9 14.1199C118.42 14.4299 119.02 14.87 119.7 15.44L120.31 14.6799H120.32Z" fill="#003873"/>
<path d="M120.509 12.2901C119.729 11.7201 119.129 11.3201 118.699 11.0801L118.109 11.7301C118.569 12.0101 119.159 12.4401 119.889 13.0301L120.509 12.2901Z" fill="#003873"/>
<path d="M132.95 18.4398V16.0098C133.52 15.8198 133.91 15.6698 134.11 15.5598V14.5898C133.87 14.7098 133.48 14.8598 132.95 15.0298V13.2798H134.12V12.6398H136.26V13.9698H134.3V14.8799H138.23C137.95 15.7099 137.47 16.3998 136.79 16.9298C136.33 16.4698 135.88 15.8398 135.42 15.0398L134.6 15.3698C135.09 16.2598 135.59 16.9698 136.1 17.4798C135.15 18.1198 134.2 18.5498 133.25 18.7598L133.8 19.6599C134.75 19.4599 135.75 18.9599 136.79 18.1599C137.56 18.8599 138.38 19.3498 139.25 19.6398L139.76 18.7099C138.93 18.4799 138.18 18.0899 137.52 17.5499C137.9 17.2199 138.26 16.7698 138.6 16.1898C138.95 15.6098 139.17 15.1498 139.25 14.7898V13.9698H137.25V12.6398H139.59V11.7399H137.25V10.3398H136.27V11.7399H134.14V12.3698H132.97V10.3398H131.99V12.3698H130.52V13.2699H131.99V15.2598C131.52 15.3798 131 15.4798 130.42 15.5598L130.66 16.6299C130.98 16.5499 131.43 16.4398 131.99 16.2898V18.3098C131.99 18.5298 131.88 18.6398 131.66 18.6398L130.8 18.6098L131.03 19.6098H131.81C132.3 19.6098 132.62 19.5298 132.76 19.3698C132.89 19.2198 132.96 18.9098 132.96 18.4398H132.95Z" fill="#003873"/>
<path d="M147.449 18.6998L148.199 19.6398C150.419 18.1798 151.749 16.2598 152.189 13.8698H152.349C153.009 16.5298 154.229 18.4498 156.019 19.6198L156.779 18.7099C155.789 18.0599 155.019 17.2999 154.459 16.4099C153.899 15.5199 153.539 14.6798 153.389 13.8698H156.559V12.8298H152.359C152.409 12.3098 152.439 11.4798 152.439 10.3398H151.399C151.399 11.3998 151.359 12.2298 151.269 12.8298H147.679V13.8799H151.099C150.939 14.8099 150.529 15.7098 149.859 16.5898C149.189 17.4598 148.379 18.1698 147.439 18.6998H147.449Z" fill="#003873"/>
<path d="M173.86 17.31H169.75C170.6 17.05 171.32 16.76 171.9 16.45V15.73H166.38V16.46H170.55C169.85 16.67 169.27 16.81 168.81 16.89V17.32H164.51V18.12H168.81V18.53C168.81 18.73 168.71 18.83 168.51 18.83L167.15 18.79L167.38 19.59H168.84C169.44 19.59 169.74 19.24 169.74 18.53V18.12H173.85V17.32L173.86 17.31Z" fill="#003873"/>
<path d="M170.139 12.3C169.879 12.58 169.659 12.79 169.459 12.91C169.309 12.79 169.169 12.6901 169.039 12.6001C168.929 12.5401 168.819 12.4701 168.689 12.3801L168.169 12.8201C168.479 13.0401 168.699 13.2 168.829 13.3C168.599 13.44 168.249 13.56 167.799 13.66L168.229 14.3201C168.699 14.1601 169.089 13.9801 169.389 13.7701C169.439 13.7701 169.609 13.9701 169.919 14.3501L170.549 13.86C170.369 13.68 170.179 13.5 169.979 13.33C170.189 13.18 170.409 12.9801 170.649 12.7401L170.119 12.29L170.139 12.3Z" fill="#003873"/>
<path d="M167.68 11.6701L168.19 12.3301C168.63 12.1401 169.02 11.9401 169.35 11.7301C169.42 11.7301 169.59 11.9201 169.85 12.3001L170.45 11.8501C170.23 11.6201 170.06 11.4401 169.93 11.3201C170.17 11.1601 170.37 10.9801 170.51 10.7901L170.01 10.3401C169.89 10.5101 169.69 10.6801 169.4 10.8701C169.14 10.6701 168.88 10.4901 168.62 10.3301L168.09 10.8001C168.37 10.9801 168.6 11.1301 168.76 11.2701C168.59 11.3901 168.22 11.5301 167.67 11.6801L167.68 11.6701Z" fill="#003873"/>
<path d="M165.62 15.2999H172.78V16.7599H173.67V14.5199H173.15L173.26 10.6099H170.81V11.3899H172.39V11.9299H170.92V12.5999H172.36L172.34 13.1699H170.92V13.8499H172.31V14.5099H166.09L166.07 13.8499H167.56V13.1699H166.05V12.5999H167.56V11.9299H166.01L165.98 11.4199C166.79 11.3699 167.38 11.2799 167.75 11.1499L167.31 10.4199C166.71 10.5799 165.99 10.6799 165.13 10.7099L165.24 14.5199H164.74V16.7599H165.62V15.2999V15.2999Z" fill="#003873"/>
<path d="M79.5391 24.3603H81.2691V30.8103H82.1791V24.3603H83.9091V23.5303H79.5391V24.3603Z" fill="#003873"/>
<path d="M89.0187 26.4703H85.5486V23.5303H84.6387V30.8103H85.5486V27.3203H89.0187V30.8103H89.9286V23.5303H89.0187V26.4703Z" fill="#003873"/>
<path d="M91.3398 30.8103H95.2498V29.9803H92.2498V27.2303H95.1598V26.4003H92.2498V24.3603H95.2498V23.5303H91.3398V30.8103Z" fill="#003873"/>
<path d="M103.649 26.4703H100.189V23.5303H99.2793V30.8103H100.189V27.3203H103.649V30.8103H104.559V23.5303H103.649V26.4703Z" fill="#003873"/>
<path d="M109.279 23.3701C107.189 23.3701 105.459 25.0801 105.459 27.1701C105.459 29.2601 107.169 30.9701 109.279 30.9701C111.389 30.9701 113.099 29.3401 113.099 27.1701C113.099 25.0001 111.369 23.3701 109.279 23.3701ZM109.279 30.1101C107.699 30.1101 106.369 28.8301 106.369 27.1601C106.369 25.4901 107.569 24.2101 109.279 24.2101C110.989 24.2101 112.189 25.5501 112.189 27.1601C112.189 28.7701 110.859 30.1101 109.279 30.1101Z" fill="#003873"/>
<path d="M119.451 28.9102L113.98 23.1802V30.8102H114.891V25.3802L120.35 31.1102V23.5302H119.451V28.9102Z" fill="#003873"/>
<path d="M125.49 27.9701H127.37C127.33 29.1601 126.11 30.1401 124.98 30.1401C123.41 30.1401 122.15 28.6901 122.15 27.1601C122.15 25.5301 123.42 24.2001 125.06 24.2001C125.95 24.2001 126.83 24.6701 127.35 25.3901L127.99 24.7801C127.27 23.8801 126.15 23.3701 125.02 23.3701C122.93 23.3701 121.24 25.0901 121.24 27.1901C121.24 29.2901 122.88 30.9701 124.92 30.9701C126.96 30.9701 128.37 29.4401 128.37 27.4401V27.1501H125.48V27.9801L125.49 27.9701Z" fill="#003873"/>
<path d="M137.45 23.5303H136.26L133.17 26.6903V23.5303H132.26V30.8103H133.17V27.7703L133.54 27.4203L136.28 30.8103H137.51L134.18 26.8003L137.45 23.5303Z" fill="#003873"/>
<path d="M141.459 23.3701C139.369 23.3701 137.639 25.0801 137.639 27.1701C137.639 29.2601 139.349 30.9701 141.459 30.9701C143.569 30.9701 145.269 29.3401 145.269 27.1701C145.269 25.0001 143.539 23.3701 141.459 23.3701ZM141.459 30.1101C139.879 30.1101 138.549 28.8301 138.549 27.1601C138.549 25.4901 139.749 24.2101 141.459 24.2101C143.169 24.2101 144.369 25.5501 144.369 27.1601C144.369 28.7701 143.039 30.1101 141.459 30.1101Z" fill="#003873"/>
<path d="M151.63 28.9102L146.17 23.1802V30.8102H147.07V25.3802L152.54 31.1102V23.5302H151.63V28.9102Z" fill="#003873"/>
<path d="M157.68 27.9701H159.56C159.52 29.1601 158.3 30.1401 157.17 30.1401C155.6 30.1401 154.34 28.6901 154.34 27.1601C154.34 25.5301 155.62 24.2001 157.25 24.2001C158.14 24.2001 159.02 24.6701 159.54 25.3901L160.18 24.7801C159.46 23.8801 158.34 23.3701 157.21 23.3701C155.11 23.3701 153.43 25.0901 153.43 27.1901C153.43 29.2901 155.07 30.9701 157.11 30.9701C159.15 30.9701 160.56 29.4401 160.56 27.4401V27.1501H157.67V27.9801L157.68 27.9701Z" fill="#003873"/>
<path d="M168.75 27.8303C168.75 29.0203 168.39 30.1203 166.99 30.1203C165.59 30.1203 165.23 29.0203 165.23 27.8303V23.5303H164.32V28.1403C164.32 29.7403 165.31 30.9703 166.98 30.9703C168.65 30.9703 169.65 29.7403 169.65 28.1403V23.5303H168.74V27.8303H168.75Z" fill="#003873"/>
<path d="M176.39 28.9102L170.92 23.1802V30.8102H171.83V25.3802L177.3 31.1102V23.5302H176.39V28.9102Z" fill="#003873"/>
<path d="M179.57 23.5303H178.66V30.8103H179.57V23.5303Z" fill="#003873"/>
<path d="M183.43 28.9203L181.26 23.5303H180.26L183.43 31.2003L186.59 23.5303H185.6L183.43 28.9203Z" fill="#003873"/>
<path d="M187.299 30.8103H191.219V29.9803H188.209V27.2303H191.129V26.4003H188.209V24.3603H191.219V23.5303H187.299V30.8103Z" fill="#003873"/>
<path d="M196.41 25.6103C196.41 24.9103 196.06 24.2303 195.45 23.8703C194.87 23.5403 194.18 23.5303 193.53 23.5303H192.43V30.8103H193.34V27.7303H193.72L195.87 30.8103H196.97L194.67 27.6403C195.72 27.5203 196.42 26.6403 196.42 25.6003L196.41 25.6103ZM193.63 26.9803H193.34V24.3403H193.58C194.48 24.3403 195.56 24.5103 195.56 25.6403C195.56 26.7703 194.55 26.9703 193.63 26.9703V26.9803Z" fill="#003873"/>
<path d="M200.159 26.4999L199.639 26.2999C199.189 26.1299 198.629 25.8299 198.629 25.2599C198.629 24.6199 199.269 24.2299 199.849 24.2299C200.399 24.2299 200.749 24.4599 201.019 24.9199L201.739 24.4799C201.339 23.7699 200.679 23.3799 199.869 23.3799C198.769 23.3799 197.719 24.0799 197.719 25.2599C197.719 26.2799 198.469 26.7499 199.299 27.1099L199.799 27.3199C200.429 27.5799 201.059 27.9199 201.059 28.6999C201.059 29.4799 200.499 30.1199 199.719 30.1199C198.939 30.1199 198.299 29.5399 198.309 28.7399L197.389 28.9299C197.539 30.0999 198.459 30.9699 199.639 30.9699C200.939 30.9699 201.969 30.0199 201.969 28.6999C201.969 27.4799 201.199 26.9099 200.159 26.5099V26.4999Z" fill="#003873"/>
<path d="M203.939 23.5303H203.029V30.8103H203.939V23.5303Z" fill="#003873"/>
<path d="M204.719 24.3603H206.449V30.8103H207.359V24.3603H209.089V23.5303H204.719V24.3603Z" fill="#003873"/>
<path d="M211.979 26.6403L210.189 23.5303H209.139L211.519 27.6403V30.8103H212.429V27.6403L214.809 23.5303H213.759L211.979 26.6403Z" fill="#003873"/>
<path d="M221.72 23.3701C219.63 23.3701 217.9 25.0801 217.9 27.1701C217.9 29.2601 219.61 30.9701 221.72 30.9701C223.83 30.9701 225.54 29.3401 225.54 27.1701C225.54 25.0001 223.81 23.3701 221.72 23.3701ZM221.72 30.1101C220.15 30.1101 218.81 28.8301 218.81 27.1601C218.81 25.4901 220.01 24.2101 221.72 24.2101C223.43 24.2101 224.63 25.5501 224.63 27.1601C224.63 28.7701 223.3 30.1101 221.72 30.1101Z" fill="#003873"/>
<path d="M226.5 30.8103H227.41V27.2403H229.94V26.4103H227.41V24.3603H230.03V23.5303H226.5V30.8103Z" fill="#003873"/>
<path d="M236.459 26.4999L235.939 26.2999C235.489 26.1299 234.929 25.8299 234.929 25.2599C234.929 24.6199 235.569 24.2299 236.149 24.2299C236.729 24.2299 237.049 24.4599 237.319 24.9199L238.039 24.4799C237.639 23.7699 236.979 23.3799 236.159 23.3799C235.059 23.3799 234.019 24.0799 234.019 25.2599C234.019 26.2799 234.769 26.7499 235.599 27.1099L236.099 27.3199C236.729 27.5799 237.359 27.9199 237.359 28.6999C237.359 29.4799 236.799 30.1199 236.019 30.1199C235.239 30.1199 234.599 29.5399 234.609 28.7399L233.689 28.9299C233.839 30.0999 234.759 30.9699 235.939 30.9699C237.239 30.9699 238.269 30.0199 238.269 28.6999C238.269 27.4799 237.499 26.9099 236.459 26.5099V26.4999Z" fill="#003873"/>
<path d="M238.949 27.2099C238.949 29.3199 240.669 30.9699 242.749 30.9699C243.389 30.9699 244.099 30.7899 244.659 30.4599V29.3899C244.119 29.8699 243.429 30.1399 242.719 30.1399C241.099 30.1399 239.859 28.7799 239.859 27.1799C239.859 25.5799 241.099 24.1999 242.739 24.1999C243.429 24.1999 244.139 24.4499 244.659 24.9199V23.8699C244.109 23.5299 243.459 23.3799 242.829 23.3799C240.679 23.3799 238.959 25.0599 238.959 27.2199L238.949 27.2099Z" fill="#003873"/>
<path d="M246.719 23.5303H245.809V30.8103H246.719V23.5303Z" fill="#003873"/>
<path d="M248.18 30.8103H252.09V29.9803H249.09V27.2303H252V26.4003H249.09V24.3603H252.09V23.5303H248.18V30.8103Z" fill="#003873"/>
<path d="M258.689 28.9102L253.219 23.1802V30.8102H254.129V25.3802L259.589 31.1102V23.5302H258.689V28.9102Z" fill="#003873"/>
<path d="M260.58 27.2099C260.58 29.3199 262.3 30.9699 264.38 30.9699C265.02 30.9699 265.73 30.7899 266.29 30.4599V29.3899C265.75 29.8699 265.06 30.1399 264.35 30.1399C262.73 30.1399 261.49 28.7799 261.49 27.1799C261.49 25.5799 262.74 24.1999 264.37 24.1999C265.06 24.1999 265.77 24.4499 266.29 24.9199V23.8699C265.74 23.5299 265.09 23.3799 264.45 23.3799C262.31 23.3799 260.58 25.0599 260.58 27.2199V27.2099Z" fill="#003873"/>
<path d="M267.469 30.8103H271.379V29.9803H268.379V27.2303H271.289V26.4003H268.379V24.3603H271.379V23.5303H267.469V30.8103Z" fill="#003873"/>
<path d="M274.709 30.8102H275.679L276.509 28.9802H279.849L280.679 30.8102H281.649L278.169 23.2202L274.689 30.8102H274.709ZM276.889 28.1502L278.189 25.2002L279.479 28.1502H276.889V28.1502Z" fill="#003873"/>
<path d="M287.749 28.9102L282.289 23.1802V30.8102H283.189V25.3802L288.659 31.1102V23.5302H287.749V28.9102Z" fill="#003873"/>
<path d="M291.479 23.53H289.969V30.81H291.449C293.749 30.81 295.559 29.61 295.559 27.13C295.559 24.65 293.699 23.52 291.479 23.52V23.53ZM291.199 29.98H290.879V24.36H291.199C293.049 24.36 294.659 25.04 294.659 27.17C294.659 29.3 293.059 29.98 291.199 29.98Z" fill="#003873"/>
<path d="M298.779 24.3603H300.509V30.8103H301.419V24.3603H303.149V23.5303H298.779V24.3603Z" fill="#003873"/>
<path d="M303.959 30.8103H307.869V29.9803H304.869V27.2303H307.789V26.4003H304.869V24.3603H307.869V23.5303H303.959V30.8103Z" fill="#003873"/>
<path d="M308.68 27.2099C308.68 29.3199 310.4 30.9699 312.48 30.9699C313.12 30.9699 313.83 30.7899 314.39 30.4599V29.3899C313.85 29.8699 313.16 30.1399 312.45 30.1399C310.83 30.1399 309.59 28.7799 309.59 27.1799C309.59 25.5799 310.83 24.1999 312.47 24.1999C313.16 24.1999 313.87 24.4499 314.39 24.9199V23.8699C313.84 23.5299 313.19 23.3799 312.55 23.3799C310.4 23.3799 308.68 25.0599 308.68 27.2199V27.2099Z" fill="#003873"/>
<path d="M319.87 26.4703H316.4V23.5303H315.49V30.8103H316.4V27.3203H319.87V30.8103H320.78V23.5303H319.87V26.4703Z" fill="#003873"/>
<path d="M327.57 28.9102L322.1 23.1802V30.8102H323.01V25.3802L328.48 31.1102V23.5302H327.57V28.9102Z" fill="#003873"/>
<path d="M333.17 23.3701C331.08 23.3701 329.35 25.0801 329.35 27.1701C329.35 29.2601 331.06 30.9701 333.17 30.9701C335.28 30.9701 336.99 29.3401 336.99 27.1701C336.99 25.0001 335.26 23.3701 333.17 23.3701ZM333.17 30.1101C331.6 30.1101 330.26 28.8301 330.26 27.1601C330.26 25.4901 331.46 24.2101 333.17 24.2101C334.88 24.2101 336.08 25.5501 336.08 27.1601C336.08 28.7701 334.75 30.1101 333.17 30.1101Z" fill="#003873"/>
<path d="M338.869 23.5303H337.959V30.8103H341.079V29.9803H338.869V23.5303Z" fill="#003873"/>
<path d="M345.08 23.3701C342.99 23.3701 341.26 25.0801 341.26 27.1701C341.26 29.2601 342.97 30.9701 345.08 30.9701C347.19 30.9701 348.89 29.3401 348.89 27.1701C348.89 25.0001 347.16 23.3701 345.08 23.3701ZM345.08 30.1101C343.5 30.1101 342.17 28.8301 342.17 27.1601C342.17 25.4901 343.37 24.2101 345.08 24.2101C346.79 24.2101 347.99 25.5501 347.99 27.1601C347.99 28.7701 346.66 30.1101 345.08 30.1101Z" fill="#003873"/>
<path d="M353.619 27.9701H355.509C355.469 29.1601 354.249 30.1401 353.119 30.1401C351.549 30.1401 350.289 28.6901 350.289 27.1601C350.289 25.5301 351.559 24.2001 353.199 24.2001C354.089 24.2001 354.969 24.6701 355.489 25.3901L356.129 24.7801C355.409 23.8801 354.289 23.3701 353.159 23.3701C351.069 23.3701 349.379 25.0901 349.379 27.1901C349.379 29.2901 351.019 30.9701 353.059 30.9701C355.099 30.9701 356.509 29.4401 356.509 27.4401V27.1501H353.619V27.9801V27.9701Z" fill="#003873"/>
<path d="M361.37 23.5303L359.58 26.6403L357.79 23.5303H356.75L359.13 27.6403V30.8103H360.04V27.6403L362.41 23.5303H361.37Z" fill="#003873"/>
<path d="M42.8495 31.2001H35.5195V0.600098H42.8495V0.850098H35.7695V30.9501H42.8495V31.2001Z" fill="#231815"/>
<path d="M380.449 31.2001H373.119V30.9501H380.199V0.850098H373.119V0.600098H380.449V31.2001Z" fill="#231815"/>
<path d="M0.449463 7.74023H3.00946C3.66946 7.74023 4.17944 7.90023 4.54944 8.22023C4.91944 8.54023 5.09946 8.98023 5.09946 9.53023C5.09946 10.0802 4.90946 10.5302 4.53946 10.8502C4.16946 11.1702 3.64945 11.3302 2.99945 11.3302H1.17944V14.1502H0.439453V7.74023H0.449463ZM2.93945 10.7202C3.40945 10.7202 3.76946 10.6202 4.00946 10.4102C4.24946 10.2102 4.36945 9.91023 4.36945 9.53023C4.36945 9.15023 4.24946 8.85022 4.00946 8.65022C3.76946 8.45022 3.40945 8.35023 2.93945 8.35023H1.17944V10.7202H2.93945Z" fill="#231815"/>
<path d="M11.3403 14.15H10.5603L9.77029 12.02C9.67029 11.76 9.5403 11.58 9.3703 11.49C9.2003 11.4 8.9603 11.36 8.6503 11.36H7.05029V14.16H6.32031V7.75H8.8703C9.5603 7.75 10.0903 7.90001 10.4603 8.21001C10.8303 8.52001 11.0103 8.96 11.0103 9.53C11.0103 9.95 10.9003 10.3 10.6803 10.59C10.4603 10.88 10.1403 11.08 9.73032 11.2C9.92032 11.23 10.0703 11.31 10.2103 11.44C10.3403 11.57 10.4503 11.75 10.5403 11.99L11.3503 14.16L11.3403 14.15ZM8.79031 10.74C9.77031 10.74 10.2703 10.34 10.2703 9.53C10.2703 9.13 10.1503 8.84 9.91031 8.64C9.67031 8.45 9.30031 8.35001 8.79031 8.35001H7.04031V10.73H8.79031V10.74Z" fill="#231815"/>
<path d="M12.5488 7.74023H13.2888V14.1502H12.5488V7.74023Z" fill="#231815"/>
<path d="M20.0092 7.74023V14.1502H19.4291L15.5591 8.99023V14.1502H14.8691V7.74023H15.4391L19.3091 12.9002V7.74023H20.0092Z" fill="#231815"/>
<path d="M23.1304 8.37022H20.9004V7.74023H26.1104V8.37022H23.8804V14.1502H23.1304V8.37022V8.37022Z" fill="#231815"/>
<path d="M26.4297 13.4102L26.7097 12.8402C27.0297 13.1102 27.3497 13.3002 27.6797 13.4202C28.0097 13.5302 28.3897 13.5902 28.8297 13.5902C29.3497 13.5902 29.7397 13.4902 30.0197 13.2902C30.2997 13.0902 30.4397 12.8102 30.4397 12.4402C30.4397 12.2202 30.3697 12.0502 30.2397 11.9102C30.0997 11.7802 29.9297 11.6702 29.7097 11.5902C29.4897 11.5102 29.1997 11.4302 28.8297 11.3502C28.3397 11.2402 27.9297 11.1202 27.6197 11.0002C27.2997 10.8702 27.0397 10.6902 26.8497 10.4602C26.6497 10.2202 26.5497 9.91018 26.5497 9.53018C26.5497 9.15018 26.6497 8.84018 26.8397 8.56018C27.0297 8.28018 27.2997 8.06019 27.6497 7.91019C27.9997 7.76019 28.4097 7.68018 28.8797 7.68018C29.3497 7.68018 29.7397 7.75018 30.1197 7.89018C30.4997 8.03018 30.8297 8.23019 31.0897 8.49019L30.7997 9.06018C30.4997 8.80018 30.1997 8.61019 29.8897 8.49019C29.5797 8.37019 29.2397 8.31018 28.8797 8.31018C28.3797 8.31018 27.9897 8.42019 27.7097 8.63019C27.4297 8.84019 27.2897 9.13018 27.2897 9.51018C27.2897 9.83018 27.4097 10.0802 27.6597 10.2402C27.9097 10.4002 28.2797 10.5402 28.7897 10.6602C29.3397 10.7902 29.7797 10.9102 30.0897 11.0202C30.3997 11.1302 30.6697 11.3002 30.8797 11.5202C31.0897 11.7502 31.1897 12.0402 31.1897 12.4202C31.1897 12.8002 31.0897 13.1002 30.8997 13.3702C30.7097 13.6402 30.4297 13.8502 30.0797 14.0002C29.7197 14.1502 29.2997 14.2302 28.8197 14.2302C27.8197 14.2302 27.0197 13.9602 26.4297 13.4202V13.4102Z" fill="#231815"/>
<path d="M10.5794 23.1402C10.8394 23.4502 10.9594 23.8202 10.9594 24.2602C10.9594 24.8702 10.7294 25.3402 10.2694 25.6902C9.80938 26.0402 9.18939 26.2202 8.40939 26.2202C7.62939 26.2202 7.00938 26.0402 6.54938 25.6902C6.08938 25.3402 5.85938 24.8602 5.85938 24.2602C5.85938 23.8302 5.9894 23.4502 6.2594 23.1402C6.5194 22.8302 6.87939 22.6102 7.33939 22.4902C6.90939 22.3602 6.58938 22.1602 6.35938 21.8702C6.12937 21.5802 6.01938 21.2402 6.01938 20.8502C6.01938 20.4602 6.1194 20.1402 6.3194 19.8502C6.5194 19.5702 6.79939 19.3502 7.15939 19.1902C7.51939 19.0302 7.93939 18.9502 8.40939 18.9502C8.87939 18.9502 9.28939 19.0302 9.65939 19.1902C10.0194 19.3502 10.3094 19.5702 10.4994 19.8502C10.6994 20.1302 10.7994 20.4602 10.7994 20.8502C10.7994 21.2402 10.6794 21.5802 10.4494 21.8702C10.2194 22.1602 9.89938 22.3702 9.48938 22.4902C9.95938 22.6202 10.3194 22.8302 10.5694 23.1502L10.5794 23.1402ZM9.6994 25.1902C9.9994 24.9602 10.1494 24.6302 10.1494 24.2002C10.1494 23.8102 9.9894 23.4902 9.6694 23.2602C9.3494 23.0202 8.92938 22.8802 8.39938 22.8202C7.86938 22.8702 7.44939 23.0202 7.12939 23.2602C6.80939 23.5002 6.64938 23.8102 6.64938 24.2002C6.64938 24.6302 6.7994 24.9602 7.0994 25.1902C7.3994 25.4202 7.8294 25.5302 8.3894 25.5302C8.9494 25.5302 9.37938 25.4202 9.67938 25.1902H9.6994ZM7.2594 21.8102C7.5394 22.0502 7.92939 22.1902 8.40939 22.2502C8.88939 22.2002 9.26939 22.0502 9.55939 21.8102C9.83939 21.5702 9.9794 21.2702 9.9794 20.8902C9.9794 20.5102 9.83939 20.1902 9.55939 19.9602C9.27939 19.7302 8.89939 19.6202 8.40939 19.6202C7.91939 19.6202 7.5294 19.7302 7.2594 19.9602C6.9794 20.1902 6.83939 20.5002 6.83939 20.8902C6.83939 21.2802 6.9794 21.5802 7.2594 21.8102Z" fill="#AA8420"/>
<path d="M22.0585 22.99V26.15H21.2485V23.03C21.2485 22.56 21.1685 22.21 20.9985 22C20.8385 21.79 20.5685 21.68 20.2085 21.68C19.7785 21.68 19.4485 21.82 19.2085 22.11C18.9685 22.4 18.8485 22.79 18.8485 23.28V26.15H18.0385V23.03C18.0385 22.56 17.9585 22.22 17.7885 22.01C17.6185 21.79 17.3585 21.68 16.9885 21.68C16.5585 21.68 16.2285 21.82 15.9885 22.11C15.7485 22.4 15.6185 22.79 15.6185 23.28V26.15H14.8085V22.53C14.8085 22.01 14.7785 21.54 14.7285 21.12H15.4985L15.5785 22C15.7185 21.68 15.9285 21.43 16.1985 21.26C16.4785 21.09 16.7985 21 17.1685 21C17.5685 21 17.8985 21.08 18.1485 21.24C18.3985 21.4 18.5885 21.65 18.7085 21.98C18.8585 21.68 19.0885 21.44 19.3785 21.27C19.6785 21.09 20.0085 21 20.3785 21C21.4885 21 22.0485 21.66 22.0485 22.99H22.0585Z" fill="#AA8420"/>
<path d="M30.8495 22.99V26.15H30.0396V23.03C30.0396 22.56 29.9596 22.21 29.7896 22C29.6296 21.79 29.3595 21.68 28.9995 21.68C28.5695 21.68 28.2395 21.82 27.9995 22.11C27.7595 22.4 27.6396 22.79 27.6396 23.28V26.15H26.8295V23.03C26.8295 22.56 26.7495 22.22 26.5795 22.01C26.4095 21.79 26.1495 21.68 25.7795 21.68C25.3495 21.68 25.0195 21.82 24.7795 22.11C24.5395 22.4 24.4095 22.79 24.4095 23.28V26.15H23.5995V22.53C23.5995 22.01 23.5695 21.54 23.5195 21.12H24.2896L24.3695 22C24.5095 21.68 24.7195 21.43 24.9895 21.26C25.2695 21.09 25.5895 21 25.9595 21C26.3595 21 26.6895 21.08 26.9395 21.24C27.1895 21.4 27.3795 21.65 27.4995 21.98C27.6495 21.68 27.8796 21.44 28.1696 21.27C28.4696 21.09 28.7996 21 29.1696 21C30.2796 21 30.8395 21.66 30.8395 22.99H30.8495Z" fill="#AA8420"/>
<path d="M386.169 13.4002C385.729 13.1402 385.389 12.7602 385.159 12.2602C384.919 11.7702 384.799 11.1802 384.799 10.5202C384.799 9.86023 384.919 9.27023 385.149 8.77023C385.379 8.27023 385.719 7.90023 386.159 7.64023C386.599 7.38023 387.119 7.24023 387.719 7.24023C388.319 7.24023 388.839 7.37023 389.279 7.64023C389.719 7.90023 390.049 8.28023 390.289 8.77023C390.519 9.26023 390.639 9.84022 390.639 10.5102C390.639 11.1802 390.519 11.7602 390.279 12.2602C390.039 12.7502 389.699 13.1302 389.269 13.4002C388.829 13.6702 388.319 13.8002 387.719 13.8002C387.119 13.8002 386.609 13.6702 386.169 13.4002ZM389.299 12.4702C389.679 12.0102 389.869 11.3502 389.869 10.5102C389.869 9.67022 389.679 9.01023 389.309 8.56023C388.939 8.11023 388.409 7.88023 387.719 7.88023C387.029 7.88023 386.499 8.11024 386.129 8.57024C385.759 9.03024 385.559 9.68023 385.559 10.5202C385.559 11.3602 385.749 12.0202 386.129 12.4802C386.509 12.9402 387.039 13.1702 387.719 13.1702C388.399 13.1702 388.929 12.9402 389.299 12.4802V12.4702Z" fill="#231815"/>
<path d="M397.128 7.31006V13.7201H396.548L392.678 8.56006V13.7201H391.988V7.31006H392.558L396.428 12.4701V7.31006H397.128Z" fill="#231815"/>
<path d="M398.699 7.31006H399.439V13.0901H402.649V13.7201H398.699V7.31006Z" fill="#231815"/>
<path d="M403.609 7.31006H404.349V13.7201H403.609V7.31006Z" fill="#231815"/>
<path d="M411.07 7.31006V13.7201H410.49L406.62 8.56006V13.7201H405.93V7.31006H406.5L410.37 12.4701V7.31006H411.07Z" fill="#231815"/>
<path d="M412.639 7.31029H416.689V7.92029H413.369V10.1503H416.509V10.7703H413.369V13.1003H416.689V13.7103H412.639V7.30029V7.31029Z" fill="#231815"/>
<path d="M389.92 24.1701H388.84V25.7201H388.02V24.1701H384.74V23.5501L388.17 18.6001H388.84V23.4901H389.92V24.1701V24.1701ZM388.02 23.4901V19.9901L385.59 23.4901H388.02Z" fill="#AA8420"/>
<path d="M391.39 24.8803C390.97 24.2603 390.75 23.3603 390.75 22.1703C390.75 20.9803 390.96 20.0703 391.39 19.4503C391.81 18.8303 392.43 18.5303 393.24 18.5303C394.05 18.5303 394.67 18.8403 395.1 19.4503C395.52 20.0703 395.73 20.9703 395.73 22.1603C395.73 23.3503 395.52 24.2603 395.1 24.8803C394.68 25.5003 394.06 25.8103 393.24 25.8103C392.42 25.8103 391.81 25.5003 391.39 24.8903V24.8803ZM394.5 24.3903C394.77 23.9103 394.91 23.1603 394.91 22.1503C394.91 21.1403 394.78 20.4003 394.51 19.9303C394.24 19.4603 393.82 19.2203 393.25 19.2203C392.68 19.2203 392.27 19.4603 392 19.9303C391.73 20.4003 391.59 21.1403 391.59 22.1503C391.59 23.1603 391.73 23.9003 392 24.3903C392.27 24.8703 392.69 25.1103 393.25 25.1103C393.81 25.1103 394.24 24.8703 394.5 24.3903Z" fill="#AA8420"/>
<path d="M403.321 20.9003C403.661 21.1203 403.921 21.4303 404.111 21.8303C404.301 22.2303 404.391 22.6803 404.391 23.2103C404.391 23.7403 404.301 24.1803 404.111 24.5703C403.921 24.9603 403.661 25.2603 403.321 25.4803C402.981 25.6903 402.591 25.8003 402.151 25.8003C401.761 25.8003 401.411 25.7103 401.121 25.5403C400.831 25.3703 400.601 25.1203 400.451 24.8003V27.8903H399.641V22.1103C399.641 21.5903 399.611 21.1203 399.561 20.7003H400.331L400.411 21.6703C400.551 21.3203 400.771 21.0503 401.081 20.8603C401.381 20.6703 401.741 20.5703 402.161 20.5703C402.601 20.5703 402.991 20.6803 403.331 20.9003H403.321ZM403.151 24.6203C403.421 24.2903 403.551 23.8103 403.551 23.2003C403.551 22.5903 403.411 22.1103 403.141 21.7603C402.871 21.4203 402.491 21.2503 402.001 21.2503C401.511 21.2503 401.121 21.4203 400.851 21.7503C400.581 22.0803 400.451 22.5603 400.451 23.1803C400.451 23.8003 400.581 24.2803 400.851 24.6103C401.121 24.9503 401.501 25.1203 402.001 25.1203C402.501 25.1203 402.881 24.9503 403.151 24.6203V24.6203Z" fill="#AA8420"/>
<path d="M410.001 25.7204H409.031L407.441 23.7404L405.871 25.7204H404.881L406.971 23.1304L405.001 20.6904H405.981L407.441 22.5404L408.901 20.6904H409.891L407.931 23.1304L410.001 25.7204Z" fill="#AA8420"/>
</svg>
