<svg width="200" height="29" viewBox="0 0 200 29" fill="none" xmlns="http://www.w3.org/2000/svg">
<path d="M46.5995 28.35H39.2695V0H46.5995V0.25H39.5195V28.1H46.5995V28.35Z" fill="#231815"/>
<path d="M161.06 28.3501H153.73V28.1001H160.81V0.330078H153.73V0.0800781H161.06V28.3501Z" fill="#231815"/>
<path d="M0 8.22973H2.78C3.47 8.22973 4.01 8.39973 4.39 8.72973C4.77 9.05973 4.97 9.51973 4.97 10.0897C4.97 10.6597 4.78 11.1197 4.39 11.4597C4 11.7997 3.47 11.9597 2.78 11.9597H1.16V14.6297H0V8.21973V8.22973ZM2.65 11.0597C3.05 11.0597 3.36 10.9797 3.56 10.8097C3.76 10.6397 3.87 10.4097 3.87 10.0897C3.87 9.76973 3.77 9.52973 3.56 9.36973C3.35 9.20973 3.05 9.11973 2.64 9.11973H1.16V11.0497H2.64L2.65 11.0597Z" fill="#231815"/>
<path d="M11.2698 14.64H10.0498L9.22977 12.51C9.15977 12.31 9.04977 12.17 8.89977 12.1C8.74977 12.03 8.55977 11.98 8.31977 11.98H7.15977V14.64H6.00977V8.22998H8.75977C9.48977 8.22998 10.0398 8.38998 10.4198 8.70998C10.7998 9.02998 10.9898 9.47998 10.9898 10.08C10.9898 10.51 10.8798 10.87 10.6498 11.16C10.4198 11.46 10.1098 11.67 9.68977 11.79C10.0698 11.87 10.3398 12.13 10.5098 12.58L11.2898 14.63L11.2698 14.64ZM8.57977 11.08C9.01977 11.08 9.33977 11 9.54977 10.84C9.75977 10.68 9.85977 10.43 9.85977 10.1C9.85977 9.76998 9.75977 9.52998 9.54977 9.37998C9.33977 9.22998 9.01977 9.13998 8.56977 9.13998H7.11977V11.08H8.56977H8.57977Z" fill="#231815"/>
<path d="M12.3105 8.22998H13.4705V14.64H12.3105V8.22998Z" fill="#231815"/>
<path d="M20.2594 8.22998V14.64H19.3994L15.9394 10.15V14.64H14.8594V8.22998H15.7194L19.1694 12.71V8.22998H20.2594Z" fill="#231815"/>
<path d="M23.1603 9.17998H21.0703V8.22998H26.4203V9.17998H24.3203V14.63H23.1503V9.17998H23.1603Z" fill="#231815"/>
<path d="M27.8205 14.5199C27.3905 14.3899 27.0305 14.1999 26.7305 13.9499L27.1305 13.0999C27.4405 13.3299 27.7705 13.5099 28.1105 13.6199C28.4505 13.7299 28.8205 13.7899 29.2205 13.7899C29.6605 13.7899 30.0105 13.7099 30.2505 13.5599C30.4905 13.3999 30.6105 13.1799 30.6105 12.8999C30.6105 12.6599 30.5005 12.4799 30.2705 12.3499C30.0405 12.2199 29.6705 12.0999 29.1605 11.9799C28.3605 11.8099 27.7705 11.5799 27.4105 11.3099C27.0405 11.0299 26.8605 10.6299 26.8605 10.0999C26.8605 9.7199 26.9605 9.3899 27.1705 9.0899C27.3805 8.7899 27.6605 8.5599 28.0405 8.3999C28.4205 8.2399 28.8505 8.1499 29.3405 8.1499C29.7905 8.1499 30.2205 8.2199 30.6205 8.3499C31.0205 8.4799 31.3605 8.6699 31.6105 8.9099L31.2205 9.7599C30.6505 9.2999 30.0205 9.0799 29.3305 9.0799C28.9205 9.0799 28.5905 9.1599 28.3505 9.3399C28.1105 9.5099 27.9905 9.7399 27.9905 10.0399C27.9905 10.2899 28.1005 10.4799 28.3105 10.6199C28.5205 10.7599 28.8905 10.8699 29.4005 10.9899C29.9305 11.1199 30.3705 11.2499 30.7105 11.3999C31.0505 11.5499 31.3005 11.7399 31.4805 11.9699C31.6605 12.1999 31.7505 12.4899 31.7505 12.8399C31.7505 13.2199 31.6505 13.5599 31.4405 13.8399C31.2305 14.1199 30.9405 14.3499 30.5605 14.4999C30.1805 14.6599 29.7205 14.7299 29.2005 14.7299C28.7105 14.7299 28.2505 14.6599 27.8205 14.5299V14.5199Z" fill="#231815"/>
<path d="M11.6699 22.1002C12.5799 22.5502 13.0299 23.1702 13.0299 23.9802C13.0299 24.6202 12.7999 25.1502 12.3499 25.5802C11.8999 26.0102 11.3099 26.2202 10.5799 26.2202C9.84992 26.2202 9.26992 26.0102 8.82992 25.5802C8.38992 25.1502 8.16992 24.6402 8.16992 24.0402C8.16992 23.2002 8.62992 22.5502 9.55992 22.1002C8.85992 21.7302 8.50992 21.2102 8.50992 20.5502C8.50992 20.0602 8.70992 19.6202 9.11992 19.2502C9.52992 18.8702 10.0299 18.6802 10.5999 18.6802C11.1699 18.6802 11.6699 18.8602 12.0799 19.2302C12.4899 19.6002 12.6899 20.0402 12.6899 20.5702C12.6899 21.2102 12.3499 21.7202 11.6599 22.1002H11.6699ZM12.3099 23.9902C12.3099 23.5802 12.1399 23.2302 11.8099 22.9202C11.4799 22.6102 11.0799 22.4602 10.6099 22.4602C10.1399 22.4602 9.72992 22.6202 9.38992 22.9302C9.04992 23.2502 8.87992 23.6202 8.87992 24.0502C8.87992 24.4802 9.03992 24.8402 9.34992 25.1202C9.65992 25.4002 10.0699 25.5402 10.5799 25.5402C11.0899 25.5402 11.4999 25.3902 11.8199 25.0902C12.1399 24.7902 12.2999 24.4202 12.2999 23.9902H12.3099ZM11.9799 20.5402C11.9799 20.2202 11.8599 19.9402 11.5999 19.7102C11.3499 19.4802 11.0199 19.3702 10.6199 19.3702C10.2199 19.3702 9.88992 19.4802 9.61992 19.7102C9.35992 19.9402 9.22992 20.2202 9.22992 20.5402C9.22992 20.8602 9.36992 21.1602 9.64992 21.4202C9.92992 21.6802 10.2499 21.8002 10.6099 21.8002C10.9699 21.8002 11.2899 21.6702 11.5599 21.4202C11.8299 21.1702 11.9599 20.8702 11.9599 20.5302L11.9799 20.5402Z" fill="#AA8420"/>
<path d="M14.1309 20.7303H14.8109V21.6503C15.2809 20.9403 15.8909 20.5903 16.6309 20.5903C17.0209 20.5903 17.3809 20.7003 17.6909 20.9203C18.0009 21.1403 18.2109 21.4603 18.3109 21.8703C18.5309 21.4603 18.8109 21.1403 19.1509 20.9203C19.4909 20.7003 19.8809 20.5903 20.3309 20.5903C20.7809 20.5903 21.1709 20.7603 21.5409 21.1003C21.9009 21.4403 22.0809 22.1203 22.0809 23.1403V26.0403H21.3809V23.1403C21.3809 22.6503 21.3509 22.3003 21.2909 22.0603C21.2309 21.8303 21.1009 21.6403 20.9009 21.4803C20.7009 21.3203 20.4409 21.2503 20.1109 21.2503C19.7809 21.2503 19.4709 21.3603 19.1809 21.5803C18.8909 21.8003 18.7009 22.0803 18.5909 22.4203C18.4809 22.7603 18.4309 23.2703 18.4309 23.9603V26.0403H17.7609V23.3203C17.7609 22.7503 17.7309 22.3503 17.6709 22.1103C17.6109 21.8703 17.4809 21.6603 17.2709 21.5003C17.0609 21.3403 16.8109 21.2503 16.5109 21.2503C16.2109 21.2503 15.9309 21.3403 15.6709 21.5103C15.4109 21.6903 15.2009 21.9303 15.0509 22.2303C14.9009 22.5303 14.8209 23.0503 14.8209 23.7803V26.0303H14.1409V20.7203L14.1309 20.7303Z" fill="#AA8420"/>
<path d="M23.5098 20.7303H24.1898V21.6503C24.6598 20.9403 25.2698 20.5903 26.0098 20.5903C26.3998 20.5903 26.7598 20.7003 27.0698 20.9203C27.3798 21.1403 27.5898 21.4603 27.6898 21.8703C27.9098 21.4603 28.1898 21.1403 28.5298 20.9203C28.8698 20.7003 29.2598 20.5903 29.7098 20.5903C30.1598 20.5903 30.5498 20.7603 30.9198 21.1003C31.2798 21.4403 31.4598 22.1203 31.4598 23.1403V26.0403H30.7598V23.1403C30.7598 22.6503 30.7298 22.3003 30.6698 22.0603C30.6098 21.8303 30.4798 21.6403 30.2798 21.4803C30.0798 21.3203 29.8198 21.2503 29.4898 21.2503C29.1598 21.2503 28.8498 21.3603 28.5598 21.5803C28.2698 21.8003 28.0798 22.0803 27.9698 22.4203C27.8598 22.7603 27.8098 23.2703 27.8098 23.9603V26.0403H27.1398V23.3203C27.1398 22.7503 27.1098 22.3503 27.0498 22.1103C26.9898 21.8703 26.8598 21.6603 26.6498 21.5003C26.4398 21.3403 26.1898 21.2503 25.8898 21.2503C25.5898 21.2503 25.3098 21.3403 25.0498 21.5103C24.7898 21.6903 24.5798 21.9303 24.4298 22.2303C24.2798 22.5303 24.1998 23.0503 24.1998 23.7803V26.0303H23.5198V20.7203L23.5098 20.7303Z" fill="#AA8420"/>
<path d="M167.83 14.4C167.37 14.13 167.02 13.75 166.77 13.26C166.52 12.77 166.4 12.18 166.4 11.51C166.4 10.84 166.52 10.26 166.77 9.76998C167.02 9.26998 167.37 8.88998 167.83 8.62998C168.29 8.36998 168.83 8.22998 169.45 8.22998C170.07 8.22998 170.62 8.35998 171.07 8.62998C171.53 8.88998 171.88 9.26998 172.12 9.76998C172.36 10.26 172.48 10.85 172.48 11.51C172.48 12.17 172.36 12.77 172.11 13.26C171.86 13.76 171.51 14.14 171.06 14.4C170.6 14.67 170.06 14.8 169.44 14.8C168.82 14.8 168.28 14.67 167.82 14.4H167.83ZM170.83 13.26C171.16 12.85 171.33 12.27 171.33 11.51C171.33 10.75 171.16 10.17 170.83 9.76998C170.5 9.35998 170.04 9.15998 169.44 9.15998C168.84 9.15998 168.38 9.35998 168.05 9.75998C167.72 10.16 167.55 10.74 167.55 11.51C167.55 12.28 167.72 12.86 168.05 13.26C168.38 13.66 168.84 13.87 169.44 13.87C170.04 13.87 170.5 13.67 170.83 13.26Z" fill="#231815"/>
<path d="M179.08 8.31006V14.7201H178.22L174.76 10.2301V14.7201H173.68V8.31006H174.54L177.99 12.7901V8.31006H179.08V8.31006Z" fill="#231815"/>
<path d="M180.471 8.3098H181.631V13.7598H184.631V14.7098H180.471V8.2998V8.3098Z" fill="#231815"/>
<path d="M185.51 8.31006H186.67V14.7201H185.51V8.31006Z" fill="#231815"/>
<path d="M193.461 8.31006V14.7201H192.601L189.141 10.2301V14.7201H188.061V8.31006H188.921L192.371 12.7901V8.31006H193.461V8.31006Z" fill="#231815"/>
<path d="M194.85 8.31006H199.13V9.23006H195.98V11.0001H198.94V11.9201H195.98V13.8001H199.13V14.7201H194.85V8.31006Z" fill="#231815"/>
<path d="M170.17 18.7598H170.31V23.7598H171.18V24.4498H170.31V26.1198H169.6V24.4498H166.16L170.17 18.7598V18.7598ZM169.6 23.7598V20.7698L167.48 23.7598H169.6V23.7598Z" fill="#AA8420"/>
<path d="M174.18 26.3C173.41 26.3 172.81 25.98 172.39 25.34C171.97 24.7 171.77 23.76 171.77 22.52C171.77 21.28 171.98 20.34 172.39 19.71C172.8 19.08 173.4 18.75 174.17 18.75C174.94 18.75 175.55 19.08 175.99 19.72C176.44 20.37 176.67 21.3 176.67 22.51C176.67 23.72 176.44 24.66 175.99 25.31C175.54 25.96 174.93 26.28 174.18 26.28V26.3ZM174.2 19.44C173.65 19.44 173.22 19.71 172.91 20.24C172.6 20.77 172.45 21.54 172.45 22.55C172.45 24.62 173.03 25.65 174.2 25.65C174.77 25.65 175.21 25.38 175.53 24.84C175.85 24.3 176 23.53 176 22.53C176 21.53 175.84 20.77 175.51 20.24C175.18 19.71 174.75 19.44 174.2 19.44V19.44Z" fill="#AA8420"/>
<path d="M180.26 20.8002H180.94V21.7702C181.48 21.0302 182.18 20.6602 183.05 20.6602C183.8 20.6602 184.44 20.9302 184.98 21.4902C185.52 22.0402 185.79 22.7002 185.79 23.4702C185.79 24.2402 185.52 24.9102 184.99 25.4602C184.46 26.0102 183.82 26.2902 183.07 26.2902C182.26 26.2902 181.55 25.9302 180.94 25.2002V28.0502H180.26V20.8002V20.8002ZM185.11 23.4802C185.11 22.8902 184.9 22.3802 184.49 21.9602C184.08 21.5402 183.58 21.3302 182.99 21.3302C182.4 21.3302 181.9 21.5402 181.49 21.9502C181.09 22.3702 180.89 22.8802 180.89 23.4902C180.89 24.1002 181.1 24.6202 181.51 25.0302C181.92 25.4502 182.42 25.6502 182.99 25.6502C183.56 25.6502 184.06 25.4402 184.48 25.0202C184.9 24.6002 185.1 24.0802 185.1 23.4702L185.11 23.4802Z" fill="#AA8420"/>
<path d="M188.7 23.8898L187.16 26.1098H186.35L188.29 23.3098L186.54 20.7998H187.36L188.7 22.7198L190.03 20.7998H190.85L189.11 23.2998L191.08 26.1098H190.25L188.7 23.8898V23.8898Z" fill="#AA8420"/>
<path d="M67.36 5.80984C67.49 5.63984 67.54 5.33984 67.54 5.33984H59.5C59.5 5.33984 59.6 5.66984 59.68 5.80984H67.35H67.36Z" fill="#AA8420"/>
<path d="M66.8901 6.48984C67.0401 6.35984 67.1901 6.08984 67.1901 6.08984H59.8301C59.8301 6.08984 59.9101 6.28984 60.1001 6.48984H66.8901Z" fill="#AA8420"/>
<path d="M66.3096 7.11006C66.4896 7.01006 66.6396 6.81006 66.6396 6.81006H60.3496C60.3496 6.81006 60.4996 6.98006 60.6496 7.11006H66.3096Z" fill="#AA8420"/>
<path d="M65.5808 7.68996C65.7608 7.61996 65.9608 7.45996 65.9608 7.45996H61.0508C61.0508 7.45996 61.0508 7.49996 61.4008 7.68996H65.5808Z" fill="#AA8420"/>
<path d="M61.9609 8.06006C61.9609 8.06006 62.4809 8.36006 63.4909 8.36006C64.5009 8.36006 65.1509 8.06006 65.1509 8.06006H61.9609Z" fill="#AA8420"/>
<path d="M61.8809 8.74023C61.8809 8.74023 62.5009 8.77024 62.8609 9.06024C63.2109 9.36024 63.4809 9.86023 63.4809 9.86023C63.4809 9.86023 63.7009 9.38023 64.0509 9.13023C64.4009 8.86023 64.9709 8.75023 64.9709 8.75023H71.3109L72.5609 10.6002H66.8709C66.8709 10.6002 66.4709 10.6202 65.8709 10.9702C65.5509 11.1502 65.3209 11.4702 65.3209 11.4702C65.3209 11.4702 65.2709 11.6202 65.2009 11.7002C65.1409 11.7902 65.0809 11.8502 65.0009 11.8902C64.9109 11.9302 64.9309 11.9102 64.9309 11.9102H61.9709C61.9709 11.9102 61.8509 11.8602 61.7909 11.7602C61.7209 11.6602 61.7709 11.6902 61.7109 11.6102C61.6609 11.5302 61.5409 11.3102 61.0909 11.0102C60.6209 10.7102 60.1709 10.6802 60.1709 10.6802H54.3809L55.6409 8.77024H61.8809V8.74023Z" fill="#003477"/>
<path d="M57.4004 11.3501V20.8001C57.4004 20.8001 57.4304 21.6401 58.1304 22.7601C58.8304 23.8901 59.8404 24.4101 59.8404 24.4101L60.6404 23.1601C60.6404 23.1601 59.9404 22.7401 59.4104 21.9401C58.9004 21.1401 58.9004 20.4601 58.9004 20.4601V11.3501H57.4004Z" fill="#003477"/>
<path d="M68.1199 11.3198V20.4398C68.1199 20.4398 67.9999 21.3598 67.5699 22.0098C67.1399 22.6798 66.4199 23.2098 66.4199 23.2098L67.1899 24.4398C67.1899 24.4398 68.3499 23.5898 68.9199 22.6898C69.4799 21.7898 69.6199 20.4398 69.6199 20.4398V11.3198H68.1199Z" fill="#003477"/>
<path d="M55.0293 11.3501V20.8401C55.0293 20.8401 55.1293 22.3101 56.0393 23.8401C56.9593 25.3701 58.6193 26.4401 58.6193 26.4401L59.4093 25.1901C59.4093 25.1901 58.3393 24.6201 57.4993 23.3201C56.6293 22.0001 56.5793 20.8101 56.5793 20.8101V11.3501H55.0293Z" fill="#003477"/>
<path d="M61.8791 12.3501V22.3701C61.8791 22.3701 61.8391 22.4101 61.8291 22.5501C61.8091 22.7001 61.7091 22.8001 61.7091 22.8001L58.3691 28.3401H68.6191L65.2791 22.6801L65.1791 22.4301L65.1491 22.1701V12.3701H63.8991V22.5401C63.8991 22.5401 63.8991 22.6901 63.9491 22.8001C63.9791 22.9201 64.0491 23.1001 64.0491 23.1001L66.1091 26.4901H60.8791L62.9091 23.1101C62.9091 23.1101 62.9791 22.9901 63.0291 22.8301C63.0691 22.6801 63.0791 22.5301 63.0791 22.5301V12.3501H61.8791V12.3501Z" fill="#AA8420"/>
<path d="M70.4406 11.3198V20.6398C70.4406 20.6398 70.4306 21.8398 69.5406 23.2198C68.6606 24.5998 67.6406 25.1798 67.6406 25.1798L68.3906 26.4398C68.3906 26.4398 69.9206 25.4698 70.8906 23.9398C71.8406 22.4098 71.9606 20.6298 71.9606 20.6298V11.3198H70.4506H70.4406Z" fill="#003477"/>
<path d="M59.4505 5.08C59.4505 5.08 58.9405 2.27 61.0005 0.87C61.0005 0.87 61.9305 0 63.4405 0C65.0505 0 65.9905 0.85 65.9905 0.85C68.2405 2.5 67.5705 5.08 67.5705 5.08H59.4505Z" fill="#AA8420"/>
<path d="M85.4902 16.1903H79.4902V11.5703H77.9102V23.0403H79.4902V17.5303H85.4902V23.0403H87.0702V11.5703H85.4902V16.1903Z" fill="#003477"/>
<path d="M101.75 11.5703H99.6995L94.3395 16.5403V11.5703H92.7695V23.0403H94.3395V18.2403L94.9795 17.7003L99.7295 23.0403H101.85L96.0795 16.7203L101.75 11.5703Z" fill="#003477"/>
<path d="M113.68 18.3403C113.68 20.2103 113.06 21.9403 110.64 21.9403C108.22 21.9403 107.59 20.2103 107.59 18.3403V11.5703H106.02V18.8303C106.02 21.3503 107.74 23.2903 110.64 23.2903C113.54 23.2903 115.26 21.3603 115.26 18.8303V11.5703H113.69V18.3403H113.68Z" fill="#003477"/>
<path d="M124.99 16.2501L124.09 15.9301C123.3 15.6601 122.33 15.1901 122.33 14.2901C122.33 13.2901 123.43 12.6601 124.44 12.6601C125.39 12.6601 126 13.0301 126.46 13.7401L127.72 13.0601C127.03 11.9501 125.88 11.3301 124.47 11.3301C122.56 11.3301 120.75 12.4401 120.75 14.3001C120.75 15.9001 122.06 16.6401 123.49 17.2001L124.36 17.5401C125.45 17.9501 126.53 18.4801 126.53 19.7201C126.53 20.9601 125.56 21.9601 124.2 21.9601C122.84 21.9601 121.74 21.0501 121.76 19.7801L120.17 20.0801C120.44 21.9201 122.03 23.2901 124.07 23.2901C126.33 23.2901 128.1 21.8001 128.1 19.7201C128.1 17.8001 126.76 16.9001 124.97 16.2701L124.99 16.2501Z" fill="#003477"/>
<path d="M132.1 11.5703V12.8803H135.1V23.0403H136.67V12.8803H139.66V11.5703H132.1Z" fill="#003477"/>
</svg>
