<svg width="280" height="33" viewBox="0 0 280 33" fill="none" xmlns="http://www.w3.org/2000/svg">
<path d="M73.7609 6.70016C73.9109 6.51016 73.9709 6.16016 73.9709 6.16016H64.7109C64.7109 6.16016 64.8309 6.54016 64.9209 6.70016H73.7609V6.70016Z" fill="#AA8420"/>
<path d="M73.2296 7.48002C73.3996 7.33002 73.5796 7.02002 73.5796 7.02002H65.0996C65.0996 7.02002 65.1996 7.25002 65.4096 7.48002H73.2396H73.2296Z" fill="#AA8420"/>
<path d="M72.5497 8.18984C72.7597 8.07984 72.9297 7.83984 72.9297 7.83984H65.6797C65.6797 7.83984 65.8497 8.02984 66.0197 8.18984H72.5397H72.5497Z" fill="#AA8420"/>
<path d="M71.7102 8.85984C71.9202 8.77984 72.1502 8.58984 72.1502 8.58984H66.4902C66.4902 8.58984 66.4902 8.62984 66.8902 8.85984H71.7102V8.85984Z" fill="#AA8420"/>
<path d="M67.5508 9.27979C67.5508 9.27979 68.1508 9.62979 69.3208 9.62979C70.4908 9.62979 71.2408 9.27979 71.2408 9.27979H67.5608H67.5508Z" fill="#AA8420"/>
<path d="M67.4493 10.0701C67.4493 10.0701 68.1593 10.1101 68.5793 10.4301C68.9793 10.7801 69.2893 11.3501 69.2893 11.3501C69.2893 11.3501 69.5393 10.8001 69.9393 10.5101C70.3393 10.2001 70.9993 10.0701 70.9993 10.0701H78.3093L79.7493 12.2001H73.1893C73.1893 12.2001 72.7293 12.2201 72.0393 12.6201C71.6693 12.8301 71.3993 13.1901 71.3993 13.1901C71.3993 13.1901 71.3393 13.3601 71.2693 13.4601C71.1893 13.5601 71.1393 13.6401 71.0393 13.6701C70.9393 13.7101 70.9593 13.6901 70.9593 13.6901H67.5393C67.5393 13.6901 67.3993 13.6401 67.3293 13.5201C67.2493 13.4101 67.3093 13.4501 67.2293 13.3501C67.1693 13.2501 67.0393 13.0001 66.5193 12.6601C65.9793 12.3101 65.4593 12.2701 65.4593 12.2701H58.7793L60.2393 10.0601H67.4293L67.4493 10.0701Z" fill="#003477"/>
<path d="M62.2891 13.0801V23.9801C62.2891 23.9801 62.3291 24.9401 63.1391 26.2401C63.9391 27.5401 65.1091 28.1401 65.1091 28.1401L66.0291 26.7001C66.0291 26.7001 65.2291 26.2201 64.6091 25.3001C64.0191 24.3801 64.0191 23.5901 64.0191 23.5901V13.0801H62.2891Z" fill="#003477"/>
<path d="M74.6395 13.0498V23.5598C74.6395 23.5598 74.4995 24.6198 74.0095 25.3598C73.5095 26.1298 72.6895 26.7398 72.6895 26.7398L73.5795 28.1598C73.5795 28.1598 74.9195 27.1798 75.5695 26.1498C76.2195 25.1198 76.3794 23.5598 76.3794 23.5598V13.0498H74.6495H74.6395Z" fill="#003477"/>
<path d="M59.5508 13.0801V24.0201C59.5508 24.0201 59.6608 25.7101 60.7208 27.4701C61.7808 29.2301 63.6908 30.4601 63.6908 30.4601L64.5908 29.0201C64.5908 29.0201 63.3608 28.3701 62.3908 26.8701C61.3908 25.3601 61.3308 23.9701 61.3308 23.9701V13.0801H59.5508Z" fill="#003477"/>
<path d="M67.4502 14.23V25.78C67.4502 25.78 67.4102 25.82 67.3902 25.99C67.3702 26.16 67.2602 26.28 67.2602 26.28L63.4102 32.67H75.2302L71.3702 26.15L71.2602 25.86L71.2202 25.56V14.26H69.7802V25.98C69.7802 25.98 69.7802 26.15 69.8402 26.28C69.8802 26.42 69.9502 26.62 69.9502 26.62L72.3302 30.53H66.3102L68.6502 26.63C68.6502 26.63 68.7302 26.5 68.7802 26.31C68.8202 26.13 68.8402 25.97 68.8402 25.97V14.23H67.4602H67.4502Z" fill="#AA8420"/>
<path d="M77.3101 13.0498V23.7898C77.3101 23.7898 77.2901 25.1698 76.2701 26.7598C75.2501 28.3498 74.0801 29.0198 74.0801 29.0198L74.9501 30.4798C74.9501 30.4798 76.7101 29.3598 77.8301 27.5998C78.9201 25.8398 79.0601 23.7798 79.0601 23.7798V13.0498H77.3101Z" fill="#003477"/>
<path d="M64.6508 5.85C64.6508 5.85 64.0608 2.61 66.4408 1C66.4408 1 67.5108 0 69.2608 0C71.1208 0 72.2008 0.98 72.2008 0.98C74.7908 2.88 74.0208 5.85 74.0208 5.85H64.6608H64.6508Z" fill="#AA8420"/>
<path d="M106.19 16.0799V14.5399H98.3603V12.9799C100.86 12.7699 102.95 12.4899 104.63 12.1499L103.83 10.6299C101.29 11.1999 97.5603 11.4899 92.6203 11.4899C91.5803 11.4899 90.7103 11.4799 90.0003 11.4499L90.6103 13.1599C91.8203 13.1599 93.8203 13.1199 96.6003 13.0499V14.5499H88.9703V16.0899H94.7003C93.0303 17.4899 91.0703 18.4599 88.8203 19.0099L89.7103 20.6599C90.4503 20.4099 90.9803 20.2199 91.2903 20.0799V28.0499H93.0203V27.1999H102.15V28.0499H103.88V19.9899C104.13 20.1299 104.4 20.2399 104.7 20.3199C105 20.4099 105.27 20.5099 105.52 20.6199L106.34 18.9299C103.67 18.3999 101.63 17.4499 100.22 16.0899H106.2L106.19 16.0799ZM96.6203 16.1399V19.5599H92.3903C94.1303 18.8199 95.5503 17.6799 96.6203 16.1399V16.1399ZM93.0303 21.1199H102.17V22.5299H93.0303V21.1199ZM102.17 25.6499H93.0303V24.0099H102.17V25.6499ZM102.95 19.5599H98.3603V16.1199C99.5203 17.6699 101.05 18.8099 102.95 19.5599Z" fill="#003477"/>
<path d="M112.699 26.2901L114.189 27.8101C115.249 26.1301 116.039 24.2801 116.549 22.2801L114.939 21.3301C114.539 23.0901 113.799 24.7401 112.709 26.2901H112.699Z" fill="#003477"/>
<path d="M126.349 24.01V20.2C127.089 20.87 128.029 21.54 129.169 22.22L129.969 20.57C127.959 19.58 126.709 18.58 126.219 17.58H129.769V16.02H126.429V14.11H129.489V12.64H126.429V10.71H124.759V12.64H121.379V10.71H119.659V12.64H117.189V12.88C116.459 12.32 115.569 11.71 114.519 11.04L113.289 12.42C114.119 12.94 115.039 13.66 116.059 14.59L117.189 13.18V14.18H119.659V16.04H116.819V17.6H119.789C119.239 18.76 117.949 19.81 115.889 20.74L116.949 22.3C117.779 21.78 118.349 21.39 118.659 21.13V25.29C118.659 26.13 118.809 26.71 119.119 27.02C119.439 27.32 119.999 27.47 120.789 27.47H126.819C127.769 27.47 128.409 27.3 128.729 26.97C129.069 26.62 129.329 25.59 129.529 23.87L127.749 23.22C127.659 24.2 127.569 24.89 127.469 25.28C127.369 25.66 127.059 25.86 126.539 25.86H121.009C120.579 25.86 120.359 25.64 120.359 25.21V24.02H126.349V24.01ZM121.369 14.2H124.749V16.02H121.369V14.2V14.2ZM121.779 17.58H124.289C124.639 18.24 125.009 18.79 125.419 19.25H120.689C121.149 18.77 121.509 18.21 121.789 17.58H121.779ZM120.369 20.72H124.639V22.54H120.369V20.72Z" fill="#003477"/>
<path d="M116.661 17.6799C115.711 16.9499 114.791 16.3499 113.911 15.8799L112.801 17.2699C113.531 17.7499 114.401 18.4199 115.401 19.2799L116.661 17.6799Z" fill="#003477"/>
<path d="M149.799 14.2202C148.339 13.1602 147.209 12.4002 146.399 11.9502L145.289 13.1702C146.139 13.6902 147.259 14.5002 148.629 15.6002L149.799 14.2102V14.2202Z" fill="#003477"/>
<path d="M149.45 18.6902C148.09 17.6502 146.94 16.8902 146.01 16.4102L144.92 17.6502C145.9 18.2302 147.02 19.0502 148.3 20.1202L149.45 18.6902V18.6902Z" fill="#003477"/>
<path d="M152.21 10.5601H150.48V21.2401L144.26 22.1701V23.8901L150.48 22.9401V28.0501H152.21V22.7201L153.88 22.4401V20.7501L152.21 21.0301V10.5601Z" fill="#003477"/>
<path d="M141.651 17.3399V17.1699H144.471V15.5699H141.651V12.9499C142.631 12.7499 143.561 12.4999 144.451 12.1899L143.821 10.6699C141.831 11.4299 139.441 11.8699 136.671 12.0099L137.061 13.5699C138.321 13.4799 139.281 13.3799 139.941 13.2499V15.5699H136.491V17.1699H139.891C139.111 19.2299 137.941 21.1399 136.381 22.9099L137.421 24.5799C138.631 22.9899 139.481 21.6099 139.951 20.4199V28.0499L141.661 27.9799V19.3599C141.991 19.8099 142.321 20.2199 142.641 20.5999C143.011 21.0199 143.381 21.4899 143.751 22.0099L144.791 20.4099C144.091 19.6399 143.041 18.6199 141.651 17.3299V17.3399Z" fill="#003477"/>
<path d="M175.49 21.5201C176.14 20.4401 176.55 19.5701 176.71 18.9001V17.3601H172.96V14.8701H177.34V13.1801H172.96V10.5601H171.12V13.1801H167.13V14.3701H164.94V10.5601H163.11V14.3701H160.36V16.0601H163.11V19.7901C162.23 20.0301 161.25 20.2101 160.18 20.3501L160.62 22.3601C161.23 22.2101 162.06 22.0001 163.11 21.7301V25.5201C163.11 25.9301 162.91 26.1301 162.5 26.1301L160.88 26.0701L161.31 27.9501H162.78C163.7 27.9501 164.29 27.8001 164.55 27.5001C164.8 27.2201 164.93 26.6301 164.93 25.7601V21.2101C166 20.8501 166.72 20.5701 167.1 20.3601V18.5401C166.64 18.7601 165.92 19.0401 164.93 19.3601V16.0701H167.12L167.14 14.8801H171.13V17.3701H167.45V19.0801H174.82C174.29 20.6401 173.39 21.9201 172.13 22.9201C171.28 22.0701 170.42 20.8801 169.57 19.3701L168.03 19.9801C168.95 21.6501 169.88 22.9701 170.83 23.9301C169.05 25.1301 167.27 25.9301 165.48 26.3301L166.5 28.0201C168.28 27.6501 170.15 26.7101 172.11 25.2201C173.55 26.5301 175.08 27.4501 176.72 27.9901L177.67 26.2401C176.11 25.8101 174.71 25.0801 173.47 24.0701C174.18 23.4501 174.85 22.6001 175.5 21.5301L175.49 21.5201Z" fill="#003477"/>
<path d="M197.06 21.9198C196.01 20.2598 195.34 18.6798 195.05 17.1598L200.99 17.1798V15.2098H193.12C193.22 14.2298 193.27 12.6798 193.27 10.5498H191.32C191.32 12.5298 191.24 14.0798 191.08 15.2098H184.36V17.1798H190.77C190.47 18.9298 189.7 20.6098 188.45 22.2498C187.19 23.8898 185.68 25.1998 183.92 26.2098L185.33 27.9698C189.49 25.2298 191.98 21.6298 192.81 17.1598H193.11C194.35 22.1498 196.64 25.7398 199.98 27.9298L201.41 26.2198C199.57 25.0098 198.12 23.5698 197.07 21.9098L197.06 21.9198Z" fill="#003477"/>
<path d="M217.521 23.6299C219.121 23.1399 220.461 22.5999 221.551 22.0099V20.6499H211.211V22.0199H219.031C217.721 22.3999 216.631 22.6699 215.781 22.8199V23.6199H207.721V25.1199H215.781V25.8799C215.781 26.2499 215.591 26.4399 215.221 26.4399L212.681 26.3599L213.111 27.8699H215.841C216.971 27.8699 217.531 27.2099 217.531 25.8799V25.1199H225.241V23.6199H217.531L217.521 23.6299Z" fill="#003477"/>
<path d="M213.641 13.0701L214.591 14.3101C215.421 13.9501 216.141 13.5701 216.761 13.1801C216.901 13.1801 217.211 13.5301 217.711 14.2401L218.841 13.4001C218.431 12.9701 218.101 12.6401 217.861 12.4201C218.321 12.1201 218.681 11.7901 218.961 11.4201L218.031 10.5801C217.811 10.8901 217.431 11.2201 216.901 11.5801C216.401 11.2101 215.911 10.8701 215.431 10.5601L214.431 11.4301C214.961 11.7701 215.381 12.0601 215.691 12.3001C215.371 12.5201 214.691 12.7801 213.651 13.0601L213.641 13.0701Z" fill="#003477"/>
<path d="M218.261 14.2402C217.781 14.7702 217.351 15.1502 216.981 15.3902C216.691 15.1702 216.441 14.9702 216.201 14.8102C216.001 14.7002 215.781 14.5602 215.551 14.4002L214.581 15.2202C215.161 15.6302 215.581 15.9302 215.821 16.1102C215.391 16.3702 214.741 16.5902 213.891 16.7802L214.691 18.0202C215.571 17.7202 216.291 17.3802 216.861 16.9802C216.951 16.9802 217.271 17.3502 217.841 18.0802L219.031 17.1702C218.681 16.8202 218.331 16.5002 217.971 16.1902C218.351 15.9102 218.771 15.5302 219.231 15.0802L218.251 14.2502L218.261 14.2402Z" fill="#003477"/>
<path d="M209.811 19.8602H223.221V22.5902H224.891V18.3902H223.911L224.111 11.0502H219.521V12.5202H222.471L222.451 13.5402H219.721V14.8002H222.411L222.371 15.8602H219.721V17.1402H222.321L222.301 18.3802H210.681L210.641 17.1402H213.431V15.8602H210.611L210.591 14.8002H213.431V13.5402H210.531L210.481 12.5902C211.991 12.4902 213.091 12.3202 213.781 12.0902L212.961 10.7202C211.851 11.0302 210.481 11.2102 208.871 11.2602L209.071 18.3902H208.141V22.5902H209.791V19.8602H209.811Z" fill="#003477"/>
<path d="M45.6208 32.67H38.3008V0H45.6208V0.25H38.5508V32.42H45.6208V32.67Z" fill="#231815"/>
<path d="M239.971 32.67H232.641V32.42H239.721V0.25H232.641V0H239.971V32.67Z" fill="#231815"/>
<path d="M0 8.22998H2.56C3.22 8.22998 3.73 8.38998 4.1 8.70998C4.47 9.02998 4.65 9.46998 4.65 10.02C4.65 10.57 4.46 11.02 4.09 11.34C3.72 11.66 3.21 11.82 2.55 11.82H0.74V14.64H0V8.22998V8.22998ZM2.49 11.21C2.96 11.21 3.32 11.11 3.56 10.9C3.8 10.7 3.92 10.4 3.92 10.02C3.92 9.63998 3.8 9.33998 3.56 9.13998C3.32 8.93998 2.96 8.83998 2.49 8.83998H0.74V11.21H2.5H2.49Z" fill="#231815"/>
<path d="M10.8891 14.6397H10.1091L9.31914 12.5097C9.21914 12.2497 9.08914 12.0697 8.91914 11.9797C8.74914 11.8897 8.50914 11.8497 8.19914 11.8497H6.59914V14.6497H5.86914V8.23975H8.41914C9.10914 8.23975 9.63914 8.38975 10.0091 8.69975C10.3791 9.00975 10.5591 9.44975 10.5591 10.0197C10.5591 10.4397 10.4491 10.7897 10.2291 11.0797C10.0091 11.3697 9.68914 11.5697 9.27914 11.6897C9.46914 11.7197 9.61914 11.7997 9.75914 11.9297C9.88914 12.0597 9.99914 12.2397 10.0891 12.4797L10.8991 14.6497L10.8891 14.6397ZM8.33914 11.2297C9.31914 11.2297 9.81914 10.8297 9.81914 10.0197C9.81914 9.61975 9.69914 9.32975 9.45914 9.12975C9.21914 8.93975 8.84914 8.83975 8.33914 8.83975H6.58914V11.2197H8.33914V11.2297Z" fill="#231815"/>
<path d="M12.0996 8.22998H12.8396V14.64H12.0996V8.22998Z" fill="#231815"/>
<path d="M19.5599 8.22998V14.64H18.9799L15.1099 9.47998V14.64H14.4199V8.22998H14.9899L18.8599 13.39V8.22998H19.5599Z" fill="#231815"/>
<path d="M22.6792 8.85998H20.4492V8.22998H25.6592V8.85998H23.4292V14.64H22.6792V8.85998Z" fill="#231815"/>
<path d="M25.9805 13.8999L26.2605 13.3299C26.5805 13.5999 26.9005 13.7899 27.2305 13.9099C27.5605 14.0199 27.9405 14.0799 28.3805 14.0799C28.9005 14.0799 29.2905 13.9799 29.5705 13.7799C29.8505 13.5799 29.9905 13.2999 29.9905 12.9299C29.9905 12.7099 29.9205 12.5399 29.7905 12.3999C29.6605 12.2599 29.4805 12.1599 29.2605 12.0799C29.0405 11.9999 28.7505 11.9199 28.3805 11.8399C27.8905 11.7299 27.4805 11.6099 27.1705 11.4899C26.8505 11.3599 26.5905 11.1799 26.4005 10.9499C26.2105 10.7199 26.1005 10.3999 26.1005 10.0199C26.1005 9.63992 26.2005 9.32992 26.3905 9.04992C26.5805 8.76992 26.8505 8.54992 27.2005 8.39992C27.5505 8.23992 27.9605 8.16992 28.4305 8.16992C28.8705 8.16992 29.2905 8.23992 29.6705 8.37992C30.0505 8.51992 30.3805 8.71992 30.6405 8.97992L30.3505 9.54992C30.0505 9.28992 29.7505 9.09992 29.4405 8.97992C29.1305 8.85992 28.7905 8.79992 28.4305 8.79992C27.9305 8.79992 27.5405 8.90992 27.2605 9.11992C26.9805 9.32992 26.8405 9.61992 26.8405 9.99992C26.8405 10.3199 26.9605 10.5699 27.2105 10.7299C27.4605 10.8899 27.8305 11.0299 28.3405 11.1499C28.8905 11.2799 29.3305 11.3999 29.6405 11.5099C29.9605 11.6199 30.2205 11.7899 30.4305 12.0099C30.6405 12.2399 30.7405 12.5299 30.7405 12.9099C30.7405 13.2899 30.6405 13.5899 30.4505 13.8599C30.2605 14.1299 29.9805 14.3399 29.6305 14.4899C29.2705 14.6399 28.8505 14.7199 28.3805 14.7199C27.3805 14.7199 26.5805 14.4499 25.9905 13.9099L25.9805 13.8999Z" fill="#231815"/>
<path d="M10.1302 23.6299C10.3902 23.9399 10.5102 24.3099 10.5102 24.7499C10.5102 25.3599 10.2802 25.8299 9.82016 26.1799C9.36016 26.5299 8.74016 26.7099 7.96016 26.7099C7.18016 26.7099 6.56016 26.5299 6.10016 26.1799C5.64016 25.8299 5.41016 25.3499 5.41016 24.7499C5.41016 24.3199 5.54016 23.9399 5.81016 23.6299C6.07016 23.3199 6.43016 23.0999 6.89016 22.9799C6.46016 22.8499 6.14016 22.6499 5.91016 22.3599C5.68016 22.0699 5.57016 21.7299 5.57016 21.3399C5.57016 20.9499 5.67016 20.6299 5.87016 20.3399C6.07016 20.0499 6.35016 19.8399 6.71016 19.6799C7.07016 19.5199 7.49016 19.4399 7.96016 19.4399C8.43016 19.4399 8.84016 19.5199 9.21016 19.6799C9.58016 19.8399 9.86016 20.0599 10.0502 20.3399C10.2502 20.6199 10.3502 20.9499 10.3502 21.3399C10.3502 21.7299 10.2302 22.0699 10.0002 22.3599C9.77016 22.6499 9.45016 22.8599 9.04016 22.9799C9.51016 23.1099 9.87016 23.3199 10.1202 23.6399L10.1302 23.6299ZM9.25016 25.6799C9.55016 25.4499 9.70016 25.1199 9.70016 24.6899C9.70016 24.2999 9.54016 23.9799 9.23016 23.7499C8.91016 23.5099 8.49016 23.3699 7.96016 23.3099C7.43016 23.3599 7.01016 23.5099 6.70016 23.7499C6.39016 23.9899 6.22016 24.2999 6.22016 24.6899C6.22016 25.1199 6.37016 25.4499 6.67016 25.6799C6.97016 25.9099 7.40016 26.0199 7.96016 26.0199C8.52016 26.0199 8.95016 25.9099 9.25016 25.6799ZM6.82016 22.2999C7.10016 22.5399 7.49016 22.6799 7.96016 22.7399C8.44016 22.6899 8.82016 22.5399 9.11016 22.2999C9.39016 22.0599 9.53016 21.7599 9.53016 21.3799C9.53016 20.9999 9.39016 20.6799 9.11016 20.4499C8.83016 20.2199 8.45016 20.1099 7.95016 20.1099C7.45016 20.1099 7.07016 20.2199 6.80016 20.4499C6.52016 20.6799 6.38016 20.9899 6.38016 21.3799C6.38016 21.7699 6.52016 22.0699 6.80016 22.2999H6.82016Z" fill="#AA8420"/>
<path d="M21.6093 23.4797V26.6397H20.7993V23.5197C20.7993 23.0497 20.7193 22.6997 20.5493 22.4897C20.3893 22.2797 20.1193 22.1697 19.7593 22.1697C19.3293 22.1697 18.9993 22.3097 18.7593 22.5997C18.5193 22.8897 18.3993 23.2797 18.3993 23.7697V26.6397H17.5893V23.5197C17.5893 23.0497 17.5093 22.7097 17.3393 22.4997C17.1693 22.2797 16.9093 22.1697 16.5393 22.1697C16.1093 22.1697 15.7793 22.3097 15.5393 22.5997C15.2993 22.8897 15.1693 23.2797 15.1693 23.7697V26.6397H14.3593V23.0197C14.3593 22.4997 14.3293 22.0297 14.2793 21.6097H15.0493L15.1293 22.4897C15.2693 22.1697 15.4793 21.9197 15.7493 21.7497C16.0293 21.5797 16.3493 21.4897 16.7093 21.4897C17.1093 21.4897 17.4393 21.5697 17.6893 21.7297C17.9393 21.8897 18.1293 22.1397 18.2493 22.4697C18.3993 22.1697 18.6293 21.9297 18.9193 21.7597C19.2093 21.5897 19.5493 21.4897 19.9193 21.4897C21.0293 21.4897 21.5893 22.1497 21.5893 23.4797H21.6093Z" fill="#AA8420"/>
<path d="M30.4003 23.4797V26.6397H29.5903V23.5197C29.5903 23.0497 29.5103 22.6997 29.3403 22.4897C29.1803 22.2797 28.9103 22.1697 28.5503 22.1697C28.1203 22.1697 27.7903 22.3097 27.5503 22.5997C27.3103 22.8897 27.1903 23.2797 27.1903 23.7697V26.6397H26.3803V23.5197C26.3803 23.0497 26.3003 22.7097 26.1303 22.4997C25.9603 22.2797 25.7003 22.1697 25.3303 22.1697C24.9003 22.1697 24.5703 22.3097 24.3303 22.5997C24.0903 22.8897 23.9603 23.2797 23.9603 23.7697V26.6397H23.1503V23.0197C23.1503 22.4997 23.1203 22.0297 23.0703 21.6097H23.8403L23.9203 22.4897C24.0603 22.1697 24.2703 21.9197 24.5403 21.7497C24.8203 21.5797 25.1403 21.4897 25.5003 21.4897C25.9003 21.4897 26.2303 21.5697 26.4803 21.7297C26.7303 21.8897 26.9203 22.1397 27.0403 22.4697C27.1903 22.1697 27.4203 21.9297 27.7103 21.7597C28.0003 21.5897 28.3403 21.4897 28.7103 21.4897C29.8203 21.4897 30.3803 22.1497 30.3803 23.4797H30.4003Z" fill="#AA8420"/>
<path d="M248.79 14.3099C248.35 14.0499 248.01 13.6699 247.78 13.1699C247.54 12.6799 247.42 12.0899 247.42 11.4299C247.42 10.7699 247.54 10.1799 247.77 9.6799C248 9.1799 248.34 8.8099 248.78 8.5499C249.22 8.2899 249.74 8.1499 250.34 8.1499C250.94 8.1499 251.46 8.2799 251.9 8.5499C252.34 8.8099 252.67 9.1899 252.91 9.6799C253.14 10.1699 253.26 10.7499 253.26 11.4199C253.26 12.0899 253.14 12.6699 252.9 13.1699C252.66 13.6599 252.32 14.0399 251.89 14.3099C251.45 14.5799 250.94 14.7099 250.34 14.7099C249.74 14.7099 249.23 14.5799 248.79 14.3099V14.3099ZM251.92 13.3799C252.3 12.9199 252.49 12.2599 252.49 11.4199C252.49 10.5799 252.3 9.9199 251.93 9.4699C251.56 9.0199 251.03 8.7899 250.34 8.7899C249.65 8.7899 249.12 9.0199 248.75 9.4799C248.38 9.9399 248.18 10.5899 248.18 11.4299C248.18 12.2699 248.37 12.9299 248.75 13.3899C249.13 13.8499 249.66 14.0799 250.34 14.0799C251.02 14.0799 251.55 13.8499 251.92 13.3899V13.3799Z" fill="#231815"/>
<path d="M259.74 8.22998V14.64H259.16L255.29 9.47998V14.64H254.6V8.22998H255.17L259.04 13.39V8.22998H259.74Z" fill="#231815"/>
<path d="M261.311 8.22998H262.051V14.01H265.261V14.64H261.311V8.22998V8.22998Z" fill="#231815"/>
<path d="M266.221 8.22998H266.961V14.64H266.221V8.22998Z" fill="#231815"/>
<path d="M273.679 8.22998V14.64H273.099L269.229 9.47998V14.64H268.539V8.22998H269.109L272.979 13.39V8.22998H273.679Z" fill="#231815"/>
<path d="M275.25 8.22973H279.3V8.83973H275.98V11.0697H279.12V11.6897H275.98V14.0197H279.3V14.6297H275.25V8.21973V8.22973Z" fill="#231815"/>
<path d="M252.53 25.09H251.45V26.64H250.63V25.09H247.35V24.47L250.78 19.52H251.45V24.41H252.53V25.09ZM250.63 24.41V20.91L248.2 24.41H250.63Z" fill="#AA8420"/>
<path d="M254.009 25.7899C253.589 25.1699 253.369 24.2699 253.369 23.0799C253.369 21.8899 253.579 20.9799 254.009 20.3599C254.429 19.7399 255.049 19.4399 255.859 19.4399C256.669 19.4399 257.289 19.7499 257.719 20.3599C258.139 20.9799 258.349 21.8799 258.349 23.0699C258.349 24.2599 258.139 25.1699 257.719 25.7899C257.299 26.4099 256.679 26.7199 255.859 26.7199C255.039 26.7199 254.429 26.4099 254.009 25.7999V25.7899ZM257.119 25.2999C257.389 24.8199 257.529 24.0699 257.529 23.0599C257.529 22.0499 257.399 21.3099 257.129 20.8399C256.859 20.3699 256.439 20.1299 255.869 20.1299C255.299 20.1299 254.889 20.3699 254.619 20.8399C254.349 21.3099 254.209 22.0499 254.209 23.0599C254.209 24.0699 254.349 24.8099 254.619 25.2999C254.889 25.7799 255.309 26.0199 255.869 26.0199C256.429 26.0199 256.859 25.7799 257.119 25.2999V25.2999Z" fill="#AA8420"/>
<path d="M265.93 21.8197C266.27 22.0397 266.53 22.3497 266.72 22.7497C266.91 23.1497 267 23.5997 267 24.1297C267 24.6597 266.91 25.0997 266.72 25.4897C266.53 25.8797 266.27 26.1797 265.93 26.3997C265.59 26.6097 265.2 26.7197 264.76 26.7197C264.37 26.7197 264.02 26.6297 263.73 26.4597C263.44 26.2897 263.21 26.0397 263.06 25.7197V28.8097H262.25V23.0297C262.25 22.5097 262.22 22.0397 262.17 21.6197H262.94L263.02 22.5897C263.16 22.2397 263.38 21.9697 263.69 21.7797C263.99 21.5897 264.35 21.4897 264.77 21.4897C265.21 21.4897 265.6 21.5997 265.94 21.8197H265.93ZM265.76 25.5397C266.03 25.2097 266.16 24.7297 266.16 24.1197C266.16 23.5097 266.02 23.0297 265.75 22.6797C265.48 22.3397 265.1 22.1697 264.61 22.1697C264.12 22.1697 263.73 22.3397 263.46 22.6697C263.19 22.9997 263.06 23.4797 263.06 24.0997C263.06 24.7197 263.19 25.1997 263.46 25.5297C263.73 25.8697 264.11 26.0397 264.61 26.0397C265.11 26.0397 265.49 25.8697 265.76 25.5397V25.5397Z" fill="#AA8420"/>
<path d="M272.61 26.6399H271.64L270.05 24.6599L268.48 26.6399H267.49L269.58 24.0499L267.61 21.6099H268.59L270.05 23.4599L271.51 21.6099H272.5L270.54 24.0499L272.61 26.6399V26.6399Z" fill="#AA8420"/>
</svg>
