<svg width="356" height="181" viewBox="0 0 356 181" fill="none" xmlns="http://www.w3.org/2000/svg">
<path d="M94.3193 70.3799C94.6693 69.9499 94.7893 69.1699 94.7893 69.1699H74.0293C74.0293 69.1699 74.2893 70.0299 74.4993 70.3799H94.3193Z" fill="#A68238"/>
<path d="M93.1206 72.1399C93.5106 71.7999 93.9006 71.1099 93.9006 71.1099H74.8906C74.8906 71.1099 75.1006 71.6299 75.5806 72.1399H93.1206Z" fill="#A68238"/>
<path d="M91.6205 73.7302C92.0905 73.4702 92.4805 72.9502 92.4805 72.9502H76.2305C76.2305 72.9502 76.6205 73.3802 77.0005 73.7302H91.6305H91.6205Z" fill="#A68238"/>
<path d="M89.7193 75.2399C90.1893 75.0599 90.7093 74.6299 90.7093 74.6299H78.0293C78.0293 74.6299 78.0293 74.7199 78.9293 75.2399H89.7193Z" fill="#A68238"/>
<path d="M80.3906 76.1802C80.3906 76.1802 81.7206 76.9602 84.3506 76.9602C86.9806 76.9602 88.6506 76.1802 88.6506 76.1802H80.4006H80.3906Z" fill="#A68238"/>
<path d="M80.1695 77.9502C80.1695 77.9502 81.7595 78.0302 82.6995 78.7602C83.6095 79.5402 84.2995 80.8202 84.2995 80.8202C84.2995 80.8202 84.8595 79.5802 85.7695 78.9302C86.6695 78.2402 88.1295 77.9402 88.1295 77.9402H104.51L107.73 82.7102H93.0195C93.0195 82.7102 91.9895 82.7502 90.4395 83.6602C89.6195 84.1302 89.0095 84.9502 89.0095 84.9502C89.0095 84.9502 88.8895 85.3402 88.7095 85.5502C88.5395 85.7702 88.4095 85.9402 88.1995 86.0202C87.9795 86.1102 88.0295 86.0602 88.0295 86.0602H80.3695C80.3695 86.0602 80.0595 85.9402 79.8995 85.6702C79.7295 85.4102 79.8495 85.5002 79.6795 85.2902C79.5495 85.0802 79.2495 84.5102 78.0895 83.7402C76.8895 82.9602 75.7295 82.8802 75.7295 82.8802H60.7695L64.0295 77.9302H80.1595L80.1695 77.9502Z" fill="#003873"/>
<path d="M68.5996 84.7002V109.12C68.5996 109.12 68.6896 111.28 70.4896 114.2C72.2996 117.12 74.9196 118.46 74.9196 118.46L76.9896 115.24C76.9896 115.24 75.1896 114.16 73.8096 112.1C72.4796 110.04 72.4796 108.27 72.4796 108.27V84.7102H68.5996V84.7002Z" fill="#003873"/>
<path d="M96.3002 84.6099V108.17C96.3002 108.17 96.0001 110.54 94.8801 112.21C93.7601 113.93 91.9102 115.31 91.9102 115.31L93.9002 118.49C93.9002 118.49 96.9002 116.3 98.3602 113.98C99.8302 111.66 100.18 108.17 100.18 108.17V84.6099H96.3002V84.6099Z" fill="#003873"/>
<path d="M62.4609 84.7002V109.21C62.4609 109.21 62.7109 113 65.0809 116.95C67.4509 120.9 71.7509 123.66 71.7509 123.66L73.7809 120.44C73.7809 120.44 71.0309 118.98 68.8409 115.62C66.5909 112.22 66.4809 109.13 66.4809 109.13V84.7102H62.4809L62.4609 84.7002Z" fill="#003873"/>
<path d="M80.1696 87.2698V113.16C80.1696 113.16 80.0696 113.25 80.0396 113.63C79.9896 114.02 79.7396 114.28 79.7396 114.28L71.0996 128.6H97.5896L88.9396 113.98L88.6796 113.33L88.5896 112.65V87.3198H85.3696V113.6C85.3696 113.6 85.3696 113.98 85.4996 114.28C85.5796 114.58 85.7596 115.05 85.7596 115.05L91.0896 123.82H77.5896L82.8296 115.09C82.8296 115.09 82.9996 114.79 83.1296 114.36C83.2196 113.97 83.2596 113.59 83.2596 113.59V87.2598H80.1696V87.2698Z" fill="#A68238"/>
<path d="M102.271 84.6099V108.69C102.271 108.69 102.231 111.79 99.9508 115.35C97.6708 118.92 95.0508 120.43 95.0508 120.43L96.9908 123.7C96.9908 123.7 100.941 121.21 103.441 117.25C105.891 113.29 106.191 108.69 106.191 108.69V84.6099H102.271V84.6099Z" fill="#003873"/>
<path d="M73.8994 68.4801C73.8994 68.4801 72.5694 61.2201 77.8994 57.6001C77.8994 57.6001 80.3094 55.3701 84.2194 55.3701C88.3994 55.3701 90.7994 57.5601 90.7994 57.5601C96.6094 61.8101 94.8894 68.4801 94.8894 68.4801H73.9094H73.8994Z" fill="#A68238"/>
<path d="M118.321 65.5C118.971 65.28 119.431 65.11 119.701 65V71.97H121.211V71.22H129.201V71.97H130.711V64.92C130.931 65.04 131.171 65.14 131.431 65.21C131.691 65.28 131.931 65.37 132.141 65.47L132.861 63.99C130.521 63.52 128.731 62.69 127.501 61.5H132.731V60.15H125.881V58.79C128.071 58.61 129.891 58.36 131.371 58.06L130.671 56.73C128.451 57.23 125.181 57.48 120.871 57.48C119.961 57.48 119.201 57.47 118.581 57.45L119.121 58.94C120.181 58.94 121.931 58.91 124.361 58.84V60.16H117.691V61.51H122.711C121.251 62.73 119.531 63.58 117.561 64.06L118.341 65.51L118.321 65.5ZM129.191 69.87H121.201V68.44H129.191V69.87ZM125.861 61.54C126.881 62.89 128.211 63.89 129.871 64.55H125.861V61.54V61.54ZM129.191 65.91V67.14H121.201V65.91H129.191ZM124.331 61.56V64.55H120.631C122.161 63.9 123.391 62.9 124.331 61.56Z" fill="#003873"/>
<path d="M141.86 62.9001C141.03 62.2601 140.22 61.7401 139.46 61.3301L138.49 62.5501C139.13 62.9701 139.89 63.5601 140.76 64.3001L141.86 62.9001Z" fill="#003873"/>
<path d="M142.351 58.9703V59.8503H144.511V61.4703H142.021V62.8303H144.621C144.141 63.8503 143.011 64.7603 141.211 65.5803L142.141 66.9503C142.861 66.4903 143.361 66.1503 143.631 65.9303V69.5703C143.631 70.3103 143.761 70.8103 144.041 71.0803C144.321 71.3403 144.811 71.4703 145.501 71.4703H150.761C151.591 71.4703 152.151 71.3203 152.431 71.0303C152.721 70.7303 152.961 69.8203 153.131 68.3203L151.571 67.7503C151.491 68.6103 151.411 69.2103 151.331 69.5503C151.241 69.8903 150.971 70.0503 150.521 70.0503H145.701C145.321 70.0503 145.131 69.8603 145.131 69.4803V68.4403H150.361V65.1103C151.011 65.6903 151.831 66.2803 152.831 66.8803L153.531 65.4403C151.781 64.5703 150.681 63.7003 150.251 62.8203H153.351V61.4603H150.431V59.7903H153.111V58.5103H150.431V56.8203H148.961V58.5103H146.001V56.8203H144.521V58.5103H142.361V58.7203C141.721 58.2303 140.941 57.7003 140.021 57.1103L138.951 58.3103C139.681 58.7603 140.481 59.4003 141.371 60.2103L142.361 58.9803L142.351 58.9703ZM145.991 59.8603H148.951V61.4503H145.991V59.8603ZM146.351 62.8203H148.541C148.841 63.4003 149.171 63.8803 149.531 64.2803H145.391C145.791 63.8603 146.111 63.3703 146.351 62.8203V62.8203ZM145.121 65.5703H148.861V67.1603H145.121V65.5703Z" fill="#003873"/>
<path d="M141.76 66.9203L140.35 66.0903C140 67.6303 139.35 69.0703 138.4 70.4303L139.7 71.7603C140.63 70.2903 141.32 68.6703 141.76 66.9203V66.9203Z" fill="#003873"/>
<path d="M170.54 63.77C169.35 62.86 168.35 62.19 167.53 61.77L166.57 62.86C167.43 63.37 168.41 64.09 169.53 65.02L170.54 63.77V63.77Z" fill="#003873"/>
<path d="M160.031 68.9202C161.091 67.5302 161.831 66.3202 162.241 65.2802V71.9602L163.731 71.9002V64.3602C164.021 64.7502 164.311 65.1102 164.591 65.4502C164.921 65.8202 165.241 66.2302 165.561 66.6802L166.471 65.2802C165.851 64.6102 164.941 63.7102 163.731 62.5802V62.4302H166.201V61.0302H163.731V58.7402C164.581 58.5702 165.401 58.3402 166.181 58.0702L165.631 56.7402C163.891 57.4002 161.801 57.7902 159.381 57.9102L159.721 59.2702C160.821 59.2002 161.671 59.1002 162.241 59.0002V61.0302H159.221V62.4302H162.191C161.511 64.2302 160.481 65.9002 159.121 67.4502L160.031 68.9102V68.9202Z" fill="#003873"/>
<path d="M170.85 59.8604C169.57 58.9304 168.58 58.2704 167.88 57.8804L166.91 58.9504C167.66 59.4004 168.63 60.1104 169.83 61.0804L170.85 59.8604V59.8604Z" fill="#003873"/>
<path d="M166 68.3202L171.44 67.4902V71.9602H172.95V67.3002L174.41 67.0502V65.5802L172.95 65.8202V56.6602H171.44V66.0002L166 66.8102V68.3202Z" fill="#003873"/>
<path d="M179.941 65.2202L180.331 66.9802C180.861 66.8502 181.591 66.6602 182.511 66.4302V69.7402C182.511 70.1002 182.331 70.2802 181.971 70.2802L180.561 70.2302L180.931 71.8702H182.221C183.021 71.8702 183.541 71.7402 183.771 71.4802C183.991 71.2302 184.101 70.7202 184.101 69.9502V65.9702C185.031 65.6602 185.661 65.4102 186.001 65.2202V63.6302C185.601 63.8302 184.971 64.0602 184.101 64.3402V61.4702H186.021L186.041 60.4302H189.531V62.6102H186.311V64.1002H192.761C192.301 65.4602 191.511 66.5902 190.401 67.4602C189.651 66.7102 188.911 65.6802 188.161 64.3602L186.811 64.9002C187.611 66.3602 188.431 67.5102 189.261 68.3602C187.701 69.4102 186.141 70.1102 184.591 70.4602L185.481 71.9402C187.041 71.6202 188.681 70.8002 190.391 69.4902C191.651 70.6402 192.991 71.4502 194.421 71.9102L195.251 70.3802C193.881 70.0002 192.661 69.3702 191.581 68.4802C192.201 67.9402 192.791 67.2002 193.351 66.2502C193.921 65.3102 194.281 64.5402 194.421 63.9602V62.6102H191.141V60.4302H194.971V58.9502H191.141V56.6602H189.531V58.9502H186.041V59.9902H184.121V56.6602H182.521V59.9902H180.121V61.4702H182.521V64.7402C181.751 64.9402 180.891 65.1102 179.951 65.2302L179.941 65.2202Z" fill="#003873"/>
<path d="M200.711 70.3802L201.941 71.9202C205.581 69.5202 207.761 66.3702 208.491 62.4602H208.751C209.831 66.8202 211.841 69.9702 214.761 71.8802L216.011 70.3902C214.401 69.3302 213.131 68.0702 212.211 66.6202C211.291 65.1702 210.711 63.7802 210.461 62.4602L215.661 62.4802V60.7602H208.771C208.861 59.9002 208.901 58.5502 208.901 56.6802H207.191C207.191 58.4102 207.121 59.7702 206.981 60.7602H201.101V62.4802H206.711C206.451 64.0102 205.771 65.4902 204.681 66.9102C203.581 68.3402 202.251 69.4902 200.721 70.3702L200.711 70.3802Z" fill="#003873"/>
<path d="M230.751 59.8701C230.331 60.3401 229.951 60.6701 229.631 60.8801C229.381 60.6901 229.151 60.5201 228.951 60.3801C228.781 60.2801 228.591 60.1601 228.381 60.0201L227.541 60.7301C228.051 61.0901 228.411 61.3501 228.631 61.5101C228.251 61.7401 227.691 61.9301 226.941 62.0901L227.641 63.1801C228.411 62.9201 229.041 62.6201 229.541 62.2701C229.611 62.2701 229.901 62.5901 230.401 63.2301L231.441 62.4301C231.141 62.1301 230.831 61.8401 230.521 61.5701C230.851 61.3201 231.221 61.0001 231.621 60.6001L230.761 59.8701H230.751Z" fill="#003873"/>
<path d="M223.321 64.8003H235.051V67.1903H236.511V63.5203H235.651L235.831 57.1003H231.821V58.3803H234.411L234.391 59.2703H232.001V60.3803H234.361L234.331 61.3103H232.011V62.4303H234.291L234.271 63.5203H224.101L224.071 62.4303H226.511V61.3103H224.041V60.3803H226.511V59.2703H223.971L223.921 58.4403C225.241 58.3503 226.211 58.2103 226.811 58.0003L226.091 56.8003C225.121 57.0703 223.931 57.2303 222.521 57.2703L222.701 63.5103H221.891V67.1803H223.331V64.7903L223.321 64.8003Z" fill="#003873"/>
<path d="M226.701 58.8499L227.531 59.9399C228.251 59.6299 228.891 59.2899 229.431 58.9499C229.551 58.9499 229.831 59.2599 230.261 59.8799L231.251 59.1499C230.891 58.7699 230.601 58.4899 230.391 58.2899C230.791 58.0299 231.111 57.7399 231.351 57.4099L230.541 56.6799C230.341 56.9499 230.011 57.2399 229.551 57.5599C229.121 57.2399 228.691 56.9399 228.261 56.6699L227.381 57.4299C227.851 57.7199 228.221 57.9799 228.491 58.1899C228.211 58.3899 227.611 58.6099 226.701 58.8599V58.8499Z" fill="#003873"/>
<path d="M228.571 70.08C228.571 70.41 228.411 70.57 228.081 70.57L225.861 70.5L226.231 71.82H228.621C229.601 71.82 230.101 71.24 230.101 70.08V69.41H236.841V68.09H230.101C231.501 67.66 232.671 67.19 233.631 66.68V65.5H224.581V66.7H231.421C230.271 67.04 229.321 67.27 228.581 67.4V68.1H221.531V69.42H228.581V70.09L228.571 70.08Z" fill="#003873"/>
<path d="M122.32 90.2203V79.6403H125.16V78.2803H118V79.6403H120.83V90.2203H122.32Z" fill="#003873"/>
<path d="M127.851 78.2803H126.361V90.2203H127.851V84.4903H133.531V90.2203H135.021V78.2803H133.531V83.1003H127.851V78.2803Z" fill="#003873"/>
<path d="M143.75 88.8603H138.82V84.3503H143.6V82.9803H138.82V79.6403H143.75V78.2803H137.33V90.2203H143.75V88.8603Z" fill="#003873"/>
<path d="M151.84 78.2803H150.35V90.2203H151.84V84.4903H157.52V90.2203H159.01V78.2803H157.52V83.1003H151.84V78.2803Z" fill="#003873"/>
<path d="M166.74 78.0303C163.32 78.0303 160.49 80.8303 160.49 84.2503C160.49 87.6703 163.29 90.4703 166.74 90.4703C170.19 90.4703 173 87.7903 173 84.2503C173 80.7103 170.16 78.0303 166.74 78.0303ZM166.74 89.0803C164.16 89.0803 161.97 86.9703 161.97 84.2503C161.97 81.5303 163.93 79.4203 166.74 79.4203C169.55 79.4203 171.51 81.6203 171.51 84.2503C171.51 86.8803 169.32 89.0803 166.74 89.0803Z" fill="#003873"/>
<path d="M175.941 81.32L184.901 90.71V78.28H183.411V87.1L174.451 77.71V90.22H175.941V81.32Z" fill="#003873"/>
<path d="M186.371 84.2803C186.371 87.5903 189.061 90.4703 192.411 90.4703C195.761 90.4703 198.061 87.9503 198.061 84.6803V84.2103H193.321V85.5703H196.411C196.341 87.5203 194.351 89.1203 192.501 89.1203C189.921 89.1203 187.861 86.7403 187.861 84.2403C187.861 81.5603 189.951 79.3903 192.631 79.3903C194.091 79.3903 195.531 80.1703 196.381 81.3403L197.421 80.3403C196.251 78.8703 194.411 78.0303 192.561 78.0303C189.131 78.0303 186.371 80.8503 186.371 84.2803Z" fill="#003873"/>
<path d="M213.02 90.2203L207.55 83.6503L212.92 78.2803H210.97L205.91 83.4603V78.2803H204.42V90.2203H205.91V85.2303L206.51 84.6603L211.01 90.2203H213.02Z" fill="#003873"/>
<path d="M213.24 84.2503C213.24 87.8003 216.04 90.4703 219.49 90.4703C222.94 90.4703 225.74 87.7903 225.74 84.2503C225.74 80.7103 222.91 78.0303 219.49 78.0303C216.07 78.0303 213.24 80.8303 213.24 84.2503ZM219.49 79.4203C222.29 79.4203 224.26 81.6203 224.26 84.2503C224.26 86.8803 222.07 89.0803 219.49 89.0803C216.91 89.0803 214.72 86.9703 214.72 84.2503C214.72 81.5303 216.69 79.4203 219.49 79.4203Z" fill="#003873"/>
<path d="M236.161 87.1L227.201 77.71V90.22H228.691V81.32L237.651 90.71V78.28H236.161V87.1Z" fill="#003873"/>
<path d="M245.161 90.4703C248.501 90.4703 250.811 87.9503 250.811 84.6803V84.2103H246.071V85.5703H249.161C249.091 87.5203 247.101 89.1203 245.251 89.1203C242.671 89.1203 240.611 86.7403 240.611 84.2403C240.611 81.5603 242.701 79.3903 245.381 79.3903C246.841 79.3903 248.281 80.1703 249.131 81.3403L250.171 80.3403C249.001 78.8703 247.161 78.0303 245.311 78.0303C241.881 78.0303 239.121 80.8503 239.121 84.2803C239.121 87.7103 241.811 90.4703 245.151 90.4703H245.161Z" fill="#003873"/>
<path d="M123.27 109.47C126.01 109.47 127.64 107.46 127.64 104.83V97.27H126.15V104.32C126.15 106.27 125.56 108.07 123.27 108.07C120.98 108.07 120.39 106.27 120.39 104.32V97.27H118.9V104.83C118.9 107.46 120.53 109.47 123.27 109.47V109.47Z" fill="#003873"/>
<path d="M131.211 100.32L140.171 109.71V97.28H138.681V106.1L129.721 96.71V109.22H131.211V100.32Z" fill="#003873"/>
<path d="M143.89 97.2803H142.4V109.22H143.89V97.2803Z" fill="#003873"/>
<path d="M150.221 106.11L146.661 97.2803H145.031L150.221 109.85L155.401 97.2803H153.771L150.221 106.11Z" fill="#003873"/>
<path d="M162.98 107.86H158.06V103.34H162.84V101.98H158.06V98.6403H162.98V97.2803H156.57V109.22H162.98V107.86Z" fill="#003873"/>
<path d="M171.5 100.68C171.5 99.54 170.93 98.41 169.93 97.83C168.98 97.29 167.84 97.27 166.78 97.27H164.98V109.21H166.47V104.16H167.09L170.61 109.21H172.42L168.65 104.02C170.37 103.82 171.52 102.39 171.52 100.68H171.5ZM166.94 102.93H166.46V98.6H166.86C168.33 98.6 170.11 98.87 170.11 100.74C170.11 102.61 168.46 102.92 166.94 102.92V102.93Z" fill="#003873"/>
<path d="M176.921 108.08C175.641 108.08 174.591 107.13 174.611 105.82L173.111 106.14C173.361 108.05 174.871 109.48 176.801 109.48C178.941 109.48 180.621 107.93 180.621 105.76C180.621 103.77 179.351 102.83 177.661 102.17L176.811 101.84C176.071 101.56 175.151 101.07 175.151 100.13C175.151 99.09 176.201 98.44 177.151 98.44C178.051 98.44 178.621 98.82 179.061 99.56L180.251 98.85C179.601 97.69 178.511 97.04 177.181 97.04C175.381 97.04 173.661 98.2 173.661 100.13C173.661 101.79 174.901 102.57 176.261 103.16L177.081 103.51C178.111 103.94 179.141 104.49 179.141 105.77C179.141 107.05 178.221 108.1 176.941 108.1L176.921 108.08Z" fill="#003873"/>
<path d="M183.84 97.2803H182.35V109.22H183.84V97.2803Z" fill="#003873"/>
<path d="M189.441 109.22V98.6403H192.271V97.2803H185.121V98.6403H187.951V109.22H189.441Z" fill="#003873"/>
<path d="M194.081 97.2803H192.371L196.271 104.02V109.22H197.751V104.02L201.651 97.2803H199.941L197.011 102.38L194.081 97.2803Z" fill="#003873"/>
<path d="M212.99 109.47C216.44 109.47 219.25 106.79 219.25 103.25C219.25 99.7103 216.42 97.0303 212.99 97.0303C209.56 97.0303 206.74 99.8403 206.74 103.25C206.74 106.66 209.54 109.47 212.99 109.47ZM212.99 98.4203C215.79 98.4203 217.76 100.62 217.76 103.25C217.76 105.88 215.58 108.08 212.99 108.08C210.4 108.08 208.23 105.97 208.23 103.25C208.23 100.53 210.19 98.4203 212.99 98.4203Z" fill="#003873"/>
<path d="M222.31 103.36H226.46V101.99H222.31V98.6403H226.61V97.2803H220.82V109.22H222.31V103.36Z" fill="#003873"/>
<path d="M237.15 102.15L236.3 101.82C235.56 101.54 234.64 101.05 234.64 100.11C234.64 99.07 235.68 98.42 236.63 98.42C237.58 98.42 238.1 98.8 238.54 99.54L239.73 98.83C239.08 97.67 237.99 97.02 236.66 97.02C234.86 97.02 233.14 98.18 233.14 100.11C233.14 101.77 234.38 102.55 235.74 103.14L236.56 103.49C237.59 103.92 238.62 104.47 238.62 105.75C238.62 107.03 237.7 108.08 236.42 108.08C235.14 108.08 234.09 107.13 234.11 105.82L232.6 106.14C232.85 108.05 234.36 109.48 236.29 109.48C238.43 109.48 240.11 107.93 240.11 105.76C240.11 103.77 238.84 102.83 237.15 102.17V102.15Z" fill="#003873"/>
<path d="M247.44 98.3903C248.56 98.3903 249.74 98.8003 250.59 99.5603V97.8403C249.69 97.2803 248.63 97.0303 247.58 97.0303C244.06 97.0303 241.23 99.7903 241.23 103.32C241.23 106.85 244.05 109.48 247.45 109.48C248.5 109.48 249.67 109.18 250.59 108.64V106.88C249.7 107.67 248.58 108.12 247.41 108.12C244.75 108.12 242.72 105.89 242.72 103.27C242.72 100.65 244.77 98.3903 247.44 98.3903Z" fill="#003873"/>
<path d="M253.97 97.2803H252.48V109.22H253.97V97.2803Z" fill="#003873"/>
<path d="M256.35 109.22H262.77V107.86H257.84V103.34H262.62V101.98H257.84V98.6403H262.77V97.2803H256.35V109.22Z" fill="#003873"/>
<path d="M273.581 106.1L264.621 96.71V109.22H266.111V100.32L275.071 109.71V97.28H273.581V106.1Z" fill="#003873"/>
<path d="M276.691 103.31C276.691 106.76 279.511 109.47 282.911 109.47C283.961 109.47 285.131 109.17 286.051 108.63V106.87C285.171 107.66 284.041 108.11 282.871 108.11C280.211 108.11 278.181 105.88 278.181 103.26C278.181 100.64 280.221 98.38 282.901 98.38C284.021 98.38 285.191 98.79 286.051 99.55V97.83C285.151 97.27 284.091 97.02 283.041 97.02C279.521 97.02 276.691 99.78 276.691 103.31Z" fill="#003873"/>
<path d="M294.391 98.6403V97.2803H287.971V109.22H294.391V107.86H289.461V103.34H294.251V101.98H289.461V98.6403H294.391Z" fill="#003873"/>
<path d="M117.84 128.21H119.44L120.8 125.22H126.28L127.64 128.21H129.24L123.54 115.76L117.84 128.21ZM121.42 123.86L123.54 119.03L125.66 123.86H121.42V123.86Z" fill="#003873"/>
<path d="M139.22 125.09L130.25 115.7V128.21H131.74V119.31L140.7 128.7V116.27H139.22V125.09Z" fill="#003873"/>
<path d="M145.331 116.27H142.861V128.21H145.281C149.051 128.21 152.031 126.25 152.031 122.18C152.031 118.11 148.991 116.27 145.331 116.27V116.27ZM144.871 126.85H144.351V117.63H144.871C147.911 117.63 150.541 118.75 150.541 122.24C150.541 125.73 147.911 126.85 144.871 126.85Z" fill="#003873"/>
<path d="M157.301 117.64H160.131V128.21H161.621V117.64H164.461V116.27H157.301V117.64Z" fill="#003873"/>
<path d="M165.791 128.21H172.201V126.85H167.271V122.34H172.061V120.98H167.271V117.64H172.201V116.27H165.791V128.21Z" fill="#003873"/>
<path d="M173.531 122.31C173.531 125.76 176.351 128.47 179.751 128.47C180.801 128.47 181.971 128.17 182.891 127.63V125.87C182.001 126.66 180.881 127.11 179.711 127.11C177.051 127.11 175.021 124.88 175.021 122.26C175.021 119.64 177.061 117.38 179.741 117.38C180.861 117.38 182.041 117.79 182.891 118.55V116.83C181.991 116.27 180.921 116.02 179.881 116.02C176.361 116.02 173.531 118.78 173.531 122.31Z" fill="#003873"/>
<path d="M191.871 121.09H186.181V116.27H184.691V128.21H186.181V122.48H191.871V128.21H193.351V116.27H191.871V121.09Z" fill="#003873"/>
<path d="M204.481 125.09L195.521 115.7V128.21H197.011V119.31L205.971 128.7V116.27H204.481V125.09Z" fill="#003873"/>
<path d="M213.67 116.02C210.25 116.02 207.42 118.82 207.42 122.24C207.42 125.66 210.22 128.46 213.67 128.46C217.12 128.46 219.93 125.78 219.93 122.24C219.93 118.7 217.1 116.02 213.67 116.02V116.02ZM213.67 127.07C211.09 127.07 208.91 124.97 208.91 122.24C208.91 119.51 210.87 117.41 213.67 117.41C216.47 117.41 218.44 119.61 218.44 122.24C218.44 124.87 216.25 127.07 213.67 127.07Z" fill="#003873"/>
<path d="M223.011 116.27H221.521V128.21H226.641V126.85H223.011V116.27Z" fill="#003873"/>
<path d="M233.19 116.02C229.77 116.02 226.93 118.82 226.93 122.24C226.93 125.66 229.73 128.46 233.19 128.46C236.65 128.46 239.44 125.78 239.44 122.24C239.44 118.7 236.61 116.02 233.19 116.02V116.02ZM233.19 127.07C230.61 127.07 228.42 124.97 228.42 122.24C228.42 119.51 230.38 117.41 233.19 117.41C236 117.41 237.95 119.61 237.95 122.24C237.95 124.87 235.76 127.07 233.19 127.07Z" fill="#003873"/>
<path d="M247.19 123.56H250.28C250.21 125.51 248.22 127.11 246.37 127.11C243.79 127.11 241.73 124.73 241.73 122.23C241.73 119.55 243.82 117.39 246.5 117.39C247.95 117.39 249.4 118.17 250.25 119.34L251.29 118.34C250.12 116.87 248.28 116.03 246.43 116.03C243 116.03 240.24 118.85 240.24 122.29C240.24 125.73 242.94 128.48 246.27 128.48C249.6 128.48 251.92 125.96 251.92 122.69V122.21H247.19V123.57V123.56Z" fill="#003873"/>
<path d="M256.95 121.37L254.03 116.27H252.32L256.21 123.02V128.21H257.7V123.02L261.6 116.27H259.89L256.95 121.37Z" fill="#003873"/>
<path d="M31.7292 128.71H21.4492V55.02H31.7292V55.27H21.6992V128.46H31.7292V128.71Z" fill="#231815"/>
<path d="M31.7292 153.15H21.4492V128.7H31.7292V128.95H21.6992V152.9H31.7292V153.15Z" fill="#231815"/>
<path d="M318.831 168.4H294.391V158.12H294.641V168.15H318.581V158.12H318.831V168.4Z" fill="#231815"/>
<path d="M60.6099 25.9602H60.3599V15.9302H36.4199V25.9602H36.1699V15.6802H60.6099V25.9602Z" fill="#231815"/>
<path d="M333.729 55.0198H323.449V54.7698H333.479V30.8198H323.449V30.5698H333.729V55.0198Z" fill="#231815"/>
<path d="M15.9402 92.1998H14.9602L13.3002 89.9098L11.6402 92.1998H10.6602L12.8302 89.2898L10.7602 86.5098H11.7302L13.3102 88.6898L14.8902 86.5098H15.8702L13.7802 89.2998L15.9502 92.1998H15.9402Z" fill="#231815"/>
<path d="M3.33 140.58V141.26H0V140.58H1.25V136.55L0.09 137.27V136.51L1.6 135.57H2.08V140.59H3.33V140.58Z" fill="#231815"/>
<path d="M3.5293 141.71L5.5893 135.25H6.2993L4.2293 141.71H3.5293V141.71Z" fill="#231815"/>
<path d="M9.98914 138.82C10.1691 139.05 10.2491 139.35 10.2491 139.71C10.2491 140.21 10.0791 140.6 9.72914 140.88C9.37914 141.17 8.90914 141.31 8.30914 141.31C7.92914 141.31 7.56914 141.25 7.22914 141.13C6.88914 141.01 6.59914 140.84 6.36914 140.62L6.66914 140.01C7.17914 140.43 7.71914 140.63 8.28914 140.63C9.06914 140.63 9.45914 140.3 9.45914 139.65C9.45914 139.33 9.35914 139.09 9.15914 138.93C8.95914 138.77 8.64914 138.69 8.23914 138.69H7.53914V138.02H8.10914C8.50914 138.02 8.80914 137.94 9.00914 137.77C9.21914 137.6 9.31914 137.36 9.31914 137.05C9.31914 136.76 9.22914 136.54 9.05914 136.39C8.88914 136.24 8.63914 136.16 8.32914 136.16C7.79914 136.16 7.26914 136.37 6.74914 136.78L6.44914 136.17C6.66914 135.96 6.95914 135.79 7.29914 135.67C7.63914 135.55 7.99914 135.49 8.36914 135.49C8.89914 135.49 9.32914 135.62 9.64914 135.89C9.96914 136.15 10.1291 136.51 10.1291 136.96C10.1291 137.29 10.0491 137.57 9.89914 137.81C9.74914 138.05 9.52914 138.22 9.23914 138.33C9.56914 138.43 9.81914 138.59 9.99914 138.83L9.98914 138.82Z" fill="#231815"/>
<path d="M15.9597 141.26H14.9797L13.3197 138.97L11.6597 141.26H10.6797L12.8497 138.35L10.7797 135.57H11.7497L13.3297 137.75L14.9097 135.57H15.8897L13.7997 138.36L15.9697 141.26H15.9597Z" fill="#231815"/>
<path d="M306.211 179.54V180.22H302.881V179.54H304.131V175.51L302.971 176.23V175.47L304.481 174.53H304.961V179.55H306.211V179.54Z" fill="#231815"/>
<path d="M306.41 180.67L308.47 174.21H309.18L307.11 180.67H306.41Z" fill="#231815"/>
<path d="M312.882 177.78C313.062 178.01 313.142 178.31 313.142 178.67C313.142 179.17 312.972 179.56 312.622 179.84C312.272 180.13 311.802 180.27 311.202 180.27C310.822 180.27 310.462 180.21 310.122 180.09C309.782 179.97 309.492 179.8 309.262 179.58L309.562 178.97C310.072 179.39 310.612 179.59 311.182 179.59C311.962 179.59 312.352 179.26 312.352 178.61C312.352 178.29 312.252 178.05 312.052 177.89C311.852 177.73 311.542 177.65 311.132 177.65H310.432V176.98H311.002C311.402 176.98 311.702 176.9 311.902 176.73C312.112 176.56 312.212 176.32 312.212 176.01C312.212 175.72 312.122 175.5 311.952 175.35C311.782 175.2 311.532 175.12 311.222 175.12C310.692 175.12 310.162 175.33 309.642 175.74L309.342 175.13C309.562 174.92 309.852 174.75 310.192 174.63C310.532 174.51 310.892 174.45 311.262 174.45C311.792 174.45 312.222 174.58 312.542 174.85C312.862 175.11 313.022 175.47 313.022 175.92C313.022 176.25 312.942 176.53 312.792 176.77C312.642 177.01 312.422 177.18 312.132 177.29C312.462 177.39 312.712 177.55 312.892 177.79L312.882 177.78Z" fill="#231815"/>
<path d="M318.85 180.22H317.87L316.21 177.93L314.55 180.22H313.57L315.74 177.31L313.67 174.53H314.64L316.22 176.71L317.8 174.53H318.78L316.69 177.32L318.86 180.22H318.85Z" fill="#231815"/>
<path d="M342.631 42.4499V43.1299H339.301V42.4499H340.551V38.4199L339.391 39.1399V38.3799L340.901 37.4399H341.381V42.4599H342.631V42.4499Z" fill="#231815"/>
<path d="M342.83 43.5801L344.89 37.1201H345.6L343.53 43.5801H342.83Z" fill="#231815"/>
<path d="M349.302 40.7001C349.482 40.9301 349.562 41.2301 349.562 41.5901C349.562 42.0901 349.392 42.4801 349.042 42.7601C348.692 43.0501 348.222 43.1901 347.622 43.1901C347.242 43.1901 346.882 43.1301 346.542 43.0101C346.202 42.8901 345.912 42.7201 345.682 42.5001L345.982 41.8901C346.492 42.3101 347.032 42.5101 347.602 42.5101C348.382 42.5101 348.772 42.1801 348.772 41.5301C348.772 41.2101 348.672 40.9701 348.472 40.8101C348.272 40.6501 347.962 40.5701 347.552 40.5701H346.852V39.9001H347.422C347.822 39.9001 348.122 39.8201 348.322 39.6501C348.532 39.4801 348.632 39.2401 348.632 38.9301C348.632 38.6401 348.542 38.4201 348.372 38.2701C348.202 38.1201 347.952 38.0401 347.642 38.0401C347.112 38.0401 346.582 38.2501 346.062 38.6601L345.762 38.0501C345.982 37.8401 346.272 37.6701 346.612 37.5501C346.952 37.4301 347.312 37.3701 347.682 37.3701C348.212 37.3701 348.642 37.5001 348.962 37.7701C349.282 38.0301 349.442 38.3901 349.442 38.8401C349.442 39.1701 349.362 39.4501 349.212 39.6901C349.062 39.9301 348.842 40.1001 348.552 40.2101C348.882 40.3101 349.132 40.4701 349.312 40.7101L349.302 40.7001Z" fill="#231815"/>
<path d="M355.27 43.1299H354.29L352.63 40.8399L350.97 43.1299H349.99L352.16 40.2199L350.09 37.4399H351.06L352.64 39.6199L354.22 37.4399H355.2L353.11 40.2299L355.28 43.1299H355.27Z" fill="#231815"/>
<path d="M40.4609 5.32982V6.00982H37.1309V5.32982H38.3809V1.29982L37.2209 2.01982V1.25982L38.7309 0.319824H39.2109V5.32982H40.4609Z" fill="#231815"/>
<path d="M40.6602 6.46L42.7202 0H43.4302L41.3602 6.46H40.6602Z" fill="#231815"/>
<path d="M47.1317 3.58C47.3117 3.81 47.3917 4.11 47.3917 4.47C47.3917 4.97 47.2217 5.36 46.8717 5.64C46.5217 5.93 46.0517 6.07 45.4517 6.07C45.0717 6.07 44.7117 6.01 44.3717 5.89C44.0317 5.77 43.7417 5.6 43.5117 5.38L43.8117 4.77C44.3217 5.19 44.8617 5.39 45.4317 5.39C46.2117 5.39 46.6017 5.06 46.6017 4.41C46.6017 4.09 46.5017 3.85 46.3017 3.69C46.1017 3.53 45.7917 3.45 45.3817 3.45H44.6817V2.78H45.2517C45.6517 2.78 45.9517 2.7 46.1517 2.53C46.3617 2.36 46.4617 2.12 46.4617 1.81C46.4617 1.52 46.3717 1.3 46.2017 1.15C46.0317 1 45.7817 0.92 45.4717 0.92C44.9417 0.92 44.4117 1.13 43.8917 1.54L43.5917 0.93C43.8117 0.72 44.1017 0.55 44.4417 0.43C44.7817 0.31 45.1417 0.25 45.5117 0.25C46.0417 0.25 46.4717 0.38 46.7917 0.65C47.1117 0.91 47.2717 1.27 47.2717 1.72C47.2717 2.05 47.1917 2.33 47.0417 2.57C46.8917 2.81 46.6717 2.98 46.3817 3.09C46.7117 3.19 46.9617 3.35 47.1417 3.59L47.1317 3.58Z" fill="#231815"/>
<path d="M53.1003 6.00982H52.1203L50.4603 3.71982L48.8003 6.00982H47.8203L49.9903 3.09982L47.9203 0.319824H48.8903L50.4703 2.49982L52.0503 0.319824H53.0303L50.9403 3.10982L53.1103 6.00982H53.1003Z" fill="#231815"/>
<path d="M318.83 153.15H36.3398V30.9199H318.83V153.15ZM36.5898 152.9H318.58V31.1699H36.5898V152.9V152.9Z" fill="#231815"/>
<path d="M318.83 55.0498H36.3398V55.2998H318.83V55.0498Z" fill="#231815"/>
<path d="M318.83 128.42H36.3398V128.67H318.83V128.42Z" fill="#231815"/>
<path d="M294.16 30.9302H293.91V153.15H294.16V30.9302Z" fill="#231815"/>
<path d="M60.8809 30.9302H60.6309V153.15H60.8809V30.9302Z" fill="#231815"/>
</svg>
