<svg width="196" height="71" viewBox="0 0 196 71" fill="none" xmlns="http://www.w3.org/2000/svg">
<path d="M46.5995 70.35H39.2695V0H46.5995V0.25H39.5195V70.1H46.5995V70.35Z" fill="#231815"/>
<path d="M157.769 70.35H150.449V70.1H157.519V0.25H150.449V0H157.769V70.35Z" fill="#231815"/>
<path d="M0 30.1199H2.78C3.47 30.1199 4.01 30.2899 4.39 30.6199C4.77 30.9499 4.97 31.4099 4.97 31.9799C4.97 32.5499 4.78 33.0099 4.39 33.3499C4 33.6899 3.47 33.8499 2.78 33.8499H1.16V36.5199H0V30.1099V30.1199ZM2.65 32.9499C3.05 32.9499 3.36 32.8699 3.56 32.6999C3.76 32.5299 3.87 32.2999 3.87 31.9799C3.87 31.6599 3.77 31.4199 3.56 31.2599C3.35 31.0999 3.05 31.0099 2.64 31.0099H1.16V32.9399H2.64L2.65 32.9499Z" fill="#231815"/>
<path d="M11.2698 36.5301H10.0498L9.22976 34.4001C9.15976 34.2001 9.04977 34.0601 8.89977 33.9901C8.74977 33.9201 8.55977 33.8701 8.31977 33.8701H7.15977V36.5301H6.00977V30.1201H8.75977C9.48977 30.1201 10.0398 30.2801 10.4198 30.6001C10.7998 30.9201 10.9898 31.3701 10.9898 31.9701C10.9898 32.4001 10.8798 32.7601 10.6498 33.0501C10.4198 33.3501 10.1098 33.5601 9.68976 33.6801C10.0698 33.7601 10.3398 34.0201 10.5098 34.4701L11.2898 36.5201L11.2698 36.5301ZM8.57977 32.9701C9.01977 32.9701 9.33977 32.8901 9.54977 32.7301C9.75977 32.5701 9.85977 32.3201 9.85977 31.9901C9.85977 31.6601 9.75977 31.4201 9.54977 31.2701C9.33977 31.1201 9.01977 31.0301 8.56977 31.0301H7.11977V32.9701H8.56977H8.57977Z" fill="#231815"/>
<path d="M12.3105 30.1201H13.4705V36.5301H12.3105V30.1201Z" fill="#231815"/>
<path d="M20.2594 30.1201V36.5301H19.3994L15.9394 32.0401V36.5301H14.8594V30.1201H15.7194L19.1694 34.6001V30.1201H20.2594Z" fill="#231815"/>
<path d="M23.1603 31.0701H21.0703V30.1201H26.4203V31.0701H24.3203V36.5201H23.1503V31.0701H23.1603Z" fill="#231815"/>
<path d="M27.8205 36.41C27.3905 36.28 27.0305 36.09 26.7305 35.84L27.1305 34.99C27.4405 35.22 27.7705 35.4 28.1105 35.51C28.4505 35.62 28.8205 35.68 29.2205 35.68C29.6605 35.68 30.0105 35.6 30.2505 35.45C30.4905 35.29 30.6105 35.07 30.6105 34.79C30.6105 34.55 30.5005 34.37 30.2705 34.24C30.0405 34.11 29.6705 33.99 29.1605 33.87C28.3605 33.7 27.7705 33.47 27.4105 33.2C27.0405 32.92 26.8605 32.52 26.8605 31.99C26.8605 31.61 26.9605 31.28 27.1705 30.98C27.3805 30.68 27.6605 30.45 28.0405 30.29C28.4205 30.13 28.8505 30.04 29.3405 30.04C29.7905 30.04 30.2205 30.11 30.6205 30.24C31.0205 30.37 31.3605 30.56 31.6105 30.8L31.2205 31.65C30.6505 31.19 30.0205 30.97 29.3305 30.97C28.9205 30.97 28.5905 31.05 28.3505 31.23C28.1105 31.4 27.9905 31.63 27.9905 31.93C27.9905 32.18 28.1005 32.37 28.3105 32.51C28.5205 32.65 28.8905 32.76 29.4005 32.88C29.9305 33.01 30.3705 33.14 30.7105 33.29C31.0505 33.44 31.3005 33.63 31.4805 33.86C31.6605 34.09 31.7505 34.38 31.7505 34.73C31.7505 35.11 31.6505 35.45 31.4405 35.73C31.2305 36.01 30.9405 36.24 30.5605 36.39C30.1805 36.55 29.7205 36.62 29.2005 36.62C28.7105 36.62 28.2505 36.55 27.8205 36.42V36.41Z" fill="#231815"/>
<path d="M4.14094 40.75H5.55094V47.93H4.84094V41.45H3.71094L4.14094 40.75Z" fill="#AA8420"/>
<path d="M8.99062 42.9998H8.30062C8.33062 42.2698 8.58062 41.6798 9.03062 41.2398C9.48062 40.7998 10.0306 40.5698 10.6806 40.5698C11.3306 40.5698 11.8606 40.7798 12.2806 41.1898C12.7006 41.5998 12.9206 42.1098 12.9206 42.7198C12.9206 43.1698 12.8006 43.5798 12.5706 43.9598C12.3306 44.3398 11.9706 44.7898 11.4906 45.3098L9.70062 47.2398H13.0206V47.9298H8.14062L10.8806 44.9698C11.3606 44.4498 11.7006 44.0398 11.9106 43.7398C12.1206 43.4398 12.2206 43.0998 12.2206 42.7098C12.2206 42.3198 12.0706 41.9798 11.7606 41.6898C11.4606 41.3998 11.0806 41.2498 10.6306 41.2498C10.1806 41.2498 9.81062 41.3998 9.51062 41.7098C9.21062 42.0098 9.04062 42.4498 9.00062 42.9998H8.99062Z" fill="#AA8420"/>
<path d="M14.1309 42.62H14.8109V43.54C15.2809 42.83 15.8909 42.48 16.6309 42.48C17.0209 42.48 17.3809 42.59 17.6909 42.81C18.0009 43.03 18.2109 43.35 18.3109 43.76C18.5309 43.35 18.8109 43.03 19.1509 42.81C19.4909 42.59 19.8809 42.48 20.3309 42.48C20.7809 42.48 21.1709 42.65 21.5409 42.99C21.9009 43.33 22.0809 44.01 22.0809 45.03V47.93H21.3809V45.03C21.3809 44.54 21.3509 44.19 21.2909 43.95C21.2309 43.72 21.1009 43.53 20.9009 43.37C20.7009 43.21 20.4409 43.14 20.1109 43.14C19.7809 43.14 19.4709 43.25 19.1809 43.47C18.8909 43.69 18.7009 43.97 18.5909 44.31C18.4809 44.65 18.4309 45.16 18.4309 45.85V47.93H17.7609V45.21C17.7609 44.64 17.7309 44.24 17.6709 44C17.6109 43.76 17.4809 43.55 17.2709 43.39C17.0609 43.23 16.8109 43.14 16.5109 43.14C16.2109 43.14 15.9309 43.23 15.6709 43.4C15.4109 43.58 15.2009 43.82 15.0509 44.12C14.9009 44.42 14.8209 44.94 14.8209 45.67V47.92H14.1409V42.61L14.1309 42.62Z" fill="#AA8420"/>
<path d="M23.5117 42.62H24.1917V43.54C24.6617 42.83 25.2717 42.48 26.0117 42.48C26.4017 42.48 26.7617 42.59 27.0717 42.81C27.3817 43.03 27.5917 43.35 27.6917 43.76C27.9117 43.35 28.1917 43.03 28.5317 42.81C28.8717 42.59 29.2617 42.48 29.7117 42.48C30.1617 42.48 30.5517 42.65 30.9217 42.99C31.2817 43.33 31.4617 44.01 31.4617 45.03V47.93H30.7617V45.03C30.7617 44.54 30.7317 44.19 30.6717 43.95C30.6117 43.72 30.4817 43.53 30.2817 43.37C30.0817 43.21 29.8217 43.14 29.4917 43.14C29.1617 43.14 28.8517 43.25 28.5617 43.47C28.2717 43.69 28.0817 43.97 27.9717 44.31C27.8617 44.65 27.8117 45.16 27.8117 45.85V47.93H27.1417V45.21C27.1417 44.64 27.1117 44.24 27.0517 44C26.9917 43.76 26.8617 43.55 26.6517 43.39C26.4417 43.23 26.1917 43.14 25.8917 43.14C25.5917 43.14 25.3117 43.23 25.0517 43.4C24.7917 43.58 24.5817 43.82 24.4317 44.12C24.2817 44.42 24.2017 44.94 24.2017 45.67V47.92H23.5217V42.61L23.5117 42.62Z" fill="#AA8420"/>
<path d="M164.549 33.96C164.089 33.69 163.739 33.31 163.489 32.82C163.239 32.33 163.119 31.74 163.119 31.07C163.119 30.4 163.239 29.82 163.489 29.33C163.739 28.83 164.089 28.45 164.549 28.19C165.009 27.93 165.549 27.79 166.169 27.79C166.789 27.79 167.339 27.92 167.789 28.19C168.249 28.45 168.599 28.83 168.839 29.33C169.079 29.82 169.199 30.41 169.199 31.07C169.199 31.73 169.079 32.33 168.829 32.82C168.579 33.32 168.229 33.7 167.779 33.96C167.319 34.23 166.779 34.36 166.159 34.36C165.539 34.36 164.999 34.23 164.539 33.96H164.549ZM167.549 32.82C167.879 32.41 168.049 31.83 168.049 31.07C168.049 30.31 167.879 29.73 167.549 29.33C167.219 28.92 166.759 28.72 166.159 28.72C165.559 28.72 165.099 28.92 164.769 29.32C164.439 29.72 164.269 30.3 164.269 31.07C164.269 31.84 164.439 32.42 164.769 32.82C165.099 33.22 165.559 33.43 166.159 33.43C166.759 33.43 167.219 33.23 167.549 32.82Z" fill="#231815"/>
<path d="M175.789 27.8799V34.2899H174.929L171.469 29.7999V34.2899H170.389V27.8799H171.249L174.699 32.3599V27.8799H175.789V27.8799Z" fill="#231815"/>
<path d="M177.189 27.8801H178.349V33.3301H181.349V34.2801H177.189V27.8701V27.8801Z" fill="#231815"/>
<path d="M182.229 27.8799H183.389V34.2899H182.229V27.8799Z" fill="#231815"/>
<path d="M190.17 27.8799V34.2899H189.31L185.85 29.7999V34.2899H184.77V27.8799H185.63L189.08 32.3599V27.8799H190.17V27.8799Z" fill="#231815"/>
<path d="M191.568 27.8799H195.848V28.7999H192.698V30.5699H195.658V31.4899H192.698V33.3699H195.848V34.2899H191.568V27.8799Z" fill="#231815"/>
<path d="M167.539 38.5V39.18H164.979L164.619 41.14C164.939 41.05 165.239 41 165.519 41C166.149 41 166.669 41.22 167.089 41.67C167.509 42.11 167.719 42.68 167.719 43.38C167.719 44.08 167.489 44.66 167.029 45.15C166.569 45.64 165.969 45.87 165.219 45.87C164.649 45.87 164.159 45.7 163.749 45.36C163.349 45.02 163.109 44.55 163.029 43.95H163.759C163.849 44.35 164.029 44.66 164.299 44.87C164.569 45.08 164.889 45.19 165.249 45.19C165.719 45.19 166.129 45.01 166.479 44.66C166.829 44.31 166.999 43.87 166.999 43.34C166.999 42.86 166.849 42.46 166.549 42.16C166.249 41.85 165.859 41.7 165.379 41.7C164.899 41.7 164.359 41.83 163.779 42.08L164.449 38.52H167.559L167.539 38.5Z" fill="#AA8420"/>
<path d="M170.9 45.8601C170.13 45.8601 169.53 45.5401 169.11 44.9001C168.69 44.2601 168.49 43.3201 168.49 42.0801C168.49 40.8401 168.7 39.9001 169.11 39.2701C169.52 38.6401 170.12 38.3101 170.89 38.3101C171.66 38.3101 172.27 38.6401 172.71 39.2801C173.16 39.9301 173.39 40.8601 173.39 42.0701C173.39 43.2801 173.16 44.2201 172.71 44.8701C172.26 45.5201 171.65 45.8401 170.9 45.8401V45.8601ZM170.92 39.0001C170.37 39.0001 169.94 39.2701 169.63 39.8001C169.32 40.3301 169.17 41.1001 169.17 42.1101C169.17 44.1801 169.75 45.2101 170.92 45.2101C171.49 45.2101 171.93 44.9401 172.25 44.4001C172.57 43.8601 172.72 43.0901 172.72 42.0901C172.72 41.0901 172.56 40.3301 172.23 39.8001C171.9 39.2701 171.47 39.0001 170.92 39.0001V39.0001Z" fill="#AA8420"/>
<path d="M176.969 40.37H177.649V41.34C178.189 40.6 178.889 40.23 179.759 40.23C180.509 40.23 181.149 40.5 181.689 41.06C182.229 41.61 182.499 42.27 182.499 43.04C182.499 43.81 182.229 44.48 181.699 45.03C181.169 45.58 180.529 45.86 179.779 45.86C178.969 45.86 178.259 45.5 177.649 44.77V47.62H176.969V40.37V40.37ZM181.819 43.05C181.819 42.46 181.609 41.95 181.199 41.53C180.789 41.11 180.289 40.9 179.699 40.9C179.109 40.9 178.609 41.11 178.199 41.52C177.799 41.94 177.599 42.45 177.599 43.06C177.599 43.67 177.809 44.19 178.219 44.6C178.629 45.02 179.129 45.22 179.699 45.22C180.269 45.22 180.769 45.01 181.189 44.59C181.609 44.17 181.809 43.65 181.809 43.04L181.819 43.05Z" fill="#AA8420"/>
<path d="M185.409 43.4601L183.869 45.6801H183.059L184.999 42.8801L183.249 40.3701H184.069L185.409 42.2901L186.739 40.3701H187.559L185.819 42.8701L187.789 45.6801H186.959L185.409 43.4601V43.4601Z" fill="#AA8420"/>
<path d="M107.4 49.6402L101.62 39.9602C101.62 39.9602 101.44 39.7402 101.44 39.3702V21.4302H99.2605V39.9402C99.4405 40.1202 103.08 46.3602 103.08 46.3602H94.0505C94.0505 46.3602 97.6905 40.1302 97.8705 39.9402V21.4302H95.6905V39.3702C95.6905 39.7302 95.5105 39.9602 95.5105 39.9602L89.7305 49.6402H107.41H107.4Z" fill="#AA8420"/>
<path d="M105.61 8.89C105.61 8.89 106.7 4.37 102.81 1.4C102.81 1.4 101.26 0 98.3005 0C95.6605 0 94.1104 1.4 94.1104 1.4C90.5404 3.9 91.4704 8.89 91.4704 8.89H105.61Z" fill="#AA8420"/>
<path d="M91.9106 10.1301H105.201C105.301 9.8801 105.391 9.6201 105.471 9.3501H91.6406C91.7106 9.6201 91.8106 9.8801 91.9106 10.1301" fill="#AA8420"/>
<path d="M104.989 10.6001H92.1191C92.2491 10.8701 92.3991 11.1301 92.5591 11.3801H104.539C104.699 11.1301 104.849 10.8701 104.979 10.6001" fill="#AA8420"/>
<path d="M93.4306 12.4701H103.671C103.861 12.2701 104.041 12.0601 104.211 11.8501H92.8906C93.0606 12.0701 93.2406 12.2801 93.4306 12.4701" fill="#AA8420"/>
<path d="M94.5397 13.4099H102.57C102.78 13.2599 102.98 13.1099 103.18 12.9399H93.9297C94.1197 13.1099 94.3297 13.2599 94.5397 13.4099Z" fill="#AA8420"/>
<path d="M95.6506 14.0298C96.5406 14.4298 97.5206 14.6498 98.5506 14.6498C99.5806 14.6498 100.571 14.4298 101.451 14.0298H95.6406H95.6506Z" fill="#AA8420"/>
<path d="M112.34 15H101.46C101.46 15 100.45 15 99.6496 15.55C99.0296 15.98 98.5896 16.97 98.5596 17.02C98.5596 17.02 98.0996 15.98 97.4696 15.55C96.6696 15 95.6596 15 95.6596 15H84.7796L82.5996 18.49H92.5596C92.5596 18.49 92.8596 18.49 93.0396 18.52C93.3296 18.57 93.8496 18.73 94.3896 19.12C95.1296 19.65 95.3296 19.93 95.5196 20.11C95.6096 20.2 95.8396 20.52 95.8396 20.52H101.28C101.28 20.52 101.51 20.21 101.6 20.11C101.78 19.93 101.99 19.65 102.73 19.12C103.27 18.73 103.78 18.58 104.08 18.52C104.26 18.49 104.56 18.49 104.56 18.49H114.52L112.34 15V15Z" fill="#003477"/>
<path d="M83.6992 19.5601V36.1601C83.6992 36.3401 83.7092 36.5001 83.7292 36.6501C83.9092 38.4101 84.4492 39.7001 85.4692 41.4101C87.0692 44.0901 89.9692 45.9601 89.9692 45.9601L91.3392 43.7801C91.3392 43.7801 89.4892 42.7901 88.0092 40.5201C87.7092 40.0701 87.4092 39.6401 87.2092 39.2201C87.0192 38.8201 86.8692 38.4901 86.7592 38.1501C86.6792 37.9001 86.6092 37.6701 86.5592 37.4601C86.4892 37.1501 86.4492 36.9201 86.4292 36.6401C86.4292 36.5401 86.4092 36.1301 86.4092 36.1301V19.5801H83.7092L83.6992 19.5601Z" fill="#003477"/>
<path d="M87.8398 19.5601V36.1101C87.8398 36.1101 87.8398 36.1801 87.8398 36.2501C87.8398 36.3301 87.8499 36.4501 87.8699 36.5401C87.8699 36.6001 87.8898 36.6701 87.8998 36.7101C87.9498 36.9701 88.0099 37.2001 88.1199 37.5401C88.3099 38.1001 88.6298 38.7701 89.1098 39.5401C90.3298 41.5201 92.0998 42.4301 92.0998 42.4301L93.4598 40.3001C93.4598 40.3001 93.0098 40.0501 92.4598 39.5201C92.0998 39.1701 91.6598 38.7101 91.2898 38.1501C90.9298 37.5901 90.7098 37.0201 90.5798 36.5901C90.4698 36.2301 90.4598 35.9501 90.4498 35.7601C90.4498 35.6101 90.4498 35.5201 90.4498 35.5201V19.5601H87.8398Z" fill="#003477"/>
<path d="M113.419 19.5601V36.1601C113.419 36.3401 113.409 36.5001 113.389 36.6501C113.209 38.4101 112.669 39.7001 111.649 41.4101C110.049 44.0901 107.149 45.9601 107.149 45.9601L105.779 43.7801C105.779 43.7801 107.629 42.7901 109.109 40.5201C109.409 40.0701 109.709 39.6401 109.909 39.2201C110.099 38.8201 110.249 38.4901 110.359 38.1501C110.439 37.9001 110.509 37.6701 110.559 37.4601C110.629 37.1501 110.669 36.9201 110.689 36.6401C110.689 36.5401 110.709 36.1301 110.709 36.1301V19.5801H113.409L113.419 19.5601Z" fill="#003477"/>
<path d="M109.28 19.5601V36.1101C109.28 36.1101 109.28 36.1801 109.28 36.2501C109.28 36.3301 109.27 36.4501 109.25 36.5401C109.25 36.6001 109.23 36.6701 109.22 36.7101C109.17 36.9701 109.11 37.2001 109 37.5401C108.81 38.1001 108.49 38.7701 108.01 39.5401C106.79 41.5201 105.02 42.4301 105.02 42.4301L103.66 40.3001C103.66 40.3001 104.11 40.0501 104.66 39.5201C105.02 39.1701 105.46 38.7101 105.83 38.1501C106.19 37.5901 106.41 37.0201 106.54 36.5901C106.65 36.2301 106.66 35.9501 106.67 35.7601C106.67 35.6101 106.67 35.5201 106.67 35.5201V19.5601H109.28Z" fill="#003477"/>
<path d="M72.9795 62.4097H66.2695V57.2197H64.5195V70.0797H66.2695V63.9097H72.9795V70.0797H74.7395V57.2197H72.9795V62.4097Z" fill="#003477"/>
<path d="M91.1394 57.2197H88.8394L82.8594 62.7997V57.2197H81.1094V70.0797H82.8594V64.7097L83.5694 64.0897L88.8794 70.0797H91.2494L84.8094 62.9997L91.1394 57.2197Z" fill="#003477"/>
<path d="M104.46 64.8097C104.46 66.9097 103.77 68.8497 101.06 68.8497C98.3504 68.8497 97.6604 66.9097 97.6604 64.8097V57.2197H95.9004V65.3497C95.9004 68.1797 97.8304 70.3397 101.06 70.3397C104.29 70.3397 106.22 68.1797 106.22 65.3497V57.2197H104.46V64.8097V64.8097Z" fill="#003477"/>
<path d="M117.089 62.48L116.079 62.12C115.199 61.81 114.119 61.28 114.119 60.28C114.119 59.16 115.349 58.46 116.469 58.46C117.529 58.46 118.209 58.87 118.729 59.67L120.129 58.9C119.359 57.66 118.069 56.96 116.509 56.96C114.379 56.96 112.359 58.2 112.359 60.28C112.359 62.07 113.819 62.91 115.429 63.54L116.399 63.92C117.609 64.38 118.829 64.98 118.829 66.36C118.829 67.74 117.749 68.87 116.229 68.87C114.709 68.87 113.489 67.85 113.499 66.43L111.719 66.77C112.019 68.83 113.799 70.37 116.079 70.37C118.599 70.37 120.579 68.7 120.579 66.36C120.579 64.21 119.089 63.21 117.079 62.49L117.089 62.48Z" fill="#003477"/>
<path d="M125.029 57.2197V58.6897H128.379V70.0797H130.129V58.6897H133.479V57.2197H125.029Z" fill="#003477"/>
</svg>
