<svg width="234" height="124" viewBox="0 0 234 124" fill="none" xmlns="http://www.w3.org/2000/svg">
<path d="M22.2187 77.76H14.8887V50.04H22.2187V50.29H15.1387V77.51H22.2187V77.76Z" fill="#231815"/>
<path d="M22.2187 105.12H14.8887V77.6401H22.2187V77.8901H15.1387V104.87H22.2187V105.12Z" fill="#231815"/>
<path d="M212.989 114.53H185.779V107.21H186.029V114.28H212.739V107.21H212.989V114.53Z" fill="#231815"/>
<path d="M222.119 50.2603H214.799V50.0103H221.869V23.3003H214.799V23.0503H222.119V50.2603Z" fill="#231815"/>
<path d="M51.4897 21.5502H51.2397V14.4702H24.0098V21.5502H23.7598V14.2202H51.4897V21.5502Z" fill="#231815"/>
<path d="M10.9695 65.5899H9.98944L8.32944 63.2999L6.66946 65.5899H5.68945L7.85944 62.6799L5.78946 59.8999H6.75946L8.33945 62.0799L9.91946 59.8999H10.8994L8.80945 62.6899L10.9795 65.5899H10.9695Z" fill="#231815"/>
<path d="M30.5194 5.40012V6.08011H27.1895V5.40012H28.4395V1.37012L27.2794 2.09012V1.33011L28.7895 0.390137H29.2694V5.41013H30.5194V5.40012Z" fill="#231815"/>
<path d="M36.1902 6.08011H35.2101L33.5501 3.79013L31.8902 6.08011H30.9102L33.0801 3.17014L31.0102 0.390137H31.9802L33.5602 2.57013L35.1402 0.390137H36.1201L34.0302 3.18011L36.2002 6.08011H36.1902Z" fill="#231815"/>
<path d="M228.199 38.1902V38.8702H224.869V38.1902H226.119V34.1602L224.959 34.8802V34.1202L226.469 33.1802H226.949V38.2002H228.199V38.1902Z" fill="#231815"/>
<path d="M233.87 38.8702H232.89L231.23 36.5802L229.57 38.8702H228.59L230.76 35.9602L228.69 33.1802H229.66L231.24 35.3602L232.82 33.1802H233.8L231.71 35.9702L233.88 38.8702H233.87Z" fill="#231815"/>
<path d="M4.02921 92.9099V93.5899H0.699219V92.9099H1.94922V88.8799L0.789215 89.5999V88.8399L2.29919 87.8999H2.77921V92.9199H4.02921V92.9099Z" fill="#231815"/>
<path d="M9.69992 93.5899H8.71991L7.05991 91.2999L5.3999 93.5899H4.41992L6.5899 90.6799L4.5199 87.8999H5.4899L7.06992 90.0799L8.6499 87.8999H9.62991L7.53992 90.6899L9.7099 93.5899H9.69992Z" fill="#231815"/>
<path d="M198.709 122.78V123.46H195.379V122.78H196.629V118.75L195.469 119.47V118.71L196.979 117.77H197.459V122.79H198.709V122.78Z" fill="#231815"/>
<path d="M204.38 123.46H203.4L201.74 121.17L200.08 123.46H199.1L201.27 120.55L199.2 117.77H200.17L201.75 119.95L203.33 117.77H204.31L202.22 120.56L204.39 123.46H204.38Z" fill="#231815"/>
<path d="M213.01 105.12H23.8398V23.0503H213.01V105.12ZM24.0898 104.87H212.76V23.3003H24.0898V104.87Z" fill="#231815"/>
<path d="M51.4883 23.0503H51.2383V105.12H51.4883V23.0503Z" fill="#231815"/>
<path d="M186.029 23.0503H185.779V105.12H186.029V23.0503Z" fill="#231815"/>
<path d="M212.799 50.04H24.2188V50.29H212.799V50.04Z" fill="#231815"/>
<path d="M212.799 77.6401H24.2188V77.8901H212.799V77.6401Z" fill="#231815"/>
<path d="M78.6388 58.9199V56.5099H66.3788V54.0699C70.2888 53.7399 73.5588 53.2999 76.1988 52.7599L74.9488 50.3799C70.9788 51.2699 65.1287 51.7199 57.3987 51.7199C55.7687 51.7199 54.4087 51.6999 53.3087 51.6599L54.2687 54.3299C56.1687 54.3299 59.2887 54.2699 63.6487 54.1599V56.5099H51.7087V58.9199H60.6787C58.0687 61.1099 54.9987 62.6299 51.4688 63.4799L52.8587 66.0599C54.0187 65.6699 54.8487 65.3799 55.3287 65.1599V77.6199H58.0287V76.2799H72.3287V77.6199H75.0287V65.0199C75.4187 65.2299 75.8387 65.4099 76.3087 65.5399C76.7687 65.6799 77.1987 65.8299 77.5887 65.9999L78.8687 63.3599C74.6887 62.5199 71.4888 61.0399 69.2888 58.9199H78.6388V58.9199ZM57.0287 64.3499C59.7587 63.1899 61.9587 61.4099 63.6487 59.0099V64.3499H57.0287ZM72.3287 73.8699H58.0388V71.3199H72.3287V73.8699ZM72.3287 68.9899H58.0388V66.7799H72.3287V68.9899ZM73.5388 64.3399H66.3687V58.9699C68.1887 61.3899 70.5788 63.1799 73.5388 64.3399Z" fill="#003477"/>
<path d="M87.3496 74.8999L89.6696 77.2799C91.3296 74.6499 92.5596 71.7699 93.3596 68.6299L90.8296 67.1499C90.2096 69.8999 89.0496 72.4799 87.3496 74.9099V74.8999Z" fill="#003477"/>
<path d="M93.5283 61.4299C92.0383 60.2799 90.6083 59.3499 89.2283 58.6099L87.4883 60.7899C88.6383 61.5499 89.9883 62.5899 91.5583 63.9299L93.5283 61.4399V61.4299Z" fill="#003477"/>
<path d="M108.689 71.3303V65.3803C109.849 66.4203 111.319 67.4803 113.099 68.5403L114.349 65.9603C111.209 64.4103 109.259 62.8503 108.489 61.2803H114.029V58.8403H108.799V55.8503H113.589V53.5503H108.799V50.5303H106.189V53.5503H100.909V50.5303H98.2488V53.5503H94.3889V53.9303C93.2489 53.0603 91.8588 52.1003 90.2088 51.0603L88.2988 53.2103C89.5888 54.0203 91.0388 55.1603 92.6188 56.6003L94.3889 54.3903V55.9603H98.2488V58.8603H93.7988V61.3003H98.4489C97.5989 63.1203 95.5688 64.7503 92.3588 66.2003L94.0089 68.6403C95.3089 67.8303 96.1988 67.2203 96.6788 66.8103V73.3103C96.6788 74.6303 96.9188 75.5303 97.3988 76.0103C97.8988 76.4803 98.7689 76.7103 100.009 76.7103H109.409C110.899 76.7103 111.899 76.4503 112.399 75.9303C112.919 75.3903 113.339 73.7703 113.649 71.0803L110.859 70.0603C110.729 71.5903 110.579 72.6603 110.429 73.2803C110.269 73.8803 109.789 74.1803 108.979 74.1803H100.359C99.6788 74.1803 99.3488 73.8403 99.3488 73.1603V71.3003H108.689V71.3303ZM100.909 56.0003H106.189V58.8503H100.909V56.0003ZM101.539 61.2803H105.459C105.999 62.3103 106.589 63.1803 107.229 63.8903H99.8288C100.549 63.1303 101.119 62.2603 101.539 61.2803ZM99.3288 69.0303V66.1903H106.009V69.0303H99.3288Z" fill="#003477"/>
<path d="M143.299 63.0099C141.169 61.3799 139.379 60.1899 137.929 59.4399L136.219 61.3799C137.749 62.2899 139.509 63.5799 141.499 65.2399L143.299 62.9999V63.0099Z" fill="#003477"/>
<path d="M143.849 56.0102C141.569 54.3502 139.789 53.1702 138.529 52.4702L136.789 54.3802C138.129 55.1902 139.869 56.4602 142.019 58.1802L143.849 56.0002V56.0102Z" fill="#003477"/>
<path d="M131.119 60.8902V60.6302H135.529V58.1302H131.119V54.0402C132.649 53.7302 134.109 53.3302 135.509 52.8502L134.519 50.4702C131.409 51.6502 127.679 52.3502 123.339 52.5602L123.949 55.0002C125.919 54.8602 127.429 54.7002 128.449 54.5002V58.1302H123.049V60.6302H128.359C127.139 63.8402 125.309 66.8402 122.869 69.6002L124.499 72.2202C126.399 69.7402 127.709 67.5702 128.449 65.7202V77.6502L131.119 77.5302V64.0602C131.639 64.7602 132.149 65.4102 132.659 66.0002C133.239 66.6602 133.819 67.3902 134.399 68.2102L136.029 65.7202C134.929 64.5202 133.289 62.9102 131.119 60.9002V60.8902Z" fill="#003477"/>
<path d="M147.619 50.29H144.919V66.99L135.189 68.43V71.14L144.919 69.66V77.64H147.619V69.31L150.229 68.87V66.23L147.619 66.67V50.29Z" fill="#003477"/>
<path d="M179.109 68.0901C177.469 65.5001 176.419 63.0201 175.969 60.6601L185.259 60.6901V57.6201H172.949C173.099 56.0901 173.179 53.6601 173.179 50.3301H170.129C170.129 53.4301 169.999 55.8501 169.749 57.6201H159.239V60.6901H169.259C168.789 63.4201 167.589 66.0601 165.629 68.6201C163.659 71.1701 161.289 73.2301 158.549 74.8101L160.759 77.5701C167.259 73.2901 171.159 67.6601 172.459 60.6701H172.919C174.859 68.4701 178.429 74.0801 183.659 77.5101L185.899 74.8401C183.019 72.9401 180.749 70.7001 179.109 68.1001V68.0901Z" fill="#003477"/>
</svg>
