<svg width="280" height="34" viewBox="0 0 280 34" fill="none" xmlns="http://www.w3.org/2000/svg">
<path d="M45.6208 33.15H38.3008V0.47998H45.6208V0.72998H38.5508V32.9H45.6208V33.15Z" fill="#231815"/>
<path d="M239.971 33.15H232.641V32.9H239.721V0.72998H232.641V0.47998H239.971V33.15Z" fill="#231815"/>
<path d="M0 8.70996H2.56C3.22 8.70996 3.73 8.86996 4.1 9.18996C4.47 9.50996 4.65 9.94996 4.65 10.5C4.65 11.05 4.46 11.5 4.09 11.82C3.72 12.14 3.21 12.3 2.55 12.3H0.74V15.12H0V8.70996ZM2.49 11.69C2.96 11.69 3.32 11.59 3.56 11.38C3.8 11.18 3.92 10.88 3.92 10.5C3.92 10.12 3.8 9.81996 3.56 9.61996C3.32 9.41996 2.96 9.31996 2.49 9.31996H0.74V11.69H2.5H2.49Z" fill="#231815"/>
<path d="M10.8891 15.1197H10.1091L9.31914 12.9897C9.21914 12.7297 9.08914 12.5497 8.91914 12.4597C8.74914 12.3697 8.50914 12.3297 8.19914 12.3297H6.59914V15.1297H5.86914V8.71973H8.41914C9.10914 8.71973 9.63914 8.86973 10.0091 9.17973C10.3791 9.48973 10.5591 9.92973 10.5591 10.4997C10.5591 10.9197 10.4491 11.2697 10.2291 11.5597C10.0091 11.8497 9.68914 12.0497 9.27914 12.1697C9.46914 12.1997 9.61914 12.2797 9.75914 12.4097C9.88914 12.5397 9.99914 12.7197 10.0891 12.9597L10.8991 15.1297L10.8891 15.1197ZM8.33914 11.7097C9.31914 11.7097 9.81914 11.3097 9.81914 10.4997C9.81914 10.0997 9.69914 9.80973 9.45914 9.60973C9.21914 9.41973 8.84914 9.31973 8.33914 9.31973H6.58914V11.6997H8.33914V11.7097Z" fill="#231815"/>
<path d="M12.0996 8.70996H12.8396V15.12H12.0996V8.70996Z" fill="#231815"/>
<path d="M19.5599 8.70996V15.12H18.9799L15.1099 9.95996V15.12H14.4199V8.70996H14.9899L18.8599 13.87V8.70996H19.5599Z" fill="#231815"/>
<path d="M22.6792 9.33996H20.4492V8.70996H25.6592V9.33996H23.4292V15.12H22.6792V9.33996Z" fill="#231815"/>
<path d="M25.9805 14.3799L26.2605 13.8099C26.5805 14.0799 26.9005 14.2699 27.2305 14.3899C27.5605 14.4999 27.9405 14.5599 28.3805 14.5599C28.9005 14.5599 29.2905 14.4599 29.5705 14.2599C29.8505 14.0599 29.9905 13.7799 29.9905 13.4099C29.9905 13.1899 29.9205 13.0199 29.7905 12.8799C29.6605 12.7399 29.4805 12.6399 29.2605 12.5599C29.0405 12.4799 28.7505 12.3999 28.3805 12.3199C27.8905 12.2099 27.4805 12.0899 27.1705 11.9699C26.8505 11.8399 26.5905 11.6599 26.4005 11.4299C26.2105 11.1999 26.1005 10.8799 26.1005 10.4999C26.1005 10.1199 26.2005 9.8099 26.3905 9.5299C26.5805 9.2499 26.8505 9.0299 27.2005 8.8799C27.5505 8.7199 27.9605 8.6499 28.4305 8.6499C28.8705 8.6499 29.2905 8.7199 29.6705 8.8599C30.0505 8.9999 30.3805 9.1999 30.6405 9.4599L30.3505 10.0299C30.0505 9.7699 29.7505 9.5799 29.4405 9.4599C29.1305 9.3399 28.7905 9.2799 28.4305 9.2799C27.9305 9.2799 27.5405 9.3899 27.2605 9.5999C26.9805 9.8099 26.8405 10.0999 26.8405 10.4799C26.8405 10.7999 26.9605 11.0499 27.2105 11.2099C27.4605 11.3699 27.8305 11.5099 28.3405 11.6299C28.8905 11.7599 29.3305 11.8799 29.6405 11.9899C29.9605 12.0999 30.2205 12.2699 30.4305 12.4899C30.6405 12.7199 30.7405 13.0099 30.7405 13.3899C30.7405 13.7699 30.6405 14.0699 30.4505 14.3399C30.2605 14.6099 29.9805 14.8199 29.6305 14.9699C29.2705 15.1199 28.8505 15.1999 28.3805 15.1999C27.3805 15.1999 26.5805 14.9299 25.9905 14.3899L25.9805 14.3799Z" fill="#231815"/>
<path d="M10.1302 24.1099C10.3902 24.4199 10.5102 24.7899 10.5102 25.2299C10.5102 25.8399 10.2802 26.3099 9.82016 26.6599C9.36016 27.0099 8.74016 27.1899 7.96016 27.1899C7.18016 27.1899 6.56016 27.0099 6.10016 26.6599C5.64016 26.3099 5.41016 25.8299 5.41016 25.2299C5.41016 24.7999 5.54016 24.4199 5.81016 24.1099C6.07016 23.7999 6.43016 23.5799 6.89016 23.4599C6.46016 23.3299 6.14016 23.1299 5.91016 22.8399C5.68016 22.5499 5.57016 22.2099 5.57016 21.8199C5.57016 21.4299 5.67016 21.1099 5.87016 20.8199C6.07016 20.5299 6.35016 20.3199 6.71016 20.1599C7.07016 19.9999 7.49016 19.9199 7.96016 19.9199C8.43016 19.9199 8.84016 19.9999 9.21016 20.1599C9.58016 20.3199 9.86016 20.5399 10.0502 20.8199C10.2502 21.0999 10.3502 21.4299 10.3502 21.8199C10.3502 22.2099 10.2302 22.5499 10.0002 22.8399C9.77016 23.1299 9.45016 23.3399 9.04016 23.4599C9.51016 23.5899 9.87016 23.7999 10.1202 24.1199L10.1302 24.1099ZM9.25016 26.1599C9.55016 25.9299 9.70016 25.5999 9.70016 25.1699C9.70016 24.7799 9.54016 24.4599 9.23016 24.2299C8.91016 23.9899 8.49016 23.8499 7.96016 23.7899C7.43016 23.8399 7.01016 23.9899 6.70016 24.2299C6.39016 24.4699 6.22016 24.7799 6.22016 25.1699C6.22016 25.5999 6.37016 25.9299 6.67016 26.1599C6.97016 26.3899 7.40016 26.4999 7.96016 26.4999C8.52016 26.4999 8.95016 26.3899 9.25016 26.1599ZM6.82016 22.7799C7.10016 23.0199 7.49016 23.1599 7.96016 23.2199C8.44016 23.1699 8.82016 23.0199 9.11016 22.7799C9.39016 22.5399 9.53016 22.2399 9.53016 21.8599C9.53016 21.4799 9.39016 21.1599 9.11016 20.9299C8.83016 20.6999 8.45016 20.5899 7.95016 20.5899C7.45016 20.5899 7.07016 20.6999 6.80016 20.9299C6.52016 21.1599 6.38016 21.4699 6.38016 21.8599C6.38016 22.2499 6.52016 22.5499 6.80016 22.7799H6.82016Z" fill="#AA8420"/>
<path d="M21.6093 23.9597V27.1197H20.7993V23.9997C20.7993 23.5297 20.7193 23.1797 20.5493 22.9697C20.3893 22.7597 20.1193 22.6497 19.7593 22.6497C19.3293 22.6497 18.9993 22.7897 18.7593 23.0797C18.5193 23.3697 18.3993 23.7597 18.3993 24.2497V27.1197H17.5893V23.9997C17.5893 23.5297 17.5093 23.1897 17.3393 22.9797C17.1693 22.7597 16.9093 22.6497 16.5393 22.6497C16.1093 22.6497 15.7793 22.7897 15.5393 23.0797C15.2993 23.3697 15.1693 23.7597 15.1693 24.2497V27.1197H14.3593V23.4997C14.3593 22.9797 14.3293 22.5097 14.2793 22.0897H15.0493L15.1293 22.9697C15.2693 22.6497 15.4793 22.3997 15.7493 22.2297C16.0293 22.0597 16.3493 21.9697 16.7093 21.9697C17.1093 21.9697 17.4393 22.0497 17.6893 22.2097C17.9393 22.3697 18.1293 22.6197 18.2493 22.9497C18.3993 22.6497 18.6293 22.4097 18.9193 22.2397C19.2093 22.0697 19.5493 21.9697 19.9193 21.9697C21.0293 21.9697 21.5893 22.6297 21.5893 23.9597H21.6093Z" fill="#AA8420"/>
<path d="M30.4003 23.9597V27.1197H29.5903V23.9997C29.5903 23.5297 29.5103 23.1797 29.3403 22.9697C29.1803 22.7597 28.9103 22.6497 28.5503 22.6497C28.1203 22.6497 27.7903 22.7897 27.5503 23.0797C27.3103 23.3697 27.1903 23.7597 27.1903 24.2497V27.1197H26.3803V23.9997C26.3803 23.5297 26.3003 23.1897 26.1303 22.9797C25.9603 22.7597 25.7003 22.6497 25.3303 22.6497C24.9003 22.6497 24.5703 22.7897 24.3303 23.0797C24.0903 23.3697 23.9603 23.7597 23.9603 24.2497V27.1197H23.1503V23.4997C23.1503 22.9797 23.1203 22.5097 23.0703 22.0897H23.8403L23.9203 22.9697C24.0603 22.6497 24.2703 22.3997 24.5403 22.2297C24.8203 22.0597 25.1403 21.9697 25.5003 21.9697C25.9003 21.9697 26.2303 22.0497 26.4803 22.2097C26.7303 22.3697 26.9203 22.6197 27.0403 22.9497C27.1903 22.6497 27.4203 22.4097 27.7103 22.2397C28.0003 22.0697 28.3403 21.9697 28.7103 21.9697C29.8203 21.9697 30.3803 22.6297 30.3803 23.9597H30.4003Z" fill="#AA8420"/>
<path d="M248.79 14.7899C248.35 14.5299 248.01 14.1499 247.78 13.6499C247.54 13.1599 247.42 12.5699 247.42 11.9099C247.42 11.2499 247.54 10.6599 247.77 10.1599C248 9.65989 248.34 9.28988 248.78 9.02988C249.22 8.76988 249.74 8.62988 250.34 8.62988C250.94 8.62988 251.46 8.75988 251.9 9.02988C252.34 9.28988 252.67 9.66989 252.91 10.1599C253.14 10.6499 253.26 11.2299 253.26 11.8999C253.26 12.5699 253.14 13.1499 252.9 13.6499C252.66 14.1399 252.32 14.5199 251.89 14.7899C251.45 15.0599 250.94 15.1899 250.34 15.1899C249.74 15.1899 249.23 15.0599 248.79 14.7899V14.7899ZM251.92 13.8599C252.3 13.3999 252.49 12.7399 252.49 11.8999C252.49 11.0599 252.3 10.3999 251.93 9.94988C251.56 9.49988 251.03 9.26988 250.34 9.26988C249.65 9.26988 249.12 9.49988 248.75 9.95988C248.38 10.4199 248.18 11.0699 248.18 11.9099C248.18 12.7499 248.37 13.4099 248.75 13.8699C249.13 14.3299 249.66 14.5599 250.34 14.5599C251.02 14.5599 251.55 14.3299 251.92 13.8699V13.8599Z" fill="#231815"/>
<path d="M259.74 8.70996V15.12H259.16L255.29 9.95996V15.12H254.6V8.70996H255.17L259.04 13.87V8.70996H259.74Z" fill="#231815"/>
<path d="M261.311 8.70996H262.051V14.49H265.261V15.12H261.311V8.70996Z" fill="#231815"/>
<path d="M266.221 8.70996H266.961V15.12H266.221V8.70996Z" fill="#231815"/>
<path d="M273.679 8.70996V15.12H273.099L269.229 9.95996V15.12H268.539V8.70996H269.109L272.979 13.87V8.70996H273.679Z" fill="#231815"/>
<path d="M275.25 8.70971H279.3V9.31971H275.98V11.5497H279.12V12.1697H275.98V14.4997H279.3V15.1097H275.25V8.69971V8.70971Z" fill="#231815"/>
<path d="M252.53 25.57H251.45V27.12H250.63V25.57H247.35V24.95L250.78 20H251.45V24.89H252.53V25.57ZM250.63 24.89V21.39L248.2 24.89H250.63Z" fill="#AA8420"/>
<path d="M254.009 26.2699C253.589 25.6499 253.369 24.7499 253.369 23.5599C253.369 22.3699 253.579 21.4599 254.009 20.8399C254.429 20.2199 255.049 19.9199 255.859 19.9199C256.669 19.9199 257.289 20.2299 257.719 20.8399C258.139 21.4599 258.349 22.3599 258.349 23.5499C258.349 24.7399 258.139 25.6499 257.719 26.2699C257.299 26.8899 256.679 27.1999 255.859 27.1999C255.039 27.1999 254.429 26.8899 254.009 26.2799V26.2699ZM257.119 25.7799C257.389 25.2999 257.529 24.5499 257.529 23.5399C257.529 22.5299 257.399 21.7899 257.129 21.3199C256.859 20.8499 256.439 20.6099 255.869 20.6099C255.299 20.6099 254.889 20.8499 254.619 21.3199C254.349 21.7899 254.209 22.5299 254.209 23.5399C254.209 24.5499 254.349 25.2899 254.619 25.7799C254.889 26.2599 255.309 26.4999 255.869 26.4999C256.429 26.4999 256.859 26.2599 257.119 25.7799V25.7799Z" fill="#AA8420"/>
<path d="M265.93 22.2997C266.27 22.5197 266.53 22.8297 266.72 23.2297C266.91 23.6297 267 24.0797 267 24.6097C267 25.1397 266.91 25.5797 266.72 25.9697C266.53 26.3597 266.27 26.6597 265.93 26.8797C265.59 27.0897 265.2 27.1997 264.76 27.1997C264.37 27.1997 264.02 27.1097 263.73 26.9397C263.44 26.7697 263.21 26.5197 263.06 26.1997V29.2897H262.25V23.5097C262.25 22.9897 262.22 22.5197 262.17 22.0997H262.94L263.02 23.0697C263.16 22.7197 263.38 22.4497 263.69 22.2597C263.99 22.0697 264.35 21.9697 264.77 21.9697C265.21 21.9697 265.6 22.0797 265.94 22.2997H265.93ZM265.76 26.0197C266.03 25.6897 266.16 25.2097 266.16 24.5997C266.16 23.9897 266.02 23.5097 265.75 23.1597C265.48 22.8197 265.1 22.6497 264.61 22.6497C264.12 22.6497 263.73 22.8197 263.46 23.1497C263.19 23.4797 263.06 23.9597 263.06 24.5797C263.06 25.1997 263.19 25.6797 263.46 26.0097C263.73 26.3497 264.11 26.5197 264.61 26.5197C265.11 26.5197 265.49 26.3497 265.76 26.0197V26.0197Z" fill="#AA8420"/>
<path d="M272.61 27.1199H271.64L270.05 25.1398L268.48 27.1199H267.49L269.58 24.5298L267.61 22.0898H268.59L270.05 23.9398L271.51 22.0898H272.5L270.54 24.5298L272.61 27.1199V27.1199Z" fill="#AA8420"/>
<path d="M75.18 33.1498L71.36 26.7798C71.36 26.7798 71.24 26.6298 71.24 26.3898V14.5898H69.8V26.7698C69.92 26.8898 72.32 30.9898 72.32 30.9898H66.36C66.36 30.9898 68.76 26.8898 68.88 26.7698V14.5898H67.44V26.3898C67.44 26.6298 67.32 26.7798 67.32 26.7798L63.5 33.1498H75.18Z" fill="#AA8420"/>
<path d="M73.9892 6.32998C73.9892 6.32998 74.7092 3.34998 72.1392 1.39998C72.1392 1.39998 71.1092 0.47998 69.1592 0.47998C67.4192 0.47998 66.3892 1.39998 66.3892 1.39998C64.0292 3.03998 64.6392 6.32998 64.6392 6.32998H73.9792H73.9892Z" fill="#AA8420"/>
<path d="M64.9395 7.15014H73.7195C73.7895 6.98014 73.8495 6.81014 73.8995 6.64014H64.7695C64.8195 6.81014 64.8795 6.99014 64.9495 7.15014" fill="#AA8420"/>
<path d="M73.5801 7.45996H65.0801C65.1701 7.63996 65.2601 7.80996 65.3701 7.96996H73.2901C73.4001 7.80996 73.5001 7.63996 73.5801 7.45996" fill="#AA8420"/>
<path d="M65.9498 8.68979H72.7098C72.8398 8.55979 72.9598 8.41979 73.0698 8.27979H65.5898C65.6998 8.41979 65.8198 8.55979 65.9498 8.68979Z" fill="#AA8420"/>
<path d="M66.6795 9.31H71.9795C72.1195 9.21 72.2495 9.11 72.3795 9H66.2695C66.3995 9.11 66.5295 9.21 66.6695 9.31" fill="#AA8420"/>
<path d="M67.4102 9.72021C68.0002 9.98021 68.6502 10.1302 69.3302 10.1302C70.0102 10.1302 70.6602 9.98021 71.2502 9.72021H67.4102Z" fill="#AA8420"/>
<path d="M78.4393 10.3599H71.2493C71.2493 10.3599 70.5793 10.3599 70.0493 10.7199C69.6393 10.9999 69.3493 11.6499 69.3293 11.6899C69.3293 11.6899 69.0193 11.0099 68.6093 10.7199C68.0793 10.3599 67.4093 10.3599 67.4093 10.3599H60.2193L58.7793 12.6599H65.3593C65.3593 12.6599 65.5493 12.6599 65.6693 12.6799C65.8593 12.7099 66.2093 12.8199 66.5593 13.0699C67.0493 13.4199 67.1793 13.5999 67.2993 13.7199C67.3593 13.7799 67.5093 13.9899 67.5093 13.9899H71.0993C71.0993 13.9899 71.2493 13.7799 71.3093 13.7199C71.4293 13.5999 71.5693 13.4199 72.0493 13.0699C72.3993 12.8099 72.7393 12.7099 72.9393 12.6799C73.0593 12.6599 73.2493 12.6599 73.2493 12.6599H79.8293L78.3893 10.3599H78.4393Z" fill="#003477"/>
<path d="M59.5195 13.3601V24.2901C59.5195 24.4101 59.5195 24.5201 59.5395 24.6101C59.6595 25.7601 60.0195 26.6201 60.6895 27.7401C61.7495 29.5001 63.6595 30.7301 63.6595 30.7301L64.5595 29.2901C64.5595 29.2901 63.3295 28.6401 62.3595 27.1401C62.1595 26.8401 61.9695 26.5601 61.8295 26.2801C61.7095 26.0201 61.6095 25.8001 61.5295 25.5701C61.4695 25.4101 61.4295 25.2501 61.3895 25.1201C61.3395 24.9201 61.3195 24.7701 61.3095 24.5801C61.3095 24.5101 61.2995 24.2401 61.2995 24.2401V13.3501H59.5195V13.3601Z" fill="#003477"/>
<path d="M62.2598 13.3599V24.2499C62.2598 24.2499 62.2598 24.2899 62.2598 24.3399C62.2598 24.3999 62.2698 24.4699 62.2798 24.5299C62.2798 24.5699 62.2898 24.6199 62.2998 24.6399C62.3398 24.8099 62.3698 24.9599 62.4498 25.1899C62.5698 25.5599 62.7898 25.9999 63.1098 26.5099C63.9198 27.8099 65.0798 28.4099 65.0798 28.4099L65.9798 27.0099C65.9798 27.0099 65.6798 26.8499 65.3198 26.4999C65.0798 26.2699 64.7898 25.9699 64.5498 25.5999C64.3098 25.2299 64.1598 24.8599 64.0798 24.5699C64.0098 24.3399 63.9998 24.1499 63.9898 24.0199C63.9898 23.9199 63.9898 23.8699 63.9898 23.8699V13.3599H62.2598V13.3599Z" fill="#003477"/>
<path d="M79.1591 13.3601V24.2901C79.1591 24.4101 79.1591 24.5201 79.1391 24.6101C79.0191 25.7601 78.6591 26.6201 77.9891 27.7401C76.9291 29.5001 75.0191 30.7301 75.0191 30.7301L74.1191 29.2901C74.1191 29.2901 75.3491 28.6401 76.3191 27.1401C76.5191 26.8401 76.7091 26.5601 76.8491 26.2801C76.9791 26.0201 77.0691 25.8001 77.1491 25.5701C77.2091 25.4101 77.2491 25.2501 77.2891 25.1201C77.3391 24.9201 77.3591 24.7701 77.3691 24.5801C77.3691 24.5101 77.3791 24.2401 77.3791 24.2401V13.3501H79.1591V13.3601Z" fill="#003477"/>
<path d="M76.4209 13.3599V24.2499C76.4209 24.2499 76.4209 24.2899 76.4209 24.3399C76.4209 24.3999 76.4109 24.4699 76.4009 24.5299C76.4009 24.5699 76.3909 24.6199 76.3809 24.6399C76.3409 24.8099 76.3109 24.9599 76.2309 25.1899C76.1109 25.5599 75.8909 25.9999 75.5809 26.5099C74.7709 27.8099 73.6109 28.4099 73.6109 28.4099L72.7109 27.0099C72.7109 27.0099 73.0109 26.8499 73.3709 26.4999C73.6109 26.2699 73.9009 25.9699 74.1409 25.5999C74.3809 25.2299 74.5309 24.8599 74.6109 24.5699C74.6809 24.3399 74.6909 24.1499 74.7009 24.0199C74.7009 23.9199 74.7009 23.8699 74.7009 23.8699V13.3599H76.4309H76.4209Z" fill="#003477"/>
<path d="M106.201 17.0401V15.5001H98.3505V13.9401C100.851 13.7301 102.951 13.4501 104.631 13.1001L103.831 11.5801C101.291 12.1501 97.5505 12.4401 92.6105 12.4401C91.5705 12.4401 90.7005 12.4301 89.9905 12.4001L90.6005 14.1101C91.8105 14.1101 93.8105 14.0701 96.6005 14.0001V15.5101H88.9605V17.0501H94.7005C93.0305 18.4501 91.0605 19.4201 88.8105 19.9701L89.7005 21.6201C90.4405 21.3701 90.9705 21.1801 91.2805 21.0401V29.0201H93.0106V28.1601H102.151V29.0201H103.881V20.9501C104.131 21.0901 104.401 21.2001 104.701 21.2901C105.001 21.3801 105.271 21.4701 105.521 21.5901L106.341 19.9001C103.661 19.3701 101.621 18.4201 100.201 17.0501H106.191L106.201 17.0401ZM96.6005 17.0901V20.5101H92.3605C94.1105 19.7701 95.5205 18.6201 96.6005 17.0901ZM102.161 26.6101H93.0106V24.9701H102.161V26.6101ZM102.161 23.4901H93.0106V22.0801H102.161V23.4901ZM102.941 20.5201H98.3505V17.0801C99.5105 18.6301 101.051 19.7801 102.941 20.5201Z" fill="#003477"/>
<path d="M116.71 18.6301C115.76 17.9001 114.84 17.3001 113.96 16.8301L112.85 18.2301C113.58 18.7101 114.45 19.3801 115.45 20.2401L116.71 18.6401V18.6301Z" fill="#003477"/>
<path d="M112.75 27.2598L114.24 28.7898C115.31 27.0998 116.09 25.2598 116.6 23.2498L114.98 22.2998C114.58 24.0598 113.84 25.7198 112.75 27.2598V27.2598Z" fill="#003477"/>
<path d="M126.43 24.9699V21.1599C127.17 21.8299 128.12 22.4999 129.26 23.1899L130.06 21.5399C128.05 20.5499 126.8 19.5499 126.3 18.5499H129.85V16.9899H126.5V15.0699H129.57V13.5999H126.5V11.6699H124.82V13.5999H121.43V11.6699H119.73V13.5999H117.26V13.8399C116.53 13.2799 115.64 12.6699 114.58 11.9999L113.35 13.3799C114.18 13.8999 115.1 14.6299 116.12 15.5499L117.25 14.1399V15.1399H119.72V16.9999H116.87V18.5599H119.84C119.3 19.7299 117.99 20.7699 115.94 21.6999L117 23.2599C117.83 22.7399 118.4 22.3499 118.71 22.0899V26.2599C118.71 27.0999 118.86 27.6799 119.17 27.9899C119.49 28.2899 120.05 28.4399 120.84 28.4399H126.86C127.81 28.4399 128.45 28.2699 128.77 27.9399C129.1 27.5899 129.37 26.5599 129.57 24.8399L127.78 24.1899C127.69 25.1699 127.6 25.8599 127.5 26.2499C127.4 26.6299 127.09 26.8299 126.57 26.8299H121.05C120.62 26.8299 120.4 26.6099 120.4 26.1799V24.9899H126.39L126.43 24.9699ZM121.43 15.1499H124.82V16.9699H121.43V15.1499ZM121.84 18.5299H124.35C124.7 19.1899 125.08 19.7499 125.48 20.2099H120.74C121.2 19.7299 121.56 19.1699 121.84 18.5299ZM120.43 23.4999V21.6799H124.71V23.4999H120.43Z" fill="#003477"/>
<path d="M149.959 15.1499C148.499 14.0799 147.359 13.3299 146.559 12.8799L145.449 14.1099C146.299 14.6299 147.419 15.4399 148.799 16.5399L149.969 15.1499H149.959Z" fill="#003477"/>
<path d="M149.61 19.6298C148.25 18.5898 147.1 17.8298 146.17 17.3398L145.07 18.5898C146.05 19.1698 147.18 19.9998 148.45 21.0598L149.6 19.6298H149.61Z" fill="#003477"/>
<path d="M152.36 11.48H150.63V22.18L144.4 23.11V24.84L150.63 23.89V29H152.36V23.67L154.04 23.39V21.69L152.36 21.97V11.48Z" fill="#003477"/>
<path d="M141.809 18.2698V18.0998H144.639V16.4998H141.809V13.8798C142.789 13.6798 143.729 13.4299 144.619 13.1199L143.989 11.5898C141.989 12.3498 139.609 12.7898 136.829 12.9298L137.219 14.4898C138.489 14.3998 139.449 14.2998 140.099 14.1698V16.4998H136.639V18.0998H140.039C139.259 20.1598 138.089 22.0698 136.529 23.8498L137.569 25.5198C138.779 23.9298 139.629 22.5398 140.099 21.3498V28.9898L141.809 28.9198V20.2898C142.149 20.7398 142.469 21.1498 142.799 21.5398C143.169 21.9598 143.539 22.4298 143.909 22.9498L144.949 21.3498C144.239 20.5798 143.189 19.5498 141.809 18.2598V18.2698Z" fill="#003477"/>
<path d="M175.789 22.46C176.449 21.38 176.859 20.51 177.019 19.84V18.3H173.259V15.81H177.649V14.12H173.259V11.5H171.419V14.12H167.419V15.31H165.219V11.5H163.389V15.31H160.639V17H163.389V20.74C162.509 20.97 161.529 21.16 160.449 21.3L160.899 23.31C161.509 23.16 162.339 22.95 163.389 22.68V26.47C163.389 26.88 163.189 27.08 162.779 27.08L161.159 27.02L161.589 28.9H163.059C163.979 28.9 164.569 28.75 164.829 28.45C165.079 28.16 165.209 27.58 165.209 26.7V22.14C166.279 21.78 166.999 21.5 167.389 21.29V19.47C166.929 19.69 166.209 19.97 165.209 20.29V17H167.409L167.429 15.81H171.429V18.3H167.749V20.01H175.129C174.599 21.57 173.699 22.86 172.429 23.86C171.569 23.01 170.719 21.82 169.859 20.31L168.319 20.92C169.239 22.59 170.169 23.91 171.129 24.88C169.339 26.08 167.559 26.88 165.779 27.28L166.799 28.97C168.589 28.6 170.459 27.66 172.409 26.16C173.849 27.48 175.389 28.4 177.019 28.93L177.969 27.18C176.409 26.75 175.009 26.02 173.769 25.01C174.479 24.39 175.149 23.54 175.799 22.46H175.789Z" fill="#003477"/>
<path d="M197.461 22.8898C196.411 21.2298 195.741 19.6398 195.451 18.1298L201.401 18.1498V16.1798H193.511C193.611 15.1998 193.661 13.6398 193.661 11.5098H191.711C191.711 13.4898 191.631 15.0498 191.471 16.1798H184.741V18.1498H191.161C190.861 19.8998 190.091 21.5898 188.841 23.2298C187.571 24.8698 186.061 26.1898 184.301 27.1898L185.711 28.9598C189.881 26.2198 192.371 22.6098 193.201 18.1398H193.501C194.741 23.1398 197.031 26.7298 200.381 28.9298L201.811 27.2198C199.961 25.9998 198.511 24.5698 197.461 22.8998V22.8898Z" fill="#003477"/>
<path d="M221.791 15.5501C222.341 14.6301 222.891 13.5001 223.431 12.1501L221.461 11.3901C220.841 13.1201 220.241 14.5001 219.661 15.5501H208.381V19.4801H210.201V17.1401H223.721V19.4001H225.541V15.5501H221.791V15.5501Z" fill="#003477"/>
<path d="M218.049 14.1802C217.559 13.1902 217.059 12.2802 216.539 11.4702L215.029 12.1502C215.529 12.9702 216.009 13.9002 216.459 14.9302L218.049 14.1702V14.1802Z" fill="#003477"/>
<path d="M213.821 14.49C213.301 13.58 212.771 12.74 212.231 12L210.721 12.68C211.261 13.44 211.771 14.3 212.231 15.25L213.821 14.5V14.49Z" fill="#003477"/>
<path d="M217.9 22.3601C219.58 21.6901 221.07 20.9801 222.37 20.2301V18.6401H211.56V20.2301H219.63C218.34 20.8401 217.11 21.3101 215.95 21.6601V22.9401H208.77V24.5301H215.95V27.0201C215.95 27.3301 215.75 27.4901 215.35 27.4901C214.68 27.4901 214.05 27.4601 213.45 27.4101L213.82 29.0701H216.39C216.83 29.0701 217.21 28.9001 217.53 28.5501C217.75 28.3301 217.87 28.0001 217.9 27.5601V24.5201H225.02V22.9301H217.9V22.3501V22.3601Z" fill="#003477"/>
</svg>
