<svg width="334" height="48" viewBox="0 0 334 48" fill="none" xmlns="http://www.w3.org/2000/svg">
<path d="M43.8495 47.9498H36.5195V0.529785H43.8495V0.779785H36.7695V47.6998H43.8495V47.9498Z" fill="#231815"/>
<path d="M296.32 47.9498H289V47.6998H296.07V0.779785H289V0.529785H296.32V47.9498Z" fill="#231815"/>
<path d="M0.449463 23.98H3.00946C3.66946 23.98 4.17944 24.14 4.54944 24.46C4.91944 24.78 5.09946 25.22 5.09946 25.77C5.09946 26.32 4.90946 26.77 4.53946 27.09C4.16946 27.41 3.64945 27.57 2.99945 27.57H1.17944V30.39H0.439453V23.98H0.449463ZM2.93945 26.96C3.40945 26.96 3.76946 26.86 4.00946 26.65C4.24946 26.45 4.36945 26.15 4.36945 25.77C4.36945 25.39 4.24946 25.09 4.00946 24.89C3.76946 24.69 3.40945 24.59 2.93945 24.59H1.17944V26.96H2.93945Z" fill="#231815"/>
<path d="M11.3403 30.38H10.5603L9.77029 28.25C9.67029 27.99 9.5403 27.81 9.3703 27.72C9.2003 27.63 8.9603 27.59 8.6503 27.59H7.05029V30.39H6.32031V23.98H8.8703C9.5603 23.98 10.0903 24.13 10.4603 24.44C10.8303 24.75 11.0103 25.19 11.0103 25.76C11.0103 26.18 10.9003 26.53 10.6803 26.82C10.4603 27.11 10.1403 27.31 9.73032 27.43C9.92032 27.46 10.0703 27.54 10.2103 27.67C10.3403 27.8 10.4503 27.98 10.5403 28.22L11.3503 30.39L11.3403 30.38ZM8.79031 26.97C9.77031 26.97 10.2703 26.57 10.2703 25.76C10.2703 25.36 10.1503 25.07 9.91031 24.87C9.67031 24.68 9.30031 24.58 8.79031 24.58H7.04031V26.96H8.79031V26.97Z" fill="#231815"/>
<path d="M12.5488 23.98H13.2888V30.39H12.5488V23.98Z" fill="#231815"/>
<path d="M20.0092 23.98V30.39H19.4291L15.5591 25.23V30.39H14.8691V23.98H15.4391L19.3091 29.14V23.98H20.0092Z" fill="#231815"/>
<path d="M23.1304 24.61H20.9004V23.98H26.1104V24.61H23.8804V30.39H23.1304V24.61V24.61Z" fill="#231815"/>
<path d="M26.4395 29.6499L26.7195 29.0799C27.0395 29.3499 27.3595 29.5399 27.6895 29.6599C28.0195 29.7699 28.3994 29.8299 28.8394 29.8299C29.3594 29.8299 29.7494 29.7299 30.0294 29.5299C30.3094 29.3299 30.4495 29.0499 30.4495 28.6799C30.4495 28.4599 30.3795 28.2899 30.2495 28.1499C30.1095 28.0199 29.9395 27.9099 29.7195 27.8299C29.4995 27.7499 29.2094 27.6699 28.8394 27.5899C28.3494 27.4799 27.9395 27.3599 27.6295 27.2399C27.3095 27.1099 27.0494 26.9299 26.8594 26.6999C26.6594 26.4599 26.5594 26.1499 26.5594 25.7699C26.5594 25.3899 26.6595 25.0799 26.8495 24.7999C27.0395 24.5199 27.3095 24.2999 27.6595 24.1499C28.0095 23.9999 28.4195 23.9199 28.8895 23.9199C29.3595 23.9199 29.7495 23.9899 30.1295 24.1299C30.5095 24.2699 30.8395 24.4699 31.0995 24.7299L30.8094 25.2999C30.5094 25.0399 30.2094 24.8499 29.8994 24.7299C29.5894 24.6099 29.2495 24.5499 28.8895 24.5499C28.3895 24.5499 27.9995 24.6599 27.7195 24.8699C27.4395 25.0799 27.2994 25.3699 27.2994 25.7499C27.2994 26.0699 27.4195 26.3199 27.6695 26.4799C27.9195 26.6399 28.2894 26.7799 28.7994 26.8999C29.3494 27.0299 29.7895 27.1499 30.0995 27.2599C30.4095 27.3699 30.6795 27.5399 30.8895 27.7599C31.0995 27.9899 31.1995 28.2799 31.1995 28.6599C31.1995 29.0399 31.0995 29.3399 30.9095 29.6099C30.7195 29.8799 30.4394 30.0899 30.0894 30.2399C29.7294 30.3899 29.3094 30.4699 28.8294 30.4699C27.8294 30.4699 27.0295 30.1999 26.4395 29.6599V29.6499Z" fill="#231815"/>
<path d="M4.66922 41.6902V42.3802H0.699219V41.6902H2.2692V36.2802L0.809204 37.2102V36.4203L2.62921 35.2603H3.09921V41.6902H4.66922V41.6902Z" fill="#AA8420"/>
<path d="M9.8992 38.2003C10.2392 38.3903 10.4892 38.6502 10.6692 38.9902C10.8492 39.3302 10.9392 39.7203 10.9392 40.1703C10.9392 40.6203 10.8392 41.0102 10.6492 41.3602C10.4492 41.7102 10.1692 41.9702 9.8092 42.1602C9.4492 42.3502 9.01922 42.4503 8.53922 42.4503C8.10922 42.4503 7.67922 42.3702 7.25922 42.2102C6.83922 42.0502 6.48922 41.8403 6.19922 41.5703L6.50922 40.9402C7.16922 41.4902 7.84922 41.7603 8.53922 41.7603C9.03922 41.7603 9.42921 41.6202 9.71921 41.3402C9.99921 41.0602 10.1392 40.6702 10.1392 40.1802C10.1392 39.6902 9.99921 39.3303 9.71921 39.0403C9.43921 38.7503 9.06921 38.6003 8.59921 38.6003C7.91921 38.6003 7.37921 38.8802 6.96921 39.4302H6.3992V35.2603H10.6692V35.9402H7.21921V38.4803C7.60921 38.1003 8.11922 37.9102 8.72922 37.9102C9.17922 37.9102 9.56921 38.0003 9.90921 38.2003H9.8992Z" fill="#AA8420"/>
<path d="M22.0585 39.2205V42.3805H21.2485V39.2605C21.2485 38.7905 21.1685 38.4405 20.9985 38.2305C20.8385 38.0205 20.5685 37.9105 20.2085 37.9105C19.7785 37.9105 19.4485 38.0505 19.2085 38.3405C18.9685 38.6305 18.8485 39.0205 18.8485 39.5105V42.3805H18.0385V39.2605C18.0385 38.7905 17.9585 38.4504 17.7885 38.2404C17.6185 38.0204 17.3585 37.9105 16.9885 37.9105C16.5585 37.9105 16.2285 38.0505 15.9885 38.3405C15.7485 38.6305 15.6185 39.0205 15.6185 39.5105V42.3805H14.8085V38.7605C14.8085 38.2405 14.7785 37.7705 14.7285 37.3505H15.4985L15.5785 38.2305C15.7185 37.9105 15.9285 37.6604 16.1985 37.4904C16.4785 37.3204 16.7985 37.2305 17.1685 37.2305C17.5685 37.2305 17.8985 37.3105 18.1485 37.4705C18.3985 37.6305 18.5885 37.8804 18.7085 38.2104C18.8585 37.9104 19.0885 37.6705 19.3785 37.5005C19.6785 37.3205 20.0085 37.2305 20.3785 37.2305C21.4885 37.2305 22.0485 37.8905 22.0485 39.2205H22.0585Z" fill="#AA8420"/>
<path d="M30.8495 39.2205V42.3805H30.0396V39.2605C30.0396 38.7905 29.9596 38.4405 29.7896 38.2305C29.6296 38.0205 29.3595 37.9105 28.9995 37.9105C28.5695 37.9105 28.2395 38.0505 27.9995 38.3405C27.7595 38.6305 27.6396 39.0205 27.6396 39.5105V42.3805H26.8295V39.2605C26.8295 38.7905 26.7495 38.4504 26.5795 38.2404C26.4095 38.0204 26.1495 37.9105 25.7795 37.9105C25.3495 37.9105 25.0195 38.0505 24.7795 38.3405C24.5395 38.6305 24.4095 39.0205 24.4095 39.5105V42.3805H23.5995V38.7605C23.5995 38.2405 23.5695 37.7705 23.5195 37.3505H24.2896L24.3695 38.2305C24.5095 37.9105 24.7195 37.6604 24.9895 37.4904C25.2695 37.3204 25.5895 37.2305 25.9595 37.2305C26.3595 37.2305 26.6895 37.3105 26.9395 37.4705C27.1895 37.6305 27.3795 37.8804 27.4995 38.2104C27.6495 37.9104 27.8796 37.6705 28.1696 37.5005C28.4696 37.3205 28.7996 37.2305 29.1696 37.2305C30.2796 37.2305 30.8395 37.8905 30.8395 39.2205H30.8495Z" fill="#AA8420"/>
<path d="M303.05 30.0599C302.61 29.7999 302.27 29.4199 302.04 28.9199C301.8 28.4299 301.68 27.8399 301.68 27.1799C301.68 26.5199 301.8 25.9299 302.03 25.4299C302.26 24.9399 302.6 24.5599 303.04 24.2999C303.48 24.0399 304 23.8999 304.6 23.8999C305.2 23.8999 305.72 24.0299 306.16 24.2999C306.6 24.5599 306.93 24.9399 307.17 25.4299C307.41 25.9199 307.52 26.4999 307.52 27.1699C307.52 27.8399 307.4 28.4199 307.16 28.9199C306.92 29.4099 306.59 29.7899 306.15 30.0599C305.71 30.3299 305.2 30.4599 304.6 30.4599C304 30.4599 303.49 30.3299 303.05 30.0599ZM306.18 29.1299C306.56 28.6699 306.75 28.0099 306.75 27.1699C306.75 26.3299 306.56 25.6699 306.19 25.2199C305.82 24.7699 305.29 24.5399 304.6 24.5399C303.91 24.5399 303.39 24.7699 303.01 25.2299C302.63 25.6899 302.44 26.3399 302.44 27.1799C302.44 28.0199 302.63 28.6799 303.01 29.1399C303.39 29.5999 303.92 29.8299 304.6 29.8299C305.28 29.8299 305.81 29.5999 306.18 29.1399V29.1299Z" fill="#231815"/>
<path d="M313.999 23.98V30.39H313.419L309.549 25.23V30.39H308.859V23.98H309.429L313.299 29.14V23.98H313.999Z" fill="#231815"/>
<path d="M315.57 23.98H316.31V29.76H319.52V30.39H315.57V23.98V23.98Z" fill="#231815"/>
<path d="M320.48 23.98H321.22V30.39H320.48V23.98Z" fill="#231815"/>
<path d="M327.939 23.98V30.39H327.359L323.489 25.23V30.39H322.799V23.98H323.369L327.239 29.14V23.98H327.939Z" fill="#231815"/>
<path d="M329.51 23.9797H333.56V24.5897H330.24V26.8197H333.38V27.4397H330.24V29.7697H333.56V30.3797H329.51V23.9697V23.9797Z" fill="#231815"/>
<path d="M306.469 35.2598V35.8698L303.13 42.3798H302.25L305.57 35.9498H301.77V35.2598H306.469V35.2598Z" fill="#AA8420"/>
<path d="M308.259 41.5399C307.839 40.9199 307.629 40.0199 307.629 38.8299C307.629 37.6399 307.839 36.7299 308.259 36.1099C308.679 35.4899 309.299 35.1899 310.119 35.1899C310.939 35.1899 311.549 35.4999 311.979 36.1099C312.399 36.7299 312.609 37.6299 312.609 38.8199C312.609 40.0099 312.399 40.9199 311.979 41.5399C311.559 42.1599 310.939 42.4699 310.119 42.4699C309.299 42.4699 308.689 42.1599 308.259 41.5499V41.5399ZM311.369 41.0499C311.639 40.5699 311.779 39.8199 311.779 38.8099C311.779 37.7999 311.649 37.0599 311.379 36.5899C311.109 36.1199 310.689 35.8799 310.119 35.8799C309.549 35.8799 309.129 36.1199 308.869 36.5899C308.599 37.0599 308.459 37.7999 308.459 38.8099C308.459 39.8199 308.589 40.5599 308.869 41.0499C309.139 41.5299 309.559 41.7699 310.119 41.7699C310.679 41.7699 311.109 41.5299 311.369 41.0499Z" fill="#AA8420"/>
<path d="M320.19 37.56C320.53 37.78 320.79 38.09 320.98 38.49C321.17 38.89 321.26 39.34 321.26 39.87C321.26 40.4 321.17 40.84 320.98 41.23C320.79 41.62 320.53 41.92 320.19 42.14C319.85 42.35 319.46 42.46 319.02 42.46C318.63 42.46 318.28 42.37 317.99 42.2C317.7 42.03 317.47 41.78 317.32 41.46V44.55H316.51V38.77C316.51 38.25 316.48 37.78 316.43 37.36H317.2L317.28 38.33C317.42 37.98 317.64 37.71 317.95 37.52C318.25 37.33 318.61 37.23 319.03 37.23C319.47 37.23 319.86 37.34 320.2 37.56H320.19ZM320.02 41.28C320.29 40.95 320.43 40.47 320.43 39.86C320.43 39.25 320.29 38.77 320.02 38.42C319.75 38.08 319.37 37.91 318.88 37.91C318.39 37.91 318 38.08 317.73 38.41C317.46 38.74 317.33 39.22 317.33 39.84C317.33 40.46 317.46 40.94 317.73 41.27C318 41.61 318.38 41.78 318.88 41.78C319.38 41.78 319.76 41.61 320.03 41.28H320.02Z" fill="#AA8420"/>
<path d="M326.87 42.3801H325.9L324.31 40.4001L322.74 42.3801H321.75L323.84 39.7901L321.87 37.3501H322.85L324.31 39.2001L325.77 37.3501H326.76L324.8 39.7901L326.87 42.3801Z" fill="#AA8420"/>
<path d="M173.329 26.2601L170.319 21.2501C170.319 21.2501 170.229 21.1401 170.229 20.9401V11.6401H169.089V21.2301C169.179 21.3201 171.079 24.5501 171.079 24.5501H166.379C166.379 24.5501 168.269 21.3201 168.369 21.2301V11.6401H167.229V20.9401C167.229 21.1301 167.139 21.2501 167.139 21.2501L164.129 26.2601H173.329V26.2601Z" fill="#AA8420"/>
<path d="M172.399 5.13002C172.399 5.13002 172.969 2.79002 170.939 1.25002C170.939 1.25002 170.129 0.52002 168.599 0.52002C167.219 0.52002 166.419 1.25002 166.419 1.25002C164.559 2.54002 165.049 5.13002 165.049 5.13002H172.409H172.399Z" fill="#AA8420"/>
<path d="M165.269 5.77988H172.179C172.229 5.64988 172.279 5.50988 172.319 5.37988H165.119C165.159 5.51988 165.209 5.64988 165.259 5.77988" fill="#AA8420"/>
<path d="M172.069 6.02002H165.369C165.439 6.16002 165.519 6.30001 165.599 6.42001H171.829C171.919 6.29001 171.989 6.16002 172.059 6.02002" fill="#AA8420"/>
<path d="M166.059 6.98993H171.389C171.489 6.88993 171.579 6.77992 171.669 6.66992H165.779C165.869 6.77992 165.959 6.88993 166.059 6.98993Z" fill="#AA8420"/>
<path d="M166.64 7.48022H170.82C170.93 7.40022 171.04 7.32023 171.14 7.24023H166.33C166.43 7.33023 166.54 7.41022 166.65 7.48022" fill="#AA8420"/>
<path d="M167.209 7.7998C167.669 8.0098 168.179 8.1198 168.719 8.1198C169.259 8.1198 169.769 7.9998 170.229 7.7998H167.209Z" fill="#AA8420"/>
<path d="M175.9 8.2998H170.24C170.24 8.2998 169.71 8.2998 169.3 8.5898C168.98 8.8098 168.75 9.32981 168.73 9.34981C168.73 9.34981 168.49 8.8098 168.16 8.5898C167.74 8.2998 167.22 8.2998 167.22 8.2998H161.56L160.43 10.1098H165.61C165.61 10.1098 165.76 10.1098 165.86 10.1198C166.01 10.1498 166.28 10.2298 166.56 10.4298C166.94 10.7098 167.05 10.8498 167.15 10.9398C167.2 10.9898 167.32 11.1498 167.32 11.1498H170.15C170.15 11.1498 170.27 10.9898 170.32 10.9398C170.41 10.8498 170.52 10.6998 170.91 10.4298C171.19 10.2298 171.46 10.1498 171.61 10.1198C171.7 10.1098 171.86 10.1098 171.86 10.1098H177.04L175.91 8.2998H175.9Z" fill="#003477"/>
<path d="M161 10.6699V19.2799C161 19.3699 161 19.4599 161.02 19.5299C161.11 20.4399 161.4 21.1099 161.92 21.9999C162.75 23.3899 164.26 24.3599 164.26 24.3599L164.97 23.2299C164.97 23.2299 164 22.7199 163.24 21.5399C163.08 21.2999 162.93 21.0899 162.83 20.8699C162.73 20.6599 162.66 20.4899 162.59 20.3099C162.55 20.1799 162.51 20.0599 162.49 19.9499C162.45 19.7899 162.43 19.6699 162.42 19.5199C162.42 19.4699 162.41 19.2499 162.41 19.2499V10.6699H161.01H161Z" fill="#003477"/>
<path d="M163.15 10.6699V19.3199C163.15 19.3199 163.16 19.4199 163.17 19.4699C163.17 19.4999 163.18 19.5399 163.19 19.5599C163.22 19.6899 163.25 19.8099 163.3 19.9899C163.4 20.2799 163.57 20.6299 163.82 21.0299C164.46 22.0599 165.37 22.5299 165.37 22.5299L166.08 21.4299C166.08 21.4299 165.85 21.2999 165.56 21.0199C165.37 20.8399 165.15 20.5999 164.95 20.3099C164.76 20.0199 164.65 19.7199 164.58 19.4999C164.53 19.3199 164.51 19.1699 164.51 19.0699C164.51 18.9899 164.51 18.9499 164.51 18.9499V10.6799H163.15V10.6699Z" fill="#003477"/>
<path d="M176.46 10.6699V19.2799C176.46 19.3699 176.46 19.4599 176.44 19.5299C176.35 20.4399 176.06 21.1099 175.54 21.9999C174.71 23.3899 173.2 24.3599 173.2 24.3599L172.49 23.2299C172.49 23.2299 173.46 22.7199 174.22 21.5399C174.38 21.2999 174.53 21.0899 174.63 20.8699C174.73 20.6599 174.8 20.4899 174.87 20.3099C174.91 20.1799 174.95 20.0599 174.97 19.9499C175.01 19.7899 175.03 19.6699 175.04 19.5199C175.04 19.4699 175.05 19.2499 175.05 19.2499V10.6699H176.45H176.46Z" fill="#003477"/>
<path d="M174.309 10.6699V19.2499C174.309 19.2499 174.309 19.2799 174.309 19.3199C174.309 19.3599 174.309 19.4199 174.299 19.4699C174.299 19.4999 174.289 19.5399 174.279 19.5599C174.249 19.6899 174.219 19.8099 174.169 19.9899C174.069 20.2799 173.899 20.6299 173.649 21.0299C173.009 22.0599 172.099 22.5299 172.099 22.5299L171.389 21.4299C171.389 21.4299 171.619 21.2999 171.909 21.0199C172.099 20.8399 172.319 20.5999 172.519 20.3099C172.709 20.0199 172.819 19.7199 172.889 19.4999C172.939 19.3199 172.959 19.1699 172.959 19.0699C172.959 18.9899 172.959 18.9499 172.959 18.9499V10.6799H174.319L174.309 10.6699Z" fill="#003477"/>
<path d="M52.5801 42.2103H54.0001V47.5103H54.7401V42.2103H56.1601V41.5303H52.5801V42.2103Z" fill="#003477"/>
<path d="M60.3595 43.9403H57.5096V41.5303H56.7695V47.5103H57.5096V44.6403H60.3595V47.5103H61.1095V41.5303H60.3595V43.9403Z" fill="#003477"/>
<path d="M62.2598 47.5103H65.4798V46.8303H63.0098V44.5703H65.4098V43.8803H63.0098V42.2103H65.4798V41.5303H62.2598V47.5103Z" fill="#003477"/>
<path d="M72.381 43.9403H69.531V41.5303H68.791V47.5103H69.531V44.6403H72.381V47.5103H73.121V41.5303H72.381V43.9403Z" fill="#003477"/>
<path d="M76.9991 41.4004C75.2891 41.4004 73.8691 42.8004 73.8691 44.5204C73.8691 46.2404 75.2791 47.6404 76.9991 47.6404C78.7191 47.6404 80.1292 46.3004 80.1292 44.5204C80.1292 42.7404 78.7091 41.4004 76.9991 41.4004ZM76.9991 46.9404C75.7091 46.9404 74.6091 45.8904 74.6091 44.5204C74.6091 43.1504 75.5891 42.1004 76.9991 42.1004C78.4091 42.1004 79.3892 43.2004 79.3892 44.5204C79.3892 45.8404 78.2891 46.9404 76.9991 46.9404Z" fill="#003477"/>
<path d="M85.3494 45.9503L80.8594 41.2402V47.5103H81.6094V43.0502L86.0894 47.7603V41.5302H85.3494V45.9503Z" fill="#003477"/>
<path d="M90.3101 45.1801H91.8601C91.8301 46.1601 90.8301 46.9601 89.9001 46.9601C88.6101 46.9601 87.5801 45.7701 87.5801 44.5201C87.5801 43.1801 88.6301 42.0901 89.9701 42.0901C90.7001 42.0901 91.4201 42.4802 91.8501 43.0702L92.3701 42.5702C91.7801 41.8302 90.8601 41.4102 89.9301 41.4102C88.2101 41.4102 86.8301 42.8202 86.8301 44.5402C86.8301 46.2602 88.1801 47.6402 89.8501 47.6402C91.5201 47.6402 92.6801 46.3801 92.6801 44.7401V44.5002H90.3101V45.1801V45.1801Z" fill="#003477"/>
<path d="M100.141 41.5303H99.1609L96.6208 44.1203V41.5303H95.8809V47.5103H96.6208V45.0103L96.9209 44.7303L99.1808 47.5103H100.181L97.4509 44.2203L100.141 41.5303Z" fill="#003477"/>
<path d="M103.431 41.4004C101.721 41.4004 100.301 42.8004 100.301 44.5204C100.301 46.2404 101.701 47.6404 103.431 47.6404C105.161 47.6404 106.561 46.3004 106.561 44.5204C106.561 42.7404 105.141 41.4004 103.431 41.4004ZM103.431 46.9404C102.141 46.9404 101.041 45.8904 101.041 44.5204C101.041 43.1504 102.021 42.1004 103.431 42.1004C104.841 42.1004 105.821 43.2004 105.821 44.5204C105.821 45.8404 104.731 46.9404 103.431 46.9404Z" fill="#003477"/>
<path d="M111.781 45.9503L107.291 41.2402V47.5103H108.041V43.0502L112.531 47.7603V41.5302H111.781V45.9503Z" fill="#003477"/>
<path d="M116.75 45.1801H118.3C118.27 46.1601 117.27 46.9601 116.34 46.9601C115.05 46.9601 114.01 45.7701 114.01 44.5201C114.01 43.1801 115.06 42.0901 116.4 42.0901C117.13 42.0901 117.85 42.4802 118.28 43.0702L118.8 42.5702C118.21 41.8302 117.29 41.4102 116.37 41.4102C114.65 41.4102 113.27 42.8202 113.27 44.5402C113.27 46.2602 114.62 47.6402 116.29 47.6402C117.96 47.6402 119.12 46.3801 119.12 44.7401V44.5002H116.75V45.1801V45.1801Z" fill="#003477"/>
<path d="M125.841 45.0603C125.841 46.0403 125.551 46.9403 124.401 46.9403C123.251 46.9403 122.961 46.0403 122.961 45.0603V41.5303H122.211V45.3103C122.211 46.6303 123.031 47.6303 124.401 47.6303C125.771 47.6303 126.591 46.6203 126.591 45.3103V41.5303H125.851V45.0603H125.841Z" fill="#003477"/>
<path d="M132.109 45.9503L127.619 41.2402V47.5103H128.369V43.0502L132.859 47.7603V41.5302H132.109V45.9503Z" fill="#003477"/>
<path d="M134.73 41.5303H133.98V47.5103H134.73V41.5303Z" fill="#003477"/>
<path d="M137.901 45.9503L136.111 41.5303H135.291L137.901 47.8303L140.491 41.5303H139.671L137.901 45.9503Z" fill="#003477"/>
<path d="M141.08 47.5103H144.29V46.8303H141.82V44.5703H144.22V43.8803H141.82V42.2103H144.29V41.5303H141.08V47.5103Z" fill="#003477"/>
<path d="M148.559 43.23C148.559 42.66 148.269 42.09 147.769 41.8C147.289 41.53 146.719 41.52 146.189 41.52H145.279V47.5H146.029V44.97H146.339L148.099 47.5H149.009L147.119 44.9C147.979 44.8 148.559 44.08 148.559 43.23ZM146.279 44.36H146.039V42.19H146.239C146.979 42.19 147.869 42.33 147.869 43.26C147.869 44.19 147.049 44.36 146.279 44.36Z" fill="#003477"/>
<path d="M151.63 43.9701L151.2 43.8001C150.83 43.6601 150.37 43.4101 150.37 42.9401C150.37 42.4201 150.89 42.0901 151.37 42.0901C151.85 42.0901 152.11 42.2801 152.33 42.6501L152.92 42.2901C152.6 41.7101 152.05 41.3901 151.38 41.3901C150.47 41.3901 149.62 41.9701 149.62 42.9401C149.62 43.7701 150.24 44.1601 150.92 44.4601L151.33 44.6301C151.85 44.8501 152.36 45.1201 152.36 45.7701C152.36 46.4201 151.9 46.9301 151.26 46.9301C150.62 46.9301 150.09 46.4601 150.1 45.8001L149.35 45.9601C149.48 46.9201 150.23 47.6301 151.2 47.6301C152.27 47.6301 153.11 46.8501 153.11 45.7701C153.11 44.7701 152.48 44.3001 151.63 43.9701Z" fill="#003477"/>
<path d="M154.74 41.5303H153.99V47.5103H154.74V41.5303Z" fill="#003477"/>
<path d="M155.381 42.2103H156.801V47.5103H157.541V42.2103H158.961V41.5303H155.381V42.2103Z" fill="#003477"/>
<path d="M161.34 44.0803L159.87 41.5303H159.01L160.96 44.9103V47.5103H161.71V44.9103L163.66 41.5303H162.8L161.34 44.0803Z" fill="#003477"/>
<path d="M169.341 41.4004C167.631 41.4004 166.211 42.8004 166.211 44.5204C166.211 46.2404 167.611 47.6404 169.341 47.6404C171.071 47.6404 172.471 46.3004 172.471 44.5204C172.471 42.7404 171.051 41.4004 169.341 41.4004ZM169.341 46.9404C168.051 46.9404 166.951 45.8904 166.951 44.5204C166.951 43.1504 167.931 42.1004 169.341 42.1004C170.751 42.1004 171.731 43.2004 171.731 44.5204C171.731 45.8404 170.641 46.9404 169.341 46.9404Z" fill="#003477"/>
<path d="M173.27 47.5103H174.01V44.5703H176.09V43.8903H174.01V42.2103H176.159V41.5303H173.27V47.5103Z" fill="#003477"/>
<path d="M181.45 43.9701L181.02 43.8001C180.65 43.6601 180.19 43.4101 180.19 42.9401C180.19 42.4201 180.71 42.0901 181.19 42.0901C181.67 42.0901 181.93 42.2801 182.15 42.6501L182.74 42.2901C182.42 41.7101 181.87 41.3901 181.2 41.3901C180.29 41.3901 179.44 41.9701 179.44 42.9401C179.44 43.7701 180.06 44.1601 180.74 44.4601L181.15 44.6301C181.67 44.8501 182.18 45.1201 182.18 45.7701C182.18 46.4201 181.72 46.9301 181.08 46.9301C180.44 46.9301 179.91 46.4601 179.92 45.8001L179.17 45.9601C179.3 46.9201 180.05 47.6301 181.02 47.6301C182.09 47.6301 182.93 46.8501 182.93 45.7701C182.93 44.7701 182.3 44.3001 181.45 43.9701Z" fill="#003477"/>
<path d="M183.49 44.5501C183.49 46.2801 184.9 47.6402 186.61 47.6402C187.13 47.6402 187.72 47.4902 188.18 47.2202V46.3401C187.74 46.7401 187.17 46.9601 186.59 46.9601C185.26 46.9601 184.24 45.8402 184.24 44.5302C184.24 43.2202 185.26 42.0901 186.6 42.0901C187.16 42.0901 187.75 42.3001 188.18 42.6801V41.8202C187.73 41.5402 187.2 41.4102 186.67 41.4102C184.91 41.4102 183.49 42.7902 183.49 44.5602V44.5501Z" fill="#003477"/>
<path d="M189.881 41.5303H189.131V47.5103H189.881V41.5303Z" fill="#003477"/>
<path d="M191.07 47.5103H194.28V46.8303H191.81V44.5703H194.21V43.8803H191.81V42.2103H194.28V41.5303H191.07V47.5103Z" fill="#003477"/>
<path d="M199.701 45.9503L195.211 41.2402V47.5103H195.961V43.0502L200.451 47.7603V41.5302H199.701V45.9503Z" fill="#003477"/>
<path d="M201.25 44.5501C201.25 46.2801 202.66 47.6402 204.37 47.6402C204.89 47.6402 205.48 47.4902 205.94 47.2202V46.3401C205.5 46.7401 204.93 46.9601 204.35 46.9601C203.02 46.9601 202 45.8402 202 44.5302C202 43.2202 203.02 42.0901 204.36 42.0901C204.92 42.0901 205.51 42.3001 205.94 42.6801V41.8202C205.49 41.5402 204.96 41.4102 204.43 41.4102C202.67 41.4102 201.25 42.7902 201.25 44.5602V44.5501Z" fill="#003477"/>
<path d="M206.91 47.5103H210.12V46.8303H207.66V44.5703H210.05V43.8803H207.66V42.2103H210.12V41.5303H206.91V47.5103Z" fill="#003477"/>
<path d="M212.86 47.51H213.66L214.34 46.01H217.08L217.76 47.51H218.56L215.7 41.27L212.85 47.51H212.86ZM214.65 45.33L215.71 42.91L216.78 45.33H214.65Z" fill="#003477"/>
<path d="M223.57 45.9503L219.08 41.2402V47.5103H219.82V43.0502L224.32 47.7603V41.5302H223.57V45.9503Z" fill="#003477"/>
<path d="M226.631 41.5303H225.391V47.5103H226.611C228.501 47.5103 229.991 46.5303 229.991 44.4903C229.991 42.4503 228.471 41.5303 226.631 41.5303V41.5303ZM226.401 46.8303H226.141V42.2103H226.401C227.921 42.2103 229.241 42.7703 229.241 44.5203C229.241 46.2703 227.921 46.8303 226.401 46.8303Z" fill="#003477"/>
<path d="M232.631 42.2103H234.051V47.5103H234.791V42.2103H236.211V41.5303H232.631V42.2103Z" fill="#003477"/>
<path d="M236.881 47.5103H240.091V46.8303H237.631V44.5703H240.021V43.8803H237.631V42.2103H240.091V41.5303H236.881V47.5103Z" fill="#003477"/>
<path d="M240.76 44.5501C240.76 46.2801 242.17 47.6402 243.88 47.6402C244.4 47.6402 244.99 47.4902 245.45 47.2202V46.3401C245 46.7401 244.44 46.9601 243.85 46.9601C242.52 46.9601 241.5 45.8402 241.5 44.5302C241.5 43.2202 242.52 42.0901 243.86 42.0901C244.42 42.0901 245.01 42.3001 245.44 42.6801V41.8202C244.99 41.5402 244.46 41.4102 243.93 41.4102C242.17 41.4102 240.75 42.7902 240.75 44.5602L240.76 44.5501Z" fill="#003477"/>
<path d="M249.94 43.9403H247.1V41.5303H246.35V47.5103H247.1V44.6403H249.94V47.5103H250.69V41.5303H249.94V43.9403Z" fill="#003477"/>
<path d="M256.269 45.9503L251.779 41.2402V47.5103H252.519V43.0502L257.009 47.7603V41.5302H256.269V45.9503Z" fill="#003477"/>
<path d="M260.87 41.4004C259.16 41.4004 257.74 42.8004 257.74 44.5204C257.74 46.2404 259.15 47.6404 260.87 47.6404C262.59 47.6404 264 46.3004 264 44.5204C264 42.7404 262.58 41.4004 260.87 41.4004ZM260.87 46.9404C259.58 46.9404 258.48 45.8904 258.48 44.5204C258.48 43.1504 259.46 42.1004 260.87 42.1004C262.28 42.1004 263.26 43.2004 263.26 44.5204C263.26 45.8404 262.16 46.9404 260.87 46.9404Z" fill="#003477"/>
<path d="M265.551 41.5303H264.801V47.5103H267.371V46.8303H265.551V41.5303Z" fill="#003477"/>
<path d="M270.65 41.4004C268.94 41.4004 267.52 42.8004 267.52 44.5204C267.52 46.2404 268.92 47.6404 270.65 47.6404C272.38 47.6404 273.78 46.3004 273.78 44.5204C273.78 42.7404 272.36 41.4004 270.65 41.4004ZM270.65 46.9404C269.36 46.9404 268.26 45.8904 268.26 44.5204C268.26 43.1504 269.24 42.1004 270.65 42.1004C272.06 42.1004 273.039 43.2004 273.039 44.5204C273.039 45.8404 271.95 46.9404 270.65 46.9404Z" fill="#003477"/>
<path d="M277.66 45.1801H279.21C279.18 46.1601 278.18 46.9601 277.25 46.9601C275.96 46.9601 274.93 45.7701 274.93 44.5201C274.93 43.1801 275.98 42.0901 277.32 42.0901C278.05 42.0901 278.77 42.4802 279.2 43.0702L279.72 42.5702C279.13 41.8302 278.21 41.4102 277.28 41.4102C275.56 41.4102 274.18 42.8202 274.18 44.5402C274.18 46.2602 275.53 47.6402 277.2 47.6402C278.87 47.6402 280.03 46.3801 280.03 44.7401V44.5002H277.66V45.1801V45.1801Z" fill="#003477"/>
<path d="M284.021 41.5303L282.56 44.0803L281.091 41.5303H280.23L282.18 44.9103V47.5103H282.93V44.9103L284.88 41.5303H284.021Z" fill="#003477"/>
<path d="M130.399 35.1302C130.729 35.0202 130.959 34.9402 131.089 34.8802V38.3702H131.849V37.9902H135.849V38.3702H136.609V34.8402C136.719 34.9002 136.839 34.9502 136.969 34.9902C137.099 35.0302 137.219 35.0702 137.329 35.1202L137.689 34.3802C136.519 34.1502 135.619 33.7303 135.009 33.1403H137.629V32.4602H134.199V31.7802C135.289 31.6902 136.209 31.5702 136.949 31.4102L136.599 30.7402C135.489 30.9902 133.849 31.1202 131.689 31.1202C131.229 31.1202 130.849 31.1203 130.539 31.1003L130.809 31.8503C131.339 31.8503 132.219 31.8302 133.439 31.8002V32.4602H130.099V33.1403H132.609C131.879 33.7503 131.019 34.1803 130.029 34.4203L130.419 35.1403L130.399 35.1302ZM135.849 37.3203H131.849V36.6003H135.849V37.3203ZM134.179 33.1502C134.689 33.8302 135.359 34.3302 136.189 34.6602H134.179V33.1502ZM135.849 35.3402V35.9602H131.849V35.3402H135.849ZM133.419 33.1602V34.6602H131.559C132.319 34.3302 132.939 33.8402 133.419 33.1602Z" fill="#003477"/>
<path d="M146.021 31.85V32.29H147.101V33.1H145.851V33.78H147.151C146.911 34.29 146.341 34.75 145.441 35.16L145.901 35.84C146.261 35.61 146.511 35.44 146.651 35.33V37.15C146.651 37.52 146.721 37.77 146.851 37.91C146.991 38.04 147.231 38.11 147.581 38.11H150.221C150.641 38.11 150.921 38.04 151.061 37.89C151.211 37.74 151.321 37.28 151.411 36.53L150.631 36.24C150.591 36.67 150.551 36.97 150.511 37.14C150.471 37.31 150.331 37.39 150.101 37.39H147.681C147.491 37.39 147.391 37.3 147.391 37.11V36.59H150.011V34.92C150.341 35.21 150.751 35.51 151.251 35.81L151.601 35.09C150.721 34.66 150.171 34.22 149.961 33.78H151.511V33.1H150.051V32.26H151.391V31.62H150.051V30.77H149.321V31.62H147.841V30.77H147.101V31.62H146.021V31.73C145.701 31.49 145.311 31.22 144.851 30.92L144.311 31.52C144.671 31.75 145.081 32.06 145.521 32.47L146.021 31.85V31.85ZM147.851 32.3H149.331V33.1H147.851V32.3ZM148.031 33.78H149.131C149.281 34.07 149.451 34.31 149.631 34.51H147.551C147.751 34.3 147.911 34.05 148.031 33.78ZM147.411 35.16H149.281V35.96H147.411V35.16Z" fill="#003477"/>
<path d="M145.031 35.4204C144.861 36.1904 144.531 36.9104 144.051 37.5904L144.701 38.2604C145.171 37.5204 145.511 36.7104 145.731 35.8304L145.021 35.4204H145.031Z" fill="#003477"/>
<path d="M145.78 33.8203C145.36 33.5003 144.96 33.2403 144.57 33.0303L144.08 33.6403C144.4 33.8503 144.78 34.1403 145.22 34.5203L145.77 33.8203H145.78Z" fill="#003477"/>
<path d="M158.469 36.84C158.999 36.14 159.37 35.54 159.58 35.02V38.36L160.33 38.33V34.55C160.48 34.75 160.62 34.93 160.76 35.1C160.92 35.28 161.09 35.49 161.25 35.72L161.71 35.02C161.4 34.68 160.94 34.23 160.33 33.67V33.6H161.57V32.9H160.33V31.75C160.76 31.66 161.17 31.55 161.56 31.42L161.28 30.75C160.41 31.08 159.36 31.28 158.15 31.34L158.32 32.02C158.87 31.98 159.29 31.94 159.58 31.88V32.9H158.07V33.6H159.56C159.22 34.5 158.7 35.34 158.02 36.12L158.479 36.85L158.469 36.84Z" fill="#003477"/>
<path d="M163.73 34.2603C163.13 33.8003 162.63 33.4703 162.22 33.2603L161.74 33.8102C162.17 34.0702 162.66 34.4303 163.22 34.8903L163.72 34.2603H163.73Z" fill="#003477"/>
<path d="M163.89 32.3C163.25 31.83 162.75 31.5001 162.4 31.3101L161.91 31.8501C162.29 32.0801 162.77 32.4301 163.38 32.9201L163.89 32.3101V32.3Z" fill="#003477"/>
<path d="M164.941 30.6904H164.181V35.3704L161.461 35.7804V36.5404L164.181 36.1204V38.3604H164.941V36.0204L165.671 35.9004V35.1604L164.941 35.2804V30.6904Z" fill="#003477"/>
<path d="M179.689 37.5602C179.009 37.3702 178.389 37.0502 177.849 36.6102C178.159 36.3402 178.449 35.9702 178.739 35.4902C179.029 35.0202 179.209 34.6402 179.279 34.3402V33.6602H177.629V32.5702H179.549V31.8302H177.629V30.6802H176.829V31.8302H175.079V32.3502H174.119V30.6802H173.319V32.3502H172.109V33.0902H173.319V34.7302C172.929 34.8302 172.509 34.9102 172.029 34.9702L172.229 35.8502C172.499 35.7802 172.859 35.6902 173.319 35.5702V37.2302C173.319 37.4102 173.229 37.5002 173.049 37.5002L172.339 37.4702L172.529 38.2902H173.169C173.569 38.2902 173.829 38.2202 173.949 38.0902C174.059 37.9702 174.109 37.7102 174.109 37.3202V35.3302C174.579 35.1702 174.889 35.0502 175.059 34.9602V34.1602C174.859 34.2602 174.539 34.3802 174.109 34.5202V33.0802H175.069V32.5602H176.829V33.6502H175.219V34.4002H178.449C178.219 35.0802 177.819 35.6502 177.269 36.0802C176.899 35.7102 176.519 35.1902 176.149 34.5302L175.479 34.8002C175.879 35.5302 176.289 36.1102 176.709 36.5302C175.929 37.0602 175.149 37.4102 174.369 37.5802L174.819 38.3202C175.599 38.1602 176.419 37.7502 177.279 37.0902C177.909 37.6702 178.579 38.0702 179.299 38.3002L179.709 37.5302L179.689 37.5602Z" fill="#003477"/>
<path d="M193.05 38.32L193.68 37.57C192.87 37.04 192.24 36.41 191.78 35.68C191.32 34.95 191.03 34.26 190.9 33.6H193.5V32.75H190.05C190.09 32.32 190.12 31.64 190.12 30.71H189.27C189.27 31.58 189.23 32.26 189.16 32.75H186.21V33.61H189.02C188.89 34.38 188.55 35.12 188 35.83C187.45 36.55 186.78 37.12 186.01 37.56L186.63 38.33C188.45 37.13 189.55 35.55 189.91 33.59H190.04C190.58 35.78 191.59 37.35 193.05 38.31V38.32Z" fill="#003477"/>
<path d="M204.321 31.9601C204.111 31.5401 203.901 31.1701 203.691 30.8301L203.061 31.1101C203.271 31.4601 203.471 31.8401 203.661 32.2701L204.321 31.9501V31.9601Z" fill="#003477"/>
<path d="M202.55 32.0903C202.33 31.7103 202.11 31.3603 201.89 31.0503L201.26 31.3303C201.49 31.6503 201.7 32.0103 201.89 32.4103L202.55 32.0903V32.0903Z" fill="#003477"/>
<path d="M203.189 37.5203C202.909 37.5203 202.639 37.5103 202.399 37.4903L202.549 38.1903H203.629C203.809 38.1903 203.969 38.1203 204.109 37.9703C204.199 37.8803 204.249 37.7403 204.259 37.5603V36.2903H207.229V35.6303H204.259V35.3904C204.959 35.1104 205.579 34.8103 206.129 34.5003V33.8403H201.609V34.5003H204.979C204.439 34.7503 203.929 34.9503 203.439 35.1003V35.6303H200.439V36.2903H203.439V37.3303C203.439 37.4603 203.359 37.5203 203.189 37.5203V37.5203Z" fill="#003477"/>
<path d="M201.041 33.2003H206.691V34.1503H207.451V32.5403H205.881C206.111 32.1603 206.341 31.6803 206.571 31.1203L205.751 30.8003C205.491 31.5203 205.241 32.1003 205.001 32.5403H200.291V34.1803H201.051V33.2003H201.041Z" fill="#003477"/>
</svg>
