<svg width="194" height="29" viewBox="0 0 194 29" fill="none" xmlns="http://www.w3.org/2000/svg">
<path d="M46.5993 28.35H39.2793V0H46.5993V0.25H39.5293V28.1H46.5993V28.35Z" fill="#231815"/>
<path d="M155.881 28.3501H148.561V28.1001H155.631V0.330078H148.561V0.0800781H155.881V28.3501Z" fill="#231815"/>
<path d="M0 8.22973H2.78C3.47 8.22973 4.00998 8.39973 4.38998 8.72973C4.76998 9.05973 4.97 9.51973 4.97 10.0897C4.97 10.6597 4.77998 11.1197 4.38998 11.4597C3.99998 11.7997 3.47 11.9597 2.78 11.9597H1.16V14.6297H0V8.21973V8.22973ZM2.64999 11.0597C3.04999 11.0597 3.36 10.9797 3.56 10.8097C3.76 10.6397 3.87 10.4097 3.87 10.0897C3.87 9.76973 3.77 9.52973 3.56 9.36973C3.35 9.20973 3.04998 9.11973 2.63998 9.11973H1.16V11.0497H2.63998L2.64999 11.0597Z" fill="#231815"/>
<path d="M11.2697 14.64H10.0497L9.22977 12.51C9.15977 12.31 9.04975 12.17 8.89975 12.1C8.74975 12.03 8.55976 11.98 8.31976 11.98H7.15976V14.64H6.00977V8.22998H8.75977C9.48977 8.22998 10.0398 8.38998 10.4198 8.70998C10.7998 9.02998 10.9897 9.47998 10.9897 10.08C10.9897 10.51 10.8797 10.87 10.6497 11.16C10.4197 11.46 10.1098 11.67 9.68976 11.79C10.0698 11.87 10.3398 12.13 10.5098 12.58L11.2898 14.63L11.2697 14.64ZM8.57974 11.08C9.01974 11.08 9.33974 11 9.54974 10.84C9.75974 10.68 9.85974 10.43 9.85974 10.1C9.85974 9.76998 9.75974 9.52998 9.54974 9.37998C9.33974 9.22998 9.01976 9.13998 8.56976 9.13998H7.11975V11.08H8.56976H8.57974Z" fill="#231815"/>
<path d="M12.3203 8.22998H13.4803V14.64H12.3203V8.22998Z" fill="#231815"/>
<path d="M20.2594 8.22998V14.64H19.3994L15.9394 10.15V14.64H14.8594V8.22998H15.7194L19.1694 12.71V8.22998H20.2594Z" fill="#231815"/>
<path d="M23.1603 9.17998H21.0703V8.22998H26.4203V9.17998H24.3203V14.63H23.1503V9.17998H23.1603Z" fill="#231815"/>
<path d="M27.8302 14.5199C27.4002 14.3899 27.0402 14.1999 26.7402 13.9499L27.1402 13.0999C27.4502 13.3299 27.7802 13.5099 28.1202 13.6199C28.4602 13.7299 28.8303 13.7899 29.2303 13.7899C29.6703 13.7899 30.0203 13.7099 30.2603 13.5599C30.5003 13.3999 30.6202 13.1799 30.6202 12.8999C30.6202 12.6599 30.5102 12.4799 30.2802 12.3499C30.0502 12.2199 29.6803 12.0999 29.1703 11.9799C28.3703 11.8099 27.7803 11.5799 27.4203 11.3099C27.0503 11.0299 26.8702 10.6299 26.8702 10.0999C26.8702 9.7199 26.9702 9.3899 27.1802 9.0899C27.3902 8.7899 27.6702 8.5599 28.0502 8.3999C28.4302 8.2399 28.8603 8.1499 29.3503 8.1499C29.8003 8.1499 30.2302 8.2199 30.6302 8.3499C31.0302 8.4799 31.3702 8.6699 31.6202 8.9099L31.2303 9.7599C30.6603 9.2999 30.0302 9.0799 29.3402 9.0799C28.9302 9.0799 28.6002 9.1599 28.3602 9.3399C28.1202 9.5099 28.0002 9.7399 28.0002 10.0399C28.0002 10.2899 28.1103 10.4799 28.3203 10.6199C28.5303 10.7599 28.9002 10.8699 29.4102 10.9899C29.9402 11.1199 30.3802 11.2499 30.7202 11.3999C31.0602 11.5499 31.3102 11.7399 31.4902 11.9699C31.6702 12.1999 31.7603 12.4899 31.7603 12.8399C31.7603 13.2199 31.6603 13.5599 31.4503 13.8399C31.2403 14.1199 30.9503 14.3499 30.5703 14.4999C30.1903 14.6599 29.7302 14.7299 29.2102 14.7299C28.7202 14.7299 28.2602 14.6599 27.8302 14.5299V14.5199Z" fill="#231815"/>
<path d="M11.6699 22.1002C12.5799 22.5502 13.0299 23.1702 13.0299 23.9802C13.0299 24.6202 12.7999 25.1502 12.3499 25.5802C11.8999 26.0102 11.3099 26.2202 10.5799 26.2202C9.8499 26.2202 9.2699 26.0102 8.8299 25.5802C8.3899 25.1502 8.16992 24.6402 8.16992 24.0402C8.16992 23.2002 8.62991 22.5502 9.55991 22.1002C8.85991 21.7302 8.50992 21.2102 8.50992 20.5502C8.50992 20.0602 8.7099 19.6202 9.1199 19.2502C9.5299 18.8702 10.0299 18.6802 10.5999 18.6802C11.1699 18.6802 11.6699 18.8602 12.0799 19.2302C12.4899 19.6002 12.6899 20.0402 12.6899 20.5702C12.6899 21.2102 12.3499 21.7202 11.6599 22.1002H11.6699ZM12.3099 23.9902C12.3099 23.5802 12.1399 23.2302 11.8099 22.9202C11.4799 22.6102 11.0799 22.4602 10.6099 22.4602C10.1399 22.4602 9.72989 22.6202 9.38989 22.9302C9.04989 23.2502 8.87991 23.6202 8.87991 24.0502C8.87991 24.4802 9.03991 24.8402 9.34991 25.1202C9.65991 25.4002 10.0699 25.5402 10.5799 25.5402C11.0899 25.5402 11.4999 25.3902 11.8199 25.0902C12.1399 24.7902 12.2999 24.4202 12.2999 23.9902H12.3099ZM11.9799 20.5402C11.9799 20.2202 11.8599 19.9402 11.5999 19.7102C11.3499 19.4802 11.0199 19.3702 10.6199 19.3702C10.2199 19.3702 9.8899 19.4802 9.6199 19.7102C9.3599 19.9402 9.22992 20.2202 9.22992 20.5402C9.22992 20.8602 9.3699 21.1602 9.6499 21.4202C9.9299 21.6802 10.2499 21.8002 10.6099 21.8002C10.9699 21.8002 11.2899 21.6702 11.5599 21.4202C11.8299 21.1702 11.9599 20.8702 11.9599 20.5302L11.9799 20.5402Z" fill="#AA8420"/>
<path d="M14.1309 20.7303H14.8109V21.6503C15.2809 20.9403 15.8909 20.5903 16.6309 20.5903C17.0209 20.5903 17.3809 20.7003 17.6909 20.9203C18.0009 21.1403 18.2109 21.4603 18.3109 21.8703C18.5309 21.4603 18.8108 21.1403 19.1508 20.9203C19.4908 20.7003 19.8808 20.5903 20.3308 20.5903C20.7808 20.5903 21.1709 20.7603 21.5409 21.1003C21.9009 21.4403 22.0808 22.1203 22.0808 23.1403V26.0403H21.3809V23.1403C21.3809 22.6503 21.3509 22.3003 21.2909 22.0603C21.2309 21.8303 21.1008 21.6403 20.9008 21.4803C20.7008 21.3203 20.4408 21.2503 20.1108 21.2503C19.7808 21.2503 19.4708 21.3603 19.1808 21.5803C18.8908 21.8003 18.7009 22.0803 18.5909 22.4203C18.4809 22.7603 18.4308 23.2703 18.4308 23.9603V26.0403H17.7609V23.3203C17.7609 22.7503 17.7309 22.3503 17.6709 22.1103C17.6109 21.8703 17.4808 21.6603 17.2708 21.5003C17.0608 21.3403 16.8109 21.2503 16.5109 21.2503C16.2109 21.2503 15.9309 21.3403 15.6709 21.5103C15.4109 21.6903 15.2008 21.9303 15.0508 22.2303C14.9008 22.5303 14.8209 23.0503 14.8209 23.7803V26.0303H14.1408V20.7203L14.1309 20.7303Z" fill="#AA8420"/>
<path d="M23.5098 20.7303H24.1898V21.6503C24.6598 20.9403 25.2698 20.5903 26.0098 20.5903C26.3998 20.5903 26.7598 20.7003 27.0698 20.9203C27.3798 21.1403 27.5898 21.4603 27.6898 21.8703C27.9098 21.4603 28.1898 21.1403 28.5298 20.9203C28.8698 20.7003 29.2597 20.5903 29.7097 20.5903C30.1597 20.5903 30.5498 20.7603 30.9198 21.1003C31.2798 21.4403 31.4597 22.1203 31.4597 23.1403V26.0403H30.7598V23.1403C30.7598 22.6503 30.7298 22.3003 30.6698 22.0603C30.6098 21.8303 30.4798 21.6403 30.2798 21.4803C30.0798 21.3203 29.8197 21.2503 29.4897 21.2503C29.1597 21.2503 28.8498 21.3603 28.5598 21.5803C28.2698 21.8003 28.0798 22.0803 27.9698 22.4203C27.8598 22.7603 27.8098 23.2703 27.8098 23.9603V26.0403H27.1397V23.3203C27.1397 22.7503 27.1097 22.3503 27.0497 22.1103C26.9897 21.8703 26.8597 21.6603 26.6497 21.5003C26.4397 21.3403 26.1897 21.2503 25.8897 21.2503C25.5897 21.2503 25.3097 21.3403 25.0497 21.5103C24.7897 21.6903 24.5797 21.9303 24.4297 22.2303C24.2797 22.5303 24.1998 23.0503 24.1998 23.7803V26.0303H23.5197V20.7203L23.5098 20.7303Z" fill="#AA8420"/>
<path d="M162.66 14.4C162.2 14.13 161.85 13.75 161.6 13.26C161.35 12.77 161.23 12.18 161.23 11.51C161.23 10.84 161.35 10.26 161.6 9.76998C161.85 9.26998 162.2 8.88998 162.66 8.62998C163.12 8.36998 163.66 8.22998 164.28 8.22998C164.9 8.22998 165.45 8.35998 165.9 8.62998C166.36 8.88998 166.71 9.26998 166.95 9.76998C167.19 10.26 167.31 10.85 167.31 11.51C167.31 12.17 167.19 12.77 166.94 13.26C166.69 13.76 166.34 14.14 165.89 14.4C165.43 14.67 164.89 14.8 164.27 14.8C163.65 14.8 163.11 14.67 162.65 14.4H162.66ZM165.66 13.26C165.99 12.85 166.16 12.27 166.16 11.51C166.16 10.75 165.99 10.17 165.66 9.76998C165.33 9.35998 164.87 9.15998 164.27 9.15998C163.67 9.15998 163.21 9.35998 162.88 9.75998C162.55 10.16 162.38 10.74 162.38 11.51C162.38 12.28 162.55 12.86 162.88 13.26C163.21 13.66 163.67 13.87 164.27 13.87C164.87 13.87 165.33 13.67 165.66 13.26Z" fill="#231815"/>
<path d="M173.9 8.31006V14.7201H173.04L169.58 10.2301V14.7201H168.5V8.31006H169.36L172.81 12.7901V8.31006H173.9Z" fill="#231815"/>
<path d="M175.301 8.3098H176.461V13.7598H179.461V14.7098H175.301V8.2998V8.3098Z" fill="#231815"/>
<path d="M180.34 8.31006H181.5V14.7201H180.34V8.31006Z" fill="#231815"/>
<path d="M188.281 8.31006V14.7201H187.421L183.961 10.2301V14.7201H182.881V8.31006H183.741L187.191 12.7901V8.31006H188.281Z" fill="#231815"/>
<path d="M189.68 8.31006H193.96V9.23006H190.81V11.0001H193.77V11.9201H190.81V13.8001H193.96V14.7201H189.68V8.31006Z" fill="#231815"/>
<path d="M164.99 18.7598H165.13V23.7598H166V24.4498H165.13V26.1198H164.42V24.4498H160.98L164.99 18.7598ZM164.42 23.7598V20.7698L162.3 23.7598H164.42V23.7598Z" fill="#AA8420"/>
<path d="M169 26.3C168.23 26.3 167.63 25.98 167.21 25.34C166.79 24.7 166.59 23.76 166.59 22.52C166.59 21.28 166.8 20.34 167.21 19.71C167.62 19.08 168.22 18.75 168.99 18.75C169.76 18.75 170.37 19.08 170.81 19.72C171.26 20.37 171.49 21.3 171.49 22.51C171.49 23.72 171.26 24.66 170.81 25.31C170.36 25.96 169.75 26.28 169 26.28V26.3ZM169.02 19.44C168.47 19.44 168.04 19.71 167.73 20.24C167.42 20.77 167.27 21.54 167.27 22.55C167.27 24.62 167.85 25.65 169.02 25.65C169.59 25.65 170.03 25.38 170.35 24.84C170.67 24.3 170.82 23.53 170.82 22.53C170.82 21.53 170.66 20.77 170.33 20.24C170 19.71 169.57 19.44 169.02 19.44V19.44Z" fill="#AA8420"/>
<path d="M175.08 20.8002H175.76V21.7702C176.3 21.0302 177 20.6602 177.87 20.6602C178.62 20.6602 179.26 20.9302 179.8 21.4902C180.34 22.0402 180.61 22.7002 180.61 23.4702C180.61 24.2402 180.34 24.9102 179.81 25.4602C179.28 26.0102 178.64 26.2902 177.89 26.2902C177.08 26.2902 176.37 25.9302 175.76 25.2002V28.0502H175.08V20.8002V20.8002ZM179.93 23.4802C179.93 22.8902 179.72 22.3802 179.31 21.9602C178.9 21.5402 178.4 21.3302 177.81 21.3302C177.22 21.3302 176.72 21.5402 176.31 21.9502C175.91 22.3702 175.71 22.8802 175.71 23.4902C175.71 24.1002 175.92 24.6202 176.33 25.0302C176.74 25.4502 177.24 25.6502 177.81 25.6502C178.38 25.6502 178.88 25.4402 179.3 25.0202C179.72 24.6002 179.92 24.0802 179.92 23.4702L179.93 23.4802Z" fill="#AA8420"/>
<path d="M183.52 23.8898L181.98 26.1098H181.17L183.11 23.3098L181.36 20.7998H182.18L183.52 22.7198L184.85 20.7998H185.67L183.93 23.2998L185.9 26.1098H185.07L183.52 23.8898V23.8898Z" fill="#AA8420"/>
<path d="M70.02 5.89994C70.15 5.73994 70.2 5.43994 70.2 5.43994H62.25C62.25 5.43994 62.35 5.76994 62.43 5.89994H70.03H70.02Z" fill="#AA8420"/>
<path d="M69.5503 6.57018C69.7003 6.44018 69.8503 6.18018 69.8503 6.18018H62.5703C62.5703 6.18018 62.6503 6.38018 62.8303 6.57018H69.5503V6.57018Z" fill="#AA8420"/>
<path d="M68.9799 7.17988C69.1599 7.07988 69.3098 6.87988 69.3098 6.87988H63.0898C63.0898 6.87988 63.2399 7.04988 63.3799 7.17988H68.9898H68.9799Z" fill="#AA8420"/>
<path d="M68.2495 7.75979C68.4295 7.68979 68.6295 7.52979 68.6295 7.52979H63.7695C63.7695 7.52979 63.7695 7.56979 64.1095 7.75979H68.2495V7.75979Z" fill="#AA8420"/>
<path d="M64.6797 8.12012C64.6797 8.12012 65.1897 8.42012 66.1997 8.42012C67.2097 8.42012 67.8497 8.12012 67.8497 8.12012H64.6897H64.6797Z" fill="#AA8420"/>
<path d="M64.5901 8.78979C64.5901 8.78979 65.2002 8.81979 65.5602 9.09979C65.9102 9.39979 66.1702 9.88979 66.1702 9.88979C66.1702 9.88979 66.3902 9.41979 66.7302 9.16979C67.0802 8.90979 67.6401 8.78979 67.6401 8.78979H73.9102L75.1501 10.6198H69.5102C69.5102 10.6198 69.1201 10.6398 68.5201 10.9798C68.2101 11.1598 67.9702 11.4698 67.9702 11.4698C67.9702 11.4698 67.9201 11.6198 67.8601 11.6998C67.7901 11.7798 67.7402 11.8498 67.6702 11.8798C67.5802 11.9198 67.6002 11.8998 67.6002 11.8998H64.6702C64.6702 11.8998 64.5501 11.8498 64.4901 11.7498C64.4201 11.6498 64.4702 11.6798 64.4102 11.6098C64.3602 11.5298 64.2401 11.3098 63.8001 11.0098C63.3401 10.7098 62.8901 10.6798 62.8901 10.6798H57.1602L58.4102 8.77979H64.5901V8.78979Z" fill="#003477"/>
<path d="M60.1602 11.3799V20.7399C60.1602 20.7399 60.1902 21.5699 60.8802 22.6799C61.5702 23.7999 62.5801 24.3099 62.5801 24.3099L63.3701 23.0699C63.3701 23.0699 62.6801 22.6599 62.1501 21.8699C61.6401 21.0799 61.6401 20.3999 61.6401 20.3999V11.3799H60.1602Z" fill="#003477"/>
<path d="M70.7701 11.3501V20.3801C70.7701 20.3801 70.6601 21.2901 70.2201 21.9301C69.7901 22.5901 69.0801 23.1201 69.0801 23.1201L69.8401 24.3401C69.8401 24.3401 70.9901 23.5001 71.5501 22.6101C72.1101 21.7201 72.2401 20.3901 72.2401 20.3901V11.3501H70.7601H70.7701Z" fill="#003477"/>
<path d="M57.8105 11.3799V20.7699C57.8105 20.7699 57.9105 22.2199 58.8105 23.7399C59.7205 25.2499 61.3605 26.3099 61.3605 26.3099L62.1405 25.0699C62.1405 25.0699 61.0905 24.5099 60.2505 23.2199C59.3905 21.9199 59.3405 20.7299 59.3405 20.7299V11.3799H57.8105Z" fill="#003477"/>
<path d="M64.5894 12.3701V22.2901C64.5894 22.2901 64.5494 22.3301 64.5394 22.4701C64.5194 22.6201 64.4194 22.7201 64.4194 22.7201L61.1094 28.2101H71.2594L67.9494 22.6101L67.8494 22.3601L67.8194 22.1001V12.3901H66.5794V22.4601C66.5794 22.4601 66.5794 22.6101 66.6294 22.7201C66.6594 22.8401 66.7294 23.0201 66.7294 23.0201L68.7694 26.3801H63.5994L65.6094 23.0401C65.6094 23.0401 65.6794 22.9301 65.7194 22.7601C65.7594 22.6101 65.7694 22.4701 65.7694 22.4701V12.3701H64.5794H64.5894Z" fill="#AA8420"/>
<path d="M73.0591 11.3501V20.5801C73.0591 20.5801 73.0491 21.7701 72.1691 23.1301C71.2891 24.5001 70.2891 25.0701 70.2891 25.0701L71.0291 26.3201C71.0291 26.3201 72.5391 25.3601 73.4991 23.8501C74.4391 22.3301 74.549 20.5701 74.549 20.5701V11.3501H73.049H73.0591Z" fill="#003477"/>
<path d="M62.1891 5.17014C62.1891 5.17014 61.6791 2.39014 63.7291 1.00014C63.7291 1.00014 64.6491 0.140137 66.1491 0.140137C67.7491 0.140137 68.6691 0.980137 68.6691 0.980137C70.8891 2.61014 70.2291 5.17014 70.2291 5.17014H62.1891Z" fill="#AA8420"/>
<path d="M92.9394 14.8299V13.7199H87.2594V12.5899C89.0694 12.4399 90.5894 12.2399 91.8094 11.9799L91.2294 10.8799C89.3894 11.2899 86.6794 11.4999 83.0994 11.4999C82.3494 11.4999 81.7094 11.4999 81.1994 11.4699L81.6394 12.7099C82.5194 12.7099 83.9694 12.6799 85.9894 12.6299V13.7199H80.4594V14.8299H84.6194C83.4094 15.8399 81.9894 16.5499 80.3594 16.9399L80.9994 18.1399C81.5394 17.9599 81.9194 17.8199 82.1394 17.7199V23.4899H83.3894V22.8699H90.0094V23.4899H91.2594V17.6499C91.4394 17.7499 91.6394 17.8299 91.8494 17.8899C92.0594 17.9499 92.2594 18.0199 92.4394 18.0999L93.0294 16.8799C91.0894 16.4899 89.6094 15.8099 88.5894 14.8199H92.9194L92.9394 14.8299ZM82.9294 17.3399C84.1894 16.7999 85.2194 15.9799 85.9994 14.8699V17.3399H82.9294ZM90.0194 21.7499H83.3994V20.5699H90.0194V21.7499ZM90.0194 19.4899H83.3994V18.4699H90.0194V19.4899ZM90.5794 17.3399H87.2594V14.8499C88.0994 15.9699 89.2094 16.7999 90.5794 17.3399Z" fill="#003477"/>
<path d="M99.8293 15.9899C99.1393 15.4599 98.4793 15.0199 97.8393 14.6899L97.0293 15.6999C97.5593 16.0499 98.1893 16.5399 98.9093 17.1499L99.8193 15.9899H99.8293Z" fill="#003477"/>
<path d="M96.9688 22.2301L98.0487 23.3301C98.8187 22.1101 99.3888 20.7801 99.7588 19.3301L98.5887 18.6401C98.2987 19.9101 97.7588 21.1101 96.9788 22.2301H96.9688Z" fill="#003477"/>
<path d="M106.848 20.5802V17.8202C107.388 18.3002 108.068 18.7902 108.888 19.2902L109.468 18.0902C108.018 17.3702 107.118 16.6502 106.758 15.9202H109.328V14.7902H106.908V13.4102H109.128V12.3502H106.908V10.9502H105.698V12.3502H103.248V10.9502H102.018V12.3502H100.228V12.5202C99.6985 12.1202 99.0585 11.6702 98.2885 11.1902L97.3984 12.1802C97.9984 12.5602 98.6684 13.0802 99.3984 13.7502L100.218 12.7302V13.4602H102.008V14.8102H99.9485V15.9402H102.098C101.708 16.7802 100.768 17.5402 99.2784 18.2102L100.048 19.3402C100.648 18.9602 101.058 18.6802 101.288 18.4902V21.5002C101.288 22.1102 101.398 22.5302 101.628 22.7502C101.858 22.9602 102.268 23.0702 102.838 23.0702H107.188C107.878 23.0702 108.338 22.9502 108.568 22.7102C108.808 22.4602 108.998 21.7102 109.148 20.4602L107.858 19.9902C107.798 20.7002 107.728 21.2002 107.658 21.4802C107.588 21.7602 107.358 21.9002 106.988 21.9002H102.998C102.688 21.9002 102.528 21.7402 102.528 21.4302V20.5702H106.858L106.848 20.5802ZM103.248 13.4802H105.698V14.8002H103.248V13.4802ZM103.538 15.9302H105.358C105.608 16.4002 105.888 16.8102 106.178 17.1402H102.748C103.078 16.7902 103.348 16.3902 103.538 15.9302ZM102.518 19.5202V18.2002H105.618V19.5202H102.518Z" fill="#003477"/>
<path d="M123.139 13.4798C122.079 12.7098 121.259 12.1598 120.679 11.8398L119.869 12.7198C120.489 13.0998 121.289 13.6898 122.289 14.4798L123.139 13.4698V13.4798Z" fill="#003477"/>
<path d="M122.88 16.7203C121.89 15.9703 121.06 15.4203 120.39 15.0703L119.6 15.9703C120.31 16.3903 121.12 16.9903 122.05 17.7603L122.88 16.7203V16.7203Z" fill="#003477"/>
<path d="M117.24 15.7402V15.6202H119.28V14.4602H117.24V12.5602C117.95 12.4202 118.63 12.2302 119.27 12.0102L118.81 10.9102C117.37 11.4602 115.64 11.7802 113.63 11.8802L113.91 13.0102C114.82 12.9502 115.52 12.8702 115.99 12.7802V14.4602H113.49V15.6202H115.95C115.39 17.1102 114.54 18.4902 113.41 19.7702L114.16 20.9802C115.04 19.8302 115.65 18.8302 115.99 17.9702V23.5002L117.23 23.4502V17.2102C117.47 17.5302 117.71 17.8302 117.94 18.1102C118.21 18.4102 118.48 18.7602 118.75 19.1302L119.5 17.9802C118.99 17.4302 118.23 16.6802 117.23 15.7502L117.24 15.7402Z" fill="#003477"/>
<path d="M124.879 10.8301H123.629V18.5701L119.129 19.2401V20.4901L123.629 19.8001V23.5001H124.879V19.6401L126.089 19.4401V18.2101L124.879 18.4201V10.8301Z" fill="#003477"/>
<path d="M139.469 19.0801C138.709 17.8801 138.219 16.7301 138.019 15.6401H142.319V14.2301H136.619C136.689 13.5201 136.729 12.4001 136.729 10.8501H135.319C135.319 12.2801 135.259 13.4101 135.139 14.2301H130.269V15.6501H134.909C134.689 16.9101 134.129 18.1401 133.229 19.3201C132.309 20.5001 131.219 21.4601 129.949 22.1801L130.969 23.4601C133.979 21.4801 135.789 18.8701 136.389 15.6301H136.609C137.509 19.2401 139.159 21.8401 141.579 23.4301L142.619 22.1901C141.279 21.3101 140.229 20.2701 139.469 19.0701V19.0801Z" fill="#003477"/>
</svg>
