<svg width="261" height="82" viewBox="0 0 261 82" fill="none" xmlns="http://www.w3.org/2000/svg">
<path d="M43.6501 81.0301H36.3301V0.370117H43.6501V0.620117H36.5801V80.7801H43.6501V81.0301Z" fill="#231815"/>
<path d="M223.31 81.0301H215.98V80.7801H223.06V0.620117H215.98V0.370117H223.31V81.0301Z" fill="#231815"/>
<path d="M0.250234 32.3901H2.81023C3.47023 32.3901 3.98023 32.5501 4.35023 32.8701C4.72023 33.1901 4.90023 33.6301 4.90023 34.1801C4.90023 34.7301 4.71023 35.1801 4.34023 35.5001C3.97023 35.8201 3.46023 35.9801 2.80023 35.9801H0.980234V38.8001H0.240234V32.3901H0.250234ZM2.74023 35.3701C3.21023 35.3701 3.57023 35.2701 3.81023 35.0601C4.05023 34.8601 4.17023 34.5601 4.17023 34.1801C4.17023 33.8001 4.05023 33.5001 3.81023 33.3001C3.57023 33.1001 3.21023 33.0001 2.74023 33.0001H0.980234V35.3701H2.74023Z" fill="#231815"/>
<path d="M11.1411 38.7901H10.3611L9.57109 36.6601C9.47109 36.4001 9.34109 36.2201 9.17109 36.1301C9.00109 36.0401 8.76109 36.0001 8.45109 36.0001H6.85109V38.8001H6.12109V32.3901H8.67109C9.36109 32.3901 9.89109 32.5401 10.2611 32.8501C10.6311 33.1601 10.8111 33.6001 10.8111 34.1701C10.8111 34.5901 10.7011 34.9401 10.4811 35.2301C10.2611 35.5201 9.94109 35.7201 9.53109 35.8401C9.72109 35.8701 9.87109 35.9501 10.0111 36.0801C10.1411 36.2101 10.2511 36.3901 10.3411 36.6301L11.1511 38.8001L11.1411 38.7901ZM8.59109 35.3801C9.57109 35.3801 10.0711 34.9801 10.0711 34.1701C10.0711 33.7701 9.95109 33.4801 9.71109 33.2801C9.47109 33.0901 9.10109 32.9901 8.59109 32.9901H6.84109V35.3701H8.59109V35.3801Z" fill="#231815"/>
<path d="M12.3496 32.3901H13.0896V38.8001H12.3496V32.3901Z" fill="#231815"/>
<path d="M19.8099 32.3901V38.8001H19.2299L15.3599 33.6401V38.8001H14.6699V32.3901H15.2399L19.1099 37.5501V32.3901H19.8099Z" fill="#231815"/>
<path d="M22.9312 33.0201H20.7012V32.3901H25.9112V33.0201H23.6812V38.8001H22.9312V33.0201Z" fill="#231815"/>
<path d="M26.25 38.0601L26.53 37.4901C26.85 37.7601 27.17 37.9501 27.5 38.0701C27.83 38.1801 28.21 38.2401 28.65 38.2401C29.17 38.2401 29.56 38.1401 29.84 37.9401C30.12 37.7401 30.26 37.4601 30.26 37.0901C30.26 36.8701 30.19 36.7001 30.06 36.5601C29.93 36.4201 29.75 36.3201 29.53 36.2401C29.31 36.1601 29.02 36.0801 28.65 36.0001C28.16 35.8901 27.75 35.7701 27.44 35.6501C27.12 35.5201 26.86 35.3401 26.67 35.1101C26.48 34.8801 26.37 34.5601 26.37 34.1801C26.37 33.8001 26.47 33.4901 26.66 33.2101C26.85 32.9301 27.12 32.7101 27.47 32.5601C27.82 32.4001 28.23 32.3301 28.7 32.3301C29.14 32.3301 29.56 32.4001 29.94 32.5401C30.32 32.6801 30.65 32.8801 30.91 33.1401L30.62 33.7101C30.32 33.4501 30.02 33.2601 29.71 33.1401C29.4 33.0201 29.06 32.9601 28.7 32.9601C28.2 32.9601 27.81 33.0701 27.53 33.2801C27.25 33.4901 27.11 33.7801 27.11 34.1601C27.11 34.4801 27.23 34.7301 27.48 34.8901C27.73 35.0501 28.1 35.1901 28.61 35.3101C29.16 35.4401 29.6 35.5601 29.91 35.6701C30.23 35.7801 30.49 35.9501 30.7 36.1701C30.91 36.4001 31.01 36.6901 31.01 37.0701C31.01 37.4501 30.91 37.7501 30.72 38.0201C30.53 38.2901 30.25 38.5001 29.9 38.6501C29.54 38.8001 29.12 38.8801 28.65 38.8801C27.65 38.8801 26.85 38.6101 26.26 38.0701L26.25 38.0601Z" fill="#231815"/>
<path d="M4.47 50.1004V50.7904H0.5V50.1004H2.07V44.6904L0.61 45.6204V44.8304L2.43 43.6704H2.9V50.1004H4.47V50.1004Z" fill="#AA8420"/>
<path d="M10.6294 50.1003V50.7903H6.04938V50.1703L8.53937 47.4103C8.86937 47.0403 9.11938 46.7003 9.26938 46.4003C9.41938 46.1003 9.49937 45.8003 9.49937 45.5003C9.49937 45.1103 9.38937 44.8003 9.15937 44.5903C8.92937 44.3803 8.60937 44.2803 8.18937 44.2803C7.50937 44.2803 6.83937 44.5503 6.16937 45.1003L5.85938 44.4703C6.13938 44.2003 6.48937 43.9903 6.91937 43.8303C7.34937 43.6703 7.77937 43.5903 8.20937 43.5903C8.85937 43.5903 9.37938 43.7603 9.75938 44.0903C10.1394 44.4303 10.3294 44.8803 10.3294 45.4603C10.3294 45.8703 10.2394 46.2603 10.0494 46.6303C9.86938 47.0103 9.55937 47.4303 9.12937 47.9003L7.09938 50.1003H10.6194H10.6294Z" fill="#AA8420"/>
<path d="M21.8593 47.6301V50.7901H21.0493V47.6701C21.0493 47.2001 20.9693 46.8501 20.7993 46.6401C20.6393 46.4301 20.3693 46.3201 20.0093 46.3201C19.5793 46.3201 19.2493 46.4601 19.0093 46.7501C18.7693 47.0401 18.6493 47.4301 18.6493 47.9201V50.7901H17.8393V47.6701C17.8393 47.2001 17.7593 46.8601 17.5893 46.6501C17.4193 46.4301 17.1593 46.3201 16.7893 46.3201C16.3593 46.3201 16.0293 46.4601 15.7893 46.7501C15.5493 47.0401 15.4193 47.4301 15.4193 47.9201V50.7901H14.6093V47.1701C14.6093 46.6501 14.5793 46.1801 14.5293 45.7601H15.2993L15.3793 46.6401C15.5193 46.3201 15.7293 46.0701 15.9993 45.9001C16.2793 45.7301 16.5993 45.6401 16.9593 45.6401C17.3593 45.6401 17.6893 45.7201 17.9393 45.8801C18.1893 46.0401 18.3793 46.2901 18.4993 46.6201C18.6493 46.3201 18.8793 46.0801 19.1693 45.9101C19.4593 45.7401 19.7993 45.6401 20.1693 45.6401C21.2793 45.6401 21.8393 46.3001 21.8393 47.6301H21.8593Z" fill="#AA8420"/>
<path d="M30.6503 47.6301V50.7901H29.8403V47.6701C29.8403 47.2001 29.7603 46.8501 29.5903 46.6401C29.4303 46.4301 29.1603 46.3201 28.8003 46.3201C28.3703 46.3201 28.0403 46.4601 27.8003 46.7501C27.5603 47.0401 27.4403 47.4301 27.4403 47.9201V50.7901H26.6303V47.6701C26.6303 47.2001 26.5503 46.8601 26.3803 46.6501C26.2103 46.4301 25.9503 46.3201 25.5803 46.3201C25.1503 46.3201 24.8203 46.4601 24.5803 46.7501C24.3403 47.0401 24.2103 47.4301 24.2103 47.9201V50.7901H23.4003V47.1701C23.4003 46.6501 23.3703 46.1801 23.3203 45.7601H24.0903L24.1703 46.6401C24.3103 46.3201 24.5203 46.0701 24.7903 45.9001C25.0703 45.7301 25.3903 45.6401 25.7603 45.6401C26.1603 45.6401 26.4903 45.7201 26.7403 45.8801C26.9903 46.0401 27.1803 46.2901 27.3003 46.6201C27.4503 46.3201 27.6803 46.0801 27.9703 45.9101C28.2703 45.7301 28.6003 45.6401 28.9703 45.6401C30.0803 45.6401 30.6403 46.3001 30.6403 47.6301H30.6503Z" fill="#AA8420"/>
<path d="M230.03 38.4701C229.59 38.2101 229.25 37.83 229.02 37.33C228.78 36.84 228.66 36.2501 228.66 35.5901C228.66 34.9301 228.78 34.3401 229.01 33.8401C229.24 33.3401 229.58 32.9701 230.02 32.7101C230.46 32.4501 230.98 32.3101 231.58 32.3101C232.18 32.3101 232.7 32.4401 233.14 32.7101C233.58 32.9701 233.91 33.3501 234.15 33.8401C234.38 34.3301 234.5 34.91 234.5 35.58C234.5 36.25 234.38 36.83 234.14 37.33C233.9 37.82 233.56 38.2001 233.13 38.4701C232.69 38.7401 232.18 38.8701 231.58 38.8701C230.98 38.8701 230.47 38.7401 230.03 38.4701V38.4701ZM233.16 37.5401C233.54 37.0801 233.73 36.42 233.73 35.58C233.73 34.74 233.54 34.0801 233.17 33.6301C232.8 33.1801 232.27 32.9501 231.58 32.9501C230.89 32.9501 230.36 33.1801 229.99 33.6401C229.62 34.1001 229.42 34.7501 229.42 35.5901C229.42 36.4301 229.61 37.09 229.99 37.55C230.37 38.01 230.9 38.2401 231.58 38.2401C232.26 38.2401 232.79 38.01 233.16 37.55V37.5401Z" fill="#231815"/>
<path d="M240.99 32.3901V38.8001H240.41L236.54 33.6401V38.8001H235.85V32.3901H236.42L240.29 37.5501V32.3901H240.99V32.3901Z" fill="#231815"/>
<path d="M242.561 32.3901H243.301V38.1701H246.511V38.8001H242.561V32.3901V32.3901Z" fill="#231815"/>
<path d="M247.471 32.3901H248.211V38.8001H247.471V32.3901Z" fill="#231815"/>
<path d="M254.931 32.3901V38.8001H254.351L250.481 33.6401V38.8001H249.791V32.3901H250.361L254.231 37.5501V32.3901H254.931Z" fill="#231815"/>
<path d="M256.5 32.3899H260.55V32.9999H257.23V35.2299H260.37V35.8499H257.23V38.1799H260.55V38.7899H256.5V32.3799V32.3899Z" fill="#231815"/>
<path d="M232.581 46.6099C232.921 46.7999 233.171 47.0599 233.351 47.3999C233.531 47.7399 233.621 48.1299 233.621 48.5799C233.621 49.0299 233.521 49.4199 233.331 49.7699C233.131 50.1199 232.851 50.3799 232.491 50.5699C232.131 50.7599 231.701 50.8599 231.221 50.8599C230.791 50.8599 230.361 50.7799 229.941 50.6199C229.521 50.4599 229.171 50.2499 228.881 49.9799L229.191 49.3499C229.851 49.8999 230.531 50.1699 231.221 50.1699C231.721 50.1699 232.111 50.0299 232.391 49.7499C232.671 49.4699 232.811 49.0799 232.811 48.5899C232.811 48.0999 232.671 47.7399 232.391 47.4499C232.111 47.1599 231.741 47.0099 231.271 47.0099C230.591 47.0099 230.051 47.2899 229.641 47.8399H229.071V43.6699H233.341V44.3499H229.891V46.8899C230.281 46.5099 230.791 46.3199 231.401 46.3199C231.851 46.3199 232.241 46.4099 232.581 46.6099V46.6099Z" fill="#AA8420"/>
<path d="M235.251 49.9501C234.831 49.3301 234.611 48.4301 234.611 47.2401C234.611 46.0501 234.821 45.1401 235.251 44.5201C235.671 43.9001 236.291 43.6001 237.101 43.6001C237.911 43.6001 238.531 43.9101 238.961 44.5201C239.381 45.1401 239.591 46.0401 239.591 47.2301C239.591 48.4201 239.381 49.3301 238.961 49.9501C238.541 50.5701 237.921 50.8801 237.101 50.8801C236.281 50.8801 235.671 50.5701 235.251 49.9601V49.9501ZM238.361 49.4601C238.631 48.9801 238.771 48.2301 238.771 47.2201C238.771 46.2101 238.641 45.4701 238.371 45.0001C238.101 44.5301 237.681 44.2901 237.111 44.2901C236.541 44.2901 236.131 44.5301 235.861 45.0001C235.591 45.4701 235.451 46.2101 235.451 47.2201C235.451 48.2301 235.591 48.9701 235.861 49.4601C236.131 49.9401 236.551 50.1801 237.111 50.1801C237.671 50.1801 238.101 49.9401 238.361 49.4601Z" fill="#AA8420"/>
<path d="M247.18 45.9701C247.52 46.1901 247.78 46.5001 247.97 46.9001C248.16 47.3001 248.25 47.7501 248.25 48.2801C248.25 48.8101 248.16 49.2501 247.97 49.6401C247.78 50.0301 247.52 50.3301 247.18 50.5501C246.84 50.7601 246.45 50.8701 246.01 50.8701C245.62 50.8701 245.27 50.7801 244.98 50.6101C244.69 50.4401 244.46 50.1901 244.31 49.8701V52.9601H243.5V47.1801C243.5 46.6601 243.47 46.1901 243.42 45.7701H244.19L244.27 46.7401C244.41 46.3901 244.63 46.1201 244.94 45.9301C245.24 45.7401 245.6 45.6401 246.02 45.6401C246.46 45.6401 246.85 45.7501 247.19 45.9701H247.18ZM247.01 49.6901C247.28 49.3601 247.41 48.8801 247.41 48.2701C247.41 47.6601 247.27 47.1801 247 46.8301C246.73 46.4901 246.35 46.3201 245.86 46.3201C245.37 46.3201 244.98 46.4901 244.71 46.8201C244.44 47.1501 244.31 47.6301 244.31 48.2501C244.31 48.8701 244.44 49.3501 244.71 49.6801C244.98 50.0201 245.36 50.1901 245.86 50.1901C246.36 50.1901 246.74 50.0201 247.01 49.6901V49.6901Z" fill="#AA8420"/>
<path d="M253.86 50.7903H252.89L251.3 48.8102L249.73 50.7903H248.74L250.83 48.2003L248.86 45.7603H249.84L251.3 47.6102L252.76 45.7603H253.75L251.79 48.2003L253.86 50.7903Z" fill="#AA8420"/>
<path d="M138.681 52.8599L132.881 43.2C132.881 43.2 132.701 42.9799 132.701 42.6099V24.6899H130.511V43.1799C130.691 43.3599 134.341 49.5899 134.341 49.5899H125.291C125.291 49.5899 128.941 43.3699 129.121 43.1799V24.6899H126.931V42.6099C126.931 42.9699 126.751 43.2 126.751 43.2L120.951 52.8599H138.681Z" fill="#AA8420"/>
<path d="M136.881 12.1603C136.881 12.1603 137.971 7.64027 134.081 4.68027C134.081 4.68027 132.521 3.28027 129.561 3.28027C126.911 3.28027 125.351 4.68027 125.351 4.68027C121.771 7.17027 122.701 12.1603 122.701 12.1603H136.881V12.1603Z" fill="#AA8420"/>
<path d="M123.151 13.4001H136.471C136.571 13.1501 136.661 12.8901 136.741 12.6201H122.881C122.961 12.8901 123.041 13.1501 123.151 13.4001Z" fill="#AA8420"/>
<path d="M136.259 13.8701H123.359C123.489 14.1401 123.639 14.4001 123.799 14.6501H135.809C135.969 14.4001 136.119 14.1401 136.259 13.8701" fill="#AA8420"/>
<path d="M124.681 15.7401H134.951C135.141 15.5401 135.321 15.3401 135.491 15.1201H124.141C124.311 15.3401 124.491 15.5501 124.681 15.7401" fill="#AA8420"/>
<path d="M125.79 16.68H133.84C134.05 16.54 134.25 16.38 134.45 16.21H125.18C125.38 16.38 125.58 16.53 125.79 16.68" fill="#AA8420"/>
<path d="M126.9 17.3003C127.79 17.7003 128.78 17.9203 129.81 17.9203C130.84 17.9203 131.83 17.7003 132.72 17.3003H126.9Z" fill="#AA8420"/>
<path d="M143.631 18.27H132.721C132.721 18.27 131.711 18.27 130.901 18.82C130.281 19.25 129.831 20.24 129.811 20.29C129.811 20.29 129.351 19.25 128.721 18.82C127.911 18.27 126.901 18.27 126.901 18.27H115.991L113.811 21.76H123.801C123.801 21.76 124.101 21.76 124.281 21.79C124.571 21.84 125.091 22 125.631 22.38C126.371 22.91 126.581 23.19 126.761 23.37C126.851 23.46 127.091 23.77 127.091 23.77H132.541C132.541 23.77 132.771 23.46 132.871 23.37C133.051 23.19 133.261 22.91 134.001 22.38C134.541 21.99 135.051 21.84 135.351 21.79C135.531 21.76 135.831 21.76 135.831 21.76H145.821L143.641 18.27H143.631Z" fill="#003477"/>
<path d="M114.92 22.8203V39.4003C114.92 39.5803 114.93 39.7403 114.95 39.8903C115.13 41.6403 115.68 42.9403 116.69 44.6403C118.29 47.3103 121.2 49.1803 121.2 49.1803L122.57 47.0003C122.57 47.0003 120.71 46.0103 119.23 43.7403C118.93 43.2903 118.63 42.8603 118.43 42.4403C118.24 42.0403 118.09 41.7103 117.98 41.3703C117.9 41.1203 117.83 40.8903 117.78 40.6803C117.71 40.3803 117.67 40.1403 117.65 39.8603C117.65 39.7603 117.63 39.3503 117.63 39.3503V22.8203H114.92V22.8203Z" fill="#003477"/>
<path d="M119.07 22.8203V39.3503C119.07 39.3503 119.07 39.4203 119.07 39.4903C119.07 39.5703 119.08 39.6903 119.1 39.7803C119.1 39.8403 119.12 39.9103 119.13 39.9503C119.18 40.2103 119.24 40.4403 119.35 40.7803C119.54 41.3403 119.87 42.0103 120.34 42.7803C121.56 44.7603 123.33 45.6603 123.33 45.6603L124.7 43.5303C124.7 43.5303 124.25 43.2803 123.7 42.7503C123.34 42.4003 122.9 41.9403 122.53 41.3903C122.17 40.8303 121.95 40.2603 121.82 39.8303C121.71 39.4703 121.7 39.1903 121.69 39.0003C121.69 38.8503 121.69 38.7603 121.69 38.7603V22.8203H119.07V22.8203Z" fill="#003477"/>
<path d="M144.72 22.8203V39.4003C144.72 39.5803 144.71 39.7403 144.69 39.8903C144.51 41.6403 143.96 42.9403 142.95 44.6403C141.35 47.3103 138.44 49.1803 138.44 49.1803L137.07 47.0003C137.07 47.0003 138.93 46.0103 140.41 43.7403C140.71 43.2903 141.01 42.8603 141.21 42.4403C141.4 42.0403 141.55 41.7103 141.66 41.3703C141.74 41.1203 141.81 40.8903 141.86 40.6803C141.93 40.3803 141.97 40.1403 141.99 39.8603C141.99 39.7603 142.01 39.3503 142.01 39.3503V22.8203H144.72V22.8203Z" fill="#003477"/>
<path d="M140.56 22.8203V39.3503C140.56 39.3503 140.56 39.4203 140.56 39.4903C140.56 39.5703 140.55 39.6903 140.53 39.7803C140.53 39.8403 140.51 39.9103 140.5 39.9503C140.45 40.2103 140.39 40.4403 140.28 40.7803C140.09 41.3403 139.76 42.0103 139.29 42.7803C138.07 44.7603 136.3 45.6603 136.3 45.6603L134.93 43.5303C134.93 43.5303 135.38 43.2803 135.93 42.7503C136.3 42.4003 136.73 41.9403 137.1 41.3903C137.46 40.8303 137.68 40.2603 137.81 39.8303C137.92 39.4703 137.93 39.1903 137.94 39.0003C137.94 38.8503 137.94 38.7603 137.94 38.7603V22.8203H140.56V22.8203Z" fill="#003477"/>
<path d="M75.3199 68.11V66.45H66.8999V64.77C69.5799 64.54 71.8299 64.24 73.6399 63.87L72.7799 62.23C70.0599 62.84 66.0399 63.15 60.7399 63.15C59.6199 63.15 58.6899 63.14 57.9299 63.11L58.5899 64.95C59.8899 64.95 62.0399 64.91 65.0299 64.83V66.45H56.8299V68.11H62.9899C61.1999 69.61 59.0899 70.66 56.6699 71.24L57.6299 73.01C58.4299 72.74 58.9899 72.54 59.3199 72.39V80.95H61.1799V80.03H70.9899V80.95H72.8399V72.29C73.1099 72.44 73.3999 72.56 73.7199 72.65C74.0399 72.74 74.3299 72.85 74.5999 72.97L75.4799 71.15C72.6099 70.58 70.4099 69.56 68.8999 68.1H75.3199V68.11ZM65.0199 68.17V71.84H60.4699C62.3499 71.04 63.8599 69.82 65.0199 68.17ZM70.9899 78.39H61.1699V76.63H70.9899V78.39ZM70.9899 75.04H61.1699V73.52H70.9899V75.04ZM71.8299 71.85H66.8999V68.16C68.1499 69.82 69.7899 71.05 71.8299 71.85V71.85Z" fill="#003477"/>
<path d="M82.3301 79.08L83.9301 80.72C85.0701 78.91 85.9201 76.93 86.4601 74.77L84.7201 73.75C84.3001 75.64 83.5001 77.41 82.3301 79.08Z" fill="#003477"/>
<path d="M86.5797 69.8201C85.5597 69.0401 84.5697 68.3901 83.6297 67.8901L82.4297 69.3901C83.2097 69.9101 84.1397 70.6301 85.2197 71.5401L86.5697 69.8201H86.5797Z" fill="#003477"/>
<path d="M97.0105 76.6201V72.5301C97.8105 73.2501 98.8205 73.9701 100.04 74.7001L100.9 72.9201C98.7405 71.8601 97.4005 70.7901 96.8705 69.7101H100.68V68.0301H97.0905V65.9701H100.38V64.3901H97.0905V62.3101H95.2905V64.3901H91.6505V62.3101H89.8305V64.3901H87.1705V64.6501C86.3905 64.0501 85.4305 63.3901 84.3005 62.6701L82.9805 64.1501C83.8705 64.7101 84.8605 65.4901 85.9505 66.4801L87.1705 64.9701V66.05H89.8305V68.05H86.7805V69.7201H89.9705C89.3805 70.9701 87.9905 72.1001 85.7805 73.0901L86.9205 74.7701C87.8105 74.2101 88.4205 73.7901 88.7605 73.5101V77.9801C88.7605 78.8801 88.9305 79.5 89.2605 79.83C89.6105 80.15 90.2005 80.3101 91.0605 80.3101H97.5205C98.5405 80.3101 99.2305 80.1301 99.5705 79.7701C99.9305 79.4001 100.22 78.2901 100.43 76.4401L98.5105 75.7401C98.4205 76.7901 98.3205 77.5301 98.2105 77.9501C98.1005 78.3601 97.7705 78.5701 97.2105 78.5701H91.2905C90.8205 78.5701 90.5905 78.3401 90.5905 77.8701V76.5901H97.0105V76.6201ZM91.6505 66.08H95.2805V68.0401H91.6505V66.08ZM92.0905 69.7101H94.7805C95.1505 70.4201 95.5605 71.0101 96.0005 71.5101H90.9105C91.4005 70.9901 91.7905 70.3901 92.0905 69.7101ZM90.5705 75.0401V73.08H95.1605V75.0401H90.5705Z" fill="#003477"/>
<path d="M121.77 70.89C120.3 69.77 119.07 68.9599 118.08 68.4399L116.9 69.7799C117.95 70.4099 119.16 71.2899 120.53 72.4299L121.77 70.89V70.89Z" fill="#003477"/>
<path d="M122.141 66.0799C120.571 64.9399 119.351 64.1299 118.491 63.6499L117.291 64.9699C118.211 65.5299 119.401 66.3999 120.881 67.5799L122.141 66.0799Z" fill="#003477"/>
<path d="M113.4 69.44V69.26H116.43V67.54H113.4V64.73C114.45 64.52 115.46 64.24 116.41 63.91L115.73 62.27C113.59 63.08 111.03 63.56 108.05 63.71L108.47 65.38C109.83 65.29 110.86 65.17 111.56 65.04V67.53H107.85V69.25H111.5C110.66 71.46 109.41 73.51 107.73 75.42L108.85 77.22C110.15 75.52 111.06 74.03 111.56 72.75V80.95L113.4 80.87V71.61C113.76 72.09 114.11 72.53 114.46 72.95C114.86 73.4 115.26 73.91 115.66 74.47L116.78 72.75C116.02 71.92 114.9 70.82 113.41 69.44H113.4Z" fill="#003477"/>
<path d="M124.72 62.1499H122.87V73.6299L116.18 74.6199V76.4799L122.87 75.4599V80.9499H124.72V75.2199L126.52 74.9199V73.1099L124.72 73.4099V62.1499Z" fill="#003477"/>
<path d="M149.739 73.9199C150.439 72.7599 150.879 71.8199 151.049 71.1099V69.4499H147.019V66.7799H151.729V64.9599H147.019V62.1499H145.039V64.9599H140.749V66.2399H138.399V62.1499H136.439V66.2399H133.489V68.0599H136.439V72.0699C135.489 72.3199 134.439 72.5199 133.279 72.6699L133.759 74.8199C134.409 74.6599 135.299 74.4399 136.429 74.1399V78.2099C136.429 78.6499 136.209 78.8699 135.769 78.8699L134.029 78.8099L134.489 80.8299H136.069C137.059 80.8299 137.689 80.6699 137.969 80.3499C138.239 80.0399 138.369 79.4199 138.369 78.4699V73.5799C139.509 73.1899 140.289 72.8899 140.699 72.6599V70.6999C140.209 70.9399 139.429 71.2299 138.369 71.5799V68.0499H140.719L140.739 66.7699H145.029V69.4399H141.079V71.2799H148.999C148.429 72.9599 147.459 74.3299 146.109 75.4099C145.189 74.4899 144.269 73.2199 143.359 71.5999L141.699 72.2599C142.679 74.0599 143.689 75.4699 144.709 76.5099C142.789 77.7999 140.879 78.6599 138.959 79.0899L140.059 80.9099C141.979 80.5099 143.979 79.4999 146.079 77.8999C147.619 79.3099 149.269 80.2999 151.029 80.8699L152.049 78.9899C150.369 78.5199 148.869 77.7499 147.539 76.6599C148.299 75.9899 149.019 75.0799 149.719 73.9299L149.739 73.9199Z" fill="#003477"/>
<path d="M172.921 74.3902C171.791 72.6102 171.071 70.9002 170.761 69.2802L177.151 69.3002V67.1902H168.691C168.801 66.1402 168.851 64.4702 168.851 62.1802H166.751C166.751 64.3102 166.661 65.9802 166.491 67.1902H159.271V69.3002H166.151C165.831 71.1802 165.001 72.9902 163.661 74.7502C162.301 76.5102 160.681 77.9202 158.791 79.0002L160.301 80.9002C164.771 77.9602 167.451 74.0902 168.341 69.2902H168.661C169.991 74.6502 172.451 78.5102 176.041 80.8602L177.581 79.0202C175.601 77.7202 174.041 76.1702 172.911 74.3902H172.921Z" fill="#003477"/>
<path d="M194.929 65.0399C194.399 63.9699 193.869 63.0099 193.309 62.1299L191.689 62.8599C192.229 63.7499 192.739 64.7399 193.229 65.8499L194.929 65.0399V65.0399Z" fill="#003477"/>
<path d="M190.381 65.3699C189.831 64.3899 189.261 63.4899 188.681 62.6899L187.061 63.42C187.641 64.24 188.181 65.1599 188.681 66.1799L190.381 65.3699Z" fill="#003477"/>
<path d="M198.931 66.5201C199.531 65.5401 200.111 64.3201 200.691 62.8701L198.571 62.0601C197.911 63.9101 197.261 65.4001 196.641 66.5201H184.541V70.7301H186.491V68.2201H201.001V70.6501H202.951V66.5201H198.921H198.931Z" fill="#003477"/>
<path d="M194.761 73.8203C196.561 73.1003 198.161 72.3403 199.551 71.5403V69.8403H187.951V71.5403H196.611C195.221 72.1903 193.911 72.7003 192.671 73.0803V74.4503H184.971V76.1503H192.671V78.8303C192.671 79.1603 192.451 79.3303 192.031 79.3303C191.311 79.3303 190.631 79.3003 190.001 79.2503L190.391 81.0403H193.151C193.621 81.0403 194.031 80.8503 194.371 80.4803C194.611 80.2503 194.741 79.8903 194.771 79.4203V76.1603H202.411V74.4603H194.771V73.8403L194.761 73.8203Z" fill="#003477"/>
</svg>
