<svg width="225" height="89" viewBox="0 0 225 89" fill="none" xmlns="http://www.w3.org/2000/svg">
<path d="M43.4003 88.25H36.0703V0H43.4003V0.25H36.3203V88H43.4003V88.25Z" fill="#231815"/>
<path d="M187.49 88.25H180.17V88H187.24V0.25H180.17V0H187.49V88.25Z" fill="#231815"/>
<path d="M68.6095 61.4299H69.6095V54.2799H71.5294V53.3599H66.6895V54.2799H68.6095V61.4299Z" fill="#003477"/>
<path d="M73.3498 57.5599H77.1898V61.4299H78.1998V53.3599H77.1898V56.6199H73.3498V53.3599H72.3398V61.4299H73.3498V57.5599Z" fill="#003477"/>
<path d="M84.0998 60.5099H80.7698V57.4599H83.9998V56.5399H80.7698V54.2799H84.0998V53.3599H79.7598V61.4299H84.0998V60.5099Z" fill="#003477"/>
<path d="M89.5686 57.5599H93.4086V61.4299H94.4086V53.3599H93.4086V56.6199H89.5686V53.3599H88.5586V61.4299H89.5686V57.5599Z" fill="#003477"/>
<path d="M99.6402 61.6002C101.97 61.6002 103.87 59.7902 103.87 57.3902C103.87 54.9902 101.95 53.1802 99.6402 53.1802C97.3302 53.1802 95.4102 55.0702 95.4102 57.3902C95.4102 59.7102 97.3102 61.6002 99.6402 61.6002ZM99.6402 54.1302C101.53 54.1302 102.86 55.6202 102.86 57.4002C102.86 59.1802 101.38 60.6702 99.6402 60.6702C97.9002 60.6702 96.4202 59.2502 96.4202 57.4002C96.4202 55.5502 97.7502 54.1302 99.6402 54.1302Z" fill="#003477"/>
<path d="M105.86 55.42L111.92 61.76V53.36H110.91V59.32L104.85 52.98V61.43H105.86V55.42Z" fill="#003477"/>
<path d="M116.99 61.5999C119.25 61.5999 120.81 59.8999 120.81 57.6799V57.3599H117.61V58.2799H119.7C119.66 59.5999 118.31 60.6799 117.06 60.6799C115.32 60.6799 113.92 59.0799 113.92 57.3799C113.92 55.5699 115.33 54.0999 117.14 54.0999C118.12 54.0999 119.1 54.6299 119.68 55.4199L120.39 54.7499C119.6 53.7599 118.36 53.1899 117.1 53.1899C114.78 53.1899 112.91 55.0999 112.91 57.4199C112.91 59.7399 114.73 61.6099 116.99 61.6099V61.5999Z" fill="#003477"/>
<path d="M126.119 58.0599L126.529 57.6699L129.569 61.4299H130.929L127.229 56.9899L130.859 53.3599H129.549L126.119 56.8599V53.3599H125.109V61.4299H126.119V58.0599Z" fill="#003477"/>
<path d="M135.31 61.6002C137.64 61.6002 139.54 59.7902 139.54 57.3902C139.54 54.9902 137.62 53.1802 135.31 53.1802C133 53.1802 131.08 55.0702 131.08 57.3902C131.08 59.7102 132.98 61.6002 135.31 61.6002ZM135.31 54.1302C137.2 54.1302 138.53 55.6202 138.53 57.4002C138.53 59.1802 137.05 60.6702 135.31 60.6702C133.57 60.6702 132.09 59.2502 132.09 57.4002C132.09 55.5502 133.42 54.1302 135.31 54.1302Z" fill="#003477"/>
<path d="M141.53 55.42L147.58 61.76V53.36H146.58V59.32L140.52 52.98V61.43H141.53V55.42Z" fill="#003477"/>
<path d="M152.66 61.5999C154.92 61.5999 156.48 59.8999 156.48 57.6799V57.3599H153.28V58.2799H155.37C155.33 59.5999 153.98 60.6799 152.73 60.6799C150.99 60.6799 149.59 59.0799 149.59 57.3799C149.59 55.5699 151 54.0999 152.81 54.0999C153.79 54.0999 154.77 54.6299 155.35 55.4199L156.06 54.7499C155.27 53.7599 154.03 53.1899 152.77 53.1899C150.45 53.1899 148.59 55.0999 148.59 57.4199C148.59 59.7399 150.41 61.6099 152.67 61.6099L152.66 61.5999Z" fill="#003477"/>
<path d="M57.3495 70.97C57.3495 72.29 56.9495 73.51 55.3995 73.51C53.8495 73.51 53.4495 72.29 53.4495 70.97V66.21H52.4395V71.32C52.4395 73.1 53.5395 74.46 55.3895 74.46C57.2395 74.46 58.3395 73.1 58.3395 71.32V66.21H57.3295V70.97H57.3495Z" fill="#003477"/>
<path d="M66.8198 66.1998H65.8198V72.1598L59.7598 65.8198V74.2798H60.7698V68.2598L66.8198 74.6098V66.1998Z" fill="#003477"/>
<path d="M69.3401 66.2002H68.3301V74.2702H69.3401V66.2002Z" fill="#003477"/>
<path d="M71.2094 66.2002H70.1094L73.6194 74.7002L77.1194 66.2002H76.0194L73.6194 72.1802L71.2094 66.2002Z" fill="#003477"/>
<path d="M82.2502 67.1202V66.2002H77.9102V74.2702H82.2502V73.3502H78.9202V70.3002H82.1502V69.3802H78.9202V67.1202H82.2502Z" fill="#003477"/>
<path d="M88.0096 68.5002C88.0096 67.7302 87.6196 66.9702 86.9496 66.5702C86.3096 66.2102 85.5396 66.2002 84.8196 66.2002H83.5996V74.2702H84.6096V70.8602H85.0296L87.4096 74.2702H88.6296L86.0796 70.7602C87.2496 70.6202 88.0196 69.6602 88.0196 68.5002H88.0096ZM84.9296 70.0202H84.6096V67.1002H84.8796C85.8696 67.1002 87.0696 67.2802 87.0696 68.5502C87.0696 69.8202 85.9596 70.0302 84.9296 70.0302V70.0202Z" fill="#003477"/>
<path d="M91.6698 73.5C90.7998 73.5 90.0998 72.86 90.1098 71.97L89.0898 72.18C89.2598 73.47 90.2798 74.44 91.5798 74.44C93.0298 74.44 94.1599 73.39 94.1599 71.92C94.1599 70.57 93.2999 69.94 92.1599 69.49L91.5798 69.27C91.0798 69.08 90.4598 68.74 90.4598 68.11C90.4598 67.4 91.1698 66.96 91.8098 66.96C92.4198 66.96 92.7998 67.22 93.0998 67.72L93.8998 67.24C93.4598 66.46 92.7198 66.02 91.8198 66.02C90.5998 66.02 89.4398 66.8 89.4398 68.11C89.4398 69.23 90.2798 69.76 91.1998 70.16L91.7598 70.4C92.4598 70.69 93.1498 71.06 93.1498 71.93C93.1498 72.8 92.5299 73.5 91.6599 73.5H91.6698Z" fill="#003477"/>
<path d="M96.3498 66.2002H95.3398V74.2702H96.3498V66.2002Z" fill="#003477"/>
<path d="M102.049 66.2002H97.209V67.1202H99.129V74.2802H100.139V67.1202H102.049V66.2002Z" fill="#003477"/>
<path d="M105.759 74.2702V70.7602L108.389 66.2002H107.229L105.249 69.6502L103.269 66.2002H102.119L104.749 70.7602V74.2702H105.759Z" fill="#003477"/>
<path d="M116.06 66.0298C113.75 66.0298 111.83 67.9198 111.83 70.2398C111.83 72.5598 113.72 74.4498 116.06 74.4498C118.4 74.4498 120.29 72.6398 120.29 70.2398C120.29 67.8398 118.38 66.0298 116.06 66.0298ZM116.06 73.4998C114.31 73.4998 112.84 72.0798 112.84 70.2298C112.84 68.3798 114.17 66.9598 116.06 66.9598C117.95 66.9598 119.28 68.4498 119.28 70.2298C119.28 72.0098 117.8 73.4998 116.06 73.4998Z" fill="#003477"/>
<path d="M122.36 70.3102H125.16V69.3902H122.36V67.1202H125.26V66.2002H121.35V74.2802H122.36V70.3102Z" fill="#003477"/>
<path d="M131.9 73.5C131.03 73.5 130.33 72.86 130.34 71.97L129.32 72.18C129.49 73.47 130.51 74.44 131.81 74.44C133.26 74.44 134.39 73.39 134.39 71.92C134.39 70.57 133.53 69.94 132.39 69.49L131.81 69.27C131.31 69.08 130.69 68.74 130.69 68.11C130.69 67.4 131.4 66.96 132.04 66.96C132.68 66.96 133.03 67.22 133.33 67.72L134.13 67.24C133.69 66.46 132.95 66.02 132.05 66.02C130.83 66.02 129.67 66.8 129.67 68.11C129.67 69.23 130.5 69.76 131.42 70.16L131.98 70.4C132.68 70.69 133.37 71.06 133.37 71.93C133.37 72.8 132.75 73.5 131.88 73.5H131.9Z" fill="#003477"/>
<path d="M139.35 66.95C140.11 66.95 140.9 67.23 141.48 67.74V66.57C140.87 66.19 140.15 66.02 139.45 66.02C137.07 66.02 135.16 67.88 135.16 70.27C135.16 72.66 137.07 74.44 139.37 74.44C140.08 74.44 140.87 74.24 141.49 73.87V72.68C140.89 73.21 140.13 73.51 139.34 73.51C137.54 73.51 136.17 72 136.17 70.24C136.17 68.48 137.55 66.94 139.36 66.94L139.35 66.95Z" fill="#003477"/>
<path d="M143.76 66.2002H142.75V74.2702H143.76V66.2002Z" fill="#003477"/>
<path d="M149.709 73.3502H146.379V70.3002H149.609V69.3802H146.379V67.1202H149.709V66.2002H145.369V74.2702H149.709V73.3502Z" fill="#003477"/>
<path d="M150.959 74.2798H151.969V68.2598L158.029 74.6098V66.1998H157.019V72.1598L150.959 65.8198V74.2798Z" fill="#003477"/>
<path d="M159.119 70.28C159.119 72.61 161.029 74.45 163.329 74.45C164.039 74.45 164.829 74.25 165.449 73.88V72.69C164.849 73.22 164.089 73.52 163.299 73.52C161.499 73.52 160.129 72.01 160.129 70.25C160.129 68.49 161.509 66.95 163.319 66.95C164.079 66.95 164.869 67.23 165.449 67.74V66.57C164.839 66.19 164.119 66.02 163.419 66.02C161.039 66.02 159.129 67.88 159.129 70.27L159.119 70.28Z" fill="#003477"/>
<path d="M171.09 67.1202V66.2002H166.75V74.2702H171.09V73.3502H167.76V70.3002H170.99V69.3802H167.76V67.1202H171.09Z" fill="#003477"/>
<path d="M63.0898 87.1202H64.1698L65.0898 85.1002H68.7898L69.7098 87.1202H70.7898L66.9398 78.7002L63.0898 87.1202V87.1202ZM65.5098 84.1702L66.9398 80.9002L68.3698 84.1702H65.4998H65.5098Z" fill="#003477"/>
<path d="M77.5385 85.0102L71.4785 78.6602V87.1202H72.4885V81.1002L78.5485 87.4501V79.0502H77.5385V85.0102Z" fill="#003477"/>
<path d="M81.67 79.04H80V87.11H81.64C84.19 87.11 86.2 85.78 86.2 83.03C86.2 80.28 84.15 79.04 81.67 79.04V79.04ZM81.36 86.19H81.01V79.96H81.36C83.41 79.96 85.19 80.72 85.19 83.08C85.19 85.44 83.41 86.2 81.36 86.2V86.19Z" fill="#003477"/>
<path d="M89.7598 79.9598H91.6798V87.1198H92.6898V79.9598H94.5998V79.0498H89.7598V79.9598Z" fill="#003477"/>
<path d="M95.5 87.12H99.84V86.2H96.51V83.15H99.74V82.22H96.51V79.96H99.84V79.04H95.5V87.12Z" fill="#003477"/>
<path d="M100.74 83.1201C100.74 85.4601 102.64 87.2901 104.95 87.2901C105.66 87.2901 106.45 87.0801 107.07 86.7201V85.5301C106.47 86.0601 105.71 86.3601 104.92 86.3601C103.12 86.3601 101.75 84.8501 101.75 83.0801C101.75 81.3101 103.13 79.7801 104.94 79.7801C105.7 79.7801 106.49 80.0601 107.07 80.5701V79.4001C106.46 79.0201 105.74 78.8501 105.04 78.8501C102.66 78.8501 100.75 80.7101 100.75 83.1001L100.74 83.1201Z" fill="#003477"/>
<path d="M113.129 82.2998H109.289V79.0498H108.279V87.1198H109.289V83.2398H113.129V87.1198H114.139V79.0498H113.129V82.2998Z" fill="#003477"/>
<path d="M121.66 85.0102L115.6 78.6602V87.1202H116.61V81.1002L122.67 87.4501V79.0502H121.66V85.0102Z" fill="#003477"/>
<path d="M127.869 78.8701C125.559 78.8701 123.639 80.7601 123.639 83.0801C123.639 85.4001 125.539 87.2901 127.869 87.2901C130.199 87.2901 132.099 85.4801 132.099 83.0801C132.099 80.6801 130.179 78.8701 127.869 78.8701V78.8701ZM127.869 86.3401C126.119 86.3401 124.649 84.9201 124.649 83.0701C124.649 81.2201 125.979 79.8001 127.869 79.8001C129.759 79.8001 131.089 81.2901 131.089 83.0701C131.089 84.8501 129.609 86.3401 127.869 86.3401Z" fill="#003477"/>
<path d="M134.19 79.04H133.18V87.12H136.64V86.2H134.19V79.04Z" fill="#003477"/>
<path d="M141.07 78.8701C138.76 78.8701 136.84 80.7601 136.84 83.0801C136.84 85.4001 138.74 87.2901 141.07 87.2901C143.4 87.2901 145.3 85.4801 145.3 83.0801C145.3 80.6801 143.39 78.8701 141.07 78.8701ZM141.07 86.3401C139.32 86.3401 137.85 84.9201 137.85 83.0701C137.85 81.2201 139.18 79.8001 141.07 79.8001C142.96 79.8001 144.29 81.2901 144.29 83.0701C144.29 84.8501 142.81 86.3401 141.07 86.3401Z" fill="#003477"/>
<path d="M150.53 83.9699H152.62C152.58 85.2899 151.23 86.3699 149.97 86.3699C148.23 86.3699 146.83 84.7699 146.83 83.0699C146.83 81.2599 148.24 79.7899 150.05 79.7899C151.03 79.7899 152.01 80.3199 152.59 81.1099L153.3 80.4399C152.51 79.4499 151.26 78.8799 150.01 78.8799C147.69 78.8799 145.82 80.7899 145.82 83.1099C145.82 85.4299 147.64 87.2999 149.9 87.2999C152.16 87.2999 153.72 85.5999 153.72 83.3799V83.0599H150.52V83.9799L150.53 83.9699Z" fill="#003477"/>
<path d="M157.14 82.49L155.16 79.04H154L156.63 83.61V87.12H157.64V83.61L160.28 79.04H159.12L157.14 82.49Z" fill="#003477"/>
<path d="M118.02 9.56004C118.24 9.28004 118.32 8.79004 118.32 8.79004H105.09C105.09 8.79004 105.25 9.34004 105.39 9.56004H118.02V9.56004Z" fill="#AA8420"/>
<path d="M117.251 10.6898C117.501 10.4698 117.741 10.0298 117.741 10.0298H105.631C105.631 10.0298 105.771 10.3598 106.071 10.6898H117.251Z" fill="#AA8420"/>
<path d="M116.3 11.7C116.6 11.54 116.85 11.21 116.85 11.21H106.49C106.49 11.21 106.74 11.49 106.98 11.7H116.3V11.7Z" fill="#AA8420"/>
<path d="M115.091 12.66C115.391 12.55 115.721 12.27 115.721 12.27H107.641C107.641 12.27 107.641 12.33 108.211 12.66H115.091V12.66Z" fill="#AA8420"/>
<path d="M109.141 13.2598C109.141 13.2598 109.991 13.7598 111.661 13.7598C113.331 13.7598 114.401 13.2598 114.401 13.2598H109.141V13.2598Z" fill="#AA8420"/>
<path d="M108.999 14.3799C108.999 14.3799 110.009 14.4299 110.609 14.8999C111.189 15.3999 111.619 16.2199 111.619 16.2199C111.619 16.2199 111.979 15.4299 112.549 15.0199C113.129 14.5799 114.059 14.3899 114.059 14.3899H124.499L126.549 17.4299H117.169C117.169 17.4299 116.509 17.4499 115.529 18.0399C115.009 18.3399 114.619 18.8599 114.619 18.8599C114.619 18.8599 114.549 19.1099 114.429 19.2399C114.319 19.3799 114.239 19.4899 114.099 19.5399C113.959 19.5999 113.989 19.5699 113.989 19.5699H109.109C109.109 19.5699 108.909 19.4899 108.809 19.3199C108.699 19.1599 108.779 19.2099 108.669 19.0799C108.589 18.9399 108.389 18.5799 107.649 18.0899C106.889 17.5899 106.139 17.5399 106.139 17.5399H96.6094L98.6894 14.3899H108.959L108.999 14.3799Z" fill="#003477"/>
<path d="M101.631 18.6802V34.2402C101.631 34.2402 101.691 35.6102 102.841 37.4702C103.991 39.3302 105.661 40.1802 105.661 40.1802L106.981 38.1302C106.981 38.1302 105.831 37.4502 104.951 36.1302C104.101 34.8202 104.101 33.6902 104.101 33.6902V18.6802H101.631V18.6802Z" fill="#003477"/>
<path d="M119.28 18.6299V33.6399C119.28 33.6399 119.09 35.1499 118.38 36.2199C117.67 37.3199 116.49 38.1899 116.49 38.1899L117.75 40.2199C117.75 40.2199 119.66 38.8299 120.6 37.3399C121.53 35.8599 121.75 33.6399 121.75 33.6399V18.6299H119.28V18.6299Z" fill="#003477"/>
<path d="M97.7207 18.6802V34.3002C97.7207 34.3002 97.8807 36.7102 99.3907 39.2302C100.901 41.7502 103.641 43.5002 103.641 43.5002L104.931 41.4502C104.931 41.4502 103.181 40.5202 101.781 38.3802C100.351 36.2202 100.271 34.2402 100.271 34.2402V18.6802H97.7207Z" fill="#003477"/>
<path d="M109.001 20.3301V36.8201C109.001 36.8201 108.941 36.8801 108.921 37.1201C108.891 37.3701 108.731 37.5301 108.731 37.5301L103.221 46.6501H120.101L114.591 37.3301L114.431 36.9201L114.371 36.4801V20.3601H112.321V37.1001C112.321 37.1001 112.321 37.3401 112.401 37.5301C112.451 37.7201 112.561 38.0201 112.561 38.0201L115.961 43.6101H107.361L110.701 38.0501C110.701 38.0501 110.811 37.8601 110.891 37.5901C110.951 37.3401 110.971 37.1001 110.971 37.1001V20.3301H109.001Z" fill="#AA8420"/>
<path d="M123.09 18.6299V33.9799C123.09 33.9799 123.07 35.9499 121.61 38.2199C120.16 40.4999 118.49 41.4599 118.49 41.4599L119.73 43.5399C119.73 43.5399 122.25 41.9499 123.84 39.4299C125.4 36.9099 125.59 33.9799 125.59 33.9799V18.6299H123.09V18.6299Z" fill="#003477"/>
<path d="M105.001 8.35C105.001 8.35 104.151 3.72 107.551 1.42C107.551 1.42 109.091 0 111.581 0C114.241 0 115.771 1.39 115.771 1.39C119.471 4.1 118.371 8.35 118.371 8.35H105.001V8.35Z" fill="#AA8420"/>
<path d="M0 32.8003H2.56C3.22 32.8003 3.73 32.9603 4.1 33.2803C4.47 33.6003 4.65 34.0403 4.65 34.5903C4.65 35.1403 4.46 35.5903 4.09 35.9103C3.72 36.2303 3.2 36.3903 2.55 36.3903H0.74V39.2103H0V32.8003ZM2.49 35.7803C2.96 35.7803 3.32 35.6803 3.56 35.4703C3.8 35.2703 3.92 34.9703 3.92 34.5903C3.92 34.2103 3.8 33.9103 3.56 33.7103C3.32 33.5103 2.96 33.4103 2.49 33.4103H0.74V35.7803H2.5H2.49Z" fill="#231815"/>
<path d="M10.8891 39.2101H10.1091L9.31914 37.0801C9.21914 36.8201 9.08914 36.6401 8.91914 36.5501C8.74914 36.4601 8.50914 36.4201 8.19914 36.4201H6.59914V39.2201H5.86914V32.8101H8.41914C9.10914 32.8101 9.63914 32.9601 10.0091 33.2701C10.3791 33.5801 10.5591 34.0201 10.5591 34.5901C10.5591 35.0101 10.4491 35.3601 10.2291 35.6501C10.0091 35.9401 9.68914 36.1401 9.27914 36.2601C9.46914 36.2901 9.61914 36.3701 9.75914 36.5001C9.88914 36.6301 9.99914 36.8101 10.0891 37.0501L10.8991 39.2201L10.8891 39.2101ZM8.33914 35.8001C9.31914 35.8001 9.81914 35.4001 9.81914 34.5901C9.81914 34.1901 9.69914 33.9001 9.45914 33.7001C9.21914 33.5101 8.84914 33.4101 8.33914 33.4101H6.58914V35.7901H8.33914V35.8001Z" fill="#231815"/>
<path d="M12.0996 32.8003H12.8396V39.2103H12.0996V32.8003Z" fill="#231815"/>
<path d="M19.5599 32.8003V39.2103H18.9799L15.1099 34.0503V39.2103H14.4199V32.8003H14.9899L18.8599 37.9603V32.8003H19.5599Z" fill="#231815"/>
<path d="M22.6792 33.4303H20.4492V32.8003H25.6592V33.4303H23.4292V39.2103H22.6792V33.4303Z" fill="#231815"/>
<path d="M25.9902 38.4702L26.2702 37.9002C26.5902 38.1702 26.9102 38.3602 27.2402 38.4802C27.5702 38.5902 27.9502 38.6502 28.3902 38.6502C28.9102 38.6502 29.3002 38.5502 29.5802 38.3502C29.8602 38.1502 30.0002 37.8702 30.0002 37.5002C30.0002 37.2802 29.9302 37.1102 29.8002 36.9702C29.6602 36.8402 29.4902 36.7302 29.2702 36.6502C29.0502 36.5702 28.7602 36.4902 28.3902 36.4102C27.9002 36.3002 27.4902 36.1802 27.1802 36.0602C26.8602 35.9302 26.6002 35.7502 26.4102 35.5202C26.2102 35.2802 26.1102 34.9702 26.1102 34.5902C26.1102 34.2102 26.2102 33.9002 26.4002 33.6202C26.5902 33.3402 26.8602 33.1202 27.2102 32.9702C27.5602 32.8202 27.9702 32.7402 28.4402 32.7402C28.9102 32.7402 29.3002 32.8102 29.6802 32.9502C30.0602 33.0902 30.3902 33.2902 30.6502 33.5502L30.3602 34.1202C30.0602 33.8602 29.7602 33.6702 29.4502 33.5502C29.1402 33.4302 28.8002 33.3702 28.4402 33.3702C27.9402 33.3702 27.5502 33.4802 27.2702 33.6902C26.9902 33.9002 26.8502 34.1902 26.8502 34.5702C26.8502 34.8902 26.9702 35.1402 27.2202 35.3002C27.4702 35.4602 27.8402 35.6002 28.3502 35.7202C28.9002 35.8502 29.3402 35.9702 29.6502 36.0802C29.9602 36.1902 30.2302 36.3602 30.4402 36.5802C30.6502 36.8102 30.7502 37.1002 30.7502 37.4802C30.7502 37.8602 30.6502 38.1602 30.4602 38.4302C30.2702 38.7002 29.9902 38.9102 29.6402 39.0602C29.2802 39.2102 28.8602 39.2902 28.3802 39.2902C27.3802 39.2902 26.5802 39.0202 25.9902 38.4802V38.4702Z" fill="#231815"/>
<path d="M4.22 50.5198V51.2098H0.25V50.5198H1.82V45.1098L0.36 46.0398V45.2498L2.18 44.0898H2.65V50.5198H4.22V50.5198Z" fill="#AA8420"/>
<path d="M10.1302 48.21C10.3902 48.52 10.5102 48.89 10.5102 49.33C10.5102 49.94 10.2802 50.41 9.82016 50.76C9.36016 51.11 8.74016 51.29 7.96016 51.29C7.18016 51.29 6.56016 51.11 6.10016 50.76C5.64016 50.41 5.41016 49.93 5.41016 49.33C5.41016 48.9 5.54016 48.52 5.81016 48.21C6.07016 47.9 6.43016 47.68 6.89016 47.56C6.46016 47.43 6.14016 47.23 5.91016 46.94C5.68016 46.65 5.57016 46.31 5.57016 45.92C5.57016 45.53 5.67016 45.21 5.87016 44.92C6.07016 44.64 6.35016 44.42 6.71016 44.26C7.07016 44.1 7.49016 44.02 7.96016 44.02C8.43016 44.02 8.84016 44.1 9.21016 44.26C9.57016 44.42 9.86016 44.64 10.0502 44.92C10.2502 45.2 10.3502 45.53 10.3502 45.92C10.3502 46.31 10.2302 46.65 10.0002 46.94C9.77016 47.23 9.45016 47.44 9.04016 47.56C9.51016 47.69 9.87016 47.9 10.1202 48.22L10.1302 48.21ZM9.25016 50.26C9.55016 50.03 9.70016 49.7 9.70016 49.27C9.70016 48.88 9.54016 48.56 9.22016 48.33C8.90016 48.09 8.48016 47.95 7.95016 47.89C7.42016 47.94 7.00016 48.09 6.68016 48.33C6.36016 48.57 6.20016 48.88 6.20016 49.27C6.20016 49.7 6.35016 50.03 6.65016 50.26C6.95016 50.49 7.38016 50.6 7.94016 50.6C8.50016 50.6 8.93016 50.49 9.23016 50.26H9.25016ZM6.81016 46.88C7.09016 47.12 7.48016 47.26 7.96016 47.32C8.44016 47.27 8.82016 47.12 9.11016 46.88C9.39016 46.64 9.53016 46.34 9.53016 45.96C9.53016 45.58 9.39016 45.26 9.11016 45.03C8.83016 44.8 8.45016 44.69 7.96016 44.69C7.47016 44.69 7.08016 44.8 6.81016 45.03C6.53016 45.26 6.39016 45.57 6.39016 45.96C6.39016 46.35 6.53016 46.65 6.81016 46.88Z" fill="#AA8420"/>
<path d="M21.6093 48.0501V51.2101H20.7993V48.0901C20.7993 47.6201 20.7193 47.2701 20.5493 47.0601C20.3893 46.8501 20.1193 46.7401 19.7593 46.7401C19.3293 46.7401 18.9993 46.8801 18.7593 47.1701C18.5193 47.4601 18.3993 47.8501 18.3993 48.3401V51.2101H17.5893V48.0901C17.5893 47.6201 17.5093 47.2801 17.3393 47.0701C17.1693 46.8501 16.9093 46.7401 16.5393 46.7401C16.1093 46.7401 15.7793 46.8801 15.5393 47.1701C15.2993 47.4601 15.1693 47.8501 15.1693 48.3401V51.2101H14.3593V47.5901C14.3593 47.0701 14.3293 46.6001 14.2793 46.1801H15.0493L15.1293 47.0601C15.2693 46.7401 15.4793 46.4901 15.7493 46.3201C16.0293 46.1501 16.3493 46.0601 16.7193 46.0601C17.1193 46.0601 17.4493 46.1401 17.6993 46.3001C17.9493 46.4601 18.1393 46.7101 18.2593 47.0401C18.4093 46.7401 18.6393 46.5001 18.9293 46.3301C19.2293 46.1501 19.5593 46.0601 19.9293 46.0601C21.0393 46.0601 21.5993 46.7201 21.5993 48.0501H21.6093Z" fill="#AA8420"/>
<path d="M30.4003 48.0501V51.2101H29.5903V48.0901C29.5903 47.6201 29.5103 47.2701 29.3403 47.0601C29.1803 46.8501 28.9103 46.7401 28.5503 46.7401C28.1203 46.7401 27.7903 46.8801 27.5503 47.1701C27.3103 47.4601 27.1903 47.8501 27.1903 48.3401V51.2101H26.3803V48.0901C26.3803 47.6201 26.3003 47.2801 26.1303 47.0701C25.9603 46.8501 25.7003 46.7401 25.3303 46.7401C24.9003 46.7401 24.5703 46.8801 24.3303 47.1701C24.0903 47.4601 23.9603 47.8501 23.9603 48.3401V51.2101H23.1503V47.5901C23.1503 47.0701 23.1203 46.6001 23.0703 46.1801H23.8403L23.9203 47.0601C24.0603 46.7401 24.2703 46.4901 24.5403 46.3201C24.8203 46.1501 25.1403 46.0601 25.5103 46.0601C25.9103 46.0601 26.2403 46.1401 26.4903 46.3001C26.7403 46.4601 26.9303 46.7101 27.0503 47.0401C27.2003 46.7401 27.4303 46.5001 27.7203 46.3301C28.0203 46.1501 28.3503 46.0601 28.7203 46.0601C29.8303 46.0601 30.3903 46.7201 30.3903 48.0501H30.4003Z" fill="#AA8420"/>
<path d="M194.22 38.89C193.78 38.63 193.44 38.25 193.21 37.75C192.97 37.26 192.85 36.67 192.85 36.01C192.85 35.35 192.97 34.76 193.2 34.26C193.43 33.77 193.77 33.39 194.21 33.13C194.65 32.87 195.17 32.73 195.77 32.73C196.37 32.73 196.89 32.86 197.33 33.13C197.77 33.4 198.1 33.77 198.34 34.26C198.58 34.75 198.69 35.33 198.69 36C198.69 36.67 198.57 37.25 198.33 37.75C198.09 38.24 197.76 38.62 197.32 38.89C196.88 39.16 196.37 39.29 195.77 39.29C195.17 39.29 194.66 39.16 194.22 38.89V38.89ZM197.35 37.96C197.73 37.5 197.92 36.84 197.92 36C197.92 35.16 197.73 34.5 197.36 34.05C196.99 33.6 196.46 33.37 195.77 33.37C195.08 33.37 194.55 33.6 194.18 34.06C193.81 34.52 193.61 35.17 193.61 36.01C193.61 36.85 193.8 37.51 194.18 37.97C194.56 38.43 195.09 38.66 195.77 38.66C196.45 38.66 196.98 38.43 197.35 37.97V37.96Z" fill="#231815"/>
<path d="M205.169 32.7998V39.2098H204.589L200.719 34.0498V39.2098H200.029V32.7998H200.599L204.469 37.9598V32.7998H205.169V32.7998Z" fill="#231815"/>
<path d="M206.75 32.7998H207.49V38.5798H210.7V39.2098H206.75V32.7998V32.7998Z" fill="#231815"/>
<path d="M211.65 32.7998H212.39V39.2098H211.65V32.7998Z" fill="#231815"/>
<path d="M219.109 32.7998V39.2098H218.529L214.659 34.0498V39.2098H213.969V32.7998H214.539L218.409 37.9598V32.7998H219.109V32.7998Z" fill="#231815"/>
<path d="M220.689 32.8H224.739V33.41H221.419V35.64H224.559V36.26H221.419V38.59H224.739V39.2H220.689V32.79V32.8Z" fill="#231815"/>
<path d="M197.46 48.21C197.72 48.52 197.84 48.89 197.84 49.33C197.84 49.94 197.61 50.41 197.15 50.76C196.69 51.11 196.07 51.29 195.29 51.29C194.51 51.29 193.89 51.11 193.43 50.76C192.97 50.41 192.74 49.93 192.74 49.33C192.74 48.9 192.87 48.52 193.14 48.21C193.4 47.9 193.76 47.68 194.22 47.56C193.79 47.43 193.47 47.23 193.24 46.94C193.01 46.65 192.9 46.31 192.9 45.92C192.9 45.53 193 45.21 193.2 44.92C193.4 44.64 193.68 44.42 194.04 44.26C194.4 44.1 194.82 44.02 195.29 44.02C195.76 44.02 196.17 44.1 196.54 44.26C196.9 44.42 197.19 44.64 197.38 44.92C197.58 45.2 197.68 45.53 197.68 45.92C197.68 46.31 197.56 46.65 197.33 46.94C197.1 47.23 196.78 47.44 196.37 47.56C196.84 47.69 197.2 47.9 197.45 48.22L197.46 48.21ZM196.58 50.26C196.88 50.03 197.03 49.7 197.03 49.27C197.03 48.88 196.87 48.56 196.55 48.33C196.23 48.09 195.81 47.95 195.28 47.89C194.75 47.94 194.33 48.09 194.01 48.33C193.69 48.57 193.53 48.88 193.53 49.27C193.53 49.7 193.68 50.03 193.98 50.26C194.28 50.49 194.71 50.6 195.27 50.6C195.83 50.6 196.26 50.49 196.56 50.26H196.58ZM194.14 46.88C194.42 47.12 194.81 47.26 195.29 47.32C195.77 47.27 196.15 47.12 196.44 46.88C196.72 46.64 196.86 46.34 196.86 45.96C196.86 45.58 196.72 45.26 196.44 45.03C196.16 44.8 195.78 44.69 195.29 44.69C194.8 44.69 194.41 44.8 194.14 45.03C193.86 45.26 193.72 45.57 193.72 45.96C193.72 46.35 193.86 46.65 194.14 46.88Z" fill="#AA8420"/>
<path d="M199.441 50.37C199.021 49.75 198.801 48.85 198.801 47.66C198.801 46.47 199.011 45.56 199.441 44.94C199.861 44.32 200.481 44.02 201.291 44.02C202.101 44.02 202.721 44.33 203.141 44.94C203.561 45.56 203.781 46.46 203.781 47.65C203.781 48.84 203.571 49.75 203.141 50.37C202.721 50.99 202.101 51.3 201.291 51.3C200.481 51.3 199.861 50.99 199.441 50.38V50.37ZM202.551 49.88C202.821 49.4 202.961 48.65 202.961 47.64C202.961 46.63 202.831 45.89 202.561 45.42C202.291 44.95 201.871 44.71 201.301 44.71C200.731 44.71 200.321 44.95 200.051 45.42C199.781 45.89 199.641 46.63 199.641 47.64C199.641 48.65 199.781 49.39 200.051 49.88C200.321 50.37 200.741 50.6 201.301 50.6C201.861 50.6 202.281 50.36 202.551 49.88Z" fill="#AA8420"/>
<path d="M211.36 46.3901C211.7 46.6101 211.96 46.9201 212.15 47.3201C212.34 47.7201 212.43 48.1701 212.43 48.7001C212.43 49.2301 212.34 49.6701 212.15 50.0601C211.96 50.4501 211.7 50.7501 211.36 50.9701C211.02 51.1801 210.63 51.2901 210.19 51.2901C209.8 51.2901 209.45 51.2001 209.16 51.0301C208.87 50.8601 208.64 50.6101 208.49 50.2901V53.3801H207.68V47.6001C207.68 47.0801 207.65 46.6101 207.6 46.1901H208.37L208.45 47.1601C208.59 46.8101 208.81 46.5401 209.12 46.3501C209.42 46.1601 209.78 46.0601 210.2 46.0601C210.64 46.0601 211.03 46.1701 211.37 46.3901H211.36ZM211.19 50.1101C211.46 49.7801 211.59 49.3001 211.59 48.6901C211.59 48.0801 211.45 47.6001 211.18 47.2501C210.91 46.9101 210.53 46.7401 210.04 46.7401C209.55 46.7401 209.16 46.9101 208.89 47.2401C208.62 47.5701 208.49 48.0501 208.49 48.6701C208.49 49.2901 208.62 49.7701 208.89 50.1001C209.16 50.4401 209.54 50.6101 210.04 50.6101C210.54 50.6101 210.92 50.4401 211.19 50.1101V50.1101Z" fill="#AA8420"/>
<path d="M218.04 51.2102H217.07L215.48 49.2302L213.91 51.2102H212.92L215.01 48.6202L213.04 46.1802H214.02L215.48 48.0302L216.94 46.1802H217.93L215.97 48.6202L218.04 51.2102V51.2102Z" fill="#AA8420"/>
</svg>
