<svg width="315" height="53" viewBox="0 0 315 53" fill="none" xmlns="http://www.w3.org/2000/svg">
<path d="M314.21 0.870117H0V52.8801H314.21V0.870117Z" fill="#1D3C72"/>
<path d="M147.12 24.6895H144.9L141.5 28.3494V24.6895H139.66V33.0495H141.5V30.4995L142.47 29.4995L145.06 33.0495H147.27L143.71 28.2394L147.12 24.6895Z" fill="white"/>
<path d="M150.211 29.6595H154.151V28.0294H150.211V26.3295H154.691V24.6895H148.381V33.0495H154.751V31.4194H150.211V29.6595Z" fill="white"/>
<path d="M159.669 28.0495L157.679 24.6895H155.529L158.739 29.7595V33.0495H160.579V29.7195L163.789 24.6895H161.699L159.669 28.0495Z" fill="white"/>
<path d="M172.7 28.2295L170.5 24.6895H168.52V33.0495H170.32V27.6294L172.65 31.1694H172.7L175.05 27.5994V33.0495H176.88V24.6895H174.9L172.7 28.2295Z" fill="white"/>
<path d="M180.711 29.6595H184.661V28.0294H180.711V26.3295H185.191V24.6895H178.891V33.0495H185.251V31.4194H180.711V29.6595Z" fill="white"/>
<path d="M190.281 28.0493C188.831 27.6793 188.481 27.4993 188.481 26.9493V26.9293C188.481 26.5193 188.851 26.1993 189.551 26.1993C190.251 26.1993 190.981 26.5093 191.721 27.0193L192.681 25.6293C191.831 24.9493 190.791 24.5693 189.581 24.5693C187.871 24.5693 186.651 25.5693 186.651 27.0893V27.1093C186.651 28.7693 187.741 29.2293 189.421 29.6593C190.821 30.0193 191.101 30.2593 191.101 30.7193V30.7393C191.101 31.2293 190.651 31.5293 189.891 31.5293C188.941 31.5293 188.151 31.1393 187.391 30.5093L186.301 31.8093C187.301 32.7093 188.581 33.1493 189.851 33.1493C191.651 33.1493 192.921 32.2193 192.921 30.5593V30.5393C192.921 29.0793 191.961 28.4693 190.271 28.0293L190.281 28.0493Z" fill="white"/>
<path d="M197.81 28.0493C196.37 27.6793 196.01 27.4993 196.01 26.9493V26.9293C196.01 26.5193 196.38 26.1993 197.09 26.1993C197.8 26.1993 198.52 26.5093 199.26 27.0193L200.22 25.6293C199.37 24.9493 198.33 24.5693 197.12 24.5693C195.41 24.5693 194.19 25.5693 194.19 27.0893V27.1093C194.19 28.7693 195.28 29.2293 196.96 29.6593C198.36 30.0193 198.64 30.2593 198.64 30.7193V30.7393C198.64 31.2293 198.19 31.5293 197.43 31.5293C196.47 31.5293 195.69 31.1393 194.93 30.5093L193.84 31.8093C194.84 32.7093 196.12 33.1493 197.39 33.1493C199.19 33.1493 200.46 32.2193 200.46 30.5593V30.5393C200.46 29.0793 199.51 28.4693 197.81 28.0293V28.0493Z" fill="white"/>
<path d="M204.75 24.6299L201.17 33.0499H203.04L203.8 31.1699H207.33L208.1 33.0499H210.02L206.44 24.6299H204.74H204.75ZM204.46 29.5499L205.57 26.8399L206.68 29.5499H204.46V29.5499Z" fill="white"/>
<path d="M214.74 29.8298H216.59V31.0198C216.12 31.3498 215.53 31.5198 214.86 31.5198C213.38 31.5198 212.33 30.3998 212.33 28.8698V28.8498C212.33 27.4298 213.39 26.2498 214.73 26.2498C215.7 26.2498 216.27 26.5598 216.92 27.0998L218.08 25.6998C217.21 24.9598 216.3 24.5498 214.79 24.5498C212.26 24.5498 210.41 26.4998 210.41 28.8698V28.8898C210.41 31.3598 212.2 33.1898 214.81 33.1898C216.34 33.1898 217.52 32.5898 218.38 31.8598V28.2298H214.75V29.8198L214.74 29.8298Z" fill="white"/>
<path d="M221.971 29.6595H225.911V28.0294H221.971V26.3295H226.451V24.6895H220.141V33.0495H226.511V31.4194H221.971V29.6595Z" fill="white"/>
<path d="M235.689 29.8298H237.539V31.0198C237.069 31.3498 236.479 31.5198 235.809 31.5198C234.329 31.5198 233.279 30.3998 233.279 28.8698V28.8498C233.279 27.4298 234.339 26.2498 235.679 26.2498C236.649 26.2498 237.219 26.5598 237.859 27.0998L239.019 25.6998C238.149 24.9598 237.239 24.5498 235.739 24.5498C233.209 24.5498 231.359 26.4998 231.359 28.8698V28.8898C231.359 31.3598 233.149 33.1898 235.759 33.1898C237.289 33.1898 238.469 32.5898 239.329 31.8598V28.2298H235.699V29.8198L235.689 29.8298Z" fill="white"/>
<path d="M245.171 24.5498C242.591 24.5498 240.721 26.4998 240.721 28.8698V28.8898C240.721 31.2698 242.571 33.1898 245.151 33.1898C247.731 33.1898 249.601 31.2398 249.601 28.8698V28.8498C249.601 26.4698 247.751 24.5498 245.171 24.5498V24.5498ZM247.681 28.8998C247.681 30.3298 246.651 31.4998 245.171 31.4998C243.691 31.4998 242.641 30.3098 242.641 28.8698V28.8498C242.641 27.4198 243.671 26.2498 245.151 26.2498C246.631 26.2498 247.681 27.4398 247.681 28.8798V28.8998Z" fill="white"/>
<path d="M253.07 29.6595H257.01V28.0294H253.07V26.3295H257.55V24.6895H251.24V33.0495H257.61V31.4194H253.07V29.6595Z" fill="white"/>
<path d="M262.64 28.0493C261.19 27.6793 260.84 27.4993 260.84 26.9493V26.9293C260.84 26.5193 261.21 26.1993 261.92 26.1993C262.63 26.1993 263.35 26.5093 264.09 27.0193L265.04 25.6293C264.19 24.9493 263.15 24.5693 261.94 24.5693C260.23 24.5693 259.01 25.5693 259.01 27.0893V27.1093C259.01 28.7693 260.1 29.2293 261.78 29.6593C263.18 30.0193 263.46 30.2593 263.46 30.7193V30.7393C263.46 31.2293 263.01 31.5293 262.25 31.5293C261.29 31.5293 260.51 31.1393 259.75 30.5093L258.66 31.8093C259.66 32.7093 260.94 33.1493 262.21 33.1493C264.01 33.1493 265.28 32.2193 265.28 30.5593V30.5393C265.28 29.0793 264.32 28.4693 262.63 28.0293L262.64 28.0493Z" fill="white"/>
<path d="M275.701 27.9995H272.311V24.6895H270.471V33.0495H272.311V29.6994H275.701V33.0495H277.541V24.6895H275.701V27.9995Z" fill="white"/>
<path d="M281.381 29.6595H285.321V28.0294H281.381V26.3295H285.851V24.6895H279.551V33.0495H285.911V31.4194H281.381V29.6595Z" fill="white"/>
<path d="M294.531 27.4802V27.4602C294.531 26.6702 294.281 26.0102 293.811 25.5502C293.261 25.0002 292.441 24.7002 291.371 24.7002H287.551V33.0602H289.391V30.3802H290.841L292.631 33.0602H294.781L292.741 30.0702C293.801 29.6802 294.531 28.8302 294.531 27.4802V27.4802ZM292.671 27.5802C292.671 28.2802 292.161 28.7602 291.261 28.7602H289.401V26.3602H291.231C292.131 26.3602 292.681 26.7702 292.681 27.5502V27.5702L292.671 27.5802Z" fill="white"/>
<path d="M298.009 31.4194V29.6595H301.949V28.0294H298.009V26.3295H302.489V24.6895H296.189V33.0495H302.549V31.4194H298.009Z" fill="white"/>
<path d="M130.91 11.7002V44.0302" stroke="#A78134" stroke-miterlimit="10"/>
<path d="M19.91 33.0097V25.1797H18.95V33.2597C19.03 33.3397 20.62 36.0597 20.62 36.0597H16.66C16.66 36.0597 18.26 33.3397 18.33 33.2597V25.1797H17.37V33.0097C17.37 33.1697 17.29 33.2697 17.29 33.2697L14.75 37.4897H22.5L19.96 33.2697C19.96 33.2697 19.88 33.1697 19.88 33.0097H19.91Z" fill="white"/>
<path d="M21.7407 19.6896C21.7407 19.6896 22.2207 17.7096 20.5107 16.4196C20.5107 16.4196 19.8307 15.8096 18.5307 15.8096C17.3707 15.8096 16.6907 16.4196 16.6907 16.4196C15.1207 17.5096 15.5307 19.6896 15.5307 19.6896H21.7307H21.7407Z" fill="white"/>
<path d="M21.6811 19.8994H15.6211C15.6511 20.0194 15.6911 20.1294 15.7411 20.2394H21.5711C21.6111 20.1294 21.6511 20.0194 21.6911 19.8994H21.6811Z" fill="white"/>
<path d="M21.4701 20.4395H15.8301C15.8901 20.5595 15.9501 20.6694 16.0301 20.7794H21.2801C21.3501 20.6694 21.4201 20.5595 21.4801 20.4395H21.4701Z" fill="white"/>
<path d="M21.1299 20.9893H16.1699C16.2399 21.0893 16.3199 21.1793 16.4099 21.2593H20.8999C20.9799 21.1693 21.0599 21.0793 21.1399 20.9893H21.1299Z" fill="white"/>
<path d="M20.6711 21.46H16.6211C16.7111 21.53 16.7911 21.6 16.8911 21.66H20.4111C20.5011 21.6 20.5911 21.53 20.6811 21.46H20.6711Z" fill="white"/>
<path d="M19.9211 21.9395H17.3711C17.7611 22.1095 18.1911 22.2094 18.6411 22.2094C19.0911 22.2094 19.5211 22.1095 19.9111 21.9395H19.9211Z" fill="white"/>
<path d="M19.9202 22.3594C19.9202 22.3594 19.4802 22.3594 19.1302 22.5994C18.8602 22.7894 18.6602 23.2194 18.6502 23.2394C18.6502 23.2394 18.4502 22.7894 18.1702 22.5994C17.8202 22.3594 17.3802 22.3594 17.3802 22.3594H12.6102L11.6602 23.8894H16.0302C16.0302 23.8894 16.1602 23.8894 16.2402 23.8994C16.3702 23.9194 16.6002 23.9894 16.8302 24.1594C17.1502 24.3894 17.2402 24.5094 17.3202 24.5894C17.3602 24.6294 17.4602 24.7694 17.4602 24.7694H19.8402C19.8402 24.7694 19.9402 24.6294 19.9802 24.5894C20.0602 24.5094 20.1502 24.3894 20.4702 24.1594C20.7002 23.9894 20.9302 23.9194 21.0602 23.8994C21.1402 23.8894 21.2702 23.8894 21.2702 23.8894H25.6402L24.6902 22.3594H19.9202V22.3594Z" fill="white"/>
<path d="M15.4804 34.9294C15.4804 34.9294 14.6704 34.4994 14.0204 33.5094C13.8904 33.3094 13.7604 33.1294 13.6704 32.9394C13.5904 32.7694 13.5204 32.6194 13.4704 32.4694C13.4304 32.3594 13.4004 32.2594 13.3804 32.1694C13.3504 32.0394 13.3304 31.9294 13.3304 31.8094C13.3304 31.7694 13.3304 31.5894 13.3304 31.5894V24.3594H12.1504V31.6094C12.1504 31.6894 12.1504 31.7594 12.1604 31.8294C12.2404 32.5994 12.4804 33.1594 12.9204 33.9094C13.6204 35.0794 14.8904 35.8894 14.8904 35.8894L15.4904 34.9394L15.4804 34.9294Z" fill="white"/>
<path d="M13.9495 24.3496V31.5796C13.9495 31.5796 13.9495 31.6096 13.9495 31.6396C13.9495 31.6796 13.9495 31.7296 13.9595 31.7696C13.9595 31.7996 13.9595 31.8296 13.9695 31.8496C13.9895 31.9596 14.0195 32.0596 14.0695 32.2096C14.1495 32.4496 14.2995 32.7496 14.4995 33.0896C15.0395 33.9496 15.8095 34.3496 15.8095 34.3496L16.4095 33.4196C16.4095 33.4196 16.2095 33.3096 15.9695 33.0796C15.8095 32.9296 15.6195 32.7296 15.4595 32.4796C15.2995 32.2396 15.1995 31.9896 15.1495 31.7996C15.0995 31.6496 15.0995 31.5196 15.0895 31.4396C15.0895 31.3696 15.0895 31.3396 15.0895 31.3396V24.3696H13.9395L13.9495 24.3496Z" fill="white"/>
<path d="M23.9801 31.5499V31.5798C23.9801 31.5798 23.9801 31.7599 23.9801 31.7999C23.9801 31.9199 23.9601 32.0299 23.9301 32.1599C23.9101 32.2499 23.8801 32.3498 23.8401 32.4598C23.7901 32.6098 23.7301 32.7498 23.6401 32.9298C23.5501 33.1098 23.4201 33.2998 23.2901 33.4998C22.6401 34.4898 21.8301 34.9198 21.8301 34.9198L22.4301 35.8699C22.4301 35.8699 23.7001 35.0498 24.4001 33.8898C24.8501 33.1498 25.0801 32.5798 25.1601 31.8098C25.1601 31.7398 25.1701 31.6698 25.1701 31.5898V24.3398H23.9901V31.5298L23.9801 31.5499Z" fill="white"/>
<path d="M22.7911 33.0798C23.0011 32.7398 23.1411 32.4498 23.2211 32.1998C23.2711 32.0498 23.2911 31.9498 23.3211 31.8398C23.3211 31.8198 23.3211 31.7898 23.3311 31.7598C23.3311 31.7198 23.3411 31.6698 23.3411 31.6298C23.3411 31.5998 23.3411 31.5698 23.3411 31.5698V24.3398H22.1911V31.3098C22.1911 31.3098 22.1911 31.3499 22.1911 31.4099C22.1911 31.4899 22.1811 31.6198 22.1311 31.7698C22.0711 31.9598 21.9811 32.2098 21.8211 32.4498C21.6611 32.6898 21.4711 32.8899 21.3111 33.0499C21.0711 33.2799 20.8711 33.3898 20.8711 33.3898L21.4711 34.3198C21.4711 34.3198 22.2511 33.9198 22.7811 33.0598L22.7911 33.0798Z" fill="white"/>
<path d="M35.5708 28.2798H30.7908V24.5898H29.5508V33.7299H30.7908V29.3398H35.5708V33.7299H36.8308V24.5898H35.5708V28.2798Z" fill="white"/>
<path d="M48.5795 24.5996H46.9395L42.6795 28.5496V24.5996H41.4395V33.7296H42.6795V29.9096L43.1795 29.4696L46.9695 33.7196H48.6595L44.0795 28.6996L48.5795 24.5996Z" fill="white"/>
<path d="M57.6898 29.9896C57.6898 31.4796 57.1998 32.8596 55.2698 32.8596C53.3398 32.8596 52.8498 31.4696 52.8498 29.9896V24.5996H51.5898V30.3696C51.5898 32.3796 52.9698 33.9196 55.2698 33.9196C57.5698 33.9196 58.9498 32.3796 58.9498 30.3696V24.5996H57.6898V29.9896Z" fill="white"/>
<path d="M66.5207 28.3194L65.8107 28.0694C65.1807 27.8494 64.4107 27.4694 64.4107 26.7594C64.4107 25.9594 65.3007 25.4594 66.1007 25.4594C66.9007 25.4594 67.3507 25.7494 67.7207 26.3194L68.7307 25.7794C68.1907 24.8994 67.2607 24.3994 66.1507 24.3994C64.6507 24.3994 63.2007 25.2794 63.2007 26.7494C63.2007 28.0194 64.2407 28.6194 65.3807 29.0694L66.0707 29.3294C66.9407 29.6594 67.8007 30.0894 67.8007 31.0594C67.8007 32.0294 67.0307 32.8394 65.9407 32.8394C64.8507 32.8394 63.9807 32.1194 63.9907 31.1094L62.7207 31.3494C62.9307 32.8194 64.1907 33.9094 65.8207 33.9094C67.6107 33.9094 69.0207 32.7194 69.0207 31.0594C69.0207 29.5194 67.9707 28.8094 66.5307 28.3094L66.5207 28.3194Z" fill="white"/>
<path d="M72.7695 25.6396H75.1595V33.7296H76.3995H76.4095V25.6396H78.7895V24.5996H72.7695V25.6396Z" fill="white"/>
<path d="M96.3493 30.1792H98.7193C98.6693 31.6692 97.1393 32.8992 95.7193 32.8992C93.7393 32.8992 92.1693 31.0792 92.1693 29.1592C92.1693 27.1092 93.7693 25.4492 95.8193 25.4492C96.9393 25.4492 98.0393 26.0492 98.6993 26.9392L99.4993 26.1792C98.5993 25.0492 97.1893 24.4092 95.7693 24.4092C93.1393 24.4092 91.0293 26.5692 91.0293 29.1992C91.0293 31.8292 93.0893 33.9392 95.6493 33.9392C98.2093 33.9392 99.9793 32.0092 99.9793 29.4992V29.1392H96.3493V30.1792V30.1792Z" fill="white"/>
<path d="M105.211 24.5996V25.6396H109.191L104.551 33.7496H111.051V32.7096H106.411L111.051 24.5996H105.211Z" fill="white"/>
<path d="M86.4501 23.7598H85.6202C85.3102 24.1598 84.9902 24.6898 84.6402 25.3498C83.9902 26.5898 83.6602 27.8598 83.6602 29.1398C83.6602 30.0798 83.8401 31.0298 84.2001 31.9898C84.5801 32.9498 85.0402 33.8098 85.6102 34.5598H86.4402C85.4002 32.6998 84.8902 30.9098 84.8902 29.1698C84.8902 28.0898 85.0602 27.0498 85.4002 26.0598C85.6102 25.4698 85.9602 24.6998 86.4602 23.7698L86.4501 23.7598Z" fill="white"/>
<path d="M117.861 26.3498C117.491 25.3698 117.031 24.5098 116.471 23.7598H115.641C116.681 25.6198 117.191 27.4098 117.191 29.1498C117.191 30.2398 117.021 31.2798 116.681 32.2798C116.471 32.8698 116.121 33.6298 115.621 34.5598H116.451C116.781 34.1198 117.101 33.5898 117.431 32.9798C118.081 31.7298 118.411 30.4598 118.411 29.1898C118.411 28.2798 118.231 27.3298 117.861 26.3598V26.3498Z" fill="white"/>
</svg>
