<svg width="315" height="53" viewBox="0 0 315 53" fill="none" xmlns="http://www.w3.org/2000/svg">
<path d="M314.21 0.209961H0V52.23H314.21V0.209961Z" fill="#1D3C72"/>
<path d="M128.35 25.3096H125.99L122.39 29.1896V25.3096H120.43V34.1896H122.39V31.4796L123.41 30.4096L126.17 34.1896H128.52L124.73 29.0796L128.35 25.3096Z" fill="white"/>
<path d="M131.639 30.5896H135.829V28.8496H131.639V27.0496H136.399V25.3096H129.699V34.1896H136.459V32.4496H131.639V30.5896Z" fill="white"/>
<path d="M141.699 28.8696L139.579 25.3096H137.289L140.709 30.6896V34.1896H142.659V30.6496L146.079 25.3096H143.849L141.699 28.8696Z" fill="white"/>
<path d="M155.55 29.0596L153.21 25.3096H151.1V34.1896H153.02V28.4296L155.5 32.1896H155.55L158.05 28.3896V34.1896H159.99V25.3096H157.88L155.55 29.0596Z" fill="white"/>
<path d="M164.069 30.5896H168.249V28.8496H164.069V27.0496H168.829V25.3096H162.119V34.1896H168.889V32.4496H164.069V30.5896Z" fill="white"/>
<path d="M174.24 28.8699C172.7 28.4799 172.32 28.2899 172.32 27.6999V27.6699C172.32 27.2399 172.71 26.8899 173.46 26.8899C174.21 26.8899 174.98 27.2199 175.77 27.7699L176.79 26.2999C175.89 25.5799 174.78 25.1699 173.49 25.1699C171.67 25.1699 170.38 26.2399 170.38 27.8499V27.8799C170.38 29.6399 171.53 30.1399 173.32 30.5999C174.81 30.9799 175.11 31.2399 175.11 31.7299V31.7499C175.11 32.2699 174.63 32.5899 173.83 32.5899C172.81 32.5899 171.98 32.1699 171.18 31.5099L170.02 32.8899C171.09 33.8399 172.44 34.3099 173.79 34.3099C175.71 34.3099 177.05 33.3199 177.05 31.5599V31.5299C177.05 29.9799 176.03 29.3299 174.23 28.8599L174.24 28.8699Z" fill="white"/>
<path d="M182.23 28.8699C180.69 28.4799 180.31 28.2899 180.31 27.6999V27.6699C180.31 27.2399 180.7 26.8899 181.45 26.8899C182.2 26.8899 182.97 27.2199 183.76 27.7699L184.78 26.2999C183.88 25.5799 182.77 25.1699 181.48 25.1699C179.66 25.1699 178.37 26.2399 178.37 27.8499V27.8799C178.37 29.6399 179.52 30.1399 181.31 30.5999C182.8 30.9799 183.1 31.2399 183.1 31.7299V31.7499C183.1 32.2699 182.62 32.5899 181.82 32.5899C180.8 32.5899 179.97 32.1699 179.17 31.5099L178.01 32.8899C179.08 33.8399 180.43 34.3099 181.78 34.3099C183.7 34.3099 185.04 33.3199 185.04 31.5599V31.5299C185.04 29.9799 184.02 29.3299 182.22 28.8599L182.23 28.8699Z" fill="white"/>
<path d="M189.609 25.2393L185.799 34.1893H187.789L188.599 32.1993H192.359L193.169 34.1893H195.209L191.399 25.2393H189.599H189.609ZM189.309 30.4693L190.489 27.5893L191.669 30.4693H189.309Z" fill="white"/>
<path d="M200.239 30.7596H202.209V32.0296C201.709 32.3796 201.079 32.5597 200.369 32.5597C198.799 32.5597 197.679 31.3697 197.679 29.7397V29.7096C197.679 28.1996 198.809 26.9396 200.229 26.9396C201.259 26.9396 201.869 27.2696 202.549 27.8396L203.779 26.3596C202.849 25.5696 201.889 25.1396 200.289 25.1396C197.599 25.1396 195.629 27.2097 195.629 29.7397V29.7696C195.629 32.3996 197.529 34.3396 200.299 34.3396C201.919 34.3396 203.179 33.7096 204.099 32.9296V29.0696H200.239V30.7596V30.7596Z" fill="white"/>
<path d="M207.92 30.5896H212.11V28.8496H207.92V27.0496H212.68V25.3096H205.98V34.1896H212.74V32.4496H207.92V30.5896Z" fill="white"/>
<path d="M222.51 30.7596H224.48V32.0296C223.99 32.3796 223.35 32.5597 222.64 32.5597C221.07 32.5597 219.95 31.3697 219.95 29.7397V29.7096C219.95 28.1996 221.08 26.9396 222.5 26.9396C223.53 26.9396 224.14 27.2696 224.82 27.8396L226.05 26.3596C225.12 25.5696 224.16 25.1396 222.56 25.1396C219.87 25.1396 217.9 27.2097 217.9 29.7397V29.7696C217.9 32.3996 219.8 34.3396 222.57 34.3396C224.19 34.3396 225.45 33.7096 226.37 32.9296V29.0696H222.51V30.7596V30.7596Z" fill="white"/>
<path d="M232.58 25.1494C229.84 25.1494 227.85 27.2194 227.85 29.7494V29.7794C227.85 32.3094 229.82 34.3494 232.56 34.3494C235.3 34.3494 237.29 32.2794 237.29 29.7494V29.7194C237.29 27.1894 235.32 25.1494 232.58 25.1494ZM235.25 29.7694C235.25 31.2894 234.16 32.5394 232.58 32.5394C231 32.5394 229.89 31.2694 229.89 29.7494V29.7194C229.89 28.1994 230.98 26.9494 232.55 26.9494C234.12 26.9494 235.24 28.2194 235.24 29.7394V29.7694H235.25Z" fill="white"/>
<path d="M240.979 30.5896H245.169V28.8496H240.979V27.0496H245.739V25.3096H239.039V34.1896H245.799V32.4496H240.979V30.5896Z" fill="white"/>
<path d="M251.15 28.8699C249.61 28.4799 249.23 28.2899 249.23 27.6999V27.6699C249.23 27.2399 249.62 26.8899 250.37 26.8899C251.12 26.8899 251.89 27.2199 252.68 27.7699L253.7 26.2999C252.8 25.5799 251.69 25.1699 250.4 25.1699C248.58 25.1699 247.29 26.2399 247.29 27.8499V27.8799C247.29 29.6399 248.44 30.1399 250.23 30.5999C251.72 30.9799 252.02 31.2399 252.02 31.7299V31.7499C252.02 32.2699 251.54 32.5899 250.74 32.5899C249.72 32.5899 248.89 32.1699 248.09 31.5099L246.93 32.8899C248 33.8399 249.35 34.3099 250.7 34.3099C252.62 34.3099 253.96 33.3199 253.96 31.5599V31.5299C253.96 29.9799 252.94 29.3299 251.14 28.8599L251.15 28.8699Z" fill="white"/>
<path d="M265.04 28.8196H261.43V25.3096H259.48V34.1896H261.43V30.6296H265.04V34.1896H266.99V25.3096H265.04V28.8196Z" fill="white"/>
<path d="M271.069 30.5896H275.259V28.8496H271.069V27.0496H275.829V25.3096H269.129V34.1896H275.889V32.4496H271.069V30.5896Z" fill="white"/>
<path d="M285.039 28.2598V28.2298C285.039 27.3898 284.769 26.6898 284.279 26.1998C283.699 25.6198 282.819 25.2998 281.689 25.2998H277.629V34.1898H279.589V31.3498H281.129L283.029 34.1898H285.309L283.139 31.0198C284.269 30.5998 285.039 29.6998 285.039 28.2598V28.2598ZM283.059 28.3598C283.059 29.1098 282.509 29.6198 281.559 29.6198H279.579V27.0698H281.519C282.469 27.0698 283.059 27.4998 283.059 28.3398V28.3698V28.3598Z" fill="white"/>
<path d="M288.751 32.4496V30.5896H292.941V28.8496H288.751V27.0496H293.511V25.3096H286.811V34.1896H293.581V32.4496H288.751Z" fill="white"/>
<path d="M107.039 10.0498V42.3898" stroke="#A78134" stroke-miterlimit="10"/>
<path d="M27.8512 18.6299H20.9512C20.9512 18.6299 21.0312 18.9199 21.1112 19.0299H27.7012C27.8112 18.8899 27.8612 18.6299 27.8612 18.6299H27.8512Z" fill="white"/>
<path d="M27.5505 19.2803H21.2305C21.2305 19.2803 21.3005 19.4503 21.4605 19.6203H27.2905C27.4205 19.5103 27.5505 19.2803 27.5505 19.2803Z" fill="white"/>
<path d="M27.0816 19.8896H21.6816C21.6816 19.8896 21.8116 20.0297 21.9416 20.1497H26.8016C26.9616 20.0697 27.0816 19.8896 27.0816 19.8896V19.8896Z" fill="white"/>
<path d="M26.5012 20.4502H22.2812C22.2812 20.4502 22.2812 20.4802 22.5812 20.6502H26.1712C26.3312 20.5902 26.5012 20.4502 26.5012 20.4502Z" fill="white"/>
<path d="M25.8103 20.96H23.0703C23.0703 20.96 23.5203 21.22 24.3903 21.22C25.2603 21.22 25.8203 20.96 25.8203 20.96H25.8103Z" fill="white"/>
<path d="M25.6408 21.55C25.6408 21.55 25.1508 21.65 24.8508 21.88C24.5508 22.1 24.3608 22.51 24.3608 22.51C24.3608 22.51 24.1308 22.08 23.8308 21.82C23.5208 21.58 22.9908 21.55 22.9908 21.55H17.6308L16.5508 23.19H21.5208C21.5208 23.19 21.9108 23.22 22.3108 23.48C22.7008 23.74 22.8008 23.93 22.8408 24C22.9008 24.07 22.8508 24.04 22.9108 24.12C22.9608 24.21 23.0608 24.25 23.0608 24.25H25.6108C25.6108 24.25 25.5908 24.27 25.6708 24.24C25.7408 24.21 25.7808 24.16 25.8408 24.08C25.9008 24.01 25.9408 23.88 25.9408 23.88C25.9408 23.88 26.1408 23.61 26.4108 23.45C26.9308 23.15 27.2708 23.13 27.2708 23.13H32.1608L31.0908 21.54H25.6408V21.55Z" fill="white"/>
<path d="M19.1406 23.79V31.91C19.1406 31.91 19.1706 32.63 19.7706 33.6C20.3706 34.57 21.2406 35.02 21.2406 35.02L21.9306 33.95C21.9306 33.95 21.3306 33.59 20.8706 32.9C20.4306 32.22 20.4306 31.63 20.4306 31.63V23.8H19.1406V23.79Z" fill="white"/>
<path d="M29.0406 33.5305C29.5206 32.7605 29.6406 31.6005 29.6406 31.6005V23.7705H28.3506V31.6005C28.3506 31.6005 28.2506 32.3905 27.8806 32.9405C27.5106 33.5105 26.8906 33.9705 26.8906 33.9705L27.5506 35.0305C27.5506 35.0305 28.5506 34.3005 29.0406 33.5305V33.5305Z" fill="white"/>
<path d="M20.8616 35.6798C20.8616 35.6798 19.9516 35.1998 19.2216 34.0798C18.4716 32.9498 18.4316 31.9198 18.4316 31.9198V23.7998H17.1016V31.9498C17.1016 31.9498 17.1816 33.2098 17.9716 34.5198C18.7616 35.8298 20.1916 36.7498 20.1916 36.7498L20.8616 35.6798V35.6798Z" fill="white"/>
<path d="M25.8205 33.3102L25.7905 33.0802V24.6602H24.7205V33.4002C24.7205 33.4002 24.7205 33.5302 24.7605 33.6302C24.7905 33.7302 24.8505 33.8902 24.8505 33.8902L26.6205 36.8102H22.1305L23.8805 33.9102C23.8805 33.9102 23.9405 33.8102 23.9805 33.6702C24.0105 33.5402 24.0205 33.4102 24.0205 33.4102V24.6602H22.9905V33.2702C22.9905 33.2702 22.9605 33.3002 22.9505 33.4302C22.9305 33.5602 22.8505 33.6502 22.8505 33.6502L19.9805 38.4102H28.7905L25.9205 33.5502L25.8305 33.3302L25.8205 33.3102Z" fill="white"/>
<path d="M30.3414 31.7703C30.3414 31.7703 30.3314 32.8003 29.5714 33.9903C28.8114 35.1803 27.9414 35.6803 27.9414 35.6803L28.5814 36.7703C28.5814 36.7703 29.8914 35.9403 30.7214 34.6303C31.5414 33.3103 31.6314 31.7903 31.6314 31.7903V23.7803H30.3314V31.7903L30.3414 31.7703Z" fill="white"/>
<path d="M27.8801 18.4C27.8801 18.4 28.4501 16.18 26.5201 14.77C26.5201 14.77 25.7201 14.04 24.3301 14.04C23.0301 14.04 22.2301 14.78 22.2301 14.78C20.4601 15.98 20.9001 18.4 20.9001 18.4H27.8801Z" fill="white"/>
<path d="M43.2717 27.9505H38.1117V23.9805H36.7617V33.8305H38.1117V29.1005H43.2717V33.8305H44.6317V23.9805H43.2717V27.9505Z" fill="white"/>
<path d="M57.2413 23.9805H55.4813L50.8813 28.2505V23.9805H49.5312V33.8305H50.8813V29.7205L51.4212 29.2405L55.5013 33.8305H57.3313L52.3713 28.4105L57.2413 23.9805Z" fill="white"/>
<path d="M67.4904 29.7897C67.4904 31.3997 66.9604 32.8897 64.8704 32.8897C62.7804 32.8897 62.2504 31.3997 62.2504 29.7897V23.9697H60.9004V30.1997C60.9004 32.3697 62.3804 34.0297 64.8704 34.0297C67.3604 34.0297 68.8404 32.3697 68.8404 30.1997V23.9697H67.4904V29.7897Z" fill="white"/>
<path d="M77.2101 27.9998L76.4301 27.7198C75.7501 27.4898 74.9201 27.0798 74.9201 26.3098C74.9201 25.4498 75.8701 24.9098 76.7301 24.9098C77.5501 24.9098 78.0701 25.2198 78.4701 25.8398L79.5501 25.2498C78.9601 24.2998 77.9701 23.7598 76.7601 23.7598C75.1201 23.7598 73.5701 24.7098 73.5701 26.3098C73.5701 27.6798 74.6901 28.3198 75.9301 28.8098L76.6801 29.0998C77.6101 29.4498 78.5501 29.9098 78.5501 30.9698C78.5501 32.0298 77.7201 32.8898 76.5501 32.8898C75.3801 32.8898 74.4401 32.1098 74.4501 31.0198L73.0801 31.2798C73.3101 32.8598 74.6801 34.0398 76.4301 34.0398C78.3701 34.0398 79.8901 32.7598 79.8901 30.9698C79.8901 29.3198 78.7401 28.5498 77.2001 28.0098L77.2101 27.9998Z" fill="white"/>
<path d="M83.3105 23.9805V25.1005H85.8905V33.8305H87.2405V25.1005H89.8105V23.9805H83.3105Z" fill="white"/>
</svg>
