<svg width="61" height="203" viewBox="0 0 61 203" fill="none" xmlns="http://www.w3.org/2000/svg">
<path d="M60.9803 0H0.320312V202.65H60.9803V0Z" fill="#E5E6E7"/>
<path d="M9.92001 59.1096L10.66 58.3297L12.65 61.0696H14.35L11.62 57.3696L14.23 54.6396H12.53L9.92001 57.4496V54.6396H8.5V61.0696H9.92001V59.1096Z" fill="#1D3C71"/>
<path d="M20.101 59.8097H16.6109V58.4596H19.641V57.2096H16.6109V55.8997H20.0609V54.6396H15.2109V61.0696H20.101V59.8097Z" fill="#1D3C71"/>
<path d="M23.1712 61.0696H24.5811V58.5096L27.0511 54.6396H25.4412L23.8812 57.2197L22.3512 54.6396H20.7012L23.1712 58.5396V61.0696Z" fill="#1D3C71"/>
<path d="M11.72 68.3792L10.03 65.6592H8.5V72.0892H9.89001V67.9192L11.68 70.6392H11.72L13.53 67.8892V72.0892H14.93V65.6592H13.41L11.72 68.3792Z" fill="#1D3C71"/>
<path d="M21.3207 66.9192V65.6592H16.4707V72.0892H21.3707V70.8292H17.8807V69.4792H20.9107V68.2192H17.8807V66.9192H21.3207Z" fill="#1D3C71"/>
<path d="M24.6719 66.8196C25.2119 66.8196 25.7719 67.0596 26.3419 67.4496L27.0719 66.3796C26.4219 65.8596 25.6219 65.5596 24.6819 65.5596C23.3719 65.5596 22.4319 66.3296 22.4319 67.4996V67.5196C22.4319 68.7996 23.2719 69.1496 24.5619 69.4896C25.6419 69.7596 25.8618 69.9496 25.8618 70.3096V70.3296C25.8618 70.7096 25.5119 70.9396 24.9319 70.9396C24.1919 70.9396 23.5919 70.6396 23.0119 70.1596L22.1719 71.1596C22.9419 71.8496 23.9219 72.1896 24.9019 72.1896C26.2919 72.1896 27.2619 71.4696 27.2619 70.1996V70.1796C27.2619 69.0596 26.5219 68.5896 25.2219 68.2496C24.1119 67.9696 23.8318 67.8296 23.8318 67.4096V67.3896C23.8318 67.0796 24.1119 66.8296 24.6619 66.8296L24.6719 66.8196Z" fill="#1D3C71"/>
<path d="M30.7209 70.9296C29.9909 70.9296 29.3809 70.6296 28.8009 70.1496L27.9609 71.1496C28.7309 71.8396 29.7109 72.1796 30.6909 72.1796C32.0809 72.1796 33.0509 71.4596 33.0509 70.1896V70.1696C33.0509 69.0496 32.321 68.5796 31.011 68.2396C29.901 67.9596 29.6209 67.8196 29.6209 67.3996V67.3796C29.6209 67.0696 29.911 66.8196 30.451 66.8196C30.991 66.8196 31.5509 67.0596 32.1209 67.4496L32.8609 66.3796C32.2109 65.8596 31.4109 65.5596 30.4709 65.5596C29.1609 65.5596 28.2209 66.3296 28.2209 67.4996V67.5196C28.2209 68.7996 29.061 69.1496 30.351 69.4896C31.431 69.7596 31.6509 69.9496 31.6509 70.3096V70.3296C31.6509 70.7096 31.3009 70.9396 30.7209 70.9396V70.9296Z" fill="#1D3C71"/>
<path d="M36.3518 65.6094L33.5918 72.0794H35.0318L35.6218 70.6394H38.3418L38.9318 72.0794H40.4118L37.6518 65.6094H36.3518ZM36.1318 69.3894L36.9918 67.2994L37.8418 69.3894H36.1318V69.3894Z" fill="#1D3C71"/>
<path d="M44.0412 69.6096H45.4612V70.5296C45.1012 70.7896 44.6412 70.9196 44.1312 70.9196C42.9912 70.9196 42.1812 70.0596 42.1812 68.8796V68.8596C42.1812 67.7696 43.0012 66.8596 44.0312 66.8596C44.7712 66.8596 45.2112 67.0996 45.7112 67.5096L46.6012 66.4396C45.9312 65.8696 45.2312 65.5596 44.0712 65.5596C42.1212 65.5596 40.7012 67.0596 40.7012 68.8896V68.9096C40.7012 70.8096 42.0811 72.2196 44.0811 72.2196C45.2611 72.2196 46.1611 71.7596 46.8311 71.1996V68.4096H44.0412V69.6296V69.6096Z" fill="#1D3C71"/>
<path d="M49.5914 70.8292V69.4792H52.6214V68.2192H49.5914V66.9192H53.0314V65.6592H48.1914V72.0892H53.0814V70.8292H49.5914Z" fill="#1D3C71"/>
<path d="M11.5509 80.6293H12.9709V81.5493C12.6109 81.8093 12.151 81.9393 11.641 81.9393C10.501 81.9393 9.69095 81.0793 9.69095 79.8993V79.8793C9.69095 78.7893 10.511 77.8793 11.541 77.8793C12.281 77.8793 12.7209 78.1193 13.2209 78.5293L14.1109 77.4493C13.4409 76.8793 12.7409 76.5693 11.5809 76.5693C9.63093 76.5693 8.21094 78.0693 8.21094 79.8993V79.9193C8.21094 81.8193 9.59094 83.2293 11.5909 83.2293C12.7609 83.2293 13.6709 82.7693 14.3409 82.2093V79.4193H11.5509V80.6393V80.6293Z" fill="#1D3C71"/>
<path d="M22.2502 79.8696C22.2502 78.0396 20.8301 76.5596 18.8401 76.5596C16.8501 76.5596 15.4102 78.0596 15.4102 79.8896V79.9096C15.4102 81.7396 16.8302 83.2196 18.8202 83.2196C20.8102 83.2196 22.2502 81.7196 22.2502 79.8996V79.8796V79.8696ZM20.7701 79.9096C20.7701 81.0096 19.9801 81.9096 18.8401 81.9096C17.7001 81.9096 16.8902 80.9896 16.8902 79.8896V79.8696C16.8902 78.7696 17.6802 77.8696 18.8202 77.8696C19.9602 77.8696 20.7701 78.7896 20.7701 79.8896V79.9096Z" fill="#1D3C71"/>
<path d="M28.3617 77.9397V76.6797H23.5117V83.1097H28.4017V81.8497H24.9117V80.4997H27.9417V79.2397H24.9117V77.9397H28.3617Z" fill="#1D3C71"/>
<path d="M32.2707 79.2593C31.1607 78.9693 30.8807 78.8393 30.8807 78.4093V78.3893C30.8807 78.0793 31.1707 77.8293 31.7107 77.8293C32.2507 77.8293 32.8107 78.0693 33.3807 78.4593L34.1207 77.3893C33.4707 76.8693 32.6707 76.5693 31.7307 76.5693C30.4207 76.5693 29.4807 77.3393 29.4807 78.5093V78.5293C29.4807 79.8093 30.3207 80.1593 31.6107 80.4893C32.6807 80.7693 32.9107 80.9493 32.9107 81.3093V81.3293C32.9107 81.7093 32.5607 81.9393 31.9807 81.9393C31.2507 81.9393 30.6407 81.6393 30.0607 81.1593L29.2207 82.1593C29.9907 82.8493 30.9707 83.1893 31.9507 83.1893C33.3407 83.1893 34.3107 82.4693 34.3107 81.1993V81.1793C34.3107 80.0593 33.5807 79.5893 32.2707 79.2493V79.2593Z" fill="#1D3C71"/>
<path d="M12.53 90.2392H9.92001V87.6992H8.5V94.1192H9.92001V91.5392H12.53V94.1192H13.94V87.6992H12.53V90.2392Z" fill="#1D3C71"/>
<path d="M16.8905 91.5192H19.9205V90.2592H16.8905V88.9492H20.3304V87.6992H15.4805V94.1192H20.3805V92.8692H16.8905V91.5192Z" fill="#1D3C71"/>
<path d="M27.0006 89.8392V89.8192C27.0006 89.2092 26.8106 88.7092 26.4506 88.3492C26.0306 87.9292 25.3906 87.6992 24.5806 87.6992H21.6406V94.1292H23.0506V92.0692H24.1606L25.5406 94.1292H27.1906L25.6206 91.8292C26.4406 91.5292 27.0006 90.8692 27.0006 89.8392ZM25.5706 89.9092C25.5706 90.4492 25.1706 90.8192 24.4906 90.8192H23.0606V88.9692H24.4706C25.1606 88.9692 25.5806 89.2792 25.5806 89.8892V89.9092H25.5706Z" fill="#1D3C71"/>
<path d="M29.6815 91.5192H32.7115V90.2592H29.6815V88.9492H33.1215V87.6992H28.2715V94.1192H33.1715V92.8692H29.6815V91.5192Z" fill="#1D3C71"/>
<path d="M14.4291 13.8303C14.4991 13.7403 14.5291 13.5703 14.5291 13.5703H10.1191C10.1191 13.5703 10.1691 13.7503 10.2191 13.8303H14.4291Z" fill="#A78236"/>
<path d="M14.1708 14.2102C14.2508 14.1402 14.3408 13.9902 14.3408 13.9902H10.3008C10.3008 13.9902 10.3508 14.1002 10.4508 14.2102H14.1808H14.1708Z" fill="#A78236"/>
<path d="M13.8501 14.5496C13.9501 14.4996 14.0301 14.3896 14.0301 14.3896H10.5801C10.5801 14.3896 10.6601 14.4796 10.7401 14.5496H13.8501V14.5496Z" fill="#A78236"/>
<path d="M13.451 14.8702C13.551 14.8302 13.6609 14.7402 13.6609 14.7402H10.9609C10.9609 14.7402 10.9609 14.7602 11.1509 14.8702H13.451Z" fill="#A78236"/>
<path d="M11.4592 15.0703C11.4592 15.0703 11.7492 15.2303 12.2992 15.2303C12.8492 15.2303 13.2092 15.0703 13.2092 15.0703H11.4492H11.4592Z" fill="#A78236"/>
<path d="M11.4191 15.4397C11.4191 15.4397 11.759 15.4597 11.959 15.6097C12.149 15.7697 12.299 16.0497 12.299 16.0497C12.299 16.0497 12.419 15.7897 12.609 15.6497C12.799 15.4997 13.109 15.4397 13.109 15.4397H16.5891L17.2791 16.4497H14.149C14.149 16.4497 13.9291 16.4497 13.5991 16.6497C13.4291 16.7497 13.299 16.9197 13.299 16.9197C13.299 16.9197 13.269 16.9997 13.239 17.0497C13.199 17.0997 13.1791 17.1297 13.1291 17.1497C13.0791 17.1697 13.0891 17.1497 13.0891 17.1497H11.459C11.459 17.1497 11.389 17.1197 11.359 17.0697C11.319 17.0197 11.3491 17.0297 11.3091 16.9897C11.2791 16.9397 11.2191 16.8197 10.9691 16.6597C10.7091 16.4897 10.4691 16.4797 10.4691 16.4797H7.28906L7.97906 15.4297H11.4091L11.4191 15.4397Z" fill="#003874"/>
<path d="M8.96094 16.8799V22.0699C8.96094 22.0699 8.98093 22.5299 9.36093 23.1499C9.74093 23.7699 10.3009 24.0599 10.3009 24.0599L10.7409 23.3699C10.7409 23.3699 10.3609 23.1399 10.0609 22.6999C9.78094 22.2599 9.78094 21.8899 9.78094 21.8899V16.8799H8.96094V16.8799Z" fill="#003874"/>
<path d="M14.8499 16.8604V21.8704C14.8499 21.8704 14.7899 22.3704 14.5499 22.7304C14.3099 23.1004 13.9199 23.3904 13.9199 23.3904L14.3399 24.0704C14.3399 24.0704 14.9799 23.6004 15.2899 23.1104C15.5999 22.6204 15.6699 21.8704 15.6699 21.8704V16.8604H14.8499Z" fill="#003874"/>
<path d="M7.65039 16.8799V22.0899C7.65039 22.0899 7.70041 22.8999 8.20041 23.7399C8.71041 24.5799 9.62039 25.1699 9.62039 25.1699L10.0504 24.4799C10.0504 24.4799 9.4704 24.1699 9.0004 23.4599C8.5204 22.7399 8.5004 22.0799 8.5004 22.0799V16.8899H7.65039V16.8799Z" fill="#003874"/>
<path d="M11.4205 17.4299V22.9299C11.4205 22.9299 11.4005 22.9499 11.3905 23.0299C11.3805 23.1099 11.3205 23.1699 11.3205 23.1699L9.48047 26.2099H15.1104L13.2704 23.0999L13.2104 22.9599L13.1905 22.8099V17.4299H12.5005V23.0199C12.5005 23.0199 12.5005 23.0999 12.5305 23.1699C12.5505 23.2399 12.5905 23.3299 12.5905 23.3299L13.7205 25.1899H10.8505L11.9705 23.3299C11.9705 23.3299 12.0105 23.2699 12.0305 23.1799C12.0505 23.0999 12.0605 23.0199 12.0605 23.0199V17.4199H11.4005L11.4205 17.4299Z" fill="#A78236"/>
<path d="M16.1198 16.8604V21.9804C16.1198 21.9804 16.1199 22.6404 15.6299 23.4004C15.1399 24.1604 14.5898 24.4804 14.5898 24.4804L14.9998 25.1704C14.9998 25.1704 15.8398 24.6404 16.3698 23.8004C16.8898 22.9604 16.9499 21.9804 16.9499 21.9804V16.8604H16.1198V16.8604Z" fill="#003874"/>
<path d="M10.0796 13.4296C10.0796 13.4296 9.79958 11.8896 10.9296 11.1196C10.9296 11.1196 11.4396 10.6396 12.2696 10.6396C13.1596 10.6396 13.6696 11.1096 13.6696 11.1096C14.8996 12.0096 14.5396 13.4296 14.5396 13.4296H10.0796Z" fill="#A78236"/>
<path d="M24.3907 19.54V17H25.2507V23.3H24.3907V20.27H21.0907V23.3H20.2207V17H21.0907V19.54H24.3907Z" fill="#003874"/>
<path d="M32.1909 17H33.3209L30.2009 19.83L33.3708 23.3H32.2108L29.6009 20.36L29.2509 20.66V23.3H28.3809V17H29.2509V19.73L32.1909 17Z" fill="#003874"/>
<path d="M36.5304 17V20.72C36.5304 21.75 36.8704 22.7 38.2004 22.7C39.5304 22.7 39.8704 21.75 39.8704 20.72V17H40.7304V20.99C40.7304 22.38 39.7804 23.44 38.1904 23.44C36.6004 23.44 35.6504 22.38 35.6504 20.99V17H36.5104H36.5304Z" fill="#003874"/>
<path d="M46.8892 18.1904C46.6292 17.8004 46.2992 17.6004 45.7792 17.6004C45.2292 17.6004 44.6192 17.9404 44.6192 18.4904C44.6192 18.9804 45.1492 19.2404 45.5892 19.3904L46.0792 19.5704C47.0592 19.9204 47.7992 20.4104 47.7992 21.4704C47.7992 22.6104 46.8192 23.4304 45.5892 23.4304C44.4692 23.4304 43.5892 22.6804 43.4492 21.6704L44.3192 21.5004C44.3192 22.1904 44.9192 22.7004 45.6592 22.7004C46.3992 22.7004 46.9392 22.1304 46.9392 21.4704C46.9392 20.8104 46.3392 20.5004 45.7492 20.2704L45.2692 20.0904C44.4792 19.7804 43.7592 19.3704 43.7592 18.4904C43.7592 17.4704 44.7492 16.8604 45.7992 16.8604C46.5692 16.8604 47.2092 17.2004 47.5792 17.8104L46.8892 18.1904V18.1904Z" fill="#003874"/>
<path d="M52.5002 23.3002H51.6403V17.7102H49.9902V16.9902H54.1502V17.7102H52.5002V23.3002Z" fill="#003874"/>
</svg>
