<svg width="197" height="191" viewBox="0 0 197 191" fill="none" xmlns="http://www.w3.org/2000/svg">
<path d="M91.5286 130.457L89.8571 171.529L89.6357 173.986L42.7571 170.75C36.9571 170.3 32.1571 164.836 30.0357 159.922C25.5714 149.543 31.3714 137.265 34.7214 127.336C34.7214 127.336 43.3143 128.672 91.5286 130.465V130.457ZM48.3429 65.0503L68.4286 107.35L52.0214 97.086C26.9071 125.772 24.5643 147.086 24.5643 147.086L3.35714 107.243C-0.992857 100.772 2.90714 93.736 2.90714 93.736C2.90714 93.736 6.81429 86.7075 15.6286 72.7503L0 63.1503L48.3429 65.0503ZM185.729 122.75L164.743 162.815C161.843 170.072 153.807 170.736 153.807 170.736C153.807 170.736 145.886 171.515 129.364 172.072L130.257 190.372L104.586 149.415L128.136 109.015L128.914 128.322C166.75 132.9 185.721 122.743 185.721 122.743L185.729 122.75ZM98.1143 19.6289C98.1143 19.6289 92.8714 26.5503 68.5357 68.1789L33.1571 47.3075L31.0357 45.9717L56.15 6.23603C59.2786 1.32174 66.3071 -0.463972 71.7786 0.100314C82.9429 1.10746 90.9786 11.9289 98.1143 19.6289ZM171.221 53.8932L194.886 94.4075C197.9 99.4289 196.114 106.457 193.214 111.15C187.186 120.529 173.793 122.757 163.75 125.55C163.75 125.55 159.957 117.629 134.171 76.886L169.107 55.1217L171.221 53.8932ZM155.257 28.6717L171.107 19.4075L146.557 61.036L99.7929 58.8003L116.643 49.2003C103.25 13.6003 85.5071 1.32174 85.5071 1.32174L130.707 1.43603C138.521 0.7646 142.757 7.4646 142.757 7.4646C142.757 7.4646 147.107 14.2717 155.257 28.6717Z" fill="#009A08"/>
</svg>
