<svg width="297" height="50" viewBox="0 0 297 50" fill="none" xmlns="http://www.w3.org/2000/svg">
<path d="M6.11008 35.8902H5.1301L3.47009 33.6002L1.81009 35.8902H0.830078L3.00009 32.9802L0.930084 30.2002H1.90009L3.4801 32.3802L5.06009 30.2002H6.0401L3.9501 32.9902L6.12009 35.8902H6.11008Z" fill="#231815"/>
<path d="M28.1394 6.01031H27.1594L25.4994 3.72031L23.8394 6.01031H22.8594L25.0294 3.10032L22.9594 0.320312H23.9294L25.5094 2.50031L27.0894 0.320312H28.0694L25.9794 3.11031L28.1494 6.01031H28.1394Z" fill="#231815"/>
<path d="M142 6.01031H141.03L139.37 3.72031L137.71 6.01031H136.73L138.9 3.10032L136.83 0.320312H137.8L139.38 2.50031L140.96 0.320312H141.94L139.85 3.11031L142.02 6.01031H142Z" fill="#231815"/>
<path d="M160.93 6.01031H159.95L158.29 3.72031L156.63 6.01031H155.65L157.82 3.10032L155.75 0.320312H156.72L158.3 2.50031L159.88 0.320312H160.86L158.77 3.11031L160.94 6.01031H160.93Z" fill="#231815"/>
<path d="M109.569 49.6203H108.359L105.599 45.8004L102.849 49.6203H101.619L105.009 45.0004L101.779 40.6104H102.999L105.599 44.2303L108.199 40.6104H109.409L106.169 45.0104L109.559 49.6104L109.569 49.6203Z" fill="black"/>
<path d="M114.54 45.9803V49.6203H113.51V45.9604L110.01 40.6104H111.21L114.04 45.0404L116.87 40.6104H118.05L114.55 45.9704L114.54 45.9803Z" fill="black"/>
<path d="M124.811 48.7511V49.6211H118.391V48.8511L123.491 41.4911H118.391V40.6211H124.681V41.3811L119.581 48.7611H124.811V48.7511Z" fill="black"/>
<path d="M129.649 40.6104H133.199C134.119 40.6104 134.829 40.8303 135.339 41.2803C135.849 41.7303 136.109 42.3404 136.109 43.1304C136.109 43.9204 135.849 44.5303 135.329 44.9803C134.809 45.4303 134.099 45.6604 133.189 45.6604H130.659V49.6203H129.629V40.6104H129.649ZM133.109 44.8004C133.769 44.8004 134.269 44.6603 134.599 44.3703C134.929 44.0803 135.099 43.6704 135.099 43.1304C135.099 42.5904 134.929 42.1804 134.599 41.9004C134.269 41.6204 133.769 41.4803 133.109 41.4803H130.669V44.8103H133.109V44.8004Z" fill="black"/>
<path d="M144.779 49.6206H143.689L142.589 46.6206C142.459 46.2506 142.269 46.0006 142.029 45.8706C141.789 45.7406 141.459 45.6806 141.019 45.6806H138.789V49.6106H137.779V40.6006H141.319C142.279 40.6006 143.009 40.8206 143.529 41.2506C144.039 41.6806 144.299 42.3006 144.299 43.1106C144.299 43.7006 144.149 44.2006 143.839 44.6006C143.539 45.0006 143.099 45.2806 142.519 45.4506C142.779 45.4906 142.999 45.6006 143.179 45.7806C143.359 45.9606 143.519 46.2206 143.639 46.5606L144.769 49.6106L144.779 49.6206ZM141.239 44.8306C142.609 44.8306 143.289 44.2706 143.289 43.1306C143.289 42.5706 143.119 42.1606 142.789 41.8806C142.459 41.6106 141.939 41.4706 141.239 41.4706H138.799V44.8206H141.239V44.8306Z" fill="black"/>
<path d="M148.029 49.1607C147.419 48.7907 146.949 48.2507 146.619 47.5607C146.289 46.8607 146.129 46.0507 146.129 45.1107C146.129 44.1707 146.289 43.3507 146.619 42.6607C146.939 41.9707 147.409 41.4407 148.019 41.0707C148.629 40.7007 149.349 40.5107 150.179 40.5107C151.009 40.5107 151.739 40.7007 152.339 41.0707C152.949 41.4407 153.419 41.9707 153.739 42.6607C154.059 43.3507 154.229 44.1707 154.229 45.1007C154.229 46.0307 154.069 46.8607 153.739 47.5507C153.409 48.2407 152.939 48.7807 152.329 49.1507C151.719 49.5307 150.999 49.7107 150.179 49.7107C149.359 49.7107 148.639 49.5207 148.029 49.1507V49.1607ZM152.379 47.8607C152.909 47.2107 153.169 46.2907 153.169 45.1007C153.169 43.9107 152.909 43.0007 152.389 42.3507C151.869 41.7107 151.129 41.3907 150.179 41.3907C149.229 41.3907 148.489 41.7107 147.969 42.3607C147.439 43.0007 147.179 43.9207 147.179 45.1007C147.179 46.2807 147.439 47.2107 147.969 47.8607C148.499 48.5107 149.229 48.8307 150.179 48.8307C151.129 48.8307 151.859 48.5007 152.379 47.8607V47.8607Z" fill="black"/>
<path d="M163.149 44.9307V49.1007C162.799 49.2907 162.339 49.4307 161.769 49.5507C161.199 49.6607 160.629 49.7207 160.049 49.7207C159.169 49.7207 158.399 49.5407 157.759 49.1707C157.119 48.8007 156.629 48.2707 156.289 47.5807C155.949 46.8907 155.779 46.0607 155.779 45.1007C155.779 44.1407 155.949 43.3307 156.289 42.6407C156.629 41.9507 157.109 41.4307 157.739 41.0607C158.369 40.6907 159.109 40.5107 159.969 40.5107C160.599 40.5107 161.169 40.6007 161.689 40.7907C162.209 40.9807 162.659 41.2607 163.029 41.6407L162.629 42.4407C162.199 42.0707 161.769 41.8007 161.359 41.6407C160.949 41.4807 160.479 41.3907 159.969 41.3907C158.959 41.3907 158.189 41.7107 157.649 42.3507C157.109 42.9907 156.839 43.9007 156.839 45.1007C156.839 46.3007 157.109 47.2507 157.669 47.8907C158.229 48.5307 159.019 48.8507 160.069 48.8507C160.809 48.8507 161.519 48.7307 162.209 48.5007V45.7507H159.999V44.9307H163.149V44.9307Z" fill="black"/>
<path d="M172.25 49.6206H171.16L170.06 46.6206C169.93 46.2506 169.74 46.0006 169.5 45.8706C169.26 45.7406 168.93 45.6806 168.49 45.6806H166.26V49.6106H165.25V40.6006H168.79C169.75 40.6006 170.49 40.8206 171 41.2506C171.51 41.6806 171.77 42.3006 171.77 43.1106C171.77 43.7006 171.62 44.2006 171.31 44.6006C171.01 45.0006 170.57 45.2806 169.99 45.4506C170.25 45.4906 170.47 45.6006 170.65 45.7806C170.83 45.9606 170.99 46.2206 171.11 46.5606L172.24 49.6106L172.25 49.6206ZM168.71 44.8306C170.08 44.8306 170.76 44.2706 170.76 43.1306C170.76 42.5706 170.59 42.1606 170.26 41.8806C169.93 41.6106 169.41 41.4706 168.71 41.4706H166.27V44.8206H168.71V44.8306Z" fill="black"/>
<path d="M179.749 47.3004H175.099L174.109 49.6203H173.049L176.969 40.6104H177.869L181.779 49.6203H180.729L179.749 47.3004ZM179.389 46.4404L177.429 41.8103L175.469 46.4404H179.399H179.389Z" fill="black"/>
<path d="M191.52 40.6104V49.6203H190.57V42.9304L187.68 49.6203H186.95L184.04 42.9803V49.6203H183.1V40.6104H183.95L187.33 48.3804L190.67 40.6104H191.52Z" fill="black"/>
<path d="M30.1703 17.2409H29.8003V11.2809H21.1903V17.2409H20.8203V10.9209H30.1703V17.2409Z" fill="#ED1C24"/>
<path d="M144.03 17.2409H143.66V11.2809H135.05V17.2409H134.68V10.9209H144.03V17.2409Z" fill="#ED1C24"/>
<path d="M16.9805 40.1905H10.7305V30.7305H16.9805V31.1005H11.0905V39.8205H16.9805V40.1905Z" fill="#ED1C24"/>
<path d="M163.629 17.2409H163.259V11.2809H154.649V17.2409H154.279V10.9209H163.629V17.2409Z" fill="#ED1C24"/>
<path d="M153.611 30.9509H152.031L148.421 25.9609L144.821 30.9509H143.221L147.651 24.9109L143.431 19.1709H145.031L148.431 23.9009L151.831 19.1709H153.421L149.191 24.9209L153.621 30.9409L153.611 30.9509Z" fill="black"/>
<path d="M171.74 27.7502H165.92L164.69 30.6302H162.99L168.11 18.9902H169.52L174.66 30.6302H172.96L171.73 27.7502H171.74ZM171.17 26.4102L168.83 20.8702L166.49 26.4102H171.17V26.4102Z" fill="black"/>
<path d="M184.461 25.6405C184.831 26.1305 185.011 26.7305 185.011 27.4505C185.011 28.4505 184.671 29.2305 183.981 29.7905C183.301 30.3505 182.341 30.6205 181.111 30.6205H176.141V18.9805H180.951C182.131 18.9805 183.061 19.2505 183.721 19.7805C184.381 20.3105 184.711 21.0605 184.711 22.0205C184.711 22.6405 184.551 23.1805 184.231 23.6305C183.911 24.0805 183.471 24.4105 182.901 24.6205C183.571 24.8005 184.091 25.1405 184.451 25.6305L184.461 25.6405ZM177.791 24.0405H180.701C182.311 24.0405 183.111 23.4105 183.111 22.1605C183.111 20.9105 182.311 20.3505 180.701 20.3505H177.791V24.0405ZM182.801 28.8005C183.191 28.4905 183.381 28.0105 183.381 27.3505C183.381 26.6905 183.181 26.1905 182.791 25.8705C182.401 25.5505 181.791 25.3905 180.961 25.3905H177.791V29.2605H180.961C181.801 29.2605 182.411 29.1005 182.801 28.7905V28.8005Z" fill="black"/>
<path d="M189.371 30.0303C188.551 29.5503 187.911 28.8604 187.471 27.9604C187.031 27.0704 186.811 26.0104 186.811 24.7904C186.811 23.5704 187.031 22.5304 187.471 21.6404C187.911 20.7504 188.541 20.0604 189.371 19.5804C190.191 19.1004 191.161 18.8604 192.271 18.8604C193.061 18.8604 193.791 18.9804 194.461 19.2304C195.131 19.4804 195.701 19.8304 196.171 20.3004L195.591 21.5404C195.051 21.0904 194.521 20.7704 194.001 20.5704C193.481 20.3704 192.911 20.2704 192.301 20.2704C191.101 20.2704 190.181 20.6604 189.531 21.4504C188.881 22.2304 188.551 23.3504 188.551 24.8004C188.551 26.2504 188.881 27.3804 189.531 28.1804C190.181 28.9704 191.111 29.3604 192.301 29.3604C192.911 29.3604 193.481 29.2604 194.001 29.0604C194.521 28.8604 195.051 28.5304 195.591 28.0904L196.171 29.3304C195.711 29.8004 195.141 30.1604 194.461 30.4004C193.791 30.6504 193.061 30.7704 192.271 30.7704C191.161 30.7704 190.191 30.5304 189.371 30.0404V30.0303Z" fill="black"/>
<path d="M203.7 29.5502C202.91 28.7402 202.51 27.5602 202.51 26.0002V18.9902H204.14V26.1102C204.14 27.1902 204.4 28.0002 204.91 28.5502C205.42 29.1002 206.18 29.3802 207.18 29.3802C208.18 29.3802 208.92 29.1002 209.43 28.5502C209.94 28.0002 210.2 27.1802 210.2 26.1102V18.9902H211.85V26.0002C211.85 27.5602 211.45 28.7402 210.66 29.5502C209.87 30.3602 208.71 30.7602 207.18 30.7602C205.65 30.7602 204.49 30.3602 203.7 29.5502V29.5502Z" fill="black"/>
<path d="M223.879 18.9902V30.6302H222.599L216.009 21.8402V30.6302H214.439V18.9902H215.699L222.309 27.8002V18.9902H223.879Z" fill="black"/>
<path d="M226.561 18.9902H228.221V30.6302H226.561V18.9902Z" fill="black"/>
<path d="M241.07 18.9902L236 30.6302H234.59L229.52 18.9902H231.27L235.31 28.5002L239.359 18.9902H241.07V18.9902Z" fill="black"/>
<path d="M242.35 18.9905H249.81V20.3605H243.99V24.0205H249.48V25.3905H243.99V29.2505H249.81V30.6205H242.35V18.9805V18.9905Z" fill="black"/>
<path d="M261.121 30.6302H259.361L257.921 26.7602C257.771 26.3502 257.551 26.0602 257.261 25.9002C256.971 25.7402 256.571 25.6602 256.061 25.6602H253.541V30.6302H251.891V18.9902H256.621C257.881 18.9902 258.851 19.2702 259.521 19.8402C260.191 20.4102 260.531 21.2202 260.531 22.2702C260.531 23.0302 260.331 23.6802 259.931 24.2102C259.531 24.7402 258.971 25.1202 258.231 25.3402C258.901 25.4602 259.381 25.9402 259.681 26.7802L261.101 30.6202L261.121 30.6302ZM256.441 24.3102C257.281 24.3102 257.901 24.1402 258.311 23.8102C258.721 23.4802 258.921 22.9802 258.921 22.3102C258.921 21.6402 258.721 21.1502 258.311 20.8302C257.911 20.5102 257.281 20.3502 256.431 20.3502H253.541V24.3102H256.431H256.441Z" fill="black"/>
<path d="M264.471 30.4004C263.731 30.1604 263.091 29.8004 262.561 29.3204L263.161 28.0804C263.721 28.5404 264.301 28.8704 264.911 29.0804C265.511 29.2904 266.191 29.3904 266.951 29.3904C267.811 29.3904 268.481 29.2304 268.951 28.9004C269.421 28.5704 269.661 28.1104 269.661 27.5104C269.661 27.0104 269.441 26.6304 269.001 26.3704C268.561 26.1104 267.861 25.8804 266.901 25.6604C265.981 25.4604 265.241 25.2404 264.651 24.9804C264.071 24.7204 263.611 24.3804 263.281 23.9504C262.951 23.5204 262.781 22.9704 262.781 22.2904C262.781 21.6104 262.961 21.0204 263.311 20.5004C263.671 19.9804 264.171 19.5804 264.821 19.2904C265.471 19.0004 266.221 18.8604 267.071 18.8604C267.921 18.8604 268.631 18.9804 269.341 19.2404C270.051 19.4904 270.631 19.8504 271.111 20.3004L270.511 21.5404C269.981 21.0904 269.441 20.7604 268.881 20.5504C268.321 20.3404 267.721 20.2304 267.091 20.2304C266.261 20.2304 265.611 20.4104 265.131 20.7604C264.661 21.1104 264.421 21.6004 264.421 22.2104C264.421 22.7304 264.631 23.1304 265.041 23.4004C265.451 23.6704 266.121 23.9204 267.041 24.1404C268.001 24.3604 268.771 24.5904 269.371 24.8304C269.961 25.0704 270.441 25.4004 270.791 25.8104C271.151 26.2304 271.321 26.7604 271.321 27.4104C271.321 28.0604 271.141 28.6704 270.791 29.1804C270.441 29.6904 269.931 30.0704 269.261 30.3504C268.601 30.6304 267.821 30.7704 266.931 30.7704C266.041 30.7704 265.221 30.6504 264.481 30.4104L264.471 30.4004Z" fill="black"/>
<path d="M273.381 18.9902H275.041V30.6302H273.381V18.9902Z" fill="black"/>
<path d="M280.47 20.4002H276.58V18.9902H286.05V20.4002H282.16V30.6302H280.48V20.4002H280.47Z" fill="black"/>
<path d="M292.051 25.9505V30.6205H290.371V25.9105L285.801 18.9805H287.711L291.231 24.4705L294.731 18.9805H296.641L292.051 25.9405V25.9505Z" fill="black"/>
<path d="M28.6204 23.7102V18.9902H30.2304V30.6802H28.6204V25.0702H22.4904V30.6802H20.9004V18.9902H22.4904V23.7102H28.6204Z" fill="#231815"/>
<path d="M43.1808 18.9902H45.2809L39.5009 24.2502L45.3809 30.6702H43.2009L38.3608 25.2302L37.7108 25.7902V30.6802H36.1309V18.9902H37.7108V24.0602L43.1808 18.9902Z" fill="#231815"/>
<path d="M50.7309 18.9902V25.8902C50.7309 27.7902 51.3608 29.5602 53.8308 29.5602C56.3008 29.5602 56.9308 27.8002 56.9308 25.8902V18.9902H58.5508V26.3802C58.5508 28.9502 56.7909 30.9202 53.8409 30.9202C50.8909 30.9202 49.1309 28.9502 49.1309 26.3802V18.9902H50.7509H50.7309Z" fill="#231815"/>
<path d="M69.7694 21.2102C69.2994 20.4802 68.6794 20.1102 67.6994 20.1102C66.7194 20.1102 65.5394 20.7402 65.5394 21.7702C65.5394 22.6802 66.5194 23.1602 67.3294 23.4402L68.2394 23.7602C70.0794 24.4102 71.4294 25.3202 71.4294 27.2802C71.4294 29.4002 69.6194 30.9202 67.3294 30.9202C65.2394 30.9202 63.6294 29.5302 63.3594 27.6502L64.9894 27.3402C64.9794 28.6302 66.0894 29.5602 67.4894 29.5602C68.8894 29.5602 69.8694 28.5002 69.8694 27.2802C69.8694 26.0602 68.7694 25.4902 67.6494 25.0602L66.7694 24.7202C65.3194 24.1502 63.9794 23.3802 63.9794 21.7502C63.9794 19.8702 65.8294 18.7402 67.7494 18.7402C69.1694 18.7402 70.3594 19.3702 71.0494 20.5002L69.7594 21.1902L69.7694 21.2102Z" fill="#231815"/>
<path d="M80.89 30.6802H79.3V20.3302H76.25V18.9902H83.96V20.3302H80.9V30.6802H80.89Z" fill="#231815"/>
<path d="M111.079 24.81V25.28C111.079 28.5 108.809 30.97 105.529 30.97C102.249 30.97 99.6094 28.14 99.6094 24.89C99.6094 21.64 102.309 18.75 105.689 18.75C107.509 18.75 109.309 19.57 110.459 21.02L109.429 22C108.589 20.85 107.179 20.09 105.749 20.09C103.119 20.09 101.069 22.22 101.069 24.84C101.069 27.29 103.089 29.63 105.619 29.63C107.439 29.63 109.389 28.06 109.459 26.15H106.429V24.81H111.079V24.81Z" fill="#231815"/>
<path d="M125.249 29.38V30.71H116.939L122.869 20.33H117.779V19H125.249L119.319 29.38H125.249Z" fill="#231815"/>
<path d="M93.7595 17.9209C93.1295 19.1209 92.6795 20.1009 92.4095 20.8609C91.9795 22.1409 91.7595 23.4709 91.7595 24.8509C91.7595 27.0709 92.4195 29.3709 93.7495 31.7509H92.6794C91.9594 30.7809 91.3595 29.6809 90.8795 28.4509C90.4195 27.2209 90.1895 26.0109 90.1895 24.8109C90.1895 23.1709 90.6095 21.5509 91.4395 19.9609C91.8795 19.1209 92.2995 18.4409 92.6895 17.9309H93.7595V17.9209Z" fill="#231815"/>
<path d="M134.679 24.8609C134.679 26.4909 134.259 28.1109 133.429 29.7109C133.019 30.5009 132.599 31.1709 132.179 31.7409H131.109C131.739 30.5509 132.199 29.5809 132.459 28.8209C132.889 27.5409 133.109 26.2109 133.109 24.8209C133.109 22.6009 132.449 20.3009 131.119 17.9209H132.189C132.909 18.8709 133.509 19.9809 133.979 21.2309C134.449 22.4809 134.679 23.6909 134.679 24.8609" fill="#231815"/>
</svg>
