<svg width="282" height="55" viewBox="0 0 282 55" fill="none" xmlns="http://www.w3.org/2000/svg">
<path d="M5.29 37.7808H4.31L2.65 35.4908L0.99 37.7808H0L2.17 34.8708L0.1 32.0908H1.07L2.65 34.2708L4.23 32.0908H5.21L3.12 34.8808L5.29 37.7808V37.7808Z" fill="#231815"/>
<path d="M207.479 37.7808H206.499L204.839 35.4908L203.179 37.7808H202.199L204.369 34.8708L202.299 32.0908H203.269L204.849 34.2708L206.429 32.0908H207.409L205.319 34.8808L207.489 37.7808H207.479Z" fill="#231815"/>
<path d="M17.5594 53.9703H9.35938V22.5303H17.5594V22.9003H9.72937V53.6103H17.5594V53.9703Z" fill="#E60012"/>
<path d="M201.19 53.9703H196.84V53.6103H200.83V22.9003H196.84V22.5303H201.19V53.9703Z" fill="#E60012"/>
<path d="M206.19 19.7703H205.82V11.9403H194.73V19.7703H194.37V11.9403H183.28V19.7703H182.92V11.5703H206.19V19.7703Z" fill="#E60012"/>
<path d="M178.17 5.43027V5.98028H174.99V5.43027H176.25V1.10028L175.08 1.84028V1.21027L176.54 0.280273H176.92V5.42028H178.18L178.17 5.43027Z" fill="#231815"/>
<path d="M178.58 6.43L180.64 0H181.24L179.18 6.43H178.59H178.58Z" fill="#231815"/>
<path d="M185.001 3.55023C185.181 3.78023 185.261 4.08023 185.261 4.44023C185.261 4.94023 185.091 5.33023 184.761 5.61023C184.431 5.89023 183.971 6.04023 183.391 6.04023C183.021 6.04023 182.671 5.98023 182.331 5.86023C181.991 5.74023 181.711 5.56023 181.471 5.34023L181.731 4.84023C182.261 5.28023 182.811 5.50023 183.381 5.50023C183.791 5.50023 184.091 5.41023 184.301 5.23023C184.511 5.05023 184.621 4.78023 184.621 4.43023C184.621 3.73023 184.181 3.38023 183.311 3.38023H182.651V2.83023H183.181C183.601 2.83023 183.921 2.74023 184.151 2.55023C184.371 2.36023 184.491 2.10023 184.491 1.75023C184.491 1.44023 184.401 1.20023 184.211 1.04023C184.031 0.87023 183.771 0.79023 183.431 0.79023C182.891 0.79023 182.351 1.01023 181.811 1.45023L181.561 0.950233C181.791 0.730233 182.071 0.560229 182.401 0.430229C182.731 0.310229 183.081 0.240234 183.441 0.240234C183.951 0.240234 184.361 0.370234 184.671 0.630234C184.981 0.890234 185.131 1.24023 185.131 1.69023C185.131 2.02023 185.051 2.30023 184.891 2.55023C184.731 2.80023 184.511 2.97023 184.231 3.08023C184.571 3.18023 184.821 3.34023 185.001 3.58023V3.55023Z" fill="#231815"/>
<path d="M193.08 5.98028H192.3L190.53 3.56028L188.77 5.98028H187.99L190.16 3.06028L188.1 0.280273H188.88L190.54 2.57027L192.2 0.280273H192.98L190.91 3.06028L193.08 5.97028V5.98028Z" fill="#231815"/>
<path d="M201.071 5.43027V5.98028H197.891V5.43027H199.151V1.10028L197.981 1.84028V1.21027L199.441 0.280273H199.821V5.42028H201.081L201.071 5.43027Z" fill="#231815"/>
<path d="M201.49 6.43L203.55 0H204.15L202.09 6.43H201.5H201.49Z" fill="#231815"/>
<path d="M207.901 3.55023C208.081 3.78023 208.161 4.08023 208.161 4.44023C208.161 4.94023 207.991 5.33023 207.661 5.61023C207.331 5.89023 206.871 6.04023 206.291 6.04023C205.921 6.04023 205.571 5.98023 205.231 5.86023C204.891 5.74023 204.611 5.56023 204.371 5.34023L204.631 4.84023C205.161 5.28023 205.711 5.50023 206.281 5.50023C206.691 5.50023 206.991 5.41023 207.201 5.23023C207.411 5.05023 207.521 4.78023 207.521 4.43023C207.521 3.73023 207.081 3.38023 206.211 3.38023H205.551V2.83023H206.081C206.501 2.83023 206.821 2.74023 207.051 2.55023C207.271 2.36023 207.391 2.10023 207.391 1.75023C207.391 1.44023 207.301 1.20023 207.111 1.04023C206.931 0.87023 206.671 0.79023 206.331 0.79023C205.791 0.79023 205.251 1.01023 204.711 1.45023L204.461 0.950233C204.691 0.730233 204.971 0.560229 205.301 0.430229C205.631 0.310229 205.981 0.240234 206.341 0.240234C206.851 0.240234 207.261 0.370234 207.571 0.630234C207.881 0.890234 208.031 1.24023 208.031 1.69023C208.031 2.02023 207.951 2.30023 207.791 2.55023C207.631 2.80023 207.411 2.97023 207.131 3.08023C207.471 3.18023 207.721 3.34023 207.901 3.58023V3.55023Z" fill="#231815"/>
<path d="M215.99 5.98028H215.21L213.44 3.56028L211.68 5.98028H210.9L213.07 3.06028L211.01 0.280273H211.79L213.45 2.57027L215.11 0.280273H215.89L213.82 3.06028L215.99 5.97028V5.98028Z" fill="#231815"/>
<path d="M195.001 23.2803H193.961V54.1703H195.001V23.2803Z" fill="#1C3663"/>
<path d="M213.86 28.46L210.73 36.44H213.01L213.5 35.05H216.55L217.04 36.44H219.32L216.19 28.46H213.86V28.46ZM214.07 33.48L215.03 30.82L215.99 33.48H214.07V33.48Z" fill="#003366"/>
<path d="M224.86 36.2902C225.21 36.1902 225.5 36.0402 225.75 35.8402C225.99 35.6402 226.18 35.4002 226.32 35.1102C226.45 34.8202 226.52 34.4902 226.52 34.1102C226.52 33.8702 226.49 33.6402 226.43 33.4302C226.37 33.2202 226.28 33.0302 226.14 32.8602C226.01 32.6902 225.83 32.5502 225.62 32.4302C225.4 32.3102 225.15 32.2302 224.84 32.1702C225.15 31.9902 225.37 31.7602 225.52 31.5002C225.67 31.2402 225.74 30.9002 225.74 30.5002C225.74 29.8402 225.54 29.3302 225.15 28.9802C224.76 28.6302 224.18 28.4502 223.43 28.4502H220.25V36.4302H223.68C224.12 36.4302 224.51 36.3802 224.86 36.2802V36.2902ZM222.39 30.0502H222.78C223.45 30.0502 223.78 30.3102 223.78 30.8202C223.78 31.3302 223.45 31.5902 222.78 31.5902H222.39V30.0402V30.0502ZM222.39 34.8302V33.1402H222.86C223.4 33.1402 223.78 33.2102 224.01 33.3402C224.24 33.4702 224.36 33.6902 224.36 33.9902C224.36 34.2902 224.24 34.5002 224.01 34.6402C223.78 34.7802 223.39 34.8402 222.86 34.8402H222.39V34.8302Z" fill="#003366"/>
<path d="M233.71 36.2602V33.8102C233.17 34.3702 232.55 34.6602 231.87 34.6602C231.56 34.6602 231.27 34.6002 231 34.4902C230.73 34.3802 230.5 34.2202 230.3 34.0202C230.1 33.8202 229.94 33.5902 229.83 33.3202C229.72 33.0502 229.66 32.7602 229.66 32.4402C229.66 32.1202 229.72 31.8402 229.83 31.5702C229.94 31.3002 230.1 31.0702 230.29 30.8802C230.49 30.6802 230.72 30.5302 230.99 30.4202C231.26 30.3102 231.56 30.2502 231.88 30.2502C232.61 30.2502 233.22 30.5402 233.71 31.1302V28.6502C233.36 28.5102 233.03 28.4102 232.71 28.3402C232.39 28.2702 232.07 28.2402 231.75 28.2402C231.18 28.2402 230.63 28.3502 230.1 28.5502C229.58 28.7602 229.12 29.0502 228.72 29.4202C228.32 29.7902 228.01 30.2302 227.77 30.7402C227.53 31.2502 227.42 31.8102 227.42 32.4302C227.42 33.0502 227.54 33.6102 227.78 34.1302C228.02 34.6502 228.34 35.1002 228.73 35.4702C229.13 35.8502 229.58 36.1402 230.1 36.3502C230.62 36.5602 231.16 36.6602 231.73 36.6602C232.01 36.6602 232.29 36.6302 232.57 36.5802C232.85 36.5302 233.16 36.4402 233.49 36.3302L233.71 36.2602Z" fill="#003366"/>
<path d="M216.55 45.5002C216.55 45.7302 216.54 45.9702 216.52 46.2102C216.5 46.4502 216.45 46.6701 216.35 46.8701C216.26 47.0701 216.11 47.2302 215.92 47.3502C215.73 47.4702 215.45 47.5302 215.1 47.5302C214.75 47.5302 214.47 47.4702 214.27 47.3502C214.07 47.2302 213.93 47.0701 213.84 46.8701C213.75 46.6701 213.69 46.4502 213.68 46.2102C213.66 45.9702 213.65 45.7302 213.65 45.5002V41.1602H211.51V45.7802C211.51 47.0202 211.8 47.9302 212.39 48.5002C212.98 49.0702 213.88 49.3602 215.09 49.3602C216.3 49.3602 217.2 49.0702 217.79 48.5002C218.37 47.9302 218.67 47.0202 218.67 45.7802V41.1602H216.55V45.5002V45.5002Z" fill="#003366"/>
<path d="M226.47 46.0402L222.53 41.1602H220.4V49.1402H222.53V44.2602L226.47 49.1402H228.6V41.1602H226.47V46.0402Z" fill="#003366"/>
<path d="M232.46 41.1602H230.32V49.1402H232.46V41.1602Z" fill="#003366"/>
<path d="M237.621 46.0202L235.631 41.1602H233.311L236.771 49.1402H238.471L241.931 41.1602H239.611L237.621 46.0202Z" fill="#003366"/>
<path d="M242.791 49.1402H247.461V47.3802H244.931V46.0102H247.321V44.2502H244.931V42.9202H247.461V41.1602H242.791V49.1402Z" fill="#003366"/>
<path d="M254.58 45.1002C254.88 44.7202 255.03 44.2302 255.03 43.6202C255.03 43.2802 254.97 42.9602 254.86 42.6702C254.75 42.3802 254.58 42.1102 254.36 41.8902C254.14 41.6702 253.86 41.4902 253.52 41.3602C253.18 41.2302 252.78 41.1602 252.32 41.1602H249V49.1402H251.14V46.0702L253.18 49.1402H255.84L253.26 45.8702C253.85 45.7402 254.29 45.4802 254.59 45.1002H254.58ZM252.51 44.4702C252.28 44.6402 251.96 44.7202 251.54 44.7202H251.14V42.7502H251.54C251.96 42.7502 252.29 42.8402 252.51 43.0002C252.73 43.1702 252.85 43.4102 252.85 43.7302C252.85 44.0502 252.74 44.2902 252.51 44.4602V44.4702Z" fill="#003366"/>
<path d="M260.4 44.2704C260.23 44.2104 260.05 44.1604 259.87 44.1104C259.69 44.0604 259.53 44.0004 259.39 43.9404C259.25 43.8704 259.13 43.7904 259.05 43.7004C258.96 43.6104 258.92 43.4904 258.92 43.3504C258.92 43.1504 259.01 42.9804 259.18 42.8504C259.35 42.7204 259.58 42.6604 259.86 42.6604C260.08 42.6604 260.3 42.7004 260.53 42.7904C260.76 42.8804 261 43.0104 261.23 43.2004L262.08 41.5804C261.67 41.3704 261.25 41.2104 260.81 41.1004C260.37 40.9904 259.94 40.9404 259.53 40.9404C259.09 40.9404 258.7 41.0004 258.35 41.1304C258 41.2604 257.7 41.4404 257.46 41.6604C257.22 41.8904 257.03 42.1704 256.89 42.4904C256.76 42.8104 256.69 43.1704 256.69 43.5604C256.69 43.9504 256.75 44.2804 256.88 44.5404C257.01 44.8004 257.17 45.0104 257.38 45.1804C257.59 45.3504 257.82 45.4904 258.09 45.5904C258.35 45.6904 258.63 45.7904 258.9 45.8704C259.13 45.9504 259.33 46.0204 259.49 46.0804C259.65 46.1404 259.79 46.2104 259.89 46.2904C259.99 46.3604 260.06 46.4504 260.11 46.5304C260.15 46.6204 260.18 46.7204 260.18 46.8404C260.18 47.0404 260.09 47.2104 259.92 47.3704C259.75 47.5304 259.49 47.6004 259.14 47.6004C258.83 47.6004 258.53 47.5304 258.21 47.4004C257.9 47.2704 257.58 47.0604 257.26 46.7904L256.34 48.4604C257.23 49.0604 258.19 49.3604 259.23 49.3604C259.73 49.3604 260.18 49.3004 260.58 49.1704C260.98 49.0404 261.31 48.8604 261.58 48.6204C261.85 48.3804 262.06 48.1004 262.2 47.7704C262.34 47.4404 262.41 47.0704 262.41 46.6604C262.41 46.0504 262.25 45.5604 261.93 45.1804C261.61 44.8004 261.1 44.5004 260.4 44.2704V44.2704Z" fill="#003366"/>
<path d="M265.89 41.1602H263.76V49.1402H265.89V41.1602Z" fill="#003366"/>
<path d="M266.84 42.9202H268.6V49.1402H270.73V42.9202H272.49V41.1602H266.84V42.9202Z" fill="#003366"/>
<path d="M278.541 41.1602L277.031 43.3402L275.501 41.1602H272.951L275.951 45.3102V49.1402H278.081V45.3102L281.091 41.1602H278.541Z" fill="#003366"/>
<path d="M37.5206 53.2001L33.9606 47.2702C33.9606 47.2702 33.8506 47.1302 33.8506 46.9102V35.9102H32.5106V47.2602C32.6206 47.3702 34.8606 51.1902 34.8606 51.1902H29.3006C29.3006 51.1902 31.5406 47.3702 31.6506 47.2602V35.9102H30.3106V46.9102C30.3106 47.1302 30.2006 47.2702 30.2006 47.2702L26.6406 53.2001H37.5206Z" fill="#AA8420"/>
<path d="M36.4193 28.2205C36.4193 28.2205 37.0893 25.4505 34.6993 23.6305C34.6993 23.6305 33.7393 22.7705 31.9293 22.7705C30.3093 22.7705 29.3493 23.6305 29.3493 23.6305C27.1493 25.1605 27.7293 28.2205 27.7293 28.2205H36.4293H36.4193Z" fill="#AA8420"/>
<path d="M27.9901 28.98H36.1701C36.2301 28.82 36.2901 28.66 36.3401 28.5H27.8301C27.8801 28.66 27.9301 28.82 28.0001 28.98" fill="#AA8420"/>
<path d="M36.0391 29.2705H28.1191C28.1991 29.4405 28.2891 29.6005 28.3891 29.7505H35.7691C35.8691 29.6005 35.9591 29.4405 36.0391 29.2705Z" fill="#AA8420"/>
<path d="M28.9201 30.4103H35.2201C35.3401 30.2903 35.4501 30.1603 35.5501 30.0303H28.5801C28.6801 30.1603 28.7901 30.2903 28.9101 30.4103" fill="#AA8420"/>
<path d="M29.6102 30.9902H34.5502C34.6802 30.9002 34.8002 30.8102 34.9302 30.7002H29.2402C29.3602 30.8002 29.4902 30.9002 29.6202 30.9902" fill="#AA8420"/>
<path d="M30.2891 31.3701C30.8391 31.6201 31.4391 31.7501 32.0791 31.7501C32.7191 31.7501 33.3191 31.6101 33.8691 31.3701H30.2991H30.2891Z" fill="#AA8420"/>
<path d="M40.5598 31.9707H33.8698C33.8698 31.9707 33.2498 31.9707 32.7498 32.3107C32.3698 32.5707 32.0898 33.1807 32.0798 33.2107C32.0798 33.2107 31.7998 32.5707 31.4098 32.3107C30.9098 31.9707 30.2898 31.9707 30.2898 31.9707H23.5998L22.2598 34.1107H28.3898C28.3898 34.1107 28.5698 34.1107 28.6798 34.1307C28.8598 34.1607 29.1798 34.2607 29.5098 34.4907C29.9598 34.8207 30.0898 34.9907 30.1998 35.1007C30.2498 35.1607 30.3998 35.3507 30.3998 35.3507H33.7498C33.7498 35.3507 33.8898 35.1607 33.9498 35.1007C34.0598 34.9907 34.1898 34.8207 34.6398 34.4907C34.9698 34.2507 35.2898 34.1607 35.4698 34.1307C35.5798 34.1107 35.7598 34.1107 35.7598 34.1107H41.8898L40.5498 31.9707H40.5598Z" fill="#003477"/>
<path d="M22.9297 34.7607V44.9407C22.9297 45.0507 22.9297 45.1507 22.9497 45.2407C23.0597 46.3207 23.3997 47.1107 24.0197 48.1607C24.9997 49.8007 26.7897 50.9507 26.7897 50.9507L27.6297 49.6107C27.6297 49.6107 26.4897 49.0007 25.5797 47.6107C25.3997 47.3307 25.2097 47.0707 25.0897 46.8107C24.9697 46.5707 24.8797 46.3607 24.8097 46.1507C24.7597 46.0007 24.7197 45.8607 24.6897 45.7307C24.6397 45.5407 24.6197 45.4007 24.6097 45.2207C24.6097 45.1607 24.5997 44.9107 24.5997 44.9107V34.7707H22.9397L22.9297 34.7607Z" fill="#003477"/>
<path d="M25.4805 34.76V44.9C25.4805 44.9 25.4805 44.94 25.4805 44.99C25.4805 45.04 25.4805 45.11 25.5005 45.17C25.5005 45.2 25.5105 45.25 25.5205 45.28C25.5505 45.44 25.5905 45.58 25.6605 45.79C25.7805 46.13 25.9805 46.54 26.2705 47.02C27.0205 48.24 28.1105 48.79 28.1105 48.79L28.9505 47.48C28.9505 47.48 28.6705 47.33 28.3305 47C28.1105 46.78 27.8405 46.5 27.6105 46.16C27.3905 45.81 27.2505 45.47 27.1705 45.2C27.1105 44.98 27.0905 44.8 27.0905 44.69C27.0905 44.6 27.0905 44.54 27.0905 44.54V34.75H25.4805V34.76Z" fill="#003477"/>
<path d="M41.2293 34.7607V44.9407C41.2293 45.0507 41.2293 45.1507 41.2093 45.2407C41.0993 46.3207 40.7593 47.1107 40.1393 48.1607C39.1593 49.8007 37.3693 50.9507 37.3693 50.9507L36.5293 49.6107C36.5293 49.6107 37.6693 49.0007 38.5793 47.6107C38.7593 47.3307 38.9493 47.0707 39.0693 46.8107C39.1893 46.5707 39.2793 46.3607 39.3493 46.1507C39.3993 46.0007 39.4393 45.8607 39.4693 45.7307C39.5193 45.5407 39.5393 45.4007 39.5493 45.2207C39.5493 45.1607 39.5593 44.9107 39.5593 44.9107V34.7707H41.2193L41.2293 34.7607Z" fill="#003477"/>
<path d="M38.6809 34.76V44.9C38.6809 44.9 38.6809 44.94 38.6809 44.99C38.6809 45.04 38.6809 45.11 38.6609 45.17C38.6609 45.2 38.6509 45.25 38.6409 45.28C38.6109 45.44 38.5709 45.58 38.5009 45.79C38.3809 46.13 38.1809 46.54 37.8909 47.02C37.1409 48.24 36.0509 48.79 36.0509 48.79L35.2109 47.48C35.2109 47.48 35.4909 47.33 35.8309 47C36.0509 46.78 36.3209 46.5 36.5509 46.16C36.7709 45.81 36.9109 45.47 36.9909 45.2C37.0609 44.98 37.0709 44.8 37.0709 44.69C37.0709 44.6 37.0709 44.54 37.0709 44.54V34.75H38.6809V34.76Z" fill="#003477"/>
<path d="M46.5801 46.5807H48.2901V52.9507H49.1901V46.5807H50.8901V45.7607H46.5801V46.5807Z" fill="#003477"/>
<path d="M51.7012 52.9507H55.5612V52.1307H52.5912V49.4107H55.4712V48.5907H52.5912V46.5807H55.5612V45.7607H51.7012V52.9507Z" fill="#003477"/>
<path d="M56.3613 49.3898C56.3613 51.4698 58.0613 53.0998 60.1113 53.0998C60.7413 53.0998 61.4413 52.9198 62.0013 52.5898V51.5298C61.4713 52.0098 60.7913 52.2698 60.0813 52.2698C58.4813 52.2698 57.2613 50.9298 57.2613 49.3498C57.2613 47.7698 58.4913 46.4098 60.1013 46.4098C60.7813 46.4098 61.4813 46.6598 62.0013 47.1198V46.0798C61.4613 45.7498 60.8213 45.5898 60.1913 45.5898C58.0713 45.5898 56.3713 47.2498 56.3713 49.3798L56.3613 49.3898Z" fill="#003477"/>
<path d="M67.4001 48.6607H63.9801V45.7607H63.0801V52.9507H63.9801V49.5007H67.4001V52.9507H68.3001V45.7607H67.4001V48.6607Z" fill="#003477"/>
<path d="M75.0013 51.0702L69.6113 45.4102V52.9501H70.5013V47.5901L75.9013 53.2402V45.7602H75.0013V51.0702Z" fill="#003477"/>
<path d="M80.5298 45.6006C78.4698 45.6006 76.7598 47.2906 76.7598 49.3506C76.7598 51.4106 78.4498 53.1006 80.5298 53.1006C82.6098 53.1006 84.2998 51.4906 84.2998 49.3506C84.2998 47.2106 82.5898 45.6006 80.5298 45.6006ZM80.5298 52.2606C78.9798 52.2606 77.6598 50.9906 77.6598 49.3506C77.6598 47.7106 78.8398 46.4406 80.5298 46.4406C82.2198 46.4406 83.3998 47.7706 83.3998 49.3506C83.3998 50.9306 82.0798 52.2606 80.5298 52.2606Z" fill="#003477"/>
<path d="M86.1615 45.7607H85.2715V52.9507H88.3515V52.1307H86.1615V45.7607Z" fill="#003477"/>
<path d="M92.2915 45.6006C90.2315 45.6006 88.5215 47.2906 88.5215 49.3506C88.5215 51.4106 90.2115 53.1006 92.2915 53.1006C94.3715 53.1006 96.0615 51.4906 96.0615 49.3506C96.0615 47.2106 94.3515 45.6006 92.2915 45.6006ZM92.2915 52.2606C90.7415 52.2606 89.4215 50.9906 89.4215 49.3506C89.4215 47.7106 90.6015 46.4406 92.2915 46.4406C93.9815 46.4406 95.1615 47.7706 95.1615 49.3506C95.1615 50.9306 93.8515 52.2606 92.2915 52.2606Z" fill="#003477"/>
<path d="M100.721 50.1406H102.581C102.541 51.3106 101.341 52.2806 100.231 52.2806C98.681 52.2806 97.441 50.8506 97.441 49.3406C97.441 47.7306 98.701 46.4206 100.311 46.4206C101.191 46.4206 102.061 46.8906 102.571 47.5906L103.201 46.9906C102.491 46.1006 101.391 45.6006 100.271 45.6006C98.201 45.6006 96.541 47.3006 96.541 49.3706C96.541 51.4406 98.161 53.1006 100.171 53.1006C102.181 53.1006 103.571 51.5806 103.571 49.6106V49.3206H100.721V50.1406V50.1406Z" fill="#003477"/>
<path d="M106.611 48.8307L104.841 45.7607H103.811L106.161 49.8207V52.9507H107.061V49.8207L109.401 45.7607H108.371L106.611 48.8307Z" fill="#003477"/>
<path d="M47.6707 30.0601H48.5707V23.6901H50.2807V22.8701H45.9707V23.6901H47.6707V30.0601Z" fill="#003477"/>
<path d="M51.9 26.6101H55.32V30.0601H56.22V22.8701H55.32V25.7701H51.9V22.8701H51V30.0601H51.9V26.6101Z" fill="#003477"/>
<path d="M61.4813 29.2401H58.5113V26.5301H61.3913V25.7101H58.5113V23.6901H61.4813V22.8701H57.6113V30.0601H61.4813V29.2401Z" fill="#003477"/>
<path d="M66.3512 26.6101H69.7712V30.0601H70.6712V22.8701H69.7712V25.7701H66.3512V22.8701H65.4512V30.0601H66.3512V26.6101Z" fill="#003477"/>
<path d="M75.3208 30.2207C77.4008 30.2207 79.0908 28.6107 79.0908 26.4707C79.0908 24.3307 77.3808 22.7207 75.3208 22.7207C73.2608 22.7207 71.5508 24.4107 71.5508 26.4707C71.5508 28.5307 73.2408 30.2207 75.3208 30.2207ZM75.3208 23.5607C77.0108 23.5607 78.1908 24.8907 78.1908 26.4707C78.1908 28.0507 76.8708 29.3807 75.3208 29.3807C73.7708 29.3807 72.4508 28.1107 72.4508 26.4707C72.4508 24.8307 73.6308 23.5607 75.3208 23.5607Z" fill="#003477"/>
<path d="M80.8607 24.7103L86.2607 30.3603V22.8703H85.3707V28.1903L79.9707 22.5303V30.0603H80.8607V24.7103Z" fill="#003477"/>
<path d="M90.7804 30.2207C92.7904 30.2207 94.1804 28.7007 94.1804 26.7307V26.4407H91.3304V27.2607H93.1904C93.1504 28.4307 91.9504 29.4007 90.8404 29.4007C89.2904 29.4007 88.0504 27.9707 88.0504 26.4607C88.0504 24.8507 89.3104 23.5407 90.9204 23.5407C91.8004 23.5407 92.6704 24.0107 93.1804 24.7107L93.8104 24.1107C93.1004 23.2207 92.0004 22.7207 90.8804 22.7207C88.8104 22.7207 87.1504 24.4207 87.1504 26.4907C87.1504 28.5607 88.7704 30.2207 90.7804 30.2207Z" fill="#003477"/>
<path d="M98.9215 27.0601L99.2815 26.7201L101.991 30.0601H103.201L99.9115 26.1101L103.141 22.8701H101.971L98.9215 25.9901V22.8701H98.0215V30.0601H98.9215V27.0601Z" fill="#003477"/>
<path d="M107.1 30.2207C109.18 30.2207 110.87 28.6107 110.87 26.4707C110.87 24.3307 109.16 22.7207 107.1 22.7207C105.04 22.7207 103.33 24.4107 103.33 26.4707C103.33 28.5307 105.02 30.2207 107.1 30.2207ZM107.1 23.5607C108.79 23.5607 109.97 24.8907 109.97 26.4707C109.97 28.0507 108.65 29.3807 107.1 29.3807C105.55 29.3807 104.23 28.1107 104.23 26.4707C104.23 24.8307 105.41 23.5607 107.1 23.5607Z" fill="#003477"/>
<path d="M112.64 24.7103L118.04 30.3603V22.8703H117.14V28.1903L111.74 22.5303V30.0603H112.64V24.7103Z" fill="#003477"/>
<path d="M122.562 30.2207C124.572 30.2207 125.962 28.7007 125.962 26.7307V26.4407H123.112V27.2607H124.972C124.932 28.4307 123.732 29.4007 122.622 29.4007C121.072 29.4007 119.832 27.9707 119.832 26.4607C119.832 24.8507 121.092 23.5407 122.702 23.5407C123.582 23.5407 124.442 24.0107 124.962 24.7107L125.592 24.1107C124.882 23.2207 123.782 22.7207 122.662 22.7207C120.592 22.7207 118.932 24.4207 118.932 26.4907C118.932 28.5607 120.552 30.2207 122.562 30.2207Z" fill="#003477"/>
<path d="M51.7798 34.3203H50.8798V38.5603C50.8798 39.7303 50.5298 40.8203 49.1398 40.8203C47.7498 40.8203 47.4098 39.7303 47.4098 38.5603V34.3203H46.5098V38.8703C46.5098 40.4503 47.4898 41.6603 49.1398 41.6603C50.7898 41.6603 51.7698 40.4503 51.7698 38.8703V34.3203H51.7798Z" fill="#003477"/>
<path d="M53.1602 33.9707V41.5107H54.0602V36.1507L59.4502 41.8007V34.3107H58.5602V39.6307L53.1602 33.9707Z" fill="#003477"/>
<path d="M62.1012 34.3105H61.2012V41.5005H62.1012V34.3105Z" fill="#003477"/>
<path d="M65.9113 39.6403L63.7612 34.3203H62.7812L65.9113 41.8903L69.0312 34.3203H68.0513L65.9113 39.6403Z" fill="#003477"/>
<path d="M73.6005 35.1403V34.3203H69.7305V41.5103H73.6005V40.6903H70.6305V37.9703H73.5105V37.1503H70.6305V35.1403H73.6005Z" fill="#003477"/>
<path d="M79.2708 41.5103L77.0008 38.3803C78.0408 38.2603 78.7308 37.4003 78.7308 36.3703C78.7308 35.6803 78.3908 35.0103 77.7908 34.6503C77.2208 34.3203 76.5308 34.3203 75.8908 34.3203H74.8008V41.5103H75.7008V38.4703H76.0708L78.1908 41.5103H79.2808H79.2708ZM75.9808 37.7203H75.6908V35.1203H75.9308C76.8208 35.1203 77.8908 35.2803 77.8908 36.4103C77.8908 37.5403 76.9008 37.7303 75.9808 37.7303V37.7203Z" fill="#003477"/>
<path d="M82.5605 37.2502L82.0406 37.0502C81.5906 36.8802 81.0406 36.5802 81.0406 36.0202C81.0406 35.3902 81.6705 35.0002 82.2405 35.0002C82.8105 35.0002 83.1305 35.2302 83.3905 35.6802L84.1105 35.2502C83.7205 34.5502 83.0606 34.1602 82.2606 34.1602C81.1706 34.1602 80.1405 34.8602 80.1405 36.0202C80.1405 37.0202 80.8805 37.4902 81.7005 37.8402L82.2005 38.0502C82.8205 38.3102 83.4406 38.6402 83.4406 39.4102C83.4406 40.1802 82.8905 40.8102 82.1105 40.8102C81.3305 40.8102 80.7106 40.2402 80.7206 39.4502L79.8105 39.6402C79.9605 40.7902 80.8705 41.6502 82.0305 41.6502C83.3205 41.6502 84.3306 40.7102 84.3306 39.4102C84.3306 38.2102 83.5706 37.6502 82.5506 37.2502H82.5605Z" fill="#003477"/>
<path d="M86.4313 34.3105H85.5312V41.5005H86.4313V34.3105Z" fill="#003477"/>
<path d="M90.0004 41.5103V35.1403H91.7104V34.3203H87.4004V35.1403H89.1004V41.5103H90.0004Z" fill="#003477"/>
<path d="M92.0312 34.3203L94.3812 38.3803V41.5103H95.2712V38.3803L97.6213 34.3203H96.5912L94.8313 37.3903L93.0612 34.3203H92.0312Z" fill="#003477"/>
<path d="M100.852 37.9102C100.852 40.0502 102.542 41.6602 104.622 41.6602C106.702 41.6602 108.392 40.0502 108.392 37.9102C108.392 35.7702 106.682 34.1602 104.622 34.1602C102.562 34.1602 100.852 35.8502 100.852 37.9102ZM107.492 37.9102C107.492 39.5502 106.182 40.8202 104.622 40.8202C103.062 40.8202 101.752 39.5502 101.752 37.9102C101.752 36.2702 102.932 35.0002 104.622 35.0002C106.312 35.0002 107.492 36.3302 107.492 37.9102Z" fill="#003477"/>
<path d="M112.87 37.1603H110.37V35.1403H112.96V34.3203H109.48V41.5103H110.37V37.9803H112.87V37.1603Z" fill="#003477"/>
<path d="M119.3 40.8199C118.53 40.8199 117.9 40.2499 117.91 39.4599L117 39.6499C117.15 40.7999 118.06 41.6599 119.22 41.6599C120.51 41.6599 121.52 40.7199 121.52 39.4199C121.52 38.2199 120.76 37.6599 119.74 37.2599L119.23 37.0599C118.78 36.8899 118.23 36.5899 118.23 36.0299C118.23 35.3999 118.86 35.0099 119.43 35.0099C120 35.0099 120.32 35.2399 120.58 35.6899L121.3 35.2599C120.91 34.5599 120.25 34.1699 119.45 34.1699C118.36 34.1699 117.33 34.8699 117.33 36.0299C117.33 37.0299 118.08 37.4999 118.9 37.8499L119.39 38.0599C120.01 38.3199 120.63 38.6499 120.63 39.4199C120.63 40.1899 120.08 40.8199 119.3 40.8199V40.8199Z" fill="#003477"/>
<path d="M128.03 41.1504V40.0904C127.49 40.5704 126.82 40.8304 126.11 40.8304C124.51 40.8304 123.29 39.4904 123.29 37.9104C123.29 36.3304 124.52 34.9704 126.13 34.9704C126.81 34.9704 127.51 35.2204 128.03 35.6804V34.6404C127.49 34.3104 126.85 34.1504 126.22 34.1504C124.1 34.1504 122.4 35.8104 122.4 37.9404C122.4 40.0704 124.1 41.6504 126.15 41.6504C126.78 41.6504 127.48 41.4704 128.04 41.1404L128.03 41.1504Z" fill="#003477"/>
<path d="M130.4 34.3105H129.5V41.5005H130.4V34.3105Z" fill="#003477"/>
<path d="M136.03 40.6903H133.07V37.9703H135.95V37.1503H133.07V35.1403H136.03V34.3203H132.17V41.5103H136.03V40.6903Z" fill="#003477"/>
<path d="M142.88 39.6307L137.48 33.9707V41.5107H138.38V36.1507L143.78 41.8007V34.3107H142.88V39.6307Z" fill="#003477"/>
<path d="M148.56 41.6604C149.19 41.6604 149.89 41.4804 150.45 41.1504V40.0904C149.92 40.5704 149.24 40.8304 148.53 40.8304C146.93 40.8304 145.71 39.4904 145.71 37.9104C145.71 36.3304 146.94 34.9704 148.55 34.9704C149.23 34.9704 149.93 35.2204 150.45 35.6804V34.6404C149.91 34.3104 149.27 34.1504 148.64 34.1504C146.52 34.1504 144.82 35.8104 144.82 37.9404C144.82 40.0704 146.52 41.6504 148.57 41.6504L148.56 41.6604Z" fill="#003477"/>
<path d="M155.61 40.6903H152.65V37.9703H155.53V37.1503H152.65V35.1403H155.61V34.3203H151.75V41.5103H155.61V40.6903Z" fill="#003477"/>
<path d="M161.561 39.7303H164.861L165.681 41.5303H166.641L163.211 34.0303L159.781 41.5303H160.741L161.561 39.7303ZM163.211 36.0003L164.491 38.9103H161.931L163.211 36.0003Z" fill="#003477"/>
<path d="M168.351 36.17L173.751 41.83V34.34H172.861V39.65L167.461 34V41.53H168.351V36.17Z" fill="#003477"/>
<path d="M180.641 37.8998C180.641 35.5098 178.811 34.3398 176.601 34.3398H175.111V41.5298H176.571C178.841 41.5298 180.631 40.3498 180.631 37.8998H180.641ZM176.011 40.7098V35.1598H176.321C178.151 35.1598 179.731 35.8398 179.731 37.9398C179.731 40.0398 178.151 40.7198 176.321 40.7198H176.011V40.7098Z" fill="#003477"/>
<path d="M119.86 50.1504H121.72C121.68 51.3204 120.48 52.2904 119.36 52.2904C117.8 52.2904 116.56 50.8604 116.56 49.3504C116.56 47.7404 117.82 46.4304 119.44 46.4304C120.32 46.4304 121.19 46.9004 121.71 47.6104L122.34 47.0104C121.63 46.1204 120.52 45.6104 119.41 45.6104C117.34 45.6104 115.67 47.3104 115.67 49.3804C115.67 51.4504 117.29 53.1203 119.31 53.1203C121.33 53.1203 122.72 51.6003 122.72 49.6203V49.3304H119.86V50.1504V50.1504Z" fill="#003477"/>
<path d="M127.95 50.0107C127.95 51.1907 127.6 52.2807 126.21 52.2807C124.82 52.2807 124.47 51.1907 124.47 50.0107V45.7607H123.57V50.3207C123.57 51.9107 124.55 53.1207 126.21 53.1207C127.87 53.1207 128.85 51.9107 128.85 50.3207V45.7607H127.95V50.0107V50.0107Z" fill="#003477"/>
<path d="M129.41 52.9602H130.37L131.19 51.1502H134.5L135.32 52.9602H136.28L132.84 45.4502L129.4 52.9602H129.41ZM131.57 50.3302L132.85 47.4202L134.13 50.3302H131.57Z" fill="#003477"/>
<path d="M142.31 51.0802L136.9 45.4102V52.9602H137.8V47.5901L143.21 53.2502V45.7502H142.31V51.0802Z" fill="#003477"/>
<path d="M148.28 50.1504H150.14C150.1 51.3204 148.9 52.2904 147.78 52.2904C146.22 52.2904 144.98 50.8604 144.98 49.3504C144.98 47.7404 146.24 46.4304 147.86 46.4304C148.74 46.4304 149.61 46.9004 150.12 47.6104L150.75 47.0104C150.04 46.1204 148.93 45.6104 147.82 45.6104C145.75 45.6104 144.08 47.3104 144.08 49.3804C144.08 51.4504 145.7 53.1203 147.72 53.1203C149.74 53.1203 151.13 51.6003 151.13 49.6203V49.3304H148.27V50.1504H148.28Z" fill="#003477"/>
<path d="M152.03 45.75V46.58H155.16L151.51 52.96H156.63V52.14H152.98L156.63 45.75H152.03Z" fill="#003477"/>
<path d="M161.73 48.66H158.3V45.75H157.4V52.96H158.3V49.5H161.73V52.96H162.63V45.75H161.73V48.66Z" fill="#003477"/>
<path d="M167.28 45.6006C165.22 45.6006 163.51 47.2906 163.51 49.3606C163.51 51.4306 165.2 53.1206 167.28 53.1206C169.36 53.1206 171.05 51.5106 171.05 49.3606C171.05 47.2106 169.34 45.6006 167.28 45.6006V45.6006ZM167.28 52.2706C165.72 52.2706 164.4 51.0006 164.4 49.3606C164.4 47.7206 165.59 46.4406 167.28 46.4406C168.97 46.4406 170.16 47.7706 170.16 49.3606C170.16 50.9506 168.84 52.2706 167.28 52.2706Z" fill="#003477"/>
<path d="M176.271 50.0107C176.271 51.1907 175.921 52.2807 174.531 52.2807C173.141 52.2807 172.791 51.1907 172.791 50.0107V45.7607H171.891V50.3207C171.891 51.9107 172.871 53.1207 174.531 53.1207C176.191 53.1207 177.171 51.9107 177.171 50.3207V45.7607H176.271V50.0107V50.0107Z" fill="#003477"/>
<path d="M114.51 45.0898H113.86C113.62 45.3998 113.36 45.8198 113.09 46.3398C112.58 47.3198 112.32 48.3098 112.32 49.3198C112.32 50.0598 112.46 50.8098 112.74 51.5598C113.03 52.3198 113.4 52.9898 113.85 53.5898H114.51C113.7 52.1298 113.29 50.7098 113.29 49.3498C113.29 48.4998 113.42 47.6798 113.69 46.8998C113.86 46.4298 114.13 45.8298 114.52 45.0898H114.51Z" fill="#003477"/>
<path d="M180.561 47.1298C180.271 46.3598 179.911 45.6798 179.461 45.0898H178.801C179.611 46.5498 180.021 47.9698 180.021 49.3298C180.021 50.1898 179.891 51.0098 179.621 51.7898C179.451 52.2598 179.181 52.8498 178.791 53.5898H179.441C179.701 53.2398 179.961 52.8298 180.211 52.3398C180.721 51.3498 180.981 50.3598 180.981 49.3498C180.981 48.6298 180.831 47.8898 180.551 47.1198L180.561 47.1298Z" fill="#003477"/>
</svg>
