<svg width="350" height="325" viewBox="0 0 350 325" fill="none" xmlns="http://www.w3.org/2000/svg">
<path d="M316.77 113H195V178.85H341.67V132.61L316.77 113Z" fill="#ED1B2F"/>
<g filter="url(#filter0_d_645_715)">
<path d="M341.66 179.25H195V231.77H341.66V179.25Z" fill="white"/>
</g>
<path d="M202.62 188.9H204.89C205.48 188.9 205.93 189.04 206.26 189.32C206.59 189.6 206.75 189.99 206.75 190.49C206.75 190.99 206.58 191.38 206.25 191.66C205.92 191.95 205.46 192.09 204.88 192.09H203.26V194.59H202.6V188.89L202.62 188.9ZM204.84 191.55C205.26 191.55 205.58 191.46 205.79 191.28C206 191.1 206.11 190.84 206.11 190.5C206.11 190.16 206 189.9 205.79 189.72C205.58 189.54 205.26 189.45 204.84 189.45H203.28V191.55H204.84V191.55Z" fill="#231815"/>
<path d="M210.96 193.13H207.98L207.35 194.59H206.67L209.17 188.89H209.75L212.25 194.59H211.58L210.96 193.13V193.13ZM210.73 192.59L209.47 189.66L208.21 192.59H210.72H210.73Z" fill="#231815"/>
<path d="M217.67 188.899V194.599H217.16L213.72 190.019V194.599H213.1V188.899H213.6L217.04 193.479V188.899H217.66H217.67Z" fill="#231815"/>
<path d="M220.451 189.459H218.471V188.899H223.101V189.459H221.121V194.599H220.461V189.459H220.451Z" fill="#231815"/>
<path d="M224.56 194.31C224.17 194.08 223.87 193.74 223.66 193.3C223.45 192.86 223.34 192.34 223.34 191.75C223.34 191.16 223.44 190.63 223.65 190.2C223.86 189.76 224.16 189.43 224.55 189.19C224.94 188.96 225.4 188.84 225.93 188.84C226.46 188.84 226.92 188.96 227.31 189.19C227.7 189.43 228 189.76 228.21 190.2C228.42 190.64 228.52 191.15 228.52 191.74C228.52 192.33 228.41 192.86 228.2 193.29C227.99 193.73 227.69 194.06 227.3 194.3C226.91 194.54 226.45 194.66 225.92 194.66C225.39 194.66 224.93 194.54 224.54 194.31H224.56ZM227.34 193.49C227.68 193.08 227.84 192.5 227.84 191.75C227.84 191 227.67 190.42 227.34 190.01C227.01 189.6 226.54 189.4 225.93 189.4C225.32 189.4 224.85 189.6 224.51 190.01C224.17 190.42 224.01 191 224.01 191.74C224.01 192.48 224.18 193.07 224.51 193.48C224.85 193.89 225.32 194.1 225.93 194.1C226.54 194.1 227 193.89 227.34 193.48V193.49Z" fill="#231815"/>
<path d="M234.291 188.899V194.599H233.781L230.341 190.019V194.599H229.721V188.899H230.221L233.661 193.479V188.899H234.281H234.291Z" fill="#231815"/>
<path d="M235.689 188.9H239.289V189.44H236.339V191.42H239.129V191.97H236.339V194.04H239.289V194.58H235.689V188.88V188.9Z" fill="#231815"/>
<path d="M245.981 194.049V194.599H242.801V194.049H244.061V189.719L242.891 190.459V189.829L244.351 188.899H244.731V194.039H245.991L245.981 194.049Z" fill="#231815"/>
<path d="M250.709 192.189C250.919 192.439 251.019 192.739 251.019 193.079C251.019 193.569 250.839 193.949 250.469 194.229C250.099 194.509 249.609 194.649 248.979 194.649C248.349 194.649 247.859 194.509 247.489 194.229C247.119 193.949 246.939 193.569 246.939 193.079C246.939 192.729 247.049 192.429 247.259 192.179C247.469 191.929 247.759 191.759 248.129 191.659C247.789 191.559 247.529 191.389 247.349 191.159C247.169 190.929 247.079 190.649 247.079 190.339C247.079 190.029 247.159 189.769 247.319 189.539C247.479 189.309 247.709 189.139 247.999 189.009C248.289 188.889 248.619 188.819 248.999 188.819C249.379 188.819 249.709 188.879 249.999 189.009C250.289 189.139 250.519 189.309 250.679 189.539C250.839 189.769 250.919 190.029 250.919 190.339C250.919 190.649 250.829 190.929 250.639 191.159C250.459 191.389 250.199 191.559 249.869 191.659C250.239 191.759 250.529 191.939 250.739 192.179L250.709 192.189ZM250.009 193.829C250.249 193.649 250.369 193.379 250.369 193.039C250.369 192.729 250.239 192.469 249.989 192.279C249.739 192.089 249.399 191.969 248.979 191.929C248.559 191.969 248.219 192.089 247.969 192.279C247.719 192.469 247.589 192.719 247.589 193.039C247.589 193.389 247.709 193.649 247.949 193.829C248.189 194.009 248.529 194.099 248.979 194.099C249.429 194.099 249.769 194.009 250.009 193.829ZM248.059 191.129C248.289 191.319 248.589 191.439 248.979 191.479C249.359 191.439 249.669 191.319 249.899 191.129C250.129 190.939 250.239 190.689 250.239 190.389C250.239 190.089 250.129 189.829 249.909 189.649C249.689 189.469 249.379 189.379 248.989 189.379C248.599 189.379 248.289 189.469 248.069 189.649C247.849 189.829 247.739 190.079 247.739 190.389C247.739 190.699 247.849 190.939 248.079 191.129H248.059Z" fill="#231815"/>
<path d="M254.96 191.25C255.23 191.4 255.44 191.61 255.58 191.89C255.72 192.16 255.8 192.48 255.8 192.83C255.8 193.18 255.72 193.5 255.56 193.78C255.4 194.06 255.18 194.27 254.89 194.42C254.6 194.57 254.26 194.65 253.87 194.65C253.52 194.65 253.18 194.59 252.85 194.46C252.52 194.33 252.23 194.16 252 193.94L252.25 193.44C252.78 193.88 253.32 194.1 253.87 194.1C254.27 194.1 254.58 193.99 254.81 193.76C255.04 193.53 255.15 193.22 255.15 192.84C255.15 192.46 255.04 192.16 254.81 191.92C254.59 191.69 254.29 191.57 253.91 191.57C253.37 191.57 252.93 191.79 252.61 192.23H252.15V188.89H255.57V189.43H252.81V191.46C253.12 191.16 253.53 191 254.02 191C254.38 191 254.69 191.08 254.96 191.23V191.25Z" fill="#231815"/>
<path d="M203.65 204.31C203.25 204.08 202.95 203.74 202.73 203.3C202.52 202.86 202.41 202.34 202.41 201.74C202.41 201.14 202.52 200.63 202.73 200.19C202.94 199.75 203.25 199.42 203.65 199.19C204.05 198.96 204.52 198.84 205.05 198.84C205.44 198.84 205.81 198.9 206.13 199.02C206.46 199.14 206.74 199.32 206.98 199.56L206.73 200.06C206.46 199.83 206.19 199.66 205.93 199.56C205.67 199.46 205.37 199.41 205.05 199.41C204.43 199.41 203.94 199.61 203.6 200.02C203.26 200.43 203.08 201 203.08 201.75C203.08 202.5 203.25 203.08 203.59 203.49C203.93 203.9 204.42 204.1 205.05 204.1C205.37 204.1 205.66 204.05 205.93 203.95C206.19 203.85 206.46 203.68 206.73 203.45L206.98 203.95C206.74 204.19 206.46 204.37 206.13 204.49C205.8 204.61 205.44 204.67 205.05 204.67C204.51 204.67 204.04 204.55 203.65 204.32V204.31Z" fill="#231815"/>
<path d="M213.48 198.899V204.599H212.87V200.369L211.02 204.599H210.56L208.7 200.399V204.599H208.1V198.899H208.64L210.8 203.809L212.94 198.899H213.48V198.899Z" fill="#231815"/>
<path d="M216.939 202.289V204.589H216.279V202.279L214.039 198.899H214.809L216.619 201.699L218.429 198.899H219.179L216.939 202.289V202.289Z" fill="#231815"/>
<path d="M223.33 204.599L220.39 201.889V204.599H219.73V198.899H220.39V201.519L223.19 198.899H224.03L221.05 201.679L224.18 204.599H223.32H223.33Z" fill="#231815"/>
<path d="M229.199 203.92C228.859 203.43 228.689 202.7 228.689 201.75C228.689 200.8 228.859 200.07 229.199 199.58C229.539 199.09 230.029 198.84 230.679 198.84C231.329 198.84 231.829 199.09 232.159 199.58C232.499 200.07 232.669 200.79 232.669 201.74C232.669 202.69 232.499 203.42 232.159 203.92C231.819 204.42 231.329 204.66 230.679 204.66C230.029 204.66 229.529 204.41 229.199 203.92ZM231.689 203.53C231.909 203.15 232.009 202.55 232.009 201.74C232.009 200.93 231.899 200.34 231.689 199.96C231.479 199.58 231.139 199.39 230.679 199.39C230.219 199.39 229.889 199.58 229.679 199.96C229.469 200.34 229.359 200.93 229.359 201.74C229.359 202.55 229.469 203.14 229.679 203.53C229.889 203.92 230.229 204.11 230.679 204.11C231.129 204.11 231.469 203.92 231.679 203.53H231.689Z" fill="#231815"/>
<path d="M234.381 204.399C234.091 204.229 233.871 203.989 233.711 203.679C233.551 203.369 233.471 202.999 233.471 202.589C233.471 202.179 233.551 201.809 233.711 201.489C233.871 201.169 234.101 200.929 234.391 200.749C234.691 200.569 235.031 200.489 235.431 200.489C235.701 200.489 235.961 200.539 236.221 200.629C236.471 200.719 236.681 200.849 236.851 201.019L236.631 201.499C236.431 201.339 236.231 201.219 236.041 201.149C235.851 201.069 235.661 201.039 235.461 201.039C235.051 201.039 234.731 201.179 234.491 201.449C234.261 201.719 234.141 202.109 234.141 202.599C234.141 203.089 234.261 203.459 234.491 203.729C234.721 203.999 235.051 204.129 235.461 204.129C235.661 204.129 235.851 204.089 236.041 204.019C236.231 203.939 236.431 203.829 236.631 203.669L236.851 204.149C236.681 204.309 236.461 204.439 236.211 204.529C235.951 204.619 235.681 204.669 235.411 204.669C235.021 204.669 234.681 204.589 234.391 204.409L234.381 204.399Z" fill="#231815"/>
<path d="M243.33 204.049V204.599H240.15V204.049H241.41V199.719L240.24 200.459V199.829L241.7 198.899H242.08V204.039H243.34L243.33 204.049Z" fill="#231815"/>
<path d="M244.85 203.92C244.51 203.43 244.34 202.7 244.34 201.75C244.34 200.8 244.51 200.07 244.85 199.58C245.19 199.09 245.68 198.84 246.33 198.84C246.98 198.84 247.48 199.09 247.81 199.58C248.15 200.07 248.32 200.79 248.32 201.74C248.32 202.69 248.15 203.42 247.81 203.92C247.47 204.42 246.98 204.66 246.33 204.66C245.68 204.66 245.18 204.41 244.85 203.92ZM247.34 203.53C247.56 203.15 247.66 202.55 247.66 201.74C247.66 200.93 247.55 200.34 247.34 199.96C247.13 199.58 246.79 199.39 246.33 199.39C245.87 199.39 245.54 199.58 245.33 199.96C245.12 200.34 245.01 200.93 245.01 201.74C245.01 202.55 245.12 203.14 245.33 203.53C245.54 203.92 245.88 204.11 246.33 204.11C246.78 204.11 247.12 203.92 247.33 203.53H247.34Z" fill="#231815"/>
<path d="M249.651 203.92C249.311 203.43 249.141 202.7 249.141 201.75C249.141 200.8 249.311 200.07 249.651 199.58C249.991 199.09 250.481 198.84 251.131 198.84C251.781 198.84 252.281 199.09 252.611 199.58C252.951 200.07 253.121 200.79 253.121 201.74C253.121 202.69 252.951 203.42 252.611 203.92C252.271 204.42 251.781 204.66 251.131 204.66C250.481 204.66 249.981 204.41 249.651 203.92ZM252.141 203.53C252.361 203.15 252.461 202.55 252.461 201.74C252.461 200.93 252.351 200.34 252.141 199.96C251.931 199.58 251.591 199.39 251.131 199.39C250.671 199.39 250.341 199.58 250.131 199.96C249.921 200.34 249.811 200.93 249.811 201.74C249.811 202.55 249.921 203.14 250.131 203.53C250.341 203.92 250.681 204.11 251.131 204.11C251.581 204.11 251.921 203.92 252.131 203.53H252.141Z" fill="#231815"/>
<path d="M259.96 202.07V204.6H259.31V202.1C259.31 201.72 259.24 201.45 259.11 201.28C258.98 201.11 258.77 201.02 258.47 201.02C258.13 201.02 257.86 201.14 257.67 201.36C257.48 201.59 257.38 201.9 257.38 202.3V204.6H256.73V202.1C256.73 201.73 256.66 201.45 256.53 201.28C256.4 201.11 256.18 201.02 255.89 201.02C255.55 201.02 255.28 201.14 255.09 201.36C254.9 201.59 254.8 201.9 254.8 202.3V204.6H254.15V201.7C254.15 201.28 254.13 200.91 254.09 200.57H254.71L254.77 201.27C254.88 201.01 255.05 200.82 255.27 200.68C255.49 200.54 255.75 200.47 256.04 200.47C256.36 200.47 256.62 200.53 256.82 200.66C257.02 200.79 257.17 200.99 257.27 201.25C257.39 201.01 257.57 200.82 257.81 200.68C258.05 200.54 258.31 200.47 258.61 200.47C259.5 200.47 259.95 201 259.95 202.06L259.96 202.07Z" fill="#231815"/>
<path d="M266.469 199.56C266.839 200.04 267.029 200.72 267.029 201.61C267.029 202.58 266.839 203.33 266.449 203.86C266.059 204.39 265.519 204.66 264.829 204.66C264.499 204.66 264.189 204.6 263.869 204.48C263.559 204.36 263.279 204.18 263.039 203.96L263.299 203.46C263.569 203.69 263.829 203.86 264.079 203.96C264.329 204.06 264.569 204.12 264.819 204.12C265.309 204.12 265.689 203.9 265.959 203.46C266.229 203.02 266.359 202.41 266.359 201.62V201.52C266.239 201.82 266.039 202.05 265.759 202.23C265.479 202.4 265.169 202.49 264.809 202.49C264.449 202.49 264.159 202.41 263.889 202.26C263.619 202.11 263.409 201.89 263.269 201.62C263.119 201.35 263.049 201.03 263.049 200.68C263.049 200.33 263.129 200.01 263.289 199.74C263.449 199.47 263.659 199.25 263.939 199.09C264.219 198.93 264.529 198.85 264.879 198.85C265.569 198.85 266.099 199.09 266.469 199.57V199.56ZM265.829 201.58C266.059 201.35 266.179 201.04 266.179 200.67C266.179 200.3 266.059 199.98 265.829 199.75C265.599 199.52 265.289 199.4 264.909 199.4C264.529 199.4 264.249 199.52 264.029 199.75C263.809 199.98 263.689 200.29 263.689 200.67C263.689 201.05 263.799 201.35 264.029 201.59C264.249 201.82 264.549 201.94 264.919 201.94C265.289 201.94 265.599 201.82 265.829 201.59V201.58Z" fill="#231815"/>
<path d="M268.369 203.92C268.029 203.43 267.859 202.7 267.859 201.75C267.859 200.8 268.029 200.07 268.369 199.58C268.709 199.09 269.199 198.84 269.849 198.84C270.499 198.84 270.999 199.09 271.329 199.58C271.669 200.07 271.839 200.79 271.839 201.74C271.839 202.69 271.669 203.42 271.329 203.92C270.989 204.42 270.499 204.66 269.849 204.66C269.199 204.66 268.699 204.41 268.369 203.92ZM270.859 203.53C271.079 203.15 271.179 202.55 271.179 201.74C271.179 200.93 271.069 200.34 270.859 199.96C270.649 199.58 270.309 199.39 269.849 199.39C269.389 199.39 269.059 199.58 268.849 199.96C268.639 200.34 268.529 200.93 268.529 201.74C268.529 202.55 268.639 203.14 268.849 203.53C269.059 203.92 269.399 204.11 269.849 204.11C270.299 204.11 270.639 203.92 270.849 203.53H270.859Z" fill="#231815"/>
<path d="M276.41 200.569L274.53 204.959C274.33 205.419 274.08 205.749 273.79 205.969C273.49 206.179 273.12 206.329 272.69 206.409L272.55 205.909C272.93 205.829 273.22 205.709 273.41 205.569C273.6 205.429 273.77 205.209 273.89 204.919L274.05 204.559L272.35 200.579H273.03L274.39 203.899L275.77 200.579H276.42L276.41 200.569Z" fill="#231815"/>
<path d="M279.51 203.92C279.17 203.43 279 202.7 279 201.75C279 200.8 279.17 200.07 279.51 199.58C279.85 199.09 280.34 198.84 280.99 198.84C281.64 198.84 282.14 199.09 282.47 199.58C282.81 200.07 282.98 200.79 282.98 201.74C282.98 202.69 282.81 203.42 282.47 203.92C282.13 204.42 281.64 204.66 280.99 204.66C280.34 204.66 279.84 204.41 279.51 203.92ZM282 203.53C282.22 203.15 282.32 202.55 282.32 201.74C282.32 200.93 282.21 200.34 282 199.96C281.79 199.58 281.45 199.39 280.99 199.39C280.53 199.39 280.2 199.58 279.99 199.96C279.78 200.34 279.67 200.93 279.67 201.74C279.67 202.55 279.78 203.14 279.99 203.53C280.2 203.92 280.54 204.11 280.99 204.11C281.44 204.11 281.78 203.92 281.99 203.53H282Z" fill="#231815"/>
<path d="M284.311 203.92C283.971 203.43 283.801 202.7 283.801 201.75C283.801 200.8 283.971 200.07 284.311 199.58C284.651 199.09 285.141 198.84 285.791 198.84C286.441 198.84 286.941 199.09 287.271 199.58C287.611 200.07 287.781 200.79 287.781 201.74C287.781 202.69 287.611 203.42 287.271 203.92C286.931 204.42 286.441 204.66 285.791 204.66C285.141 204.66 284.641 204.41 284.311 203.92ZM286.801 203.53C287.021 203.15 287.121 202.55 287.121 201.74C287.121 200.93 287.011 200.34 286.801 199.96C286.591 199.58 286.251 199.39 285.791 199.39C285.331 199.39 285.001 199.58 284.791 199.96C284.581 200.34 284.471 200.93 284.471 201.74C284.471 202.55 284.581 203.14 284.791 203.53C285.001 203.92 285.341 204.11 285.791 204.11C286.241 204.11 286.581 203.92 286.791 203.53H286.801Z" fill="#231815"/>
<path d="M291.53 204.6L289.47 202.66V204.6H288.82V198.71H289.47V202.42L291.37 200.58H292.19L290.17 202.51L292.38 204.6H291.53V204.6Z" fill="#231815"/>
<path d="M207.089 214.599H206.389L205.689 212.699C205.599 212.469 205.489 212.309 205.329 212.229C205.169 212.149 204.959 212.109 204.689 212.109H203.269V214.599H202.619V208.899H204.879C205.489 208.899 205.959 209.039 206.289 209.309C206.619 209.579 206.779 209.969 206.779 210.489C206.779 210.859 206.679 211.179 206.489 211.429C206.299 211.679 206.009 211.859 205.649 211.969C205.819 211.999 205.959 212.069 206.069 212.179C206.189 212.289 206.289 212.459 206.369 212.669L207.089 214.599V214.599ZM204.829 211.569C205.699 211.569 206.139 211.209 206.139 210.499C206.139 210.149 206.029 209.879 205.819 209.709C205.609 209.539 205.279 209.449 204.829 209.449H203.269V211.569H204.829V211.569Z" fill="#231815"/>
<path d="M212.63 211.63V214.27C212.41 214.39 212.11 214.48 211.75 214.55C211.39 214.62 211.02 214.66 210.65 214.66C210.08 214.66 209.6 214.54 209.19 214.31C208.78 214.08 208.47 213.74 208.25 213.31C208.03 212.87 207.93 212.35 207.93 211.74C207.93 211.13 208.04 210.62 208.25 210.18C208.47 209.75 208.78 209.41 209.18 209.18C209.58 208.95 210.06 208.83 210.61 208.83C211.01 208.83 211.38 208.89 211.71 209.01C212.04 209.13 212.33 209.31 212.57 209.55L212.31 210.05C212.03 209.82 211.76 209.65 211.5 209.54C211.24 209.44 210.94 209.38 210.61 209.38C209.96 209.38 209.47 209.58 209.13 209.98C208.79 210.38 208.61 210.96 208.61 211.72C208.61 212.48 208.79 213.08 209.14 213.48C209.49 213.88 210 214.08 210.68 214.08C211.15 214.08 211.61 214.01 212.05 213.86V212.12H210.63V211.6H212.65L212.63 211.63Z" fill="#231815"/>
<path d="M217.971 212.16C218.151 212.4 218.241 212.69 218.241 213.04C218.241 213.54 218.071 213.92 217.741 214.19C217.411 214.46 216.941 214.59 216.341 214.59H213.971V208.89H216.261C216.841 208.89 217.291 209.02 217.621 209.28C217.941 209.54 218.101 209.9 218.101 210.38C218.101 210.68 218.021 210.95 217.861 211.17C217.701 211.39 217.481 211.56 217.201 211.66C217.531 211.75 217.781 211.91 217.961 212.15L217.971 212.16ZM214.631 211.43H216.171C216.601 211.43 216.921 211.35 217.141 211.17C217.361 210.99 217.471 210.75 217.471 210.42C217.471 209.77 217.041 209.44 216.171 209.44H214.631V211.42V211.43ZM217.281 213.8C217.491 213.63 217.601 213.37 217.601 213.03C217.601 212.33 217.171 211.98 216.301 211.98H214.641V214.05H216.301C216.751 214.05 217.081 213.97 217.291 213.8H217.281Z" fill="#231815"/>
<path d="M227.221 214.05V214.6H223.561V214.1L225.551 211.89C225.821 211.59 226.011 211.32 226.131 211.08C226.251 210.84 226.311 210.6 226.311 210.36C226.311 210.05 226.221 209.8 226.041 209.64C225.861 209.48 225.601 209.39 225.261 209.39C224.721 209.39 224.181 209.61 223.641 210.05L223.391 209.55C223.611 209.34 223.901 209.17 224.241 209.04C224.581 208.91 224.931 208.85 225.271 208.85C225.791 208.85 226.211 208.98 226.511 209.25C226.811 209.52 226.971 209.88 226.971 210.34C226.971 210.67 226.901 210.98 226.751 211.28C226.601 211.58 226.361 211.92 226.021 212.29L224.401 214.05H227.221V214.05Z" fill="#231815"/>
<path d="M231.649 212.169C231.829 212.399 231.909 212.699 231.909 213.059C231.909 213.559 231.739 213.949 231.409 214.229C231.079 214.509 230.619 214.659 230.039 214.659C229.669 214.659 229.319 214.599 228.979 214.479C228.639 214.359 228.349 214.179 228.119 213.959L228.379 213.459C228.909 213.899 229.459 214.119 230.029 214.119C230.439 214.119 230.739 214.029 230.949 213.849C231.159 213.669 231.269 213.399 231.269 213.049C231.269 212.349 230.829 211.999 229.959 211.999H229.299V211.449H229.829C230.249 211.449 230.569 211.359 230.799 211.169C231.019 210.979 231.139 210.719 231.139 210.369C231.139 210.059 231.049 209.819 230.859 209.659C230.679 209.489 230.419 209.409 230.079 209.409C229.539 209.409 228.999 209.629 228.459 210.069L228.209 209.569C228.439 209.349 228.719 209.179 229.049 209.049C229.379 208.929 229.729 208.859 230.089 208.859C230.599 208.859 231.009 208.989 231.319 209.249C231.629 209.509 231.779 209.859 231.779 210.309C231.779 210.639 231.699 210.919 231.539 211.169C231.379 211.419 231.159 211.589 230.879 211.699C231.219 211.799 231.469 211.959 231.649 212.199V212.169Z" fill="#231815"/>
<path d="M236.77 208.899V209.389L234.1 214.599H233.4L236.06 209.459H233.02V208.909H236.78L236.77 208.899Z" fill="#231815"/>
<path d="M239.199 215.039L241.259 208.609H241.859L239.799 215.039H239.209H239.199Z" fill="#231815"/>
<path d="M248.08 214.05V214.6H244.42V214.1L246.41 211.89C246.68 211.59 246.87 211.32 246.99 211.08C247.11 210.84 247.17 210.6 247.17 210.36C247.17 210.05 247.08 209.8 246.9 209.64C246.72 209.48 246.46 209.39 246.12 209.39C245.58 209.39 245.04 209.61 244.5 210.05L244.25 209.55C244.47 209.34 244.76 209.17 245.1 209.04C245.44 208.91 245.79 208.85 246.13 208.85C246.65 208.85 247.07 208.98 247.37 209.25C247.67 209.52 247.83 209.88 247.83 210.34C247.83 210.67 247.76 210.98 247.61 211.28C247.46 211.58 247.22 211.92 246.88 212.29L245.26 214.05H248.08V214.05Z" fill="#231815"/>
<path d="M252.83 208.899V209.389L250.16 214.599H249.46L252.12 209.459H249.08V208.909H252.84L252.83 208.899Z" fill="#231815"/>
<path d="M255.25 215.039L257.31 208.609H257.91L255.85 215.039H255.26H255.25Z" fill="#231815"/>
<path d="M264.339 213.359H263.479V214.599H262.819V213.359H260.199V212.859L262.939 208.899H263.479V212.809H264.339V213.349V213.359ZM262.819 212.819V210.019L260.879 212.819H262.819Z" fill="#231815"/>
<path d="M268.891 208.899V209.389L266.221 214.599H265.521L268.181 209.459H265.141V208.909H268.901L268.891 208.899Z" fill="#231815"/>
<path d="M210.539 218.899L208.549 224.599H207.989L206.369 219.939L204.739 224.599H204.189L202.189 218.899H202.859L204.479 223.659L206.139 218.899H206.639L208.269 223.679L209.899 218.899H210.549H210.539Z" fill="#231815"/>
<path d="M214.35 222.56H211.4C211.4 223.07 211.52 223.46 211.76 223.72C211.99 223.98 212.33 224.11 212.77 224.11C213.24 224.11 213.67 223.95 214.07 223.64L214.29 224.11C214.11 224.28 213.89 224.41 213.61 224.5C213.34 224.6 213.05 224.64 212.77 224.64C212.14 224.64 211.65 224.46 211.29 224.08C210.93 223.7 210.75 223.2 210.75 222.56C210.75 222.15 210.83 221.79 210.99 221.47C211.15 221.15 211.37 220.91 211.66 220.73C211.95 220.55 212.28 220.47 212.64 220.47C213.17 220.47 213.59 220.64 213.9 220.99C214.2 221.34 214.36 221.82 214.36 222.43V222.55L214.35 222.56ZM211.83 221.28C211.62 221.48 211.48 221.77 211.43 222.14H213.77C213.74 221.76 213.63 221.47 213.44 221.28C213.25 221.08 212.99 220.98 212.65 220.98C212.31 220.98 212.04 221.08 211.83 221.28Z" fill="#231815"/>
<path d="M218.28 220.729C218.55 220.899 218.76 221.139 218.91 221.449C219.06 221.759 219.13 222.129 219.13 222.539C219.13 222.949 219.06 223.319 218.91 223.639C218.76 223.959 218.55 224.199 218.28 224.379C218.01 224.559 217.7 224.639 217.34 224.639C217.03 224.639 216.75 224.569 216.52 224.429C216.29 224.289 216.11 224.089 215.98 223.839V224.579H215.33V218.689H215.98V221.269C216.1 221.009 216.27 220.809 216.51 220.669C216.75 220.529 217.02 220.459 217.34 220.459C217.69 220.459 218 220.549 218.28 220.719V220.729ZM218.14 223.699C218.36 223.419 218.47 223.039 218.47 222.539C218.47 222.039 218.36 221.679 218.15 221.409C217.93 221.139 217.63 221.009 217.23 221.009C216.83 221.009 216.52 221.139 216.31 221.409C216.1 221.679 215.99 222.059 215.99 222.549C215.99 223.039 216.1 223.429 216.31 223.699C216.52 223.969 216.83 224.099 217.23 224.099C217.63 224.099 217.92 223.959 218.14 223.689V223.699Z" fill="#231815"/>
<path d="M223.33 224.31C222.93 224.08 222.63 223.74 222.41 223.3C222.2 222.86 222.09 222.34 222.09 221.74C222.09 221.14 222.2 220.63 222.41 220.19C222.62 219.75 222.93 219.42 223.33 219.19C223.73 218.96 224.2 218.84 224.73 218.84C225.12 218.84 225.49 218.9 225.81 219.02C226.14 219.14 226.42 219.32 226.66 219.56L226.41 220.06C226.14 219.83 225.87 219.66 225.61 219.56C225.35 219.46 225.05 219.41 224.73 219.41C224.11 219.41 223.62 219.61 223.28 220.02C222.94 220.43 222.76 221 222.76 221.75C222.76 222.5 222.93 223.08 223.27 223.49C223.61 223.9 224.1 224.1 224.73 224.1C225.05 224.1 225.34 224.05 225.61 223.95C225.87 223.85 226.14 223.68 226.41 223.45L226.66 223.95C226.42 224.19 226.14 224.37 225.81 224.49C225.48 224.61 225.12 224.67 224.73 224.67C224.19 224.67 223.72 224.55 223.33 224.32V224.31Z" fill="#231815"/>
<path d="M228.291 224.399C228.001 224.229 227.781 223.989 227.621 223.669C227.461 223.359 227.381 222.989 227.381 222.569C227.381 222.149 227.461 221.779 227.621 221.469C227.781 221.159 228.001 220.91 228.291 220.74C228.581 220.57 228.911 220.479 229.291 220.479C229.671 220.479 230.001 220.57 230.291 220.74C230.581 220.91 230.801 221.149 230.961 221.469C231.121 221.789 231.201 222.149 231.201 222.569C231.201 222.989 231.121 223.359 230.961 223.669C230.801 223.979 230.581 224.229 230.291 224.399C230.001 224.569 229.671 224.659 229.291 224.659C228.911 224.659 228.581 224.579 228.291 224.399ZM230.211 223.719C230.421 223.459 230.531 223.069 230.531 222.559C230.531 222.049 230.421 221.689 230.201 221.419C229.981 221.149 229.681 221.02 229.291 221.02C228.901 221.02 228.591 221.149 228.371 221.419C228.151 221.689 228.041 222.069 228.041 222.559C228.041 223.049 228.151 223.449 228.361 223.719C228.581 223.979 228.881 224.119 229.281 224.119C229.681 224.119 229.991 223.989 230.201 223.719H230.211Z" fill="#231815"/>
<path d="M232.199 218.71H232.849V224.6H232.199V218.71Z" fill="#231815"/>
<path d="M234.769 224.399C234.479 224.229 234.259 223.989 234.099 223.669C233.939 223.359 233.859 222.989 233.859 222.569C233.859 222.149 233.939 221.779 234.099 221.469C234.259 221.159 234.479 220.91 234.769 220.74C235.059 220.57 235.389 220.479 235.769 220.479C236.149 220.479 236.479 220.57 236.769 220.74C237.059 220.91 237.279 221.149 237.439 221.469C237.599 221.789 237.679 222.149 237.679 222.569C237.679 222.989 237.599 223.359 237.439 223.669C237.279 223.979 237.059 224.229 236.769 224.399C236.479 224.569 236.149 224.659 235.769 224.659C235.389 224.659 235.059 224.579 234.769 224.399ZM236.689 223.719C236.899 223.459 237.009 223.069 237.009 222.559C237.009 222.049 236.899 221.689 236.679 221.419C236.459 221.149 236.159 221.02 235.769 221.02C235.379 221.02 235.069 221.149 234.849 221.419C234.629 221.689 234.519 222.069 234.519 222.559C234.519 223.049 234.629 223.449 234.839 223.719C235.059 223.979 235.359 224.119 235.759 224.119C236.159 224.119 236.469 223.989 236.679 223.719H236.689Z" fill="#231815"/>
<path d="M240.919 220.52L240.899 221.11C240.779 221.07 240.639 221.05 240.479 221.05C240.089 221.05 239.799 221.17 239.609 221.41C239.419 221.65 239.329 221.95 239.329 222.29V224.59H238.679V221.69C238.679 221.27 238.659 220.9 238.619 220.56H239.239L239.299 221.3C239.399 221.03 239.559 220.82 239.789 220.68C240.009 220.54 240.269 220.46 240.559 220.46C240.689 220.46 240.819 220.48 240.929 220.51L240.919 220.52Z" fill="#231815"/>
<path d="M249.12 222.56H246.17C246.17 223.07 246.29 223.46 246.53 223.72C246.76 223.98 247.1 224.11 247.54 224.11C248.01 224.11 248.44 223.95 248.84 223.64L249.06 224.11C248.88 224.28 248.66 224.41 248.38 224.5C248.11 224.6 247.82 224.64 247.54 224.64C246.91 224.64 246.42 224.46 246.06 224.08C245.7 223.7 245.52 223.2 245.52 222.56C245.52 222.15 245.6 221.79 245.76 221.47C245.92 221.15 246.14 220.91 246.43 220.73C246.72 220.55 247.05 220.47 247.41 220.47C247.94 220.47 248.36 220.64 248.67 220.99C248.97 221.34 249.13 221.82 249.13 222.43V222.55L249.12 222.56ZM246.6 221.28C246.39 221.48 246.25 221.77 246.2 222.14H248.54C248.51 221.76 248.4 221.47 248.21 221.28C248.02 221.08 247.76 220.98 247.42 220.98C247.08 220.98 246.81 221.08 246.6 221.28Z" fill="#231815"/>
<path d="M253.649 218.71V224.6H253.009V223.87C252.889 224.12 252.719 224.31 252.479 224.45C252.239 224.59 251.969 224.65 251.649 224.65C251.299 224.65 250.989 224.56 250.719 224.39C250.449 224.21 250.239 223.97 250.089 223.65C249.939 223.33 249.869 222.97 249.869 222.55C249.869 222.13 249.939 221.77 250.089 221.46C250.239 221.15 250.449 220.91 250.719 220.74C250.989 220.57 251.299 220.48 251.659 220.48C251.969 220.48 252.249 220.55 252.479 220.68C252.709 220.82 252.889 221.01 253.009 221.25V218.71H253.659H253.649ZM252.689 223.71C252.899 223.44 253.009 223.06 253.009 222.56C253.009 222.06 252.899 221.69 252.689 221.42C252.479 221.15 252.169 221.02 251.779 221.02C251.389 221.02 251.079 221.15 250.859 221.42C250.639 221.69 250.529 222.06 250.529 222.55C250.529 223.04 250.639 223.43 250.859 223.71C251.079 223.98 251.389 224.12 251.779 224.12C252.169 224.12 252.479 223.99 252.689 223.72V223.71Z" fill="#231815"/>
<path d="M258.481 224.049V224.599H255.301V224.049H256.561V219.719L255.391 220.459V219.829L256.851 218.899H257.231V224.039H258.491L258.481 224.049Z" fill="#231815"/>
<path d="M262.649 220.729C262.919 220.899 263.129 221.139 263.279 221.449C263.429 221.759 263.499 222.129 263.499 222.539C263.499 222.949 263.429 223.319 263.279 223.639C263.129 223.959 262.919 224.199 262.649 224.379C262.379 224.559 262.069 224.639 261.709 224.639C261.399 224.639 261.119 224.569 260.889 224.429C260.659 224.289 260.479 224.089 260.349 223.839V224.579H259.699V218.689H260.349V221.269C260.469 221.009 260.639 220.809 260.879 220.669C261.119 220.529 261.389 220.459 261.709 220.459C262.059 220.459 262.369 220.549 262.649 220.719V220.729ZM262.509 223.699C262.729 223.419 262.839 223.039 262.839 222.539C262.839 222.039 262.729 221.679 262.519 221.409C262.299 221.139 261.999 221.009 261.599 221.009C261.199 221.009 260.889 221.139 260.679 221.409C260.469 221.679 260.359 222.059 260.359 222.549C260.359 223.039 260.469 223.429 260.679 223.699C260.889 223.969 261.199 224.099 261.599 224.099C261.999 224.099 262.289 223.959 262.509 223.689V223.699Z" fill="#231815"/>
<path d="M268.211 224.05V224.6H264.551V224.1L266.541 221.89C266.811 221.59 267.001 221.32 267.121 221.08C267.241 220.84 267.301 220.6 267.301 220.36C267.301 220.05 267.211 219.8 267.031 219.64C266.851 219.48 266.591 219.39 266.251 219.39C265.711 219.39 265.171 219.61 264.631 220.05L264.381 219.55C264.601 219.34 264.891 219.17 265.231 219.04C265.571 218.91 265.921 218.85 266.261 218.85C266.781 218.85 267.201 218.98 267.501 219.25C267.801 219.52 267.961 219.88 267.961 220.34C267.961 220.67 267.891 220.98 267.741 221.28C267.591 221.58 267.351 221.92 267.011 222.29L265.391 224.05H268.211V224.05Z" fill="#231815"/>
<path d="M270.35 219.42C270.23 219.54 270.17 219.75 270.17 220.04V220.58H271.15V221.09H270.17V224.6H269.52V221.09H268.74V220.58H269.52V219.96C269.52 219.54 269.63 219.22 269.84 219C270.05 218.78 270.35 218.68 270.72 218.68C270.91 218.68 271.09 218.7 271.26 218.75V219.3C271.11 219.26 270.97 219.24 270.84 219.24C270.63 219.24 270.46 219.3 270.34 219.42H270.35Z" fill="#231815"/>
<path d="M126.027 213.2C126.027 213.2 114.777 244.56 101.577 261.29C94.5672 270.17 90.1272 274.12 87.4872 275.87C86.6372 275.64 85.7772 275.4 84.9072 275.14C81.7172 273.88 73.9972 269.17 72.2672 253.02C70.3672 235.09 75.9372 206.07 75.9372 206.07C75.9372 206.07 65.2872 232.56 59.5372 262.05C22.4172 230.21 60.5072 166.23 56.8872 109.19C51.7272 27.75 2.73717 0 2.73717 0C2.73717 0 34.3972 33.42 29.6972 101.93C25.3272 165.22 -0.492835 172.71 0.00716534 231.1C0.697165 308.71 63.5072 324.48 86.4672 324.48C109.427 324.48 171.327 311.89 166.837 237.45C166.837 237.45 148.497 273.51 112.157 277.83L112.137 277.78C112.137 277.78 116.327 266.64 119.757 253.53C125.197 232.78 126.017 213.2 126.017 213.2" fill="#ED1A2E"/>
<path d="M75.8169 205.62C75.8169 205.62 42.3369 243.35 33.7769 271.56C28.2669 289.65 28.6369 298.09 29.8769 302.79C45.6769 317.89 77.0269 323.78 77.0269 323.78C77.0269 323.78 56.4269 315.13 57.4469 287.13C58.4669 259.12 75.8269 205.62 75.8269 205.62M125.497 213.99C125.497 213.99 112.967 232.53 100.457 245.5C86.8369 259.62 74.4669 265.35 74.4669 265.35C74.1869 271.05 82.3569 276.76 86.1569 277.54C89.9769 278.31 99.7269 272.35 109.157 257.56C119.897 240.71 125.487 214 125.487 214" fill="#F3705C"/>
<defs>
<filter id="filter0_d_645_715" x="187" y="177.25" width="162.66" height="68.5195" filterUnits="userSpaceOnUse" color-interpolation-filters="sRGB">
<feFlood flood-opacity="0" result="BackgroundImageFix"/>
<feColorMatrix in="SourceAlpha" type="matrix" values="0 0 0 0 0 0 0 0 0 0 0 0 0 0 0 0 0 0 127 0" result="hardAlpha"/>
<feOffset dy="6"/>
<feGaussianBlur stdDeviation="4"/>
<feComposite in2="hardAlpha" operator="out"/>
<feColorMatrix type="matrix" values="0 0 0 0 0 0 0 0 0 0 0 0 0 0 0 0 0 0 0.1 0"/>
<feBlend mode="normal" in2="BackgroundImageFix" result="effect1_dropShadow_645_715"/>
<feBlend mode="normal" in="SourceGraphic" in2="effect1_dropShadow_645_715" result="shape"/>
</filter>
</defs>
</svg>
