<svg width="168" height="325" viewBox="0 0 168 325" fill="none" xmlns="http://www.w3.org/2000/svg">
<path d="M126.027 213.2C126.027 213.2 114.777 244.56 101.577 261.29C94.5672 270.17 90.1272 274.12 87.4872 275.87C86.6372 275.64 85.7772 275.4 84.9072 275.14C81.7172 273.88 73.9972 269.17 72.2672 253.02C70.3672 235.09 75.9372 206.07 75.9372 206.07C75.9372 206.07 65.2872 232.56 59.5372 262.05C22.4172 230.21 60.5072 166.23 56.8872 109.19C51.7272 27.75 2.73717 0 2.73717 0C2.73717 0 34.3972 33.42 29.6972 101.93C25.3272 165.22 -0.492835 172.71 0.00716534 231.1C0.697165 308.71 63.5072 324.48 86.4672 324.48C109.427 324.48 171.327 311.89 166.837 237.45C166.837 237.45 148.497 273.51 112.157 277.83L112.137 277.78C112.137 277.78 116.327 266.64 119.757 253.53C125.197 232.78 126.017 213.2 126.017 213.2" fill="#ED1A2E"/>
<path d="M75.8169 205.62C75.8169 205.62 42.3369 243.35 33.7769 271.56C28.2669 289.65 28.6369 298.09 29.8769 302.79C45.6769 317.89 77.0269 323.78 77.0269 323.78C77.0269 323.78 56.4269 315.13 57.4469 287.13C58.4669 259.12 75.8269 205.62 75.8269 205.62M125.497 213.99C125.497 213.99 112.967 232.53 100.457 245.5C86.8369 259.62 74.4669 265.35 74.4669 265.35C74.1869 271.05 82.3569 276.76 86.1569 277.54C89.9769 278.31 99.7269 272.35 109.157 257.56C119.897 240.71 125.487 214 125.487 214" fill="#F3705C"/>
</svg>
