<svg width="129" height="12" viewBox="0 0 129 12" fill="none" xmlns="http://www.w3.org/2000/svg">
<path d="M4.86 3.18965C4.93 2.54965 4.98 1.87965 4.99 1.18965V0.139648H6.14V0.919648C6.14 1.70965 6.09 2.46965 6 3.18965H10.87V4.28965H6.29C7.13 6.85965 8.75 8.83965 11.12 10.2396L10.41 11.1596C8.11 9.73965 6.49 7.76965 5.58 5.21965C4.79 7.96965 3.17 9.97965 0.73 11.2596L0 10.2996C2.47 9.09965 4.03 7.08965 4.67 4.27965H0.26V3.17965H4.86V3.18965Z" fill="black"/>
<path d="M22.8802 5.37977H21.7402V3.56977H13.6202V5.37977H12.4902V2.47977H14.6502C14.2702 1.82977 13.8702 1.25977 13.4602 0.749766L14.4902 0.249766C14.9002 0.799766 15.3102 1.42977 15.6902 2.09977L14.9202 2.47977H19.4202C19.9102 1.73977 20.3302 0.929766 20.6902 0.0697656L21.8702 0.499766C21.4702 1.27977 21.0802 1.93977 20.6702 2.47977H22.8802V5.37977ZM20.9402 4.31977V5.32977C20.1802 5.81977 19.3402 6.28977 18.4102 6.74977V7.16977H22.8802V8.24977H18.4102V10.0798C18.4102 10.7898 18.0302 11.1498 17.2702 11.1498H15.7502L15.4702 10.1198C15.9002 10.1298 16.3702 10.1398 16.8902 10.1398C17.1402 10.1398 17.2702 9.97977 17.2702 9.67977V8.23977H12.5302V7.15977H17.2702V6.24977C18.1102 5.88977 18.7902 5.57977 19.3002 5.32977H14.4602V4.31977H20.9502H20.9402ZM18.5102 1.93977L17.4902 2.45977C17.1302 1.72977 16.7502 1.07977 16.3402 0.509766L17.3602 0.00976562C17.7602 0.599766 18.1402 1.24977 18.5002 1.94977L18.5102 1.93977Z" fill="black"/>
<path d="M27.0795 0.169922V2.33992H28.3695V3.42992H27.0795V4.20992C27.6395 4.76992 28.2195 5.39992 28.7895 6.08992L28.1395 7.05992C27.7295 6.40992 27.3695 5.86992 27.0695 5.43992V11.1899H25.9495V5.73992C25.5995 6.70992 25.1795 7.60992 24.6795 8.42992L24.1895 7.17992C24.9895 6.07992 25.5795 4.82992 25.9395 3.42992H24.5895V2.33992H25.9595V0.169922H27.0795V0.169922ZM30.5495 5.83992C30.1695 7.51992 29.6295 8.95992 28.9295 10.1799L27.9295 9.53992C28.6695 8.31992 29.1895 7.00992 29.4995 5.60992L30.5395 5.83992H30.5495ZM30.0695 11.0699L29.8395 9.99992C30.1995 10.0499 30.5595 10.0699 30.8995 10.0699C31.1895 10.0699 31.3395 9.89992 31.3395 9.57992V4.73992H28.5195V3.64992H35.3195V4.73992H32.4795V9.85992C32.4795 10.6599 32.0695 11.0699 31.2795 11.0699H30.0695V11.0699ZM34.6995 0.759922V1.82992H29.1495V0.759922H34.6995ZM35.3595 9.83992L34.3195 10.3099C33.9495 8.62992 33.5395 7.15992 33.1095 5.85992L34.1295 5.51992C34.6095 6.85992 35.0195 8.29992 35.3695 9.83992H35.3595Z" fill="black"/>
<path d="M38.5995 6.88035C38.3195 8.28035 37.9295 9.49035 37.4195 10.5104L36.4395 9.90035C36.9295 8.89035 37.2795 7.80035 37.4795 6.64035L38.5995 6.88035V6.88035ZM42.4995 0.110352V1.58035H47.0795V2.68035H42.4995V4.25035H46.2995V5.33035H37.5695V4.25035H41.3495V2.68035H36.7595V1.58035H41.3495V0.110352H42.4995V0.110352ZM40.5395 10.9504C39.6795 10.9504 39.2495 10.4604 39.2495 9.49035V6.26035H40.3995V9.26035C40.3995 9.64035 40.5595 9.85035 40.8895 9.85035H43.4195C43.6495 9.85035 43.8195 9.77035 43.9195 9.60035C44.0595 9.43035 44.1495 8.90035 44.1995 8.00035L45.2795 8.36035C45.1695 9.61035 44.9895 10.3604 44.7395 10.6004C44.4995 10.8304 44.1295 10.9504 43.6395 10.9504H40.5495H40.5395ZM43.3595 8.26035L42.3095 8.73035C41.9995 7.82035 41.6495 7.03035 41.2695 6.33035L42.3495 5.97035C42.7295 6.69035 43.0795 7.45035 43.3695 8.26035H43.3595ZM47.4495 9.65035L46.4095 10.1204C45.9695 8.82035 45.4695 7.67035 44.9495 6.69035L46.0195 6.33035C46.5695 7.36035 47.0495 8.48035 47.4595 9.65035H47.4495Z" fill="black"/>
<path d="M54.6292 0.0800781V2.16008H58.8992V7.95008H57.7592V7.27008H54.6292V11.2901H53.4592V7.27008H50.3392V7.95008H49.1992V2.16008H53.4592V0.0800781H54.6292ZM53.4592 6.15008V3.27008H50.3392V6.15008H53.4592ZM57.7692 6.15008V3.27008H54.6392V6.15008H57.7692Z" fill="black"/>
<path d="M65.1191 10.4604H64.0291V9.84035H62.1291V10.8104H61.0391V2.11035H62.1791C62.3991 1.46035 62.5591 0.800352 62.6591 0.110352L63.7991 0.270352C63.6791 0.930352 63.4991 1.54035 63.2691 2.12035H65.1191V10.4604V10.4604ZM64.0291 5.40035V3.19035H62.1291V5.40035H64.0291V5.40035ZM64.0291 8.78035V6.42035H62.1291V8.78035H64.0291ZM71.1291 9.78035C71.0091 10.6404 70.4291 11.0804 69.4191 11.0804C69.1791 11.0804 68.7491 11.0604 68.1491 11.0204L67.8691 9.98035C68.3991 10.0004 68.8491 10.0304 69.2391 10.0304C69.7191 10.0304 69.9891 9.78035 70.0691 9.27035C70.1391 8.67035 70.1791 6.66035 70.1991 3.24035H67.1891C66.8491 3.96035 66.4691 4.62035 66.0091 5.22035L65.3291 4.32035C66.1191 3.17035 66.6691 1.77035 66.9591 0.110352L68.0891 0.250352C67.9691 0.920352 67.7991 1.55035 67.6091 2.13035H71.3191C71.3191 6.27035 71.2591 8.82035 71.1391 9.78035H71.1291ZM69.0991 7.57035L68.1991 8.21035C67.7391 7.42035 67.1191 6.54035 66.3491 5.57035L67.2691 4.99035C68.0591 5.97035 68.6691 6.82035 69.0891 7.57035H69.0991Z" fill="black"/>
<path d="M83.4099 3.77H82.2599V2.25H74.3199V3.76H73.1699V1.14H77.6699C77.4999 0.8 77.3099 0.48 77.1099 0.19L78.3499 0C78.5199 0.34 78.6899 0.71 78.8499 1.14H83.4199V3.77H83.4099ZM81.7099 6.37H75.9499V7.43H82.2599V11.21H81.1299V10.78H75.9499V11.22H74.8199V3.19H81.6999V6.37H81.7099ZM80.5899 5.39V4.18H75.9499V5.39H80.5899ZM81.1299 9.79V8.4H75.9499V9.79H81.1299Z" fill="black"/>
<path d="M90.1498 1.81031C89.9198 1.34031 89.6598 0.900313 89.3498 0.470313L90.4298 0.0703125C90.7498 0.560313 91.0498 1.14031 91.3198 1.81031H95.7698V2.91031H89.5298L89.4298 4.79031H94.3699C94.3299 7.37031 94.2298 8.99031 94.0298 9.65031C93.7698 10.6103 93.1698 11.1003 92.2198 11.1303C91.8398 11.1303 91.3698 11.1103 90.8398 11.0703L90.4998 10.0403C91.1398 10.0603 91.6798 10.0903 92.1098 10.0903C92.6098 10.0703 92.9398 9.71031 93.0798 8.99031C93.1498 8.58031 93.1898 7.54031 93.2098 5.88031H89.2898C89.1198 6.80031 88.8298 7.65031 88.3998 8.42031C87.8098 9.45031 86.9798 10.4003 85.9298 11.2603L85.0998 10.4703C86.3698 9.40031 87.2099 8.42031 87.6199 7.51031C88.0299 6.60031 88.2598 5.58031 88.3198 4.45031C88.3398 3.79031 88.3698 3.27031 88.3898 2.91031H85.0898V1.81031H90.1398H90.1498Z" fill="black"/>
<path d="M105.78 3.44V4.5C105.02 5.03 104.18 5.56 103.25 6.07V6.66H107.88V7.76H103.25V10.01C103.25 10.77 102.85 11.15 102.06 11.15H100.58L100.3 10.12C100.72 10.13 101.18 10.14 101.67 10.14C101.96 10.14 102.1 9.96 102.1 9.61V7.75H97.1797V6.65H102.1V5.59C102.94 5.15 103.6 4.77 104.08 4.49H99.2497V3.43H105.77L105.78 3.44ZM107.69 4.1H106.54V2.37H98.5297V4.1H97.3797V1.29H101.96C101.79 0.91 101.62 0.55 101.43 0.22L102.74 0C102.91 0.38 103.08 0.8 103.23 1.28H107.69V4.09V4.1Z" fill="black"/>
<path d="M109.42 6.38031L109.08 5.24031C110.26 3.76031 111.13 2.04031 111.68 0.0703125L112.7 0.550313C112.41 1.52031 112.03 2.45031 111.56 3.33031V11.2103H110.44V5.11031C110.12 5.54031 109.77 5.97031 109.41 6.38031H109.42ZM115.44 2.06031V0.120312H116.56V2.06031H119.74V3.15031H117.46C117.99 5.02031 118.91 6.70031 120.21 8.16031L119.48 9.08031C118.09 7.32031 117.12 5.34031 116.56 3.14031V7.74031H118.28V8.83031H116.56V11.2003H115.44V8.83031H113.76V7.74031H115.44V3.15031C114.84 5.62031 113.83 7.65031 112.42 9.23031L111.83 8.26031C113.07 6.92031 113.96 5.21031 114.53 3.15031H112.41V2.06031H115.44Z" fill="black"/>
<path d="M127.929 4.5198C128.249 4.8198 128.419 5.1898 128.419 5.6498C128.419 6.1098 128.249 6.4698 127.929 6.7798C127.609 7.0898 127.219 7.2498 126.769 7.2498C126.319 7.2498 125.919 7.0898 125.609 6.7798C125.269 6.4798 125.119 6.1098 125.119 5.6498C125.119 5.1898 125.279 4.8098 125.609 4.5098C125.919 4.1998 126.319 4.0498 126.769 4.0498C127.219 4.0498 127.609 4.2098 127.929 4.5198V4.5198ZM126.179 5.0798C126.009 5.2198 125.939 5.4198 125.939 5.6398C125.939 5.8598 126.009 6.0498 126.179 6.1998C126.349 6.3498 126.539 6.4398 126.769 6.4398C126.989 6.4398 127.189 6.3598 127.359 6.1998C127.519 6.0398 127.599 5.8498 127.599 5.6398C127.599 5.4098 127.519 5.2198 127.359 5.0798C127.189 4.9098 126.989 4.8398 126.769 4.8398C126.539 4.8398 126.349 4.9098 126.179 5.0798Z" fill="black"/>
</svg>
