<svg width="165" height="12" viewBox="0 0 165 12" fill="none" xmlns="http://www.w3.org/2000/svg">
<path d="M4.86 3.18965C4.93 2.54965 4.98 1.87965 4.99 1.18965V0.139648H6.14V0.919648C6.14 1.70965 6.09 2.46965 6 3.18965H10.87V4.28965H6.29C7.13 6.85965 8.75 8.83965 11.12 10.2396L10.41 11.1596C8.11 9.73965 6.49 7.76965 5.58 5.21965C4.79 7.96965 3.17 9.97965 0.73 11.2596L0 10.2996C2.47 9.09965 4.03 7.08965 4.67 4.27965H0.26V3.17965H4.86V3.18965Z" fill="black"/>
<path d="M20.9599 6.30043V7.14043C20.1799 7.48043 19.3099 7.81043 18.3499 8.12043V8.32043H22.9699V9.24043H18.3499V10.1204C18.3499 10.7904 17.9899 11.1404 17.2699 11.1404H15.8899L15.6399 10.2204C16.0399 10.2404 16.4699 10.2604 16.9299 10.2604C17.1799 10.2604 17.3099 10.1004 17.3099 9.80043V9.25043H12.4199V8.33043H17.3099V7.73043C18.0799 7.50043 18.7099 7.31043 19.1999 7.14043H14.2699V6.30043H20.9499H20.9599ZM14.2599 3.47043H15.9399V4.25043H14.3299L14.3799 4.89043H20.9799L21.0299 4.25043H19.4299V3.47043H21.0899L21.1299 2.88043H19.4699V2.10043H21.1699L21.2199 1.43043H19.3599V0.52043H22.2899L22.0099 4.89043H22.8399V6.90043H21.7499V5.72043H13.6299V6.88043H12.5399V4.88043H13.3599L13.0499 0.73043C13.9099 0.63043 14.7799 0.45043 15.6499 0.19043L16.0099 1.05043C15.6099 1.19043 14.9799 1.34043 14.0999 1.49043L14.1499 2.09043H15.8999V2.87043H14.2099L14.2599 3.46043V3.47043ZM17.7099 1.02043C17.9499 0.80043 18.1699 0.58043 18.3699 0.34043L19.0099 0.72043C18.7799 1.00043 18.5699 1.24043 18.3499 1.45043C18.6099 1.64043 18.8699 1.83043 19.0899 2.03043L18.6099 2.51043L19.1499 2.86043C18.9099 3.15043 18.6699 3.40043 18.4299 3.60043C18.7199 3.79043 18.9699 4.00043 19.2099 4.20043L18.6699 4.74043C18.4199 4.51043 18.1399 4.28043 17.8299 4.07043C17.5099 4.29043 17.1099 4.50043 16.6399 4.73043L16.2199 4.06043C16.5399 3.94043 16.8599 3.80043 17.1599 3.63043C16.9099 3.46043 16.6399 3.31043 16.3799 3.16043L16.9099 2.64043C17.2199 2.81043 17.5199 2.99043 17.7999 3.17043C18.0399 2.97043 18.2599 2.74043 18.4699 2.50043C18.2499 2.31043 18.0099 2.12043 17.7499 1.92043C17.4099 2.15043 17.0099 2.39043 16.5099 2.63043L16.0899 1.96043C16.4499 1.84043 16.7899 1.67043 17.1099 1.48043C16.8499 1.30043 16.5599 1.12043 16.2699 0.95043L16.7899 0.46043C17.1099 0.65043 17.4199 0.83043 17.7099 1.02043V1.02043Z" fill="black"/>
<path d="M30.3909 0.0800781V2.16008H34.6609V7.95008H33.5209V7.27008H30.3909V11.2901H29.2209V7.27008H26.1009V7.95008H24.9609V2.16008H29.2209V0.0800781H30.3909ZM29.2209 6.15008V3.27008H26.1009V6.15008H29.2209ZM33.5309 6.15008V3.27008H30.4009V6.15008H33.5309Z" fill="black"/>
<path d="M41.4697 2.05977C41.1597 1.47977 40.7697 0.939766 40.3197 0.429766L41.4597 0.00976562C41.8897 0.589766 42.2997 1.26977 42.6697 2.05977H47.2197V3.18977H45.3897C44.8097 5.00977 43.9597 6.53977 42.8397 7.76977C44.0897 8.78977 45.6497 9.63977 47.4897 10.3098L46.8497 11.2698C44.9197 10.5498 43.3097 9.64977 42.0397 8.56977C40.6797 9.76977 39.0197 10.6598 37.0397 11.2298L36.4297 10.2198C38.3697 9.71977 39.9697 8.92977 41.2397 7.82977C39.9197 6.50977 38.9997 4.94977 38.4797 3.17977H36.6497V2.04977H41.4797L41.4697 2.05977ZM42.0197 7.05977C42.9897 5.98977 43.7197 4.69977 44.1997 3.18977H39.5597C40.0597 4.66977 40.8797 5.95977 42.0197 7.05977Z" fill="black"/>
<path d="M49.3799 1.79969V0.679688H58.9299V1.79969H54.9599V4.97969H58.2899V6.06969H54.9599V9.62969H59.4299V10.7497H48.6699V9.62969H50.4599V4.02969H51.5599V9.62969H53.8099V1.79969H49.3699H49.3799Z" fill="black"/>
<path d="M65.7099 2.05977C65.3999 1.47977 65.0099 0.939766 64.5599 0.429766L65.6999 0.00976562C66.1299 0.589766 66.5399 1.26977 66.9099 2.05977H71.4599V3.18977H69.6299C69.0499 5.00977 68.1999 6.53977 67.0799 7.76977C68.3299 8.78977 69.8899 9.63977 71.7299 10.3098L71.0899 11.2698C69.1599 10.5498 67.5499 9.64977 66.2799 8.56977C64.9199 9.76977 63.2599 10.6598 61.2799 11.2298L60.6699 10.2198C62.6099 9.71977 64.2099 8.92977 65.4799 7.82977C64.1599 6.50977 63.2399 4.94977 62.7199 3.17977H60.8899V2.04977H65.7199L65.7099 2.05977ZM66.2599 7.05977C67.2299 5.98977 67.9599 4.69977 68.4399 3.18977H63.7999C64.2999 4.66977 65.1199 5.95977 66.2599 7.05977Z" fill="black"/>
<path d="M77.6597 3.42031H74.8397V11.1103H73.6797V2.33031H77.7797V1.39031H76.4097V0.320312H78.8997V2.33031H82.9497V9.73031C82.9497 10.5803 82.5297 11.0103 81.7097 11.0103H79.8497L79.5597 9.94031L81.3497 9.99031C81.6397 9.99031 81.7797 9.82031 81.7797 9.49031V3.42031H79.0097C79.3197 4.96031 80.2297 6.33031 81.7397 7.58031L80.9597 8.61031C79.7197 7.41031 78.8497 6.12031 78.3197 4.75031C77.7697 6.17031 76.8697 7.48031 75.6197 8.73031L74.8497 7.70031C76.3897 6.40031 77.3197 4.98031 77.6297 3.42031H77.6597Z" fill="black"/>
<path d="M90.8392 3.91008C91.8092 5.09008 93.4892 6.10008 95.8692 6.99008L95.2592 7.91008C94.8492 7.74008 94.4692 7.59008 94.1192 7.43008V11.2101H93.0292V10.7801H87.9292V11.2101H86.8292V7.38008C86.4192 7.57008 85.9892 7.74008 85.5592 7.91008L84.9492 6.99008C87.1292 6.20008 88.8192 5.18008 90.0092 3.91008H90.8492H90.8392ZM89.6292 3.09008C88.6092 3.99008 87.3592 4.78008 85.8792 5.45008L85.1992 4.56008C86.6592 3.95008 87.8892 3.23008 88.8892 2.41008L89.6292 3.08008V3.09008ZM91.0692 1.06008H95.4492V3.35008H94.3492V2.11008H86.4792V3.40008H85.3792V1.07008H89.8792C89.7592 0.780078 89.6292 0.520078 89.4792 0.270078L90.7192 0.0800781C90.8392 0.380078 90.9592 0.720078 91.0792 1.08008L91.0692 1.06008ZM93.3592 7.07008C92.1092 6.42008 91.1392 5.69008 90.4192 4.88008C89.5692 5.74008 88.5692 6.47008 87.4492 7.07008H93.3592ZM93.0192 9.74008V8.07008H87.9192V9.74008H93.0192ZM95.5492 4.63008L94.7592 5.41008C93.9092 4.70008 92.7092 3.93008 91.1692 3.12008L91.8992 2.41008C93.3392 3.15008 94.5592 3.90008 95.5492 4.63008V4.63008Z" fill="black"/>
<path d="M101.48 10.4604H100.39V9.84035H98.4904V10.8104H97.4004V2.11035H98.5404C98.7604 1.46035 98.9204 0.800352 99.0204 0.110352L100.16 0.270352C100.04 0.930352 99.8604 1.54035 99.6304 2.12035H101.48V10.4604V10.4604ZM100.39 5.40035V3.19035H98.4904V5.40035H100.39V5.40035ZM100.39 8.78035V6.42035H98.4904V8.78035H100.39ZM107.49 9.78035C107.37 10.6404 106.79 11.0804 105.78 11.0804C105.54 11.0804 105.11 11.0604 104.51 11.0204L104.23 9.98035C104.76 10.0004 105.21 10.0304 105.6 10.0304C106.08 10.0304 106.35 9.78035 106.43 9.27035C106.5 8.67035 106.54 6.66035 106.56 3.24035H103.55C103.21 3.96035 102.83 4.62035 102.37 5.22035L101.69 4.32035C102.48 3.17035 103.03 1.77035 103.32 0.110352L104.45 0.250352C104.33 0.920352 104.16 1.55035 103.97 2.13035H107.68C107.68 6.27035 107.62 8.82035 107.5 9.78035H107.49ZM105.46 7.57035L104.56 8.21035C104.1 7.42035 103.48 6.54035 102.71 5.57035L103.63 4.99035C104.42 5.97035 105.03 6.82035 105.45 7.57035H105.46Z" fill="black"/>
<path d="M119.769 3.77H118.619V2.25H110.679V3.76H109.529V1.14H114.029C113.859 0.8 113.669 0.48 113.469 0.19L114.709 0C114.879 0.34 115.049 0.71 115.209 1.14H119.779V3.77H119.769ZM118.069 6.37H112.309V7.43H118.619V11.21H117.489V10.78H112.309V11.22H111.179V3.19H118.059V6.37H118.069ZM116.949 5.39V4.18H112.309V5.39H116.949ZM117.489 9.79V8.4H112.309V9.79H117.489V9.79Z" fill="black"/>
<path d="M126.509 1.81031C126.279 1.34031 126.019 0.900313 125.709 0.470313L126.789 0.0703125C127.109 0.560313 127.409 1.14031 127.679 1.81031H132.129V2.91031H125.889L125.789 4.79031H130.729C130.689 7.37031 130.589 8.99031 130.389 9.65031C130.129 10.6103 129.529 11.1003 128.579 11.1303C128.199 11.1303 127.729 11.1103 127.199 11.0703L126.859 10.0403C127.499 10.0603 128.039 10.0903 128.469 10.0903C128.969 10.0703 129.299 9.71031 129.439 8.99031C129.509 8.58031 129.549 7.54031 129.569 5.88031H125.649C125.479 6.80031 125.189 7.65031 124.759 8.42031C124.169 9.45031 123.339 10.4003 122.289 11.2603L121.459 10.4703C122.729 9.40031 123.569 8.42031 123.979 7.51031C124.389 6.60031 124.619 5.58031 124.679 4.45031C124.699 3.79031 124.729 3.27031 124.749 2.91031H121.449V1.81031H126.499H126.509Z" fill="black"/>
<path d="M142.139 3.44V4.5C141.379 5.03 140.539 5.56 139.609 6.07V6.66H144.239V7.76H139.609V10.01C139.609 10.77 139.209 11.15 138.419 11.15H136.939L136.659 10.12C137.079 10.13 137.539 10.14 138.029 10.14C138.319 10.14 138.459 9.96 138.459 9.61V7.75H133.539V6.65H138.459V5.59C139.299 5.15 139.959 4.77 140.439 4.49H135.609V3.43H142.129L142.139 3.44ZM144.049 4.1H142.899V2.37H134.889V4.1H133.739V1.29H138.319C138.149 0.91 137.979 0.55 137.789 0.22L139.099 0C139.269 0.38 139.439 0.8 139.589 1.28H144.049V4.09V4.1Z" fill="black"/>
<path d="M149.811 3.71016H150.221V5.70016H149.671V10.1402C149.671 10.8202 149.321 11.1702 148.641 11.1702H147.911L147.671 10.2602L148.341 10.3102C148.591 10.3102 148.721 10.1802 148.721 9.94016V9.32016H147.241V11.1902H146.281V5.73016H145.721V3.71016H146.161V0.500156H149.811V3.71016V3.71016ZM149.291 5.32016V4.55016H146.651V5.32016H149.291ZM147.581 3.71016V2.12016H148.891V1.38016H147.101V3.71016H147.581ZM148.721 6.20016H147.241V6.92016H148.721V6.20016ZM147.241 8.48016H148.721V7.74016H147.241V8.48016ZM148.881 3.71016V2.89016H148.321V3.71016H148.881ZM155.861 6.62016V9.05016H155.141L154.911 9.93016H156.481V10.8802H150.121V9.93016H151.821L151.561 9.05016H150.861V6.62016H155.851H155.861ZM156.401 5.23016V6.12016H150.371V5.23016H156.401ZM152.071 0.970156V0.160156H153.031V0.970156H153.751V0.160156H154.711V0.970156H156.131V4.74016H150.671V0.970156H152.071V0.970156ZM152.291 2.53016V1.80016H151.531V2.53016H152.291ZM152.291 3.23016H151.531V3.96016H152.291V3.23016ZM154.891 7.43016H151.841V8.22016H154.891V7.43016V7.43016ZM153.921 9.94016L154.151 9.06016H152.581L152.841 9.94016H153.921ZM153.031 2.54016H153.751V1.81016H153.031V2.54016ZM153.751 3.24016H153.031V3.97016H153.751V3.24016ZM154.491 2.54016H155.261V1.81016H154.491V2.54016ZM155.261 3.24016H154.491V3.97016H155.261V3.24016Z" fill="black"/>
<path d="M164.29 4.5198C164.61 4.8198 164.78 5.1898 164.78 5.6498C164.78 6.1098 164.61 6.4698 164.29 6.7798C163.97 7.0898 163.58 7.2498 163.13 7.2498C162.68 7.2498 162.28 7.0898 161.97 6.7798C161.63 6.4798 161.48 6.1098 161.48 5.6498C161.48 5.1898 161.64 4.8098 161.97 4.5098C162.28 4.1998 162.68 4.0498 163.13 4.0498C163.58 4.0498 163.97 4.2098 164.29 4.5198ZM162.54 5.0798C162.37 5.2198 162.3 5.4198 162.3 5.6398C162.3 5.8598 162.37 6.0498 162.54 6.1998C162.71 6.3498 162.9 6.4398 163.13 6.4398C163.35 6.4398 163.55 6.3598 163.72 6.1998C163.88 6.0398 163.96 5.8498 163.96 5.6398C163.96 5.4098 163.88 5.2198 163.72 5.0798C163.55 4.9098 163.35 4.8398 163.13 4.8398C162.9 4.8398 162.71 4.9098 162.54 5.0798Z" fill="black"/>
</svg>
