<svg width="390" height="388" viewBox="0 0 390 388" fill="none" xmlns="http://www.w3.org/2000/svg">
<path d="M249.469 25.9199H36.1094V168.16H249.469V25.9199Z" fill="#003477"/>
<path d="M339.42 100.74H292.1V166.08H360.34V117.23L339.42 100.74Z" fill="#003477"/>
<g filter="url(#filter0_d_810_1891)">
<path d="M360.34 153.78H292.1V167.91H360.34V153.78Z" fill="white"/>
</g>
<path d="M298.6 157.43H300.87C301.46 157.43 301.91 157.57 302.24 157.85C302.57 158.13 302.73 158.52 302.73 159.02C302.73 159.52 302.56 159.91 302.23 160.19C301.9 160.47 301.44 160.62 300.86 160.62H299.24V163.12H298.58V157.42L298.6 157.43ZM300.82 160.08C301.24 160.08 301.56 159.99 301.77 159.81C301.98 159.63 302.09 159.37 302.09 159.03C302.09 158.69 301.98 158.43 301.77 158.25C301.56 158.07 301.24 157.98 300.82 157.98H299.26V160.08H300.82V160.08Z" fill="#231815"/>
<path d="M306.94 161.67H303.96L303.33 163.13H302.65L305.15 157.43H305.73L308.23 163.13H307.56L306.94 161.67V161.67ZM306.71 161.13L305.45 158.2L304.19 161.13H306.7H306.71Z" fill="#231815"/>
<path d="M313.65 157.43V163.13H313.14L309.7 158.55V163.13H309.08V157.43H309.58L313.02 162.01V157.43H313.64H313.65Z" fill="#231815"/>
<path d="M316.429 157.99H314.449V157.43H319.079V157.99H317.099V163.13H316.439V157.99H316.429Z" fill="#231815"/>
<path d="M320.54 162.84C320.15 162.61 319.85 162.27 319.64 161.83C319.43 161.39 319.32 160.87 319.32 160.28C319.32 159.69 319.42 159.16 319.63 158.73C319.84 158.29 320.14 157.96 320.53 157.72C320.92 157.49 321.38 157.37 321.91 157.37C322.44 157.37 322.9 157.49 323.29 157.72C323.68 157.96 323.98 158.29 324.19 158.73C324.4 159.17 324.5 159.68 324.5 160.27C324.5 160.86 324.39 161.39 324.18 161.82C323.97 162.26 323.67 162.59 323.28 162.83C322.89 163.07 322.43 163.19 321.9 163.19C321.37 163.19 320.91 163.07 320.52 162.84H320.54ZM323.32 162.02C323.66 161.61 323.82 161.03 323.82 160.28C323.82 159.53 323.65 158.95 323.32 158.54C322.99 158.13 322.52 157.93 321.91 157.93C321.3 157.93 320.83 158.13 320.49 158.54C320.15 158.95 319.99 159.53 319.99 160.27C319.99 161.01 320.16 161.6 320.49 162.01C320.83 162.42 321.3 162.63 321.91 162.63C322.52 162.63 322.98 162.42 323.32 162.01V162.02Z" fill="#231815"/>
<path d="M330.281 157.43V163.13H329.771L326.331 158.55V163.13H325.711V157.43H326.211L329.651 162.01V157.43H330.271H330.281Z" fill="#231815"/>
<path d="M331.68 157.43H335.28V157.97H332.33V159.95H335.12V160.5H332.33V162.57H335.28V163.11H331.68V157.41V157.43Z" fill="#231815"/>
<path d="M342.09 162.58V163.13H338.43V162.63L340.42 160.42C340.69 160.12 340.88 159.85 341 159.61C341.12 159.37 341.18 159.13 341.18 158.89C341.18 158.58 341.09 158.33 340.91 158.17C340.73 158 340.47 157.92 340.13 157.92C339.59 157.92 339.05 158.14 338.51 158.58L338.26 158.08C338.48 157.87 338.77 157.7 339.11 157.57C339.45 157.44 339.8 157.38 340.14 157.38C340.66 157.38 341.08 157.51 341.38 157.78C341.68 158.05 341.84 158.41 341.84 158.87C341.84 159.2 341.77 159.51 341.62 159.81C341.47 160.11 341.23 160.45 340.89 160.82L339.27 162.58H342.09V162.58Z" fill="#231815"/>
<path d="M346.379 158.09C346.749 158.57 346.939 159.25 346.939 160.14C346.939 161.11 346.749 161.86 346.359 162.39C345.969 162.92 345.429 163.19 344.739 163.19C344.409 163.19 344.099 163.13 343.779 163.01C343.469 162.89 343.189 162.71 342.949 162.49L343.209 161.99C343.479 162.22 343.739 162.39 343.989 162.49C344.239 162.59 344.479 162.65 344.729 162.65C345.219 162.65 345.599 162.43 345.869 161.99C346.139 161.55 346.269 160.94 346.269 160.15V160.05C346.149 160.35 345.949 160.58 345.669 160.76C345.389 160.93 345.079 161.02 344.719 161.02C344.359 161.02 344.069 160.94 343.799 160.79C343.529 160.64 343.319 160.42 343.179 160.15C343.029 159.88 342.959 159.56 342.959 159.21C342.959 158.86 343.039 158.54 343.199 158.27C343.359 158 343.569 157.78 343.849 157.62C344.129 157.46 344.439 157.38 344.789 157.38C345.479 157.38 346.009 157.62 346.379 158.1V158.09ZM345.739 160.11C345.969 159.88 346.089 159.57 346.089 159.2C346.089 158.83 345.969 158.51 345.739 158.28C345.509 158.05 345.199 157.93 344.819 157.93C344.439 157.93 344.159 158.05 343.939 158.28C343.719 158.51 343.599 158.82 343.599 159.2C343.599 159.58 343.709 159.88 343.939 160.12C344.159 160.35 344.459 160.47 344.829 160.47C345.199 160.47 345.509 160.35 345.739 160.12V160.11Z" fill="#231815"/>
<path d="M350.94 159.78C351.21 159.93 351.42 160.14 351.56 160.42C351.7 160.69 351.78 161.01 351.78 161.36C351.78 161.71 351.7 162.03 351.54 162.31C351.38 162.59 351.16 162.8 350.87 162.95C350.58 163.1 350.24 163.18 349.85 163.18C349.5 163.18 349.16 163.12 348.83 162.99C348.5 162.86 348.21 162.69 347.98 162.47L348.23 161.97C348.76 162.41 349.3 162.63 349.85 162.63C350.25 162.63 350.56 162.52 350.79 162.29C351.02 162.06 351.13 161.75 351.13 161.37C351.13 160.99 351.02 160.69 350.79 160.45C350.57 160.22 350.27 160.1 349.89 160.1C349.35 160.1 348.91 160.32 348.59 160.76H348.13V157.42H351.55V157.96H348.79V159.99C349.1 159.69 349.51 159.53 350 159.53C350.36 159.53 350.67 159.61 350.94 159.76V159.78Z" fill="#231815"/>
<path d="M28.8593 147.62H21.5293V46.3398H28.8593V46.5898H21.7793V147.37H28.8593V147.62Z" fill="#231815"/>
<path d="M28.8593 168.16H21.5293V147.62H28.8593V147.87H21.7793V167.91H28.8593V168.16Z" fill="#231815"/>
<path d="M110.351 19.9001H110.101V12.8301H90.0508V19.9001H89.8008V12.5801H110.351V19.9001Z" fill="#231815"/>
<path d="M195.97 177.63H175.42V170.3H175.67V177.38H195.72V170.3H195.97V177.63Z" fill="#231815"/>
<path d="M264.041 46.3399H256.721V46.0899H263.791V25.9199H256.721V25.6699H264.041V46.3399Z" fill="#231815"/>
<path d="M3.33 158.629V159.309H0V158.629H1.25V154.599L0.09 155.319V154.559L1.6 153.619H2.08V158.639H3.33V158.629Z" fill="#231815"/>
<path d="M3.5293 159.77L5.5893 153.31H6.2993L4.2293 159.77H3.5293V159.77Z" fill="#231815"/>
<path d="M9.61055 155.929C9.88055 156.079 10.0905 156.299 10.2305 156.569C10.3805 156.849 10.4505 157.159 10.4505 157.519C10.4505 157.879 10.3705 158.209 10.2105 158.489C10.0505 158.769 9.81055 158.979 9.51055 159.139C9.21055 159.289 8.85055 159.369 8.45055 159.369C8.10055 159.369 7.75055 159.309 7.41055 159.189C7.07055 159.069 6.79055 158.899 6.56055 158.689L6.85055 158.079C7.38055 158.499 7.91055 158.699 8.46055 158.699C8.84055 158.699 9.13055 158.599 9.34055 158.389C9.55055 158.179 9.66055 157.899 9.66055 157.539C9.66055 157.179 9.55055 156.909 9.34055 156.699C9.13055 156.489 8.85055 156.379 8.50055 156.379C7.99055 156.379 7.58055 156.569 7.27055 156.959H6.73055V153.619H10.2205V154.279H7.55055V156.089C7.85055 155.829 8.23055 155.709 8.68055 155.709C9.04055 155.709 9.35055 155.789 9.62055 155.939L9.61055 155.929Z" fill="#231815"/>
<path d="M15.9695 159.309H14.9895L13.3295 157.019L11.6695 159.309H10.6895L12.8595 156.399L10.7895 153.619H11.7595L13.3395 155.799L14.9195 153.619H15.8995L13.8095 156.409L15.9795 159.309H15.9695Z" fill="#231815"/>
<path d="M40.4101 354.46V355.14H37.0801V354.46H38.3301V350.43L37.1701 351.15V350.39L38.6801 349.45H39.1601V354.47H40.4101V354.46Z" fill="#231815"/>
<path d="M45.3702 353.95H44.5302V355.13H43.7102V353.95H41.1602V353.33L43.8602 349.43H44.5202V353.28H45.3602V353.94L45.3702 353.95ZM43.7102 353.29V350.78L41.9702 353.29H43.7102Z" fill="#231815"/>
<path d="M50.0596 353.95H49.2196V355.13H48.3996V353.95H45.8496V353.33L48.5496 349.43H49.2096V353.28H50.0496V353.94L50.0596 353.95ZM48.3996 353.29V350.78L46.6596 353.29H48.3996Z" fill="#231815"/>
<path d="M53.4808 354.94C53.1808 354.77 52.9508 354.53 52.7908 354.22C52.6308 353.91 52.5508 353.54 52.5508 353.13C52.5508 352.72 52.6308 352.35 52.8008 352.03C52.9708 351.71 53.2008 351.46 53.5108 351.29C53.8108 351.11 54.1708 351.03 54.5708 351.03C54.8508 351.03 55.1208 351.08 55.3908 351.17C55.6508 351.26 55.8608 351.39 56.0208 351.55L55.7708 352.13C55.3908 351.83 55.0108 351.68 54.6308 351.68C54.2508 351.68 53.9408 351.81 53.7208 352.06C53.5008 352.31 53.3908 352.67 53.3908 353.13C53.3908 353.59 53.5008 353.94 53.7208 354.19C53.9408 354.44 54.2408 354.56 54.6308 354.56C55.0208 354.56 55.4108 354.41 55.7708 354.11L56.0208 354.69C55.8508 354.85 55.6308 354.98 55.3708 355.07C55.1108 355.16 54.8308 355.21 54.5408 355.21C54.1308 355.21 53.7808 355.13 53.4808 354.95V354.94Z" fill="#231815"/>
<path d="M62.6096 352.63V355.14H61.7996V352.67C61.7996 352.32 61.7396 352.07 61.6196 351.91C61.4996 351.75 61.3096 351.67 61.0396 351.67C60.7296 351.67 60.4896 351.78 60.3096 351.99C60.1296 352.2 60.0396 352.49 60.0396 352.86V355.14H59.2296V352.67C59.2296 352.32 59.1696 352.07 59.0496 351.91C58.9296 351.75 58.7396 351.67 58.4696 351.67C58.1596 351.67 57.9196 351.78 57.7296 351.99C57.5496 352.2 57.4596 352.49 57.4596 352.86V355.14H56.6596V352.24C56.6596 351.82 56.6396 351.44 56.5996 351.1H57.3496L57.4196 351.77C57.5396 351.52 57.7096 351.34 57.9196 351.2C58.1396 351.07 58.3896 351 58.6896 351C59.3096 351 59.7196 351.26 59.9096 351.78C60.0296 351.54 60.2096 351.35 60.4496 351.21C60.6896 351.07 60.9496 351 61.2496 351C62.1496 351 62.5896 351.54 62.5896 352.62L62.6096 352.63Z" fill="#231815"/>
<path d="M69.3996 355.139H68.4396L67.2496 353.649L66.0696 355.139H65.0996L66.7796 353.069L65.1996 351.109H66.1696L67.2496 352.489L68.3396 351.109H69.3196L67.7396 353.069L69.4096 355.139H69.3996Z" fill="#231815"/>
<path d="M75.1697 350.1C75.5497 350.58 75.7397 351.27 75.7397 352.16C75.7397 352.79 75.6497 353.34 75.4697 353.8C75.2897 354.26 75.0297 354.6 74.6897 354.84C74.3497 355.08 73.9497 355.2 73.4797 355.2C73.1397 355.2 72.8197 355.14 72.4997 355.02C72.1797 354.9 71.9097 354.73 71.6797 354.51L71.9697 353.9C72.2397 354.12 72.4897 354.28 72.7297 354.38C72.9697 354.48 73.2097 354.53 73.4497 354.53C73.9097 354.53 74.2697 354.33 74.5297 353.92C74.7797 353.51 74.9097 352.93 74.9097 352.18V352.16C74.7897 352.44 74.5997 352.66 74.3397 352.82C74.0797 352.98 73.7697 353.06 73.4297 353.06C73.0897 353.06 72.7897 352.98 72.5197 352.83C72.2497 352.68 72.0397 352.46 71.8997 352.19C71.7497 351.92 71.6797 351.6 71.6797 351.24C71.6797 350.88 71.7597 350.56 71.9197 350.28C72.0797 350 72.2997 349.78 72.5897 349.62C72.8797 349.46 73.1997 349.38 73.5497 349.38C74.2497 349.38 74.7997 349.62 75.1697 350.1V350.1ZM74.4197 352.06C74.6297 351.84 74.7397 351.56 74.7397 351.22C74.7397 350.88 74.6297 350.59 74.4197 350.38C74.2097 350.16 73.9297 350.06 73.5897 350.06C73.2497 350.06 72.9797 350.17 72.7797 350.38C72.5797 350.59 72.4797 350.88 72.4797 351.23C72.4797 351.58 72.5797 351.86 72.7897 352.07C72.9997 352.28 73.2597 352.39 73.5897 352.39C73.9197 352.39 74.2097 352.28 74.4197 352.07V352.06Z" fill="#231815"/>
<path d="M79.6106 351.76C79.8706 351.91 80.0806 352.13 80.2306 352.4C80.3806 352.68 80.4506 352.99 80.4506 353.35C80.4506 353.71 80.3706 354.03 80.2106 354.31C80.0506 354.59 79.8306 354.81 79.5506 354.97C79.2706 355.13 78.9506 355.21 78.5906 355.21C77.8906 355.21 77.3406 354.97 76.9606 354.49C76.5806 354.01 76.3906 353.32 76.3906 352.43C76.3906 351.8 76.4806 351.25 76.6606 350.79C76.8406 350.33 77.1006 349.99 77.4406 349.75C77.7806 349.51 78.1806 349.39 78.6506 349.39C78.9906 349.39 79.3106 349.45 79.6306 349.57C79.9506 349.69 80.2206 349.86 80.4606 350.08L80.1606 350.69C79.6606 350.27 79.1606 350.07 78.6706 350.07C78.2106 350.07 77.8506 350.27 77.6006 350.68C77.3506 351.09 77.2206 351.67 77.2206 352.42C77.3406 352.15 77.5406 351.93 77.8006 351.78C78.0606 351.63 78.3606 351.55 78.7006 351.55C79.0406 351.55 79.3406 351.63 79.6106 351.78V351.76ZM79.3506 354.21C79.5506 354 79.6506 353.71 79.6506 353.36C79.6506 353.01 79.5506 352.73 79.3506 352.52C79.1506 352.31 78.8806 352.2 78.5406 352.2C78.2006 352.2 77.9306 352.31 77.7106 352.52C77.4906 352.73 77.3906 353.02 77.3906 353.36C77.3906 353.7 77.5006 353.99 77.7106 354.2C77.9206 354.42 78.2006 354.52 78.5506 354.52C78.9006 354.52 79.1506 354.41 79.3506 354.2V354.21Z" fill="#231815"/>
<path d="M84.0003 354.94C83.7003 354.77 83.4703 354.53 83.3103 354.22C83.1503 353.91 83.0703 353.54 83.0703 353.13C83.0703 352.72 83.1503 352.35 83.3203 352.03C83.4903 351.71 83.7203 351.46 84.0303 351.29C84.3303 351.11 84.6903 351.03 85.0903 351.03C85.3703 351.03 85.6403 351.08 85.9103 351.17C86.1703 351.26 86.3803 351.39 86.5403 351.55L86.2903 352.13C85.9103 351.83 85.5303 351.68 85.1503 351.68C84.7703 351.68 84.4603 351.81 84.2403 352.06C84.0203 352.31 83.9103 352.67 83.9103 353.13C83.9103 353.59 84.0203 353.94 84.2403 354.19C84.4603 354.44 84.7603 354.56 85.1503 354.56C85.5403 354.56 85.9303 354.41 86.2903 354.11L86.5403 354.69C86.3703 354.85 86.1503 354.98 85.8903 355.07C85.6303 355.16 85.3503 355.21 85.0603 355.21C84.6503 355.21 84.3003 355.13 84.0003 354.95V354.94Z" fill="#231815"/>
<path d="M93.1291 352.63V355.14H92.3191V352.67C92.3191 352.32 92.2591 352.07 92.1391 351.91C92.0191 351.75 91.8291 351.67 91.5591 351.67C91.2491 351.67 91.0091 351.78 90.8291 351.99C90.6491 352.2 90.5591 352.49 90.5591 352.86V355.14H89.7491V352.67C89.7491 352.32 89.6891 352.07 89.5691 351.91C89.4491 351.75 89.2591 351.67 88.9891 351.67C88.6791 351.67 88.4391 351.78 88.2491 351.99C88.0691 352.2 87.9791 352.49 87.9791 352.86V355.14H87.1791V352.24C87.1791 351.82 87.1591 351.44 87.1191 351.1H87.8691L87.9391 351.77C88.0591 351.52 88.2291 351.34 88.4391 351.2C88.6591 351.07 88.9091 351 89.2091 351C89.8291 351 90.2391 351.26 90.4291 351.78C90.5491 351.54 90.7291 351.35 90.9691 351.21C91.2091 351.07 91.4691 351 91.7691 351C92.6691 351 93.1091 351.54 93.1091 352.62L93.1291 352.63Z" fill="#231815"/>
<path d="M42.7409 238.55H41.3809L40.4709 236.18C40.3909 235.96 40.2709 235.81 40.1009 235.72C39.9309 235.63 39.7209 235.59 39.4509 235.59H38.1609V238.55H36.8809V231.43H39.9309C40.7409 231.43 41.3509 231.61 41.7709 231.96C42.1909 232.31 42.4009 232.82 42.4009 233.48C42.4009 233.95 42.2809 234.36 42.0209 234.69C41.7609 235.02 41.4209 235.26 40.9609 235.4C41.3809 235.49 41.6809 235.78 41.8709 236.28L42.7409 238.56V238.55ZM39.7509 234.59C40.2409 234.59 40.6009 234.5 40.8309 234.32C41.0609 234.14 41.1809 233.87 41.1809 233.5C41.1809 233.13 41.0609 232.87 40.8409 232.69C40.6109 232.51 40.2509 232.43 39.7609 232.43H38.1509V234.59H39.7609H39.7509Z" fill="#231815"/>
<path d="M45.0609 238.19C44.5509 237.89 44.1609 237.47 43.8809 236.92C43.6009 236.37 43.4609 235.72 43.4609 234.97C43.4609 234.22 43.6009 233.59 43.8709 233.04C44.1409 232.49 44.5409 232.07 45.0409 231.78C45.5509 231.49 46.1509 231.34 46.8409 231.34C47.5309 231.34 48.1309 231.49 48.6409 231.78C49.1509 232.07 49.5409 232.49 49.8109 233.04C50.0809 233.59 50.2209 234.24 50.2209 234.97C50.2209 235.7 50.0809 236.37 49.8109 236.92C49.5409 237.47 49.1509 237.89 48.6409 238.19C48.1309 238.49 47.5309 238.64 46.8409 238.64C46.1509 238.64 45.5509 238.49 45.0509 238.19H45.0609ZM48.3909 236.93C48.7609 236.48 48.9409 235.83 48.9409 234.98C48.9409 234.13 48.7609 233.5 48.3909 233.05C48.0209 232.6 47.5109 232.38 46.8509 232.38C46.1909 232.38 45.6809 232.6 45.3109 233.05C44.9409 233.5 44.7609 234.14 44.7609 234.99C44.7609 235.84 44.9409 236.49 45.3109 236.94C45.6809 237.39 46.1909 237.62 46.8509 237.62C47.5109 237.62 48.0209 237.39 48.3909 236.94V236.93Z" fill="#231815"/>
<path d="M52.1309 237.88C51.6309 237.38 51.3809 236.64 51.3809 235.67V231.43H52.6509V235.74C52.6509 236.35 52.7909 236.82 53.0809 237.13C53.3709 237.45 53.7909 237.6 54.3609 237.6C54.9309 237.6 55.3409 237.44 55.6309 237.12C55.9209 236.8 56.0609 236.34 56.0609 235.73V231.42H57.3309V235.66C57.3309 236.63 57.0809 237.36 56.5709 237.87C56.0609 238.38 55.3309 238.63 54.3609 238.63C53.3909 238.63 52.6409 238.38 52.1409 237.88H52.1309Z" fill="#231815"/>
<path d="M60.3512 232.49H58.0312V231.43H63.9813V232.49H61.6513V238.55H60.3512V232.49V232.49Z" fill="#231815"/>
<path d="M64.7305 231.43H66.0205V238.55H64.7305V231.43Z" fill="#231815"/>
<path d="M73.4199 231.43V238.55H72.4599L68.6199 233.56V238.55H67.4199V231.43H68.3799L72.2099 236.41V231.43H73.4199V231.43Z" fill="#231815"/>
<path d="M74.8301 231.43H79.5901V232.45H76.0901V234.42H79.3801V235.44H76.0901V237.53H79.5901V238.55H74.8301V231.43V231.43Z" fill="#231815"/>
<path d="M83.2402 231.43H87.8902V232.46H84.5202V234.41H87.6902V235.45H84.5202V238.55H83.2402V231.43V231.43Z" fill="#231815"/>
<path d="M88.8203 231.43H90.1103V237.49H93.4403V238.55H88.8203V231.43Z" fill="#231815"/>
<path d="M98.9512 236.88H95.4712L94.7512 238.55H93.4512L96.6712 231.43H97.7212L100.951 238.55H99.6612L98.9512 236.88ZM98.5212 235.88L97.2112 232.83L95.9012 235.88H98.5212Z" fill="#231815"/>
<path d="M107.291 234.7V238.12C106.961 238.28 106.571 238.41 106.111 238.5C105.651 238.59 105.181 238.64 104.701 238.64C103.971 238.64 103.331 238.49 102.791 238.2C102.251 237.91 101.841 237.49 101.551 236.94C101.261 236.39 101.121 235.74 101.121 234.98C101.121 234.22 101.261 233.59 101.551 233.04C101.841 232.49 102.251 232.07 102.771 231.78C103.301 231.49 103.921 231.34 104.641 231.34C105.141 231.34 105.611 231.41 106.051 231.56C106.491 231.71 106.851 231.91 107.141 232.18L106.701 233.12C106.371 232.86 106.041 232.67 105.721 232.56C105.401 232.45 105.051 232.39 104.671 232.39C103.941 232.39 103.381 232.61 103.001 233.05C102.621 233.49 102.431 234.13 102.431 234.98C102.431 235.83 102.621 236.51 103.011 236.96C103.401 237.41 103.971 237.63 104.741 237.63C105.211 237.63 105.671 237.57 106.121 237.44V235.64H104.581V234.71H107.281L107.291 234.7Z" fill="#231815"/>
<path d="M117.061 238.55H115.701L114.791 236.18C114.711 235.96 114.591 235.81 114.421 235.72C114.251 235.63 114.041 235.59 113.771 235.59H112.481V238.55H111.201V231.43H114.251C115.061 231.43 115.671 231.61 116.091 231.96C116.511 232.31 116.721 232.82 116.721 233.48C116.721 233.95 116.601 234.36 116.341 234.69C116.081 235.02 115.731 235.26 115.271 235.4C115.691 235.49 115.991 235.78 116.181 236.28L117.051 238.56L117.061 238.55ZM114.071 234.59C114.561 234.59 114.921 234.5 115.151 234.32C115.381 234.14 115.501 233.87 115.501 233.5C115.501 233.13 115.391 232.87 115.161 232.69C114.931 232.51 114.571 232.43 114.081 232.43H112.471V234.59H114.081H114.071Z" fill="#231815"/>
<path d="M122.721 236.88H119.241L118.521 238.55H117.221L120.441 231.43H121.491L124.721 238.55H123.431L122.721 236.88ZM122.291 235.88L120.981 232.83L119.671 235.88H122.291Z" fill="#231815"/>
<path d="M125.352 231.43H126.642V238.55H125.352V231.43Z" fill="#231815"/>
<path d="M128.911 238.42C128.431 238.27 128.031 238.06 127.701 237.79L128.141 236.85C128.491 237.11 128.851 237.3 129.221 237.43C129.601 237.55 130.011 237.61 130.451 237.61C130.941 237.61 131.331 237.52 131.601 237.35C131.871 237.18 132.011 236.93 132.011 236.62C132.011 236.35 131.891 236.15 131.631 236C131.371 235.85 130.971 235.72 130.391 235.59C129.501 235.4 128.851 235.15 128.441 234.84C128.031 234.53 127.831 234.09 127.831 233.5C127.831 233.08 127.941 232.71 128.171 232.38C128.401 232.05 128.721 231.8 129.131 231.61C129.551 231.42 130.031 231.33 130.571 231.33C131.071 231.33 131.551 231.41 132.001 231.55C132.451 231.7 132.821 231.91 133.101 232.17L132.671 233.11C132.041 232.6 131.341 232.35 130.571 232.35C130.111 232.35 129.751 232.44 129.481 232.64C129.211 232.83 129.081 233.09 129.081 233.41C129.081 233.69 129.201 233.9 129.431 234.05C129.671 234.2 130.071 234.33 130.641 234.46C131.231 234.6 131.721 234.75 132.091 234.92C132.461 235.08 132.751 235.29 132.951 235.55C133.151 235.81 133.251 236.13 133.251 236.52C133.251 236.95 133.141 237.32 132.911 237.63C132.681 237.95 132.361 238.19 131.931 238.37C131.501 238.54 131.001 238.63 130.421 238.63C129.871 238.63 129.361 238.56 128.881 238.41L128.911 238.42Z" fill="#231815"/>
<path d="M134.33 231.43H135.62V238.55H134.33V231.43Z" fill="#231815"/>
<path d="M143.021 231.43V238.55H142.061L138.221 233.56V238.55H137.021V231.43H137.981L141.811 236.41V231.43H143.021V231.43Z" fill="#231815"/>
<path d="M150.371 234.7V238.12C150.041 238.28 149.651 238.41 149.191 238.5C148.731 238.59 148.261 238.64 147.781 238.64C147.051 238.64 146.411 238.49 145.871 238.2C145.331 237.91 144.921 237.49 144.631 236.94C144.341 236.39 144.201 235.74 144.201 234.98C144.201 234.22 144.341 233.59 144.631 233.04C144.921 232.49 145.331 232.07 145.851 231.78C146.381 231.49 147.001 231.34 147.721 231.34C148.221 231.34 148.691 231.41 149.131 231.56C149.571 231.71 149.931 231.91 150.221 232.18L149.781 233.12C149.451 232.86 149.121 232.67 148.801 232.56C148.481 232.45 148.131 232.39 147.751 232.39C147.021 232.39 146.461 232.61 146.081 233.05C145.701 233.49 145.511 234.13 145.511 234.98C145.511 235.83 145.701 236.51 146.091 236.96C146.481 237.41 147.051 237.63 147.821 237.63C148.291 237.63 148.751 237.57 149.201 237.44V235.64H147.661V234.71H150.361L150.371 234.7Z" fill="#231815"/>
<path d="M270.93 36.6907V37.3707H267.6V36.6907H268.85V32.6607L267.69 33.3807V32.6207L269.2 31.6807H269.68V36.7007H270.93V36.6907Z" fill="#231815"/>
<path d="M271.129 37.8204L273.189 31.3604H273.899L271.829 37.8204H271.129Z" fill="#231815"/>
<path d="M277.21 33.9907C277.48 34.1407 277.69 34.3607 277.83 34.6307C277.98 34.9107 278.05 35.2207 278.05 35.5807C278.05 35.9407 277.97 36.2707 277.81 36.5507C277.65 36.8307 277.41 37.0407 277.11 37.2007C276.81 37.3507 276.45 37.4307 276.05 37.4307C275.7 37.4307 275.35 37.3707 275.01 37.2507C274.67 37.1307 274.39 36.9607 274.16 36.7507L274.45 36.1407C274.98 36.5607 275.51 36.7607 276.06 36.7607C276.44 36.7607 276.73 36.6607 276.94 36.4507C277.15 36.2407 277.26 35.9607 277.26 35.6007C277.26 35.2407 277.15 34.9707 276.94 34.7607C276.73 34.5507 276.45 34.4407 276.1 34.4407C275.59 34.4407 275.18 34.6307 274.87 35.0207H274.33V31.6807H277.82V32.3407H275.15V34.1507C275.45 33.8907 275.83 33.7707 276.28 33.7707C276.64 33.7707 276.95 33.8507 277.22 34.0007L277.21 33.9907Z" fill="#231815"/>
<path d="M283.569 37.3707H282.589L280.929 35.0807L279.269 37.3707H278.289L280.459 34.4607L278.389 31.6807H279.359L280.939 33.8607L282.519 31.6807H283.499L281.409 34.4707L283.579 37.3707H283.569Z" fill="#231815"/>
<path d="M15.9499 98.4H14.9699L13.3099 96.11L11.6499 98.4H10.6699L12.8399 95.49L10.7699 92.71H11.7399L13.3199 94.89L14.8999 92.71H15.8799L13.7899 95.5L15.9599 98.4H15.9499Z" fill="#231815"/>
<path d="M96.4003 5.33031V6.01031H93.0703V5.33031H94.3203V1.30031L93.1603 2.02031V1.26031L94.6703 0.320312H95.1503V5.33031H96.4003V5.33031Z" fill="#231815"/>
<path d="M96.5996 6.46L98.6596 0H99.3696L97.2996 6.46H96.5996Z" fill="#231815"/>
<path d="M102.681 2.62957C102.951 2.77957 103.161 2.99957 103.301 3.26957C103.451 3.53957 103.521 3.85957 103.521 4.21957C103.521 4.57957 103.441 4.90957 103.281 5.18957C103.121 5.46957 102.881 5.67957 102.581 5.83957C102.281 5.98957 101.921 6.06957 101.521 6.06957C101.171 6.06957 100.821 6.00957 100.481 5.88957C100.141 5.76957 99.8609 5.59957 99.6309 5.38957L99.9209 4.77957C100.451 5.19957 100.981 5.39957 101.531 5.39957C101.911 5.39957 102.201 5.29957 102.411 5.08957C102.621 4.87957 102.731 4.59957 102.731 4.23957C102.731 3.87957 102.631 3.60957 102.411 3.39957C102.201 3.18957 101.921 3.07957 101.571 3.07957C101.061 3.07957 100.651 3.26957 100.341 3.65957H99.8009V0.30957H103.291V0.97957H100.621V2.78957C100.921 2.52957 101.301 2.40957 101.751 2.40957C102.111 2.40957 102.421 2.48957 102.691 2.63957L102.681 2.62957Z" fill="#231815"/>
<path d="M109.04 6.01031H108.06L106.4 3.72031L104.74 6.01031H103.76L105.93 3.10031L103.86 0.320312H104.83L106.41 2.50031L107.99 0.320312H108.97L106.88 3.11031L109.05 6.01031H109.04Z" fill="#231815"/>
<path d="M181.051 184.39V185.07H177.721V184.39H178.971V180.36L177.811 181.08V180.32L179.321 179.38H179.801V184.4H181.051V184.39Z" fill="#231815"/>
<path d="M181.25 185.53L183.31 179.07H184.02L181.95 185.53H181.25V185.53Z" fill="#231815"/>
<path d="M187.331 181.69C187.601 181.84 187.811 182.06 187.951 182.33C188.101 182.61 188.171 182.92 188.171 183.28C188.171 183.64 188.091 183.97 187.931 184.25C187.771 184.53 187.531 184.74 187.231 184.9C186.931 185.05 186.571 185.13 186.171 185.13C185.821 185.13 185.471 185.07 185.131 184.95C184.791 184.83 184.511 184.66 184.281 184.45L184.571 183.84C185.101 184.26 185.631 184.46 186.181 184.46C186.561 184.46 186.851 184.36 187.061 184.15C187.271 183.94 187.381 183.66 187.381 183.3C187.381 182.94 187.271 182.67 187.061 182.46C186.851 182.25 186.571 182.14 186.221 182.14C185.711 182.14 185.301 182.33 184.991 182.72H184.451V179.38H187.941V180.04H185.271V181.85C185.571 181.59 185.951 181.47 186.401 181.47C186.761 181.47 187.071 181.55 187.341 181.7L187.331 181.69Z" fill="#231815"/>
<path d="M193.68 185.07H192.7L191.04 182.78L189.38 185.07H188.4L190.57 182.16L188.5 179.38H189.47L191.05 181.56L192.63 179.38H193.61L191.52 182.17L193.69 185.07H193.68Z" fill="#231815"/>
<path d="M156.77 66.89C157.25 66.29 157.42 65.21 157.42 65.21H128.57C128.57 65.21 128.93 66.4 129.23 66.89H156.78H156.77Z" fill="white"/>
<path d="M155.09 69.3304C155.63 68.8504 156.17 67.9004 156.17 67.9004H129.75C129.75 67.9004 130.05 68.6204 130.71 69.3304H155.09Z" fill="white"/>
<path d="M153.009 71.5497C153.659 71.1897 154.199 70.4697 154.199 70.4697H131.609C131.609 70.4697 132.149 71.0697 132.679 71.5497H153.009Z" fill="white"/>
<path d="M150.371 73.6398C151.021 73.3998 151.751 72.7998 151.751 72.7998H134.131C134.131 72.7998 134.131 72.9298 135.381 73.6398H150.381H150.371Z" fill="white"/>
<path d="M137.4 74.9502C137.4 74.9502 139.26 76.0302 142.9 76.0302C146.54 76.0302 148.87 74.9502 148.87 74.9502H137.4Z" fill="white"/>
<path d="M137.11 77.3999C137.11 77.3999 139.32 77.5199 140.63 78.5299C141.89 79.6099 142.85 81.3999 142.85 81.3999C142.85 81.3999 143.63 79.6799 144.89 78.7799C146.14 77.8199 148.18 77.3999 148.18 77.3999H170.95L175.43 84.0299H154.98C154.98 84.0299 153.55 84.0899 151.4 85.3499C150.26 85.9999 149.42 87.1399 149.42 87.1399C149.42 87.1399 149.25 87.6799 149.01 87.9699C148.77 88.2799 148.59 88.5199 148.3 88.6299C148 88.7599 148.06 88.6899 148.06 88.6899H137.42C137.42 88.6899 136.99 88.5199 136.77 88.1499C136.53 87.7899 136.71 87.9199 136.47 87.6199C136.29 87.3199 135.87 86.5399 134.26 85.4599C132.59 84.3699 130.97 84.2599 130.97 84.2599H110.18L114.71 77.3799H137.13L137.11 77.3999Z" fill="white"/>
<path d="M121.02 86.7795V120.72C121.02 120.72 121.14 123.72 123.65 127.77C126.16 131.84 129.8 133.69 129.8 133.69L132.67 129.21C132.67 129.21 130.16 127.71 128.25 124.84C126.4 121.98 126.4 119.52 126.4 119.52V86.7695H121.01L121.02 86.7795Z" fill="white"/>
<path d="M159.51 86.6699V119.41C159.51 119.41 159.09 122.7 157.54 125.03C155.98 127.42 153.41 129.34 153.41 129.34L156.17 133.76C156.17 133.76 160.35 130.72 162.38 127.49C164.42 124.27 164.9 119.42 164.9 119.42V86.6799H159.51V86.6699Z" fill="white"/>
<path d="M112.49 86.7803V120.85C112.49 120.85 112.84 126.11 116.12 131.61C119.42 137.1 125.38 140.93 125.38 140.93L128.2 136.45C128.2 136.45 124.37 134.42 121.33 129.75C118.21 125.03 118.04 120.73 118.04 120.73V86.7903H112.48L112.49 86.7803Z" fill="white"/>
<path d="M137.11 90.3701V126.35C137.11 126.35 136.98 126.47 136.93 127C136.86 127.54 136.51 127.91 136.51 127.91L124.5 147.81H161.32L149.3 127.49L148.94 126.59L148.82 125.64V90.4401H144.34V126.96C144.34 126.96 144.34 127.48 144.52 127.91C144.63 128.33 144.88 128.98 144.88 128.98L152.28 141.17H133.52L140.81 129.04C140.81 129.04 141.05 128.62 141.23 128.03C141.35 127.49 141.41 126.96 141.41 126.96V90.3701H137.11V90.3701Z" fill="white"/>
<path d="M167.819 86.6699V120.14C167.819 120.14 167.769 124.44 164.599 129.4C161.429 134.37 157.779 136.45 157.779 136.45L160.469 140.99C160.469 140.99 165.959 137.52 169.429 132.03C172.839 126.53 173.249 120.14 173.249 120.14V86.6699H167.809H167.819Z" fill="white"/>
<path d="M128.381 64.2503C128.381 64.2503 126.531 54.1603 133.941 49.1303C133.941 49.1303 137.291 46.0303 142.721 46.0303C148.521 46.0303 151.861 49.0703 151.861 49.0703C159.931 54.9803 157.541 64.2503 157.541 64.2503H128.381V64.2503Z" fill="white"/>
<path d="M180.109 247.29H36.1094V343.29H180.109V247.29Z" fill="#003477"/>
<path d="M117.54 274.94C117.86 274.53 117.98 273.81 117.98 273.81H98.5098C98.5098 273.81 98.7498 274.61 98.9498 274.94H117.54Z" fill="white"/>
<path d="M116.411 276.59C116.771 276.27 117.141 275.62 117.141 275.62H99.3105C99.3105 275.62 99.5105 276.11 99.9605 276.59H116.421H116.411Z" fill="white"/>
<path d="M115.01 278.08C115.45 277.84 115.81 277.35 115.81 277.35H100.57C100.57 277.35 100.93 277.76 101.29 278.08H115.01Z" fill="white"/>
<path d="M113.23 279.5C113.67 279.34 114.16 278.93 114.16 278.93H102.27C102.27 278.93 102.27 279.02 103.11 279.5H113.23V279.5Z" fill="white"/>
<path d="M104.471 280.38C104.471 280.38 105.721 281.11 108.181 281.11C110.641 281.11 112.211 280.38 112.211 280.38H104.471Z" fill="white"/>
<path d="M104.27 282.04C104.27 282.04 105.76 282.12 106.65 282.8C107.5 283.53 108.15 284.74 108.15 284.74C108.15 284.74 108.67 283.58 109.52 282.97C110.36 282.32 111.74 282.04 111.74 282.04H127.11L130.14 286.52H116.34C116.34 286.52 115.37 286.56 113.92 287.41C113.15 287.85 112.58 288.61 112.58 288.61C112.58 288.61 112.47 288.97 112.3 289.17C112.14 289.38 112.02 289.54 111.82 289.62C111.61 289.71 111.66 289.66 111.66 289.66H104.48C104.48 289.66 104.19 289.55 104.04 289.3C103.88 289.06 104 289.14 103.84 288.94C103.72 288.74 103.43 288.21 102.35 287.48C101.22 286.75 100.13 286.67 100.13 286.67H86.0996L89.1596 282.03H104.29L104.27 282.04Z" fill="white"/>
<path d="M93.4199 288.37V311.28C93.4199 311.28 93.4999 313.3 95.1999 316.04C96.8899 318.78 99.3499 320.04 99.3499 320.04L101.29 317.01C101.29 317.01 99.5999 316 98.3099 314.06C97.0599 312.13 97.0599 310.47 97.0599 310.47V288.37H93.4199V288.37Z" fill="white"/>
<path d="M119.399 288.29V310.39C119.399 310.39 119.119 312.61 118.069 314.18C117.019 315.79 115.279 317.09 115.279 317.09L117.139 320.07C117.139 320.07 119.959 318.02 121.329 315.84C122.709 313.67 123.029 310.39 123.029 310.39V288.29H119.389H119.399Z" fill="white"/>
<path d="M87.6604 288.37V311.36C87.6604 311.36 87.9004 314.91 90.1104 318.62C92.3404 322.33 96.3604 324.91 96.3604 324.91L98.2604 321.89C98.2604 321.89 95.6804 320.52 93.6204 317.37C91.5104 314.19 91.4004 311.28 91.4004 311.28V288.37H87.6504H87.6604Z" fill="white"/>
<path d="M104.27 290.79V315.07C104.27 315.07 104.18 315.15 104.15 315.51C104.11 315.88 103.87 316.12 103.87 316.12L95.7598 329.55H120.61L112.5 315.83L112.26 315.22L112.18 314.58V290.82H109.15V315.47C109.15 315.47 109.15 315.82 109.27 316.11C109.35 316.39 109.51 316.83 109.51 316.83L114.51 325.06H101.84L106.76 316.87C106.76 316.87 106.92 316.59 107.04 316.19C107.12 315.83 107.16 315.47 107.16 315.47V290.78H104.26L104.27 290.79Z" fill="white"/>
<path d="M125.001 288.29V310.88C125.001 310.88 124.961 313.78 122.821 317.13C120.681 320.48 118.221 321.89 118.221 321.89L120.041 324.95C120.041 324.95 123.751 322.61 126.091 318.9C128.391 315.19 128.671 310.88 128.671 310.88V288.29H125.001V288.29Z" fill="white"/>
<path d="M98.3791 273.16C98.3791 273.16 97.1291 266.35 102.129 262.95C102.129 262.95 104.389 260.86 108.049 260.86C111.969 260.86 114.219 262.91 114.219 262.91C119.669 266.9 118.049 273.16 118.049 273.16H98.3691H98.3791Z" fill="white"/>
<path d="M195.771 168.16H89.8008V25.6699H195.771V168.16V168.16ZM90.0508 167.91H195.521V25.9199H90.0508V167.91V167.91Z" fill="white"/>
<path d="M110.4 25.6699H110.15V168.16H110.4V25.6699Z" fill="white"/>
<path d="M175.641 25.6699H175.391V168.16H175.641V25.6699Z" fill="white"/>
<path d="M195.771 46.0195H89.8008V46.2695H195.771V46.0195Z" fill="white"/>
<path d="M195.771 147.56H89.8008V147.81H195.771V147.56Z" fill="white"/>
<path d="M202.16 386.46V387.14H198.83V386.46H200.08V382.43L198.92 383.15V382.39L200.43 381.45H200.91V386.47H202.16V386.46Z" fill="#231815"/>
<path d="M206.4 382.101C206.78 382.581 206.97 383.271 206.97 384.161C206.97 384.791 206.88 385.341 206.7 385.801C206.52 386.261 206.26 386.601 205.92 386.841C205.58 387.081 205.18 387.201 204.71 387.201C204.37 387.201 204.05 387.141 203.73 387.021C203.41 386.901 203.14 386.731 202.91 386.511L203.2 385.901C203.47 386.121 203.72 386.281 203.96 386.381C204.2 386.481 204.44 386.531 204.68 386.531C205.14 386.531 205.5 386.331 205.76 385.921C206.01 385.511 206.14 384.931 206.14 384.181V384.161C206.02 384.441 205.83 384.661 205.57 384.821C205.31 384.981 205 385.061 204.66 385.061C204.32 385.061 204.02 384.981 203.75 384.831C203.48 384.681 203.27 384.461 203.13 384.191C202.98 383.921 202.91 383.601 202.91 383.241C202.91 382.881 202.99 382.561 203.15 382.281C203.31 382.001 203.53 381.781 203.82 381.621C204.11 381.461 204.43 381.381 204.78 381.381C205.48 381.381 206.03 381.621 206.4 382.101V382.101ZM205.65 384.061C205.86 383.841 205.97 383.561 205.97 383.221C205.97 382.881 205.86 382.591 205.65 382.381C205.44 382.161 205.16 382.061 204.82 382.061C204.48 382.061 204.21 382.171 204.01 382.381C203.81 382.591 203.71 382.881 203.71 383.231C203.71 383.581 203.81 383.861 204.02 384.071C204.23 384.281 204.49 384.391 204.82 384.391C205.15 384.391 205.44 384.281 205.65 384.071V384.061Z" fill="#231815"/>
<path d="M211.599 386.46V387.14H207.859V386.52L209.819 384.37C210.069 384.09 210.249 383.84 210.369 383.61C210.489 383.38 210.539 383.16 210.539 382.93C210.539 382.64 210.459 382.42 210.289 382.27C210.119 382.12 209.879 382.04 209.569 382.04C209.039 382.04 208.509 382.25 207.989 382.66L207.689 382.05C207.909 381.84 208.199 381.68 208.549 381.55C208.899 381.43 209.249 381.36 209.599 381.36C210.139 381.36 210.569 381.5 210.889 381.77C211.209 382.04 211.369 382.41 211.369 382.87C211.369 383.2 211.299 383.51 211.149 383.81C211.009 384.11 210.769 384.43 210.429 384.8L208.909 386.44H211.599V386.46Z" fill="#231815"/>
<path d="M215.241 386.94C214.941 386.77 214.711 386.53 214.551 386.22C214.391 385.91 214.311 385.54 214.311 385.13C214.311 384.72 214.391 384.35 214.561 384.03C214.731 383.71 214.961 383.46 215.271 383.29C215.571 383.11 215.931 383.03 216.331 383.03C216.611 383.03 216.881 383.08 217.151 383.17C217.411 383.26 217.621 383.39 217.781 383.55L217.531 384.13C217.151 383.83 216.771 383.68 216.391 383.68C216.011 383.68 215.701 383.81 215.481 384.06C215.261 384.31 215.151 384.67 215.151 385.13C215.151 385.59 215.261 385.94 215.481 386.19C215.701 386.44 216.001 386.56 216.391 386.56C216.781 386.56 217.171 386.41 217.531 386.11L217.781 386.69C217.611 386.85 217.391 386.98 217.131 387.07C216.871 387.16 216.591 387.21 216.301 387.21C215.891 387.21 215.541 387.13 215.241 386.95V386.94Z" fill="#231815"/>
<path d="M224.369 384.63V387.14H223.559V384.67C223.559 384.32 223.499 384.07 223.379 383.91C223.259 383.75 223.069 383.67 222.799 383.67C222.489 383.67 222.249 383.78 222.069 383.99C221.889 384.2 221.799 384.49 221.799 384.86V387.14H220.989V384.67C220.989 384.32 220.929 384.07 220.809 383.91C220.689 383.75 220.499 383.67 220.229 383.67C219.919 383.67 219.679 383.78 219.489 383.99C219.309 384.2 219.219 384.49 219.219 384.86V387.14H218.419V384.24C218.419 383.82 218.399 383.44 218.359 383.1H219.109L219.179 383.77C219.299 383.52 219.469 383.34 219.679 383.2C219.899 383.07 220.149 383 220.449 383C221.069 383 221.479 383.26 221.669 383.78C221.789 383.54 221.969 383.35 222.209 383.21C222.449 383.07 222.709 383 223.009 383C223.909 383 224.349 383.54 224.349 384.62L224.369 384.63Z" fill="#231815"/>
<path d="M231.159 387.14H230.199L229.009 385.65L227.829 387.14H226.859L228.539 385.07L226.959 383.11H227.929L229.009 384.49L230.099 383.11H231.079L229.499 385.07L231.169 387.14H231.159Z" fill="#231815"/>
<path d="M237.381 386.46V387.14H234.051V386.46H235.301V382.43L234.141 383.15V382.39L235.651 381.45H236.131V386.47H237.381V386.46Z" fill="#231815"/>
<path d="M242.131 386.46V387.14H238.391V386.52L240.351 384.37C240.601 384.09 240.781 383.84 240.901 383.61C241.021 383.38 241.071 383.16 241.071 382.93C241.071 382.64 240.991 382.42 240.821 382.27C240.651 382.12 240.411 382.04 240.101 382.04C239.571 382.04 239.041 382.25 238.521 382.66L238.221 382.05C238.441 381.84 238.731 381.68 239.081 381.55C239.431 381.43 239.781 381.36 240.131 381.36C240.671 381.36 241.101 381.5 241.421 381.77C241.741 382.04 241.901 382.41 241.901 382.87C241.901 383.2 241.831 383.51 241.681 383.81C241.541 384.11 241.301 384.43 240.961 384.8L239.441 386.44H242.131V386.46Z" fill="#231815"/>
<path d="M246.629 384.731C246.839 384.981 246.939 385.271 246.939 385.621C246.939 386.111 246.749 386.501 246.379 386.781C245.999 387.061 245.499 387.201 244.859 387.201C244.219 387.201 243.719 387.061 243.339 386.781C242.959 386.501 242.779 386.111 242.779 385.621C242.779 385.271 242.879 384.971 243.089 384.721C243.299 384.471 243.589 384.301 243.959 384.211C243.629 384.101 243.369 383.941 243.189 383.711C243.009 383.481 242.909 383.211 242.909 382.901C242.909 382.591 242.989 382.331 243.159 382.101C243.329 381.871 243.549 381.691 243.849 381.571C244.139 381.451 244.479 381.381 244.859 381.381C245.239 381.381 245.569 381.441 245.869 381.571C246.159 381.701 246.389 381.871 246.559 382.101C246.729 382.331 246.809 382.601 246.809 382.901C246.809 383.201 246.719 383.481 246.539 383.711C246.359 383.941 246.109 384.111 245.779 384.211C246.149 384.311 246.439 384.481 246.639 384.731H246.629ZM245.809 386.281C246.029 386.111 246.149 385.871 246.149 385.561C246.149 385.271 246.029 385.031 245.799 384.861C245.569 384.691 245.249 384.581 244.859 384.531C244.469 384.581 244.149 384.691 243.919 384.861C243.689 385.031 243.569 385.271 243.569 385.561C243.569 385.871 243.679 386.111 243.909 386.281C244.129 386.451 244.449 386.531 244.859 386.531C245.269 386.531 245.589 386.451 245.809 386.281ZM244.019 383.641C244.229 383.811 244.509 383.921 244.859 383.971C245.209 383.921 245.489 383.811 245.699 383.641C245.909 383.471 246.009 383.241 246.009 382.961C246.009 382.671 245.909 382.441 245.699 382.281C245.489 382.121 245.209 382.041 244.859 382.041C244.509 382.041 244.219 382.121 244.019 382.281C243.809 382.441 243.709 382.671 243.709 382.961C243.709 383.241 243.809 383.461 244.019 383.641Z" fill="#231815"/>
<path d="M250.45 386.94C250.15 386.77 249.92 386.53 249.76 386.22C249.6 385.91 249.52 385.54 249.52 385.13C249.52 384.72 249.6 384.35 249.77 384.03C249.94 383.71 250.17 383.46 250.48 383.29C250.78 383.11 251.14 383.03 251.54 383.03C251.82 383.03 252.09 383.08 252.36 383.17C252.62 383.26 252.83 383.39 252.99 383.55L252.74 384.13C252.36 383.83 251.98 383.68 251.6 383.68C251.22 383.68 250.91 383.81 250.69 384.06C250.47 384.31 250.36 384.67 250.36 385.13C250.36 385.59 250.47 385.94 250.69 386.19C250.91 386.44 251.21 386.56 251.6 386.56C251.99 386.56 252.38 386.41 252.74 386.11L252.99 386.69C252.82 386.85 252.6 386.98 252.34 387.07C252.08 387.16 251.8 387.21 251.51 387.21C251.1 387.21 250.75 387.13 250.45 386.95V386.94Z" fill="#231815"/>
<path d="M259.58 384.63V387.14H258.77V384.67C258.77 384.32 258.71 384.07 258.59 383.91C258.47 383.75 258.28 383.67 258.01 383.67C257.7 383.67 257.46 383.78 257.28 383.99C257.1 384.2 257.01 384.49 257.01 384.86V387.14H256.2V384.67C256.2 384.32 256.14 384.07 256.02 383.91C255.9 383.75 255.71 383.67 255.44 383.67C255.13 383.67 254.89 383.78 254.7 383.99C254.52 384.2 254.43 384.49 254.43 384.86V387.14H253.63V384.24C253.63 383.82 253.61 383.44 253.57 383.1H254.32L254.39 383.77C254.51 383.52 254.68 383.34 254.89 383.2C255.11 383.07 255.36 383 255.66 383C256.28 383 256.69 383.26 256.88 383.78C257 383.54 257.18 383.35 257.42 383.21C257.66 383.07 257.92 383 258.22 383C259.12 383 259.56 383.54 259.56 384.62L259.58 384.63Z" fill="#231815"/>
<path d="M199.511 238.42C199.031 238.27 198.631 238.06 198.301 237.79L198.741 236.85C199.091 237.11 199.451 237.3 199.821 237.43C200.191 237.56 200.611 237.61 201.061 237.61C201.551 237.61 201.941 237.52 202.201 237.35C202.471 237.18 202.611 236.93 202.611 236.62C202.611 236.35 202.491 236.15 202.231 236C201.971 235.85 201.571 235.72 200.991 235.59C200.101 235.4 199.451 235.15 199.041 234.84C198.631 234.53 198.431 234.09 198.431 233.5C198.431 233.08 198.541 232.71 198.771 232.38C199.001 232.05 199.321 231.8 199.731 231.61C200.151 231.42 200.631 231.33 201.181 231.33C201.681 231.33 202.151 231.41 202.601 231.55C203.051 231.7 203.421 231.91 203.711 232.17L203.281 233.11C202.651 232.6 201.951 232.35 201.181 232.35C200.721 232.35 200.361 232.44 200.091 232.64C199.821 232.83 199.691 233.09 199.691 233.41C199.691 233.69 199.811 233.9 200.051 234.05C200.291 234.2 200.691 234.33 201.261 234.46C201.851 234.6 202.341 234.75 202.711 234.92C203.081 235.08 203.371 235.29 203.571 235.55C203.771 235.81 203.871 236.13 203.871 236.52C203.871 236.95 203.761 237.32 203.531 237.63C203.301 237.95 202.981 238.19 202.551 238.37C202.121 238.54 201.621 238.63 201.041 238.63C200.491 238.63 199.981 238.56 199.501 238.41L199.511 238.42Z" fill="#231815"/>
<path d="M204.941 231.43H208.031C208.801 231.43 209.391 231.62 209.821 231.98C210.251 232.35 210.461 232.86 210.461 233.5C210.461 234.14 210.251 234.65 209.821 235.02C209.391 235.39 208.791 235.58 208.031 235.58H206.231V238.55H204.941V231.43V231.43ZM207.881 234.58C208.331 234.58 208.671 234.49 208.901 234.3C209.131 234.12 209.241 233.85 209.241 233.51C209.241 233.17 209.131 232.89 208.901 232.71C208.671 232.53 208.331 232.43 207.881 232.43H206.231V234.58H207.881Z" fill="#231815"/>
<path d="M211.461 231.43H216.221V232.45H212.721V234.42H216.011V235.44H212.721V237.53H216.221V238.55H211.461V231.43V231.43Z" fill="#231815"/>
<path d="M218.642 238.19C218.122 237.89 217.722 237.47 217.432 236.92C217.142 236.37 217.012 235.72 217.012 234.98C217.012 234.24 217.152 233.6 217.432 233.06C217.712 232.52 218.112 232.09 218.642 231.79C219.162 231.49 219.772 231.34 220.472 231.34C220.952 231.34 221.402 231.42 221.822 231.56C222.242 231.71 222.602 231.92 222.882 232.18L222.462 233.12C222.142 232.86 221.822 232.67 221.502 232.55C221.182 232.43 220.842 232.38 220.482 232.38C219.792 232.38 219.262 232.6 218.892 233.05C218.512 233.5 218.322 234.14 218.322 234.97C218.322 235.8 218.512 236.46 218.882 236.91C219.252 237.36 219.792 237.58 220.482 237.58C220.842 237.58 221.182 237.52 221.502 237.41C221.822 237.29 222.132 237.1 222.462 236.84L222.882 237.78C222.602 238.05 222.252 238.25 221.822 238.4C221.402 238.55 220.942 238.62 220.472 238.62C219.772 238.62 219.162 238.47 218.642 238.17V238.19Z" fill="#231815"/>
<path d="M223.961 231.43H225.251V238.55H223.961V231.43Z" fill="#231815"/>
<path d="M231.381 236.88H227.901L227.181 238.55H225.881L229.101 231.43H230.151L233.381 238.55H232.091L231.381 236.88ZM230.951 235.88L229.641 232.83L228.331 235.88H230.951Z" fill="#231815"/>
<path d="M234 231.43H235.29V237.49H238.62V238.55H234V231.43Z" fill="#231815"/>
<path d="M243.43 238.19C242.92 237.89 242.53 237.47 242.25 236.92C241.97 236.37 241.83 235.72 241.83 234.97C241.83 234.22 241.97 233.59 242.24 233.04C242.51 232.49 242.91 232.07 243.41 231.78C243.92 231.49 244.52 231.34 245.21 231.34C245.9 231.34 246.5 231.49 247.01 231.78C247.52 232.07 247.91 232.49 248.18 233.04C248.45 233.59 248.59 234.24 248.59 234.97C248.59 235.7 248.45 236.37 248.18 236.92C247.91 237.47 247.52 237.89 247.01 238.19C246.5 238.49 245.9 238.64 245.21 238.64C244.52 238.64 243.92 238.49 243.42 238.19H243.43ZM246.76 236.93C247.13 236.48 247.31 235.83 247.31 234.98C247.31 234.13 247.13 233.5 246.76 233.05C246.39 232.6 245.88 232.38 245.22 232.38C244.56 232.38 244.05 232.6 243.68 233.05C243.31 233.5 243.13 234.14 243.13 234.99C243.13 235.84 243.31 236.49 243.68 236.94C244.05 237.39 244.56 237.62 245.22 237.62C245.88 237.62 246.39 237.39 246.76 236.94V236.93Z" fill="#231815"/>
<path d="M251.181 238.19C250.661 237.89 250.261 237.47 249.971 236.92C249.691 236.37 249.551 235.72 249.551 234.98C249.551 234.24 249.691 233.6 249.971 233.06C250.251 232.51 250.651 232.09 251.181 231.79C251.701 231.49 252.311 231.34 253.011 231.34C253.491 231.34 253.941 231.42 254.371 231.56C254.791 231.71 255.141 231.92 255.421 232.18L255.001 233.12C254.681 232.86 254.361 232.67 254.041 232.55C253.721 232.43 253.381 232.38 253.031 232.38C252.341 232.38 251.811 232.6 251.431 233.05C251.051 233.5 250.871 234.14 250.871 234.97C250.871 235.8 251.061 236.46 251.431 236.91C251.801 237.36 252.341 237.58 253.031 237.58C253.391 237.58 253.731 237.52 254.041 237.41C254.361 237.29 254.671 237.1 255.001 236.84L255.421 237.78C255.141 238.05 254.791 238.25 254.371 238.4C253.951 238.55 253.491 238.62 253.011 238.62C252.311 238.62 251.701 238.47 251.181 238.17V238.19Z" fill="#231815"/>
<path d="M257.741 238.19C257.221 237.89 256.821 237.47 256.531 236.92C256.241 236.37 256.111 235.72 256.111 234.98C256.111 234.24 256.251 233.6 256.531 233.06C256.811 232.52 257.211 232.09 257.741 231.79C258.261 231.49 258.871 231.34 259.571 231.34C260.051 231.34 260.501 231.42 260.921 231.56C261.341 231.71 261.701 231.92 261.981 232.18L261.561 233.12C261.241 232.86 260.921 232.67 260.601 232.55C260.281 232.43 259.941 232.38 259.581 232.38C258.891 232.38 258.361 232.6 257.991 233.05C257.611 233.5 257.421 234.14 257.421 234.97C257.421 235.8 257.611 236.46 257.981 236.91C258.351 237.36 258.891 237.58 259.581 237.58C259.941 237.58 260.281 237.52 260.601 237.41C260.921 237.29 261.231 237.1 261.561 236.84L261.981 237.78C261.701 238.05 261.351 238.25 260.921 238.4C260.501 238.55 260.041 238.62 259.571 238.62C258.871 238.62 258.261 238.47 257.741 238.17V238.19Z" fill="#231815"/>
<path d="M267.66 236.88H264.18L263.46 238.55H262.16L265.38 231.43H266.43L269.66 238.55H268.37L267.66 236.88ZM267.23 235.88L265.92 232.83L264.61 235.88H267.23Z" fill="#231815"/>
<path d="M271.071 238.42C270.591 238.27 270.191 238.06 269.861 237.79L270.301 236.85C270.651 237.11 271.011 237.3 271.381 237.43C271.761 237.55 272.171 237.61 272.611 237.61C273.101 237.61 273.491 237.52 273.761 237.35C274.031 237.18 274.171 236.93 274.171 236.62C274.171 236.35 274.051 236.15 273.791 236C273.531 235.85 273.131 235.72 272.551 235.59C271.661 235.4 271.011 235.15 270.601 234.84C270.191 234.53 269.991 234.09 269.991 233.5C269.991 233.08 270.101 232.71 270.331 232.38C270.561 232.05 270.881 231.8 271.291 231.61C271.711 231.42 272.191 231.33 272.731 231.33C273.231 231.33 273.711 231.41 274.161 231.55C274.611 231.7 274.981 231.91 275.261 232.17L274.831 233.11C274.201 232.6 273.501 232.35 272.731 232.35C272.271 232.35 271.911 232.44 271.641 232.64C271.371 232.83 271.241 233.09 271.241 233.41C271.241 233.69 271.361 233.9 271.591 234.05C271.831 234.2 272.231 234.33 272.801 234.46C273.391 234.6 273.881 234.75 274.251 234.92C274.621 235.08 274.911 235.29 275.111 235.55C275.311 235.81 275.411 236.13 275.411 236.52C275.411 236.95 275.301 237.32 275.071 237.63C274.841 237.95 274.521 238.19 274.091 238.37C273.661 238.54 273.161 238.63 272.581 238.63C272.031 238.63 271.521 238.56 271.041 238.41L271.071 238.42Z" fill="#231815"/>
<path d="M276.5 231.43H277.79V238.55H276.5V231.43Z" fill="#231815"/>
<path d="M280.551 238.19C280.041 237.89 279.651 237.47 279.371 236.92C279.091 236.37 278.951 235.72 278.951 234.97C278.951 234.22 279.091 233.59 279.361 233.04C279.631 232.49 280.031 232.07 280.531 231.78C281.041 231.49 281.641 231.34 282.331 231.34C283.021 231.34 283.621 231.49 284.131 231.78C284.641 232.07 285.031 232.49 285.301 233.04C285.571 233.59 285.711 234.24 285.711 234.97C285.711 235.7 285.571 236.37 285.301 236.92C285.031 237.47 284.641 237.89 284.131 238.19C283.621 238.49 283.021 238.64 282.331 238.64C281.641 238.64 281.041 238.49 280.541 238.19H280.551ZM283.881 236.93C284.251 236.48 284.431 235.83 284.431 234.98C284.431 234.13 284.251 233.5 283.881 233.05C283.511 232.6 283.001 232.38 282.341 232.38C281.681 232.38 281.171 232.6 280.801 233.05C280.431 233.5 280.251 234.14 280.251 234.99C280.251 235.84 280.431 236.49 280.801 236.94C281.171 237.39 281.681 237.62 282.341 237.62C283.001 237.62 283.511 237.39 283.881 236.94V236.93Z" fill="#231815"/>
<path d="M292.9 231.43V238.55H291.94L288.1 233.56V238.55H286.9V231.43H287.86L291.69 236.41V231.43H292.9Z" fill="#231815"/>
<path d="M296.91 231.43H301.56V232.46H298.19V234.41H301.36V235.45H298.19V238.55H296.91V231.43V231.43Z" fill="#231815"/>
<path d="M302.49 231.43H303.78V237.49H307.11V238.55H302.49V231.43Z" fill="#231815"/>
<path d="M312.611 236.88H309.131L308.411 238.55H307.111L310.331 231.43H311.381L314.611 238.55H313.321L312.611 236.88ZM312.181 235.88L310.871 232.83L309.561 235.88H312.181Z" fill="#231815"/>
<path d="M320.961 234.7V238.12C320.631 238.28 320.241 238.41 319.781 238.5C319.321 238.59 318.851 238.64 318.371 238.64C317.641 238.64 317.001 238.49 316.461 238.2C315.921 237.91 315.511 237.49 315.221 236.94C314.931 236.39 314.791 235.74 314.791 234.98C314.791 234.22 314.931 233.59 315.221 233.04C315.511 232.49 315.911 232.07 316.441 231.78C316.971 231.49 317.591 231.34 318.311 231.34C318.811 231.34 319.281 231.41 319.711 231.56C320.141 231.71 320.511 231.91 320.811 232.18L320.371 233.12C320.041 232.86 319.711 232.67 319.391 232.56C319.071 232.45 318.721 232.39 318.341 232.39C317.611 232.39 317.051 232.61 316.671 233.05C316.291 233.49 316.111 234.13 316.111 234.98C316.111 235.83 316.301 236.51 316.691 236.96C317.081 237.41 317.651 237.63 318.421 237.63C318.891 237.63 319.351 237.57 319.801 237.44V235.64H318.261V234.71H320.961V234.7Z" fill="#231815"/>
<path d="M330.731 238.55H329.371L328.461 236.18C328.381 235.96 328.261 235.81 328.091 235.72C327.921 235.63 327.711 235.59 327.441 235.59H326.151V238.55H324.871V231.43H327.921C328.731 231.43 329.341 231.61 329.761 231.96C330.181 232.31 330.391 232.82 330.391 233.48C330.391 233.95 330.271 234.36 330.011 234.69C329.751 235.02 329.401 235.26 328.941 235.4C329.361 235.49 329.661 235.78 329.851 236.28L330.721 238.56L330.731 238.55ZM327.741 234.59C328.231 234.59 328.591 234.5 328.821 234.32C329.051 234.14 329.171 233.87 329.171 233.5C329.171 233.13 329.061 232.87 328.831 232.69C328.601 232.51 328.241 232.43 327.751 232.43H326.141V234.59H327.751H327.741Z" fill="#231815"/>
<path d="M336.391 236.88H332.911L332.191 238.55H330.891L334.111 231.43H335.161L338.391 238.55H337.101L336.391 236.88ZM335.961 235.88L334.651 232.83L333.341 235.88H335.961Z" fill="#231815"/>
<path d="M339.012 231.43H340.302V238.55H339.012V231.43Z" fill="#231815"/>
<path d="M342.581 238.42C342.101 238.27 341.701 238.06 341.371 237.79L341.811 236.85C342.161 237.11 342.521 237.3 342.891 237.43C343.261 237.56 343.681 237.61 344.131 237.61C344.621 237.61 345.011 237.52 345.271 237.35C345.541 237.18 345.681 236.93 345.681 236.62C345.681 236.35 345.561 236.15 345.301 236C345.041 235.85 344.641 235.72 344.061 235.59C343.171 235.4 342.521 235.15 342.111 234.84C341.701 234.53 341.501 234.09 341.501 233.5C341.501 233.08 341.611 232.71 341.841 232.38C342.071 232.05 342.391 231.8 342.801 231.61C343.221 231.42 343.701 231.33 344.251 231.33C344.751 231.33 345.221 231.41 345.671 231.55C346.121 231.7 346.491 231.91 346.781 232.17L346.351 233.11C345.721 232.6 345.021 232.35 344.251 232.35C343.791 232.35 343.431 232.44 343.161 232.64C342.891 232.83 342.761 233.09 342.761 233.41C342.761 233.69 342.881 233.9 343.121 234.05C343.361 234.2 343.761 234.33 344.331 234.46C344.921 234.6 345.411 234.75 345.781 234.92C346.151 235.08 346.441 235.29 346.641 235.55C346.841 235.81 346.941 236.13 346.941 236.52C346.941 236.95 346.831 237.32 346.601 237.63C346.371 237.95 346.051 238.19 345.621 238.37C345.191 238.54 344.691 238.63 344.111 238.63C343.561 238.63 343.051 238.56 342.571 238.41L342.581 238.42Z" fill="#231815"/>
<path d="M348 231.43H349.29V238.55H348V231.43Z" fill="#231815"/>
<path d="M356.691 231.43V238.55H355.731L351.891 233.56V238.55H350.691V231.43H351.651L355.481 236.41V231.43H356.691Z" fill="#231815"/>
<path d="M364.041 234.7V238.12C363.711 238.28 363.321 238.41 362.861 238.5C362.401 238.59 361.931 238.64 361.451 238.64C360.721 238.64 360.081 238.49 359.541 238.2C359.001 237.91 358.591 237.49 358.301 236.94C358.011 236.39 357.871 235.74 357.871 234.98C357.871 234.22 358.011 233.59 358.301 233.04C358.591 232.49 359.001 232.07 359.521 231.78C360.051 231.49 360.671 231.34 361.391 231.34C361.891 231.34 362.361 231.41 362.801 231.56C363.241 231.71 363.601 231.91 363.891 232.18L363.451 233.12C363.121 232.86 362.791 232.67 362.471 232.56C362.151 232.45 361.801 232.39 361.421 232.39C360.691 232.39 360.131 232.61 359.751 233.05C359.371 233.49 359.181 234.13 359.181 234.98C359.181 235.83 359.371 236.51 359.761 236.96C360.151 237.41 360.721 237.63 361.491 237.63C361.961 237.63 362.421 237.57 362.871 237.44V235.64H361.331V234.71H364.031L364.041 234.7Z" fill="#231815"/>
<path d="M389.869 247.29H197.869V375.29H389.869V247.29Z" fill="#003477"/>
<path d="M306.451 284.15C306.881 283.61 307.031 282.64 307.031 282.64H281.061C281.061 282.64 281.381 283.71 281.651 284.15H306.441H306.451Z" fill="white"/>
<path d="M304.941 286.36C305.421 285.93 305.911 285.07 305.911 285.07H282.131C282.131 285.07 282.401 285.71 282.991 286.36H304.931H304.941Z" fill="white"/>
<path d="M303.061 288.35C303.651 288.03 304.131 287.38 304.131 287.38H283.801C283.801 287.38 284.281 287.92 284.761 288.35H303.051H303.061Z" fill="white"/>
<path d="M300.69 290.23C301.28 290.01 301.93 289.47 301.93 289.47H286.07C286.07 289.47 286.07 289.59 287.19 290.23H300.68H300.69Z" fill="white"/>
<path d="M289.02 291.41C289.02 291.41 290.69 292.39 293.97 292.39C297.25 292.39 299.35 291.41 299.35 291.41H289.03H289.02Z" fill="white"/>
<path d="M288.75 293.62C288.75 293.62 290.74 293.72 291.92 294.64C293.05 295.61 293.91 297.22 293.91 297.22C293.91 297.22 294.61 295.67 295.74 294.86C296.86 293.99 298.7 293.62 298.7 293.62H319.19L323.22 299.59H304.82C304.82 299.59 303.53 299.64 301.59 300.78C300.57 301.36 299.81 302.39 299.81 302.39C299.81 302.39 299.66 302.88 299.44 303.14C299.22 303.42 299.06 303.63 298.8 303.74C298.53 303.86 298.58 303.79 298.58 303.79H289.01C289.01 303.79 288.62 303.64 288.42 303.31C288.2 302.99 288.36 303.1 288.15 302.84C287.99 302.57 287.61 301.87 286.16 300.9C284.66 299.92 283.2 299.82 283.2 299.82H264.49L268.57 293.63H288.74L288.75 293.62Z" fill="white"/>
<path d="M274.279 302.06V332.6C274.279 332.6 274.389 335.3 276.649 338.95C278.909 342.61 282.179 344.28 282.179 344.28L284.769 340.25C284.769 340.25 282.519 338.9 280.789 336.32C279.129 333.74 279.129 331.53 279.129 331.53V302.06H274.279V302.06Z" fill="white"/>
<path d="M308.92 301.95V331.42C308.92 331.42 308.54 334.38 307.15 336.48C305.75 338.63 303.43 340.35 303.43 340.35L305.92 344.33C305.92 344.33 309.68 341.59 311.5 338.68C313.33 335.78 313.77 331.42 313.77 331.42V301.95H308.92V301.95Z" fill="white"/>
<path d="M266.6 302.06V332.72C266.6 332.72 266.92 337.46 269.87 342.4C272.84 347.34 278.21 350.79 278.21 350.79L280.74 346.76C280.74 346.76 277.3 344.93 274.56 340.73C271.75 336.48 271.6 332.61 271.6 332.61V302.07H266.6V302.06Z" fill="white"/>
<path d="M288.75 305.29V337.67C288.75 337.67 288.63 337.78 288.59 338.26C288.53 338.75 288.21 339.08 288.21 339.08L277.4 356.99H310.53L299.71 338.7L299.39 337.89L299.28 337.04V305.37H295.25V338.24C295.25 338.24 295.25 338.71 295.41 339.1C295.51 339.48 295.73 340.06 295.73 340.06L302.39 351.03H285.5L292.06 340.11C292.06 340.11 292.28 339.73 292.44 339.2C292.55 338.71 292.6 338.24 292.6 338.24V305.32H288.73L288.75 305.29Z" fill="white"/>
<path d="M316.389 301.95V332.07C316.389 332.07 316.339 335.94 313.489 340.4C310.639 344.87 307.359 346.75 307.359 346.75L309.779 350.83C309.779 350.83 314.719 347.71 317.849 342.76C320.919 337.81 321.289 332.06 321.289 332.06V301.94H316.389V301.95Z" fill="white"/>
<path d="M280.901 281.78C280.901 281.78 279.241 272.7 285.901 268.17C285.901 268.17 288.91 265.38 293.8 265.38C299.02 265.38 302.031 268.12 302.031 268.12C309.291 273.44 307.141 281.78 307.141 281.78H280.901Z" fill="white"/>
<defs>
<filter id="filter0_d_810_1891" x="288.1" y="149.78" width="76.2402" height="22.1299" filterUnits="userSpaceOnUse" color-interpolation-filters="sRGB">
<feFlood flood-opacity="0" result="BackgroundImageFix"/>
<feColorMatrix in="SourceAlpha" type="matrix" values="0 0 0 0 0 0 0 0 0 0 0 0 0 0 0 0 0 0 127 0" result="hardAlpha"/>
<feOffset/>
<feGaussianBlur stdDeviation="2"/>
<feComposite in2="hardAlpha" operator="out"/>
<feColorMatrix type="matrix" values="0 0 0 0 0 0 0 0 0 0 0 0 0 0 0 0 0 0 0.15 0"/>
<feBlend mode="normal" in2="BackgroundImageFix" result="effect1_dropShadow_810_1891"/>
<feBlend mode="normal" in="SourceGraphic" in2="effect1_dropShadow_810_1891" result="shape"/>
</filter>
</defs>
</svg>
