<svg width="256" height="256" viewBox="0 0 256 256" fill="none" xmlns="http://www.w3.org/2000/svg">
<path d="M232.622 113.133L242.55 114.743L240.404 134.063C239.598 134.332 227.791 135.673 226.718 136.21C223.23 137.552 223.23 147.749 222.693 152.042L217.058 199.539H216.521C216.253 201.149 215.984 202.759 215.448 204.369C213.838 218.054 211.423 231.203 200.689 236.838C195.859 238.985 195.054 238.985 188.345 240.058C187.004 240.058 185.662 240.058 184.32 240.058L187.004 217.786C187.809 218.054 188.345 218.054 188.614 218.054C189.687 218.054 191.297 218.054 191.297 218.054L195.054 213.492C198.006 210.004 197.469 204.637 198.006 199.539C199.079 185.048 201.226 168.948 202.836 154.189L204.714 139.43C206.324 134.332 209.276 131.112 214.374 127.355C214.374 127.355 217.594 126.55 217.863 125.208C218.131 122.793 213.033 119.841 211.959 117.694C211.154 115.279 209.544 109.376 209.813 106.424C209.813 98.6422 210.886 89.7869 212.228 78.2483L215.179 54.0975H215.448C215.716 51.4141 216.253 48.4623 215.716 46.3156C215.984 42.5588 214.374 40.4121 213.569 39.3387C211.959 38.8021 209.008 39.0704 206.861 39.0704L209.544 18.1398C210.081 18.1398 211.154 18.1398 211.691 18.1398C214.106 18.1398 217.326 18.1398 217.326 17.0664C219.205 17.0664 218.399 18.1398 219.205 18.1398C220.546 18.1398 221.62 17.0664 222.961 18.1398C226.181 18.1398 226.45 18.1398 228.06 19.4815C237.988 24.58 236.11 38.2654 234.5 52.7558L234.232 54.0975H233.963C233.158 60.001 233.427 66.1729 232.89 70.7347L230.475 88.4452C229.67 94.8854 227.255 104.277 228.865 108.302C228.865 109.376 230.743 111.791 232.622 113.133Z" fill="#C0C0C0"/>
<path d="M24.5588 113.133C26.9739 111.791 29.389 109.376 29.389 108.302C32.0724 104.277 31.804 94.8854 32.6091 88.4452L35.0241 70.7347C35.5608 66.1729 36.9025 60.001 37.7076 54.0975H37.4392L37.7076 52.7558C39.3176 38.2654 41.196 24.58 52.198 19.4815C54.3447 18.1398 54.6131 18.1398 57.8332 18.1398C59.1749 17.0664 60.2482 18.1398 61.5899 18.1398C62.395 18.1398 61.5899 17.0664 63.4683 17.0664C63.4683 18.1398 66.6884 18.1398 69.1035 18.1398C69.6402 18.1398 70.7136 18.1398 71.2502 18.1398L68.5668 39.0704C66.4201 39.0704 63.4683 38.8021 61.8583 39.3387C60.5166 40.4121 58.3698 42.5588 58.1015 46.3156C57.0281 48.4623 56.4915 51.4141 56.2231 54.0975H56.4915L53.5397 78.2483C52.198 89.7869 51.1246 98.6422 48.9779 106.424C48.7096 109.376 45.4895 115.279 44.1478 117.694C42.5377 119.841 36.9025 122.793 36.6342 125.208C36.3658 126.55 39.5859 127.355 39.5859 127.355C43.6111 131.112 45.4895 134.332 46.0261 139.43L44.1478 154.189C42.5377 168.948 40.391 185.048 38.2442 199.539C37.1709 204.637 35.5608 210.004 37.4392 213.492L40.1226 218.054C40.1226 218.054 41.7327 218.054 42.806 218.054C43.0744 218.054 43.6111 218.054 44.4161 217.786L41.7327 240.058C40.391 240.058 39.0493 240.058 37.7076 240.058C31.5357 238.985 30.7307 238.985 26.4372 236.838C16.7769 231.203 17.5819 218.054 19.192 204.369C19.192 202.759 19.4603 201.149 19.7287 199.539H19.192L24.8272 152.042C25.3639 147.749 28.0473 137.552 25.0955 136.21C24.0221 135.673 12.2151 134.332 11.9468 134.063L14.0935 114.743L24.5588 113.133Z" fill="#C0C0C0"/>
<path d="M112.289 92.0243C112.4 91.7671 112.446 91.369 112.446 90.9248C112.412 91.2959 112.357 91.6628 112.289 92.0243Z" fill="#C0C0C0"/>
<path fill-rule="evenodd" clip-rule="evenodd" d="M139.818 36.6027C137.863 35.1261 135.387 33.8825 133.108 33.2314L132.303 34.3048C130.425 33.2314 128.546 33.2314 126.668 33.2314C125.024 33.2314 123.481 32.9293 122.285 32.6953C121.529 32.5472 120.912 32.4264 120.496 32.4264C113.787 33.2314 110.031 35.1098 106.811 38.8666C102.786 41.55 100.639 44.5018 98.2237 49.0636C96.1595 54.0176 95.6832 58.9716 95.2068 63.9256C95.0639 65.4118 94.921 66.898 94.7353 68.3842C94.7353 69.4453 94.3927 70.4208 94.0463 71.4074C93.7794 72.1673 93.5103 72.9337 93.3936 73.751C93.2193 75.2319 93.1299 76.7127 93.0428 78.1569C92.8614 81.1614 92.6897 84.007 91.7835 86.363C90.9785 92.8032 90.1735 99.2435 90.4418 103.805C90.883 107.776 92.4124 111.566 93.688 114.727C93.9641 115.41 94.2282 116.065 94.4669 116.686C95.2719 117.625 95.8757 118.564 96.4795 119.503C97.0833 120.442 97.687 121.382 98.492 122.321C98.7604 122.723 99.1629 123.193 99.5654 123.662C99.9679 124.132 100.37 124.602 100.639 125.004C100.979 125.345 101.401 125.659 101.81 125.962C102.688 126.616 103.505 127.223 103.322 127.956C104.376 128.483 104.395 128.665 104.433 129.029C104.453 129.221 104.479 129.464 104.664 129.834C104.976 130.068 105.423 130.302 105.921 130.562C107.138 131.198 108.654 131.99 109.226 133.323C110.034 133.969 110.647 134.908 111.183 135.728C111.537 136.27 111.857 136.76 112.177 137.08C114.639 140.772 114.94 145.718 114.466 151.138C114.254 151.787 114.078 152.574 113.888 153.42C113.617 154.634 113.317 155.972 112.843 157.205C112.556 158.786 112.422 160.059 112.278 161.436C112.153 162.631 112.019 163.904 111.77 165.524C111.631 167.056 111.13 169.022 110.643 170.933C110.192 172.705 109.752 174.43 109.623 175.721C109.623 176.066 109.771 176.263 109.919 176.46C110.116 176.723 110.313 176.986 110.16 177.599C110.16 177.867 109.959 177.867 109.757 177.867C109.556 177.867 109.355 177.867 109.355 178.136L110.16 179.209C110.067 179.857 109.879 180.377 109.705 180.858C109.374 181.771 109.096 182.54 109.623 183.771C109.008 187.258 108.549 191.371 108.128 195.153C107.998 196.32 107.871 197.455 107.745 198.53C107.632 199.457 107.562 200.353 107.534 201.217C106.156 202.86 103.697 205.091 102.785 205.775C101.712 205.775 99.2971 204.97 99.2971 203.897C96.9156 202.044 97.4043 198.626 97.933 194.93L97.9554 194.773C98.5719 188.402 99.5031 180.616 100.388 173.22C100.658 170.959 100.924 168.734 101.175 166.597C101.294 165.925 101.424 165.212 101.559 164.473C102.341 160.196 103.283 155.042 103.054 151.838C103.322 150.765 103.322 149.155 103.322 149.155C102.761 148.407 100.243 148.702 98.133 148.949C97.2167 149.057 96.3774 149.155 95.8086 149.155H84.0016C82.9602 149.155 82.9086 150.557 82.8407 152.401C82.7861 153.883 82.7211 155.651 82.1232 157.205C81.8358 158.786 81.7023 160.059 81.5579 161.436C81.4326 162.631 81.2991 163.904 81.0498 165.524C80.9106 167.056 80.4098 169.022 79.9228 170.933C79.4716 172.705 79.0322 174.43 78.9031 175.721C78.9031 176.066 79.051 176.263 79.1988 176.46C79.396 176.723 79.5931 176.986 79.4398 177.599C79.4398 177.867 79.2385 177.867 79.0373 177.867C78.836 177.867 78.6348 177.867 78.6348 178.136L79.4398 179.209C79.3472 179.857 79.1589 180.377 78.9849 180.858C78.6545 181.771 78.3758 182.54 78.9031 183.771C78.2878 187.258 77.8293 191.371 77.4077 195.153C77.2777 196.32 77.1512 197.455 77.0247 198.53C75.683 209.532 80.5132 215.972 87.2217 220.534C88.0553 220.951 88.745 221.152 89.5888 221.397C90.3748 221.627 91.2944 221.895 92.5885 222.412C92.991 222.412 93.4606 222.613 93.9302 222.815C94.3998 223.016 94.8694 223.217 95.2719 223.217C103.903 224.45 110.801 222.734 115.987 219.104C116.617 219.601 117.27 220.077 117.942 220.534C118.775 220.951 119.465 221.152 120.309 221.397C121.095 221.627 122.014 221.895 123.309 222.412C123.711 222.412 124.181 222.613 124.65 222.815C125.12 223.016 125.589 223.217 125.992 223.217C146.654 226.169 157.388 212.215 158.461 195.578C159.535 187.528 160.608 179.209 161.681 170.086C161.934 168.065 162.266 165.966 162.602 163.837C163.338 159.179 164.096 154.38 164.096 149.96C164.633 146.203 165.17 141.641 165.438 138.958C164.633 130.639 160.34 124.199 156.046 118.564C155.316 117.542 154.19 116.6 153.055 115.651C152.103 114.855 151.145 114.054 150.411 113.197C150.411 113.197 149.606 113.197 148.801 112.124C148.801 112.124 147.996 110.245 147.459 109.44C144.776 106.757 141.824 103 142.361 98.4384C141.678 97.2435 142.081 95.7228 142.534 94.0145C142.703 93.375 142.88 92.7092 143.009 92.0243C143.12 91.7671 143.166 91.369 143.166 90.9248C143.132 91.2959 143.077 91.6628 143.009 92.0243C142.852 92.3888 142.564 92.4701 142.092 91.9982C142.092 91.9982 142.629 87.4364 142.361 88.2414C143.244 81.702 144.128 74.6969 144.935 68.2997C145.353 64.9841 145.751 61.8318 146.118 58.9922C146.386 55.5038 148.801 51.747 150.679 50.942C150.781 50.5351 150.806 50.5524 150.914 50.6284C151.091 50.7529 151.493 51.0349 152.826 49.8686C153.115 49.5798 153.196 49.4982 153.182 49.4752C153.157 49.434 152.826 49.5798 152.826 49.0636C153.899 47.1852 154.704 49.0636 153.631 49.8686C154.127 50.5303 154.624 50.7841 155.183 51.07C155.531 51.2479 155.903 51.4382 156.315 51.747C157.826 52.5026 157.682 53.4947 157.215 56.7203C157.184 56.9312 157.152 57.1516 157.12 57.3822C157.12 58.3253 157.027 59.0843 156.951 59.713C156.897 60.1577 156.851 60.5371 156.851 60.8706C155.986 63.292 156.236 66.0478 156.452 68.4195C156.57 69.7275 156.678 70.9187 156.583 71.8726C155.704 72.5754 155.401 72.818 155.296 73.1278C155.241 73.2911 155.241 73.4731 155.241 73.751C154.526 75.0032 154.526 76.2555 154.526 77.5078C154.526 78.1339 154.526 78.76 154.436 79.3862C154.26 81.6731 153.738 83.614 153.248 85.4358C152.991 86.3929 152.743 87.3172 152.558 88.2414C153.631 88.8546 153.741 88.7672 153.838 88.7797C153.91 88.789 153.976 88.8546 154.436 89.3148C154.776 89.8239 154.149 90.333 153.439 90.9101C153.026 91.2454 152.585 91.6037 152.289 91.9982C150.12 96.3363 153.562 96.1159 157.37 95.872C158.273 95.8142 159.197 95.755 160.071 95.755H170.805C172.102 95.0137 171.992 92.2245 171.887 89.5973C171.841 88.4205 171.795 87.2762 171.878 86.363C173.129 82.1926 173.732 77.5361 174.317 73.023C174.484 71.7283 174.651 70.4454 174.83 69.1892C174.977 68.0758 175.136 66.9432 175.297 65.7992C176.61 56.4651 178.03 46.3648 173.488 39.6716C171.878 36.9882 167.585 34.3048 163.828 33.2314L163.023 34.3048C161.145 33.2314 159.266 33.2314 157.388 33.2314C155.744 33.2314 154.201 32.9293 153.005 32.6953C152.249 32.5472 151.632 32.4264 151.216 32.4264C146.02 33.0499 142.595 34.3173 139.818 36.6027ZM145.866 51.599C145.933 51.6542 146.017 51.7037 146.118 51.747C146.118 50.942 146.118 50.942 146.923 50.942C146.923 50.942 146.923 52.552 147.996 51.747C147.56 51.4204 147.699 50.608 147.857 49.686C148.087 48.3354 148.358 46.7497 146.923 46.1118C147.757 47.0853 147.006 48.347 146.35 49.4489C146.153 49.7797 145.965 50.0961 145.83 50.3859C145.849 50.7873 145.86 51.1918 145.866 51.599ZM125.613 67.0349C125.462 65.0155 125.43 62.8332 126.131 60.8706C126.131 60.5371 126.177 60.1577 126.231 59.713C126.307 59.0843 126.4 58.3253 126.4 57.3822C126.432 57.1516 126.464 56.9312 126.495 56.7203C126.962 53.4946 127.106 52.5026 125.595 51.747C125.183 51.4382 124.811 51.2479 124.463 51.07C123.904 50.7841 123.407 50.5303 122.911 49.8686C123.984 49.0636 123.179 47.1852 122.106 49.0636C122.106 49.5798 122.437 49.434 122.462 49.4752C122.476 49.4982 122.395 49.5798 122.106 49.8686C120.773 51.0349 120.371 50.7529 120.194 50.6284C120.086 50.5524 120.061 50.5351 119.959 50.942C118.081 51.747 115.666 55.5038 115.398 58.9922C115.031 61.8317 114.634 64.9838 114.215 68.2991C113.408 74.6965 112.524 81.7018 111.641 88.2414C111.909 87.4364 111.372 91.9982 111.372 91.9982C111.844 92.4701 112.132 92.3888 112.289 92.0243C112.16 92.7092 111.983 93.375 111.814 94.0145C111.361 95.7228 110.958 97.2435 111.641 98.4384C111.104 103 114.056 106.757 116.739 109.44C117.276 110.245 118.081 112.124 118.081 112.124C118.886 113.197 119.691 113.197 119.691 113.197C120.425 114.054 121.383 114.855 122.335 115.651C123.47 116.6 124.596 117.542 125.326 118.564C129.62 124.199 133.913 130.639 134.718 138.958C134.45 141.641 133.913 146.203 133.376 149.96C133.376 150.132 133.375 150.304 133.373 150.477C133.669 150.928 133.878 151.423 133.774 151.838C134.003 155.042 133.061 160.196 132.279 164.473C132.144 165.212 132.014 165.925 131.895 166.597C131.644 168.734 131.378 170.959 131.108 173.22C130.223 180.616 129.292 188.403 128.675 194.773L128.653 194.93C128.124 198.626 127.636 202.044 130.017 203.897C130.017 204.97 132.432 205.775 133.505 205.775C134.579 204.97 137.799 202.018 138.872 200.408C139.409 195.578 139.946 191.016 140.751 185.649C141.21 180.825 141.866 175.607 142.551 170.164C142.666 169.249 142.782 168.328 142.897 167.402C143.176 165.12 143.546 162.792 143.916 160.47C145.328 151.598 146.726 142.822 142.897 137.08C142.577 136.76 142.257 136.27 141.903 135.728C141.367 134.908 140.754 133.969 139.946 133.323C139.374 131.99 137.858 131.198 136.641 130.562C136.143 130.302 135.696 130.068 135.384 129.834C135.199 129.464 135.173 129.221 135.153 129.029C135.115 128.665 135.096 128.483 134.042 127.956C134.225 127.223 133.408 126.616 132.53 125.962C132.121 125.659 131.699 125.345 131.359 125.004C131.09 124.602 130.688 124.132 130.285 123.662C129.883 123.193 129.48 122.723 129.212 122.321C128.407 121.382 127.803 120.442 127.199 119.503C126.596 118.564 125.992 117.625 125.187 116.686C124.948 116.065 124.684 115.411 124.408 114.727C123.132 111.566 121.603 107.776 121.162 103.805C120.893 99.2435 121.698 92.8033 122.503 86.3632C123.41 84.0071 123.581 81.1614 123.763 78.1569C123.777 77.9234 123.791 77.6889 123.806 77.4536C123.806 76.7137 123.809 75.9738 123.964 75.2339C124.007 74.7405 124.055 74.2458 124.114 73.751C124.23 72.9337 124.499 72.1673 124.766 71.4074C125.113 70.4208 125.455 69.4453 125.455 68.3842C125.511 67.9344 125.564 67.4846 125.613 67.0349ZM116.203 50.942C115.398 50.942 115.398 50.942 115.398 51.747C114.493 51.3592 115.02 50.4731 115.63 49.4489C116.286 48.347 117.037 47.0853 116.203 46.1118C117.638 46.7497 117.367 48.3354 117.137 49.686C116.979 50.608 116.84 51.4204 117.276 51.747C116.203 52.552 116.203 50.942 116.203 50.942ZM110.637 53.1464C110.456 52.8603 110.261 52.552 110.836 52.552C110.065 52.552 110.401 51.7225 110.751 50.8573C110.889 50.5172 111.028 50.1715 111.104 49.8686C112.607 50.8703 111.772 52.3395 110.782 53.4036C110.752 53.3274 110.695 53.238 110.637 53.1464ZM108.421 61.944L109.494 62.749C110.299 62.749 110.836 67.3108 107.884 66.5058C107.884 66.5058 108.152 65.4324 108.957 66.5058L109.226 65.4324C108.078 66.3503 108.108 65.6983 108.141 64.9868C108.147 64.8662 108.152 64.744 108.152 64.6274H109.226C108.325 63.9519 108.369 63.0875 108.407 62.3512C108.414 62.21 108.421 62.0735 108.421 61.944ZM106.305 79.0741C106.562 78.5316 106.826 77.9746 105.737 77.5078C106.862 77.0859 106.956 76.0743 107.021 75.3616C107.035 75.2126 107.047 75.0767 107.068 74.9619C107.76 75.4213 107.667 76.2484 107.572 77.0923C107.474 77.9704 107.373 78.8668 108.152 79.3862C107.455 80.0833 107.362 80.7805 107.175 82.1748C107.146 82.3905 107.115 82.6229 107.079 82.8746C105.929 82.8746 105.885 82.171 105.84 81.4404C105.811 80.9774 105.781 80.5035 105.469 80.1912H106.274C105.936 79.8529 106.119 79.4673 106.305 79.0741ZM107.1 74.8244H107.884C107.371 74.4825 107.185 74.5489 107.1 74.8244ZM104.396 88.2414C104.932 84.4847 107.347 87.4364 106.274 89.3148C105.838 89.3148 105.8 88.8274 105.766 88.3747C105.715 87.7134 105.67 87.1263 104.396 88.2414ZM107.743 101.961C107.899 100.799 108.04 99.751 108.421 99.2434C108.421 99.2434 109.857 99.2434 109.859 98.7053C109.86 98.9465 109.588 99.1049 109.28 99.2842C108.881 99.5173 108.421 99.7856 108.421 100.317C108.343 100.864 108.424 101.479 108.505 102.096C108.703 103.599 108.903 105.113 106.811 105.684C107.376 104.694 107.569 103.256 107.743 101.961ZM102.249 105.684C102.517 104.879 101.444 104.879 101.444 104.879C101.19 103.989 101.477 103.099 101.765 102.209C102.085 101.221 102.404 100.232 101.98 99.2434C102.907 99.2434 102.834 101.444 102.796 102.563C102.791 102.74 102.785 102.89 102.785 103C102.517 103.805 101.444 103.805 101.444 103.805C103.322 103.805 103.054 105.684 101.98 107.562C101.38 107.562 101.536 107.31 101.789 106.899C101.989 106.577 102.249 106.156 102.249 105.684ZM95.2719 106.22C95.0036 106.22 94.7353 106.22 94.7353 105.684H95.8086C96.6136 105.684 95.5403 107.562 95.5403 107.562C95.5403 108.099 95.339 107.897 95.1042 107.663C94.8694 107.428 94.6011 107.16 94.4669 107.562C93.9302 106.757 94.7353 106.757 95.8086 106.757C95.8086 106.22 95.5403 106.22 95.2719 106.22ZM116.29 120.647C116.657 119.907 117.05 119.111 116.471 117.759C116.471 117.401 116.411 116.865 116.342 116.238C116.203 114.986 116.024 113.376 116.203 112.124C117.813 114.002 118.349 116.686 118.081 118.564C118.081 119.139 118.235 119.946 118.378 120.694C118.502 121.342 118.618 121.947 118.618 122.321C118.618 122.321 117.544 124.199 119.423 123.126C118.726 124.102 118.608 125.367 118.505 126.471C118.41 127.492 118.328 128.374 117.813 128.761C116.832 128.761 116.946 127.069 117.064 125.322C117.14 124.2 117.217 123.055 117.008 122.321C117.008 122.321 115.934 122.321 115.934 121.516C116.009 121.215 116.148 120.935 116.29 120.647ZM112.905 116.186C112.824 116.389 112.756 116.56 112.714 116.686C111.909 116.686 112.177 115.076 112.177 115.076V115.881C112.982 115.076 112.982 114.002 112.982 114.002H112.177C112.289 113.667 112.495 113.471 112.696 113.279C112.977 113.011 113.251 112.75 113.251 112.124C114.157 113.03 113.342 115.083 112.905 116.186ZM112.177 121.518C112.176 122.321 111.372 122.321 111.372 122.321C110.567 122.321 111.641 119.637 112.446 120.442C111.963 119.959 112.059 119.766 112.214 119.457C112.317 119.251 112.446 118.993 112.446 118.564C113.519 119.637 112.177 121.516 111.372 121.516C111.372 121.516 112.176 122.319 112.177 121.518ZM138.463 101.961C138.619 100.799 138.76 99.751 139.141 99.2434C139.141 99.2434 140.577 99.2434 140.579 98.7054C140.579 98.9465 140.308 99.1049 140 99.2842C139.601 99.5173 139.141 99.7856 139.141 100.317C139.063 100.864 139.144 101.479 139.225 102.096C139.423 103.599 139.623 105.113 137.531 105.684C138.096 104.694 138.289 103.256 138.463 101.961ZM132.969 105.684C133.237 104.879 132.164 104.879 132.164 104.879C131.91 103.989 132.197 103.099 132.485 102.209C132.805 101.221 133.124 100.232 132.7 99.2434C133.627 99.2434 133.554 101.444 133.516 102.563C133.511 102.74 133.505 102.89 133.505 103C133.237 103.805 132.164 103.805 132.164 103.805C134.042 103.805 133.774 105.684 132.7 107.562C132.1 107.562 132.256 107.31 132.509 106.899C132.709 106.577 132.969 106.156 132.969 105.684ZM125.992 106.22C125.724 106.22 125.455 106.22 125.455 105.684H126.529C127.334 105.684 126.26 107.562 126.26 107.562C126.26 108.099 126.059 107.897 125.824 107.663C125.589 107.428 125.321 107.16 125.187 107.562C124.65 106.757 125.455 106.757 126.529 106.757C126.529 106.22 126.26 106.22 125.992 106.22ZM147.01 120.647C147.377 119.907 147.77 119.111 147.191 117.759C147.191 117.401 147.131 116.865 147.062 116.238C146.923 114.986 146.744 113.376 146.923 112.124C148.533 114.002 149.069 116.686 148.801 118.564C148.801 119.139 148.955 119.946 149.098 120.694C149.222 121.342 149.338 121.947 149.338 122.321C149.338 122.321 148.264 124.199 150.143 123.126C149.446 124.102 149.328 125.367 149.225 126.471C149.13 127.492 149.048 128.374 148.533 128.761C147.552 128.761 147.666 127.069 147.784 125.322C147.86 124.2 147.937 123.055 147.728 122.321C147.728 122.321 146.654 122.321 146.654 121.516C146.729 121.215 146.868 120.935 147.01 120.647ZM143.625 116.186C143.544 116.389 143.476 116.56 143.434 116.686C142.629 116.686 142.897 115.076 142.897 115.076V115.881C143.702 115.076 143.702 114.002 143.702 114.002H142.897C143.009 113.667 143.215 113.471 143.416 113.279C143.697 113.011 143.971 112.75 143.971 112.124C144.877 113.03 144.062 115.083 143.625 116.186ZM142.897 121.518C142.896 122.321 142.092 122.321 142.092 122.321C141.287 122.321 142.361 119.637 143.166 120.442C142.683 119.959 142.779 119.766 142.934 119.457C143.037 119.251 143.166 118.993 143.166 118.564C144.239 119.637 142.897 121.516 142.092 121.516C142.092 121.516 142.896 122.319 142.897 121.518Z" fill="#C0C0C0"/>
</svg>
