<?xml version="1.0" encoding="UTF-8"?><svg xmlns="http://www.w3.org/2000/svg" width="256" height="256" viewBox="0 0 256 256" fill="none" version="1.2" baseProfile="tiny-ps"><title>HYPE Group</title><circle cx="128" cy="128" r="128" fill="#036EB8"></circle><path d="M52.572 115.144C59.5153 115.144 65.144 109.515 65.144 102.572C65.144 95.6287 59.5153 90 52.572 90C45.6287 90 40 95.6287 40 102.572C40 109.515 45.6287 115.144 52.572 115.144Z" fill="white"></path><path d="M102.859 115.144C109.802 115.144 115.431 109.515 115.431 102.572C115.431 95.6287 109.802 90 102.859 90C95.9157 90 90.287 95.6287 90.287 102.572C90.287 109.515 95.9157 115.144 102.859 115.144Z" fill="white"></path><path d="M153.146 115.144C160.089 115.144 165.718 109.515 165.718 102.572C165.718 95.6287 160.089 90 153.146 90C146.203 90 140.574 95.6287 140.574 102.572C140.574 109.515 146.203 115.144 153.146 115.144Z" fill="white"></path><path d="M203.432 115.144C210.375 115.144 216.004 109.515 216.004 102.572C216.004 95.6287 210.375 90 203.432 90C196.489 90 190.86 95.6287 190.86 102.572C190.86 109.515 196.489 115.144 203.432 115.144Z" fill="white"></path><path d="M77.715 140.287C84.6583 140.287 90.287 134.658 90.287 127.715C90.287 120.772 84.6583 115.143 77.715 115.143C70.7717 115.143 65.143 120.772 65.143 127.715C65.143 134.658 70.7717 140.287 77.715 140.287Z" fill="white"></path><path d="M128.002 140.287C134.945 140.287 140.574 134.658 140.574 127.715C140.574 120.772 134.945 115.143 128.002 115.143C121.059 115.143 115.43 120.772 115.43 127.715C115.43 134.658 121.059 140.287 128.002 140.287Z" fill="white"></path><path d="M178.289 140.287C185.232 140.287 190.861 134.658 190.861 127.715C190.861 120.772 185.232 115.143 178.289 115.143C171.346 115.143 165.717 120.772 165.717 127.715C165.717 134.658 171.346 140.287 178.289 140.287Z" fill="white"></path><path d="M52.572 165.431C59.5153 165.431 65.144 159.802 65.144 152.859C65.144 145.916 59.5153 140.287 52.572 140.287C45.6287 140.287 40 145.916 40 152.859C40 159.802 45.6287 165.431 52.572 165.431Z" fill="white"></path><path d="M102.859 165.431C109.802 165.431 115.431 159.802 115.431 152.859C115.431 145.916 109.802 140.287 102.859 140.287C95.9157 140.287 90.287 145.916 90.287 152.859C90.287 159.802 95.9157 165.431 102.859 165.431Z" fill="white"></path><path d="M153.146 165.431C160.089 165.431 165.718 159.802 165.718 152.859C165.718 145.916 160.089 140.287 153.146 140.287C146.203 140.287 140.574 145.916 140.574 152.859C140.574 159.802 146.203 165.431 153.146 165.431Z" fill="white"></path><path d="M203.432 165.431C210.375 165.431 216.004 159.802 216.004 152.859C216.004 145.916 210.375 140.287 203.432 140.287C196.489 140.287 190.86 145.916 190.86 152.859C190.86 159.802 196.489 165.431 203.432 165.431Z" fill="white"></path></svg>