<?xml version="1.0" encoding="UTF-8"?><svg xmlns="http://www.w3.org/2000/svg" width="256" height="256" viewBox="0 0 256 256" fill="none" version="1.2" baseProfile="tiny-ps"><title>HYPE Studio</title><circle cx="128" cy="128" r="128" fill="#036EB8"></circle><path d="M180.223 170.366C173.684 169.077 169.182 162.825 169.182 156.003V100.108C169.138 98.2715 169.461 96.4447 170.133 94.735C170.806 93.0254 171.813 91.4675 173.096 90.153C174.379 88.8384 175.913 87.7938 177.606 87.0806C179.298 86.3674 181.117 86 182.954 86C184.791 86 186.609 86.3674 188.302 87.0806C189.995 87.7938 191.529 88.8384 192.812 90.153C194.095 91.4675 195.102 93.0254 195.775 94.735C196.447 96.4447 196.77 98.2715 196.726 100.108V156.527C196.77 160.224 195.343 163.788 192.76 166.433C190.177 169.079 186.648 170.59 182.951 170.635C182.035 170.634 181.121 170.544 180.223 170.366V170.366ZM59.001 156.527V100.898C59.001 93.266 64.584 86.418 72.031 86.018C73.9225 85.9379 75.8106 86.2443 77.5797 86.9186C79.3488 87.5928 80.9618 88.6207 82.3202 89.9394C83.6787 91.2582 84.7539 92.8401 85.4803 94.5884C86.2067 96.3368 86.569 98.2149 86.545 100.108V156.527C86.589 160.223 85.1629 163.786 82.5804 166.431C79.9979 169.076 76.4705 170.587 72.774 170.632C69.0771 170.588 65.5492 169.077 62.9663 166.432C60.3833 163.787 58.957 160.224 59.001 156.527V156.527ZM127.863 149.474C127.928 146.764 128.791 144.134 130.344 141.912C131.896 139.69 134.07 137.976 136.592 136.984C139.115 135.992 141.874 135.766 144.524 136.334C147.175 136.903 149.598 138.24 151.492 140.18C153.385 142.119 154.665 144.574 155.17 147.237C155.675 149.9 155.383 152.653 154.331 155.151C153.279 157.649 151.513 159.781 149.255 161.281C146.997 162.78 144.347 163.58 141.636 163.58C139.805 163.558 137.997 163.176 136.314 162.455C134.631 161.735 133.107 160.689 131.828 159.38C130.549 158.07 129.541 156.521 128.86 154.821C128.18 153.122 127.841 151.305 127.863 149.474V149.474ZM100.317 107.161C100.273 105.324 100.596 103.498 101.268 101.788C101.941 100.078 102.948 98.5205 104.231 97.206C105.514 95.8914 107.048 94.8468 108.741 94.1336C110.433 93.4204 112.252 93.053 114.089 93.053C115.926 93.053 117.744 93.4204 119.437 94.1336C121.13 94.8468 122.664 95.8914 123.947 97.206C125.23 98.5205 126.237 100.078 126.91 101.788C127.582 103.498 127.905 105.324 127.861 107.161C127.905 108.997 127.582 110.824 126.91 112.534C126.237 114.243 125.23 115.801 123.947 117.116C122.664 118.43 121.13 119.475 119.437 120.188C117.744 120.901 115.926 121.269 114.089 121.269C112.252 121.269 110.433 120.901 108.741 120.188C107.048 119.475 105.514 118.43 104.231 117.116C102.948 115.801 101.941 114.243 101.268 112.534C100.596 110.824 100.273 108.997 100.317 107.161V107.161Z" fill="white"></path></svg>